<?xml version="1.0" encoding="UTF-8" standalone="no"?>
<!DOCTYPE svg PUBLIC "-//W3C//DTD SVG 1.1//EN"
 "http://www.w3.org/Graphics/SVG/1.1/DTD/svg11.dtd">
<!-- Generated by graphviz version 2.43.0 (0)
 -->
<!-- Title: /home/runner/work/Weaver/Weaver/include/Misc/JsonValidator/Elements/Boolean.h Pages: 1 -->
<svg width="575pt" height="291pt"
 viewBox="0.00 0.00 575.00 291.00" xmlns="http://www.w3.org/2000/svg" xmlns:xlink="http://www.w3.org/1999/xlink">
<g id="graph0" class="graph" transform="scale(1 1) rotate(0) translate(4 287)">
<title>/home/runner/work/Weaver/Weaver/include/Misc/JsonValidator/Elements/Boolean.h</title>
<!-- Node1 -->
<g id="Node000001" class="node">
<title>Node1</title>
<g id="a_Node000001"><a xlink:title="Represents a JSON boolean element with validation.">
<polygon fill="#999999" stroke="#666666" points="298,-283 111,-283 111,-242 298,-242 298,-283"/>
<text text-anchor="start" x="119" y="-271" font-family="Helvetica,sans-Serif" font-size="10.00">/home/runner/work/Weaver</text>
<text text-anchor="start" x="119" y="-260" font-family="Helvetica,sans-Serif" font-size="10.00">/Weaver/include/Misc/JsonValidator</text>
<text text-anchor="middle" x="204.5" y="-249" font-family="Helvetica,sans-Serif" font-size="10.00">/Elements/Boolean.h</text>
</a>
</g>
</g>
<!-- Node2 -->
<g id="Node000002" class="node">
<title>Node2</title>
<g id="a_Node000002"><a xlink:title=" ">
<polygon fill="#e0e0e0" stroke="#999999" points="93,-200.5 0,-200.5 0,-181.5 93,-181.5 93,-200.5"/>
<text text-anchor="middle" x="46.5" y="-188.5" font-family="Helvetica,sans-Serif" font-size="10.00">unordered_map</text>
</a>
</g>
</g>
<!-- Node1&#45;&gt;Node2 -->
<g id="edge1_Node000001_Node000002" class="edge">
<title>Node1&#45;&gt;Node2</title>
<g id="a_edge1_Node000001_Node000002"><a xlink:title=" ">
<path fill="none" stroke="#63b8ff" d="M160.07,-241.96C132.91,-230.01 98.97,-215.08 75.3,-204.67"/>
<polygon fill="#63b8ff" stroke="#63b8ff" points="76.39,-201.33 65.83,-200.5 73.58,-207.73 76.39,-201.33"/>
</a>
</g>
</g>
<!-- Node3 -->
<g id="Node000003" class="node">
<title>Node3</title>
<g id="a_Node000003"><a xlink:title=" ">
<polygon fill="#e0e0e0" stroke="#999999" points="343.5,-19 299.5,-19 299.5,0 343.5,0 343.5,-19"/>
<text text-anchor="middle" x="321.5" y="-7" font-family="Helvetica,sans-Serif" font-size="10.00">string</text>
</a>
</g>
</g>
<!-- Node1&#45;&gt;Node3 -->
<g id="edge2_Node000001_Node000003" class="edge">
<title>Node1&#45;&gt;Node3</title>
<g id="a_edge2_Node000001_Node000003"><a xlink:title=" ">
<path fill="none" stroke="#63b8ff" d="M184.47,-241.56C157.08,-211.8 114.19,-154.48 140.5,-110 172.79,-55.4 246.89,-28.74 289.6,-17.49"/>
<polygon fill="#63b8ff" stroke="#63b8ff" points="290.63,-20.84 299.48,-15.01 288.93,-14.05 290.63,-20.84"/>
</a>
</g>
</g>
<!-- Node4 -->
<g id="Node000004" class="node">
<title>Node4</title>
<g id="a_Node000004"><a xlink:title=" ">
<polygon fill="#e0e0e0" stroke="#999999" points="259.5,-134.5 149.5,-134.5 149.5,-115.5 259.5,-115.5 259.5,-134.5"/>
<text text-anchor="middle" x="204.5" y="-122.5" font-family="Helvetica,sans-Serif" font-size="10.00">nlohmann/json.hpp</text>
</a>
</g>
</g>
<!-- Node1&#45;&gt;Node4 -->
<g id="edge3_Node000001_Node000004" class="edge">
<title>Node1&#45;&gt;Node4</title>
<g id="a_edge3_Node000001_Node000004"><a xlink:title=" ">
<path fill="none" stroke="#63b8ff" d="M204.5,-241.8C204.5,-215.83 204.5,-170.45 204.5,-144.89"/>
<polygon fill="#63b8ff" stroke="#63b8ff" points="208,-144.69 204.5,-134.69 201,-144.69 208,-144.69"/>
</a>
</g>
</g>
<!-- Node5 -->
<g id="Node000005" class="node">
<title>Node5</title>
<g id="a_Node000005"><a xlink:href="Element_8h.html" target="_top" xlink:title="Abstract base class representing a configurable element in JSON&#45;based configurations.">
<polygon fill="white" stroke="#666666" points="374.5,-206 256.5,-206 256.5,-176 374.5,-176 374.5,-206"/>
<text text-anchor="start" x="264.5" y="-194" font-family="Helvetica,sans-Serif" font-size="10.00">Misc/JsonValidator</text>
<text text-anchor="middle" x="315.5" y="-183" font-family="Helvetica,sans-Serif" font-size="10.00">/Elements/Element.h</text>
</a>
</g>
</g>
<!-- Node1&#45;&gt;Node5 -->
<g id="edge4_Node000001_Node000005" class="edge">
<title>Node1&#45;&gt;Node5</title>
<g id="a_edge4_Node000001_Node000005"><a xlink:title=" ">
<path fill="none" stroke="#63b8ff" d="M235.72,-241.96C250.94,-232.42 269.2,-220.99 284.41,-211.47"/>
<polygon fill="#63b8ff" stroke="#63b8ff" points="286.34,-214.39 292.96,-206.11 282.63,-208.45 286.34,-214.39"/>
</a>
</g>
</g>
<!-- Node8 -->
<g id="Node000008" class="node">
<title>Node8</title>
<g id="a_Node000008"><a xlink:href="Exceptions_8h.html" target="_top" xlink:title="Defines JSON validator exception classes with line/file information for error reporting.">
<polygon fill="white" stroke="#666666" points="550.5,-140 444.5,-140 444.5,-110 550.5,-110 550.5,-140"/>
<text text-anchor="start" x="452.5" y="-128" font-family="Helvetica,sans-Serif" font-size="10.00">Misc/JsonValidator</text>
<text text-anchor="middle" x="497.5" y="-117" font-family="Helvetica,sans-Serif" font-size="10.00">/Exceptions.h</text>
</a>
</g>
</g>
<!-- Node1&#45;&gt;Node8 -->
<g id="edge14_Node000001_Node000008" class="edge">
<title>Node1&#45;&gt;Node8</title>
<g id="a_edge14_Node000001_Node000008"><a xlink:title=" ">
<path fill="none" stroke="#63b8ff" d="M286.3,-241.93C317.55,-232.98 352.98,-220.98 383.5,-206 416.6,-189.75 450.73,-164.47 472.9,-146.68"/>
<polygon fill="#63b8ff" stroke="#63b8ff" points="475.24,-149.29 480.79,-140.27 470.82,-143.86 475.24,-149.29"/>
</a>
</g>
</g>
<!-- Node5&#45;&gt;Node3 -->
<g id="edge6_Node000005_Node000003" class="edge">
<title>Node5&#45;&gt;Node3</title>
<g id="a_edge6_Node000005_Node000003"><a xlink:title=" ">
<path fill="none" stroke="#63b8ff" d="M312.22,-175.65C310.11,-165.71 307.58,-152.12 306.5,-140 302.97,-100.51 311.3,-54.43 316.9,-29.27"/>
<polygon fill="#63b8ff" stroke="#63b8ff" points="320.37,-29.81 319.24,-19.28 313.55,-28.22 320.37,-29.81"/>
</a>
</g>
</g>
<!-- Node5&#45;&gt;Node4 -->
<g id="edge8_Node000005_Node000004" class="edge">
<title>Node5&#45;&gt;Node4</title>
<g id="a_edge8_Node000005_Node000004"><a xlink:title=" ">
<path fill="none" stroke="#63b8ff" d="M291.14,-175.95C272.36,-165.13 246.55,-150.24 227.99,-139.54"/>
<polygon fill="#63b8ff" stroke="#63b8ff" points="229.68,-136.48 219.27,-134.52 226.19,-142.54 229.68,-136.48"/>
</a>
</g>
</g>
<!-- Node6 -->
<g id="Node000006" class="node">
<title>Node6</title>
<g id="a_Node000006"><a xlink:title=" ">
<polygon fill="#e0e0e0" stroke="#999999" points="363,-134.5 316,-134.5 316,-115.5 363,-115.5 363,-134.5"/>
<text text-anchor="middle" x="339.5" y="-122.5" font-family="Helvetica,sans-Serif" font-size="10.00">vector</text>
</a>
</g>
</g>
<!-- Node5&#45;&gt;Node6 -->
<g id="edge5_Node000005_Node000006" class="edge">
<title>Node5&#45;&gt;Node6</title>
<g id="a_edge5_Node000005_Node000006"><a xlink:title=" ">
<path fill="none" stroke="#63b8ff" d="M320.83,-175.8C324.31,-166.5 328.9,-154.27 332.65,-144.26"/>
<polygon fill="#63b8ff" stroke="#63b8ff" points="335.95,-145.44 336.18,-134.84 329.39,-142.98 335.95,-145.44"/>
</a>
</g>
</g>
<!-- Node7 -->
<g id="Node000007" class="node">
<title>Node7</title>
<g id="a_Node000007"><a xlink:title=" ">
<polygon fill="#e0e0e0" stroke="#999999" points="426,-134.5 381,-134.5 381,-115.5 426,-115.5 426,-134.5"/>
<text text-anchor="middle" x="403.5" y="-122.5" font-family="Helvetica,sans-Serif" font-size="10.00">utility</text>
</a>
</g>
</g>
<!-- Node5&#45;&gt;Node7 -->
<g id="edge7_Node000005_Node000007" class="edge">
<title>Node5&#45;&gt;Node7</title>
<g id="a_edge7_Node000005_Node000007"><a xlink:title=" ">
<path fill="none" stroke="#63b8ff" d="M335.03,-175.8C349.37,-165.37 368.8,-151.24 383.29,-140.69"/>
<polygon fill="#63b8ff" stroke="#63b8ff" points="385.57,-143.37 391.59,-134.66 381.45,-137.71 385.57,-143.37"/>
</a>
</g>
</g>
<!-- Node5&#45;&gt;Node8 -->
<g id="edge9_Node000005_Node000008" class="edge">
<title>Node5&#45;&gt;Node8</title>
<g id="a_edge9_Node000005_Node000008"><a xlink:title=" ">
<path fill="none" stroke="#63b8ff" d="M355.44,-175.95C382.7,-166.37 419.01,-153.6 448.09,-143.37"/>
<polygon fill="#63b8ff" stroke="#63b8ff" points="449.38,-146.63 457.65,-140.01 447.06,-140.03 449.38,-146.63"/>
</a>
</g>
</g>
<!-- Node8&#45;&gt;Node3 -->
<g id="edge10_Node000008_Node000003" class="edge">
<title>Node8&#45;&gt;Node3</title>
<g id="a_edge10_Node000008_Node000003"><a xlink:title=" ">
<path fill="none" stroke="#63b8ff" d="M459.7,-109.97C438.23,-101.17 411.36,-88.71 389.5,-74 369.11,-60.28 348.94,-40.44 335.93,-26.6"/>
<polygon fill="#63b8ff" stroke="#63b8ff" points="338.5,-24.22 329.15,-19.24 333.35,-28.96 338.5,-24.22"/>
</a>
</g>
</g>
<!-- Node9 -->
<g id="Node000009" class="node">
<title>Node9</title>
<g id="a_Node000009"><a xlink:href="LineInfoException_8h.html" target="_top" xlink:title="Exception class with detailed file and line information for error reporting.">
<polygon fill="white" stroke="#666666" points="567,-74 398,-74 398,-55 567,-55 567,-74"/>
<text text-anchor="middle" x="482.5" y="-62" font-family="Helvetica,sans-Serif" font-size="10.00">Exceptions/LineInfoException.h</text>
</a>
</g>
</g>
<!-- Node8&#45;&gt;Node9 -->
<g id="edge11_Node000008_Node000009" class="edge">
<title>Node8&#45;&gt;Node9</title>
<g id="a_edge11_Node000008_Node000009"><a xlink:title=" ">
<path fill="none" stroke="#63b8ff" d="M493.87,-109.84C491.89,-102.13 489.42,-92.49 487.29,-84.17"/>
<polygon fill="#63b8ff" stroke="#63b8ff" points="490.62,-83.08 484.75,-74.27 483.84,-84.82 490.62,-83.08"/>
</a>
</g>
</g>
<!-- Node9&#45;&gt;Node3 -->
<g id="edge13_Node000009_Node000003" class="edge">
<title>Node9&#45;&gt;Node3</title>
<g id="a_edge13_Node000009_Node000003"><a xlink:title=" ">
<path fill="none" stroke="#63b8ff" d="M456.63,-54.98C428.52,-45.73 383.58,-30.94 353.33,-20.98"/>
<polygon fill="#63b8ff" stroke="#63b8ff" points="354.27,-17.6 343.68,-17.8 352.08,-24.25 354.27,-17.6"/>
</a>
</g>
</g>
<!-- Node10 -->
<g id="Node000010" class="node">
<title>Node10</title>
<g id="a_Node000010"><a xlink:title=" ">
<polygon fill="#e0e0e0" stroke="#999999" points="515,-19 450,-19 450,0 515,0 515,-19"/>
<text text-anchor="middle" x="482.5" y="-7" font-family="Helvetica,sans-Serif" font-size="10.00">exception</text>
</a>
</g>
</g>
<!-- Node9&#45;&gt;Node10 -->
<g id="edge12_Node000009_Node000010" class="edge">
<title>Node9&#45;&gt;Node10</title>
<g id="a_edge12_Node000009_Node000010"><a xlink:title=" ">
<path fill="none" stroke="#63b8ff" d="M482.5,-54.75C482.5,-47.8 482.5,-37.85 482.5,-29.13"/>
<polygon fill="#63b8ff" stroke="#63b8ff" points="486,-29.09 482.5,-19.09 479,-29.09 486,-29.09"/>
</a>
</g>
</g>
</g>
</svg>
