<?xml version="1.0" encoding="UTF-8" standalone="no"?>
<!DOCTYPE svg PUBLIC "-//W3C//DTD SVG 1.1//EN"
 "http://www.w3.org/Graphics/SVG/1.1/DTD/svg11.dtd">
<!-- Generated by graphviz version 2.43.0 (0)
 -->
<!-- Title: /home/runner/work/Weaver/Weaver/include/App/Model/IBM/Landscape/Map/TerrainCells/PatchApplicator/Obstacle/CellObstacle.h Pages: 1 -->
<svg width="1106pt" height="346pt"
 viewBox="0.00 0.00 1106.25 346.00" xmlns="http://www.w3.org/2000/svg" xmlns:xlink="http://www.w3.org/1999/xlink">
<g id="graph0" class="graph" transform="scale(1 1) rotate(0) translate(4 342)">
<title>/home/runner/work/Weaver/Weaver/include/App/Model/IBM/Landscape/Map/TerrainCells/PatchApplicator/Obstacle/CellObstacle.h</title>
<!-- Node1 -->
<g id="Node000001" class="node">
<title>Node1</title>
<g id="a_Node000001"><a xlink:title="Concrete implementation of the obstacle interface for terrain cells.">
<polygon fill="#999999" stroke="#666666" points="963.05,-338 748.05,-338 748.05,-286 963.05,-286 963.05,-338"/>
<text text-anchor="start" x="756.05" y="-326" font-family="Helvetica,sans-Serif" font-size="10.00">/home/runner/work/Weaver</text>
<text text-anchor="start" x="756.05" y="-315" font-family="Helvetica,sans-Serif" font-size="10.00">/Weaver/include/App/Model</text>
<text text-anchor="start" x="756.05" y="-304" font-family="Helvetica,sans-Serif" font-size="10.00">/IBM/Landscape/Map/TerrainCells</text>
<text text-anchor="middle" x="855.55" y="-293" font-family="Helvetica,sans-Serif" font-size="10.00">/PatchApplicator/Obstacle/CellObstacle.h</text>
</a>
</g>
</g>
<!-- Node2 -->
<g id="Node000002" class="node">
<title>Node2</title>
<g id="a_Node000002"><a xlink:title=" ">
<polygon fill="#e0e0e0" stroke="#999999" points="924.05,-96 817.05,-96 817.05,-66 924.05,-66 924.05,-96"/>
<text text-anchor="start" x="825.05" y="-84" font-family="Helvetica,sans-Serif" font-size="10.00">boost/serialization</text>
<text text-anchor="middle" x="870.55" y="-73" font-family="Helvetica,sans-Serif" font-size="10.00">/serialization.hpp</text>
</a>
</g>
</g>
<!-- Node1&#45;&gt;Node2 -->
<g id="edge1_Node000001_Node000002" class="edge">
<title>Node1&#45;&gt;Node2</title>
<g id="a_edge1_Node000001_Node000002"><a xlink:title=" ">
<path fill="none" stroke="#63b8ff" d="M857.22,-285.62C860.13,-241.17 866.11,-149.85 868.97,-106.23"/>
<polygon fill="#63b8ff" stroke="#63b8ff" points="872.46,-106.43 869.62,-96.22 865.48,-105.97 872.46,-106.43"/>
</a>
</g>
</g>
<!-- Node3 -->
<g id="Node000003" class="node">
<title>Node3</title>
<g id="a_Node000003"><a xlink:title=" ">
<polygon fill="#e0e0e0" stroke="#999999" points="278.05,-96 171.05,-96 171.05,-66 278.05,-66 278.05,-96"/>
<text text-anchor="start" x="179.05" y="-84" font-family="Helvetica,sans-Serif" font-size="10.00">boost/serialization</text>
<text text-anchor="middle" x="224.55" y="-73" font-family="Helvetica,sans-Serif" font-size="10.00">/base_object.hpp</text>
</a>
</g>
</g>
<!-- Node1&#45;&gt;Node3 -->
<g id="edge2_Node000001_Node000003" class="edge">
<title>Node1&#45;&gt;Node3</title>
<g id="a_edge2_Node000001_Node000003"><a xlink:title=" ">
<path fill="none" stroke="#63b8ff" d="M747.66,-310.35C541.58,-306.51 104.4,-285.04 14.55,-173 -28.8,-118.93 84.4,-96.3 160.96,-87.36"/>
<polygon fill="#63b8ff" stroke="#63b8ff" points="161.48,-90.83 171.03,-86.24 160.7,-83.87 161.48,-90.83"/>
</a>
</g>
</g>
<!-- Node4 -->
<g id="Node000004" class="node">
<title>Node4</title>
<g id="a_Node000004"><a xlink:title=" ">
<polygon fill="#e0e0e0" stroke="#999999" points="1066.55,-96 942.55,-96 942.55,-66 1066.55,-66 1066.55,-96"/>
<text text-anchor="start" x="950.55" y="-84" font-family="Helvetica,sans-Serif" font-size="10.00">boost/serialization</text>
<text text-anchor="middle" x="1004.55" y="-73" font-family="Helvetica,sans-Serif" font-size="10.00">/assume_abstract.hpp</text>
</a>
</g>
</g>
<!-- Node1&#45;&gt;Node4 -->
<g id="edge3_Node000001_Node000004" class="edge">
<title>Node1&#45;&gt;Node4</title>
<g id="a_edge3_Node000001_Node000004"><a xlink:title=" ">
<path fill="none" stroke="#63b8ff" d="M957.64,-285.83C974.52,-277.18 989.94,-265.57 1000.55,-250 1030.18,-206.52 1020.05,-140.93 1011.48,-105.95"/>
<polygon fill="#63b8ff" stroke="#63b8ff" points="1014.83,-104.93 1008.91,-96.14 1008.05,-106.7 1014.83,-104.93"/>
</a>
</g>
</g>
<!-- Node5 -->
<g id="Node000005" class="node">
<title>Node5</title>
<g id="a_Node000005"><a xlink:title=" ">
<polygon fill="#e0e0e0" stroke="#999999" points="991.05,-244.5 884.05,-244.5 884.05,-214.5 991.05,-214.5 991.05,-244.5"/>
<text text-anchor="start" x="892.05" y="-232.5" font-family="Helvetica,sans-Serif" font-size="10.00">boost/serialization</text>
<text text-anchor="middle" x="937.55" y="-221.5" font-family="Helvetica,sans-Serif" font-size="10.00">/export.hpp</text>
</a>
</g>
</g>
<!-- Node1&#45;&gt;Node5 -->
<g id="edge4_Node000001_Node000005" class="edge">
<title>Node1&#45;&gt;Node5</title>
<g id="a_edge4_Node000001_Node000005"><a xlink:title=" ">
<path fill="none" stroke="#63b8ff" d="M881.05,-285.97C892.1,-275.13 904.9,-262.55 915.53,-252.12"/>
<polygon fill="#63b8ff" stroke="#63b8ff" points="918.14,-254.46 922.83,-244.96 913.24,-249.47 918.14,-254.46"/>
</a>
</g>
</g>
<!-- Node6 -->
<g id="Node000006" class="node">
<title>Node6</title>
<g id="a_Node000006"><a xlink:href="CellObstacleInterface_8h.html" target="_top" xlink:title="Interface for obstacle elements within a terrain cell.">
<polygon fill="white" stroke="#666666" points="549.05,-250 370.05,-250 370.05,-209 549.05,-209 549.05,-250"/>
<text text-anchor="start" x="378.05" y="-238" font-family="Helvetica,sans-Serif" font-size="10.00">App/Model/IBM/Landscape</text>
<text text-anchor="start" x="378.05" y="-227" font-family="Helvetica,sans-Serif" font-size="10.00">/Map/TerrainCells/PatchApplicator</text>
<text text-anchor="middle" x="459.55" y="-216" font-family="Helvetica,sans-Serif" font-size="10.00">/Obstacle/CellObstacleInterface.h</text>
</a>
</g>
</g>
<!-- Node1&#45;&gt;Node6 -->
<g id="edge5_Node000001_Node000006" class="edge">
<title>Node1&#45;&gt;Node6</title>
<g id="a_edge5_Node000001_Node000006"><a xlink:title=" ">
<path fill="none" stroke="#63b8ff" d="M747.87,-289.11C688.98,-277.14 616.52,-262.41 558.98,-250.71"/>
<polygon fill="#63b8ff" stroke="#63b8ff" points="559.65,-247.28 549.15,-248.71 558.25,-254.14 559.65,-247.28"/>
</a>
</g>
</g>
<!-- Node6&#45;&gt;Node2 -->
<g id="edge6_Node000006_Node000002" class="edge">
<title>Node6&#45;&gt;Node2</title>
<g id="a_edge6_Node000006_Node000002"><a xlink:title=" ">
<path fill="none" stroke="#63b8ff" d="M549.07,-221.19C634.91,-212.88 757.37,-197.23 798.55,-173 825.81,-156.96 846.71,-126.38 858.8,-105.12"/>
<polygon fill="#63b8ff" stroke="#63b8ff" points="862.01,-106.55 863.73,-96.09 855.86,-103.19 862.01,-106.55"/>
</a>
</g>
</g>
<!-- Node6&#45;&gt;Node3 -->
<g id="edge7_Node000006_Node000003" class="edge">
<title>Node6&#45;&gt;Node3</title>
<g id="a_edge7_Node000006_Node000003"><a xlink:title=" ">
<path fill="none" stroke="#63b8ff" d="M432.29,-208.9C418.33,-198.58 401.22,-185.5 386.55,-173 366.46,-155.87 365.65,-146.46 343.55,-132 323.39,-118.8 299.17,-107.87 277.86,-99.63"/>
<polygon fill="#63b8ff" stroke="#63b8ff" points="278.89,-96.27 268.3,-96.03 276.43,-102.83 278.89,-96.27"/>
</a>
</g>
</g>
<!-- Node6&#45;&gt;Node4 -->
<g id="edge8_Node000006_Node000004" class="edge">
<title>Node6&#45;&gt;Node4</title>
<g id="a_edge8_Node000006_Node000004"><a xlink:title=" ">
<path fill="none" stroke="#63b8ff" d="M549.18,-223.8C626.21,-217.75 739.41,-204.01 833.55,-173 886.25,-155.64 942.05,-122.86 975.07,-101.75"/>
<polygon fill="#63b8ff" stroke="#63b8ff" points="977.26,-104.49 983.75,-96.12 973.45,-98.62 977.26,-104.49"/>
</a>
</g>
</g>
<!-- Node7 -->
<g id="Node000007" class="node">
<title>Node7</title>
<g id="a_Node000007"><a xlink:title=" ">
<polygon fill="#e0e0e0" stroke="#999999" points="319.05,-30 214.05,-30 214.05,0 319.05,0 319.05,-30"/>
<text text-anchor="start" x="222.05" y="-18" font-family="Helvetica,sans-Serif" font-size="10.00">boost/archive/text</text>
<text text-anchor="middle" x="266.55" y="-7" font-family="Helvetica,sans-Serif" font-size="10.00">_iarchive.hpp</text>
</a>
</g>
</g>
<!-- Node6&#45;&gt;Node7 -->
<g id="edge9_Node000006_Node000007" class="edge">
<title>Node6&#45;&gt;Node7</title>
<g id="a_edge9_Node000006_Node000007"><a xlink:title=" ">
<path fill="none" stroke="#63b8ff" d="M370.03,-223.59C246.86,-215.91 37.66,-199.17 14.55,-173 -48.4,-101.7 110.33,-51.62 203.87,-29.21"/>
<polygon fill="#63b8ff" stroke="#63b8ff" points="204.89,-32.56 213.82,-26.87 203.29,-25.75 204.89,-32.56"/>
</a>
</g>
</g>
<!-- Node8 -->
<g id="Node000008" class="node">
<title>Node8</title>
<g id="a_Node000008"><a xlink:title=" ">
<polygon fill="#e0e0e0" stroke="#999999" points="442.05,-30 337.05,-30 337.05,0 442.05,0 442.05,-30"/>
<text text-anchor="start" x="345.05" y="-18" font-family="Helvetica,sans-Serif" font-size="10.00">boost/archive/text</text>
<text text-anchor="middle" x="389.55" y="-7" font-family="Helvetica,sans-Serif" font-size="10.00">_oarchive.hpp</text>
</a>
</g>
</g>
<!-- Node6&#45;&gt;Node8 -->
<g id="edge10_Node000006_Node000008" class="edge">
<title>Node6&#45;&gt;Node8</title>
<g id="a_edge10_Node000006_Node000008"><a xlink:title=" ">
<path fill="none" stroke="#63b8ff" d="M442.25,-208.98C434.18,-198.89 425.14,-185.98 419.55,-173 400.41,-128.54 393.43,-71.78 390.92,-40.12"/>
<polygon fill="#63b8ff" stroke="#63b8ff" points="394.4,-39.76 390.21,-30.03 387.42,-40.25 394.4,-39.76"/>
</a>
</g>
</g>
<!-- Node9 -->
<g id="Node000009" class="node">
<title>Node9</title>
<g id="a_Node000009"><a xlink:title=" ">
<polygon fill="#e0e0e0" stroke="#999999" points="591.55,-30 475.55,-30 475.55,0 591.55,0 591.55,-30"/>
<text text-anchor="start" x="483.55" y="-18" font-family="Helvetica,sans-Serif" font-size="10.00">boost/archive/binary</text>
<text text-anchor="middle" x="533.55" y="-7" font-family="Helvetica,sans-Serif" font-size="10.00">_iarchive.hpp</text>
</a>
</g>
</g>
<!-- Node6&#45;&gt;Node9 -->
<g id="edge11_Node000006_Node000009" class="edge">
<title>Node6&#45;&gt;Node9</title>
<g id="a_edge11_Node000006_Node000009"><a xlink:title=" ">
<path fill="none" stroke="#63b8ff" d="M549.16,-223.9C705.68,-213.65 1017.82,-182.57 1075.55,-96 1082.95,-84.91 1084.62,-75.78 1075.55,-66 1041.19,-28.93 686.99,-36.61 601.76,-29.69"/>
<polygon fill="#63b8ff" stroke="#63b8ff" points="601.89,-26.18 591.58,-28.61 601.15,-33.14 601.89,-26.18"/>
</a>
</g>
</g>
<!-- Node10 -->
<g id="Node000010" class="node">
<title>Node10</title>
<g id="a_Node000010"><a xlink:title=" ">
<polygon fill="#e0e0e0" stroke="#999999" points="725.55,-30 609.55,-30 609.55,0 725.55,0 725.55,-30"/>
<text text-anchor="start" x="617.55" y="-18" font-family="Helvetica,sans-Serif" font-size="10.00">boost/archive/binary</text>
<text text-anchor="middle" x="667.55" y="-7" font-family="Helvetica,sans-Serif" font-size="10.00">_oarchive.hpp</text>
</a>
</g>
</g>
<!-- Node6&#45;&gt;Node10 -->
<g id="edge12_Node000006_Node000010" class="edge">
<title>Node6&#45;&gt;Node10</title>
<g id="a_edge12_Node000006_Node000010"><a xlink:title=" ">
<path fill="none" stroke="#63b8ff" d="M549.15,-225.21C679.91,-219.41 916,-204.8 994.55,-173 1045.9,-152.21 1068.34,-145.82 1092.55,-96 1098.38,-84.01 1101.41,-75.96 1092.55,-66 1069.28,-39.83 849.72,-25.09 735.65,-19.13"/>
<polygon fill="#63b8ff" stroke="#63b8ff" points="735.79,-15.64 725.62,-18.62 735.43,-22.63 735.79,-15.64"/>
</a>
</g>
</g>
<!-- Node11 -->
<g id="Node000011" class="node">
<title>Node11</title>
<g id="a_Node000011"><a xlink:title=" ">
<polygon fill="#e0e0e0" stroke="#999999" points="79.05,-162 24.05,-162 24.05,-143 79.05,-143 79.05,-162"/>
<text text-anchor="middle" x="51.55" y="-150" font-family="Helvetica,sans-Serif" font-size="10.00">fstream</text>
</a>
</g>
</g>
<!-- Node6&#45;&gt;Node11 -->
<g id="edge13_Node000006_Node000011" class="edge">
<title>Node6&#45;&gt;Node11</title>
<g id="a_edge13_Node000006_Node000011"><a xlink:title=" ">
<path fill="none" stroke="#63b8ff" d="M369.97,-223.88C293.33,-217.88 180.92,-204.18 87.55,-173 82.95,-171.46 78.25,-169.36 73.82,-167.1"/>
<polygon fill="#63b8ff" stroke="#63b8ff" points="75.17,-163.85 64.72,-162.07 71.78,-169.98 75.17,-163.85"/>
</a>
</g>
</g>
<!-- Node12 -->
<g id="Node000012" class="node">
<title>Node12</title>
<g id="a_Node000012"><a xlink:title=" ">
<polygon fill="#e0e0e0" stroke="#999999" points="154.05,-162 97.05,-162 97.05,-143 154.05,-143 154.05,-162"/>
<text text-anchor="middle" x="125.55" y="-150" font-family="Helvetica,sans-Serif" font-size="10.00">ostream</text>
</a>
</g>
</g>
<!-- Node6&#45;&gt;Node12 -->
<g id="edge14_Node000006_Node000012" class="edge">
<title>Node6&#45;&gt;Node12</title>
<g id="a_edge14_Node000006_Node000012"><a xlink:title=" ">
<path fill="none" stroke="#63b8ff" d="M369.76,-218.52C310.16,-210.25 230.83,-196.02 163.55,-173 158.72,-171.35 153.74,-169.17 149.04,-166.87"/>
<polygon fill="#63b8ff" stroke="#63b8ff" points="150.4,-163.64 139.92,-162.12 147.16,-169.85 150.4,-163.64"/>
</a>
</g>
</g>
<!-- Node13 -->
<g id="Node000013" class="node">
<title>Node13</title>
<g id="a_Node000013"><a xlink:title=" ">
<polygon fill="#e0e0e0" stroke="#999999" points="258.55,-162 172.55,-162 172.55,-143 258.55,-143 258.55,-162"/>
<text text-anchor="middle" x="215.55" y="-150" font-family="Helvetica,sans-Serif" font-size="10.00">unordered_set</text>
</a>
</g>
</g>
<!-- Node6&#45;&gt;Node13 -->
<g id="edge15_Node000006_Node000013" class="edge">
<title>Node6&#45;&gt;Node13</title>
<g id="a_edge15_Node000006_Node000013"><a xlink:title=" ">
<path fill="none" stroke="#63b8ff" d="M387.12,-208.99C350.99,-198.9 306.75,-185.99 267.55,-173 260.79,-170.76 253.6,-168.19 246.79,-165.66"/>
<polygon fill="#63b8ff" stroke="#63b8ff" points="247.77,-162.29 237.18,-162.04 245.3,-168.84 247.77,-162.29"/>
</a>
</g>
</g>
<!-- Node14 -->
<g id="Node000014" class="node">
<title>Node14</title>
<g id="a_Node000014"><a xlink:title=" ">
<polygon fill="#e0e0e0" stroke="#999999" points="334.55,-162 276.55,-162 276.55,-143 334.55,-143 334.55,-162"/>
<text text-anchor="middle" x="305.55" y="-150" font-family="Helvetica,sans-Serif" font-size="10.00">memory</text>
</a>
</g>
</g>
<!-- Node6&#45;&gt;Node14 -->
<g id="edge16_Node000006_Node000014" class="edge">
<title>Node6&#45;&gt;Node14</title>
<g id="a_edge16_Node000006_Node000014"><a xlink:title=" ">
<path fill="none" stroke="#63b8ff" d="M419.49,-208.99C392.08,-195.64 356.48,-178.3 332.42,-166.58"/>
<polygon fill="#63b8ff" stroke="#63b8ff" points="333.71,-163.32 323.19,-162.09 330.65,-169.61 333.71,-163.32"/>
</a>
</g>
</g>
<!-- Node15 -->
<g id="Node000015" class="node">
<title>Node15</title>
<g id="a_Node000015"><a xlink:href="CellElement_8h.html" target="_top" xlink:title="Defines the CellElement base class representing any patch&#45;modifiable element within a terrain cell (m...">
<polygon fill="white" stroke="#666666" points="608.05,-173 429.05,-173 429.05,-132 608.05,-132 608.05,-173"/>
<text text-anchor="start" x="437.05" y="-161" font-family="Helvetica,sans-Serif" font-size="10.00">App/Model/IBM/Landscape</text>
<text text-anchor="start" x="437.05" y="-150" font-family="Helvetica,sans-Serif" font-size="10.00">/Map/TerrainCells/PatchApplicator</text>
<text text-anchor="middle" x="518.55" y="-139" font-family="Helvetica,sans-Serif" font-size="10.00">/CellElement.h</text>
</a>
</g>
</g>
<!-- Node6&#45;&gt;Node15 -->
<g id="edge17_Node000006_Node000015" class="edge">
<title>Node6&#45;&gt;Node15</title>
<g id="a_edge17_Node000006_Node000015"><a xlink:title=" ">
<path fill="none" stroke="#63b8ff" d="M475.06,-208.79C481.7,-200.35 489.57,-190.35 496.78,-181.18"/>
<polygon fill="#63b8ff" stroke="#63b8ff" points="499.72,-183.1 503.16,-173.07 494.22,-178.77 499.72,-183.1"/>
</a>
</g>
</g>
<!-- Node16 -->
<g id="Node000016" class="node">
<title>Node16</title>
<g id="a_Node000016"><a xlink:href="ObstacleSource_8h.html" target="_top" xlink:title="Defines the ObstacleSource class representing obstacles in a landscape.">
<polygon fill="white" stroke="#666666" points="789.05,-173 626.05,-173 626.05,-132 789.05,-132 789.05,-173"/>
<text text-anchor="start" x="634.05" y="-161" font-family="Helvetica,sans-Serif" font-size="10.00">App/Model/IBM/Landscape</text>
<text text-anchor="start" x="634.05" y="-150" font-family="Helvetica,sans-Serif" font-size="10.00">/Map/Patches/Source/Obstacle</text>
<text text-anchor="middle" x="707.55" y="-139" font-family="Helvetica,sans-Serif" font-size="10.00">Source.h</text>
</a>
</g>
</g>
<!-- Node6&#45;&gt;Node16 -->
<g id="edge25_Node000006_Node000016" class="edge">
<title>Node6&#45;&gt;Node16</title>
<g id="a_edge25_Node000006_Node000016"><a xlink:title=" ">
<path fill="none" stroke="#63b8ff" d="M524.07,-208.99C557.52,-198.87 598.54,-186.47 633.31,-175.95"/>
<polygon fill="#63b8ff" stroke="#63b8ff" points="634.38,-179.29 642.94,-173.04 632.35,-172.59 634.38,-179.29"/>
</a>
</g>
</g>
<!-- Node15&#45;&gt;Node2 -->
<g id="edge18_Node000015_Node000002" class="edge">
<title>Node15&#45;&gt;Node2</title>
<g id="a_edge18_Node000015_Node000002"><a xlink:title=" ">
<path fill="none" stroke="#63b8ff" d="M608.27,-133.61C611.06,-133.07 613.83,-132.53 616.55,-132 698.3,-116.16 721.29,-113.55 807.05,-96.06"/>
<polygon fill="#63b8ff" stroke="#63b8ff" points="807.87,-99.47 816.96,-94.03 806.46,-92.61 807.87,-99.47"/>
</a>
</g>
</g>
<!-- Node15&#45;&gt;Node3 -->
<g id="edge19_Node000015_Node000003" class="edge">
<title>Node15&#45;&gt;Node3</title>
<g id="a_edge19_Node000015_Node000003"><a xlink:title=" ">
<path fill="none" stroke="#63b8ff" d="M435.88,-131.96C389.08,-120.89 331.45,-107.27 288.2,-97.05"/>
<polygon fill="#63b8ff" stroke="#63b8ff" points="288.9,-93.62 278.36,-94.72 287.29,-100.43 288.9,-93.62"/>
</a>
</g>
</g>
<!-- Node15&#45;&gt;Node4 -->
<g id="edge20_Node000015_Node000004" class="edge">
<title>Node15&#45;&gt;Node4</title>
<g id="a_edge20_Node000015_Node000004"><a xlink:title=" ">
<path fill="none" stroke="#63b8ff" d="M608.22,-133.35C611.03,-132.88 613.81,-132.43 616.55,-132 753.37,-110.66 791.65,-117.39 931.98,-96.16"/>
<polygon fill="#63b8ff" stroke="#63b8ff" points="932.91,-99.56 942.27,-94.58 931.85,-92.64 932.91,-99.56"/>
</a>
</g>
</g>
<!-- Node15&#45;&gt;Node7 -->
<g id="edge21_Node000015_Node000007" class="edge">
<title>Node15&#45;&gt;Node7</title>
<g id="a_edge21_Node000015_Node000007"><a xlink:title=" ">
<path fill="none" stroke="#63b8ff" d="M478.61,-131.9C457.64,-121.47 431.58,-108.29 408.55,-96 370.82,-75.87 328.15,-51.62 299.52,-35.14"/>
<polygon fill="#63b8ff" stroke="#63b8ff" points="301.15,-32.04 290.74,-30.07 297.65,-38.1 301.15,-32.04"/>
</a>
</g>
</g>
<!-- Node15&#45;&gt;Node8 -->
<g id="edge22_Node000015_Node000008" class="edge">
<title>Node15&#45;&gt;Node8</title>
<g id="a_edge22_Node000015_Node000008"><a xlink:title=" ">
<path fill="none" stroke="#63b8ff" d="M478.51,-131.84C462.5,-122.57 444.77,-110.38 431.55,-96 416.52,-79.64 405.27,-56.9 398.21,-39.85"/>
<polygon fill="#63b8ff" stroke="#63b8ff" points="401.29,-38.09 394.37,-30.07 394.77,-40.66 401.29,-38.09"/>
</a>
</g>
</g>
<!-- Node15&#45;&gt;Node9 -->
<g id="edge23_Node000015_Node000009" class="edge">
<title>Node15&#45;&gt;Node9</title>
<g id="a_edge23_Node000015_Node000009"><a xlink:title=" ">
<path fill="none" stroke="#63b8ff" d="M479.19,-131.88C452.38,-115.71 424.31,-91.38 439.55,-66 447.83,-52.22 461.33,-42.04 475.55,-34.59"/>
<polygon fill="#63b8ff" stroke="#63b8ff" points="477.44,-37.56 484.95,-30.08 474.42,-31.25 477.44,-37.56"/>
</a>
</g>
</g>
<!-- Node15&#45;&gt;Node10 -->
<g id="edge24_Node000015_Node000010" class="edge">
<title>Node15&#45;&gt;Node10</title>
<g id="a_edge24_Node000015_Node000010"><a xlink:title=" ">
<path fill="none" stroke="#63b8ff" d="M586.94,-131.91C606.41,-123.52 626.2,-111.89 640.55,-96 654.55,-80.51 661.33,-57.49 664.59,-40.11"/>
<polygon fill="#63b8ff" stroke="#63b8ff" points="668.06,-40.57 666.2,-30.14 661.15,-39.46 668.06,-40.57"/>
</a>
</g>
</g>
<!-- Node17 -->
<g id="Node000017" class="node">
<title>Node17</title>
<g id="a_Node000017"><a xlink:title=" ">
<polygon fill="#e0e0e0" stroke="#999999" points="798.55,-90.5 688.55,-90.5 688.55,-71.5 798.55,-71.5 798.55,-90.5"/>
<text text-anchor="middle" x="743.55" y="-78.5" font-family="Helvetica,sans-Serif" font-size="10.00">nlohmann/json.hpp</text>
</a>
</g>
</g>
<!-- Node16&#45;&gt;Node17 -->
<g id="edge26_Node000016_Node000017" class="edge">
<title>Node16&#45;&gt;Node17</title>
<g id="a_edge26_Node000016_Node000017"><a xlink:title=" ">
<path fill="none" stroke="#63b8ff" d="M717.77,-131.77C722.96,-121.76 729.21,-109.7 734.26,-99.95"/>
<polygon fill="#63b8ff" stroke="#63b8ff" points="737.49,-101.31 738.99,-90.82 731.28,-98.09 737.49,-101.31"/>
</a>
</g>
</g>
<!-- Node18 -->
<g id="Node000018" class="node">
<title>Node18</title>
<g id="a_Node000018"><a xlink:href="PathSource_8h.html" target="_top" xlink:title="Defines the PathSource abstract base class representing sources of landscape information.">
<polygon fill="white" stroke="#666666" points="632.05,-96 449.05,-96 449.05,-66 632.05,-66 632.05,-96"/>
<text text-anchor="start" x="457.05" y="-84" font-family="Helvetica,sans-Serif" font-size="10.00">App/Model/IBM/Landscape</text>
<text text-anchor="middle" x="540.55" y="-73" font-family="Helvetica,sans-Serif" font-size="10.00">/Map/Patches/Source/PathSource.h</text>
</a>
</g>
</g>
<!-- Node16&#45;&gt;Node18 -->
<g id="edge27_Node000016_Node000018" class="edge">
<title>Node16&#45;&gt;Node18</title>
<g id="a_edge27_Node000016_Node000018"><a xlink:title=" ">
<path fill="none" stroke="#63b8ff" d="M660.59,-131.96C636.43,-121.9 607.17,-109.73 583.6,-99.91"/>
<polygon fill="#63b8ff" stroke="#63b8ff" points="584.78,-96.61 574.2,-96 582.09,-103.08 584.78,-96.61"/>
</a>
</g>
</g>
<!-- Node18&#45;&gt;Node7 -->
<g id="edge28_Node000018_Node000007" class="edge">
<title>Node18&#45;&gt;Node7</title>
<g id="a_edge28_Node000018_Node000007"><a xlink:title=" ">
<path fill="none" stroke="#63b8ff" d="M480.42,-65.95C435.61,-55.49 374.57,-41.23 329.17,-30.62"/>
<polygon fill="#63b8ff" stroke="#63b8ff" points="329.68,-27.15 319.15,-28.28 328.09,-33.97 329.68,-27.15"/>
</a>
</g>
</g>
<!-- Node18&#45;&gt;Node8 -->
<g id="edge29_Node000018_Node000008" class="edge">
<title>Node18&#45;&gt;Node8</title>
<g id="a_edge29_Node000018_Node000008"><a xlink:title=" ">
<path fill="none" stroke="#63b8ff" d="M507.42,-65.95C485.29,-56.58 455.98,-44.16 432.13,-34.05"/>
<polygon fill="#63b8ff" stroke="#63b8ff" points="433.19,-30.69 422.61,-30.01 430.46,-37.14 433.19,-30.69"/>
</a>
</g>
</g>
<!-- Node18&#45;&gt;Node9 -->
<g id="edge30_Node000018_Node000009" class="edge">
<title>Node18&#45;&gt;Node9</title>
<g id="a_edge30_Node000018_Node000009"><a xlink:title=" ">
<path fill="none" stroke="#63b8ff" d="M539,-65.8C538.18,-58.26 537.14,-48.78 536.19,-40.13"/>
<polygon fill="#63b8ff" stroke="#63b8ff" points="539.67,-39.72 535.1,-30.16 532.71,-40.49 539.67,-39.72"/>
</a>
</g>
</g>
<!-- Node18&#45;&gt;Node10 -->
<g id="edge31_Node000018_Node000010" class="edge">
<title>Node18&#45;&gt;Node10</title>
<g id="a_edge31_Node000018_Node000010"><a xlink:title=" ">
<path fill="none" stroke="#63b8ff" d="M568.42,-65.95C586.7,-56.74 610.81,-44.6 630.67,-34.59"/>
<polygon fill="#63b8ff" stroke="#63b8ff" points="632.39,-37.64 639.75,-30.01 629.24,-31.39 632.39,-37.64"/>
</a>
</g>
</g>
</g>
</svg>
