<?xml version="1.0" encoding="UTF-8" standalone="no"?>
<!DOCTYPE svg PUBLIC "-//W3C//DTD SVG 1.1//EN"
 "http://www.w3.org/Graphics/SVG/1.1/DTD/svg11.dtd">
<!-- Generated by graphviz version 2.43.0 (0)
 -->
<!-- Title: CellResourceGrowth Pages: 1 -->
<svg width="2028pt" height="585pt"
 viewBox="0.00 0.00 2028.00 584.50" xmlns="http://www.w3.org/2000/svg" xmlns:xlink="http://www.w3.org/1999/xlink">
<g id="graph0" class="graph" transform="scale(1 1) rotate(0) translate(4 580.5)">
<title>CellResourceGrowth</title>
<!-- Node1 -->
<g id="Node000001" class="node">
<title>Node1</title>
<g id="a_Node000001"><a xlink:title="Concrete growth handler for a resource in a terrain cell.">
<polygon fill="#999999" stroke="#666666" points="2020,-121 1904,-121 1904,-102 2020,-102 2020,-121"/>
<text text-anchor="middle" x="1962" y="-109" font-family="Helvetica,sans-Serif" font-size="10.00">CellResourceGrowth</text>
</a>
</g>
</g>
<!-- Node2 -->
<g id="Node000002" class="node">
<title>Node2</title>
<g id="a_Node000002"><a xlink:href="classCellResourceInterfaceGrowth.html" target="_top" xlink:title="Manages growth and biomass for a resource cell.">
<polygon fill="white" stroke="#666666" points="1867,-318 1708,-318 1708,-299 1867,-299 1867,-318"/>
<text text-anchor="middle" x="1787.5" y="-306" font-family="Helvetica,sans-Serif" font-size="10.00">CellResourceInterfaceGrowth</text>
</a>
</g>
</g>
<!-- Node2&#45;&gt;Node1 -->
<g id="edge1_Node000001_Node000002" class="edge">
<title>Node2&#45;&gt;Node1</title>
<g id="a_edge1_Node000001_Node000002"><a xlink:title=" ">
<path fill="none" stroke="#63b8ff" d="M1803.47,-291.4C1838.47,-251.44 1924.75,-152.9 1952.36,-121.37"/>
<polygon fill="#63b8ff" stroke="#63b8ff" points="1800.77,-289.17 1796.82,-299 1806.04,-293.78 1800.77,-289.17"/>
</a>
</g>
</g>
<!-- Node3 -->
<g id="Node000003" class="node">
<title>Node3</title>
<g id="a_Node000003"><a xlink:href="classEdibleGrowth.html" target="_top" xlink:title="Represents the growth characteristics and current biomasses of an edible object.">
<polygon fill="white" stroke="#666666" points="799.5,-468 717.5,-468 717.5,-449 799.5,-449 799.5,-468"/>
<text text-anchor="middle" x="758.5" y="-456" font-family="Helvetica,sans-Serif" font-size="10.00">EdibleGrowth</text>
</a>
</g>
</g>
<!-- Node3&#45;&gt;Node2 -->
<g id="edge2_Node000002_Node000003" class="edge">
<title>Node3&#45;&gt;Node2</title>
<g id="a_edge2_Node000002_Node000003"><a xlink:title=" ">
<path fill="none" stroke="#63b8ff" d="M809.79,-451.08C866.28,-443.39 960.75,-432.5 1042.5,-432.5 1042.5,-432.5 1042.5,-432.5 1577,-432.5 1666.6,-432.5 1751.47,-347.46 1778,-318.23"/>
<polygon fill="#63b8ff" stroke="#63b8ff" points="809.12,-447.63 799.7,-452.47 810.08,-454.57 809.12,-447.63"/>
</a>
</g>
</g>
<!-- Node4 -->
<g id="Node000004" class="node">
<title>Node4</title>
<g id="a_Node000004"><a xlink:href="classInstar.html" target="_top" xlink:title="Represents a developmental stage (instar) of an animal in the simulation.">
<polygon fill="white" stroke="#666666" points="93.5,-516 49.5,-516 49.5,-497 93.5,-497 93.5,-516"/>
<text text-anchor="middle" x="71.5" y="-504" font-family="Helvetica,sans-Serif" font-size="10.00">Instar</text>
</a>
</g>
</g>
<!-- Node4&#45;&gt;Node3 -->
<g id="edge3_Node000003_Node000004" class="edge">
<title>Node4&#45;&gt;Node3</title>
<g id="a_edge3_Node000003_Node000004"><a xlink:title=" ">
<path fill="none" stroke="#9a32cd" stroke-dasharray="5,2" d="M103.91,-505.33C192.26,-501.87 450.39,-490.69 664,-470.5 681.43,-468.85 700.63,-466.49 717.07,-464.29"/>
<polygon fill="#9a32cd" stroke="#9a32cd" points="103.62,-501.84 93.76,-505.72 103.89,-508.83 103.62,-501.84"/>
</a>
</g>
<text text-anchor="middle" x="387" y="-499.5" font-family="Helvetica,sans-Serif" font-size="10.00" fill="grey"> instar</text>
</g>
<!-- Node5 -->
<g id="Node000005" class="node">
<title>Node5</title>
<g id="a_Node000005"><a xlink:href="classSpeciesGrowth.html" target="_top" xlink:title="Represents the growth characteristics of a species across its instars.">
<polygon fill="white" stroke="#666666" points="431.5,-543 342.5,-543 342.5,-524 431.5,-524 431.5,-543"/>
<text text-anchor="middle" x="387" y="-531" font-family="Helvetica,sans-Serif" font-size="10.00">SpeciesGrowth</text>
</a>
</g>
</g>
<!-- Node4&#45;&gt;Node5 -->
<g id="edge5_Node000005_Node000004" class="edge">
<title>Node4&#45;&gt;Node5</title>
<g id="a_edge5_Node000005_Node000004"><a xlink:title=" ">
<path fill="none" stroke="#9a32cd" stroke-dasharray="5,2" d="M103.61,-509.18C159.78,-514.02 278.24,-524.22 342.44,-529.75"/>
<polygon fill="#9a32cd" stroke="#9a32cd" points="103.82,-505.68 93.56,-508.31 103.22,-512.66 103.82,-505.68"/>
</a>
</g>
<text text-anchor="middle" x="217" y="-525.5" font-family="Helvetica,sans-Serif" font-size="10.00" fill="grey"> lastInstar</text>
</g>
<!-- Node5&#45;&gt;Node3 -->
<g id="edge4_Node000003_Node000005" class="edge">
<title>Node5&#45;&gt;Node3</title>
<g id="a_edge4_Node000003_Node000005"><a xlink:title=" ">
<path fill="none" stroke="#9a32cd" stroke-dasharray="5,2" d="M441.69,-534.9C498.2,-534.94 589.15,-530.89 664,-508.5 694.33,-499.43 726.11,-479.97 743.7,-468.19"/>
<polygon fill="#9a32cd" stroke="#9a32cd" points="441.57,-531.4 431.56,-534.85 441.54,-538.4 441.57,-531.4"/>
</a>
</g>
<text text-anchor="middle" x="582.5" y="-535.5" font-family="Helvetica,sans-Serif" font-size="10.00" fill="grey"> speciesGrowth</text>
</g>
<!-- Node6 -->
<g id="Node000006" class="node">
<title>Node6</title>
<g id="a_Node000006"><a xlink:href="classCustomIndexedVector.html" target="_top" xlink:title=" ">
<polygon fill="white" stroke="#666666" points="143,-576.5 0,-576.5 0,-546.5 143,-546.5 143,-576.5"/>
<text text-anchor="start" x="8" y="-564.5" font-family="Helvetica,sans-Serif" font-size="10.00">CustomIndexedVector</text>
<text text-anchor="middle" x="71.5" y="-553.5" font-family="Helvetica,sans-Serif" font-size="10.00">&lt; Instar, PreciseDouble &gt;</text>
</a>
</g>
</g>
<!-- Node6&#45;&gt;Node5 -->
<g id="edge6_Node000005_Node000006" class="edge">
<title>Node6&#45;&gt;Node5</title>
<g id="a_edge6_Node000005_Node000006"><a xlink:title=" ">
<path fill="none" stroke="#9a32cd" stroke-dasharray="5,2" d="M153.48,-554.27C213.62,-548.9 293.35,-541.78 342.1,-537.42"/>
<polygon fill="#9a32cd" stroke="#9a32cd" points="152.9,-550.81 143.25,-555.18 153.52,-557.78 152.9,-550.81"/>
</a>
</g>
<text text-anchor="middle" x="217" y="-555.5" font-family="Helvetica,sans-Serif" font-size="10.00" fill="grey"> conversionToWetMass</text>
</g>
<!-- Node7 -->
<g id="Node000007" class="node">
<title>Node7</title>
<g id="a_Node000007"><a xlink:href="classDryMass.html" target="_top" xlink:title="Represents dry mass in the ecosystem simulation.">
<polygon fill="white" stroke="#666666" points="416.5,-458 357.5,-458 357.5,-439 416.5,-439 416.5,-458"/>
<text text-anchor="middle" x="387" y="-446" font-family="Helvetica,sans-Serif" font-size="10.00">DryMass</text>
</a>
</g>
</g>
<!-- Node7&#45;&gt;Node3 -->
<g id="edge7_Node000003_Node000007" class="edge">
<title>Node7&#45;&gt;Node3</title>
<g id="a_edge7_Node000003_Node000007"><a xlink:title=" ">
<path fill="none" stroke="#9a32cd" stroke-dasharray="5,2" d="M426.92,-449.55C497.49,-451.46 645.86,-455.48 717.34,-457.41"/>
<polygon fill="#9a32cd" stroke="#9a32cd" points="426.78,-446.05 416.69,-449.28 426.59,-453.05 426.78,-446.05"/>
</a>
</g>
<text text-anchor="middle" x="582.5" y="-458.5" font-family="Helvetica,sans-Serif" font-size="10.00" fill="grey"> currentTotalDryMass</text>
</g>
<!-- Node8 -->
<g id="Node000008" class="node">
<title>Node8</title>
<g id="a_Node000008"><a xlink:href="classPreciseDouble.html" target="_top" xlink:title="Class for precise double&#45;precision floating&#45;point arithmetic.">
<polygon fill="white" stroke="#666666" points="114.5,-200 28.5,-200 28.5,-181 114.5,-181 114.5,-200"/>
<text text-anchor="middle" x="71.5" y="-188" font-family="Helvetica,sans-Serif" font-size="10.00">PreciseDouble</text>
</a>
</g>
</g>
<!-- Node8&#45;&gt;Node7 -->
<g id="edge8_Node000007_Node000008" class="edge">
<title>Node8&#45;&gt;Node7</title>
<g id="a_edge8_Node000007_Node000008"><a xlink:title=" ">
<path fill="none" stroke="#9a32cd" stroke-dasharray="5,2" d="M83.26,-208.91C111.1,-254.73 190.42,-374.27 291,-430.5 311.37,-441.89 337.62,-446.21 357.37,-447.79"/>
<polygon fill="#9a32cd" stroke="#9a32cd" points="86.11,-206.85 77.97,-200.06 80.1,-210.44 86.11,-206.85"/>
</a>
</g>
<text text-anchor="middle" x="217" y="-419.5" font-family="Helvetica,sans-Serif" font-size="10.00" fill="grey"> value</text>
</g>
<!-- Node9 -->
<g id="Node000009" class="node">
<title>Node9</title>
<g id="a_Node000009"><a xlink:href="classWetMass.html" target="_top" xlink:title="Represents wet mass in the ecosystem simulation.">
<polygon fill="white" stroke="#666666" points="417.5,-257 356.5,-257 356.5,-238 417.5,-238 417.5,-257"/>
<text text-anchor="middle" x="387" y="-245" font-family="Helvetica,sans-Serif" font-size="10.00">WetMass</text>
</a>
</g>
</g>
<!-- Node8&#45;&gt;Node9 -->
<g id="edge10_Node000009_Node000008" class="edge">
<title>Node8&#45;&gt;Node9</title>
<g id="a_edge10_Node000009_Node000008"><a xlink:title=" ">
<path fill="none" stroke="#9a32cd" stroke-dasharray="5,2" d="M125,-200.05C191.24,-212.09 302.9,-232.39 356.09,-242.06"/>
<polygon fill="#9a32cd" stroke="#9a32cd" points="125.24,-196.53 114.78,-198.19 123.99,-203.42 125.24,-196.53"/>
</a>
</g>
<text text-anchor="middle" x="217" y="-228.5" font-family="Helvetica,sans-Serif" font-size="10.00" fill="grey"> value</text>
</g>
<!-- Node15 -->
<g id="Node000015" class="node">
<title>Node15</title>
<g id="a_Node000015"><a xlink:href="classTerrainCell.html" target="_top" xlink:title="Represents a single cell in the landscape.">
<polygon fill="white" stroke="#666666" points="1305,-270 1237,-270 1237,-251 1305,-251 1305,-270"/>
<text text-anchor="middle" x="1271" y="-258" font-family="Helvetica,sans-Serif" font-size="10.00">TerrainCell</text>
</a>
</g>
</g>
<!-- Node8&#45;&gt;Node15 -->
<g id="edge28_Node000015_Node000008" class="edge">
<title>Node8&#45;&gt;Node15</title>
<g id="a_edge28_Node000015_Node000008"><a xlink:title=" ">
<path fill="none" stroke="#9a32cd" stroke-dasharray="5,2" d="M124.93,-185.45C278.94,-171.77 742.94,-138.81 1121,-197.5 1166.01,-204.49 1178.94,-205.83 1219,-227.5 1228.16,-232.46 1228.39,-236.65 1237,-242.5 1241.32,-245.44 1246.16,-248.29 1250.78,-250.84"/>
<polygon fill="#9a32cd" stroke="#9a32cd" points="124.45,-181.98 114.81,-186.36 125.08,-188.95 124.45,-181.98"/>
</a>
</g>
<text text-anchor="middle" x="758.5" y="-182.5" font-family="Helvetica,sans-Serif" font-size="10.00" fill="grey"> hyperVolume</text>
<text text-anchor="middle" x="758.5" y="-171.5" font-family="Helvetica,sans-Serif" font-size="10.00" fill="grey">size</text>
</g>
<!-- Node24 -->
<g id="Node000024" class="node">
<title>Node24</title>
<g id="a_Node000024"><a xlink:href="classResourceSource.html" target="_top" xlink:title="Represents a resource source in the landscape.">
<polygon fill="white" stroke="#666666" points="806,-103 711,-103 711,-84 806,-84 806,-103"/>
<text text-anchor="middle" x="758.5" y="-91" font-family="Helvetica,sans-Serif" font-size="10.00">ResourceSource</text>
</a>
</g>
</g>
<!-- Node8&#45;&gt;Node24 -->
<g id="edge35_Node000024_Node000008" class="edge">
<title>Node8&#45;&gt;Node24</title>
<g id="a_edge35_Node000024_Node000008"><a xlink:title=" ">
<path fill="none" stroke="#9a32cd" stroke-dasharray="5,2" d="M98.8,-176.23C138.88,-155.34 218.29,-117.32 291,-102.5 442.01,-71.72 626.21,-81.72 710.87,-88.88"/>
<polygon fill="#9a32cd" stroke="#9a32cd" points="97.15,-173.14 89.94,-180.9 100.42,-179.33 97.15,-173.14"/>
</a>
</g>
<text text-anchor="start" x="314" y="-116.5" font-family="Helvetica,sans-Serif" font-size="10.00" fill="grey"> edibleFractionOfMaxCarrying</text>
<text text-anchor="middle" x="387" y="-105.5" font-family="Helvetica,sans-Serif" font-size="10.00" fill="grey">Capacity</text>
</g>
<!-- Node9&#45;&gt;Node3 -->
<g id="edge9_Node000003_Node000009" class="edge">
<title>Node9&#45;&gt;Node3</title>
<g id="a_edge9_Node000003_Node000009"><a xlink:title=" ">
<path fill="none" stroke="#9a32cd" stroke-dasharray="5,2" d="M418.72,-261.32C470.63,-285.11 578.4,-336.38 664,-389.5 694.85,-408.65 728.54,-434.98 745.83,-448.93"/>
<polygon fill="#9a32cd" stroke="#9a32cd" points="419.96,-258.04 409.4,-257.07 417.05,-264.41 419.96,-258.04"/>
</a>
</g>
<text text-anchor="middle" x="582.5" y="-392.5" font-family="Helvetica,sans-Serif" font-size="10.00" fill="grey"> currentTotalWetMass</text>
</g>
<!-- Node17 -->
<g id="Node000017" class="node">
<title>Node17</title>
<g id="a_Node000017"><a xlink:href="classCellMoistureInterface.html" target="_top" xlink:title="Base interface representing the hydrological and thermal properties of a terrain cell.">
<polygon fill="white" stroke="#666666" points="819.5,-266 697.5,-266 697.5,-247 819.5,-247 819.5,-266"/>
<text text-anchor="middle" x="758.5" y="-254" font-family="Helvetica,sans-Serif" font-size="10.00">CellMoistureInterface</text>
</a>
</g>
</g>
<!-- Node9&#45;&gt;Node17 -->
<g id="edge21_Node000017_Node000009" class="edge">
<title>Node9&#45;&gt;Node17</title>
<g id="a_edge21_Node000017_Node000009"><a xlink:title=" ">
<path fill="none" stroke="#9a32cd" stroke-dasharray="5,2" d="M427.82,-248.47C492.64,-250.05 621.35,-253.18 697.35,-255.04"/>
<polygon fill="#9a32cd" stroke="#9a32cd" points="427.7,-244.97 417.61,-248.22 427.52,-251.96 427.7,-244.97"/>
</a>
</g>
<text text-anchor="middle" x="582.5" y="-256.5" font-family="Helvetica,sans-Serif" font-size="10.00" fill="grey"> totalMaximumResourceCapacity</text>
</g>
<!-- Node9&#45;&gt;Node24 -->
<g id="edge34_Node000024_Node000009" class="edge">
<title>Node9&#45;&gt;Node24</title>
<g id="a_edge34_Node000024_Node000009"><a xlink:title=" ">
<path fill="none" stroke="#9a32cd" stroke-dasharray="5,2" d="M420.47,-233.97C493.82,-203.4 670.85,-129.62 734.34,-103.15"/>
<polygon fill="#9a32cd" stroke="#9a32cd" points="418.72,-230.91 410.84,-237.98 421.41,-237.37 418.72,-230.91"/>
</a>
</g>
<text text-anchor="middle" x="582.5" y="-211.5" font-family="Helvetica,sans-Serif" font-size="10.00" fill="grey"> minimumEdibleBiomass</text>
<text text-anchor="middle" x="582.5" y="-200.5" font-family="Helvetica,sans-Serif" font-size="10.00" fill="grey">resourceMaximumCapacity</text>
</g>
<!-- Node10 -->
<g id="Node000010" class="node">
<title>Node10</title>
<g id="a_Node000010"><a xlink:href="classCellResourceInterface.html" target="_top" xlink:title="Interface for a resource in a terrain cell.">
<polygon fill="white" stroke="#666666" points="1638,-318 1514,-318 1514,-299 1638,-299 1638,-318"/>
<text text-anchor="middle" x="1576" y="-306" font-family="Helvetica,sans-Serif" font-size="10.00">CellResourceInterface</text>
</a>
</g>
</g>
<!-- Node10&#45;&gt;Node2 -->
<g id="edge11_Node000002_Node000010" class="edge">
<title>Node10&#45;&gt;Node2</title>
<g id="a_edge11_Node000002_Node000010"><a xlink:title=" ">
<path fill="none" stroke="#9a32cd" stroke-dasharray="5,2" d="M1648.29,-308.5C1667.41,-308.5 1688.19,-308.5 1707.69,-308.5"/>
<polygon fill="#9a32cd" stroke="#9a32cd" points="1648.16,-305 1638.16,-308.5 1648.16,-312 1648.16,-305"/>
</a>
</g>
<text text-anchor="middle" x="1673" y="-311.5" font-family="Helvetica,sans-Serif" font-size="10.00" fill="grey"> owner</text>
</g>
<!-- Node11 -->
<g id="Node000011" class="node">
<title>Node11</title>
<g id="a_Node000011"><a xlink:href="classEdible.html" target="_top" xlink:title="Represents a generic edible entity within a terrain cell.">
<polygon fill="white" stroke="#666666" points="1461,-251 1414,-251 1414,-232 1461,-232 1461,-251"/>
<text text-anchor="middle" x="1437.5" y="-239" font-family="Helvetica,sans-Serif" font-size="10.00">Edible</text>
</a>
</g>
</g>
<!-- Node11&#45;&gt;Node10 -->
<g id="edge12_Node000010_Node000011" class="edge">
<title>Node11&#45;&gt;Node10</title>
<g id="a_edge12_Node000010_Node000011"><a xlink:title=" ">
<path fill="none" stroke="#63b8ff" d="M1467.22,-255.6C1493.73,-268.61 1532.38,-287.58 1555.48,-298.92"/>
<polygon fill="#63b8ff" stroke="#63b8ff" points="1468.58,-252.36 1458.06,-251.1 1465.49,-258.65 1468.58,-252.36"/>
</a>
</g>
</g>
<!-- Node12 -->
<g id="Node000012" class="node">
<title>Node12</title>
<g id="a_Node000012"><a xlink:href="classEdibleID.html" target="_top" xlink:title="Encapsulates a unique identifier for an edible object or resource.">
<polygon fill="white" stroke="#666666" points="1299.5,-233 1242.5,-233 1242.5,-214 1299.5,-214 1299.5,-233"/>
<text text-anchor="middle" x="1271" y="-221" font-family="Helvetica,sans-Serif" font-size="10.00">EdibleID</text>
</a>
</g>
</g>
<!-- Node12&#45;&gt;Node11 -->
<g id="edge13_Node000011_Node000012" class="edge">
<title>Node12&#45;&gt;Node11</title>
<g id="a_edge13_Node000011_Node000012"><a xlink:title=" ">
<path fill="none" stroke="#9a32cd" stroke-dasharray="5,2" d="M1309.72,-222.42C1330.54,-222.35 1356.81,-223.15 1380,-226.5 1391.35,-228.14 1403.69,-231.26 1413.93,-234.22"/>
<polygon fill="#9a32cd" stroke="#9a32cd" points="1309.64,-218.92 1299.67,-222.51 1309.71,-225.92 1309.64,-218.92"/>
</a>
</g>
<text text-anchor="middle" x="1351.5" y="-229.5" font-family="Helvetica,sans-Serif" font-size="10.00" fill="grey"> id</text>
</g>
<!-- Node13 -->
<g id="Node000013" class="node">
<title>Node13</title>
<g id="a_Node000013"><a xlink:href="classSpecies.html" target="_top" xlink:title="Represents a generic species in the ecosystem.">
<polygon fill="white" stroke="#666666" points="1298,-171 1244,-171 1244,-152 1298,-152 1298,-171"/>
<text text-anchor="middle" x="1271" y="-159" font-family="Helvetica,sans-Serif" font-size="10.00">Species</text>
</a>
</g>
</g>
<!-- Node13&#45;&gt;Node11 -->
<g id="edge14_Node000011_Node000013" class="edge">
<title>Node13&#45;&gt;Node11</title>
<g id="a_edge14_Node000011_Node000013"><a xlink:title=" ">
<path fill="none" stroke="#9a32cd" stroke-dasharray="5,2" d="M1306.7,-174.85C1328.16,-183.45 1356.08,-195.28 1380,-207.5 1394.68,-215 1410.72,-224.82 1421.95,-231.98"/>
<polygon fill="#9a32cd" stroke="#9a32cd" points="1307.92,-171.56 1297.33,-171.13 1305.34,-178.07 1307.92,-171.56"/>
</a>
</g>
<text text-anchor="middle" x="1351.5" y="-210.5" font-family="Helvetica,sans-Serif" font-size="10.00" fill="grey"> mySpecies</text>
</g>
<!-- Node14 -->
<g id="Node000014" class="node">
<title>Node14</title>
<g id="a_Node000014"><a xlink:href="classSpecies_1_1ID.html" target="_top" xlink:title="Unique identifier for a Species.">
<polygon fill="white" stroke="#666666" points="1079,-150 1008,-150 1008,-131 1079,-131 1079,-150"/>
<text text-anchor="middle" x="1043.5" y="-138" font-family="Helvetica,sans-Serif" font-size="10.00">Species::ID</text>
</a>
</g>
</g>
<!-- Node14&#45;&gt;Node13 -->
<g id="edge15_Node000013_Node000014" class="edge">
<title>Node14&#45;&gt;Node13</title>
<g id="a_edge15_Node000013_Node000014"><a xlink:title=" ">
<path fill="none" stroke="#9a32cd" stroke-dasharray="5,2" d="M1089,-142.82C1124.32,-144.89 1174.92,-148.41 1219,-153.5 1227.1,-154.44 1235.89,-155.72 1243.85,-156.98"/>
<polygon fill="#9a32cd" stroke="#9a32cd" points="1089.2,-139.32 1079.01,-142.24 1088.8,-146.31 1089.2,-139.32"/>
</a>
</g>
<text text-anchor="middle" x="1179" y="-156.5" font-family="Helvetica,sans-Serif" font-size="10.00" fill="grey"> id</text>
</g>
<!-- Node15&#45;&gt;Node11 -->
<g id="edge16_Node000011_Node000015" class="edge">
<title>Node15&#45;&gt;Node11</title>
<g id="a_edge16_Node000011_Node000015"><a xlink:title=" ">
<path fill="none" stroke="#9a32cd" stroke-dasharray="5,2" d="M1315.58,-255.47C1347.15,-251.82 1388.57,-247.04 1413.82,-244.12"/>
<polygon fill="#9a32cd" stroke="#9a32cd" points="1314.82,-252.03 1305.29,-256.66 1315.62,-258.98 1314.82,-252.03"/>
</a>
</g>
<text text-anchor="middle" x="1351.5" y="-256.5" font-family="Helvetica,sans-Serif" font-size="10.00" fill="grey"> terrainCell</text>
</g>
<!-- Node16 -->
<g id="Node000016" class="node">
<title>Node16</title>
<g id="a_Node000016"><a xlink:href="classPatchApplicator.html" target="_top" xlink:title="Applies patches to a TerrainCell including moisture, resources, obstacles, and habitat domains.">
<polygon fill="white" stroke="#666666" points="1089.5,-311 997.5,-311 997.5,-292 1089.5,-292 1089.5,-311"/>
<text text-anchor="middle" x="1043.5" y="-299" font-family="Helvetica,sans-Serif" font-size="10.00">PatchApplicator</text>
</a>
</g>
</g>
<!-- Node15&#45;&gt;Node16 -->
<g id="edge18_Node000016_Node000015" class="edge">
<title>Node15&#45;&gt;Node16</title>
<g id="a_edge18_Node000016_Node000015"><a xlink:title=" ">
<path fill="none" stroke="#9a32cd" stroke-dasharray="5,2" d="M1227.04,-270.82C1224.32,-271.41 1221.63,-271.97 1219,-272.5 1175.34,-281.25 1125.15,-289.4 1089.84,-294.81"/>
<polygon fill="#9a32cd" stroke="#9a32cd" points="1227.88,-274.22 1236.87,-268.63 1226.35,-267.39 1227.88,-274.22"/>
</a>
</g>
<text text-anchor="middle" x="1179" y="-288.5" font-family="Helvetica,sans-Serif" font-size="10.00" fill="grey"> owner</text>
</g>
<!-- Node16&#45;&gt;Node15 -->
<g id="edge17_Node000015_Node000016" class="edge">
<title>Node16&#45;&gt;Node15</title>
<g id="a_edge17_Node000015_Node000016"><a xlink:title=" ">
<path fill="none" stroke="#9a32cd" stroke-dasharray="5,2" d="M1093.95,-312.84C1129.86,-318.73 1178.96,-321.89 1219,-306.5 1237.92,-299.23 1254.2,-281.33 1263.01,-270.12"/>
<polygon fill="#9a32cd" stroke="#9a32cd" points="1094.18,-309.32 1083.73,-311.02 1092.96,-316.22 1094.18,-309.32"/>
</a>
</g>
<text text-anchor="middle" x="1179" y="-320.5" font-family="Helvetica,sans-Serif" font-size="10.00" fill="grey"> patchApplicator</text>
</g>
<!-- Node17&#45;&gt;Node16 -->
<g id="edge19_Node000016_Node000017" class="edge">
<title>Node17&#45;&gt;Node16</title>
<g id="a_edge19_Node000016_Node000017"><a xlink:title=" ">
<path fill="none" stroke="#9a32cd" stroke-dasharray="5,2" d="M830,-262.12C865.59,-265.61 909.3,-270.91 948,-278.5 956.15,-280.1 957.96,-281.44 966,-283.5 977.23,-286.38 989.44,-289.33 1000.74,-291.99"/>
<polygon fill="#9a32cd" stroke="#9a32cd" points="830,-258.6 819.72,-261.14 829.34,-265.57 830,-258.6"/>
</a>
</g>
<text text-anchor="middle" x="900.5" y="-281.5" font-family="Helvetica,sans-Serif" font-size="10.00" fill="grey"> cellMoisture</text>
</g>
<!-- Node18 -->
<g id="Node000018" class="node">
<title>Node18</title>
<g id="a_Node000018"><a xlink:href="classCellElement.html" target="_top" xlink:title="Base class for any modifiable element contained within a terrain cell.">
<polygon fill="white" stroke="#666666" points="425,-329 349,-329 349,-310 425,-310 425,-329"/>
<text text-anchor="middle" x="387" y="-317" font-family="Helvetica,sans-Serif" font-size="10.00">CellElement</text>
</a>
</g>
</g>
<!-- Node18&#45;&gt;Node10 -->
<g id="edge30_Node000010_Node000018" class="edge">
<title>Node18&#45;&gt;Node10</title>
<g id="a_edge30_Node000010_Node000018"><a xlink:title=" ">
<path fill="none" stroke="#63b8ff" d="M434.95,-328.38C455.2,-331.96 479.21,-335.85 501,-338.5 677.32,-359.91 721.89,-368.5 899.5,-368.5 899.5,-368.5 899.5,-368.5 1438.5,-368.5 1487.94,-368.5 1539.59,-335.1 1562.63,-318.14"/>
<polygon fill="#63b8ff" stroke="#63b8ff" points="435.49,-324.92 425.03,-326.6 434.25,-331.81 435.49,-324.92"/>
</a>
</g>
</g>
<!-- Node18&#45;&gt;Node17 -->
<g id="edge20_Node000017_Node000018" class="edge">
<title>Node18&#45;&gt;Node17</title>
<g id="a_edge20_Node000017_Node000018"><a xlink:title=" ">
<path fill="none" stroke="#63b8ff" d="M434.99,-309.43C455.26,-305.22 479.25,-300.41 501,-296.5 567.98,-284.47 645.19,-272.71 697.25,-265.09"/>
<polygon fill="#63b8ff" stroke="#63b8ff" points="434.14,-306.03 425.07,-311.51 435.57,-312.88 434.14,-306.03"/>
</a>
</g>
</g>
<!-- Node19 -->
<g id="Node000019" class="node">
<title>Node19</title>
<g id="a_Node000019"><a xlink:href="classCellObstacleInterface.html" target="_top" xlink:title="Interface for managing obstacles in a terrain cell.">
<polygon fill="white" stroke="#666666" points="819.5,-303 697.5,-303 697.5,-284 819.5,-284 819.5,-303"/>
<text text-anchor="middle" x="758.5" y="-291" font-family="Helvetica,sans-Serif" font-size="10.00">CellObstacleInterface</text>
</a>
</g>
</g>
<!-- Node18&#45;&gt;Node19 -->
<g id="edge23_Node000019_Node000018" class="edge">
<title>Node18&#45;&gt;Node19</title>
<g id="a_edge23_Node000019_Node000018"><a xlink:title=" ">
<path fill="none" stroke="#63b8ff" d="M435.36,-316.17C502.18,-311.47 624.14,-302.88 697.31,-297.74"/>
<polygon fill="#63b8ff" stroke="#63b8ff" points="434.85,-312.69 425.12,-316.89 435.34,-319.68 434.85,-312.69"/>
</a>
</g>
</g>
<!-- Node20 -->
<g id="Node000020" class="node">
<title>Node20</title>
<g id="a_Node000020"><a xlink:href="classCellHabitatDomainInterface.html" target="_top" xlink:title="Represents the habitat&#45;domain information associated with a terrain cell.">
<polygon fill="white" stroke="#666666" points="835,-340 682,-340 682,-321 835,-321 835,-340"/>
<text text-anchor="middle" x="758.5" y="-328" font-family="Helvetica,sans-Serif" font-size="10.00">CellHabitatDomainInterface</text>
</a>
</g>
</g>
<!-- Node18&#45;&gt;Node20 -->
<g id="edge25_Node000020_Node000018" class="edge">
<title>Node18&#45;&gt;Node20</title>
<g id="a_edge25_Node000020_Node000018"><a xlink:title=" ">
<path fill="none" stroke="#63b8ff" d="M435.44,-320.91C497.74,-322.77 607.86,-326.05 681.76,-328.25"/>
<polygon fill="#63b8ff" stroke="#63b8ff" points="435.22,-317.4 425.12,-320.61 435.01,-324.4 435.22,-317.4"/>
</a>
</g>
</g>
<!-- Node19&#45;&gt;Node16 -->
<g id="edge22_Node000016_Node000019" class="edge">
<title>Node19&#45;&gt;Node16</title>
<g id="a_edge22_Node000016_Node000019"><a xlink:title=" ">
<path fill="none" stroke="#9a32cd" stroke-dasharray="5,2" d="M830.02,-294.01C865.44,-294.42 909,-295.16 948,-296.5 964.09,-297.05 981.71,-297.92 997.33,-298.77"/>
<polygon fill="#9a32cd" stroke="#9a32cd" points="829.83,-290.5 819.79,-293.89 829.75,-297.5 829.83,-290.5"/>
</a>
</g>
<text text-anchor="middle" x="900.5" y="-299.5" font-family="Helvetica,sans-Serif" font-size="10.00" fill="grey"> cellObstacle</text>
</g>
<!-- Node20&#45;&gt;Node16 -->
<g id="edge24_Node000016_Node000020" class="edge">
<title>Node20&#45;&gt;Node16</title>
<g id="a_edge24_Node000016_Node000020"><a xlink:title=" ">
<path fill="none" stroke="#9a32cd" stroke-dasharray="5,2" d="M845.52,-321.69C895.59,-316.55 956.67,-310.3 997.41,-306.12"/>
<polygon fill="#9a32cd" stroke="#9a32cd" points="844.93,-318.23 835.34,-322.73 845.64,-325.19 844.93,-318.23"/>
</a>
</g>
<text text-anchor="middle" x="900.5" y="-322.5" font-family="Helvetica,sans-Serif" font-size="10.00" fill="grey"> cellHabitatDomain</text>
</g>
<!-- Node21 -->
<g id="Node000021" class="node">
<title>Node21</title>
<g id="a_Node000021"><a xlink:href="classCustomIndexedVector.html" target="_top" xlink:title=" ">
<polygon fill="white" stroke="#666666" points="483,-421 291,-421 291,-380 483,-380 483,-421"/>
<text text-anchor="start" x="299" y="-409" font-family="Helvetica,sans-Serif" font-size="10.00">CustomIndexedVector</text>
<text text-anchor="start" x="299" y="-398" font-family="Helvetica,sans-Serif" font-size="10.00">&lt; AnimalSpeciesID, CustomIndexed</text>
<text text-anchor="middle" x="387" y="-387" font-family="Helvetica,sans-Serif" font-size="10.00">Vector&lt; Instar, bool &gt; &gt;</text>
</a>
</g>
</g>
<!-- Node21&#45;&gt;Node20 -->
<g id="edge26_Node000020_Node000021" class="edge">
<title>Node21&#45;&gt;Node20</title>
<g id="a_edge26_Node000020_Node000021"><a xlink:title=" ">
<path fill="none" stroke="#9a32cd" stroke-dasharray="5,2" d="M493.12,-417.31C545.75,-421.75 609.67,-421 664,-402.5 700.66,-390.02 734.15,-356.72 749.17,-340.15"/>
<polygon fill="#9a32cd" stroke="#9a32cd" points="493.37,-413.82 483.09,-416.39 492.73,-420.79 493.37,-413.82"/>
</a>
</g>
<text text-anchor="middle" x="582.5" y="-422.5" font-family="Helvetica,sans-Serif" font-size="10.00" fill="grey"> habitatDomainStatus</text>
</g>
<!-- Node22 -->
<g id="Node000022" class="node">
<title>Node22</title>
<g id="a_Node000022"><a xlink:href="classPointMap.html" target="_top" xlink:title="Represents a point in a discrete map coordinate system.">
<polygon fill="white" stroke="#666666" points="1074.5,-274 1012.5,-274 1012.5,-255 1074.5,-255 1074.5,-274"/>
<text text-anchor="middle" x="1043.5" y="-262" font-family="Helvetica,sans-Serif" font-size="10.00">PointMap</text>
</a>
</g>
</g>
<!-- Node22&#45;&gt;Node15 -->
<g id="edge27_Node000015_Node000022" class="edge">
<title>Node22&#45;&gt;Node15</title>
<g id="a_edge27_Node000015_Node000022"><a xlink:title=" ">
<path fill="none" stroke="#9a32cd" stroke-dasharray="5,2" d="M1084.74,-263.01C1101.51,-262.44 1121.2,-261.85 1139,-261.5 1172.31,-260.84 1210.4,-260.61 1236.89,-260.53"/>
<polygon fill="#9a32cd" stroke="#9a32cd" points="1084.59,-259.51 1074.71,-263.36 1084.83,-266.51 1084.59,-259.51"/>
</a>
</g>
<text text-anchor="middle" x="1179" y="-264.5" font-family="Helvetica,sans-Serif" font-size="10.00" fill="grey"> position</text>
</g>
<!-- Node23 -->
<g id="Node000023" class="node">
<title>Node23</title>
<g id="a_Node000023"><a xlink:href="classCustomIndexedVector.html" target="_top" xlink:title="A vector container indexed by a custom type with bounds checking.">
<polygon fill="white" stroke="#666666" points="1121,-236.5 966,-236.5 966,-206.5 1121,-206.5 1121,-236.5"/>
<text text-anchor="start" x="974" y="-224.5" font-family="Helvetica,sans-Serif" font-size="10.00">CustomIndexedVector</text>
<text text-anchor="middle" x="1043.5" y="-213.5" font-family="Helvetica,sans-Serif" font-size="10.00">&lt; IndexType, ContentType &gt;</text>
</a>
</g>
</g>
<!-- Node23&#45;&gt;Node15 -->
<g id="edge29_Node000015_Node000023" class="edge">
<title>Node23&#45;&gt;Node15</title>
<g id="a_edge29_Node000015_Node000023"><a xlink:title=" ">
<path fill="none" stroke="#9a32cd" stroke-dasharray="5,2" d="M1131.57,-230.88C1159.63,-234.59 1190.77,-239.44 1219,-245.5 1225.95,-246.99 1233.33,-248.94 1240.26,-250.94"/>
<polygon fill="#9a32cd" stroke="#9a32cd" points="1131.75,-227.37 1121.38,-229.56 1130.85,-234.31 1131.75,-227.37"/>
</a>
</g>
<text text-anchor="middle" x="1179" y="-248.5" font-family="Helvetica,sans-Serif" font-size="10.00" fill="grey"> animals</text>
</g>
<!-- Node24&#45;&gt;Node1 -->
<g id="edge31_Node000001_Node000024" class="edge">
<title>Node24&#45;&gt;Node1</title>
<g id="a_edge31_Node000001_Node000024"><a xlink:title=" ">
<path fill="none" stroke="#9a32cd" stroke-dasharray="5,2" d="M816.33,-95.41C873.47,-97.17 964.08,-99.5 1042.5,-99.5 1042.5,-99.5 1042.5,-99.5 1788.5,-99.5 1827.08,-99.5 1870.39,-102.52 1903.96,-105.54"/>
<polygon fill="#9a32cd" stroke="#9a32cd" points="816.17,-91.91 806.07,-95.09 815.95,-98.9 816.17,-91.91"/>
</a>
</g>
<text text-anchor="middle" x="1437.5" y="-102.5" font-family="Helvetica,sans-Serif" font-size="10.00" fill="grey"> resourceSource</text>
</g>
<!-- Node25 -->
<g id="Node000025" class="node">
<title>Node25</title>
<g id="a_Node000025"><a xlink:href="classPathSource.html" target="_top" xlink:title="Abstract base class for landscape data sources.">
<polygon fill="white" stroke="#666666" points="422.5,-152 351.5,-152 351.5,-133 422.5,-133 422.5,-152"/>
<text text-anchor="middle" x="387" y="-140" font-family="Helvetica,sans-Serif" font-size="10.00">PathSource</text>
</a>
</g>
</g>
<!-- Node25&#45;&gt;Node24 -->
<g id="edge32_Node000024_Node000025" class="edge">
<title>Node25&#45;&gt;Node24</title>
<g id="a_edge32_Node000024_Node000025"><a xlink:title=" ">
<path fill="none" stroke="#63b8ff" d="M432.91,-136.76C487.54,-129.75 582.57,-117.47 664,-106.5 679.27,-104.44 695.93,-102.14 710.9,-100.06"/>
<polygon fill="#63b8ff" stroke="#63b8ff" points="432.34,-133.3 422.87,-138.05 433.23,-140.25 432.34,-133.3"/>
</a>
</g>
</g>
<!-- Node26 -->
<g id="Node000026" class="node">
<title>Node26</title>
<g id="a_Node000026"><a xlink:href="classResourceSpecies_1_1ResourceID.html" target="_top" xlink:title="Unique identifier for a resource species.">
<polygon fill="white" stroke="#666666" points="467.5,-56 306.5,-56 306.5,-37 467.5,-37 467.5,-56"/>
<text text-anchor="middle" x="387" y="-44" font-family="Helvetica,sans-Serif" font-size="10.00">ResourceSpecies::ResourceID</text>
</a>
</g>
</g>
<!-- Node26&#45;&gt;Node24 -->
<g id="edge33_Node000024_Node000026" class="edge">
<title>Node26&#45;&gt;Node24</title>
<g id="a_edge33_Node000024_Node000026"><a xlink:title=" ">
<path fill="none" stroke="#9a32cd" stroke-dasharray="5,2" d="M477.9,-48.91C532.13,-51.45 602.41,-56.7 664,-67.5 686.07,-71.37 710.45,-78.24 728.77,-83.94"/>
<polygon fill="#9a32cd" stroke="#9a32cd" points="477.77,-45.4 467.63,-48.45 477.46,-52.39 477.77,-45.4"/>
</a>
</g>
<text text-anchor="middle" x="582.5" y="-70.5" font-family="Helvetica,sans-Serif" font-size="10.00" fill="grey"> resourceSpeciesId</text>
</g>
<!-- Node27 -->
<g id="Node000027" class="node">
<title>Node27</title>
<g id="a_Node000027"><a xlink:href="classDynamics.html" target="_top" xlink:title="Abstract base class for modeling temporal dynamics.">
<polygon fill="white" stroke="#666666" points="419.5,-19 354.5,-19 354.5,0 419.5,0 419.5,-19"/>
<text text-anchor="middle" x="387" y="-7" font-family="Helvetica,sans-Serif" font-size="10.00">Dynamics</text>
</a>
</g>
</g>
<!-- Node27&#45;&gt;Node24 -->
<g id="edge36_Node000024_Node000027" class="edge">
<title>Node27&#45;&gt;Node24</title>
<g id="a_edge36_Node000024_Node000027"><a xlink:title=" ">
<path fill="none" stroke="#9a32cd" stroke-dasharray="5,2" d="M429.68,-7.59C484.81,-6.36 584.29,-8.68 664,-35.5 696.41,-46.4 729.21,-70.42 746.01,-83.87"/>
<polygon fill="#9a32cd" stroke="#9a32cd" points="429.49,-4.09 419.59,-7.87 429.68,-11.09 429.49,-4.09"/>
</a>
</g>
<text text-anchor="middle" x="582.5" y="-38.5" font-family="Helvetica,sans-Serif" font-size="10.00" fill="grey"> growthDynamics</text>
</g>
</g>
</svg>
