<?xml version="1.0" encoding="UTF-8" standalone="no"?>
<!DOCTYPE svg PUBLIC "-//W3C//DTD SVG 1.1//EN"
 "http://www.w3.org/Graphics/SVG/1.1/DTD/svg11.dtd">
<!-- Generated by graphviz version 2.43.0 (0)
 -->
<!-- Title: SpatialTreePatchApplicator Pages: 1 -->
<svg width="1253pt" height="223pt"
 viewBox="0.00 0.00 1253.00 222.50" xmlns="http://www.w3.org/2000/svg" xmlns:xlink="http://www.w3.org/1999/xlink">
<g id="graph0" class="graph" transform="scale(1 1) rotate(0) translate(4 218.5)">
<title>SpatialTreePatchApplicator</title>
<!-- Node1 -->
<g id="Node000001" class="node">
<title>Node1</title>
<g id="a_Node000001"><a xlink:title="Abstract class for applying environmental patches to a spatial tree of terrain cells.">
<polygon fill="#999999" stroke="#666666" points="1245,-194.5 1099,-194.5 1099,-175.5 1245,-175.5 1245,-194.5"/>
<text text-anchor="middle" x="1172" y="-182.5" font-family="Helvetica,sans-Serif" font-size="10.00">SpatialTreePatchApplicator</text>
</a>
</g>
</g>
<!-- Node2 -->
<g id="Node000002" class="node">
<title>Node2</title>
<g id="a_Node000002"><a xlink:href="classPatchApplicator.html" target="_top" xlink:title="Applies patches to a TerrainCell including moisture, resources, obstacles, and habitat domains.">
<polygon fill="white" stroke="#666666" points="951.5,-167.5 859.5,-167.5 859.5,-148.5 951.5,-148.5 951.5,-167.5"/>
<text text-anchor="middle" x="905.5" y="-155.5" font-family="Helvetica,sans-Serif" font-size="10.00">PatchApplicator</text>
</a>
</g>
</g>
<!-- Node2&#45;&gt;Node1 -->
<g id="edge1_Node000001_Node000002" class="edge">
<title>Node2&#45;&gt;Node1</title>
<g id="a_edge1_Node000001_Node000002"><a xlink:title=" ">
<path fill="none" stroke="#63b8ff" d="M961.74,-166.11C974.61,-167.86 988.27,-169.6 1001,-171 1033.09,-174.53 1068.67,-177.59 1098.95,-179.94"/>
<polygon fill="#63b8ff" stroke="#63b8ff" points="962.01,-162.62 951.62,-164.72 961.05,-169.55 962.01,-162.62"/>
</a>
</g>
</g>
<!-- Node3 -->
<g id="Node000003" class="node">
<title>Node3</title>
<g id="a_Node000003"><a xlink:href="classTerrainCell.html" target="_top" xlink:title="Represents a single cell in the landscape.">
<polygon fill="white" stroke="#666666" points="1206,-100.5 1138,-100.5 1138,-81.5 1206,-81.5 1206,-100.5"/>
<text text-anchor="middle" x="1172" y="-88.5" font-family="Helvetica,sans-Serif" font-size="10.00">TerrainCell</text>
</a>
</g>
</g>
<!-- Node2&#45;&gt;Node3 -->
<g id="edge3_Node000003_Node000002" class="edge">
<title>Node2&#45;&gt;Node3</title>
<g id="a_edge3_Node000003_Node000002"><a xlink:title=" ">
<path fill="none" stroke="#9a32cd" stroke-dasharray="5,2" d="M961.85,-156.31C996.68,-154.04 1042.22,-148.83 1081,-137 1109.2,-128.4 1139.15,-111.27 1156.4,-100.52"/>
<polygon fill="#9a32cd" stroke="#9a32cd" points="961.64,-152.82 951.87,-156.9 962.05,-159.8 961.64,-152.82"/>
</a>
</g>
<text text-anchor="middle" x="1041" y="-155" font-family="Helvetica,sans-Serif" font-size="10.00" fill="grey"> patchApplicator</text>
</g>
<!-- Node3&#45;&gt;Node2 -->
<g id="edge2_Node000002_Node000003" class="edge">
<title>Node3&#45;&gt;Node2</title>
<g id="a_edge2_Node000002_Node000003"><a xlink:title=" ">
<path fill="none" stroke="#9a32cd" stroke-dasharray="5,2" d="M1127.59,-98.41C1093.03,-104.67 1043.57,-114.46 1001,-126 977.26,-132.44 950.78,-141.58 931.91,-148.44"/>
<polygon fill="#9a32cd" stroke="#9a32cd" points="1128.58,-101.79 1137.81,-96.58 1127.35,-94.9 1128.58,-101.79"/>
</a>
</g>
<text text-anchor="middle" x="1041" y="-129" font-family="Helvetica,sans-Serif" font-size="10.00" fill="grey"> owner</text>
</g>
<!-- Node4 -->
<g id="Node000004" class="node">
<title>Node4</title>
<g id="a_Node000004"><a xlink:href="classPointMap.html" target="_top" xlink:title="Represents a point in a discrete map coordinate system.">
<polygon fill="white" stroke="#666666" points="936.5,-105.5 874.5,-105.5 874.5,-86.5 936.5,-86.5 936.5,-105.5"/>
<text text-anchor="middle" x="905.5" y="-93.5" font-family="Helvetica,sans-Serif" font-size="10.00">PointMap</text>
</a>
</g>
</g>
<!-- Node4&#45;&gt;Node3 -->
<g id="edge4_Node000003_Node000004" class="edge">
<title>Node4&#45;&gt;Node3</title>
<g id="a_edge4_Node000003_Node000004"><a xlink:title=" ">
<path fill="none" stroke="#9a32cd" stroke-dasharray="5,2" d="M946.73,-93.97C963.51,-93.21 983.19,-92.43 1001,-92 1048.5,-90.86 1103.5,-90.75 1137.77,-90.84"/>
<polygon fill="#9a32cd" stroke="#9a32cd" points="946.53,-90.48 936.71,-94.44 946.86,-97.47 946.53,-90.48"/>
</a>
</g>
<text text-anchor="middle" x="1041" y="-95" font-family="Helvetica,sans-Serif" font-size="10.00" fill="grey"> position</text>
</g>
<!-- Node5 -->
<g id="Node000005" class="node">
<title>Node5</title>
<g id="a_Node000005"><a xlink:href="classPreciseDouble.html" target="_top" xlink:title="Class for precise double&#45;precision floating&#45;point arithmetic.">
<polygon fill="white" stroke="#666666" points="86,-83.5 0,-83.5 0,-64.5 86,-64.5 86,-83.5"/>
<text text-anchor="middle" x="43" y="-71.5" font-family="Helvetica,sans-Serif" font-size="10.00">PreciseDouble</text>
</a>
</g>
</g>
<!-- Node5&#45;&gt;Node3 -->
<g id="edge5_Node000003_Node000005" class="edge">
<title>Node5&#45;&gt;Node3</title>
<g id="a_edge5_Node000003_Node000005"><a xlink:title=" ">
<path fill="none" stroke="#9a32cd" stroke-dasharray="5,2" d="M96.19,-67.64C137.35,-63.18 196.25,-58 248,-58 248,-58 248,-58 906.5,-58 990.26,-58 1087.8,-74.5 1137.76,-84.16"/>
<polygon fill="#9a32cd" stroke="#9a32cd" points="95.67,-64.18 86.12,-68.76 96.45,-71.14 95.67,-64.18"/>
</a>
</g>
<text text-anchor="middle" x="620.5" y="-72" font-family="Helvetica,sans-Serif" font-size="10.00" fill="grey"> hyperVolume</text>
<text text-anchor="middle" x="620.5" y="-61" font-family="Helvetica,sans-Serif" font-size="10.00" fill="grey">size</text>
</g>
<!-- Node9 -->
<g id="Node000009" class="node">
<title>Node9</title>
<g id="a_Node000009"><a xlink:href="classWetMass.html" target="_top" xlink:title="Represents wet mass in the ecosystem simulation.">
<polygon fill="white" stroke="#666666" points="279.5,-214.5 218.5,-214.5 218.5,-195.5 279.5,-195.5 279.5,-214.5"/>
<text text-anchor="middle" x="249" y="-202.5" font-family="Helvetica,sans-Serif" font-size="10.00">WetMass</text>
</a>
</g>
</g>
<!-- Node5&#45;&gt;Node9 -->
<g id="edge10_Node000009_Node000005" class="edge">
<title>Node5&#45;&gt;Node9</title>
<g id="a_edge10_Node000009_Node000005"><a xlink:title=" ">
<path fill="none" stroke="#9a32cd" stroke-dasharray="5,2" d="M57.78,-91.36C76.83,-114.24 113.37,-154.21 153,-177 173.27,-188.66 198.82,-195.83 218.31,-199.99"/>
<polygon fill="#9a32cd" stroke="#9a32cd" points="60.4,-89.04 51.37,-83.51 54.98,-93.47 60.4,-89.04"/>
</a>
</g>
<text text-anchor="middle" x="119.5" y="-166" font-family="Helvetica,sans-Serif" font-size="10.00" fill="grey"> value</text>
</g>
<!-- Node6 -->
<g id="Node000006" class="node">
<title>Node6</title>
<g id="a_Node000006"><a xlink:href="classCustomIndexedVector.html" target="_top" xlink:title="A vector container indexed by a custom type with bounds checking.">
<polygon fill="white" stroke="#666666" points="983,-30 828,-30 828,0 983,0 983,-30"/>
<text text-anchor="start" x="836" y="-18" font-family="Helvetica,sans-Serif" font-size="10.00">CustomIndexedVector</text>
<text text-anchor="middle" x="905.5" y="-7" font-family="Helvetica,sans-Serif" font-size="10.00">&lt; IndexType, ContentType &gt;</text>
</a>
</g>
</g>
<!-- Node6&#45;&gt;Node3 -->
<g id="edge6_Node000003_Node000006" class="edge">
<title>Node6&#45;&gt;Node3</title>
<g id="a_edge6_Node000003_Node000006"><a xlink:title=" ">
<path fill="none" stroke="#9a32cd" stroke-dasharray="5,2" d="M993.69,-15.97C1022.15,-18.39 1053.49,-23.34 1081,-33 1112.4,-44.02 1143.89,-67.99 1159.99,-81.41"/>
<polygon fill="#9a32cd" stroke="#9a32cd" points="993.58,-12.46 983.35,-15.2 993.06,-19.44 993.58,-12.46"/>
</a>
</g>
<text text-anchor="middle" x="1041" y="-36" font-family="Helvetica,sans-Serif" font-size="10.00" fill="grey"> animals</text>
</g>
<!-- Node7 -->
<g id="Node000007" class="node">
<title>Node7</title>
<g id="a_Node000007"><a xlink:href="classCellMoistureInterface.html" target="_top" xlink:title="Base interface representing the hydrological and thermal properties of a terrain cell.">
<polygon fill="white" stroke="#666666" points="681.5,-204.5 559.5,-204.5 559.5,-185.5 681.5,-185.5 681.5,-204.5"/>
<text text-anchor="middle" x="620.5" y="-192.5" font-family="Helvetica,sans-Serif" font-size="10.00">CellMoistureInterface</text>
</a>
</g>
</g>
<!-- Node7&#45;&gt;Node2 -->
<g id="edge7_Node000002_Node000007" class="edge">
<title>Node7&#45;&gt;Node2</title>
<g id="a_edge7_Node000002_Node000007"><a xlink:title=" ">
<path fill="none" stroke="#9a32cd" stroke-dasharray="5,2" d="M692.03,-186.19C727.45,-181.72 771.01,-176.16 810,-171 826.09,-168.87 843.71,-166.46 859.33,-164.31"/>
<polygon fill="#9a32cd" stroke="#9a32cd" points="691.28,-182.76 681.79,-187.48 692.15,-189.7 691.28,-182.76"/>
</a>
</g>
<text text-anchor="middle" x="762.5" y="-185" font-family="Helvetica,sans-Serif" font-size="10.00" fill="grey"> cellMoisture</text>
</g>
<!-- Node8 -->
<g id="Node000008" class="node">
<title>Node8</title>
<g id="a_Node000008"><a xlink:href="classCellElement.html" target="_top" xlink:title="Base class for any modifiable element contained within a terrain cell.">
<polygon fill="white" stroke="#666666" points="287,-167.5 211,-167.5 211,-148.5 287,-148.5 287,-167.5"/>
<text text-anchor="middle" x="249" y="-155.5" font-family="Helvetica,sans-Serif" font-size="10.00">CellElement</text>
</a>
</g>
</g>
<!-- Node8&#45;&gt;Node7 -->
<g id="edge8_Node000007_Node000008" class="edge">
<title>Node8&#45;&gt;Node7</title>
<g id="a_edge8_Node000007_Node000008"><a xlink:title=" ">
<path fill="none" stroke="#63b8ff" d="M297.36,-162.74C364.18,-169.43 486.14,-181.65 559.31,-188.97"/>
<polygon fill="#63b8ff" stroke="#63b8ff" points="297.42,-159.23 287.12,-161.72 296.72,-166.2 297.42,-159.23"/>
</a>
</g>
</g>
<!-- Node10 -->
<g id="Node000010" class="node">
<title>Node10</title>
<g id="a_Node000010"><a xlink:href="classCellObstacleInterface.html" target="_top" xlink:title="Interface for managing obstacles in a terrain cell.">
<polygon fill="white" stroke="#666666" points="681.5,-167.5 559.5,-167.5 559.5,-148.5 681.5,-148.5 681.5,-167.5"/>
<text text-anchor="middle" x="620.5" y="-155.5" font-family="Helvetica,sans-Serif" font-size="10.00">CellObstacleInterface</text>
</a>
</g>
</g>
<!-- Node8&#45;&gt;Node10 -->
<g id="edge12_Node000010_Node000008" class="edge">
<title>Node8&#45;&gt;Node10</title>
<g id="a_edge12_Node000010_Node000008"><a xlink:title=" ">
<path fill="none" stroke="#63b8ff" d="M297.36,-158C364.18,-158 486.14,-158 559.31,-158"/>
<polygon fill="#63b8ff" stroke="#63b8ff" points="297.12,-154.5 287.12,-158 297.12,-161.5 297.12,-154.5"/>
</a>
</g>
</g>
<!-- Node11 -->
<g id="Node000011" class="node">
<title>Node11</title>
<g id="a_Node000011"><a xlink:href="classCellHabitatDomainInterface.html" target="_top" xlink:title="Represents the habitat&#45;domain information associated with a terrain cell.">
<polygon fill="white" stroke="#666666" points="697,-130.5 544,-130.5 544,-111.5 697,-111.5 697,-130.5"/>
<text text-anchor="middle" x="620.5" y="-118.5" font-family="Helvetica,sans-Serif" font-size="10.00">CellHabitatDomainInterface</text>
</a>
</g>
</g>
<!-- Node8&#45;&gt;Node11 -->
<g id="edge14_Node000011_Node000008" class="edge">
<title>Node8&#45;&gt;Node11</title>
<g id="a_edge14_Node000011_Node000008"><a xlink:title=" ">
<path fill="none" stroke="#63b8ff" d="M297.44,-153.25C359.74,-147.01 469.86,-135.98 543.76,-128.58"/>
<polygon fill="#63b8ff" stroke="#63b8ff" points="296.72,-149.8 287.12,-154.28 297.42,-156.77 296.72,-149.8"/>
</a>
</g>
</g>
<!-- Node9&#45;&gt;Node7 -->
<g id="edge9_Node000007_Node000009" class="edge">
<title>Node9&#45;&gt;Node7</title>
<g id="a_edge9_Node000007_Node000009"><a xlink:title=" ">
<path fill="none" stroke="#9a32cd" stroke-dasharray="5,2" d="M289.82,-203.92C354.64,-202.17 483.35,-198.68 559.35,-196.63"/>
<polygon fill="#9a32cd" stroke="#9a32cd" points="289.51,-200.43 279.61,-204.2 289.7,-207.43 289.51,-200.43"/>
</a>
</g>
<text text-anchor="middle" x="444.5" y="-204" font-family="Helvetica,sans-Serif" font-size="10.00" fill="grey"> totalMaximumResourceCapacity</text>
</g>
<!-- Node10&#45;&gt;Node2 -->
<g id="edge11_Node000002_Node000010" class="edge">
<title>Node10&#45;&gt;Node2</title>
<g id="a_edge11_Node000002_Node000010"><a xlink:title=" ">
<path fill="none" stroke="#9a32cd" stroke-dasharray="5,2" d="M691.76,-158C744.19,-158 814.29,-158 859.42,-158"/>
<polygon fill="#9a32cd" stroke="#9a32cd" points="691.52,-154.5 681.52,-158 691.52,-161.5 691.52,-154.5"/>
</a>
</g>
<text text-anchor="middle" x="762.5" y="-161" font-family="Helvetica,sans-Serif" font-size="10.00" fill="grey"> cellObstacle</text>
</g>
<!-- Node11&#45;&gt;Node2 -->
<g id="edge13_Node000002_Node000011" class="edge">
<title>Node11&#45;&gt;Node2</title>
<g id="a_edge13_Node000002_Node000011"><a xlink:title=" ">
<path fill="none" stroke="#9a32cd" stroke-dasharray="5,2" d="M707.54,-130.29C739.72,-133.96 776.57,-138.4 810,-143 826.13,-145.22 843.76,-147.94 859.37,-150.45"/>
<polygon fill="#9a32cd" stroke="#9a32cd" points="707.59,-126.77 697.26,-129.12 706.8,-133.72 707.59,-126.77"/>
</a>
</g>
<text text-anchor="middle" x="762.5" y="-146" font-family="Helvetica,sans-Serif" font-size="10.00" fill="grey"> cellHabitatDomain</text>
</g>
<!-- Node12 -->
<g id="Node000012" class="node">
<title>Node12</title>
<g id="a_Node000012"><a xlink:href="classCustomIndexedVector.html" target="_top" xlink:title=" ">
<polygon fill="white" stroke="#666666" points="345,-127.5 153,-127.5 153,-86.5 345,-86.5 345,-127.5"/>
<text text-anchor="start" x="161" y="-115.5" font-family="Helvetica,sans-Serif" font-size="10.00">CustomIndexedVector</text>
<text text-anchor="start" x="161" y="-104.5" font-family="Helvetica,sans-Serif" font-size="10.00">&lt; AnimalSpeciesID, CustomIndexed</text>
<text text-anchor="middle" x="249" y="-93.5" font-family="Helvetica,sans-Serif" font-size="10.00">Vector&lt; Instar, bool &gt; &gt;</text>
</a>
</g>
</g>
<!-- Node12&#45;&gt;Node11 -->
<g id="edge15_Node000011_Node000012" class="edge">
<title>Node12&#45;&gt;Node11</title>
<g id="a_edge15_Node000011_Node000012"><a xlink:title=" ">
<path fill="none" stroke="#9a32cd" stroke-dasharray="5,2" d="M355.42,-104.06C406.92,-103.47 469.76,-104.01 526,-108 536.95,-108.78 548.58,-110.04 559.77,-111.48"/>
<polygon fill="#9a32cd" stroke="#9a32cd" points="355.23,-100.56 345.28,-104.19 355.32,-107.56 355.23,-100.56"/>
</a>
</g>
<text text-anchor="middle" x="444.5" y="-111" font-family="Helvetica,sans-Serif" font-size="10.00" fill="grey"> habitatDomainStatus</text>
</g>
</g>
</svg>
