<?xml version="1.0" encoding="UTF-8" standalone="no"?>
<!DOCTYPE svg PUBLIC "-//W3C//DTD SVG 1.1//EN"
 "http://www.w3.org/Graphics/SVG/1.1/DTD/svg11.dtd">
<!-- Generated by graphviz version 2.43.0 (0)
 -->
<!-- Title: CellQualityBiomass Pages: 1 -->
<!--zoomable 165 -->

<svg id="main" version="1.1" xmlns="http://www.w3.org/2000/svg" xmlns:xlink="http://www.w3.org/1999/xlink" xml:space="preserve" onload="init(evt)">
<style type="text/css"><![CDATA[
.node, .edge {opacity: 0.7;}
.node.selected, .edge.selected {opacity: 1;}
.edge:hover path { stroke: red; }
.edge:hover polygon { stroke: red; fill: red; }
]]></style>

<defs>
  <circle id="rim" cx="0" cy="0" r="7"/>
  <circle id="rim2" cx="0" cy="0" r="3.5"/>
  <g id="zoomPlus">
    <use xlink:href="#rim" fill="#404040"><set attributeName="fill" to="#808080" begin="zoomplus.mouseover" end="zoomplus.mouseout"/></use>
    <path d="M-4,0h8M0,-4v8" fill="none" stroke="white" stroke-width="1.5" pointer-events="none"/>
  </g>
  <g id="zoomMin">
    <use xlink:href="#rim" fill="#404040"><set attributeName="fill" to="#808080" begin="zoomminus.mouseover" end="zoomminus.mouseout"/></use>
    <path d="M-4,0h8" fill="none" stroke="white" stroke-width="1.5" pointer-events="none"/>
  </g>
  <g id="arrowUp" transform="translate(30 24)">
    <use xlink:href="#rim"/>
    <path pointer-events="none" fill="none" stroke="white" stroke-width="1.5" d="M0,-3.0v7 M-2.5,-0.5L0,-3.0L2.5,-0.5"/>
  </g>
  <g id="arrowRight" transform="rotate(90) translate(36 -43)">
    <use xlink:href="#rim"/>
    <path pointer-events="none" fill="none" stroke="white" stroke-width="1.5" d="M0,-3.0v7 M-2.5,-0.5L0,-3.0L2.5,-0.5"/>
  </g>
  <g id="arrowDown" transform="rotate(180) translate(-30 -48)">
    <use xlink:href="#rim"/>
    <path pointer-events="none" fill="none" stroke="white" stroke-width="1.5" d="M0,-3.0v7 M-2.5,-0.5L0,-3.0L2.5,-0.5"/>
  </g>
  <g id="arrowLeft" transform="rotate(270) translate(-36 17)">
    <use xlink:href="#rim"/>
    <path pointer-events="none" fill="none" stroke="white" stroke-width="1.5" d="M0,-3.0v7 M-2.5,-0.5L0,-3.0L2.5,-0.5"/>
  </g>
  <g id="resetDef">
    <use xlink:href="#rim2" fill="#404040"><set attributeName="fill" to="#808080" begin="reset.mouseover" end="reset.mouseout"/></use>
  </g>
</defs>
<script type="application/ecmascript">
var viewWidth = 1261;
var viewHeight = 165;
var sectionId = 'dynsection-0';
</script>
<script type="application/ecmascript" xlink:href="svg.min.js"/>
<svg id="graph" class="graph">
<g id="viewport">
<title>CellQualityBiomass</title>
<!-- Node1 -->
<g id="Node000001" class="node">
<title>Node1</title>
<g id="a_Node000001"><a xlink:title="Computes the quality of a cell for a predator based on prey biomass and edibility.">
<polygon fill="#999999" stroke="#666666" points="1253,-133.86 1140,-133.86 1140,-114.86 1253,-114.86 1253,-133.86"/>
<text text-anchor="middle" x="1196.5" y="-121.86" font-family="Helvetica,sans-Serif" font-size="10.00">CellQualityBiomass</text>
</a>
</g>
</g>
<!-- Node2 -->
<g id="Node000002" class="node">
<title>Node2</title>
<g id="a_Node000002"><a xlink:href="classEdibilityValue.html" target="_top" xlink:title="Calculates the edibility value of prey for a predator.">
<polygon fill="white" stroke="#666666" points="1034,-133.86 951,-133.86 951,-114.86 1034,-114.86 1034,-133.86"/>
<text text-anchor="middle" x="992.5" y="-121.86" font-family="Helvetica,sans-Serif" font-size="10.00">EdibilityValue</text>
</a>
</g>
</g>
<!-- Node2&#45;&gt;Node1 -->
<g id="edge1_Node000001_Node000002" class="edge">
<title>Node2&#45;&gt;Node1</title>
<g id="a_edge1_Node000001_Node000002"><a xlink:title=" ">
<path fill="none" stroke="#9a32cd" stroke-dasharray="5,2" d="M1044.71,-124.36C1073.72,-124.36 1110.03,-124.36 1139.76,-124.36"/>
<polygon fill="#9a32cd" stroke="#9a32cd" points="1044.38,-120.86 1034.38,-124.36 1044.38,-127.86 1044.38,-120.86"/>
</a>
</g>
<text text-anchor="middle" x="1087" y="-127.36" font-family="Helvetica,sans-Serif" font-size="10.00" fill="grey"> edibilityValue</text>
</g>
<!-- Node3 -->
<g id="Node000003" class="node">
<title>Node3</title>
<g id="a_Node000003"><a xlink:href="classEdibleDecisionProbability.html" target="_top" xlink:title="Base class for computing probabilities related to edible prey decisions.">
<polygon fill="white" stroke="#666666" points="568,-156.86 427,-156.86 427,-137.86 568,-137.86 568,-156.86"/>
<text text-anchor="middle" x="497.5" y="-144.86" font-family="Helvetica,sans-Serif" font-size="10.00">EdibleDecisionProbability</text>
</a>
</g>
</g>
<!-- Node3&#45;&gt;Node2 -->
<g id="edge2_Node000002_Node000003" class="edge">
<title>Node3&#45;&gt;Node2</title>
<g id="a_edge2_Node000002_Node000003"><a xlink:title=" ">
<path fill="none" stroke="#63b8ff" d="M578.33,-147.03C665.6,-146.1 809.48,-142.91 933,-132.36 938.82,-131.87 944.95,-131.19 950.96,-130.45"/>
<polygon fill="#63b8ff" stroke="#63b8ff" points="578.2,-143.53 568.24,-147.13 578.27,-150.53 578.2,-143.53"/>
</a>
</g>
</g>
<!-- Node5 -->
<g id="Node000005" class="node">
<title>Node5</title>
<g id="a_Node000005"><a xlink:href="classPredationProbability.html" target="_top" xlink:title="Manages predation probability functions for species across different instars.">
<polygon fill="white" stroke="#666666" points="812,-107.86 696,-107.86 696,-88.86 812,-88.86 812,-107.86"/>
<text text-anchor="middle" x="754" y="-95.86" font-family="Helvetica,sans-Serif" font-size="10.00">PredationProbability</text>
</a>
</g>
</g>
<!-- Node3&#45;&gt;Node5 -->
<g id="edge5_Node000005_Node000003" class="edge">
<title>Node3&#45;&gt;Node5</title>
<g id="a_edge5_Node000005_Node000003"><a xlink:title=" ">
<path fill="none" stroke="#63b8ff" d="M557.9,-135.93C602.08,-127.42 661.67,-115.95 703.33,-107.93"/>
<polygon fill="#63b8ff" stroke="#63b8ff" points="557.03,-132.53 547.87,-137.86 558.35,-139.4 557.03,-132.53"/>
</a>
</g>
</g>
<!-- Node4 -->
<g id="Node000004" class="node">
<title>Node4</title>
<g id="a_Node000004"><a xlink:href="classDecisionProbability.html" target="_top" xlink:title="Abstract base class for probability calculations in predator&#45;prey decisions.">
<polygon fill="white" stroke="#666666" points="111,-140.86 0,-140.86 0,-121.86 111,-121.86 111,-140.86"/>
<text text-anchor="middle" x="55.5" y="-128.86" font-family="Helvetica,sans-Serif" font-size="10.00">DecisionProbability</text>
</a>
</g>
</g>
<!-- Node4&#45;&gt;Node3 -->
<g id="edge3_Node000003_Node000004" class="edge">
<title>Node4&#45;&gt;Node3</title>
<g id="a_edge3_Node000003_Node000004"><a xlink:title=" ">
<path fill="none" stroke="#63b8ff" d="M121.49,-133.73C203.21,-136.7 342.93,-141.78 426.81,-144.83"/>
<polygon fill="#63b8ff" stroke="#63b8ff" points="121.46,-130.22 111.34,-133.36 121.2,-137.22 121.46,-130.22"/>
</a>
</g>
</g>
<!-- Node7 -->
<g id="Node000007" class="node">
<title>Node7</title>
<g id="a_Node000007"><a xlink:href="classAnimalDecisionProbability.html" target="_top" xlink:title="Abstract class for decision probabilities specific to animal interactions.">
<polygon fill="white" stroke="#666666" points="318,-118.86 172,-118.86 172,-99.86 318,-99.86 318,-118.86"/>
<text text-anchor="middle" x="245" y="-106.86" font-family="Helvetica,sans-Serif" font-size="10.00">AnimalDecisionProbability</text>
</a>
</g>
</g>
<!-- Node4&#45;&gt;Node7 -->
<g id="edge8_Node000007_Node000004" class="edge">
<title>Node4&#45;&gt;Node7</title>
<g id="a_edge8_Node000007_Node000004"><a xlink:title=" ">
<path fill="none" stroke="#63b8ff" d="M121.2,-123.77C137.5,-121.86 155.1,-119.79 171.75,-117.84"/>
<polygon fill="#63b8ff" stroke="#63b8ff" points="120.76,-120.3 111.24,-124.94 121.58,-127.25 120.76,-120.3"/>
</a>
</g>
</g>
<!-- Node5&#45;&gt;Node2 -->
<g id="edge4_Node000002_Node000005" class="edge">
<title>Node5&#45;&gt;Node2</title>
<g id="a_edge4_Node000002_Node000005"><a xlink:title=" ">
<path fill="none" stroke="#9a32cd" stroke-dasharray="5,2" d="M822.27,-105.76C863.68,-110.31 915.41,-116 950.71,-119.88"/>
<polygon fill="#9a32cd" stroke="#9a32cd" points="822.57,-102.27 812.25,-104.66 821.81,-109.23 822.57,-102.27"/>
</a>
</g>
<text text-anchor="middle" x="881.5" y="-120.36" font-family="Helvetica,sans-Serif" font-size="10.00" fill="grey"> predationProbability</text>
</g>
<!-- Node6 -->
<g id="Node000006" class="node">
<title>Node6</title>
<g id="a_Node000006"><a xlink:href="classEscapeProbability.html" target="_top" xlink:title="Manages the escape probability functions for a prey in predator&#45;prey interactions.">
<polygon fill="white" stroke="#666666" points="549.5,-66.86 445.5,-66.86 445.5,-47.86 549.5,-47.86 549.5,-66.86"/>
<text text-anchor="middle" x="497.5" y="-54.86" font-family="Helvetica,sans-Serif" font-size="10.00">EscapeProbability</text>
</a>
</g>
</g>
<!-- Node6&#45;&gt;Node5 -->
<g id="edge6_Node000005_Node000006" class="edge">
<title>Node6&#45;&gt;Node5</title>
<g id="a_edge6_Node000005_Node000006"><a xlink:title=" ">
<path fill="none" stroke="#9a32cd" stroke-dasharray="5,2" d="M559.68,-65.4C594.45,-70.17 638.74,-76.6 678,-83.36 687.55,-85.01 697.76,-86.94 707.46,-88.85"/>
<polygon fill="#9a32cd" stroke="#9a32cd" points="560.06,-61.92 549.68,-64.03 559.12,-68.85 560.06,-61.92"/>
</a>
</g>
<text text-anchor="middle" x="632.5" y="-86.36" font-family="Helvetica,sans-Serif" font-size="10.00" fill="grey"> escapeProbability</text>
</g>
<!-- Node7&#45;&gt;Node6 -->
<g id="edge7_Node000006_Node000007" class="edge">
<title>Node7&#45;&gt;Node6</title>
<g id="a_edge7_Node000006_Node000007"><a xlink:title=" ">
<path fill="none" stroke="#63b8ff" d="M328.4,-100.95C354.2,-97.17 382.57,-91.83 408,-84.36 416.4,-81.9 417.75,-79.29 426,-76.36 435.8,-72.89 446.55,-69.69 456.64,-66.95"/>
<polygon fill="#63b8ff" stroke="#63b8ff" points="327.69,-97.52 318.27,-102.37 328.66,-104.45 327.69,-97.52"/>
</a>
</g>
</g>
<!-- Node8 -->
<g id="Node000008" class="node">
<title>Node8</title>
<g id="a_Node000008"><a xlink:href="classSensoryModel.html" target="_top" xlink:title="Represents a sensory detection model used to calculate the probability of detecting an object based o...">
<polygon fill="white" stroke="#666666" points="288,-33.86 202,-33.86 202,-14.86 288,-14.86 288,-33.86"/>
<text text-anchor="middle" x="245" y="-21.86" font-family="Helvetica,sans-Serif" font-size="10.00">SensoryModel</text>
</a>
</g>
</g>
<!-- Node8&#45;&gt;Node6 -->
<g id="edge9_Node000006_Node000008" class="edge">
<title>Node8&#45;&gt;Node6</title>
<g id="a_edge9_Node000006_Node000008"><a xlink:title=" ">
<path fill="none" stroke="#9a32cd" stroke-dasharray="5,2" d="M298.26,-31.06C330,-35.14 371.34,-40.5 408,-45.36 420.14,-46.97 433.22,-48.73 445.5,-50.39"/>
<polygon fill="#9a32cd" stroke="#9a32cd" points="298.67,-27.58 288.3,-29.78 297.78,-34.52 298.67,-27.58"/>
</a>
</g>
<text text-anchor="middle" x="372" y="-48.36" font-family="Helvetica,sans-Serif" font-size="10.00" fill="grey"> sensoryModel</text>
</g>
<!-- Node9 -->
<g id="Node000009" class="node">
<title>Node9</title>
<g id="a_Node000009"><a xlink:href="classPreciseDouble.html" target="_top" xlink:title="Class for precise double&#45;precision floating&#45;point arithmetic.">
<polygon fill="white" stroke="#666666" points="98.5,-33.86 12.5,-33.86 12.5,-14.86 98.5,-14.86 98.5,-33.86"/>
<text text-anchor="middle" x="55.5" y="-21.86" font-family="Helvetica,sans-Serif" font-size="10.00">PreciseDouble</text>
</a>
</g>
</g>
<!-- Node9&#45;&gt;Node5 -->
<g id="edge13_Node000005_Node000009" class="edge">
<title>Node9&#45;&gt;Node5</title>
<g id="a_edge13_Node000005_Node000009"><a xlink:title=" ">
<path fill="none" stroke="#9a32cd" stroke-dasharray="5,2" d="M108.58,-13.95C128.35,-10.48 151.13,-7.07 172,-5.36 348.5,9.06 394.91,-6.89 569,-39.36 617.96,-48.49 630.79,-49.49 678,-65.36 697.55,-71.94 719.02,-81.65 733.95,-88.84"/>
<polygon fill="#9a32cd" stroke="#9a32cd" points="107.76,-10.54 98.54,-15.75 109,-17.43 107.76,-10.54"/>
</a>
</g>
<text text-anchor="middle" x="372" y="-13.36" font-family="Helvetica,sans-Serif" font-size="10.00" fill="grey"> pdfThreshold</text>
</g>
<!-- Node9&#45;&gt;Node6 -->
<g id="edge11_Node000006_Node000009" class="edge">
<title>Node9&#45;&gt;Node6</title>
<g id="a_edge11_Node000006_Node000009"><a xlink:title=" ">
<path fill="none" stroke="#9a32cd" stroke-dasharray="5,2" d="M108.49,-35.84C115.37,-37.15 122.34,-38.37 129,-39.36 240.98,-56.1 374.07,-58.29 445.36,-58.05"/>
<polygon fill="#9a32cd" stroke="#9a32cd" points="109.02,-32.38 98.53,-33.88 107.66,-39.25 109.02,-32.38"/>
</a>
</g>
<text text-anchor="middle" x="245" y="-58.36" font-family="Helvetica,sans-Serif" font-size="10.00" fill="grey"> cVelocity</text>
</g>
<!-- Node9&#45;&gt;Node8 -->
<g id="edge10_Node000008_Node000009" class="edge">
<title>Node9&#45;&gt;Node8</title>
<g id="a_edge10_Node000008_Node000009"><a xlink:title=" ">
<path fill="none" stroke="#9a32cd" stroke-dasharray="5,2" d="M108.65,-24.36C138,-24.36 174.17,-24.36 201.74,-24.36"/>
<polygon fill="#9a32cd" stroke="#9a32cd" points="108.58,-20.86 98.58,-24.36 108.58,-27.86 108.58,-20.86"/>
</a>
</g>
<text text-anchor="middle" x="141.5" y="-27.36" font-family="Helvetica,sans-Serif" font-size="10.00" fill="grey"> beta</text>
</g>
<!-- Node10 -->
<g id="Node000010" class="node">
<title>Node10</title>
<g id="a_Node000010"><a xlink:href="classCustomIndexedVector.html" target="_top" xlink:title=" ">
<polygon fill="white" stroke="#666666" points="569,-115.36 426,-115.36 426,-85.36 569,-85.36 569,-115.36"/>
<text text-anchor="start" x="434" y="-103.36" font-family="Helvetica,sans-Serif" font-size="10.00">CustomIndexedVector</text>
<text text-anchor="middle" x="497.5" y="-92.36" font-family="Helvetica,sans-Serif" font-size="10.00">&lt; Instar, PreciseDouble &gt;</text>
</a>
</g>
</g>
<!-- Node10&#45;&gt;Node5 -->
<g id="edge12_Node000005_Node000010" class="edge">
<title>Node10&#45;&gt;Node5</title>
<g id="a_edge12_Node000005_Node000010"><a xlink:title=" ">
<path fill="none" stroke="#9a32cd" stroke-dasharray="5,2" d="M579.23,-99.43C581.85,-99.41 584.45,-99.38 587,-99.36 623.17,-99.05 663.77,-98.8 695.76,-98.63"/>
<polygon fill="#9a32cd" stroke="#9a32cd" points="578.99,-95.93 569.03,-99.53 579.06,-102.93 578.99,-95.93"/>
</a>
</g>
<text text-anchor="middle" x="632.5" y="-102.36" font-family="Helvetica,sans-Serif" font-size="10.00" fill="grey"> maximumPDF</text>
</g>
</g>
</svg>

<g id="navigator" transform="translate(0 0)" fill="#404254">
  <rect fill="#f2f5e9" fill-opacity="0.5" stroke="#606060" stroke-width=".5" x="0" y="0" width="60" height="60"/>
  <use id="zoomplus" xlink:href="#zoomPlus" x="17" y="9" onmousedown="handleZoom(evt,'in')"/>
  <use id="zoomminus" xlink:href="#zoomMin" x="42" y="9" onmousedown="handleZoom(evt,'out')"/>
  <use id="reset" xlink:href="#resetDef" x="30" y="36" onmousedown="handleReset()"/>
   <use id="arrowup" xlink:href="#arrowUp" x="0" y="0" onmousedown="handlePan(0,-1)"/>
  <use id="arrowright" xlink:href="#arrowRight" x="0" y="0" onmousedown="handlePan(1,0)"/>
  <use id="arrowdown" xlink:href="#arrowDown" x="0" y="0" onmousedown="handlePan(0,1)"/>
  <use id="arrowleft" xlink:href="#arrowLeft" x="0" y="0" onmousedown="handlePan(-1,0)"/>
</g>
<svg viewBox="0 0 15 15" width="100%" height="30px" preserveAspectRatio="xMaxYMin meet">
 <g id="arrow_out" transform="scale(0.3 0.3)">
  <a xlink:href="classCellQualityBiomass__coll__graph_org.svg" target="_base">
   <rect id="button" ry="5" rx="5" y="6" x="6" height="38" width="38"
        fill="#f2f5e9" fill-opacity="0.5" stroke="#606060" stroke-width="1.0"/>
   <path id="arrow"
     d="M 11.500037,31.436501 C 11.940474,20.09759 22.043105,11.32322 32.158766,21.979434 L 37.068811,17.246167 C 37.068811,17.246167 37.088388,32 37.088388,32 L 22.160133,31.978069 C 22.160133,31.978069 26.997745,27.140456 26.997745,27.140456 C 18.528582,18.264221 13.291696,25.230495 11.500037,31.436501 z"
     style="fill:#404040;"/>
  </a>
 </g>
</svg>

<style type='text/css'>
<![CDATA[
[data-mouse-over-selected='false'] { opacity: 0.7; }
[data-mouse-over-selected='true']  { opacity: 1.0; }
]]>
</style>
<script type="application/ecmascript"><![CDATA[
document.addEventListener('DOMContentLoaded', (event) => {
  highlightEdges();
  highlightAdjacentNodes();
});
]]></script>
</svg>
