<?xml version="1.0" encoding="UTF-8" standalone="no"?>
<!DOCTYPE svg PUBLIC "-//W3C//DTD SVG 1.1//EN"
 "http://www.w3.org/Graphics/SVG/1.1/DTD/svg11.dtd">
<!-- Generated by graphviz version 2.43.0 (0)
 -->
<!-- Title: AnimalSpeciesDecisions Pages: 1 -->
<svg width="1625pt" height="330pt"
 viewBox="0.00 0.00 1625.00 330.00" xmlns="http://www.w3.org/2000/svg" xmlns:xlink="http://www.w3.org/1999/xlink">
<g id="graph0" class="graph" transform="scale(1 1) rotate(0) translate(4 326)">
<title>AnimalSpeciesDecisions</title>
<!-- Node1 -->
<g id="Node000001" class="node">
<title>Node1</title>
<g id="a_Node000001"><a xlink:title="Represents the decision&#45;making traits of a species across different instars.">
<polygon fill="#999999" stroke="#666666" points="1617,-174.5 1481,-174.5 1481,-155.5 1617,-155.5 1617,-174.5"/>
<text text-anchor="middle" x="1549" y="-162.5" font-family="Helvetica,sans-Serif" font-size="10.00">AnimalSpeciesDecisions</text>
</a>
</g>
</g>
<!-- Node2 -->
<g id="Node000002" class="node">
<title>Node2</title>
<g id="a_Node000002"><a xlink:href="classSensoryModel.html" target="_top" xlink:title="Represents a sensory detection model used to calculate the probability of detecting an object based o...">
<polygon fill="white" stroke="#666666" points="288,-110.5 202,-110.5 202,-91.5 288,-91.5 288,-110.5"/>
<text text-anchor="middle" x="245" y="-98.5" font-family="Helvetica,sans-Serif" font-size="10.00">SensoryModel</text>
</a>
</g>
</g>
<!-- Node2&#45;&gt;Node1 -->
<g id="edge1_Node000001_Node000002" class="edge">
<title>Node2&#45;&gt;Node1</title>
<g id="a_edge1_Node000001_Node000002"><a xlink:title=" ">
<path fill="none" stroke="#9a32cd" stroke-dasharray="5,2" d="M292.5,-89.05C342.53,-77.27 424.6,-61 496.5,-61 496.5,-61 496.5,-61 1333.5,-61 1419.58,-61 1507.38,-129.66 1537.28,-155.4"/>
<polygon fill="#9a32cd" stroke="#9a32cd" points="291.54,-85.68 282.63,-91.42 293.17,-92.49 291.54,-85.68"/>
</a>
</g>
<text text-anchor="middle" x="889.5" y="-64" font-family="Helvetica,sans-Serif" font-size="10.00" fill="grey"> sensoryModel</text>
</g>
<!-- Node7 -->
<g id="Node000007" class="node">
<title>Node7</title>
<g id="a_Node000007"><a xlink:href="classEscapeProbability.html" target="_top" xlink:title="Manages the escape probability functions for a prey in predator&#45;prey interactions.">
<polygon fill="white" stroke="#666666" points="549.5,-172.5 445.5,-172.5 445.5,-153.5 549.5,-153.5 549.5,-172.5"/>
<text text-anchor="middle" x="497.5" y="-160.5" font-family="Helvetica,sans-Serif" font-size="10.00">EscapeProbability</text>
</a>
</g>
</g>
<!-- Node2&#45;&gt;Node7 -->
<g id="edge9_Node000007_Node000002" class="edge">
<title>Node2&#45;&gt;Node7</title>
<g id="a_edge9_Node000007_Node000002"><a xlink:title=" ">
<path fill="none" stroke="#9a32cd" stroke-dasharray="5,2" d="M298.23,-101.28C330.8,-103.01 373.03,-108.14 408,-122 417.17,-125.63 417.35,-130.25 426,-135 439.16,-142.22 454.58,-148.56 467.64,-153.38"/>
<polygon fill="#9a32cd" stroke="#9a32cd" points="298.16,-97.77 288.02,-100.83 297.85,-104.76 298.16,-97.77"/>
</a>
</g>
<text text-anchor="middle" x="372" y="-125" font-family="Helvetica,sans-Serif" font-size="10.00" fill="grey"> sensoryModel</text>
</g>
<!-- Node3 -->
<g id="Node000003" class="node">
<title>Node3</title>
<g id="a_Node000003"><a xlink:href="classPreciseDouble.html" target="_top" xlink:title="Class for precise double&#45;precision floating&#45;point arithmetic.">
<polygon fill="white" stroke="#666666" points="98.5,-133.5 12.5,-133.5 12.5,-114.5 98.5,-114.5 98.5,-133.5"/>
<text text-anchor="middle" x="55.5" y="-121.5" font-family="Helvetica,sans-Serif" font-size="10.00">PreciseDouble</text>
</a>
</g>
</g>
<!-- Node3&#45;&gt;Node1 -->
<g id="edge19_Node000001_Node000003" class="edge">
<title>Node3&#45;&gt;Node1</title>
<g id="a_edge19_Node000001_Node000003"><a xlink:title=" ">
<path fill="none" stroke="#9a32cd" stroke-dasharray="5,2" d="M70.21,-106.46C98.63,-72.27 167.73,0 244,0 244,0 244,0 1333.5,0 1435.92,0 1519.45,-119.65 1541.99,-155.17"/>
<polygon fill="#9a32cd" stroke="#9a32cd" points="67.46,-104.3 63.88,-114.27 72.9,-108.71 67.46,-104.3"/>
</a>
</g>
<text text-anchor="middle" x="758" y="-25" font-family="Helvetica,sans-Serif" font-size="10.00" fill="grey"> killProbability</text>
<text text-anchor="start" x="696" y="-14" font-family="Helvetica,sans-Serif" font-size="10.00" fill="grey">weightIndividualToGlobal</text>
<text text-anchor="middle" x="758" y="-3" font-family="Helvetica,sans-Serif" font-size="10.00" fill="grey">Assessment</text>
</g>
<!-- Node3&#45;&gt;Node2 -->
<g id="edge2_Node000002_Node000003" class="edge">
<title>Node3&#45;&gt;Node2</title>
<g id="a_edge2_Node000002_Node000003"><a xlink:title=" ">
<path fill="none" stroke="#9a32cd" stroke-dasharray="5,2" d="M108.65,-117.6C138,-114 174.17,-109.57 201.74,-106.18"/>
<polygon fill="#9a32cd" stroke="#9a32cd" points="108.08,-114.15 98.58,-118.84 108.93,-121.09 108.08,-114.15"/>
</a>
</g>
<text text-anchor="middle" x="141.5" y="-118" font-family="Helvetica,sans-Serif" font-size="10.00" fill="grey"> beta</text>
</g>
<!-- Node4 -->
<g id="Node000004" class="node">
<title>Node4</title>
<g id="a_Node000004"><a xlink:href="classPredationProbability.html" target="_top" xlink:title="Manages predation probability functions for species across different instars.">
<polygon fill="white" stroke="#666666" points="816,-223.5 700,-223.5 700,-204.5 816,-204.5 816,-223.5"/>
<text text-anchor="middle" x="758" y="-211.5" font-family="Helvetica,sans-Serif" font-size="10.00">PredationProbability</text>
</a>
</g>
</g>
<!-- Node3&#45;&gt;Node4 -->
<g id="edge12_Node000004_Node000003" class="edge">
<title>Node3&#45;&gt;Node4</title>
<g id="a_edge12_Node000004_Node000003"><a xlink:title=" ">
<path fill="none" stroke="#9a32cd" stroke-dasharray="5,2" d="M89.93,-137.26C112.7,-145.73 143.72,-156.17 172,-162 362.74,-201.31 594.5,-210.91 699.9,-213.25"/>
<polygon fill="#9a32cd" stroke="#9a32cd" points="90.99,-133.92 80.4,-133.65 88.51,-140.47 90.99,-133.92"/>
</a>
</g>
<text text-anchor="middle" x="372" y="-198" font-family="Helvetica,sans-Serif" font-size="10.00" fill="grey"> pdfThreshold</text>
</g>
<!-- Node3&#45;&gt;Node7 -->
<g id="edge10_Node000007_Node000003" class="edge">
<title>Node3&#45;&gt;Node7</title>
<g id="a_edge10_Node000007_Node000003"><a xlink:title=" ">
<path fill="none" stroke="#9a32cd" stroke-dasharray="5,2" d="M108.89,-128.64C193.97,-136.19 361.12,-151 445.38,-158.47"/>
<polygon fill="#9a32cd" stroke="#9a32cd" points="108.96,-125.14 98.69,-127.74 108.34,-132.11 108.96,-125.14"/>
</a>
</g>
<text text-anchor="middle" x="245" y="-150" font-family="Helvetica,sans-Serif" font-size="10.00" fill="grey"> cVelocity</text>
</g>
<!-- Node4&#45;&gt;Node1 -->
<g id="edge3_Node000001_Node000004" class="edge">
<title>Node4&#45;&gt;Node1</title>
<g id="a_edge3_Node000001_Node000004"><a xlink:title=" ">
<path fill="none" stroke="#9a32cd" stroke-dasharray="5,2" d="M826.36,-212.2C902,-209.97 1028.37,-205.65 1137,-199 1258.31,-191.58 1399.45,-179.05 1480.79,-171.45"/>
<polygon fill="#9a32cd" stroke="#9a32cd" points="825.93,-208.71 816.03,-212.5 826.13,-215.71 825.93,-208.71"/>
</a>
</g>
<text text-anchor="middle" x="1206.5" y="-200" font-family="Helvetica,sans-Serif" font-size="10.00" fill="grey"> predationProbability</text>
</g>
<!-- Node10 -->
<g id="Node000010" class="node">
<title>Node10</title>
<g id="a_Node000010"><a xlink:href="classEdibilityValue.html" target="_top" xlink:title="Calculates the edibility value of prey for a predator.">
<polygon fill="white" stroke="#666666" points="1089.5,-286.5 1006.5,-286.5 1006.5,-267.5 1089.5,-267.5 1089.5,-286.5"/>
<text text-anchor="middle" x="1048" y="-274.5" font-family="Helvetica,sans-Serif" font-size="10.00">EdibilityValue</text>
</a>
</g>
</g>
<!-- Node4&#45;&gt;Node10 -->
<g id="edge15_Node000010_Node000004" class="edge">
<title>Node4&#45;&gt;Node10</title>
<g id="a_edge15_Node000010_Node000004"><a xlink:title=" ">
<path fill="none" stroke="#9a32cd" stroke-dasharray="5,2" d="M804.83,-225.97C815.68,-228.71 827.23,-231.53 838,-234 896.31,-247.37 964.23,-260.99 1006.43,-269.21"/>
<polygon fill="#9a32cd" stroke="#9a32cd" points="805.65,-222.57 795.1,-223.5 803.93,-229.36 805.65,-222.57"/>
</a>
</g>
<text text-anchor="middle" x="889.5" y="-259" font-family="Helvetica,sans-Serif" font-size="10.00" fill="grey"> predationProbability</text>
</g>
<!-- Node5 -->
<g id="Node000005" class="node">
<title>Node5</title>
<g id="a_Node000005"><a xlink:href="classEdibleDecisionProbability.html" target="_top" xlink:title="Base class for computing probabilities related to edible prey decisions.">
<polygon fill="white" stroke="#666666" points="568,-290.5 427,-290.5 427,-271.5 568,-271.5 568,-290.5"/>
<text text-anchor="middle" x="497.5" y="-278.5" font-family="Helvetica,sans-Serif" font-size="10.00">EdibleDecisionProbability</text>
</a>
</g>
</g>
<!-- Node5&#45;&gt;Node4 -->
<g id="edge4_Node000004_Node000005" class="edge">
<title>Node5&#45;&gt;Node4</title>
<g id="a_edge4_Node000004_Node000005"><a xlink:title=" ">
<path fill="none" stroke="#63b8ff" d="M545.19,-268.9C595.31,-255.91 673.91,-235.54 719.95,-223.6"/>
<polygon fill="#63b8ff" stroke="#63b8ff" points="544.06,-265.57 535.26,-271.47 545.82,-272.35 544.06,-265.57"/>
</a>
</g>
</g>
<!-- Node5&#45;&gt;Node10 -->
<g id="edge14_Node000010_Node000005" class="edge">
<title>Node5&#45;&gt;Node10</title>
<g id="a_edge14_Node000010_Node000005"><a xlink:title=" ">
<path fill="none" stroke="#63b8ff" d="M578.37,-280.42C697.1,-279.55 915.86,-277.96 1006.26,-277.3"/>
<polygon fill="#63b8ff" stroke="#63b8ff" points="578.22,-276.92 568.25,-280.49 578.27,-283.92 578.22,-276.92"/>
</a>
</g>
</g>
<!-- Node6 -->
<g id="Node000006" class="node">
<title>Node6</title>
<g id="a_Node000006"><a xlink:href="classDecisionProbability.html" target="_top" xlink:title="Abstract base class for probability calculations in predator&#45;prey decisions.">
<polygon fill="white" stroke="#666666" points="111,-277.5 0,-277.5 0,-258.5 111,-258.5 111,-277.5"/>
<text text-anchor="middle" x="55.5" y="-265.5" font-family="Helvetica,sans-Serif" font-size="10.00">DecisionProbability</text>
</a>
</g>
</g>
<!-- Node6&#45;&gt;Node5 -->
<g id="edge5_Node000005_Node000006" class="edge">
<title>Node6&#45;&gt;Node5</title>
<g id="a_edge5_Node000005_Node000006"><a xlink:title=" ">
<path fill="none" stroke="#63b8ff" d="M121.49,-269.92C203.21,-272.33 342.93,-276.46 426.81,-278.94"/>
<polygon fill="#63b8ff" stroke="#63b8ff" points="121.44,-266.42 111.34,-269.62 121.23,-273.41 121.44,-266.42"/>
</a>
</g>
</g>
<!-- Node8 -->
<g id="Node000008" class="node">
<title>Node8</title>
<g id="a_Node000008"><a xlink:href="classAnimalDecisionProbability.html" target="_top" xlink:title="Abstract class for decision probabilities specific to animal interactions.">
<polygon fill="white" stroke="#666666" points="318,-252.5 172,-252.5 172,-233.5 318,-233.5 318,-252.5"/>
<text text-anchor="middle" x="245" y="-240.5" font-family="Helvetica,sans-Serif" font-size="10.00">AnimalDecisionProbability</text>
</a>
</g>
</g>
<!-- Node6&#45;&gt;Node8 -->
<g id="edge8_Node000008_Node000006" class="edge">
<title>Node6&#45;&gt;Node8</title>
<g id="a_edge8_Node000008_Node000006"><a xlink:title=" ">
<path fill="none" stroke="#63b8ff" d="M121.31,-259.36C137.81,-257.16 155.63,-254.78 172.44,-252.54"/>
<polygon fill="#63b8ff" stroke="#63b8ff" points="120.69,-255.91 111.24,-260.7 121.61,-262.85 120.69,-255.91"/>
</a>
</g>
</g>
<!-- Node7&#45;&gt;Node4 -->
<g id="edge6_Node000004_Node000007" class="edge">
<title>Node7&#45;&gt;Node4</title>
<g id="a_edge6_Node000004_Node000007"><a xlink:title=" ">
<path fill="none" stroke="#9a32cd" stroke-dasharray="5,2" d="M559.61,-164.08C594.71,-165.86 639.36,-170.12 678,-180 699.84,-185.59 723.4,-196.41 739.06,-204.35"/>
<polygon fill="#9a32cd" stroke="#9a32cd" points="559.66,-160.58 549.51,-163.62 559.34,-167.57 559.66,-160.58"/>
</a>
</g>
<text text-anchor="middle" x="632.5" y="-183" font-family="Helvetica,sans-Serif" font-size="10.00" fill="grey"> escapeProbability</text>
</g>
<!-- Node8&#45;&gt;Node7 -->
<g id="edge7_Node000007_Node000008" class="edge">
<title>Node8&#45;&gt;Node7</title>
<g id="a_edge7_Node000007_Node000008"><a xlink:title=" ">
<path fill="none" stroke="#63b8ff" d="M265.87,-226.91C283.29,-213.7 309.85,-195.65 336,-186 371.12,-173.04 413.07,-167.34 445.28,-164.85"/>
<polygon fill="#63b8ff" stroke="#63b8ff" points="263.39,-224.4 257.65,-233.3 267.69,-229.93 263.39,-224.4"/>
</a>
</g>
</g>
<!-- Node9 -->
<g id="Node000009" class="node">
<title>Node9</title>
<g id="a_Node000009"><a xlink:href="classCustomIndexedVector.html" target="_top" xlink:title=" ">
<polygon fill="white" stroke="#666666" points="569,-126 426,-126 426,-96 569,-96 569,-126"/>
<text text-anchor="start" x="434" y="-114" font-family="Helvetica,sans-Serif" font-size="10.00">CustomIndexedVector</text>
<text text-anchor="middle" x="497.5" y="-103" font-family="Helvetica,sans-Serif" font-size="10.00">&lt; Instar, PreciseDouble &gt;</text>
</a>
</g>
</g>
<!-- Node9&#45;&gt;Node1 -->
<g id="edge18_Node000001_Node000009" class="edge">
<title>Node9&#45;&gt;Node1</title>
<g id="a_edge18_Node000001_Node000009"><a xlink:title=" ">
<path fill="none" stroke="#9a32cd" stroke-dasharray="5,2" d="M579.55,-109.1C630.49,-108.07 697.58,-107 757,-107 757,-107 757,-107 1333.5,-107 1406.8,-107 1489.45,-138.95 1527.2,-155.42"/>
<polygon fill="#9a32cd" stroke="#9a32cd" points="579.19,-105.61 569.26,-109.32 579.33,-112.61 579.19,-105.61"/>
</a>
</g>
<text text-anchor="start" x="959" y="-187" font-family="Helvetica,sans-Serif" font-size="10.00" fill="grey"> maximumPatchConspecificBiomass</text>
<text text-anchor="middle" x="1048" y="-176" font-family="Helvetica,sans-Serif" font-size="10.00" fill="grey">Global</text>
<text text-anchor="start" x="959" y="-165" font-family="Helvetica,sans-Serif" font-size="10.00" fill="grey">maximumPatchEdibilityValue</text>
<text text-anchor="middle" x="1048" y="-154" font-family="Helvetica,sans-Serif" font-size="10.00" fill="grey">Global</text>
<text text-anchor="middle" x="1048" y="-143" font-family="Helvetica,sans-Serif" font-size="10.00" fill="grey">maximumPatchPredationRiskGlobal</text>
<text text-anchor="middle" x="1048" y="-132" font-family="Helvetica,sans-Serif" font-size="10.00" fill="grey">maximumPredatorInteractionArea</text>
<text text-anchor="middle" x="1048" y="-121" font-family="Helvetica,sans-Serif" font-size="10.00" fill="grey">maximumPreyVoracity</text>
<text text-anchor="middle" x="1048" y="-110" font-family="Helvetica,sans-Serif" font-size="10.00" fill="grey">maximumVoracity</text>
</g>
<!-- Node9&#45;&gt;Node4 -->
<g id="edge11_Node000004_Node000009" class="edge">
<title>Node9&#45;&gt;Node4</title>
<g id="a_edge11_Node000004_Node000009"><a xlink:title=" ">
<path fill="none" stroke="#9a32cd" stroke-dasharray="5,2" d="M579.29,-120.98C611.12,-126.94 647.33,-136.33 678,-151 706.48,-164.63 733.97,-190.24 747.78,-204.24"/>
<polygon fill="#9a32cd" stroke="#9a32cd" points="579.58,-117.48 569.12,-119.16 578.35,-124.37 579.58,-117.48"/>
</a>
</g>
<text text-anchor="middle" x="632.5" y="-154" font-family="Helvetica,sans-Serif" font-size="10.00" fill="grey"> maximumPDF</text>
</g>
<!-- Node10&#45;&gt;Node1 -->
<g id="edge13_Node000001_Node000010" class="edge">
<title>Node10&#45;&gt;Node1</title>
<g id="a_edge13_Node000001_Node000010"><a xlink:title=" ">
<path fill="none" stroke="#9a32cd" stroke-dasharray="5,2" d="M1092.98,-288.89C1172.78,-307.83 1344.14,-336.18 1463,-268 1503.02,-245.04 1532.18,-195.54 1543.19,-174.63"/>
<polygon fill="#9a32cd" stroke="#9a32cd" points="1093.8,-285.49 1083.26,-286.52 1092.15,-292.29 1093.8,-285.49"/>
</a>
</g>
<text text-anchor="middle" x="1332.5" y="-314" font-family="Helvetica,sans-Serif" font-size="10.00" fill="grey"> edibilityValue</text>
</g>
<!-- Node11 -->
<g id="Node000011" class="node">
<title>Node11</title>
<g id="a_Node000011"><a xlink:href="classCellQualityBiomass.html" target="_top" xlink:title="Computes the quality of a cell for a predator based on prey biomass and edibility.">
<polygon fill="white" stroke="#666666" points="1389,-270.5 1276,-270.5 1276,-251.5 1389,-251.5 1389,-270.5"/>
<text text-anchor="middle" x="1332.5" y="-258.5" font-family="Helvetica,sans-Serif" font-size="10.00">CellQualityBiomass</text>
</a>
</g>
</g>
<!-- Node10&#45;&gt;Node11 -->
<g id="edge17_Node000011_Node000010" class="edge">
<title>Node10&#45;&gt;Node11</title>
<g id="a_edge17_Node000011_Node000010"><a xlink:title=" ">
<path fill="none" stroke="#9a32cd" stroke-dasharray="5,2" d="M1099.96,-274.11C1149.57,-271.3 1224.77,-267.05 1275.9,-264.15"/>
<polygon fill="#9a32cd" stroke="#9a32cd" points="1099.56,-270.63 1089.78,-274.69 1099.96,-277.62 1099.56,-270.63"/>
</a>
</g>
<text text-anchor="middle" x="1206.5" y="-273" font-family="Helvetica,sans-Serif" font-size="10.00" fill="grey"> edibilityValue</text>
</g>
<!-- Node11&#45;&gt;Node1 -->
<g id="edge16_Node000001_Node000011" class="edge">
<title>Node11&#45;&gt;Node1</title>
<g id="a_edge16_Node000001_Node000011"><a xlink:title=" ">
<path fill="none" stroke="#9a32cd" stroke-dasharray="5,2" d="M1398.9,-255.6C1420.08,-252.12 1443.2,-246.39 1463,-237 1495.5,-221.58 1525.64,-190.56 1539.7,-174.75"/>
<polygon fill="#9a32cd" stroke="#9a32cd" points="1398.37,-252.14 1389,-257.09 1399.41,-259.06 1398.37,-252.14"/>
</a>
</g>
<text text-anchor="middle" x="1435" y="-256" font-family="Helvetica,sans-Serif" font-size="10.00" fill="grey"> cellQuality</text>
</g>
</g>
</svg>
