<?xml version="1.0" encoding="UTF-8" standalone="no"?>
<!DOCTYPE svg PUBLIC "-//W3C//DTD SVG 1.1//EN"
 "http://www.w3.org/Graphics/SVG/1.1/DTD/svg11.dtd">
<!-- Generated by graphviz version 2.43.0 (0)
 -->
<!-- Title: PreciseDouble::almost_equal Pages: 1 -->
<svg width="320pt" height="138pt"
 viewBox="0.00 0.00 320.00 138.00" xmlns="http://www.w3.org/2000/svg" xmlns:xlink="http://www.w3.org/1999/xlink">
<g id="graph0" class="graph" transform="scale(1 1) rotate(0) translate(4 134)">
<title>PreciseDouble::almost_equal</title>
<!-- Node1 -->
<g id="Node000001" class="node">
<title>Node1</title>
<g id="a_Node000001"><a xlink:title="Checks if two double values are approximately equal.">
<polygon fill="#999999" stroke="#666666" points="312,-79.5 186,-79.5 186,-49.5 312,-49.5 312,-79.5"/>
<text text-anchor="start" x="194" y="-67.5" font-family="Helvetica,sans-Serif" font-size="10.00">PreciseDouble::almost</text>
<text text-anchor="middle" x="249" y="-56.5" font-family="Helvetica,sans-Serif" font-size="10.00">_equal</text>
</a>
</g>
</g>
<!-- Node2 -->
<g id="Node000002" class="node">
<title>Node2</title>
<g id="a_Node000002"><a xlink:href="PreciseDouble_8h.html#a4fb6de3271d099f6bd978f46ca378cd7" target="_top" xlink:title="Checks if a double is not approximately equal to a PreciseDouble.">
<polygon fill="white" stroke="#666666" points="110,-130 40,-130 40,-111 110,-111 110,-130"/>
<text text-anchor="middle" x="75" y="-118" font-family="Helvetica,sans-Serif" font-size="10.00">operator!=</text>
</a>
</g>
</g>
<!-- Node1&#45;&gt;Node2 -->
<g id="edge1_Node000001_Node000002" class="edge">
<title>Node1&#45;&gt;Node2</title>
<g id="a_edge1_Node000001_Node000002"><a xlink:title=" ">
<path fill="none" stroke="#63b8ff" d="M203.14,-83.32C186.6,-89.88 167.61,-96.97 150,-102.5 137.13,-106.54 122.77,-110.22 110.15,-113.18"/>
<polygon fill="#63b8ff" stroke="#63b8ff" points="204.58,-86.51 212.56,-79.54 201.98,-80.02 204.58,-86.51"/>
</a>
</g>
</g>
<!-- Node3 -->
<g id="Node000003" class="node">
<title>Node3</title>
<g id="a_Node000003"><a xlink:href="classPreciseDouble.html#aff9d2988788e6739c201931cf7b14102" target="_top" xlink:title="Checks if this PreciseDouble is equal to another PreciseDouble.">
<polygon fill="white" stroke="#666666" points="150,-93 0,-93 0,-74 150,-74 150,-93"/>
<text text-anchor="middle" x="75" y="-81" font-family="Helvetica,sans-Serif" font-size="10.00">PreciseDouble::operator==</text>
</a>
</g>
</g>
<!-- Node1&#45;&gt;Node3 -->
<g id="edge2_Node000001_Node000003" class="edge">
<title>Node1&#45;&gt;Node3</title>
<g id="a_edge2_Node000001_Node000003"><a xlink:title=" ">
<path fill="none" stroke="#63b8ff" d="M175.95,-72.46C167.38,-73.41 158.62,-74.37 150.02,-75.32"/>
<polygon fill="#63b8ff" stroke="#63b8ff" points="176.35,-75.94 185.9,-71.36 175.58,-68.98 176.35,-75.94"/>
</a>
</g>
</g>
<!-- Node4 -->
<g id="Node000004" class="node">
<title>Node4</title>
<g id="a_Node000004"><a xlink:href="PreciseDouble_8h.html#a3ed743a1b99e6f1671b06effdefe07f1" target="_top" xlink:title="Checks if a double is approximately equal to a PreciseDouble.">
<polygon fill="white" stroke="#666666" points="112,-56 38,-56 38,-37 112,-37 112,-56"/>
<text text-anchor="middle" x="75" y="-44" font-family="Helvetica,sans-Serif" font-size="10.00">operator==</text>
</a>
</g>
</g>
<!-- Node1&#45;&gt;Node4 -->
<g id="edge3_Node000001_Node000004" class="edge">
<title>Node1&#45;&gt;Node4</title>
<g id="a_edge3_Node000001_Node000004"><a xlink:title=" ">
<path fill="none" stroke="#63b8ff" d="M175.66,-56.93C153.87,-54.65 130.88,-52.24 112.48,-50.32"/>
<polygon fill="#63b8ff" stroke="#63b8ff" points="175.59,-60.44 185.9,-58 176.32,-53.48 175.59,-60.44"/>
</a>
</g>
</g>
<!-- Node5 -->
<g id="Node000005" class="node">
<title>Node5</title>
<g id="a_Node000005"><a xlink:href="classPreciseDouble.html#a73a0aaa045577e2342682abe71fbd186" target="_top" xlink:title="Checks if this PreciseDouble is equal to a double value.">
<polygon fill="white" stroke="#666666" points="150,-19 0,-19 0,0 150,0 150,-19"/>
<text text-anchor="middle" x="75" y="-7" font-family="Helvetica,sans-Serif" font-size="10.00">PreciseDouble::operator==</text>
</a>
</g>
</g>
<!-- Node1&#45;&gt;Node5 -->
<g id="edge4_Node000001_Node000005" class="edge">
<title>Node1&#45;&gt;Node5</title>
<g id="a_edge4_Node000001_Node000005"><a xlink:title=" ">
<path fill="none" stroke="#63b8ff" d="M200.1,-45.81C184.26,-39.92 166.48,-33.63 150,-28.5 139.11,-25.11 127.18,-21.85 116.15,-19.02"/>
<polygon fill="#63b8ff" stroke="#63b8ff" points="199.08,-49.17 209.67,-49.4 201.54,-42.61 199.08,-49.17"/>
</a>
</g>
</g>
</g>
</svg>
