<?xml version="1.0" encoding="UTF-8" standalone="no"?>
<!DOCTYPE svg PUBLIC "-//W3C//DTD SVG 1.1//EN"
 "http://www.w3.org/Graphics/SVG/1.1/DTD/svg11.dtd">
<!-- Generated by graphviz version 2.43.0 (0)
 -->
<!-- Title: /home/runner/work/Weaver/Weaver/include/Misc/CustomIndexedVector.h Pages: 1 -->
<svg width="209pt" height="115pt"
 viewBox="0.00 0.00 209.00 115.00" xmlns="http://www.w3.org/2000/svg" xmlns:xlink="http://www.w3.org/1999/xlink">
<g id="graph0" class="graph" transform="scale(1 1) rotate(0) translate(4 111)">
<title>/home/runner/work/Weaver/Weaver/include/Misc/CustomIndexedVector.h</title>
<!-- Node1 -->
<g id="Node000001" class="node">
<title>Node1</title>
<g id="a_Node000001"><a xlink:title="Template class providing a vector indexed by a custom type with bounds checking and Boost....">
<polygon fill="#999999" stroke="#666666" points="199,-107 0,-107 0,-66 199,-66 199,-107"/>
<text text-anchor="start" x="8" y="-95" font-family="Helvetica,sans-Serif" font-size="10.00">/home/runner/work/Weaver</text>
<text text-anchor="start" x="8" y="-84" font-family="Helvetica,sans-Serif" font-size="10.00">/Weaver/include/Misc/CustomIndexed</text>
<text text-anchor="middle" x="99.5" y="-73" font-family="Helvetica,sans-Serif" font-size="10.00">Vector.h</text>
</a>
</g>
</g>
<!-- Node2 -->
<g id="Node000002" class="node">
<title>Node2</title>
<g id="a_Node000002"><a xlink:title=" ">
<polygon fill="#e0e0e0" stroke="#999999" points="76,-24.5 29,-24.5 29,-5.5 76,-5.5 76,-24.5"/>
<text text-anchor="middle" x="52.5" y="-12.5" font-family="Helvetica,sans-Serif" font-size="10.00">vector</text>
</a>
</g>
</g>
<!-- Node1&#45;&gt;Node2 -->
<g id="edge1_Node000001_Node000002" class="edge">
<title>Node1&#45;&gt;Node2</title>
<g id="a_edge1_Node000001_Node000002"><a xlink:title=" ">
<path fill="none" stroke="#63b8ff" d="M86.16,-65.77C79.25,-55.55 70.89,-43.19 64.23,-33.34"/>
<polygon fill="#63b8ff" stroke="#63b8ff" points="66.97,-31.14 58.46,-24.82 61.17,-35.06 66.97,-31.14"/>
</a>
</g>
</g>
<!-- Node3 -->
<g id="Node000003" class="node">
<title>Node3</title>
<g id="a_Node000003"><a xlink:title=" ">
<polygon fill="#e0e0e0" stroke="#999999" points="201,-30 94,-30 94,0 201,0 201,-30"/>
<text text-anchor="start" x="102" y="-18" font-family="Helvetica,sans-Serif" font-size="10.00">boost/serialization</text>
<text text-anchor="middle" x="147.5" y="-7" font-family="Helvetica,sans-Serif" font-size="10.00">/vector.hpp</text>
</a>
</g>
</g>
<!-- Node1&#45;&gt;Node3 -->
<g id="edge2_Node000001_Node000003" class="edge">
<title>Node1&#45;&gt;Node3</title>
<g id="a_edge2_Node000001_Node000003"><a xlink:title=" ">
<path fill="none" stroke="#63b8ff" d="M113.13,-65.77C119.03,-57.22 125.97,-47.17 132.06,-38.35"/>
<polygon fill="#63b8ff" stroke="#63b8ff" points="135,-40.26 137.8,-30.04 129.24,-36.28 135,-40.26"/>
</a>
</g>
</g>
</g>
</svg>
