<?xml version="1.0" encoding="UTF-8" standalone="no"?>
<!DOCTYPE svg PUBLIC "-//W3C//DTD SVG 1.1//EN"
 "http://www.w3.org/Graphics/SVG/1.1/DTD/svg11.dtd">
<!-- Generated by graphviz version 2.43.0 (0)
 -->
<!-- Title: /home/runner/work/Weaver/Weaver/include/App/Model/IBM/Maths/Dynamics/Dynamics.h Pages: 1 -->
<svg width="1632pt" height="247pt"
 viewBox="0.00 0.00 1632.42 247.00" xmlns="http://www.w3.org/2000/svg" xmlns:xlink="http://www.w3.org/1999/xlink">
<g id="graph0" class="graph" transform="scale(1 1) rotate(0) translate(4 243)">
<title>/home/runner/work/Weaver/Weaver/include/App/Model/IBM/Maths/Dynamics/Dynamics.h</title>
<!-- Node1 -->
<g id="Node000001" class="node">
<title>Node1</title>
<g id="a_Node000001"><a xlink:title="Defines the abstract Dynamics class for modeling temporal changes in traits or resources.">
<polygon fill="#999999" stroke="#666666" points="841,-239 657,-239 657,-198 841,-198 841,-239"/>
<text text-anchor="start" x="665" y="-227" font-family="Helvetica,sans-Serif" font-size="10.00">/home/runner/work/Weaver</text>
<text text-anchor="start" x="665" y="-216" font-family="Helvetica,sans-Serif" font-size="10.00">/Weaver/include/App/Model</text>
<text text-anchor="middle" x="749" y="-205" font-family="Helvetica,sans-Serif" font-size="10.00">/IBM/Maths/Dynamics/Dynamics.h</text>
</a>
</g>
</g>
<!-- Node2 -->
<g id="Node000002" class="node">
<title>Node2</title>
<g id="a_Node000002"><a xlink:title=" ">
<polygon fill="#e0e0e0" stroke="#999999" points="259.5,-30 154.5,-30 154.5,0 259.5,0 259.5,-30"/>
<text text-anchor="start" x="162.5" y="-18" font-family="Helvetica,sans-Serif" font-size="10.00">boost/archive/text</text>
<text text-anchor="middle" x="207" y="-7" font-family="Helvetica,sans-Serif" font-size="10.00">_iarchive.hpp</text>
</a>
</g>
</g>
<!-- Node1&#45;&gt;Node2 -->
<g id="edge1_Node000001_Node000002" class="edge">
<title>Node1&#45;&gt;Node2</title>
<g id="a_edge1_Node000001_Node000002"><a xlink:title=" ">
<path fill="none" stroke="#63b8ff" d="M656.89,-215.61C491.55,-211.32 158.01,-198.24 120,-162 88.99,-132.43 88.77,-102.64 111,-66 119.48,-52.03 133.27,-41.78 147.79,-34.34"/>
<polygon fill="#63b8ff" stroke="#63b8ff" points="149.33,-37.48 156.88,-30.06 146.35,-31.15 149.33,-37.48"/>
</a>
</g>
</g>
<!-- Node3 -->
<g id="Node000003" class="node">
<title>Node3</title>
<g id="a_Node000003"><a xlink:title=" ">
<polygon fill="#e0e0e0" stroke="#999999" points="670.5,-30 565.5,-30 565.5,0 670.5,0 670.5,-30"/>
<text text-anchor="start" x="573.5" y="-18" font-family="Helvetica,sans-Serif" font-size="10.00">boost/archive/text</text>
<text text-anchor="middle" x="618" y="-7" font-family="Helvetica,sans-Serif" font-size="10.00">_oarchive.hpp</text>
</a>
</g>
</g>
<!-- Node1&#45;&gt;Node3 -->
<g id="edge2_Node000001_Node000003" class="edge">
<title>Node1&#45;&gt;Node3</title>
<g id="a_edge2_Node000001_Node000003"><a xlink:title=" ">
<path fill="none" stroke="#63b8ff" d="M715.05,-197.91C701.13,-188.51 685.78,-176.19 675,-162 646.43,-124.4 630.4,-70.69 623.04,-39.98"/>
<polygon fill="#63b8ff" stroke="#63b8ff" points="626.43,-39.11 620.79,-30.15 619.61,-40.68 626.43,-39.11"/>
</a>
</g>
</g>
<!-- Node4 -->
<g id="Node000004" class="node">
<title>Node4</title>
<g id="a_Node000004"><a xlink:title=" ">
<polygon fill="#e0e0e0" stroke="#999999" points="888,-30 772,-30 772,0 888,0 888,-30"/>
<text text-anchor="start" x="780" y="-18" font-family="Helvetica,sans-Serif" font-size="10.00">boost/archive/binary</text>
<text text-anchor="middle" x="830" y="-7" font-family="Helvetica,sans-Serif" font-size="10.00">_iarchive.hpp</text>
</a>
</g>
</g>
<!-- Node1&#45;&gt;Node4 -->
<g id="edge3_Node000001_Node000004" class="edge">
<title>Node1&#45;&gt;Node4</title>
<g id="a_edge3_Node000001_Node000004"><a xlink:title=" ">
<path fill="none" stroke="#63b8ff" d="M841.22,-202C886.94,-192.45 935.62,-178.8 951,-162 980.03,-130.28 987.48,-101.35 963,-66 948.06,-44.43 922.57,-32.15 897.88,-25.16"/>
<polygon fill="#63b8ff" stroke="#63b8ff" points="898.67,-21.75 888.12,-22.65 896.93,-28.53 898.67,-21.75"/>
</a>
</g>
</g>
<!-- Node5 -->
<g id="Node000005" class="node">
<title>Node5</title>
<g id="a_Node000005"><a xlink:title=" ">
<polygon fill="#e0e0e0" stroke="#999999" points="116,-30 0,-30 0,0 116,0 116,-30"/>
<text text-anchor="start" x="8" y="-18" font-family="Helvetica,sans-Serif" font-size="10.00">boost/archive/binary</text>
<text text-anchor="middle" x="58" y="-7" font-family="Helvetica,sans-Serif" font-size="10.00">_oarchive.hpp</text>
</a>
</g>
</g>
<!-- Node1&#45;&gt;Node5 -->
<g id="edge4_Node000001_Node000005" class="edge">
<title>Node1&#45;&gt;Node5</title>
<g id="a_edge4_Node000001_Node000005"><a xlink:title=" ">
<path fill="none" stroke="#63b8ff" d="M656.79,-215.48C486.9,-210.93 137.92,-197.34 96,-162 60.56,-132.12 55.96,-73.77 56.5,-40.6"/>
<polygon fill="#63b8ff" stroke="#63b8ff" points="60,-40.5 56.84,-30.39 53.01,-40.27 60,-40.5"/>
</a>
</g>
</g>
<!-- Node6 -->
<g id="Node000006" class="node">
<title>Node6</title>
<g id="a_Node000006"><a xlink:title=" ">
<polygon fill="#e0e0e0" stroke="#999999" points="1361,-24.5 1317,-24.5 1317,-5.5 1361,-5.5 1361,-24.5"/>
<text text-anchor="middle" x="1339" y="-12.5" font-family="Helvetica,sans-Serif" font-size="10.00">string</text>
</a>
</g>
</g>
<!-- Node1&#45;&gt;Node6 -->
<g id="edge5_Node000001_Node000006" class="edge">
<title>Node1&#45;&gt;Node6</title>
<g id="a_edge5_Node000001_Node000006"><a xlink:title=" ">
<path fill="none" stroke="#63b8ff" d="M841.3,-211.49C1054.85,-196.64 1568.58,-155.08 1618,-96 1626.56,-85.77 1626.56,-76.23 1618,-66 1602.23,-47.15 1441.21,-27.28 1371.21,-19.45"/>
<polygon fill="#63b8ff" stroke="#63b8ff" points="1371.51,-15.96 1361.18,-18.34 1370.74,-22.92 1371.51,-15.96"/>
</a>
</g>
</g>
<!-- Node7 -->
<g id="Node000007" class="node">
<title>Node7</title>
<g id="a_Node000007"><a xlink:title=" ">
<polygon fill="#e0e0e0" stroke="#999999" points="1087,-90.5 1031,-90.5 1031,-71.5 1087,-71.5 1087,-90.5"/>
<text text-anchor="middle" x="1059" y="-78.5" font-family="Helvetica,sans-Serif" font-size="10.00">sstream</text>
</a>
</g>
</g>
<!-- Node1&#45;&gt;Node7 -->
<g id="edge6_Node000001_Node000007" class="edge">
<title>Node1&#45;&gt;Node7</title>
<g id="a_edge6_Node000001_Node000007"><a xlink:title=" ">
<path fill="none" stroke="#63b8ff" d="M841.29,-206.89C907.45,-197.73 989.54,-182.7 1017,-162 1037.22,-146.76 1048.64,-118.93 1054.32,-100.45"/>
<polygon fill="#63b8ff" stroke="#63b8ff" points="1057.76,-101.15 1057.08,-90.58 1051.01,-99.27 1057.76,-101.15"/>
</a>
</g>
</g>
<!-- Node8 -->
<g id="Node000008" class="node">
<title>Node8</title>
<g id="a_Node000008"><a xlink:title=" ">
<polygon fill="#e0e0e0" stroke="#999999" points="942,-156.5 832,-156.5 832,-137.5 942,-137.5 942,-156.5"/>
<text text-anchor="middle" x="887" y="-144.5" font-family="Helvetica,sans-Serif" font-size="10.00">nlohmann/json.hpp</text>
</a>
</g>
</g>
<!-- Node1&#45;&gt;Node8 -->
<g id="edge7_Node000001_Node000008" class="edge">
<title>Node1&#45;&gt;Node8</title>
<g id="a_edge7_Node000001_Node000008"><a xlink:title=" ">
<path fill="none" stroke="#63b8ff" d="M787.81,-197.96C811.21,-186.17 840.38,-171.48 861.01,-161.09"/>
<polygon fill="#63b8ff" stroke="#63b8ff" points="862.76,-164.13 870.12,-156.5 859.61,-157.88 862.76,-164.13"/>
</a>
</g>
</g>
<!-- Node9 -->
<g id="Node000009" class="node">
<title>Node9</title>
<g id="a_Node000009"><a xlink:href="TimeUnits_8h.html" target="_top" xlink:title="Defines the TimeStep and Day classes for representing simulation time units.">
<polygon fill="white" stroke="#666666" points="502.5,-162 357.5,-162 357.5,-132 502.5,-132 502.5,-162"/>
<text text-anchor="start" x="365.5" y="-150" font-family="Helvetica,sans-Serif" font-size="10.00">App/Model/IBM/Landscape</text>
<text text-anchor="middle" x="430" y="-139" font-family="Helvetica,sans-Serif" font-size="10.00">/LivingBeings/TimeUnits.h</text>
</a>
</g>
</g>
<!-- Node1&#45;&gt;Node9 -->
<g id="edge8_Node000001_Node000009" class="edge">
<title>Node1&#45;&gt;Node9</title>
<g id="a_edge8_Node000001_Node000009"><a xlink:title=" ">
<path fill="none" stroke="#63b8ff" d="M659.29,-197.96C610.36,-187.3 550.52,-174.26 504.24,-164.17"/>
<polygon fill="#63b8ff" stroke="#63b8ff" points="504.79,-160.71 494.28,-162 503.3,-167.55 504.79,-160.71"/>
</a>
</g>
</g>
<!-- Node17 -->
<g id="Node000017" class="node">
<title>Node17</title>
<g id="a_Node000017"><a xlink:href="StructuralUnits_8h.html" target="_top" xlink:title="Defines physical units used in the simulation: DryMass, WetMass, and Length.">
<polygon fill="white" stroke="#666666" points="296.5,-162 129.5,-162 129.5,-132 296.5,-132 296.5,-162"/>
<text text-anchor="start" x="137.5" y="-150" font-family="Helvetica,sans-Serif" font-size="10.00">App/Model/IBM/Landscape</text>
<text text-anchor="middle" x="213" y="-139" font-family="Helvetica,sans-Serif" font-size="10.00">/LivingBeings/StructuralUnits.h</text>
</a>
</g>
</g>
<!-- Node1&#45;&gt;Node17 -->
<g id="edge26_Node000001_Node000017" class="edge">
<title>Node1&#45;&gt;Node17</title>
<g id="a_edge26_Node000001_Node000017"><a xlink:title=" ">
<path fill="none" stroke="#63b8ff" d="M656.86,-205.55C559.05,-192.87 405.29,-172.93 306.84,-160.17"/>
<polygon fill="#63b8ff" stroke="#63b8ff" points="307.26,-156.69 296.89,-158.88 306.36,-163.63 307.26,-156.69"/>
</a>
</g>
</g>
<!-- Node18 -->
<g id="Node000018" class="node">
<title>Node18</title>
<g id="a_Node000018"><a xlink:href="EnumClass_8h.html" target="_top" xlink:title="Template helper class for working with strongly&#45;typed enums.">
<polygon fill="white" stroke="#666666" points="1241.5,-156.5 1136.5,-156.5 1136.5,-137.5 1241.5,-137.5 1241.5,-156.5"/>
<text text-anchor="middle" x="1189" y="-144.5" font-family="Helvetica,sans-Serif" font-size="10.00">Misc/EnumClass.h</text>
</a>
</g>
</g>
<!-- Node1&#45;&gt;Node18 -->
<g id="edge34_Node000001_Node000018" class="edge">
<title>Node1&#45;&gt;Node18</title>
<g id="a_edge34_Node000001_Node000018"><a xlink:title=" ">
<path fill="none" stroke="#63b8ff" d="M841.24,-202.93C926.8,-189.42 1051.81,-169.67 1126.33,-157.9"/>
<polygon fill="#63b8ff" stroke="#63b8ff" points="1127.17,-161.31 1136.5,-156.29 1126.07,-154.4 1127.17,-161.31"/>
</a>
</g>
</g>
<!-- Node23 -->
<g id="Node000023" class="node">
<title>Node23</title>
<g id="a_Node000023"><a xlink:href="Temperature_8h.html" target="_top" xlink:title="Definition of the Temperature class and related operations.">
<polygon fill="white" stroke="#666666" points="814,-162 684,-162 684,-132 814,-132 814,-162"/>
<text text-anchor="start" x="692" y="-150" font-family="Helvetica,sans-Serif" font-size="10.00">App/Model/IBM/Physics</text>
<text text-anchor="middle" x="749" y="-139" font-family="Helvetica,sans-Serif" font-size="10.00">/Temperature.h</text>
</a>
</g>
</g>
<!-- Node1&#45;&gt;Node23 -->
<g id="edge42_Node000001_Node000023" class="edge">
<title>Node1&#45;&gt;Node23</title>
<g id="a_edge42_Node000001_Node000023"><a xlink:title=" ">
<path fill="none" stroke="#63b8ff" d="M749,-197.77C749,-189.85 749,-180.63 749,-172.3"/>
<polygon fill="#63b8ff" stroke="#63b8ff" points="752.5,-172.04 749,-162.04 745.5,-172.04 752.5,-172.04"/>
</a>
</g>
</g>
<!-- Node9&#45;&gt;Node2 -->
<g id="edge9_Node000009_Node000002" class="edge">
<title>Node9&#45;&gt;Node2</title>
<g id="a_edge9_Node000009_Node000002"><a xlink:title=" ">
<path fill="none" stroke="#63b8ff" d="M405.71,-131.84C365.58,-108.45 285.38,-61.69 240.1,-35.29"/>
<polygon fill="#63b8ff" stroke="#63b8ff" points="241.66,-32.15 231.26,-30.14 238.14,-38.2 241.66,-32.15"/>
</a>
</g>
</g>
<!-- Node9&#45;&gt;Node3 -->
<g id="edge10_Node000009_Node000003" class="edge">
<title>Node9&#45;&gt;Node3</title>
<g id="a_edge10_Node000009_Node000003"><a xlink:title=" ">
<path fill="none" stroke="#63b8ff" d="M483.19,-131.9C506.98,-123.9 534.46,-112.19 556,-96 576.69,-80.44 594.1,-56.3 605.15,-38.6"/>
<polygon fill="#63b8ff" stroke="#63b8ff" points="608.17,-40.38 610.34,-30.01 602.17,-36.77 608.17,-40.38"/>
</a>
</g>
</g>
<!-- Node9&#45;&gt;Node4 -->
<g id="edge11_Node000009_Node000004" class="edge">
<title>Node9&#45;&gt;Node4</title>
<g id="a_edge11_Node000009_Node000004"><a xlink:title=" ">
<path fill="none" stroke="#63b8ff" d="M473.77,-131.93C504.83,-121.93 547.48,-108.18 585,-96 651.43,-74.44 727.94,-49.43 777.54,-33.19"/>
<polygon fill="#63b8ff" stroke="#63b8ff" points="778.67,-36.5 787.09,-30.06 776.49,-29.85 778.67,-36.5"/>
</a>
</g>
</g>
<!-- Node9&#45;&gt;Node5 -->
<g id="edge12_Node000009_Node000005" class="edge">
<title>Node9&#45;&gt;Node5</title>
<g id="a_edge12_Node000009_Node000005"><a xlink:title=" ">
<path fill="none" stroke="#63b8ff" d="M357.28,-137.19C287.74,-128 188.38,-112.62 153,-96 123.12,-81.96 94.99,-56.09 77.22,-37.57"/>
<polygon fill="#63b8ff" stroke="#63b8ff" points="79.65,-35.05 70.26,-30.14 74.54,-39.83 79.65,-35.05"/>
</a>
</g>
</g>
<!-- Node10 -->
<g id="Node000010" class="node">
<title>Node10</title>
<g id="a_Node000010"><a xlink:title=" ">
<polygon fill="#e0e0e0" stroke="#999999" points="219.5,-90.5 162.5,-90.5 162.5,-71.5 219.5,-71.5 219.5,-90.5"/>
<text text-anchor="middle" x="191" y="-78.5" font-family="Helvetica,sans-Serif" font-size="10.00">ostream</text>
</a>
</g>
</g>
<!-- Node9&#45;&gt;Node10 -->
<g id="edge13_Node000009_Node000010" class="edge">
<title>Node9&#45;&gt;Node10</title>
<g id="a_edge13_Node000009_Node000010"><a xlink:title=" ">
<path fill="none" stroke="#63b8ff" d="M370.55,-131.9C331.55,-122.39 279.53,-109.2 234,-96 231.4,-95.25 228.73,-94.44 226.04,-93.62"/>
<polygon fill="#63b8ff" stroke="#63b8ff" points="226.97,-90.24 216.38,-90.57 224.86,-96.91 226.97,-90.24"/>
</a>
</g>
</g>
<!-- Node11 -->
<g id="Node000011" class="node">
<title>Node11</title>
<g id="a_Node000011"><a xlink:title=" ">
<polygon fill="#e0e0e0" stroke="#999999" points="324.5,-24.5 277.5,-24.5 277.5,-5.5 324.5,-5.5 324.5,-24.5"/>
<text text-anchor="middle" x="301" y="-12.5" font-family="Helvetica,sans-Serif" font-size="10.00">cmath</text>
</a>
</g>
</g>
<!-- Node9&#45;&gt;Node11 -->
<g id="edge14_Node000009_Node000011" class="edge">
<title>Node9&#45;&gt;Node11</title>
<g id="a_edge14_Node000009_Node000011"><a xlink:title=" ">
<path fill="none" stroke="#63b8ff" d="M415.95,-131.84C391.79,-107.49 342.53,-57.85 317.05,-32.18"/>
<polygon fill="#63b8ff" stroke="#63b8ff" points="319.21,-29.38 309.68,-24.75 314.24,-34.31 319.21,-29.38"/>
</a>
</g>
</g>
<!-- Node12 -->
<g id="Node000012" class="node">
<title>Node12</title>
<g id="a_Node000012"><a xlink:href="PreciseDouble_8h.html" target="_top" xlink:title="Defines the PreciseDouble class for safe and precise double&#45;precision arithmetic.">
<polygon fill="white" stroke="#666666" points="513.5,-96 390.5,-96 390.5,-66 513.5,-66 513.5,-96"/>
<text text-anchor="start" x="398.5" y="-84" font-family="Helvetica,sans-Serif" font-size="10.00">App/Model/IBM/Maths</text>
<text text-anchor="middle" x="452" y="-73" font-family="Helvetica,sans-Serif" font-size="10.00">/PreciseDouble.h</text>
</a>
</g>
</g>
<!-- Node9&#45;&gt;Node12 -->
<g id="edge15_Node000009_Node000012" class="edge">
<title>Node9&#45;&gt;Node12</title>
<g id="a_edge15_Node000009_Node000012"><a xlink:title=" ">
<path fill="none" stroke="#63b8ff" d="M434.88,-131.8C437.5,-124.17 440.8,-114.57 443.8,-105.84"/>
<polygon fill="#63b8ff" stroke="#63b8ff" points="447.19,-106.76 447.13,-96.16 440.57,-104.48 447.19,-106.76"/>
</a>
</g>
</g>
<!-- Node12&#45;&gt;Node2 -->
<g id="edge16_Node000012_Node000002" class="edge">
<title>Node12&#45;&gt;Node2</title>
<g id="a_edge16_Node000012_Node000002"><a xlink:title=" ">
<path fill="none" stroke="#63b8ff" d="M398.23,-65.95C360.32,-56.05 309.41,-42.75 269.65,-32.37"/>
<polygon fill="#63b8ff" stroke="#63b8ff" points="270.36,-28.93 259.8,-29.79 268.59,-35.71 270.36,-28.93"/>
</a>
</g>
</g>
<!-- Node12&#45;&gt;Node3 -->
<g id="edge17_Node000012_Node000003" class="edge">
<title>Node12&#45;&gt;Node3</title>
<g id="a_edge17_Node000012_Node000003"><a xlink:title=" ">
<path fill="none" stroke="#63b8ff" d="M488.43,-65.95C513.08,-56.45 545.83,-43.82 572.24,-33.64"/>
<polygon fill="#63b8ff" stroke="#63b8ff" points="573.58,-36.88 581.66,-30.01 571.07,-30.34 573.58,-36.88"/>
</a>
</g>
</g>
<!-- Node12&#45;&gt;Node4 -->
<g id="edge18_Node000012_Node000004" class="edge">
<title>Node12&#45;&gt;Node4</title>
<g id="a_edge18_Node000012_Node000004"><a xlink:title=" ">
<path fill="none" stroke="#63b8ff" d="M513.6,-70.87C574.05,-61.72 669.1,-46.86 761.68,-30.01"/>
<polygon fill="#63b8ff" stroke="#63b8ff" points="762.59,-33.4 771.79,-28.16 761.33,-26.51 762.59,-33.4"/>
</a>
</g>
</g>
<!-- Node12&#45;&gt;Node5 -->
<g id="edge19_Node000012_Node000005" class="edge">
<title>Node12&#45;&gt;Node5</title>
<g id="a_edge19_Node000012_Node000005"><a xlink:title=" ">
<path fill="none" stroke="#63b8ff" d="M390.44,-70C318.81,-58.37 200.89,-39.21 126.45,-27.12"/>
<polygon fill="#63b8ff" stroke="#63b8ff" points="126.67,-23.61 116.24,-25.46 125.55,-30.52 126.67,-23.61"/>
</a>
</g>
</g>
<!-- Node12&#45;&gt;Node6 -->
<g id="edge20_Node000012_Node000006" class="edge">
<title>Node12&#45;&gt;Node6</title>
<g id="a_edge20_Node000012_Node000006"><a xlink:title=" ">
<path fill="none" stroke="#63b8ff" d="M513.67,-75.55C687.35,-63.02 1176.39,-27.73 1306.74,-18.33"/>
<polygon fill="#63b8ff" stroke="#63b8ff" points="1307.14,-21.81 1316.87,-17.6 1306.64,-14.83 1307.14,-21.81"/>
</a>
</g>
</g>
<!-- Node12&#45;&gt;Node11 -->
<g id="edge21_Node000012_Node000011" class="edge">
<title>Node12&#45;&gt;Node11</title>
<g id="a_edge21_Node000012_Node000011"><a xlink:title=" ">
<path fill="none" stroke="#63b8ff" d="M418.86,-65.95C392.5,-54.78 355.94,-39.29 330.56,-28.53"/>
<polygon fill="#63b8ff" stroke="#63b8ff" points="331.67,-25.2 321.1,-24.52 328.94,-31.64 331.67,-25.2"/>
</a>
</g>
</g>
<!-- Node13 -->
<g id="Node000013" class="node">
<title>Node13</title>
<g id="a_Node000013"><a xlink:title=" ">
<polygon fill="#e0e0e0" stroke="#999999" points="469,-24.5 405,-24.5 405,-5.5 469,-5.5 469,-24.5"/>
<text text-anchor="middle" x="437" y="-12.5" font-family="Helvetica,sans-Serif" font-size="10.00">algorithm</text>
</a>
</g>
</g>
<!-- Node12&#45;&gt;Node13 -->
<g id="edge22_Node000012_Node000013" class="edge">
<title>Node12&#45;&gt;Node13</title>
<g id="a_edge22_Node000012_Node000013"><a xlink:title=" ">
<path fill="none" stroke="#63b8ff" d="M448.67,-65.8C446.54,-56.7 443.75,-44.79 441.43,-34.9"/>
<polygon fill="#63b8ff" stroke="#63b8ff" points="444.76,-33.78 439.07,-24.84 437.95,-35.38 444.76,-33.78"/>
</a>
</g>
</g>
<!-- Node14 -->
<g id="Node000014" class="node">
<title>Node14</title>
<g id="a_Node000014"><a xlink:title=" ">
<polygon fill="#e0e0e0" stroke="#999999" points="547,-24.5 487,-24.5 487,-5.5 547,-5.5 547,-24.5"/>
<text text-anchor="middle" x="517" y="-12.5" font-family="Helvetica,sans-Serif" font-size="10.00">iostream</text>
</a>
</g>
</g>
<!-- Node12&#45;&gt;Node14 -->
<g id="edge23_Node000012_Node000014" class="edge">
<title>Node12&#45;&gt;Node14</title>
<g id="a_edge23_Node000012_Node000014"><a xlink:title=" ">
<path fill="none" stroke="#63b8ff" d="M466.43,-65.8C476.56,-55.82 490.13,-42.46 500.66,-32.09"/>
<polygon fill="#63b8ff" stroke="#63b8ff" points="503.35,-34.35 508.02,-24.84 498.44,-29.37 503.35,-34.35"/>
</a>
</g>
</g>
<!-- Node15 -->
<g id="Node000015" class="node">
<title>Node15</title>
<g id="a_Node000015"><a xlink:title=" ">
<polygon fill="#e0e0e0" stroke="#999999" points="387,-24.5 343,-24.5 343,-5.5 387,-5.5 387,-24.5"/>
<text text-anchor="middle" x="365" y="-12.5" font-family="Helvetica,sans-Serif" font-size="10.00">limits</text>
</a>
</g>
</g>
<!-- Node12&#45;&gt;Node15 -->
<g id="edge24_Node000012_Node000015" class="edge">
<title>Node12&#45;&gt;Node15</title>
<g id="a_edge24_Node000012_Node000015"><a xlink:title=" ">
<path fill="none" stroke="#63b8ff" d="M432.69,-65.8C418.51,-55.37 399.31,-41.24 384.98,-30.69"/>
<polygon fill="#63b8ff" stroke="#63b8ff" points="386.9,-27.76 376.77,-24.66 382.75,-33.4 386.9,-27.76"/>
</a>
</g>
</g>
<!-- Node16 -->
<g id="Node000016" class="node">
<title>Node16</title>
<g id="a_Node000016"><a xlink:title=" ">
<polygon fill="#e0e0e0" stroke="#999999" points="753.5,-24.5 688.5,-24.5 688.5,-5.5 753.5,-5.5 753.5,-24.5"/>
<text text-anchor="middle" x="721" y="-12.5" font-family="Helvetica,sans-Serif" font-size="10.00">functional</text>
</a>
</g>
</g>
<!-- Node12&#45;&gt;Node16 -->
<g id="edge25_Node000012_Node000016" class="edge">
<title>Node12&#45;&gt;Node16</title>
<g id="a_edge25_Node000012_Node000016"><a xlink:title=" ">
<path fill="none" stroke="#63b8ff" d="M513.61,-68.25C559.51,-59.06 623.57,-45.3 679,-30 681.62,-29.28 684.31,-28.49 687.02,-27.66"/>
<polygon fill="#63b8ff" stroke="#63b8ff" points="688.24,-30.95 696.7,-24.58 686.11,-24.28 688.24,-30.95"/>
</a>
</g>
</g>
<!-- Node17&#45;&gt;Node2 -->
<g id="edge27_Node000017_Node000002" class="edge">
<title>Node17&#45;&gt;Node2</title>
<g id="a_edge27_Node000017_Node000002"><a xlink:title=" ">
<path fill="none" stroke="#63b8ff" d="M164.9,-131.8C147.63,-124.12 129.97,-112.68 120,-96 113.16,-84.56 113.32,-77.54 120,-66 127.87,-52.39 141.01,-42.17 154.71,-34.63"/>
<polygon fill="#63b8ff" stroke="#63b8ff" points="156.41,-37.69 163.75,-30.05 153.25,-31.45 156.41,-37.69"/>
</a>
</g>
</g>
<!-- Node17&#45;&gt;Node3 -->
<g id="edge28_Node000017_Node000003" class="edge">
<title>Node17&#45;&gt;Node3</title>
<g id="a_edge28_Node000017_Node000003"><a xlink:title=" ">
<path fill="none" stroke="#63b8ff" d="M296.64,-137.5C374.04,-128.72 482.87,-113.83 522,-96 538.07,-88.68 572.53,-58.31 595.48,-37.18"/>
<polygon fill="#63b8ff" stroke="#63b8ff" points="598.12,-39.5 603.08,-30.14 593.36,-34.37 598.12,-39.5"/>
</a>
</g>
</g>
<!-- Node17&#45;&gt;Node4 -->
<g id="edge29_Node000017_Node000004" class="edge">
<title>Node17&#45;&gt;Node4</title>
<g id="a_edge29_Node000017_Node000004"><a xlink:title=" ">
<path fill="none" stroke="#63b8ff" d="M296.83,-136.08C390.65,-124.62 532.65,-106.05 556,-96 575.76,-87.49 574.52,-75.14 594,-66 597.89,-64.18 693.58,-44.19 761.9,-30.04"/>
<polygon fill="#63b8ff" stroke="#63b8ff" points="762.68,-33.45 771.76,-28 761.26,-26.6 762.68,-33.45"/>
</a>
</g>
</g>
<!-- Node17&#45;&gt;Node5 -->
<g id="edge30_Node000017_Node000005" class="edge">
<title>Node17&#45;&gt;Node5</title>
<g id="a_edge30_Node000017_Node000005"><a xlink:title=" ">
<path fill="none" stroke="#63b8ff" d="M133.6,-131.95C95.36,-123.4 55.35,-111.2 44,-96 31.94,-79.85 37.71,-56.79 45.16,-39.58"/>
<polygon fill="#63b8ff" stroke="#63b8ff" points="48.48,-40.75 49.62,-30.21 42.16,-37.74 48.48,-40.75"/>
</a>
</g>
</g>
<!-- Node17&#45;&gt;Node10 -->
<g id="edge31_Node000017_Node000010" class="edge">
<title>Node17&#45;&gt;Node10</title>
<g id="a_edge31_Node000017_Node000010"><a xlink:title=" ">
<path fill="none" stroke="#63b8ff" d="M208.12,-131.8C204.96,-122.6 200.81,-110.53 197.39,-100.58"/>
<polygon fill="#63b8ff" stroke="#63b8ff" points="200.6,-99.16 194.04,-90.84 193.98,-101.44 200.6,-99.16"/>
</a>
</g>
</g>
<!-- Node17&#45;&gt;Node11 -->
<g id="edge32_Node000017_Node000011" class="edge">
<title>Node17&#45;&gt;Node11</title>
<g id="a_edge32_Node000017_Node000011"><a xlink:title=" ">
<path fill="none" stroke="#63b8ff" d="M189.64,-131.9C166.23,-115.97 135.93,-89.22 153,-66 184.71,-22.84 217.73,-48.48 268,-30 269.39,-29.49 270.8,-28.95 272.22,-28.4"/>
<polygon fill="#63b8ff" stroke="#63b8ff" points="273.63,-31.61 281.58,-24.61 271,-25.12 273.63,-31.61"/>
</a>
</g>
</g>
<!-- Node17&#45;&gt;Node12 -->
<g id="edge33_Node000017_Node000012" class="edge">
<title>Node17&#45;&gt;Node12</title>
<g id="a_edge33_Node000017_Node000012"><a xlink:title=" ">
<path fill="none" stroke="#63b8ff" d="M265.45,-131.95C302.03,-122.16 351,-109.05 389.59,-98.71"/>
<polygon fill="#63b8ff" stroke="#63b8ff" points="390.92,-101.98 399.67,-96.01 389.11,-95.22 390.92,-101.98"/>
</a>
</g>
</g>
<!-- Node18&#45;&gt;Node6 -->
<g id="edge36_Node000018_Node000006" class="edge">
<title>Node18&#45;&gt;Node6</title>
<g id="a_edge36_Node000018_Node000006"><a xlink:title=" ">
<path fill="none" stroke="#63b8ff" d="M1193.31,-137.3C1201.51,-121.43 1220.75,-87.46 1245,-66 1263.35,-49.76 1287.91,-36.93 1307.33,-28.33"/>
<polygon fill="#63b8ff" stroke="#63b8ff" points="1308.85,-31.49 1316.67,-24.34 1306.1,-25.05 1308.85,-31.49"/>
</a>
</g>
</g>
<!-- Node18&#45;&gt;Node7 -->
<g id="edge35_Node000018_Node000007" class="edge">
<title>Node18&#45;&gt;Node7</title>
<g id="a_edge35_Node000018_Node000007"><a xlink:title=" ">
<path fill="none" stroke="#63b8ff" d="M1171.47,-137.37C1149.47,-126.54 1111.51,-107.85 1085.85,-95.22"/>
<polygon fill="#63b8ff" stroke="#63b8ff" points="1087.19,-91.98 1076.67,-90.7 1084.1,-98.26 1087.19,-91.98"/>
</a>
</g>
</g>
<!-- Node19 -->
<g id="Node000019" class="node">
<title>Node19</title>
<g id="a_Node000019"><a xlink:title=" ">
<polygon fill="#e0e0e0" stroke="#999999" points="1198.5,-90.5 1105.5,-90.5 1105.5,-71.5 1198.5,-71.5 1198.5,-90.5"/>
<text text-anchor="middle" x="1152" y="-78.5" font-family="Helvetica,sans-Serif" font-size="10.00">unordered_map</text>
</a>
</g>
</g>
<!-- Node18&#45;&gt;Node19 -->
<g id="edge37_Node000018_Node000019" class="edge">
<title>Node18&#45;&gt;Node19</title>
<g id="a_edge37_Node000018_Node000019"><a xlink:title=" ">
<path fill="none" stroke="#63b8ff" d="M1184.01,-137.37C1178.47,-127.78 1169.37,-112.05 1162.29,-99.8"/>
<polygon fill="#63b8ff" stroke="#63b8ff" points="1165.18,-97.81 1157.15,-90.91 1159.12,-101.31 1165.18,-97.81"/>
</a>
</g>
</g>
<!-- Node20 -->
<g id="Node000020" class="node">
<title>Node20</title>
<g id="a_Node000020"><a xlink:title=" ">
<polygon fill="#e0e0e0" stroke="#999999" points="1421.5,-90.5 1254.5,-90.5 1254.5,-71.5 1421.5,-71.5 1421.5,-90.5"/>
<text text-anchor="middle" x="1338" y="-78.5" font-family="Helvetica,sans-Serif" font-size="10.00">magic_enum/magic_enum.hpp</text>
</a>
</g>
</g>
<!-- Node18&#45;&gt;Node20 -->
<g id="edge38_Node000018_Node000020" class="edge">
<title>Node18&#45;&gt;Node20</title>
<g id="a_edge38_Node000018_Node000020"><a xlink:title=" ">
<path fill="none" stroke="#63b8ff" d="M1209.09,-137.37C1234.64,-126.39 1278.96,-107.36 1308.39,-94.72"/>
<polygon fill="#63b8ff" stroke="#63b8ff" points="1309.94,-97.86 1317.75,-90.7 1307.18,-91.43 1309.94,-97.86"/>
</a>
</g>
</g>
<!-- Node21 -->
<g id="Node000021" class="node">
<title>Node21</title>
<g id="a_Node000021"><a xlink:href="LineInfoException_8h.html" target="_top" xlink:title="Exception class with detailed file and line information for error reporting.">
<polygon fill="white" stroke="#666666" points="1608.5,-90.5 1439.5,-90.5 1439.5,-71.5 1608.5,-71.5 1608.5,-90.5"/>
<text text-anchor="middle" x="1524" y="-78.5" font-family="Helvetica,sans-Serif" font-size="10.00">Exceptions/LineInfoException.h</text>
</a>
</g>
</g>
<!-- Node18&#45;&gt;Node21 -->
<g id="edge39_Node000018_Node000021" class="edge">
<title>Node18&#45;&gt;Node21</title>
<g id="a_edge39_Node000018_Node000021"><a xlink:title=" ">
<path fill="none" stroke="#63b8ff" d="M1233.83,-137.44C1294.76,-125.8 1403.61,-105 1469.28,-92.45"/>
<polygon fill="#63b8ff" stroke="#63b8ff" points="1470.27,-95.83 1479.43,-90.51 1468.95,-88.95 1470.27,-95.83"/>
</a>
</g>
</g>
<!-- Node21&#45;&gt;Node6 -->
<g id="edge41_Node000021_Node000006" class="edge">
<title>Node21&#45;&gt;Node6</title>
<g id="a_edge41_Node000021_Node000006"><a xlink:title=" ">
<path fill="none" stroke="#63b8ff" d="M1499.05,-71.37C1465.87,-59.89 1407.21,-39.6 1370.87,-27.02"/>
<polygon fill="#63b8ff" stroke="#63b8ff" points="1371.84,-23.66 1361.25,-23.7 1369.55,-30.27 1371.84,-23.66"/>
</a>
</g>
</g>
<!-- Node22 -->
<g id="Node000022" class="node">
<title>Node22</title>
<g id="a_Node000022"><a xlink:title=" ">
<polygon fill="#e0e0e0" stroke="#999999" points="1556.5,-24.5 1491.5,-24.5 1491.5,-5.5 1556.5,-5.5 1556.5,-24.5"/>
<text text-anchor="middle" x="1524" y="-12.5" font-family="Helvetica,sans-Serif" font-size="10.00">exception</text>
</a>
</g>
</g>
<!-- Node21&#45;&gt;Node22 -->
<g id="edge40_Node000021_Node000022" class="edge">
<title>Node21&#45;&gt;Node22</title>
<g id="a_edge40_Node000021_Node000022"><a xlink:title=" ">
<path fill="none" stroke="#63b8ff" d="M1524,-71.37C1524,-62.16 1524,-47.29 1524,-35.27"/>
<polygon fill="#63b8ff" stroke="#63b8ff" points="1527.5,-34.91 1524,-24.91 1520.5,-34.91 1527.5,-34.91"/>
</a>
</g>
</g>
<!-- Node23&#45;&gt;Node2 -->
<g id="edge43_Node000023_Node000002" class="edge">
<title>Node23&#45;&gt;Node2</title>
<g id="a_edge43_Node000023_Node000002"><a xlink:title=" ">
<path fill="none" stroke="#63b8ff" d="M683.98,-142.97C609.49,-138.18 484.39,-126.07 381,-96 329.93,-81.15 274.75,-53.62 240.53,-35.06"/>
<polygon fill="#63b8ff" stroke="#63b8ff" points="241.91,-31.82 231.46,-30.08 238.54,-37.96 241.91,-31.82"/>
</a>
</g>
</g>
<!-- Node23&#45;&gt;Node3 -->
<g id="edge44_Node000023_Node000003" class="edge">
<title>Node23&#45;&gt;Node3</title>
<g id="a_edge44_Node000023_Node000003"><a xlink:title=" ">
<path fill="none" stroke="#63b8ff" d="M735.12,-131.73C719.43,-115.64 693.06,-88.76 670,-66 660.39,-56.52 649.65,-46.15 640.44,-37.33"/>
<polygon fill="#63b8ff" stroke="#63b8ff" points="642.77,-34.72 633.12,-30.34 637.93,-39.78 642.77,-34.72"/>
</a>
</g>
</g>
<!-- Node23&#45;&gt;Node4 -->
<g id="edge45_Node000023_Node000004" class="edge">
<title>Node23&#45;&gt;Node4</title>
<g id="a_edge45_Node000023_Node000004"><a xlink:title=" ">
<path fill="none" stroke="#63b8ff" d="M754.9,-131.9C762.02,-115.5 774.81,-87.89 789,-66 795.29,-56.29 803.17,-46.3 810.32,-37.82"/>
<polygon fill="#63b8ff" stroke="#63b8ff" points="813,-40.07 816.89,-30.22 807.71,-35.49 813,-40.07"/>
</a>
</g>
</g>
<!-- Node23&#45;&gt;Node5 -->
<g id="edge46_Node000023_Node000005" class="edge">
<title>Node23&#45;&gt;Node5</title>
<g id="a_edge46_Node000023_Node000005"><a xlink:title=" ">
<path fill="none" stroke="#63b8ff" d="M683.78,-141.03C577.3,-132.52 370.91,-114.32 300,-96 266.44,-87.33 260.68,-77.57 228,-66 193.05,-53.62 153.32,-41.81 121.07,-32.79"/>
<polygon fill="#63b8ff" stroke="#63b8ff" points="121.88,-29.38 111.31,-30.07 120.01,-36.12 121.88,-29.38"/>
</a>
</g>
</g>
<!-- Node23&#45;&gt;Node12 -->
<g id="edge50_Node000023_Node000012" class="edge">
<title>Node23&#45;&gt;Node12</title>
<g id="a_edge50_Node000023_Node000012"><a xlink:title=" ">
<path fill="none" stroke="#63b8ff" d="M683.82,-131.95C636.46,-121.75 572.37,-107.94 523.58,-97.43"/>
<polygon fill="#63b8ff" stroke="#63b8ff" points="524.24,-93.99 513.73,-95.3 522.76,-100.83 524.24,-93.99"/>
</a>
</g>
</g>
<!-- Node23&#45;&gt;Node16 -->
<g id="edge48_Node000023_Node000016" class="edge">
<title>Node23&#45;&gt;Node16</title>
<g id="a_edge48_Node000023_Node000016"><a xlink:title=" ">
<path fill="none" stroke="#63b8ff" d="M814.13,-133.49C867.91,-122.5 936.73,-106.64 945,-96 953.18,-85.47 953.46,-76.3 945,-66 892.66,-2.29 842.72,-51.08 763,-30 760.21,-29.26 757.34,-28.44 754.47,-27.58"/>
<polygon fill="#63b8ff" stroke="#63b8ff" points="755.42,-24.21 744.83,-24.52 753.31,-30.88 755.42,-24.21"/>
</a>
</g>
</g>
<!-- Node24 -->
<g id="Node000024" class="node">
<title>Node24</title>
<g id="a_Node000024"><a xlink:title=" ">
<polygon fill="#e0e0e0" stroke="#999999" points="853.5,-90.5 798.5,-90.5 798.5,-71.5 853.5,-71.5 853.5,-90.5"/>
<text text-anchor="middle" x="826" y="-78.5" font-family="Helvetica,sans-Serif" font-size="10.00">fstream</text>
</a>
</g>
</g>
<!-- Node23&#45;&gt;Node24 -->
<g id="edge47_Node000023_Node000024" class="edge">
<title>Node23&#45;&gt;Node24</title>
<g id="a_edge47_Node000023_Node000024"><a xlink:title=" ">
<path fill="none" stroke="#63b8ff" d="M766.09,-131.8C778.33,-121.62 794.8,-107.93 807.38,-97.48"/>
<polygon fill="#63b8ff" stroke="#63b8ff" points="809.91,-99.93 815.36,-90.84 805.43,-94.54 809.91,-99.93"/>
</a>
</g>
</g>
<!-- Node25 -->
<g id="Node000025" class="node">
<title>Node25</title>
<g id="a_Node000025"><a xlink:title=" ">
<polygon fill="#e0e0e0" stroke="#999999" points="936.5,-90.5 871.5,-90.5 871.5,-71.5 936.5,-71.5 936.5,-90.5"/>
<text text-anchor="middle" x="904" y="-78.5" font-family="Helvetica,sans-Serif" font-size="10.00">stdexcept</text>
</a>
</g>
</g>
<!-- Node23&#45;&gt;Node25 -->
<g id="edge49_Node000023_Node000025" class="edge">
<title>Node23&#45;&gt;Node25</title>
<g id="a_edge49_Node000023_Node000025"><a xlink:title=" ">
<path fill="none" stroke="#63b8ff" d="M783.02,-131.95C810.2,-120.73 847.93,-105.15 874,-94.39"/>
<polygon fill="#63b8ff" stroke="#63b8ff" points="875.46,-97.57 883.37,-90.52 872.79,-91.1 875.46,-97.57"/>
</a>
</g>
</g>
</g>
</svg>
