<?xml version="1.0" encoding="UTF-8" standalone="no"?>
<!DOCTYPE svg PUBLIC "-//W3C//DTD SVG 1.1//EN"
 "http://www.w3.org/Graphics/SVG/1.1/DTD/svg11.dtd">
<!-- Generated by graphviz version 2.43.0 (0)
 -->
<!-- Title: /home/runner/work/Weaver/Weaver/include/App/Model/IBM/Landscape/LivingBeings/Animals/Genetics/Genome.h Pages: 1 -->
<svg width="1598pt" height="555pt"
 viewBox="0.00 0.00 1598.00 555.00" xmlns="http://www.w3.org/2000/svg" xmlns:xlink="http://www.w3.org/1999/xlink">
<g id="graph0" class="graph" transform="scale(1 1) rotate(0) translate(4 551)">
<title>/home/runner/work/Weaver/Weaver/include/App/Model/IBM/Landscape/LivingBeings/Animals/Genetics/Genome.h</title>
<!-- Node1 -->
<g id="Node000001" class="node">
<title>Node1</title>
<g id="a_Node000001"><a xlink:title="Defines the Genome class representing a diploid genome with homologous chromosomes and correlosomes.">
<polygon fill="#999999" stroke="#666666" points="1006.5,-547 848.5,-547 848.5,-495 1006.5,-495 1006.5,-547"/>
<text text-anchor="start" x="856.5" y="-535" font-family="Helvetica,sans-Serif" font-size="10.00">/home/runner/work/Weaver</text>
<text text-anchor="start" x="856.5" y="-524" font-family="Helvetica,sans-Serif" font-size="10.00">/Weaver/include/App/Model</text>
<text text-anchor="start" x="856.5" y="-513" font-family="Helvetica,sans-Serif" font-size="10.00">/IBM/Landscape/LivingBeings</text>
<text text-anchor="middle" x="927.5" y="-502" font-family="Helvetica,sans-Serif" font-size="10.00">/Animals/Genetics/Genome.h</text>
</a>
</g>
</g>
<!-- Node2 -->
<g id="Node000002" class="node">
<title>Node2</title>
<g id="a_Node000002"><a xlink:title=" ">
<polygon fill="#e0e0e0" stroke="#999999" points="1339,-228 1232,-228 1232,-198 1339,-198 1339,-228"/>
<text text-anchor="start" x="1240" y="-216" font-family="Helvetica,sans-Serif" font-size="10.00">boost/serialization</text>
<text text-anchor="middle" x="1285.5" y="-205" font-family="Helvetica,sans-Serif" font-size="10.00">/export.hpp</text>
</a>
</g>
</g>
<!-- Node1&#45;&gt;Node2 -->
<g id="edge1_Node000001_Node000002" class="edge">
<title>Node1&#45;&gt;Node2</title>
<g id="a_edge1_Node000001_Node000002"><a xlink:title=" ">
<path fill="none" stroke="#63b8ff" d="M1006.89,-505.9C1116.97,-484.44 1306.53,-439.88 1342.5,-382 1372.03,-334.49 1330.98,-269.84 1304.62,-236.28"/>
<polygon fill="#63b8ff" stroke="#63b8ff" points="1307.3,-234.02 1298.29,-228.45 1301.86,-238.42 1307.3,-234.02"/>
</a>
</g>
</g>
<!-- Node3 -->
<g id="Node000003" class="node">
<title>Node3</title>
<g id="a_Node000003"><a xlink:title=" ">
<polygon fill="#e0e0e0" stroke="#999999" points="988,-299.5 881,-299.5 881,-269.5 988,-269.5 988,-299.5"/>
<text text-anchor="start" x="889" y="-287.5" font-family="Helvetica,sans-Serif" font-size="10.00">boost/serialization</text>
<text text-anchor="middle" x="934.5" y="-276.5" font-family="Helvetica,sans-Serif" font-size="10.00">/vector.hpp</text>
</a>
</g>
</g>
<!-- Node1&#45;&gt;Node3 -->
<g id="edge2_Node000001_Node000003" class="edge">
<title>Node1&#45;&gt;Node3</title>
<g id="a_edge2_Node000001_Node000003"><a xlink:title=" ">
<path fill="none" stroke="#63b8ff" d="M903.04,-494.72C872.01,-459.44 825.67,-393.8 853.5,-341 861.66,-325.51 876.31,-313.52 890.92,-304.71"/>
<polygon fill="#63b8ff" stroke="#63b8ff" points="892.96,-307.58 899.96,-299.64 889.53,-301.48 892.96,-307.58"/>
</a>
</g>
</g>
<!-- Node4 -->
<g id="Node000004" class="node">
<title>Node4</title>
<g id="a_Node000004"><a xlink:title=" ">
<polygon fill="#e0e0e0" stroke="#999999" points="805,-453.5 698,-453.5 698,-423.5 805,-423.5 805,-453.5"/>
<text text-anchor="start" x="706" y="-441.5" font-family="Helvetica,sans-Serif" font-size="10.00">boost/serialization</text>
<text text-anchor="middle" x="751.5" y="-430.5" font-family="Helvetica,sans-Serif" font-size="10.00">/utility.hpp</text>
</a>
</g>
</g>
<!-- Node1&#45;&gt;Node4 -->
<g id="edge3_Node000001_Node000004" class="edge">
<title>Node1&#45;&gt;Node4</title>
<g id="a_edge3_Node000001_Node000004"><a xlink:title=" ">
<path fill="none" stroke="#63b8ff" d="M872.78,-494.97C846.5,-482.95 815.57,-468.81 791.53,-457.81"/>
<polygon fill="#63b8ff" stroke="#63b8ff" points="792.9,-454.59 782.35,-453.61 789.99,-460.95 792.9,-454.59"/>
</a>
</g>
</g>
<!-- Node5 -->
<g id="Node000005" class="node">
<title>Node5</title>
<g id="a_Node000005"><a xlink:href="Locus_8h.html" target="_top" xlink:title="Defines the Locus class, representing a genetic locus containing multiple alleles.">
<polygon fill="white" stroke="#666666" points="1007,-382 862,-382 862,-341 1007,-341 1007,-382"/>
<text text-anchor="start" x="870" y="-370" font-family="Helvetica,sans-Serif" font-size="10.00">App/Model/IBM/Landscape</text>
<text text-anchor="start" x="870" y="-359" font-family="Helvetica,sans-Serif" font-size="10.00">/LivingBeings/Animals</text>
<text text-anchor="middle" x="934.5" y="-348" font-family="Helvetica,sans-Serif" font-size="10.00">/Species/Genetics/Locus.h</text>
</a>
</g>
</g>
<!-- Node1&#45;&gt;Node5 -->
<g id="edge4_Node000001_Node000005" class="edge">
<title>Node1&#45;&gt;Node5</title>
<g id="a_edge4_Node000001_Node000005"><a xlink:title=" ">
<path fill="none" stroke="#63b8ff" d="M928.62,-494.69C929.86,-466.81 931.86,-422.01 933.17,-392.41"/>
<polygon fill="#63b8ff" stroke="#63b8ff" points="936.67,-392.4 933.62,-382.26 929.68,-392.09 936.67,-392.4"/>
</a>
</g>
</g>
<!-- Node9 -->
<g id="Node000009" class="node">
<title>Node9</title>
<g id="a_Node000009"><a xlink:href="Random_8h.html" target="_top" xlink:title="Defines the Random class that provides various random number generation utilities.">
<polygon fill="white" stroke="#666666" points="702,-228 579,-228 579,-198 702,-198 702,-228"/>
<text text-anchor="start" x="587" y="-216" font-family="Helvetica,sans-Serif" font-size="10.00">App/Model/IBM/Maths</text>
<text text-anchor="middle" x="640.5" y="-205" font-family="Helvetica,sans-Serif" font-size="10.00">/Random.h</text>
</a>
</g>
</g>
<!-- Node1&#45;&gt;Node9 -->
<g id="edge65_Node000001_Node000009" class="edge">
<title>Node1&#45;&gt;Node9</title>
<g id="a_edge65_Node000001_Node000009"><a xlink:title=" ">
<path fill="none" stroke="#63b8ff" d="M848.37,-508.92C787.88,-498.83 711.29,-481.99 689.5,-459 631.22,-397.52 633.34,-287.27 637.63,-238.43"/>
<polygon fill="#63b8ff" stroke="#63b8ff" points="641.14,-238.48 638.64,-228.19 634.17,-237.79 641.14,-238.48"/>
</a>
</g>
</g>
<!-- Node19 -->
<g id="Node000019" class="node">
<title>Node19</title>
<g id="a_Node000019"><a xlink:href="LineInfoException_8h.html" target="_top" xlink:title="Exception class with detailed file and line information for error reporting.">
<polygon fill="white" stroke="#666666" points="169,-156.5 0,-156.5 0,-137.5 169,-137.5 169,-156.5"/>
<text text-anchor="middle" x="84.5" y="-144.5" font-family="Helvetica,sans-Serif" font-size="10.00">Exceptions/LineInfoException.h</text>
</a>
</g>
</g>
<!-- Node1&#45;&gt;Node19 -->
<g id="edge66_Node000001_Node000019" class="edge">
<title>Node1&#45;&gt;Node19</title>
<g id="a_edge66_Node000001_Node000019"><a xlink:title=" ">
<path fill="none" stroke="#63b8ff" d="M848.3,-516.22C682.59,-506.14 314.5,-471.49 314.5,-362.5 314.5,-362.5 314.5,-362.5 314.5,-283.5 314.5,-207.63 220.45,-173.39 152.64,-158.55"/>
<polygon fill="#63b8ff" stroke="#63b8ff" points="153.34,-155.13 142.84,-156.5 151.91,-161.98 153.34,-155.13"/>
</a>
</g>
</g>
<!-- Node36 -->
<g id="Node000036" class="node">
<title>Node36</title>
<g id="a_Node000036"><a xlink:href="Chromosome_8h.html" target="_top" xlink:title="Defines the Chromosome class used in the genetic model.">
<polygon fill="white" stroke="#666666" points="1170,-382 1025,-382 1025,-341 1170,-341 1170,-382"/>
<text text-anchor="start" x="1033" y="-370" font-family="Helvetica,sans-Serif" font-size="10.00">App/Model/IBM/Landscape</text>
<text text-anchor="start" x="1033" y="-359" font-family="Helvetica,sans-Serif" font-size="10.00">/LivingBeings/Animals</text>
<text text-anchor="middle" x="1097.5" y="-348" font-family="Helvetica,sans-Serif" font-size="10.00">/Genetics/Chromosome.h</text>
</a>
</g>
</g>
<!-- Node1&#45;&gt;Node36 -->
<g id="edge52_Node000001_Node000036" class="edge">
<title>Node1&#45;&gt;Node36</title>
<g id="a_edge52_Node000001_Node000036"><a xlink:title=" ">
<path fill="none" stroke="#63b8ff" d="M938.06,-494.68C948.45,-472.24 966.14,-439.75 989.5,-418 1003.1,-405.33 1020.15,-394.81 1036.65,-386.45"/>
<polygon fill="#63b8ff" stroke="#63b8ff" points="1038.27,-389.56 1045.74,-382.03 1035.21,-383.26 1038.27,-389.56"/>
</a>
</g>
</g>
<!-- Node37 -->
<g id="Node000037" class="node">
<title>Node37</title>
<g id="a_Node000037"><a xlink:href="Correlosome_8h.html" target="_top" xlink:title="Defines the Correlosome class used in the genetic model.">
<polygon fill="white" stroke="#666666" points="1333,-382 1188,-382 1188,-341 1333,-341 1333,-382"/>
<text text-anchor="start" x="1196" y="-370" font-family="Helvetica,sans-Serif" font-size="10.00">App/Model/IBM/Landscape</text>
<text text-anchor="start" x="1196" y="-359" font-family="Helvetica,sans-Serif" font-size="10.00">/LivingBeings/Animals</text>
<text text-anchor="middle" x="1260.5" y="-348" font-family="Helvetica,sans-Serif" font-size="10.00">/Genetics/Correlosome.h</text>
</a>
</g>
</g>
<!-- Node1&#45;&gt;Node37 -->
<g id="edge58_Node000001_Node000037" class="edge">
<title>Node1&#45;&gt;Node37</title>
<g id="a_edge58_Node000001_Node000037"><a xlink:title=" ">
<path fill="none" stroke="#63b8ff" d="M952.1,-494.96C962.76,-484.01 975.34,-470.95 986.5,-459 1003.26,-441.06 1002.34,-430.44 1023.5,-418 1082.08,-383.54 1107.89,-396.96 1177.53,-382.33"/>
<polygon fill="#63b8ff" stroke="#63b8ff" points="1178.65,-385.67 1187.65,-380.07 1177.13,-378.83 1178.65,-385.67"/>
</a>
</g>
</g>
<!-- Node38 -->
<g id="Node000038" class="node">
<title>Node38</title>
<g id="a_Node000038"><a xlink:href="Gamete_8h.html" target="_top" xlink:title="Defines the Gamete class used in the genetic model.">
<polygon fill="white" stroke="#666666" points="1177,-459 1032,-459 1032,-418 1177,-418 1177,-459"/>
<text text-anchor="start" x="1040" y="-447" font-family="Helvetica,sans-Serif" font-size="10.00">App/Model/IBM/Landscape</text>
<text text-anchor="start" x="1040" y="-436" font-family="Helvetica,sans-Serif" font-size="10.00">/LivingBeings/Animals</text>
<text text-anchor="middle" x="1104.5" y="-425" font-family="Helvetica,sans-Serif" font-size="10.00">/Genetics/Gamete.h</text>
</a>
</g>
</g>
<!-- Node1&#45;&gt;Node38 -->
<g id="edge62_Node000001_Node000038" class="edge">
<title>Node1&#45;&gt;Node38</title>
<g id="a_edge62_Node000001_Node000038"><a xlink:title=" ">
<path fill="none" stroke="#63b8ff" d="M982.53,-494.97C1004.82,-484.83 1030.43,-473.19 1052.41,-463.19"/>
<polygon fill="#63b8ff" stroke="#63b8ff" points="1053.93,-466.34 1061.59,-459.02 1051.04,-459.97 1053.93,-466.34"/>
</a>
</g>
</g>
<!-- Node5&#45;&gt;Node3 -->
<g id="edge6_Node000005_Node000003" class="edge">
<title>Node5&#45;&gt;Node3</title>
<g id="a_edge6_Node000005_Node000003"><a xlink:title=" ">
<path fill="none" stroke="#63b8ff" d="M934.5,-340.79C934.5,-331.36 934.5,-319.97 934.5,-309.99"/>
<polygon fill="#63b8ff" stroke="#63b8ff" points="938,-309.86 934.5,-299.86 931,-309.86 938,-309.86"/>
</a>
</g>
</g>
<!-- Node6 -->
<g id="Node000006" class="node">
<title>Node6</title>
<g id="a_Node000006"><a xlink:title=" ">
<polygon fill="#e0e0e0" stroke="#999999" points="1214,-156.5 1167,-156.5 1167,-137.5 1214,-137.5 1214,-156.5"/>
<text text-anchor="middle" x="1190.5" y="-144.5" font-family="Helvetica,sans-Serif" font-size="10.00">vector</text>
</a>
</g>
</g>
<!-- Node5&#45;&gt;Node6 -->
<g id="edge5_Node000005_Node000006" class="edge">
<title>Node5&#45;&gt;Node6</title>
<g id="a_edge5_Node000005_Node000006"><a xlink:title=" ">
<path fill="none" stroke="#63b8ff" d="M956.81,-340.9C1004.38,-299.14 1112.13,-204.62 1120.5,-198 1136.35,-185.46 1155.01,-172.2 1169.08,-162.49"/>
<polygon fill="#63b8ff" stroke="#63b8ff" points="1171.31,-165.21 1177.58,-156.67 1167.35,-159.43 1171.31,-165.21"/>
</a>
</g>
</g>
<!-- Node7 -->
<g id="Node000007" class="node">
<title>Node7</title>
<g id="a_Node000007"><a xlink:href="Allele_8h.html" target="_top" xlink:title="Defines the Allele class, representing a genetic allele with a unique identifier, a numerical value,...">
<polygon fill="white" stroke="#666666" points="1260,-305 1115,-305 1115,-264 1260,-264 1260,-305"/>
<text text-anchor="start" x="1123" y="-293" font-family="Helvetica,sans-Serif" font-size="10.00">App/Model/IBM/Landscape</text>
<text text-anchor="start" x="1123" y="-282" font-family="Helvetica,sans-Serif" font-size="10.00">/LivingBeings/Animals</text>
<text text-anchor="middle" x="1187.5" y="-271" font-family="Helvetica,sans-Serif" font-size="10.00">/Species/Genetics/Allele.h</text>
</a>
</g>
</g>
<!-- Node5&#45;&gt;Node7 -->
<g id="edge7_Node000005_Node000007" class="edge">
<title>Node5&#45;&gt;Node7</title>
<g id="a_edge7_Node000005_Node000007"><a xlink:title=" ">
<path fill="none" stroke="#63b8ff" d="M1000.31,-340.99C1034.44,-330.87 1076.29,-318.47 1111.76,-307.95"/>
<polygon fill="#63b8ff" stroke="#63b8ff" points="1112.99,-311.24 1121.58,-305.04 1111,-304.53 1112.99,-311.24"/>
</a>
</g>
</g>
<!-- Node7&#45;&gt;Node2 -->
<g id="edge8_Node000007_Node000002" class="edge">
<title>Node7&#45;&gt;Node2</title>
<g id="a_edge8_Node000007_Node000002"><a xlink:title=" ">
<path fill="none" stroke="#63b8ff" d="M1215.06,-263.96C1228.25,-254.6 1244.02,-243.42 1257.29,-234.01"/>
<polygon fill="#63b8ff" stroke="#63b8ff" points="1259.47,-236.75 1265.6,-228.11 1255.42,-231.04 1259.47,-236.75"/>
</a>
</g>
</g>
<!-- Node8 -->
<g id="Node000008" class="node">
<title>Node8</title>
<g id="a_Node000008"><a xlink:title=" ">
<polygon fill="#e0e0e0" stroke="#999999" points="1434,-90.5 1377,-90.5 1377,-71.5 1434,-71.5 1434,-90.5"/>
<text text-anchor="middle" x="1405.5" y="-78.5" font-family="Helvetica,sans-Serif" font-size="10.00">ostream</text>
</a>
</g>
</g>
<!-- Node7&#45;&gt;Node8 -->
<g id="edge9_Node000007_Node000008" class="edge">
<title>Node7&#45;&gt;Node8</title>
<g id="a_edge9_Node000007_Node000008"><a xlink:title=" ">
<path fill="none" stroke="#63b8ff" d="M1192.17,-263.7C1197.35,-245.1 1207.19,-217.32 1223.5,-198 1265.69,-148 1335,-112.24 1374.8,-94.56"/>
<polygon fill="#63b8ff" stroke="#63b8ff" points="1376.24,-97.75 1384.01,-90.56 1373.45,-91.33 1376.24,-97.75"/>
</a>
</g>
</g>
<!-- Node7&#45;&gt;Node9 -->
<g id="edge10_Node000007_Node000009" class="edge">
<title>Node7&#45;&gt;Node9</title>
<g id="a_edge10_Node000007_Node000009"><a xlink:title=" ">
<path fill="none" stroke="#63b8ff" d="M1114.86,-274.27C1009.82,-260.92 816.66,-236.38 712.16,-223.11"/>
<polygon fill="#63b8ff" stroke="#63b8ff" points="712.39,-219.61 702.03,-221.82 711.51,-226.55 712.39,-219.61"/>
</a>
</g>
</g>
<!-- Node9&#45;&gt;Node6 -->
<g id="edge16_Node000009_Node000006" class="edge">
<title>Node9&#45;&gt;Node6</title>
<g id="a_edge16_Node000009_Node000006"><a xlink:title=" ">
<path fill="none" stroke="#63b8ff" d="M702.19,-212.28C800.4,-211.36 997.61,-203.82 1158.5,-162 1160.39,-161.51 1162.32,-160.92 1164.23,-160.26"/>
<polygon fill="#63b8ff" stroke="#63b8ff" points="1165.56,-163.5 1173.58,-156.59 1163,-156.99 1165.56,-163.5"/>
</a>
</g>
</g>
<!-- Node10 -->
<g id="Node000010" class="node">
<title>Node10</title>
<g id="a_Node000010"><a xlink:title=" ">
<polygon fill="#e0e0e0" stroke="#999999" points="654,-24.5 607,-24.5 607,-5.5 654,-5.5 654,-24.5"/>
<text text-anchor="middle" x="630.5" y="-12.5" font-family="Helvetica,sans-Serif" font-size="10.00">cmath</text>
</a>
</g>
</g>
<!-- Node9&#45;&gt;Node10 -->
<g id="edge11_Node000009_Node000010" class="edge">
<title>Node9&#45;&gt;Node10</title>
<g id="a_edge11_Node000009_Node000010"><a xlink:title=" ">
<path fill="none" stroke="#63b8ff" d="M655.76,-197.84C664.55,-188.61 674.77,-175.74 679.5,-162 683.84,-149.39 682.15,-145.07 679.5,-132 672.05,-95.21 652.55,-55.59 640.52,-33.48"/>
<polygon fill="#63b8ff" stroke="#63b8ff" points="643.51,-31.66 635.58,-24.63 637.39,-35.07 643.51,-31.66"/>
</a>
</g>
</g>
<!-- Node11 -->
<g id="Node000011" class="node">
<title>Node11</title>
<g id="a_Node000011"><a xlink:title=" ">
<polygon fill="#e0e0e0" stroke="#999999" points="240,-156.5 187,-156.5 187,-137.5 240,-137.5 240,-156.5"/>
<text text-anchor="middle" x="213.5" y="-144.5" font-family="Helvetica,sans-Serif" font-size="10.00">stdlib.h</text>
</a>
</g>
</g>
<!-- Node9&#45;&gt;Node11 -->
<g id="edge12_Node000009_Node000011" class="edge">
<title>Node9&#45;&gt;Node11</title>
<g id="a_edge12_Node000009_Node000011"><a xlink:title=" ">
<path fill="none" stroke="#63b8ff" d="M578.99,-207.85C502.24,-201.8 367.37,-188.3 254.5,-162 251.52,-161.31 248.45,-160.48 245.4,-159.58"/>
<polygon fill="#63b8ff" stroke="#63b8ff" points="246.41,-156.23 235.82,-156.53 244.29,-162.9 246.41,-156.23"/>
</a>
</g>
</g>
<!-- Node12 -->
<g id="Node000012" class="node">
<title>Node12</title>
<g id="a_Node000012"><a xlink:title=" ">
<polygon fill="#e0e0e0" stroke="#999999" points="1061.5,-24.5 1001.5,-24.5 1001.5,-5.5 1061.5,-5.5 1061.5,-24.5"/>
<text text-anchor="middle" x="1031.5" y="-12.5" font-family="Helvetica,sans-Serif" font-size="10.00">iostream</text>
</a>
</g>
</g>
<!-- Node9&#45;&gt;Node12 -->
<g id="edge13_Node000009_Node000012" class="edge">
<title>Node9&#45;&gt;Node12</title>
<g id="a_edge13_Node000009_Node000012"><a xlink:title=" ">
<path fill="none" stroke="#63b8ff" d="M702.09,-208.18C804.57,-201.22 1001.02,-185.01 1022.5,-162 1054.91,-127.28 1044.77,-65.36 1036.95,-34.52"/>
<polygon fill="#63b8ff" stroke="#63b8ff" points="1040.27,-33.4 1034.26,-24.67 1033.52,-35.24 1040.27,-33.4"/>
</a>
</g>
</g>
<!-- Node13 -->
<g id="Node000013" class="node">
<title>Node13</title>
<g id="a_Node000013"><a xlink:title=" ">
<polygon fill="#e0e0e0" stroke="#999999" points="344,-156.5 297,-156.5 297,-137.5 344,-137.5 344,-156.5"/>
<text text-anchor="middle" x="320.5" y="-144.5" font-family="Helvetica,sans-Serif" font-size="10.00">float.h</text>
</a>
</g>
</g>
<!-- Node9&#45;&gt;Node13 -->
<g id="edge14_Node000009_Node000013" class="edge">
<title>Node9&#45;&gt;Node13</title>
<g id="a_edge14_Node000009_Node000013"><a xlink:title=" ">
<path fill="none" stroke="#63b8ff" d="M578.82,-205.4C520.06,-198.14 429.54,-184.43 353.5,-162 351.82,-161.5 350.11,-160.95 348.39,-160.35"/>
<polygon fill="#63b8ff" stroke="#63b8ff" points="349.32,-156.95 338.73,-156.61 346.79,-163.48 349.32,-156.95"/>
</a>
</g>
</g>
<!-- Node14 -->
<g id="Node000014" class="node">
<title>Node14</title>
<g id="a_Node000014"><a xlink:title=" ">
<polygon fill="#e0e0e0" stroke="#999999" points="394.5,-156.5 362.5,-156.5 362.5,-137.5 394.5,-137.5 394.5,-156.5"/>
<text text-anchor="middle" x="378.5" y="-144.5" font-family="Helvetica,sans-Serif" font-size="10.00">list</text>
</a>
</g>
</g>
<!-- Node9&#45;&gt;Node14 -->
<g id="edge15_Node000009_Node000014" class="edge">
<title>Node9&#45;&gt;Node14</title>
<g id="a_edge15_Node000009_Node000014"><a xlink:title=" ">
<path fill="none" stroke="#63b8ff" d="M578.67,-204.19C529.98,-196.81 460.98,-183.58 403.5,-162 402.78,-161.73 402.06,-161.44 401.34,-161.14"/>
<polygon fill="#63b8ff" stroke="#63b8ff" points="402.67,-157.9 392.16,-156.62 399.58,-164.18 402.67,-157.9"/>
</a>
</g>
</g>
<!-- Node15 -->
<g id="Node000015" class="node">
<title>Node15</title>
<g id="a_Node000015"><a xlink:title=" ">
<polygon fill="#e0e0e0" stroke="#999999" points="466.5,-156.5 412.5,-156.5 412.5,-137.5 466.5,-137.5 466.5,-156.5"/>
<text text-anchor="middle" x="439.5" y="-144.5" font-family="Helvetica,sans-Serif" font-size="10.00">random</text>
</a>
</g>
</g>
<!-- Node9&#45;&gt;Node15 -->
<g id="edge17_Node000009_Node000015" class="edge">
<title>Node9&#45;&gt;Node15</title>
<g id="a_edge17_Node000009_Node000015"><a xlink:title=" ">
<path fill="none" stroke="#63b8ff" d="M590.72,-198C557.82,-188.47 513.84,-175.24 475.5,-162 473.84,-161.43 472.15,-160.83 470.45,-160.21"/>
<polygon fill="#63b8ff" stroke="#63b8ff" points="471.31,-156.8 460.72,-156.56 468.86,-163.35 471.31,-156.8"/>
</a>
</g>
</g>
<!-- Node16 -->
<g id="Node000016" class="node">
<title>Node16</title>
<g id="a_Node000016"><a xlink:title=" ">
<polygon fill="#e0e0e0" stroke="#999999" points="444.5,-24.5 380.5,-24.5 380.5,-5.5 444.5,-5.5 444.5,-24.5"/>
<text text-anchor="middle" x="412.5" y="-12.5" font-family="Helvetica,sans-Serif" font-size="10.00">algorithm</text>
</a>
</g>
</g>
<!-- Node9&#45;&gt;Node16 -->
<g id="edge18_Node000009_Node000016" class="edge">
<title>Node9&#45;&gt;Node16</title>
<g id="a_edge18_Node000009_Node000016"><a xlink:title=" ">
<path fill="none" stroke="#63b8ff" d="M578.7,-212.55C487.72,-211.88 324.48,-204.59 287.5,-162 245.25,-113.34 337.88,-55.01 385.94,-29.29"/>
<polygon fill="#63b8ff" stroke="#63b8ff" points="387.67,-32.33 394.9,-24.59 384.42,-26.13 387.67,-32.33"/>
</a>
</g>
</g>
<!-- Node17 -->
<g id="Node000017" class="node">
<title>Node17</title>
<g id="a_Node000017"><a xlink:title=" ">
<polygon fill="#e0e0e0" stroke="#999999" points="542.5,-156.5 484.5,-156.5 484.5,-137.5 542.5,-137.5 542.5,-156.5"/>
<text text-anchor="middle" x="513.5" y="-144.5" font-family="Helvetica,sans-Serif" font-size="10.00">memory</text>
</a>
</g>
</g>
<!-- Node9&#45;&gt;Node17 -->
<g id="edge19_Node000009_Node000017" class="edge">
<title>Node9&#45;&gt;Node17</title>
<g id="a_edge19_Node000009_Node000017"><a xlink:title=" ">
<path fill="none" stroke="#63b8ff" d="M612.63,-197.95C590.85,-186.98 560.8,-171.83 539.51,-161.11"/>
<polygon fill="#63b8ff" stroke="#63b8ff" points="540.91,-157.89 530.4,-156.52 537.76,-164.14 540.91,-157.89"/>
</a>
</g>
</g>
<!-- Node18 -->
<g id="Node000018" class="node">
<title>Node18</title>
<g id="a_Node000018"><a xlink:title=" ">
<polygon fill="#e0e0e0" stroke="#999999" points="670.5,-156.5 560.5,-156.5 560.5,-137.5 670.5,-137.5 670.5,-156.5"/>
<text text-anchor="middle" x="615.5" y="-144.5" font-family="Helvetica,sans-Serif" font-size="10.00">nlohmann/json.hpp</text>
</a>
</g>
</g>
<!-- Node9&#45;&gt;Node18 -->
<g id="edge20_Node000009_Node000018" class="edge">
<title>Node9&#45;&gt;Node18</title>
<g id="a_edge20_Node000009_Node000018"><a xlink:title=" ">
<path fill="none" stroke="#63b8ff" d="M634.95,-197.8C631.32,-188.5 626.54,-176.27 622.63,-166.26"/>
<polygon fill="#63b8ff" stroke="#63b8ff" points="625.85,-164.89 618.95,-156.84 619.33,-167.43 625.85,-164.89"/>
</a>
</g>
</g>
<!-- Node9&#45;&gt;Node19 -->
<g id="edge21_Node000009_Node000019" class="edge">
<title>Node9&#45;&gt;Node19</title>
<g id="a_edge21_Node000009_Node000019"><a xlink:title=" ">
<path fill="none" stroke="#63b8ff" d="M578.99,-206.18C490.2,-197.6 321.03,-180.54 177.5,-162 168.13,-160.79 158.24,-159.41 148.54,-158"/>
<polygon fill="#63b8ff" stroke="#63b8ff" points="148.94,-154.52 138.54,-156.53 147.92,-161.45 148.94,-154.52"/>
</a>
</g>
</g>
<!-- Node22 -->
<g id="Node000022" class="node">
<title>Node22</title>
<g id="a_Node000022"><a xlink:href="Constants_8h.html" target="_top" xlink:title="Mathematical and physical constants used throughout the project.">
<polygon fill="white" stroke="#666666" points="850,-162 727,-162 727,-132 850,-132 850,-162"/>
<text text-anchor="start" x="735" y="-150" font-family="Helvetica,sans-Serif" font-size="10.00">App/Model/IBM/Maths</text>
<text text-anchor="middle" x="788.5" y="-139" font-family="Helvetica,sans-Serif" font-size="10.00">/Constants.h</text>
</a>
</g>
</g>
<!-- Node9&#45;&gt;Node22 -->
<g id="edge24_Node000009_Node000022" class="edge">
<title>Node9&#45;&gt;Node22</title>
<g id="a_edge24_Node000009_Node000022"><a xlink:title=" ">
<path fill="none" stroke="#63b8ff" d="M672.98,-197.95C694.67,-188.58 723.39,-176.16 746.77,-166.05"/>
<polygon fill="#63b8ff" stroke="#63b8ff" points="748.31,-169.19 756.1,-162.01 745.53,-162.77 748.31,-169.19"/>
</a>
</g>
</g>
<!-- Node23 -->
<g id="Node000023" class="node">
<title>Node23</title>
<g id="a_Node000023"><a xlink:href="TimeUnits_8h.html" target="_top" xlink:title="Defines the TimeStep and Day classes for representing simulation time units.">
<polygon fill="white" stroke="#666666" points="1013,-162 868,-162 868,-132 1013,-132 1013,-162"/>
<text text-anchor="start" x="876" y="-150" font-family="Helvetica,sans-Serif" font-size="10.00">App/Model/IBM/Landscape</text>
<text text-anchor="middle" x="940.5" y="-139" font-family="Helvetica,sans-Serif" font-size="10.00">/LivingBeings/TimeUnits.h</text>
</a>
</g>
</g>
<!-- Node9&#45;&gt;Node23 -->
<g id="edge25_Node000009_Node000023" class="edge">
<title>Node9&#45;&gt;Node23</title>
<g id="a_edge25_Node000009_Node000023"><a xlink:title=" ">
<path fill="none" stroke="#63b8ff" d="M702.3,-198.82C749.41,-188.77 814.54,-174.87 864.78,-164.15"/>
<polygon fill="#63b8ff" stroke="#63b8ff" points="865.57,-167.56 874.62,-162.05 864.11,-160.72 865.57,-167.56"/>
</a>
</g>
</g>
<!-- Node31 -->
<g id="Node000031" class="node">
<title>Node31</title>
<g id="a_Node000031"><a xlink:href="Types_8h.html" target="_top" xlink:title="Defines common type aliases and constants used throughout the Weaver project.">
<polygon fill="white" stroke="#666666" points="1149,-156.5 1070,-156.5 1070,-137.5 1149,-137.5 1149,-156.5"/>
<text text-anchor="middle" x="1109.5" y="-144.5" font-family="Helvetica,sans-Serif" font-size="10.00">Misc/Types.h</text>
</a>
</g>
</g>
<!-- Node9&#45;&gt;Node31 -->
<g id="edge43_Node000009_Node000031" class="edge">
<title>Node9&#45;&gt;Node31</title>
<g id="a_edge43_Node000009_Node000031"><a xlink:title=" ">
<path fill="none" stroke="#63b8ff" d="M702.07,-207.17C783.45,-200.21 931.07,-185.52 1055.5,-162 1060.01,-161.15 1064.7,-160.13 1069.36,-159.04"/>
<polygon fill="#63b8ff" stroke="#63b8ff" points="1070.52,-162.36 1079.39,-156.57 1068.84,-155.56 1070.52,-162.36"/>
</a>
</g>
</g>
<!-- Node20 -->
<g id="Node000020" class="node">
<title>Node20</title>
<g id="a_Node000020"><a xlink:title=" ">
<polygon fill="#e0e0e0" stroke="#999999" points="178,-90.5 113,-90.5 113,-71.5 178,-71.5 178,-90.5"/>
<text text-anchor="middle" x="145.5" y="-78.5" font-family="Helvetica,sans-Serif" font-size="10.00">exception</text>
</a>
</g>
</g>
<!-- Node19&#45;&gt;Node20 -->
<g id="edge22_Node000019_Node000020" class="edge">
<title>Node19&#45;&gt;Node20</title>
<g id="a_edge22_Node000019_Node000020"><a xlink:title=" ">
<path fill="none" stroke="#63b8ff" d="M92.73,-137.37C102.22,-127.4 118.06,-110.79 129.91,-98.36"/>
<polygon fill="#63b8ff" stroke="#63b8ff" points="132.65,-100.56 137.01,-90.91 127.58,-95.73 132.65,-100.56"/>
</a>
</g>
</g>
<!-- Node21 -->
<g id="Node000021" class="node">
<title>Node21</title>
<g id="a_Node000021"><a xlink:title=" ">
<polygon fill="#e0e0e0" stroke="#999999" points="306.5,-24.5 262.5,-24.5 262.5,-5.5 306.5,-5.5 306.5,-24.5"/>
<text text-anchor="middle" x="284.5" y="-12.5" font-family="Helvetica,sans-Serif" font-size="10.00">string</text>
</a>
</g>
</g>
<!-- Node19&#45;&gt;Node21 -->
<g id="edge23_Node000019_Node000021" class="edge">
<title>Node19&#45;&gt;Node21</title>
<g id="a_edge23_Node000019_Node000021"><a xlink:title=" ">
<path fill="none" stroke="#63b8ff" d="M83.9,-137.2C83.3,-120.86 84.47,-85.73 103.5,-66 142.66,-25.39 211.57,-16.84 252.13,-15.56"/>
<polygon fill="#63b8ff" stroke="#63b8ff" points="252.35,-19.05 262.28,-15.37 252.22,-12.05 252.35,-19.05"/>
</a>
</g>
</g>
<!-- Node23&#45;&gt;Node8 -->
<g id="edge30_Node000023_Node000008" class="edge">
<title>Node23&#45;&gt;Node8</title>
<g id="a_edge30_Node000023_Node000008"><a xlink:title=" ">
<path fill="none" stroke="#63b8ff" d="M1013.01,-137.62C1133.73,-123.65 1363.22,-97.02 1367.5,-96 1370.01,-95.4 1372.59,-94.68 1375.15,-93.89"/>
<polygon fill="#63b8ff" stroke="#63b8ff" points="1376.52,-97.13 1384.87,-90.61 1374.27,-90.5 1376.52,-97.13"/>
</a>
</g>
</g>
<!-- Node23&#45;&gt;Node10 -->
<g id="edge31_Node000023_Node000010" class="edge">
<title>Node23&#45;&gt;Node10</title>
<g id="a_edge31_Node000023_Node000010"><a xlink:title=" ">
<path fill="none" stroke="#63b8ff" d="M899.71,-131.95C872.53,-122.35 836.12,-109.06 804.5,-96 751.64,-74.17 691.25,-45.56 657.32,-29.13"/>
<polygon fill="#63b8ff" stroke="#63b8ff" points="658.61,-25.86 648.08,-24.64 655.55,-32.16 658.61,-25.86"/>
</a>
</g>
</g>
<!-- Node24 -->
<g id="Node000024" class="node">
<title>Node24</title>
<g id="a_Node000024"><a xlink:title=" ">
<polygon fill="#e0e0e0" stroke="#999999" points="900,-30 795,-30 795,0 900,0 900,-30"/>
<text text-anchor="start" x="803" y="-18" font-family="Helvetica,sans-Serif" font-size="10.00">boost/archive/text</text>
<text text-anchor="middle" x="847.5" y="-7" font-family="Helvetica,sans-Serif" font-size="10.00">_iarchive.hpp</text>
</a>
</g>
</g>
<!-- Node23&#45;&gt;Node24 -->
<g id="edge26_Node000023_Node000024" class="edge">
<title>Node23&#45;&gt;Node24</title>
<g id="a_edge26_Node000023_Node000024"><a xlink:title=" ">
<path fill="none" stroke="#63b8ff" d="M915.69,-131.87C902.17,-123.07 886.09,-110.65 875.5,-96 863.48,-79.37 856.25,-57.12 852.15,-40.3"/>
<polygon fill="#63b8ff" stroke="#63b8ff" points="855.48,-39.16 849.9,-30.16 848.65,-40.68 855.48,-39.16"/>
</a>
</g>
</g>
<!-- Node25 -->
<g id="Node000025" class="node">
<title>Node25</title>
<g id="a_Node000025"><a xlink:title=" ">
<polygon fill="#e0e0e0" stroke="#999999" points="777,-30 672,-30 672,0 777,0 777,-30"/>
<text text-anchor="start" x="680" y="-18" font-family="Helvetica,sans-Serif" font-size="10.00">boost/archive/text</text>
<text text-anchor="middle" x="724.5" y="-7" font-family="Helvetica,sans-Serif" font-size="10.00">_oarchive.hpp</text>
</a>
</g>
</g>
<!-- Node23&#45;&gt;Node25 -->
<g id="edge27_Node000023_Node000025" class="edge">
<title>Node23&#45;&gt;Node25</title>
<g id="a_edge27_Node000023_Node000025"><a xlink:title=" ">
<path fill="none" stroke="#63b8ff" d="M916.57,-131.83C899.75,-121.84 876.72,-108.15 856.5,-96 822.24,-75.42 783.1,-51.67 756.39,-35.42"/>
<polygon fill="#63b8ff" stroke="#63b8ff" points="758.2,-32.43 747.83,-30.22 754.56,-38.41 758.2,-32.43"/>
</a>
</g>
</g>
<!-- Node26 -->
<g id="Node000026" class="node">
<title>Node26</title>
<g id="a_Node000026"><a xlink:title=" ">
<polygon fill="#e0e0e0" stroke="#999999" points="1391.5,-30 1275.5,-30 1275.5,0 1391.5,0 1391.5,-30"/>
<text text-anchor="start" x="1283.5" y="-18" font-family="Helvetica,sans-Serif" font-size="10.00">boost/archive/binary</text>
<text text-anchor="middle" x="1333.5" y="-7" font-family="Helvetica,sans-Serif" font-size="10.00">_iarchive.hpp</text>
</a>
</g>
</g>
<!-- Node23&#45;&gt;Node26 -->
<g id="edge28_Node000023_Node000026" class="edge">
<title>Node23&#45;&gt;Node26</title>
<g id="a_edge28_Node000023_Node000026"><a xlink:title=" ">
<path fill="none" stroke="#63b8ff" d="M980.67,-131.96C1045.72,-109.21 1167.16,-66.77 1169.5,-66 1204.6,-54.52 1244.2,-42.43 1275.69,-33.01"/>
<polygon fill="#63b8ff" stroke="#63b8ff" points="1277.04,-36.26 1285.62,-30.05 1275.04,-29.55 1277.04,-36.26"/>
</a>
</g>
</g>
<!-- Node27 -->
<g id="Node000027" class="node">
<title>Node27</title>
<g id="a_Node000027"><a xlink:title=" ">
<polygon fill="#e0e0e0" stroke="#999999" points="1257.5,-30 1141.5,-30 1141.5,0 1257.5,0 1257.5,-30"/>
<text text-anchor="start" x="1149.5" y="-18" font-family="Helvetica,sans-Serif" font-size="10.00">boost/archive/binary</text>
<text text-anchor="middle" x="1199.5" y="-7" font-family="Helvetica,sans-Serif" font-size="10.00">_oarchive.hpp</text>
</a>
</g>
</g>
<!-- Node23&#45;&gt;Node27 -->
<g id="edge29_Node000023_Node000027" class="edge">
<title>Node23&#45;&gt;Node27</title>
<g id="a_edge29_Node000023_Node000027"><a xlink:title=" ">
<path fill="none" stroke="#63b8ff" d="M968.15,-131.91C999.66,-115.87 1052.72,-88.92 1098.5,-66 1119.3,-55.58 1142.57,-44.06 1161.53,-34.7"/>
<polygon fill="#63b8ff" stroke="#63b8ff" points="1163.31,-37.72 1170.73,-30.16 1160.22,-31.44 1163.31,-37.72"/>
</a>
</g>
</g>
<!-- Node28 -->
<g id="Node000028" class="node">
<title>Node28</title>
<g id="a_Node000028"><a xlink:href="PreciseDouble_8h.html" target="_top" xlink:title="Defines the PreciseDouble class for safe and precise double&#45;precision arithmetic.">
<polygon fill="white" stroke="#666666" points="1007,-96 884,-96 884,-66 1007,-66 1007,-96"/>
<text text-anchor="start" x="892" y="-84" font-family="Helvetica,sans-Serif" font-size="10.00">App/Model/IBM/Maths</text>
<text text-anchor="middle" x="945.5" y="-73" font-family="Helvetica,sans-Serif" font-size="10.00">/PreciseDouble.h</text>
</a>
</g>
</g>
<!-- Node23&#45;&gt;Node28 -->
<g id="edge32_Node000023_Node000028" class="edge">
<title>Node23&#45;&gt;Node28</title>
<g id="a_edge32_Node000023_Node000028"><a xlink:title=" ">
<path fill="none" stroke="#63b8ff" d="M941.61,-131.8C942.19,-124.34 942.92,-114.99 943.59,-106.41"/>
<polygon fill="#63b8ff" stroke="#63b8ff" points="947.1,-106.41 944.39,-96.16 940.13,-105.86 947.1,-106.41"/>
</a>
</g>
</g>
<!-- Node28&#45;&gt;Node10 -->
<g id="edge38_Node000028_Node000010" class="edge">
<title>Node28&#45;&gt;Node10</title>
<g id="a_edge38_Node000028_Node000010"><a xlink:title=" ">
<path fill="none" stroke="#63b8ff" d="M883.79,-73.38C825.79,-66.17 737,-52.53 662.5,-30 660.86,-29.51 659.2,-28.95 657.53,-28.35"/>
<polygon fill="#63b8ff" stroke="#63b8ff" points="658.74,-25.07 648.16,-24.62 656.15,-31.57 658.74,-25.07"/>
</a>
</g>
</g>
<!-- Node28&#45;&gt;Node12 -->
<g id="edge40_Node000028_Node000012" class="edge">
<title>Node28&#45;&gt;Node12</title>
<g id="a_edge40_Node000028_Node000012"><a xlink:title=" ">
<path fill="none" stroke="#63b8ff" d="M964.59,-65.8C978.52,-55.43 997.36,-41.4 1011.5,-30.88"/>
<polygon fill="#63b8ff" stroke="#63b8ff" points="1013.68,-33.62 1019.62,-24.84 1009.5,-28.01 1013.68,-33.62"/>
</a>
</g>
</g>
<!-- Node28&#45;&gt;Node16 -->
<g id="edge39_Node000028_Node000016" class="edge">
<title>Node28&#45;&gt;Node16</title>
<g id="a_edge39_Node000028_Node000016"><a xlink:title=" ">
<path fill="none" stroke="#63b8ff" d="M883.84,-72.6C774.23,-59.43 548.2,-32.29 454.56,-21.05"/>
<polygon fill="#63b8ff" stroke="#63b8ff" points="454.94,-17.57 444.6,-19.85 454.11,-24.52 454.94,-17.57"/>
</a>
</g>
</g>
<!-- Node28&#45;&gt;Node21 -->
<g id="edge37_Node000028_Node000021" class="edge">
<title>Node28&#45;&gt;Node21</title>
<g id="a_edge37_Node000028_Node000021"><a xlink:title=" ">
<path fill="none" stroke="#63b8ff" d="M883.76,-76.1C778.44,-69.12 557.39,-53.02 371.5,-30 353.32,-27.75 333.11,-24.54 316.74,-21.76"/>
<polygon fill="#63b8ff" stroke="#63b8ff" points="317.06,-18.26 306.61,-20.01 315.87,-25.16 317.06,-18.26"/>
</a>
</g>
</g>
<!-- Node28&#45;&gt;Node24 -->
<g id="edge33_Node000028_Node000024" class="edge">
<title>Node28&#45;&gt;Node24</title>
<g id="a_edge33_Node000028_Node000024"><a xlink:title=" ">
<path fill="none" stroke="#63b8ff" d="M923.75,-65.8C910.17,-56.93 892.51,-45.39 877.6,-35.66"/>
<polygon fill="#63b8ff" stroke="#63b8ff" points="879.48,-32.7 869.19,-30.16 875.65,-38.56 879.48,-32.7"/>
</a>
</g>
</g>
<!-- Node28&#45;&gt;Node25 -->
<g id="edge34_Node000028_Node000025" class="edge">
<title>Node28&#45;&gt;Node25</title>
<g id="a_edge34_Node000028_Node000025"><a xlink:title=" ">
<path fill="none" stroke="#63b8ff" d="M897,-65.95C863.32,-56.2 818.28,-43.16 782.66,-32.84"/>
<polygon fill="#63b8ff" stroke="#63b8ff" points="783.47,-29.43 772.89,-30.01 781.52,-36.16 783.47,-29.43"/>
</a>
</g>
</g>
<!-- Node28&#45;&gt;Node26 -->
<g id="edge35_Node000028_Node000026" class="edge">
<title>Node28&#45;&gt;Node26</title>
<g id="a_edge35_Node000028_Node000026"><a xlink:title=" ">
<path fill="none" stroke="#63b8ff" d="M1007.2,-71.35C1069.79,-62.36 1169.7,-47.41 1265.57,-30.12"/>
<polygon fill="#63b8ff" stroke="#63b8ff" points="1266.22,-33.55 1275.43,-28.32 1264.97,-26.67 1266.22,-33.55"/>
</a>
</g>
</g>
<!-- Node28&#45;&gt;Node27 -->
<g id="edge36_Node000028_Node000027" class="edge">
<title>Node28&#45;&gt;Node27</title>
<g id="a_edge36_Node000028_Node000027"><a xlink:title=" ">
<path fill="none" stroke="#63b8ff" d="M1001.24,-65.95C1040.37,-56.1 1092.83,-42.88 1133.96,-32.51"/>
<polygon fill="#63b8ff" stroke="#63b8ff" points="1135.05,-35.85 1143.89,-30.01 1133.34,-29.06 1135.05,-35.85"/>
</a>
</g>
</g>
<!-- Node29 -->
<g id="Node000029" class="node">
<title>Node29</title>
<g id="a_Node000029"><a xlink:title=" ">
<polygon fill="#e0e0e0" stroke="#999999" points="1123.5,-24.5 1079.5,-24.5 1079.5,-5.5 1123.5,-5.5 1123.5,-24.5"/>
<text text-anchor="middle" x="1101.5" y="-12.5" font-family="Helvetica,sans-Serif" font-size="10.00">limits</text>
</a>
</g>
</g>
<!-- Node28&#45;&gt;Node29 -->
<g id="edge41_Node000028_Node000029" class="edge">
<title>Node28&#45;&gt;Node29</title>
<g id="a_edge41_Node000028_Node000029"><a xlink:title=" ">
<path fill="none" stroke="#63b8ff" d="M981.77,-65.97C1006.82,-56.17 1040.82,-42.63 1070.5,-30 1071.51,-29.57 1072.53,-29.13 1073.56,-28.69"/>
<polygon fill="#63b8ff" stroke="#63b8ff" points="1075.14,-31.82 1082.87,-24.57 1072.31,-25.41 1075.14,-31.82"/>
</a>
</g>
</g>
<!-- Node30 -->
<g id="Node000030" class="node">
<title>Node30</title>
<g id="a_Node000030"><a xlink:title=" ">
<polygon fill="#e0e0e0" stroke="#999999" points="983,-24.5 918,-24.5 918,-5.5 983,-5.5 983,-24.5"/>
<text text-anchor="middle" x="950.5" y="-12.5" font-family="Helvetica,sans-Serif" font-size="10.00">functional</text>
</a>
</g>
</g>
<!-- Node28&#45;&gt;Node30 -->
<g id="edge42_Node000028_Node000030" class="edge">
<title>Node28&#45;&gt;Node30</title>
<g id="a_edge42_Node000028_Node000030"><a xlink:title=" ">
<path fill="none" stroke="#63b8ff" d="M946.61,-65.8C947.32,-56.7 948.25,-44.79 949.02,-34.9"/>
<polygon fill="#63b8ff" stroke="#63b8ff" points="952.52,-35.09 949.81,-24.84 945.54,-34.54 952.52,-35.09"/>
</a>
</g>
</g>
<!-- Node31&#45;&gt;Node28 -->
<g id="edge51_Node000031_Node000028" class="edge">
<title>Node31&#45;&gt;Node28</title>
<g id="a_edge51_Node000031_Node000028"><a xlink:title=" ">
<path fill="none" stroke="#63b8ff" d="M1087.38,-137.37C1062.82,-127.78 1022.49,-112.05 991.1,-99.8"/>
<polygon fill="#63b8ff" stroke="#63b8ff" points="992.26,-96.49 981.67,-96.12 989.71,-103.01 992.26,-96.49"/>
</a>
</g>
</g>
<!-- Node31&#45;&gt;Node29 -->
<g id="edge50_Node000031_Node000029" class="edge">
<title>Node31&#45;&gt;Node29</title>
<g id="a_edge50_Node000031_Node000029"><a xlink:title=" ">
<path fill="none" stroke="#63b8ff" d="M1108.98,-137.47C1107.7,-116.82 1104.44,-63.72 1102.67,-35.04"/>
<polygon fill="#63b8ff" stroke="#63b8ff" points="1106.15,-34.5 1102.04,-24.73 1099.16,-34.93 1106.15,-34.5"/>
</a>
</g>
</g>
<!-- Node32 -->
<g id="Node000032" class="node">
<title>Node32</title>
<g id="a_Node000032"><a xlink:href="Coordinate3D_8h.html" target="_top" xlink:title="Defines a templated 3D coordinate class with Boost.Serialization support.">
<polygon fill="white" stroke="#666666" points="1358.5,-90.5 1266.5,-90.5 1266.5,-71.5 1358.5,-71.5 1358.5,-90.5"/>
<text text-anchor="middle" x="1312.5" y="-78.5" font-family="Helvetica,sans-Serif" font-size="10.00">Coordinate3D.h</text>
</a>
</g>
</g>
<!-- Node31&#45;&gt;Node32 -->
<g id="edge44_Node000031_Node000032" class="edge">
<title>Node31&#45;&gt;Node32</title>
<g id="a_edge44_Node000031_Node000032"><a xlink:title=" ">
<path fill="none" stroke="#63b8ff" d="M1136.88,-137.37C1172.69,-126.08 1235.59,-106.25 1275.59,-93.64"/>
<polygon fill="#63b8ff" stroke="#63b8ff" points="1276.75,-96.94 1285.23,-90.6 1274.64,-90.27 1276.75,-96.94"/>
</a>
</g>
</g>
<!-- Node35 -->
<g id="Node000035" class="node">
<title>Node35</title>
<g id="a_Node000035"><a xlink:title=" ">
<polygon fill="#e0e0e0" stroke="#999999" points="1222.5,-90.5 1178.5,-90.5 1178.5,-71.5 1222.5,-71.5 1222.5,-90.5"/>
<text text-anchor="middle" x="1200.5" y="-78.5" font-family="Helvetica,sans-Serif" font-size="10.00">cfloat</text>
</a>
</g>
</g>
<!-- Node31&#45;&gt;Node35 -->
<g id="edge49_Node000031_Node000035" class="edge">
<title>Node31&#45;&gt;Node35</title>
<g id="a_edge49_Node000031_Node000035"><a xlink:title=" ">
<path fill="none" stroke="#63b8ff" d="M1121.77,-137.37C1136.56,-126.97 1161.65,-109.32 1179.53,-96.75"/>
<polygon fill="#63b8ff" stroke="#63b8ff" points="1181.96,-99.31 1188.13,-90.7 1177.94,-93.59 1181.96,-99.31"/>
</a>
</g>
</g>
<!-- Node32&#45;&gt;Node26 -->
<g id="edge46_Node000032_Node000026" class="edge">
<title>Node32&#45;&gt;Node26</title>
<g id="a_edge46_Node000032_Node000026"><a xlink:title=" ">
<path fill="none" stroke="#63b8ff" d="M1315.33,-71.37C1317.97,-63.32 1322.03,-50.94 1325.65,-39.93"/>
<polygon fill="#63b8ff" stroke="#63b8ff" points="1329,-40.95 1328.79,-30.36 1322.34,-38.77 1329,-40.95"/>
</a>
</g>
</g>
<!-- Node32&#45;&gt;Node27 -->
<g id="edge47_Node000032_Node000027" class="edge">
<title>Node32&#45;&gt;Node27</title>
<g id="a_edge47_Node000032_Node000027"><a xlink:title=" ">
<path fill="none" stroke="#63b8ff" d="M1297.26,-71.37C1280.92,-62.11 1254.45,-47.12 1233.18,-35.07"/>
<polygon fill="#63b8ff" stroke="#63b8ff" points="1234.85,-32 1224.42,-30.12 1231.4,-38.09 1234.85,-32"/>
</a>
</g>
</g>
<!-- Node33 -->
<g id="Node000033" class="node">
<title>Node33</title>
<g id="a_Node000033"><a xlink:title=" ">
<polygon fill="#e0e0e0" stroke="#999999" points="1590,-30 1483,-30 1483,0 1590,0 1590,-30"/>
<text text-anchor="start" x="1491" y="-18" font-family="Helvetica,sans-Serif" font-size="10.00">boost/serialization</text>
<text text-anchor="middle" x="1536.5" y="-7" font-family="Helvetica,sans-Serif" font-size="10.00">/access.hpp</text>
</a>
</g>
</g>
<!-- Node32&#45;&gt;Node33 -->
<g id="edge45_Node000032_Node000033" class="edge">
<title>Node32&#45;&gt;Node33</title>
<g id="a_edge45_Node000032_Node000033"><a xlink:title=" ">
<path fill="none" stroke="#63b8ff" d="M1342.71,-71.37C1377.05,-61.56 1433.96,-45.3 1477.25,-32.93"/>
<polygon fill="#63b8ff" stroke="#63b8ff" points="1478.44,-36.23 1487.1,-30.12 1476.52,-29.5 1478.44,-36.23"/>
</a>
</g>
</g>
<!-- Node34 -->
<g id="Node000034" class="node">
<title>Node34</title>
<g id="a_Node000034"><a xlink:title=" ">
<polygon fill="#e0e0e0" stroke="#999999" points="1465,-24.5 1410,-24.5 1410,-5.5 1465,-5.5 1465,-24.5"/>
<text text-anchor="middle" x="1437.5" y="-12.5" font-family="Helvetica,sans-Serif" font-size="10.00">fstream</text>
</a>
</g>
</g>
<!-- Node32&#45;&gt;Node34 -->
<g id="edge48_Node000032_Node000034" class="edge">
<title>Node32&#45;&gt;Node34</title>
<g id="a_edge48_Node000032_Node000034"><a xlink:title=" ">
<path fill="none" stroke="#63b8ff" d="M1329.36,-71.37C1350.42,-60.59 1386.68,-42.02 1411.36,-29.38"/>
<polygon fill="#63b8ff" stroke="#63b8ff" points="1413.2,-32.37 1420.51,-24.7 1410.01,-26.14 1413.2,-32.37"/>
</a>
</g>
</g>
<!-- Node36&#45;&gt;Node2 -->
<g id="edge53_Node000036_Node000002" class="edge">
<title>Node36&#45;&gt;Node2</title>
<g id="a_edge53_Node000036_Node000002"><a xlink:title=" ">
<path fill="none" stroke="#63b8ff" d="M1169.87,-340.93C1213.68,-328.43 1262.44,-313.11 1269.5,-305 1285.39,-286.75 1288.11,-258.4 1287.66,-238.2"/>
<polygon fill="#63b8ff" stroke="#63b8ff" points="1291.16,-238.01 1287.17,-228.2 1284.16,-238.36 1291.16,-238.01"/>
</a>
</g>
</g>
<!-- Node36&#45;&gt;Node3 -->
<g id="edge54_Node000036_Node000003" class="edge">
<title>Node36&#45;&gt;Node3</title>
<g id="a_edge54_Node000036_Node000003"><a xlink:title=" ">
<path fill="none" stroke="#63b8ff" d="M1055.1,-340.99C1030.2,-329.53 998.92,-315.14 974.46,-303.89"/>
<polygon fill="#63b8ff" stroke="#63b8ff" points="975.65,-300.58 965.11,-299.58 972.73,-306.94 975.65,-300.58"/>
</a>
</g>
</g>
<!-- Node36&#45;&gt;Node6 -->
<g id="edge55_Node000036_Node000006" class="edge">
<title>Node36&#45;&gt;Node6</title>
<g id="a_edge55_Node000036_Node000006"><a xlink:title=" ">
<path fill="none" stroke="#63b8ff" d="M1096.36,-340.97C1095.86,-320.99 1096.96,-289.35 1106.5,-264 1121.65,-223.73 1154.7,-184.9 1174.52,-163.97"/>
<polygon fill="#63b8ff" stroke="#63b8ff" points="1177.2,-166.23 1181.65,-156.61 1172.18,-161.36 1177.2,-166.23"/>
</a>
</g>
</g>
<!-- Node36&#45;&gt;Node7 -->
<g id="edge57_Node000036_Node000007" class="edge">
<title>Node36&#45;&gt;Node7</title>
<g id="a_edge57_Node000036_Node000007"><a xlink:title=" ">
<path fill="none" stroke="#63b8ff" d="M1121.15,-340.79C1131.89,-331.84 1144.76,-321.12 1156.29,-311.51"/>
<polygon fill="#63b8ff" stroke="#63b8ff" points="1158.57,-314.16 1164.01,-305.07 1154.09,-308.79 1158.57,-314.16"/>
</a>
</g>
</g>
<!-- Node36&#45;&gt;Node8 -->
<g id="edge56_Node000036_Node000008" class="edge">
<title>Node36&#45;&gt;Node8</title>
<g id="a_edge56_Node000036_Node000008"><a xlink:title=" ">
<path fill="none" stroke="#63b8ff" d="M1170.19,-342.12C1220.84,-328.9 1281.12,-312.2 1291.5,-305 1363.82,-254.87 1393.04,-144.63 1402.11,-100.65"/>
<polygon fill="#63b8ff" stroke="#63b8ff" points="1405.56,-101.24 1404.04,-90.76 1398.69,-99.9 1405.56,-101.24"/>
</a>
</g>
</g>
<!-- Node37&#45;&gt;Node6 -->
<g id="edge59_Node000037_Node000006" class="edge">
<title>Node37&#45;&gt;Node6</title>
<g id="a_edge59_Node000037_Node000006"><a xlink:title=" ">
<path fill="none" stroke="#63b8ff" d="M1285.15,-340.98C1322,-309.42 1383.57,-245.88 1348.5,-198 1320.18,-159.34 1261.83,-149.82 1224.51,-147.89"/>
<polygon fill="#63b8ff" stroke="#63b8ff" points="1224.25,-144.38 1214.13,-147.52 1224,-151.37 1224.25,-144.38"/>
</a>
</g>
</g>
<!-- Node37&#45;&gt;Node7 -->
<g id="edge61_Node000037_Node000007" class="edge">
<title>Node37&#45;&gt;Node7</title>
<g id="a_edge61_Node000037_Node000007"><a xlink:title=" ">
<path fill="none" stroke="#63b8ff" d="M1241.32,-340.79C1232.85,-332.1 1222.77,-321.73 1213.63,-312.35"/>
<polygon fill="#63b8ff" stroke="#63b8ff" points="1216.03,-309.8 1206.55,-305.07 1211.02,-314.68 1216.03,-309.8"/>
</a>
</g>
</g>
<!-- Node37&#45;&gt;Node8 -->
<g id="edge60_Node000037_Node000008" class="edge">
<title>Node37&#45;&gt;Node8</title>
<g id="a_edge60_Node000037_Node000008"><a xlink:title=" ">
<path fill="none" stroke="#63b8ff" d="M1327.87,-340.96C1368.57,-328.49 1413.7,-313.16 1419.5,-305 1464.54,-241.57 1430.42,-140.67 1413.53,-99.93"/>
<polygon fill="#63b8ff" stroke="#63b8ff" points="1416.73,-98.53 1409.57,-90.72 1410.3,-101.29 1416.73,-98.53"/>
</a>
</g>
</g>
<!-- Node38&#45;&gt;Node6 -->
<g id="edge63_Node000038_Node000006" class="edge">
<title>Node38&#45;&gt;Node6</title>
<g id="a_edge63_Node000038_Node000006"><a xlink:title=" ">
<path fill="none" stroke="#63b8ff" d="M1177.12,-429.46C1238.6,-421.11 1320.2,-405.87 1342.5,-382 1398.83,-321.69 1417.3,-263.81 1367.5,-198 1350.25,-175.2 1270.54,-159.84 1224.19,-152.66"/>
<polygon fill="#63b8ff" stroke="#63b8ff" points="1224.41,-149.15 1214,-151.13 1223.37,-156.08 1224.41,-149.15"/>
</a>
</g>
</g>
<!-- Node38&#45;&gt;Node36 -->
<g id="edge64_Node000038_Node000036" class="edge">
<title>Node38&#45;&gt;Node36</title>
<g id="a_edge64_Node000038_Node000036"><a xlink:title=" ">
<path fill="none" stroke="#63b8ff" d="M1102.66,-417.79C1101.93,-409.96 1101.07,-400.77 1100.27,-392.16"/>
<polygon fill="#63b8ff" stroke="#63b8ff" points="1103.74,-391.71 1099.33,-382.07 1096.77,-392.36 1103.74,-391.71"/>
</a>
</g>
</g>
</g>
</svg>
