<?xml version="1.0" encoding="UTF-8" standalone="no"?>
<!DOCTYPE svg PUBLIC "-//W3C//DTD SVG 1.1//EN"
 "http://www.w3.org/Graphics/SVG/1.1/DTD/svg11.dtd">
<!-- Generated by graphviz version 2.43.0 (0)
 -->
<!-- Title: /home/runner/work/Weaver/Weaver/include/App/Model/IBM/Landscape/Map/Patches/Source/HabitatDomainSource.h Pages: 1 -->
<svg width="1071pt" height="951pt"
 viewBox="0.00 0.00 1071.00 951.00" xmlns="http://www.w3.org/2000/svg" xmlns:xlink="http://www.w3.org/1999/xlink">
<g id="graph0" class="graph" transform="scale(1 1) rotate(0) translate(4 947)">
<title>/home/runner/work/Weaver/Weaver/include/App/Model/IBM/Landscape/Map/Patches/Source/HabitatDomainSource.h</title>
<!-- Node1 -->
<g id="Node000001" class="node">
<title>Node1</title>
<g id="a_Node000001"><a xlink:title="Defines the HabitatDomainSource class representing habitat domain information for animal species.">
<polygon fill="#999999" stroke="#666666" points="296,-943 124,-943 124,-891 296,-891 296,-943"/>
<text text-anchor="start" x="132" y="-931" font-family="Helvetica,sans-Serif" font-size="10.00">/home/runner/work/Weaver</text>
<text text-anchor="start" x="132" y="-920" font-family="Helvetica,sans-Serif" font-size="10.00">/Weaver/include/App/Model</text>
<text text-anchor="start" x="132" y="-909" font-family="Helvetica,sans-Serif" font-size="10.00">/IBM/Landscape/Map/Patches</text>
<text text-anchor="middle" x="210" y="-898" font-family="Helvetica,sans-Serif" font-size="10.00">/Source/HabitatDomainSource.h</text>
</a>
</g>
</g>
<!-- Node2 -->
<g id="Node000002" class="node">
<title>Node2</title>
<g id="a_Node000002"><a xlink:href="Landscape_8h.html" target="_top" xlink:title="Doxygen&#45;documented declaration of the Landscape class and related serialization helpers.">
<polygon fill="white" stroke="#666666" points="702.5,-118 545.5,-118 545.5,-77 702.5,-77 702.5,-118"/>
<text text-anchor="start" x="553.5" y="-106" font-family="Helvetica,sans-Serif" font-size="10.00">/home/runner/work/Weaver</text>
<text text-anchor="start" x="553.5" y="-95" font-family="Helvetica,sans-Serif" font-size="10.00">/Weaver/include/App/Model</text>
<text text-anchor="middle" x="624" y="-84" font-family="Helvetica,sans-Serif" font-size="10.00">/IBM/Landscape/Landscape.h</text>
</a>
</g>
</g>
<!-- Node1&#45;&gt;Node2 -->
<g id="edge1_Node000001_Node000002" class="edge">
<title>Node1&#45;&gt;Node2</title>
<g id="a_edge1_Node000001_Node000002"><a xlink:title=" ">
<path fill="none" stroke="#63b8ff" d="M138.34,-886.37C77.5,-855.9 0,-802.05 0,-725.5 0,-725.5 0,-725.5 0,-256 0,-144.76 377.53,-111.28 545.29,-101.9"/>
<polygon fill="#63b8ff" stroke="#63b8ff" points="137.04,-889.64 147.56,-890.88 140.11,-883.35 137.04,-889.64"/>
</a>
</g>
</g>
<!-- Node7 -->
<g id="Node000007" class="node">
<title>Node7</title>
<g id="a_Node000007"><a xlink:href="BranchCellHabitatDomain_8h.html" target="_top" xlink:title="Defines the BranchCellHabitatDomain class for managing habitat domains in branch terrain cells.">
<polygon fill="white" stroke="#666666" points="261.5,-756 28.5,-756 28.5,-693 261.5,-693 261.5,-756"/>
<text text-anchor="start" x="36.5" y="-744" font-family="Helvetica,sans-Serif" font-size="10.00">/home/runner/work/Weaver</text>
<text text-anchor="start" x="36.5" y="-733" font-family="Helvetica,sans-Serif" font-size="10.00">/Weaver/include/App/Model</text>
<text text-anchor="start" x="36.5" y="-722" font-family="Helvetica,sans-Serif" font-size="10.00">/IBM/Landscape/Map/SpatialTree</text>
<text text-anchor="start" x="36.5" y="-711" font-family="Helvetica,sans-Serif" font-size="10.00">/TerrainCells/PatchApplicator</text>
<text text-anchor="middle" x="145" y="-700" font-family="Helvetica,sans-Serif" font-size="10.00">/HabitatDomain/BranchCellHabitatDomain.h</text>
</a>
</g>
</g>
<!-- Node1&#45;&gt;Node7 -->
<g id="edge6_Node000001_Node000007" class="edge">
<title>Node1&#45;&gt;Node7</title>
<g id="a_edge6_Node000001_Node000007"><a xlink:title=" ">
<path fill="none" stroke="#63b8ff" d="M195.27,-881.58C191.75,-872.96 188.12,-863.69 185,-855 173.01,-821.55 161.25,-782.51 153.62,-756.11"/>
<polygon fill="#63b8ff" stroke="#63b8ff" points="192.09,-883.07 199.15,-890.97 198.56,-880.39 192.09,-883.07"/>
</a>
</g>
</g>
<!-- Node12 -->
<g id="Node000012" class="node">
<title>Node12</title>
<g id="a_Node000012"><a xlink:href="CellHabitatDomainInterface_8h.html" target="_top" xlink:title="Declares the CellHabitatDomainInterface class, which stores and manages habitat&#45;domain information fo...">
<polygon fill="white" stroke="#666666" points="370.5,-855 193.5,-855 193.5,-792 370.5,-792 370.5,-855"/>
<text text-anchor="start" x="201.5" y="-843" font-family="Helvetica,sans-Serif" font-size="10.00">/home/runner/work/Weaver</text>
<text text-anchor="start" x="201.5" y="-832" font-family="Helvetica,sans-Serif" font-size="10.00">/Weaver/include/App/Model</text>
<text text-anchor="start" x="201.5" y="-821" font-family="Helvetica,sans-Serif" font-size="10.00">/IBM/Landscape/Map/TerrainCells</text>
<text text-anchor="start" x="201.5" y="-810" font-family="Helvetica,sans-Serif" font-size="10.00">/PatchApplicator/HabitatDomain</text>
<text text-anchor="middle" x="282" y="-799" font-family="Helvetica,sans-Serif" font-size="10.00">/CellHabitatDomainInterface.h</text>
</a>
</g>
</g>
<!-- Node1&#45;&gt;Node12 -->
<g id="edge12_Node000001_Node000012" class="edge">
<title>Node1&#45;&gt;Node12</title>
<g id="a_edge12_Node000001_Node000012"><a xlink:title=" ">
<path fill="none" stroke="#63b8ff" d="M236.05,-882.89C243.22,-873.79 250.95,-863.96 257.99,-855.02"/>
<polygon fill="#63b8ff" stroke="#63b8ff" points="233.11,-880.97 229.67,-891 238.61,-885.3 233.11,-880.97"/>
</a>
</g>
</g>
<!-- Node16 -->
<g id="Node000016" class="node">
<title>Node16</title>
<g id="a_Node000016"><a xlink:href="PatchApplicator_8h.html" target="_top" xlink:title="Defines the PatchApplicator class responsible for applying patches (moisture, resource,...">
<polygon fill="white" stroke="#666666" points="519,-750.5 337,-750.5 337,-698.5 519,-698.5 519,-750.5"/>
<text text-anchor="start" x="345" y="-738.5" font-family="Helvetica,sans-Serif" font-size="10.00">/home/runner/work/Weaver</text>
<text text-anchor="start" x="345" y="-727.5" font-family="Helvetica,sans-Serif" font-size="10.00">/Weaver/include/App/Model</text>
<text text-anchor="start" x="345" y="-716.5" font-family="Helvetica,sans-Serif" font-size="10.00">/IBM/Landscape/Map/TerrainCells</text>
<text text-anchor="middle" x="428" y="-705.5" font-family="Helvetica,sans-Serif" font-size="10.00">/PatchApplicator/PatchApplicator.h</text>
</a>
</g>
</g>
<!-- Node1&#45;&gt;Node16 -->
<g id="edge33_Node000001_Node000016" class="edge">
<title>Node1&#45;&gt;Node16</title>
<g id="a_edge33_Node000001_Node000016"><a xlink:title=" ">
<path fill="none" stroke="#63b8ff" d="M306.08,-897.48C332.74,-888.4 359.85,-874.94 380,-855 408.72,-826.58 420.43,-779.47 425.08,-750.58"/>
<polygon fill="#63b8ff" stroke="#63b8ff" points="304.75,-894.23 296.3,-900.63 306.89,-900.89 304.75,-894.23"/>
</a>
</g>
</g>
<!-- Node3 -->
<g id="Node000003" class="node">
<title>Node3</title>
<g id="a_Node000003"><a xlink:href="IBM_8h.html" target="_top" xlink:title="Definition of the IBM class, representing the core individual&#45;based model of the simulation.">
<polygon fill="white" stroke="#666666" points="399.5,-41 250.5,-41 250.5,0 399.5,0 399.5,-41"/>
<text text-anchor="start" x="258.5" y="-29" font-family="Helvetica,sans-Serif" font-size="10.00">/home/runner/work/Weaver</text>
<text text-anchor="start" x="258.5" y="-18" font-family="Helvetica,sans-Serif" font-size="10.00">/Weaver/include/App/Model</text>
<text text-anchor="middle" x="325" y="-7" font-family="Helvetica,sans-Serif" font-size="10.00">/IBM/IBM.h</text>
</a>
</g>
</g>
<!-- Node2&#45;&gt;Node3 -->
<g id="edge2_Node000002_Node000003" class="edge">
<title>Node2&#45;&gt;Node3</title>
<g id="a_edge2_Node000002_Node000003"><a xlink:title=" ">
<path fill="none" stroke="#63b8ff" d="M536.52,-74.56C493.06,-63.65 441.1,-50.62 399.55,-40.2"/>
<polygon fill="#63b8ff" stroke="#63b8ff" points="535.67,-77.95 546.22,-76.99 537.37,-71.16 535.67,-77.95"/>
</a>
</g>
</g>
<!-- Node4 -->
<g id="Node000004" class="node">
<title>Node4</title>
<g id="a_Node000004"><a xlink:href="AquaticLandscape_8h.html" target="_top" xlink:title="Defines the AquaticLandscape class for aquatic ecosystem simulations.">
<polygon fill="white" stroke="#666666" points="611,-41 417,-41 417,0 611,0 611,-41"/>
<text text-anchor="start" x="425" y="-29" font-family="Helvetica,sans-Serif" font-size="10.00">/home/runner/work/Weaver</text>
<text text-anchor="start" x="425" y="-18" font-family="Helvetica,sans-Serif" font-size="10.00">/Weaver/include/App/Model</text>
<text text-anchor="middle" x="514" y="-7" font-family="Helvetica,sans-Serif" font-size="10.00">/IBM/Landscape/AquaticLandscape.h</text>
</a>
</g>
</g>
<!-- Node2&#45;&gt;Node4 -->
<g id="edge3_Node000002_Node000004" class="edge">
<title>Node2&#45;&gt;Node4</title>
<g id="a_edge3_Node000002_Node000004"><a xlink:title=" ">
<path fill="none" stroke="#63b8ff" d="M586.74,-71.09C572.4,-61.32 556.28,-50.32 542.85,-41.17"/>
<polygon fill="#63b8ff" stroke="#63b8ff" points="585.15,-74.25 595.39,-76.99 589.1,-68.47 585.15,-74.25"/>
</a>
</g>
</g>
<!-- Node5 -->
<g id="Node000005" class="node">
<title>Node5</title>
<g id="a_Node000005"><a xlink:href="ArthropodsLandscape_8h.html" target="_top" xlink:title="Defines the ArthropodsLandscape class for arthropod&#45;specific ecosystem simulations.">
<polygon fill="white" stroke="#666666" points="839,-41 629,-41 629,0 839,0 839,-41"/>
<text text-anchor="start" x="637" y="-29" font-family="Helvetica,sans-Serif" font-size="10.00">/home/runner/work/Weaver</text>
<text text-anchor="start" x="637" y="-18" font-family="Helvetica,sans-Serif" font-size="10.00">/Weaver/include/App/Model</text>
<text text-anchor="middle" x="734" y="-7" font-family="Helvetica,sans-Serif" font-size="10.00">/IBM/Landscape/ArthropodsLandscape.h</text>
</a>
</g>
</g>
<!-- Node2&#45;&gt;Node5 -->
<g id="edge4_Node000002_Node000005" class="edge">
<title>Node2&#45;&gt;Node5</title>
<g id="a_edge4_Node000002_Node000005"><a xlink:title=" ">
<path fill="none" stroke="#63b8ff" d="M661.26,-71.09C675.6,-61.32 691.72,-50.32 705.15,-41.17"/>
<polygon fill="#63b8ff" stroke="#63b8ff" points="658.9,-68.47 652.61,-76.99 662.85,-74.25 658.9,-68.47"/>
</a>
</g>
</g>
<!-- Node6 -->
<g id="Node000006" class="node">
<title>Node6</title>
<g id="a_Node000006"><a xlink:href="DinosaursLandscape_8h.html" target="_top" xlink:title="Defines the DinosaursLandscape class for dinosaur&#45;specific ecosystem simulations.">
<polygon fill="white" stroke="#666666" points="1063,-41 857,-41 857,0 1063,0 1063,-41"/>
<text text-anchor="start" x="865" y="-29" font-family="Helvetica,sans-Serif" font-size="10.00">/home/runner/work/Weaver</text>
<text text-anchor="start" x="865" y="-18" font-family="Helvetica,sans-Serif" font-size="10.00">/Weaver/include/App/Model</text>
<text text-anchor="middle" x="960" y="-7" font-family="Helvetica,sans-Serif" font-size="10.00">/IBM/Landscape/DinosaursLandscape.h</text>
</a>
</g>
</g>
<!-- Node2&#45;&gt;Node6 -->
<g id="edge5_Node000002_Node000006" class="edge">
<title>Node2&#45;&gt;Node6</title>
<g id="a_edge5_Node000002_Node000006"><a xlink:title=" ">
<path fill="none" stroke="#63b8ff" d="M712.81,-76.68C762.19,-65.66 823.4,-51.99 872.56,-41.02"/>
<polygon fill="#63b8ff" stroke="#63b8ff" points="711.77,-73.32 702.78,-78.92 713.3,-80.15 711.77,-73.32"/>
</a>
</g>
</g>
<!-- Node8 -->
<g id="Node000008" class="node">
<title>Node8</title>
<g id="a_Node000008"><a xlink:href="BranchPatchApplicator_8h.html" target="_top" xlink:title="Defines the BranchPatchApplicator class for applying patches to branch terrain cells in a spatial tre...">
<polygon fill="white" stroke="#666666" points="202,-558 28,-558 28,-495 202,-495 202,-558"/>
<text text-anchor="start" x="36" y="-546" font-family="Helvetica,sans-Serif" font-size="10.00">/home/runner/work/Weaver</text>
<text text-anchor="start" x="36" y="-535" font-family="Helvetica,sans-Serif" font-size="10.00">/Weaver/include/App/Model</text>
<text text-anchor="start" x="36" y="-524" font-family="Helvetica,sans-Serif" font-size="10.00">/IBM/Landscape/Map/SpatialTree</text>
<text text-anchor="start" x="36" y="-513" font-family="Helvetica,sans-Serif" font-size="10.00">/TerrainCells/PatchApplicator</text>
<text text-anchor="middle" x="115" y="-502" font-family="Helvetica,sans-Serif" font-size="10.00">/BranchPatchApplicator.h</text>
</a>
</g>
</g>
<!-- Node7&#45;&gt;Node8 -->
<g id="edge7_Node000007_Node000008" class="edge">
<title>Node7&#45;&gt;Node8</title>
<g id="a_edge7_Node000007_Node000008"><a xlink:title=" ">
<path fill="none" stroke="#63b8ff" d="M138.79,-682.9C133.11,-645.83 124.85,-591.84 119.7,-558.23"/>
<polygon fill="#63b8ff" stroke="#63b8ff" points="135.34,-683.52 140.31,-692.88 142.26,-682.46 135.34,-683.52"/>
</a>
</g>
</g>
<!-- Node9 -->
<g id="Node000009" class="node">
<title>Node9</title>
<g id="a_Node000009"><a xlink:href="BranchTerrainCell_8h.html" target="_top" xlink:title="Branch node implementation of a spatial tree terrain cell.">
<polygon fill="white" stroke="#666666" points="487,-371 313,-371 313,-319 487,-319 487,-371"/>
<text text-anchor="start" x="321" y="-359" font-family="Helvetica,sans-Serif" font-size="10.00">/home/runner/work/Weaver</text>
<text text-anchor="start" x="321" y="-348" font-family="Helvetica,sans-Serif" font-size="10.00">/Weaver/include/App/Model</text>
<text text-anchor="start" x="321" y="-337" font-family="Helvetica,sans-Serif" font-size="10.00">/IBM/Landscape/Map/SpatialTree</text>
<text text-anchor="middle" x="400" y="-326" font-family="Helvetica,sans-Serif" font-size="10.00">/TerrainCells/BranchTerrainCell.h</text>
</a>
</g>
</g>
<!-- Node8&#45;&gt;Node9 -->
<g id="edge8_Node000008_Node000009" class="edge">
<title>Node8&#45;&gt;Node9</title>
<g id="a_edge8_Node000008_Node000009"><a xlink:title=" ">
<path fill="none" stroke="#63b8ff" d="M168.44,-488.86C203.72,-464.98 251.18,-433.46 294,-407 313.78,-394.78 336.03,-381.85 355.02,-371.06"/>
<polygon fill="#63b8ff" stroke="#63b8ff" points="166.05,-486.25 159.74,-494.76 169.98,-492.04 166.05,-486.25"/>
</a>
</g>
</g>
<!-- Node10 -->
<g id="Node000010" class="node">
<title>Node10</title>
<g id="a_Node000010"><a xlink:href="RootTerrainCell_8h.html" target="_top" xlink:title="Defines the RootTerrainCell class, the top&#45;level node of the spatial tree in the landscape.">
<polygon fill="white" stroke="#666666" points="496,-283 322,-283 322,-231 496,-231 496,-283"/>
<text text-anchor="start" x="330" y="-271" font-family="Helvetica,sans-Serif" font-size="10.00">/home/runner/work/Weaver</text>
<text text-anchor="start" x="330" y="-260" font-family="Helvetica,sans-Serif" font-size="10.00">/Weaver/include/App/Model</text>
<text text-anchor="start" x="330" y="-249" font-family="Helvetica,sans-Serif" font-size="10.00">/IBM/Landscape/Map/SpatialTree</text>
<text text-anchor="middle" x="409" y="-238" font-family="Helvetica,sans-Serif" font-size="10.00">/TerrainCells/RootTerrainCell.h</text>
</a>
</g>
</g>
<!-- Node9&#45;&gt;Node10 -->
<g id="edge9_Node000009_Node000010" class="edge">
<title>Node9&#45;&gt;Node10</title>
<g id="a_edge9_Node000009_Node000010"><a xlink:title=" ">
<path fill="none" stroke="#63b8ff" d="M403.71,-308.56C404.6,-300.04 405.54,-291.1 406.37,-283.16"/>
<polygon fill="#63b8ff" stroke="#63b8ff" points="400.21,-308.35 402.65,-318.66 407.17,-309.08 400.21,-308.35"/>
</a>
</g>
</g>
<!-- Node11 -->
<g id="Node000011" class="node">
<title>Node11</title>
<g id="a_Node000011"><a xlink:href="SpatialTree_8h.html" target="_top" xlink:title="Defines the SpatialTree class, a spatially subdivided map implementation.">
<polygon fill="white" stroke="#666666" points="655.5,-195 472.5,-195 472.5,-154 655.5,-154 655.5,-195"/>
<text text-anchor="start" x="480.5" y="-183" font-family="Helvetica,sans-Serif" font-size="10.00">/home/runner/work/Weaver</text>
<text text-anchor="start" x="480.5" y="-172" font-family="Helvetica,sans-Serif" font-size="10.00">/Weaver/include/App/Model</text>
<text text-anchor="middle" x="564" y="-161" font-family="Helvetica,sans-Serif" font-size="10.00">/IBM/Landscape/Map/SpatialTree.h</text>
</a>
</g>
</g>
<!-- Node10&#45;&gt;Node11 -->
<g id="edge10_Node000010_Node000011" class="edge">
<title>Node10&#45;&gt;Node11</title>
<g id="a_edge10_Node000010_Node000011"><a xlink:title=" ">
<path fill="none" stroke="#63b8ff" d="M466.22,-226.28C486.22,-215.89 508.16,-204.5 526.17,-195.15"/>
<polygon fill="#63b8ff" stroke="#63b8ff" points="464.45,-223.26 457.19,-230.97 467.68,-229.47 464.45,-223.26"/>
</a>
</g>
</g>
<!-- Node11&#45;&gt;Node2 -->
<g id="edge11_Node000011_Node000002" class="edge">
<title>Node11&#45;&gt;Node2</title>
<g id="a_edge11_Node000011_Node000002"><a xlink:title=" ">
<path fill="none" stroke="#63b8ff" d="M586.04,-145.95C593.44,-136.7 601.53,-126.58 608.34,-118.07"/>
<polygon fill="#63b8ff" stroke="#63b8ff" points="583.28,-143.8 579.76,-153.79 588.74,-148.17 583.28,-143.8"/>
</a>
</g>
</g>
<!-- Node12&#45;&gt;Node7 -->
<g id="edge13_Node000012_Node000007" class="edge">
<title>Node12&#45;&gt;Node7</title>
<g id="a_edge13_Node000012_Node000007"><a xlink:title=" ">
<path fill="none" stroke="#63b8ff" d="M230.24,-785.85C216.5,-776.12 201.79,-765.71 188.54,-756.32"/>
<polygon fill="#63b8ff" stroke="#63b8ff" points="228.47,-788.89 238.65,-791.81 232.51,-783.17 228.47,-788.89"/>
</a>
</g>
</g>
<!-- Node13 -->
<g id="Node000013" class="node">
<title>Node13</title>
<g id="a_Node000013"><a xlink:href="CellHabitatDomain_8h.html" target="_top" xlink:title="Declares the CellHabitatDomain class, a concrete implementation of CellHabitatDomainInterface represe...">
<polygon fill="white" stroke="#666666" points="327.5,-657 150.5,-657 150.5,-594 327.5,-594 327.5,-657"/>
<text text-anchor="start" x="158.5" y="-645" font-family="Helvetica,sans-Serif" font-size="10.00">/home/runner/work/Weaver</text>
<text text-anchor="start" x="158.5" y="-634" font-family="Helvetica,sans-Serif" font-size="10.00">/Weaver/include/App/Model</text>
<text text-anchor="start" x="158.5" y="-623" font-family="Helvetica,sans-Serif" font-size="10.00">/IBM/Landscape/Map/TerrainCells</text>
<text text-anchor="start" x="158.5" y="-612" font-family="Helvetica,sans-Serif" font-size="10.00">/PatchApplicator/HabitatDomain</text>
<text text-anchor="middle" x="239" y="-601" font-family="Helvetica,sans-Serif" font-size="10.00">/CellHabitatDomain.h</text>
</a>
</g>
</g>
<!-- Node12&#45;&gt;Node13 -->
<g id="edge14_Node000012_Node000013" class="edge">
<title>Node12&#45;&gt;Node13</title>
<g id="a_edge14_Node000012_Node000013"><a xlink:title=" ">
<path fill="none" stroke="#63b8ff" d="M281.79,-781.71C280.78,-755.89 277.85,-722.02 270,-693 266.71,-680.83 261.32,-668.12 255.96,-657.12"/>
<polygon fill="#63b8ff" stroke="#63b8ff" points="278.3,-782 282.1,-791.89 285.29,-781.78 278.3,-782"/>
</a>
</g>
</g>
<!-- Node12&#45;&gt;Node16 -->
<g id="edge18_Node000012_Node000016" class="edge">
<title>Node12&#45;&gt;Node16</title>
<g id="a_edge18_Node000012_Node000016"><a xlink:title=" ">
<path fill="none" stroke="#63b8ff" d="M336.75,-786.13C354.46,-774.36 373.7,-761.58 389.93,-750.8"/>
<polygon fill="#63b8ff" stroke="#63b8ff" points="334.59,-783.36 328.2,-791.81 338.46,-789.19 334.59,-783.36"/>
</a>
</g>
</g>
<!-- Node14 -->
<g id="Node000014" class="node">
<title>Node14</title>
<g id="a_Node000014"><a xlink:href="LeafPatchApplicator_8h.html" target="_top" xlink:title="Defines the LeafPatchApplicator class for applying patches to leaf terrain cells in a spatial tree.">
<polygon fill="white" stroke="#666666" points="394,-558 220,-558 220,-495 394,-495 394,-558"/>
<text text-anchor="start" x="228" y="-546" font-family="Helvetica,sans-Serif" font-size="10.00">/home/runner/work/Weaver</text>
<text text-anchor="start" x="228" y="-535" font-family="Helvetica,sans-Serif" font-size="10.00">/Weaver/include/App/Model</text>
<text text-anchor="start" x="228" y="-524" font-family="Helvetica,sans-Serif" font-size="10.00">/IBM/Landscape/Map/SpatialTree</text>
<text text-anchor="start" x="228" y="-513" font-family="Helvetica,sans-Serif" font-size="10.00">/TerrainCells/PatchApplicator</text>
<text text-anchor="middle" x="307" y="-502" font-family="Helvetica,sans-Serif" font-size="10.00">/LeafPatchApplicator.h</text>
</a>
</g>
</g>
<!-- Node13&#45;&gt;Node14 -->
<g id="edge15_Node000013_Node000014" class="edge">
<title>Node13&#45;&gt;Node14</title>
<g id="a_edge15_Node000013_Node000014"><a xlink:title=" ">
<path fill="none" stroke="#63b8ff" d="M266.44,-585.36C272.75,-576.36 279.37,-566.91 285.39,-558.32"/>
<polygon fill="#63b8ff" stroke="#63b8ff" points="263.39,-583.61 260.52,-593.81 269.12,-587.63 263.39,-583.61"/>
</a>
</g>
</g>
<!-- Node15 -->
<g id="Node000015" class="node">
<title>Node15</title>
<g id="a_Node000015"><a xlink:href="LeafTerrainCell_8h.html" target="_top" xlink:title="Leaf node implementation of a spatial tree terrain cell.">
<polygon fill="white" stroke="#666666" points="477,-459 303,-459 303,-407 477,-407 477,-459"/>
<text text-anchor="start" x="311" y="-447" font-family="Helvetica,sans-Serif" font-size="10.00">/home/runner/work/Weaver</text>
<text text-anchor="start" x="311" y="-436" font-family="Helvetica,sans-Serif" font-size="10.00">/Weaver/include/App/Model</text>
<text text-anchor="start" x="311" y="-425" font-family="Helvetica,sans-Serif" font-size="10.00">/IBM/Landscape/Map/SpatialTree</text>
<text text-anchor="middle" x="390" y="-414" font-family="Helvetica,sans-Serif" font-size="10.00">/TerrainCells/LeafTerrainCell.h</text>
</a>
</g>
</g>
<!-- Node14&#45;&gt;Node15 -->
<g id="edge16_Node000014_Node000015" class="edge">
<title>Node14&#45;&gt;Node15</title>
<g id="a_edge16_Node000014_Node000015"><a xlink:title=" ">
<path fill="none" stroke="#63b8ff" d="M341.69,-487.26C350.34,-477.72 359.4,-467.73 367.31,-459.02"/>
<polygon fill="#63b8ff" stroke="#63b8ff" points="339,-485.02 334.87,-494.78 344.18,-489.72 339,-485.02"/>
</a>
</g>
</g>
<!-- Node15&#45;&gt;Node9 -->
<g id="edge17_Node000015_Node000009" class="edge">
<title>Node15&#45;&gt;Node9</title>
<g id="a_edge17_Node000015_Node000009"><a xlink:title=" ">
<path fill="none" stroke="#63b8ff" d="M394.12,-396.56C395.11,-388.04 396.15,-379.1 397.07,-371.16"/>
<polygon fill="#63b8ff" stroke="#63b8ff" points="390.62,-396.32 392.95,-406.66 397.58,-397.13 390.62,-396.32"/>
</a>
</g>
</g>
<!-- Node17 -->
<g id="Node000017" class="node">
<title>Node17</title>
<g id="a_Node000017"><a xlink:href="SpatialTreePatchApplicator_8h.html" target="_top" xlink:title="Defines the SpatialTreePatchApplicator class for applying patches in a spatial tree of terrain cells.">
<polygon fill="white" stroke="#666666" points="520,-657 346,-657 346,-594 520,-594 520,-657"/>
<text text-anchor="start" x="354" y="-645" font-family="Helvetica,sans-Serif" font-size="10.00">/home/runner/work/Weaver</text>
<text text-anchor="start" x="354" y="-634" font-family="Helvetica,sans-Serif" font-size="10.00">/Weaver/include/App/Model</text>
<text text-anchor="start" x="354" y="-623" font-family="Helvetica,sans-Serif" font-size="10.00">/IBM/Landscape/Map/SpatialTree</text>
<text text-anchor="start" x="354" y="-612" font-family="Helvetica,sans-Serif" font-size="10.00">/TerrainCells/PatchApplicator</text>
<text text-anchor="middle" x="433" y="-601" font-family="Helvetica,sans-Serif" font-size="10.00">/SpatialTreePatchApplicator.h</text>
</a>
</g>
</g>
<!-- Node16&#45;&gt;Node17 -->
<g id="edge19_Node000016_Node000017" class="edge">
<title>Node16&#45;&gt;Node17</title>
<g id="a_edge19_Node000016_Node000017"><a xlink:title=" ">
<path fill="none" stroke="#63b8ff" d="M429.83,-688.08C430.35,-677.94 430.91,-666.97 431.42,-657.14"/>
<polygon fill="#63b8ff" stroke="#63b8ff" points="426.32,-688.1 429.3,-698.27 433.31,-688.46 426.32,-688.1"/>
</a>
</g>
</g>
<!-- Node19 -->
<g id="Node000019" class="node">
<title>Node19</title>
<g id="a_Node000019"><a xlink:href="TerrainCell_8h.html" target="_top" xlink:title="Defines the TerrainCell class representing a cell in the landscape.">
<polygon fill="white" stroke="#666666" points="722.5,-651.5 545.5,-651.5 545.5,-599.5 722.5,-599.5 722.5,-651.5"/>
<text text-anchor="start" x="553.5" y="-639.5" font-family="Helvetica,sans-Serif" font-size="10.00">/home/runner/work/Weaver</text>
<text text-anchor="start" x="553.5" y="-628.5" font-family="Helvetica,sans-Serif" font-size="10.00">/Weaver/include/App/Model</text>
<text text-anchor="start" x="553.5" y="-617.5" font-family="Helvetica,sans-Serif" font-size="10.00">/IBM/Landscape/Map/TerrainCells</text>
<text text-anchor="middle" x="634" y="-606.5" font-family="Helvetica,sans-Serif" font-size="10.00">/TerrainCell.h</text>
</a>
</g>
</g>
<!-- Node16&#45;&gt;Node19 -->
<g id="edge26_Node000016_Node000019" class="edge">
<title>Node16&#45;&gt;Node19</title>
<g id="a_edge26_Node000016_Node000019"><a xlink:title=" ">
<path fill="none" stroke="#63b8ff" d="M490.5,-694.07C519.37,-680.48 553.29,-664.5 580.91,-651.5"/>
<polygon fill="#63b8ff" stroke="#63b8ff" points="488.87,-690.97 481.32,-698.39 491.86,-697.3 488.87,-690.97"/>
</a>
</g>
</g>
<!-- Node17&#45;&gt;Node8 -->
<g id="edge20_Node000017_Node000008" class="edge">
<title>Node17&#45;&gt;Node8</title>
<g id="a_edge20_Node000017_Node000008"><a xlink:title=" ">
<path fill="none" stroke="#63b8ff" d="M336.09,-593.76C279.6,-576.89 263.82,-573.93 211,-558 208.07,-557.12 205.09,-556.21 202.09,-555.29"/>
<polygon fill="#63b8ff" stroke="#63b8ff" points="335.33,-597.19 345.91,-596.71 337.34,-590.48 335.33,-597.19"/>
</a>
</g>
</g>
<!-- Node17&#45;&gt;Node14 -->
<g id="edge21_Node000017_Node000014" class="edge">
<title>Node17&#45;&gt;Node14</title>
<g id="a_edge21_Node000017_Node000014"><a xlink:title=" ">
<path fill="none" stroke="#63b8ff" d="M385.04,-587.58C372.5,-577.92 359.12,-567.62 347.04,-558.32"/>
<polygon fill="#63b8ff" stroke="#63b8ff" points="383.07,-590.48 393.13,-593.81 387.34,-584.94 383.07,-590.48"/>
</a>
</g>
</g>
<!-- Node18 -->
<g id="Node000018" class="node">
<title>Node18</title>
<g id="a_Node000018"><a xlink:href="SpatialTreeTerrainCell_8h.html" target="_top" xlink:title="Spatial tree implementation of a terrain cell.">
<polygon fill="white" stroke="#666666" points="606,-552.5 412,-552.5 412,-500.5 606,-500.5 606,-552.5"/>
<text text-anchor="start" x="420" y="-540.5" font-family="Helvetica,sans-Serif" font-size="10.00">/home/runner/work/Weaver</text>
<text text-anchor="start" x="420" y="-529.5" font-family="Helvetica,sans-Serif" font-size="10.00">/Weaver/include/App/Model</text>
<text text-anchor="start" x="420" y="-518.5" font-family="Helvetica,sans-Serif" font-size="10.00">/IBM/Landscape/Map/SpatialTree</text>
<text text-anchor="middle" x="509" y="-507.5" font-family="Helvetica,sans-Serif" font-size="10.00">/TerrainCells/SpatialTreeTerrainCell.h</text>
</a>
</g>
</g>
<!-- Node17&#45;&gt;Node18 -->
<g id="edge22_Node000017_Node000018" class="edge">
<title>Node17&#45;&gt;Node18</title>
<g id="a_edge22_Node000017_Node000018"><a xlink:title=" ">
<path fill="none" stroke="#63b8ff" d="M463.27,-585.87C471.99,-574.74 481.27,-562.89 489.18,-552.8"/>
<polygon fill="#63b8ff" stroke="#63b8ff" points="460.46,-583.78 457.05,-593.81 465.97,-588.1 460.46,-583.78"/>
</a>
</g>
</g>
<!-- Node18&#45;&gt;Node9 -->
<g id="edge24_Node000018_Node000009" class="edge">
<title>Node18&#45;&gt;Node9</title>
<g id="a_edge24_Node000018_Node000009"><a xlink:title=" ">
<path fill="none" stroke="#63b8ff" d="M508.94,-490.21C507.36,-465.2 502,-431.81 486,-407 476.77,-392.69 462.9,-380.73 448.98,-371.3"/>
<polygon fill="#63b8ff" stroke="#63b8ff" points="505.45,-490.54 509.4,-500.37 512.44,-490.22 505.45,-490.54"/>
</a>
</g>
</g>
<!-- Node18&#45;&gt;Node11 -->
<g id="edge23_Node000018_Node000011" class="edge">
<title>Node18&#45;&gt;Node11</title>
<g id="a_edge23_Node000018_Node000011"><a xlink:title=" ">
<path fill="none" stroke="#63b8ff" d="M514.54,-490.26C526,-417.34 551.99,-251.92 560.92,-195.1"/>
<polygon fill="#63b8ff" stroke="#63b8ff" points="511.05,-489.91 512.96,-500.33 517.97,-490.99 511.05,-489.91"/>
</a>
</g>
</g>
<!-- Node18&#45;&gt;Node15 -->
<g id="edge25_Node000018_Node000015" class="edge">
<title>Node18&#45;&gt;Node15</title>
<g id="a_edge25_Node000018_Node000015"><a xlink:title=" ">
<path fill="none" stroke="#63b8ff" d="M468.44,-494.31C453.59,-482.9 436.99,-470.13 422.89,-459.29"/>
<polygon fill="#63b8ff" stroke="#63b8ff" points="466.42,-497.18 476.48,-500.5 470.69,-491.63 466.42,-497.18"/>
</a>
</g>
</g>
<!-- Node19&#45;&gt;Node2 -->
<g id="edge27_Node000019_Node000002" class="edge">
<title>Node19&#45;&gt;Node2</title>
<g id="a_edge27_Node000019_Node000002"><a xlink:title=" ">
<path fill="none" stroke="#63b8ff" d="M681.59,-593.47C726.5,-560.02 787,-502.29 787,-434 787,-434 787,-434 787,-256 787,-189.89 716.8,-142.72 668.54,-118.1"/>
<polygon fill="#63b8ff" stroke="#63b8ff" points="679.43,-590.72 673.4,-599.43 683.55,-596.38 679.43,-590.72"/>
</a>
</g>
</g>
<!-- Node19&#45;&gt;Node11 -->
<g id="edge31_Node000019_Node000011" class="edge">
<title>Node19&#45;&gt;Node11</title>
<g id="a_edge31_Node000019_Node000011"><a xlink:title=" ">
<path fill="none" stroke="#63b8ff" d="M628.92,-589.03C625.16,-563 619.87,-526.78 615,-495 597.61,-381.45 575.46,-245.43 567.25,-195.3"/>
<polygon fill="#63b8ff" stroke="#63b8ff" points="625.49,-589.78 630.38,-599.18 632.42,-588.78 625.49,-589.78"/>
</a>
</g>
</g>
<!-- Node19&#45;&gt;Node18 -->
<g id="edge32_Node000019_Node000018" class="edge">
<title>Node19&#45;&gt;Node18</title>
<g id="a_edge32_Node000019_Node000018"><a xlink:title=" ">
<path fill="none" stroke="#63b8ff" d="M593.42,-593.01C576.55,-579.92 557.24,-564.94 541.35,-552.61"/>
<polygon fill="#63b8ff" stroke="#63b8ff" points="591.44,-595.9 601.48,-599.27 595.73,-590.37 591.44,-595.9"/>
</a>
</g>
</g>
<!-- Node20 -->
<g id="Node000020" class="node">
<title>Node20</title>
<g id="a_Node000020"><a xlink:href="Map_8h.html" target="_top" xlink:title="Defines the Map class for spatial organization of landscapes.">
<polygon fill="white" stroke="#666666" points="759,-277.5 609,-277.5 609,-236.5 759,-236.5 759,-277.5"/>
<text text-anchor="start" x="617" y="-265.5" font-family="Helvetica,sans-Serif" font-size="10.00">/home/runner/work/Weaver</text>
<text text-anchor="start" x="617" y="-254.5" font-family="Helvetica,sans-Serif" font-size="10.00">/Weaver/include/App/Model</text>
<text text-anchor="middle" x="684" y="-243.5" font-family="Helvetica,sans-Serif" font-size="10.00">/IBM/Landscape/Map/Map.h</text>
</a>
</g>
</g>
<!-- Node19&#45;&gt;Node20 -->
<g id="edge28_Node000019_Node000020" class="edge">
<title>Node19&#45;&gt;Node20</title>
<g id="a_edge28_Node000019_Node000020"><a xlink:title=" ">
<path fill="none" stroke="#63b8ff" d="M642.02,-589.26C644.15,-579.2 646.32,-568.19 648,-558 665.33,-452.93 677.81,-325.86 682.24,-277.74"/>
<polygon fill="#63b8ff" stroke="#63b8ff" points="638.54,-588.82 639.84,-599.34 645.38,-590.3 638.54,-588.82"/>
</a>
</g>
</g>
<!-- Node20&#45;&gt;Node2 -->
<g id="edge29_Node000020_Node000002" class="edge">
<title>Node20&#45;&gt;Node2</title>
<g id="a_edge29_Node000020_Node000002"><a xlink:title=" ">
<path fill="none" stroke="#63b8ff" d="M682.01,-226.24C679.77,-205.32 675.03,-177.07 665,-154 659.36,-141.04 650.21,-128.23 641.98,-118.19"/>
<polygon fill="#63b8ff" stroke="#63b8ff" points="678.55,-226.81 682.97,-236.44 685.52,-226.16 678.55,-226.81"/>
</a>
</g>
</g>
<!-- Node20&#45;&gt;Node11 -->
<g id="edge30_Node000020_Node000011" class="edge">
<title>Node20&#45;&gt;Node11</title>
<g id="a_edge30_Node000020_Node000011"><a xlink:title=" ">
<path fill="none" stroke="#63b8ff" d="M646.04,-230.54C629.05,-219.14 609.32,-205.9 593.47,-195.27"/>
<polygon fill="#63b8ff" stroke="#63b8ff" points="644.39,-233.64 654.64,-236.31 648.29,-227.83 644.39,-233.64"/>
</a>
</g>
</g>
</g>
</svg>
