<?xml version="1.0" encoding="UTF-8" standalone="no"?>
<!DOCTYPE svg PUBLIC "-//W3C//DTD SVG 1.1//EN"
 "http://www.w3.org/Graphics/SVG/1.1/DTD/svg11.dtd">
<!-- Generated by graphviz version 2.43.0 (0)
 -->
<!-- Title: Graphical Class Hierarchy Pages: 1 -->
<svg width="367pt" height="86pt"
 viewBox="0.00 0.00 367.00 86.00" xmlns="http://www.w3.org/2000/svg" xmlns:xlink="http://www.w3.org/1999/xlink">
<g id="graph0" class="graph" transform="scale(1 1) rotate(0) translate(4 82)">
<title>Graphical Class Hierarchy</title>
<!-- Node0 -->
<g id="Node000000" class="node">
<title>Node0</title>
<g id="a_Node000000"><a xlink:href="classIndividualTraitTemperatureSection.html" target="_top" xlink:title="Base class for handling temperature&#45;dependent effects on an individual trait.">
<polygon fill="white" stroke="#666666" points="147,-54 0,-54 0,-24 147,-24 147,-54"/>
<text text-anchor="start" x="8" y="-42" font-family="Helvetica,sans-Serif" font-size="10.00">IndividualTraitTemperature</text>
<text text-anchor="middle" x="73.5" y="-31" font-family="Helvetica,sans-Serif" font-size="10.00">Section</text>
</a>
</g>
</g>
<!-- Node1 -->
<g id="Node000001" class="node">
<title>Node1</title>
<g id="a_Node000001"><a xlink:href="classPawarIndividualTraitTemperatureSection.html" target="_top" xlink:title="Temperature&#45;dependent section of an individual trait using the Pawar model.">
<polygon fill="white" stroke="#666666" points="359,-78 183,-78 183,-48 359,-48 359,-78"/>
<text text-anchor="start" x="191" y="-66" font-family="Helvetica,sans-Serif" font-size="10.00">PawarIndividualTraitTemperature</text>
<text text-anchor="middle" x="271" y="-55" font-family="Helvetica,sans-Serif" font-size="10.00">Section</text>
</a>
</g>
</g>
<!-- Node0&#45;&gt;Node1 -->
<g id="edge49_Node000000_Node000001" class="edge">
<title>Node0&#45;&gt;Node1</title>
<g id="a_edge49_Node000000_Node000001"><a xlink:title=" ">
<path fill="none" stroke="#63b8ff" d="M157.21,-49.15C165.65,-50.19 174.23,-51.24 182.71,-52.28"/>
<polygon fill="#63b8ff" stroke="#63b8ff" points="157.37,-45.65 147.02,-47.9 156.52,-52.6 157.37,-45.65"/>
</a>
</g>
</g>
<!-- Node2 -->
<g id="Node000002" class="node">
<title>Node2</title>
<g id="a_Node000002"><a xlink:href="classTempSizeRuleIndividualTraitTemperatureSection.html" target="_top" xlink:title="Temperature&#45;dependent section of an individual trait following the Temperature&#45;Size Rule.">
<polygon fill="white" stroke="#666666" points="348,-30 194,-30 194,0 348,0 348,-30"/>
<text text-anchor="start" x="202" y="-18" font-family="Helvetica,sans-Serif" font-size="10.00">TempSizeRuleIndividualTrait</text>
<text text-anchor="middle" x="271" y="-7" font-family="Helvetica,sans-Serif" font-size="10.00">TemperatureSection</text>
</a>
</g>
</g>
<!-- Node0&#45;&gt;Node2 -->
<g id="edge50_Node000000_Node000002" class="edge">
<title>Node0&#45;&gt;Node2</title>
<g id="a_edge50_Node000000_Node000002"><a xlink:title=" ">
<path fill="none" stroke="#63b8ff" d="M157.18,-28.85C169.4,-27.35 181.93,-25.81 194,-24.33"/>
<polygon fill="#63b8ff" stroke="#63b8ff" points="156.52,-25.4 147.02,-30.1 157.37,-32.35 156.52,-25.4"/>
</a>
</g>
</g>
</g>
</svg>
