<?xml version="1.0" encoding="UTF-8" standalone="no"?>
<!DOCTYPE svg PUBLIC "-//W3C//DTD SVG 1.1//EN"
 "http://www.w3.org/Graphics/SVG/1.1/DTD/svg11.dtd">
<!-- Generated by graphviz version 2.43.0 (0)
 -->
<!-- Title: /home/runner/work/Weaver/Weaver/include/App/Model/IBM/Landscape/LivingBeings/Animals/Species/Genetics/Locus.h Pages: 1 -->
<!--zoomable 401 -->

<svg id="main" version="1.1" xmlns="http://www.w3.org/2000/svg" xmlns:xlink="http://www.w3.org/1999/xlink" xml:space="preserve" onload="init(evt)">
<style type="text/css"><![CDATA[
.node, .edge {opacity: 0.7;}
.node.selected, .edge.selected {opacity: 1;}
.edge:hover path { stroke: red; }
.edge:hover polygon { stroke: red; fill: red; }
]]></style>

<defs>
  <circle id="rim" cx="0" cy="0" r="7"/>
  <circle id="rim2" cx="0" cy="0" r="3.5"/>
  <g id="zoomPlus">
    <use xlink:href="#rim" fill="#404040"><set attributeName="fill" to="#808080" begin="zoomplus.mouseover" end="zoomplus.mouseout"/></use>
    <path d="M-4,0h8M0,-4v8" fill="none" stroke="white" stroke-width="1.5" pointer-events="none"/>
  </g>
  <g id="zoomMin">
    <use xlink:href="#rim" fill="#404040"><set attributeName="fill" to="#808080" begin="zoomminus.mouseover" end="zoomminus.mouseout"/></use>
    <path d="M-4,0h8" fill="none" stroke="white" stroke-width="1.5" pointer-events="none"/>
  </g>
  <g id="arrowUp" transform="translate(30 24)">
    <use xlink:href="#rim"/>
    <path pointer-events="none" fill="none" stroke="white" stroke-width="1.5" d="M0,-3.0v7 M-2.5,-0.5L0,-3.0L2.5,-0.5"/>
  </g>
  <g id="arrowRight" transform="rotate(90) translate(36 -43)">
    <use xlink:href="#rim"/>
    <path pointer-events="none" fill="none" stroke="white" stroke-width="1.5" d="M0,-3.0v7 M-2.5,-0.5L0,-3.0L2.5,-0.5"/>
  </g>
  <g id="arrowDown" transform="rotate(180) translate(-30 -48)">
    <use xlink:href="#rim"/>
    <path pointer-events="none" fill="none" stroke="white" stroke-width="1.5" d="M0,-3.0v7 M-2.5,-0.5L0,-3.0L2.5,-0.5"/>
  </g>
  <g id="arrowLeft" transform="rotate(270) translate(-36 17)">
    <use xlink:href="#rim"/>
    <path pointer-events="none" fill="none" stroke="white" stroke-width="1.5" d="M0,-3.0v7 M-2.5,-0.5L0,-3.0L2.5,-0.5"/>
  </g>
  <g id="resetDef">
    <use xlink:href="#rim2" fill="#404040"><set attributeName="fill" to="#808080" begin="reset.mouseover" end="reset.mouseout"/></use>
  </g>
</defs>
<script type="application/ecmascript">
var viewWidth = 1624;
var viewHeight = 401;
var sectionId = 'dynsection-0';
</script>
<script type="application/ecmascript" xlink:href="svg.min.js"/>
<svg id="graph" class="graph">
<g id="viewport">
<title>/home/runner/work/Weaver/Weaver/include/App/Model/IBM/Landscape/LivingBeings/Animals/Species/Genetics/Locus.h</title>
<!-- Node1 -->
<g id="Node000001" class="node">
<title>Node1</title>
<g id="a_Node000001"><a xlink:title="Defines the Locus class, representing a genetic locus containing multiple alleles.">
<polygon fill="#999999" stroke="#666666" points="440,-393 255,-393 255,-341 440,-341 440,-393"/>
<text text-anchor="start" x="263" y="-381" font-family="Helvetica,sans-Serif" font-size="10.00">/home/runner/work/Weaver</text>
<text text-anchor="start" x="263" y="-370" font-family="Helvetica,sans-Serif" font-size="10.00">/Weaver/include/App/Model</text>
<text text-anchor="start" x="263" y="-359" font-family="Helvetica,sans-Serif" font-size="10.00">/IBM/Landscape/LivingBeings</text>
<text text-anchor="middle" x="347.5" y="-348" font-family="Helvetica,sans-Serif" font-size="10.00">/Animals/Species/Genetics/Locus.h</text>
</a>
</g>
</g>
<!-- Node2 -->
<g id="Node000002" class="node">
<title>Node2</title>
<g id="a_Node000002"><a xlink:title=" ">
<polygon fill="#e0e0e0" stroke="#999999" points="47,-156.5 0,-156.5 0,-137.5 47,-137.5 47,-156.5"/>
<text text-anchor="middle" x="23.5" y="-144.5" font-family="Helvetica,sans-Serif" font-size="10.00">vector</text>
</a>
</g>
</g>
<!-- Node1&#45;&gt;Node2 -->
<g id="edge1_Node000001_Node000002" class="edge">
<title>Node1&#45;&gt;Node2</title>
<g id="a_edge1_Node000001_Node000002"><a xlink:title=" ">
<path fill="none" stroke="#63b8ff" d="M310.33,-340.99C242.14,-295.11 99.06,-198.84 44.9,-162.4"/>
<polygon fill="#63b8ff" stroke="#63b8ff" points="46.67,-159.37 36.42,-156.69 42.76,-165.18 46.67,-159.37"/>
</a>
</g>
</g>
<!-- Node3 -->
<g id="Node000003" class="node">
<title>Node3</title>
<g id="a_Node000003"><a xlink:title=" ">
<polygon fill="#e0e0e0" stroke="#999999" points="401,-299.5 294,-299.5 294,-269.5 401,-269.5 401,-299.5"/>
<text text-anchor="start" x="302" y="-287.5" font-family="Helvetica,sans-Serif" font-size="10.00">boost/serialization</text>
<text text-anchor="middle" x="347.5" y="-276.5" font-family="Helvetica,sans-Serif" font-size="10.00">/vector.hpp</text>
</a>
</g>
</g>
<!-- Node1&#45;&gt;Node3 -->
<g id="edge2_Node000001_Node000003" class="edge">
<title>Node1&#45;&gt;Node3</title>
<g id="a_edge2_Node000001_Node000003"><a xlink:title=" ">
<path fill="none" stroke="#63b8ff" d="M347.5,-340.97C347.5,-331.18 347.5,-319.98 347.5,-310.22"/>
<polygon fill="#63b8ff" stroke="#63b8ff" points="351,-309.96 347.5,-299.96 344,-309.96 351,-309.96"/>
</a>
</g>
</g>
<!-- Node4 -->
<g id="Node000004" class="node">
<title>Node4</title>
<g id="a_Node000004"><a xlink:href="Allele_8h.html" target="_top" xlink:title="Defines the Allele class, representing a genetic allele with a unique identifier, a numerical value,...">
<polygon fill="white" stroke="#666666" points="640,-305 495,-305 495,-264 640,-264 640,-305"/>
<text text-anchor="start" x="503" y="-293" font-family="Helvetica,sans-Serif" font-size="10.00">App/Model/IBM/Landscape</text>
<text text-anchor="start" x="503" y="-282" font-family="Helvetica,sans-Serif" font-size="10.00">/LivingBeings/Animals</text>
<text text-anchor="middle" x="567.5" y="-271" font-family="Helvetica,sans-Serif" font-size="10.00">/Species/Genetics/Allele.h</text>
</a>
</g>
</g>
<!-- Node1&#45;&gt;Node4 -->
<g id="edge3_Node000001_Node000004" class="edge">
<title>Node1&#45;&gt;Node4</title>
<g id="a_edge3_Node000001_Node000004"><a xlink:title=" ">
<path fill="none" stroke="#63b8ff" d="M415.9,-340.97C444.22,-330.61 476.86,-318.67 504.58,-308.52"/>
<polygon fill="#63b8ff" stroke="#63b8ff" points="505.97,-311.74 514.16,-305.02 503.57,-305.17 505.97,-311.74"/>
</a>
</g>
</g>
<!-- Node5 -->
<g id="Node000005" class="node">
<title>Node5</title>
<g id="a_Node000005"><a xlink:title=" ">
<polygon fill="#e0e0e0" stroke="#999999" points="687,-228 580,-228 580,-198 687,-198 687,-228"/>
<text text-anchor="start" x="588" y="-216" font-family="Helvetica,sans-Serif" font-size="10.00">boost/serialization</text>
<text text-anchor="middle" x="633.5" y="-205" font-family="Helvetica,sans-Serif" font-size="10.00">/export.hpp</text>
</a>
</g>
</g>
<!-- Node4&#45;&gt;Node5 -->
<g id="edge4_Node000004_Node000005" class="edge">
<title>Node4&#45;&gt;Node5</title>
<g id="a_edge4_Node000004_Node000005"><a xlink:title=" ">
<path fill="none" stroke="#63b8ff" d="M586.24,-263.77C594.61,-254.95 604.5,-244.54 613.06,-235.53"/>
<polygon fill="#63b8ff" stroke="#63b8ff" points="615.82,-237.7 620.17,-228.04 610.74,-232.88 615.82,-237.7"/>
</a>
</g>
</g>
<!-- Node6 -->
<g id="Node000006" class="node">
<title>Node6</title>
<g id="a_Node000006"><a xlink:title=" ">
<polygon fill="#e0e0e0" stroke="#999999" points="1276,-90.5 1219,-90.5 1219,-71.5 1276,-71.5 1276,-90.5"/>
<text text-anchor="middle" x="1247.5" y="-78.5" font-family="Helvetica,sans-Serif" font-size="10.00">ostream</text>
</a>
</g>
</g>
<!-- Node4&#45;&gt;Node6 -->
<g id="edge5_Node000004_Node000006" class="edge">
<title>Node4&#45;&gt;Node6</title>
<g id="a_edge5_Node000004_Node000006"><a xlink:title=" ">
<path fill="none" stroke="#63b8ff" d="M640.01,-275.52C782.39,-258.82 1092.58,-217.17 1183.5,-162 1208.51,-146.83 1227.79,-118.14 1238.39,-99.56"/>
<polygon fill="#63b8ff" stroke="#63b8ff" points="1241.53,-101.11 1243.25,-90.65 1235.39,-97.76 1241.53,-101.11"/>
</a>
</g>
</g>
<!-- Node7 -->
<g id="Node000007" class="node">
<title>Node7</title>
<g id="a_Node000007"><a xlink:href="Random_8h.html" target="_top" xlink:title="Defines the Random class that provides various random number generation utilities.">
<polygon fill="white" stroke="#666666" points="562,-228 439,-228 439,-198 562,-198 562,-228"/>
<text text-anchor="start" x="447" y="-216" font-family="Helvetica,sans-Serif" font-size="10.00">App/Model/IBM/Maths</text>
<text text-anchor="middle" x="500.5" y="-205" font-family="Helvetica,sans-Serif" font-size="10.00">/Random.h</text>
</a>
</g>
</g>
<!-- Node4&#45;&gt;Node7 -->
<g id="edge6_Node000004_Node000007" class="edge">
<title>Node4&#45;&gt;Node7</title>
<g id="a_edge6_Node000004_Node000007"><a xlink:title=" ">
<path fill="none" stroke="#63b8ff" d="M548.48,-263.77C539.9,-254.87 529.74,-244.33 520.99,-235.25"/>
<polygon fill="#63b8ff" stroke="#63b8ff" points="523.49,-232.81 514.03,-228.04 518.45,-237.67 523.49,-232.81"/>
</a>
</g>
</g>
<!-- Node7&#45;&gt;Node2 -->
<g id="edge12_Node000007_Node000002" class="edge">
<title>Node7&#45;&gt;Node2</title>
<g id="a_edge12_Node000007_Node000002"><a xlink:title=" ">
<path fill="none" stroke="#63b8ff" d="M438.96,-210.89C352.09,-208.03 189.15,-197.86 55.5,-162 53.61,-161.49 51.69,-160.89 49.78,-160.23"/>
<polygon fill="#63b8ff" stroke="#63b8ff" points="51.02,-156.95 40.43,-156.53 48.44,-163.46 51.02,-156.95"/>
</a>
</g>
</g>
<!-- Node8 -->
<g id="Node000008" class="node">
<title>Node8</title>
<g id="a_Node000008"><a xlink:title=" ">
<polygon fill="#e0e0e0" stroke="#999999" points="679,-24.5 632,-24.5 632,-5.5 679,-5.5 679,-24.5"/>
<text text-anchor="middle" x="655.5" y="-12.5" font-family="Helvetica,sans-Serif" font-size="10.00">cmath</text>
</a>
</g>
</g>
<!-- Node7&#45;&gt;Node8 -->
<g id="edge7_Node000007_Node000008" class="edge">
<title>Node7&#45;&gt;Node8</title>
<g id="a_edge7_Node000007_Node000008"><a xlink:title=" ">
<path fill="none" stroke="#63b8ff" d="M562.3,-199.46C565.07,-198.96 567.81,-198.47 570.5,-198 624.28,-188.64 777.84,-203.33 813.5,-162 822.21,-151.9 819.52,-143.9 813.5,-132 806.01,-117.22 718.46,-57.78 677.01,-30.2"/>
<polygon fill="#63b8ff" stroke="#63b8ff" points="678.72,-27.13 668.45,-24.52 674.85,-32.96 678.72,-27.13"/>
</a>
</g>
</g>
<!-- Node9 -->
<g id="Node000009" class="node">
<title>Node9</title>
<g id="a_Node000009"><a xlink:title=" ">
<polygon fill="#e0e0e0" stroke="#999999" points="1175,-156.5 1122,-156.5 1122,-137.5 1175,-137.5 1175,-156.5"/>
<text text-anchor="middle" x="1148.5" y="-144.5" font-family="Helvetica,sans-Serif" font-size="10.00">stdlib.h</text>
</a>
</g>
</g>
<!-- Node7&#45;&gt;Node9 -->
<g id="edge8_Node000007_Node000009" class="edge">
<title>Node7&#45;&gt;Node9</title>
<g id="a_edge8_Node000007_Node000009"><a xlink:title=" ">
<path fill="none" stroke="#63b8ff" d="M562.26,-199.19C565.04,-198.76 567.8,-198.36 570.5,-198 809.82,-166.26 876.83,-214.36 1112.5,-162 1115.02,-161.44 1117.6,-160.73 1120.16,-159.93"/>
<polygon fill="#63b8ff" stroke="#63b8ff" points="1121.52,-163.16 1129.78,-156.52 1119.19,-156.56 1121.52,-163.16"/>
</a>
</g>
</g>
<!-- Node10 -->
<g id="Node000010" class="node">
<title>Node10</title>
<g id="a_Node000010"><a xlink:title=" ">
<polygon fill="#e0e0e0" stroke="#999999" points="1615.5,-24.5 1555.5,-24.5 1555.5,-5.5 1615.5,-5.5 1615.5,-24.5"/>
<text text-anchor="middle" x="1585.5" y="-12.5" font-family="Helvetica,sans-Serif" font-size="10.00">iostream</text>
</a>
</g>
</g>
<!-- Node7&#45;&gt;Node10 -->
<g id="edge9_Node000007_Node000010" class="edge">
<title>Node7&#45;&gt;Node10</title>
<g id="a_edge9_Node000007_Node000010"><a xlink:title=" ">
<path fill="none" stroke="#63b8ff" d="M562.26,-199.16C565.04,-198.74 567.8,-198.35 570.5,-198 841.18,-163.15 915.01,-210.92 1183.5,-162 1280.58,-144.31 1302.81,-129.85 1395.5,-96 1453.89,-74.68 1520.5,-45.47 1557.3,-28.88"/>
<polygon fill="#63b8ff" stroke="#63b8ff" points="1559.19,-31.87 1566.86,-24.56 1556.31,-25.49 1559.19,-31.87"/>
</a>
</g>
</g>
<!-- Node11 -->
<g id="Node000011" class="node">
<title>Node11</title>
<g id="a_Node000011"><a xlink:title=" ">
<polygon fill="#e0e0e0" stroke="#999999" points="112,-156.5 65,-156.5 65,-137.5 112,-137.5 112,-156.5"/>
<text text-anchor="middle" x="88.5" y="-144.5" font-family="Helvetica,sans-Serif" font-size="10.00">float.h</text>
</a>
</g>
</g>
<!-- Node7&#45;&gt;Node11 -->
<g id="edge10_Node000007_Node000011" class="edge">
<title>Node7&#45;&gt;Node11</title>
<g id="a_edge10_Node000007_Node000011"><a xlink:title=" ">
<path fill="none" stroke="#63b8ff" d="M438.78,-208.98C362.93,-204.1 230.83,-191.81 121.5,-162 119.61,-161.48 117.68,-160.88 115.76,-160.23"/>
<polygon fill="#63b8ff" stroke="#63b8ff" points="116.93,-156.93 106.34,-156.6 114.42,-163.46 116.93,-156.93"/>
</a>
</g>
</g>
<!-- Node12 -->
<g id="Node000012" class="node">
<title>Node12</title>
<g id="a_Node000012"><a xlink:title=" ">
<polygon fill="#e0e0e0" stroke="#999999" points="162.5,-156.5 130.5,-156.5 130.5,-137.5 162.5,-137.5 162.5,-156.5"/>
<text text-anchor="middle" x="146.5" y="-144.5" font-family="Helvetica,sans-Serif" font-size="10.00">list</text>
</a>
</g>
</g>
<!-- Node7&#45;&gt;Node12 -->
<g id="edge11_Node000007_Node000012" class="edge">
<title>Node7&#45;&gt;Node12</title>
<g id="a_edge11_Node000007_Node000012"><a xlink:title=" ">
<path fill="none" stroke="#63b8ff" d="M438.91,-209.23C371.6,-204.7 261.39,-192.86 171.5,-162 170.64,-161.7 169.77,-161.38 168.9,-161.03"/>
<polygon fill="#63b8ff" stroke="#63b8ff" points="170.36,-157.85 159.84,-156.63 167.31,-164.15 170.36,-157.85"/>
</a>
</g>
</g>
<!-- Node13 -->
<g id="Node000013" class="node">
<title>Node13</title>
<g id="a_Node000013"><a xlink:title=" ">
<polygon fill="#e0e0e0" stroke="#999999" points="234.5,-156.5 180.5,-156.5 180.5,-137.5 234.5,-137.5 234.5,-156.5"/>
<text text-anchor="middle" x="207.5" y="-144.5" font-family="Helvetica,sans-Serif" font-size="10.00">random</text>
</a>
</g>
</g>
<!-- Node7&#45;&gt;Node13 -->
<g id="edge13_Node000007_Node000013" class="edge">
<title>Node7&#45;&gt;Node13</title>
<g id="a_edge13_Node000007_Node000013"><a xlink:title=" ">
<path fill="none" stroke="#63b8ff" d="M438.87,-202.13C387.52,-193.35 312.68,-179.24 248.5,-162 245.87,-161.29 243.16,-160.5 240.45,-159.67"/>
<polygon fill="#63b8ff" stroke="#63b8ff" points="241.34,-156.29 230.75,-156.54 239.19,-162.95 241.34,-156.29"/>
</a>
</g>
</g>
<!-- Node14 -->
<g id="Node000014" class="node">
<title>Node14</title>
<g id="a_Node000014"><a xlink:title=" ">
<polygon fill="#e0e0e0" stroke="#999999" points="429.5,-24.5 365.5,-24.5 365.5,-5.5 429.5,-5.5 429.5,-24.5"/>
<text text-anchor="middle" x="397.5" y="-12.5" font-family="Helvetica,sans-Serif" font-size="10.00">algorithm</text>
</a>
</g>
</g>
<!-- Node7&#45;&gt;Node14 -->
<g id="edge14_Node000007_Node000014" class="edge">
<title>Node7&#45;&gt;Node14</title>
<g id="a_edge14_Node000007_Node000014"><a xlink:title=" ">
<path fill="none" stroke="#63b8ff" d="M438.87,-206.41C381.13,-199.74 300.89,-186.32 281.5,-162 242.68,-113.32 327.66,-55.38 372.33,-29.57"/>
<polygon fill="#63b8ff" stroke="#63b8ff" points="374.21,-32.53 381.2,-24.57 370.77,-26.44 374.21,-32.53"/>
</a>
</g>
</g>
<!-- Node15 -->
<g id="Node000015" class="node">
<title>Node15</title>
<g id="a_Node000015"><a xlink:title=" ">
<polygon fill="#e0e0e0" stroke="#999999" points="348.5,-156.5 290.5,-156.5 290.5,-137.5 348.5,-137.5 348.5,-156.5"/>
<text text-anchor="middle" x="319.5" y="-144.5" font-family="Helvetica,sans-Serif" font-size="10.00">memory</text>
</a>
</g>
</g>
<!-- Node7&#45;&gt;Node15 -->
<g id="edge15_Node000007_Node000015" class="edge">
<title>Node7&#45;&gt;Node15</title>
<g id="a_edge15_Node000007_Node000015"><a xlink:title=" ">
<path fill="none" stroke="#63b8ff" d="M459.75,-197.96C431.11,-188.03 391.91,-174.35 357.5,-162 355.66,-161.34 353.78,-160.66 351.88,-159.97"/>
<polygon fill="#63b8ff" stroke="#63b8ff" points="352.98,-156.65 342.39,-156.5 350.58,-163.22 352.98,-156.65"/>
</a>
</g>
</g>
<!-- Node16 -->
<g id="Node000016" class="node">
<title>Node16</title>
<g id="a_Node000016"><a xlink:title=" ">
<polygon fill="#e0e0e0" stroke="#999999" points="476.5,-156.5 366.5,-156.5 366.5,-137.5 476.5,-137.5 476.5,-156.5"/>
<text text-anchor="middle" x="421.5" y="-144.5" font-family="Helvetica,sans-Serif" font-size="10.00">nlohmann/json.hpp</text>
</a>
</g>
</g>
<!-- Node7&#45;&gt;Node16 -->
<g id="edge16_Node000007_Node000016" class="edge">
<title>Node7&#45;&gt;Node16</title>
<g id="a_edge16_Node000007_Node000016"><a xlink:title=" ">
<path fill="none" stroke="#63b8ff" d="M482.97,-197.8C470.29,-187.53 453.18,-173.67 440.24,-163.18"/>
<polygon fill="#63b8ff" stroke="#63b8ff" points="442.39,-160.42 432.42,-156.84 437.98,-165.86 442.39,-160.42"/>
</a>
</g>
</g>
<!-- Node17 -->
<g id="Node000017" class="node">
<title>Node17</title>
<g id="a_Node000017"><a xlink:href="LineInfoException_8h.html" target="_top" xlink:title="Exception class with detailed file and line information for error reporting.">
<polygon fill="white" stroke="#666666" points="664,-156.5 495,-156.5 495,-137.5 664,-137.5 664,-156.5"/>
<text text-anchor="middle" x="579.5" y="-144.5" font-family="Helvetica,sans-Serif" font-size="10.00">Exceptions/LineInfoException.h</text>
</a>
</g>
</g>
<!-- Node7&#45;&gt;Node17 -->
<g id="edge17_Node000007_Node000017" class="edge">
<title>Node7&#45;&gt;Node17</title>
<g id="a_edge17_Node000007_Node000017"><a xlink:title=" ">
<path fill="none" stroke="#63b8ff" d="M518.03,-197.8C530.71,-187.53 547.82,-173.67 560.76,-163.18"/>
<polygon fill="#63b8ff" stroke="#63b8ff" points="563.02,-165.86 568.58,-156.84 558.61,-160.42 563.02,-165.86"/>
</a>
</g>
</g>
<!-- Node20 -->
<g id="Node000020" class="node">
<title>Node20</title>
<g id="a_Node000020"><a xlink:href="Constants_8h.html" target="_top" xlink:title="Mathematical and physical constants used throughout the project.">
<polygon fill="white" stroke="#666666" points="805,-162 682,-162 682,-132 805,-132 805,-162"/>
<text text-anchor="start" x="690" y="-150" font-family="Helvetica,sans-Serif" font-size="10.00">App/Model/IBM/Maths</text>
<text text-anchor="middle" x="743.5" y="-139" font-family="Helvetica,sans-Serif" font-size="10.00">/Constants.h</text>
</a>
</g>
</g>
<!-- Node7&#45;&gt;Node20 -->
<g id="edge20_Node000007_Node000020" class="edge">
<title>Node7&#45;&gt;Node20</title>
<g id="a_edge20_Node000007_Node000020"><a xlink:title=" ">
<path fill="none" stroke="#63b8ff" d="M553.83,-197.95C591.18,-188.12 641.24,-174.93 680.55,-164.58"/>
<polygon fill="#63b8ff" stroke="#63b8ff" points="681.52,-167.94 690.3,-162.01 679.74,-161.17 681.52,-167.94"/>
</a>
</g>
</g>
<!-- Node21 -->
<g id="Node000021" class="node">
<title>Node21</title>
<g id="a_Node000021"><a xlink:href="TimeUnits_8h.html" target="_top" xlink:title="Defines the TimeStep and Day classes for representing simulation time units.">
<polygon fill="white" stroke="#666666" points="1007,-162 862,-162 862,-132 1007,-132 1007,-162"/>
<text text-anchor="start" x="870" y="-150" font-family="Helvetica,sans-Serif" font-size="10.00">App/Model/IBM/Landscape</text>
<text text-anchor="middle" x="934.5" y="-139" font-family="Helvetica,sans-Serif" font-size="10.00">/LivingBeings/TimeUnits.h</text>
</a>
</g>
</g>
<!-- Node7&#45;&gt;Node21 -->
<g id="edge21_Node000007_Node000021" class="edge">
<title>Node7&#45;&gt;Node21</title>
<g id="a_edge21_Node000007_Node000021"><a xlink:title=" ">
<path fill="none" stroke="#63b8ff" d="M562.29,-199.4C565.06,-198.91 567.81,-198.44 570.5,-198 692.99,-177.81 724.65,-179.86 847.5,-162 848.97,-161.79 850.45,-161.57 851.94,-161.35"/>
<polygon fill="#63b8ff" stroke="#63b8ff" points="852.53,-164.8 861.89,-159.85 851.49,-157.88 852.53,-164.8"/>
</a>
</g>
</g>
<!-- Node29 -->
<g id="Node000029" class="node">
<title>Node29</title>
<g id="a_Node000029"><a xlink:href="Types_8h.html" target="_top" xlink:title="Defines common type aliases and constants used throughout the Weaver project.">
<polygon fill="white" stroke="#666666" points="1104,-156.5 1025,-156.5 1025,-137.5 1104,-137.5 1104,-156.5"/>
<text text-anchor="middle" x="1064.5" y="-144.5" font-family="Helvetica,sans-Serif" font-size="10.00">Misc/Types.h</text>
</a>
</g>
</g>
<!-- Node7&#45;&gt;Node29 -->
<g id="edge39_Node000007_Node000029" class="edge">
<title>Node7&#45;&gt;Node29</title>
<g id="a_edge39_Node000007_Node000029"><a xlink:title=" ">
<path fill="none" stroke="#63b8ff" d="M562.27,-199.24C565.05,-198.79 567.8,-198.38 570.5,-198 767.01,-170.5 820.26,-197.43 1015.5,-162 1019.71,-161.24 1024.08,-160.26 1028.4,-159.18"/>
<polygon fill="#63b8ff" stroke="#63b8ff" points="1029.53,-162.5 1038.28,-156.52 1027.71,-155.74 1029.53,-162.5"/>
</a>
</g>
</g>
<!-- Node18 -->
<g id="Node000018" class="node">
<title>Node18</title>
<g id="a_Node000018"><a xlink:title=" ">
<polygon fill="#e0e0e0" stroke="#999999" points="563,-90.5 498,-90.5 498,-71.5 563,-71.5 563,-90.5"/>
<text text-anchor="middle" x="530.5" y="-78.5" font-family="Helvetica,sans-Serif" font-size="10.00">exception</text>
</a>
</g>
</g>
<!-- Node17&#45;&gt;Node18 -->
<g id="edge18_Node000017_Node000018" class="edge">
<title>Node17&#45;&gt;Node18</title>
<g id="a_edge18_Node000017_Node000018"><a xlink:title=" ">
<path fill="none" stroke="#63b8ff" d="M572.89,-137.37C565.41,-127.59 553.03,-111.42 543.57,-99.08"/>
<polygon fill="#63b8ff" stroke="#63b8ff" points="546.18,-96.72 537.32,-90.91 540.62,-100.97 546.18,-96.72"/>
</a>
</g>
</g>
<!-- Node19 -->
<g id="Node000019" class="node">
<title>Node19</title>
<g id="a_Node000019"><a xlink:title=" ">
<polygon fill="#e0e0e0" stroke="#999999" points="613.5,-24.5 569.5,-24.5 569.5,-5.5 613.5,-5.5 613.5,-24.5"/>
<text text-anchor="middle" x="591.5" y="-12.5" font-family="Helvetica,sans-Serif" font-size="10.00">string</text>
</a>
</g>
</g>
<!-- Node17&#45;&gt;Node19 -->
<g id="edge19_Node000017_Node000019" class="edge">
<title>Node17&#45;&gt;Node19</title>
<g id="a_edge19_Node000017_Node000019"><a xlink:title=" ">
<path fill="none" stroke="#63b8ff" d="M580.29,-137.47C582.19,-116.82 587.1,-63.72 589.74,-35.04"/>
<polygon fill="#63b8ff" stroke="#63b8ff" points="593.26,-35.01 590.69,-24.73 586.29,-34.37 593.26,-35.01"/>
</a>
</g>
</g>
<!-- Node21&#45;&gt;Node6 -->
<g id="edge26_Node000021_Node000006" class="edge">
<title>Node21&#45;&gt;Node6</title>
<g id="a_edge26_Node000021_Node000006"><a xlink:title=" ">
<path fill="none" stroke="#63b8ff" d="M1007.21,-133.1C1085.34,-119.19 1199.71,-98.67 1209.5,-96 1211.93,-95.34 1214.43,-94.58 1216.93,-93.78"/>
<polygon fill="#63b8ff" stroke="#63b8ff" points="1218.1,-97.08 1226.41,-90.51 1215.81,-90.46 1218.1,-97.08"/>
</a>
</g>
</g>
<!-- Node21&#45;&gt;Node8 -->
<g id="edge27_Node000021_Node000008" class="edge">
<title>Node21&#45;&gt;Node8</title>
<g id="a_edge27_Node000021_Node000008"><a xlink:title=" ">
<path fill="none" stroke="#63b8ff" d="M899.57,-131.96C876.95,-122.52 847.05,-109.4 821.5,-96 798.89,-84.14 795.21,-77.68 772.5,-66 736.02,-47.24 725.18,-46.22 687.5,-30 686.5,-29.57 685.48,-29.13 684.45,-28.68"/>
<polygon fill="#63b8ff" stroke="#63b8ff" points="685.68,-25.4 675.11,-24.63 682.89,-31.82 685.68,-25.4"/>
</a>
</g>
</g>
<!-- Node22 -->
<g id="Node000022" class="node">
<title>Node22</title>
<g id="a_Node000022"><a xlink:title=" ">
<polygon fill="#e0e0e0" stroke="#999999" points="925,-30 820,-30 820,0 925,0 925,-30"/>
<text text-anchor="start" x="828" y="-18" font-family="Helvetica,sans-Serif" font-size="10.00">boost/archive/text</text>
<text text-anchor="middle" x="872.5" y="-7" font-family="Helvetica,sans-Serif" font-size="10.00">_iarchive.hpp</text>
</a>
</g>
</g>
<!-- Node21&#45;&gt;Node22 -->
<g id="edge22_Node000021_Node000022" class="edge">
<title>Node21&#45;&gt;Node22</title>
<g id="a_edge22_Node000021_Node000022"><a xlink:title=" ">
<path fill="none" stroke="#63b8ff" d="M918.84,-131.65C909.59,-122.34 898.37,-109.46 891.5,-96 882.56,-78.48 877.74,-56.64 875.19,-40.2"/>
<polygon fill="#63b8ff" stroke="#63b8ff" points="878.66,-39.72 873.83,-30.29 871.72,-40.67 878.66,-39.72"/>
</a>
</g>
</g>
<!-- Node23 -->
<g id="Node000023" class="node">
<title>Node23</title>
<g id="a_Node000023"><a xlink:title=" ">
<polygon fill="#e0e0e0" stroke="#999999" points="802,-30 697,-30 697,0 802,0 802,-30"/>
<text text-anchor="start" x="705" y="-18" font-family="Helvetica,sans-Serif" font-size="10.00">boost/archive/text</text>
<text text-anchor="middle" x="749.5" y="-7" font-family="Helvetica,sans-Serif" font-size="10.00">_oarchive.hpp</text>
</a>
</g>
</g>
<!-- Node21&#45;&gt;Node23 -->
<g id="edge23_Node000021_Node000023" class="edge">
<title>Node21&#45;&gt;Node23</title>
<g id="a_edge23_Node000021_Node000023"><a xlink:title=" ">
<path fill="none" stroke="#63b8ff" d="M914.35,-131.84C881.4,-108.69 815.91,-62.66 778.14,-36.13"/>
<polygon fill="#63b8ff" stroke="#63b8ff" points="779.82,-33.03 769.63,-30.14 775.8,-38.76 779.82,-33.03"/>
</a>
</g>
</g>
<!-- Node24 -->
<g id="Node000024" class="node">
<title>Node24</title>
<g id="a_Node000024"><a xlink:title=" ">
<polygon fill="#e0e0e0" stroke="#999999" points="1338.5,-30 1222.5,-30 1222.5,0 1338.5,0 1338.5,-30"/>
<text text-anchor="start" x="1230.5" y="-18" font-family="Helvetica,sans-Serif" font-size="10.00">boost/archive/binary</text>
<text text-anchor="middle" x="1280.5" y="-7" font-family="Helvetica,sans-Serif" font-size="10.00">_iarchive.hpp</text>
</a>
</g>
</g>
<!-- Node21&#45;&gt;Node24 -->
<g id="edge24_Node000021_Node000024" class="edge">
<title>Node21&#45;&gt;Node24</title>
<g id="a_edge24_Node000021_Node000024"><a xlink:title=" ">
<path fill="none" stroke="#63b8ff" d="M972.95,-131.9C999.99,-121.96 1037,-108.27 1069.5,-96 1104.25,-82.88 1112.78,-79.2 1147.5,-66 1176.02,-55.15 1208.03,-43.12 1233.5,-33.57"/>
<polygon fill="#63b8ff" stroke="#63b8ff" points="1234.78,-36.83 1242.92,-30.04 1232.33,-30.27 1234.78,-36.83"/>
</a>
</g>
</g>
<!-- Node25 -->
<g id="Node000025" class="node">
<title>Node25</title>
<g id="a_Node000025"><a xlink:title=" ">
<polygon fill="#e0e0e0" stroke="#999999" points="1204.5,-30 1088.5,-30 1088.5,0 1204.5,0 1204.5,-30"/>
<text text-anchor="start" x="1096.5" y="-18" font-family="Helvetica,sans-Serif" font-size="10.00">boost/archive/binary</text>
<text text-anchor="middle" x="1146.5" y="-7" font-family="Helvetica,sans-Serif" font-size="10.00">_oarchive.hpp</text>
</a>
</g>
</g>
<!-- Node21&#45;&gt;Node25 -->
<g id="edge25_Node000021_Node000025" class="edge">
<title>Node21&#45;&gt;Node25</title>
<g id="a_edge25_Node000021_Node000025"><a xlink:title=" ">
<path fill="none" stroke="#63b8ff" d="M964.68,-131.96C984.36,-122.48 1010.41,-109.3 1032.5,-96 1063.54,-77.31 1097.31,-53.09 1119.97,-36.22"/>
<polygon fill="#63b8ff" stroke="#63b8ff" points="1122.18,-38.94 1128.08,-30.14 1117.98,-33.33 1122.18,-38.94"/>
</a>
</g>
</g>
<!-- Node26 -->
<g id="Node000026" class="node">
<title>Node26</title>
<g id="a_Node000026"><a xlink:href="PreciseDouble_8h.html" target="_top" xlink:title="Defines the PreciseDouble class for safe and precise double&#45;precision arithmetic.">
<polygon fill="white" stroke="#666666" points="1024,-96 901,-96 901,-66 1024,-66 1024,-96"/>
<text text-anchor="start" x="909" y="-84" font-family="Helvetica,sans-Serif" font-size="10.00">App/Model/IBM/Maths</text>
<text text-anchor="middle" x="962.5" y="-73" font-family="Helvetica,sans-Serif" font-size="10.00">/PreciseDouble.h</text>
</a>
</g>
</g>
<!-- Node21&#45;&gt;Node26 -->
<g id="edge28_Node000021_Node000026" class="edge">
<title>Node21&#45;&gt;Node26</title>
<g id="a_edge28_Node000021_Node000026"><a xlink:title=" ">
<path fill="none" stroke="#63b8ff" d="M940.71,-131.8C944.09,-124.09 948.34,-114.37 952.19,-105.56"/>
<polygon fill="#63b8ff" stroke="#63b8ff" points="955.5,-106.73 956.3,-96.16 949.09,-103.92 955.5,-106.73"/>
</a>
</g>
</g>
<!-- Node26&#45;&gt;Node8 -->
<g id="edge34_Node000026_Node000008" class="edge">
<title>Node26&#45;&gt;Node8</title>
<g id="a_edge34_Node000026_Node000008"><a xlink:title=" ">
<path fill="none" stroke="#63b8ff" d="M900.91,-72.97C844.53,-65.56 759.21,-51.88 687.5,-30 685.87,-29.5 684.2,-28.94 682.54,-28.34"/>
<polygon fill="#63b8ff" stroke="#63b8ff" points="683.75,-25.06 673.16,-24.6 681.15,-31.56 683.75,-25.06"/>
</a>
</g>
</g>
<!-- Node26&#45;&gt;Node10 -->
<g id="edge36_Node000026_Node000010" class="edge">
<title>Node26&#45;&gt;Node10</title>
<g id="a_edge36_Node000026_Node000010"><a xlink:title=" ">
<path fill="none" stroke="#63b8ff" d="M1024.25,-75.15C1169.27,-63.69 1521.29,-35.51 1546.5,-30 1549.33,-29.38 1552.24,-28.61 1555.13,-27.75"/>
<polygon fill="#63b8ff" stroke="#63b8ff" points="1556.35,-31.03 1564.74,-24.58 1554.15,-24.39 1556.35,-31.03"/>
</a>
</g>
</g>
<!-- Node26&#45;&gt;Node14 -->
<g id="edge35_Node000026_Node000014" class="edge">
<title>Node26&#45;&gt;Node14</title>
<g id="a_edge35_Node000026_Node000014"><a xlink:title=" ">
<path fill="none" stroke="#63b8ff" d="M900.96,-73.03C785.47,-59.95 539.01,-32.03 439.99,-20.81"/>
<polygon fill="#63b8ff" stroke="#63b8ff" points="440.09,-17.3 429.76,-19.65 439.3,-24.26 440.09,-17.3"/>
</a>
</g>
</g>
<!-- Node26&#45;&gt;Node19 -->
<g id="edge33_Node000026_Node000019" class="edge">
<title>Node26&#45;&gt;Node19</title>
<g id="a_edge33_Node000026_Node000019"><a xlink:title=" ">
<path fill="none" stroke="#63b8ff" d="M900.91,-76.11C831.94,-70.57 717.4,-57.81 622.5,-30 620.86,-29.52 619.2,-28.97 617.54,-28.37"/>
<polygon fill="#63b8ff" stroke="#63b8ff" points="618.81,-25.11 608.23,-24.58 616.17,-31.59 618.81,-25.11"/>
</a>
</g>
</g>
<!-- Node26&#45;&gt;Node22 -->
<g id="edge29_Node000026_Node000022" class="edge">
<title>Node26&#45;&gt;Node22</title>
<g id="a_edge29_Node000026_Node000022"><a xlink:title=" ">
<path fill="none" stroke="#63b8ff" d="M942.53,-65.8C930.29,-57.1 914.44,-45.82 900.91,-36.2"/>
<polygon fill="#63b8ff" stroke="#63b8ff" points="902.6,-33.11 892.42,-30.16 898.54,-38.81 902.6,-33.11"/>
</a>
</g>
</g>
<!-- Node26&#45;&gt;Node23 -->
<g id="edge30_Node000026_Node000023" class="edge">
<title>Node26&#45;&gt;Node23</title>
<g id="a_edge30_Node000026_Node000023"><a xlink:title=" ">
<path fill="none" stroke="#63b8ff" d="M915.76,-65.95C883.43,-56.24 840.25,-43.27 806,-32.98"/>
<polygon fill="#63b8ff" stroke="#63b8ff" points="806.72,-29.54 796.13,-30.01 804.7,-36.24 806.72,-29.54"/>
</a>
</g>
</g>
<!-- Node26&#45;&gt;Node24 -->
<g id="edge31_Node000026_Node000024" class="edge">
<title>Node26&#45;&gt;Node24</title>
<g id="a_edge31_Node000026_Node000024"><a xlink:title=" ">
<path fill="none" stroke="#63b8ff" d="M1024.17,-67.88C1072.71,-58.31 1142.36,-44.48 1212.5,-30.19"/>
<polygon fill="#63b8ff" stroke="#63b8ff" points="1213.3,-33.6 1222.4,-28.17 1211.9,-26.74 1213.3,-33.6"/>
</a>
</g>
</g>
<!-- Node26&#45;&gt;Node25 -->
<g id="edge32_Node000026_Node000025" class="edge">
<title>Node26&#45;&gt;Node25</title>
<g id="a_edge32_Node000026_Node000025"><a xlink:title=" ">
<path fill="none" stroke="#63b8ff" d="M1002.88,-65.95C1030.44,-56.37 1067.14,-43.6 1096.55,-33.37"/>
<polygon fill="#63b8ff" stroke="#63b8ff" points="1097.92,-36.6 1106.21,-30.01 1095.62,-29.99 1097.92,-36.6"/>
</a>
</g>
</g>
<!-- Node27 -->
<g id="Node000027" class="node">
<title>Node27</title>
<g id="a_Node000027"><a xlink:title=" ">
<polygon fill="#e0e0e0" stroke="#999999" points="1070.5,-24.5 1026.5,-24.5 1026.5,-5.5 1070.5,-5.5 1070.5,-24.5"/>
<text text-anchor="middle" x="1048.5" y="-12.5" font-family="Helvetica,sans-Serif" font-size="10.00">limits</text>
</a>
</g>
</g>
<!-- Node26&#45;&gt;Node27 -->
<g id="edge37_Node000026_Node000027" class="edge">
<title>Node26&#45;&gt;Node27</title>
<g id="a_edge37_Node000026_Node000027"><a xlink:title=" ">
<path fill="none" stroke="#63b8ff" d="M981.59,-65.8C995.52,-55.43 1014.36,-41.4 1028.5,-30.88"/>
<polygon fill="#63b8ff" stroke="#63b8ff" points="1030.68,-33.62 1036.62,-24.84 1026.5,-28.01 1030.68,-33.62"/>
</a>
</g>
</g>
<!-- Node28 -->
<g id="Node000028" class="node">
<title>Node28</title>
<g id="a_Node000028"><a xlink:title=" ">
<polygon fill="#e0e0e0" stroke="#999999" points="1008,-24.5 943,-24.5 943,-5.5 1008,-5.5 1008,-24.5"/>
<text text-anchor="middle" x="975.5" y="-12.5" font-family="Helvetica,sans-Serif" font-size="10.00">functional</text>
</a>
</g>
</g>
<!-- Node26&#45;&gt;Node28 -->
<g id="edge38_Node000026_Node000028" class="edge">
<title>Node26&#45;&gt;Node28</title>
<g id="a_edge38_Node000026_Node000028"><a xlink:title=" ">
<path fill="none" stroke="#63b8ff" d="M965.39,-65.8C967.23,-56.7 969.65,-44.79 971.66,-34.9"/>
<polygon fill="#63b8ff" stroke="#63b8ff" points="975.14,-35.34 973.7,-24.84 968.28,-33.95 975.14,-35.34"/>
</a>
</g>
</g>
<!-- Node29&#45;&gt;Node26 -->
<g id="edge47_Node000029_Node000026" class="edge">
<title>Node29&#45;&gt;Node26</title>
<g id="a_edge47_Node000029_Node000026"><a xlink:title=" ">
<path fill="none" stroke="#63b8ff" d="M1050.74,-137.37C1036.19,-128.24 1012.74,-113.53 993.67,-101.56"/>
<polygon fill="#63b8ff" stroke="#63b8ff" points="995.33,-98.47 985,-96.12 991.61,-104.4 995.33,-98.47"/>
</a>
</g>
</g>
<!-- Node29&#45;&gt;Node27 -->
<g id="edge46_Node000029_Node000027" class="edge">
<title>Node29&#45;&gt;Node27</title>
<g id="a_edge46_Node000029_Node000027"><a xlink:title=" ">
<path fill="none" stroke="#63b8ff" d="M1063.45,-137.47C1060.9,-116.73 1054.31,-63.24 1050.8,-34.66"/>
<polygon fill="#63b8ff" stroke="#63b8ff" points="1054.27,-34.23 1049.57,-24.73 1047.32,-35.08 1054.27,-34.23"/>
</a>
</g>
</g>
<!-- Node30 -->
<g id="Node000030" class="node">
<title>Node30</title>
<g id="a_Node000030"><a xlink:href="Coordinate3D_8h.html" target="_top" xlink:title="Defines a templated 3D coordinate class with Boost.Serialization support.">
<polygon fill="white" stroke="#666666" points="1386.5,-90.5 1294.5,-90.5 1294.5,-71.5 1386.5,-71.5 1386.5,-90.5"/>
<text text-anchor="middle" x="1340.5" y="-78.5" font-family="Helvetica,sans-Serif" font-size="10.00">Coordinate3D.h</text>
</a>
</g>
</g>
<!-- Node29&#45;&gt;Node30 -->
<g id="edge40_Node000029_Node000030" class="edge">
<title>Node29&#45;&gt;Node30</title>
<g id="a_edge40_Node000029_Node000030"><a xlink:title=" ">
<path fill="none" stroke="#63b8ff" d="M1092.32,-137.48C1098.91,-135.58 1105.93,-133.64 1112.5,-132 1188.7,-112.99 1208.98,-113.69 1285.5,-96 1289.6,-95.05 1293.87,-94.03 1298.13,-92.98"/>
<polygon fill="#63b8ff" stroke="#63b8ff" points="1299.13,-96.34 1307.99,-90.53 1297.44,-89.55 1299.13,-96.34"/>
</a>
</g>
</g>
<!-- Node33 -->
<g id="Node000033" class="node">
<title>Node33</title>
<g id="a_Node000033"><a xlink:title=" ">
<polygon fill="#e0e0e0" stroke="#999999" points="1200.5,-90.5 1156.5,-90.5 1156.5,-71.5 1200.5,-71.5 1200.5,-90.5"/>
<text text-anchor="middle" x="1178.5" y="-78.5" font-family="Helvetica,sans-Serif" font-size="10.00">cfloat</text>
</a>
</g>
</g>
<!-- Node29&#45;&gt;Node33 -->
<g id="edge45_Node000029_Node000033" class="edge">
<title>Node29&#45;&gt;Node33</title>
<g id="a_edge45_Node000029_Node000033"><a xlink:title=" ">
<path fill="none" stroke="#63b8ff" d="M1079.87,-137.37C1098.91,-126.68 1131.57,-108.35 1154.06,-95.72"/>
<polygon fill="#63b8ff" stroke="#63b8ff" points="1156,-98.65 1163,-90.7 1152.57,-92.54 1156,-98.65"/>
</a>
</g>
</g>
<!-- Node30&#45;&gt;Node24 -->
<g id="edge42_Node000030_Node000024" class="edge">
<title>Node30&#45;&gt;Node24</title>
<g id="a_edge42_Node000030_Node000024"><a xlink:title=" ">
<path fill="none" stroke="#63b8ff" d="M1332.41,-71.37C1324.4,-62.83 1311.82,-49.41 1301.05,-37.92"/>
<polygon fill="#63b8ff" stroke="#63b8ff" points="1303.36,-35.26 1293.96,-30.36 1298.25,-40.05 1303.36,-35.26"/>
</a>
</g>
</g>
<!-- Node30&#45;&gt;Node25 -->
<g id="edge43_Node000030_Node000025" class="edge">
<title>Node30&#45;&gt;Node25</title>
<g id="a_edge43_Node000030_Node000025"><a xlink:title=" ">
<path fill="none" stroke="#63b8ff" d="M1314.34,-71.37C1284.9,-61.66 1236.34,-45.64 1199.01,-33.32"/>
<polygon fill="#63b8ff" stroke="#63b8ff" points="1199.88,-29.92 1189.29,-30.12 1197.69,-36.57 1199.88,-29.92"/>
</a>
</g>
</g>
<!-- Node31 -->
<g id="Node000031" class="node">
<title>Node31</title>
<g id="a_Node000031"><a xlink:title=" ">
<polygon fill="#e0e0e0" stroke="#999999" points="1537,-30 1430,-30 1430,0 1537,0 1537,-30"/>
<text text-anchor="start" x="1438" y="-18" font-family="Helvetica,sans-Serif" font-size="10.00">boost/serialization</text>
<text text-anchor="middle" x="1483.5" y="-7" font-family="Helvetica,sans-Serif" font-size="10.00">/access.hpp</text>
</a>
</g>
</g>
<!-- Node30&#45;&gt;Node31 -->
<g id="edge41_Node000030_Node000031" class="edge">
<title>Node30&#45;&gt;Node31</title>
<g id="a_edge41_Node000030_Node000031"><a xlink:title=" ">
<path fill="none" stroke="#63b8ff" d="M1359.79,-71.37C1380.93,-61.91 1415.46,-46.45 1442.67,-34.27"/>
<polygon fill="#63b8ff" stroke="#63b8ff" points="1444.26,-37.4 1451.96,-30.12 1441.4,-31.01 1444.26,-37.4"/>
</a>
</g>
</g>
<!-- Node32 -->
<g id="Node000032" class="node">
<title>Node32</title>
<g id="a_Node000032"><a xlink:title=" ">
<polygon fill="#e0e0e0" stroke="#999999" points="1412,-24.5 1357,-24.5 1357,-5.5 1412,-5.5 1412,-24.5"/>
<text text-anchor="middle" x="1384.5" y="-12.5" font-family="Helvetica,sans-Serif" font-size="10.00">fstream</text>
</a>
</g>
</g>
<!-- Node30&#45;&gt;Node32 -->
<g id="edge44_Node000030_Node000032" class="edge">
<title>Node30&#45;&gt;Node32</title>
<g id="a_edge44_Node000030_Node000032"><a xlink:title=" ">
<path fill="none" stroke="#63b8ff" d="M1346.43,-71.37C1353.09,-61.69 1364.06,-45.74 1372.51,-33.44"/>
<polygon fill="#63b8ff" stroke="#63b8ff" points="1375.6,-35.13 1378.38,-24.91 1369.83,-31.16 1375.6,-35.13"/>
</a>
</g>
</g>
</g>
</svg>

<g id="navigator" transform="translate(0 0)" fill="#404254">
  <rect fill="#f2f5e9" fill-opacity="0.5" stroke="#606060" stroke-width=".5" x="0" y="0" width="60" height="60"/>
  <use id="zoomplus" xlink:href="#zoomPlus" x="17" y="9" onmousedown="handleZoom(evt,'in')"/>
  <use id="zoomminus" xlink:href="#zoomMin" x="42" y="9" onmousedown="handleZoom(evt,'out')"/>
  <use id="reset" xlink:href="#resetDef" x="30" y="36" onmousedown="handleReset()"/>
   <use id="arrowup" xlink:href="#arrowUp" x="0" y="0" onmousedown="handlePan(0,-1)"/>
  <use id="arrowright" xlink:href="#arrowRight" x="0" y="0" onmousedown="handlePan(1,0)"/>
  <use id="arrowdown" xlink:href="#arrowDown" x="0" y="0" onmousedown="handlePan(0,1)"/>
  <use id="arrowleft" xlink:href="#arrowLeft" x="0" y="0" onmousedown="handlePan(-1,0)"/>
</g>
<svg viewBox="0 0 15 15" width="100%" height="30px" preserveAspectRatio="xMaxYMin meet">
 <g id="arrow_out" transform="scale(0.3 0.3)">
  <a xlink:href="Locus_8h__incl_org.svg" target="_base">
   <rect id="button" ry="5" rx="5" y="6" x="6" height="38" width="38"
        fill="#f2f5e9" fill-opacity="0.5" stroke="#606060" stroke-width="1.0"/>
   <path id="arrow"
     d="M 11.500037,31.436501 C 11.940474,20.09759 22.043105,11.32322 32.158766,21.979434 L 37.068811,17.246167 C 37.068811,17.246167 37.088388,32 37.088388,32 L 22.160133,31.978069 C 22.160133,31.978069 26.997745,27.140456 26.997745,27.140456 C 18.528582,18.264221 13.291696,25.230495 11.500037,31.436501 z"
     style="fill:#404040;"/>
  </a>
 </g>
</svg>

<style type='text/css'>
<![CDATA[
[data-mouse-over-selected='false'] { opacity: 0.7; }
[data-mouse-over-selected='true']  { opacity: 1.0; }
]]>
</style>
<script type="application/ecmascript"><![CDATA[
document.addEventListener('DOMContentLoaded', (event) => {
  highlightEdges();
  highlightAdjacentNodes();
});
]]></script>
</svg>
