<?xml version="1.0" encoding="UTF-8" standalone="no"?>
<!DOCTYPE svg PUBLIC "-//W3C//DTD SVG 1.1//EN"
 "http://www.w3.org/Graphics/SVG/1.1/DTD/svg11.dtd">
<!-- Generated by graphviz version 2.43.0 (0)
 -->
<!-- Title: /home/runner/work/Weaver/Weaver/include/App/Model/IBM/Landscape/LivingBeings/Animals/Growth/Model/LogisticIndividualGrowthModel.h Pages: 1 -->
<!--zoomable 357 -->

<svg id="main" version="1.1" xmlns="http://www.w3.org/2000/svg" xmlns:xlink="http://www.w3.org/1999/xlink" xml:space="preserve" onload="init(evt)">
<style type="text/css"><![CDATA[
.node, .edge {opacity: 0.7;}
.node.selected, .edge.selected {opacity: 1;}
.edge:hover path { stroke: red; }
.edge:hover polygon { stroke: red; fill: red; }
]]></style>

<defs>
  <circle id="rim" cx="0" cy="0" r="7"/>
  <circle id="rim2" cx="0" cy="0" r="3.5"/>
  <g id="zoomPlus">
    <use xlink:href="#rim" fill="#404040"><set attributeName="fill" to="#808080" begin="zoomplus.mouseover" end="zoomplus.mouseout"/></use>
    <path d="M-4,0h8M0,-4v8" fill="none" stroke="white" stroke-width="1.5" pointer-events="none"/>
  </g>
  <g id="zoomMin">
    <use xlink:href="#rim" fill="#404040"><set attributeName="fill" to="#808080" begin="zoomminus.mouseover" end="zoomminus.mouseout"/></use>
    <path d="M-4,0h8" fill="none" stroke="white" stroke-width="1.5" pointer-events="none"/>
  </g>
  <g id="arrowUp" transform="translate(30 24)">
    <use xlink:href="#rim"/>
    <path pointer-events="none" fill="none" stroke="white" stroke-width="1.5" d="M0,-3.0v7 M-2.5,-0.5L0,-3.0L2.5,-0.5"/>
  </g>
  <g id="arrowRight" transform="rotate(90) translate(36 -43)">
    <use xlink:href="#rim"/>
    <path pointer-events="none" fill="none" stroke="white" stroke-width="1.5" d="M0,-3.0v7 M-2.5,-0.5L0,-3.0L2.5,-0.5"/>
  </g>
  <g id="arrowDown" transform="rotate(180) translate(-30 -48)">
    <use xlink:href="#rim"/>
    <path pointer-events="none" fill="none" stroke="white" stroke-width="1.5" d="M0,-3.0v7 M-2.5,-0.5L0,-3.0L2.5,-0.5"/>
  </g>
  <g id="arrowLeft" transform="rotate(270) translate(-36 17)">
    <use xlink:href="#rim"/>
    <path pointer-events="none" fill="none" stroke="white" stroke-width="1.5" d="M0,-3.0v7 M-2.5,-0.5L0,-3.0L2.5,-0.5"/>
  </g>
  <g id="resetDef">
    <use xlink:href="#rim2" fill="#404040"><set attributeName="fill" to="#808080" begin="reset.mouseover" end="reset.mouseout"/></use>
  </g>
</defs>
<script type="application/ecmascript">
var viewWidth = 1019;
var viewHeight = 357;
var sectionId = 'dynsection-0';
</script>
<script type="application/ecmascript" xlink:href="svg.min.js"/>
<svg id="graph" class="graph">
<g id="viewport">
<title>/home/runner/work/Weaver/Weaver/include/App/Model/IBM/Landscape/LivingBeings/Animals/Growth/Model/LogisticIndividualGrowthModel.h</title>
<!-- Node1 -->
<g id="Node000001" class="node">
<title>Node1</title>
<g id="a_Node000001"><a xlink:title="Defines the LogisticIndividualGrowthModel class, which implements a logistic growth model.">
<polygon fill="#999999" stroke="#666666" points="658,-349 439,-349 439,-286 658,-286 658,-349"/>
<text text-anchor="start" x="447" y="-337" font-family="Helvetica,sans-Serif" font-size="10.00">/home/runner/work/Weaver</text>
<text text-anchor="start" x="447" y="-326" font-family="Helvetica,sans-Serif" font-size="10.00">/Weaver/include/App/Model</text>
<text text-anchor="start" x="447" y="-315" font-family="Helvetica,sans-Serif" font-size="10.00">/IBM/Landscape/LivingBeings</text>
<text text-anchor="start" x="447" y="-304" font-family="Helvetica,sans-Serif" font-size="10.00">/Animals/Growth/Model/LogisticIndividual</text>
<text text-anchor="middle" x="548.5" y="-293" font-family="Helvetica,sans-Serif" font-size="10.00">GrowthModel.h</text>
</a>
</g>
</g>
<!-- Node2 -->
<g id="Node000002" class="node">
<title>Node2</title>
<g id="a_Node000002"><a xlink:title=" ">
<polygon fill="#e0e0e0" stroke="#999999" points="47,-24.5 0,-24.5 0,-5.5 47,-5.5 47,-24.5"/>
<text text-anchor="middle" x="23.5" y="-12.5" font-family="Helvetica,sans-Serif" font-size="10.00">cmath</text>
</a>
</g>
</g>
<!-- Node1&#45;&gt;Node2 -->
<g id="edge1_Node000001_Node000002" class="edge">
<title>Node1&#45;&gt;Node2</title>
<g id="a_edge1_Node000001_Node000002"><a xlink:title=" ">
<path fill="none" stroke="#63b8ff" d="M438.99,-315.01C323.04,-307.13 143.51,-275.76 45.5,-162 14.49,-126.01 16.85,-65.61 20.51,-35.01"/>
<polygon fill="#63b8ff" stroke="#63b8ff" points="24.02,-35.24 21.92,-24.85 17.08,-34.28 24.02,-35.24"/>
</a>
</g>
</g>
<!-- Node3 -->
<g id="Node000003" class="node">
<title>Node3</title>
<g id="a_Node000003"><a xlink:title=" ">
<polygon fill="#e0e0e0" stroke="#999999" points="761,-239 654,-239 654,-209 761,-209 761,-239"/>
<text text-anchor="start" x="662" y="-227" font-family="Helvetica,sans-Serif" font-size="10.00">boost/serialization</text>
<text text-anchor="middle" x="707.5" y="-216" font-family="Helvetica,sans-Serif" font-size="10.00">/export.hpp</text>
</a>
</g>
</g>
<!-- Node1&#45;&gt;Node3 -->
<g id="edge2_Node000001_Node000003" class="edge">
<title>Node1&#45;&gt;Node3</title>
<g id="a_edge2_Node000001_Node000003"><a xlink:title=" ">
<path fill="none" stroke="#63b8ff" d="M601.89,-285.78C625.78,-272.03 653.21,-256.24 674.12,-244.21"/>
<polygon fill="#63b8ff" stroke="#63b8ff" points="676.03,-247.15 682.95,-239.13 672.54,-241.08 676.03,-247.15"/>
</a>
</g>
</g>
<!-- Node4 -->
<g id="Node000004" class="node">
<title>Node4</title>
<g id="a_Node000004"><a xlink:href="IndividualGrowthModel_8h.html" target="_top" xlink:title="Defines the IndividualGrowthModel class, an abstract base class for modeling individual animal growth...">
<polygon fill="white" stroke="#666666" points="635.5,-250 461.5,-250 461.5,-198 635.5,-198 635.5,-250"/>
<text text-anchor="start" x="469.5" y="-238" font-family="Helvetica,sans-Serif" font-size="10.00">App/Model/IBM/Landscape</text>
<text text-anchor="start" x="469.5" y="-227" font-family="Helvetica,sans-Serif" font-size="10.00">/LivingBeings/Animals</text>
<text text-anchor="start" x="469.5" y="-216" font-family="Helvetica,sans-Serif" font-size="10.00">/Growth/Model/IndividualGrowth</text>
<text text-anchor="middle" x="548.5" y="-205" font-family="Helvetica,sans-Serif" font-size="10.00">Model.h</text>
</a>
</g>
</g>
<!-- Node1&#45;&gt;Node4 -->
<g id="edge3_Node000001_Node000004" class="edge">
<title>Node1&#45;&gt;Node4</title>
<g id="a_edge3_Node000001_Node000004"><a xlink:title=" ">
<path fill="none" stroke="#63b8ff" d="M548.5,-285.78C548.5,-277.51 548.5,-268.51 548.5,-260.02"/>
<polygon fill="#63b8ff" stroke="#63b8ff" points="552,-260.02 548.5,-250.02 545,-260.02 552,-260.02"/>
</a>
</g>
</g>
<!-- Node5 -->
<g id="Node000005" class="node">
<title>Node5</title>
<g id="a_Node000005"><a xlink:title=" ">
<polygon fill="#e0e0e0" stroke="#999999" points="112.5,-156.5 54.5,-156.5 54.5,-137.5 112.5,-137.5 112.5,-156.5"/>
<text text-anchor="middle" x="83.5" y="-144.5" font-family="Helvetica,sans-Serif" font-size="10.00">memory</text>
</a>
</g>
</g>
<!-- Node4&#45;&gt;Node5 -->
<g id="edge4_Node000004_Node000005" class="edge">
<title>Node4&#45;&gt;Node5</title>
<g id="a_edge4_Node000004_Node000005"><a xlink:title=" ">
<path fill="none" stroke="#63b8ff" d="M461.21,-214.79C375.3,-205.68 240.76,-188.65 126.5,-162 123.46,-161.29 120.33,-160.47 117.21,-159.58"/>
<polygon fill="#63b8ff" stroke="#63b8ff" points="117.99,-156.15 107.4,-156.58 115.95,-162.85 117.99,-156.15"/>
</a>
</g>
</g>
<!-- Node6 -->
<g id="Node000006" class="node">
<title>Node6</title>
<g id="a_Node000006"><a xlink:title=" ">
<polygon fill="#e0e0e0" stroke="#999999" points="170,-30 65,-30 65,0 170,0 170,-30"/>
<text text-anchor="start" x="73" y="-18" font-family="Helvetica,sans-Serif" font-size="10.00">boost/archive/text</text>
<text text-anchor="middle" x="117.5" y="-7" font-family="Helvetica,sans-Serif" font-size="10.00">_iarchive.hpp</text>
</a>
</g>
</g>
<!-- Node4&#45;&gt;Node6 -->
<g id="edge5_Node000004_Node000006" class="edge">
<title>Node4&#45;&gt;Node6</title>
<g id="a_edge5_Node000004_Node000006"><a xlink:title=" ">
<path fill="none" stroke="#63b8ff" d="M461.5,-209.68C410.87,-200.13 346.58,-184.85 292.5,-162 242.07,-140.7 230.19,-131.48 188.5,-96 168.03,-78.57 148.01,-55.27 134.47,-38.32"/>
<polygon fill="#63b8ff" stroke="#63b8ff" points="136.94,-35.8 128.02,-30.09 131.44,-40.12 136.94,-35.8"/>
</a>
</g>
</g>
<!-- Node7 -->
<g id="Node000007" class="node">
<title>Node7</title>
<g id="a_Node000007"><a xlink:title=" ">
<polygon fill="#e0e0e0" stroke="#999999" points="868,-30 763,-30 763,0 868,0 868,-30"/>
<text text-anchor="start" x="771" y="-18" font-family="Helvetica,sans-Serif" font-size="10.00">boost/archive/text</text>
<text text-anchor="middle" x="815.5" y="-7" font-family="Helvetica,sans-Serif" font-size="10.00">_oarchive.hpp</text>
</a>
</g>
</g>
<!-- Node4&#45;&gt;Node7 -->
<g id="edge6_Node000004_Node000007" class="edge">
<title>Node4&#45;&gt;Node7</title>
<g id="a_edge6_Node000004_Node000007"><a xlink:title=" ">
<path fill="none" stroke="#63b8ff" d="M616.1,-197.85C637.68,-188.27 661,-176.18 680.5,-162 730.27,-125.81 776.18,-69.24 799.48,-38.21"/>
<polygon fill="#63b8ff" stroke="#63b8ff" points="802.29,-40.29 805.43,-30.17 796.67,-36.12 802.29,-40.29"/>
</a>
</g>
</g>
<!-- Node8 -->
<g id="Node000008" class="node">
<title>Node8</title>
<g id="a_Node000008"><a xlink:title=" ">
<polygon fill="#e0e0e0" stroke="#999999" points="610.5,-30 494.5,-30 494.5,0 610.5,0 610.5,-30"/>
<text text-anchor="start" x="502.5" y="-18" font-family="Helvetica,sans-Serif" font-size="10.00">boost/archive/binary</text>
<text text-anchor="middle" x="552.5" y="-7" font-family="Helvetica,sans-Serif" font-size="10.00">_iarchive.hpp</text>
</a>
</g>
</g>
<!-- Node4&#45;&gt;Node8 -->
<g id="edge7_Node000004_Node000008" class="edge">
<title>Node4&#45;&gt;Node8</title>
<g id="a_edge7_Node000004_Node000008"><a xlink:title=" ">
<path fill="none" stroke="#63b8ff" d="M605.06,-197.87C619.16,-188.71 632.52,-176.86 640.5,-162 665.19,-116.01 614.09,-64.1 579.92,-36.25"/>
<polygon fill="#63b8ff" stroke="#63b8ff" points="582.08,-33.5 572.07,-30.03 577.73,-38.98 582.08,-33.5"/>
</a>
</g>
</g>
<!-- Node9 -->
<g id="Node000009" class="node">
<title>Node9</title>
<g id="a_Node000009"><a xlink:title=" ">
<polygon fill="#e0e0e0" stroke="#999999" points="744.5,-30 628.5,-30 628.5,0 744.5,0 744.5,-30"/>
<text text-anchor="start" x="636.5" y="-18" font-family="Helvetica,sans-Serif" font-size="10.00">boost/archive/binary</text>
<text text-anchor="middle" x="686.5" y="-7" font-family="Helvetica,sans-Serif" font-size="10.00">_oarchive.hpp</text>
</a>
</g>
</g>
<!-- Node4&#45;&gt;Node9 -->
<g id="edge8_Node000004_Node000009" class="edge">
<title>Node4&#45;&gt;Node9</title>
<g id="a_edge8_Node000004_Node000009"><a xlink:title=" ">
<path fill="none" stroke="#63b8ff" d="M615.31,-197.99C631.64,-188.94 647.55,-177.12 658.5,-162 684.66,-125.89 688.26,-72.02 687.84,-40.81"/>
<polygon fill="#63b8ff" stroke="#63b8ff" points="691.33,-40.3 687.54,-30.41 684.33,-40.51 691.33,-40.3"/>
</a>
</g>
</g>
<!-- Node10 -->
<g id="Node000010" class="node">
<title>Node10</title>
<g id="a_Node000010"><a xlink:href="LineInfoException_8h.html" target="_top" xlink:title="Exception class with detailed file and line information for error reporting.">
<polygon fill="white" stroke="#666666" points="1011,-156.5 842,-156.5 842,-137.5 1011,-137.5 1011,-156.5"/>
<text text-anchor="middle" x="926.5" y="-144.5" font-family="Helvetica,sans-Serif" font-size="10.00">Exceptions/LineInfoException.h</text>
</a>
</g>
</g>
<!-- Node4&#45;&gt;Node10 -->
<g id="edge9_Node000004_Node000010" class="edge">
<title>Node4&#45;&gt;Node10</title>
<g id="a_edge9_Node000004_Node000010"><a xlink:title=" ">
<path fill="none" stroke="#63b8ff" d="M635.55,-200.01C638.57,-199.32 641.56,-198.64 644.5,-198 718.16,-181.9 803.51,-167.33 860.85,-158.13"/>
<polygon fill="#63b8ff" stroke="#63b8ff" points="861.54,-161.56 870.86,-156.53 860.44,-154.65 861.54,-161.56"/>
</a>
</g>
</g>
<!-- Node13 -->
<g id="Node000013" class="node">
<title>Node13</title>
<g id="a_Node000013"><a xlink:href="StructuralUnits_8h.html" target="_top" xlink:title="Defines physical units used in the simulation: DryMass, WetMass, and Length.">
<polygon fill="white" stroke="#666666" points="632,-162 465,-162 465,-132 632,-132 632,-162"/>
<text text-anchor="start" x="473" y="-150" font-family="Helvetica,sans-Serif" font-size="10.00">App/Model/IBM/Landscape</text>
<text text-anchor="middle" x="548.5" y="-139" font-family="Helvetica,sans-Serif" font-size="10.00">/LivingBeings/StructuralUnits.h</text>
</a>
</g>
</g>
<!-- Node4&#45;&gt;Node13 -->
<g id="edge12_Node000004_Node000013" class="edge">
<title>Node4&#45;&gt;Node13</title>
<g id="a_edge12_Node000004_Node000013"><a xlink:title=" ">
<path fill="none" stroke="#63b8ff" d="M548.5,-197.61C548.5,-189.54 548.5,-180.64 548.5,-172.63"/>
<polygon fill="#63b8ff" stroke="#63b8ff" points="552,-172.43 548.5,-162.43 545,-172.43 552,-172.43"/>
</a>
</g>
</g>
<!-- Node20 -->
<g id="Node000020" class="node">
<title>Node20</title>
<g id="a_Node000020"><a xlink:href="TimeUnits_8h.html" target="_top" xlink:title="Defines the TimeStep and Day classes for representing simulation time units.">
<polygon fill="white" stroke="#666666" points="447,-162 302,-162 302,-132 447,-132 447,-162"/>
<text text-anchor="start" x="310" y="-150" font-family="Helvetica,sans-Serif" font-size="10.00">App/Model/IBM/Landscape</text>
<text text-anchor="middle" x="374.5" y="-139" font-family="Helvetica,sans-Serif" font-size="10.00">/LivingBeings/TimeUnits.h</text>
</a>
</g>
</g>
<!-- Node4&#45;&gt;Node20 -->
<g id="edge30_Node000004_Node000020" class="edge">
<title>Node4&#45;&gt;Node20</title>
<g id="a_edge30_Node000004_Node000020"><a xlink:title=" ">
<path fill="none" stroke="#63b8ff" d="M490.08,-197.82C466,-187.44 438.63,-175.64 416.57,-166.13"/>
<polygon fill="#63b8ff" stroke="#63b8ff" points="417.73,-162.82 407.16,-162.08 414.96,-169.25 417.73,-162.82"/>
</a>
</g>
</g>
<!-- Node11 -->
<g id="Node000011" class="node">
<title>Node11</title>
<g id="a_Node000011"><a xlink:title=" ">
<polygon fill="#e0e0e0" stroke="#999999" points="908,-90.5 843,-90.5 843,-71.5 908,-71.5 908,-90.5"/>
<text text-anchor="middle" x="875.5" y="-78.5" font-family="Helvetica,sans-Serif" font-size="10.00">exception</text>
</a>
</g>
</g>
<!-- Node10&#45;&gt;Node11 -->
<g id="edge10_Node000010_Node000011" class="edge">
<title>Node10&#45;&gt;Node11</title>
<g id="a_edge10_Node000010_Node000011"><a xlink:title=" ">
<path fill="none" stroke="#63b8ff" d="M919.62,-137.37C911.83,-127.59 898.95,-111.42 889.11,-99.08"/>
<polygon fill="#63b8ff" stroke="#63b8ff" points="891.57,-96.54 882.6,-90.91 886.09,-100.91 891.57,-96.54"/>
</a>
</g>
</g>
<!-- Node12 -->
<g id="Node000012" class="node">
<title>Node12</title>
<g id="a_Node000012"><a xlink:title=" ">
<polygon fill="#e0e0e0" stroke="#999999" points="944.5,-24.5 900.5,-24.5 900.5,-5.5 944.5,-5.5 944.5,-24.5"/>
<text text-anchor="middle" x="922.5" y="-12.5" font-family="Helvetica,sans-Serif" font-size="10.00">string</text>
</a>
</g>
</g>
<!-- Node10&#45;&gt;Node12 -->
<g id="edge11_Node000010_Node000012" class="edge">
<title>Node10&#45;&gt;Node12</title>
<g id="a_edge11_Node000010_Node000012"><a xlink:title=" ">
<path fill="none" stroke="#63b8ff" d="M926.24,-137.47C925.6,-116.82 923.97,-63.72 923.09,-35.04"/>
<polygon fill="#63b8ff" stroke="#63b8ff" points="926.57,-34.62 922.77,-24.73 919.58,-34.83 926.57,-34.62"/>
</a>
</g>
</g>
<!-- Node13&#45;&gt;Node2 -->
<g id="edge18_Node000013_Node000002" class="edge">
<title>Node13&#45;&gt;Node2</title>
<g id="a_edge18_Node000013_Node000002"><a xlink:title=" ">
<path fill="none" stroke="#63b8ff" d="M464.82,-133.15C372.51,-118.93 236.13,-97.76 230.5,-96 201.29,-86.86 196.93,-77.34 168.5,-66 119.54,-46.47 104.82,-48.59 55.5,-30 54.29,-29.54 53.05,-29.06 51.81,-28.57"/>
<polygon fill="#63b8ff" stroke="#63b8ff" points="52.89,-25.23 42.32,-24.62 50.21,-31.69 52.89,-25.23"/>
</a>
</g>
</g>
<!-- Node13&#45;&gt;Node6 -->
<g id="edge13_Node000013_Node000006" class="edge">
<title>Node13&#45;&gt;Node6</title>
<g id="a_edge13_Node000013_Node000006"><a xlink:title=" ">
<path fill="none" stroke="#63b8ff" d="M464.82,-132.64C390.53,-120.47 291.08,-103.32 273.5,-96 251.99,-87.04 250.8,-77.43 230.5,-66 209.1,-53.95 184.25,-42.68 163.31,-33.9"/>
<polygon fill="#63b8ff" stroke="#63b8ff" points="164.56,-30.63 153.99,-30.05 161.89,-37.1 164.56,-30.63"/>
</a>
</g>
</g>
<!-- Node13&#45;&gt;Node7 -->
<g id="edge14_Node000013_Node000007" class="edge">
<title>Node13&#45;&gt;Node7</title>
<g id="a_edge14_Node000013_Node000007"><a xlink:title=" ">
<path fill="none" stroke="#63b8ff" d="M615.37,-131.99C646.57,-123.94 683.55,-112.16 714.5,-96 744.65,-80.26 774.61,-54.99 793.98,-37.07"/>
<polygon fill="#63b8ff" stroke="#63b8ff" points="796.47,-39.53 801.35,-30.13 791.67,-34.44 796.47,-39.53"/>
</a>
</g>
</g>
<!-- Node13&#45;&gt;Node8 -->
<g id="edge15_Node000013_Node000008" class="edge">
<title>Node13&#45;&gt;Node8</title>
<g id="a_edge15_Node000013_Node000008"><a xlink:title=" ">
<path fill="none" stroke="#63b8ff" d="M548.94,-131.84C549.61,-109.86 550.92,-67.27 551.75,-40.3"/>
<polygon fill="#63b8ff" stroke="#63b8ff" points="555.26,-40.25 552.06,-30.14 548.26,-40.03 555.26,-40.25"/>
</a>
</g>
</g>
<!-- Node13&#45;&gt;Node9 -->
<g id="edge16_Node000013_Node000009" class="edge">
<title>Node13&#45;&gt;Node9</title>
<g id="a_edge16_Node000013_Node000009"><a xlink:title=" ">
<path fill="none" stroke="#63b8ff" d="M563.53,-131.84C587.8,-108.98 635.73,-63.82 664.05,-37.14"/>
<polygon fill="#63b8ff" stroke="#63b8ff" points="666.61,-39.55 671.49,-30.14 661.81,-34.45 666.61,-39.55"/>
</a>
</g>
</g>
<!-- Node14 -->
<g id="Node000014" class="node">
<title>Node14</title>
<g id="a_Node000014"><a xlink:title=" ">
<polygon fill="#e0e0e0" stroke="#999999" points="520,-90.5 463,-90.5 463,-71.5 520,-71.5 520,-90.5"/>
<text text-anchor="middle" x="491.5" y="-78.5" font-family="Helvetica,sans-Serif" font-size="10.00">ostream</text>
</a>
</g>
</g>
<!-- Node13&#45;&gt;Node14 -->
<g id="edge17_Node000013_Node000014" class="edge">
<title>Node13&#45;&gt;Node14</title>
<g id="a_edge17_Node000013_Node000014"><a xlink:title=" ">
<path fill="none" stroke="#63b8ff" d="M535.85,-131.8C527.05,-121.92 515.3,-108.72 506.1,-98.39"/>
<polygon fill="#63b8ff" stroke="#63b8ff" points="508.64,-95.98 499.38,-90.84 503.41,-100.64 508.64,-95.98"/>
</a>
</g>
</g>
<!-- Node15 -->
<g id="Node000015" class="node">
<title>Node15</title>
<g id="a_Node000015"><a xlink:href="PreciseDouble_8h.html" target="_top" xlink:title="Defines the PreciseDouble class for safe and precise double&#45;precision arithmetic.">
<polygon fill="white" stroke="#666666" points="406,-96 283,-96 283,-66 406,-66 406,-96"/>
<text text-anchor="start" x="291" y="-84" font-family="Helvetica,sans-Serif" font-size="10.00">App/Model/IBM/Maths</text>
<text text-anchor="middle" x="344.5" y="-73" font-family="Helvetica,sans-Serif" font-size="10.00">/PreciseDouble.h</text>
</a>
</g>
</g>
<!-- Node13&#45;&gt;Node15 -->
<g id="edge19_Node000013_Node000015" class="edge">
<title>Node13&#45;&gt;Node15</title>
<g id="a_edge19_Node000013_Node000015"><a xlink:title=" ">
<path fill="none" stroke="#63b8ff" d="M503.73,-131.95C472.91,-122.28 431.77,-109.38 399.03,-99.11"/>
<polygon fill="#63b8ff" stroke="#63b8ff" points="399.75,-95.67 389.16,-96.01 397.66,-102.35 399.75,-95.67"/>
</a>
</g>
</g>
<!-- Node15&#45;&gt;Node2 -->
<g id="edge25_Node000015_Node000002" class="edge">
<title>Node15&#45;&gt;Node2</title>
<g id="a_edge25_Node000015_Node000002"><a xlink:title=" ">
<path fill="none" stroke="#63b8ff" d="M282.92,-71.13C211.13,-60.47 97.01,-42.47 55.5,-30 53.86,-29.51 52.2,-28.95 50.53,-28.36"/>
<polygon fill="#63b8ff" stroke="#63b8ff" points="51.74,-25.07 41.15,-24.63 49.15,-31.58 51.74,-25.07"/>
</a>
</g>
</g>
<!-- Node15&#45;&gt;Node6 -->
<g id="edge20_Node000015_Node000006" class="edge">
<title>Node15&#45;&gt;Node6</title>
<g id="a_edge20_Node000015_Node000006"><a xlink:title=" ">
<path fill="none" stroke="#63b8ff" d="M294.68,-65.95C260.09,-56.2 213.82,-43.16 177.24,-32.84"/>
<polygon fill="#63b8ff" stroke="#63b8ff" points="177.77,-29.36 167.2,-30.01 175.87,-36.09 177.77,-29.36"/>
</a>
</g>
</g>
<!-- Node15&#45;&gt;Node7 -->
<g id="edge21_Node000015_Node000007" class="edge">
<title>Node15&#45;&gt;Node7</title>
<g id="a_edge21_Node000015_Node000007"><a xlink:title=" ">
<path fill="none" stroke="#63b8ff" d="M406.17,-71.99C421.62,-70.01 438.16,-67.91 453.5,-66 583.51,-49.85 619.42,-52.67 752.62,-30.03"/>
<polygon fill="#63b8ff" stroke="#63b8ff" points="753.54,-33.43 762.81,-28.28 752.36,-26.53 753.54,-33.43"/>
</a>
</g>
</g>
<!-- Node15&#45;&gt;Node8 -->
<g id="edge22_Node000015_Node000008" class="edge">
<title>Node15&#45;&gt;Node8</title>
<g id="a_edge22_Node000015_Node000008"><a xlink:title=" ">
<path fill="none" stroke="#63b8ff" d="M390.15,-65.95C421.71,-56.24 463.88,-43.27 497.33,-32.98"/>
<polygon fill="#63b8ff" stroke="#63b8ff" points="498.43,-36.3 506.96,-30.01 496.37,-29.61 498.43,-36.3"/>
</a>
</g>
</g>
<!-- Node15&#45;&gt;Node9 -->
<g id="edge23_Node000015_Node000009" class="edge">
<title>Node15&#45;&gt;Node9</title>
<g id="a_edge23_Node000015_Node000009"><a xlink:title=" ">
<path fill="none" stroke="#63b8ff" d="M406.02,-69.29C459.52,-59.87 539.4,-45.54 618.3,-30.21"/>
<polygon fill="#63b8ff" stroke="#63b8ff" points="619.27,-33.58 628.41,-28.23 617.93,-26.71 619.27,-33.58"/>
</a>
</g>
</g>
<!-- Node15&#45;&gt;Node12 -->
<g id="edge24_Node000015_Node000012" class="edge">
<title>Node15&#45;&gt;Node12</title>
<g id="a_edge24_Node000015_Node000012"><a xlink:title=" ">
<path fill="none" stroke="#63b8ff" d="M406.13,-71.62C421.58,-69.64 438.13,-67.64 453.5,-66 641.11,-45.98 691.22,-65.67 876.5,-30 881.05,-29.12 885.79,-27.97 890.42,-26.7"/>
<polygon fill="#63b8ff" stroke="#63b8ff" points="891.67,-29.98 900.28,-23.8 889.7,-23.26 891.67,-29.98"/>
</a>
</g>
</g>
<!-- Node16 -->
<g id="Node000016" class="node">
<title>Node16</title>
<g id="a_Node000016"><a xlink:title=" ">
<polygon fill="#e0e0e0" stroke="#999999" points="476.5,-24.5 412.5,-24.5 412.5,-5.5 476.5,-5.5 476.5,-24.5"/>
<text text-anchor="middle" x="444.5" y="-12.5" font-family="Helvetica,sans-Serif" font-size="10.00">algorithm</text>
</a>
</g>
</g>
<!-- Node15&#45;&gt;Node16 -->
<g id="edge26_Node000015_Node000016" class="edge">
<title>Node15&#45;&gt;Node16</title>
<g id="a_edge26_Node000015_Node000016"><a xlink:title=" ">
<path fill="none" stroke="#63b8ff" d="M366.69,-65.8C383.3,-55.17 405.9,-40.7 422.47,-30.1"/>
<polygon fill="#63b8ff" stroke="#63b8ff" points="424.44,-33 430.97,-24.66 420.66,-27.1 424.44,-33"/>
</a>
</g>
</g>
<!-- Node17 -->
<g id="Node000017" class="node">
<title>Node17</title>
<g id="a_Node000017"><a xlink:title=" ">
<polygon fill="#e0e0e0" stroke="#999999" points="248.5,-24.5 188.5,-24.5 188.5,-5.5 248.5,-5.5 248.5,-24.5"/>
<text text-anchor="middle" x="218.5" y="-12.5" font-family="Helvetica,sans-Serif" font-size="10.00">iostream</text>
</a>
</g>
</g>
<!-- Node15&#45;&gt;Node17 -->
<g id="edge27_Node000015_Node000017" class="edge">
<title>Node15&#45;&gt;Node17</title>
<g id="a_edge27_Node000015_Node000017"><a xlink:title=" ">
<path fill="none" stroke="#63b8ff" d="M316.85,-65.95C295.24,-54.98 265.42,-39.83 244.3,-29.11"/>
<polygon fill="#63b8ff" stroke="#63b8ff" points="245.77,-25.93 235.27,-24.52 242.6,-32.17 245.77,-25.93"/>
</a>
</g>
</g>
<!-- Node18 -->
<g id="Node000018" class="node">
<title>Node18</title>
<g id="a_Node000018"><a xlink:title=" ">
<polygon fill="#e0e0e0" stroke="#999999" points="310.5,-24.5 266.5,-24.5 266.5,-5.5 310.5,-5.5 310.5,-24.5"/>
<text text-anchor="middle" x="288.5" y="-12.5" font-family="Helvetica,sans-Serif" font-size="10.00">limits</text>
</a>
</g>
</g>
<!-- Node15&#45;&gt;Node18 -->
<g id="edge28_Node000015_Node000018" class="edge">
<title>Node15&#45;&gt;Node18</title>
<g id="a_edge28_Node000015_Node000018"><a xlink:title=" ">
<path fill="none" stroke="#63b8ff" d="M332.07,-65.8C323.43,-55.92 311.88,-42.72 302.84,-32.39"/>
<polygon fill="#63b8ff" stroke="#63b8ff" points="305.46,-30.07 296.24,-24.84 300.19,-34.67 305.46,-30.07"/>
</a>
</g>
</g>
<!-- Node19 -->
<g id="Node000019" class="node">
<title>Node19</title>
<g id="a_Node000019"><a xlink:title=" ">
<polygon fill="#e0e0e0" stroke="#999999" points="394,-24.5 329,-24.5 329,-5.5 394,-5.5 394,-24.5"/>
<text text-anchor="middle" x="361.5" y="-12.5" font-family="Helvetica,sans-Serif" font-size="10.00">functional</text>
</a>
</g>
</g>
<!-- Node15&#45;&gt;Node19 -->
<g id="edge29_Node000015_Node000019" class="edge">
<title>Node15&#45;&gt;Node19</title>
<g id="a_edge29_Node000015_Node000019"><a xlink:title=" ">
<path fill="none" stroke="#63b8ff" d="M348.27,-65.8C350.72,-56.6 353.92,-44.53 356.57,-34.58"/>
<polygon fill="#63b8ff" stroke="#63b8ff" points="359.97,-35.41 359.15,-24.84 353.2,-33.61 359.97,-35.41"/>
</a>
</g>
</g>
<!-- Node20&#45;&gt;Node2 -->
<g id="edge36_Node000020_Node000002" class="edge">
<title>Node20&#45;&gt;Node2</title>
<g id="a_edge36_Node000020_Node000002"><a xlink:title=" ">
<path fill="none" stroke="#63b8ff" d="M310.29,-131.91C274.01,-123.17 228.13,-110.78 188.5,-96 136.87,-76.74 79.63,-46.95 47.96,-29.68"/>
<polygon fill="#63b8ff" stroke="#63b8ff" points="49.44,-26.5 38.99,-24.74 46.07,-32.63 49.44,-26.5"/>
</a>
</g>
</g>
<!-- Node20&#45;&gt;Node6 -->
<g id="edge31_Node000020_Node000006" class="edge">
<title>Node20&#45;&gt;Node6</title>
<g id="a_edge31_Node000020_Node000006"><a xlink:title=" ">
<path fill="none" stroke="#63b8ff" d="M329.4,-131.94C302.91,-123 269.1,-110.42 240.5,-96 205.86,-78.54 168.9,-53.54 144.64,-36.15"/>
<polygon fill="#63b8ff" stroke="#63b8ff" points="146.46,-33.15 136.31,-30.12 142.36,-38.82 146.46,-33.15"/>
</a>
</g>
</g>
<!-- Node20&#45;&gt;Node7 -->
<g id="edge32_Node000020_Node000007" class="edge">
<title>Node20&#45;&gt;Node7</title>
<g id="a_edge32_Node000020_Node000007"><a xlink:title=" ">
<path fill="none" stroke="#63b8ff" d="M435.34,-131.93C474.9,-122.49 527.49,-109.37 573.5,-96 640.88,-76.43 717.64,-50.41 766.31,-33.44"/>
<polygon fill="#63b8ff" stroke="#63b8ff" points="767.67,-36.67 775.95,-30.06 765.36,-30.06 767.67,-36.67"/>
</a>
</g>
</g>
<!-- Node20&#45;&gt;Node8 -->
<g id="edge33_Node000020_Node000008" class="edge">
<title>Node20&#45;&gt;Node8</title>
<g id="a_edge33_Node000020_Node000008"><a xlink:title=" ">
<path fill="none" stroke="#63b8ff" d="M385.92,-131.9C400.34,-114.75 426.52,-85.66 453.5,-66 470.46,-53.64 490.93,-42.74 508.84,-34.3"/>
<polygon fill="#63b8ff" stroke="#63b8ff" points="510.32,-37.47 517.94,-30.11 507.39,-31.11 510.32,-37.47"/>
</a>
</g>
</g>
<!-- Node20&#45;&gt;Node9 -->
<g id="edge34_Node000020_Node000009" class="edge">
<title>Node20&#45;&gt;Node9</title>
<g id="a_edge34_Node000020_Node000009"><a xlink:title=" ">
<path fill="none" stroke="#63b8ff" d="M424.45,-131.92C454.93,-122.81 494.46,-110.04 528.5,-96 572.61,-77.8 621.3,-52.27 652.81,-34.98"/>
<polygon fill="#63b8ff" stroke="#63b8ff" points="654.55,-38.02 661.62,-30.12 651.17,-31.89 654.55,-38.02"/>
</a>
</g>
</g>
<!-- Node20&#45;&gt;Node14 -->
<g id="edge35_Node000020_Node000014" class="edge">
<title>Node20&#45;&gt;Node14</title>
<g id="a_edge35_Node000020_Node000014"><a xlink:title=" ">
<path fill="none" stroke="#63b8ff" d="M400.18,-131.95C420.06,-121.08 447.43,-106.11 467.01,-95.4"/>
<polygon fill="#63b8ff" stroke="#63b8ff" points="468.84,-98.39 475.93,-90.52 465.48,-92.25 468.84,-98.39"/>
</a>
</g>
</g>
<!-- Node20&#45;&gt;Node15 -->
<g id="edge37_Node000020_Node000015" class="edge">
<title>Node20&#45;&gt;Node15</title>
<g id="a_edge37_Node000020_Node000015"><a xlink:title=" ">
<path fill="none" stroke="#63b8ff" d="M367.84,-131.8C364.19,-124.01 359.57,-114.16 355.41,-105.28"/>
<polygon fill="#63b8ff" stroke="#63b8ff" points="358.55,-103.73 351.14,-96.16 352.21,-106.7 358.55,-103.73"/>
</a>
</g>
</g>
</g>
</svg>

<g id="navigator" transform="translate(0 0)" fill="#404254">
  <rect fill="#f2f5e9" fill-opacity="0.5" stroke="#606060" stroke-width=".5" x="0" y="0" width="60" height="60"/>
  <use id="zoomplus" xlink:href="#zoomPlus" x="17" y="9" onmousedown="handleZoom(evt,'in')"/>
  <use id="zoomminus" xlink:href="#zoomMin" x="42" y="9" onmousedown="handleZoom(evt,'out')"/>
  <use id="reset" xlink:href="#resetDef" x="30" y="36" onmousedown="handleReset()"/>
   <use id="arrowup" xlink:href="#arrowUp" x="0" y="0" onmousedown="handlePan(0,-1)"/>
  <use id="arrowright" xlink:href="#arrowRight" x="0" y="0" onmousedown="handlePan(1,0)"/>
  <use id="arrowdown" xlink:href="#arrowDown" x="0" y="0" onmousedown="handlePan(0,1)"/>
  <use id="arrowleft" xlink:href="#arrowLeft" x="0" y="0" onmousedown="handlePan(-1,0)"/>
</g>
<svg viewBox="0 0 15 15" width="100%" height="30px" preserveAspectRatio="xMaxYMin meet">
 <g id="arrow_out" transform="scale(0.3 0.3)">
  <a xlink:href="LogisticIndividualGrowthModel_8h__incl_org.svg" target="_base">
   <rect id="button" ry="5" rx="5" y="6" x="6" height="38" width="38"
        fill="#f2f5e9" fill-opacity="0.5" stroke="#606060" stroke-width="1.0"/>
   <path id="arrow"
     d="M 11.500037,31.436501 C 11.940474,20.09759 22.043105,11.32322 32.158766,21.979434 L 37.068811,17.246167 C 37.068811,17.246167 37.088388,32 37.088388,32 L 22.160133,31.978069 C 22.160133,31.978069 26.997745,27.140456 26.997745,27.140456 C 18.528582,18.264221 13.291696,25.230495 11.500037,31.436501 z"
     style="fill:#404040;"/>
  </a>
 </g>
</svg>

<style type='text/css'>
<![CDATA[
[data-mouse-over-selected='false'] { opacity: 0.7; }
[data-mouse-over-selected='true']  { opacity: 1.0; }
]]>
</style>
<script type="application/ecmascript"><![CDATA[
document.addEventListener('DOMContentLoaded', (event) => {
  highlightEdges();
  highlightAdjacentNodes();
});
]]></script>
</svg>
