<?xml version="1.0" encoding="UTF-8" standalone="no"?>
<!DOCTYPE svg PUBLIC "-//W3C//DTD SVG 1.1//EN"
 "http://www.w3.org/Graphics/SVG/1.1/DTD/svg11.dtd">
<!-- Generated by graphviz version 2.43.0 (0)
 -->
<!-- Title: /home/runner/work/Weaver/Weaver/include/App/Model/IBM/Maths/MathFunctions.h Pages: 1 -->
<!--zoomable 302 -->

<svg id="main" version="1.1" xmlns="http://www.w3.org/2000/svg" xmlns:xlink="http://www.w3.org/1999/xlink" xml:space="preserve" onload="init(evt)">
<style type="text/css"><![CDATA[
.node, .edge {opacity: 0.7;}
.node.selected, .edge.selected {opacity: 1;}
.edge:hover path { stroke: red; }
.edge:hover polygon { stroke: red; fill: red; }
]]></style>

<defs>
  <circle id="rim" cx="0" cy="0" r="7"/>
  <circle id="rim2" cx="0" cy="0" r="3.5"/>
  <g id="zoomPlus">
    <use xlink:href="#rim" fill="#404040"><set attributeName="fill" to="#808080" begin="zoomplus.mouseover" end="zoomplus.mouseout"/></use>
    <path d="M-4,0h8M0,-4v8" fill="none" stroke="white" stroke-width="1.5" pointer-events="none"/>
  </g>
  <g id="zoomMin">
    <use xlink:href="#rim" fill="#404040"><set attributeName="fill" to="#808080" begin="zoomminus.mouseover" end="zoomminus.mouseout"/></use>
    <path d="M-4,0h8" fill="none" stroke="white" stroke-width="1.5" pointer-events="none"/>
  </g>
  <g id="arrowUp" transform="translate(30 24)">
    <use xlink:href="#rim"/>
    <path pointer-events="none" fill="none" stroke="white" stroke-width="1.5" d="M0,-3.0v7 M-2.5,-0.5L0,-3.0L2.5,-0.5"/>
  </g>
  <g id="arrowRight" transform="rotate(90) translate(36 -43)">
    <use xlink:href="#rim"/>
    <path pointer-events="none" fill="none" stroke="white" stroke-width="1.5" d="M0,-3.0v7 M-2.5,-0.5L0,-3.0L2.5,-0.5"/>
  </g>
  <g id="arrowDown" transform="rotate(180) translate(-30 -48)">
    <use xlink:href="#rim"/>
    <path pointer-events="none" fill="none" stroke="white" stroke-width="1.5" d="M0,-3.0v7 M-2.5,-0.5L0,-3.0L2.5,-0.5"/>
  </g>
  <g id="arrowLeft" transform="rotate(270) translate(-36 17)">
    <use xlink:href="#rim"/>
    <path pointer-events="none" fill="none" stroke="white" stroke-width="1.5" d="M0,-3.0v7 M-2.5,-0.5L0,-3.0L2.5,-0.5"/>
  </g>
  <g id="resetDef">
    <use xlink:href="#rim2" fill="#404040"><set attributeName="fill" to="#808080" begin="reset.mouseover" end="reset.mouseout"/></use>
  </g>
</defs>
<script type="application/ecmascript">
var viewWidth = 2320;
var viewHeight = 302;
var sectionId = 'dynsection-0';
</script>
<script type="application/ecmascript" xlink:href="svg.min.js"/>
<svg id="graph" class="graph">
<g id="viewport">
<title>/home/runner/work/Weaver/Weaver/include/App/Model/IBM/Maths/MathFunctions.h</title>
<!-- Node1 -->
<g id="Node000001" class="node">
<title>Node1</title>
<g id="a_Node000001"><a xlink:title="Collection of mathematical and trait&#45;based functions for ecological and physiological modeling.">
<polygon fill="#999999" stroke="#666666" points="1055,-294 900,-294 900,-253 1055,-253 1055,-294"/>
<text text-anchor="start" x="908" y="-282" font-family="Helvetica,sans-Serif" font-size="10.00">/home/runner/work/Weaver</text>
<text text-anchor="start" x="908" y="-271" font-family="Helvetica,sans-Serif" font-size="10.00">/Weaver/include/App/Model</text>
<text text-anchor="middle" x="977.5" y="-260" font-family="Helvetica,sans-Serif" font-size="10.00">/IBM/Maths/MathFunctions.h</text>
</a>
</g>
</g>
<!-- Node2 -->
<g id="Node000002" class="node">
<title>Node2</title>
<g id="a_Node000002"><a xlink:title=" ">
<polygon fill="#e0e0e0" stroke="#999999" points="1236,-79.5 1189,-79.5 1189,-60.5 1236,-60.5 1236,-79.5"/>
<text text-anchor="middle" x="1212.5" y="-67.5" font-family="Helvetica,sans-Serif" font-size="10.00">vector</text>
</a>
</g>
</g>
<!-- Node1&#45;&gt;Node2 -->
<g id="edge1_Node000001_Node000002" class="edge">
<title>Node1&#45;&gt;Node2</title>
<g id="a_edge1_Node000001_Node000002"><a xlink:title=" ">
<path fill="none" stroke="#63b8ff" d="M984.97,-252.84C998.11,-220.78 1028.31,-157.22 1073.5,-121 1104.38,-96.25 1148.53,-83.17 1178.74,-76.69"/>
<polygon fill="#63b8ff" stroke="#63b8ff" points="1179.69,-80.06 1188.8,-74.66 1178.31,-73.2 1179.69,-80.06"/>
</a>
</g>
</g>
<!-- Node3 -->
<g id="Node000003" class="node">
<title>Node3</title>
<g id="a_Node000003"><a xlink:title=" ">
<polygon fill="#e0e0e0" stroke="#999999" points="1313.5,-211.5 1275.5,-211.5 1275.5,-192.5 1313.5,-192.5 1313.5,-211.5"/>
<text text-anchor="middle" x="1294.5" y="-199.5" font-family="Helvetica,sans-Serif" font-size="10.00">map</text>
</a>
</g>
</g>
<!-- Node1&#45;&gt;Node3 -->
<g id="edge2_Node000001_Node000003" class="edge">
<title>Node1&#45;&gt;Node3</title>
<g id="a_edge2_Node000001_Node000003"><a xlink:title=" ">
<path fill="none" stroke="#63b8ff" d="M1055.04,-263.48C1114.09,-255.22 1196.82,-240.61 1266.5,-217 1267.56,-216.64 1268.62,-216.25 1269.69,-215.84"/>
<polygon fill="#63b8ff" stroke="#63b8ff" points="1271.42,-218.9 1279.13,-211.63 1268.57,-212.5 1271.42,-218.9"/>
</a>
</g>
</g>
<!-- Node4 -->
<g id="Node000004" class="node">
<title>Node4</title>
<g id="a_Node000004"><a xlink:title=" ">
<polygon fill="#e0e0e0" stroke="#999999" points="1377,-211.5 1332,-211.5 1332,-192.5 1377,-192.5 1377,-211.5"/>
<text text-anchor="middle" x="1354.5" y="-199.5" font-family="Helvetica,sans-Serif" font-size="10.00">utility</text>
</a>
</g>
</g>
<!-- Node1&#45;&gt;Node4 -->
<g id="edge3_Node000001_Node000004" class="edge">
<title>Node1&#45;&gt;Node4</title>
<g id="a_edge3_Node000001_Node000004"><a xlink:title=" ">
<path fill="none" stroke="#63b8ff" d="M1055.13,-265.68C1125.88,-258.13 1232.72,-243.4 1322.5,-217 1324.18,-216.51 1325.89,-215.95 1327.6,-215.34"/>
<polygon fill="#63b8ff" stroke="#63b8ff" points="1329.2,-218.47 1337.19,-211.52 1326.61,-211.97 1329.2,-218.47"/>
</a>
</g>
</g>
<!-- Node5 -->
<g id="Node000005" class="node">
<title>Node5</title>
<g id="a_Node000005"><a xlink:title=" ">
<polygon fill="#e0e0e0" stroke="#999999" points="907,-79.5 860,-79.5 860,-60.5 907,-60.5 907,-79.5"/>
<text text-anchor="middle" x="883.5" y="-67.5" font-family="Helvetica,sans-Serif" font-size="10.00">cmath</text>
</a>
</g>
</g>
<!-- Node1&#45;&gt;Node5 -->
<g id="edge4_Node000001_Node000005" class="edge">
<title>Node1&#45;&gt;Node5</title>
<g id="a_edge4_Node000001_Node000005"><a xlink:title=" ">
<path fill="none" stroke="#63b8ff" d="M968.19,-252.73C956.87,-228.7 937.23,-186.91 920.5,-151 910.64,-129.84 899.39,-105.48 891.91,-89.26"/>
<polygon fill="#63b8ff" stroke="#63b8ff" points="894.95,-87.5 887.59,-79.89 888.6,-90.43 894.95,-87.5"/>
</a>
</g>
</g>
<!-- Node6 -->
<g id="Node000006" class="node">
<title>Node6</title>
<g id="a_Node000006"><a xlink:title=" ">
<polygon fill="#e0e0e0" stroke="#999999" points="65,-79.5 0,-79.5 0,-60.5 65,-60.5 65,-79.5"/>
<text text-anchor="middle" x="32.5" y="-67.5" font-family="Helvetica,sans-Serif" font-size="10.00">functional</text>
</a>
</g>
</g>
<!-- Node1&#45;&gt;Node6 -->
<g id="edge5_Node000001_Node000006" class="edge">
<title>Node1&#45;&gt;Node6</title>
<g id="a_edge5_Node000001_Node000006"><a xlink:title=" ">
<path fill="none" stroke="#63b8ff" d="M899.99,-269.06C782.48,-263.04 552.52,-248.17 359.5,-217 232.85,-196.55 181.41,-227.6 78.5,-151 57.66,-135.49 44.76,-107.52 38.11,-89.11"/>
<polygon fill="#63b8ff" stroke="#63b8ff" points="41.4,-87.91 34.9,-79.54 34.76,-90.13 41.4,-87.91"/>
</a>
</g>
</g>
<!-- Node7 -->
<g id="Node000007" class="node">
<title>Node7</title>
<g id="a_Node000007"><a xlink:title=" ">
<polygon fill="#e0e0e0" stroke="#999999" points="841.5,-79.5 781.5,-79.5 781.5,-60.5 841.5,-60.5 841.5,-79.5"/>
<text text-anchor="middle" x="811.5" y="-67.5" font-family="Helvetica,sans-Serif" font-size="10.00">iostream</text>
</a>
</g>
</g>
<!-- Node1&#45;&gt;Node7 -->
<g id="edge6_Node000001_Node000007" class="edge">
<title>Node1&#45;&gt;Node7</title>
<g id="a_edge6_Node000001_Node000007"><a xlink:title=" ">
<path fill="none" stroke="#63b8ff" d="M928.89,-252.84C888.44,-233.55 833.56,-199.88 808.5,-151 798.62,-131.72 801.88,-106.27 805.95,-89.3"/>
<polygon fill="#63b8ff" stroke="#63b8ff" points="809.36,-90.09 808.6,-79.52 802.6,-88.26 809.36,-90.09"/>
</a>
</g>
</g>
<!-- Node8 -->
<g id="Node000008" class="node">
<title>Node8</title>
<g id="a_Node000008"><a xlink:href="Temperature_8h.html" target="_top" xlink:title="Definition of the Temperature class and related operations.">
<polygon fill="white" stroke="#666666" points="498.5,-217 368.5,-217 368.5,-187 498.5,-187 498.5,-217"/>
<text text-anchor="start" x="376.5" y="-205" font-family="Helvetica,sans-Serif" font-size="10.00">App/Model/IBM/Physics</text>
<text text-anchor="middle" x="433.5" y="-194" font-family="Helvetica,sans-Serif" font-size="10.00">/Temperature.h</text>
</a>
</g>
</g>
<!-- Node1&#45;&gt;Node8 -->
<g id="edge7_Node000001_Node000008" class="edge">
<title>Node1&#45;&gt;Node8</title>
<g id="a_edge7_Node000001_Node000008"><a xlink:title=" ">
<path fill="none" stroke="#63b8ff" d="M899.62,-263C811.29,-252.15 662.98,-233.75 535.5,-217 526.81,-215.86 517.7,-214.64 508.66,-213.42"/>
<polygon fill="#63b8ff" stroke="#63b8ff" points="508.89,-209.91 498.51,-212.04 507.95,-216.85 508.89,-209.91"/>
</a>
</g>
</g>
<!-- Node19 -->
<g id="Node000019" class="node">
<title>Node19</title>
<g id="a_Node000019"><a xlink:href="StructuralUnits_8h.html" target="_top" xlink:title="Defines physical units used in the simulation: DryMass, WetMass, and Length.">
<polygon fill="white" stroke="#666666" points="712,-217 545,-217 545,-187 712,-187 712,-217"/>
<text text-anchor="start" x="553" y="-205" font-family="Helvetica,sans-Serif" font-size="10.00">App/Model/IBM/Landscape</text>
<text text-anchor="middle" x="628.5" y="-194" font-family="Helvetica,sans-Serif" font-size="10.00">/LivingBeings/StructuralUnits.h</text>
</a>
</g>
</g>
<!-- Node1&#45;&gt;Node19 -->
<g id="edge26_Node000001_Node000019" class="edge">
<title>Node1&#45;&gt;Node19</title>
<g id="a_edge26_Node000001_Node000019"><a xlink:title=" ">
<path fill="none" stroke="#63b8ff" d="M899.61,-256.99C842.95,-245.7 766.43,-230.47 709.14,-219.06"/>
<polygon fill="#63b8ff" stroke="#63b8ff" points="709.53,-215.57 699.04,-217.05 708.16,-222.43 709.53,-215.57"/>
</a>
</g>
</g>
<!-- Node21 -->
<g id="Node000021" class="node">
<title>Node21</title>
<g id="a_Node000021"><a xlink:href="View_8h.html" target="_top" xlink:title="Abstract base class for a view in the MVC pattern, handling logging and RunMode titles.">
<polygon fill="white" stroke="#666666" points="1257.5,-211.5 1159.5,-211.5 1159.5,-192.5 1257.5,-192.5 1257.5,-211.5"/>
<text text-anchor="middle" x="1208.5" y="-199.5" font-family="Helvetica,sans-Serif" font-size="10.00">App/View/View.h</text>
</a>
</g>
</g>
<!-- Node1&#45;&gt;Node21 -->
<g id="edge34_Node000001_Node000021" class="edge">
<title>Node1&#45;&gt;Node21</title>
<g id="a_edge34_Node000001_Node000021"><a xlink:title=" ">
<path fill="none" stroke="#63b8ff" d="M1042.46,-252.96C1083.76,-240.53 1135.79,-224.88 1170.49,-214.44"/>
<polygon fill="#63b8ff" stroke="#63b8ff" points="1171.67,-217.74 1180.24,-211.5 1169.65,-211.03 1171.67,-217.74"/>
</a>
</g>
</g>
<!-- Node37 -->
<g id="Node000037" class="node">
<title>Node37</title>
<g id="a_Node000037"><a xlink:href="Constants_8h.html" target="_top" xlink:title="Mathematical and physical constants used throughout the project.">
<polygon fill="white" stroke="#666666" points="1518,-217 1395,-217 1395,-187 1518,-187 1518,-217"/>
<text text-anchor="start" x="1403" y="-205" font-family="Helvetica,sans-Serif" font-size="10.00">App/Model/IBM/Maths</text>
<text text-anchor="middle" x="1456.5" y="-194" font-family="Helvetica,sans-Serif" font-size="10.00">/Constants.h</text>
</a>
</g>
</g>
<!-- Node1&#45;&gt;Node37 -->
<g id="edge57_Node000001_Node000037" class="edge">
<title>Node1&#45;&gt;Node37</title>
<g id="a_edge57_Node000001_Node000037"><a xlink:title=" ">
<path fill="none" stroke="#63b8ff" d="M1055.37,-263.4C1135.56,-253.7 1264.38,-237.19 1384.59,-217.27"/>
<polygon fill="#63b8ff" stroke="#63b8ff" points="1385.41,-220.68 1394.7,-215.58 1384.26,-213.77 1385.41,-220.68"/>
</a>
</g>
</g>
<!-- Node8&#45;&gt;Node6 -->
<g id="edge13_Node000008_Node000006" class="edge">
<title>Node8&#45;&gt;Node6</title>
<g id="a_edge13_Node000008_Node000006"><a xlink:title=" ">
<path fill="none" stroke="#63b8ff" d="M368.24,-200.43C303.98,-197.61 204.43,-187.05 126.5,-151 93.78,-135.86 63.47,-106.07 46.53,-87.42"/>
<polygon fill="#63b8ff" stroke="#63b8ff" points="48.98,-84.91 39.73,-79.73 43.73,-89.54 48.98,-84.91"/>
</a>
</g>
</g>
<!-- Node9 -->
<g id="Node000009" class="node">
<title>Node9</title>
<g id="a_Node000009"><a xlink:title=" ">
<polygon fill="#e0e0e0" stroke="#999999" points="763,-85 658,-85 658,-55 763,-55 763,-85"/>
<text text-anchor="start" x="666" y="-73" font-family="Helvetica,sans-Serif" font-size="10.00">boost/archive/text</text>
<text text-anchor="middle" x="710.5" y="-62" font-family="Helvetica,sans-Serif" font-size="10.00">_iarchive.hpp</text>
</a>
</g>
</g>
<!-- Node8&#45;&gt;Node9 -->
<g id="edge8_Node000008_Node000009" class="edge">
<title>Node8&#45;&gt;Node9</title>
<g id="a_edge8_Node000008_Node000009"><a xlink:title=" ">
<path fill="none" stroke="#63b8ff" d="M463.41,-186.96C513.66,-163.38 615.03,-115.81 671.05,-89.51"/>
<polygon fill="#63b8ff" stroke="#63b8ff" points="672.73,-92.59 680.3,-85.17 669.76,-86.25 672.73,-92.59"/>
</a>
</g>
</g>
<!-- Node10 -->
<g id="Node000010" class="node">
<title>Node10</title>
<g id="a_Node000010"><a xlink:title=" ">
<polygon fill="#e0e0e0" stroke="#999999" points="323,-85 218,-85 218,-55 323,-55 323,-85"/>
<text text-anchor="start" x="226" y="-73" font-family="Helvetica,sans-Serif" font-size="10.00">boost/archive/text</text>
<text text-anchor="middle" x="270.5" y="-62" font-family="Helvetica,sans-Serif" font-size="10.00">_oarchive.hpp</text>
</a>
</g>
</g>
<!-- Node8&#45;&gt;Node10 -->
<g id="edge9_Node000008_Node000010" class="edge">
<title>Node8&#45;&gt;Node10</title>
<g id="a_edge9_Node000008_Node000010"><a xlink:title=" ">
<path fill="none" stroke="#63b8ff" d="M393.07,-186.96C372.62,-178.58 348.25,-166.53 329.5,-151 310.21,-135.02 293.83,-111.45 283.26,-94.03"/>
<polygon fill="#63b8ff" stroke="#63b8ff" points="286.08,-91.93 278,-85.07 280.05,-95.47 286.08,-91.93"/>
</a>
</g>
</g>
<!-- Node11 -->
<g id="Node000011" class="node">
<title>Node11</title>
<g id="a_Node000011"><a xlink:title=" ">
<polygon fill="#e0e0e0" stroke="#999999" points="639.5,-85 523.5,-85 523.5,-55 639.5,-55 639.5,-85"/>
<text text-anchor="start" x="531.5" y="-73" font-family="Helvetica,sans-Serif" font-size="10.00">boost/archive/binary</text>
<text text-anchor="middle" x="581.5" y="-62" font-family="Helvetica,sans-Serif" font-size="10.00">_iarchive.hpp</text>
</a>
</g>
</g>
<!-- Node8&#45;&gt;Node11 -->
<g id="edge10_Node000008_Node000011" class="edge">
<title>Node8&#45;&gt;Node11</title>
<g id="a_edge10_Node000008_Node000011"><a xlink:title=" ">
<path fill="none" stroke="#63b8ff" d="M455.38,-186.85C469.57,-177.32 488.2,-164.13 503.5,-151 524.88,-132.65 547.11,-109.38 562.34,-92.67"/>
<polygon fill="#63b8ff" stroke="#63b8ff" points="565.12,-94.81 569.22,-85.04 559.92,-90.12 565.12,-94.81"/>
</a>
</g>
</g>
<!-- Node12 -->
<g id="Node000012" class="node">
<title>Node12</title>
<g id="a_Node000012"><a xlink:title=" ">
<polygon fill="#e0e0e0" stroke="#999999" points="199.5,-85 83.5,-85 83.5,-55 199.5,-55 199.5,-85"/>
<text text-anchor="start" x="91.5" y="-73" font-family="Helvetica,sans-Serif" font-size="10.00">boost/archive/binary</text>
<text text-anchor="middle" x="141.5" y="-62" font-family="Helvetica,sans-Serif" font-size="10.00">_oarchive.hpp</text>
</a>
</g>
</g>
<!-- Node8&#45;&gt;Node12 -->
<g id="edge11_Node000008_Node000012" class="edge">
<title>Node8&#45;&gt;Node12</title>
<g id="a_edge11_Node000008_Node000012"><a xlink:title=" ">
<path fill="none" stroke="#63b8ff" d="M391.64,-186.91C364.73,-177.51 329.18,-164.44 298.5,-151 255.27,-132.06 207.13,-106.89 175.69,-89.89"/>
<polygon fill="#63b8ff" stroke="#63b8ff" points="177.35,-86.8 166.89,-85.1 174.01,-92.95 177.35,-86.8"/>
</a>
</g>
</g>
<!-- Node13 -->
<g id="Node000013" class="node">
<title>Node13</title>
<g id="a_Node000013"><a xlink:title=" ">
<polygon fill="#e0e0e0" stroke="#999999" points="873,-145.5 818,-145.5 818,-126.5 873,-126.5 873,-145.5"/>
<text text-anchor="middle" x="845.5" y="-133.5" font-family="Helvetica,sans-Serif" font-size="10.00">fstream</text>
</a>
</g>
</g>
<!-- Node8&#45;&gt;Node13 -->
<g id="edge12_Node000008_Node000013" class="edge">
<title>Node8&#45;&gt;Node13</title>
<g id="a_edge12_Node000008_Node000013"><a xlink:title=" ">
<path fill="none" stroke="#63b8ff" d="M498.78,-190.86C585.97,-177.31 737.59,-153.76 807.81,-142.85"/>
<polygon fill="#63b8ff" stroke="#63b8ff" points="808.62,-146.27 817.96,-141.28 807.54,-139.35 808.62,-146.27"/>
</a>
</g>
</g>
<!-- Node14 -->
<g id="Node000014" class="node">
<title>Node14</title>
<g id="a_Node000014"><a xlink:title=" ">
<polygon fill="#e0e0e0" stroke="#999999" points="201,-145.5 136,-145.5 136,-126.5 201,-126.5 201,-145.5"/>
<text text-anchor="middle" x="168.5" y="-133.5" font-family="Helvetica,sans-Serif" font-size="10.00">stdexcept</text>
</a>
</g>
</g>
<!-- Node8&#45;&gt;Node14 -->
<g id="edge14_Node000008_Node000014" class="edge">
<title>Node8&#45;&gt;Node14</title>
<g id="a_edge14_Node000008_Node000014"><a xlink:title=" ">
<path fill="none" stroke="#63b8ff" d="M368.37,-187.21C324.9,-177.72 266.57,-164.45 215.5,-151 212.37,-150.18 209.14,-149.29 205.89,-148.37"/>
<polygon fill="#63b8ff" stroke="#63b8ff" points="206.83,-145 196.25,-145.59 204.89,-151.73 206.83,-145"/>
</a>
</g>
</g>
<!-- Node15 -->
<g id="Node000015" class="node">
<title>Node15</title>
<g id="a_Node000015"><a xlink:href="PreciseDouble_8h.html" target="_top" xlink:title="Defines the PreciseDouble class for safe and precise double&#45;precision arithmetic.">
<polygon fill="white" stroke="#666666" points="495,-151 372,-151 372,-121 495,-121 495,-151"/>
<text text-anchor="start" x="380" y="-139" font-family="Helvetica,sans-Serif" font-size="10.00">App/Model/IBM/Maths</text>
<text text-anchor="middle" x="433.5" y="-128" font-family="Helvetica,sans-Serif" font-size="10.00">/PreciseDouble.h</text>
</a>
</g>
</g>
<!-- Node8&#45;&gt;Node15 -->
<g id="edge15_Node000008_Node000015" class="edge">
<title>Node8&#45;&gt;Node15</title>
<g id="a_edge15_Node000008_Node000015"><a xlink:title=" ">
<path fill="none" stroke="#63b8ff" d="M433.5,-186.8C433.5,-179.34 433.5,-169.99 433.5,-161.41"/>
<polygon fill="#63b8ff" stroke="#63b8ff" points="437,-161.16 433.5,-151.16 430,-161.16 437,-161.16"/>
</a>
</g>
</g>
<!-- Node15&#45;&gt;Node5 -->
<g id="edge21_Node000015_Node000005" class="edge">
<title>Node15&#45;&gt;Node5</title>
<g id="a_edge21_Node000015_Node000005"><a xlink:title=" ">
<path fill="none" stroke="#63b8ff" d="M495.29,-129.74C594.53,-120.94 784.97,-102.45 850.5,-85 852.39,-84.5 854.32,-83.9 856.25,-83.25"/>
<polygon fill="#63b8ff" stroke="#63b8ff" points="857.58,-86.49 865.67,-79.65 855.08,-79.95 857.58,-86.49"/>
</a>
</g>
</g>
<!-- Node15&#45;&gt;Node6 -->
<g id="edge25_Node000015_Node000006" class="edge">
<title>Node15&#45;&gt;Node6</title>
<g id="a_edge25_Node000015_Node000006"><a xlink:title=" ">
<path fill="none" stroke="#63b8ff" d="M371.89,-129.88C299.88,-123.11 177.43,-109.11 74.5,-85 71.53,-84.3 68.47,-83.49 65.42,-82.6"/>
<polygon fill="#63b8ff" stroke="#63b8ff" points="66.42,-79.25 55.83,-79.62 64.34,-85.93 66.42,-79.25"/>
</a>
</g>
</g>
<!-- Node15&#45;&gt;Node7 -->
<g id="edge23_Node000015_Node000007" class="edge">
<title>Node15&#45;&gt;Node7</title>
<g id="a_edge23_Node000015_Node000007"><a xlink:title=" ">
<path fill="none" stroke="#63b8ff" d="M495.24,-129.42C563.53,-122.43 676.47,-108.43 771.5,-85 774.15,-84.35 776.88,-83.59 779.6,-82.77"/>
<polygon fill="#63b8ff" stroke="#63b8ff" points="780.88,-86.03 789.3,-79.61 778.71,-79.38 780.88,-86.03"/>
</a>
</g>
</g>
<!-- Node15&#45;&gt;Node9 -->
<g id="edge16_Node000015_Node000009" class="edge">
<title>Node15&#45;&gt;Node9</title>
<g id="a_edge16_Node000015_Node000009"><a xlink:title=" ">
<path fill="none" stroke="#63b8ff" d="M494.29,-120.95C539.84,-110.43 601.97,-96.08 647.94,-85.45"/>
<polygon fill="#63b8ff" stroke="#63b8ff" points="648.83,-88.84 657.79,-83.18 647.25,-82.02 648.83,-88.84"/>
</a>
</g>
</g>
<!-- Node15&#45;&gt;Node10 -->
<g id="edge17_Node000015_Node000010" class="edge">
<title>Node15&#45;&gt;Node10</title>
<g id="a_edge17_Node000015_Node000010"><a xlink:title=" ">
<path fill="none" stroke="#63b8ff" d="M397.73,-120.95C373.63,-111.49 341.65,-98.93 315.77,-88.78"/>
<polygon fill="#63b8ff" stroke="#63b8ff" points="316.77,-85.41 306.19,-85.01 314.22,-91.93 316.77,-85.41"/>
</a>
</g>
</g>
<!-- Node15&#45;&gt;Node11 -->
<g id="edge18_Node000015_Node000011" class="edge">
<title>Node15&#45;&gt;Node11</title>
<g id="a_edge18_Node000015_Node000011"><a xlink:title=" ">
<path fill="none" stroke="#63b8ff" d="M465.98,-120.95C487.67,-111.58 516.39,-99.16 539.77,-89.05"/>
<polygon fill="#63b8ff" stroke="#63b8ff" points="541.31,-92.19 549.1,-85.01 538.53,-85.77 541.31,-92.19"/>
</a>
</g>
</g>
<!-- Node15&#45;&gt;Node12 -->
<g id="edge19_Node000015_Node000012" class="edge">
<title>Node15&#45;&gt;Node12</title>
<g id="a_edge19_Node000015_Node000012"><a xlink:title=" ">
<path fill="none" stroke="#63b8ff" d="M371.93,-121.51C324.34,-111.08 258.52,-96.65 209.41,-85.88"/>
<polygon fill="#63b8ff" stroke="#63b8ff" points="210.02,-82.44 199.51,-83.71 208.52,-89.27 210.02,-82.44"/>
</a>
</g>
</g>
<!-- Node16 -->
<g id="Node000016" class="node">
<title>Node16</title>
<g id="a_Node000016"><a xlink:title=" ">
<polygon fill="#e0e0e0" stroke="#999999" points="1728.5,-19 1684.5,-19 1684.5,0 1728.5,0 1728.5,-19"/>
<text text-anchor="middle" x="1706.5" y="-7" font-family="Helvetica,sans-Serif" font-size="10.00">string</text>
</a>
</g>
</g>
<!-- Node15&#45;&gt;Node16 -->
<g id="edge20_Node000015_Node000016" class="edge">
<title>Node15&#45;&gt;Node16</title>
<g id="a_edge20_Node000015_Node000016"><a xlink:title=" ">
<path fill="none" stroke="#63b8ff" d="M445.45,-120.95C463.64,-99.97 497.9,-62.18 514.5,-55 623.46,-7.87 1493.67,-9.47 1673.9,-10.31"/>
<polygon fill="#63b8ff" stroke="#63b8ff" points="1674.05,-13.81 1684.07,-10.36 1674.08,-6.81 1674.05,-13.81"/>
</a>
</g>
</g>
<!-- Node17 -->
<g id="Node000017" class="node">
<title>Node17</title>
<g id="a_Node000017"><a xlink:title=" ">
<polygon fill="#e0e0e0" stroke="#999999" points="405.5,-79.5 341.5,-79.5 341.5,-60.5 405.5,-60.5 405.5,-79.5"/>
<text text-anchor="middle" x="373.5" y="-67.5" font-family="Helvetica,sans-Serif" font-size="10.00">algorithm</text>
</a>
</g>
</g>
<!-- Node15&#45;&gt;Node17 -->
<g id="edge22_Node000015_Node000017" class="edge">
<title>Node15&#45;&gt;Node17</title>
<g id="a_edge22_Node000015_Node000017"><a xlink:title=" ">
<path fill="none" stroke="#63b8ff" d="M420.18,-120.8C410.92,-110.92 398.55,-97.72 388.87,-87.39"/>
<polygon fill="#63b8ff" stroke="#63b8ff" points="391.18,-84.75 381.79,-79.84 386.08,-89.53 391.18,-84.75"/>
</a>
</g>
</g>
<!-- Node18 -->
<g id="Node000018" class="node">
<title>Node18</title>
<g id="a_Node000018"><a xlink:title=" ">
<polygon fill="#e0e0e0" stroke="#999999" points="467.5,-79.5 423.5,-79.5 423.5,-60.5 467.5,-60.5 467.5,-79.5"/>
<text text-anchor="middle" x="445.5" y="-67.5" font-family="Helvetica,sans-Serif" font-size="10.00">limits</text>
</a>
</g>
</g>
<!-- Node15&#45;&gt;Node18 -->
<g id="edge24_Node000015_Node000018" class="edge">
<title>Node15&#45;&gt;Node18</title>
<g id="a_edge24_Node000015_Node000018"><a xlink:title=" ">
<path fill="none" stroke="#63b8ff" d="M436.16,-120.8C437.87,-111.7 440.1,-99.79 441.96,-89.9"/>
<polygon fill="#63b8ff" stroke="#63b8ff" points="445.44,-90.32 443.84,-79.84 438.56,-89.03 445.44,-90.32"/>
</a>
</g>
</g>
<!-- Node19&#45;&gt;Node5 -->
<g id="edge32_Node000019_Node000005" class="edge">
<title>Node19&#45;&gt;Node5</title>
<g id="a_edge32_Node000019_Node000005"><a xlink:title=" ">
<path fill="none" stroke="#63b8ff" d="M656.27,-186.84C705.91,-161.54 809.15,-108.91 857.48,-84.26"/>
<polygon fill="#63b8ff" stroke="#63b8ff" points="859.34,-87.25 866.66,-79.59 856.16,-81.01 859.34,-87.25"/>
</a>
</g>
</g>
<!-- Node19&#45;&gt;Node9 -->
<g id="edge27_Node000019_Node000009" class="edge">
<title>Node19&#45;&gt;Node9</title>
<g id="a_edge27_Node000019_Node000009"><a xlink:title=" ">
<path fill="none" stroke="#63b8ff" d="M654.69,-186.95C668.29,-178.33 684.01,-166.06 693.5,-151 704.06,-134.25 708.16,-112.01 709.7,-95.23"/>
<polygon fill="#63b8ff" stroke="#63b8ff" points="713.2,-95.32 710.39,-85.1 706.22,-94.84 713.2,-95.32"/>
</a>
</g>
</g>
<!-- Node19&#45;&gt;Node10 -->
<g id="edge28_Node000019_Node000010" class="edge">
<title>Node19&#45;&gt;Node10</title>
<g id="a_edge28_Node000019_Node000010"><a xlink:title=" ">
<path fill="none" stroke="#63b8ff" d="M544.78,-190.14C479.24,-180.74 394.06,-166.28 362.5,-151 346.99,-143.49 314,-113.18 292.03,-92.1"/>
<polygon fill="#63b8ff" stroke="#63b8ff" points="294.4,-89.52 284.77,-85.09 289.53,-94.55 294.4,-89.52"/>
</a>
</g>
</g>
<!-- Node19&#45;&gt;Node11 -->
<g id="edge29_Node000019_Node000011" class="edge">
<title>Node19&#45;&gt;Node11</title>
<g id="a_edge29_Node000019_Node000011"><a xlink:title=" ">
<path fill="none" stroke="#63b8ff" d="M623.38,-186.84C615.36,-164.67 599.76,-121.51 590.03,-94.59"/>
<polygon fill="#63b8ff" stroke="#63b8ff" points="593.3,-93.36 586.61,-85.14 586.72,-95.74 593.3,-93.36"/>
</a>
</g>
</g>
<!-- Node19&#45;&gt;Node12 -->
<g id="edge30_Node000019_Node000012" class="edge">
<title>Node19&#45;&gt;Node12</title>
<g id="a_edge30_Node000019_Node000012"><a xlink:title=" ">
<path fill="none" stroke="#63b8ff" d="M544.77,-189.51C461,-177.68 341.73,-159.76 321.5,-151 301.43,-142.31 301.71,-131.45 282.5,-121 257.73,-107.52 228.6,-96.48 203.27,-88.24"/>
<polygon fill="#63b8ff" stroke="#63b8ff" points="204,-84.79 193.41,-85.1 201.88,-91.47 204,-84.79"/>
</a>
</g>
</g>
<!-- Node19&#45;&gt;Node15 -->
<g id="edge33_Node000019_Node000015" class="edge">
<title>Node19&#45;&gt;Node15</title>
<g id="a_edge33_Node000019_Node000015"><a xlink:title=" ">
<path fill="none" stroke="#63b8ff" d="M585.71,-186.95C556.37,-177.33 517.26,-164.49 486.03,-154.24"/>
<polygon fill="#63b8ff" stroke="#63b8ff" points="486.79,-150.81 476.19,-151.01 484.6,-157.46 486.79,-150.81"/>
</a>
</g>
</g>
<!-- Node20 -->
<g id="Node000020" class="node">
<title>Node20</title>
<g id="a_Node000020"><a xlink:title=" ">
<polygon fill="#e0e0e0" stroke="#999999" points="685,-145.5 628,-145.5 628,-126.5 685,-126.5 685,-145.5"/>
<text text-anchor="middle" x="656.5" y="-133.5" font-family="Helvetica,sans-Serif" font-size="10.00">ostream</text>
</a>
</g>
</g>
<!-- Node19&#45;&gt;Node20 -->
<g id="edge31_Node000019_Node000020" class="edge">
<title>Node19&#45;&gt;Node20</title>
<g id="a_edge31_Node000019_Node000020"><a xlink:title=" ">
<path fill="none" stroke="#63b8ff" d="M634.71,-186.8C638.78,-177.5 644.13,-165.27 648.51,-155.26"/>
<polygon fill="#63b8ff" stroke="#63b8ff" points="651.83,-156.41 652.63,-145.84 645.42,-153.6 651.83,-156.41"/>
</a>
</g>
</g>
<!-- Node21&#45;&gt;Node13 -->
<g id="edge38_Node000021_Node000013" class="edge">
<title>Node21&#45;&gt;Node13</title>
<g id="a_edge38_Node000021_Node000013"><a xlink:title=" ">
<path fill="none" stroke="#63b8ff" d="M1159.29,-192.65C1101.93,-182.87 1004.28,-166.09 920.5,-151 908.4,-148.82 895.22,-146.38 883.32,-144.16"/>
<polygon fill="#63b8ff" stroke="#63b8ff" points="883.74,-140.67 873.27,-142.27 882.45,-147.55 883.74,-140.67"/>
</a>
</g>
</g>
<!-- Node21&#45;&gt;Node16 -->
<g id="edge35_Node000021_Node000016" class="edge">
<title>Node21&#45;&gt;Node16</title>
<g id="a_edge35_Node000021_Node000016"><a xlink:title=" ">
<path fill="none" stroke="#63b8ff" d="M1239.93,-192.49C1248.49,-190.42 1257.81,-188.41 1266.5,-187 1313.39,-179.4 1658.66,-184.34 1692.5,-151 1724.86,-119.12 1717.71,-59.77 1711.29,-29.42"/>
<polygon fill="#63b8ff" stroke="#63b8ff" points="1714.62,-28.28 1708.95,-19.33 1707.8,-29.86 1714.62,-28.28"/>
</a>
</g>
</g>
<!-- Node22 -->
<g id="Node000022" class="node">
<title>Node22</title>
<g id="a_Node000022"><a xlink:title=" ">
<polygon fill="#e0e0e0" stroke="#999999" points="1165,-145.5 1082,-145.5 1082,-126.5 1165,-126.5 1165,-145.5"/>
<text text-anchor="middle" x="1123.5" y="-133.5" font-family="Helvetica,sans-Serif" font-size="10.00">initializer_list</text>
</a>
</g>
</g>
<!-- Node21&#45;&gt;Node22 -->
<g id="edge36_Node000021_Node000022" class="edge">
<title>Node21&#45;&gt;Node22</title>
<g id="a_edge36_Node000021_Node000022"><a xlink:title=" ">
<path fill="none" stroke="#63b8ff" d="M1197.04,-192.37C1183.22,-181.97 1159.79,-164.32 1143.09,-151.75"/>
<polygon fill="#63b8ff" stroke="#63b8ff" points="1145.15,-148.92 1135.05,-145.7 1140.94,-154.51 1145.15,-148.92"/>
</a>
</g>
</g>
<!-- Node23 -->
<g id="Node000023" class="node">
<title>Node23</title>
<g id="a_Node000023"><a xlink:title=" ">
<polygon fill="#e0e0e0" stroke="#999999" points="1233.5,-145.5 1183.5,-145.5 1183.5,-126.5 1233.5,-126.5 1233.5,-145.5"/>
<text text-anchor="middle" x="1208.5" y="-133.5" font-family="Helvetica,sans-Serif" font-size="10.00">chrono</text>
</a>
</g>
</g>
<!-- Node21&#45;&gt;Node23 -->
<g id="edge37_Node000021_Node000023" class="edge">
<title>Node21&#45;&gt;Node23</title>
<g id="a_edge37_Node000021_Node000023"><a xlink:title=" ">
<path fill="none" stroke="#63b8ff" d="M1208.5,-192.37C1208.5,-183.16 1208.5,-168.29 1208.5,-156.27"/>
<polygon fill="#63b8ff" stroke="#63b8ff" points="1212,-155.91 1208.5,-145.91 1205,-155.91 1212,-155.91"/>
</a>
</g>
</g>
<!-- Node24 -->
<g id="Node000024" class="node">
<title>Node24</title>
<g id="a_Node000024"><a xlink:title=" ">
<polygon fill="#e0e0e0" stroke="#999999" points="1790.5,-79.5 1734.5,-79.5 1734.5,-60.5 1790.5,-60.5 1790.5,-79.5"/>
<text text-anchor="middle" x="1762.5" y="-67.5" font-family="Helvetica,sans-Serif" font-size="10.00">sstream</text>
</a>
</g>
</g>
<!-- Node21&#45;&gt;Node24 -->
<g id="edge39_Node000021_Node000024" class="edge">
<title>Node21&#45;&gt;Node24</title>
<g id="a_edge39_Node000021_Node000024"><a xlink:title=" ">
<path fill="none" stroke="#63b8ff" d="M1239.92,-192.45C1248.49,-190.39 1257.8,-188.38 1266.5,-187 1367.55,-170.95 1641.52,-209.44 1725.5,-151 1745.88,-136.82 1755.29,-108.48 1759.45,-89.62"/>
<polygon fill="#63b8ff" stroke="#63b8ff" points="1762.93,-90.04 1761.37,-79.56 1756.06,-88.72 1762.93,-90.04"/>
</a>
</g>
</g>
<!-- Node25 -->
<g id="Node000025" class="node">
<title>Node25</title>
<g id="a_Node000025"><a xlink:title=" ">
<polygon fill="#e0e0e0" stroke="#999999" points="1307.5,-145.5 1251.5,-145.5 1251.5,-126.5 1307.5,-126.5 1307.5,-145.5"/>
<text text-anchor="middle" x="1279.5" y="-133.5" font-family="Helvetica,sans-Serif" font-size="10.00">iomanip</text>
</a>
</g>
</g>
<!-- Node21&#45;&gt;Node25 -->
<g id="edge40_Node000021_Node000025" class="edge">
<title>Node21&#45;&gt;Node25</title>
<g id="a_edge40_Node000021_Node000025"><a xlink:title=" ">
<path fill="none" stroke="#63b8ff" d="M1218.08,-192.37C1229.34,-182.21 1248.26,-165.16 1262.13,-152.65"/>
<polygon fill="#63b8ff" stroke="#63b8ff" points="1264.54,-155.2 1269.62,-145.91 1259.85,-150 1264.54,-155.2"/>
</a>
</g>
</g>
<!-- Node26 -->
<g id="Node000026" class="node">
<title>Node26</title>
<g id="a_Node000026"><a xlink:title=" ">
<polygon fill="#e0e0e0" stroke="#999999" points="1545.5,-145.5 1501.5,-145.5 1501.5,-126.5 1545.5,-126.5 1545.5,-145.5"/>
<text text-anchor="middle" x="1523.5" y="-133.5" font-family="Helvetica,sans-Serif" font-size="10.00">ctime</text>
</a>
</g>
</g>
<!-- Node21&#45;&gt;Node26 -->
<g id="edge41_Node000021_Node000026" class="edge">
<title>Node21&#45;&gt;Node26</title>
<g id="a_edge41_Node000021_Node000026"><a xlink:title=" ">
<path fill="none" stroke="#63b8ff" d="M1241.83,-192.48C1249.88,-190.55 1258.48,-188.6 1266.5,-187 1366.24,-167.05 1395.07,-180.19 1492.5,-151 1494.13,-150.51 1495.79,-149.95 1497.45,-149.35"/>
<polygon fill="#63b8ff" stroke="#63b8ff" points="1498.83,-152.57 1506.76,-145.54 1496.18,-146.09 1498.83,-152.57"/>
</a>
</g>
</g>
<!-- Node27 -->
<g id="Node000027" class="node">
<title>Node27</title>
<g id="a_Node000027"><a xlink:href="RunMode_8h_source.html" target="_top" xlink:title=" ">
<polygon fill="white" stroke="#666666" points="1683.5,-145.5 1563.5,-145.5 1563.5,-126.5 1683.5,-126.5 1683.5,-145.5"/>
<text text-anchor="middle" x="1623.5" y="-133.5" font-family="Helvetica,sans-Serif" font-size="10.00">App/View/RunMode.h</text>
</a>
</g>
</g>
<!-- Node21&#45;&gt;Node27 -->
<g id="edge42_Node000021_Node000027" class="edge">
<title>Node21&#45;&gt;Node27</title>
<g id="a_edge42_Node000021_Node000027"><a xlink:title=" ">
<path fill="none" stroke="#63b8ff" d="M1241.18,-192.43C1249.41,-190.46 1258.25,-188.51 1266.5,-187 1393.4,-163.83 1427.2,-171.84 1554.5,-151 1560.83,-149.96 1567.47,-148.76 1574.02,-147.51"/>
<polygon fill="#63b8ff" stroke="#63b8ff" points="1575.05,-150.87 1584.19,-145.51 1573.7,-144.01 1575.05,-150.87"/>
</a>
</g>
</g>
<!-- Node28 -->
<g id="Node000028" class="node">
<title>Node28</title>
<g id="a_Node000028"><a xlink:href="EnumClass_8h.html" target="_top" xlink:title="Template helper class for working with strongly&#45;typed enums.">
<polygon fill="white" stroke="#666666" points="1921,-145.5 1816,-145.5 1816,-126.5 1921,-126.5 1921,-145.5"/>
<text text-anchor="middle" x="1868.5" y="-133.5" font-family="Helvetica,sans-Serif" font-size="10.00">Misc/EnumClass.h</text>
</a>
</g>
</g>
<!-- Node21&#45;&gt;Node28 -->
<g id="edge43_Node000021_Node000028" class="edge">
<title>Node21&#45;&gt;Node28</title>
<g id="a_edge43_Node000021_Node000028"><a xlink:title=" ">
<path fill="none" stroke="#63b8ff" d="M1239.62,-192.49C1248.26,-190.39 1257.7,-188.37 1266.5,-187 1489.29,-152.43 1548.35,-175.28 1772.5,-151 1783.27,-149.83 1794.69,-148.37 1805.75,-146.83"/>
<polygon fill="#63b8ff" stroke="#63b8ff" points="1806.37,-150.28 1815.77,-145.4 1805.38,-143.35 1806.37,-150.28"/>
</a>
</g>
</g>
<!-- Node33 -->
<g id="Node000033" class="node">
<title>Node33</title>
<g id="a_Node000033"><a xlink:href="CustomIndexedVector_8h.html" target="_top" xlink:title="Template class providing a vector indexed by a custom type with bounds checking and Boost....">
<polygon fill="white" stroke="#666666" points="1483,-145.5 1326,-145.5 1326,-126.5 1483,-126.5 1483,-145.5"/>
<text text-anchor="middle" x="1404.5" y="-133.5" font-family="Helvetica,sans-Serif" font-size="10.00">Misc/CustomIndexedVector.h</text>
</a>
</g>
</g>
<!-- Node21&#45;&gt;Node33 -->
<g id="edge51_Node000021_Node000033" class="edge">
<title>Node21&#45;&gt;Node33</title>
<g id="a_edge51_Node000021_Node000033"><a xlink:title=" ">
<path fill="none" stroke="#63b8ff" d="M1234.93,-192.37C1269.37,-181.12 1329.72,-161.42 1368.37,-148.8"/>
<polygon fill="#63b8ff" stroke="#63b8ff" points="1369.75,-152.03 1378.17,-145.6 1367.58,-145.37 1369.75,-152.03"/>
</a>
</g>
</g>
<!-- Node35 -->
<g id="Node000035" class="node">
<title>Node35</title>
<g id="a_Node000035"><a xlink:href="PathUtils_8h.html" target="_top" xlink:title="Utility functions for handling filesystem paths.">
<polygon fill="white" stroke="#666666" points="1025,-145.5 930,-145.5 930,-126.5 1025,-126.5 1025,-145.5"/>
<text text-anchor="middle" x="977.5" y="-133.5" font-family="Helvetica,sans-Serif" font-size="10.00">Misc/PathUtils.h</text>
</a>
</g>
</g>
<!-- Node21&#45;&gt;Node35 -->
<g id="edge54_Node000021_Node000035" class="edge">
<title>Node21&#45;&gt;Node35</title>
<g id="a_edge54_Node000021_Node000035"><a xlink:title=" ">
<path fill="none" stroke="#63b8ff" d="M1177.35,-192.37C1136.24,-180.98 1063.81,-160.91 1018.35,-148.32"/>
<polygon fill="#63b8ff" stroke="#63b8ff" points="1019.1,-144.89 1008.53,-145.6 1017.23,-151.64 1019.1,-144.89"/>
</a>
</g>
</g>
<!-- Node28&#45;&gt;Node16 -->
<g id="edge45_Node000028_Node000016" class="edge">
<title>Node28&#45;&gt;Node16</title>
<g id="a_edge45_Node000028_Node000016"><a xlink:title=" ">
<path fill="none" stroke="#63b8ff" d="M1862.8,-126.26C1852.04,-110.34 1827.33,-76.28 1799.5,-55 1780.85,-40.74 1756.9,-29.42 1737.98,-21.76"/>
<polygon fill="#63b8ff" stroke="#63b8ff" points="1739.19,-18.47 1728.6,-18.09 1736.64,-24.99 1739.19,-18.47"/>
</a>
</g>
</g>
<!-- Node28&#45;&gt;Node24 -->
<g id="edge44_Node000028_Node000024" class="edge">
<title>Node28&#45;&gt;Node24</title>
<g id="a_edge44_Node000028_Node000024"><a xlink:title=" ">
<path fill="none" stroke="#63b8ff" d="M1854.2,-126.37C1836.58,-115.73 1806.41,-97.51 1785.51,-84.89"/>
<polygon fill="#63b8ff" stroke="#63b8ff" points="1787.28,-81.87 1776.91,-79.7 1783.66,-87.86 1787.28,-81.87"/>
</a>
</g>
</g>
<!-- Node29 -->
<g id="Node000029" class="node">
<title>Node29</title>
<g id="a_Node000029"><a xlink:title=" ">
<polygon fill="#e0e0e0" stroke="#999999" points="1940,-79.5 1847,-79.5 1847,-60.5 1940,-60.5 1940,-79.5"/>
<text text-anchor="middle" x="1893.5" y="-67.5" font-family="Helvetica,sans-Serif" font-size="10.00">unordered_map</text>
</a>
</g>
</g>
<!-- Node28&#45;&gt;Node29 -->
<g id="edge46_Node000028_Node000029" class="edge">
<title>Node28&#45;&gt;Node29</title>
<g id="a_edge46_Node000028_Node000029"><a xlink:title=" ">
<path fill="none" stroke="#63b8ff" d="M1871.87,-126.37C1875.54,-116.97 1881.52,-101.67 1886.26,-89.53"/>
<polygon fill="#63b8ff" stroke="#63b8ff" points="1889.64,-90.49 1890.02,-79.91 1883.12,-87.95 1889.64,-90.49"/>
</a>
</g>
</g>
<!-- Node30 -->
<g id="Node000030" class="node">
<title>Node30</title>
<g id="a_Node000030"><a xlink:title=" ">
<polygon fill="#e0e0e0" stroke="#999999" points="2125,-79.5 1958,-79.5 1958,-60.5 2125,-60.5 2125,-79.5"/>
<text text-anchor="middle" x="2041.5" y="-67.5" font-family="Helvetica,sans-Serif" font-size="10.00">magic_enum/magic_enum.hpp</text>
</a>
</g>
</g>
<!-- Node28&#45;&gt;Node30 -->
<g id="edge47_Node000028_Node000030" class="edge">
<title>Node28&#45;&gt;Node30</title>
<g id="a_edge47_Node000028_Node000030"><a xlink:title=" ">
<path fill="none" stroke="#63b8ff" d="M1891.83,-126.37C1921.97,-115.22 1974.59,-95.75 2008.73,-83.12"/>
<polygon fill="#63b8ff" stroke="#63b8ff" points="2010.1,-86.35 2018.26,-79.6 2007.67,-79.78 2010.1,-86.35"/>
</a>
</g>
</g>
<!-- Node31 -->
<g id="Node000031" class="node">
<title>Node31</title>
<g id="a_Node000031"><a xlink:href="LineInfoException_8h.html" target="_top" xlink:title="Exception class with detailed file and line information for error reporting.">
<polygon fill="white" stroke="#666666" points="2312,-79.5 2143,-79.5 2143,-60.5 2312,-60.5 2312,-79.5"/>
<text text-anchor="middle" x="2227.5" y="-67.5" font-family="Helvetica,sans-Serif" font-size="10.00">Exceptions/LineInfoException.h</text>
</a>
</g>
</g>
<!-- Node28&#45;&gt;Node31 -->
<g id="edge48_Node000028_Node000031" class="edge">
<title>Node28&#45;&gt;Node31</title>
<g id="a_edge48_Node000028_Node000031"><a xlink:title=" ">
<path fill="none" stroke="#63b8ff" d="M1916.54,-126.44C1982.1,-114.75 2099.45,-93.83 2169.73,-81.3"/>
<polygon fill="#63b8ff" stroke="#63b8ff" points="2170.51,-84.72 2179.74,-79.51 2169.28,-77.82 2170.51,-84.72"/>
</a>
</g>
</g>
<!-- Node31&#45;&gt;Node16 -->
<g id="edge50_Node000031_Node000016" class="edge">
<title>Node31&#45;&gt;Node16</title>
<g id="a_edge50_Node000031_Node000016"><a xlink:title=" ">
<path fill="none" stroke="#63b8ff" d="M2173.46,-60.44C2160.7,-58.53 2147.13,-56.61 2134.5,-55 1987.17,-36.26 1810.57,-19.79 1738.99,-13.37"/>
<polygon fill="#63b8ff" stroke="#63b8ff" points="1739.09,-9.86 1728.82,-12.46 1738.47,-16.83 1739.09,-9.86"/>
</a>
</g>
</g>
<!-- Node32 -->
<g id="Node000032" class="node">
<title>Node32</title>
<g id="a_Node000032"><a xlink:title=" ">
<polygon fill="#e0e0e0" stroke="#999999" points="2260,-19 2195,-19 2195,0 2260,0 2260,-19"/>
<text text-anchor="middle" x="2227.5" y="-7" font-family="Helvetica,sans-Serif" font-size="10.00">exception</text>
</a>
</g>
</g>
<!-- Node31&#45;&gt;Node32 -->
<g id="edge49_Node000031_Node000032" class="edge">
<title>Node31&#45;&gt;Node32</title>
<g id="a_edge49_Node000031_Node000032"><a xlink:title=" ">
<path fill="none" stroke="#63b8ff" d="M2227.5,-60.37C2227.5,-52.25 2227.5,-39.81 2227.5,-29.39"/>
<polygon fill="#63b8ff" stroke="#63b8ff" points="2231,-29.17 2227.5,-19.17 2224,-29.17 2231,-29.17"/>
</a>
</g>
</g>
<!-- Node33&#45;&gt;Node2 -->
<g id="edge52_Node000033_Node000002" class="edge">
<title>Node33&#45;&gt;Node2</title>
<g id="a_edge52_Node000033_Node000002"><a xlink:title=" ">
<path fill="none" stroke="#63b8ff" d="M1378.61,-126.37C1344.22,-114.91 1283.43,-94.64 1245.71,-82.07"/>
<polygon fill="#63b8ff" stroke="#63b8ff" points="1246.77,-78.73 1236.18,-78.89 1244.56,-85.38 1246.77,-78.73"/>
</a>
</g>
</g>
<!-- Node34 -->
<g id="Node000034" class="node">
<title>Node34</title>
<g id="a_Node000034"><a xlink:title=" ">
<polygon fill="#e0e0e0" stroke="#999999" points="1458,-85 1351,-85 1351,-55 1458,-55 1458,-85"/>
<text text-anchor="start" x="1359" y="-73" font-family="Helvetica,sans-Serif" font-size="10.00">boost/serialization</text>
<text text-anchor="middle" x="1404.5" y="-62" font-family="Helvetica,sans-Serif" font-size="10.00">/vector.hpp</text>
</a>
</g>
</g>
<!-- Node33&#45;&gt;Node34 -->
<g id="edge53_Node000033_Node000034" class="edge">
<title>Node33&#45;&gt;Node34</title>
<g id="a_edge53_Node000033_Node000034"><a xlink:title=" ">
<path fill="none" stroke="#63b8ff" d="M1404.5,-126.37C1404.5,-118.49 1404.5,-106.45 1404.5,-95.6"/>
<polygon fill="#63b8ff" stroke="#63b8ff" points="1408,-95.36 1404.5,-85.36 1401,-95.36 1408,-95.36"/>
</a>
</g>
</g>
<!-- Node35&#45;&gt;Node16 -->
<g id="edge56_Node000035_Node000016" class="edge">
<title>Node35&#45;&gt;Node16</title>
<g id="a_edge56_Node000035_Node000016"><a xlink:title=" ">
<path fill="none" stroke="#63b8ff" d="M976.58,-126.34C975.33,-109.59 975.32,-72.84 996.5,-55 1048.81,-10.93 1542.23,-9.81 1674.18,-10.31"/>
<polygon fill="#63b8ff" stroke="#63b8ff" points="1674.42,-13.81 1684.43,-10.35 1674.45,-6.81 1674.42,-13.81"/>
</a>
</g>
</g>
<!-- Node36 -->
<g id="Node000036" class="node">
<title>Node36</title>
<g id="a_Node000036"><a xlink:title=" ">
<polygon fill="#e0e0e0" stroke="#999999" points="1073.5,-79.5 1005.5,-79.5 1005.5,-60.5 1073.5,-60.5 1073.5,-79.5"/>
<text text-anchor="middle" x="1039.5" y="-67.5" font-family="Helvetica,sans-Serif" font-size="10.00">filesystem</text>
</a>
</g>
</g>
<!-- Node35&#45;&gt;Node36 -->
<g id="edge55_Node000035_Node000036" class="edge">
<title>Node35&#45;&gt;Node36</title>
<g id="a_edge55_Node000035_Node000036"><a xlink:title=" ">
<path fill="none" stroke="#63b8ff" d="M985.86,-126.37C995.51,-116.4 1011.61,-99.79 1023.65,-87.36"/>
<polygon fill="#63b8ff" stroke="#63b8ff" points="1026.43,-89.52 1030.87,-79.91 1021.4,-84.65 1026.43,-89.52"/>
</a>
</g>
</g>
</g>
</svg>

<g id="navigator" transform="translate(0 0)" fill="#404254">
  <rect fill="#f2f5e9" fill-opacity="0.5" stroke="#606060" stroke-width=".5" x="0" y="0" width="60" height="60"/>
  <use id="zoomplus" xlink:href="#zoomPlus" x="17" y="9" onmousedown="handleZoom(evt,'in')"/>
  <use id="zoomminus" xlink:href="#zoomMin" x="42" y="9" onmousedown="handleZoom(evt,'out')"/>
  <use id="reset" xlink:href="#resetDef" x="30" y="36" onmousedown="handleReset()"/>
   <use id="arrowup" xlink:href="#arrowUp" x="0" y="0" onmousedown="handlePan(0,-1)"/>
  <use id="arrowright" xlink:href="#arrowRight" x="0" y="0" onmousedown="handlePan(1,0)"/>
  <use id="arrowdown" xlink:href="#arrowDown" x="0" y="0" onmousedown="handlePan(0,1)"/>
  <use id="arrowleft" xlink:href="#arrowLeft" x="0" y="0" onmousedown="handlePan(-1,0)"/>
</g>
<svg viewBox="0 0 15 15" width="100%" height="30px" preserveAspectRatio="xMaxYMin meet">
 <g id="arrow_out" transform="scale(0.3 0.3)">
  <a xlink:href="MathFunctions_8h__incl_org.svg" target="_base">
   <rect id="button" ry="5" rx="5" y="6" x="6" height="38" width="38"
        fill="#f2f5e9" fill-opacity="0.5" stroke="#606060" stroke-width="1.0"/>
   <path id="arrow"
     d="M 11.500037,31.436501 C 11.940474,20.09759 22.043105,11.32322 32.158766,21.979434 L 37.068811,17.246167 C 37.068811,17.246167 37.088388,32 37.088388,32 L 22.160133,31.978069 C 22.160133,31.978069 26.997745,27.140456 26.997745,27.140456 C 18.528582,18.264221 13.291696,25.230495 11.500037,31.436501 z"
     style="fill:#404040;"/>
  </a>
 </g>
</svg>

<style type='text/css'>
<![CDATA[
[data-mouse-over-selected='false'] { opacity: 0.7; }
[data-mouse-over-selected='true']  { opacity: 1.0; }
]]>
</style>
<script type="application/ecmascript"><![CDATA[
document.addEventListener('DOMContentLoaded', (event) => {
  highlightEdges();
  highlightAdjacentNodes();
});
]]></script>
</svg>
