<?xml version="1.0" encoding="UTF-8" standalone="no"?>
<!DOCTYPE svg PUBLIC "-//W3C//DTD SVG 1.1//EN"
 "http://www.w3.org/Graphics/SVG/1.1/DTD/svg11.dtd">
<!-- Generated by graphviz version 2.43.0 (0)
 -->
<!-- Title: /home/runner/work/Weaver/Weaver/include/App/Model/IBM/Maths/Dynamics/NonMassBased/NonDynamics.h Pages: 1 -->
<!--zoomable 390 -->

<svg id="main" version="1.1" xmlns="http://www.w3.org/2000/svg" xmlns:xlink="http://www.w3.org/1999/xlink" xml:space="preserve" onload="init(evt)">
<style type="text/css"><![CDATA[
.node, .edge {opacity: 0.7;}
.node.selected, .edge.selected {opacity: 1;}
.edge:hover path { stroke: red; }
.edge:hover polygon { stroke: red; fill: red; }
]]></style>

<defs>
  <circle id="rim" cx="0" cy="0" r="7"/>
  <circle id="rim2" cx="0" cy="0" r="3.5"/>
  <g id="zoomPlus">
    <use xlink:href="#rim" fill="#404040"><set attributeName="fill" to="#808080" begin="zoomplus.mouseover" end="zoomplus.mouseout"/></use>
    <path d="M-4,0h8M0,-4v8" fill="none" stroke="white" stroke-width="1.5" pointer-events="none"/>
  </g>
  <g id="zoomMin">
    <use xlink:href="#rim" fill="#404040"><set attributeName="fill" to="#808080" begin="zoomminus.mouseover" end="zoomminus.mouseout"/></use>
    <path d="M-4,0h8" fill="none" stroke="white" stroke-width="1.5" pointer-events="none"/>
  </g>
  <g id="arrowUp" transform="translate(30 24)">
    <use xlink:href="#rim"/>
    <path pointer-events="none" fill="none" stroke="white" stroke-width="1.5" d="M0,-3.0v7 M-2.5,-0.5L0,-3.0L2.5,-0.5"/>
  </g>
  <g id="arrowRight" transform="rotate(90) translate(36 -43)">
    <use xlink:href="#rim"/>
    <path pointer-events="none" fill="none" stroke="white" stroke-width="1.5" d="M0,-3.0v7 M-2.5,-0.5L0,-3.0L2.5,-0.5"/>
  </g>
  <g id="arrowDown" transform="rotate(180) translate(-30 -48)">
    <use xlink:href="#rim"/>
    <path pointer-events="none" fill="none" stroke="white" stroke-width="1.5" d="M0,-3.0v7 M-2.5,-0.5L0,-3.0L2.5,-0.5"/>
  </g>
  <g id="arrowLeft" transform="rotate(270) translate(-36 17)">
    <use xlink:href="#rim"/>
    <path pointer-events="none" fill="none" stroke="white" stroke-width="1.5" d="M0,-3.0v7 M-2.5,-0.5L0,-3.0L2.5,-0.5"/>
  </g>
  <g id="resetDef">
    <use xlink:href="#rim2" fill="#404040"><set attributeName="fill" to="#808080" begin="reset.mouseover" end="reset.mouseout"/></use>
  </g>
</defs>
<script type="application/ecmascript">
var viewWidth = 1940;
var viewHeight = 390;
var sectionId = 'dynsection-0';
</script>
<script type="application/ecmascript" xlink:href="svg.min.js"/>
<svg id="graph" class="graph">
<g id="viewport">
<title>/home/runner/work/Weaver/Weaver/include/App/Model/IBM/Maths/Dynamics/NonMassBased/NonDynamics.h</title>
<!-- Node1 -->
<g id="Node000001" class="node">
<title>Node1</title>
<g id="a_Node000001"><a xlink:title="Defines the NonDynamics class, representing static (non&#45;changing) dynamics in the ecosystem model.">
<polygon fill="#999999" stroke="#666666" points="320,-382 119,-382 119,-330 320,-330 320,-382"/>
<text text-anchor="start" x="127" y="-370" font-family="Helvetica,sans-Serif" font-size="10.00">/home/runner/work/Weaver</text>
<text text-anchor="start" x="127" y="-359" font-family="Helvetica,sans-Serif" font-size="10.00">/Weaver/include/App/Model</text>
<text text-anchor="start" x="127" y="-348" font-family="Helvetica,sans-Serif" font-size="10.00">/IBM/Maths/Dynamics/NonMassBased</text>
<text text-anchor="middle" x="219.5" y="-337" font-family="Helvetica,sans-Serif" font-size="10.00">/NonDynamics.h</text>
</a>
</g>
</g>
<!-- Node2 -->
<g id="Node000002" class="node">
<title>Node2</title>
<g id="a_Node000002"><a xlink:title=" ">
<polygon fill="#e0e0e0" stroke="#999999" points="107,-294 0,-294 0,-264 107,-264 107,-294"/>
<text text-anchor="start" x="8" y="-282" font-family="Helvetica,sans-Serif" font-size="10.00">boost/serialization</text>
<text text-anchor="middle" x="53.5" y="-271" font-family="Helvetica,sans-Serif" font-size="10.00">/export.hpp</text>
</a>
</g>
</g>
<!-- Node1&#45;&gt;Node2 -->
<g id="edge1_Node000001_Node000002" class="edge">
<title>Node1&#45;&gt;Node2</title>
<g id="a_edge1_Node000001_Node000002"><a xlink:title=" ">
<path fill="none" stroke="#63b8ff" d="M163.76,-329.82C140.89,-319.48 114.92,-307.75 93.92,-298.26"/>
<polygon fill="#63b8ff" stroke="#63b8ff" points="95.21,-295 84.66,-294.08 92.33,-301.38 95.21,-295"/>
</a>
</g>
</g>
<!-- Node3 -->
<g id="Node000003" class="node">
<title>Node3</title>
<g id="a_Node000003"><a xlink:title=" ">
<polygon fill="#e0e0e0" stroke="#999999" points="232,-294 125,-294 125,-264 232,-264 232,-294"/>
<text text-anchor="start" x="133" y="-282" font-family="Helvetica,sans-Serif" font-size="10.00">boost/serialization</text>
<text text-anchor="middle" x="178.5" y="-271" font-family="Helvetica,sans-Serif" font-size="10.00">/vector.hpp</text>
</a>
</g>
</g>
<!-- Node1&#45;&gt;Node3 -->
<g id="edge2_Node000001_Node000003" class="edge">
<title>Node1&#45;&gt;Node3</title>
<g id="a_edge2_Node000001_Node000003"><a xlink:title=" ">
<path fill="none" stroke="#63b8ff" d="M205.62,-329.61C200.96,-321.09 195.79,-311.63 191.23,-303.28"/>
<polygon fill="#63b8ff" stroke="#63b8ff" points="194.25,-301.52 186.39,-294.43 188.11,-304.88 194.25,-301.52"/>
</a>
</g>
</g>
<!-- Node4 -->
<g id="Node000004" class="node">
<title>Node4</title>
<g id="a_Node000004"><a xlink:title=" ">
<polygon fill="#e0e0e0" stroke="#999999" points="217.5,-156.5 107.5,-156.5 107.5,-137.5 217.5,-137.5 217.5,-156.5"/>
<text text-anchor="middle" x="162.5" y="-144.5" font-family="Helvetica,sans-Serif" font-size="10.00">nlohmann/json.hpp</text>
</a>
</g>
</g>
<!-- Node1&#45;&gt;Node4 -->
<g id="edge3_Node000001_Node000004" class="edge">
<title>Node1&#45;&gt;Node4</title>
<g id="a_edge3_Node000001_Node000004"><a xlink:title=" ">
<path fill="none" stroke="#63b8ff" d="M232.44,-329.65C240.12,-311.25 247.17,-285.87 240.5,-264 228.25,-223.83 196.93,-184.97 177.91,-164"/>
<polygon fill="#63b8ff" stroke="#63b8ff" points="180.43,-161.57 171.06,-156.63 175.31,-166.34 180.43,-161.57"/>
</a>
</g>
</g>
<!-- Node5 -->
<g id="Node000005" class="node">
<title>Node5</title>
<g id="a_Node000005"><a xlink:href="NonMassBasedDynamics_8h.html" target="_top" xlink:title="Defines the NonMassBasedDynamics class, a Dynamics subclass not dependent on mass.">
<polygon fill="white" stroke="#666666" points="817.5,-294 613.5,-294 613.5,-264 817.5,-264 817.5,-294"/>
<text text-anchor="start" x="621.5" y="-282" font-family="Helvetica,sans-Serif" font-size="10.00">App/Model/IBM/Maths</text>
<text text-anchor="middle" x="715.5" y="-271" font-family="Helvetica,sans-Serif" font-size="10.00">/Dynamics/NonMassBasedDynamics.h</text>
</a>
</g>
</g>
<!-- Node1&#45;&gt;Node5 -->
<g id="edge4_Node000001_Node000005" class="edge">
<title>Node1&#45;&gt;Node5</title>
<g id="a_edge4_Node000001_Node000005"><a xlink:title=" ">
<path fill="none" stroke="#63b8ff" d="M320.17,-339.78C405.29,-326.91 526.73,-308.54 612.5,-295.57"/>
<polygon fill="#63b8ff" stroke="#63b8ff" points="613.15,-299.02 622.52,-294.06 612.1,-292.09 613.15,-299.02"/>
</a>
</g>
</g>
<!-- Node5&#45;&gt;Node4 -->
<g id="edge11_Node000005_Node000004" class="edge">
<title>Node5&#45;&gt;Node4</title>
<g id="a_edge11_Node000005_Node000004"><a xlink:title=" ">
<path fill="none" stroke="#63b8ff" d="M655.79,-263.96C544.68,-237.84 308.41,-182.3 208.57,-158.83"/>
<polygon fill="#63b8ff" stroke="#63b8ff" points="209.31,-155.41 198.77,-156.53 207.71,-162.22 209.31,-155.41"/>
</a>
</g>
</g>
<!-- Node6 -->
<g id="Node000006" class="node">
<title>Node6</title>
<g id="a_Node000006"><a xlink:title=" ">
<polygon fill="#e0e0e0" stroke="#999999" points="477,-30 372,-30 372,0 477,0 477,-30"/>
<text text-anchor="start" x="380" y="-18" font-family="Helvetica,sans-Serif" font-size="10.00">boost/archive/text</text>
<text text-anchor="middle" x="424.5" y="-7" font-family="Helvetica,sans-Serif" font-size="10.00">_iarchive.hpp</text>
</a>
</g>
</g>
<!-- Node5&#45;&gt;Node6 -->
<g id="edge5_Node000005_Node000006" class="edge">
<title>Node5&#45;&gt;Node6</title>
<g id="a_edge5_Node000005_Node000006"><a xlink:title=" ">
<path fill="none" stroke="#63b8ff" d="M613.29,-274.35C454.75,-266.26 161.21,-240.77 98.5,-162 90.2,-151.57 91.17,-143.14 98.5,-132 128.07,-87.04 275.91,-48.2 362.01,-28.93"/>
<polygon fill="#63b8ff" stroke="#63b8ff" points="362.92,-32.31 371.93,-26.73 361.41,-25.48 362.92,-32.31"/>
</a>
</g>
</g>
<!-- Node7 -->
<g id="Node000007" class="node">
<title>Node7</title>
<g id="a_Node000007"><a xlink:title=" ">
<polygon fill="#e0e0e0" stroke="#999999" points="700,-30 595,-30 595,0 700,0 700,-30"/>
<text text-anchor="start" x="603" y="-18" font-family="Helvetica,sans-Serif" font-size="10.00">boost/archive/text</text>
<text text-anchor="middle" x="647.5" y="-7" font-family="Helvetica,sans-Serif" font-size="10.00">_oarchive.hpp</text>
</a>
</g>
</g>
<!-- Node5&#45;&gt;Node7 -->
<g id="edge6_Node000005_Node000007" class="edge">
<title>Node5&#45;&gt;Node7</title>
<g id="a_edge6_Node000005_Node000007"><a xlink:title=" ">
<path fill="none" stroke="#63b8ff" d="M706.62,-263.62C700.97,-253.88 693.91,-240.56 689.5,-228 666.39,-162.15 654.69,-80.06 650.02,-40.11"/>
<polygon fill="#63b8ff" stroke="#63b8ff" points="653.48,-39.55 648.88,-30 646.52,-40.33 653.48,-39.55"/>
</a>
</g>
</g>
<!-- Node8 -->
<g id="Node000008" class="node">
<title>Node8</title>
<g id="a_Node000008"><a xlink:title=" ">
<polygon fill="#e0e0e0" stroke="#999999" points="284.5,-30 168.5,-30 168.5,0 284.5,0 284.5,-30"/>
<text text-anchor="start" x="176.5" y="-18" font-family="Helvetica,sans-Serif" font-size="10.00">boost/archive/binary</text>
<text text-anchor="middle" x="226.5" y="-7" font-family="Helvetica,sans-Serif" font-size="10.00">_iarchive.hpp</text>
</a>
</g>
</g>
<!-- Node5&#45;&gt;Node8 -->
<g id="edge7_Node000005_Node000008" class="edge">
<title>Node5&#45;&gt;Node8</title>
<g id="a_edge7_Node000005_Node000008"><a xlink:title=" ">
<path fill="none" stroke="#63b8ff" d="M613.42,-277.57C473.48,-275.54 230.4,-266.36 151.5,-228 105.82,-205.79 68.14,-178.08 89.5,-132 109.93,-87.93 156.26,-54.53 189.38,-35.14"/>
<polygon fill="#63b8ff" stroke="#63b8ff" points="191.38,-38.03 198.34,-30.04 187.92,-31.94 191.38,-38.03"/>
</a>
</g>
</g>
<!-- Node9 -->
<g id="Node000009" class="node">
<title>Node9</title>
<g id="a_Node000009"><a xlink:title=" ">
<polygon fill="#e0e0e0" stroke="#999999" points="1140.5,-30 1024.5,-30 1024.5,0 1140.5,0 1140.5,-30"/>
<text text-anchor="start" x="1032.5" y="-18" font-family="Helvetica,sans-Serif" font-size="10.00">boost/archive/binary</text>
<text text-anchor="middle" x="1082.5" y="-7" font-family="Helvetica,sans-Serif" font-size="10.00">_oarchive.hpp</text>
</a>
</g>
</g>
<!-- Node5&#45;&gt;Node9 -->
<g id="edge8_Node000005_Node000009" class="edge">
<title>Node5&#45;&gt;Node9</title>
<g id="a_edge8_Node000005_Node000009"><a xlink:title=" ">
<path fill="none" stroke="#63b8ff" d="M789.51,-263.97C921.28,-237.18 1187.14,-174.41 1233.5,-96 1256.08,-57.81 1200.76,-36.94 1150.85,-26.19"/>
<polygon fill="#63b8ff" stroke="#63b8ff" points="1151.46,-22.74 1140.96,-24.17 1150.06,-29.6 1151.46,-22.74"/>
</a>
</g>
</g>
<!-- Node10 -->
<g id="Node000010" class="node">
<title>Node10</title>
<g id="a_Node000010"><a xlink:title=" ">
<polygon fill="#e0e0e0" stroke="#999999" points="1741.5,-24.5 1697.5,-24.5 1697.5,-5.5 1741.5,-5.5 1741.5,-24.5"/>
<text text-anchor="middle" x="1719.5" y="-12.5" font-family="Helvetica,sans-Serif" font-size="10.00">string</text>
</a>
</g>
</g>
<!-- Node5&#45;&gt;Node10 -->
<g id="edge9_Node000005_Node000010" class="edge">
<title>Node5&#45;&gt;Node10</title>
<g id="a_edge9_Node000005_Node000010"><a xlink:title=" ">
<path fill="none" stroke="#63b8ff" d="M817.6,-276.45C954.19,-273.07 1203.52,-262.3 1413.5,-228 1645.42,-190.12 1781.56,-281.75 1925.5,-96 1933.67,-85.46 1933.74,-76.48 1925.5,-66 1920.07,-59.09 1807.95,-34.63 1751.45,-22.68"/>
<polygon fill="#63b8ff" stroke="#63b8ff" points="1752.1,-19.24 1741.59,-20.6 1750.65,-26.09 1752.1,-19.24"/>
</a>
</g>
</g>
<!-- Node11 -->
<g id="Node000011" class="node">
<title>Node11</title>
<g id="a_Node000011"><a xlink:title=" ">
<polygon fill="#e0e0e0" stroke="#999999" points="1394.5,-90.5 1338.5,-90.5 1338.5,-71.5 1394.5,-71.5 1394.5,-90.5"/>
<text text-anchor="middle" x="1366.5" y="-78.5" font-family="Helvetica,sans-Serif" font-size="10.00">sstream</text>
</a>
</g>
</g>
<!-- Node5&#45;&gt;Node11 -->
<g id="edge10_Node000005_Node000011" class="edge">
<title>Node5&#45;&gt;Node11</title>
<g id="a_edge10_Node000005_Node000011"><a xlink:title=" ">
<path fill="none" stroke="#63b8ff" d="M817.75,-274.25C971.47,-267.83 1248.28,-252.96 1286.5,-228 1332.18,-198.17 1353.99,-132.96 1362.29,-100.76"/>
<polygon fill="#63b8ff" stroke="#63b8ff" points="1365.74,-101.4 1364.69,-90.86 1358.94,-99.76 1365.74,-101.4"/>
</a>
</g>
</g>
<!-- Node12 -->
<g id="Node000012" class="node">
<title>Node12</title>
<g id="a_Node000012"><a xlink:href="TimeUnits_8h.html" target="_top" xlink:title="Defines the TimeStep and Day classes for representing simulation time units.">
<polygon fill="white" stroke="#666666" points="457,-162 312,-162 312,-132 457,-132 457,-162"/>
<text text-anchor="start" x="320" y="-150" font-family="Helvetica,sans-Serif" font-size="10.00">App/Model/IBM/Landscape</text>
<text text-anchor="middle" x="384.5" y="-139" font-family="Helvetica,sans-Serif" font-size="10.00">/LivingBeings/TimeUnits.h</text>
</a>
</g>
</g>
<!-- Node5&#45;&gt;Node12 -->
<g id="edge12_Node000005_Node000012" class="edge">
<title>Node5&#45;&gt;Node12</title>
<g id="a_edge12_Node000005_Node000012"><a xlink:title=" ">
<path fill="none" stroke="#63b8ff" d="M679.76,-263.96C619.22,-240.18 496.58,-192.02 429.99,-165.87"/>
<polygon fill="#63b8ff" stroke="#63b8ff" points="431.18,-162.57 420.59,-162.17 428.62,-169.09 431.18,-162.57"/>
</a>
</g>
</g>
<!-- Node20 -->
<g id="Node000020" class="node">
<title>Node20</title>
<g id="a_Node000020"><a xlink:href="EnumClass_8h.html" target="_top" xlink:title="Template helper class for working with strongly&#45;typed enums.">
<polygon fill="white" stroke="#666666" points="1549,-156.5 1444,-156.5 1444,-137.5 1549,-137.5 1549,-156.5"/>
<text text-anchor="middle" x="1496.5" y="-144.5" font-family="Helvetica,sans-Serif" font-size="10.00">Misc/EnumClass.h</text>
</a>
</g>
</g>
<!-- Node5&#45;&gt;Node20 -->
<g id="edge30_Node000005_Node000020" class="edge">
<title>Node5&#45;&gt;Node20</title>
<g id="a_edge30_Node000005_Node000020"><a xlink:title=" ">
<path fill="none" stroke="#63b8ff" d="M817.69,-276.28C975.75,-272.61 1271.71,-261.37 1371.5,-228 1413.75,-213.87 1455.95,-182.33 1478.9,-163.35"/>
<polygon fill="#63b8ff" stroke="#63b8ff" points="1481.33,-165.88 1486.71,-156.75 1476.81,-160.53 1481.33,-165.88"/>
</a>
</g>
</g>
<!-- Node25 -->
<g id="Node000025" class="node">
<title>Node25</title>
<g id="a_Node000025"><a xlink:href="Temperature_8h.html" target="_top" xlink:title="Definition of the Temperature class and related operations.">
<polygon fill="white" stroke="#666666" points="1104.5,-162 974.5,-162 974.5,-132 1104.5,-132 1104.5,-162"/>
<text text-anchor="start" x="982.5" y="-150" font-family="Helvetica,sans-Serif" font-size="10.00">App/Model/IBM/Physics</text>
<text text-anchor="middle" x="1039.5" y="-139" font-family="Helvetica,sans-Serif" font-size="10.00">/Temperature.h</text>
</a>
</g>
</g>
<!-- Node5&#45;&gt;Node25 -->
<g id="edge38_Node000005_Node000025" class="edge">
<title>Node5&#45;&gt;Node25</title>
<g id="a_edge38_Node000005_Node000025"><a xlink:title=" ">
<path fill="none" stroke="#63b8ff" d="M750.48,-263.96C809.63,-240.23 929.3,-192.22 994.57,-166.03"/>
<polygon fill="#63b8ff" stroke="#63b8ff" points="996.2,-169.15 1004.17,-162.17 993.59,-162.65 996.2,-169.15"/>
</a>
</g>
</g>
<!-- Node28 -->
<g id="Node000028" class="node">
<title>Node28</title>
<g id="a_Node000028"><a xlink:href="Dynamics_8h.html" target="_top" xlink:title="Defines the abstract Dynamics class for modeling temporal changes in traits or resources.">
<polygon fill="white" stroke="#666666" points="827,-228 698,-228 698,-198 827,-198 827,-228"/>
<text text-anchor="start" x="706" y="-216" font-family="Helvetica,sans-Serif" font-size="10.00">App/Model/IBM/Maths</text>
<text text-anchor="middle" x="762.5" y="-205" font-family="Helvetica,sans-Serif" font-size="10.00">/Dynamics/Dynamics.h</text>
</a>
</g>
</g>
<!-- Node5&#45;&gt;Node28 -->
<g id="edge47_Node000005_Node000028" class="edge">
<title>Node5&#45;&gt;Node28</title>
<g id="a_edge47_Node000005_Node000028"><a xlink:title=" ">
<path fill="none" stroke="#63b8ff" d="M725.93,-263.8C731.83,-255.76 739.35,-245.53 746.03,-236.43"/>
<polygon fill="#63b8ff" stroke="#63b8ff" points="749,-238.3 752.1,-228.16 743.36,-234.15 749,-238.3"/>
</a>
</g>
</g>
<!-- Node12&#45;&gt;Node6 -->
<g id="edge13_Node000012_Node000006" class="edge">
<title>Node12&#45;&gt;Node6</title>
<g id="a_edge13_Node000012_Node000006"><a xlink:title=" ">
<path fill="none" stroke="#63b8ff" d="M336.32,-132C298.12,-118.34 254.39,-95.35 275.5,-66 295.2,-38.62 330.61,-26.02 361.98,-20.32"/>
<polygon fill="#63b8ff" stroke="#63b8ff" points="362.68,-23.75 371.99,-18.7 361.56,-16.84 362.68,-23.75"/>
</a>
</g>
</g>
<!-- Node12&#45;&gt;Node7 -->
<g id="edge14_Node000012_Node000007" class="edge">
<title>Node12&#45;&gt;Node7</title>
<g id="a_edge14_Node000012_Node000007"><a xlink:title=" ">
<path fill="none" stroke="#63b8ff" d="M369.04,-131.99C352.07,-114.93 329.35,-85.93 346.5,-66 379.76,-27.36 517.66,-38.58 584.67,-29.77"/>
<polygon fill="#63b8ff" stroke="#63b8ff" points="585.46,-33.19 594.79,-28.18 584.37,-26.28 585.46,-33.19"/>
</a>
</g>
</g>
<!-- Node12&#45;&gt;Node8 -->
<g id="edge15_Node000012_Node000008" class="edge">
<title>Node12&#45;&gt;Node8</title>
<g id="a_edge15_Node000012_Node000008"><a xlink:title=" ">
<path fill="none" stroke="#63b8ff" d="M329.95,-131.9C308.2,-124.13 284.18,-112.6 266.5,-96 250.22,-80.72 239.61,-57.37 233.44,-39.83"/>
<polygon fill="#63b8ff" stroke="#63b8ff" points="236.75,-38.69 230.3,-30.28 230.1,-40.87 236.75,-38.69"/>
</a>
</g>
</g>
<!-- Node12&#45;&gt;Node9 -->
<g id="edge16_Node000012_Node000009" class="edge">
<title>Node12&#45;&gt;Node9</title>
<g id="a_edge16_Node000012_Node000009"><a xlink:title=" ">
<path fill="none" stroke="#63b8ff" d="M457.31,-133.1C460.07,-132.71 462.81,-132.34 465.5,-132 563.04,-119.61 816.31,-135.16 906.5,-96 924.68,-88.11 922.47,-76.14 939.5,-66 963.04,-51.98 991.1,-41.09 1016.11,-33.11"/>
<polygon fill="#63b8ff" stroke="#63b8ff" points="1017.37,-36.38 1025.88,-30.08 1015.3,-29.7 1017.37,-36.38"/>
</a>
</g>
</g>
<!-- Node13 -->
<g id="Node000013" class="node">
<title>Node13</title>
<g id="a_Node000013"><a xlink:title=" ">
<polygon fill="#e0e0e0" stroke="#999999" points="413,-90.5 356,-90.5 356,-71.5 413,-71.5 413,-90.5"/>
<text text-anchor="middle" x="384.5" y="-78.5" font-family="Helvetica,sans-Serif" font-size="10.00">ostream</text>
</a>
</g>
</g>
<!-- Node12&#45;&gt;Node13 -->
<g id="edge17_Node000012_Node000013" class="edge">
<title>Node12&#45;&gt;Node13</title>
<g id="a_edge17_Node000012_Node000013"><a xlink:title=" ">
<path fill="none" stroke="#63b8ff" d="M384.5,-131.8C384.5,-122.7 384.5,-110.79 384.5,-100.9"/>
<polygon fill="#63b8ff" stroke="#63b8ff" points="388,-100.84 384.5,-90.84 381,-100.84 388,-100.84"/>
</a>
</g>
</g>
<!-- Node14 -->
<g id="Node000014" class="node">
<title>Node14</title>
<g id="a_Node000014"><a xlink:title=" ">
<polygon fill="#e0e0e0" stroke="#999999" points="577,-24.5 530,-24.5 530,-5.5 577,-5.5 577,-24.5"/>
<text text-anchor="middle" x="553.5" y="-12.5" font-family="Helvetica,sans-Serif" font-size="10.00">cmath</text>
</a>
</g>
</g>
<!-- Node12&#45;&gt;Node14 -->
<g id="edge18_Node000012_Node000014" class="edge">
<title>Node12&#45;&gt;Node14</title>
<g id="a_edge18_Node000012_Node000014"><a xlink:title=" ">
<path fill="none" stroke="#63b8ff" d="M356.64,-131.87C329.25,-116.13 294.17,-89.77 313.5,-66 313.91,-65.5 453.72,-36.59 519.73,-22.97"/>
<polygon fill="#63b8ff" stroke="#63b8ff" points="520.57,-26.37 529.66,-20.92 519.16,-19.51 520.57,-26.37"/>
</a>
</g>
</g>
<!-- Node15 -->
<g id="Node000015" class="node">
<title>Node15</title>
<g id="a_Node000015"><a xlink:href="PreciseDouble_8h.html" target="_top" xlink:title="Defines the PreciseDouble class for safe and precise double&#45;precision arithmetic.">
<polygon fill="white" stroke="#666666" points="897,-96 774,-96 774,-66 897,-66 897,-96"/>
<text text-anchor="start" x="782" y="-84" font-family="Helvetica,sans-Serif" font-size="10.00">App/Model/IBM/Maths</text>
<text text-anchor="middle" x="835.5" y="-73" font-family="Helvetica,sans-Serif" font-size="10.00">/PreciseDouble.h</text>
</a>
</g>
</g>
<!-- Node12&#45;&gt;Node15 -->
<g id="edge19_Node000012_Node000015" class="edge">
<title>Node12&#45;&gt;Node15</title>
<g id="a_edge19_Node000012_Node000015"><a xlink:title=" ">
<path fill="none" stroke="#63b8ff" d="M457.34,-133.28C460.09,-132.84 462.82,-132.41 465.5,-132 568.91,-116.08 689,-100.36 763.64,-90.91"/>
<polygon fill="#63b8ff" stroke="#63b8ff" points="764.38,-94.35 773.86,-89.62 763.5,-87.4 764.38,-94.35"/>
</a>
</g>
</g>
<!-- Node15&#45;&gt;Node6 -->
<g id="edge20_Node000015_Node000006" class="edge">
<title>Node15&#45;&gt;Node6</title>
<g id="a_edge20_Node000015_Node000006"><a xlink:title=" ">
<path fill="none" stroke="#63b8ff" d="M773.97,-70.42C696.82,-58.4 565.25,-37.92 487.44,-25.8"/>
<polygon fill="#63b8ff" stroke="#63b8ff" points="487.72,-22.3 477.3,-24.22 486.64,-29.22 487.72,-22.3"/>
</a>
</g>
</g>
<!-- Node15&#45;&gt;Node7 -->
<g id="edge21_Node000015_Node000007" class="edge">
<title>Node15&#45;&gt;Node7</title>
<g id="a_edge21_Node000015_Node000007"><a xlink:title=" ">
<path fill="none" stroke="#63b8ff" d="M794.24,-65.95C765.96,-56.33 728.25,-43.49 698.15,-33.24"/>
<polygon fill="#63b8ff" stroke="#63b8ff" points="699.26,-29.92 688.66,-30.01 697,-36.55 699.26,-29.92"/>
</a>
</g>
</g>
<!-- Node15&#45;&gt;Node8 -->
<g id="edge22_Node000015_Node000008" class="edge">
<title>Node15&#45;&gt;Node8</title>
<g id="a_edge22_Node000015_Node000008"><a xlink:title=" ">
<path fill="none" stroke="#63b8ff" d="M773.75,-73.51C659.16,-61.47 414.4,-35.75 294.94,-23.19"/>
<polygon fill="#63b8ff" stroke="#63b8ff" points="295.13,-19.69 284.82,-22.13 294.4,-26.65 295.13,-19.69"/>
</a>
</g>
</g>
<!-- Node15&#45;&gt;Node9 -->
<g id="edge23_Node000015_Node000009" class="edge">
<title>Node15&#45;&gt;Node9</title>
<g id="a_edge23_Node000015_Node000009"><a xlink:title=" ">
<path fill="none" stroke="#63b8ff" d="M889.71,-65.95C927.67,-56.12 978.55,-42.93 1018.51,-32.58"/>
<polygon fill="#63b8ff" stroke="#63b8ff" points="1019.62,-35.91 1028.42,-30.01 1017.86,-29.13 1019.62,-35.91"/>
</a>
</g>
</g>
<!-- Node15&#45;&gt;Node10 -->
<g id="edge24_Node000015_Node000010" class="edge">
<title>Node15&#45;&gt;Node10</title>
<g id="a_edge24_Node000015_Node000010"><a xlink:title=" ">
<path fill="none" stroke="#63b8ff" d="M897.31,-75.53C1070.72,-62.97 1557.62,-27.72 1687.38,-18.33"/>
<polygon fill="#63b8ff" stroke="#63b8ff" points="1687.74,-21.81 1697.47,-17.6 1687.24,-14.83 1687.74,-21.81"/>
</a>
</g>
</g>
<!-- Node15&#45;&gt;Node14 -->
<g id="edge25_Node000015_Node000014" class="edge">
<title>Node15&#45;&gt;Node14</title>
<g id="a_edge25_Node000015_Node000014"><a xlink:title=" ">
<path fill="none" stroke="#63b8ff" d="M773.96,-71.47C722.78,-63.49 648.41,-49.8 585.5,-30 583.87,-29.49 582.21,-28.92 580.55,-28.31"/>
<polygon fill="#63b8ff" stroke="#63b8ff" points="581.76,-25.03 571.18,-24.54 579.15,-31.52 581.76,-25.03"/>
</a>
</g>
</g>
<!-- Node16 -->
<g id="Node000016" class="node">
<title>Node16</title>
<g id="a_Node000016"><a xlink:title=" ">
<polygon fill="#e0e0e0" stroke="#999999" points="922.5,-24.5 858.5,-24.5 858.5,-5.5 922.5,-5.5 922.5,-24.5"/>
<text text-anchor="middle" x="890.5" y="-12.5" font-family="Helvetica,sans-Serif" font-size="10.00">algorithm</text>
</a>
</g>
</g>
<!-- Node15&#45;&gt;Node16 -->
<g id="edge26_Node000015_Node000016" class="edge">
<title>Node15&#45;&gt;Node16</title>
<g id="a_edge26_Node000015_Node000016"><a xlink:title=" ">
<path fill="none" stroke="#63b8ff" d="M847.71,-65.8C856.11,-56.01 867.31,-42.98 876.15,-32.7"/>
<polygon fill="#63b8ff" stroke="#63b8ff" points="879.04,-34.71 882.9,-24.84 873.73,-30.15 879.04,-34.71"/>
</a>
</g>
</g>
<!-- Node17 -->
<g id="Node000017" class="node">
<title>Node17</title>
<g id="a_Node000017"><a xlink:title=" ">
<polygon fill="#e0e0e0" stroke="#999999" points="778.5,-24.5 718.5,-24.5 718.5,-5.5 778.5,-5.5 778.5,-24.5"/>
<text text-anchor="middle" x="748.5" y="-12.5" font-family="Helvetica,sans-Serif" font-size="10.00">iostream</text>
</a>
</g>
</g>
<!-- Node15&#45;&gt;Node17 -->
<g id="edge27_Node000015_Node000017" class="edge">
<title>Node15&#45;&gt;Node17</title>
<g id="a_edge27_Node000015_Node000017"><a xlink:title=" ">
<path fill="none" stroke="#63b8ff" d="M816.19,-65.8C802.01,-55.37 782.81,-41.24 768.48,-30.69"/>
<polygon fill="#63b8ff" stroke="#63b8ff" points="770.4,-27.76 760.27,-24.66 766.25,-33.4 770.4,-27.76"/>
</a>
</g>
</g>
<!-- Node18 -->
<g id="Node000018" class="node">
<title>Node18</title>
<g id="a_Node000018"><a xlink:title=" ">
<polygon fill="#e0e0e0" stroke="#999999" points="840.5,-24.5 796.5,-24.5 796.5,-5.5 840.5,-5.5 840.5,-24.5"/>
<text text-anchor="middle" x="818.5" y="-12.5" font-family="Helvetica,sans-Serif" font-size="10.00">limits</text>
</a>
</g>
</g>
<!-- Node15&#45;&gt;Node18 -->
<g id="edge28_Node000015_Node000018" class="edge">
<title>Node15&#45;&gt;Node18</title>
<g id="a_edge28_Node000015_Node000018"><a xlink:title=" ">
<path fill="none" stroke="#63b8ff" d="M831.73,-65.8C829.28,-56.6 826.08,-44.53 823.43,-34.58"/>
<polygon fill="#63b8ff" stroke="#63b8ff" points="826.8,-33.61 820.85,-24.84 820.03,-35.41 826.8,-33.61"/>
</a>
</g>
</g>
<!-- Node19 -->
<g id="Node000019" class="node">
<title>Node19</title>
<g id="a_Node000019"><a xlink:title=" ">
<polygon fill="#e0e0e0" stroke="#999999" points="1006,-24.5 941,-24.5 941,-5.5 1006,-5.5 1006,-24.5"/>
<text text-anchor="middle" x="973.5" y="-12.5" font-family="Helvetica,sans-Serif" font-size="10.00">functional</text>
</a>
</g>
</g>
<!-- Node15&#45;&gt;Node19 -->
<g id="edge29_Node000015_Node000019" class="edge">
<title>Node15&#45;&gt;Node19</title>
<g id="a_edge29_Node000015_Node000019"><a xlink:title=" ">
<path fill="none" stroke="#63b8ff" d="M865.78,-65.95C889.67,-54.88 922.7,-39.56 945.86,-28.82"/>
<polygon fill="#63b8ff" stroke="#63b8ff" points="947.54,-31.9 955.13,-24.52 944.59,-25.55 947.54,-31.9"/>
</a>
</g>
</g>
<!-- Node20&#45;&gt;Node10 -->
<g id="edge32_Node000020_Node000010" class="edge">
<title>Node20&#45;&gt;Node10</title>
<g id="a_edge32_Node000020_Node000010"><a xlink:title=" ">
<path fill="none" stroke="#63b8ff" d="M1549.42,-139.35C1602.58,-131.59 1679.56,-117.09 1700.5,-96 1716.42,-79.97 1719.92,-53.19 1720.27,-35.07"/>
<polygon fill="#63b8ff" stroke="#63b8ff" points="1723.76,-34.81 1720.15,-24.85 1716.76,-34.89 1723.76,-34.81"/>
</a>
</g>
</g>
<!-- Node20&#45;&gt;Node11 -->
<g id="edge31_Node000020_Node000011" class="edge">
<title>Node20&#45;&gt;Node11</title>
<g id="a_edge31_Node000020_Node000011"><a xlink:title=" ">
<path fill="none" stroke="#63b8ff" d="M1478.97,-137.37C1456.97,-126.54 1419.01,-107.85 1393.35,-95.22"/>
<polygon fill="#63b8ff" stroke="#63b8ff" points="1394.69,-91.98 1384.17,-90.7 1391.6,-98.26 1394.69,-91.98"/>
</a>
</g>
</g>
<!-- Node21 -->
<g id="Node000021" class="node">
<title>Node21</title>
<g id="a_Node000021"><a xlink:title=" ">
<polygon fill="#e0e0e0" stroke="#999999" points="1691,-90.5 1598,-90.5 1598,-71.5 1691,-71.5 1691,-90.5"/>
<text text-anchor="middle" x="1644.5" y="-78.5" font-family="Helvetica,sans-Serif" font-size="10.00">unordered_map</text>
</a>
</g>
</g>
<!-- Node20&#45;&gt;Node21 -->
<g id="edge33_Node000020_Node000021" class="edge">
<title>Node20&#45;&gt;Node21</title>
<g id="a_edge33_Node000020_Node000021"><a xlink:title=" ">
<path fill="none" stroke="#63b8ff" d="M1516.46,-137.37C1541.84,-126.39 1585.86,-107.36 1615.09,-94.72"/>
<polygon fill="#63b8ff" stroke="#63b8ff" points="1616.59,-97.88 1624.38,-90.7 1613.82,-91.46 1616.59,-97.88"/>
</a>
</g>
</g>
<!-- Node22 -->
<g id="Node000022" class="node">
<title>Node22</title>
<g id="a_Node000022"><a xlink:title=" ">
<polygon fill="#e0e0e0" stroke="#999999" points="1580,-90.5 1413,-90.5 1413,-71.5 1580,-71.5 1580,-90.5"/>
<text text-anchor="middle" x="1496.5" y="-78.5" font-family="Helvetica,sans-Serif" font-size="10.00">magic_enum/magic_enum.hpp</text>
</a>
</g>
</g>
<!-- Node20&#45;&gt;Node22 -->
<g id="edge34_Node000020_Node000022" class="edge">
<title>Node20&#45;&gt;Node22</title>
<g id="a_edge34_Node000020_Node000022"><a xlink:title=" ">
<path fill="none" stroke="#63b8ff" d="M1496.5,-137.37C1496.5,-128.16 1496.5,-113.29 1496.5,-101.27"/>
<polygon fill="#63b8ff" stroke="#63b8ff" points="1500,-100.91 1496.5,-90.91 1493,-100.91 1500,-100.91"/>
</a>
</g>
</g>
<!-- Node23 -->
<g id="Node000023" class="node">
<title>Node23</title>
<g id="a_Node000023"><a xlink:href="LineInfoException_8h.html" target="_top" xlink:title="Exception class with detailed file and line information for error reporting.">
<polygon fill="white" stroke="#666666" points="1916,-90.5 1747,-90.5 1747,-71.5 1916,-71.5 1916,-90.5"/>
<text text-anchor="middle" x="1831.5" y="-78.5" font-family="Helvetica,sans-Serif" font-size="10.00">Exceptions/LineInfoException.h</text>
</a>
</g>
</g>
<!-- Node20&#45;&gt;Node23 -->
<g id="edge35_Node000020_Node000023" class="edge">
<title>Node20&#45;&gt;Node23</title>
<g id="a_edge35_Node000020_Node000023"><a xlink:title=" ">
<path fill="none" stroke="#63b8ff" d="M1541.33,-137.44C1602.26,-125.8 1711.11,-105 1776.78,-92.45"/>
<polygon fill="#63b8ff" stroke="#63b8ff" points="1777.77,-95.83 1786.93,-90.51 1776.45,-88.95 1777.77,-95.83"/>
</a>
</g>
</g>
<!-- Node23&#45;&gt;Node10 -->
<g id="edge37_Node000023_Node000010" class="edge">
<title>Node23&#45;&gt;Node10</title>
<g id="a_edge37_Node000023_Node000010"><a xlink:title=" ">
<path fill="none" stroke="#63b8ff" d="M1816.4,-71.37C1797.69,-60.68 1765.6,-42.35 1743.51,-29.72"/>
<polygon fill="#63b8ff" stroke="#63b8ff" points="1745.14,-26.62 1734.72,-24.7 1741.67,-32.7 1745.14,-26.62"/>
</a>
</g>
</g>
<!-- Node24 -->
<g id="Node000024" class="node">
<title>Node24</title>
<g id="a_Node000024"><a xlink:title=" ">
<polygon fill="#e0e0e0" stroke="#999999" points="1864,-24.5 1799,-24.5 1799,-5.5 1864,-5.5 1864,-24.5"/>
<text text-anchor="middle" x="1831.5" y="-12.5" font-family="Helvetica,sans-Serif" font-size="10.00">exception</text>
</a>
</g>
</g>
<!-- Node23&#45;&gt;Node24 -->
<g id="edge36_Node000023_Node000024" class="edge">
<title>Node23&#45;&gt;Node24</title>
<g id="a_edge36_Node000023_Node000024"><a xlink:title=" ">
<path fill="none" stroke="#63b8ff" d="M1831.5,-71.37C1831.5,-62.16 1831.5,-47.29 1831.5,-35.27"/>
<polygon fill="#63b8ff" stroke="#63b8ff" points="1835,-34.91 1831.5,-24.91 1828,-34.91 1835,-34.91"/>
</a>
</g>
</g>
<!-- Node25&#45;&gt;Node6 -->
<g id="edge39_Node000025_Node000006" class="edge">
<title>Node25&#45;&gt;Node6</title>
<g id="a_edge39_Node000025_Node000006"><a xlink:title=" ">
<path fill="none" stroke="#63b8ff" d="M974.35,-138.07C909.03,-129.61 805.75,-114.84 717.5,-96 633.65,-78.1 538.12,-50.67 479.57,-33.03"/>
<polygon fill="#63b8ff" stroke="#63b8ff" points="480.37,-29.62 469.79,-30.07 478.35,-36.32 480.37,-29.62"/>
</a>
</g>
</g>
<!-- Node25&#45;&gt;Node7 -->
<g id="edge40_Node000025_Node000007" class="edge">
<title>Node25&#45;&gt;Node7</title>
<g id="a_edge40_Node000025_Node000007"><a xlink:title=" ">
<path fill="none" stroke="#63b8ff" d="M974.25,-141.77C917.34,-136.3 833.5,-123.91 765.5,-96 743.6,-87.01 741.08,-79.29 721.5,-66 706.87,-56.07 690.59,-45.07 677.04,-35.92"/>
<polygon fill="#63b8ff" stroke="#63b8ff" points="678.81,-32.89 668.57,-30.2 674.9,-38.7 678.81,-32.89"/>
</a>
</g>
</g>
<!-- Node25&#45;&gt;Node8 -->
<g id="edge41_Node000025_Node000008" class="edge">
<title>Node25&#45;&gt;Node8</title>
<g id="a_edge41_Node000025_Node000008"><a xlink:title=" ">
<path fill="none" stroke="#63b8ff" d="M974.43,-140.92C887.14,-133.61 727.49,-118.48 592.5,-96 531.87,-85.9 517.54,-79.17 457.5,-66 402.8,-54 340.76,-40.58 294.76,-30.67"/>
<polygon fill="#63b8ff" stroke="#63b8ff" points="295.42,-27.23 284.91,-28.55 293.94,-34.08 295.42,-27.23"/>
</a>
</g>
</g>
<!-- Node25&#45;&gt;Node9 -->
<g id="edge42_Node000025_Node000009" class="edge">
<title>Node25&#45;&gt;Node9</title>
<g id="a_edge42_Node000025_Node000009"><a xlink:title=" ">
<path fill="none" stroke="#63b8ff" d="M1042.2,-131.89C1045.48,-115.73 1051.57,-88.56 1059.5,-66 1062.64,-57.06 1066.8,-47.54 1070.72,-39.23"/>
<polygon fill="#63b8ff" stroke="#63b8ff" points="1073.91,-40.67 1075.13,-30.15 1067.62,-37.61 1073.91,-40.67"/>
</a>
</g>
</g>
<!-- Node25&#45;&gt;Node15 -->
<g id="edge46_Node000025_Node000015" class="edge">
<title>Node25&#45;&gt;Node15</title>
<g id="a_edge46_Node000025_Node000015"><a xlink:title=" ">
<path fill="none" stroke="#63b8ff" d="M994.73,-131.95C963.91,-122.28 922.77,-109.38 890.03,-99.11"/>
<polygon fill="#63b8ff" stroke="#63b8ff" points="890.75,-95.67 880.16,-96.01 888.66,-102.35 890.75,-95.67"/>
</a>
</g>
</g>
<!-- Node25&#45;&gt;Node19 -->
<g id="edge44_Node000025_Node000019" class="edge">
<title>Node25&#45;&gt;Node19</title>
<g id="a_edge44_Node000025_Node000019"><a xlink:title=" ">
<path fill="none" stroke="#63b8ff" d="M1104.74,-138.84C1168.4,-129.25 1250.86,-108.29 1215.5,-66 1186.53,-31.35 1059.26,-41.17 1015.5,-30 1012.71,-29.29 1009.83,-28.48 1006.96,-27.63"/>
<polygon fill="#63b8ff" stroke="#63b8ff" points="1007.9,-24.26 997.31,-24.6 1005.8,-30.93 1007.9,-24.26"/>
</a>
</g>
</g>
<!-- Node26 -->
<g id="Node000026" class="node">
<title>Node26</title>
<g id="a_Node000026"><a xlink:title=" ">
<polygon fill="#e0e0e0" stroke="#999999" points="1123,-90.5 1068,-90.5 1068,-71.5 1123,-71.5 1123,-90.5"/>
<text text-anchor="middle" x="1095.5" y="-78.5" font-family="Helvetica,sans-Serif" font-size="10.00">fstream</text>
</a>
</g>
</g>
<!-- Node25&#45;&gt;Node26 -->
<g id="edge43_Node000025_Node000026" class="edge">
<title>Node25&#45;&gt;Node26</title>
<g id="a_edge43_Node000025_Node000026"><a xlink:title=" ">
<path fill="none" stroke="#63b8ff" d="M1051.93,-131.8C1060.57,-121.92 1072.12,-108.72 1081.16,-98.39"/>
<polygon fill="#63b8ff" stroke="#63b8ff" points="1083.81,-100.67 1087.76,-90.84 1078.54,-96.07 1083.81,-100.67"/>
</a>
</g>
</g>
<!-- Node27 -->
<g id="Node000027" class="node">
<title>Node27</title>
<g id="a_Node000027"><a xlink:title=" ">
<polygon fill="#e0e0e0" stroke="#999999" points="1206,-90.5 1141,-90.5 1141,-71.5 1206,-71.5 1206,-90.5"/>
<text text-anchor="middle" x="1173.5" y="-78.5" font-family="Helvetica,sans-Serif" font-size="10.00">stdexcept</text>
</a>
</g>
</g>
<!-- Node25&#45;&gt;Node27 -->
<g id="edge45_Node000025_Node000027" class="edge">
<title>Node25&#45;&gt;Node27</title>
<g id="a_edge45_Node000025_Node000027"><a xlink:title=" ">
<path fill="none" stroke="#63b8ff" d="M1068.91,-131.95C1091.99,-120.93 1123.88,-105.7 1146.36,-94.96"/>
<polygon fill="#63b8ff" stroke="#63b8ff" points="1148.15,-97.99 1155.67,-90.52 1145.13,-91.67 1148.15,-97.99"/>
</a>
</g>
</g>
<!-- Node28&#45;&gt;Node4 -->
<g id="edge54_Node000028_Node000004" class="edge">
<title>Node28&#45;&gt;Node4</title>
<g id="a_edge54_Node000028_Node000004"><a xlink:title=" ">
<path fill="none" stroke="#63b8ff" d="M697.66,-208.12C597.35,-201.63 398.66,-186.76 231.5,-162 224.76,-161 217.68,-159.77 210.73,-158.46"/>
<polygon fill="#63b8ff" stroke="#63b8ff" points="211.18,-154.99 200.69,-156.5 209.84,-161.86 211.18,-154.99"/>
</a>
</g>
</g>
<!-- Node28&#45;&gt;Node6 -->
<g id="edge48_Node000028_Node000006" class="edge">
<title>Node28&#45;&gt;Node6</title>
<g id="a_edge48_Node000028_Node000006"><a xlink:title=" ">
<path fill="none" stroke="#63b8ff" d="M697.56,-208.27C578.54,-200.94 334.63,-183.5 302.5,-162 264.63,-136.65 239.57,-102.76 266.5,-66 288.15,-36.45 327.35,-23.92 361.28,-18.8"/>
<polygon fill="#63b8ff" stroke="#63b8ff" points="362.17,-22.21 371.62,-17.43 361.25,-15.27 362.17,-22.21"/>
</a>
</g>
</g>
<!-- Node28&#45;&gt;Node7 -->
<g id="edge49_Node000028_Node000007" class="edge">
<title>Node28&#45;&gt;Node7</title>
<g id="a_edge49_Node000028_Node000007"><a xlink:title=" ">
<path fill="none" stroke="#63b8ff" d="M755.67,-197.98C742.63,-171.57 712.89,-112.88 683.5,-66 677.68,-56.72 670.76,-46.86 664.54,-38.37"/>
<polygon fill="#63b8ff" stroke="#63b8ff" points="667.17,-36.04 658.4,-30.1 661.55,-40.22 667.17,-36.04"/>
</a>
</g>
</g>
<!-- Node28&#45;&gt;Node8 -->
<g id="edge50_Node000028_Node000008" class="edge">
<title>Node28&#45;&gt;Node8</title>
<g id="a_edge50_Node000028_Node000008"><a xlink:title=" ">
<path fill="none" stroke="#63b8ff" d="M697.62,-209.23C570.93,-203.29 300.01,-187.72 266.5,-162 229.41,-133.54 224.55,-74.13 225.04,-40.53"/>
<polygon fill="#63b8ff" stroke="#63b8ff" points="228.55,-40.32 225.37,-30.21 221.55,-40.09 228.55,-40.32"/>
</a>
</g>
</g>
<!-- Node28&#45;&gt;Node9 -->
<g id="edge51_Node000028_Node000009" class="edge">
<title>Node28&#45;&gt;Node9</title>
<g id="a_edge51_Node000028_Node000009"><a xlink:title=" ">
<path fill="none" stroke="#63b8ff" d="M791.84,-198C834.01,-177.47 913.7,-137.15 977.5,-96 1006.1,-77.55 1036.86,-53.58 1057.65,-36.7"/>
<polygon fill="#63b8ff" stroke="#63b8ff" points="1060.11,-39.21 1065.64,-30.16 1055.68,-33.79 1060.11,-39.21"/>
</a>
</g>
</g>
<!-- Node28&#45;&gt;Node10 -->
<g id="edge52_Node000028_Node000010" class="edge">
<title>Node28&#45;&gt;Node10</title>
<g id="a_edge52_Node000028_Node000010"><a xlink:title=" ">
<path fill="none" stroke="#63b8ff" d="M827.02,-208.17C898.29,-202.72 1015.89,-190.05 1113.5,-162 1214.47,-132.98 1228.33,-94.31 1329.5,-66 1458.98,-29.77 1620.08,-19.69 1687.5,-16.97"/>
<polygon fill="#63b8ff" stroke="#63b8ff" points="1687.64,-20.47 1697.5,-16.59 1687.37,-13.47 1687.64,-20.47"/>
</a>
</g>
</g>
<!-- Node28&#45;&gt;Node11 -->
<g id="edge53_Node000028_Node000011" class="edge">
<title>Node28&#45;&gt;Node11</title>
<g id="a_edge53_Node000028_Node000011"><a xlink:title=" ">
<path fill="none" stroke="#63b8ff" d="M827.21,-209.26C941.14,-203.79 1172.68,-189.6 1248.5,-162 1288.54,-147.42 1328.09,-116.28 1349.7,-97.43"/>
<polygon fill="#63b8ff" stroke="#63b8ff" points="1352.18,-99.91 1357.32,-90.65 1347.52,-94.69 1352.18,-99.91"/>
</a>
</g>
</g>
<!-- Node28&#45;&gt;Node12 -->
<g id="edge55_Node000028_Node000012" class="edge">
<title>Node28&#45;&gt;Node12</title>
<g id="a_edge55_Node000028_Node000012"><a xlink:title=" ">
<path fill="none" stroke="#63b8ff" d="M697.89,-201.21C640.01,-191.52 552.5,-176.82 467.44,-162.33"/>
<polygon fill="#63b8ff" stroke="#63b8ff" points="467.8,-158.84 457.36,-160.61 466.62,-165.74 467.8,-158.84"/>
</a>
</g>
</g>
<!-- Node28&#45;&gt;Node20 -->
<g id="edge64_Node000028_Node000020" class="edge">
<title>Node28&#45;&gt;Node20</title>
<g id="a_edge64_Node000028_Node000020"><a xlink:title=" ">
<path fill="none" stroke="#63b8ff" d="M827.32,-206.35C967.11,-194.16 1295.44,-165.53 1433.54,-153.49"/>
<polygon fill="#63b8ff" stroke="#63b8ff" points="1433.89,-156.97 1443.55,-152.62 1433.28,-150 1433.89,-156.97"/>
</a>
</g>
</g>
<!-- Node28&#45;&gt;Node25 -->
<g id="edge65_Node000028_Node000025" class="edge">
<title>Node28&#45;&gt;Node25</title>
<g id="a_edge65_Node000028_Node000025"><a xlink:title=" ">
<path fill="none" stroke="#63b8ff" d="M823.29,-197.95C866.23,-188.03 923.9,-174.71 968.88,-164.32"/>
<polygon fill="#63b8ff" stroke="#63b8ff" points="969.9,-167.67 978.85,-162.01 968.32,-160.85 969.9,-167.67"/>
</a>
</g>
</g>
<!-- Node29 -->
<g id="Node000029" class="node">
<title>Node29</title>
<g id="a_Node000029"><a xlink:href="StructuralUnits_8h.html" target="_top" xlink:title="Defines physical units used in the simulation: DryMass, WetMass, and Length.">
<polygon fill="white" stroke="#666666" points="642,-162 475,-162 475,-132 642,-132 642,-162"/>
<text text-anchor="start" x="483" y="-150" font-family="Helvetica,sans-Serif" font-size="10.00">App/Model/IBM/Landscape</text>
<text text-anchor="middle" x="558.5" y="-139" font-family="Helvetica,sans-Serif" font-size="10.00">/LivingBeings/StructuralUnits.h</text>
</a>
</g>
</g>
<!-- Node28&#45;&gt;Node29 -->
<g id="edge56_Node000028_Node000029" class="edge">
<title>Node28&#45;&gt;Node29</title>
<g id="a_edge56_Node000028_Node000029"><a xlink:title=" ">
<path fill="none" stroke="#63b8ff" d="M717.73,-197.95C686.91,-188.28 645.77,-175.38 613.03,-165.11"/>
<polygon fill="#63b8ff" stroke="#63b8ff" points="613.75,-161.67 603.16,-162.01 611.66,-168.35 613.75,-161.67"/>
</a>
</g>
</g>
<!-- Node29&#45;&gt;Node6 -->
<g id="edge57_Node000029_Node000006" class="edge">
<title>Node29&#45;&gt;Node6</title>
<g id="a_edge57_Node000029_Node000006"><a xlink:title=" ">
<path fill="none" stroke="#63b8ff" d="M543.9,-131.84C520.34,-108.98 473.8,-63.82 446.29,-37.14"/>
<polygon fill="#63b8ff" stroke="#63b8ff" points="448.69,-34.59 439.08,-30.14 443.82,-39.62 448.69,-34.59"/>
</a>
</g>
</g>
<!-- Node29&#45;&gt;Node7 -->
<g id="edge58_Node000029_Node000007" class="edge">
<title>Node29&#45;&gt;Node7</title>
<g id="a_edge58_Node000029_Node000007"><a xlink:title=" ">
<path fill="none" stroke="#63b8ff" d="M568.19,-131.84C583.58,-109.37 613.71,-65.36 632.08,-38.53"/>
<polygon fill="#63b8ff" stroke="#63b8ff" points="635.06,-40.37 637.82,-30.14 629.28,-36.42 635.06,-40.37"/>
</a>
</g>
</g>
<!-- Node29&#45;&gt;Node8 -->
<g id="edge59_Node000029_Node000008" class="edge">
<title>Node29&#45;&gt;Node8</title>
<g id="a_edge59_Node000029_Node000008"><a xlink:title=" ">
<path fill="none" stroke="#63b8ff" d="M530.4,-131.87C511.72,-122.25 486.81,-108.94 465.5,-96 445.27,-83.71 443.07,-75.75 421.5,-66 381.16,-47.76 332.99,-35.33 294.63,-27.42"/>
<polygon fill="#63b8ff" stroke="#63b8ff" points="295.08,-23.94 284.59,-25.41 293.7,-30.81 295.08,-23.94"/>
</a>
</g>
</g>
<!-- Node29&#45;&gt;Node9 -->
<g id="edge60_Node000029_Node000009" class="edge">
<title>Node29&#45;&gt;Node9</title>
<g id="a_edge60_Node000029_Node000009"><a xlink:title=" ">
<path fill="none" stroke="#63b8ff" d="M642.27,-145.18C721.11,-142.06 841.39,-131.21 939.5,-96 963.18,-87.5 965.69,-78.53 987.5,-66 1006.18,-55.27 1027.36,-44.03 1044.97,-34.94"/>
<polygon fill="#63b8ff" stroke="#63b8ff" points="1047.06,-37.8 1054.35,-30.12 1043.86,-31.57 1047.06,-37.8"/>
</a>
</g>
</g>
<!-- Node29&#45;&gt;Node13 -->
<g id="edge61_Node000029_Node000013" class="edge">
<title>Node29&#45;&gt;Node13</title>
<g id="a_edge61_Node000029_Node000013"><a xlink:title=" ">
<path fill="none" stroke="#63b8ff" d="M520.31,-131.95C489.53,-120.63 446.69,-104.88 417.41,-94.1"/>
<polygon fill="#63b8ff" stroke="#63b8ff" points="418.25,-90.68 407.66,-90.52 415.83,-97.25 418.25,-90.68"/>
</a>
</g>
</g>
<!-- Node29&#45;&gt;Node14 -->
<g id="edge62_Node000029_Node000014" class="edge">
<title>Node29&#45;&gt;Node14</title>
<g id="a_edge62_Node000029_Node000014"><a xlink:title=" ">
<path fill="none" stroke="#63b8ff" d="M557.96,-131.84C557.05,-108.34 555.24,-61.26 554.23,-34.93"/>
<polygon fill="#63b8ff" stroke="#63b8ff" points="557.72,-34.61 553.84,-24.75 550.72,-34.88 557.72,-34.61"/>
</a>
</g>
</g>
<!-- Node29&#45;&gt;Node15 -->
<g id="edge63_Node000029_Node000015" class="edge">
<title>Node29&#45;&gt;Node15</title>
<g id="a_edge63_Node000029_Node000015"><a xlink:title=" ">
<path fill="none" stroke="#63b8ff" d="M619.29,-131.95C662.23,-122.03 719.9,-108.71 764.88,-98.32"/>
<polygon fill="#63b8ff" stroke="#63b8ff" points="765.9,-101.67 774.85,-96.01 764.32,-94.85 765.9,-101.67"/>
</a>
</g>
</g>
</g>
</svg>

<g id="navigator" transform="translate(0 0)" fill="#404254">
  <rect fill="#f2f5e9" fill-opacity="0.5" stroke="#606060" stroke-width=".5" x="0" y="0" width="60" height="60"/>
  <use id="zoomplus" xlink:href="#zoomPlus" x="17" y="9" onmousedown="handleZoom(evt,'in')"/>
  <use id="zoomminus" xlink:href="#zoomMin" x="42" y="9" onmousedown="handleZoom(evt,'out')"/>
  <use id="reset" xlink:href="#resetDef" x="30" y="36" onmousedown="handleReset()"/>
   <use id="arrowup" xlink:href="#arrowUp" x="0" y="0" onmousedown="handlePan(0,-1)"/>
  <use id="arrowright" xlink:href="#arrowRight" x="0" y="0" onmousedown="handlePan(1,0)"/>
  <use id="arrowdown" xlink:href="#arrowDown" x="0" y="0" onmousedown="handlePan(0,1)"/>
  <use id="arrowleft" xlink:href="#arrowLeft" x="0" y="0" onmousedown="handlePan(-1,0)"/>
</g>
<svg viewBox="0 0 15 15" width="100%" height="30px" preserveAspectRatio="xMaxYMin meet">
 <g id="arrow_out" transform="scale(0.3 0.3)">
  <a xlink:href="NonDynamics_8h__incl_org.svg" target="_base">
   <rect id="button" ry="5" rx="5" y="6" x="6" height="38" width="38"
        fill="#f2f5e9" fill-opacity="0.5" stroke="#606060" stroke-width="1.0"/>
   <path id="arrow"
     d="M 11.500037,31.436501 C 11.940474,20.09759 22.043105,11.32322 32.158766,21.979434 L 37.068811,17.246167 C 37.068811,17.246167 37.088388,32 37.088388,32 L 22.160133,31.978069 C 22.160133,31.978069 26.997745,27.140456 26.997745,27.140456 C 18.528582,18.264221 13.291696,25.230495 11.500037,31.436501 z"
     style="fill:#404040;"/>
  </a>
 </g>
</svg>

<style type='text/css'>
<![CDATA[
[data-mouse-over-selected='false'] { opacity: 0.7; }
[data-mouse-over-selected='true']  { opacity: 1.0; }
]]>
</style>
<script type="application/ecmascript"><![CDATA[
document.addEventListener('DOMContentLoaded', (event) => {
  highlightEdges();
  highlightAdjacentNodes();
});
]]></script>
</svg>
