<?xml version="1.0" encoding="UTF-8" standalone="no"?>
<!DOCTYPE svg PUBLIC "-//W3C//DTD SVG 1.1//EN"
 "http://www.w3.org/Graphics/SVG/1.1/DTD/svg11.dtd">
<!-- Generated by graphviz version 2.43.0 (0)
 -->
<!-- Title: /home/runner/work/Weaver/Weaver/include/App/Model/IBM/Landscape/Map/TerrainCells/PatchApplicator/Resources/Growth/CellResourceInterfaceGrowth.h Pages: 1 -->
<svg width="1212pt" height="1050pt"
 viewBox="0.00 0.00 1211.50 1050.00" xmlns="http://www.w3.org/2000/svg" xmlns:xlink="http://www.w3.org/1999/xlink">
<g id="graph0" class="graph" transform="scale(1 1) rotate(0) translate(4 1046)">
<title>/home/runner/work/Weaver/Weaver/include/App/Model/IBM/Landscape/Map/TerrainCells/PatchApplicator/Resources/Growth/CellResourceInterfaceGrowth.h</title>
<!-- Node1 -->
<g id="Node000001" class="node">
<title>Node1</title>
<g id="a_Node000001"><a xlink:title="Growth logic for a resource cell, extending EdibleGrowth.">
<polygon fill="#999999" stroke="#666666" points="472,-1042 285,-1042 285,-979 472,-979 472,-1042"/>
<text text-anchor="start" x="293" y="-1030" font-family="Helvetica,sans-Serif" font-size="10.00">/home/runner/work/Weaver</text>
<text text-anchor="start" x="293" y="-1019" font-family="Helvetica,sans-Serif" font-size="10.00">/Weaver/include/App/Model</text>
<text text-anchor="start" x="293" y="-1008" font-family="Helvetica,sans-Serif" font-size="10.00">/IBM/Landscape/Map/TerrainCells</text>
<text text-anchor="start" x="293" y="-997" font-family="Helvetica,sans-Serif" font-size="10.00">/PatchApplicator/Resources/Growth</text>
<text text-anchor="middle" x="378.5" y="-986" font-family="Helvetica,sans-Serif" font-size="10.00">/CellResourceInterfaceGrowth.h</text>
</a>
</g>
</g>
<!-- Node2 -->
<g id="Node000002" class="node">
<title>Node2</title>
<g id="a_Node000002"><a xlink:href="BranchCellResourceGrowth_8h.html" target="_top" xlink:title="Defines the BranchCellResourceGrowth class for aggregating resource growth in branch terrain cells.">
<polygon fill="white" stroke="#666666" points="253,-943 0,-943 0,-880 253,-880 253,-943"/>
<text text-anchor="start" x="8" y="-931" font-family="Helvetica,sans-Serif" font-size="10.00">/home/runner/work/Weaver</text>
<text text-anchor="start" x="8" y="-920" font-family="Helvetica,sans-Serif" font-size="10.00">/Weaver/include/App/Model</text>
<text text-anchor="start" x="8" y="-909" font-family="Helvetica,sans-Serif" font-size="10.00">/IBM/Landscape/Map/SpatialTree</text>
<text text-anchor="start" x="8" y="-898" font-family="Helvetica,sans-Serif" font-size="10.00">/TerrainCells/PatchApplicator</text>
<text text-anchor="middle" x="126.5" y="-887" font-family="Helvetica,sans-Serif" font-size="10.00">/Resources/Growth/BranchCellResourceGrowth.h</text>
</a>
</g>
</g>
<!-- Node1&#45;&gt;Node2 -->
<g id="edge1_Node000001_Node000002" class="edge">
<title>Node1&#45;&gt;Node2</title>
<g id="a_edge1_Node000001_Node000002"><a xlink:title=" ">
<path fill="none" stroke="#63b8ff" d="M289.58,-975.27C262.32,-964.78 232.51,-953.31 205.92,-943.07"/>
<polygon fill="#63b8ff" stroke="#63b8ff" points="288.52,-978.62 299.11,-978.94 291.04,-972.08 288.52,-978.62"/>
</a>
</g>
</g>
<!-- Node13 -->
<g id="Node000013" class="node">
<title>Node13</title>
<g id="a_Node000013"><a xlink:href="CellResourceInterface_8h.html" target="_top" xlink:title="Interface for resources in a terrain cell.">
<polygon fill="white" stroke="#666666" points="486,-943 271,-943 271,-880 486,-880 486,-943"/>
<text text-anchor="start" x="279" y="-931" font-family="Helvetica,sans-Serif" font-size="10.00">/home/runner/work/Weaver</text>
<text text-anchor="start" x="279" y="-920" font-family="Helvetica,sans-Serif" font-size="10.00">/Weaver/include/App/Model</text>
<text text-anchor="start" x="279" y="-909" font-family="Helvetica,sans-Serif" font-size="10.00">/IBM/Landscape/Map/TerrainCells</text>
<text text-anchor="start" x="279" y="-898" font-family="Helvetica,sans-Serif" font-size="10.00">/PatchApplicator/Resources/CellResource</text>
<text text-anchor="middle" x="378.5" y="-887" font-family="Helvetica,sans-Serif" font-size="10.00">Interface.h</text>
</a>
</g>
</g>
<!-- Node1&#45;&gt;Node13 -->
<g id="edge13_Node000001_Node000013" class="edge">
<title>Node1&#45;&gt;Node13</title>
<g id="a_edge13_Node000001_Node000013"><a xlink:title=" ">
<path fill="none" stroke="#63b8ff" d="M378.5,-968.69C378.5,-960.2 378.5,-951.38 378.5,-943.32"/>
<polygon fill="#63b8ff" stroke="#63b8ff" points="375,-968.81 378.5,-978.81 382,-968.81 375,-968.81"/>
</a>
</g>
</g>
<!-- Node22 -->
<g id="Node000022" class="node">
<title>Node22</title>
<g id="a_Node000022"><a xlink:href="CellResourceGrowth_8h.html" target="_top" xlink:title="Concrete implementation of resource growth for a terrain cell.">
<polygon fill="white" stroke="#666666" points="691,-943 504,-943 504,-880 691,-880 691,-943"/>
<text text-anchor="start" x="512" y="-931" font-family="Helvetica,sans-Serif" font-size="10.00">/home/runner/work/Weaver</text>
<text text-anchor="start" x="512" y="-920" font-family="Helvetica,sans-Serif" font-size="10.00">/Weaver/include/App/Model</text>
<text text-anchor="start" x="512" y="-909" font-family="Helvetica,sans-Serif" font-size="10.00">/IBM/Landscape/Map/TerrainCells</text>
<text text-anchor="start" x="512" y="-898" font-family="Helvetica,sans-Serif" font-size="10.00">/PatchApplicator/Resources/Growth</text>
<text text-anchor="middle" x="597.5" y="-887" font-family="Helvetica,sans-Serif" font-size="10.00">/CellResourceGrowth.h</text>
</a>
</g>
</g>
<!-- Node1&#45;&gt;Node22 -->
<g id="edge37_Node000001_Node000022" class="edge">
<title>Node1&#45;&gt;Node22</title>
<g id="a_edge37_Node000001_Node000022"><a xlink:title=" ">
<path fill="none" stroke="#63b8ff" d="M456.71,-974.86C480.15,-964.48 505.67,-953.17 528.48,-943.07"/>
<polygon fill="#63b8ff" stroke="#63b8ff" points="455.22,-971.69 447.49,-978.94 458.05,-978.09 455.22,-971.69"/>
</a>
</g>
</g>
<!-- Node3 -->
<g id="Node000003" class="node">
<title>Node3</title>
<g id="a_Node000003"><a xlink:href="BranchCellResource_8h.html" target="_top" xlink:title="Defines the BranchCellResource class for managing resources in branch terrain cells.">
<polygon fill="white" stroke="#666666" points="216,-756 37,-756 37,-693 216,-693 216,-756"/>
<text text-anchor="start" x="45" y="-744" font-family="Helvetica,sans-Serif" font-size="10.00">/home/runner/work/Weaver</text>
<text text-anchor="start" x="45" y="-733" font-family="Helvetica,sans-Serif" font-size="10.00">/Weaver/include/App/Model</text>
<text text-anchor="start" x="45" y="-722" font-family="Helvetica,sans-Serif" font-size="10.00">/IBM/Landscape/Map/SpatialTree</text>
<text text-anchor="start" x="45" y="-711" font-family="Helvetica,sans-Serif" font-size="10.00">/TerrainCells/PatchApplicator</text>
<text text-anchor="middle" x="126.5" y="-700" font-family="Helvetica,sans-Serif" font-size="10.00">/Resources/BranchCellResource.h</text>
</a>
</g>
</g>
<!-- Node2&#45;&gt;Node3 -->
<g id="edge2_Node000002_Node000003" class="edge">
<title>Node2&#45;&gt;Node3</title>
<g id="a_edge2_Node000002_Node000003"><a xlink:title=" ">
<path fill="none" stroke="#63b8ff" d="M126.5,-869.79C126.5,-835.49 126.5,-787.18 126.5,-756.09"/>
<polygon fill="#63b8ff" stroke="#63b8ff" points="123,-869.95 126.5,-879.95 130,-869.95 123,-869.95"/>
</a>
</g>
</g>
<!-- Node4 -->
<g id="Node000004" class="node">
<title>Node4</title>
<g id="a_Node000004"><a xlink:href="BranchTerrainCell_8h.html" target="_top" xlink:title="Branch node implementation of a spatial tree terrain cell.">
<polygon fill="white" stroke="#666666" points="414.5,-371 240.5,-371 240.5,-319 414.5,-319 414.5,-371"/>
<text text-anchor="start" x="248.5" y="-359" font-family="Helvetica,sans-Serif" font-size="10.00">/home/runner/work/Weaver</text>
<text text-anchor="start" x="248.5" y="-348" font-family="Helvetica,sans-Serif" font-size="10.00">/Weaver/include/App/Model</text>
<text text-anchor="start" x="248.5" y="-337" font-family="Helvetica,sans-Serif" font-size="10.00">/IBM/Landscape/Map/SpatialTree</text>
<text text-anchor="middle" x="327.5" y="-326" font-family="Helvetica,sans-Serif" font-size="10.00">/TerrainCells/BranchTerrainCell.h</text>
</a>
</g>
</g>
<!-- Node3&#45;&gt;Node4 -->
<g id="edge3_Node000003_Node000004" class="edge">
<title>Node3&#45;&gt;Node4</title>
<g id="a_edge3_Node000003_Node000004"><a xlink:title=" ">
<path fill="none" stroke="#63b8ff" d="M89.14,-685.12C48.63,-638.63 -5.7,-558.64 30.5,-495 73.57,-419.28 169.16,-381.05 240.33,-362.42"/>
<polygon fill="#63b8ff" stroke="#63b8ff" points="86.75,-687.7 96.02,-692.84 91.98,-683.04 86.75,-687.7"/>
</a>
</g>
</g>
<!-- Node12 -->
<g id="Node000012" class="node">
<title>Node12</title>
<g id="a_Node000012"><a xlink:href="BranchPatchApplicator_8h.html" target="_top" xlink:title="Defines the BranchPatchApplicator class for applying patches to branch terrain cells in a spatial tre...">
<polygon fill="white" stroke="#666666" points="213.5,-558 39.5,-558 39.5,-495 213.5,-495 213.5,-558"/>
<text text-anchor="start" x="47.5" y="-546" font-family="Helvetica,sans-Serif" font-size="10.00">/home/runner/work/Weaver</text>
<text text-anchor="start" x="47.5" y="-535" font-family="Helvetica,sans-Serif" font-size="10.00">/Weaver/include/App/Model</text>
<text text-anchor="start" x="47.5" y="-524" font-family="Helvetica,sans-Serif" font-size="10.00">/IBM/Landscape/Map/SpatialTree</text>
<text text-anchor="start" x="47.5" y="-513" font-family="Helvetica,sans-Serif" font-size="10.00">/TerrainCells/PatchApplicator</text>
<text text-anchor="middle" x="126.5" y="-502" font-family="Helvetica,sans-Serif" font-size="10.00">/BranchPatchApplicator.h</text>
</a>
</g>
</g>
<!-- Node3&#45;&gt;Node12 -->
<g id="edge11_Node000003_Node000012" class="edge">
<title>Node3&#45;&gt;Node12</title>
<g id="a_edge11_Node000003_Node000012"><a xlink:title=" ">
<path fill="none" stroke="#63b8ff" d="M126.5,-682.42C126.5,-645.37 126.5,-591.69 126.5,-558.23"/>
<polygon fill="#63b8ff" stroke="#63b8ff" points="123,-682.87 126.5,-692.88 130,-682.88 123,-682.87"/>
</a>
</g>
</g>
<!-- Node5 -->
<g id="Node000005" class="node">
<title>Node5</title>
<g id="a_Node000005"><a xlink:href="RootTerrainCell_8h.html" target="_top" xlink:title="Defines the RootTerrainCell class, the top&#45;level node of the spatial tree in the landscape.">
<polygon fill="white" stroke="#666666" points="460.5,-283 286.5,-283 286.5,-231 460.5,-231 460.5,-283"/>
<text text-anchor="start" x="294.5" y="-271" font-family="Helvetica,sans-Serif" font-size="10.00">/home/runner/work/Weaver</text>
<text text-anchor="start" x="294.5" y="-260" font-family="Helvetica,sans-Serif" font-size="10.00">/Weaver/include/App/Model</text>
<text text-anchor="start" x="294.5" y="-249" font-family="Helvetica,sans-Serif" font-size="10.00">/IBM/Landscape/Map/SpatialTree</text>
<text text-anchor="middle" x="373.5" y="-238" font-family="Helvetica,sans-Serif" font-size="10.00">/TerrainCells/RootTerrainCell.h</text>
</a>
</g>
</g>
<!-- Node4&#45;&gt;Node5 -->
<g id="edge4_Node000004_Node000005" class="edge">
<title>Node4&#45;&gt;Node5</title>
<g id="a_edge4_Node000004_Node000005"><a xlink:title=" ">
<path fill="none" stroke="#63b8ff" d="M345.86,-309.68C350.59,-300.82 355.61,-291.45 360.04,-283.16"/>
<polygon fill="#63b8ff" stroke="#63b8ff" points="342.68,-308.19 341.05,-318.66 348.86,-311.5 342.68,-308.19"/>
</a>
</g>
</g>
<!-- Node6 -->
<g id="Node000006" class="node">
<title>Node6</title>
<g id="a_Node000006"><a xlink:href="SpatialTree_8h.html" target="_top" xlink:title="Defines the SpatialTree class, a spatially subdivided map implementation.">
<polygon fill="white" stroke="#666666" points="672,-195 489,-195 489,-154 672,-154 672,-195"/>
<text text-anchor="start" x="497" y="-183" font-family="Helvetica,sans-Serif" font-size="10.00">/home/runner/work/Weaver</text>
<text text-anchor="start" x="497" y="-172" font-family="Helvetica,sans-Serif" font-size="10.00">/Weaver/include/App/Model</text>
<text text-anchor="middle" x="580.5" y="-161" font-family="Helvetica,sans-Serif" font-size="10.00">/IBM/Landscape/Map/SpatialTree.h</text>
</a>
</g>
</g>
<!-- Node5&#45;&gt;Node6 -->
<g id="edge5_Node000005_Node000006" class="edge">
<title>Node5&#45;&gt;Node6</title>
<g id="a_edge5_Node000005_Node000006"><a xlink:title=" ">
<path fill="none" stroke="#63b8ff" d="M447.44,-227.24C474.93,-216.56 505.45,-204.69 530.31,-195.02"/>
<polygon fill="#63b8ff" stroke="#63b8ff" points="445.91,-224.08 437.86,-230.97 448.45,-230.61 445.91,-224.08"/>
</a>
</g>
</g>
<!-- Node7 -->
<g id="Node000007" class="node">
<title>Node7</title>
<g id="a_Node000007"><a xlink:href="Landscape_8h.html" target="_top" xlink:title="Doxygen&#45;documented declaration of the Landscape class and related serialization helpers.">
<polygon fill="white" stroke="#666666" points="843,-118 686,-118 686,-77 843,-77 843,-118"/>
<text text-anchor="start" x="694" y="-106" font-family="Helvetica,sans-Serif" font-size="10.00">/home/runner/work/Weaver</text>
<text text-anchor="start" x="694" y="-95" font-family="Helvetica,sans-Serif" font-size="10.00">/Weaver/include/App/Model</text>
<text text-anchor="middle" x="764.5" y="-84" font-family="Helvetica,sans-Serif" font-size="10.00">/IBM/Landscape/Landscape.h</text>
</a>
</g>
</g>
<!-- Node6&#45;&gt;Node7 -->
<g id="edge6_Node000006_Node000007" class="edge">
<title>Node6&#45;&gt;Node7</title>
<g id="a_edge6_Node000006_Node000007"><a xlink:title=" ">
<path fill="none" stroke="#63b8ff" d="M637.83,-150.13C663.1,-139.83 692.47,-127.86 716.56,-118.04"/>
<polygon fill="#63b8ff" stroke="#63b8ff" points="636.3,-146.97 628.36,-153.99 638.94,-153.46 636.3,-146.97"/>
</a>
</g>
</g>
<!-- Node8 -->
<g id="Node000008" class="node">
<title>Node8</title>
<g id="a_Node000008"><a xlink:href="IBM_8h.html" target="_top" xlink:title="Definition of the IBM class, representing the core individual&#45;based model of the simulation.">
<polygon fill="white" stroke="#666666" points="540,-41 391,-41 391,0 540,0 540,-41"/>
<text text-anchor="start" x="399" y="-29" font-family="Helvetica,sans-Serif" font-size="10.00">/home/runner/work/Weaver</text>
<text text-anchor="start" x="399" y="-18" font-family="Helvetica,sans-Serif" font-size="10.00">/Weaver/include/App/Model</text>
<text text-anchor="middle" x="465.5" y="-7" font-family="Helvetica,sans-Serif" font-size="10.00">/IBM/IBM.h</text>
</a>
</g>
</g>
<!-- Node7&#45;&gt;Node8 -->
<g id="edge7_Node000007_Node000008" class="edge">
<title>Node7&#45;&gt;Node8</title>
<g id="a_edge7_Node000007_Node000008"><a xlink:title=" ">
<path fill="none" stroke="#63b8ff" d="M677.02,-74.56C633.56,-63.65 581.6,-50.62 540.05,-40.2"/>
<polygon fill="#63b8ff" stroke="#63b8ff" points="676.17,-77.95 686.72,-76.99 677.87,-71.16 676.17,-77.95"/>
</a>
</g>
</g>
<!-- Node9 -->
<g id="Node000009" class="node">
<title>Node9</title>
<g id="a_Node000009"><a xlink:href="AquaticLandscape_8h.html" target="_top" xlink:title="Defines the AquaticLandscape class for aquatic ecosystem simulations.">
<polygon fill="white" stroke="#666666" points="751.5,-41 557.5,-41 557.5,0 751.5,0 751.5,-41"/>
<text text-anchor="start" x="565.5" y="-29" font-family="Helvetica,sans-Serif" font-size="10.00">/home/runner/work/Weaver</text>
<text text-anchor="start" x="565.5" y="-18" font-family="Helvetica,sans-Serif" font-size="10.00">/Weaver/include/App/Model</text>
<text text-anchor="middle" x="654.5" y="-7" font-family="Helvetica,sans-Serif" font-size="10.00">/IBM/Landscape/AquaticLandscape.h</text>
</a>
</g>
</g>
<!-- Node7&#45;&gt;Node9 -->
<g id="edge8_Node000007_Node000009" class="edge">
<title>Node7&#45;&gt;Node9</title>
<g id="a_edge8_Node000007_Node000009"><a xlink:title=" ">
<path fill="none" stroke="#63b8ff" d="M727.24,-71.09C712.9,-61.32 696.78,-50.32 683.35,-41.17"/>
<polygon fill="#63b8ff" stroke="#63b8ff" points="725.65,-74.25 735.89,-76.99 729.6,-68.47 725.65,-74.25"/>
</a>
</g>
</g>
<!-- Node10 -->
<g id="Node000010" class="node">
<title>Node10</title>
<g id="a_Node000010"><a xlink:href="ArthropodsLandscape_8h.html" target="_top" xlink:title="Defines the ArthropodsLandscape class for arthropod&#45;specific ecosystem simulations.">
<polygon fill="white" stroke="#666666" points="979.5,-41 769.5,-41 769.5,0 979.5,0 979.5,-41"/>
<text text-anchor="start" x="777.5" y="-29" font-family="Helvetica,sans-Serif" font-size="10.00">/home/runner/work/Weaver</text>
<text text-anchor="start" x="777.5" y="-18" font-family="Helvetica,sans-Serif" font-size="10.00">/Weaver/include/App/Model</text>
<text text-anchor="middle" x="874.5" y="-7" font-family="Helvetica,sans-Serif" font-size="10.00">/IBM/Landscape/ArthropodsLandscape.h</text>
</a>
</g>
</g>
<!-- Node7&#45;&gt;Node10 -->
<g id="edge9_Node000007_Node000010" class="edge">
<title>Node7&#45;&gt;Node10</title>
<g id="a_edge9_Node000007_Node000010"><a xlink:title=" ">
<path fill="none" stroke="#63b8ff" d="M801.76,-71.09C816.1,-61.32 832.22,-50.32 845.65,-41.17"/>
<polygon fill="#63b8ff" stroke="#63b8ff" points="799.4,-68.47 793.11,-76.99 803.35,-74.25 799.4,-68.47"/>
</a>
</g>
</g>
<!-- Node11 -->
<g id="Node000011" class="node">
<title>Node11</title>
<g id="a_Node000011"><a xlink:href="DinosaursLandscape_8h.html" target="_top" xlink:title="Defines the DinosaursLandscape class for dinosaur&#45;specific ecosystem simulations.">
<polygon fill="white" stroke="#666666" points="1203.5,-41 997.5,-41 997.5,0 1203.5,0 1203.5,-41"/>
<text text-anchor="start" x="1005.5" y="-29" font-family="Helvetica,sans-Serif" font-size="10.00">/home/runner/work/Weaver</text>
<text text-anchor="start" x="1005.5" y="-18" font-family="Helvetica,sans-Serif" font-size="10.00">/Weaver/include/App/Model</text>
<text text-anchor="middle" x="1100.5" y="-7" font-family="Helvetica,sans-Serif" font-size="10.00">/IBM/Landscape/DinosaursLandscape.h</text>
</a>
</g>
</g>
<!-- Node7&#45;&gt;Node11 -->
<g id="edge10_Node000007_Node000011" class="edge">
<title>Node7&#45;&gt;Node11</title>
<g id="a_edge10_Node000007_Node000011"><a xlink:title=" ">
<path fill="none" stroke="#63b8ff" d="M853.31,-76.68C902.69,-65.66 963.9,-51.99 1013.06,-41.02"/>
<polygon fill="#63b8ff" stroke="#63b8ff" points="852.27,-73.32 843.28,-78.92 853.8,-80.15 852.27,-73.32"/>
</a>
</g>
</g>
<!-- Node12&#45;&gt;Node4 -->
<g id="edge12_Node000012_Node000004" class="edge">
<title>Node12&#45;&gt;Node4</title>
<g id="a_edge12_Node000012_Node000004"><a xlink:title=" ">
<path fill="none" stroke="#63b8ff" d="M156.07,-486.87C175.88,-462.39 203.4,-430.95 231.5,-407 246.98,-393.81 265.54,-381.35 282.2,-371.18"/>
<polygon fill="#63b8ff" stroke="#63b8ff" points="153.18,-484.88 149.66,-494.88 158.64,-489.26 153.18,-484.88"/>
</a>
</g>
</g>
<!-- Node13&#45;&gt;Node3 -->
<g id="edge14_Node000013_Node000003" class="edge">
<title>Node13&#45;&gt;Node3</title>
<g id="a_edge14_Node000013_Node000003"><a xlink:title=" ">
<path fill="none" stroke="#63b8ff" d="M328.69,-873.93C281.76,-839.48 212.25,-788.45 168.17,-756.09"/>
<polygon fill="#63b8ff" stroke="#63b8ff" points="326.76,-876.85 336.89,-879.95 330.9,-871.21 326.76,-876.85"/>
</a>
</g>
</g>
<!-- Node14 -->
<g id="Node000014" class="node">
<title>Node14</title>
<g id="a_Node000014"><a xlink:href="PatchApplicator_8h.html" target="_top" xlink:title="Defines the PatchApplicator class responsible for applying patches (moisture, resource,...">
<polygon fill="white" stroke="#666666" points="484.5,-750.5 302.5,-750.5 302.5,-698.5 484.5,-698.5 484.5,-750.5"/>
<text text-anchor="start" x="310.5" y="-738.5" font-family="Helvetica,sans-Serif" font-size="10.00">/home/runner/work/Weaver</text>
<text text-anchor="start" x="310.5" y="-727.5" font-family="Helvetica,sans-Serif" font-size="10.00">/Weaver/include/App/Model</text>
<text text-anchor="start" x="310.5" y="-716.5" font-family="Helvetica,sans-Serif" font-size="10.00">/IBM/Landscape/Map/TerrainCells</text>
<text text-anchor="middle" x="393.5" y="-705.5" font-family="Helvetica,sans-Serif" font-size="10.00">/PatchApplicator/PatchApplicator.h</text>
</a>
</g>
</g>
<!-- Node13&#45;&gt;Node14 -->
<g id="edge15_Node000013_Node000014" class="edge">
<title>Node13&#45;&gt;Node14</title>
<g id="a_edge15_Node000013_Node000014"><a xlink:title=" ">
<path fill="none" stroke="#63b8ff" d="M381.81,-869.68C384.76,-833.35 388.97,-781.35 391.45,-750.74"/>
<polygon fill="#63b8ff" stroke="#63b8ff" points="378.3,-869.7 380.98,-879.95 385.27,-870.27 378.3,-869.7"/>
</a>
</g>
</g>
<!-- Node21 -->
<g id="Node000021" class="node">
<title>Node21</title>
<g id="a_Node000021"><a xlink:href="CellResource_8h.html" target="_top" xlink:title="Implementation of a resource cell in a terrain.">
<polygon fill="white" stroke="#666666" points="643.5,-844 419.5,-844 419.5,-792 643.5,-792 643.5,-844"/>
<text text-anchor="start" x="427.5" y="-832" font-family="Helvetica,sans-Serif" font-size="10.00">/home/runner/work/Weaver</text>
<text text-anchor="start" x="427.5" y="-821" font-family="Helvetica,sans-Serif" font-size="10.00">/Weaver/include/App/Model</text>
<text text-anchor="start" x="427.5" y="-810" font-family="Helvetica,sans-Serif" font-size="10.00">/IBM/Landscape/Map/TerrainCells</text>
<text text-anchor="middle" x="531.5" y="-799" font-family="Helvetica,sans-Serif" font-size="10.00">/PatchApplicator/Resources/CellResource.h</text>
</a>
</g>
</g>
<!-- Node13&#45;&gt;Node21 -->
<g id="edge32_Node000013_Node000021" class="edge">
<title>Node13&#45;&gt;Node21</title>
<g id="a_edge32_Node000013_Node000021"><a xlink:title=" ">
<path fill="none" stroke="#63b8ff" d="M438.67,-874.51C455.74,-864.31 473.94,-853.42 489.67,-844.02"/>
<polygon fill="#63b8ff" stroke="#63b8ff" points="436.66,-871.64 429.87,-879.78 440.25,-877.65 436.66,-871.64"/>
</a>
</g>
</g>
<!-- Node15 -->
<g id="Node000015" class="node">
<title>Node15</title>
<g id="a_Node000015"><a xlink:href="SpatialTreePatchApplicator_8h.html" target="_top" xlink:title="Defines the SpatialTreePatchApplicator class for applying patches in a spatial tree of terrain cells.">
<polygon fill="white" stroke="#666666" points="443.5,-657 269.5,-657 269.5,-594 443.5,-594 443.5,-657"/>
<text text-anchor="start" x="277.5" y="-645" font-family="Helvetica,sans-Serif" font-size="10.00">/home/runner/work/Weaver</text>
<text text-anchor="start" x="277.5" y="-634" font-family="Helvetica,sans-Serif" font-size="10.00">/Weaver/include/App/Model</text>
<text text-anchor="start" x="277.5" y="-623" font-family="Helvetica,sans-Serif" font-size="10.00">/IBM/Landscape/Map/SpatialTree</text>
<text text-anchor="start" x="277.5" y="-612" font-family="Helvetica,sans-Serif" font-size="10.00">/TerrainCells/PatchApplicator</text>
<text text-anchor="middle" x="356.5" y="-601" font-family="Helvetica,sans-Serif" font-size="10.00">/SpatialTreePatchApplicator.h</text>
</a>
</g>
</g>
<!-- Node14&#45;&gt;Node15 -->
<g id="edge16_Node000014_Node000015" class="edge">
<title>Node14&#45;&gt;Node15</title>
<g id="a_edge16_Node000014_Node000015"><a xlink:title=" ">
<path fill="none" stroke="#63b8ff" d="M380.23,-688.72C376.3,-678.4 372.02,-667.18 368.19,-657.14"/>
<polygon fill="#63b8ff" stroke="#63b8ff" points="377.04,-690.17 383.88,-698.27 383.58,-687.68 377.04,-690.17"/>
</a>
</g>
</g>
<!-- Node19 -->
<g id="Node000019" class="node">
<title>Node19</title>
<g id="a_Node000019"><a xlink:href="TerrainCell_8h.html" target="_top" xlink:title="Defines the TerrainCell class representing a cell in the landscape.">
<polygon fill="white" stroke="#666666" points="733,-651.5 556,-651.5 556,-599.5 733,-599.5 733,-651.5"/>
<text text-anchor="start" x="564" y="-639.5" font-family="Helvetica,sans-Serif" font-size="10.00">/home/runner/work/Weaver</text>
<text text-anchor="start" x="564" y="-628.5" font-family="Helvetica,sans-Serif" font-size="10.00">/Weaver/include/App/Model</text>
<text text-anchor="start" x="564" y="-617.5" font-family="Helvetica,sans-Serif" font-size="10.00">/IBM/Landscape/Map/TerrainCells</text>
<text text-anchor="middle" x="644.5" y="-606.5" font-family="Helvetica,sans-Serif" font-size="10.00">/TerrainCell.h</text>
</a>
</g>
</g>
<!-- Node14&#45;&gt;Node19 -->
<g id="edge25_Node000014_Node000019" class="edge">
<title>Node14&#45;&gt;Node19</title>
<g id="a_edge25_Node000014_Node000019"><a xlink:title=" ">
<path fill="none" stroke="#63b8ff" d="M467.83,-694.77C503.4,-681.03 545.58,-664.73 579.81,-651.5"/>
<polygon fill="#63b8ff" stroke="#63b8ff" points="466.53,-691.52 458.47,-698.39 469.05,-698.05 466.53,-691.52"/>
</a>
</g>
</g>
<!-- Node15&#45;&gt;Node12 -->
<g id="edge17_Node000015_Node000012" class="edge">
<title>Node15&#45;&gt;Node12</title>
<g id="a_edge17_Node000015_Node000012"><a xlink:title=" ">
<path fill="none" stroke="#63b8ff" d="M274.69,-590C249.99,-579.58 223.04,-568.22 198.99,-558.07"/>
<polygon fill="#63b8ff" stroke="#63b8ff" points="273.47,-593.28 284.04,-593.94 276.19,-586.83 273.47,-593.28"/>
</a>
</g>
</g>
<!-- Node16 -->
<g id="Node000016" class="node">
<title>Node16</title>
<g id="a_Node000016"><a xlink:href="LeafPatchApplicator_8h.html" target="_top" xlink:title="Defines the LeafPatchApplicator class for applying patches to leaf terrain cells in a spatial tree.">
<polygon fill="white" stroke="#666666" points="405.5,-558 231.5,-558 231.5,-495 405.5,-495 405.5,-558"/>
<text text-anchor="start" x="239.5" y="-546" font-family="Helvetica,sans-Serif" font-size="10.00">/home/runner/work/Weaver</text>
<text text-anchor="start" x="239.5" y="-535" font-family="Helvetica,sans-Serif" font-size="10.00">/Weaver/include/App/Model</text>
<text text-anchor="start" x="239.5" y="-524" font-family="Helvetica,sans-Serif" font-size="10.00">/IBM/Landscape/Map/SpatialTree</text>
<text text-anchor="start" x="239.5" y="-513" font-family="Helvetica,sans-Serif" font-size="10.00">/TerrainCells/PatchApplicator</text>
<text text-anchor="middle" x="318.5" y="-502" font-family="Helvetica,sans-Serif" font-size="10.00">/LeafPatchApplicator.h</text>
</a>
</g>
</g>
<!-- Node15&#45;&gt;Node16 -->
<g id="edge18_Node000015_Node000016" class="edge">
<title>Node15&#45;&gt;Node16</title>
<g id="a_edge18_Node000015_Node000016"><a xlink:title=" ">
<path fill="none" stroke="#63b8ff" d="M340.73,-584.24C337.34,-575.58 333.8,-566.56 330.58,-558.32"/>
<polygon fill="#63b8ff" stroke="#63b8ff" points="337.57,-585.77 344.48,-593.81 344.09,-583.22 337.57,-585.77"/>
</a>
</g>
</g>
<!-- Node18 -->
<g id="Node000018" class="node">
<title>Node18</title>
<g id="a_Node000018"><a xlink:href="SpatialTreeTerrainCell_8h.html" target="_top" xlink:title="Spatial tree implementation of a terrain cell.">
<polygon fill="white" stroke="#666666" points="617.5,-552.5 423.5,-552.5 423.5,-500.5 617.5,-500.5 617.5,-552.5"/>
<text text-anchor="start" x="431.5" y="-540.5" font-family="Helvetica,sans-Serif" font-size="10.00">/home/runner/work/Weaver</text>
<text text-anchor="start" x="431.5" y="-529.5" font-family="Helvetica,sans-Serif" font-size="10.00">/Weaver/include/App/Model</text>
<text text-anchor="start" x="431.5" y="-518.5" font-family="Helvetica,sans-Serif" font-size="10.00">/IBM/Landscape/Map/SpatialTree</text>
<text text-anchor="middle" x="520.5" y="-507.5" font-family="Helvetica,sans-Serif" font-size="10.00">/TerrainCells/SpatialTreeTerrainCell.h</text>
</a>
</g>
</g>
<!-- Node15&#45;&gt;Node18 -->
<g id="edge21_Node000015_Node000018" class="edge">
<title>Node15&#45;&gt;Node18</title>
<g id="a_edge21_Node000015_Node000018"><a xlink:title=" ">
<path fill="none" stroke="#63b8ff" d="M417.22,-588.59C437.42,-576.64 459.48,-563.59 478,-552.64"/>
<polygon fill="#63b8ff" stroke="#63b8ff" points="415.22,-585.71 408.39,-593.81 418.78,-591.73 415.22,-585.71"/>
</a>
</g>
</g>
<!-- Node17 -->
<g id="Node000017" class="node">
<title>Node17</title>
<g id="a_Node000017"><a xlink:href="LeafTerrainCell_8h.html" target="_top" xlink:title="Leaf node implementation of a spatial tree terrain cell.">
<polygon fill="white" stroke="#666666" points="414.5,-459 240.5,-459 240.5,-407 414.5,-407 414.5,-459"/>
<text text-anchor="start" x="248.5" y="-447" font-family="Helvetica,sans-Serif" font-size="10.00">/home/runner/work/Weaver</text>
<text text-anchor="start" x="248.5" y="-436" font-family="Helvetica,sans-Serif" font-size="10.00">/Weaver/include/App/Model</text>
<text text-anchor="start" x="248.5" y="-425" font-family="Helvetica,sans-Serif" font-size="10.00">/IBM/Landscape/Map/SpatialTree</text>
<text text-anchor="middle" x="327.5" y="-414" font-family="Helvetica,sans-Serif" font-size="10.00">/TerrainCells/LeafTerrainCell.h</text>
</a>
</g>
</g>
<!-- Node16&#45;&gt;Node17 -->
<g id="edge19_Node000016_Node000017" class="edge">
<title>Node16&#45;&gt;Node17</title>
<g id="a_edge19_Node000016_Node000017"><a xlink:title=" ">
<path fill="none" stroke="#63b8ff" d="M322.51,-484.7C323.37,-475.95 324.26,-466.96 325.04,-459.02"/>
<polygon fill="#63b8ff" stroke="#63b8ff" points="319.02,-484.48 321.52,-494.78 325.98,-485.17 319.02,-484.48"/>
</a>
</g>
</g>
<!-- Node17&#45;&gt;Node4 -->
<g id="edge20_Node000017_Node000004" class="edge">
<title>Node17&#45;&gt;Node4</title>
<g id="a_edge20_Node000017_Node000004"><a xlink:title=" ">
<path fill="none" stroke="#63b8ff" d="M327.5,-396.56C327.5,-388.04 327.5,-379.1 327.5,-371.16"/>
<polygon fill="#63b8ff" stroke="#63b8ff" points="324,-396.66 327.5,-406.66 331,-396.66 324,-396.66"/>
</a>
</g>
</g>
<!-- Node18&#45;&gt;Node4 -->
<g id="edge23_Node000018_Node000004" class="edge">
<title>Node18&#45;&gt;Node4</title>
<g id="a_edge23_Node000018_Node000004"><a xlink:title=" ">
<path fill="none" stroke="#63b8ff" d="M497.74,-492.23C479.5,-467.03 452.27,-432.51 423.5,-407 408.43,-393.64 390.13,-381.24 373.56,-371.16"/>
<polygon fill="#63b8ff" stroke="#63b8ff" points="494.91,-494.29 503.57,-500.39 500.61,-490.22 494.91,-494.29"/>
</a>
</g>
</g>
<!-- Node18&#45;&gt;Node6 -->
<g id="edge22_Node000018_Node000006" class="edge">
<title>Node18&#45;&gt;Node6</title>
<g id="a_edge22_Node000018_Node000006"><a xlink:title=" ">
<path fill="none" stroke="#63b8ff" d="M524.95,-490.13C532.18,-434.64 547.57,-323.89 566.5,-231 568.94,-219.02 572.27,-205.74 575.07,-195.18"/>
<polygon fill="#63b8ff" stroke="#63b8ff" points="521.47,-489.78 523.66,-500.15 528.41,-490.68 521.47,-489.78"/>
</a>
</g>
</g>
<!-- Node18&#45;&gt;Node17 -->
<g id="edge24_Node000018_Node000017" class="edge">
<title>Node18&#45;&gt;Node17</title>
<g id="a_edge24_Node000018_Node000017"><a xlink:title=" ">
<path fill="none" stroke="#63b8ff" d="M458.67,-496.19C433.5,-484.25 404.7,-470.6 380.51,-459.13"/>
<polygon fill="#63b8ff" stroke="#63b8ff" points="457.23,-499.38 467.76,-500.5 460.23,-493.05 457.23,-499.38"/>
</a>
</g>
</g>
<!-- Node19&#45;&gt;Node6 -->
<g id="edge30_Node000019_Node000006" class="edge">
<title>Node19&#45;&gt;Node6</title>
<g id="a_edge30_Node000019_Node000006"><a xlink:title=" ">
<path fill="none" stroke="#63b8ff" d="M639.62,-589.04C636.02,-563.01 631,-526.8 626.5,-495 610.45,-381.53 590.69,-245.46 583.39,-195.31"/>
<polygon fill="#63b8ff" stroke="#63b8ff" points="636.18,-589.76 641.02,-599.18 643.12,-588.8 636.18,-589.76"/>
</a>
</g>
</g>
<!-- Node19&#45;&gt;Node7 -->
<g id="edge26_Node000019_Node000007" class="edge">
<title>Node19&#45;&gt;Node7</title>
<g id="a_edge26_Node000019_Node000007"><a xlink:title=" ">
<path fill="none" stroke="#63b8ff" d="M688.2,-593.08C729.93,-559.06 786.5,-500.65 786.5,-434 786.5,-434 786.5,-434 786.5,-256 786.5,-206.03 775.5,-147.99 769.06,-118.27"/>
<polygon fill="#63b8ff" stroke="#63b8ff" points="685.97,-590.38 680.33,-599.35 690.33,-595.85 685.97,-590.38"/>
</a>
</g>
</g>
<!-- Node19&#45;&gt;Node18 -->
<g id="edge31_Node000019_Node000018" class="edge">
<title>Node19&#45;&gt;Node18</title>
<g id="a_edge31_Node000019_Node000018"><a xlink:title=" ">
<path fill="none" stroke="#63b8ff" d="M604.25,-593.01C587.51,-579.92 568.36,-564.94 552.59,-552.61"/>
<polygon fill="#63b8ff" stroke="#63b8ff" points="602.21,-595.86 612.24,-599.27 606.52,-590.35 602.21,-595.86"/>
</a>
</g>
</g>
<!-- Node20 -->
<g id="Node000020" class="node">
<title>Node20</title>
<g id="a_Node000020"><a xlink:href="Map_8h.html" target="_top" xlink:title="Defines the Map class for spatial organization of landscapes.">
<polygon fill="white" stroke="#666666" points="758.5,-277.5 608.5,-277.5 608.5,-236.5 758.5,-236.5 758.5,-277.5"/>
<text text-anchor="start" x="616.5" y="-265.5" font-family="Helvetica,sans-Serif" font-size="10.00">/home/runner/work/Weaver</text>
<text text-anchor="start" x="616.5" y="-254.5" font-family="Helvetica,sans-Serif" font-size="10.00">/Weaver/include/App/Model</text>
<text text-anchor="middle" x="683.5" y="-243.5" font-family="Helvetica,sans-Serif" font-size="10.00">/IBM/Landscape/Map/Map.h</text>
</a>
</g>
</g>
<!-- Node19&#45;&gt;Node20 -->
<g id="edge27_Node000019_Node000020" class="edge">
<title>Node19&#45;&gt;Node20</title>
<g id="a_edge27_Node000019_Node000020"><a xlink:title=" ">
<path fill="none" stroke="#63b8ff" d="M653.34,-589.65C655.65,-579.5 657.93,-568.36 659.5,-558 675.44,-453.14 681.19,-325.94 682.89,-277.77"/>
<polygon fill="#63b8ff" stroke="#63b8ff" points="649.93,-588.86 651.05,-599.4 656.74,-590.46 649.93,-588.86"/>
</a>
</g>
</g>
<!-- Node20&#45;&gt;Node6 -->
<g id="edge29_Node000020_Node000006" class="edge">
<title>Node20&#45;&gt;Node6</title>
<g id="a_edge29_Node000020_Node000006"><a xlink:title=" ">
<path fill="none" stroke="#63b8ff" d="M650.12,-229.91C635.72,-218.65 619.15,-205.71 605.79,-195.27"/>
<polygon fill="#63b8ff" stroke="#63b8ff" points="648.27,-232.91 658.3,-236.31 652.58,-227.39 648.27,-232.91"/>
</a>
</g>
</g>
<!-- Node20&#45;&gt;Node7 -->
<g id="edge28_Node000020_Node000007" class="edge">
<title>Node20&#45;&gt;Node7</title>
<g id="a_edge28_Node000020_Node000007"><a xlink:title=" ">
<path fill="none" stroke="#63b8ff" d="M698.31,-227.21C714.54,-195.65 740.14,-145.86 754.28,-118.38"/>
<polygon fill="#63b8ff" stroke="#63b8ff" points="695.06,-225.88 693.59,-236.37 701.28,-229.08 695.06,-225.88"/>
</a>
</g>
</g>
<!-- Node21&#45;&gt;Node7 -->
<g id="edge33_Node000021_Node000007" class="edge">
<title>Node21&#45;&gt;Node7</title>
<g id="a_edge33_Node000021_Node000007"><a xlink:title=" ">
<path fill="none" stroke="#63b8ff" d="M653.28,-788.83C733.77,-762.16 824.5,-712.94 824.5,-626.5 824.5,-626.5 824.5,-626.5 824.5,-256 824.5,-203.62 795.17,-147.49 777.52,-118.46"/>
<polygon fill="#63b8ff" stroke="#63b8ff" points="651.97,-785.57 643.52,-791.97 654.12,-792.24 651.97,-785.57"/>
</a>
</g>
</g>
<!-- Node21&#45;&gt;Node14 -->
<g id="edge35_Node000021_Node000014" class="edge">
<title>Node21&#45;&gt;Node14</title>
<g id="a_edge35_Node000021_Node000014"><a xlink:title=" ">
<path fill="none" stroke="#63b8ff" d="M485.42,-786.45C467.96,-774.87 448.29,-761.83 431.64,-750.79"/>
<polygon fill="#63b8ff" stroke="#63b8ff" points="483.52,-789.39 493.79,-792 487.39,-783.55 483.52,-789.39"/>
</a>
</g>
</g>
<!-- Node21&#45;&gt;Node16 -->
<g id="edge34_Node000021_Node000016" class="edge">
<title>Node21&#45;&gt;Node16</title>
<g id="a_edge34_Node000021_Node000016"><a xlink:title=" ">
<path fill="none" stroke="#63b8ff" d="M527.81,-781.96C521,-733.86 502.26,-647.27 452.5,-594 438.85,-579.39 421.29,-567.55 403.4,-558.14"/>
<polygon fill="#63b8ff" stroke="#63b8ff" points="524.34,-782.45 529.12,-791.9 531.28,-781.53 524.34,-782.45"/>
</a>
</g>
</g>
<!-- Node21&#45;&gt;Node19 -->
<g id="edge36_Node000021_Node000019" class="edge">
<title>Node21&#45;&gt;Node19</title>
<g id="a_edge36_Node000021_Node000019"><a xlink:title=" ">
<path fill="none" stroke="#63b8ff" d="M551.62,-783.09C573.99,-745.37 609.61,-685.32 629.61,-651.6"/>
<polygon fill="#63b8ff" stroke="#63b8ff" points="548.6,-781.32 546.51,-791.7 554.62,-784.89 548.6,-781.32"/>
</a>
</g>
</g>
<!-- Node22&#45;&gt;Node21 -->
<g id="edge38_Node000022_Node000021" class="edge">
<title>Node22&#45;&gt;Node21</title>
<g id="a_edge38_Node000022_Node000021"><a xlink:title=" ">
<path fill="none" stroke="#63b8ff" d="M569.3,-871.41C562.61,-862.13 555.64,-852.47 549.55,-844.02"/>
<polygon fill="#63b8ff" stroke="#63b8ff" points="566.65,-873.71 575.34,-879.78 572.33,-869.62 566.65,-873.71"/>
</a>
</g>
</g>
</g>
</svg>
