<?xml version="1.0" encoding="UTF-8" standalone="no"?>
<!DOCTYPE svg PUBLIC "-//W3C//DTD SVG 1.1//EN"
 "http://www.w3.org/Graphics/SVG/1.1/DTD/svg11.dtd">
<!-- Generated by graphviz version 2.43.0 (0)
 -->
<!-- Title: /home/runner/work/Weaver/Weaver/include/App/Model/IBM/Landscape/LivingBeings/Animals/Genetics/Chromosome.h Pages: 1 -->
<!--zoomable 401 -->

<svg id="main" version="1.1" xmlns="http://www.w3.org/2000/svg" xmlns:xlink="http://www.w3.org/1999/xlink" xml:space="preserve" onload="init(evt)">
<style type="text/css"><![CDATA[
.node, .edge {opacity: 0.7;}
.node.selected, .edge.selected {opacity: 1;}
.edge:hover path { stroke: red; }
.edge:hover polygon { stroke: red; fill: red; }
]]></style>

<defs>
  <circle id="rim" cx="0" cy="0" r="7"/>
  <circle id="rim2" cx="0" cy="0" r="3.5"/>
  <g id="zoomPlus">
    <use xlink:href="#rim" fill="#404040"><set attributeName="fill" to="#808080" begin="zoomplus.mouseover" end="zoomplus.mouseout"/></use>
    <path d="M-4,0h8M0,-4v8" fill="none" stroke="white" stroke-width="1.5" pointer-events="none"/>
  </g>
  <g id="zoomMin">
    <use xlink:href="#rim" fill="#404040"><set attributeName="fill" to="#808080" begin="zoomminus.mouseover" end="zoomminus.mouseout"/></use>
    <path d="M-4,0h8" fill="none" stroke="white" stroke-width="1.5" pointer-events="none"/>
  </g>
  <g id="arrowUp" transform="translate(30 24)">
    <use xlink:href="#rim"/>
    <path pointer-events="none" fill="none" stroke="white" stroke-width="1.5" d="M0,-3.0v7 M-2.5,-0.5L0,-3.0L2.5,-0.5"/>
  </g>
  <g id="arrowRight" transform="rotate(90) translate(36 -43)">
    <use xlink:href="#rim"/>
    <path pointer-events="none" fill="none" stroke="white" stroke-width="1.5" d="M0,-3.0v7 M-2.5,-0.5L0,-3.0L2.5,-0.5"/>
  </g>
  <g id="arrowDown" transform="rotate(180) translate(-30 -48)">
    <use xlink:href="#rim"/>
    <path pointer-events="none" fill="none" stroke="white" stroke-width="1.5" d="M0,-3.0v7 M-2.5,-0.5L0,-3.0L2.5,-0.5"/>
  </g>
  <g id="arrowLeft" transform="rotate(270) translate(-36 17)">
    <use xlink:href="#rim"/>
    <path pointer-events="none" fill="none" stroke="white" stroke-width="1.5" d="M0,-3.0v7 M-2.5,-0.5L0,-3.0L2.5,-0.5"/>
  </g>
  <g id="resetDef">
    <use xlink:href="#rim2" fill="#404040"><set attributeName="fill" to="#808080" begin="reset.mouseover" end="reset.mouseout"/></use>
  </g>
</defs>
<script type="application/ecmascript">
var viewWidth = 1439;
var viewHeight = 401;
var sectionId = 'dynsection-0';
</script>
<script type="application/ecmascript" xlink:href="svg.min.js"/>
<svg id="graph" class="graph">
<g id="viewport">
<title>/home/runner/work/Weaver/Weaver/include/App/Model/IBM/Landscape/LivingBeings/Animals/Genetics/Chromosome.h</title>
<!-- Node1 -->
<g id="Node000001" class="node">
<title>Node1</title>
<g id="a_Node000001"><a xlink:title="Defines the Chromosome class used in the genetic model.">
<polygon fill="#999999" stroke="#666666" points="519.5,-393 337.5,-393 337.5,-341 519.5,-341 519.5,-393"/>
<text text-anchor="start" x="345.5" y="-381" font-family="Helvetica,sans-Serif" font-size="10.00">/home/runner/work/Weaver</text>
<text text-anchor="start" x="345.5" y="-370" font-family="Helvetica,sans-Serif" font-size="10.00">/Weaver/include/App/Model</text>
<text text-anchor="start" x="345.5" y="-359" font-family="Helvetica,sans-Serif" font-size="10.00">/IBM/Landscape/LivingBeings</text>
<text text-anchor="middle" x="428.5" y="-348" font-family="Helvetica,sans-Serif" font-size="10.00">/Animals/Genetics/Chromosome.h</text>
</a>
</g>
</g>
<!-- Node2 -->
<g id="Node000002" class="node">
<title>Node2</title>
<g id="a_Node000002"><a xlink:title=" ">
<polygon fill="#e0e0e0" stroke="#999999" points="466,-228 359,-228 359,-198 466,-198 466,-228"/>
<text text-anchor="start" x="367" y="-216" font-family="Helvetica,sans-Serif" font-size="10.00">boost/serialization</text>
<text text-anchor="middle" x="412.5" y="-205" font-family="Helvetica,sans-Serif" font-size="10.00">/export.hpp</text>
</a>
</g>
</g>
<!-- Node1&#45;&gt;Node2 -->
<g id="edge1_Node000001_Node000002" class="edge">
<title>Node1&#45;&gt;Node2</title>
<g id="a_edge1_Node000001_Node000002"><a xlink:title=" ">
<path fill="none" stroke="#63b8ff" d="M425.86,-340.9C422.86,-312.46 418.02,-266.43 415.06,-238.32"/>
<polygon fill="#63b8ff" stroke="#63b8ff" points="418.52,-237.74 413.99,-228.16 411.56,-238.47 418.52,-237.74"/>
</a>
</g>
</g>
<!-- Node3 -->
<g id="Node000003" class="node">
<title>Node3</title>
<g id="a_Node000003"><a xlink:title=" ">
<polygon fill="#e0e0e0" stroke="#999999" points="400,-299.5 293,-299.5 293,-269.5 400,-269.5 400,-299.5"/>
<text text-anchor="start" x="301" y="-287.5" font-family="Helvetica,sans-Serif" font-size="10.00">boost/serialization</text>
<text text-anchor="middle" x="346.5" y="-276.5" font-family="Helvetica,sans-Serif" font-size="10.00">/vector.hpp</text>
</a>
</g>
</g>
<!-- Node1&#45;&gt;Node3 -->
<g id="edge2_Node000001_Node000003" class="edge">
<title>Node1&#45;&gt;Node3</title>
<g id="a_edge2_Node000001_Node000003"><a xlink:title=" ">
<path fill="none" stroke="#63b8ff" d="M403,-340.97C391.96,-330.13 379.15,-317.55 368.52,-307.12"/>
<polygon fill="#63b8ff" stroke="#63b8ff" points="370.82,-304.47 361.23,-299.96 365.91,-309.46 370.82,-304.47"/>
</a>
</g>
</g>
<!-- Node4 -->
<g id="Node000004" class="node">
<title>Node4</title>
<g id="a_Node000004"><a xlink:title=" ">
<polygon fill="#e0e0e0" stroke="#999999" points="47,-156.5 0,-156.5 0,-137.5 47,-137.5 47,-156.5"/>
<text text-anchor="middle" x="23.5" y="-144.5" font-family="Helvetica,sans-Serif" font-size="10.00">vector</text>
</a>
</g>
</g>
<!-- Node1&#45;&gt;Node4 -->
<g id="edge3_Node000001_Node000004" class="edge">
<title>Node1&#45;&gt;Node4</title>
<g id="a_edge3_Node000001_Node000004"><a xlink:title=" ">
<path fill="none" stroke="#63b8ff" d="M363.34,-340.94C338.04,-330.6 309.06,-318.01 283.5,-305 191.36,-258.11 87.86,-190.96 44.44,-162.08"/>
<polygon fill="#63b8ff" stroke="#63b8ff" points="46.37,-159.16 36.11,-156.52 42.48,-164.98 46.37,-159.16"/>
</a>
</g>
</g>
<!-- Node5 -->
<g id="Node000005" class="node">
<title>Node5</title>
<g id="a_Node000005"><a xlink:title=" ">
<polygon fill="#e0e0e0" stroke="#999999" points="1327,-90.5 1270,-90.5 1270,-71.5 1327,-71.5 1327,-90.5"/>
<text text-anchor="middle" x="1298.5" y="-78.5" font-family="Helvetica,sans-Serif" font-size="10.00">ostream</text>
</a>
</g>
</g>
<!-- Node1&#45;&gt;Node5 -->
<g id="edge4_Node000001_Node000005" class="edge">
<title>Node1&#45;&gt;Node5</title>
<g id="a_edge4_Node000001_Node000005"><a xlink:title=" ">
<path fill="none" stroke="#63b8ff" d="M519.61,-351.55C645.52,-330.45 879.1,-287.16 1072.5,-228 1147.63,-205.02 1173.81,-209.36 1236.5,-162 1259.21,-144.84 1278.01,-117.36 1288.75,-99.5"/>
<polygon fill="#63b8ff" stroke="#63b8ff" points="1291.87,-101.09 1293.86,-90.69 1285.81,-97.58 1291.87,-101.09"/>
</a>
</g>
</g>
<!-- Node6 -->
<g id="Node000006" class="node">
<title>Node6</title>
<g id="a_Node000006"><a xlink:href="Allele_8h.html" target="_top" xlink:title="Defines the Allele class, representing a genetic allele with a unique identifier, a numerical value,...">
<polygon fill="white" stroke="#666666" points="610,-305 465,-305 465,-264 610,-264 610,-305"/>
<text text-anchor="start" x="473" y="-293" font-family="Helvetica,sans-Serif" font-size="10.00">App/Model/IBM/Landscape</text>
<text text-anchor="start" x="473" y="-282" font-family="Helvetica,sans-Serif" font-size="10.00">/LivingBeings/Animals</text>
<text text-anchor="middle" x="537.5" y="-271" font-family="Helvetica,sans-Serif" font-size="10.00">/Species/Genetics/Allele.h</text>
</a>
</g>
</g>
<!-- Node1&#45;&gt;Node6 -->
<g id="edge5_Node000001_Node000006" class="edge">
<title>Node1&#45;&gt;Node6</title>
<g id="a_edge5_Node000001_Node000006"><a xlink:title=" ">
<path fill="none" stroke="#63b8ff" d="M462.39,-340.97C475.21,-331.51 489.81,-320.72 502.7,-311.2"/>
<polygon fill="#63b8ff" stroke="#63b8ff" points="504.93,-313.9 510.9,-305.15 500.78,-308.27 504.93,-313.9"/>
</a>
</g>
</g>
<!-- Node6&#45;&gt;Node2 -->
<g id="edge6_Node000006_Node000002" class="edge">
<title>Node6&#45;&gt;Node2</title>
<g id="a_edge6_Node000006_Node000002"><a xlink:title=" ">
<path fill="none" stroke="#63b8ff" d="M502.35,-263.96C485.04,-254.33 464.26,-242.78 447.04,-233.2"/>
<polygon fill="#63b8ff" stroke="#63b8ff" points="448.32,-229.91 437.88,-228.11 444.92,-236.03 448.32,-229.91"/>
</a>
</g>
</g>
<!-- Node6&#45;&gt;Node5 -->
<g id="edge7_Node000006_Node000005" class="edge">
<title>Node6&#45;&gt;Node5</title>
<g id="a_edge7_Node000006_Node000005"><a xlink:title=" ">
<path fill="none" stroke="#63b8ff" d="M610.21,-281.89C736.15,-276.62 1000.53,-254.42 1200.5,-162 1234.19,-146.43 1266.11,-116.55 1283.91,-98.05"/>
<polygon fill="#63b8ff" stroke="#63b8ff" points="1286.55,-100.34 1290.85,-90.66 1281.45,-95.55 1286.55,-100.34"/>
</a>
</g>
</g>
<!-- Node7 -->
<g id="Node000007" class="node">
<title>Node7</title>
<g id="a_Node000007"><a xlink:href="Random_8h.html" target="_top" xlink:title="Defines the Random class that provides various random number generation utilities.">
<polygon fill="white" stroke="#666666" points="607,-228 484,-228 484,-198 607,-198 607,-228"/>
<text text-anchor="start" x="492" y="-216" font-family="Helvetica,sans-Serif" font-size="10.00">App/Model/IBM/Maths</text>
<text text-anchor="middle" x="545.5" y="-205" font-family="Helvetica,sans-Serif" font-size="10.00">/Random.h</text>
</a>
</g>
</g>
<!-- Node6&#45;&gt;Node7 -->
<g id="edge8_Node000006_Node000007" class="edge">
<title>Node6&#45;&gt;Node7</title>
<g id="a_edge8_Node000006_Node000007"><a xlink:title=" ">
<path fill="none" stroke="#63b8ff" d="M539.77,-263.77C540.69,-255.76 541.77,-246.42 542.74,-238.02"/>
<polygon fill="#63b8ff" stroke="#63b8ff" points="546.22,-238.37 543.88,-228.04 539.26,-237.57 546.22,-238.37"/>
</a>
</g>
</g>
<!-- Node7&#45;&gt;Node4 -->
<g id="edge14_Node000007_Node000004" class="edge">
<title>Node7&#45;&gt;Node4</title>
<g id="a_edge14_Node000007_Node000004"><a xlink:title=" ">
<path fill="none" stroke="#63b8ff" d="M484,-199.45C480.79,-198.93 477.61,-198.44 474.5,-198 292.07,-172.14 241.31,-202.2 61.5,-162 58.83,-161.4 56.09,-160.66 53.36,-159.84"/>
<polygon fill="#63b8ff" stroke="#63b8ff" points="54.3,-156.46 43.71,-156.58 52.06,-163.09 54.3,-156.46"/>
</a>
</g>
</g>
<!-- Node8 -->
<g id="Node000008" class="node">
<title>Node8</title>
<g id="a_Node000008"><a xlink:title=" ">
<polygon fill="#e0e0e0" stroke="#999999" points="964,-24.5 917,-24.5 917,-5.5 964,-5.5 964,-24.5"/>
<text text-anchor="middle" x="940.5" y="-12.5" font-family="Helvetica,sans-Serif" font-size="10.00">cmath</text>
</a>
</g>
</g>
<!-- Node7&#45;&gt;Node8 -->
<g id="edge9_Node000007_Node000008" class="edge">
<title>Node7&#45;&gt;Node8</title>
<g id="a_edge9_Node000007_Node000008"><a xlink:title=" ">
<path fill="none" stroke="#63b8ff" d="M607.15,-211.82C759.78,-210.74 1145.8,-203.84 1184.5,-162 1193.55,-152.21 1189.87,-144.2 1184.5,-132 1180.13,-122.07 1122.04,-71.18 1112.5,-66 1056.43,-35.53 1033.93,-50.52 973.5,-30 972.06,-29.51 970.6,-28.99 969.13,-28.45"/>
<polygon fill="#63b8ff" stroke="#63b8ff" points="970.1,-25.06 959.51,-24.63 967.51,-31.57 970.1,-25.06"/>
</a>
</g>
</g>
<!-- Node9 -->
<g id="Node000009" class="node">
<title>Node9</title>
<g id="a_Node000009"><a xlink:title=" ">
<polygon fill="#e0e0e0" stroke="#999999" points="1175,-156.5 1122,-156.5 1122,-137.5 1175,-137.5 1175,-156.5"/>
<text text-anchor="middle" x="1148.5" y="-144.5" font-family="Helvetica,sans-Serif" font-size="10.00">stdlib.h</text>
</a>
</g>
</g>
<!-- Node7&#45;&gt;Node9 -->
<g id="edge10_Node000007_Node000009" class="edge">
<title>Node7&#45;&gt;Node9</title>
<g id="a_edge10_Node000007_Node000009"><a xlink:title=" ">
<path fill="none" stroke="#63b8ff" d="M607.38,-212.42C712.77,-211.85 933.2,-205.01 1113.5,-162 1115.81,-161.45 1118.17,-160.77 1120.51,-160.02"/>
<polygon fill="#63b8ff" stroke="#63b8ff" points="1121.74,-163.3 1129.94,-156.59 1119.34,-156.72 1121.74,-163.3"/>
</a>
</g>
</g>
<!-- Node10 -->
<g id="Node000010" class="node">
<title>Node10</title>
<g id="a_Node000010"><a xlink:title=" ">
<polygon fill="#e0e0e0" stroke="#999999" points="178.5,-24.5 118.5,-24.5 118.5,-5.5 178.5,-5.5 178.5,-24.5"/>
<text text-anchor="middle" x="148.5" y="-12.5" font-family="Helvetica,sans-Serif" font-size="10.00">iostream</text>
</a>
</g>
</g>
<!-- Node7&#45;&gt;Node10 -->
<g id="edge11_Node000007_Node000010" class="edge">
<title>Node7&#45;&gt;Node10</title>
<g id="a_edge11_Node000007_Node000010"><a xlink:title=" ">
<path fill="none" stroke="#63b8ff" d="M483.99,-199.5C480.78,-198.97 477.61,-198.46 474.5,-198 395.41,-186.25 170.14,-221.3 116.5,-162 83.52,-125.53 116.89,-63.06 136.46,-33.06"/>
<polygon fill="#63b8ff" stroke="#63b8ff" points="139.53,-34.78 142.23,-24.53 133.73,-30.86 139.53,-34.78"/>
</a>
</g>
</g>
<!-- Node11 -->
<g id="Node000011" class="node">
<title>Node11</title>
<g id="a_Node000011"><a xlink:title=" ">
<polygon fill="#e0e0e0" stroke="#999999" points="189,-156.5 142,-156.5 142,-137.5 189,-137.5 189,-156.5"/>
<text text-anchor="middle" x="165.5" y="-144.5" font-family="Helvetica,sans-Serif" font-size="10.00">float.h</text>
</a>
</g>
</g>
<!-- Node7&#45;&gt;Node11 -->
<g id="edge12_Node000007_Node000011" class="edge">
<title>Node7&#45;&gt;Node11</title>
<g id="a_edge12_Node000007_Node000011"><a xlink:title=" ">
<path fill="none" stroke="#63b8ff" d="M483.97,-199.61C480.77,-199.05 477.6,-198.51 474.5,-198 352.42,-178.02 317.87,-194.46 198.5,-162 196.61,-161.49 194.68,-160.89 192.76,-160.23"/>
<polygon fill="#63b8ff" stroke="#63b8ff" points="193.93,-156.93 183.34,-156.61 191.42,-163.46 193.93,-156.93"/>
</a>
</g>
</g>
<!-- Node12 -->
<g id="Node000012" class="node">
<title>Node12</title>
<g id="a_Node000012"><a xlink:title=" ">
<polygon fill="#e0e0e0" stroke="#999999" points="239.5,-156.5 207.5,-156.5 207.5,-137.5 239.5,-137.5 239.5,-156.5"/>
<text text-anchor="middle" x="223.5" y="-144.5" font-family="Helvetica,sans-Serif" font-size="10.00">list</text>
</a>
</g>
</g>
<!-- Node7&#45;&gt;Node12 -->
<g id="edge13_Node000007_Node000012" class="edge">
<title>Node7&#45;&gt;Node12</title>
<g id="a_edge13_Node000007_Node000012"><a xlink:title=" ">
<path fill="none" stroke="#63b8ff" d="M483.95,-199.72C480.76,-199.13 477.59,-198.55 474.5,-198 374.37,-180.16 344.58,-195.37 248.5,-162 247.64,-161.7 246.77,-161.37 245.9,-161.02"/>
<polygon fill="#63b8ff" stroke="#63b8ff" points="247.37,-157.84 236.85,-156.61 244.3,-164.14 247.37,-157.84"/>
</a>
</g>
</g>
<!-- Node13 -->
<g id="Node000013" class="node">
<title>Node13</title>
<g id="a_Node000013"><a xlink:title=" ">
<polygon fill="#e0e0e0" stroke="#999999" points="311.5,-156.5 257.5,-156.5 257.5,-137.5 311.5,-137.5 311.5,-156.5"/>
<text text-anchor="middle" x="284.5" y="-144.5" font-family="Helvetica,sans-Serif" font-size="10.00">random</text>
</a>
</g>
</g>
<!-- Node7&#45;&gt;Node13 -->
<g id="edge15_Node000007_Node000013" class="edge">
<title>Node7&#45;&gt;Node13</title>
<g id="a_edge15_Node000007_Node000013"><a xlink:title=" ">
<path fill="none" stroke="#63b8ff" d="M483.8,-199.39C428.13,-187.81 350.51,-171.11 320.5,-162 318.57,-161.42 316.61,-160.78 314.63,-160.1"/>
<polygon fill="#63b8ff" stroke="#63b8ff" points="315.47,-156.68 304.87,-156.54 313.07,-163.26 315.47,-156.68"/>
</a>
</g>
</g>
<!-- Node14 -->
<g id="Node000014" class="node">
<title>Node14</title>
<g id="a_Node000014"><a xlink:title=" ">
<polygon fill="#e0e0e0" stroke="#999999" points="353.5,-24.5 289.5,-24.5 289.5,-5.5 353.5,-5.5 353.5,-24.5"/>
<text text-anchor="middle" x="321.5" y="-12.5" font-family="Helvetica,sans-Serif" font-size="10.00">algorithm</text>
</a>
</g>
</g>
<!-- Node7&#45;&gt;Node14 -->
<g id="edge16_Node000007_Node000014" class="edge">
<title>Node7&#45;&gt;Node14</title>
<g id="a_edge16_Node000007_Node000014"><a xlink:title=" ">
<path fill="none" stroke="#63b8ff" d="M483.99,-199.52C480.78,-198.98 477.61,-198.47 474.5,-198 398.94,-186.6 183.63,-218.8 132.5,-162 79.22,-102.82 212.26,-50.26 282.04,-27.7"/>
<polygon fill="#63b8ff" stroke="#63b8ff" points="283.37,-30.95 291.85,-24.59 281.26,-24.28 283.37,-30.95"/>
</a>
</g>
</g>
<!-- Node15 -->
<g id="Node000015" class="node">
<title>Node15</title>
<g id="a_Node000015"><a xlink:title=" ">
<polygon fill="#e0e0e0" stroke="#999999" points="574.5,-156.5 516.5,-156.5 516.5,-137.5 574.5,-137.5 574.5,-156.5"/>
<text text-anchor="middle" x="545.5" y="-144.5" font-family="Helvetica,sans-Serif" font-size="10.00">memory</text>
</a>
</g>
</g>
<!-- Node7&#45;&gt;Node15 -->
<g id="edge17_Node000007_Node000015" class="edge">
<title>Node7&#45;&gt;Node15</title>
<g id="a_edge17_Node000007_Node000015"><a xlink:title=" ">
<path fill="none" stroke="#63b8ff" d="M545.5,-197.8C545.5,-188.7 545.5,-176.79 545.5,-166.9"/>
<polygon fill="#63b8ff" stroke="#63b8ff" points="549,-166.84 545.5,-156.84 542,-166.84 549,-166.84"/>
</a>
</g>
</g>
<!-- Node16 -->
<g id="Node000016" class="node">
<title>Node16</title>
<g id="a_Node000016"><a xlink:title=" ">
<polygon fill="#e0e0e0" stroke="#999999" points="702.5,-156.5 592.5,-156.5 592.5,-137.5 702.5,-137.5 702.5,-156.5"/>
<text text-anchor="middle" x="647.5" y="-144.5" font-family="Helvetica,sans-Serif" font-size="10.00">nlohmann/json.hpp</text>
</a>
</g>
</g>
<!-- Node7&#45;&gt;Node16 -->
<g id="edge18_Node000007_Node000016" class="edge">
<title>Node7&#45;&gt;Node16</title>
<g id="a_edge18_Node000007_Node000016"><a xlink:title=" ">
<path fill="none" stroke="#63b8ff" d="M567.88,-197.95C584.91,-187.27 608.21,-172.65 625.21,-161.98"/>
<polygon fill="#63b8ff" stroke="#63b8ff" points="627.32,-164.8 633.93,-156.52 623.59,-158.87 627.32,-164.8"/>
</a>
</g>
</g>
<!-- Node17 -->
<g id="Node000017" class="node">
<title>Node17</title>
<g id="a_Node000017"><a xlink:href="LineInfoException_8h.html" target="_top" xlink:title="Exception class with detailed file and line information for error reporting.">
<polygon fill="white" stroke="#666666" points="499,-156.5 330,-156.5 330,-137.5 499,-137.5 499,-156.5"/>
<text text-anchor="middle" x="414.5" y="-144.5" font-family="Helvetica,sans-Serif" font-size="10.00">Exceptions/LineInfoException.h</text>
</a>
</g>
</g>
<!-- Node7&#45;&gt;Node17 -->
<g id="edge19_Node000007_Node000017" class="edge">
<title>Node7&#45;&gt;Node17</title>
<g id="a_edge19_Node000007_Node000017"><a xlink:title=" ">
<path fill="none" stroke="#63b8ff" d="M516.75,-197.95C494.18,-186.93 463.01,-171.7 441.03,-160.96"/>
<polygon fill="#63b8ff" stroke="#63b8ff" points="442.46,-157.76 431.93,-156.52 439.38,-164.05 442.46,-157.76"/>
</a>
</g>
</g>
<!-- Node20 -->
<g id="Node000020" class="node">
<title>Node20</title>
<g id="a_Node000020"><a xlink:href="Constants_8h.html" target="_top" xlink:title="Mathematical and physical constants used throughout the project.">
<polygon fill="white" stroke="#666666" points="844,-162 721,-162 721,-132 844,-132 844,-162"/>
<text text-anchor="start" x="729" y="-150" font-family="Helvetica,sans-Serif" font-size="10.00">App/Model/IBM/Maths</text>
<text text-anchor="middle" x="782.5" y="-139" font-family="Helvetica,sans-Serif" font-size="10.00">/Constants.h</text>
</a>
</g>
</g>
<!-- Node7&#45;&gt;Node20 -->
<g id="edge22_Node000007_Node000020" class="edge">
<title>Node7&#45;&gt;Node20</title>
<g id="a_edge22_Node000007_Node000020"><a xlink:title=" ">
<path fill="none" stroke="#63b8ff" d="M597.51,-197.95C633.78,-188.16 682.35,-175.05 720.61,-164.71"/>
<polygon fill="#63b8ff" stroke="#63b8ff" points="721.87,-168 730.61,-162.01 720.04,-161.24 721.87,-168"/>
</a>
</g>
</g>
<!-- Node21 -->
<g id="Node000021" class="node">
<title>Node21</title>
<g id="a_Node000021"><a xlink:href="TimeUnits_8h.html" target="_top" xlink:title="Defines the TimeStep and Day classes for representing simulation time units.">
<polygon fill="white" stroke="#666666" points="1007,-162 862,-162 862,-132 1007,-132 1007,-162"/>
<text text-anchor="start" x="870" y="-150" font-family="Helvetica,sans-Serif" font-size="10.00">App/Model/IBM/Landscape</text>
<text text-anchor="middle" x="934.5" y="-139" font-family="Helvetica,sans-Serif" font-size="10.00">/LivingBeings/TimeUnits.h</text>
</a>
</g>
</g>
<!-- Node7&#45;&gt;Node21 -->
<g id="edge23_Node000007_Node000021" class="edge">
<title>Node7&#45;&gt;Node21</title>
<g id="a_edge23_Node000007_Node000021"><a xlink:title=" ">
<path fill="none" stroke="#63b8ff" d="M607.26,-202.08C667.1,-192.44 760.68,-177.28 851.69,-162.13"/>
<polygon fill="#63b8ff" stroke="#63b8ff" points="852.34,-165.57 861.63,-160.47 851.19,-158.66 852.34,-165.57"/>
</a>
</g>
</g>
<!-- Node29 -->
<g id="Node000029" class="node">
<title>Node29</title>
<g id="a_Node000029"><a xlink:href="Types_8h.html" target="_top" xlink:title="Defines common type aliases and constants used throughout the Weaver project.">
<polygon fill="white" stroke="#666666" points="1104,-156.5 1025,-156.5 1025,-137.5 1104,-137.5 1104,-156.5"/>
<text text-anchor="middle" x="1064.5" y="-144.5" font-family="Helvetica,sans-Serif" font-size="10.00">Misc/Types.h</text>
</a>
</g>
</g>
<!-- Node7&#45;&gt;Node29 -->
<g id="edge41_Node000007_Node000029" class="edge">
<title>Node7&#45;&gt;Node29</title>
<g id="a_edge41_Node000007_Node000029"><a xlink:title=" ">
<path fill="none" stroke="#63b8ff" d="M607.37,-208.95C697.91,-203.69 871.49,-190.61 1016.5,-162 1020.41,-161.23 1024.47,-160.28 1028.48,-159.25"/>
<polygon fill="#63b8ff" stroke="#63b8ff" points="1029.58,-162.58 1038.3,-156.56 1027.73,-155.83 1029.58,-162.58"/>
</a>
</g>
</g>
<!-- Node18 -->
<g id="Node000018" class="node">
<title>Node18</title>
<g id="a_Node000018"><a xlink:title=" ">
<polygon fill="#e0e0e0" stroke="#999999" points="508,-90.5 443,-90.5 443,-71.5 508,-71.5 508,-90.5"/>
<text text-anchor="middle" x="475.5" y="-78.5" font-family="Helvetica,sans-Serif" font-size="10.00">exception</text>
</a>
</g>
</g>
<!-- Node17&#45;&gt;Node18 -->
<g id="edge20_Node000017_Node000018" class="edge">
<title>Node17&#45;&gt;Node18</title>
<g id="a_edge20_Node000017_Node000018"><a xlink:title=" ">
<path fill="none" stroke="#63b8ff" d="M422.73,-137.37C432.22,-127.4 448.06,-110.79 459.91,-98.36"/>
<polygon fill="#63b8ff" stroke="#63b8ff" points="462.65,-100.56 467.01,-90.91 457.58,-95.73 462.65,-100.56"/>
</a>
</g>
</g>
<!-- Node19 -->
<g id="Node000019" class="node">
<title>Node19</title>
<g id="a_Node000019"><a xlink:title=" ">
<polygon fill="#e0e0e0" stroke="#999999" points="462.5,-24.5 418.5,-24.5 418.5,-5.5 462.5,-5.5 462.5,-24.5"/>
<text text-anchor="middle" x="440.5" y="-12.5" font-family="Helvetica,sans-Serif" font-size="10.00">string</text>
</a>
</g>
</g>
<!-- Node17&#45;&gt;Node19 -->
<g id="edge21_Node000017_Node000019" class="edge">
<title>Node17&#45;&gt;Node19</title>
<g id="a_edge21_Node000017_Node000019"><a xlink:title=" ">
<path fill="none" stroke="#63b8ff" d="M416.21,-137.47C420.35,-116.73 431.05,-63.24 436.77,-34.66"/>
<polygon fill="#63b8ff" stroke="#63b8ff" points="440.22,-35.22 438.75,-24.73 433.36,-33.85 440.22,-35.22"/>
</a>
</g>
</g>
<!-- Node21&#45;&gt;Node5 -->
<g id="edge28_Node000021_Node000005" class="edge">
<title>Node21&#45;&gt;Node5</title>
<g id="a_edge28_Node000021_Node000005"><a xlink:title=" ">
<path fill="none" stroke="#63b8ff" d="M1007.36,-133.47C1010.45,-132.97 1013.5,-132.48 1016.5,-132 1124.76,-114.77 1154.28,-123.09 1260.5,-96 1262.94,-95.38 1265.45,-94.65 1267.95,-93.87"/>
<polygon fill="#63b8ff" stroke="#63b8ff" points="1269.1,-97.17 1277.44,-90.64 1266.85,-90.55 1269.1,-97.17"/>
</a>
</g>
</g>
<!-- Node21&#45;&gt;Node8 -->
<g id="edge29_Node000021_Node000008" class="edge">
<title>Node21&#45;&gt;Node8</title>
<g id="a_edge29_Node000021_Node000008"><a xlink:title=" ">
<path fill="none" stroke="#63b8ff" d="M935.15,-131.84C936.24,-108.34 938.41,-61.26 939.63,-34.93"/>
<polygon fill="#63b8ff" stroke="#63b8ff" points="943.13,-34.9 940.1,-24.75 936.14,-34.58 943.13,-34.9"/>
</a>
</g>
</g>
<!-- Node22 -->
<g id="Node000022" class="node">
<title>Node22</title>
<g id="a_Node000022"><a xlink:title=" ">
<polygon fill="#e0e0e0" stroke="#999999" points="630,-30 525,-30 525,0 630,0 630,-30"/>
<text text-anchor="start" x="533" y="-18" font-family="Helvetica,sans-Serif" font-size="10.00">boost/archive/text</text>
<text text-anchor="middle" x="577.5" y="-7" font-family="Helvetica,sans-Serif" font-size="10.00">_iarchive.hpp</text>
</a>
</g>
</g>
<!-- Node21&#45;&gt;Node22 -->
<g id="edge24_Node000021_Node000022" class="edge">
<title>Node21&#45;&gt;Node22</title>
<g id="a_edge24_Node000021_Node000022"><a xlink:title=" ">
<path fill="none" stroke="#63b8ff" d="M863.56,-131.99C810.9,-121.15 743.83,-106.3 717.5,-96 676.8,-80.08 633.68,-53.83 606.22,-35.77"/>
<polygon fill="#63b8ff" stroke="#63b8ff" points="608.15,-32.84 597.88,-30.21 604.27,-38.67 608.15,-32.84"/>
</a>
</g>
</g>
<!-- Node23 -->
<g id="Node000023" class="node">
<title>Node23</title>
<g id="a_Node000023"><a xlink:title=" ">
<polygon fill="#e0e0e0" stroke="#999999" points="753,-30 648,-30 648,0 753,0 753,-30"/>
<text text-anchor="start" x="656" y="-18" font-family="Helvetica,sans-Serif" font-size="10.00">boost/archive/text</text>
<text text-anchor="middle" x="700.5" y="-7" font-family="Helvetica,sans-Serif" font-size="10.00">_oarchive.hpp</text>
</a>
</g>
</g>
<!-- Node21&#45;&gt;Node23 -->
<g id="edge25_Node000021_Node000023" class="edge">
<title>Node21&#45;&gt;Node23</title>
<g id="a_edge25_Node000021_Node000023"><a xlink:title=" ">
<path fill="none" stroke="#63b8ff" d="M861.94,-133.05C816.43,-123.78 762.99,-110.43 744.5,-96 726.24,-81.75 714.49,-57.7 707.77,-39.68"/>
<polygon fill="#63b8ff" stroke="#63b8ff" points="711.04,-38.44 704.46,-30.14 704.43,-40.74 711.04,-38.44"/>
</a>
</g>
</g>
<!-- Node24 -->
<g id="Node000024" class="node">
<title>Node24</title>
<g id="a_Node000024"><a xlink:title=" ">
<polygon fill="#e0e0e0" stroke="#999999" points="1232.5,-30 1116.5,-30 1116.5,0 1232.5,0 1232.5,-30"/>
<text text-anchor="start" x="1124.5" y="-18" font-family="Helvetica,sans-Serif" font-size="10.00">boost/archive/binary</text>
<text text-anchor="middle" x="1174.5" y="-7" font-family="Helvetica,sans-Serif" font-size="10.00">_iarchive.hpp</text>
</a>
</g>
</g>
<!-- Node21&#45;&gt;Node24 -->
<g id="edge26_Node000021_Node000024" class="edge">
<title>Node21&#45;&gt;Node24</title>
<g id="a_edge26_Node000021_Node000024"><a xlink:title=" ">
<path fill="none" stroke="#63b8ff" d="M952.19,-131.95C974.28,-114.85 1013.66,-85.82 1050.5,-66 1073.75,-53.49 1100.82,-42.23 1123.73,-33.57"/>
<polygon fill="#63b8ff" stroke="#63b8ff" points="1125.11,-36.79 1133.27,-30.03 1122.67,-30.23 1125.11,-36.79"/>
</a>
</g>
</g>
<!-- Node25 -->
<g id="Node000025" class="node">
<title>Node25</title>
<g id="a_Node000025"><a xlink:title=" ">
<polygon fill="#e0e0e0" stroke="#999999" points="1098.5,-30 982.5,-30 982.5,0 1098.5,0 1098.5,-30"/>
<text text-anchor="start" x="990.5" y="-18" font-family="Helvetica,sans-Serif" font-size="10.00">boost/archive/binary</text>
<text text-anchor="middle" x="1040.5" y="-7" font-family="Helvetica,sans-Serif" font-size="10.00">_oarchive.hpp</text>
</a>
</g>
</g>
<!-- Node21&#45;&gt;Node25 -->
<g id="edge27_Node000021_Node000025" class="edge">
<title>Node21&#45;&gt;Node25</title>
<g id="a_edge27_Node000021_Node000025"><a xlink:title=" ">
<path fill="none" stroke="#63b8ff" d="M940.56,-131.71C948.12,-114.88 962.19,-86.63 979.5,-66 988.76,-54.97 1000.71,-44.56 1011.57,-36.13"/>
<polygon fill="#63b8ff" stroke="#63b8ff" points="1013.72,-38.89 1019.61,-30.08 1009.51,-33.3 1013.72,-38.89"/>
</a>
</g>
</g>
<!-- Node26 -->
<g id="Node000026" class="node">
<title>Node26</title>
<g id="a_Node000026"><a xlink:href="PreciseDouble_8h.html" target="_top" xlink:title="Defines the PreciseDouble class for safe and precise double&#45;precision arithmetic.">
<polygon fill="white" stroke="#666666" points="877,-96 754,-96 754,-66 877,-66 877,-96"/>
<text text-anchor="start" x="762" y="-84" font-family="Helvetica,sans-Serif" font-size="10.00">App/Model/IBM/Maths</text>
<text text-anchor="middle" x="815.5" y="-73" font-family="Helvetica,sans-Serif" font-size="10.00">/PreciseDouble.h</text>
</a>
</g>
</g>
<!-- Node21&#45;&gt;Node26 -->
<g id="edge30_Node000021_Node000026" class="edge">
<title>Node21&#45;&gt;Node26</title>
<g id="a_edge30_Node000021_Node000026"><a xlink:title=" ">
<path fill="none" stroke="#63b8ff" d="M908.38,-131.95C891.41,-122.83 869.08,-110.82 850.57,-100.86"/>
<polygon fill="#63b8ff" stroke="#63b8ff" points="852.02,-97.67 841.55,-96.01 848.7,-103.83 852.02,-97.67"/>
</a>
</g>
</g>
<!-- Node26&#45;&gt;Node8 -->
<g id="edge36_Node000026_Node000008" class="edge">
<title>Node26&#45;&gt;Node8</title>
<g id="a_edge36_Node000026_Node000008"><a xlink:title=" ">
<path fill="none" stroke="#63b8ff" d="M842.93,-65.95C864.37,-54.98 893.95,-39.83 914.9,-29.11"/>
<polygon fill="#63b8ff" stroke="#63b8ff" points="916.56,-32.19 923.86,-24.52 913.37,-25.96 916.56,-32.19"/>
</a>
</g>
</g>
<!-- Node26&#45;&gt;Node10 -->
<g id="edge38_Node000026_Node000010" class="edge">
<title>Node26&#45;&gt;Node10</title>
<g id="a_edge38_Node000026_Node000010"><a xlink:title=" ">
<path fill="none" stroke="#63b8ff" d="M753.69,-74.48C654.05,-65.51 451.76,-47.08 280.5,-30 249.76,-26.93 215.03,-23.24 188.91,-20.42"/>
<polygon fill="#63b8ff" stroke="#63b8ff" points="188.95,-16.9 178.63,-19.3 188.2,-23.86 188.95,-16.9"/>
</a>
</g>
</g>
<!-- Node26&#45;&gt;Node14 -->
<g id="edge37_Node000026_Node000014" class="edge">
<title>Node26&#45;&gt;Node14</title>
<g id="a_edge37_Node000026_Node000014"><a xlink:title=" ">
<path fill="none" stroke="#63b8ff" d="M753.85,-73.09C674.21,-64.01 531.33,-47.19 409.5,-30 394.59,-27.9 378.29,-25.37 363.81,-23.04"/>
<polygon fill="#63b8ff" stroke="#63b8ff" points="364.07,-19.54 353.64,-21.39 362.95,-26.45 364.07,-19.54"/>
</a>
</g>
</g>
<!-- Node26&#45;&gt;Node19 -->
<g id="edge35_Node000026_Node000019" class="edge">
<title>Node26&#45;&gt;Node19</title>
<g id="a_edge35_Node000026_Node000019"><a xlink:title=" ">
<path fill="none" stroke="#63b8ff" d="M753.96,-70.1C693.28,-60.26 597.91,-44.56 515.5,-30 501.5,-27.53 486.06,-24.67 472.85,-22.18"/>
<polygon fill="#63b8ff" stroke="#63b8ff" points="473.27,-18.7 462.8,-20.28 471.97,-25.58 473.27,-18.7"/>
</a>
</g>
</g>
<!-- Node26&#45;&gt;Node22 -->
<g id="edge31_Node000026_Node000022" class="edge">
<title>Node26&#45;&gt;Node22</title>
<g id="a_edge31_Node000026_Node000022"><a xlink:title=" ">
<path fill="none" stroke="#63b8ff" d="M763.27,-65.95C726.84,-56.16 678.07,-43.05 639.65,-32.71"/>
<polygon fill="#63b8ff" stroke="#63b8ff" points="640.17,-29.23 629.61,-30.01 638.36,-35.99 640.17,-29.23"/>
</a>
</g>
</g>
<!-- Node26&#45;&gt;Node23 -->
<g id="edge32_Node000026_Node000023" class="edge">
<title>Node26&#45;&gt;Node23</title>
<g id="a_edge32_Node000026_Node000023"><a xlink:title=" ">
<path fill="none" stroke="#63b8ff" d="M790.26,-65.95C773.93,-56.87 752.48,-44.93 734.63,-35"/>
<polygon fill="#63b8ff" stroke="#63b8ff" points="736.12,-31.82 725.68,-30.01 732.71,-37.93 736.12,-31.82"/>
</a>
</g>
</g>
<!-- Node26&#45;&gt;Node24 -->
<g id="edge33_Node000026_Node000024" class="edge">
<title>Node26&#45;&gt;Node24</title>
<g id="a_edge33_Node000026_Node000024"><a xlink:title=" ">
<path fill="none" stroke="#63b8ff" d="M877.14,-70.11C934.12,-60.82 1021.4,-46.21 1106.58,-30.14"/>
<polygon fill="#63b8ff" stroke="#63b8ff" points="1107.25,-33.57 1116.42,-28.27 1105.94,-26.69 1107.25,-33.57"/>
</a>
</g>
</g>
<!-- Node26&#45;&gt;Node25 -->
<g id="edge34_Node000026_Node000025" class="edge">
<title>Node26&#45;&gt;Node25</title>
<g id="a_edge34_Node000026_Node000025"><a xlink:title=" ">
<path fill="none" stroke="#63b8ff" d="M864.88,-65.95C899.17,-56.2 945.03,-43.16 981.28,-32.84"/>
<polygon fill="#63b8ff" stroke="#63b8ff" points="982.58,-36.11 991.24,-30.01 980.66,-29.38 982.58,-36.11"/>
</a>
</g>
</g>
<!-- Node27 -->
<g id="Node000027" class="node">
<title>Node27</title>
<g id="a_Node000027"><a xlink:title=" ">
<polygon fill="#e0e0e0" stroke="#999999" points="898.5,-24.5 854.5,-24.5 854.5,-5.5 898.5,-5.5 898.5,-24.5"/>
<text text-anchor="middle" x="876.5" y="-12.5" font-family="Helvetica,sans-Serif" font-size="10.00">limits</text>
</a>
</g>
</g>
<!-- Node26&#45;&gt;Node27 -->
<g id="edge39_Node000026_Node000027" class="edge">
<title>Node26&#45;&gt;Node27</title>
<g id="a_edge39_Node000026_Node000027"><a xlink:title=" ">
<path fill="none" stroke="#63b8ff" d="M829.04,-65.8C838.55,-55.82 851.28,-42.46 861.17,-32.09"/>
<polygon fill="#63b8ff" stroke="#63b8ff" points="863.7,-34.5 868.07,-24.84 858.64,-29.67 863.7,-34.5"/>
</a>
</g>
</g>
<!-- Node28 -->
<g id="Node000028" class="node">
<title>Node28</title>
<g id="a_Node000028"><a xlink:title=" ">
<polygon fill="#e0e0e0" stroke="#999999" points="836,-24.5 771,-24.5 771,-5.5 836,-5.5 836,-24.5"/>
<text text-anchor="middle" x="803.5" y="-12.5" font-family="Helvetica,sans-Serif" font-size="10.00">functional</text>
</a>
</g>
</g>
<!-- Node26&#45;&gt;Node28 -->
<g id="edge40_Node000026_Node000028" class="edge">
<title>Node26&#45;&gt;Node28</title>
<g id="a_edge40_Node000026_Node000028"><a xlink:title=" ">
<path fill="none" stroke="#63b8ff" d="M812.84,-65.8C811.13,-56.7 808.9,-44.79 807.04,-34.9"/>
<polygon fill="#63b8ff" stroke="#63b8ff" points="810.44,-34.03 805.16,-24.84 803.56,-35.32 810.44,-34.03"/>
</a>
</g>
</g>
<!-- Node29&#45;&gt;Node26 -->
<g id="edge49_Node000029_Node000026" class="edge">
<title>Node29&#45;&gt;Node26</title>
<g id="a_edge49_Node000029_Node000026"><a xlink:title=" ">
<path fill="none" stroke="#63b8ff" d="M1035.87,-137.45C1029.51,-135.6 1022.79,-133.7 1016.5,-132 972.84,-120.21 923.57,-107.94 884.74,-98.5"/>
<polygon fill="#63b8ff" stroke="#63b8ff" points="885.13,-94.99 874.59,-96.04 883.48,-101.8 885.13,-94.99"/>
</a>
</g>
</g>
<!-- Node29&#45;&gt;Node27 -->
<g id="edge48_Node000029_Node000027" class="edge">
<title>Node29&#45;&gt;Node27</title>
<g id="a_edge48_Node000029_Node000027"><a xlink:title=" ">
<path fill="none" stroke="#63b8ff" d="M1052.16,-137.47C1020.7,-115.72 937.18,-57.96 897.72,-30.67"/>
<polygon fill="#63b8ff" stroke="#63b8ff" points="899.34,-27.54 889.13,-24.73 895.36,-33.3 899.34,-27.54"/>
</a>
</g>
</g>
<!-- Node30 -->
<g id="Node000030" class="node">
<title>Node30</title>
<g id="a_Node000030"><a xlink:href="Coordinate3D_8h.html" target="_top" xlink:title="Defines a templated 3D coordinate class with Boost.Serialization support.">
<polygon fill="white" stroke="#666666" points="1251.5,-90.5 1159.5,-90.5 1159.5,-71.5 1251.5,-71.5 1251.5,-90.5"/>
<text text-anchor="middle" x="1205.5" y="-78.5" font-family="Helvetica,sans-Serif" font-size="10.00">Coordinate3D.h</text>
</a>
</g>
</g>
<!-- Node29&#45;&gt;Node30 -->
<g id="edge42_Node000029_Node000030" class="edge">
<title>Node29&#45;&gt;Node30</title>
<g id="a_edge42_Node000029_Node000030"><a xlink:title=" ">
<path fill="none" stroke="#63b8ff" d="M1083.52,-137.37C1107.59,-126.44 1149.27,-107.52 1177.11,-94.88"/>
<polygon fill="#63b8ff" stroke="#63b8ff" points="1178.68,-98.02 1186.34,-90.7 1175.78,-91.65 1178.68,-98.02"/>
</a>
</g>
</g>
<!-- Node33 -->
<g id="Node000033" class="node">
<title>Node33</title>
<g id="a_Node000033"><a xlink:title=" ">
<polygon fill="#e0e0e0" stroke="#999999" points="1103.5,-90.5 1059.5,-90.5 1059.5,-71.5 1103.5,-71.5 1103.5,-90.5"/>
<text text-anchor="middle" x="1081.5" y="-78.5" font-family="Helvetica,sans-Serif" font-size="10.00">cfloat</text>
</a>
</g>
</g>
<!-- Node29&#45;&gt;Node33 -->
<g id="edge47_Node000029_Node000033" class="edge">
<title>Node29&#45;&gt;Node33</title>
<g id="a_edge47_Node000029_Node000033"><a xlink:title=" ">
<path fill="none" stroke="#63b8ff" d="M1066.79,-137.37C1069.26,-128.07 1073.27,-112.98 1076.48,-100.9"/>
<polygon fill="#63b8ff" stroke="#63b8ff" points="1079.95,-101.47 1079.13,-90.91 1073.18,-99.67 1079.95,-101.47"/>
</a>
</g>
</g>
<!-- Node30&#45;&gt;Node24 -->
<g id="edge44_Node000030_Node000024" class="edge">
<title>Node30&#45;&gt;Node24</title>
<g id="a_edge44_Node000030_Node000024"><a xlink:title=" ">
<path fill="none" stroke="#63b8ff" d="M1201.32,-71.37C1197.38,-63.24 1191.3,-50.69 1185.93,-39.59"/>
<polygon fill="#63b8ff" stroke="#63b8ff" points="1188.97,-37.83 1181.46,-30.36 1182.67,-40.89 1188.97,-37.83"/>
</a>
</g>
</g>
<!-- Node30&#45;&gt;Node25 -->
<g id="edge45_Node000030_Node000025" class="edge">
<title>Node30&#45;&gt;Node25</title>
<g id="a_edge45_Node000030_Node000025"><a xlink:title=" ">
<path fill="none" stroke="#63b8ff" d="M1183.25,-71.37C1158.53,-61.78 1117.96,-46.05 1086.38,-33.8"/>
<polygon fill="#63b8ff" stroke="#63b8ff" points="1087.48,-30.47 1076.89,-30.12 1084.95,-37 1087.48,-30.47"/>
</a>
</g>
</g>
<!-- Node31 -->
<g id="Node000031" class="node">
<title>Node31</title>
<g id="a_Node000031"><a xlink:title=" ">
<polygon fill="#e0e0e0" stroke="#999999" points="1358,-30 1251,-30 1251,0 1358,0 1358,-30"/>
<text text-anchor="start" x="1259" y="-18" font-family="Helvetica,sans-Serif" font-size="10.00">boost/serialization</text>
<text text-anchor="middle" x="1304.5" y="-7" font-family="Helvetica,sans-Serif" font-size="10.00">/access.hpp</text>
</a>
</g>
</g>
<!-- Node30&#45;&gt;Node31 -->
<g id="edge43_Node000030_Node000031" class="edge">
<title>Node30&#45;&gt;Node31</title>
<g id="a_edge43_Node000030_Node000031"><a xlink:title=" ">
<path fill="none" stroke="#63b8ff" d="M1218.85,-71.37C1232.98,-62.24 1255.73,-47.53 1274.24,-35.56"/>
<polygon fill="#63b8ff" stroke="#63b8ff" points="1276.17,-38.48 1282.66,-30.12 1272.37,-32.61 1276.17,-38.48"/>
</a>
</g>
</g>
<!-- Node32 -->
<g id="Node000032" class="node">
<title>Node32</title>
<g id="a_Node000032"><a xlink:title=" ">
<polygon fill="#e0e0e0" stroke="#999999" points="1431,-24.5 1376,-24.5 1376,-5.5 1431,-5.5 1431,-24.5"/>
<text text-anchor="middle" x="1403.5" y="-12.5" font-family="Helvetica,sans-Serif" font-size="10.00">fstream</text>
</a>
</g>
</g>
<!-- Node30&#45;&gt;Node32 -->
<g id="edge46_Node000030_Node000032" class="edge">
<title>Node30&#45;&gt;Node32</title>
<g id="a_edge46_Node000030_Node000032"><a xlink:title=" ">
<path fill="none" stroke="#63b8ff" d="M1235.57,-71.42C1268.25,-61.93 1321.91,-45.88 1367.5,-30 1369.15,-29.42 1370.85,-28.82 1372.55,-28.2"/>
<polygon fill="#63b8ff" stroke="#63b8ff" points="1374.14,-31.34 1382.27,-24.54 1371.68,-24.79 1374.14,-31.34"/>
</a>
</g>
</g>
</g>
</svg>

<g id="navigator" transform="translate(0 0)" fill="#404254">
  <rect fill="#f2f5e9" fill-opacity="0.5" stroke="#606060" stroke-width=".5" x="0" y="0" width="60" height="60"/>
  <use id="zoomplus" xlink:href="#zoomPlus" x="17" y="9" onmousedown="handleZoom(evt,'in')"/>
  <use id="zoomminus" xlink:href="#zoomMin" x="42" y="9" onmousedown="handleZoom(evt,'out')"/>
  <use id="reset" xlink:href="#resetDef" x="30" y="36" onmousedown="handleReset()"/>
   <use id="arrowup" xlink:href="#arrowUp" x="0" y="0" onmousedown="handlePan(0,-1)"/>
  <use id="arrowright" xlink:href="#arrowRight" x="0" y="0" onmousedown="handlePan(1,0)"/>
  <use id="arrowdown" xlink:href="#arrowDown" x="0" y="0" onmousedown="handlePan(0,1)"/>
  <use id="arrowleft" xlink:href="#arrowLeft" x="0" y="0" onmousedown="handlePan(-1,0)"/>
</g>
<svg viewBox="0 0 15 15" width="100%" height="30px" preserveAspectRatio="xMaxYMin meet">
 <g id="arrow_out" transform="scale(0.3 0.3)">
  <a xlink:href="Chromosome_8h__incl_org.svg" target="_base">
   <rect id="button" ry="5" rx="5" y="6" x="6" height="38" width="38"
        fill="#f2f5e9" fill-opacity="0.5" stroke="#606060" stroke-width="1.0"/>
   <path id="arrow"
     d="M 11.500037,31.436501 C 11.940474,20.09759 22.043105,11.32322 32.158766,21.979434 L 37.068811,17.246167 C 37.068811,17.246167 37.088388,32 37.088388,32 L 22.160133,31.978069 C 22.160133,31.978069 26.997745,27.140456 26.997745,27.140456 C 18.528582,18.264221 13.291696,25.230495 11.500037,31.436501 z"
     style="fill:#404040;"/>
  </a>
 </g>
</svg>

<style type='text/css'>
<![CDATA[
[data-mouse-over-selected='false'] { opacity: 0.7; }
[data-mouse-over-selected='true']  { opacity: 1.0; }
]]>
</style>
<script type="application/ecmascript"><![CDATA[
document.addEventListener('DOMContentLoaded', (event) => {
  highlightEdges();
  highlightAdjacentNodes();
});
]]></script>
</svg>
