<?xml version="1.0" encoding="UTF-8" standalone="no"?>
<!DOCTYPE svg PUBLIC "-//W3C//DTD SVG 1.1//EN"
 "http://www.w3.org/Graphics/SVG/1.1/DTD/svg11.dtd">
<!-- Generated by graphviz version 2.43.0 (0)
 -->
<!-- Title: Animal Pages: 1 -->
<svg width="1081pt" height="404pt"
 viewBox="0.00 0.00 1081.00 403.50" xmlns="http://www.w3.org/2000/svg" xmlns:xlink="http://www.w3.org/1999/xlink">
<g id="graph0" class="graph" transform="scale(1 1) rotate(0) translate(4 399.5)">
<title>Animal</title>
<!-- Node1 -->
<g id="Node000001" class="node">
<title>Node1</title>
<g id="a_Node000001"><a xlink:title="Abstract base class representing an individual animal.">
<polygon fill="#999999" stroke="#666666" points="1073,-184 1022,-184 1022,-165 1073,-165 1073,-184"/>
<text text-anchor="middle" x="1047.5" y="-172" font-family="Helvetica,sans-Serif" font-size="10.00">Animal</text>
</a>
</g>
</g>
<!-- Node2 -->
<g id="Node000002" class="node">
<title>Node2</title>
<g id="a_Node000002"><a xlink:href="classEdible.html" target="_top" xlink:title="Represents a generic edible entity within a terrain cell.">
<polygon fill="white" stroke="#666666" points="918.5,-323 871.5,-323 871.5,-304 918.5,-304 918.5,-323"/>
<text text-anchor="middle" x="895" y="-311" font-family="Helvetica,sans-Serif" font-size="10.00">Edible</text>
</a>
</g>
</g>
<!-- Node2&#45;&gt;Node1 -->
<g id="edge1_Node000001_Node000002" class="edge">
<title>Node2&#45;&gt;Node1</title>
<g id="a_edge1_Node000001_Node000002"><a xlink:title=" ">
<path fill="none" stroke="#63b8ff" d="M914.01,-296.87C945.77,-267.53 1010.77,-207.5 1036.08,-184.12"/>
<polygon fill="#63b8ff" stroke="#63b8ff" points="911.32,-294.59 906.34,-303.95 916.07,-299.73 911.32,-294.59"/>
</a>
</g>
</g>
<!-- Node3 -->
<g id="Node000003" class="node">
<title>Node3</title>
<g id="a_Node000003"><a xlink:href="classEdibleID.html" target="_top" xlink:title="Encapsulates a unique identifier for an edible object or resource.">
<polygon fill="white" stroke="#666666" points="659.5,-357 602.5,-357 602.5,-338 659.5,-338 659.5,-357"/>
<text text-anchor="middle" x="631" y="-345" font-family="Helvetica,sans-Serif" font-size="10.00">EdibleID</text>
</a>
</g>
</g>
<!-- Node3&#45;&gt;Node2 -->
<g id="edge2_Node000002_Node000003" class="edge">
<title>Node3&#45;&gt;Node2</title>
<g id="a_edge2_Node000002_Node000003"><a xlink:title=" ">
<path fill="none" stroke="#9a32cd" stroke-dasharray="5,2" d="M669.91,-344.2C710.03,-340.49 775.15,-333.89 831,-325.5 844.43,-323.48 859.37,-320.66 871.33,-318.26"/>
<polygon fill="#9a32cd" stroke="#9a32cd" points="669.42,-340.73 659.77,-345.12 670.05,-347.7 669.42,-340.73"/>
</a>
</g>
<text text-anchor="middle" x="783.5" y="-339.5" font-family="Helvetica,sans-Serif" font-size="10.00" fill="grey"> id</text>
</g>
<!-- Node4 -->
<g id="Node000004" class="node">
<title>Node4</title>
<g id="a_Node000004"><a xlink:href="classSpecies.html" target="_top" xlink:title="Represents a generic species in the ecosystem.">
<polygon fill="white" stroke="#666666" points="658,-394 604,-394 604,-375 658,-375 658,-394"/>
<text text-anchor="middle" x="631" y="-382" font-family="Helvetica,sans-Serif" font-size="10.00">Species</text>
</a>
</g>
</g>
<!-- Node4&#45;&gt;Node2 -->
<g id="edge3_Node000002_Node000004" class="edge">
<title>Node4&#45;&gt;Node2</title>
<g id="a_edge3_Node000002_Node000004"><a xlink:title=" ">
<path fill="none" stroke="#9a32cd" stroke-dasharray="5,2" d="M668.24,-382.6C708.94,-379.53 776.45,-371.63 831,-351.5 849.69,-344.6 869,-332 881.23,-323.21"/>
<polygon fill="#9a32cd" stroke="#9a32cd" points="667.98,-379.11 658.24,-383.29 668.46,-386.09 667.98,-379.11"/>
</a>
</g>
<text text-anchor="middle" x="783.5" y="-376.5" font-family="Helvetica,sans-Serif" font-size="10.00" fill="grey"> mySpecies</text>
</g>
<!-- Node5 -->
<g id="Node000005" class="node">
<title>Node5</title>
<g id="a_Node000005"><a xlink:href="classSpecies_1_1ID.html" target="_top" xlink:title="Unique identifier for a Species.">
<polygon fill="white" stroke="#666666" points="284.5,-394 213.5,-394 213.5,-375 284.5,-375 284.5,-394"/>
<text text-anchor="middle" x="249" y="-382" font-family="Helvetica,sans-Serif" font-size="10.00">Species::ID</text>
</a>
</g>
</g>
<!-- Node5&#45;&gt;Node4 -->
<g id="edge4_Node000004_Node000005" class="edge">
<title>Node5&#45;&gt;Node4</title>
<g id="a_edge4_Node000004_Node000005"><a xlink:title=" ">
<path fill="none" stroke="#9a32cd" stroke-dasharray="5,2" d="M294.98,-384.5C375.03,-384.5 539.8,-384.5 603.78,-384.5"/>
<polygon fill="#9a32cd" stroke="#9a32cd" points="294.73,-381 284.73,-384.5 294.73,-388 294.73,-381"/>
</a>
</g>
<text text-anchor="middle" x="444.5" y="-387.5" font-family="Helvetica,sans-Serif" font-size="10.00" fill="grey"> id</text>
</g>
<!-- Node6 -->
<g id="Node000006" class="node">
<title>Node6</title>
<g id="a_Node000006"><a xlink:href="classTerrainCell.html" target="_top" xlink:title="Represents a single cell in the landscape.">
<polygon fill="white" stroke="#666666" points="665,-182 597,-182 597,-163 665,-163 665,-182"/>
<text text-anchor="middle" x="631" y="-170" font-family="Helvetica,sans-Serif" font-size="10.00">TerrainCell</text>
</a>
</g>
</g>
<!-- Node6&#45;&gt;Node2 -->
<g id="edge5_Node000002_Node000006" class="edge">
<title>Node6&#45;&gt;Node2</title>
<g id="a_edge5_Node000002_Node000006"><a xlink:title=" ">
<path fill="none" stroke="#9a32cd" stroke-dasharray="5,2" d="M675.41,-174.41C690.55,-177.14 706.59,-182.67 718,-193.5 738.19,-212.67 715.98,-234.15 736,-253.5 767.39,-283.84 790.49,-262.22 831,-278.5 848.3,-285.45 866.8,-296.17 879.25,-303.91"/>
<polygon fill="#9a32cd" stroke="#9a32cd" points="675.54,-170.89 665.14,-172.93 674.54,-177.82 675.54,-170.89"/>
</a>
</g>
<text text-anchor="middle" x="783.5" y="-281.5" font-family="Helvetica,sans-Serif" font-size="10.00" fill="grey"> terrainCell</text>
</g>
<!-- Node7 -->
<g id="Node000007" class="node">
<title>Node7</title>
<g id="a_Node000007"><a xlink:href="classPatchApplicator.html" target="_top" xlink:title="Applies patches to a TerrainCell including moisture, resources, obstacles, and habitat domains.">
<polygon fill="white" stroke="#666666" points="941,-221 849,-221 849,-202 941,-202 941,-221"/>
<text text-anchor="middle" x="895" y="-209" font-family="Helvetica,sans-Serif" font-size="10.00">PatchApplicator</text>
</a>
</g>
</g>
<!-- Node6&#45;&gt;Node7 -->
<g id="edge7_Node000007_Node000006" class="edge">
<title>Node6&#45;&gt;Node7</title>
<g id="a_edge7_Node000007_Node000006"><a xlink:title=" ">
<path fill="none" stroke="#9a32cd" stroke-dasharray="5,2" d="M675.26,-163.49C716.35,-156.77 779.34,-151.24 831,-167.5 852.38,-174.23 872.83,-191.07 884.36,-201.86"/>
<polygon fill="#9a32cd" stroke="#9a32cd" points="674.57,-160.06 665.31,-165.22 675.76,-166.96 674.57,-160.06"/>
</a>
</g>
<text text-anchor="middle" x="783.5" y="-170.5" font-family="Helvetica,sans-Serif" font-size="10.00" fill="grey"> owner</text>
</g>
<!-- Node7&#45;&gt;Node6 -->
<g id="edge6_Node000006_Node000007" class="edge">
<title>Node7&#45;&gt;Node6</title>
<g id="a_edge6_Node000006_Node000007"><a xlink:title=" ">
<path fill="none" stroke="#9a32cd" stroke-dasharray="5,2" d="M847.38,-199.77C841.88,-198.58 836.33,-197.45 831,-196.5 773.11,-186.15 704.93,-179.01 665.27,-175.35"/>
<polygon fill="#9a32cd" stroke="#9a32cd" points="846.64,-203.2 857.17,-201.99 848.19,-196.37 846.64,-203.2"/>
</a>
</g>
<text text-anchor="middle" x="783.5" y="-199.5" font-family="Helvetica,sans-Serif" font-size="10.00" fill="grey"> patchApplicator</text>
</g>
<!-- Node8 -->
<g id="Node000008" class="node">
<title>Node8</title>
<g id="a_Node000008"><a xlink:href="classCellMoistureInterface.html" target="_top" xlink:title="Base interface representing the hydrological and thermal properties of a terrain cell.">
<polygon fill="white" stroke="#666666" points="692,-221 570,-221 570,-202 692,-202 692,-221"/>
<text text-anchor="middle" x="631" y="-209" font-family="Helvetica,sans-Serif" font-size="10.00">CellMoistureInterface</text>
</a>
</g>
</g>
<!-- Node8&#45;&gt;Node7 -->
<g id="edge8_Node000007_Node000008" class="edge">
<title>Node8&#45;&gt;Node7</title>
<g id="a_edge8_Node000007_Node000008"><a xlink:title=" ">
<path fill="none" stroke="#9a32cd" stroke-dasharray="5,2" d="M702.14,-211.5C748.73,-211.5 808.53,-211.5 848.88,-211.5"/>
<polygon fill="#9a32cd" stroke="#9a32cd" points="702.11,-208 692.11,-211.5 702.11,-215 702.11,-208"/>
</a>
</g>
<text text-anchor="middle" x="783.5" y="-214.5" font-family="Helvetica,sans-Serif" font-size="10.00" fill="grey"> cellMoisture</text>
</g>
<!-- Node9 -->
<g id="Node000009" class="node">
<title>Node9</title>
<g id="a_Node000009"><a xlink:href="classCellElement.html" target="_top" xlink:title="Base class for any modifiable element contained within a terrain cell.">
<polygon fill="white" stroke="#666666" points="287,-271 211,-271 211,-252 287,-252 287,-271"/>
<text text-anchor="middle" x="249" y="-259" font-family="Helvetica,sans-Serif" font-size="10.00">CellElement</text>
</a>
</g>
</g>
<!-- Node9&#45;&gt;Node8 -->
<g id="edge9_Node000008_Node000009" class="edge">
<title>Node9&#45;&gt;Node8</title>
<g id="a_edge9_Node000008_Node000009"><a xlink:title=" ">
<path fill="none" stroke="#63b8ff" d="M297.25,-255.28C366.15,-246.22 494.15,-229.37 569.74,-219.43"/>
<polygon fill="#63b8ff" stroke="#63b8ff" points="296.59,-251.84 287.13,-256.61 297.5,-258.78 296.59,-251.84"/>
</a>
</g>
</g>
<!-- Node12 -->
<g id="Node000012" class="node">
<title>Node12</title>
<g id="a_Node000012"><a xlink:href="classCellObstacleInterface.html" target="_top" xlink:title="Interface for managing obstacles in a terrain cell.">
<polygon fill="white" stroke="#666666" points="692,-265 570,-265 570,-246 692,-246 692,-265"/>
<text text-anchor="middle" x="631" y="-253" font-family="Helvetica,sans-Serif" font-size="10.00">CellObstacleInterface</text>
</a>
</g>
</g>
<!-- Node9&#45;&gt;Node12 -->
<g id="edge13_Node000012_Node000009" class="edge">
<title>Node9&#45;&gt;Node12</title>
<g id="a_edge13_Node000012_Node000009"><a xlink:title=" ">
<path fill="none" stroke="#63b8ff" d="M297.25,-260.75C366.15,-259.67 494.15,-257.64 569.74,-256.45"/>
<polygon fill="#63b8ff" stroke="#63b8ff" points="297.07,-257.26 287.13,-260.91 297.18,-264.26 297.07,-257.26"/>
</a>
</g>
</g>
<!-- Node13 -->
<g id="Node000013" class="node">
<title>Node13</title>
<g id="a_Node000013"><a xlink:href="classCellHabitatDomainInterface.html" target="_top" xlink:title="Represents the habitat&#45;domain information associated with a terrain cell.">
<polygon fill="white" stroke="#666666" points="707.5,-320 554.5,-320 554.5,-301 707.5,-301 707.5,-320"/>
<text text-anchor="middle" x="631" y="-308" font-family="Helvetica,sans-Serif" font-size="10.00">CellHabitatDomainInterface</text>
</a>
</g>
</g>
<!-- Node9&#45;&gt;Node13 -->
<g id="edge15_Node000013_Node000009" class="edge">
<title>Node9&#45;&gt;Node13</title>
<g id="a_edge15_Node000013_Node000009"><a xlink:title=" ">
<path fill="none" stroke="#63b8ff" d="M297.07,-267.57C361.91,-275.93 479.37,-291.08 556.02,-300.96"/>
<polygon fill="#63b8ff" stroke="#63b8ff" points="297.49,-264.1 287.13,-266.29 296.6,-271.04 297.49,-264.1"/>
</a>
</g>
</g>
<!-- Node10 -->
<g id="Node000010" class="node">
<title>Node10</title>
<g id="a_Node000010"><a xlink:href="classWetMass.html" target="_top" xlink:title="Represents wet mass in the ecosystem simulation.">
<polygon fill="white" stroke="#666666" points="279.5,-233 218.5,-233 218.5,-214 279.5,-214 279.5,-233"/>
<text text-anchor="middle" x="249" y="-221" font-family="Helvetica,sans-Serif" font-size="10.00">WetMass</text>
</a>
</g>
</g>
<!-- Node10&#45;&gt;Node8 -->
<g id="edge10_Node000008_Node000010" class="edge">
<title>Node10&#45;&gt;Node8</title>
<g id="a_edge10_Node000008_Node000010"><a xlink:title=" ">
<path fill="none" stroke="#9a32cd" stroke-dasharray="5,2" d="M289.79,-218.23C311.41,-215.64 338.62,-212.79 363,-211.5 433.94,-207.74 515.63,-208.48 569.77,-209.68"/>
<polygon fill="#9a32cd" stroke="#9a32cd" points="289.17,-214.79 279.67,-219.48 290.02,-221.73 289.17,-214.79"/>
</a>
</g>
<text text-anchor="middle" x="444.5" y="-214.5" font-family="Helvetica,sans-Serif" font-size="10.00" fill="grey"> totalMaximumResourceCapacity</text>
</g>
<!-- Node11 -->
<g id="Node000011" class="node">
<title>Node11</title>
<g id="a_Node000011"><a xlink:href="classPreciseDouble.html" target="_top" xlink:title="Class for precise double&#45;precision floating&#45;point arithmetic.">
<polygon fill="white" stroke="#666666" points="86,-199 0,-199 0,-180 86,-180 86,-199"/>
<text text-anchor="middle" x="43" y="-187" font-family="Helvetica,sans-Serif" font-size="10.00">PreciseDouble</text>
</a>
</g>
</g>
<!-- Node11&#45;&gt;Node6 -->
<g id="edge18_Node000006_Node000011" class="edge">
<title>Node11&#45;&gt;Node6</title>
<g id="a_edge18_Node000006_Node000011"><a xlink:title=" ">
<path fill="none" stroke="#9a32cd" stroke-dasharray="5,2" d="M96.19,-186.29C114.18,-185.27 134.47,-184.22 153,-183.5 319.58,-177 519.04,-173.92 596.74,-172.9"/>
<polygon fill="#9a32cd" stroke="#9a32cd" points="95.95,-182.8 86.17,-186.86 96.36,-189.78 95.95,-182.8"/>
</a>
</g>
<text text-anchor="middle" x="249" y="-197.5" font-family="Helvetica,sans-Serif" font-size="10.00" fill="grey"> hyperVolume</text>
<text text-anchor="middle" x="249" y="-186.5" font-family="Helvetica,sans-Serif" font-size="10.00" fill="grey">size</text>
</g>
<!-- Node11&#45;&gt;Node10 -->
<g id="edge11_Node000010_Node000011" class="edge">
<title>Node11&#45;&gt;Node10</title>
<g id="a_edge11_Node000010_Node000011"><a xlink:title=" ">
<path fill="none" stroke="#9a32cd" stroke-dasharray="5,2" d="M96.32,-198.22C135.05,-204.68 186.42,-213.24 218.33,-218.55"/>
<polygon fill="#9a32cd" stroke="#9a32cd" points="96.71,-194.74 86.27,-196.54 95.56,-201.64 96.71,-194.74"/>
</a>
</g>
<text text-anchor="middle" x="119.5" y="-206.5" font-family="Helvetica,sans-Serif" font-size="10.00" fill="grey"> value</text>
</g>
<!-- Node12&#45;&gt;Node7 -->
<g id="edge12_Node000007_Node000012" class="edge">
<title>Node12&#45;&gt;Node7</title>
<g id="a_edge12_Node000007_Node000012"><a xlink:title=" ">
<path fill="none" stroke="#9a32cd" stroke-dasharray="5,2" d="M702.14,-244.73C740.3,-238.74 788.29,-231 831,-223.5 836.81,-222.48 842.92,-221.37 848.95,-220.24"/>
<polygon fill="#9a32cd" stroke="#9a32cd" points="701.5,-241.28 692.16,-246.29 702.58,-248.2 701.5,-241.28"/>
</a>
</g>
<text text-anchor="middle" x="783.5" y="-241.5" font-family="Helvetica,sans-Serif" font-size="10.00" fill="grey"> cellObstacle</text>
</g>
<!-- Node13&#45;&gt;Node7 -->
<g id="edge14_Node000007_Node000013" class="edge">
<title>Node13&#45;&gt;Node7</title>
<g id="a_edge14_Node000007_Node000013"><a xlink:title=" ">
<path fill="none" stroke="#9a32cd" stroke-dasharray="5,2" d="M717.79,-308.94C762.42,-306.82 811.63,-302.07 831,-291.5 860.64,-275.33 881.12,-238.76 889.61,-221.23"/>
<polygon fill="#9a32cd" stroke="#9a32cd" points="717.59,-305.44 707.75,-309.37 717.9,-312.43 717.59,-305.44"/>
</a>
</g>
<text text-anchor="middle" x="783.5" y="-310.5" font-family="Helvetica,sans-Serif" font-size="10.00" fill="grey"> cellHabitatDomain</text>
</g>
<!-- Node14 -->
<g id="Node000014" class="node">
<title>Node14</title>
<g id="a_Node000014"><a xlink:href="classCustomIndexedVector.html" target="_top" xlink:title=" ">
<polygon fill="white" stroke="#666666" points="345,-340 153,-340 153,-299 345,-299 345,-340"/>
<text text-anchor="start" x="161" y="-328" font-family="Helvetica,sans-Serif" font-size="10.00">CustomIndexedVector</text>
<text text-anchor="start" x="161" y="-317" font-family="Helvetica,sans-Serif" font-size="10.00">&lt; AnimalSpeciesID, CustomIndexed</text>
<text text-anchor="middle" x="249" y="-306" font-family="Helvetica,sans-Serif" font-size="10.00">Vector&lt; Instar, bool &gt; &gt;</text>
</a>
</g>
</g>
<!-- Node14&#45;&gt;Node13 -->
<g id="edge16_Node000013_Node000014" class="edge">
<title>Node14&#45;&gt;Node13</title>
<g id="a_edge16_Node000013_Node000014"><a xlink:title=" ">
<path fill="none" stroke="#9a32cd" stroke-dasharray="5,2" d="M355.78,-316.99C418.85,-315.5 497.45,-313.64 554.3,-312.29"/>
<polygon fill="#9a32cd" stroke="#9a32cd" points="355.31,-313.5 345.4,-317.24 355.48,-320.5 355.31,-313.5"/>
</a>
</g>
<text text-anchor="middle" x="444.5" y="-319.5" font-family="Helvetica,sans-Serif" font-size="10.00" fill="grey"> habitatDomainStatus</text>
</g>
<!-- Node15 -->
<g id="Node000015" class="node">
<title>Node15</title>
<g id="a_Node000015"><a xlink:href="classPointMap.html" target="_top" xlink:title="Represents a point in a discrete map coordinate system.">
<polygon fill="white" stroke="#666666" points="280,-89 218,-89 218,-70 280,-70 280,-89"/>
<text text-anchor="middle" x="249" y="-77" font-family="Helvetica,sans-Serif" font-size="10.00">PointMap</text>
</a>
</g>
</g>
<!-- Node15&#45;&gt;Node6 -->
<g id="edge17_Node000006_Node000015" class="edge">
<title>Node15&#45;&gt;Node6</title>
<g id="a_edge17_Node000006_Node000015"><a xlink:title=" ">
<path fill="none" stroke="#9a32cd" stroke-dasharray="5,2" d="M290.59,-75.89C346.96,-72.74 450.5,-73.82 526,-114.5 536.82,-120.33 534.1,-128.22 544,-135.5 560.5,-147.64 581.59,-156.79 598.75,-162.95"/>
<polygon fill="#9a32cd" stroke="#9a32cd" points="290.06,-72.41 280.31,-76.54 290.51,-79.4 290.06,-72.41"/>
</a>
</g>
<text text-anchor="middle" x="444.5" y="-117.5" font-family="Helvetica,sans-Serif" font-size="10.00" fill="grey"> position</text>
</g>
<!-- Node16 -->
<g id="Node000016" class="node">
<title>Node16</title>
<g id="a_Node000016"><a xlink:href="classCustomIndexedVector.html" target="_top" xlink:title="A vector container indexed by a custom type with bounds checking.">
<polygon fill="white" stroke="#666666" points="326.5,-137.5 171.5,-137.5 171.5,-107.5 326.5,-107.5 326.5,-137.5"/>
<text text-anchor="start" x="179.5" y="-125.5" font-family="Helvetica,sans-Serif" font-size="10.00">CustomIndexedVector</text>
<text text-anchor="middle" x="249" y="-114.5" font-family="Helvetica,sans-Serif" font-size="10.00">&lt; IndexType, ContentType &gt;</text>
</a>
</g>
</g>
<!-- Node16&#45;&gt;Node6 -->
<g id="edge19_Node000006_Node000016" class="edge">
<title>Node16&#45;&gt;Node6</title>
<g id="a_edge19_Node000006_Node000016"><a xlink:title=" ">
<path fill="none" stroke="#9a32cd" stroke-dasharray="5,2" d="M336.77,-127.71C391.32,-131.71 463.05,-138.32 526,-148.5 549.96,-152.38 576.63,-158.57 596.97,-163.69"/>
<polygon fill="#9a32cd" stroke="#9a32cd" points="337.01,-124.21 326.79,-126.99 336.51,-131.2 337.01,-124.21"/>
</a>
</g>
<text text-anchor="middle" x="444.5" y="-151.5" font-family="Helvetica,sans-Serif" font-size="10.00" fill="grey"> animals</text>
</g>
<!-- Node17 -->
<g id="Node000017" class="node">
<title>Node17</title>
<g id="a_Node000017"><a xlink:href="classGenetics.html" target="_top" xlink:title="Represents the genetic information and traits of an individual.">
<polygon fill="white" stroke="#666666" points="924.5,-99 865.5,-99 865.5,-80 924.5,-80 924.5,-99"/>
<text text-anchor="middle" x="895" y="-87" font-family="Helvetica,sans-Serif" font-size="10.00">Genetics</text>
</a>
</g>
</g>
<!-- Node17&#45;&gt;Node1 -->
<g id="edge20_Node000001_Node000017" class="edge">
<title>Node17&#45;&gt;Node1</title>
<g id="a_edge20_Node000001_Node000017"><a xlink:title=" ">
<path fill="none" stroke="#9a32cd" stroke-dasharray="5,2" d="M921.83,-104.09C952.58,-121.46 1003.06,-149.97 1029.36,-164.82"/>
<polygon fill="#9a32cd" stroke="#9a32cd" points="923.4,-100.96 912.97,-99.09 919.96,-107.05 923.4,-100.96"/>
</a>
</g>
<text text-anchor="middle" x="981.5" y="-151.5" font-family="Helvetica,sans-Serif" font-size="10.00" fill="grey"> genetics</text>
</g>
<!-- Node18 -->
<g id="Node000018" class="node">
<title>Node18</title>
<g id="a_Node000018"><a xlink:href="classAnimalSpeciesGenetics.html" target="_top" xlink:title="Manages the genetic architecture of an animal species.">
<polygon fill="white" stroke="#666666" points="696.5,-30 565.5,-30 565.5,-11 696.5,-11 696.5,-30"/>
<text text-anchor="middle" x="631" y="-18" font-family="Helvetica,sans-Serif" font-size="10.00">AnimalSpeciesGenetics</text>
</a>
</g>
</g>
<!-- Node18&#45;&gt;Node17 -->
<g id="edge21_Node000017_Node000018" class="edge">
<title>Node18&#45;&gt;Node17</title>
<g id="a_edge21_Node000017_Node000018"><a xlink:title=" ">
<path fill="none" stroke="#9a32cd" stroke-dasharray="5,2" d="M706.55,-27.19C744.57,-32.11 791.09,-40.46 831,-54.5 848.94,-60.81 867.79,-71.97 880.14,-79.99"/>
<polygon fill="#9a32cd" stroke="#9a32cd" points="706.92,-23.71 696.57,-25.95 706.06,-30.66 706.92,-23.71"/>
</a>
</g>
<text text-anchor="middle" x="783.5" y="-57.5" font-family="Helvetica,sans-Serif" font-size="10.00" fill="grey"> speciesGenetics</text>
</g>
<!-- Node19 -->
<g id="Node000019" class="node">
<title>Node19</title>
<g id="a_Node000019"><a xlink:href="classCustomIndexedVector.html" target="_top" xlink:title=" ">
<polygon fill="white" stroke="#666666" points="316,-41 182,-41 182,0 316,0 316,-41"/>
<text text-anchor="start" x="190" y="-29" font-family="Helvetica,sans-Serif" font-size="10.00">CustomIndexedVector</text>
<text text-anchor="start" x="190" y="-18" font-family="Helvetica,sans-Serif" font-size="10.00">&lt; Trait::ExecutionOrder,</text>
<text text-anchor="middle" x="249" y="-7" font-family="Helvetica,sans-Serif" font-size="10.00"> std::vector&lt; Trait * &gt; &gt;</text>
</a>
</g>
</g>
<!-- Node19&#45;&gt;Node18 -->
<g id="edge22_Node000018_Node000019" class="edge">
<title>Node19&#45;&gt;Node18</title>
<g id="a_edge22_Node000018_Node000019"><a xlink:title=" ">
<path fill="none" stroke="#9a32cd" stroke-dasharray="5,2" d="M326.28,-20.5C396.34,-20.5 499.03,-20.5 565.2,-20.5"/>
<polygon fill="#9a32cd" stroke="#9a32cd" points="326.19,-17 316.19,-20.5 326.19,-24 326.19,-17"/>
</a>
</g>
<text text-anchor="middle" x="444.5" y="-23.5" font-family="Helvetica,sans-Serif" font-size="10.00" fill="grey"> allTraits</text>
</g>
<!-- Node20 -->
<g id="Node000020" class="node">
<title>Node20</title>
<g id="a_Node000020"><a xlink:href="classGenome.html" target="_top" xlink:title="Represents a genome with homologous chromosomes and correlosomes.">
<polygon fill="white" stroke="#666666" points="660,-126 602,-126 602,-107 660,-107 660,-126"/>
<text text-anchor="middle" x="631" y="-114" font-family="Helvetica,sans-Serif" font-size="10.00">Genome</text>
</a>
</g>
</g>
<!-- Node20&#45;&gt;Node17 -->
<g id="edge23_Node000017_Node000020" class="edge">
<title>Node20&#45;&gt;Node17</title>
<g id="a_edge23_Node000017_Node000020"><a xlink:title=" ">
<path fill="none" stroke="#9a32cd" stroke-dasharray="5,2" d="M670.06,-112.58C723.06,-107.12 817.94,-97.34 865.37,-92.45"/>
<polygon fill="#9a32cd" stroke="#9a32cd" points="669.63,-109.1 660.04,-113.61 670.34,-116.07 669.63,-109.1"/>
</a>
</g>
<text text-anchor="middle" x="783.5" y="-107.5" font-family="Helvetica,sans-Serif" font-size="10.00" fill="grey"> genome</text>
</g>
<!-- Node21 -->
<g id="Node000021" class="node">
<title>Node21</title>
<g id="a_Node000021"><a xlink:href="classCustomIndexedVector.html" target="_top" xlink:title=" ">
<polygon fill="white" stroke="#666666" points="718,-89 544,-89 544,-48 718,-48 718,-89"/>
<text text-anchor="start" x="552" y="-77" font-family="Helvetica,sans-Serif" font-size="10.00">CustomIndexedVector</text>
<text text-anchor="start" x="552" y="-66" font-family="Helvetica,sans-Serif" font-size="10.00">&lt; Trait::ExecutionOrder,</text>
<text text-anchor="middle" x="631" y="-55" font-family="Helvetica,sans-Serif" font-size="10.00"> std::vector&lt; IndividualTrait &gt; &gt;</text>
</a>
</g>
</g>
<!-- Node21&#45;&gt;Node17 -->
<g id="edge24_Node000017_Node000021" class="edge">
<title>Node21&#45;&gt;Node17</title>
<g id="a_edge24_Node000017_Node000021"><a xlink:title=" ">
<path fill="none" stroke="#9a32cd" stroke-dasharray="5,2" d="M728.45,-69.21C761.1,-70.29 797.72,-72.43 831,-76.5 842.31,-77.88 854.6,-80.23 865.31,-82.55"/>
<polygon fill="#9a32cd" stroke="#9a32cd" points="728.55,-65.71 718.45,-68.91 728.34,-72.71 728.55,-65.71"/>
</a>
</g>
<text text-anchor="middle" x="783.5" y="-79.5" font-family="Helvetica,sans-Serif" font-size="10.00" fill="grey"> allIndividualTraits</text>
</g>
</g>
</svg>
