<?xml version="1.0" encoding="UTF-8" standalone="no"?>
<!DOCTYPE svg PUBLIC "-//W3C//DTD SVG 1.1//EN"
 "http://www.w3.org/Graphics/SVG/1.1/DTD/svg11.dtd">
<!-- Generated by graphviz version 2.43.0 (0)
 -->
<!-- Title: Edible Pages: 1 -->
<svg width="476pt" height="192pt"
 viewBox="0.00 0.00 475.50 192.00" xmlns="http://www.w3.org/2000/svg" xmlns:xlink="http://www.w3.org/1999/xlink">
<g id="graph0" class="graph" transform="scale(1 1) rotate(0) translate(4 188)">
<title>Edible</title>
<!-- Node1 -->
<g id="Node000001" class="node">
<title>Node1</title>
<g id="a_Node000001"><a xlink:title="Represents a generic edible entity within a terrain cell.">
<polygon fill="#999999" stroke="#666666" points="273,-184 226,-184 226,-165 273,-165 273,-184"/>
<text text-anchor="middle" x="249.5" y="-172" font-family="Helvetica,sans-Serif" font-size="10.00">Edible</text>
</a>
</g>
</g>
<!-- Node2 -->
<g id="Node000002" class="node">
<title>Node2</title>
<g id="a_Node000002"><a xlink:href="classAnimal.html" target="_top" xlink:title="Abstract base class representing an individual animal.">
<polygon fill="white" stroke="#666666" points="213,-129 162,-129 162,-110 213,-110 213,-129"/>
<text text-anchor="middle" x="187.5" y="-117" font-family="Helvetica,sans-Serif" font-size="10.00">Animal</text>
</a>
</g>
</g>
<!-- Node1&#45;&gt;Node2 -->
<g id="edge1_Node000001_Node000002" class="edge">
<title>Node1&#45;&gt;Node2</title>
<g id="a_edge1_Node000001_Node000002"><a xlink:title=" ">
<path fill="none" stroke="#63b8ff" d="M231.75,-158.32C220.69,-148.87 206.87,-137.06 197.64,-129.17"/>
<polygon fill="#63b8ff" stroke="#63b8ff" points="229.66,-161.15 239.54,-164.98 234.21,-155.83 229.66,-161.15"/>
</a>
</g>
</g>
<!-- Node6 -->
<g id="Node000006" class="node">
<title>Node6</title>
<g id="a_Node000006"><a xlink:href="classCellResourceInterface.html" target="_top" xlink:title="Interface for a resource in a terrain cell.">
<polygon fill="white" stroke="#666666" points="374.5,-129 250.5,-129 250.5,-110 374.5,-110 374.5,-129"/>
<text text-anchor="middle" x="312.5" y="-117" font-family="Helvetica,sans-Serif" font-size="10.00">CellResourceInterface</text>
</a>
</g>
</g>
<!-- Node1&#45;&gt;Node6 -->
<g id="edge5_Node000001_Node000006" class="edge">
<title>Node1&#45;&gt;Node6</title>
<g id="a_edge5_Node000001_Node000006"><a xlink:title=" ">
<path fill="none" stroke="#63b8ff" d="M267.54,-158.32C278.77,-148.87 292.82,-137.06 302.19,-129.17"/>
<polygon fill="#63b8ff" stroke="#63b8ff" points="265.02,-155.87 259.62,-164.98 269.53,-161.23 265.02,-155.87"/>
</a>
</g>
</g>
<!-- Node3 -->
<g id="Node000003" class="node">
<title>Node3</title>
<g id="a_Node000003"><a xlink:href="classAnimalNonStatistical.html" target="_top" xlink:title="Concrete subclass of Animal implementing detailed individual&#45;based behavior.">
<polygon fill="white" stroke="#666666" points="119,-74 0,-74 0,-55 119,-55 119,-74"/>
<text text-anchor="middle" x="59.5" y="-62" font-family="Helvetica,sans-Serif" font-size="10.00">AnimalNonStatistical</text>
</a>
</g>
</g>
<!-- Node2&#45;&gt;Node3 -->
<g id="edge2_Node000002_Node000003" class="edge">
<title>Node2&#45;&gt;Node3</title>
<g id="a_edge2_Node000002_Node000003"><a xlink:title=" ">
<path fill="none" stroke="#63b8ff" d="M157.38,-106.03C133.71,-96.23 101.35,-82.83 80.44,-74.17"/>
<polygon fill="#63b8ff" stroke="#63b8ff" points="156.36,-109.39 166.93,-109.98 159.03,-102.93 156.36,-109.39"/>
</a>
</g>
</g>
<!-- Node5 -->
<g id="Node000005" class="node">
<title>Node5</title>
<g id="a_Node000005"><a xlink:href="classAnimalStatistical.html" target="_top" xlink:title="Concrete implementation of Animal for statistical modeling.">
<polygon fill="white" stroke="#666666" points="237.5,-74 137.5,-74 137.5,-55 237.5,-55 237.5,-74"/>
<text text-anchor="middle" x="187.5" y="-62" font-family="Helvetica,sans-Serif" font-size="10.00">AnimalStatistical</text>
</a>
</g>
</g>
<!-- Node2&#45;&gt;Node5 -->
<g id="edge4_Node000002_Node000005" class="edge">
<title>Node2&#45;&gt;Node5</title>
<g id="a_edge4_Node000002_Node000005"><a xlink:title=" ">
<path fill="none" stroke="#63b8ff" d="M187.5,-99.66C187.5,-90.93 187.5,-80.99 187.5,-74.09"/>
<polygon fill="#63b8ff" stroke="#63b8ff" points="184,-99.75 187.5,-109.75 191,-99.75 184,-99.75"/>
</a>
</g>
</g>
<!-- Node4 -->
<g id="Node000004" class="node">
<title>Node4</title>
<g id="a_Node000004"><a xlink:href="classSpatialTreeAnimal.html" target="_top" xlink:title="Represents a non&#45;statistical animal located in a spatial tree terrain.">
<polygon fill="white" stroke="#666666" points="112,-19 7,-19 7,0 112,0 112,-19"/>
<text text-anchor="middle" x="59.5" y="-7" font-family="Helvetica,sans-Serif" font-size="10.00">SpatialTreeAnimal</text>
</a>
</g>
</g>
<!-- Node3&#45;&gt;Node4 -->
<g id="edge3_Node000003_Node000004" class="edge">
<title>Node3&#45;&gt;Node4</title>
<g id="a_edge3_Node000003_Node000004"><a xlink:title=" ">
<path fill="none" stroke="#63b8ff" d="M59.5,-44.66C59.5,-35.93 59.5,-25.99 59.5,-19.09"/>
<polygon fill="#63b8ff" stroke="#63b8ff" points="56,-44.75 59.5,-54.75 63,-44.75 56,-44.75"/>
</a>
</g>
</g>
<!-- Node7 -->
<g id="Node000007" class="node">
<title>Node7</title>
<g id="a_Node000007"><a xlink:href="classBranchCellResource.html" target="_top" xlink:title="Resource representation for branch nodes in a spatial tree.">
<polygon fill="white" stroke="#666666" points="369.5,-74 255.5,-74 255.5,-55 369.5,-55 369.5,-74"/>
<text text-anchor="middle" x="312.5" y="-62" font-family="Helvetica,sans-Serif" font-size="10.00">BranchCellResource</text>
</a>
</g>
</g>
<!-- Node6&#45;&gt;Node7 -->
<g id="edge6_Node000006_Node000007" class="edge">
<title>Node6&#45;&gt;Node7</title>
<g id="a_edge6_Node000006_Node000007"><a xlink:title=" ">
<path fill="none" stroke="#63b8ff" d="M312.5,-99.66C312.5,-90.93 312.5,-80.99 312.5,-74.09"/>
<polygon fill="#63b8ff" stroke="#63b8ff" points="309,-99.75 312.5,-109.75 316,-99.75 309,-99.75"/>
</a>
</g>
</g>
<!-- Node8 -->
<g id="Node000008" class="node">
<title>Node8</title>
<g id="a_Node000008"><a xlink:href="classCellResource.html" target="_top" xlink:title="Concrete implementation of a resource cell.">
<polygon fill="white" stroke="#666666" points="467.5,-74 387.5,-74 387.5,-55 467.5,-55 467.5,-74"/>
<text text-anchor="middle" x="427.5" y="-62" font-family="Helvetica,sans-Serif" font-size="10.00">CellResource</text>
</a>
</g>
</g>
<!-- Node6&#45;&gt;Node8 -->
<g id="edge7_Node000006_Node000008" class="edge">
<title>Node6&#45;&gt;Node8</title>
<g id="a_edge7_Node000006_Node000008"><a xlink:title=" ">
<path fill="none" stroke="#63b8ff" d="M340.13,-105.77C361.34,-95.99 390.06,-82.75 408.69,-74.17"/>
<polygon fill="#63b8ff" stroke="#63b8ff" points="338.59,-102.62 330.98,-109.98 341.52,-108.98 338.59,-102.62"/>
</a>
</g>
</g>
</g>
</svg>
