<?xml version="1.0" encoding="UTF-8" standalone="no"?>
<!DOCTYPE svg PUBLIC "-//W3C//DTD SVG 1.1//EN"
 "http://www.w3.org/Graphics/SVG/1.1/DTD/svg11.dtd">
<!-- Generated by graphviz version 2.43.0 (0)
 -->
<!-- Title: EscapeProbability Pages: 1 -->
<svg width="342pt" height="159pt"
 viewBox="0.00 0.00 342.00 159.00" xmlns="http://www.w3.org/2000/svg" xmlns:xlink="http://www.w3.org/1999/xlink">

<svg id="main" version="1.1" xmlns="http://www.w3.org/2000/svg" xmlns:xlink="http://www.w3.org/1999/xlink" xml:space="preserve" onload="init(evt)">
<style type="text/css"><![CDATA[
.node, .edge {opacity: 0.7;}
.node.selected, .edge.selected {opacity: 1;}
.edge:hover path { stroke: red; }
.edge:hover polygon { stroke: red; fill: red; }
]]></style>
<script type="application/ecmascript" xlink:href="svg.min.js"/>
<svg id="graph" class="graph">
<g id="graph0" class="graph" transform="scale(1 1) rotate(0) translate(4 155)">
<title>EscapeProbability</title>
<!-- Node1 -->
<g id="Node000001" class="node">
<title>Node1</title>
<g id="a_Node000001"><a xlink:title="Manages the escape probability functions for a prey in predator&#45;prey interactions.">
<polygon fill="#999999" stroke="#666666" points="234,-19 130,-19 130,0 234,0 234,-19"/>
<text text-anchor="middle" x="182" y="-7" font-family="Helvetica,sans-Serif" font-size="10.00">EscapeProbability</text>
</a>
</g>
</g>
<!-- Node2 -->
<g id="Node000002" class="node">
<title>Node2</title>
<g id="a_Node000002"><a xlink:href="classAnimalDecisionProbability.html" target="_top" xlink:title="Abstract class for decision probabilities specific to animal interactions.">
<polygon fill="white" stroke="#666666" points="146,-85 0,-85 0,-66 146,-66 146,-85"/>
<text text-anchor="middle" x="73" y="-73" font-family="Helvetica,sans-Serif" font-size="10.00">AnimalDecisionProbability</text>
</a>
</g>
</g>
<!-- Node2&#45;&gt;Node1 -->
<g id="edge1_Node000001_Node000002" class="edge">
<title>Node2&#45;&gt;Node1</title>
<g id="a_edge1_Node000001_Node000002"><a xlink:title=" ">
<path fill="none" stroke="#63b8ff" d="M96.52,-60.69C117.97,-48.09 149.01,-29.87 167.18,-19.2"/>
<polygon fill="#63b8ff" stroke="#63b8ff" points="94.55,-57.79 87.7,-65.87 98.1,-63.82 94.55,-57.79"/>
</a>
</g>
</g>
<!-- Node3 -->
<g id="Node000003" class="node">
<title>Node3</title>
<g id="a_Node000003"><a xlink:href="classDecisionProbability.html" target="_top" xlink:title="Abstract base class for probability calculations in predator&#45;prey decisions.">
<polygon fill="white" stroke="#666666" points="128.5,-151 17.5,-151 17.5,-132 128.5,-132 128.5,-151"/>
<text text-anchor="middle" x="73" y="-139" font-family="Helvetica,sans-Serif" font-size="10.00">DecisionProbability</text>
</a>
</g>
</g>
<!-- Node3&#45;&gt;Node2 -->
<g id="edge2_Node000002_Node000003" class="edge">
<title>Node3&#45;&gt;Node2</title>
<g id="a_edge2_Node000002_Node000003"><a xlink:title=" ">
<path fill="none" stroke="#63b8ff" d="M73,-121.58C73,-109.63 73,-94.72 73,-85.41"/>
<polygon fill="#63b8ff" stroke="#63b8ff" points="69.5,-121.87 73,-131.87 76.5,-121.87 69.5,-121.87"/>
</a>
</g>
</g>
<!-- Node4 -->
<g id="Node000004" class="node">
<title>Node4</title>
<g id="a_Node000004"><a xlink:href="classSensoryModel.html" target="_top" xlink:title="Represents a sensory detection model used to calculate the probability of detecting an object based o...">
<polygon fill="white" stroke="#666666" points="334,-85 248,-85 248,-66 334,-66 334,-85"/>
<text text-anchor="middle" x="291" y="-73" font-family="Helvetica,sans-Serif" font-size="10.00">SensoryModel</text>
</a>
</g>
</g>
<!-- Node4&#45;&gt;Node1 -->
<g id="edge3_Node000001_Node000004" class="edge">
<title>Node4&#45;&gt;Node1</title>
<g id="a_edge3_Node000001_Node000004"><a xlink:title=" ">
<path fill="none" stroke="#9a32cd" stroke-dasharray="5,2" d="M267.48,-60.69C246.03,-48.09 214.99,-29.87 196.82,-19.2"/>
<polygon fill="#9a32cd" stroke="#9a32cd" points="265.9,-63.82 276.3,-65.87 269.45,-57.79 265.9,-63.82"/>
</a>
</g>
<text text-anchor="middle" x="279" y="-40" font-family="Helvetica,sans-Serif" font-size="10.00" fill="grey"> sensoryModel</text>
</g>
<!-- Node5 -->
<g id="Node000005" class="node">
<title>Node5</title>
<g id="a_Node000005"><a xlink:href="classPreciseDouble.html" target="_top" xlink:title="Class for precise double&#45;precision floating&#45;point arithmetic.">
<polygon fill="white" stroke="#666666" points="265,-151 179,-151 179,-132 265,-132 265,-151"/>
<text text-anchor="middle" x="222" y="-139" font-family="Helvetica,sans-Serif" font-size="10.00">PreciseDouble</text>
</a>
</g>
</g>
<!-- Node5&#45;&gt;Node1 -->
<g id="edge5_Node000001_Node000005" class="edge">
<title>Node5&#45;&gt;Node1</title>
<g id="a_edge5_Node000001_Node000005"><a xlink:title=" ">
<path fill="none" stroke="#9a32cd" stroke-dasharray="5,2" d="M210.12,-123.35C203.39,-112.78 195.45,-98.66 191,-85 183.58,-62.21 182.18,-33.69 181.97,-19.46"/>
<polygon fill="#9a32cd" stroke="#9a32cd" points="207.38,-125.56 215.82,-131.96 213.21,-121.69 207.38,-125.56"/>
</a>
</g>
<text text-anchor="middle" x="215" y="-73" font-family="Helvetica,sans-Serif" font-size="10.00" fill="grey"> cVelocity</text>
</g>
<!-- Node5&#45;&gt;Node4 -->
<g id="edge4_Node000004_Node000005" class="edge">
<title>Node5&#45;&gt;Node4</title>
<g id="a_edge4_Node000004_Node000005"><a xlink:title=" ">
<path fill="none" stroke="#9a32cd" stroke-dasharray="5,2" d="M238.89,-124.83C252.25,-112.44 270.42,-95.59 281.4,-85.41"/>
<polygon fill="#9a32cd" stroke="#9a32cd" points="236.26,-122.5 231.31,-131.87 241.02,-127.63 236.26,-122.5"/>
</a>
</g>
<text text-anchor="middle" x="272.5" y="-106" font-family="Helvetica,sans-Serif" font-size="10.00" fill="grey"> beta</text>
</g>
</g>
</svg>
</svg>

<style type='text/css'>
<![CDATA[
[data-mouse-over-selected='false'] { opacity: 0.7; }
[data-mouse-over-selected='true']  { opacity: 1.0; }
]]>
</style>
<script type="application/ecmascript"><![CDATA[
document.addEventListener('DOMContentLoaded', (event) => {
  highlightEdges();
  highlightAdjacentNodes();
});
]]></script>
</svg>
