<?xml version="1.0" encoding="UTF-8" standalone="no"?>
<!DOCTYPE svg PUBLIC "-//W3C//DTD SVG 1.1//EN"
 "http://www.w3.org/Graphics/SVG/1.1/DTD/svg11.dtd">
<!-- Generated by graphviz version 2.43.0 (0)
 -->
<!-- Title: SpatialTree Pages: 1 -->
<!--zoomable 351 -->

<svg id="main" version="1.1" xmlns="http://www.w3.org/2000/svg" xmlns:xlink="http://www.w3.org/1999/xlink" xml:space="preserve" onload="init(evt)">
<style type="text/css"><![CDATA[
.node, .edge {opacity: 0.7;}
.node.selected, .edge.selected {opacity: 1;}
.edge:hover path { stroke: red; }
.edge:hover polygon { stroke: red; fill: red; }
]]></style>

<defs>
  <circle id="rim" cx="0" cy="0" r="7"/>
  <circle id="rim2" cx="0" cy="0" r="3.5"/>
  <g id="zoomPlus">
    <use xlink:href="#rim" fill="#404040"><set attributeName="fill" to="#808080" begin="zoomplus.mouseover" end="zoomplus.mouseout"/></use>
    <path d="M-4,0h8M0,-4v8" fill="none" stroke="white" stroke-width="1.5" pointer-events="none"/>
  </g>
  <g id="zoomMin">
    <use xlink:href="#rim" fill="#404040"><set attributeName="fill" to="#808080" begin="zoomminus.mouseover" end="zoomminus.mouseout"/></use>
    <path d="M-4,0h8" fill="none" stroke="white" stroke-width="1.5" pointer-events="none"/>
  </g>
  <g id="arrowUp" transform="translate(30 24)">
    <use xlink:href="#rim"/>
    <path pointer-events="none" fill="none" stroke="white" stroke-width="1.5" d="M0,-3.0v7 M-2.5,-0.5L0,-3.0L2.5,-0.5"/>
  </g>
  <g id="arrowRight" transform="rotate(90) translate(36 -43)">
    <use xlink:href="#rim"/>
    <path pointer-events="none" fill="none" stroke="white" stroke-width="1.5" d="M0,-3.0v7 M-2.5,-0.5L0,-3.0L2.5,-0.5"/>
  </g>
  <g id="arrowDown" transform="rotate(180) translate(-30 -48)">
    <use xlink:href="#rim"/>
    <path pointer-events="none" fill="none" stroke="white" stroke-width="1.5" d="M0,-3.0v7 M-2.5,-0.5L0,-3.0L2.5,-0.5"/>
  </g>
  <g id="arrowLeft" transform="rotate(270) translate(-36 17)">
    <use xlink:href="#rim"/>
    <path pointer-events="none" fill="none" stroke="white" stroke-width="1.5" d="M0,-3.0v7 M-2.5,-0.5L0,-3.0L2.5,-0.5"/>
  </g>
  <g id="resetDef">
    <use xlink:href="#rim2" fill="#404040"><set attributeName="fill" to="#808080" begin="reset.mouseover" end="reset.mouseout"/></use>
  </g>
</defs>
<script type="application/ecmascript">
var viewWidth = 1766;
var viewHeight = 351;
var sectionId = 'dynsection-1';
</script>
<script type="application/ecmascript" xlink:href="svg.min.js"/>
<svg id="graph" class="graph">
<g id="viewport">
<title>SpatialTree</title>
<!-- Node1 -->
<g id="Node000001" class="node">
<title>Node1</title>
<g id="a_Node000001"><a xlink:title="SpatialTree map implementation for hierarchical spatial organization.">
<polygon fill="#999999" stroke="#666666" points="1758,-259.32 1687,-259.32 1687,-240.32 1758,-240.32 1758,-259.32"/>
<text text-anchor="middle" x="1722.5" y="-247.32" font-family="Helvetica,sans-Serif" font-size="10.00">SpatialTree</text>
</a>
</g>
</g>
<!-- Node2 -->
<g id="Node000002" class="node">
<title>Node2</title>
<g id="a_Node000002"><a xlink:href="classMap.html" target="_top" xlink:title="Abstract base class for spatial landscape representations.">
<polygon fill="white" stroke="#666666" points="786,-278.32 748,-278.32 748,-259.32 786,-259.32 786,-278.32"/>
<text text-anchor="middle" x="767" y="-266.32" font-family="Helvetica,sans-Serif" font-size="10.00">Map</text>
</a>
</g>
</g>
<!-- Node2&#45;&gt;Node1 -->
<g id="edge1_Node000001_Node000002" class="edge">
<title>Node2&#45;&gt;Node1</title>
<g id="a_edge1_Node000001_Node000002"><a xlink:title=" ">
<path fill="none" stroke="#63b8ff" d="M796.21,-268.82C858.03,-268.82 1010.11,-268.82 1137.5,-268.82 1137.5,-268.82 1137.5,-268.82 1531.5,-268.82 1586.03,-268.82 1648.93,-260.97 1686.93,-255.36"/>
<polygon fill="#63b8ff" stroke="#63b8ff" points="796.07,-265.32 786.07,-268.82 796.07,-272.32 796.07,-265.32"/>
</a>
</g>
</g>
<!-- Node3 -->
<g id="Node000003" class="node">
<title>Node3</title>
<g id="a_Node000003"><a xlink:href="classPreciseDouble.html" target="_top" xlink:title="Class for precise double&#45;precision floating&#45;point arithmetic.">
<polygon fill="white" stroke="#666666" points="457,-199.32 371,-199.32 371,-180.32 457,-180.32 457,-199.32"/>
<text text-anchor="middle" x="414" y="-187.32" font-family="Helvetica,sans-Serif" font-size="10.00">PreciseDouble</text>
</a>
</g>
</g>
<!-- Node3&#45;&gt;Node2 -->
<g id="edge2_Node000002_Node000003" class="edge">
<title>Node3&#45;&gt;Node2</title>
<g id="a_edge2_Node000002_Node000003"><a xlink:title=" ">
<path fill="none" stroke="#9a32cd" stroke-dasharray="5,2" d="M467.2,-197.97C515.84,-206.17 590.11,-220.26 653,-238.82 661.23,-241.25 662.81,-243.25 671,-245.82 697.39,-254.1 728.69,-261.16 747.95,-265.2"/>
<polygon fill="#9a32cd" stroke="#9a32cd" points="467.67,-194.5 457.23,-196.31 466.52,-201.4 467.67,-194.5"/>
</a>
</g>
<text text-anchor="middle" x="591" y="-252.82" font-family="Helvetica,sans-Serif" font-size="10.00" fill="grey"> minCellSize</text>
<text text-anchor="middle" x="591" y="-241.82" font-family="Helvetica,sans-Serif" font-size="10.00" fill="grey">minHyperVolume</text>
</g>
<!-- Node12 -->
<g id="Node000012" class="node">
<title>Node12</title>
<g id="a_Node000012"><a xlink:href="classTerrainCell.html" target="_top" xlink:title="Represents a single cell in the landscape.">
<polygon fill="white" stroke="#666666" points="801,-79.32 733,-79.32 733,-60.32 801,-60.32 801,-79.32"/>
<text text-anchor="middle" x="767" y="-67.32" font-family="Helvetica,sans-Serif" font-size="10.00">TerrainCell</text>
</a>
</g>
</g>
<!-- Node3&#45;&gt;Node12 -->
<g id="edge24_Node000012_Node000003" class="edge">
<title>Node3&#45;&gt;Node12</title>
<g id="a_edge24_Node000012_Node000003"><a xlink:title=" ">
<path fill="none" stroke="#9a32cd" stroke-dasharray="5,2" d="M452.7,-176.93C523.66,-152.67 675.57,-100.74 738.16,-79.34"/>
<polygon fill="#9a32cd" stroke="#9a32cd" points="451.17,-173.75 442.84,-180.3 453.43,-180.38 451.17,-173.75"/>
</a>
</g>
<text text-anchor="middle" x="591" y="-161.82" font-family="Helvetica,sans-Serif" font-size="10.00" fill="grey"> hyperVolume</text>
<text text-anchor="middle" x="591" y="-150.82" font-family="Helvetica,sans-Serif" font-size="10.00" fill="grey">size</text>
</g>
<!-- Node16 -->
<g id="Node000016" class="node">
<title>Node16</title>
<g id="a_Node000016"><a xlink:href="classWetMass.html" target="_top" xlink:title="Represents wet mass in the ecosystem simulation.">
<polygon fill="white" stroke="#666666" points="797.5,-236.32 736.5,-236.32 736.5,-217.32 797.5,-217.32 797.5,-236.32"/>
<text text-anchor="middle" x="767" y="-224.32" font-family="Helvetica,sans-Serif" font-size="10.00">WetMass</text>
</a>
</g>
</g>
<!-- Node3&#45;&gt;Node16 -->
<g id="edge17_Node000016_Node000003" class="edge">
<title>Node3&#45;&gt;Node16</title>
<g id="a_edge17_Node000016_Node000003"><a xlink:title=" ">
<path fill="none" stroke="#9a32cd" stroke-dasharray="5,2" d="M467.44,-181.54C516.54,-175.75 591.38,-172.02 653,-190.82 662.2,-193.62 662.21,-198.92 671,-202.82 691.99,-212.13 717.26,-218.3 736.46,-222.05"/>
<polygon fill="#9a32cd" stroke="#9a32cd" points="466.85,-178.08 457.36,-182.8 467.72,-185.03 466.85,-178.08"/>
</a>
</g>
<text text-anchor="middle" x="591" y="-193.82" font-family="Helvetica,sans-Serif" font-size="10.00" fill="grey"> value</text>
</g>
<!-- Node4 -->
<g id="Node000004" class="node">
<title>Node4</title>
<g id="a_Node000004"><a xlink:href="classCustomIndexedVector.html" target="_top" xlink:title=" ">
<polygon fill="white" stroke="#666666" points="511,-321.82 317,-321.82 317,-291.82 511,-291.82 511,-321.82"/>
<text text-anchor="start" x="325" y="-309.82" font-family="Helvetica,sans-Serif" font-size="10.00">CustomIndexedVector</text>
<text text-anchor="middle" x="414" y="-298.82" font-family="Helvetica,sans-Serif" font-size="10.00">&lt; LifeStage, AnimalSearchParams &gt;</text>
</a>
</g>
</g>
<!-- Node4&#45;&gt;Node2 -->
<g id="edge3_Node000002_Node000004" class="edge">
<title>Node4&#45;&gt;Node2</title>
<g id="a_edge3_Node000002_Node000004"><a xlink:title=" ">
<path fill="none" stroke="#9a32cd" stroke-dasharray="5,2" d="M521.19,-295.89C562.36,-291.59 609.89,-286.56 653,-281.82 686.37,-278.15 725.25,-273.62 747.61,-270.99"/>
<polygon fill="#9a32cd" stroke="#9a32cd" points="520.72,-292.42 511.14,-296.94 521.45,-299.38 520.72,-292.42"/>
</a>
</g>
<text text-anchor="middle" x="591" y="-297.82" font-family="Helvetica,sans-Serif" font-size="10.00" fill="grey"> lifeStageSearchParams</text>
</g>
<!-- Node5 -->
<g id="Node000005" class="node">
<title>Node5</title>
<g id="a_Node000005"><a xlink:href="classAnimalSearchParams.html" target="_top" xlink:title="Stores parameters for searching animals within a terrain cell.">
<polygon fill="white" stroke="#666666" points="474,-273.32 354,-273.32 354,-254.32 474,-254.32 474,-273.32"/>
<text text-anchor="middle" x="414" y="-261.32" font-family="Helvetica,sans-Serif" font-size="10.00">AnimalSearchParams</text>
</a>
</g>
</g>
<!-- Node5&#45;&gt;Node2 -->
<g id="edge4_Node000002_Node000005" class="edge">
<title>Node5&#45;&gt;Node2</title>
<g id="a_edge4_Node000002_Node000005"><a xlink:title=" ">
<path fill="none" stroke="#9a32cd" stroke-dasharray="5,2" d="M484.21,-264.8C566.87,-265.98 699.98,-267.88 748,-268.56"/>
<polygon fill="#9a32cd" stroke="#9a32cd" points="484.19,-261.3 474.15,-264.66 484.09,-268.3 484.19,-261.3"/>
</a>
</g>
<text text-anchor="middle" x="591" y="-269.82" font-family="Helvetica,sans-Serif" font-size="10.00" fill="grey"> allAnimalsSearchParams</text>
</g>
<!-- Node6 -->
<g id="Node000006" class="node">
<title>Node6</title>
<g id="a_Node000006"><a xlink:href="classCustomIndexedVector.html" target="_top" xlink:title=" ">
<polygon fill="white" stroke="#666666" points="142.5,-343.32 9.5,-343.32 9.5,-302.32 142.5,-302.32 142.5,-343.32"/>
<text text-anchor="start" x="17.5" y="-331.32" font-family="Helvetica,sans-Serif" font-size="10.00">CustomIndexedVector</text>
<text text-anchor="start" x="17.5" y="-320.32" font-family="Helvetica,sans-Serif" font-size="10.00">&lt; LifeStage, std::vector</text>
<text text-anchor="middle" x="76" y="-309.32" font-family="Helvetica,sans-Serif" font-size="10.00">&lt; AnimalSpeciesID &gt; &gt;</text>
</a>
</g>
</g>
<!-- Node6&#45;&gt;Node5 -->
<g id="edge5_Node000005_Node000006" class="edge">
<title>Node6&#45;&gt;Node5</title>
<g id="a_edge5_Node000005_Node000006"><a xlink:title=" ">
<path fill="none" stroke="#9a32cd" stroke-dasharray="5,2" d="M152.8,-309.51C215.43,-298.51 302.83,-283.16 358.67,-273.36"/>
<polygon fill="#9a32cd" stroke="#9a32cd" points="151.83,-306.13 142.58,-311.3 153.04,-313.02 151.83,-306.13"/>
</a>
</g>
<text text-anchor="middle" x="234.5" y="-307.82" font-family="Helvetica,sans-Serif" font-size="10.00" fill="grey"> searchableAnimalSpecies</text>
</g>
<!-- Node7 -->
<g id="Node000007" class="node">
<title>Node7</title>
<g id="a_Node000007"><a xlink:href="classCustomIndexedVector.html" target="_top" xlink:title=" ">
<polygon fill="white" stroke="#666666" points="152,-284.32 0,-284.32 0,-243.32 152,-243.32 152,-284.32"/>
<text text-anchor="start" x="8" y="-272.32" font-family="Helvetica,sans-Serif" font-size="10.00">CustomIndexedVector</text>
<text text-anchor="start" x="8" y="-261.32" font-family="Helvetica,sans-Serif" font-size="10.00">&lt; LifeStage, std::vector</text>
<text text-anchor="middle" x="76" y="-250.32" font-family="Helvetica,sans-Serif" font-size="10.00">&lt; std::vector&lt; Instar &gt; &gt; &gt;</text>
</a>
</g>
</g>
<!-- Node7&#45;&gt;Node5 -->
<g id="edge6_Node000005_Node000007" class="edge">
<title>Node7&#45;&gt;Node5</title>
<g id="a_edge6_Node000005_Node000007"><a xlink:title=" ">
<path fill="none" stroke="#9a32cd" stroke-dasharray="5,2" d="M162.59,-263.82C222.4,-263.82 300.74,-263.82 353.75,-263.82"/>
<polygon fill="#9a32cd" stroke="#9a32cd" points="162.4,-260.32 152.4,-263.82 162.4,-267.32 162.4,-260.32"/>
</a>
</g>
<text text-anchor="middle" x="234.5" y="-266.82" font-family="Helvetica,sans-Serif" font-size="10.00" fill="grey"> searchableInstars</text>
</g>
<!-- Node8 -->
<g id="Node000008" class="node">
<title>Node8</title>
<g id="a_Node000008"><a xlink:href="classCustomIndexedVector.html" target="_top" xlink:title=" ">
<polygon fill="white" stroke="#666666" points="152,-225.32 0,-225.32 0,-162.32 152,-162.32 152,-225.32"/>
<text text-anchor="start" x="8" y="-213.32" font-family="Helvetica,sans-Serif" font-size="10.00">CustomIndexedVector</text>
<text text-anchor="start" x="8" y="-202.32" font-family="Helvetica,sans-Serif" font-size="10.00">&lt; LifeStage, std::vector</text>
<text text-anchor="start" x="8" y="-191.32" font-family="Helvetica,sans-Serif" font-size="10.00">&lt; CustomIndexedVector&lt;</text>
<text text-anchor="start" x="8" y="-180.32" font-family="Helvetica,sans-Serif" font-size="10.00"> Instar, std::vector&lt; Gender</text>
<text text-anchor="middle" x="76" y="-169.32" font-family="Helvetica,sans-Serif" font-size="10.00"> &gt; &gt; &gt; &gt;</text>
</a>
</g>
</g>
<!-- Node8&#45;&gt;Node5 -->
<g id="edge7_Node000005_Node000008" class="edge">
<title>Node8&#45;&gt;Node5</title>
<g id="a_edge7_Node000005_Node000008"><a xlink:title=" ">
<path fill="none" stroke="#9a32cd" stroke-dasharray="5,2" d="M162.26,-211.58C227.44,-225.16 314.77,-243.35 367.29,-254.3"/>
<polygon fill="#9a32cd" stroke="#9a32cd" points="162.91,-208.14 152.4,-209.53 161.48,-214.99 162.91,-208.14"/>
</a>
</g>
<text text-anchor="middle" x="234.5" y="-241.82" font-family="Helvetica,sans-Serif" font-size="10.00" fill="grey"> searchableGenders</text>
</g>
<!-- Node9 -->
<g id="Node000009" class="node">
<title>Node9</title>
<g id="a_Node000009"><a xlink:href="classRootTerrainCell.html" target="_top" xlink:title="Represents the root node of the spatial tree in the landscape.">
<polygon fill="white" stroke="#666666" points="1576,-192.32 1485,-192.32 1485,-173.32 1576,-173.32 1576,-192.32"/>
<text text-anchor="middle" x="1530.5" y="-180.32" font-family="Helvetica,sans-Serif" font-size="10.00">RootTerrainCell</text>
</a>
</g>
</g>
<!-- Node9&#45;&gt;Node1 -->
<g id="edge8_Node000001_Node000009" class="edge">
<title>Node9&#45;&gt;Node1</title>
<g id="a_edge8_Node000001_Node000009"><a xlink:title=" ">
<path fill="none" stroke="#9a32cd" stroke-dasharray="5,2" d="M1568.6,-195.9C1605.54,-208.93 1661.34,-228.6 1694.33,-240.24"/>
<polygon fill="#9a32cd" stroke="#9a32cd" points="1569.32,-192.44 1558.72,-192.42 1566.99,-199.04 1569.32,-192.44"/>
</a>
</g>
<text text-anchor="middle" x="1631.5" y="-232.82" font-family="Helvetica,sans-Serif" font-size="10.00" fill="grey"> rootTerrainCell</text>
</g>
<!-- Node10 -->
<g id="Node000010" class="node">
<title>Node10</title>
<g id="a_Node000010"><a xlink:href="classBranchTerrainCell.html" target="_top" xlink:title="Represents an internal node (branch) of the spatial tree in the landscape.">
<polygon fill="white" stroke="#666666" points="1448,-42.32 1346,-42.32 1346,-23.32 1448,-23.32 1448,-42.32"/>
<text text-anchor="middle" x="1397" y="-30.32" font-family="Helvetica,sans-Serif" font-size="10.00">BranchTerrainCell</text>
</a>
</g>
</g>
<!-- Node10&#45;&gt;Node9 -->
<g id="edge9_Node000009_Node000010" class="edge">
<title>Node10&#45;&gt;Node9</title>
<g id="a_edge9_Node000009_Node000010"><a xlink:title=" ">
<path fill="none" stroke="#63b8ff" d="M1413.32,-50.3C1441.18,-82.07 1499.24,-148.3 1521.01,-173.14"/>
<polygon fill="#63b8ff" stroke="#63b8ff" points="1415.85,-47.87 1406.63,-42.66 1410.59,-52.49 1415.85,-47.87"/>
</a>
</g>
</g>
<!-- Node11 -->
<g id="Node000011" class="node">
<title>Node11</title>
<g id="a_Node000011"><a xlink:href="classSpatialTreeTerrainCell.html" target="_top" xlink:title="Represents a terrain cell in a spatial tree structure.">
<polygon fill="white" stroke="#666666" points="1199.5,-21.32 1077.5,-21.32 1077.5,-2.32 1199.5,-2.32 1199.5,-21.32"/>
<text text-anchor="middle" x="1138.5" y="-9.32" font-family="Helvetica,sans-Serif" font-size="10.00">SpatialTreeTerrainCell</text>
</a>
</g>
</g>
<!-- Node10&#45;&gt;Node11 -->
<g id="edge26_Node000011_Node000010" class="edge">
<title>Node10&#45;&gt;Node11</title>
<g id="a_edge26_Node000011_Node000010"><a xlink:title=" ">
<path fill="none" stroke="#9a32cd" stroke-dasharray="5,2" d="M1368.42,-19.12C1356.33,-13.84 1341.78,-8.45 1328,-5.82 1285.71,2.27 1237.13,0.47 1199.88,-3.2"/>
<polygon fill="#9a32cd" stroke="#9a32cd" points="1366.97,-22.31 1377.53,-23.27 1369.88,-15.94 1366.97,-22.31"/>
</a>
</g>
<text text-anchor="middle" x="1280.5" y="-8.82" font-family="Helvetica,sans-Serif" font-size="10.00" fill="grey"> parentTerrainCell</text>
</g>
<!-- Node11&#45;&gt;Node10 -->
<g id="edge10_Node000010_Node000011" class="edge">
<title>Node11&#45;&gt;Node10</title>
<g id="a_edge10_Node000010_Node000011"><a xlink:title=" ">
<path fill="none" stroke="#63b8ff" d="M1209.77,-17.57C1252.84,-21.1 1306.95,-25.53 1345.73,-28.7"/>
<polygon fill="#63b8ff" stroke="#63b8ff" points="1209.89,-14.07 1199.64,-16.74 1209.32,-21.05 1209.89,-14.07"/>
</a>
</g>
</g>
<!-- Node12&#45;&gt;Node11 -->
<g id="edge11_Node000011_Node000012" class="edge">
<title>Node12&#45;&gt;Node11</title>
<g id="a_edge11_Node000011_Node000012"><a xlink:title=" ">
<path fill="none" stroke="#63b8ff" d="M811.32,-58.76C832.27,-53.69 857.83,-47.92 881,-43.82 947.84,-31.99 1025.23,-22.97 1077.38,-17.57"/>
<polygon fill="#63b8ff" stroke="#63b8ff" points="810.32,-55.4 801.44,-61.18 811.98,-62.2 810.32,-55.4"/>
</a>
</g>
</g>
<!-- Node13 -->
<g id="Node000013" class="node">
<title>Node13</title>
<g id="a_Node000013"><a xlink:href="classPatchApplicator.html" target="_top" xlink:title="Applies patches to a TerrainCell including moisture, resources, obstacles, and habitat domains.">
<polygon fill="white" stroke="#666666" points="1443,-153.32 1351,-153.32 1351,-134.32 1443,-134.32 1443,-153.32"/>
<text text-anchor="middle" x="1397" y="-141.32" font-family="Helvetica,sans-Serif" font-size="10.00">PatchApplicator</text>
</a>
</g>
</g>
<!-- Node12&#45;&gt;Node13 -->
<g id="edge13_Node000013_Node000012" class="edge">
<title>Node12&#45;&gt;Node13</title>
<g id="a_edge13_Node000013_Node000012"><a xlink:title=" ">
<path fill="none" stroke="#9a32cd" stroke-dasharray="5,2" d="M811.35,-73.13C891.32,-79.44 1067.4,-94.34 1215,-113.82 1261.42,-119.94 1314.21,-128.93 1350.75,-135.46"/>
<polygon fill="#9a32cd" stroke="#9a32cd" points="811.41,-69.62 801.17,-72.33 810.87,-76.6 811.41,-69.62"/>
</a>
</g>
<text text-anchor="middle" x="1138.5" y="-116.82" font-family="Helvetica,sans-Serif" font-size="10.00" fill="grey"> owner</text>
</g>
<!-- Node13&#45;&gt;Node12 -->
<g id="edge12_Node000012_Node000013" class="edge">
<title>Node13&#45;&gt;Node12</title>
<g id="a_edge12_Node000012_Node000013"><a xlink:title=" ">
<path fill="none" stroke="#9a32cd" stroke-dasharray="5,2" d="M1379.33,-126.92C1366.44,-114.9 1347.56,-99.42 1328,-90.82 1281.38,-70.32 1265.74,-76.17 1215,-71.82 1060.74,-58.59 875.45,-64.77 801.17,-68.13"/>
<polygon fill="#9a32cd" stroke="#9a32cd" points="1377.25,-129.79 1386.88,-134.22 1382.12,-124.75 1377.25,-129.79"/>
</a>
</g>
<text text-anchor="middle" x="1138.5" y="-74.82" font-family="Helvetica,sans-Serif" font-size="10.00" fill="grey"> patchApplicator</text>
</g>
<!-- Node14 -->
<g id="Node000014" class="node">
<title>Node14</title>
<g id="a_Node000014"><a xlink:href="classCellMoistureInterface.html" target="_top" xlink:title="Base interface representing the hydrological and thermal properties of a terrain cell.">
<polygon fill="white" stroke="#666666" points="1199.5,-227.32 1077.5,-227.32 1077.5,-208.32 1199.5,-208.32 1199.5,-227.32"/>
<text text-anchor="middle" x="1138.5" y="-215.32" font-family="Helvetica,sans-Serif" font-size="10.00">CellMoistureInterface</text>
</a>
</g>
</g>
<!-- Node14&#45;&gt;Node13 -->
<g id="edge14_Node000013_Node000014" class="edge">
<title>Node14&#45;&gt;Node13</title>
<g id="a_edge14_Node000013_Node000014"><a xlink:title=" ">
<path fill="none" stroke="#9a32cd" stroke-dasharray="5,2" d="M1209.61,-212.4C1245.84,-207.99 1290.24,-200.06 1328,-185.82 1349.03,-177.88 1370.68,-163.17 1383.74,-153.44"/>
<polygon fill="#9a32cd" stroke="#9a32cd" points="1209.16,-208.93 1199.62,-213.55 1209.96,-215.88 1209.16,-208.93"/>
</a>
</g>
<text text-anchor="middle" x="1280.5" y="-211.82" font-family="Helvetica,sans-Serif" font-size="10.00" fill="grey"> cellMoisture</text>
</g>
<!-- Node15 -->
<g id="Node000015" class="node">
<title>Node15</title>
<g id="a_Node000015"><a xlink:href="classCellElement.html" target="_top" xlink:title="Base class for any modifiable element contained within a terrain cell.">
<polygon fill="white" stroke="#666666" points="805,-194.32 729,-194.32 729,-175.32 805,-175.32 805,-194.32"/>
<text text-anchor="middle" x="767" y="-182.32" font-family="Helvetica,sans-Serif" font-size="10.00">CellElement</text>
</a>
</g>
</g>
<!-- Node15&#45;&gt;Node14 -->
<g id="edge15_Node000014_Node000015" class="edge">
<title>Node15&#45;&gt;Node14</title>
<g id="a_edge15_Node000014_Node000015"><a xlink:title=" ">
<path fill="none" stroke="#63b8ff" d="M815.35,-189.55C835.57,-191.54 859.44,-193.84 881,-195.82 948.21,-201.97 1025.37,-208.52 1077.36,-212.86"/>
<polygon fill="#63b8ff" stroke="#63b8ff" points="815.44,-186.04 805.14,-188.54 814.75,-193.01 815.44,-186.04"/>
</a>
</g>
</g>
<!-- Node17 -->
<g id="Node000017" class="node">
<title>Node17</title>
<g id="a_Node000017"><a xlink:href="classCellObstacleInterface.html" target="_top" xlink:title="Interface for managing obstacles in a terrain cell.">
<polygon fill="white" stroke="#666666" points="1199.5,-190.32 1077.5,-190.32 1077.5,-171.32 1199.5,-171.32 1199.5,-190.32"/>
<text text-anchor="middle" x="1138.5" y="-178.32" font-family="Helvetica,sans-Serif" font-size="10.00">CellObstacleInterface</text>
</a>
</g>
</g>
<!-- Node15&#45;&gt;Node17 -->
<g id="edge19_Node000017_Node000015" class="edge">
<title>Node15&#45;&gt;Node17</title>
<g id="a_edge19_Node000017_Node000015"><a xlink:title=" ">
<path fill="none" stroke="#63b8ff" d="M815.36,-184.31C882.18,-183.58 1004.14,-182.26 1077.31,-181.47"/>
<polygon fill="#63b8ff" stroke="#63b8ff" points="815.08,-180.81 805.12,-184.42 815.16,-187.81 815.08,-180.81"/>
</a>
</g>
</g>
<!-- Node18 -->
<g id="Node000018" class="node">
<title>Node18</title>
<g id="a_Node000018"><a xlink:href="classCellHabitatDomainInterface.html" target="_top" xlink:title="Represents the habitat&#45;domain information associated with a terrain cell.">
<polygon fill="white" stroke="#666666" points="1215,-153.32 1062,-153.32 1062,-134.32 1215,-134.32 1215,-153.32"/>
<text text-anchor="middle" x="1138.5" y="-141.32" font-family="Helvetica,sans-Serif" font-size="10.00">CellHabitatDomainInterface</text>
</a>
</g>
</g>
<!-- Node15&#45;&gt;Node18 -->
<g id="edge21_Node000018_Node000015" class="edge">
<title>Node15&#45;&gt;Node18</title>
<g id="a_edge21_Node000018_Node000015"><a xlink:title=" ">
<path fill="none" stroke="#63b8ff" d="M815.44,-179.55C877.74,-172.64 987.86,-160.42 1061.76,-152.22"/>
<polygon fill="#63b8ff" stroke="#63b8ff" points="814.67,-176.12 805.12,-180.7 815.45,-183.08 814.67,-176.12"/>
</a>
</g>
</g>
<!-- Node16&#45;&gt;Node14 -->
<g id="edge16_Node000014_Node000016" class="edge">
<title>Node16&#45;&gt;Node14</title>
<g id="a_edge16_Node000014_Node000016"><a xlink:title=" ">
<path fill="none" stroke="#9a32cd" stroke-dasharray="5,2" d="M807.94,-226.08C861.62,-225.06 960.01,-223.08 1044,-220.82 1054.8,-220.53 1066.29,-220.19 1077.4,-219.84"/>
<polygon fill="#9a32cd" stroke="#9a32cd" points="807.75,-222.58 797.82,-226.27 807.88,-229.58 807.75,-222.58"/>
</a>
</g>
<text text-anchor="middle" x="962.5" y="-227.82" font-family="Helvetica,sans-Serif" font-size="10.00" fill="grey"> totalMaximumResourceCapacity</text>
</g>
<!-- Node17&#45;&gt;Node13 -->
<g id="edge18_Node000013_Node000017" class="edge">
<title>Node17&#45;&gt;Node13</title>
<g id="a_edge18_Node000013_Node000017"><a xlink:title=" ">
<path fill="none" stroke="#9a32cd" stroke-dasharray="5,2" d="M1209.8,-173.62C1245.33,-169.63 1289.06,-164.19 1328,-157.82 1335.85,-156.53 1344.17,-154.98 1352.2,-153.38"/>
<polygon fill="#9a32cd" stroke="#9a32cd" points="1209.08,-170.18 1199.53,-174.76 1209.85,-177.14 1209.08,-170.18"/>
</a>
</g>
<text text-anchor="middle" x="1280.5" y="-173.82" font-family="Helvetica,sans-Serif" font-size="10.00" fill="grey"> cellObstacle</text>
</g>
<!-- Node18&#45;&gt;Node13 -->
<g id="edge20_Node000013_Node000018" class="edge">
<title>Node18&#45;&gt;Node13</title>
<g id="a_edge20_Node000013_Node000018"><a xlink:title=" ">
<path fill="none" stroke="#9a32cd" stroke-dasharray="5,2" d="M1225.3,-143.82C1267.25,-143.82 1316.03,-143.82 1350.68,-143.82"/>
<polygon fill="#9a32cd" stroke="#9a32cd" points="1225.07,-140.32 1215.07,-143.82 1225.07,-147.32 1225.07,-140.32"/>
</a>
</g>
<text text-anchor="middle" x="1280.5" y="-146.82" font-family="Helvetica,sans-Serif" font-size="10.00" fill="grey"> cellHabitatDomain</text>
</g>
<!-- Node19 -->
<g id="Node000019" class="node">
<title>Node19</title>
<g id="a_Node000019"><a xlink:href="classCustomIndexedVector.html" target="_top" xlink:title=" ">
<polygon fill="white" stroke="#666666" points="863,-154.32 671,-154.32 671,-113.32 863,-113.32 863,-154.32"/>
<text text-anchor="start" x="679" y="-142.32" font-family="Helvetica,sans-Serif" font-size="10.00">CustomIndexedVector</text>
<text text-anchor="start" x="679" y="-131.32" font-family="Helvetica,sans-Serif" font-size="10.00">&lt; AnimalSpeciesID, CustomIndexed</text>
<text text-anchor="middle" x="767" y="-120.32" font-family="Helvetica,sans-Serif" font-size="10.00">Vector&lt; Instar, bool &gt; &gt;</text>
</a>
</g>
</g>
<!-- Node19&#45;&gt;Node18 -->
<g id="edge22_Node000018_Node000019" class="edge">
<title>Node19&#45;&gt;Node18</title>
<g id="a_edge22_Node000018_Node000019"><a xlink:title=" ">
<path fill="none" stroke="#9a32cd" stroke-dasharray="5,2" d="M873.36,-131.92C924.84,-131.57 987.69,-132.01 1044,-134.82 1049.78,-135.11 1055.76,-135.49 1061.76,-135.93"/>
<polygon fill="#9a32cd" stroke="#9a32cd" points="873.19,-128.42 863.22,-132 873.25,-135.42 873.19,-128.42"/>
</a>
</g>
<text text-anchor="middle" x="962.5" y="-137.82" font-family="Helvetica,sans-Serif" font-size="10.00" fill="grey"> habitatDomainStatus</text>
</g>
<!-- Node20 -->
<g id="Node000020" class="node">
<title>Node20</title>
<g id="a_Node000020"><a xlink:href="classPointMap.html" target="_top" xlink:title="Represents a point in a discrete map coordinate system.">
<polygon fill="white" stroke="#666666" points="445,-101.32 383,-101.32 383,-82.32 445,-82.32 445,-101.32"/>
<text text-anchor="middle" x="414" y="-89.32" font-family="Helvetica,sans-Serif" font-size="10.00">PointMap</text>
</a>
</g>
</g>
<!-- Node20&#45;&gt;Node12 -->
<g id="edge23_Node000012_Node000020" class="edge">
<title>Node20&#45;&gt;Node12</title>
<g id="a_edge23_Node000012_Node000020"><a xlink:title=" ">
<path fill="none" stroke="#9a32cd" stroke-dasharray="5,2" d="M455.43,-89.28C525.53,-84.89 668.31,-75.94 732.92,-71.89"/>
<polygon fill="#9a32cd" stroke="#9a32cd" points="454.99,-85.8 445.23,-89.92 455.43,-92.79 454.99,-85.8"/>
</a>
</g>
<text text-anchor="middle" x="591" y="-87.82" font-family="Helvetica,sans-Serif" font-size="10.00" fill="grey"> position</text>
</g>
<!-- Node21 -->
<g id="Node000021" class="node">
<title>Node21</title>
<g id="a_Node000021"><a xlink:href="classCustomIndexedVector.html" target="_top" xlink:title="A vector container indexed by a custom type with bounds checking.">
<polygon fill="white" stroke="#666666" points="491.5,-63.82 336.5,-63.82 336.5,-33.82 491.5,-33.82 491.5,-63.82"/>
<text text-anchor="start" x="344.5" y="-51.82" font-family="Helvetica,sans-Serif" font-size="10.00">CustomIndexedVector</text>
<text text-anchor="middle" x="414" y="-40.82" font-family="Helvetica,sans-Serif" font-size="10.00">&lt; IndexType, ContentType &gt;</text>
</a>
</g>
</g>
<!-- Node21&#45;&gt;Node12 -->
<g id="edge25_Node000012_Node000021" class="edge">
<title>Node21&#45;&gt;Node12</title>
<g id="a_edge25_Node000012_Node000021"><a xlink:title=" ">
<path fill="none" stroke="#9a32cd" stroke-dasharray="5,2" d="M501.74,-51.32C546.88,-52.91 602.95,-55.33 653,-58.82 679.94,-60.69 710.41,-63.71 732.91,-66.11"/>
<polygon fill="#9a32cd" stroke="#9a32cd" points="501.81,-47.82 491.7,-50.97 501.57,-54.81 501.81,-47.82"/>
</a>
</g>
<text text-anchor="middle" x="591" y="-61.82" font-family="Helvetica,sans-Serif" font-size="10.00" fill="grey"> animals</text>
</g>
</g>
</svg>

<g id="navigator" transform="translate(0 0)" fill="#404254">
  <rect fill="#f2f5e9" fill-opacity="0.5" stroke="#606060" stroke-width=".5" x="0" y="0" width="60" height="60"/>
  <use id="zoomplus" xlink:href="#zoomPlus" x="17" y="9" onmousedown="handleZoom(evt,'in')"/>
  <use id="zoomminus" xlink:href="#zoomMin" x="42" y="9" onmousedown="handleZoom(evt,'out')"/>
  <use id="reset" xlink:href="#resetDef" x="30" y="36" onmousedown="handleReset()"/>
   <use id="arrowup" xlink:href="#arrowUp" x="0" y="0" onmousedown="handlePan(0,-1)"/>
  <use id="arrowright" xlink:href="#arrowRight" x="0" y="0" onmousedown="handlePan(1,0)"/>
  <use id="arrowdown" xlink:href="#arrowDown" x="0" y="0" onmousedown="handlePan(0,1)"/>
  <use id="arrowleft" xlink:href="#arrowLeft" x="0" y="0" onmousedown="handlePan(-1,0)"/>
</g>
<svg viewBox="0 0 15 15" width="100%" height="30px" preserveAspectRatio="xMaxYMin meet">
 <g id="arrow_out" transform="scale(0.3 0.3)">
  <a xlink:href="classSpatialTree__coll__graph_org.svg" target="_base">
   <rect id="button" ry="5" rx="5" y="6" x="6" height="38" width="38"
        fill="#f2f5e9" fill-opacity="0.5" stroke="#606060" stroke-width="1.0"/>
   <path id="arrow"
     d="M 11.500037,31.436501 C 11.940474,20.09759 22.043105,11.32322 32.158766,21.979434 L 37.068811,17.246167 C 37.068811,17.246167 37.088388,32 37.088388,32 L 22.160133,31.978069 C 22.160133,31.978069 26.997745,27.140456 26.997745,27.140456 C 18.528582,18.264221 13.291696,25.230495 11.500037,31.436501 z"
     style="fill:#404040;"/>
  </a>
 </g>
</svg>

<style type='text/css'>
<![CDATA[
[data-mouse-over-selected='false'] { opacity: 0.7; }
[data-mouse-over-selected='true']  { opacity: 1.0; }
]]>
</style>
<script type="application/ecmascript"><![CDATA[
document.addEventListener('DOMContentLoaded', (event) => {
  highlightEdges();
  highlightAdjacentNodes();
});
]]></script>
</svg>
