<?xml version="1.0" encoding="UTF-8" standalone="no"?>
<!DOCTYPE svg PUBLIC "-//W3C//DTD SVG 1.1//EN"
 "http://www.w3.org/Graphics/SVG/1.1/DTD/svg11.dtd">
<!-- Generated by graphviz version 2.43.0 (0)
 -->
<!-- Title: /home/runner/work/Weaver/Weaver/include/App/Model/IBM/Landscape/LivingBeings/Animals Pages: 1 -->
<!--zoomable 345 -->

<svg id="main" version="1.1" xmlns="http://www.w3.org/2000/svg" xmlns:xlink="http://www.w3.org/1999/xlink" xml:space="preserve" onload="init(evt)">
<style type="text/css"><![CDATA[
.node, .edge {opacity: 0.7;}
.node.selected, .edge.selected {opacity: 1;}
.edge:hover path { stroke: red; }
.edge:hover polygon { stroke: red; fill: red; }
]]></style>

<defs>
  <circle id="rim" cx="0" cy="0" r="7"/>
  <circle id="rim2" cx="0" cy="0" r="3.5"/>
  <g id="zoomPlus">
    <use xlink:href="#rim" fill="#404040"><set attributeName="fill" to="#808080" begin="zoomplus.mouseover" end="zoomplus.mouseout"/></use>
    <path d="M-4,0h8M0,-4v8" fill="none" stroke="white" stroke-width="1.5" pointer-events="none"/>
  </g>
  <g id="zoomMin">
    <use xlink:href="#rim" fill="#404040"><set attributeName="fill" to="#808080" begin="zoomminus.mouseover" end="zoomminus.mouseout"/></use>
    <path d="M-4,0h8" fill="none" stroke="white" stroke-width="1.5" pointer-events="none"/>
  </g>
  <g id="arrowUp" transform="translate(30 24)">
    <use xlink:href="#rim"/>
    <path pointer-events="none" fill="none" stroke="white" stroke-width="1.5" d="M0,-3.0v7 M-2.5,-0.5L0,-3.0L2.5,-0.5"/>
  </g>
  <g id="arrowRight" transform="rotate(90) translate(36 -43)">
    <use xlink:href="#rim"/>
    <path pointer-events="none" fill="none" stroke="white" stroke-width="1.5" d="M0,-3.0v7 M-2.5,-0.5L0,-3.0L2.5,-0.5"/>
  </g>
  <g id="arrowDown" transform="rotate(180) translate(-30 -48)">
    <use xlink:href="#rim"/>
    <path pointer-events="none" fill="none" stroke="white" stroke-width="1.5" d="M0,-3.0v7 M-2.5,-0.5L0,-3.0L2.5,-0.5"/>
  </g>
  <g id="arrowLeft" transform="rotate(270) translate(-36 17)">
    <use xlink:href="#rim"/>
    <path pointer-events="none" fill="none" stroke="white" stroke-width="1.5" d="M0,-3.0v7 M-2.5,-0.5L0,-3.0L2.5,-0.5"/>
  </g>
  <g id="resetDef">
    <use xlink:href="#rim2" fill="#404040"><set attributeName="fill" to="#808080" begin="reset.mouseover" end="reset.mouseout"/></use>
  </g>
</defs>
<script type="application/ecmascript">
var viewWidth = 640;
var viewHeight = 345;
var sectionId = 'dynsection-0';
</script>
<script type="application/ecmascript" xlink:href="svg.min.js"/>
<svg id="graph" class="graph">
<g id="viewport">
<title>/home/runner/work/Weaver/Weaver/include/App/Model/IBM/Landscape/LivingBeings/Animals</title>
<g id="clust1" class="cluster">
<title>clusterdir_deb6f38fabcacb3d9327502f4723bff5</title>
<g id="a_clust1"><a xlink:href="dir_deb6f38fabcacb3d9327502f4723bff5.html" target="_top" xlink:title="LivingBeings">
<polygon fill="#edf0f7" stroke="#7f7f7f" stroke-dasharray="5,2" points="176,-39 176,-329 480,-329 480,-39 176,-39"/>
<text text-anchor="middle" x="328" y="-317" font-family="Helvetica,sans-Serif" font-size="10.00">LivingBeings</text>
</a>
</g>
</g>
<g id="clust2" class="cluster">
<title>clusterdir_a3a1ca8af9b616e247b3f0c90e8cde87</title>
<g id="a_clust2"><a xlink:href="dir_a3a1ca8af9b616e247b3f0c90e8cde87.html" target="_top">
<polygon fill="#edf0f7" stroke="#404040" stroke-width="2" points="184,-47 184,-302 324,-302 324,-47 184,-47"/>
</a>
</g>
</g>
<!-- dir_6951a24f4a3b17f76f94f0e7c618fb09 -->
<g id="node1" class="node">
<title>dir_6951a24f4a3b17f76f94f0e7c618fb09</title>
<g id="a_node1"><a xlink:href="dir_6951a24f4a3b17f76f94f0e7c618fb09.html" target="_top" xlink:title="Species">
<polygon fill="#a2b4d6" stroke="red" points="472,-129 418,-129 418,-110 472,-110 472,-129"/>
<text text-anchor="middle" x="445" y="-117" font-family="Helvetica,sans-Serif" font-size="10.00">Species</text>
</a>
</g>
</g>
<!-- dir_43cb4bfd147dcd2c8e28f53755d3f09a -->
<g id="node2" class="node">
<title>dir_43cb4bfd147dcd2c8e28f53755d3f09a</title>
<g id="a_node2"><a xlink:href="dir_43cb4bfd147dcd2c8e28f53755d3f09a.html" target="_top" xlink:title="Growth">
<polygon fill="#a2b4d6" stroke="#404040" points="386,-74 334,-74 334,-55 386,-55 386,-74"/>
<text text-anchor="middle" x="360" y="-62" font-family="Helvetica,sans-Serif" font-size="10.00">Growth</text>
</a>
</g>
</g>
<!-- dir_dbc329bf08cdcad994818f4c40ac845b -->
<g id="node3" class="node">
<title>dir_dbc329bf08cdcad994818f4c40ac845b</title>
<g id="a_node3"><a xlink:href="dir_dbc329bf08cdcad994818f4c40ac845b.html" target="_top" xlink:title="Resources">
<polygon fill="#a2b4d6" stroke="red" points="399.5,-129 332.5,-129 332.5,-110 399.5,-110 399.5,-129"/>
<text text-anchor="middle" x="366" y="-117" font-family="Helvetica,sans-Serif" font-size="10.00">Resources</text>
</a>
</g>
</g>
<!-- dir_a3a1ca8af9b616e247b3f0c90e8cde87 -->
<g id="node4" class="node">
<title>dir_a3a1ca8af9b616e247b3f0c90e8cde87</title>
<text text-anchor="middle" x="264" y="-282" font-family="Helvetica,sans-Serif" font-size="10.00">Animals</text>
</g>
<!-- dir_a3a1ca8af9b616e247b3f0c90e8cde87&#45;&gt;dir_6951a24f4a3b17f76f94f0e7c618fb09 -->
<g id="edge5" class="edge">
<title>dir_a3a1ca8af9b616e247b3f0c90e8cde87&#45;&gt;dir_6951a24f4a3b17f76f94f0e7c618fb09</title>
<g id="a_edge5"><a xlink:href="dir_000000_000055.html" target="_top">
<path fill="none" stroke="#63b8ff" d="M273.73,-274.74C302.95,-248.42 390.2,-169.85 427.63,-136.14"/>
<polygon fill="#63b8ff" stroke="#63b8ff" points="430.13,-138.6 435.22,-129.31 425.45,-133.4 430.13,-138.6"/>
</a>
</g>
<g id="a_edge5&#45;headlabel"><a xlink:href="dir_000000_000055.html" target="_top" xlink:title="6">
<text text-anchor="middle" x="429.36" y="-140.61" font-family="Helvetica,sans-Serif" font-size="10.00" fill="#63b8ff">6</text>
</a>
</g>
</g>
<!-- dir_2e6cb6ad22eac95854364123a8694435 -->
<g id="node5" class="node">
<title>dir_2e6cb6ad22eac95854364123a8694435</title>
<g id="a_node5"><a xlink:href="dir_2e6cb6ad22eac95854364123a8694435.html" target="_top" xlink:title="Decisions">
<polygon fill="#a2b4d6" stroke="#404040" points="296,-239 232,-239 232,-220 296,-220 296,-239"/>
<text text-anchor="middle" x="264" y="-227" font-family="Helvetica,sans-Serif" font-size="10.00">Decisions</text>
</a>
</g>
</g>
<!-- dir_a3a1ca8af9b616e247b3f0c90e8cde87&#45;&gt;dir_2e6cb6ad22eac95854364123a8694435 -->
<g id="edge1" class="edge">
<title>dir_a3a1ca8af9b616e247b3f0c90e8cde87&#45;&gt;dir_2e6cb6ad22eac95854364123a8694435</title>
<g id="a_edge1"><a xlink:href="dir_000000_000005.html" target="_top">
<path fill="none" stroke="#63b8ff" d="M264,-274.75C264,-267.8 264,-257.85 264,-249.13"/>
<polygon fill="#63b8ff" stroke="#63b8ff" points="267.5,-249.09 264,-239.09 260.5,-249.09 267.5,-249.09"/>
</a>
</g>
<g id="a_edge1&#45;headlabel"><a xlink:href="dir_000000_000005.html" target="_top" xlink:title="1">
<text text-anchor="middle" x="270.34" y="-250.18" font-family="Helvetica,sans-Serif" font-size="10.00" fill="#63b8ff">1</text>
</a>
</g>
</g>
<!-- dir_e4a5f3ebbc8705b509aeb54f8d16dd0b -->
<g id="node6" class="node">
<title>dir_e4a5f3ebbc8705b509aeb54f8d16dd0b</title>
<g id="a_node6"><a xlink:href="dir_e4a5f3ebbc8705b509aeb54f8d16dd0b.html" target="_top" xlink:title="Genetics">
<polygon fill="#a2b4d6" stroke="#404040" points="315.5,-74 256.5,-74 256.5,-55 315.5,-55 315.5,-74"/>
<text text-anchor="middle" x="286" y="-62" font-family="Helvetica,sans-Serif" font-size="10.00">Genetics</text>
</a>
</g>
</g>
<!-- dir_a3a1ca8af9b616e247b3f0c90e8cde87&#45;&gt;dir_e4a5f3ebbc8705b509aeb54f8d16dd0b -->
<g id="edge8" class="edge">
<title>dir_a3a1ca8af9b616e247b3f0c90e8cde87&#45;&gt;dir_e4a5f3ebbc8705b509aeb54f8d16dd0b</title>
<g id="a_edge8"><a xlink:href="dir_000000_000011.html" target="_top">
<path fill="none" stroke="#63b8ff" d="M248.76,-274.71C236.95,-266.97 221.4,-254.53 214,-239 189.33,-187.2 180.32,-159.7 209,-110 217.42,-95.41 232.65,-85.17 247.35,-78.23"/>
<polygon fill="#63b8ff" stroke="#63b8ff" points="249.07,-81.3 256.86,-74.13 246.29,-74.87 249.07,-81.3"/>
</a>
</g>
<g id="a_edge8&#45;headlabel"><a xlink:href="dir_000000_000011.html" target="_top" xlink:title="10">
<text text-anchor="middle" x="246.89" y="-82.83" font-family="Helvetica,sans-Serif" font-size="10.00" fill="#63b8ff">10</text>
</a>
</g>
</g>
<!-- dir_bcac7830ba4ce4ae1ccca2802e2445e2 -->
<g id="node7" class="node">
<title>dir_bcac7830ba4ce4ae1ccca2802e2445e2</title>
<g id="a_node7"><a xlink:href="dir_bcac7830ba4ce4ae1ccca2802e2445e2.html" target="_top" xlink:title="Growth">
<polygon fill="#a2b4d6" stroke="#404040" points="270,-129 218,-129 218,-110 270,-110 270,-129"/>
<text text-anchor="middle" x="244" y="-117" font-family="Helvetica,sans-Serif" font-size="10.00">Growth</text>
</a>
</g>
</g>
<!-- dir_a3a1ca8af9b616e247b3f0c90e8cde87&#45;&gt;dir_bcac7830ba4ce4ae1ccca2802e2445e2 -->
<g id="edge7" class="edge">
<title>dir_a3a1ca8af9b616e247b3f0c90e8cde87&#45;&gt;dir_bcac7830ba4ce4ae1ccca2802e2445e2</title>
<g id="a_edge7"><a xlink:href="dir_000000_000014.html" target="_top">
<path fill="none" stroke="#63b8ff" d="M252.07,-274.8C242.17,-266.77 228.81,-253.87 223,-239 209.69,-204.92 224.41,-162.03 235.05,-138.32"/>
<polygon fill="#63b8ff" stroke="#63b8ff" points="238.27,-139.68 239.39,-129.14 231.95,-136.68 238.27,-139.68"/>
</a>
</g>
<g id="a_edge7&#45;headlabel"><a xlink:href="dir_000000_000014.html" target="_top" xlink:title="5">
<text text-anchor="middle" x="239.3" y="-141.64" font-family="Helvetica,sans-Serif" font-size="10.00" fill="#63b8ff">5</text>
</a>
</g>
</g>
<!-- dir_599f11267c3a85736edb1f98923093b9 -->
<g id="node8" class="node">
<title>dir_599f11267c3a85736edb1f98923093b9</title>
<g id="a_node8"><a xlink:href="dir_599f11267c3a85736edb1f98923093b9.html" target="_top" xlink:title="Species">
<polygon fill="#a2b4d6" stroke="#404040" points="316,-184 262,-184 262,-165 316,-165 316,-184"/>
<text text-anchor="middle" x="289" y="-172" font-family="Helvetica,sans-Serif" font-size="10.00">Species</text>
</a>
</g>
</g>
<!-- dir_a3a1ca8af9b616e247b3f0c90e8cde87&#45;&gt;dir_599f11267c3a85736edb1f98923093b9 -->
<g id="edge4" class="edge">
<title>dir_a3a1ca8af9b616e247b3f0c90e8cde87&#45;&gt;dir_599f11267c3a85736edb1f98923093b9</title>
<g id="a_edge4"><a xlink:href="dir_000000_000053.html" target="_top">
<path fill="none" stroke="#63b8ff" d="M275.93,-274.8C285.83,-266.77 299.19,-253.87 305,-239 310.81,-224.13 305.43,-206.46 299.39,-193.54"/>
<polygon fill="#63b8ff" stroke="#63b8ff" points="302.32,-191.6 294.6,-184.34 296.11,-194.83 302.32,-191.6"/>
</a>
</g>
<g id="a_edge4&#45;headlabel"><a xlink:href="dir_000000_000053.html" target="_top" xlink:title="55">
<text text-anchor="middle" x="306.5" y="-190.98" font-family="Helvetica,sans-Serif" font-size="10.00" fill="#63b8ff">55</text>
</a>
</g>
</g>
<!-- dir_389a21b4e0d5da4afd1bc923d1c21e90 -->
<g id="node9" class="node">
<title>dir_389a21b4e0d5da4afd1bc923d1c21e90</title>
<g id="a_node9"><a xlink:href="dir_389a21b4e0d5da4afd1bc923d1c21e90.html" target="_top" xlink:title="Map">
<polygon fill="#edf0f7" stroke="red" stroke-dasharray="5,2" points="604,-129 566,-129 566,-110 604,-110 604,-129"/>
<text text-anchor="middle" x="585" y="-117" font-family="Helvetica,sans-Serif" font-size="10.00">Map</text>
</a>
</g>
</g>
<!-- dir_a3a1ca8af9b616e247b3f0c90e8cde87&#45;&gt;dir_389a21b4e0d5da4afd1bc923d1c21e90 -->
<g id="edge2" class="edge">
<title>dir_a3a1ca8af9b616e247b3f0c90e8cde87&#45;&gt;dir_389a21b4e0d5da4afd1bc923d1c21e90</title>
<g id="a_edge2"><a xlink:href="dir_000000_000030.html" target="_top">
<path fill="none" stroke="#63b8ff" d="M292.12,-283.55C336.07,-282.42 422.39,-275.29 484,-239 526.55,-213.94 559.8,-164.31 575.36,-137.93"/>
<polygon fill="#63b8ff" stroke="#63b8ff" points="578.51,-139.48 580.44,-129.06 572.43,-136 578.51,-139.48"/>
</a>
</g>
<g id="a_edge2&#45;headlabel"><a xlink:href="dir_000000_000030.html" target="_top" xlink:title="4">
<text text-anchor="middle" x="579.18" y="-141.51" font-family="Helvetica,sans-Serif" font-size="10.00" fill="#63b8ff">4</text>
</a>
</g>
</g>
<!-- dir_4045643538bad1aadeff61b05dc9bc0d -->
<g id="node10" class="node">
<title>dir_4045643538bad1aadeff61b05dc9bc0d</title>
<g id="a_node10"><a xlink:href="dir_4045643538bad1aadeff61b05dc9bc0d.html" target="_top" xlink:title="Exceptions">
<polygon fill="#edf0f7" stroke="#7f7f7f" points="396,-19 326,-19 326,0 396,0 396,-19"/>
<text text-anchor="middle" x="361" y="-7" font-family="Helvetica,sans-Serif" font-size="10.00">Exceptions</text>
</a>
</g>
</g>
<!-- dir_a3a1ca8af9b616e247b3f0c90e8cde87&#45;&gt;dir_4045643538bad1aadeff61b05dc9bc0d -->
<g id="edge3" class="edge">
<title>dir_a3a1ca8af9b616e247b3f0c90e8cde87&#45;&gt;dir_4045643538bad1aadeff61b05dc9bc0d</title>
<g id="a_edge3"><a xlink:href="dir_000000_000010.html" target="_top">
<path fill="none" stroke="#63b8ff" d="M245.53,-274.99C231.27,-267.48 212.16,-255.22 201,-239 168.47,-191.71 173.03,-163.02 195,-110 210.07,-73.62 215.24,-60.85 248,-39 268.05,-25.62 293.91,-18.53 315.83,-14.76"/>
<polygon fill="#63b8ff" stroke="#63b8ff" points="316.56,-18.19 325.91,-13.21 315.5,-11.27 316.56,-18.19"/>
</a>
</g>
<g id="a_edge3&#45;headlabel"><a xlink:href="dir_000000_000010.html" target="_top" xlink:title="9">
<text text-anchor="middle" x="313.44" y="-19.04" font-family="Helvetica,sans-Serif" font-size="10.00" fill="#63b8ff">9</text>
</a>
</g>
</g>
<!-- dir_6d30109d817e3a6d4be9084cc265e05a -->
<g id="node11" class="node">
<title>dir_6d30109d817e3a6d4be9084cc265e05a</title>
<g id="a_node11"><a xlink:href="dir_6d30109d817e3a6d4be9084cc265e05a.html" target="_top" xlink:title="Maths">
<polygon fill="#edf0f7" stroke="red" stroke-dasharray="5,2" points="561.5,-19 514.5,-19 514.5,0 561.5,0 561.5,-19"/>
<text text-anchor="middle" x="538" y="-7" font-family="Helvetica,sans-Serif" font-size="10.00">Maths</text>
</a>
</g>
</g>
<!-- dir_a3a1ca8af9b616e247b3f0c90e8cde87&#45;&gt;dir_6d30109d817e3a6d4be9084cc265e05a -->
<g id="edge6" class="edge">
<title>dir_a3a1ca8af9b616e247b3f0c90e8cde87&#45;&gt;dir_6d30109d817e3a6d4be9084cc265e05a</title>
<g id="a_edge6"><a xlink:href="dir_000000_000032.html" target="_top">
<path fill="none" stroke="#63b8ff" d="M292.27,-281.33C378.44,-273.96 632,-246.24 632,-175.5 632,-175.5 632,-175.5 632,-118.5 632,-76.29 590.64,-42.56 562.79,-24.63"/>
<polygon fill="#63b8ff" stroke="#63b8ff" points="564.29,-21.44 553.95,-19.17 560.62,-27.4 564.29,-21.44"/>
</a>
</g>
<g id="a_edge6&#45;headlabel"><a xlink:href="dir_000000_000032.html" target="_top" xlink:title="9">
<text text-anchor="middle" x="568.84" y="-18.42" font-family="Helvetica,sans-Serif" font-size="10.00" fill="#63b8ff">9</text>
</a>
</g>
</g>
<!-- dir_ed435641f8e8047e0f5542c775bc8256 -->
<g id="node12" class="node">
<title>dir_ed435641f8e8047e0f5542c775bc8256</title>
<g id="a_node12"><a xlink:href="dir_ed435641f8e8047e0f5542c775bc8256.html" target="_top" xlink:title="Misc">
<polygon fill="#edf0f7" stroke="red" stroke-dasharray="5,2" points="95.5,-19 56.5,-19 56.5,0 95.5,0 95.5,-19"/>
<text text-anchor="middle" x="76" y="-7" font-family="Helvetica,sans-Serif" font-size="10.00">Misc</text>
</a>
</g>
</g>
<!-- dir_a3a1ca8af9b616e247b3f0c90e8cde87&#45;&gt;dir_ed435641f8e8047e0f5542c775bc8256 -->
<g id="edge9" class="edge">
<title>dir_a3a1ca8af9b616e247b3f0c90e8cde87&#45;&gt;dir_ed435641f8e8047e0f5542c775bc8256</title>
<g id="a_edge9"><a xlink:href="dir_000000_000033.html" target="_top">
<path fill="none" stroke="#63b8ff" d="M235.75,-284.45C167.64,-285.12 0,-276.52 0,-175.5 0,-175.5 0,-175.5 0,-118.5 0,-79.47 33.61,-44.58 56.13,-25.6"/>
<polygon fill="#63b8ff" stroke="#63b8ff" points="58.56,-28.14 64.12,-19.12 54.15,-22.7 58.56,-28.14"/>
</a>
</g>
<g id="a_edge9&#45;headlabel"><a xlink:href="dir_000000_000033.html" target="_top" xlink:title="19">
<text text-anchor="middle" x="57.55" y="-30.1" font-family="Helvetica,sans-Serif" font-size="10.00" fill="#63b8ff">19</text>
</a>
</g>
</g>
<!-- dir_2e6cb6ad22eac95854364123a8694435&#45;&gt;dir_6951a24f4a3b17f76f94f0e7c618fb09 -->
<g id="edge11" class="edge">
<title>dir_2e6cb6ad22eac95854364123a8694435&#45;&gt;dir_6951a24f4a3b17f76f94f0e7c618fb09</title>
<g id="a_edge11"><a xlink:href="dir_000005_000055.html" target="_top">
<path fill="none" stroke="#63b8ff" d="M278.51,-219.84C309.83,-201.16 384,-156.9 421.88,-134.3"/>
<polygon fill="#63b8ff" stroke="#63b8ff" points="423.88,-137.18 430.68,-129.05 420.3,-131.17 423.88,-137.18"/>
</a>
</g>
<g id="a_edge11&#45;headlabel"><a xlink:href="dir_000005_000055.html" target="_top" xlink:title="1">
<text text-anchor="middle" x="422.25" y="-138.96" font-family="Helvetica,sans-Serif" font-size="10.00" fill="#63b8ff">1</text>
</a>
</g>
</g>
<!-- dir_2e6cb6ad22eac95854364123a8694435&#45;&gt;dir_599f11267c3a85736edb1f98923093b9 -->
<g id="edge10" class="edge">
<title>dir_2e6cb6ad22eac95854364123a8694435&#45;&gt;dir_599f11267c3a85736edb1f98923093b9</title>
<g id="a_edge10"><a xlink:href="dir_000005_000053.html" target="_top">
<path fill="none" stroke="#63b8ff" d="M268.13,-219.75C271.51,-212.57 276.42,-202.18 280.62,-193.27"/>
<polygon fill="#63b8ff" stroke="#63b8ff" points="283.85,-194.63 284.95,-184.09 277.52,-191.64 283.85,-194.63"/>
</a>
</g>
<g id="a_edge10&#45;headlabel"><a xlink:href="dir_000005_000053.html" target="_top" xlink:title="1">
<text text-anchor="middle" x="284.88" y="-196.59" font-family="Helvetica,sans-Serif" font-size="10.00" fill="#63b8ff">1</text>
</a>
</g>
</g>
<!-- dir_2e6cb6ad22eac95854364123a8694435&#45;&gt;dir_ed435641f8e8047e0f5542c775bc8256 -->
<g id="edge12" class="edge">
<title>dir_2e6cb6ad22eac95854364123a8694435&#45;&gt;dir_ed435641f8e8047e0f5542c775bc8256</title>
<g id="a_edge12"><a xlink:href="dir_000005_000033.html" target="_top">
<path fill="none" stroke="#63b8ff" d="M250.46,-219.79C218.71,-198.69 138.94,-141.55 96,-74 87.28,-60.28 82.11,-42.47 79.21,-29.21"/>
<polygon fill="#63b8ff" stroke="#63b8ff" points="82.63,-28.47 77.29,-19.32 75.76,-29.81 82.63,-28.47"/>
</a>
</g>
<g id="a_edge12&#45;headlabel"><a xlink:href="dir_000005_000033.html" target="_top" xlink:title="1">
<text text-anchor="middle" x="86.11" y="-28.96" font-family="Helvetica,sans-Serif" font-size="10.00" fill="#63b8ff">1</text>
</a>
</g>
</g>
<!-- dir_e4a5f3ebbc8705b509aeb54f8d16dd0b&#45;&gt;dir_599f11267c3a85736edb1f98923093b9 -->
<g id="edge14" class="edge">
<title>dir_e4a5f3ebbc8705b509aeb54f8d16dd0b&#45;&gt;dir_599f11267c3a85736edb1f98923093b9</title>
<g id="a_edge14"><a xlink:href="dir_000011_000053.html" target="_top">
<path fill="none" stroke="#63b8ff" d="M290.12,-74.16C293.88,-91.5 295.44,-130.84 293.76,-154.48"/>
<polygon fill="#63b8ff" stroke="#63b8ff" points="290.25,-154.35 292.67,-164.66 297.21,-155.09 290.25,-154.35"/>
</a>
</g>
<g id="a_edge14&#45;headlabel"><a xlink:href="dir_000011_000053.html" target="_top" xlink:title="13">
<text text-anchor="middle" x="287.81" y="-147.97" font-family="Helvetica,sans-Serif" font-size="10.00" fill="#63b8ff">13</text>
</a>
</g>
</g>
<!-- dir_e4a5f3ebbc8705b509aeb54f8d16dd0b&#45;&gt;dir_4045643538bad1aadeff61b05dc9bc0d -->
<g id="edge13" class="edge">
<title>dir_e4a5f3ebbc8705b509aeb54f8d16dd0b&#45;&gt;dir_4045643538bad1aadeff61b05dc9bc0d</title>
<g id="a_edge13"><a xlink:href="dir_000011_000010.html" target="_top">
<path fill="none" stroke="#63b8ff" d="M297.92,-54.83C304.43,-50.12 312.64,-44.21 320,-39 326.52,-34.39 333.66,-29.4 340.12,-24.91"/>
<polygon fill="#63b8ff" stroke="#63b8ff" points="342.17,-27.75 348.4,-19.18 338.19,-21.99 342.17,-27.75"/>
</a>
</g>
<g id="a_edge13&#45;headlabel"><a xlink:href="dir_000011_000010.html" target="_top" xlink:title="1">
<text text-anchor="middle" x="340.84" y="-29.63" font-family="Helvetica,sans-Serif" font-size="10.00" fill="#63b8ff">1</text>
</a>
</g>
</g>
<!-- dir_e4a5f3ebbc8705b509aeb54f8d16dd0b&#45;&gt;dir_6d30109d817e3a6d4be9084cc265e05a -->
<g id="edge15" class="edge">
<title>dir_e4a5f3ebbc8705b509aeb54f8d16dd0b&#45;&gt;dir_6d30109d817e3a6d4be9084cc265e05a</title>
<g id="a_edge15"><a xlink:href="dir_000011_000032.html" target="_top">
<path fill="none" stroke="#63b8ff" d="M295.34,-54.8C301.78,-49.33 310.8,-42.64 320,-39 352.7,-26.04 451.31,-16.97 503.97,-12.91"/>
<polygon fill="#63b8ff" stroke="#63b8ff" points="504.46,-16.38 514.17,-12.14 503.93,-9.4 504.46,-16.38"/>
</a>
</g>
<g id="a_edge15&#45;headlabel"><a xlink:href="dir_000011_000032.html" target="_top" xlink:title="2">
<text text-anchor="middle" x="501.09" y="-16.98" font-family="Helvetica,sans-Serif" font-size="10.00" fill="#63b8ff">2</text>
</a>
</g>
</g>
<!-- dir_e4a5f3ebbc8705b509aeb54f8d16dd0b&#45;&gt;dir_ed435641f8e8047e0f5542c775bc8256 -->
<g id="edge16" class="edge">
<title>dir_e4a5f3ebbc8705b509aeb54f8d16dd0b&#45;&gt;dir_ed435641f8e8047e0f5542c775bc8256</title>
<g id="a_edge16"><a xlink:href="dir_000011_000033.html" target="_top">
<path fill="none" stroke="#63b8ff" d="M256.36,-56.02C216.4,-45.93 145.67,-28.08 105.69,-17.99"/>
<polygon fill="#63b8ff" stroke="#63b8ff" points="106.3,-14.54 95.75,-15.48 104.59,-21.33 106.3,-14.54"/>
</a>
</g>
<g id="a_edge16&#45;headlabel"><a xlink:href="dir_000011_000033.html" target="_top" xlink:title="1">
<text text-anchor="middle" x="110.48" y="-10.16" font-family="Helvetica,sans-Serif" font-size="10.00" fill="#63b8ff">1</text>
</a>
</g>
</g>
<!-- dir_82abf9c3cae407e2f368e3cd0d776797 -->
<g id="node13" class="node">
<title>dir_82abf9c3cae407e2f368e3cd0d776797</title>
<g id="a_node13"><a xlink:href="dir_82abf9c3cae407e2f368e3cd0d776797.html" target="_top" xlink:title="Physics">
<polygon fill="#edf0f7" stroke="#7f7f7f" points="254.5,-19 201.5,-19 201.5,0 254.5,0 254.5,-19"/>
<text text-anchor="middle" x="228" y="-7" font-family="Helvetica,sans-Serif" font-size="10.00">Physics</text>
</a>
</g>
</g>
<!-- dir_e4a5f3ebbc8705b509aeb54f8d16dd0b&#45;&gt;dir_82abf9c3cae407e2f368e3cd0d776797 -->
<g id="edge17" class="edge">
<title>dir_e4a5f3ebbc8705b509aeb54f8d16dd0b&#45;&gt;dir_82abf9c3cae407e2f368e3cd0d776797</title>
<g id="a_edge17"><a xlink:href="dir_000011_000044.html" target="_top">
<path fill="none" stroke="#63b8ff" d="M276.68,-54.98C268.19,-47.23 255.44,-35.58 245.12,-26.14"/>
<polygon fill="#63b8ff" stroke="#63b8ff" points="247.23,-23.33 237.49,-19.17 242.51,-28.5 247.23,-23.33"/>
</a>
</g>
<g id="a_edge17&#45;headlabel"><a xlink:href="dir_000011_000044.html" target="_top" xlink:title="1">
<text text-anchor="middle" x="251.8" y="-21.16" font-family="Helvetica,sans-Serif" font-size="10.00" fill="#63b8ff">1</text>
</a>
</g>
</g>
<!-- dir_bcac7830ba4ce4ae1ccca2802e2445e2&#45;&gt;dir_43cb4bfd147dcd2c8e28f53755d3f09a -->
<g id="edge19" class="edge">
<title>dir_bcac7830ba4ce4ae1ccca2802e2445e2&#45;&gt;dir_43cb4bfd147dcd2c8e28f53755d3f09a</title>
<g id="a_edge19"><a xlink:href="dir_000014_000016.html" target="_top">
<path fill="none" stroke="#63b8ff" d="M262.64,-109.98C281.3,-101.46 310.25,-88.23 331.74,-78.41"/>
<polygon fill="#63b8ff" stroke="#63b8ff" points="333.38,-81.51 341.02,-74.17 330.47,-75.14 333.38,-81.51"/>
</a>
</g>
<g id="a_edge19&#45;headlabel"><a xlink:href="dir_000014_000016.html" target="_top" xlink:title="1">
<text text-anchor="middle" x="331.29" y="-83.09" font-family="Helvetica,sans-Serif" font-size="10.00" fill="#63b8ff">1</text>
</a>
</g>
</g>
<!-- dir_bcac7830ba4ce4ae1ccca2802e2445e2&#45;&gt;dir_e4a5f3ebbc8705b509aeb54f8d16dd0b -->
<g id="edge22" class="edge">
<title>dir_bcac7830ba4ce4ae1ccca2802e2445e2&#45;&gt;dir_e4a5f3ebbc8705b509aeb54f8d16dd0b</title>
<g id="a_edge22"><a xlink:href="dir_000014_000011.html" target="_top">
<path fill="none" stroke="#63b8ff" d="M250.94,-109.75C256.87,-102.26 265.57,-91.28 272.82,-82.13"/>
<polygon fill="#63b8ff" stroke="#63b8ff" points="275.73,-84.1 279.19,-74.09 270.24,-79.75 275.73,-84.1"/>
</a>
</g>
<g id="a_edge22&#45;headlabel"><a xlink:href="dir_000014_000011.html" target="_top" xlink:title="1">
<text text-anchor="middle" x="275.72" y="-86.18" font-family="Helvetica,sans-Serif" font-size="10.00" fill="#63b8ff">1</text>
</a>
</g>
</g>
<!-- dir_bcac7830ba4ce4ae1ccca2802e2445e2&#45;&gt;dir_599f11267c3a85736edb1f98923093b9 -->
<g id="edge20" class="edge">
<title>dir_bcac7830ba4ce4ae1ccca2802e2445e2&#45;&gt;dir_599f11267c3a85736edb1f98923093b9</title>
<g id="a_edge20"><a xlink:href="dir_000014_000053.html" target="_top">
<path fill="none" stroke="#63b8ff" d="M256.42,-129.09C264.28,-136.45 273.88,-147.27 280.83,-156.39"/>
<polygon fill="#63b8ff" stroke="#63b8ff" points="278.11,-158.6 286.74,-164.75 283.82,-154.56 278.11,-158.6"/>
</a>
</g>
<g id="a_edge20&#45;headlabel"><a xlink:href="dir_000014_000053.html" target="_top" xlink:title="5">
<text text-anchor="middle" x="273.71" y="-154.8" font-family="Helvetica,sans-Serif" font-size="10.00" fill="#63b8ff">5</text>
</a>
</g>
</g>
<!-- dir_bcac7830ba4ce4ae1ccca2802e2445e2&#45;&gt;dir_4045643538bad1aadeff61b05dc9bc0d -->
<g id="edge18" class="edge">
<title>dir_bcac7830ba4ce4ae1ccca2802e2445e2&#45;&gt;dir_4045643538bad1aadeff61b05dc9bc0d</title>
<g id="a_edge18"><a xlink:href="dir_000014_000010.html" target="_top">
<path fill="none" stroke="#63b8ff" d="M270.06,-111.12C314.39,-98.56 399.75,-74.33 400,-74 409.37,-61.58 407.04,-52.87 400,-39 397.23,-33.54 392.86,-28.87 388.04,-25"/>
<polygon fill="#63b8ff" stroke="#63b8ff" points="389.9,-22.03 379.69,-19.21 385.92,-27.78 389.9,-22.03"/>
</a>
</g>
<g id="a_edge18&#45;headlabel"><a xlink:href="dir_000014_000010.html" target="_top" xlink:title="2">
<text text-anchor="middle" x="394.48" y="-19.24" font-family="Helvetica,sans-Serif" font-size="10.00" fill="#63b8ff">2</text>
</a>
</g>
</g>
<!-- dir_bcac7830ba4ce4ae1ccca2802e2445e2&#45;&gt;dir_ed435641f8e8047e0f5542c775bc8256 -->
<g id="edge23" class="edge">
<title>dir_bcac7830ba4ce4ae1ccca2802e2445e2&#45;&gt;dir_ed435641f8e8047e0f5542c775bc8256</title>
<g id="a_edge23"><a xlink:href="dir_000014_000033.html" target="_top">
<path fill="none" stroke="#63b8ff" d="M230.54,-109.84C201.66,-91.28 133.54,-47.49 98.17,-24.75"/>
<polygon fill="#63b8ff" stroke="#63b8ff" points="99.83,-21.66 89.53,-19.2 96.05,-27.55 99.83,-21.66"/>
</a>
</g>
<g id="a_edge23&#45;headlabel"><a xlink:href="dir_000014_000033.html" target="_top" xlink:title="1">
<text text-anchor="middle" x="104.39" y="-18.72" font-family="Helvetica,sans-Serif" font-size="10.00" fill="#63b8ff">1</text>
</a>
</g>
</g>
<!-- dir_bcac7830ba4ce4ae1ccca2802e2445e2&#45;&gt;dir_82abf9c3cae407e2f368e3cd0d776797 -->
<g id="edge21" class="edge">
<title>dir_bcac7830ba4ce4ae1ccca2802e2445e2&#45;&gt;dir_82abf9c3cae407e2f368e3cd0d776797</title>
<g id="a_edge21"><a xlink:href="dir_000014_000044.html" target="_top">
<path fill="none" stroke="#63b8ff" d="M242.69,-109.66C240.1,-92.17 234.27,-52.8 230.78,-29.27"/>
<polygon fill="#63b8ff" stroke="#63b8ff" points="234.21,-28.54 229.28,-19.16 227.29,-29.56 234.21,-28.54"/>
</a>
</g>
<g id="a_edge21&#45;headlabel"><a xlink:href="dir_000014_000044.html" target="_top" xlink:title="1">
<text text-anchor="middle" x="237.55" y="-29.18" font-family="Helvetica,sans-Serif" font-size="10.00" fill="#63b8ff">1</text>
</a>
</g>
</g>
<!-- dir_599f11267c3a85736edb1f98923093b9&#45;&gt;dir_6951a24f4a3b17f76f94f0e7c618fb09 -->
<g id="edge26" class="edge">
<title>dir_599f11267c3a85736edb1f98923093b9&#45;&gt;dir_6951a24f4a3b17f76f94f0e7c618fb09</title>
<g id="a_edge26"><a xlink:href="dir_000053_000055.html" target="_top">
<path fill="none" stroke="#63b8ff" d="M314.06,-164.98C340.03,-156.16 380.81,-142.31 409.96,-132.41"/>
<polygon fill="#63b8ff" stroke="#63b8ff" points="411.4,-135.61 419.74,-129.08 409.15,-128.99 411.4,-135.61"/>
</a>
</g>
<g id="a_edge26&#45;headlabel"><a xlink:href="dir_000053_000055.html" target="_top" xlink:title="3">
<text text-anchor="middle" x="408.91" y="-136.96" font-family="Helvetica,sans-Serif" font-size="10.00" fill="#63b8ff">3</text>
</a>
</g>
</g>
<!-- dir_599f11267c3a85736edb1f98923093b9&#45;&gt;dir_dbc329bf08cdcad994818f4c40ac845b -->
<g id="edge30" class="edge">
<title>dir_599f11267c3a85736edb1f98923093b9&#45;&gt;dir_dbc329bf08cdcad994818f4c40ac845b</title>
<g id="a_edge30"><a xlink:href="dir_000053_000047.html" target="_top">
<path fill="none" stroke="#63b8ff" d="M301.37,-164.98C313.09,-156.92 330.92,-144.65 344.89,-135.03"/>
<polygon fill="#63b8ff" stroke="#63b8ff" points="347.15,-137.72 353.4,-129.17 343.18,-131.96 347.15,-137.72"/>
</a>
</g>
<g id="a_edge30&#45;headlabel"><a xlink:href="dir_000053_000047.html" target="_top" xlink:title="1">
<text text-anchor="middle" x="345.8" y="-139.6" font-family="Helvetica,sans-Serif" font-size="10.00" fill="#63b8ff">1</text>
</a>
</g>
</g>
<!-- dir_599f11267c3a85736edb1f98923093b9&#45;&gt;dir_e4a5f3ebbc8705b509aeb54f8d16dd0b -->
<g id="edge31" class="edge">
<title>dir_599f11267c3a85736edb1f98923093b9&#45;&gt;dir_e4a5f3ebbc8705b509aeb54f8d16dd0b</title>
<g id="a_edge31"><a xlink:href="dir_000053_000011.html" target="_top">
<path fill="none" stroke="#63b8ff" d="M284.84,-164.66C281.1,-147.17 279.55,-107.8 281.26,-84.27"/>
<polygon fill="#63b8ff" stroke="#63b8ff" points="284.76,-84.48 282.36,-74.16 277.8,-83.72 284.76,-84.48"/>
</a>
</g>
<g id="a_edge31&#45;headlabel"><a xlink:href="dir_000053_000011.html" target="_top" xlink:title="6">
<text text-anchor="middle" x="287.19" y="-85.86" font-family="Helvetica,sans-Serif" font-size="10.00" fill="#63b8ff">6</text>
</a>
</g>
</g>
<!-- dir_599f11267c3a85736edb1f98923093b9&#45;&gt;dir_bcac7830ba4ce4ae1ccca2802e2445e2 -->
<g id="edge29" class="edge">
<title>dir_599f11267c3a85736edb1f98923093b9&#45;&gt;dir_bcac7830ba4ce4ae1ccca2802e2445e2</title>
<g id="a_edge29"><a xlink:href="dir_000053_000014.html" target="_top">
<path fill="none" stroke="#63b8ff" d="M276.66,-164.98C268.77,-157.61 259.11,-146.72 252.13,-137.56"/>
<polygon fill="#63b8ff" stroke="#63b8ff" points="254.84,-135.32 246.21,-129.17 249.12,-139.36 254.84,-135.32"/>
</a>
</g>
<g id="a_edge29&#45;headlabel"><a xlink:href="dir_000053_000014.html" target="_top" xlink:title="1">
<text text-anchor="middle" x="259.23" y="-134.13" font-family="Helvetica,sans-Serif" font-size="10.00" fill="#63b8ff">1</text>
</a>
</g>
</g>
<!-- dir_599f11267c3a85736edb1f98923093b9&#45;&gt;dir_389a21b4e0d5da4afd1bc923d1c21e90 -->
<g id="edge24" class="edge">
<title>dir_599f11267c3a85736edb1f98923093b9&#45;&gt;dir_389a21b4e0d5da4afd1bc923d1c21e90</title>
<g id="a_edge24"><a xlink:href="dir_000053_000030.html" target="_top">
<path fill="none" stroke="#63b8ff" d="M316.02,-169.7C363.84,-162.8 466.4,-147.23 552,-129 553.27,-128.73 554.56,-128.44 555.87,-128.15"/>
<polygon fill="#63b8ff" stroke="#63b8ff" points="556.98,-131.48 565.87,-125.72 555.33,-124.68 556.98,-131.48"/>
</a>
</g>
<g id="a_edge24&#45;headlabel"><a xlink:href="dir_000053_000030.html" target="_top" xlink:title="3">
<text text-anchor="middle" x="554.15" y="-132.58" font-family="Helvetica,sans-Serif" font-size="10.00" fill="#63b8ff">3</text>
</a>
</g>
</g>
<!-- dir_599f11267c3a85736edb1f98923093b9&#45;&gt;dir_4045643538bad1aadeff61b05dc9bc0d -->
<g id="edge25" class="edge">
<title>dir_599f11267c3a85736edb1f98923093b9&#45;&gt;dir_4045643538bad1aadeff61b05dc9bc0d</title>
<g id="a_edge25"><a xlink:href="dir_000053_000010.html" target="_top">
<path fill="none" stroke="#63b8ff" d="M316.33,-171.36C364.95,-166.94 463.32,-154.93 484,-129 518.09,-86.25 439.26,-43.61 392.5,-23.1"/>
<polygon fill="#63b8ff" stroke="#63b8ff" points="393.62,-19.77 383.05,-19.06 390.87,-26.21 393.62,-19.77"/>
</a>
</g>
<g id="a_edge25&#45;headlabel"><a xlink:href="dir_000053_000010.html" target="_top" xlink:title="5">
<text text-anchor="middle" x="398.05" y="-16.07" font-family="Helvetica,sans-Serif" font-size="10.00" fill="#63b8ff">5</text>
</a>
</g>
</g>
<!-- dir_599f11267c3a85736edb1f98923093b9&#45;&gt;dir_6d30109d817e3a6d4be9084cc265e05a -->
<g id="edge27" class="edge">
<title>dir_599f11267c3a85736edb1f98923093b9&#45;&gt;dir_6d30109d817e3a6d4be9084cc265e05a</title>
<g id="a_edge27"><a xlink:href="dir_000053_000032.html" target="_top">
<path fill="none" stroke="#63b8ff" d="M316.07,-171.25C367.14,-166.47 475.03,-153.67 502,-129 530.33,-103.08 536.65,-55.66 537.89,-29.35"/>
<polygon fill="#63b8ff" stroke="#63b8ff" points="541.39,-29.28 538.16,-19.19 534.39,-29.1 541.39,-29.28"/>
</a>
</g>
<g id="a_edge27&#45;headlabel"><a xlink:href="dir_000053_000032.html" target="_top" xlink:title="5">
<text text-anchor="middle" x="544.13" y="-30.45" font-family="Helvetica,sans-Serif" font-size="10.00" fill="#63b8ff">5</text>
</a>
</g>
</g>
<!-- dir_599f11267c3a85736edb1f98923093b9&#45;&gt;dir_ed435641f8e8047e0f5542c775bc8256 -->
<g id="edge32" class="edge">
<title>dir_599f11267c3a85736edb1f98923093b9&#45;&gt;dir_ed435641f8e8047e0f5542c775bc8256</title>
<g id="a_edge32"><a xlink:href="dir_000053_000033.html" target="_top">
<path fill="none" stroke="#63b8ff" d="M266.33,-164.96C246.99,-157.12 218.92,-144.41 197,-129 153.32,-98.29 110.73,-51.53 89.65,-26.93"/>
<polygon fill="#63b8ff" stroke="#63b8ff" points="92.26,-24.6 83.13,-19.22 86.92,-29.12 92.26,-24.6"/>
</a>
</g>
<g id="a_edge32&#45;headlabel"><a xlink:href="dir_000053_000033.html" target="_top" xlink:title="14">
<text text-anchor="middle" x="96.75" y="-23.01" font-family="Helvetica,sans-Serif" font-size="10.00" fill="#63b8ff">14</text>
</a>
</g>
</g>
<!-- dir_599f11267c3a85736edb1f98923093b9&#45;&gt;dir_82abf9c3cae407e2f368e3cd0d776797 -->
<g id="edge28" class="edge">
<title>dir_599f11267c3a85736edb1f98923093b9&#45;&gt;dir_82abf9c3cae407e2f368e3cd0d776797</title>
<g id="a_edge28"><a xlink:href="dir_000053_000044.html" target="_top">
<path fill="none" stroke="#63b8ff" d="M261.95,-166.32C243.47,-159.85 220.36,-148.32 209,-129 190.33,-97.25 206.5,-52.86 218.3,-28.41"/>
<polygon fill="#63b8ff" stroke="#63b8ff" points="221.54,-29.75 222.97,-19.25 215.31,-26.57 221.54,-29.75"/>
</a>
</g>
<g id="a_edge28&#45;headlabel"><a xlink:href="dir_000053_000044.html" target="_top" xlink:title="2">
<text text-anchor="middle" x="222.44" y="-31.74" font-family="Helvetica,sans-Serif" font-size="10.00" fill="#63b8ff">2</text>
</a>
</g>
</g>
</g>
</svg>

<g id="navigator" transform="translate(0 0)" fill="#404254">
  <rect fill="#f2f5e9" fill-opacity="0.5" stroke="#606060" stroke-width=".5" x="0" y="0" width="60" height="60"/>
  <use id="zoomplus" xlink:href="#zoomPlus" x="17" y="9" onmousedown="handleZoom(evt,'in')"/>
  <use id="zoomminus" xlink:href="#zoomMin" x="42" y="9" onmousedown="handleZoom(evt,'out')"/>
  <use id="reset" xlink:href="#resetDef" x="30" y="36" onmousedown="handleReset()"/>
   <use id="arrowup" xlink:href="#arrowUp" x="0" y="0" onmousedown="handlePan(0,-1)"/>
  <use id="arrowright" xlink:href="#arrowRight" x="0" y="0" onmousedown="handlePan(1,0)"/>
  <use id="arrowdown" xlink:href="#arrowDown" x="0" y="0" onmousedown="handlePan(0,1)"/>
  <use id="arrowleft" xlink:href="#arrowLeft" x="0" y="0" onmousedown="handlePan(-1,0)"/>
</g>
<svg viewBox="0 0 15 15" width="100%" height="30px" preserveAspectRatio="xMaxYMin meet">
 <g id="arrow_out" transform="scale(0.3 0.3)">
  <a xlink:href="dir_a3a1ca8af9b616e247b3f0c90e8cde87_dep_org.svg" target="_base">
   <rect id="button" ry="5" rx="5" y="6" x="6" height="38" width="38"
        fill="#f2f5e9" fill-opacity="0.5" stroke="#606060" stroke-width="1.0"/>
   <path id="arrow"
     d="M 11.500037,31.436501 C 11.940474,20.09759 22.043105,11.32322 32.158766,21.979434 L 37.068811,17.246167 C 37.068811,17.246167 37.088388,32 37.088388,32 L 22.160133,31.978069 C 22.160133,31.978069 26.997745,27.140456 26.997745,27.140456 C 18.528582,18.264221 13.291696,25.230495 11.500037,31.436501 z"
     style="fill:#404040;"/>
  </a>
 </g>
</svg>

<style type='text/css'>
<![CDATA[
[data-mouse-over-selected='false'] { opacity: 0.7; }
[data-mouse-over-selected='true']  { opacity: 1.0; }
]]>
</style>
<script type="application/ecmascript"><![CDATA[
document.addEventListener('DOMContentLoaded', (event) => {
  highlightEdges();
  highlightAdjacentNodes();
});
]]></script>
</svg>
