<?xml version="1.0" encoding="UTF-8" standalone="no"?>
<!DOCTYPE svg PUBLIC "-//W3C//DTD SVG 1.1//EN"
 "http://www.w3.org/Graphics/SVG/1.1/DTD/svg11.dtd">
<!-- Generated by graphviz version 2.43.0 (0)
 -->
<!-- Title: /home/runner/work/Weaver/Weaver/include/App/Model/IBM/Landscape/LivingBeings/EdibleID.h Pages: 1 -->
<!--zoomable 1116 -->

<svg id="main" version="1.1" xmlns="http://www.w3.org/2000/svg" xmlns:xlink="http://www.w3.org/1999/xlink" xml:space="preserve" onload="init(evt)">
<style type="text/css"><![CDATA[
.node, .edge {opacity: 0.7;}
.node.selected, .edge.selected {opacity: 1;}
.edge:hover path { stroke: red; }
.edge:hover polygon { stroke: red; fill: red; }
]]></style>

<defs>
  <circle id="rim" cx="0" cy="0" r="7"/>
  <circle id="rim2" cx="0" cy="0" r="3.5"/>
  <g id="zoomPlus">
    <use xlink:href="#rim" fill="#404040"><set attributeName="fill" to="#808080" begin="zoomplus.mouseover" end="zoomplus.mouseout"/></use>
    <path d="M-4,0h8M0,-4v8" fill="none" stroke="white" stroke-width="1.5" pointer-events="none"/>
  </g>
  <g id="zoomMin">
    <use xlink:href="#rim" fill="#404040"><set attributeName="fill" to="#808080" begin="zoomminus.mouseover" end="zoomminus.mouseout"/></use>
    <path d="M-4,0h8" fill="none" stroke="white" stroke-width="1.5" pointer-events="none"/>
  </g>
  <g id="arrowUp" transform="translate(30 24)">
    <use xlink:href="#rim"/>
    <path pointer-events="none" fill="none" stroke="white" stroke-width="1.5" d="M0,-3.0v7 M-2.5,-0.5L0,-3.0L2.5,-0.5"/>
  </g>
  <g id="arrowRight" transform="rotate(90) translate(36 -43)">
    <use xlink:href="#rim"/>
    <path pointer-events="none" fill="none" stroke="white" stroke-width="1.5" d="M0,-3.0v7 M-2.5,-0.5L0,-3.0L2.5,-0.5"/>
  </g>
  <g id="arrowDown" transform="rotate(180) translate(-30 -48)">
    <use xlink:href="#rim"/>
    <path pointer-events="none" fill="none" stroke="white" stroke-width="1.5" d="M0,-3.0v7 M-2.5,-0.5L0,-3.0L2.5,-0.5"/>
  </g>
  <g id="arrowLeft" transform="rotate(270) translate(-36 17)">
    <use xlink:href="#rim"/>
    <path pointer-events="none" fill="none" stroke="white" stroke-width="1.5" d="M0,-3.0v7 M-2.5,-0.5L0,-3.0L2.5,-0.5"/>
  </g>
  <g id="resetDef">
    <use xlink:href="#rim2" fill="#404040"><set attributeName="fill" to="#808080" begin="reset.mouseover" end="reset.mouseout"/></use>
  </g>
</defs>
<script type="application/ecmascript">
var viewWidth = 1225;
var viewHeight = 1116;
var sectionId = 'dynsection-1';
</script>
<script type="application/ecmascript" xlink:href="svg.min.js"/>
<svg id="graph" class="graph">
<g id="viewport">
<title>/home/runner/work/Weaver/Weaver/include/App/Model/IBM/Landscape/LivingBeings/EdibleID.h</title>
<!-- Node1 -->
<g id="Node000001" class="node">
<title>Node1</title>
<g id="a_Node000001"><a xlink:title="Represents a unique identifier for edible entities in the simulation.">
<polygon fill="#999999" stroke="#666666" points="239,-1108 81,-1108 81,-1056 239,-1056 239,-1108"/>
<text text-anchor="start" x="89" y="-1096" font-family="Helvetica,sans-Serif" font-size="10.00">/home/runner/work/Weaver</text>
<text text-anchor="start" x="89" y="-1085" font-family="Helvetica,sans-Serif" font-size="10.00">/Weaver/include/App/Model</text>
<text text-anchor="start" x="89" y="-1074" font-family="Helvetica,sans-Serif" font-size="10.00">/IBM/Landscape/LivingBeings</text>
<text text-anchor="middle" x="160" y="-1063" font-family="Helvetica,sans-Serif" font-size="10.00">/EdibleID.h</text>
</a>
</g>
</g>
<!-- Node2 -->
<g id="Node000002" class="node">
<title>Node2</title>
<g id="a_Node000002"><a xlink:href="Landscape_8h.html" target="_top" xlink:title="Doxygen&#45;documented declaration of the Landscape class and related serialization helpers.">
<polygon fill="white" stroke="#666666" points="465.5,-118 308.5,-118 308.5,-77 465.5,-77 465.5,-118"/>
<text text-anchor="start" x="316.5" y="-106" font-family="Helvetica,sans-Serif" font-size="10.00">/home/runner/work/Weaver</text>
<text text-anchor="start" x="316.5" y="-95" font-family="Helvetica,sans-Serif" font-size="10.00">/Weaver/include/App/Model</text>
<text text-anchor="middle" x="387" y="-84" font-family="Helvetica,sans-Serif" font-size="10.00">/IBM/Landscape/Landscape.h</text>
</a>
</g>
</g>
<!-- Node1&#45;&gt;Node2 -->
<g id="edge1_Node000001_Node000002" class="edge">
<title>Node1&#45;&gt;Node2</title>
<g id="a_edge1_Node000001_Node000002"><a xlink:title=" ">
<path fill="none" stroke="#63b8ff" d="M106.08,-1050.2C59.62,-1019.22 0,-966.74 0,-901.5 0,-901.5 0,-901.5 0,-256 0,-204.91 11.66,-184.02 53,-154 92.71,-125.16 222.75,-110.33 308.36,-103.5"/>
<polygon fill="#63b8ff" stroke="#63b8ff" points="104.29,-1053.22 114.58,-1055.74 108.11,-1047.35 104.29,-1053.22"/>
</a>
</g>
</g>
<!-- Node7 -->
<g id="Node000007" class="node">
<title>Node7</title>
<g id="a_Node000007"><a xlink:href="Edible_8h.html" target="_top" xlink:title="Defines the base class for edible entities in the simulation.">
<polygon fill="white" stroke="#666666" points="487,-1020 329,-1020 329,-968 487,-968 487,-1020"/>
<text text-anchor="start" x="337" y="-1008" font-family="Helvetica,sans-Serif" font-size="10.00">/home/runner/work/Weaver</text>
<text text-anchor="start" x="337" y="-997" font-family="Helvetica,sans-Serif" font-size="10.00">/Weaver/include/App/Model</text>
<text text-anchor="start" x="337" y="-986" font-family="Helvetica,sans-Serif" font-size="10.00">/IBM/Landscape/LivingBeings</text>
<text text-anchor="middle" x="408" y="-975" font-family="Helvetica,sans-Serif" font-size="10.00">/Edible.h</text>
</a>
</g>
</g>
<!-- Node1&#45;&gt;Node7 -->
<g id="edge6_Node000001_Node000007" class="edge">
<title>Node1&#45;&gt;Node7</title>
<g id="a_edge6_Node000001_Node000007"><a xlink:title=" ">
<path fill="none" stroke="#63b8ff" d="M242.06,-1052.54C272.26,-1042.07 306.22,-1030.3 335.51,-1020.14"/>
<polygon fill="#63b8ff" stroke="#63b8ff" points="240.7,-1049.31 232.4,-1055.89 242.99,-1055.92 240.7,-1049.31"/>
</a>
</g>
</g>
<!-- Node3 -->
<g id="Node000003" class="node">
<title>Node3</title>
<g id="a_Node000003"><a xlink:href="IBM_8h.html" target="_top" xlink:title="Definition of the IBM class, representing the core individual&#45;based model of the simulation.">
<polygon fill="white" stroke="#666666" points="162.5,-41 13.5,-41 13.5,0 162.5,0 162.5,-41"/>
<text text-anchor="start" x="21.5" y="-29" font-family="Helvetica,sans-Serif" font-size="10.00">/home/runner/work/Weaver</text>
<text text-anchor="start" x="21.5" y="-18" font-family="Helvetica,sans-Serif" font-size="10.00">/Weaver/include/App/Model</text>
<text text-anchor="middle" x="88" y="-7" font-family="Helvetica,sans-Serif" font-size="10.00">/IBM/IBM.h</text>
</a>
</g>
</g>
<!-- Node2&#45;&gt;Node3 -->
<g id="edge2_Node000002_Node000003" class="edge">
<title>Node2&#45;&gt;Node3</title>
<g id="a_edge2_Node000002_Node000003"><a xlink:title=" ">
<path fill="none" stroke="#63b8ff" d="M299.52,-74.56C256.06,-63.65 204.1,-50.62 162.55,-40.2"/>
<polygon fill="#63b8ff" stroke="#63b8ff" points="298.67,-77.95 309.22,-76.99 300.37,-71.16 298.67,-77.95"/>
</a>
</g>
</g>
<!-- Node4 -->
<g id="Node000004" class="node">
<title>Node4</title>
<g id="a_Node000004"><a xlink:href="AquaticLandscape_8h.html" target="_top" xlink:title="Defines the AquaticLandscape class for aquatic ecosystem simulations.">
<polygon fill="white" stroke="#666666" points="374,-41 180,-41 180,0 374,0 374,-41"/>
<text text-anchor="start" x="188" y="-29" font-family="Helvetica,sans-Serif" font-size="10.00">/home/runner/work/Weaver</text>
<text text-anchor="start" x="188" y="-18" font-family="Helvetica,sans-Serif" font-size="10.00">/Weaver/include/App/Model</text>
<text text-anchor="middle" x="277" y="-7" font-family="Helvetica,sans-Serif" font-size="10.00">/IBM/Landscape/AquaticLandscape.h</text>
</a>
</g>
</g>
<!-- Node2&#45;&gt;Node4 -->
<g id="edge3_Node000002_Node000004" class="edge">
<title>Node2&#45;&gt;Node4</title>
<g id="a_edge3_Node000002_Node000004"><a xlink:title=" ">
<path fill="none" stroke="#63b8ff" d="M349.74,-71.09C335.4,-61.32 319.28,-50.32 305.85,-41.17"/>
<polygon fill="#63b8ff" stroke="#63b8ff" points="348.15,-74.25 358.39,-76.99 352.1,-68.47 348.15,-74.25"/>
</a>
</g>
</g>
<!-- Node5 -->
<g id="Node000005" class="node">
<title>Node5</title>
<g id="a_Node000005"><a xlink:href="ArthropodsLandscape_8h.html" target="_top" xlink:title="Defines the ArthropodsLandscape class for arthropod&#45;specific ecosystem simulations.">
<polygon fill="white" stroke="#666666" points="602,-41 392,-41 392,0 602,0 602,-41"/>
<text text-anchor="start" x="400" y="-29" font-family="Helvetica,sans-Serif" font-size="10.00">/home/runner/work/Weaver</text>
<text text-anchor="start" x="400" y="-18" font-family="Helvetica,sans-Serif" font-size="10.00">/Weaver/include/App/Model</text>
<text text-anchor="middle" x="497" y="-7" font-family="Helvetica,sans-Serif" font-size="10.00">/IBM/Landscape/ArthropodsLandscape.h</text>
</a>
</g>
</g>
<!-- Node2&#45;&gt;Node5 -->
<g id="edge4_Node000002_Node000005" class="edge">
<title>Node2&#45;&gt;Node5</title>
<g id="a_edge4_Node000002_Node000005"><a xlink:title=" ">
<path fill="none" stroke="#63b8ff" d="M424.26,-71.09C438.6,-61.32 454.72,-50.32 468.15,-41.17"/>
<polygon fill="#63b8ff" stroke="#63b8ff" points="421.9,-68.47 415.61,-76.99 425.85,-74.25 421.9,-68.47"/>
</a>
</g>
</g>
<!-- Node6 -->
<g id="Node000006" class="node">
<title>Node6</title>
<g id="a_Node000006"><a xlink:href="DinosaursLandscape_8h.html" target="_top" xlink:title="Defines the DinosaursLandscape class for dinosaur&#45;specific ecosystem simulations.">
<polygon fill="white" stroke="#666666" points="826,-41 620,-41 620,0 826,0 826,-41"/>
<text text-anchor="start" x="628" y="-29" font-family="Helvetica,sans-Serif" font-size="10.00">/home/runner/work/Weaver</text>
<text text-anchor="start" x="628" y="-18" font-family="Helvetica,sans-Serif" font-size="10.00">/Weaver/include/App/Model</text>
<text text-anchor="middle" x="723" y="-7" font-family="Helvetica,sans-Serif" font-size="10.00">/IBM/Landscape/DinosaursLandscape.h</text>
</a>
</g>
</g>
<!-- Node2&#45;&gt;Node6 -->
<g id="edge5_Node000002_Node000006" class="edge">
<title>Node2&#45;&gt;Node6</title>
<g id="a_edge5_Node000002_Node000006"><a xlink:title=" ">
<path fill="none" stroke="#63b8ff" d="M475.81,-76.68C525.19,-65.66 586.4,-51.99 635.56,-41.02"/>
<polygon fill="#63b8ff" stroke="#63b8ff" points="474.77,-73.32 465.78,-78.92 476.3,-80.15 474.77,-73.32"/>
</a>
</g>
</g>
<!-- Node7&#45;&gt;Node2 -->
<g id="edge7_Node000007_Node000002" class="edge">
<title>Node7&#45;&gt;Node2</title>
<g id="a_edge7_Node000007_Node000002"><a xlink:title=" ">
<path fill="none" stroke="#63b8ff" d="M497.13,-991.32C707.44,-984.93 1217,-954.36 1217,-808 1217,-808 1217,-808 1217,-256 1217,-236.21 1207.59,-196.29 1114,-154 1000.09,-102.53 629.24,-97.44 465.69,-97.81"/>
<polygon fill="#63b8ff" stroke="#63b8ff" points="496.94,-987.82 487.04,-991.61 497.14,-994.82 496.94,-987.82"/>
</a>
</g>
</g>
<!-- Node8 -->
<g id="Node000008" class="node">
<title>Node8</title>
<g id="a_Node000008"><a xlink:href="Animal_8h.html" target="_top" xlink:title="Defines the Animal class, an abstract class representing animals in the ecosystem.">
<polygon fill="white" stroke="#666666" points="487,-926.5 329,-926.5 329,-874.5 487,-874.5 487,-926.5"/>
<text text-anchor="start" x="337" y="-914.5" font-family="Helvetica,sans-Serif" font-size="10.00">/home/runner/work/Weaver</text>
<text text-anchor="start" x="337" y="-903.5" font-family="Helvetica,sans-Serif" font-size="10.00">/Weaver/include/App/Model</text>
<text text-anchor="start" x="337" y="-892.5" font-family="Helvetica,sans-Serif" font-size="10.00">/IBM/Landscape/LivingBeings</text>
<text text-anchor="middle" x="408" y="-881.5" font-family="Helvetica,sans-Serif" font-size="10.00">/Animals/Animal.h</text>
</a>
</g>
</g>
<!-- Node7&#45;&gt;Node8 -->
<g id="edge8_Node000007_Node000008" class="edge">
<title>Node7&#45;&gt;Node8</title>
<g id="a_edge8_Node000007_Node000008"><a xlink:title=" ">
<path fill="none" stroke="#63b8ff" d="M408,-957.96C408,-947.58 408,-936.42 408,-926.79"/>
<polygon fill="#63b8ff" stroke="#63b8ff" points="404.5,-958 408,-968 411.5,-958 404.5,-958"/>
</a>
</g>
</g>
<!-- Node12 -->
<g id="Node000012" class="node">
<title>Node12</title>
<g id="a_Node000012"><a xlink:href="CellValue_8h.html" target="_top" xlink:title="Defines the CellValue struct representing the evaluation of a terrain cell by an animal.">
<polygon fill="white" stroke="#666666" points="248.5,-745 71.5,-745 71.5,-693 248.5,-693 248.5,-745"/>
<text text-anchor="start" x="79.5" y="-733" font-family="Helvetica,sans-Serif" font-size="10.00">/home/runner/work/Weaver</text>
<text text-anchor="start" x="79.5" y="-722" font-family="Helvetica,sans-Serif" font-size="10.00">/Weaver/include/App/Model</text>
<text text-anchor="start" x="79.5" y="-711" font-family="Helvetica,sans-Serif" font-size="10.00">/IBM/Landscape/Map/TerrainCells</text>
<text text-anchor="middle" x="160" y="-700" font-family="Helvetica,sans-Serif" font-size="10.00">/CellValue.h</text>
</a>
</g>
</g>
<!-- Node7&#45;&gt;Node12 -->
<g id="edge35_Node000007_Node000012" class="edge">
<title>Node7&#45;&gt;Node12</title>
<g id="a_edge35_Node000007_Node000012"><a xlink:title=" ">
<path fill="none" stroke="#63b8ff" d="M320.77,-964.13C261.55,-939.44 187.75,-897.51 152,-833 136.94,-805.82 143.51,-769.15 150.76,-745.05"/>
<polygon fill="#63b8ff" stroke="#63b8ff" points="319.56,-967.42 330.14,-967.94 322.2,-960.93 319.56,-967.42"/>
</a>
</g>
</g>
<!-- Node20 -->
<g id="Node000020" class="node">
<title>Node20</title>
<g id="a_Node000020"><a xlink:href="CellResourceInterface_8h.html" target="_top" xlink:title="Interface for resources in a terrain cell.">
<polygon fill="white" stroke="#666666" points="871.5,-932 656.5,-932 656.5,-869 871.5,-869 871.5,-932"/>
<text text-anchor="start" x="664.5" y="-920" font-family="Helvetica,sans-Serif" font-size="10.00">/home/runner/work/Weaver</text>
<text text-anchor="start" x="664.5" y="-909" font-family="Helvetica,sans-Serif" font-size="10.00">/Weaver/include/App/Model</text>
<text text-anchor="start" x="664.5" y="-898" font-family="Helvetica,sans-Serif" font-size="10.00">/IBM/Landscape/Map/TerrainCells</text>
<text text-anchor="start" x="664.5" y="-887" font-family="Helvetica,sans-Serif" font-size="10.00">/PatchApplicator/Resources/CellResource</text>
<text text-anchor="middle" x="764" y="-876" font-family="Helvetica,sans-Serif" font-size="10.00">Interface.h</text>
</a>
</g>
</g>
<!-- Node7&#45;&gt;Node20 -->
<g id="edge36_Node000007_Node000020" class="edge">
<title>Node7&#45;&gt;Node20</title>
<g id="a_edge36_Node000007_Node000020"><a xlink:title=" ">
<path fill="none" stroke="#63b8ff" d="M496.81,-970.17C545.11,-957.76 605.22,-942.31 656.18,-929.21"/>
<polygon fill="#63b8ff" stroke="#63b8ff" points="495.82,-966.81 487.01,-972.69 497.56,-973.59 495.82,-966.81"/>
</a>
</g>
</g>
<!-- Node9 -->
<g id="Node000009" class="node">
<title>Node9</title>
<g id="a_Node000009"><a xlink:href="AnimalNonStatistical_8h.html" target="_top" xlink:title="Defines the AnimalNonStatistical class, a non&#45;statistical concrete implementation of Animal.">
<polygon fill="white" stroke="#666666" points="335,-833 161,-833 161,-781 335,-781 335,-833"/>
<text text-anchor="start" x="169" y="-821" font-family="Helvetica,sans-Serif" font-size="10.00">/home/runner/work/Weaver</text>
<text text-anchor="start" x="169" y="-810" font-family="Helvetica,sans-Serif" font-size="10.00">/Weaver/include/App/Model</text>
<text text-anchor="start" x="169" y="-799" font-family="Helvetica,sans-Serif" font-size="10.00">/IBM/Landscape/LivingBeings</text>
<text text-anchor="middle" x="248" y="-788" font-family="Helvetica,sans-Serif" font-size="10.00">/Animals/AnimalNonStatistical.h</text>
</a>
</g>
</g>
<!-- Node8&#45;&gt;Node9 -->
<g id="edge9_Node000008_Node000009" class="edge">
<title>Node8&#45;&gt;Node9</title>
<g id="a_edge9_Node000008_Node000009"><a xlink:title=" ">
<path fill="none" stroke="#63b8ff" d="M355.36,-869.4C334.83,-857.66 311.56,-844.35 291.95,-833.13"/>
<polygon fill="#63b8ff" stroke="#63b8ff" points="353.86,-872.57 364.28,-874.5 357.34,-866.49 353.86,-872.57"/>
</a>
</g>
</g>
<!-- Node13 -->
<g id="Node000013" class="node">
<title>Node13</title>
<g id="a_Node000013"><a xlink:href="TerrainCell_8h.html" target="_top" xlink:title="Defines the TerrainCell class representing a cell in the landscape.">
<polygon fill="white" stroke="#666666" points="524.5,-651.5 347.5,-651.5 347.5,-599.5 524.5,-599.5 524.5,-651.5"/>
<text text-anchor="start" x="355.5" y="-639.5" font-family="Helvetica,sans-Serif" font-size="10.00">/home/runner/work/Weaver</text>
<text text-anchor="start" x="355.5" y="-628.5" font-family="Helvetica,sans-Serif" font-size="10.00">/Weaver/include/App/Model</text>
<text text-anchor="start" x="355.5" y="-617.5" font-family="Helvetica,sans-Serif" font-size="10.00">/IBM/Landscape/Map/TerrainCells</text>
<text text-anchor="middle" x="436" y="-606.5" font-family="Helvetica,sans-Serif" font-size="10.00">/TerrainCell.h</text>
</a>
</g>
</g>
<!-- Node8&#45;&gt;Node13 -->
<g id="edge34_Node000008_Node000013" class="edge">
<title>Node8&#45;&gt;Node13</title>
<g id="a_edge34_Node000008_Node000013"><a xlink:title=" ">
<path fill="none" stroke="#63b8ff" d="M411.63,-864.16C417.37,-808.17 428.42,-700.44 433.42,-651.63"/>
<polygon fill="#63b8ff" stroke="#63b8ff" points="408.12,-864 410.58,-874.31 415.09,-864.72 408.12,-864"/>
</a>
</g>
</g>
<!-- Node17 -->
<g id="Node000017" class="node">
<title>Node17</title>
<g id="a_Node000017"><a xlink:href="RootTerrainCell_8h.html" target="_top" xlink:title="Defines the RootTerrainCell class, the top&#45;level node of the spatial tree in the landscape.">
<polygon fill="white" stroke="#666666" points="709,-283 535,-283 535,-231 709,-231 709,-283"/>
<text text-anchor="start" x="543" y="-271" font-family="Helvetica,sans-Serif" font-size="10.00">/home/runner/work/Weaver</text>
<text text-anchor="start" x="543" y="-260" font-family="Helvetica,sans-Serif" font-size="10.00">/Weaver/include/App/Model</text>
<text text-anchor="start" x="543" y="-249" font-family="Helvetica,sans-Serif" font-size="10.00">/IBM/Landscape/Map/SpatialTree</text>
<text text-anchor="middle" x="622" y="-238" font-family="Helvetica,sans-Serif" font-size="10.00">/TerrainCells/RootTerrainCell.h</text>
</a>
</g>
</g>
<!-- Node8&#45;&gt;Node17 -->
<g id="edge33_Node000008_Node000017" class="edge">
<title>Node8&#45;&gt;Node17</title>
<g id="a_edge33_Node000008_Node000017"><a xlink:title=" ">
<path fill="none" stroke="#63b8ff" d="M432.27,-865.77C463.02,-820.76 514.37,-737.37 534,-657 540.64,-629.8 537.06,-621.83 534,-594 532.21,-577.71 527.79,-574.29 526,-558 522.94,-530.17 520.65,-522.48 526,-495 541.79,-413.95 585.31,-325.57 607.93,-283.29"/>
<polygon fill="#63b8ff" stroke="#63b8ff" points="429.22,-864.03 426.41,-874.25 434.98,-868.01 429.22,-864.03"/>
</a>
</g>
</g>
<!-- Node19 -->
<g id="Node000019" class="node">
<title>Node19</title>
<g id="a_Node000019"><a xlink:href="AnimalStatistical_8h.html" target="_top" xlink:title="Defines the AnimalStatistical class, a concrete subclass of Animal for statistical simulations.">
<polygon fill="white" stroke="#666666" points="403,-371 245,-371 245,-319 403,-319 403,-371"/>
<text text-anchor="start" x="253" y="-359" font-family="Helvetica,sans-Serif" font-size="10.00">/home/runner/work/Weaver</text>
<text text-anchor="start" x="253" y="-348" font-family="Helvetica,sans-Serif" font-size="10.00">/Weaver/include/App/Model</text>
<text text-anchor="start" x="253" y="-337" font-family="Helvetica,sans-Serif" font-size="10.00">/IBM/Landscape/LivingBeings</text>
<text text-anchor="middle" x="324" y="-326" font-family="Helvetica,sans-Serif" font-size="10.00">/Animals/AnimalStatistical.h</text>
</a>
</g>
</g>
<!-- Node8&#45;&gt;Node19 -->
<g id="edge30_Node000008_Node000019" class="edge">
<title>Node8&#45;&gt;Node19</title>
<g id="a_edge30_Node000008_Node000019"><a xlink:title=" ">
<path fill="none" stroke="#63b8ff" d="M395.42,-864.85C379.14,-818.3 351.42,-732.65 339,-657 321.75,-551.92 322.17,-424.4 323.27,-371.2"/>
<polygon fill="#63b8ff" stroke="#63b8ff" points="392.17,-866.18 398.8,-874.45 398.78,-863.85 392.17,-866.18"/>
</a>
</g>
</g>
<!-- Node9&#45;&gt;Node2 -->
<g id="edge10_Node000009_Node000002" class="edge">
<title>Node9&#45;&gt;Node2</title>
<g id="a_edge10_Node000009_Node000002"><a xlink:title=" ">
<path fill="none" stroke="#63b8ff" d="M150.89,-793.76C118.81,-785.06 85.59,-770.23 63,-745 27.1,-704.89 38,-680.33 38,-626.5 38,-626.5 38,-626.5 38,-256 38,-138.17 205.31,-108 308.24,-100.59"/>
<polygon fill="#63b8ff" stroke="#63b8ff" points="150.25,-797.21 160.8,-796.27 151.97,-790.42 150.25,-797.21"/>
</a>
</g>
</g>
<!-- Node10 -->
<g id="Node000010" class="node">
<title>Node10</title>
<g id="a_Node000010"><a xlink:href="SpatialTreeAnimal_8h.html" target="_top" xlink:title="Defines the SpatialTreeAnimal class for animals in a spatial tree terrain.">
<polygon fill="white" stroke="#666666" points="291.5,-651.5 66.5,-651.5 66.5,-599.5 291.5,-599.5 291.5,-651.5"/>
<text text-anchor="start" x="74.5" y="-639.5" font-family="Helvetica,sans-Serif" font-size="10.00">/home/runner/work/Weaver</text>
<text text-anchor="start" x="74.5" y="-628.5" font-family="Helvetica,sans-Serif" font-size="10.00">/Weaver/include/App/Model</text>
<text text-anchor="start" x="74.5" y="-617.5" font-family="Helvetica,sans-Serif" font-size="10.00">/IBM/Landscape/Map/SpatialTree</text>
<text text-anchor="middle" x="179" y="-606.5" font-family="Helvetica,sans-Serif" font-size="10.00">/LivingBeings/Animals/SpatialTreeAnimal.h</text>
</a>
</g>
</g>
<!-- Node9&#45;&gt;Node10 -->
<g id="edge11_Node000009_Node000010" class="edge">
<title>Node9&#45;&gt;Node10</title>
<g id="a_edge11_Node000009_Node000010"><a xlink:title=" ">
<path fill="none" stroke="#63b8ff" d="M259.38,-771.2C264.94,-748.01 268.28,-717.44 257,-693 249.32,-676.36 235.19,-662.34 221.05,-651.53"/>
<polygon fill="#63b8ff" stroke="#63b8ff" points="255.97,-770.4 256.81,-780.96 262.74,-772.18 255.97,-770.4"/>
</a>
</g>
</g>
<!-- Node9&#45;&gt;Node12 -->
<g id="edge14_Node000009_Node000012" class="edge">
<title>Node9&#45;&gt;Node12</title>
<g id="a_edge14_Node000009_Node000012"><a xlink:title=" ">
<path fill="none" stroke="#63b8ff" d="M214.88,-773.63C205.24,-764.21 194.86,-754.06 185.74,-745.16"/>
<polygon fill="#63b8ff" stroke="#63b8ff" points="212.47,-776.18 222.07,-780.66 217.37,-771.17 212.47,-776.18"/>
</a>
</g>
</g>
<!-- Node9&#45;&gt;Node13 -->
<g id="edge29_Node000009_Node000013" class="edge">
<title>Node9&#45;&gt;Node13</title>
<g id="a_edge29_Node000009_Node000013"><a xlink:title=" ">
<path fill="none" stroke="#63b8ff" d="M282.02,-773.51C318.67,-738.52 376.21,-683.58 409.6,-651.71"/>
<polygon fill="#63b8ff" stroke="#63b8ff" points="279.35,-771.23 274.54,-780.66 284.19,-776.29 279.35,-771.23"/>
</a>
</g>
</g>
<!-- Node11 -->
<g id="Node000011" class="node">
<title>Node11</title>
<g id="a_Node000011"><a xlink:href="SpatialTree_8h.html" target="_top" xlink:title="Defines the SpatialTree class, a spatially subdivided map implementation.">
<polygon fill="white" stroke="#666666" points="478.5,-195 295.5,-195 295.5,-154 478.5,-154 478.5,-195"/>
<text text-anchor="start" x="303.5" y="-183" font-family="Helvetica,sans-Serif" font-size="10.00">/home/runner/work/Weaver</text>
<text text-anchor="start" x="303.5" y="-172" font-family="Helvetica,sans-Serif" font-size="10.00">/Weaver/include/App/Model</text>
<text text-anchor="middle" x="387" y="-161" font-family="Helvetica,sans-Serif" font-size="10.00">/IBM/Landscape/Map/SpatialTree.h</text>
</a>
</g>
</g>
<!-- Node10&#45;&gt;Node11 -->
<g id="edge12_Node000010_Node000011" class="edge">
<title>Node10&#45;&gt;Node11</title>
<g id="a_edge12_Node000010_Node000011"><a xlink:title=" ">
<path fill="none" stroke="#63b8ff" d="M179,-589.12C179,-550.87 179,-488.11 179,-434 179,-434 179,-434 179,-344 179,-293 165.01,-269.02 199,-231 223.38,-203.73 260.44,-189.57 295.22,-182.33"/>
<polygon fill="#63b8ff" stroke="#63b8ff" points="175.5,-589.23 179,-599.23 182.5,-589.23 175.5,-589.23"/>
</a>
</g>
</g>
<!-- Node11&#45;&gt;Node2 -->
<g id="edge13_Node000011_Node000002" class="edge">
<title>Node11&#45;&gt;Node2</title>
<g id="a_edge13_Node000011_Node000002"><a xlink:title=" ">
<path fill="none" stroke="#63b8ff" d="M387,-143.69C387,-135.08 387,-125.9 387,-118.07"/>
<polygon fill="#63b8ff" stroke="#63b8ff" points="383.5,-143.79 387,-153.79 390.5,-143.79 383.5,-143.79"/>
</a>
</g>
</g>
<!-- Node12&#45;&gt;Node10 -->
<g id="edge15_Node000012_Node000010" class="edge">
<title>Node12&#45;&gt;Node10</title>
<g id="a_edge15_Node000012_Node000010"><a xlink:title=" ">
<path fill="none" stroke="#63b8ff" d="M167.28,-682.96C169.43,-672.58 171.75,-661.42 173.75,-651.79"/>
<polygon fill="#63b8ff" stroke="#63b8ff" points="163.8,-682.49 165.19,-693 170.65,-683.92 163.8,-682.49"/>
</a>
</g>
</g>
<!-- Node12&#45;&gt;Node13 -->
<g id="edge16_Node000012_Node000013" class="edge">
<title>Node12&#45;&gt;Node13</title>
<g id="a_edge16_Node000012_Node000013"><a xlink:title=" ">
<path fill="none" stroke="#63b8ff" d="M245.12,-689.78C281.88,-677.59 324.54,-663.45 360.19,-651.63"/>
<polygon fill="#63b8ff" stroke="#63b8ff" points="243.81,-686.53 235.42,-693 246.01,-693.17 243.81,-686.53"/>
</a>
</g>
</g>
<!-- Node13&#45;&gt;Node2 -->
<g id="edge17_Node000013_Node000002" class="edge">
<title>Node13&#45;&gt;Node2</title>
<g id="a_edge17_Node000013_Node000002"><a xlink:title=" ">
<path fill="none" stroke="#63b8ff" d="M453.09,-589.94C491.06,-507.8 572.63,-297.08 488,-154 478.58,-138.07 462.78,-126.41 446.44,-118.01"/>
<polygon fill="#63b8ff" stroke="#63b8ff" points="449.77,-588.77 448.69,-599.31 456.11,-591.74 449.77,-588.77"/>
</a>
</g>
</g>
<!-- Node13&#45;&gt;Node11 -->
<g id="edge21_Node000013_Node000011" class="edge">
<title>Node13&#45;&gt;Node11</title>
<g id="a_edge21_Node000013_Node000011"><a xlink:title=" ">
<path fill="none" stroke="#63b8ff" d="M434.52,-589.13C433.04,-550.89 431,-488.13 431,-434 431,-434 431,-434 431,-344 431,-288.52 408.39,-226 395.59,-195.04"/>
<polygon fill="#63b8ff" stroke="#63b8ff" points="431.02,-589.38 434.92,-599.24 438.02,-589.11 431.02,-589.38"/>
</a>
</g>
</g>
<!-- Node14 -->
<g id="Node000014" class="node">
<title>Node14</title>
<g id="a_Node000014"><a xlink:href="Map_8h.html" target="_top" xlink:title="Defines the Map class for spatial organization of landscapes.">
<polygon fill="white" stroke="#666666" points="358,-277.5 208,-277.5 208,-236.5 358,-236.5 358,-277.5"/>
<text text-anchor="start" x="216" y="-265.5" font-family="Helvetica,sans-Serif" font-size="10.00">/home/runner/work/Weaver</text>
<text text-anchor="start" x="216" y="-254.5" font-family="Helvetica,sans-Serif" font-size="10.00">/Weaver/include/App/Model</text>
<text text-anchor="middle" x="283" y="-243.5" font-family="Helvetica,sans-Serif" font-size="10.00">/IBM/Landscape/Map/Map.h</text>
</a>
</g>
</g>
<!-- Node13&#45;&gt;Node14 -->
<g id="edge18_Node000013_Node000014" class="edge">
<title>Node13&#45;&gt;Node14</title>
<g id="a_edge18_Node000013_Node000014"><a xlink:title=" ">
<path fill="none" stroke="#63b8ff" d="M398.76,-592.72C350.38,-548.69 268.27,-464 236,-371 228.42,-349.17 228.55,-340.88 236,-319 241.3,-303.43 252.36,-288.74 262.42,-277.68"/>
<polygon fill="#63b8ff" stroke="#63b8ff" points="396.45,-595.34 406.23,-599.43 401.13,-590.14 396.45,-595.34"/>
</a>
</g>
</g>
<!-- Node15 -->
<g id="Node000015" class="node">
<title>Node15</title>
<g id="a_Node000015"><a xlink:href="SpatialTreeTerrainCell_8h.html" target="_top" xlink:title="Spatial tree implementation of a terrain cell.">
<polygon fill="white" stroke="#666666" points="729,-552.5 535,-552.5 535,-500.5 729,-500.5 729,-552.5"/>
<text text-anchor="start" x="543" y="-540.5" font-family="Helvetica,sans-Serif" font-size="10.00">/home/runner/work/Weaver</text>
<text text-anchor="start" x="543" y="-529.5" font-family="Helvetica,sans-Serif" font-size="10.00">/Weaver/include/App/Model</text>
<text text-anchor="start" x="543" y="-518.5" font-family="Helvetica,sans-Serif" font-size="10.00">/IBM/Landscape/Map/SpatialTree</text>
<text text-anchor="middle" x="632" y="-507.5" font-family="Helvetica,sans-Serif" font-size="10.00">/TerrainCells/SpatialTreeTerrainCell.h</text>
</a>
</g>
</g>
<!-- Node13&#45;&gt;Node15 -->
<g id="edge22_Node000013_Node000015" class="edge">
<title>Node13&#45;&gt;Node15</title>
<g id="a_edge22_Node000013_Node000015"><a xlink:title=" ">
<path fill="none" stroke="#63b8ff" d="M495.82,-594.89C523.22,-581.34 555.33,-565.45 581.48,-552.5"/>
<polygon fill="#63b8ff" stroke="#63b8ff" points="494.14,-591.82 486.73,-599.39 497.24,-598.1 494.14,-591.82"/>
</a>
</g>
</g>
<!-- Node14&#45;&gt;Node2 -->
<g id="edge19_Node000014_Node000002" class="edge">
<title>Node14&#45;&gt;Node2</title>
<g id="a_edge19_Node000014_Node000002"><a xlink:title=" ">
<path fill="none" stroke="#63b8ff" d="M276.87,-226.38C274.03,-204.74 273.75,-175.53 287,-154 296.73,-138.19 312.69,-126.52 329.04,-118.09"/>
<polygon fill="#63b8ff" stroke="#63b8ff" points="273.42,-226.99 278.42,-236.33 280.33,-225.91 273.42,-226.99"/>
</a>
</g>
</g>
<!-- Node14&#45;&gt;Node11 -->
<g id="edge20_Node000014_Node000011" class="edge">
<title>Node14&#45;&gt;Node11</title>
<g id="a_edge20_Node000014_Node000011"><a xlink:title=" ">
<path fill="none" stroke="#63b8ff" d="M316.71,-229.91C331.25,-218.65 347.97,-205.71 361.46,-195.27"/>
<polygon fill="#63b8ff" stroke="#63b8ff" points="314.21,-227.42 308.44,-236.31 318.49,-232.95 314.21,-227.42"/>
</a>
</g>
</g>
<!-- Node15&#45;&gt;Node11 -->
<g id="edge23_Node000015_Node000011" class="edge">
<title>Node15&#45;&gt;Node11</title>
<g id="a_edge23_Node000015_Node000011"><a xlink:title=" ">
<path fill="none" stroke="#63b8ff" d="M614.02,-491.59C583.2,-434.87 516.64,-318.41 445,-231 434.49,-218.17 421.22,-205.28 410.02,-195.15"/>
<polygon fill="#63b8ff" stroke="#63b8ff" points="611,-493.35 618.83,-500.49 617.16,-490.03 611,-493.35"/>
</a>
</g>
</g>
<!-- Node16 -->
<g id="Node000016" class="node">
<title>Node16</title>
<g id="a_Node000016"><a xlink:href="BranchTerrainCell_8h.html" target="_top" xlink:title="Branch node implementation of a spatial tree terrain cell.">
<polygon fill="white" stroke="#666666" points="878,-371 704,-371 704,-319 878,-319 878,-371"/>
<text text-anchor="start" x="712" y="-359" font-family="Helvetica,sans-Serif" font-size="10.00">/home/runner/work/Weaver</text>
<text text-anchor="start" x="712" y="-348" font-family="Helvetica,sans-Serif" font-size="10.00">/Weaver/include/App/Model</text>
<text text-anchor="start" x="712" y="-337" font-family="Helvetica,sans-Serif" font-size="10.00">/IBM/Landscape/Map/SpatialTree</text>
<text text-anchor="middle" x="791" y="-326" font-family="Helvetica,sans-Serif" font-size="10.00">/TerrainCells/BranchTerrainCell.h</text>
</a>
</g>
</g>
<!-- Node15&#45;&gt;Node16 -->
<g id="edge24_Node000015_Node000016" class="edge">
<title>Node15&#45;&gt;Node16</title>
<g id="a_edge24_Node000015_Node000016"><a xlink:title=" ">
<path fill="none" stroke="#63b8ff" d="M644.95,-490.45C655.57,-465.15 672.51,-431.31 695,-407 708.01,-392.94 724.94,-380.78 740.96,-371.09"/>
<polygon fill="#63b8ff" stroke="#63b8ff" points="641.58,-489.45 641.06,-500.03 648.07,-492.08 641.58,-489.45"/>
</a>
</g>
</g>
<!-- Node18 -->
<g id="Node000018" class="node">
<title>Node18</title>
<g id="a_Node000018"><a xlink:href="LeafTerrainCell_8h.html" target="_top" xlink:title="Leaf node implementation of a spatial tree terrain cell.">
<polygon fill="white" stroke="#666666" points="878,-459 704,-459 704,-407 878,-407 878,-459"/>
<text text-anchor="start" x="712" y="-447" font-family="Helvetica,sans-Serif" font-size="10.00">/home/runner/work/Weaver</text>
<text text-anchor="start" x="712" y="-436" font-family="Helvetica,sans-Serif" font-size="10.00">/Weaver/include/App/Model</text>
<text text-anchor="start" x="712" y="-425" font-family="Helvetica,sans-Serif" font-size="10.00">/IBM/Landscape/Map/SpatialTree</text>
<text text-anchor="middle" x="791" y="-414" font-family="Helvetica,sans-Serif" font-size="10.00">/TerrainCells/LeafTerrainCell.h</text>
</a>
</g>
</g>
<!-- Node15&#45;&gt;Node18 -->
<g id="edge27_Node000015_Node000018" class="edge">
<title>Node15&#45;&gt;Node18</title>
<g id="a_edge27_Node000015_Node000018"><a xlink:title=" ">
<path fill="none" stroke="#63b8ff" d="M684.31,-495.4C704.71,-483.66 727.84,-470.35 747.33,-459.13"/>
<polygon fill="#63b8ff" stroke="#63b8ff" points="682.37,-492.48 675.45,-500.5 685.86,-498.54 682.37,-492.48"/>
</a>
</g>
</g>
<!-- Node16&#45;&gt;Node17 -->
<g id="edge25_Node000016_Node000017" class="edge">
<title>Node16&#45;&gt;Node17</title>
<g id="a_edge25_Node000016_Node000017"><a xlink:title=" ">
<path fill="none" stroke="#63b8ff" d="M732.66,-314.31C712.7,-304.16 690.58,-292.9 671.4,-283.14"/>
<polygon fill="#63b8ff" stroke="#63b8ff" points="731.16,-317.48 741.66,-318.89 734.34,-311.24 731.16,-317.48"/>
</a>
</g>
</g>
<!-- Node17&#45;&gt;Node11 -->
<g id="edge26_Node000017_Node000011" class="edge">
<title>Node17&#45;&gt;Node11</title>
<g id="a_edge26_Node000017_Node000011"><a xlink:title=" ">
<path fill="none" stroke="#63b8ff" d="M539.28,-227.66C507.76,-216.87 472.58,-204.81 443.97,-195.02"/>
<polygon fill="#63b8ff" stroke="#63b8ff" points="538.34,-231.04 548.93,-230.97 540.61,-224.42 538.34,-231.04"/>
</a>
</g>
</g>
<!-- Node18&#45;&gt;Node16 -->
<g id="edge28_Node000018_Node000016" class="edge">
<title>Node18&#45;&gt;Node16</title>
<g id="a_edge28_Node000018_Node000016"><a xlink:title=" ">
<path fill="none" stroke="#63b8ff" d="M791,-396.56C791,-388.04 791,-379.1 791,-371.16"/>
<polygon fill="#63b8ff" stroke="#63b8ff" points="787.5,-396.66 791,-406.66 794.5,-396.66 787.5,-396.66"/>
</a>
</g>
</g>
<!-- Node19&#45;&gt;Node11 -->
<g id="edge32_Node000019_Node000011" class="edge">
<title>Node19&#45;&gt;Node11</title>
<g id="a_edge32_Node000019_Node000011"><a xlink:title=" ">
<path fill="none" stroke="#63b8ff" d="M351.43,-310.53C357.34,-301.97 363,-292.49 367,-283 379.24,-253.96 384.02,-217.38 385.86,-195.25"/>
<polygon fill="#63b8ff" stroke="#63b8ff" points="348.51,-308.59 345.49,-318.75 354.19,-312.69 348.51,-308.59"/>
</a>
</g>
</g>
<!-- Node19&#45;&gt;Node14 -->
<g id="edge31_Node000019_Node000014" class="edge">
<title>Node19&#45;&gt;Node14</title>
<g id="a_edge31_Node000019_Node000014"><a xlink:title=" ">
<path fill="none" stroke="#63b8ff" d="M307.52,-309.44C302.38,-298.64 296.88,-287.11 292.39,-277.7"/>
<polygon fill="#63b8ff" stroke="#63b8ff" points="304.46,-311.14 311.92,-318.66 310.78,-308.13 304.46,-311.14"/>
</a>
</g>
</g>
<!-- Node21 -->
<g id="Node000021" class="node">
<title>Node21</title>
<g id="a_Node000021"><a xlink:href="BranchCellResource_8h.html" target="_top" xlink:title="Defines the BranchCellResource class for managing resources in branch terrain cells.">
<polygon fill="white" stroke="#666666" points="1115.5,-657 936.5,-657 936.5,-594 1115.5,-594 1115.5,-657"/>
<text text-anchor="start" x="944.5" y="-645" font-family="Helvetica,sans-Serif" font-size="10.00">/home/runner/work/Weaver</text>
<text text-anchor="start" x="944.5" y="-634" font-family="Helvetica,sans-Serif" font-size="10.00">/Weaver/include/App/Model</text>
<text text-anchor="start" x="944.5" y="-623" font-family="Helvetica,sans-Serif" font-size="10.00">/IBM/Landscape/Map/SpatialTree</text>
<text text-anchor="start" x="944.5" y="-612" font-family="Helvetica,sans-Serif" font-size="10.00">/TerrainCells/PatchApplicator</text>
<text text-anchor="middle" x="1026" y="-601" font-family="Helvetica,sans-Serif" font-size="10.00">/Resources/BranchCellResource.h</text>
</a>
</g>
</g>
<!-- Node20&#45;&gt;Node21 -->
<g id="edge37_Node000020_Node000021" class="edge">
<title>Node20&#45;&gt;Node21</title>
<g id="a_edge37_Node000020_Node000021"><a xlink:title=" ">
<path fill="none" stroke="#63b8ff" d="M881.2,-877.15C908.17,-867.35 934.83,-853.25 955,-833 1003.29,-784.52 1018.78,-701.75 1023.72,-657.14"/>
<polygon fill="#63b8ff" stroke="#63b8ff" points="879.96,-873.88 871.65,-880.45 882.25,-880.49 879.96,-873.88"/>
</a>
</g>
</g>
<!-- Node23 -->
<g id="Node000023" class="node">
<title>Node23</title>
<g id="a_Node000023"><a xlink:href="PatchApplicator_8h.html" target="_top" xlink:title="Defines the PatchApplicator class responsible for applying patches (moisture, resource,...">
<polygon fill="white" stroke="#666666" points="796,-745 614,-745 614,-693 796,-693 796,-745"/>
<text text-anchor="start" x="622" y="-733" font-family="Helvetica,sans-Serif" font-size="10.00">/home/runner/work/Weaver</text>
<text text-anchor="start" x="622" y="-722" font-family="Helvetica,sans-Serif" font-size="10.00">/Weaver/include/App/Model</text>
<text text-anchor="start" x="622" y="-711" font-family="Helvetica,sans-Serif" font-size="10.00">/IBM/Landscape/Map/TerrainCells</text>
<text text-anchor="middle" x="705" y="-700" font-family="Helvetica,sans-Serif" font-size="10.00">/PatchApplicator/PatchApplicator.h</text>
</a>
</g>
</g>
<!-- Node20&#45;&gt;Node23 -->
<g id="edge41_Node000020_Node000023" class="edge">
<title>Node20&#45;&gt;Node23</title>
<g id="a_edge41_Node000020_Node000023"><a xlink:title=" ">
<path fill="none" stroke="#63b8ff" d="M728.2,-860.46C722.14,-851.94 716.64,-842.59 713,-833 702.12,-804.31 701.53,-768.63 702.73,-745.12"/>
<polygon fill="#63b8ff" stroke="#63b8ff" points="725.59,-862.8 734.4,-868.68 731.17,-858.59 725.59,-862.8"/>
</a>
</g>
</g>
<!-- Node26 -->
<g id="Node000026" class="node">
<title>Node26</title>
<g id="a_Node000026"><a xlink:href="CellResource_8h.html" target="_top" xlink:title="Implementation of a resource cell in a terrain.">
<polygon fill="white" stroke="#666666" points="946,-833 722,-833 722,-781 946,-781 946,-833"/>
<text text-anchor="start" x="730" y="-821" font-family="Helvetica,sans-Serif" font-size="10.00">/home/runner/work/Weaver</text>
<text text-anchor="start" x="730" y="-810" font-family="Helvetica,sans-Serif" font-size="10.00">/Weaver/include/App/Model</text>
<text text-anchor="start" x="730" y="-799" font-family="Helvetica,sans-Serif" font-size="10.00">/IBM/Landscape/Map/TerrainCells</text>
<text text-anchor="middle" x="834" y="-788" font-family="Helvetica,sans-Serif" font-size="10.00">/PatchApplicator/Resources/CellResource.h</text>
</a>
</g>
</g>
<!-- Node20&#45;&gt;Node26 -->
<g id="edge48_Node000020_Node000026" class="edge">
<title>Node20&#45;&gt;Node26</title>
<g id="a_edge48_Node000020_Node000026"><a xlink:title=" ">
<path fill="none" stroke="#63b8ff" d="M793.69,-860.69C800.86,-851.32 808.33,-841.56 814.86,-833.02"/>
<polygon fill="#63b8ff" stroke="#63b8ff" points="790.8,-858.71 787.5,-868.78 796.36,-862.96 790.8,-858.71"/>
</a>
</g>
</g>
<!-- Node21&#45;&gt;Node16 -->
<g id="edge38_Node000021_Node000016" class="edge">
<title>Node21&#45;&gt;Node16</title>
<g id="a_edge38_Node000021_Node000016"><a xlink:title=" ">
<path fill="none" stroke="#63b8ff" d="M1097.25,-587.44C1107.21,-579.13 1116.06,-569.34 1122,-558 1134.99,-533.2 1137.07,-518.6 1122,-495 1068.9,-411.89 957.02,-374.71 878.07,-358.36"/>
<polygon fill="#63b8ff" stroke="#63b8ff" points="1094.82,-584.9 1089.06,-593.8 1099.11,-590.43 1094.82,-584.9"/>
</a>
</g>
</g>
<!-- Node22 -->
<g id="Node000022" class="node">
<title>Node22</title>
<g id="a_Node000022"><a xlink:href="BranchPatchApplicator_8h.html" target="_top" xlink:title="Defines the BranchPatchApplicator class for applying patches to branch terrain cells in a spatial tre...">
<polygon fill="white" stroke="#666666" points="1113,-558 939,-558 939,-495 1113,-495 1113,-558"/>
<text text-anchor="start" x="947" y="-546" font-family="Helvetica,sans-Serif" font-size="10.00">/home/runner/work/Weaver</text>
<text text-anchor="start" x="947" y="-535" font-family="Helvetica,sans-Serif" font-size="10.00">/Weaver/include/App/Model</text>
<text text-anchor="start" x="947" y="-524" font-family="Helvetica,sans-Serif" font-size="10.00">/IBM/Landscape/Map/SpatialTree</text>
<text text-anchor="start" x="947" y="-513" font-family="Helvetica,sans-Serif" font-size="10.00">/TerrainCells/PatchApplicator</text>
<text text-anchor="middle" x="1026" y="-502" font-family="Helvetica,sans-Serif" font-size="10.00">/BranchPatchApplicator.h</text>
</a>
</g>
</g>
<!-- Node21&#45;&gt;Node22 -->
<g id="edge39_Node000021_Node000022" class="edge">
<title>Node21&#45;&gt;Node22</title>
<g id="a_edge39_Node000021_Node000022"><a xlink:title=" ">
<path fill="none" stroke="#63b8ff" d="M1026,-583.69C1026,-575.2 1026,-566.38 1026,-558.32"/>
<polygon fill="#63b8ff" stroke="#63b8ff" points="1022.5,-583.81 1026,-593.81 1029.5,-583.81 1022.5,-583.81"/>
</a>
</g>
</g>
<!-- Node22&#45;&gt;Node16 -->
<g id="edge40_Node000022_Node000016" class="edge">
<title>Node22&#45;&gt;Node16</title>
<g id="a_edge40_Node000022_Node000016"><a xlink:title=" ">
<path fill="none" stroke="#63b8ff" d="M985.1,-487.99C958.05,-463.85 921.36,-432.37 887,-407 870,-394.45 850.44,-381.73 833.43,-371.18"/>
<polygon fill="#63b8ff" stroke="#63b8ff" points="983.03,-490.84 992.82,-494.91 987.71,-485.63 983.03,-490.84"/>
</a>
</g>
</g>
<!-- Node23&#45;&gt;Node13 -->
<g id="edge47_Node000023_Node000013" class="edge">
<title>Node23&#45;&gt;Node13</title>
<g id="a_edge47_Node000023_Node000013"><a xlink:title=" ">
<path fill="none" stroke="#63b8ff" d="M621.58,-689.62C585.86,-677.47 544.49,-663.4 509.88,-651.63"/>
<polygon fill="#63b8ff" stroke="#63b8ff" points="620.9,-693.09 631.49,-693 623.15,-686.46 620.9,-693.09"/>
</a>
</g>
</g>
<!-- Node24 -->
<g id="Node000024" class="node">
<title>Node24</title>
<g id="a_Node000024"><a xlink:href="SpatialTreePatchApplicator_8h.html" target="_top" xlink:title="Defines the SpatialTreePatchApplicator class for applying patches in a spatial tree of terrain cells.">
<polygon fill="white" stroke="#666666" points="799,-657 625,-657 625,-594 799,-594 799,-657"/>
<text text-anchor="start" x="633" y="-645" font-family="Helvetica,sans-Serif" font-size="10.00">/home/runner/work/Weaver</text>
<text text-anchor="start" x="633" y="-634" font-family="Helvetica,sans-Serif" font-size="10.00">/Weaver/include/App/Model</text>
<text text-anchor="start" x="633" y="-623" font-family="Helvetica,sans-Serif" font-size="10.00">/IBM/Landscape/Map/SpatialTree</text>
<text text-anchor="start" x="633" y="-612" font-family="Helvetica,sans-Serif" font-size="10.00">/TerrainCells/PatchApplicator</text>
<text text-anchor="middle" x="712" y="-601" font-family="Helvetica,sans-Serif" font-size="10.00">/SpatialTreePatchApplicator.h</text>
</a>
</g>
</g>
<!-- Node23&#45;&gt;Node24 -->
<g id="edge42_Node000023_Node000024" class="edge">
<title>Node23&#45;&gt;Node24</title>
<g id="a_edge42_Node000023_Node000024"><a xlink:title=" ">
<path fill="none" stroke="#63b8ff" d="M707.68,-682.93C708.34,-674.39 709.03,-665.32 709.67,-657.02"/>
<polygon fill="#63b8ff" stroke="#63b8ff" points="704.19,-682.76 706.91,-693 711.17,-683.29 704.19,-682.76"/>
</a>
</g>
</g>
<!-- Node24&#45;&gt;Node15 -->
<g id="edge46_Node000024_Node000015" class="edge">
<title>Node24&#45;&gt;Node15</title>
<g id="a_edge46_Node000024_Node000015"><a xlink:title=" ">
<path fill="none" stroke="#63b8ff" d="M680.14,-585.87C670.96,-574.74 661.19,-562.89 652.86,-552.8"/>
<polygon fill="#63b8ff" stroke="#63b8ff" points="677.62,-588.32 686.69,-593.81 683.02,-583.87 677.62,-588.32"/>
</a>
</g>
</g>
<!-- Node24&#45;&gt;Node22 -->
<g id="edge43_Node000024_Node000022" class="edge">
<title>Node24&#45;&gt;Node22</title>
<g id="a_edge43_Node000024_Node000022"><a xlink:title=" ">
<path fill="none" stroke="#63b8ff" d="M809.04,-595.16C846.82,-583.67 890.46,-570.31 930,-558 932.92,-557.09 935.89,-556.16 938.89,-555.22"/>
<polygon fill="#63b8ff" stroke="#63b8ff" points="807.61,-591.94 799.06,-598.19 809.64,-598.64 807.61,-591.94"/>
</a>
</g>
</g>
<!-- Node25 -->
<g id="Node000025" class="node">
<title>Node25</title>
<g id="a_Node000025"><a xlink:href="LeafPatchApplicator_8h.html" target="_top" xlink:title="Defines the LeafPatchApplicator class for applying patches to leaf terrain cells in a spatial tree.">
<polygon fill="white" stroke="#666666" points="921,-558 747,-558 747,-495 921,-495 921,-558"/>
<text text-anchor="start" x="755" y="-546" font-family="Helvetica,sans-Serif" font-size="10.00">/home/runner/work/Weaver</text>
<text text-anchor="start" x="755" y="-535" font-family="Helvetica,sans-Serif" font-size="10.00">/Weaver/include/App/Model</text>
<text text-anchor="start" x="755" y="-524" font-family="Helvetica,sans-Serif" font-size="10.00">/IBM/Landscape/Map/SpatialTree</text>
<text text-anchor="start" x="755" y="-513" font-family="Helvetica,sans-Serif" font-size="10.00">/TerrainCells/PatchApplicator</text>
<text text-anchor="middle" x="834" y="-502" font-family="Helvetica,sans-Serif" font-size="10.00">/LeafPatchApplicator.h</text>
</a>
</g>
</g>
<!-- Node24&#45;&gt;Node25 -->
<g id="edge44_Node000024_Node000025" class="edge">
<title>Node24&#45;&gt;Node25</title>
<g id="a_edge44_Node000024_Node000025"><a xlink:title=" ">
<path fill="none" stroke="#63b8ff" d="M758.44,-587.58C770.58,-577.92 783.54,-567.62 795.23,-558.32"/>
<polygon fill="#63b8ff" stroke="#63b8ff" points="756.25,-584.85 750.6,-593.81 760.61,-590.32 756.25,-584.85"/>
</a>
</g>
</g>
<!-- Node25&#45;&gt;Node18 -->
<g id="edge45_Node000025_Node000018" class="edge">
<title>Node25&#45;&gt;Node18</title>
<g id="a_edge45_Node000025_Node000018"><a xlink:title=" ">
<path fill="none" stroke="#63b8ff" d="M815.23,-485.55C810.99,-476.54 806.61,-467.21 802.76,-459.02"/>
<polygon fill="#63b8ff" stroke="#63b8ff" points="812.14,-487.22 819.56,-494.78 818.48,-484.24 812.14,-487.22"/>
</a>
</g>
</g>
<!-- Node26&#45;&gt;Node2 -->
<g id="edge49_Node000026_Node000002" class="edge">
<title>Node26&#45;&gt;Node2</title>
<g id="a_edge49_Node000026_Node000002"><a xlink:title=" ">
<path fill="none" stroke="#63b8ff" d="M956.14,-792.46C1055.39,-773.88 1179,-729.96 1179,-626.5 1179,-626.5 1179,-626.5 1179,-256 1179,-111.6 666.16,-97.61 465.84,-97.65"/>
<polygon fill="#63b8ff" stroke="#63b8ff" points="955.23,-789.07 946.01,-794.29 956.47,-795.96 955.23,-789.07"/>
</a>
</g>
</g>
<!-- Node26&#45;&gt;Node13 -->
<g id="edge52_Node000026_Node000013" class="edge">
<title>Node26&#45;&gt;Node13</title>
<g id="a_edge52_Node000026_Node000013"><a xlink:title=" ">
<path fill="none" stroke="#63b8ff" d="M711.85,-781.91C676.48,-772.7 638.41,-760.56 605,-745 551.57,-720.11 497.02,-678.28 464.86,-651.55"/>
<polygon fill="#63b8ff" stroke="#63b8ff" points="711.2,-785.35 721.75,-784.43 712.92,-778.57 711.2,-785.35"/>
</a>
</g>
</g>
<!-- Node26&#45;&gt;Node23 -->
<g id="edge51_Node000026_Node000023" class="edge">
<title>Node26&#45;&gt;Node23</title>
<g id="a_edge51_Node000026_Node000023"><a xlink:title=" ">
<path fill="none" stroke="#63b8ff" d="M787.86,-775.24C773.13,-765.42 757.01,-754.67 742.93,-745.29"/>
<polygon fill="#63b8ff" stroke="#63b8ff" points="786.08,-778.26 796.34,-780.89 789.96,-772.43 786.08,-778.26"/>
</a>
</g>
</g>
<!-- Node26&#45;&gt;Node25 -->
<g id="edge50_Node000026_Node000025" class="edge">
<title>Node26&#45;&gt;Node25</title>
<g id="a_edge50_Node000026_Node000025"><a xlink:title=" ">
<path fill="none" stroke="#63b8ff" d="M834,-770.48C834,-715.4 834,-610.35 834,-558.3"/>
<polygon fill="#63b8ff" stroke="#63b8ff" points="830.5,-770.79 834,-780.79 837.5,-770.79 830.5,-770.79"/>
</a>
</g>
</g>
</g>
</svg>

<g id="navigator" transform="translate(0 0)" fill="#404254">
  <rect fill="#f2f5e9" fill-opacity="0.5" stroke="#606060" stroke-width=".5" x="0" y="0" width="60" height="60"/>
  <use id="zoomplus" xlink:href="#zoomPlus" x="17" y="9" onmousedown="handleZoom(evt,'in')"/>
  <use id="zoomminus" xlink:href="#zoomMin" x="42" y="9" onmousedown="handleZoom(evt,'out')"/>
  <use id="reset" xlink:href="#resetDef" x="30" y="36" onmousedown="handleReset()"/>
   <use id="arrowup" xlink:href="#arrowUp" x="0" y="0" onmousedown="handlePan(0,-1)"/>
  <use id="arrowright" xlink:href="#arrowRight" x="0" y="0" onmousedown="handlePan(1,0)"/>
  <use id="arrowdown" xlink:href="#arrowDown" x="0" y="0" onmousedown="handlePan(0,1)"/>
  <use id="arrowleft" xlink:href="#arrowLeft" x="0" y="0" onmousedown="handlePan(-1,0)"/>
</g>
<svg viewBox="0 0 15 15" width="100%" height="30px" preserveAspectRatio="xMaxYMin meet">
 <g id="arrow_out" transform="scale(0.3 0.3)">
  <a xlink:href="EdibleID_8h__dep__incl_org.svg" target="_base">
   <rect id="button" ry="5" rx="5" y="6" x="6" height="38" width="38"
        fill="#f2f5e9" fill-opacity="0.5" stroke="#606060" stroke-width="1.0"/>
   <path id="arrow"
     d="M 11.500037,31.436501 C 11.940474,20.09759 22.043105,11.32322 32.158766,21.979434 L 37.068811,17.246167 C 37.068811,17.246167 37.088388,32 37.088388,32 L 22.160133,31.978069 C 22.160133,31.978069 26.997745,27.140456 26.997745,27.140456 C 18.528582,18.264221 13.291696,25.230495 11.500037,31.436501 z"
     style="fill:#404040;"/>
  </a>
 </g>
</svg>

<style type='text/css'>
<![CDATA[
[data-mouse-over-selected='false'] { opacity: 0.7; }
[data-mouse-over-selected='true']  { opacity: 1.0; }
]]>
</style>
<script type="application/ecmascript"><![CDATA[
document.addEventListener('DOMContentLoaded', (event) => {
  highlightEdges();
  highlightAdjacentNodes();
});
]]></script>
</svg>
