<?xml version="1.0" encoding="UTF-8" standalone="no"?>
<!DOCTYPE svg PUBLIC "-//W3C//DTD SVG 1.1//EN"
 "http://www.w3.org/Graphics/SVG/1.1/DTD/svg11.dtd">
<!-- Generated by graphviz version 2.43.0 (0)
 -->
<!-- Title: Graphical Class Hierarchy Pages: 1 -->
<svg width="239pt" height="138pt"
 viewBox="0.00 0.00 239.00 138.00" xmlns="http://www.w3.org/2000/svg" xmlns:xlink="http://www.w3.org/1999/xlink">
<g id="graph0" class="graph" transform="scale(1 1) rotate(0) translate(4 134)">
<title>Graphical Class Hierarchy</title>
<!-- Node0 -->
<g id="Node000000" class="node">
<title>Node0</title>
<g id="a_Node000000"><a xlink:href="classPathSource.html" target="_top" xlink:title="Abstract base class for landscape data sources.">
<polygon fill="white" stroke="#666666" points="71,-74 0,-74 0,-55 71,-55 71,-74"/>
<text text-anchor="middle" x="35.5" y="-62" font-family="Helvetica,sans-Serif" font-size="10.00">PathSource</text>
</a>
</g>
</g>
<!-- Node1 -->
<g id="Node000001" class="node">
<title>Node1</title>
<g id="a_Node000001"><a xlink:href="classHabitatDomainSource.html" target="_top" xlink:title="Represents habitat domain information for animals in the landscape.">
<polygon fill="white" stroke="#666666" points="231,-130 107,-130 107,-111 231,-111 231,-130"/>
<text text-anchor="middle" x="169" y="-118" font-family="Helvetica,sans-Serif" font-size="10.00">HabitatDomainSource</text>
</a>
</g>
</g>
<!-- Node0&#45;&gt;Node1 -->
<g id="edge68_Node000000_Node000001" class="edge">
<title>Node0&#45;&gt;Node1</title>
<g id="a_edge68_Node000000_Node000001"><a xlink:title=" ">
<path fill="none" stroke="#63b8ff" d="M60.97,-79.32C74.26,-86.94 91.17,-95.98 107,-102.5 114.66,-105.65 123.06,-108.5 131.12,-110.96"/>
<polygon fill="#63b8ff" stroke="#63b8ff" points="62.4,-76.1 52,-74.07 58.87,-82.14 62.4,-76.1"/>
</a>
</g>
</g>
<!-- Node2 -->
<g id="Node000002" class="node">
<title>Node2</title>
<g id="a_Node000002"><a xlink:href="classMoistureSource.html" target="_top" xlink:title="Represents a moisture source in the landscape.">
<polygon fill="white" stroke="#666666" points="215,-93 123,-93 123,-74 215,-74 215,-93"/>
<text text-anchor="middle" x="169" y="-81" font-family="Helvetica,sans-Serif" font-size="10.00">MoistureSource</text>
</a>
</g>
</g>
<!-- Node0&#45;&gt;Node2 -->
<g id="edge69_Node000000_Node000002" class="edge">
<title>Node0&#45;&gt;Node2</title>
<g id="a_edge69_Node000000_Node000002"><a xlink:title=" ">
<path fill="none" stroke="#63b8ff" d="M81.04,-70.94C94.5,-72.88 109.29,-75.02 122.79,-76.97"/>
<polygon fill="#63b8ff" stroke="#63b8ff" points="81.45,-67.46 71.05,-69.49 80.45,-74.39 81.45,-67.46"/>
</a>
</g>
</g>
<!-- Node3 -->
<g id="Node000003" class="node">
<title>Node3</title>
<g id="a_Node000003"><a xlink:href="classObstacleSource.html" target="_top" xlink:title="Represents an obstacle source in the landscape.">
<polygon fill="white" stroke="#666666" points="215,-56 123,-56 123,-37 215,-37 215,-56"/>
<text text-anchor="middle" x="169" y="-44" font-family="Helvetica,sans-Serif" font-size="10.00">ObstacleSource</text>
</a>
</g>
</g>
<!-- Node0&#45;&gt;Node3 -->
<g id="edge70_Node000000_Node000003" class="edge">
<title>Node0&#45;&gt;Node3</title>
<g id="a_edge70_Node000000_Node000003"><a xlink:title=" ">
<path fill="none" stroke="#63b8ff" d="M81.04,-58.4C94.5,-56.56 109.29,-54.54 122.79,-52.69"/>
<polygon fill="#63b8ff" stroke="#63b8ff" points="80.48,-54.95 71.05,-59.77 81.43,-61.88 80.48,-54.95"/>
</a>
</g>
</g>
<!-- Node4 -->
<g id="Node000004" class="node">
<title>Node4</title>
<g id="a_Node000004"><a xlink:href="classResourceSource.html" target="_top" xlink:title="Represents a resource source in the landscape.">
<polygon fill="white" stroke="#666666" points="216.5,-19 121.5,-19 121.5,0 216.5,0 216.5,-19"/>
<text text-anchor="middle" x="169" y="-7" font-family="Helvetica,sans-Serif" font-size="10.00">ResourceSource</text>
</a>
</g>
</g>
<!-- Node0&#45;&gt;Node4 -->
<g id="edge71_Node000000_Node000004" class="edge">
<title>Node0&#45;&gt;Node4</title>
<g id="a_edge71_Node000000_Node000004"><a xlink:title=" ">
<path fill="none" stroke="#63b8ff" d="M62.15,-50.07C75.31,-43.01 91.74,-34.72 107,-28.5 115.53,-25.03 124.93,-21.81 133.76,-19.04"/>
<polygon fill="#63b8ff" stroke="#63b8ff" points="60.32,-47.08 53.21,-54.94 63.67,-53.23 60.32,-47.08"/>
</a>
</g>
</g>
</g>
</svg>
