<?xml version="1.0" encoding="UTF-8" standalone="no"?>
<!DOCTYPE svg PUBLIC "-//W3C//DTD SVG 1.1//EN"
 "http://www.w3.org/Graphics/SVG/1.1/DTD/svg11.dtd">
<!-- Generated by graphviz version 2.43.0 (0)
 -->
<!-- Title: Graphical Class Hierarchy Pages: 1 -->
<svg width="453pt" height="101pt"
 viewBox="0.00 0.00 453.00 101.00" xmlns="http://www.w3.org/2000/svg" xmlns:xlink="http://www.w3.org/1999/xlink">
<g id="graph0" class="graph" transform="scale(1 1) rotate(0) translate(4 97)">
<title>Graphical Class Hierarchy</title>
<!-- Node0 -->
<g id="Node000000" class="node">
<title>Node0</title>
<g id="a_Node000000"><a xlink:href="classDecisionProbability.html" target="_top" xlink:title="Abstract base class for probability calculations in predator&#45;prey decisions.">
<polygon fill="white" stroke="#666666" points="111,-74 0,-74 0,-55 111,-55 111,-74"/>
<text text-anchor="middle" x="55.5" y="-62" font-family="Helvetica,sans-Serif" font-size="10.00">DecisionProbability</text>
</a>
</g>
</g>
<!-- Node1 -->
<g id="Node000001" class="node">
<title>Node1</title>
<g id="a_Node000001"><a xlink:href="classAnimalDecisionProbability.html" target="_top" xlink:title="Abstract class for decision probabilities specific to animal interactions.">
<polygon fill="white" stroke="#666666" points="293,-93 147,-93 147,-74 293,-74 293,-93"/>
<text text-anchor="middle" x="220" y="-81" font-family="Helvetica,sans-Serif" font-size="10.00">AnimalDecisionProbability</text>
</a>
</g>
</g>
<!-- Node0&#45;&gt;Node1 -->
<g id="edge20_Node000000_Node000001" class="edge">
<title>Node0&#45;&gt;Node1</title>
<g id="a_edge20_Node000000_Node000001"><a xlink:title=" ">
<path fill="none" stroke="#63b8ff" d="M121.23,-72.07C129.69,-73.06 138.4,-74.08 146.98,-75.08"/>
<polygon fill="#63b8ff" stroke="#63b8ff" points="121.4,-68.56 111.06,-70.88 120.59,-75.52 121.4,-68.56"/>
</a>
</g>
</g>
<!-- Node3 -->
<g id="Node000003" class="node">
<title>Node3</title>
<g id="a_Node000003"><a xlink:href="classEdibleDecisionProbability.html" target="_top" xlink:title="Base class for computing probabilities related to edible prey decisions.">
<polygon fill="white" stroke="#666666" points="290.5,-56 149.5,-56 149.5,-37 290.5,-37 290.5,-56"/>
<text text-anchor="middle" x="220" y="-44" font-family="Helvetica,sans-Serif" font-size="10.00">EdibleDecisionProbability</text>
</a>
</g>
</g>
<!-- Node0&#45;&gt;Node3 -->
<g id="edge22_Node000000_Node000003" class="edge">
<title>Node0&#45;&gt;Node3</title>
<g id="a_edge22_Node000000_Node000003"><a xlink:title=" ">
<path fill="none" stroke="#63b8ff" d="M121,-57.36C130.3,-56.33 139.9,-55.26 149.29,-54.22"/>
<polygon fill="#63b8ff" stroke="#63b8ff" points="120.62,-53.88 111.06,-58.46 121.39,-60.83 120.62,-53.88"/>
</a>
</g>
</g>
<!-- Node2 -->
<g id="Node000002" class="node">
<title>Node2</title>
<g id="a_Node000002"><a xlink:href="classEscapeProbability.html" target="_top" xlink:title="Manages the escape probability functions for a prey in predator&#45;prey interactions.">
<polygon fill="white" stroke="#666666" points="439,-93 335,-93 335,-74 439,-74 439,-93"/>
<text text-anchor="middle" x="387" y="-81" font-family="Helvetica,sans-Serif" font-size="10.00">EscapeProbability</text>
</a>
</g>
</g>
<!-- Node1&#45;&gt;Node2 -->
<g id="edge21_Node000001_Node000002" class="edge">
<title>Node1&#45;&gt;Node2</title>
<g id="a_edge21_Node000001_Node000002"><a xlink:title=" ">
<path fill="none" stroke="#63b8ff" d="M303.61,-83.5C314.31,-83.5 325.01,-83.5 334.99,-83.5"/>
<polygon fill="#63b8ff" stroke="#63b8ff" points="303.37,-80 293.37,-83.5 303.37,-87 303.37,-80"/>
</a>
</g>
</g>
<!-- Node4 -->
<g id="Node000004" class="node">
<title>Node4</title>
<g id="a_Node000004"><a xlink:href="classEdibilityValue.html" target="_top" xlink:title="Calculates the edibility value of prey for a predator.">
<polygon fill="white" stroke="#666666" points="428.5,-56 345.5,-56 345.5,-37 428.5,-37 428.5,-56"/>
<text text-anchor="middle" x="387" y="-44" font-family="Helvetica,sans-Serif" font-size="10.00">EdibilityValue</text>
</a>
</g>
</g>
<!-- Node3&#45;&gt;Node4 -->
<g id="edge23_Node000003_Node000004" class="edge">
<title>Node3&#45;&gt;Node4</title>
<g id="a_edge23_Node000003_Node000004"><a xlink:title=" ">
<path fill="none" stroke="#63b8ff" d="M300.98,-46.5C316.26,-46.5 331.66,-46.5 345.07,-46.5"/>
<polygon fill="#63b8ff" stroke="#63b8ff" points="300.97,-43 290.97,-46.5 300.97,-50 300.97,-43"/>
</a>
</g>
</g>
<!-- Node5 -->
<g id="Node000005" class="node">
<title>Node5</title>
<g id="a_Node000005"><a xlink:href="classPredationProbability.html" target="_top" xlink:title="Manages predation probability functions for species across different instars.">
<polygon fill="white" stroke="#666666" points="445,-19 329,-19 329,0 445,0 445,-19"/>
<text text-anchor="middle" x="387" y="-7" font-family="Helvetica,sans-Serif" font-size="10.00">PredationProbability</text>
</a>
</g>
</g>
<!-- Node3&#45;&gt;Node5 -->
<g id="edge24_Node000003_Node000005" class="edge">
<title>Node3&#45;&gt;Node5</title>
<g id="a_edge24_Node000003_Node000005"><a xlink:title=" ">
<path fill="none" stroke="#63b8ff" d="M273.27,-34.78C295.86,-29.71 321.97,-23.86 343.37,-19.06"/>
<polygon fill="#63b8ff" stroke="#63b8ff" points="272.48,-31.37 263.49,-36.97 274.02,-38.2 272.48,-31.37"/>
</a>
</g>
</g>
</g>
</svg>
