<?xml version="1.0" encoding="UTF-8" standalone="no"?>
<!DOCTYPE svg PUBLIC "-//W3C//DTD SVG 1.1//EN"
 "http://www.w3.org/Graphics/SVG/1.1/DTD/svg11.dtd">
<!-- Generated by graphviz version 2.43.0 (0)
 -->
<!-- Title: /home/runner/work/Weaver/Weaver/include/App/Model/IBM/Maths/Dynamics/MassBasedDynamics.h Pages: 1 -->
<svg width="1884pt" height="313pt"
 viewBox="0.00 0.00 1883.55 313.00" xmlns="http://www.w3.org/2000/svg" xmlns:xlink="http://www.w3.org/1999/xlink">
<g id="graph0" class="graph" transform="scale(1 1) rotate(0) translate(4 309)">
<title>/home/runner/work/Weaver/Weaver/include/App/Model/IBM/Maths/Dynamics/MassBasedDynamics.h</title>
<!-- Node1 -->
<g id="Node000001" class="node">
<title>Node1</title>
<g id="a_Node000001"><a xlink:title="Defines the MassBasedDynamics class, a Dynamics subclass based on mass.">
<polygon fill="#999999" stroke="#666666" points="1226.66,-305 987.66,-305 987.66,-264 1226.66,-264 1226.66,-305"/>
<text text-anchor="start" x="995.66" y="-293" font-family="Helvetica,sans-Serif" font-size="10.00">/home/runner/work/Weaver</text>
<text text-anchor="start" x="995.66" y="-282" font-family="Helvetica,sans-Serif" font-size="10.00">/Weaver/include/App/Model</text>
<text text-anchor="middle" x="1107.16" y="-271" font-family="Helvetica,sans-Serif" font-size="10.00">/IBM/Maths/Dynamics/MassBasedDynamics.h</text>
</a>
</g>
</g>
<!-- Node2 -->
<g id="Node000002" class="node">
<title>Node2</title>
<g id="a_Node000002"><a xlink:title=" ">
<polygon fill="#e0e0e0" stroke="#999999" points="446.66,-30 341.66,-30 341.66,0 446.66,0 446.66,-30"/>
<text text-anchor="start" x="349.66" y="-18" font-family="Helvetica,sans-Serif" font-size="10.00">boost/archive/text</text>
<text text-anchor="middle" x="394.16" y="-7" font-family="Helvetica,sans-Serif" font-size="10.00">_iarchive.hpp</text>
</a>
</g>
</g>
<!-- Node1&#45;&gt;Node2 -->
<g id="edge1_Node000001_Node000002" class="edge">
<title>Node1&#45;&gt;Node2</title>
<g id="a_edge1_Node000001_Node000002"><a xlink:title=" ">
<path fill="none" stroke="#63b8ff" d="M987.64,-278.33C857.65,-268.67 646.61,-241.05 483.16,-162 442.59,-142.38 427.99,-135.44 406.16,-96 396.73,-78.97 394,-56.92 393.47,-40.29"/>
<polygon fill="#63b8ff" stroke="#63b8ff" points="396.97,-40.22 393.4,-30.24 389.97,-40.27 396.97,-40.22"/>
</a>
</g>
</g>
<!-- Node3 -->
<g id="Node000003" class="node">
<title>Node3</title>
<g id="a_Node000003"><a xlink:title=" ">
<polygon fill="#e0e0e0" stroke="#999999" points="240.66,-30 135.66,-30 135.66,0 240.66,0 240.66,-30"/>
<text text-anchor="start" x="143.66" y="-18" font-family="Helvetica,sans-Serif" font-size="10.00">boost/archive/text</text>
<text text-anchor="middle" x="188.16" y="-7" font-family="Helvetica,sans-Serif" font-size="10.00">_oarchive.hpp</text>
</a>
</g>
</g>
<!-- Node1&#45;&gt;Node3 -->
<g id="edge2_Node000001_Node000003" class="edge">
<title>Node1&#45;&gt;Node3</title>
<g id="a_edge2_Node000001_Node000003"><a xlink:title=" ">
<path fill="none" stroke="#63b8ff" d="M987.27,-282.23C784.06,-279.01 380.82,-267.66 245.16,-228 128.69,-193.95 67.83,-200.51 6.16,-96 -22.93,-46.69 62.09,-27.7 125.56,-20.43"/>
<polygon fill="#63b8ff" stroke="#63b8ff" points="125.97,-23.91 135.54,-19.36 125.22,-16.95 125.97,-23.91"/>
</a>
</g>
</g>
<!-- Node4 -->
<g id="Node000004" class="node">
<title>Node4</title>
<g id="a_Node000004"><a xlink:title=" ">
<polygon fill="#e0e0e0" stroke="#999999" points="1049.16,-30 933.16,-30 933.16,0 1049.16,0 1049.16,-30"/>
<text text-anchor="start" x="941.16" y="-18" font-family="Helvetica,sans-Serif" font-size="10.00">boost/archive/binary</text>
<text text-anchor="middle" x="991.16" y="-7" font-family="Helvetica,sans-Serif" font-size="10.00">_iarchive.hpp</text>
</a>
</g>
</g>
<!-- Node1&#45;&gt;Node4 -->
<g id="edge3_Node000001_Node000004" class="edge">
<title>Node1&#45;&gt;Node4</title>
<g id="a_edge3_Node000001_Node000004"><a xlink:title=" ">
<path fill="none" stroke="#63b8ff" d="M1192.98,-263.94C1277.15,-240.57 1386.6,-196.37 1340.16,-132 1322.98,-108.18 1150.22,-58.68 1054.39,-32.72"/>
<polygon fill="#63b8ff" stroke="#63b8ff" points="1055.08,-29.28 1044.52,-30.05 1053.26,-36.04 1055.08,-29.28"/>
</a>
</g>
</g>
<!-- Node5 -->
<g id="Node000005" class="node">
<title>Node5</title>
<g id="a_Node000005"><a xlink:title=" ">
<polygon fill="#e0e0e0" stroke="#999999" points="885.16,-30 769.16,-30 769.16,0 885.16,0 885.16,-30"/>
<text text-anchor="start" x="777.16" y="-18" font-family="Helvetica,sans-Serif" font-size="10.00">boost/archive/binary</text>
<text text-anchor="middle" x="827.16" y="-7" font-family="Helvetica,sans-Serif" font-size="10.00">_oarchive.hpp</text>
</a>
</g>
</g>
<!-- Node1&#45;&gt;Node5 -->
<g id="edge4_Node000001_Node000005" class="edge">
<title>Node1&#45;&gt;Node5</title>
<g id="a_edge4_Node000001_Node000005"><a xlink:title=" ">
<path fill="none" stroke="#63b8ff" d="M1073.71,-263.81C1059.98,-254.38 1044.84,-242.08 1034.16,-228 987.18,-166.05 1024.77,-119.29 968.16,-66 948.21,-47.22 920.76,-35.43 895.38,-28.05"/>
<polygon fill="#63b8ff" stroke="#63b8ff" points="895.97,-24.59 885.4,-25.34 894.13,-31.34 895.97,-24.59"/>
</a>
</g>
</g>
<!-- Node6 -->
<g id="Node000006" class="node">
<title>Node6</title>
<g id="a_Node000006"><a xlink:title=" ">
<polygon fill="#e0e0e0" stroke="#999999" points="1389.16,-24.5 1345.16,-24.5 1345.16,-5.5 1389.16,-5.5 1389.16,-24.5"/>
<text text-anchor="middle" x="1367.16" y="-12.5" font-family="Helvetica,sans-Serif" font-size="10.00">string</text>
</a>
</g>
</g>
<!-- Node1&#45;&gt;Node6 -->
<g id="edge5_Node000001_Node000006" class="edge">
<title>Node1&#45;&gt;Node6</title>
<g id="a_edge5_Node000001_Node000006"><a xlink:title=" ">
<path fill="none" stroke="#63b8ff" d="M1226.91,-272.32C1421.79,-251.3 1793.52,-198.49 1869.16,-96 1877.08,-85.27 1878.11,-75.88 1869.16,-66 1837.59,-31.12 1505.36,-19.57 1399.43,-16.76"/>
<polygon fill="#63b8ff" stroke="#63b8ff" points="1399.42,-13.26 1389.33,-16.5 1399.24,-20.25 1399.42,-13.26"/>
</a>
</g>
</g>
<!-- Node7 -->
<g id="Node000007" class="node">
<title>Node7</title>
<g id="a_Node000007"><a xlink:title=" ">
<polygon fill="#e0e0e0" stroke="#999999" points="1339.16,-90.5 1283.16,-90.5 1283.16,-71.5 1339.16,-71.5 1339.16,-90.5"/>
<text text-anchor="middle" x="1311.16" y="-78.5" font-family="Helvetica,sans-Serif" font-size="10.00">sstream</text>
</a>
</g>
</g>
<!-- Node1&#45;&gt;Node7 -->
<g id="edge6_Node000001_Node000007" class="edge">
<title>Node1&#45;&gt;Node7</title>
<g id="a_edge6_Node000001_Node000007"><a xlink:title=" ">
<path fill="none" stroke="#63b8ff" d="M1226.96,-273.18C1288.4,-265.14 1354.23,-251.29 1373.16,-228 1400.08,-194.89 1391.57,-170.49 1373.16,-132 1365.79,-116.59 1351.11,-104.42 1337.88,-95.94"/>
<polygon fill="#63b8ff" stroke="#63b8ff" points="1339.44,-92.79 1329.06,-90.66 1335.84,-98.8 1339.44,-92.79"/>
</a>
</g>
</g>
<!-- Node8 -->
<g id="Node000008" class="node">
<title>Node8</title>
<g id="a_Node000008"><a xlink:title=" ">
<polygon fill="#e0e0e0" stroke="#999999" points="1331.16,-156.5 1221.16,-156.5 1221.16,-137.5 1331.16,-137.5 1331.16,-156.5"/>
<text text-anchor="middle" x="1276.16" y="-144.5" font-family="Helvetica,sans-Serif" font-size="10.00">nlohmann/json.hpp</text>
</a>
</g>
</g>
<!-- Node1&#45;&gt;Node8 -->
<g id="edge7_Node000001_Node000008" class="edge">
<title>Node1&#45;&gt;Node8</title>
<g id="a_edge7_Node000001_Node000008"><a xlink:title=" ">
<path fill="none" stroke="#63b8ff" d="M1134.16,-263.82C1148.3,-253.37 1165.83,-240.19 1181.16,-228 1208.68,-206.12 1239.68,-179.67 1258.56,-163.33"/>
<polygon fill="#63b8ff" stroke="#63b8ff" points="1261.07,-165.79 1266.33,-156.6 1256.48,-160.5 1261.07,-165.79"/>
</a>
</g>
</g>
<!-- Node9 -->
<g id="Node000009" class="node">
<title>Node9</title>
<g id="a_Node000009"><a xlink:href="TimeUnits_8h.html" target="_top" xlink:title="Defines the TimeStep and Day classes for representing simulation time units.">
<polygon fill="white" stroke="#666666" points="801.66,-162 656.66,-162 656.66,-132 801.66,-132 801.66,-162"/>
<text text-anchor="start" x="664.66" y="-150" font-family="Helvetica,sans-Serif" font-size="10.00">App/Model/IBM/Landscape</text>
<text text-anchor="middle" x="729.16" y="-139" font-family="Helvetica,sans-Serif" font-size="10.00">/LivingBeings/TimeUnits.h</text>
</a>
</g>
</g>
<!-- Node1&#45;&gt;Node9 -->
<g id="edge8_Node000001_Node000009" class="edge">
<title>Node1&#45;&gt;Node9</title>
<g id="a_edge8_Node000001_Node000009"><a xlink:title=" ">
<path fill="none" stroke="#63b8ff" d="M1052.6,-263.94C978.89,-237.52 848.6,-190.82 777.98,-165.5"/>
<polygon fill="#63b8ff" stroke="#63b8ff" points="779.01,-162.15 768.42,-162.07 776.65,-168.74 779.01,-162.15"/>
</a>
</g>
</g>
<!-- Node17 -->
<g id="Node000017" class="node">
<title>Node17</title>
<g id="a_Node000017"><a xlink:href="EnumClass_8h.html" target="_top" xlink:title="Template helper class for working with strongly&#45;typed enums.">
<polygon fill="white" stroke="#666666" points="1530.66,-156.5 1425.66,-156.5 1425.66,-137.5 1530.66,-137.5 1530.66,-156.5"/>
<text text-anchor="middle" x="1478.16" y="-144.5" font-family="Helvetica,sans-Serif" font-size="10.00">Misc/EnumClass.h</text>
</a>
</g>
</g>
<!-- Node1&#45;&gt;Node17 -->
<g id="edge26_Node000001_Node000017" class="edge">
<title>Node1&#45;&gt;Node17</title>
<g id="a_edge26_Node000001_Node000017"><a xlink:title=" ">
<path fill="none" stroke="#63b8ff" d="M1226.92,-270.07C1297.95,-260.49 1380.04,-246.12 1411.16,-228 1437.03,-212.95 1457.41,-184.01 1468.62,-165.37"/>
<polygon fill="#63b8ff" stroke="#63b8ff" points="1471.66,-167.1 1473.62,-156.69 1465.59,-163.61 1471.66,-167.1"/>
</a>
</g>
</g>
<!-- Node22 -->
<g id="Node000022" class="node">
<title>Node22</title>
<g id="a_Node000022"><a xlink:href="Temperature_8h.html" target="_top" xlink:title="Definition of the Temperature class and related operations.">
<polygon fill="white" stroke="#666666" points="274.16,-162 144.16,-162 144.16,-132 274.16,-132 274.16,-162"/>
<text text-anchor="start" x="152.16" y="-150" font-family="Helvetica,sans-Serif" font-size="10.00">App/Model/IBM/Physics</text>
<text text-anchor="middle" x="209.16" y="-139" font-family="Helvetica,sans-Serif" font-size="10.00">/Temperature.h</text>
</a>
</g>
</g>
<!-- Node1&#45;&gt;Node22 -->
<g id="edge34_Node000001_Node000022" class="edge">
<title>Node1&#45;&gt;Node22</title>
<g id="a_edge34_Node000001_Node000022"><a xlink:title=" ">
<path fill="none" stroke="#63b8ff" d="M987.54,-280.07C775.48,-273.29 350.03,-256.35 288.16,-228 260.92,-215.52 237.95,-189.25 223.92,-170.21"/>
<polygon fill="#63b8ff" stroke="#63b8ff" points="226.76,-168.17 218.12,-162.04 221.06,-172.22 226.76,-168.17"/>
</a>
</g>
</g>
<!-- Node25 -->
<g id="Node000025" class="node">
<title>Node25</title>
<g id="a_Node000025"><a xlink:href="Dynamics_8h.html" target="_top" xlink:title="Defines the abstract Dynamics class for modeling temporal changes in traits or resources.">
<polygon fill="white" stroke="#666666" points="1171.66,-228 1042.66,-228 1042.66,-198 1171.66,-198 1171.66,-228"/>
<text text-anchor="start" x="1050.66" y="-216" font-family="Helvetica,sans-Serif" font-size="10.00">App/Model/IBM/Maths</text>
<text text-anchor="middle" x="1107.16" y="-205" font-family="Helvetica,sans-Serif" font-size="10.00">/Dynamics/Dynamics.h</text>
</a>
</g>
</g>
<!-- Node1&#45;&gt;Node25 -->
<g id="edge43_Node000001_Node000025" class="edge">
<title>Node1&#45;&gt;Node25</title>
<g id="a_edge43_Node000001_Node000025"><a xlink:title=" ">
<path fill="none" stroke="#63b8ff" d="M1107.16,-263.77C1107.16,-255.85 1107.16,-246.63 1107.16,-238.3"/>
<polygon fill="#63b8ff" stroke="#63b8ff" points="1110.66,-238.04 1107.16,-228.04 1103.66,-238.04 1110.66,-238.04"/>
</a>
</g>
</g>
<!-- Node9&#45;&gt;Node2 -->
<g id="edge9_Node000009_Node000002" class="edge">
<title>Node9&#45;&gt;Node2</title>
<g id="a_edge9_Node000009_Node000002"><a xlink:title=" ">
<path fill="none" stroke="#63b8ff" d="M656.64,-143.24C603.16,-138.58 530.13,-126.55 473.16,-96 447.18,-82.06 424.35,-56.71 410,-38.28"/>
<polygon fill="#63b8ff" stroke="#63b8ff" points="412.66,-35.99 403.84,-30.11 407.07,-40.2 412.66,-35.99"/>
</a>
</g>
</g>
<!-- Node9&#45;&gt;Node3 -->
<g id="edge10_Node000009_Node000003" class="edge">
<title>Node9&#45;&gt;Node3</title>
<g id="a_edge10_Node000009_Node000003"><a xlink:title=" ">
<path fill="none" stroke="#63b8ff" d="M656.53,-139.23C589.68,-131.99 488.17,-118.4 402.16,-96 340.2,-79.87 271.29,-52.27 228.83,-34.08"/>
<polygon fill="#63b8ff" stroke="#63b8ff" points="229.98,-30.76 219.41,-30.01 227.2,-37.19 229.98,-30.76"/>
</a>
</g>
</g>
<!-- Node9&#45;&gt;Node4 -->
<g id="edge11_Node000009_Node000004" class="edge">
<title>Node9&#45;&gt;Node4</title>
<g id="a_edge11_Node000009_Node000004"><a xlink:title=" ">
<path fill="none" stroke="#63b8ff" d="M741.25,-131.71C758.87,-111.2 791.15,-74.88 806.16,-66 841.76,-44.94 886.41,-32.54 922.92,-25.36"/>
<polygon fill="#63b8ff" stroke="#63b8ff" points="923.81,-28.76 932.99,-23.47 922.52,-21.88 923.81,-28.76"/>
</a>
</g>
</g>
<!-- Node9&#45;&gt;Node5 -->
<g id="edge12_Node000009_Node000005" class="edge">
<title>Node9&#45;&gt;Node5</title>
<g id="a_edge12_Node000009_Node000005"><a xlink:title=" ">
<path fill="none" stroke="#63b8ff" d="M735,-131.84C742.27,-115.14 755.76,-87 772.16,-66 780.42,-55.43 791.03,-45.21 800.73,-36.79"/>
<polygon fill="#63b8ff" stroke="#63b8ff" points="803.19,-39.29 808.59,-30.17 798.69,-33.93 803.19,-39.29"/>
</a>
</g>
</g>
<!-- Node10 -->
<g id="Node000010" class="node">
<title>Node10</title>
<g id="a_Node000010"><a xlink:title=" ">
<polygon fill="#e0e0e0" stroke="#999999" points="871.66,-90.5 814.66,-90.5 814.66,-71.5 871.66,-71.5 871.66,-90.5"/>
<text text-anchor="middle" x="843.16" y="-78.5" font-family="Helvetica,sans-Serif" font-size="10.00">ostream</text>
</a>
</g>
</g>
<!-- Node9&#45;&gt;Node10 -->
<g id="edge13_Node000009_Node000010" class="edge">
<title>Node9&#45;&gt;Node10</title>
<g id="a_edge13_Node000009_Node000010"><a xlink:title=" ">
<path fill="none" stroke="#63b8ff" d="M754.18,-131.95C773.47,-121.13 799.98,-106.24 819.04,-95.54"/>
<polygon fill="#63b8ff" stroke="#63b8ff" points="820.98,-98.46 827.99,-90.52 817.56,-92.36 820.98,-98.46"/>
</a>
</g>
</g>
<!-- Node11 -->
<g id="Node000011" class="node">
<title>Node11</title>
<g id="a_Node000011"><a xlink:title=" ">
<polygon fill="#e0e0e0" stroke="#999999" points="734.66,-24.5 687.66,-24.5 687.66,-5.5 734.66,-5.5 734.66,-24.5"/>
<text text-anchor="middle" x="711.16" y="-12.5" font-family="Helvetica,sans-Serif" font-size="10.00">cmath</text>
</a>
</g>
</g>
<!-- Node9&#45;&gt;Node11 -->
<g id="edge14_Node000009_Node000011" class="edge">
<title>Node9&#45;&gt;Node11</title>
<g id="a_edge14_Node000009_Node000011"><a xlink:title=" ">
<path fill="none" stroke="#63b8ff" d="M727.2,-131.84C723.95,-108.34 717.43,-61.26 713.78,-34.93"/>
<polygon fill="#63b8ff" stroke="#63b8ff" points="717.21,-34.17 712.37,-24.75 710.28,-35.13 717.21,-34.17"/>
</a>
</g>
</g>
<!-- Node12 -->
<g id="Node000012" class="node">
<title>Node12</title>
<g id="a_Node000012"><a xlink:href="PreciseDouble_8h.html" target="_top" xlink:title="Defines the PreciseDouble class for safe and precise double&#45;precision arithmetic.">
<polygon fill="white" stroke="#666666" points="605.66,-96 482.66,-96 482.66,-66 605.66,-66 605.66,-96"/>
<text text-anchor="start" x="490.66" y="-84" font-family="Helvetica,sans-Serif" font-size="10.00">App/Model/IBM/Maths</text>
<text text-anchor="middle" x="544.16" y="-73" font-family="Helvetica,sans-Serif" font-size="10.00">/PreciseDouble.h</text>
</a>
</g>
</g>
<!-- Node9&#45;&gt;Node12 -->
<g id="edge15_Node000009_Node000012" class="edge">
<title>Node9&#45;&gt;Node12</title>
<g id="a_edge15_Node000009_Node000012"><a xlink:title=" ">
<path fill="none" stroke="#63b8ff" d="M688.56,-131.95C660.85,-122.37 623.95,-109.6 594.39,-99.37"/>
<polygon fill="#63b8ff" stroke="#63b8ff" points="595.26,-95.97 584.67,-96.01 592.97,-102.59 595.26,-95.97"/>
</a>
</g>
</g>
<!-- Node12&#45;&gt;Node2 -->
<g id="edge16_Node000012_Node000002" class="edge">
<title>Node12&#45;&gt;Node2</title>
<g id="a_edge16_Node000012_Node000002"><a xlink:title=" ">
<path fill="none" stroke="#63b8ff" d="M511.24,-65.95C489.26,-56.58 460.15,-44.16 436.46,-34.05"/>
<polygon fill="#63b8ff" stroke="#63b8ff" points="437.58,-30.72 427,-30.01 434.83,-37.16 437.58,-30.72"/>
</a>
</g>
</g>
<!-- Node12&#45;&gt;Node3 -->
<g id="edge17_Node000012_Node000003" class="edge">
<title>Node12&#45;&gt;Node3</title>
<g id="a_edge17_Node000012_Node000003"><a xlink:title=" ">
<path fill="none" stroke="#63b8ff" d="M482.39,-70.59C424.79,-61.58 336.27,-47.12 250.59,-30.22"/>
<polygon fill="#63b8ff" stroke="#63b8ff" points="251.18,-26.77 240.69,-28.26 249.82,-33.64 251.18,-26.77"/>
</a>
</g>
</g>
<!-- Node12&#45;&gt;Node4 -->
<g id="edge18_Node000012_Node000004" class="edge">
<title>Node12&#45;&gt;Node4</title>
<g id="a_edge18_Node000012_Node000004"><a xlink:title=" ">
<path fill="none" stroke="#63b8ff" d="M605.81,-71.22C675.73,-61.26 793.15,-44.5 894.16,-30 903.47,-28.66 913.29,-27.25 922.96,-25.86"/>
<polygon fill="#63b8ff" stroke="#63b8ff" points="923.55,-29.31 932.95,-24.42 922.55,-22.38 923.55,-29.31"/>
</a>
</g>
</g>
<!-- Node12&#45;&gt;Node5 -->
<g id="edge19_Node000012_Node000005" class="edge">
<title>Node12&#45;&gt;Node5</title>
<g id="a_edge19_Node000012_Node000005"><a xlink:title=" ">
<path fill="none" stroke="#63b8ff" d="M605.92,-66.03C651.07,-55.82 712.31,-41.97 758.91,-31.44"/>
<polygon fill="#63b8ff" stroke="#63b8ff" points="759.94,-34.79 768.92,-29.17 758.39,-27.96 759.94,-34.79"/>
</a>
</g>
</g>
<!-- Node12&#45;&gt;Node6 -->
<g id="edge20_Node000012_Node000006" class="edge">
<title>Node12&#45;&gt;Node6</title>
<g id="a_edge20_Node000012_Node000006"><a xlink:title=" ">
<path fill="none" stroke="#63b8ff" d="M605.68,-75.22C769.24,-62.5 1210.75,-28.16 1334.51,-18.54"/>
<polygon fill="#63b8ff" stroke="#63b8ff" points="1335.14,-22 1344.84,-17.74 1334.59,-15.02 1335.14,-22"/>
</a>
</g>
</g>
<!-- Node12&#45;&gt;Node11 -->
<g id="edge21_Node000012_Node000011" class="edge">
<title>Node12&#45;&gt;Node11</title>
<g id="a_edge21_Node000012_Node000011"><a xlink:title=" ">
<path fill="none" stroke="#63b8ff" d="M583.33,-65.9C610.14,-56.12 646.45,-42.64 678.16,-30 679.37,-29.52 680.59,-29.03 681.83,-28.52"/>
<polygon fill="#63b8ff" stroke="#63b8ff" points="683.43,-31.65 691.33,-24.58 680.75,-25.18 683.43,-31.65"/>
</a>
</g>
</g>
<!-- Node13 -->
<g id="Node000013" class="node">
<title>Node13</title>
<g id="a_Node000013"><a xlink:title=" ">
<polygon fill="#e0e0e0" stroke="#999999" points="591.16,-24.5 527.16,-24.5 527.16,-5.5 591.16,-5.5 591.16,-24.5"/>
<text text-anchor="middle" x="559.16" y="-12.5" font-family="Helvetica,sans-Serif" font-size="10.00">algorithm</text>
</a>
</g>
</g>
<!-- Node12&#45;&gt;Node13 -->
<g id="edge22_Node000012_Node000013" class="edge">
<title>Node12&#45;&gt;Node13</title>
<g id="a_edge22_Node000012_Node000013"><a xlink:title=" ">
<path fill="none" stroke="#63b8ff" d="M547.49,-65.8C549.62,-56.7 552.42,-44.79 554.73,-34.9"/>
<polygon fill="#63b8ff" stroke="#63b8ff" points="558.22,-35.38 557.09,-24.84 551.4,-33.78 558.22,-35.38"/>
</a>
</g>
</g>
<!-- Node14 -->
<g id="Node000014" class="node">
<title>Node14</title>
<g id="a_Node000014"><a xlink:title=" ">
<polygon fill="#e0e0e0" stroke="#999999" points="669.16,-24.5 609.16,-24.5 609.16,-5.5 669.16,-5.5 669.16,-24.5"/>
<text text-anchor="middle" x="639.16" y="-12.5" font-family="Helvetica,sans-Serif" font-size="10.00">iostream</text>
</a>
</g>
</g>
<!-- Node12&#45;&gt;Node14 -->
<g id="edge23_Node000012_Node000014" class="edge">
<title>Node12&#45;&gt;Node14</title>
<g id="a_edge23_Node000012_Node000014"><a xlink:title=" ">
<path fill="none" stroke="#63b8ff" d="M565.25,-65.8C580.87,-55.27 602.1,-40.97 617.79,-30.4"/>
<polygon fill="#63b8ff" stroke="#63b8ff" points="619.97,-33.15 626.31,-24.66 616.06,-27.34 619.97,-33.15"/>
</a>
</g>
</g>
<!-- Node15 -->
<g id="Node000015" class="node">
<title>Node15</title>
<g id="a_Node000015"><a xlink:title=" ">
<polygon fill="#e0e0e0" stroke="#999999" points="509.16,-24.5 465.16,-24.5 465.16,-5.5 509.16,-5.5 509.16,-24.5"/>
<text text-anchor="middle" x="487.16" y="-12.5" font-family="Helvetica,sans-Serif" font-size="10.00">limits</text>
</a>
</g>
</g>
<!-- Node12&#45;&gt;Node15 -->
<g id="edge24_Node000012_Node000015" class="edge">
<title>Node12&#45;&gt;Node15</title>
<g id="a_edge24_Node000012_Node000015"><a xlink:title=" ">
<path fill="none" stroke="#63b8ff" d="M531.51,-65.8C522.71,-55.92 510.96,-42.72 501.76,-32.39"/>
<polygon fill="#63b8ff" stroke="#63b8ff" points="504.3,-29.98 495.04,-24.84 499.08,-34.64 504.3,-29.98"/>
</a>
</g>
</g>
<!-- Node16 -->
<g id="Node000016" class="node">
<title>Node16</title>
<g id="a_Node000016"><a xlink:title=" ">
<polygon fill="#e0e0e0" stroke="#999999" points="323.66,-24.5 258.66,-24.5 258.66,-5.5 323.66,-5.5 323.66,-24.5"/>
<text text-anchor="middle" x="291.16" y="-12.5" font-family="Helvetica,sans-Serif" font-size="10.00">functional</text>
</a>
</g>
</g>
<!-- Node12&#45;&gt;Node16 -->
<g id="edge25_Node000012_Node000016" class="edge">
<title>Node12&#45;&gt;Node16</title>
<g id="a_edge25_Node000012_Node000016"><a xlink:title=" ">
<path fill="none" stroke="#63b8ff" d="M482.52,-67.13C440,-57.84 382.31,-44.44 332.16,-30 329.7,-29.29 327.16,-28.52 324.61,-27.72"/>
<polygon fill="#63b8ff" stroke="#63b8ff" points="325.48,-24.32 314.89,-24.54 323.3,-30.97 325.48,-24.32"/>
</a>
</g>
</g>
<!-- Node17&#45;&gt;Node6 -->
<g id="edge28_Node000017_Node000006" class="edge">
<title>Node17&#45;&gt;Node6</title>
<g id="a_edge28_Node000017_Node000006"><a xlink:title=" ">
<path fill="none" stroke="#63b8ff" d="M1449.44,-137.44C1428.81,-129.83 1401.96,-116.65 1386.16,-96 1372.57,-78.24 1368.5,-52.25 1367.39,-34.76"/>
<polygon fill="#63b8ff" stroke="#63b8ff" points="1370.88,-34.53 1367.01,-24.67 1363.88,-34.79 1370.88,-34.53"/>
</a>
</g>
</g>
<!-- Node17&#45;&gt;Node7 -->
<g id="edge27_Node000017_Node000007" class="edge">
<title>Node17&#45;&gt;Node7</title>
<g id="a_edge27_Node000017_Node000007"><a xlink:title=" ">
<path fill="none" stroke="#63b8ff" d="M1455.64,-137.37C1426.67,-126.27 1376.18,-106.92 1343.22,-94.28"/>
<polygon fill="#63b8ff" stroke="#63b8ff" points="1344.18,-90.91 1333.59,-90.6 1341.68,-97.44 1344.18,-90.91"/>
</a>
</g>
</g>
<!-- Node18 -->
<g id="Node000018" class="node">
<title>Node18</title>
<g id="a_Node000018"><a xlink:title=" ">
<polygon fill="#e0e0e0" stroke="#999999" points="1672.66,-90.5 1579.66,-90.5 1579.66,-71.5 1672.66,-71.5 1672.66,-90.5"/>
<text text-anchor="middle" x="1626.16" y="-78.5" font-family="Helvetica,sans-Serif" font-size="10.00">unordered_map</text>
</a>
</g>
</g>
<!-- Node17&#45;&gt;Node18 -->
<g id="edge29_Node000017_Node000018" class="edge">
<title>Node17&#45;&gt;Node18</title>
<g id="a_edge29_Node000017_Node000018"><a xlink:title=" ">
<path fill="none" stroke="#63b8ff" d="M1498.12,-137.37C1523.5,-126.39 1567.52,-107.36 1596.75,-94.72"/>
<polygon fill="#63b8ff" stroke="#63b8ff" points="1598.26,-97.88 1606.05,-90.7 1595.48,-91.46 1598.26,-97.88"/>
</a>
</g>
</g>
<!-- Node19 -->
<g id="Node000019" class="node">
<title>Node19</title>
<g id="a_Node000019"><a xlink:title=" ">
<polygon fill="#e0e0e0" stroke="#999999" points="1561.66,-90.5 1394.66,-90.5 1394.66,-71.5 1561.66,-71.5 1561.66,-90.5"/>
<text text-anchor="middle" x="1478.16" y="-78.5" font-family="Helvetica,sans-Serif" font-size="10.00">magic_enum/magic_enum.hpp</text>
</a>
</g>
</g>
<!-- Node17&#45;&gt;Node19 -->
<g id="edge30_Node000017_Node000019" class="edge">
<title>Node17&#45;&gt;Node19</title>
<g id="a_edge30_Node000017_Node000019"><a xlink:title=" ">
<path fill="none" stroke="#63b8ff" d="M1478.16,-137.37C1478.16,-128.16 1478.16,-113.29 1478.16,-101.27"/>
<polygon fill="#63b8ff" stroke="#63b8ff" points="1481.66,-100.91 1478.16,-90.91 1474.66,-100.91 1481.66,-100.91"/>
</a>
</g>
</g>
<!-- Node20 -->
<g id="Node000020" class="node">
<title>Node20</title>
<g id="a_Node000020"><a xlink:href="LineInfoException_8h.html" target="_top" xlink:title="Exception class with detailed file and line information for error reporting.">
<polygon fill="white" stroke="#666666" points="1859.66,-90.5 1690.66,-90.5 1690.66,-71.5 1859.66,-71.5 1859.66,-90.5"/>
<text text-anchor="middle" x="1775.16" y="-78.5" font-family="Helvetica,sans-Serif" font-size="10.00">Exceptions/LineInfoException.h</text>
</a>
</g>
</g>
<!-- Node17&#45;&gt;Node20 -->
<g id="edge31_Node000017_Node000020" class="edge">
<title>Node17&#45;&gt;Node20</title>
<g id="a_edge31_Node000017_Node000020"><a xlink:title=" ">
<path fill="none" stroke="#63b8ff" d="M1517.91,-137.44C1571.59,-125.87 1667.24,-105.26 1725.57,-92.69"/>
<polygon fill="#63b8ff" stroke="#63b8ff" points="1726.61,-96.04 1735.65,-90.51 1725.14,-89.2 1726.61,-96.04"/>
</a>
</g>
</g>
<!-- Node20&#45;&gt;Node6 -->
<g id="edge33_Node000020_Node000006" class="edge">
<title>Node20&#45;&gt;Node6</title>
<g id="a_edge33_Node000020_Node000006"><a xlink:title=" ">
<path fill="none" stroke="#63b8ff" d="M1720.56,-71.44C1634.23,-57.89 1468.87,-31.95 1399.28,-21.04"/>
<polygon fill="#63b8ff" stroke="#63b8ff" points="1399.77,-17.57 1389.35,-19.48 1398.68,-24.49 1399.77,-17.57"/>
</a>
</g>
</g>
<!-- Node21 -->
<g id="Node000021" class="node">
<title>Node21</title>
<g id="a_Node000021"><a xlink:title=" ">
<polygon fill="#e0e0e0" stroke="#999999" points="1807.66,-24.5 1742.66,-24.5 1742.66,-5.5 1807.66,-5.5 1807.66,-24.5"/>
<text text-anchor="middle" x="1775.16" y="-12.5" font-family="Helvetica,sans-Serif" font-size="10.00">exception</text>
</a>
</g>
</g>
<!-- Node20&#45;&gt;Node21 -->
<g id="edge32_Node000020_Node000021" class="edge">
<title>Node20&#45;&gt;Node21</title>
<g id="a_edge32_Node000020_Node000021"><a xlink:title=" ">
<path fill="none" stroke="#63b8ff" d="M1775.16,-71.37C1775.16,-62.16 1775.16,-47.29 1775.16,-35.27"/>
<polygon fill="#63b8ff" stroke="#63b8ff" points="1778.66,-34.91 1775.16,-24.91 1771.66,-34.91 1778.66,-34.91"/>
</a>
</g>
</g>
<!-- Node22&#45;&gt;Node2 -->
<g id="edge35_Node000022_Node000002" class="edge">
<title>Node22&#45;&gt;Node2</title>
<g id="a_edge35_Node000022_Node000002"><a xlink:title=" ">
<path fill="none" stroke="#63b8ff" d="M220.5,-131.78C234.83,-114.51 260.92,-85.29 288.16,-66 306.06,-53.32 327.68,-42.46 346.71,-34.13"/>
<polygon fill="#63b8ff" stroke="#63b8ff" points="348.28,-37.26 356.11,-30.12 345.53,-30.82 348.28,-37.26"/>
</a>
</g>
</g>
<!-- Node22&#45;&gt;Node3 -->
<g id="edge36_Node000022_Node000003" class="edge">
<title>Node22&#45;&gt;Node3</title>
<g id="a_edge36_Node000022_Node000003"><a xlink:title=" ">
<path fill="none" stroke="#63b8ff" d="M143.8,-137.58C94.49,-129.73 32.75,-116.17 17.16,-96 -15.78,-53.38 64.05,-32.51 125.44,-23.03"/>
<polygon fill="#63b8ff" stroke="#63b8ff" points="126.11,-26.47 135.5,-21.55 125.09,-19.54 126.11,-26.47"/>
</a>
</g>
</g>
<!-- Node22&#45;&gt;Node4 -->
<g id="edge37_Node000022_Node000004" class="edge">
<title>Node22&#45;&gt;Node4</title>
<g id="a_edge37_Node000022_Node000004"><a xlink:title=" ">
<path fill="none" stroke="#63b8ff" d="M274.34,-142.61C363.83,-137.11 529.46,-123.92 668.16,-96 714.07,-86.76 723.85,-77.82 769.16,-66 820.41,-52.63 878.86,-39.56 922.92,-30.13"/>
<polygon fill="#63b8ff" stroke="#63b8ff" points="923.89,-33.5 932.94,-27.99 922.43,-26.65 923.89,-33.5"/>
</a>
</g>
</g>
<!-- Node22&#45;&gt;Node5 -->
<g id="edge38_Node000022_Node000005" class="edge">
<title>Node22&#45;&gt;Node5</title>
<g id="a_edge38_Node000022_Node000005"><a xlink:title=" ">
<path fill="none" stroke="#63b8ff" d="M274.2,-142.71C354.92,-137.55 496.35,-124.96 614.16,-96 622.63,-93.92 720.85,-56.61 780.91,-33.69"/>
<polygon fill="#63b8ff" stroke="#63b8ff" points="782.47,-36.84 790.57,-30 779.98,-30.3 782.47,-36.84"/>
</a>
</g>
</g>
<!-- Node22&#45;&gt;Node12 -->
<g id="edge42_Node000022_Node000012" class="edge">
<title>Node22&#45;&gt;Node12</title>
<g id="a_edge42_Node000022_Node000012"><a xlink:title=" ">
<path fill="none" stroke="#63b8ff" d="M274.55,-133.51C331.52,-122.62 413.97,-106.87 472.67,-95.66"/>
<polygon fill="#63b8ff" stroke="#63b8ff" points="473.45,-99.07 482.61,-93.76 472.13,-92.2 473.45,-99.07"/>
</a>
</g>
</g>
<!-- Node22&#45;&gt;Node16 -->
<g id="edge40_Node000022_Node000016" class="edge">
<title>Node22&#45;&gt;Node16</title>
<g id="a_edge40_Node000022_Node000016"><a xlink:title=" ">
<path fill="none" stroke="#63b8ff" d="M144.14,-136.44C87.41,-125.37 18.71,-103.65 50.16,-66 78.97,-31.51 205.62,-41.13 249.16,-30 251.95,-29.29 254.83,-28.48 257.7,-27.63"/>
<polygon fill="#63b8ff" stroke="#63b8ff" points="258.86,-30.93 267.35,-24.59 256.76,-24.25 258.86,-30.93"/>
</a>
</g>
</g>
<!-- Node23 -->
<g id="Node000023" class="node">
<title>Node23</title>
<g id="a_Node000023"><a xlink:title=" ">
<polygon fill="#e0e0e0" stroke="#999999" points="197.66,-90.5 142.66,-90.5 142.66,-71.5 197.66,-71.5 197.66,-90.5"/>
<text text-anchor="middle" x="170.16" y="-78.5" font-family="Helvetica,sans-Serif" font-size="10.00">fstream</text>
</a>
</g>
</g>
<!-- Node22&#45;&gt;Node23 -->
<g id="edge39_Node000022_Node000023" class="edge">
<title>Node22&#45;&gt;Node23</title>
<g id="a_edge39_Node000022_Node000023"><a xlink:title=" ">
<path fill="none" stroke="#63b8ff" d="M200.51,-131.8C194.72,-122.31 187.08,-109.76 180.91,-99.63"/>
<polygon fill="#63b8ff" stroke="#63b8ff" points="183.74,-97.56 175.55,-90.84 177.77,-101.21 183.74,-97.56"/>
</a>
</g>
</g>
<!-- Node24 -->
<g id="Node000024" class="node">
<title>Node24</title>
<g id="a_Node000024"><a xlink:title=" ">
<polygon fill="#e0e0e0" stroke="#999999" points="124.66,-90.5 59.66,-90.5 59.66,-71.5 124.66,-71.5 124.66,-90.5"/>
<text text-anchor="middle" x="92.16" y="-78.5" font-family="Helvetica,sans-Serif" font-size="10.00">stdexcept</text>
</a>
</g>
</g>
<!-- Node22&#45;&gt;Node24 -->
<g id="edge41_Node000022_Node000024" class="edge">
<title>Node22&#45;&gt;Node24</title>
<g id="a_edge41_Node000022_Node000024"><a xlink:title=" ">
<path fill="none" stroke="#63b8ff" d="M183.49,-131.95C163.6,-121.08 136.23,-106.11 116.65,-95.4"/>
<polygon fill="#63b8ff" stroke="#63b8ff" points="118.19,-92.25 107.73,-90.52 114.83,-98.39 118.19,-92.25"/>
</a>
</g>
</g>
<!-- Node25&#45;&gt;Node2 -->
<g id="edge44_Node000025_Node000002" class="edge">
<title>Node25&#45;&gt;Node2</title>
<g id="a_edge44_Node000025_Node000002"><a xlink:title=" ">
<path fill="none" stroke="#63b8ff" d="M1042.57,-208.82C953.03,-203.54 786.45,-190.58 647.16,-162 548.83,-141.82 506.82,-161.97 431.16,-96 414.48,-81.46 404.84,-57.81 399.61,-40"/>
<polygon fill="#63b8ff" stroke="#63b8ff" points="402.98,-39.05 397.02,-30.29 396.21,-40.85 402.98,-39.05"/>
</a>
</g>
</g>
<!-- Node25&#45;&gt;Node3 -->
<g id="edge45_Node000025_Node000003" class="edge">
<title>Node25&#45;&gt;Node3</title>
<g id="a_edge45_Node000025_Node000003"><a xlink:title=" ">
<path fill="none" stroke="#63b8ff" d="M1042.6,-209.92C905.03,-204.98 587.13,-190.75 483.16,-162 380.03,-133.48 269.93,-68.57 218.24,-35.76"/>
<polygon fill="#63b8ff" stroke="#63b8ff" points="219.89,-32.66 209.58,-30.21 216.11,-38.55 219.89,-32.66"/>
</a>
</g>
</g>
<!-- Node25&#45;&gt;Node4 -->
<g id="edge46_Node000025_Node000004" class="edge">
<title>Node25&#45;&gt;Node4</title>
<g id="a_edge46_Node000025_Node000004"><a xlink:title=" ">
<path fill="none" stroke="#63b8ff" d="M1111.52,-197.66C1119.09,-169.68 1131.42,-106.94 1104.16,-66 1093.58,-50.1 1076.69,-39.22 1059.17,-31.78"/>
<polygon fill="#63b8ff" stroke="#63b8ff" points="1059.99,-28.34 1049.4,-27.99 1057.46,-34.87 1059.99,-28.34"/>
</a>
</g>
</g>
<!-- Node25&#45;&gt;Node5 -->
<g id="edge47_Node000025_Node000005" class="edge">
<title>Node25&#45;&gt;Node5</title>
<g id="a_edge47_Node000025_Node000005"><a xlink:title=" ">
<path fill="none" stroke="#63b8ff" d="M1103.66,-197.85C1095.63,-168.49 1073.04,-100.78 1028.16,-66 1007.49,-49.98 945.4,-36.02 895.65,-26.95"/>
<polygon fill="#63b8ff" stroke="#63b8ff" points="896.02,-23.46 885.56,-25.15 894.78,-30.35 896.02,-23.46"/>
</a>
</g>
</g>
<!-- Node25&#45;&gt;Node6 -->
<g id="edge48_Node000025_Node000006" class="edge">
<title>Node25&#45;&gt;Node6</title>
<g id="a_edge48_Node000025_Node000006"><a xlink:title=" ">
<path fill="none" stroke="#63b8ff" d="M1115.96,-197.77C1126.95,-180.76 1147.03,-152.06 1169.16,-132 1221.5,-84.57 1296.3,-47.2 1337.36,-28.7"/>
<polygon fill="#63b8ff" stroke="#63b8ff" points="1338.83,-31.88 1346.55,-24.62 1335.99,-25.48 1338.83,-31.88"/>
</a>
</g>
</g>
<!-- Node25&#45;&gt;Node7 -->
<g id="edge49_Node000025_Node000007" class="edge">
<title>Node25&#45;&gt;Node7</title>
<g id="a_edge49_Node000025_Node000007"><a xlink:title=" ">
<path fill="none" stroke="#63b8ff" d="M1124.81,-197.93C1149.87,-178.05 1194.68,-142.95 1212.16,-132 1234.88,-117.77 1262.17,-104.23 1282.34,-94.84"/>
<polygon fill="#63b8ff" stroke="#63b8ff" points="1283.99,-97.93 1291.62,-90.58 1281.07,-91.57 1283.99,-97.93"/>
</a>
</g>
</g>
<!-- Node25&#45;&gt;Node8 -->
<g id="edge50_Node000025_Node000008" class="edge">
<title>Node25&#45;&gt;Node8</title>
<g id="a_edge50_Node000025_Node000008"><a xlink:title=" ">
<path fill="none" stroke="#63b8ff" d="M1144.25,-197.95C1174.15,-186.63 1215.76,-170.88 1244.2,-160.1"/>
<polygon fill="#63b8ff" stroke="#63b8ff" points="1245.56,-163.33 1253.67,-156.52 1243.08,-156.79 1245.56,-163.33"/>
</a>
</g>
</g>
<!-- Node25&#45;&gt;Node9 -->
<g id="edge51_Node000025_Node000009" class="edge">
<title>Node25&#45;&gt;Node9</title>
<g id="a_edge51_Node000025_Node000009"><a xlink:title=" ">
<path fill="none" stroke="#63b8ff" d="M1042.49,-201.11C984.74,-191.38 897.57,-176.67 811.93,-162.13"/>
<polygon fill="#63b8ff" stroke="#63b8ff" points="812.48,-158.67 802.04,-160.45 811.31,-165.57 812.48,-158.67"/>
</a>
</g>
</g>
<!-- Node25&#45;&gt;Node17 -->
<g id="edge60_Node000025_Node000017" class="edge">
<title>Node25&#45;&gt;Node17</title>
<g id="a_edge60_Node000025_Node000017"><a xlink:title=" ">
<path fill="none" stroke="#63b8ff" d="M1171.79,-200.85C1241.39,-188.84 1351.22,-169.9 1418.74,-158.25"/>
<polygon fill="#63b8ff" stroke="#63b8ff" points="1419.54,-161.67 1428.79,-156.52 1418.35,-154.77 1419.54,-161.67"/>
</a>
</g>
</g>
<!-- Node25&#45;&gt;Node22 -->
<g id="edge61_Node000025_Node000022" class="edge">
<title>Node25&#45;&gt;Node22</title>
<g id="a_edge61_Node000025_Node000022"><a xlink:title=" ">
<path fill="none" stroke="#63b8ff" d="M1042.53,-209.07C908.68,-202.74 591.52,-186.35 326.16,-162 312.64,-160.76 298.26,-159.22 284.38,-157.62"/>
<polygon fill="#63b8ff" stroke="#63b8ff" points="284.72,-154.14 274.38,-156.45 283.91,-161.09 284.72,-154.14"/>
</a>
</g>
</g>
<!-- Node26 -->
<g id="Node000026" class="node">
<title>Node26</title>
<g id="a_Node000026"><a xlink:href="StructuralUnits_8h.html" target="_top" xlink:title="Defines physical units used in the simulation: DryMass, WetMass, and Length.">
<polygon fill="white" stroke="#666666" points="986.66,-162 819.66,-162 819.66,-132 986.66,-132 986.66,-162"/>
<text text-anchor="start" x="827.66" y="-150" font-family="Helvetica,sans-Serif" font-size="10.00">App/Model/IBM/Landscape</text>
<text text-anchor="middle" x="903.16" y="-139" font-family="Helvetica,sans-Serif" font-size="10.00">/LivingBeings/StructuralUnits.h</text>
</a>
</g>
</g>
<!-- Node25&#45;&gt;Node26 -->
<g id="edge52_Node000025_Node000026" class="edge">
<title>Node25&#45;&gt;Node26</title>
<g id="a_edge52_Node000025_Node000026"><a xlink:title=" ">
<path fill="none" stroke="#63b8ff" d="M1062.39,-197.95C1031.57,-188.28 990.43,-175.38 957.7,-165.11"/>
<polygon fill="#63b8ff" stroke="#63b8ff" points="958.42,-161.67 947.83,-162.01 956.32,-168.35 958.42,-161.67"/>
</a>
</g>
</g>
<!-- Node26&#45;&gt;Node2 -->
<g id="edge53_Node000026_Node000002" class="edge">
<title>Node26&#45;&gt;Node2</title>
<g id="a_edge53_Node000026_Node000002"><a xlink:title=" ">
<path fill="none" stroke="#63b8ff" d="M903.77,-131.88C903.71,-113.58 900.55,-82.11 881.16,-66 810.55,-7.31 565.8,-42.13 456.93,-29.76"/>
<polygon fill="#63b8ff" stroke="#63b8ff" points="457.21,-26.27 446.83,-28.41 456.28,-33.2 457.21,-26.27"/>
</a>
</g>
</g>
<!-- Node26&#45;&gt;Node3 -->
<g id="edge54_Node000026_Node000003" class="edge">
<title>Node26&#45;&gt;Node3</title>
<g id="a_edge54_Node000026_Node000003"><a xlink:title=" ">
<path fill="none" stroke="#63b8ff" d="M819.45,-133.1C816.65,-132.72 813.89,-132.35 811.16,-132 661.34,-112.63 621.3,-125.63 473.16,-96 427.24,-86.82 417.2,-78.81 372.16,-66 331.85,-54.54 286.41,-42.19 250.78,-32.63"/>
<polygon fill="#63b8ff" stroke="#63b8ff" points="251.56,-29.21 241,-30.01 249.75,-35.97 251.56,-29.21"/>
</a>
</g>
</g>
<!-- Node26&#45;&gt;Node4 -->
<g id="edge55_Node000026_Node000004" class="edge">
<title>Node26&#45;&gt;Node4</title>
<g id="a_edge55_Node000026_Node000004"><a xlink:title=" ">
<path fill="none" stroke="#63b8ff" d="M928.62,-131.89C942.17,-123.17 958.07,-110.83 968.16,-96 979.5,-79.34 985.31,-57.09 988.25,-40.29"/>
<polygon fill="#63b8ff" stroke="#63b8ff" points="991.75,-40.56 989.8,-30.14 984.83,-39.5 991.75,-40.56"/>
</a>
</g>
</g>
<!-- Node26&#45;&gt;Node5 -->
<g id="edge56_Node000026_Node000005" class="edge">
<title>Node26&#45;&gt;Node5</title>
<g id="a_edge56_Node000026_Node000005"><a xlink:title=" ">
<path fill="none" stroke="#63b8ff" d="M922.34,-131.88C941.91,-115.7 967.41,-88.52 952.16,-66 939.04,-46.61 917.04,-34.74 895.13,-27.47"/>
<polygon fill="#63b8ff" stroke="#63b8ff" points="896.02,-24.09 885.44,-24.54 893.99,-30.79 896.02,-24.09"/>
</a>
</g>
</g>
<!-- Node26&#45;&gt;Node10 -->
<g id="edge57_Node000026_Node000010" class="edge">
<title>Node26&#45;&gt;Node10</title>
<g id="a_edge57_Node000026_Node000010"><a xlink:title=" ">
<path fill="none" stroke="#63b8ff" d="M889.85,-131.8C880.58,-121.92 868.21,-108.72 858.53,-98.39"/>
<polygon fill="#63b8ff" stroke="#63b8ff" points="860.85,-95.75 851.45,-90.84 855.74,-100.53 860.85,-95.75"/>
</a>
</g>
</g>
<!-- Node26&#45;&gt;Node11 -->
<g id="edge58_Node000026_Node000011" class="edge">
<title>Node26&#45;&gt;Node11</title>
<g id="a_edge58_Node000026_Node000011"><a xlink:title=" ">
<path fill="none" stroke="#63b8ff" d="M910.78,-131.91C919.03,-114.51 929.15,-84.89 914.16,-66 870.48,-10.93 828.2,-47.66 760.16,-30 755.15,-28.7 749.87,-27.26 744.71,-25.82"/>
<polygon fill="#63b8ff" stroke="#63b8ff" points="745.6,-22.43 735.02,-23.07 743.69,-29.17 745.6,-22.43"/>
</a>
</g>
</g>
<!-- Node26&#45;&gt;Node12 -->
<g id="edge59_Node000026_Node000012" class="edge">
<title>Node26&#45;&gt;Node12</title>
<g id="a_edge59_Node000026_Node000012"><a xlink:title=" ">
<path fill="none" stroke="#63b8ff" d="M824.38,-131.95C762.23,-120.88 676.28,-105.55 616.01,-94.81"/>
<polygon fill="#63b8ff" stroke="#63b8ff" points="616.27,-91.3 605.81,-92.99 615.04,-98.19 616.27,-91.3"/>
</a>
</g>
</g>
</g>
</svg>
