<?xml version="1.0" encoding="UTF-8" standalone="no"?>
<!DOCTYPE svg PUBLIC "-//W3C//DTD SVG 1.1//EN"
 "http://www.w3.org/Graphics/SVG/1.1/DTD/svg11.dtd">
<!-- Generated by graphviz version 2.43.0 (0)
 -->
<!-- Title: /home/runner/work/Weaver/Weaver/include/App/Model/IBM/Landscape/Map/TerrainCells/PatchApplicator/PatchApplicator.h Pages: 1 -->
<svg width="1063pt" height="764pt"
 viewBox="0.00 0.00 1063.00 764.00" xmlns="http://www.w3.org/2000/svg" xmlns:xlink="http://www.w3.org/1999/xlink">
<g id="graph0" class="graph" transform="scale(1 1) rotate(0) translate(4 760)">
<title>/home/runner/work/Weaver/Weaver/include/App/Model/IBM/Landscape/Map/TerrainCells/PatchApplicator/PatchApplicator.h</title>
<!-- Node1 -->
<g id="Node000001" class="node">
<title>Node1</title>
<g id="a_Node000001"><a xlink:title="Defines the PatchApplicator class responsible for applying patches (moisture, resource,...">
<polygon fill="#999999" stroke="#666666" points="452,-756 270,-756 270,-704 452,-704 452,-756"/>
<text text-anchor="start" x="278" y="-744" font-family="Helvetica,sans-Serif" font-size="10.00">/home/runner/work/Weaver</text>
<text text-anchor="start" x="278" y="-733" font-family="Helvetica,sans-Serif" font-size="10.00">/Weaver/include/App/Model</text>
<text text-anchor="start" x="278" y="-722" font-family="Helvetica,sans-Serif" font-size="10.00">/IBM/Landscape/Map/TerrainCells</text>
<text text-anchor="middle" x="361" y="-711" font-family="Helvetica,sans-Serif" font-size="10.00">/PatchApplicator/PatchApplicator.h</text>
</a>
</g>
</g>
<!-- Node2 -->
<g id="Node000002" class="node">
<title>Node2</title>
<g id="a_Node000002"><a xlink:href="SpatialTreePatchApplicator_8h.html" target="_top" xlink:title="Defines the SpatialTreePatchApplicator class for applying patches in a spatial tree of terrain cells.">
<polygon fill="white" stroke="#666666" points="351,-668 177,-668 177,-605 351,-605 351,-668"/>
<text text-anchor="start" x="185" y="-656" font-family="Helvetica,sans-Serif" font-size="10.00">/home/runner/work/Weaver</text>
<text text-anchor="start" x="185" y="-645" font-family="Helvetica,sans-Serif" font-size="10.00">/Weaver/include/App/Model</text>
<text text-anchor="start" x="185" y="-634" font-family="Helvetica,sans-Serif" font-size="10.00">/IBM/Landscape/Map/SpatialTree</text>
<text text-anchor="start" x="185" y="-623" font-family="Helvetica,sans-Serif" font-size="10.00">/TerrainCells/PatchApplicator</text>
<text text-anchor="middle" x="264" y="-612" font-family="Helvetica,sans-Serif" font-size="10.00">/SpatialTreePatchApplicator.h</text>
</a>
</g>
</g>
<!-- Node1&#45;&gt;Node2 -->
<g id="edge1_Node000001_Node000002" class="edge">
<title>Node1&#45;&gt;Node2</title>
<g id="a_edge1_Node000001_Node000002"><a xlink:title=" ">
<path fill="none" stroke="#63b8ff" d="M327.08,-697C317.1,-687.59 306.22,-677.33 296.35,-668.02"/>
<polygon fill="#63b8ff" stroke="#63b8ff" points="324.82,-699.68 334.49,-704 329.62,-694.59 324.82,-699.68"/>
</a>
</g>
</g>
<!-- Node15 -->
<g id="Node000015" class="node">
<title>Node15</title>
<g id="a_Node000015"><a xlink:href="TerrainCell_8h.html" target="_top" xlink:title="Defines the TerrainCell class representing a cell in the landscape.">
<polygon fill="white" stroke="#666666" points="612.5,-662.5 435.5,-662.5 435.5,-610.5 612.5,-610.5 612.5,-662.5"/>
<text text-anchor="start" x="443.5" y="-650.5" font-family="Helvetica,sans-Serif" font-size="10.00">/home/runner/work/Weaver</text>
<text text-anchor="start" x="443.5" y="-639.5" font-family="Helvetica,sans-Serif" font-size="10.00">/Weaver/include/App/Model</text>
<text text-anchor="start" x="443.5" y="-628.5" font-family="Helvetica,sans-Serif" font-size="10.00">/IBM/Landscape/Map/TerrainCells</text>
<text text-anchor="middle" x="524" y="-617.5" font-family="Helvetica,sans-Serif" font-size="10.00">/TerrainCell.h</text>
</a>
</g>
</g>
<!-- Node1&#45;&gt;Node15 -->
<g id="edge18_Node000001_Node000015" class="edge">
<title>Node1&#45;&gt;Node15</title>
<g id="a_edge18_Node000001_Node000015"><a xlink:title=" ">
<path fill="none" stroke="#63b8ff" d="M414.34,-699.06C435.33,-687.27 459.16,-673.9 479.23,-662.63"/>
<polygon fill="#63b8ff" stroke="#63b8ff" points="412.55,-696.05 405.54,-704 415.97,-702.15 412.55,-696.05"/>
</a>
</g>
</g>
<!-- Node3 -->
<g id="Node000003" class="node">
<title>Node3</title>
<g id="a_Node000003"><a xlink:href="BranchPatchApplicator_8h.html" target="_top" xlink:title="Defines the BranchPatchApplicator class for applying patches to branch terrain cells in a spatial tre...">
<polygon fill="white" stroke="#666666" points="174,-470 0,-470 0,-407 174,-407 174,-470"/>
<text text-anchor="start" x="8" y="-458" font-family="Helvetica,sans-Serif" font-size="10.00">/home/runner/work/Weaver</text>
<text text-anchor="start" x="8" y="-447" font-family="Helvetica,sans-Serif" font-size="10.00">/Weaver/include/App/Model</text>
<text text-anchor="start" x="8" y="-436" font-family="Helvetica,sans-Serif" font-size="10.00">/IBM/Landscape/Map/SpatialTree</text>
<text text-anchor="start" x="8" y="-425" font-family="Helvetica,sans-Serif" font-size="10.00">/TerrainCells/PatchApplicator</text>
<text text-anchor="middle" x="87" y="-414" font-family="Helvetica,sans-Serif" font-size="10.00">/BranchPatchApplicator.h</text>
</a>
</g>
</g>
<!-- Node2&#45;&gt;Node3 -->
<g id="edge2_Node000002_Node000003" class="edge">
<title>Node2&#45;&gt;Node3</title>
<g id="a_edge2_Node000002_Node000003"><a xlink:title=" ">
<path fill="none" stroke="#63b8ff" d="M167.02,-615.15C141.87,-605.28 117.31,-590.65 101,-569 79.71,-540.73 79.22,-498.63 82.05,-470.17"/>
<polygon fill="#63b8ff" stroke="#63b8ff" points="166.08,-618.54 176.67,-618.71 168.5,-611.97 166.08,-618.54"/>
</a>
</g>
</g>
<!-- Node12 -->
<g id="Node000012" class="node">
<title>Node12</title>
<g id="a_Node000012"><a xlink:href="LeafPatchApplicator_8h.html" target="_top" xlink:title="Defines the LeafPatchApplicator class for applying patches to leaf terrain cells in a spatial tree.">
<polygon fill="white" stroke="#666666" points="284,-569 110,-569 110,-506 284,-506 284,-569"/>
<text text-anchor="start" x="118" y="-557" font-family="Helvetica,sans-Serif" font-size="10.00">/home/runner/work/Weaver</text>
<text text-anchor="start" x="118" y="-546" font-family="Helvetica,sans-Serif" font-size="10.00">/Weaver/include/App/Model</text>
<text text-anchor="start" x="118" y="-535" font-family="Helvetica,sans-Serif" font-size="10.00">/IBM/Landscape/Map/SpatialTree</text>
<text text-anchor="start" x="118" y="-524" font-family="Helvetica,sans-Serif" font-size="10.00">/TerrainCells/PatchApplicator</text>
<text text-anchor="middle" x="197" y="-513" font-family="Helvetica,sans-Serif" font-size="10.00">/LeafPatchApplicator.h</text>
</a>
</g>
</g>
<!-- Node2&#45;&gt;Node12 -->
<g id="edge11_Node000002_Node000012" class="edge">
<title>Node2&#45;&gt;Node12</title>
<g id="a_edge11_Node000002_Node000012"><a xlink:title=" ">
<path fill="none" stroke="#63b8ff" d="M236.97,-596.36C230.75,-587.36 224.22,-577.91 218.29,-569.32"/>
<polygon fill="#63b8ff" stroke="#63b8ff" points="234.24,-598.57 242.8,-604.81 240,-594.59 234.24,-598.57"/>
</a>
</g>
</g>
<!-- Node14 -->
<g id="Node000014" class="node">
<title>Node14</title>
<g id="a_Node000014"><a xlink:href="SpatialTreeTerrainCell_8h.html" target="_top" xlink:title="Spatial tree implementation of a terrain cell.">
<polygon fill="white" stroke="#666666" points="496,-563.5 302,-563.5 302,-511.5 496,-511.5 496,-563.5"/>
<text text-anchor="start" x="310" y="-551.5" font-family="Helvetica,sans-Serif" font-size="10.00">/home/runner/work/Weaver</text>
<text text-anchor="start" x="310" y="-540.5" font-family="Helvetica,sans-Serif" font-size="10.00">/Weaver/include/App/Model</text>
<text text-anchor="start" x="310" y="-529.5" font-family="Helvetica,sans-Serif" font-size="10.00">/IBM/Landscape/Map/SpatialTree</text>
<text text-anchor="middle" x="399" y="-518.5" font-family="Helvetica,sans-Serif" font-size="10.00">/TerrainCells/SpatialTreeTerrainCell.h</text>
</a>
</g>
</g>
<!-- Node2&#45;&gt;Node14 -->
<g id="edge14_Node000002_Node000014" class="edge">
<title>Node2&#45;&gt;Node14</title>
<g id="a_edge14_Node000002_Node000014"><a xlink:title=" ">
<path fill="none" stroke="#63b8ff" d="M315.07,-598.81C331.32,-587.13 348.93,-574.48 363.79,-563.8"/>
<polygon fill="#63b8ff" stroke="#63b8ff" points="312.79,-596.13 306.71,-604.81 316.88,-601.82 312.79,-596.13"/>
</a>
</g>
</g>
<!-- Node4 -->
<g id="Node000004" class="node">
<title>Node4</title>
<g id="a_Node000004"><a xlink:href="BranchTerrainCell_8h.html" target="_top" xlink:title="Branch node implementation of a spatial tree terrain cell.">
<polygon fill="white" stroke="#666666" points="402,-371 228,-371 228,-319 402,-319 402,-371"/>
<text text-anchor="start" x="236" y="-359" font-family="Helvetica,sans-Serif" font-size="10.00">/home/runner/work/Weaver</text>
<text text-anchor="start" x="236" y="-348" font-family="Helvetica,sans-Serif" font-size="10.00">/Weaver/include/App/Model</text>
<text text-anchor="start" x="236" y="-337" font-family="Helvetica,sans-Serif" font-size="10.00">/IBM/Landscape/Map/SpatialTree</text>
<text text-anchor="middle" x="315" y="-326" font-family="Helvetica,sans-Serif" font-size="10.00">/TerrainCells/BranchTerrainCell.h</text>
</a>
</g>
</g>
<!-- Node3&#45;&gt;Node4 -->
<g id="edge3_Node000003_Node000004" class="edge">
<title>Node3&#45;&gt;Node4</title>
<g id="a_edge3_Node000003_Node000004"><a xlink:title=" ">
<path fill="none" stroke="#63b8ff" d="M172.53,-403.18C199.07,-392.52 227.82,-380.99 252.49,-371.09"/>
<polygon fill="#63b8ff" stroke="#63b8ff" points="171.21,-399.93 163.24,-406.9 173.82,-406.43 171.21,-399.93"/>
</a>
</g>
</g>
<!-- Node5 -->
<g id="Node000005" class="node">
<title>Node5</title>
<g id="a_Node000005"><a xlink:href="RootTerrainCell_8h.html" target="_top" xlink:title="Defines the RootTerrainCell class, the top&#45;level node of the spatial tree in the landscape.">
<polygon fill="white" stroke="#666666" points="418,-283 244,-283 244,-231 418,-231 418,-283"/>
<text text-anchor="start" x="252" y="-271" font-family="Helvetica,sans-Serif" font-size="10.00">/home/runner/work/Weaver</text>
<text text-anchor="start" x="252" y="-260" font-family="Helvetica,sans-Serif" font-size="10.00">/Weaver/include/App/Model</text>
<text text-anchor="start" x="252" y="-249" font-family="Helvetica,sans-Serif" font-size="10.00">/IBM/Landscape/Map/SpatialTree</text>
<text text-anchor="middle" x="331" y="-238" font-family="Helvetica,sans-Serif" font-size="10.00">/TerrainCells/RootTerrainCell.h</text>
</a>
</g>
</g>
<!-- Node4&#45;&gt;Node5 -->
<g id="edge4_Node000004_Node000005" class="edge">
<title>Node4&#45;&gt;Node5</title>
<g id="a_edge4_Node000004_Node000005"><a xlink:title=" ">
<path fill="none" stroke="#63b8ff" d="M321.59,-308.56C323.18,-300.04 324.84,-291.1 326.32,-283.16"/>
<polygon fill="#63b8ff" stroke="#63b8ff" points="318.1,-308.19 319.71,-318.66 324.98,-309.47 318.1,-308.19"/>
</a>
</g>
</g>
<!-- Node6 -->
<g id="Node000006" class="node">
<title>Node6</title>
<g id="a_Node000006"><a xlink:href="SpatialTree_8h.html" target="_top" xlink:title="Defines the SpatialTree class, a spatially subdivided map implementation.">
<polygon fill="white" stroke="#666666" points="587.5,-195 404.5,-195 404.5,-154 587.5,-154 587.5,-195"/>
<text text-anchor="start" x="412.5" y="-183" font-family="Helvetica,sans-Serif" font-size="10.00">/home/runner/work/Weaver</text>
<text text-anchor="start" x="412.5" y="-172" font-family="Helvetica,sans-Serif" font-size="10.00">/Weaver/include/App/Model</text>
<text text-anchor="middle" x="496" y="-161" font-family="Helvetica,sans-Serif" font-size="10.00">/IBM/Landscape/Map/SpatialTree.h</text>
</a>
</g>
</g>
<!-- Node5&#45;&gt;Node6 -->
<g id="edge5_Node000005_Node000006" class="edge">
<title>Node5&#45;&gt;Node6</title>
<g id="a_edge5_Node000005_Node000006"><a xlink:title=" ">
<path fill="none" stroke="#63b8ff" d="M391.38,-226.54C412.91,-216.04 436.61,-204.48 456,-195.02"/>
<polygon fill="#63b8ff" stroke="#63b8ff" points="389.76,-223.44 382.3,-230.97 392.82,-229.73 389.76,-223.44"/>
</a>
</g>
</g>
<!-- Node7 -->
<g id="Node000007" class="node">
<title>Node7</title>
<g id="a_Node000007"><a xlink:href="Landscape_8h.html" target="_top" xlink:title="Doxygen&#45;documented declaration of the Landscape class and related serialization helpers.">
<polygon fill="white" stroke="#666666" points="694.5,-118 537.5,-118 537.5,-77 694.5,-77 694.5,-118"/>
<text text-anchor="start" x="545.5" y="-106" font-family="Helvetica,sans-Serif" font-size="10.00">/home/runner/work/Weaver</text>
<text text-anchor="start" x="545.5" y="-95" font-family="Helvetica,sans-Serif" font-size="10.00">/Weaver/include/App/Model</text>
<text text-anchor="middle" x="616" y="-84" font-family="Helvetica,sans-Serif" font-size="10.00">/IBM/Landscape/Landscape.h</text>
</a>
</g>
</g>
<!-- Node6&#45;&gt;Node7 -->
<g id="edge6_Node000006_Node000007" class="edge">
<title>Node6&#45;&gt;Node7</title>
<g id="a_edge6_Node000006_Node000007"><a xlink:title=" ">
<path fill="none" stroke="#63b8ff" d="M535.77,-148.64C551.62,-138.74 569.61,-127.5 584.52,-118.17"/>
<polygon fill="#63b8ff" stroke="#63b8ff" points="533.84,-145.72 527.22,-153.99 537.55,-151.66 533.84,-145.72"/>
</a>
</g>
</g>
<!-- Node8 -->
<g id="Node000008" class="node">
<title>Node8</title>
<g id="a_Node000008"><a xlink:href="IBM_8h.html" target="_top" xlink:title="Definition of the IBM class, representing the core individual&#45;based model of the simulation.">
<polygon fill="white" stroke="#666666" points="391.5,-41 242.5,-41 242.5,0 391.5,0 391.5,-41"/>
<text text-anchor="start" x="250.5" y="-29" font-family="Helvetica,sans-Serif" font-size="10.00">/home/runner/work/Weaver</text>
<text text-anchor="start" x="250.5" y="-18" font-family="Helvetica,sans-Serif" font-size="10.00">/Weaver/include/App/Model</text>
<text text-anchor="middle" x="317" y="-7" font-family="Helvetica,sans-Serif" font-size="10.00">/IBM/IBM.h</text>
</a>
</g>
</g>
<!-- Node7&#45;&gt;Node8 -->
<g id="edge7_Node000007_Node000008" class="edge">
<title>Node7&#45;&gt;Node8</title>
<g id="a_edge7_Node000007_Node000008"><a xlink:title=" ">
<path fill="none" stroke="#63b8ff" d="M528.52,-74.56C485.06,-63.65 433.1,-50.62 391.55,-40.2"/>
<polygon fill="#63b8ff" stroke="#63b8ff" points="527.67,-77.95 538.22,-76.99 529.37,-71.16 527.67,-77.95"/>
</a>
</g>
</g>
<!-- Node9 -->
<g id="Node000009" class="node">
<title>Node9</title>
<g id="a_Node000009"><a xlink:href="AquaticLandscape_8h.html" target="_top" xlink:title="Defines the AquaticLandscape class for aquatic ecosystem simulations.">
<polygon fill="white" stroke="#666666" points="603,-41 409,-41 409,0 603,0 603,-41"/>
<text text-anchor="start" x="417" y="-29" font-family="Helvetica,sans-Serif" font-size="10.00">/home/runner/work/Weaver</text>
<text text-anchor="start" x="417" y="-18" font-family="Helvetica,sans-Serif" font-size="10.00">/Weaver/include/App/Model</text>
<text text-anchor="middle" x="506" y="-7" font-family="Helvetica,sans-Serif" font-size="10.00">/IBM/Landscape/AquaticLandscape.h</text>
</a>
</g>
</g>
<!-- Node7&#45;&gt;Node9 -->
<g id="edge8_Node000007_Node000009" class="edge">
<title>Node7&#45;&gt;Node9</title>
<g id="a_edge8_Node000007_Node000009"><a xlink:title=" ">
<path fill="none" stroke="#63b8ff" d="M578.74,-71.09C564.4,-61.32 548.28,-50.32 534.85,-41.17"/>
<polygon fill="#63b8ff" stroke="#63b8ff" points="577.15,-74.25 587.39,-76.99 581.1,-68.47 577.15,-74.25"/>
</a>
</g>
</g>
<!-- Node10 -->
<g id="Node000010" class="node">
<title>Node10</title>
<g id="a_Node000010"><a xlink:href="ArthropodsLandscape_8h.html" target="_top" xlink:title="Defines the ArthropodsLandscape class for arthropod&#45;specific ecosystem simulations.">
<polygon fill="white" stroke="#666666" points="831,-41 621,-41 621,0 831,0 831,-41"/>
<text text-anchor="start" x="629" y="-29" font-family="Helvetica,sans-Serif" font-size="10.00">/home/runner/work/Weaver</text>
<text text-anchor="start" x="629" y="-18" font-family="Helvetica,sans-Serif" font-size="10.00">/Weaver/include/App/Model</text>
<text text-anchor="middle" x="726" y="-7" font-family="Helvetica,sans-Serif" font-size="10.00">/IBM/Landscape/ArthropodsLandscape.h</text>
</a>
</g>
</g>
<!-- Node7&#45;&gt;Node10 -->
<g id="edge9_Node000007_Node000010" class="edge">
<title>Node7&#45;&gt;Node10</title>
<g id="a_edge9_Node000007_Node000010"><a xlink:title=" ">
<path fill="none" stroke="#63b8ff" d="M653.26,-71.09C667.6,-61.32 683.72,-50.32 697.15,-41.17"/>
<polygon fill="#63b8ff" stroke="#63b8ff" points="650.9,-68.47 644.61,-76.99 654.85,-74.25 650.9,-68.47"/>
</a>
</g>
</g>
<!-- Node11 -->
<g id="Node000011" class="node">
<title>Node11</title>
<g id="a_Node000011"><a xlink:href="DinosaursLandscape_8h.html" target="_top" xlink:title="Defines the DinosaursLandscape class for dinosaur&#45;specific ecosystem simulations.">
<polygon fill="white" stroke="#666666" points="1055,-41 849,-41 849,0 1055,0 1055,-41"/>
<text text-anchor="start" x="857" y="-29" font-family="Helvetica,sans-Serif" font-size="10.00">/home/runner/work/Weaver</text>
<text text-anchor="start" x="857" y="-18" font-family="Helvetica,sans-Serif" font-size="10.00">/Weaver/include/App/Model</text>
<text text-anchor="middle" x="952" y="-7" font-family="Helvetica,sans-Serif" font-size="10.00">/IBM/Landscape/DinosaursLandscape.h</text>
</a>
</g>
</g>
<!-- Node7&#45;&gt;Node11 -->
<g id="edge10_Node000007_Node000011" class="edge">
<title>Node7&#45;&gt;Node11</title>
<g id="a_edge10_Node000007_Node000011"><a xlink:title=" ">
<path fill="none" stroke="#63b8ff" d="M704.81,-76.68C754.19,-65.66 815.4,-51.99 864.56,-41.02"/>
<polygon fill="#63b8ff" stroke="#63b8ff" points="703.77,-73.32 694.78,-78.92 705.3,-80.15 703.77,-73.32"/>
</a>
</g>
</g>
<!-- Node13 -->
<g id="Node000013" class="node">
<title>Node13</title>
<g id="a_Node000013"><a xlink:href="LeafTerrainCell_8h.html" target="_top" xlink:title="Leaf node implementation of a spatial tree terrain cell.">
<polygon fill="white" stroke="#666666" points="371,-464.5 197,-464.5 197,-412.5 371,-412.5 371,-464.5"/>
<text text-anchor="start" x="205" y="-452.5" font-family="Helvetica,sans-Serif" font-size="10.00">/home/runner/work/Weaver</text>
<text text-anchor="start" x="205" y="-441.5" font-family="Helvetica,sans-Serif" font-size="10.00">/Weaver/include/App/Model</text>
<text text-anchor="start" x="205" y="-430.5" font-family="Helvetica,sans-Serif" font-size="10.00">/IBM/Landscape/Map/SpatialTree</text>
<text text-anchor="middle" x="284" y="-419.5" font-family="Helvetica,sans-Serif" font-size="10.00">/TerrainCells/LeafTerrainCell.h</text>
</a>
</g>
</g>
<!-- Node12&#45;&gt;Node13 -->
<g id="edge12_Node000012_Node000013" class="edge">
<title>Node12&#45;&gt;Node13</title>
<g id="a_edge12_Node000012_Node000013"><a xlink:title=" ">
<path fill="none" stroke="#63b8ff" d="M231.36,-498.19C241.42,-486.97 252.17,-474.99 261.31,-464.8"/>
<polygon fill="#63b8ff" stroke="#63b8ff" points="228.6,-496.03 224.53,-505.81 233.81,-500.7 228.6,-496.03"/>
</a>
</g>
</g>
<!-- Node13&#45;&gt;Node4 -->
<g id="edge13_Node000013_Node000004" class="edge">
<title>Node13&#45;&gt;Node4</title>
<g id="a_edge13_Node000013_Node000004"><a xlink:title=" ">
<path fill="none" stroke="#63b8ff" d="M295.76,-402.79C299.31,-392.32 303.13,-381.03 306.43,-371.29"/>
<polygon fill="#63b8ff" stroke="#63b8ff" points="292.36,-401.9 292.47,-412.5 298.99,-404.15 292.36,-401.9"/>
</a>
</g>
</g>
<!-- Node14&#45;&gt;Node4 -->
<g id="edge16_Node000014_Node000004" class="edge">
<title>Node14&#45;&gt;Node4</title>
<g id="a_edge16_Node000014_Node000004"><a xlink:title=" ">
<path fill="none" stroke="#63b8ff" d="M399.98,-500.92C399.31,-473.76 395.23,-436.16 380,-407 372.83,-393.28 361.35,-380.97 350.01,-371.07"/>
<polygon fill="#63b8ff" stroke="#63b8ff" points="396.49,-501.18 400.09,-511.14 403.49,-501.11 396.49,-501.18"/>
</a>
</g>
</g>
<!-- Node14&#45;&gt;Node6 -->
<g id="edge15_Node000014_Node000006" class="edge">
<title>Node14&#45;&gt;Node6</title>
<g id="a_edge15_Node000014_Node000006"><a xlink:title=" ">
<path fill="none" stroke="#63b8ff" d="M408.39,-501.55C428.44,-426.94 474.88,-254.1 490.65,-195.41"/>
<polygon fill="#63b8ff" stroke="#63b8ff" points="404.96,-500.84 405.74,-511.4 411.72,-502.65 404.96,-500.84"/>
</a>
</g>
</g>
<!-- Node14&#45;&gt;Node13 -->
<g id="edge17_Node000014_Node000013" class="edge">
<title>Node14&#45;&gt;Node13</title>
<g id="a_edge17_Node000014_Node000013"><a xlink:title=" ">
<path fill="none" stroke="#63b8ff" d="M361.25,-504.66C345.83,-491.65 328.25,-476.83 313.76,-464.61"/>
<polygon fill="#63b8ff" stroke="#63b8ff" points="359.18,-507.5 369.09,-511.27 363.7,-502.14 359.18,-507.5"/>
</a>
</g>
</g>
<!-- Node15&#45;&gt;Node6 -->
<g id="edge23_Node000015_Node000006" class="edge">
<title>Node15&#45;&gt;Node6</title>
<g id="a_edge23_Node000015_Node000006"><a xlink:title=" ">
<path fill="none" stroke="#63b8ff" d="M521.86,-600.32C516.3,-508.93 501.52,-266.19 497.2,-195.24"/>
<polygon fill="#63b8ff" stroke="#63b8ff" points="518.37,-600.67 522.47,-610.44 525.36,-600.25 518.37,-600.67"/>
</a>
</g>
</g>
<!-- Node15&#45;&gt;Node7 -->
<g id="edge19_Node000015_Node000007" class="edge">
<title>Node15&#45;&gt;Node7</title>
<g id="a_edge19_Node000015_Node000007"><a xlink:title=" ">
<path fill="none" stroke="#63b8ff" d="M583.56,-604.99C638.3,-572.22 711,-514.57 711,-439.5 711,-439.5 711,-439.5 711,-256 711,-199.48 665.59,-145.82 637.56,-118.09"/>
<polygon fill="#63b8ff" stroke="#63b8ff" points="581.47,-602.16 574.6,-610.23 585,-608.21 581.47,-602.16"/>
</a>
</g>
</g>
<!-- Node15&#45;&gt;Node14 -->
<g id="edge24_Node000015_Node000014" class="edge">
<title>Node15&#45;&gt;Node14</title>
<g id="a_edge24_Node000015_Node000014"><a xlink:title=" ">
<path fill="none" stroke="#63b8ff" d="M483.42,-604.01C466.55,-590.92 447.24,-575.94 431.35,-563.61"/>
<polygon fill="#63b8ff" stroke="#63b8ff" points="481.44,-606.9 491.48,-610.27 485.73,-601.37 481.44,-606.9"/>
</a>
</g>
</g>
<!-- Node16 -->
<g id="Node000016" class="node">
<title>Node16</title>
<g id="a_Node000016"><a xlink:href="Map_8h.html" target="_top" xlink:title="Defines the Map class for spatial organization of landscapes.">
<polygon fill="white" stroke="#666666" points="683,-277.5 533,-277.5 533,-236.5 683,-236.5 683,-277.5"/>
<text text-anchor="start" x="541" y="-265.5" font-family="Helvetica,sans-Serif" font-size="10.00">/home/runner/work/Weaver</text>
<text text-anchor="start" x="541" y="-254.5" font-family="Helvetica,sans-Serif" font-size="10.00">/Weaver/include/App/Model</text>
<text text-anchor="middle" x="608" y="-243.5" font-family="Helvetica,sans-Serif" font-size="10.00">/IBM/Landscape/Map/Map.h</text>
</a>
</g>
</g>
<!-- Node15&#45;&gt;Node16 -->
<g id="edge20_Node000015_Node000016" class="edge">
<title>Node15&#45;&gt;Node16</title>
<g id="a_edge20_Node000015_Node000016"><a xlink:title=" ">
<path fill="none" stroke="#63b8ff" d="M531.75,-600.66C549.01,-523.11 590.13,-338.31 603.63,-277.66"/>
<polygon fill="#63b8ff" stroke="#63b8ff" points="528.33,-599.92 529.58,-610.44 535.17,-601.44 528.33,-599.92"/>
</a>
</g>
</g>
<!-- Node16&#45;&gt;Node6 -->
<g id="edge22_Node000016_Node000006" class="edge">
<title>Node16&#45;&gt;Node6</title>
<g id="a_edge22_Node000016_Node000006"><a xlink:title=" ">
<path fill="none" stroke="#63b8ff" d="M572.14,-230.22C556.38,-218.9 538.16,-205.81 523.5,-195.27"/>
<polygon fill="#63b8ff" stroke="#63b8ff" points="570.44,-233.31 580.6,-236.31 574.52,-227.63 570.44,-233.31"/>
</a>
</g>
</g>
<!-- Node16&#45;&gt;Node7 -->
<g id="edge21_Node000016_Node000007" class="edge">
<title>Node16&#45;&gt;Node7</title>
<g id="a_edge21_Node000016_Node000007"><a xlink:title=" ">
<path fill="none" stroke="#63b8ff" d="M609.53,-225.97C611.13,-194.37 613.61,-145.51 614.99,-118.38"/>
<polygon fill="#63b8ff" stroke="#63b8ff" points="606.01,-226.21 609,-236.37 613,-226.56 606.01,-226.21"/>
</a>
</g>
</g>
</g>
</svg>
