<?xml version="1.0" encoding="UTF-8" standalone="no"?>
<!DOCTYPE svg PUBLIC "-//W3C//DTD SVG 1.1//EN"
 "http://www.w3.org/Graphics/SVG/1.1/DTD/svg11.dtd">
<!-- Generated by graphviz version 2.43.0 (0)
 -->
<!-- Title: /home/runner/work/Weaver/Weaver/include/App/Model/IBM/Landscape/Map/Points/PointMap.h Pages: 1 -->
<svg width="1276pt" height="181pt"
 viewBox="0.00 0.00 1276.20 181.00" xmlns="http://www.w3.org/2000/svg" xmlns:xlink="http://www.w3.org/1999/xlink">
<g id="graph0" class="graph" transform="scale(1 1) rotate(0) translate(4 177)">
<title>/home/runner/work/Weaver/Weaver/include/App/Model/IBM/Landscape/Map/Points/PointMap.h</title>
<!-- Node1 -->
<g id="Node000001" class="node">
<title>Node1</title>
<g id="a_Node000001"><a xlink:title="Defines the PointMap class for discrete points in a Map.">
<polygon fill="#999999" stroke="#666666" points="548.7,-173 398.7,-173 398.7,-121 548.7,-121 548.7,-173"/>
<text text-anchor="start" x="406.7" y="-161" font-family="Helvetica,sans-Serif" font-size="10.00">/home/runner/work/Weaver</text>
<text text-anchor="start" x="406.7" y="-150" font-family="Helvetica,sans-Serif" font-size="10.00">/Weaver/include/App/Model</text>
<text text-anchor="start" x="406.7" y="-139" font-family="Helvetica,sans-Serif" font-size="10.00">/IBM/Landscape/Map/Points</text>
<text text-anchor="middle" x="473.7" y="-128" font-family="Helvetica,sans-Serif" font-size="10.00">/PointMap.h</text>
</a>
</g>
</g>
<!-- Node2 -->
<g id="Node000002" class="node">
<title>Node2</title>
<g id="a_Node000002"><a xlink:title=" ">
<polygon fill="#e0e0e0" stroke="#999999" points="571.7,-19 527.7,-19 527.7,0 571.7,0 571.7,-19"/>
<text text-anchor="middle" x="549.7" y="-7" font-family="Helvetica,sans-Serif" font-size="10.00">string</text>
</a>
</g>
</g>
<!-- Node1&#45;&gt;Node2 -->
<g id="edge1_Node000001_Node000002" class="edge">
<title>Node1&#45;&gt;Node2</title>
<g id="a_edge1_Node000001_Node000002"><a xlink:title=" ">
<path fill="none" stroke="#63b8ff" d="M398.22,-141.52C272.67,-133.29 32.09,-113.92 6.7,-85 -2.09,-74.98 -2.33,-64.81 6.7,-55 41.36,-17.39 405.09,-11.57 517.07,-10.66"/>
<polygon fill="#63b8ff" stroke="#63b8ff" points="517.43,-14.16 527.4,-10.59 517.38,-7.16 517.43,-14.16"/>
</a>
</g>
</g>
<!-- Node3 -->
<g id="Node000003" class="node">
<title>Node3</title>
<g id="a_Node000003"><a xlink:title=" ">
<polygon fill="#e0e0e0" stroke="#999999" points="183.2,-79.5 16.2,-79.5 16.2,-60.5 183.2,-60.5 183.2,-79.5"/>
<text text-anchor="middle" x="99.7" y="-67.5" font-family="Helvetica,sans-Serif" font-size="10.00">magic_enum/magic_enum.hpp</text>
</a>
</g>
</g>
<!-- Node1&#45;&gt;Node3 -->
<g id="edge2_Node000001_Node000003" class="edge">
<title>Node1&#45;&gt;Node3</title>
<g id="a_edge2_Node000001_Node000003"><a xlink:title=" ">
<path fill="none" stroke="#63b8ff" d="M398.47,-130.91C325.37,-116.25 216.29,-94.38 152.14,-81.52"/>
<polygon fill="#63b8ff" stroke="#63b8ff" points="152.73,-78.06 142.24,-79.53 151.36,-84.93 152.73,-78.06"/>
</a>
</g>
</g>
<!-- Node4 -->
<g id="Node000004" class="node">
<title>Node4</title>
<g id="a_Node000004"><a xlink:title=" ">
<polygon fill="#e0e0e0" stroke="#999999" points="248.2,-79.5 201.2,-79.5 201.2,-60.5 248.2,-60.5 248.2,-79.5"/>
<text text-anchor="middle" x="224.7" y="-67.5" font-family="Helvetica,sans-Serif" font-size="10.00">vector</text>
</a>
</g>
</g>
<!-- Node1&#45;&gt;Node4 -->
<g id="edge3_Node000001_Node000004" class="edge">
<title>Node1&#45;&gt;Node4</title>
<g id="a_edge3_Node000001_Node000004"><a xlink:title=" ">
<path fill="none" stroke="#63b8ff" d="M398.5,-127.26C356.65,-116.2 303.83,-101.23 257.7,-85 256.27,-84.5 254.81,-83.96 253.35,-83.41"/>
<polygon fill="#63b8ff" stroke="#63b8ff" points="254.32,-80.03 243.74,-79.56 251.72,-86.52 254.32,-80.03"/>
</a>
</g>
</g>
<!-- Node5 -->
<g id="Node000005" class="node">
<title>Node5</title>
<g id="a_Node000005"><a xlink:title=" ">
<polygon fill="#e0e0e0" stroke="#999999" points="326.7,-79.5 266.7,-79.5 266.7,-60.5 326.7,-60.5 326.7,-79.5"/>
<text text-anchor="middle" x="296.7" y="-67.5" font-family="Helvetica,sans-Serif" font-size="10.00">iostream</text>
</a>
</g>
</g>
<!-- Node1&#45;&gt;Node5 -->
<g id="edge4_Node000001_Node000005" class="edge">
<title>Node1&#45;&gt;Node5</title>
<g id="a_edge4_Node000001_Node000005"><a xlink:title=" ">
<path fill="none" stroke="#63b8ff" d="M414.27,-120.82C384.61,-108.25 350.05,-93.61 326.12,-83.46"/>
<polygon fill="#63b8ff" stroke="#63b8ff" points="327.44,-80.22 316.87,-79.54 324.71,-86.67 327.44,-80.22"/>
</a>
</g>
</g>
<!-- Node6 -->
<g id="Node000006" class="node">
<title>Node6</title>
<g id="a_Node000006"><a xlink:title=" ">
<polygon fill="#e0e0e0" stroke="#999999" points="402.7,-79.5 344.7,-79.5 344.7,-60.5 402.7,-60.5 402.7,-79.5"/>
<text text-anchor="middle" x="373.7" y="-67.5" font-family="Helvetica,sans-Serif" font-size="10.00">memory</text>
</a>
</g>
</g>
<!-- Node1&#45;&gt;Node6 -->
<g id="edge5_Node000001_Node000006" class="edge">
<title>Node1&#45;&gt;Node6</title>
<g id="a_edge5_Node000001_Node000006"><a xlink:title=" ">
<path fill="none" stroke="#63b8ff" d="M440.12,-120.82C424.49,-109.09 406.44,-95.55 393.1,-85.55"/>
<polygon fill="#63b8ff" stroke="#63b8ff" points="395.19,-82.74 385.09,-79.54 390.99,-88.34 395.19,-82.74"/>
</a>
</g>
</g>
<!-- Node7 -->
<g id="Node000007" class="node">
<title>Node7</title>
<g id="a_Node000007"><a xlink:title=" ">
<polygon fill="#e0e0e0" stroke="#999999" points="526.2,-85 421.2,-85 421.2,-55 526.2,-55 526.2,-85"/>
<text text-anchor="start" x="429.2" y="-73" font-family="Helvetica,sans-Serif" font-size="10.00">boost/archive/text</text>
<text text-anchor="middle" x="473.7" y="-62" font-family="Helvetica,sans-Serif" font-size="10.00">_iarchive.hpp</text>
</a>
</g>
</g>
<!-- Node1&#45;&gt;Node7 -->
<g id="edge6_Node000001_Node000007" class="edge">
<title>Node1&#45;&gt;Node7</title>
<g id="a_edge6_Node000001_Node000007"><a xlink:title=" ">
<path fill="none" stroke="#63b8ff" d="M473.7,-120.61C473.7,-112.54 473.7,-103.64 473.7,-95.63"/>
<polygon fill="#63b8ff" stroke="#63b8ff" points="477.2,-95.43 473.7,-85.43 470.2,-95.43 477.2,-95.43"/>
</a>
</g>
</g>
<!-- Node8 -->
<g id="Node000008" class="node">
<title>Node8</title>
<g id="a_Node000008"><a xlink:title=" ">
<polygon fill="#e0e0e0" stroke="#999999" points="649.2,-85 544.2,-85 544.2,-55 649.2,-55 649.2,-85"/>
<text text-anchor="start" x="552.2" y="-73" font-family="Helvetica,sans-Serif" font-size="10.00">boost/archive/text</text>
<text text-anchor="middle" x="596.7" y="-62" font-family="Helvetica,sans-Serif" font-size="10.00">_oarchive.hpp</text>
</a>
</g>
</g>
<!-- Node1&#45;&gt;Node8 -->
<g id="edge7_Node000001_Node000008" class="edge">
<title>Node1&#45;&gt;Node8</title>
<g id="a_edge7_Node000001_Node000008"><a xlink:title=" ">
<path fill="none" stroke="#63b8ff" d="M515,-120.82C531.34,-110.86 549.81,-99.59 565.05,-90.3"/>
<polygon fill="#63b8ff" stroke="#63b8ff" points="566.9,-93.27 573.62,-85.08 563.26,-87.29 566.9,-93.27"/>
</a>
</g>
</g>
<!-- Node9 -->
<g id="Node000009" class="node">
<title>Node9</title>
<g id="a_Node000009"><a xlink:title=" ">
<polygon fill="#e0e0e0" stroke="#999999" points="783.7,-85 667.7,-85 667.7,-55 783.7,-55 783.7,-85"/>
<text text-anchor="start" x="675.7" y="-73" font-family="Helvetica,sans-Serif" font-size="10.00">boost/archive/binary</text>
<text text-anchor="middle" x="725.7" y="-62" font-family="Helvetica,sans-Serif" font-size="10.00">_iarchive.hpp</text>
</a>
</g>
</g>
<!-- Node1&#45;&gt;Node9 -->
<g id="edge8_Node000001_Node000009" class="edge">
<title>Node1&#45;&gt;Node9</title>
<g id="a_edge8_Node000001_Node000009"><a xlink:title=" ">
<path fill="none" stroke="#63b8ff" d="M548.97,-123.6C587.41,-112.16 633.42,-98.46 668.86,-87.92"/>
<polygon fill="#63b8ff" stroke="#63b8ff" points="669.97,-91.24 678.56,-85.03 667.97,-84.53 669.97,-91.24"/>
</a>
</g>
</g>
<!-- Node10 -->
<g id="Node000010" class="node">
<title>Node10</title>
<g id="a_Node000010"><a xlink:title=" ">
<polygon fill="#e0e0e0" stroke="#999999" points="917.7,-85 801.7,-85 801.7,-55 917.7,-55 917.7,-85"/>
<text text-anchor="start" x="809.7" y="-73" font-family="Helvetica,sans-Serif" font-size="10.00">boost/archive/binary</text>
<text text-anchor="middle" x="859.7" y="-62" font-family="Helvetica,sans-Serif" font-size="10.00">_oarchive.hpp</text>
</a>
</g>
</g>
<!-- Node1&#45;&gt;Node10 -->
<g id="edge9_Node000001_Node000010" class="edge">
<title>Node1&#45;&gt;Node10</title>
<g id="a_edge9_Node000001_Node000010"><a xlink:title=" ">
<path fill="none" stroke="#63b8ff" d="M548.86,-132C611.21,-120.3 702.47,-102.98 791.6,-85.2"/>
<polygon fill="#63b8ff" stroke="#63b8ff" points="792.49,-88.59 801.61,-83.2 791.12,-81.73 792.49,-88.59"/>
</a>
</g>
</g>
<!-- Node11 -->
<g id="Node000011" class="node">
<title>Node11</title>
<g id="a_Node000011"><a xlink:href="Axis_8h.html" target="_top" xlink:title="Defines the Axis enum for 3D spatial directions.">
<polygon fill="white" stroke="#666666" points="1081.2,-85 936.2,-85 936.2,-55 1081.2,-55 1081.2,-85"/>
<text text-anchor="start" x="944.2" y="-73" font-family="Helvetica,sans-Serif" font-size="10.00">App/Model/IBM/Landscape</text>
<text text-anchor="middle" x="1008.7" y="-62" font-family="Helvetica,sans-Serif" font-size="10.00">/Map/Points/Axis.h</text>
</a>
</g>
</g>
<!-- Node1&#45;&gt;Node11 -->
<g id="edge10_Node000001_Node000011" class="edge">
<title>Node1&#45;&gt;Node11</title>
<g id="a_edge10_Node000001_Node000011"><a xlink:title=" ">
<path fill="none" stroke="#63b8ff" d="M548.76,-136.72C636.6,-125.66 786.69,-106.21 925.85,-85.1"/>
<polygon fill="#63b8ff" stroke="#63b8ff" points="926.49,-88.54 935.85,-83.58 925.43,-81.62 926.49,-88.54"/>
</a>
</g>
</g>
<!-- Node12 -->
<g id="Node000012" class="node">
<title>Node12</title>
<g id="a_Node000012"><a xlink:href="LineInfoException_8h.html" target="_top" xlink:title="Exception class with detailed file and line information for error reporting.">
<polygon fill="white" stroke="#666666" points="1268.2,-79.5 1099.2,-79.5 1099.2,-60.5 1268.2,-60.5 1268.2,-79.5"/>
<text text-anchor="middle" x="1183.7" y="-67.5" font-family="Helvetica,sans-Serif" font-size="10.00">Exceptions/LineInfoException.h</text>
</a>
</g>
</g>
<!-- Node1&#45;&gt;Node12 -->
<g id="edge11_Node000001_Node000012" class="edge">
<title>Node1&#45;&gt;Node12</title>
<g id="a_edge11_Node000001_Node000012"><a xlink:title=" ">
<path fill="none" stroke="#63b8ff" d="M548.74,-139.77C664.88,-129.85 895.06,-109.12 1089.7,-85 1099.4,-83.8 1109.65,-82.4 1119.67,-80.97"/>
<polygon fill="#63b8ff" stroke="#63b8ff" points="1120.19,-84.43 1129.58,-79.52 1119.18,-77.5 1120.19,-84.43"/>
</a>
</g>
</g>
<!-- Node12&#45;&gt;Node2 -->
<g id="edge13_Node000012_Node000002" class="edge">
<title>Node12&#45;&gt;Node2</title>
<g id="a_edge13_Node000012_Node000002"><a xlink:title=" ">
<path fill="none" stroke="#63b8ff" d="M1130.59,-60.47C1117.26,-58.5 1102.98,-56.53 1089.7,-55 897.68,-32.81 665.99,-17.57 582.04,-12.42"/>
<polygon fill="#63b8ff" stroke="#63b8ff" points="582.06,-8.92 571.87,-11.8 581.64,-15.9 582.06,-8.92"/>
</a>
</g>
</g>
<!-- Node13 -->
<g id="Node000013" class="node">
<title>Node13</title>
<g id="a_Node000013"><a xlink:title=" ">
<polygon fill="#e0e0e0" stroke="#999999" points="1216.2,-19 1151.2,-19 1151.2,0 1216.2,0 1216.2,-19"/>
<text text-anchor="middle" x="1183.7" y="-7" font-family="Helvetica,sans-Serif" font-size="10.00">exception</text>
</a>
</g>
</g>
<!-- Node12&#45;&gt;Node13 -->
<g id="edge12_Node000012_Node000013" class="edge">
<title>Node12&#45;&gt;Node13</title>
<g id="a_edge12_Node000012_Node000013"><a xlink:title=" ">
<path fill="none" stroke="#63b8ff" d="M1183.7,-60.37C1183.7,-52.25 1183.7,-39.81 1183.7,-29.39"/>
<polygon fill="#63b8ff" stroke="#63b8ff" points="1187.2,-29.17 1183.7,-19.17 1180.2,-29.17 1187.2,-29.17"/>
</a>
</g>
</g>
</g>
</svg>
