<?xml version="1.0" encoding="UTF-8" standalone="no"?>
<!DOCTYPE svg PUBLIC "-//W3C//DTD SVG 1.1//EN"
 "http://www.w3.org/Graphics/SVG/1.1/DTD/svg11.dtd">
<!-- Generated by graphviz version 2.43.0 (0)
 -->
<!-- Title: /home/runner/work/Weaver/Weaver/include/App/Model/IBM/Landscape/LivingBeings/Animals/Species/Growth/AnimalSpeciesGrowth.h Pages: 1 -->
<svg width="2352pt" height="379pt"
 viewBox="0.00 0.00 2351.50 379.00" xmlns="http://www.w3.org/2000/svg" xmlns:xlink="http://www.w3.org/1999/xlink">
<g id="graph0" class="graph" transform="scale(1 1) rotate(0) translate(4 375)">
<title>/home/runner/work/Weaver/Weaver/include/App/Model/IBM/Landscape/LivingBeings/Animals/Species/Growth/AnimalSpeciesGrowth.h</title>
<!-- Node1 -->
<g id="Node000001" class="node">
<title>Node1</title>
<g id="a_Node000001"><a xlink:title="Defines growth, maturation, reproduction, and developmental dynamics for animal species.">
<polygon fill="#999999" stroke="#666666" points="1184.5,-371 971.5,-371 971.5,-308 1184.5,-308 1184.5,-371"/>
<text text-anchor="start" x="979.5" y="-359" font-family="Helvetica,sans-Serif" font-size="10.00">/home/runner/work/Weaver</text>
<text text-anchor="start" x="979.5" y="-348" font-family="Helvetica,sans-Serif" font-size="10.00">/Weaver/include/App/Model</text>
<text text-anchor="start" x="979.5" y="-337" font-family="Helvetica,sans-Serif" font-size="10.00">/IBM/Landscape/LivingBeings</text>
<text text-anchor="start" x="979.5" y="-326" font-family="Helvetica,sans-Serif" font-size="10.00">/Animals/Species/Growth/AnimalSpecies</text>
<text text-anchor="middle" x="1078" y="-315" font-family="Helvetica,sans-Serif" font-size="10.00">Growth.h</text>
</a>
</g>
</g>
<!-- Node2 -->
<g id="Node000002" class="node">
<title>Node2</title>
<g id="a_Node000002"><a xlink:title=" ">
<polygon fill="#e0e0e0" stroke="#999999" points="110,-255.5 0,-255.5 0,-236.5 110,-236.5 110,-255.5"/>
<text text-anchor="middle" x="55" y="-243.5" font-family="Helvetica,sans-Serif" font-size="10.00">nlohmann/json.hpp</text>
</a>
</g>
</g>
<!-- Node1&#45;&gt;Node2 -->
<g id="edge1_Node000001_Node000002" class="edge">
<title>Node1&#45;&gt;Node2</title>
<g id="a_edge1_Node000001_Node000002"><a xlink:title=" ">
<path fill="none" stroke="#63b8ff" d="M971.17,-334.79C757.23,-326.75 283.08,-305.67 124,-272 110.46,-269.13 96,-264.2 83.82,-259.47"/>
<polygon fill="#63b8ff" stroke="#63b8ff" points="84.79,-256.09 74.21,-255.59 82.17,-262.58 84.79,-256.09"/>
</a>
</g>
</g>
<!-- Node3 -->
<g id="Node000003" class="node">
<title>Node3</title>
<g id="a_Node000003"><a xlink:title=" ">
<polygon fill="#e0e0e0" stroke="#999999" points="199.5,-24.5 152.5,-24.5 152.5,-5.5 199.5,-5.5 199.5,-24.5"/>
<text text-anchor="middle" x="176" y="-12.5" font-family="Helvetica,sans-Serif" font-size="10.00">vector</text>
</a>
</g>
</g>
<!-- Node1&#45;&gt;Node3 -->
<g id="edge2_Node000001_Node000003" class="edge">
<title>Node1&#45;&gt;Node3</title>
<g id="a_edge2_Node000001_Node000003"><a xlink:title=" ">
<path fill="none" stroke="#63b8ff" d="M971.27,-330.87C873.08,-322.18 724.01,-304.71 598,-272 401.88,-221.09 287.45,-274.21 173,-107 158.31,-85.54 163.74,-54.07 169.5,-34.33"/>
<polygon fill="#63b8ff" stroke="#63b8ff" points="172.86,-35.3 172.6,-24.71 166.2,-33.15 172.86,-35.3"/>
</a>
</g>
</g>
<!-- Node4 -->
<g id="Node000004" class="node">
<title>Node4</title>
<g id="a_Node000004"><a xlink:title=" ">
<polygon fill="#e0e0e0" stroke="#999999" points="2084.5,-261 1977.5,-261 1977.5,-231 2084.5,-231 2084.5,-261"/>
<text text-anchor="start" x="1985.5" y="-249" font-family="Helvetica,sans-Serif" font-size="10.00">boost/serialization</text>
<text text-anchor="middle" x="2031" y="-238" font-family="Helvetica,sans-Serif" font-size="10.00">/export.hpp</text>
</a>
</g>
</g>
<!-- Node1&#45;&gt;Node4 -->
<g id="edge3_Node000001_Node000004" class="edge">
<title>Node1&#45;&gt;Node4</title>
<g id="a_edge3_Node000001_Node000004"><a xlink:title=" ">
<path fill="none" stroke="#63b8ff" d="M1184.86,-334.65C1388.02,-326.65 1822.74,-306.07 1969,-272 1976.54,-270.24 1984.37,-267.7 1991.82,-264.91"/>
<polygon fill="#63b8ff" stroke="#63b8ff" points="1993.33,-268.07 2001.33,-261.13 1990.75,-261.56 1993.33,-268.07"/>
</a>
</g>
</g>
<!-- Node5 -->
<g id="Node000005" class="node">
<title>Node5</title>
<g id="a_Node000005"><a xlink:title=" ">
<polygon fill="#e0e0e0" stroke="#999999" points="2209.5,-261 2102.5,-261 2102.5,-231 2209.5,-231 2209.5,-261"/>
<text text-anchor="start" x="2110.5" y="-249" font-family="Helvetica,sans-Serif" font-size="10.00">boost/serialization</text>
<text text-anchor="middle" x="2156" y="-238" font-family="Helvetica,sans-Serif" font-size="10.00">/utility.hpp</text>
</a>
</g>
</g>
<!-- Node1&#45;&gt;Node5 -->
<g id="edge4_Node000001_Node000005" class="edge">
<title>Node1&#45;&gt;Node5</title>
<g id="a_edge4_Node000001_Node000005"><a xlink:title=" ">
<path fill="none" stroke="#63b8ff" d="M1184.55,-335.8C1408.91,-329.42 1923.39,-310.93 2094,-272 2101.72,-270.24 2109.72,-267.64 2117.32,-264.78"/>
<polygon fill="#63b8ff" stroke="#63b8ff" points="2118.67,-268.01 2126.66,-261.05 2116.08,-261.51 2118.67,-268.01"/>
</a>
</g>
</g>
<!-- Node6 -->
<g id="Node000006" class="node">
<title>Node6</title>
<g id="a_Node000006"><a xlink:href="IndividualGrowthModel_8h.html" target="_top" xlink:title="Defines the IndividualGrowthModel class, an abstract base class for modeling individual animal growth...">
<polygon fill="white" stroke="#666666" points="1165,-272 991,-272 991,-220 1165,-220 1165,-272"/>
<text text-anchor="start" x="999" y="-260" font-family="Helvetica,sans-Serif" font-size="10.00">App/Model/IBM/Landscape</text>
<text text-anchor="start" x="999" y="-249" font-family="Helvetica,sans-Serif" font-size="10.00">/LivingBeings/Animals</text>
<text text-anchor="start" x="999" y="-238" font-family="Helvetica,sans-Serif" font-size="10.00">/Growth/Model/IndividualGrowth</text>
<text text-anchor="middle" x="1078" y="-227" font-family="Helvetica,sans-Serif" font-size="10.00">Model.h</text>
</a>
</g>
</g>
<!-- Node1&#45;&gt;Node6 -->
<g id="edge5_Node000001_Node000006" class="edge">
<title>Node1&#45;&gt;Node6</title>
<g id="a_edge5_Node000001_Node000006"><a xlink:title=" ">
<path fill="none" stroke="#63b8ff" d="M1078,-307.78C1078,-299.51 1078,-290.51 1078,-282.02"/>
<polygon fill="#63b8ff" stroke="#63b8ff" points="1081.5,-282.02 1078,-272.02 1074.5,-282.02 1081.5,-282.02"/>
</a>
</g>
</g>
<!-- Node15 -->
<g id="Node000015" class="node">
<title>Node15</title>
<g id="a_Node000015"><a xlink:href="StructuralUnits_8h.html" target="_top" xlink:title="Defines physical units used in the simulation: DryMass, WetMass, and Length.">
<polygon fill="white" stroke="#666666" points="1020.5,-178.5 853.5,-178.5 853.5,-148.5 1020.5,-148.5 1020.5,-178.5"/>
<text text-anchor="start" x="861.5" y="-166.5" font-family="Helvetica,sans-Serif" font-size="10.00">App/Model/IBM/Landscape</text>
<text text-anchor="middle" x="937" y="-155.5" font-family="Helvetica,sans-Serif" font-size="10.00">/LivingBeings/StructuralUnits.h</text>
</a>
</g>
</g>
<!-- Node1&#45;&gt;Node15 -->
<g id="edge65_Node000001_Node000015" class="edge">
<title>Node1&#45;&gt;Node15</title>
<g id="a_edge65_Node000001_Node000015"><a xlink:title=" ">
<path fill="none" stroke="#63b8ff" d="M1022.24,-307.74C1007.74,-297.78 993.1,-285.71 982,-272 961.79,-247.05 949.35,-211.72 942.8,-188.47"/>
<polygon fill="#63b8ff" stroke="#63b8ff" points="946.16,-187.48 940.21,-178.72 939.4,-189.28 946.16,-187.48"/>
</a>
</g>
</g>
<!-- Node23 -->
<g id="Node000023" class="node">
<title>Node23</title>
<g id="a_Node000023"><a xlink:href="TimeUnits_8h.html" target="_top" xlink:title="Defines the TimeStep and Day classes for representing simulation time units.">
<polygon fill="white" stroke="#666666" points="1297.5,-178.5 1152.5,-178.5 1152.5,-148.5 1297.5,-148.5 1297.5,-178.5"/>
<text text-anchor="start" x="1160.5" y="-166.5" font-family="Helvetica,sans-Serif" font-size="10.00">App/Model/IBM/Landscape</text>
<text text-anchor="middle" x="1225" y="-155.5" font-family="Helvetica,sans-Serif" font-size="10.00">/LivingBeings/TimeUnits.h</text>
</a>
</g>
</g>
<!-- Node1&#45;&gt;Node23 -->
<g id="edge66_Node000001_Node000023" class="edge">
<title>Node1&#45;&gt;Node23</title>
<g id="a_edge66_Node000001_Node000023"><a xlink:title=" ">
<path fill="none" stroke="#63b8ff" d="M1132.85,-307.74C1147.5,-297.71 1162.45,-285.6 1174,-272 1195.22,-247.01 1209.73,-211.69 1217.69,-188.46"/>
<polygon fill="#63b8ff" stroke="#63b8ff" points="1221.1,-189.3 1220.89,-178.71 1214.45,-187.12 1221.1,-189.3"/>
</a>
</g>
</g>
<!-- Node24 -->
<g id="Node000024" class="node">
<title>Node24</title>
<g id="a_Node000024"><a xlink:href="EnumClass_8h.html" target="_top" xlink:title="Template helper class for working with strongly&#45;typed enums.">
<polygon fill="white" stroke="#666666" points="1959.5,-255.5 1854.5,-255.5 1854.5,-236.5 1959.5,-236.5 1959.5,-255.5"/>
<text text-anchor="middle" x="1907" y="-243.5" font-family="Helvetica,sans-Serif" font-size="10.00">Misc/EnumClass.h</text>
</a>
</g>
</g>
<!-- Node1&#45;&gt;Node24 -->
<g id="edge40_Node000001_Node000024" class="edge">
<title>Node1&#45;&gt;Node24</title>
<g id="a_edge40_Node000001_Node000024"><a xlink:title=" ">
<path fill="none" stroke="#63b8ff" d="M1184.68,-326.73C1359.81,-307.4 1702.9,-269.53 1844.05,-253.95"/>
<polygon fill="#63b8ff" stroke="#63b8ff" points="1844.7,-257.4 1854.26,-252.82 1843.93,-250.44 1844.7,-257.4"/>
</a>
</g>
</g>
<!-- Node28 -->
<g id="Node000028" class="node">
<title>Node28</title>
<g id="a_Node000028"><a xlink:href="CustomIndexedVector_8h.html" target="_top" xlink:title="Template class providing a vector indexed by a custom type with bounds checking and Boost....">
<polygon fill="white" stroke="#666666" points="361.5,-96 204.5,-96 204.5,-77 361.5,-77 361.5,-96"/>
<text text-anchor="middle" x="283" y="-84" font-family="Helvetica,sans-Serif" font-size="10.00">Misc/CustomIndexedVector.h</text>
</a>
</g>
</g>
<!-- Node1&#45;&gt;Node28 -->
<g id="edge46_Node000001_Node000028" class="edge">
<title>Node1&#45;&gt;Node28</title>
<g id="a_edge46_Node000001_Node000028"><a xlink:title=" ">
<path fill="none" stroke="#63b8ff" d="M971.29,-320.79C907.4,-309.17 824.9,-292.36 753,-272 643.29,-240.93 618.13,-225.71 512,-184 439.36,-155.45 355.03,-119.06 311.8,-100.17"/>
<polygon fill="#63b8ff" stroke="#63b8ff" points="313.04,-96.89 302.47,-96.08 310.23,-103.3 313.04,-96.89"/>
</a>
</g>
</g>
<!-- Node30 -->
<g id="Node000030" class="node">
<title>Node30</title>
<g id="a_Node000030"><a xlink:href="SpeciesGrowth_8h.html" target="_top" xlink:title="Defines the SpeciesGrowth class representing the growth characteristics of a species.">
<polygon fill="white" stroke="#666666" points="677.5,-184 532.5,-184 532.5,-143 677.5,-143 677.5,-184"/>
<text text-anchor="start" x="540.5" y="-172" font-family="Helvetica,sans-Serif" font-size="10.00">App/Model/IBM/Landscape</text>
<text text-anchor="start" x="540.5" y="-161" font-family="Helvetica,sans-Serif" font-size="10.00">/LivingBeings/Species</text>
<text text-anchor="middle" x="605" y="-150" font-family="Helvetica,sans-Serif" font-size="10.00">/Growth/SpeciesGrowth.h</text>
</a>
</g>
</g>
<!-- Node1&#45;&gt;Node30 -->
<g id="edge49_Node000001_Node000030" class="edge">
<title>Node1&#45;&gt;Node30</title>
<g id="a_edge49_Node000001_Node000030"><a xlink:title=" ">
<path fill="none" stroke="#63b8ff" d="M995.07,-307.99C901.57,-273.6 751.65,-218.45 667.5,-187.49"/>
<polygon fill="#63b8ff" stroke="#63b8ff" points="668.67,-184.19 658.07,-184.02 666.25,-190.76 668.67,-184.19"/>
</a>
</g>
</g>
<!-- Node32 -->
<g id="Node000032" class="node">
<title>Node32</title>
<g id="a_Node000032"><a xlink:href="Temperature_8h.html" target="_top" xlink:title="Definition of the Temperature class and related operations.">
<polygon fill="white" stroke="#666666" points="1710,-178.5 1580,-178.5 1580,-148.5 1710,-148.5 1710,-178.5"/>
<text text-anchor="start" x="1588" y="-166.5" font-family="Helvetica,sans-Serif" font-size="10.00">App/Model/IBM/Physics</text>
<text text-anchor="middle" x="1645" y="-155.5" font-family="Helvetica,sans-Serif" font-size="10.00">/Temperature.h</text>
</a>
</g>
</g>
<!-- Node1&#45;&gt;Node32 -->
<g id="edge67_Node000001_Node000032" class="edge">
<title>Node1&#45;&gt;Node32</title>
<g id="a_edge67_Node000001_Node000032"><a xlink:title=" ">
<path fill="none" stroke="#63b8ff" d="M1177.41,-307.99C1297.04,-271.28 1493.73,-210.92 1589.34,-181.58"/>
<polygon fill="#63b8ff" stroke="#63b8ff" points="1590.57,-184.86 1599.1,-178.58 1588.52,-178.17 1590.57,-184.86"/>
</a>
</g>
</g>
<!-- Node7 -->
<g id="Node000007" class="node">
<title>Node7</title>
<g id="a_Node000007"><a xlink:title=" ">
<polygon fill="#e0e0e0" stroke="#999999" points="1096,-173 1038,-173 1038,-154 1096,-154 1096,-173"/>
<text text-anchor="middle" x="1067" y="-161" font-family="Helvetica,sans-Serif" font-size="10.00">memory</text>
</a>
</g>
</g>
<!-- Node6&#45;&gt;Node7 -->
<g id="edge6_Node000006_Node000007" class="edge">
<title>Node6&#45;&gt;Node7</title>
<g id="a_edge6_Node000006_Node000007"><a xlink:title=" ">
<path fill="none" stroke="#63b8ff" d="M1074.58,-219.97C1072.97,-208.19 1071.08,-194.36 1069.59,-183.46"/>
<polygon fill="#63b8ff" stroke="#63b8ff" points="1073.03,-182.8 1068.21,-173.37 1066.1,-183.75 1073.03,-182.8"/>
</a>
</g>
</g>
<!-- Node8 -->
<g id="Node000008" class="node">
<title>Node8</title>
<g id="a_Node000008"><a xlink:title=" ">
<polygon fill="#e0e0e0" stroke="#999999" points="765.5,-30 660.5,-30 660.5,0 765.5,0 765.5,-30"/>
<text text-anchor="start" x="668.5" y="-18" font-family="Helvetica,sans-Serif" font-size="10.00">boost/archive/text</text>
<text text-anchor="middle" x="713" y="-7" font-family="Helvetica,sans-Serif" font-size="10.00">_iarchive.hpp</text>
</a>
</g>
</g>
<!-- Node6&#45;&gt;Node8 -->
<g id="edge7_Node000006_Node000008" class="edge">
<title>Node6&#45;&gt;Node8</title>
<g id="a_edge7_Node000006_Node000008"><a xlink:title=" ">
<path fill="none" stroke="#63b8ff" d="M990.88,-241.68C842.69,-235.12 554.55,-218.1 524,-184 497.84,-154.8 547.89,-71.72 554,-66 561.48,-59 609.36,-44.44 650.64,-32.83"/>
<polygon fill="#63b8ff" stroke="#63b8ff" points="651.73,-36.16 660.42,-30.1 649.85,-29.42 651.73,-36.16"/>
</a>
</g>
</g>
<!-- Node9 -->
<g id="Node000009" class="node">
<title>Node9</title>
<g id="a_Node000009"><a xlink:title=" ">
<polygon fill="#e0e0e0" stroke="#999999" points="986.5,-30 881.5,-30 881.5,0 986.5,0 986.5,-30"/>
<text text-anchor="start" x="889.5" y="-18" font-family="Helvetica,sans-Serif" font-size="10.00">boost/archive/text</text>
<text text-anchor="middle" x="934" y="-7" font-family="Helvetica,sans-Serif" font-size="10.00">_oarchive.hpp</text>
</a>
</g>
</g>
<!-- Node6&#45;&gt;Node9 -->
<g id="edge8_Node000006_Node000009" class="edge">
<title>Node6&#45;&gt;Node9</title>
<g id="a_edge8_Node000006_Node000009"><a xlink:title=" ">
<path fill="none" stroke="#63b8ff" d="M990.97,-238.66C909.27,-227.25 793.59,-195.43 752,-107 744.24,-90.51 740.95,-80.49 752,-66 766.62,-46.82 824.6,-33.17 871.24,-25.02"/>
<polygon fill="#63b8ff" stroke="#63b8ff" points="872.03,-28.44 881.31,-23.32 870.86,-21.54 872.03,-28.44"/>
</a>
</g>
</g>
<!-- Node10 -->
<g id="Node000010" class="node">
<title>Node10</title>
<g id="a_Node000010"><a xlink:title=" ">
<polygon fill="#e0e0e0" stroke="#999999" points="1156,-30 1040,-30 1040,0 1156,0 1156,-30"/>
<text text-anchor="start" x="1048" y="-18" font-family="Helvetica,sans-Serif" font-size="10.00">boost/archive/binary</text>
<text text-anchor="middle" x="1098" y="-7" font-family="Helvetica,sans-Serif" font-size="10.00">_iarchive.hpp</text>
</a>
</g>
</g>
<!-- Node6&#45;&gt;Node10 -->
<g id="edge9_Node000006_Node000010" class="edge">
<title>Node6&#45;&gt;Node10</title>
<g id="a_edge9_Node000006_Node000010"><a xlink:title=" ">
<path fill="none" stroke="#63b8ff" d="M1091.9,-219.98C1097.11,-209.24 1102.39,-196.35 1105,-184 1115.63,-133.71 1108.33,-73.11 1102.73,-40.19"/>
<polygon fill="#63b8ff" stroke="#63b8ff" points="1106.14,-39.36 1100.92,-30.13 1099.25,-40.6 1106.14,-39.36"/>
</a>
</g>
</g>
<!-- Node11 -->
<g id="Node000011" class="node">
<title>Node11</title>
<g id="a_Node000011"><a xlink:title=" ">
<polygon fill="#e0e0e0" stroke="#999999" points="1578,-30 1462,-30 1462,0 1578,0 1578,-30"/>
<text text-anchor="start" x="1470" y="-18" font-family="Helvetica,sans-Serif" font-size="10.00">boost/archive/binary</text>
<text text-anchor="middle" x="1520" y="-7" font-family="Helvetica,sans-Serif" font-size="10.00">_oarchive.hpp</text>
</a>
</g>
</g>
<!-- Node6&#45;&gt;Node11 -->
<g id="edge10_Node000006_Node000011" class="edge">
<title>Node6&#45;&gt;Node11</title>
<g id="a_edge10_Node000006_Node000011"><a xlink:title=" ">
<path fill="none" stroke="#63b8ff" d="M1165.05,-232.19C1248.74,-215.91 1374.52,-180.53 1458,-107 1479.82,-87.78 1497.6,-59.27 1508.44,-39.3"/>
<polygon fill="#63b8ff" stroke="#63b8ff" points="1511.63,-40.74 1513.19,-30.26 1505.44,-37.48 1511.63,-40.74"/>
</a>
</g>
</g>
<!-- Node12 -->
<g id="Node000012" class="node">
<title>Node12</title>
<g id="a_Node000012"><a xlink:href="LineInfoException_8h.html" target="_top" xlink:title="Exception class with detailed file and line information for error reporting.">
<polygon fill="white" stroke="#666666" points="1935.5,-173 1766.5,-173 1766.5,-154 1935.5,-154 1935.5,-173"/>
<text text-anchor="middle" x="1851" y="-161" font-family="Helvetica,sans-Serif" font-size="10.00">Exceptions/LineInfoException.h</text>
</a>
</g>
</g>
<!-- Node6&#45;&gt;Node12 -->
<g id="edge11_Node000006_Node000012" class="edge">
<title>Node6&#45;&gt;Node12</title>
<g id="a_edge11_Node000006_Node000012"><a xlink:title=" ">
<path fill="none" stroke="#63b8ff" d="M1165.25,-238.14C1288.73,-228.1 1521.47,-207.97 1719,-184 1741.43,-181.28 1765.94,-177.8 1787.68,-174.53"/>
<polygon fill="#63b8ff" stroke="#63b8ff" points="1788.41,-177.96 1797.78,-173 1787.37,-171.04 1788.41,-177.96"/>
</a>
</g>
</g>
<!-- Node6&#45;&gt;Node15 -->
<g id="edge14_Node000006_Node000015" class="edge">
<title>Node6&#45;&gt;Node15</title>
<g id="a_edge14_Node000006_Node000015"><a xlink:title=" ">
<path fill="none" stroke="#63b8ff" d="M1034.16,-219.97C1013.73,-208.31 989.81,-194.65 970.81,-183.8"/>
<polygon fill="#63b8ff" stroke="#63b8ff" points="972.34,-180.64 961.92,-178.73 968.87,-186.72 972.34,-180.64"/>
</a>
</g>
</g>
<!-- Node6&#45;&gt;Node23 -->
<g id="edge32_Node000006_Node000023" class="edge">
<title>Node6&#45;&gt;Node23</title>
<g id="a_edge32_Node000006_Node000023"><a xlink:title=" ">
<path fill="none" stroke="#63b8ff" d="M1123.71,-219.97C1145.1,-208.26 1170.17,-194.53 1190.02,-183.66"/>
<polygon fill="#63b8ff" stroke="#63b8ff" points="1191.93,-186.6 1199.02,-178.73 1188.57,-180.46 1191.93,-186.6"/>
</a>
</g>
</g>
<!-- Node13 -->
<g id="Node000013" class="node">
<title>Node13</title>
<g id="a_Node000013"><a xlink:title=" ">
<polygon fill="#e0e0e0" stroke="#999999" points="1896.5,-96 1831.5,-96 1831.5,-77 1896.5,-77 1896.5,-96"/>
<text text-anchor="middle" x="1864" y="-84" font-family="Helvetica,sans-Serif" font-size="10.00">exception</text>
</a>
</g>
</g>
<!-- Node12&#45;&gt;Node13 -->
<g id="edge12_Node000012_Node000013" class="edge">
<title>Node12&#45;&gt;Node13</title>
<g id="a_edge12_Node000012_Node000013"><a xlink:title=" ">
<path fill="none" stroke="#63b8ff" d="M1852.49,-153.9C1854.51,-142.25 1858.16,-121.19 1860.81,-105.9"/>
<polygon fill="#63b8ff" stroke="#63b8ff" points="1864.27,-106.45 1862.53,-96 1857.37,-105.26 1864.27,-106.45"/>
</a>
</g>
</g>
<!-- Node14 -->
<g id="Node000014" class="node">
<title>Node14</title>
<g id="a_Node000014"><a xlink:title=" ">
<polygon fill="#e0e0e0" stroke="#999999" points="1888,-24.5 1844,-24.5 1844,-5.5 1888,-5.5 1888,-24.5"/>
<text text-anchor="middle" x="1866" y="-12.5" font-family="Helvetica,sans-Serif" font-size="10.00">string</text>
</a>
</g>
</g>
<!-- Node12&#45;&gt;Node14 -->
<g id="edge13_Node000012_Node000014" class="edge">
<title>Node12&#45;&gt;Node14</title>
<g id="a_edge13_Node000012_Node000014"><a xlink:title=" ">
<path fill="none" stroke="#63b8ff" d="M1864.42,-153.77C1877.83,-144.15 1897.64,-127.32 1906,-107 1912.94,-90.15 1912.03,-83.2 1906,-66 1901.45,-53.02 1891.95,-40.9 1883.35,-31.85"/>
<polygon fill="#63b8ff" stroke="#63b8ff" points="1885.74,-29.29 1876.17,-24.74 1880.81,-34.26 1885.74,-29.29"/>
</a>
</g>
</g>
<!-- Node15&#45;&gt;Node8 -->
<g id="edge15_Node000015_Node000008" class="edge">
<title>Node15&#45;&gt;Node8</title>
<g id="a_edge15_Node000015_Node000008"><a xlink:title=" ">
<path fill="none" stroke="#63b8ff" d="M853.36,-155.65C786.89,-148.26 701.61,-133.77 680,-107 663.65,-86.75 679.16,-57.69 693.97,-37.9"/>
<polygon fill="#63b8ff" stroke="#63b8ff" points="696.73,-40.05 700.17,-30.04 691.23,-35.72 696.73,-40.05"/>
</a>
</g>
</g>
<!-- Node15&#45;&gt;Node9 -->
<g id="edge16_Node000015_Node000009" class="edge">
<title>Node15&#45;&gt;Node9</title>
<g id="a_edge16_Node000015_Node000009"><a xlink:title=" ">
<path fill="none" stroke="#63b8ff" d="M936.71,-148.45C936.2,-123.58 935.14,-71.49 934.5,-40.57"/>
<polygon fill="#63b8ff" stroke="#63b8ff" points="938,-40.15 934.29,-30.22 931,-40.29 938,-40.15"/>
</a>
</g>
</g>
<!-- Node15&#45;&gt;Node10 -->
<g id="edge17_Node000015_Node000010" class="edge">
<title>Node15&#45;&gt;Node10</title>
<g id="a_edge17_Node000015_Node000010"><a xlink:title=" ">
<path fill="none" stroke="#63b8ff" d="M952.44,-148.45C980.85,-122.6 1041.58,-67.34 1074.91,-37.01"/>
<polygon fill="#63b8ff" stroke="#63b8ff" points="1077.33,-39.54 1082.37,-30.22 1072.62,-34.36 1077.33,-39.54"/>
</a>
</g>
</g>
<!-- Node15&#45;&gt;Node11 -->
<g id="edge18_Node000015_Node000011" class="edge">
<title>Node15&#45;&gt;Node11</title>
<g id="a_edge18_Node000015_Node000011"><a xlink:title=" ">
<path fill="none" stroke="#63b8ff" d="M998.18,-148.47C1008.43,-146.42 1018.99,-144.5 1029,-143 1117.92,-129.65 1351.28,-146.61 1432,-107 1454.3,-96.05 1452.77,-83.9 1470,-66 1479.09,-56.56 1489.29,-46.3 1498.1,-37.55"/>
<polygon fill="#63b8ff" stroke="#63b8ff" points="1500.77,-39.82 1505.41,-30.3 1495.85,-34.85 1500.77,-39.82"/>
</a>
</g>
</g>
<!-- Node16 -->
<g id="Node000016" class="node">
<title>Node16</title>
<g id="a_Node000016"><a xlink:title=" ">
<polygon fill="#e0e0e0" stroke="#999999" points="642.5,-24.5 585.5,-24.5 585.5,-5.5 642.5,-5.5 642.5,-24.5"/>
<text text-anchor="middle" x="614" y="-12.5" font-family="Helvetica,sans-Serif" font-size="10.00">ostream</text>
</a>
</g>
</g>
<!-- Node15&#45;&gt;Node16 -->
<g id="edge19_Node000015_Node000016" class="edge">
<title>Node15&#45;&gt;Node16</title>
<g id="a_edge19_Node000015_Node000016"><a xlink:title=" ">
<path fill="none" stroke="#63b8ff" d="M853.17,-152.56C785.97,-143.25 698.24,-127.68 669,-107 643.59,-89.02 627.79,-55.25 619.97,-34.29"/>
<polygon fill="#63b8ff" stroke="#63b8ff" points="623.2,-32.93 616.6,-24.65 616.59,-35.24 623.2,-32.93"/>
</a>
</g>
</g>
<!-- Node17 -->
<g id="Node000017" class="node">
<title>Node17</title>
<g id="a_Node000017"><a xlink:title=" ">
<polygon fill="#e0e0e0" stroke="#999999" points="1443.5,-24.5 1396.5,-24.5 1396.5,-5.5 1443.5,-5.5 1443.5,-24.5"/>
<text text-anchor="middle" x="1420" y="-12.5" font-family="Helvetica,sans-Serif" font-size="10.00">cmath</text>
</a>
</g>
</g>
<!-- Node15&#45;&gt;Node17 -->
<g id="edge20_Node000015_Node000017" class="edge">
<title>Node15&#45;&gt;Node17</title>
<g id="a_edge20_Node000015_Node000017"><a xlink:title=" ">
<path fill="none" stroke="#63b8ff" d="M999.2,-148.43C1009.13,-146.44 1019.33,-144.55 1029,-143 1102.28,-131.29 1297.8,-145.9 1361,-107 1388.3,-90.2 1405.38,-55.5 1413.76,-34.14"/>
<polygon fill="#63b8ff" stroke="#63b8ff" points="1417.1,-35.2 1417.27,-24.6 1410.53,-32.78 1417.1,-35.2"/>
</a>
</g>
</g>
<!-- Node18 -->
<g id="Node000018" class="node">
<title>Node18</title>
<g id="a_Node000018"><a xlink:href="PreciseDouble_8h.html" target="_top" xlink:title="Defines the PreciseDouble class for safe and precise double&#45;precision arithmetic.">
<polygon fill="white" stroke="#666666" points="1351.5,-101.5 1228.5,-101.5 1228.5,-71.5 1351.5,-71.5 1351.5,-101.5"/>
<text text-anchor="start" x="1236.5" y="-89.5" font-family="Helvetica,sans-Serif" font-size="10.00">App/Model/IBM/Maths</text>
<text text-anchor="middle" x="1290" y="-78.5" font-family="Helvetica,sans-Serif" font-size="10.00">/PreciseDouble.h</text>
</a>
</g>
</g>
<!-- Node15&#45;&gt;Node18 -->
<g id="edge21_Node000015_Node000018" class="edge">
<title>Node15&#45;&gt;Node18</title>
<g id="a_edge21_Node000015_Node000018"><a xlink:title=" ">
<path fill="none" stroke="#63b8ff" d="M1002.98,-148.48C1064.35,-135.44 1155.56,-116.06 1218.61,-102.67"/>
<polygon fill="#63b8ff" stroke="#63b8ff" points="1219.42,-106.07 1228.48,-100.57 1217.97,-99.23 1219.42,-106.07"/>
</a>
</g>
</g>
<!-- Node18&#45;&gt;Node8 -->
<g id="edge22_Node000018_Node000008" class="edge">
<title>Node18&#45;&gt;Node8</title>
<g id="a_edge22_Node000018_Node000008"><a xlink:title=" ">
<path fill="none" stroke="#63b8ff" d="M1228.25,-78.06C1117.74,-64.75 887.3,-37 775.94,-23.58"/>
<polygon fill="#63b8ff" stroke="#63b8ff" points="776.21,-20.09 765.86,-22.37 775.37,-27.04 776.21,-20.09"/>
</a>
</g>
</g>
<!-- Node18&#45;&gt;Node9 -->
<g id="edge23_Node000018_Node000009" class="edge">
<title>Node18&#45;&gt;Node9</title>
<g id="a_edge23_Node000018_Node000009"><a xlink:title=" ">
<path fill="none" stroke="#63b8ff" d="M1228.4,-73.47C1163.6,-60.82 1062.17,-41.02 996.89,-28.28"/>
<polygon fill="#63b8ff" stroke="#63b8ff" points="997.22,-24.78 986.74,-26.3 995.88,-31.65 997.22,-24.78"/>
</a>
</g>
</g>
<!-- Node18&#45;&gt;Node10 -->
<g id="edge24_Node000018_Node000010" class="edge">
<title>Node18&#45;&gt;Node10</title>
<g id="a_edge24_Node000018_Node000010"><a xlink:title=" ">
<path fill="none" stroke="#63b8ff" d="M1251.15,-71.44C1220.96,-60.51 1178.92,-45.29 1146.52,-33.56"/>
<polygon fill="#63b8ff" stroke="#63b8ff" points="1147.39,-30.16 1136.8,-30.04 1145.01,-36.74 1147.39,-30.16"/>
</a>
</g>
</g>
<!-- Node18&#45;&gt;Node11 -->
<g id="edge25_Node000018_Node000011" class="edge">
<title>Node18&#45;&gt;Node11</title>
<g id="a_edge25_Node000018_Node000011"><a xlink:title=" ">
<path fill="none" stroke="#63b8ff" d="M1336.54,-71.44C1373.33,-60.32 1424.81,-44.76 1463.88,-32.96"/>
<polygon fill="#63b8ff" stroke="#63b8ff" points="1464.97,-36.29 1473.53,-30.04 1462.94,-29.59 1464.97,-36.29"/>
</a>
</g>
</g>
<!-- Node18&#45;&gt;Node14 -->
<g id="edge26_Node000018_Node000014" class="edge">
<title>Node18&#45;&gt;Node14</title>
<g id="a_edge26_Node000018_Node000014"><a xlink:title=" ">
<path fill="none" stroke="#63b8ff" d="M1351.78,-78.66C1442.3,-68.55 1616.26,-48.79 1764,-30 1787.3,-27.04 1813.55,-23.43 1833.58,-20.62"/>
<polygon fill="#63b8ff" stroke="#63b8ff" points="1834.32,-24.05 1843.73,-19.19 1833.34,-17.12 1834.32,-24.05"/>
</a>
</g>
</g>
<!-- Node18&#45;&gt;Node17 -->
<g id="edge27_Node000018_Node000017" class="edge">
<title>Node18&#45;&gt;Node17</title>
<g id="a_edge27_Node000018_Node000017"><a xlink:title=" ">
<path fill="none" stroke="#63b8ff" d="M1316.31,-71.44C1339.29,-59.15 1372.41,-41.44 1395,-29.37"/>
<polygon fill="#63b8ff" stroke="#63b8ff" points="1396.81,-32.37 1403.97,-24.57 1393.5,-26.2 1396.81,-32.37"/>
</a>
</g>
</g>
<!-- Node19 -->
<g id="Node000019" class="node">
<title>Node19</title>
<g id="a_Node000019"><a xlink:title=" ">
<polygon fill="#e0e0e0" stroke="#999999" points="1378,-24.5 1314,-24.5 1314,-5.5 1378,-5.5 1378,-24.5"/>
<text text-anchor="middle" x="1346" y="-12.5" font-family="Helvetica,sans-Serif" font-size="10.00">algorithm</text>
</a>
</g>
</g>
<!-- Node18&#45;&gt;Node19 -->
<g id="edge28_Node000018_Node000019" class="edge">
<title>Node18&#45;&gt;Node19</title>
<g id="a_edge28_Node000018_Node000019"><a xlink:title=" ">
<path fill="none" stroke="#63b8ff" d="M1301.33,-71.44C1310.39,-60.2 1323.09,-44.43 1332.64,-32.58"/>
<polygon fill="#63b8ff" stroke="#63b8ff" points="1335.39,-34.75 1338.94,-24.77 1329.94,-30.36 1335.39,-34.75"/>
</a>
</g>
</g>
<!-- Node20 -->
<g id="Node000020" class="node">
<title>Node20</title>
<g id="a_Node000020"><a xlink:title=" ">
<polygon fill="#e0e0e0" stroke="#999999" points="1234,-24.5 1174,-24.5 1174,-5.5 1234,-5.5 1234,-24.5"/>
<text text-anchor="middle" x="1204" y="-12.5" font-family="Helvetica,sans-Serif" font-size="10.00">iostream</text>
</a>
</g>
</g>
<!-- Node18&#45;&gt;Node20 -->
<g id="edge29_Node000018_Node000020" class="edge">
<title>Node18&#45;&gt;Node20</title>
<g id="a_edge29_Node000018_Node000020"><a xlink:title=" ">
<path fill="none" stroke="#63b8ff" d="M1272.6,-71.44C1258.15,-59.76 1237.66,-43.2 1222.83,-31.22"/>
<polygon fill="#63b8ff" stroke="#63b8ff" points="1224.83,-28.33 1214.85,-24.77 1220.43,-33.77 1224.83,-28.33"/>
</a>
</g>
</g>
<!-- Node21 -->
<g id="Node000021" class="node">
<title>Node21</title>
<g id="a_Node000021"><a xlink:title=" ">
<polygon fill="#e0e0e0" stroke="#999999" points="1296,-24.5 1252,-24.5 1252,-5.5 1296,-5.5 1296,-24.5"/>
<text text-anchor="middle" x="1274" y="-12.5" font-family="Helvetica,sans-Serif" font-size="10.00">limits</text>
</a>
</g>
</g>
<!-- Node18&#45;&gt;Node21 -->
<g id="edge30_Node000018_Node000021" class="edge">
<title>Node18&#45;&gt;Node21</title>
<g id="a_edge30_Node000018_Node000021"><a xlink:title=" ">
<path fill="none" stroke="#63b8ff" d="M1286.76,-71.44C1284.33,-60.86 1280.96,-46.25 1278.3,-34.69"/>
<polygon fill="#63b8ff" stroke="#63b8ff" points="1281.67,-33.73 1276.02,-24.77 1274.85,-35.3 1281.67,-33.73"/>
</a>
</g>
</g>
<!-- Node22 -->
<g id="Node000022" class="node">
<title>Node22</title>
<g id="a_Node000022"><a xlink:title=" ">
<polygon fill="#e0e0e0" stroke="#999999" points="1754.5,-24.5 1689.5,-24.5 1689.5,-5.5 1754.5,-5.5 1754.5,-24.5"/>
<text text-anchor="middle" x="1722" y="-12.5" font-family="Helvetica,sans-Serif" font-size="10.00">functional</text>
</a>
</g>
</g>
<!-- Node18&#45;&gt;Node22 -->
<g id="edge31_Node000018_Node000022" class="edge">
<title>Node18&#45;&gt;Node22</title>
<g id="a_edge31_Node000018_Node000022"><a xlink:title=" ">
<path fill="none" stroke="#63b8ff" d="M1351.9,-75.54C1440.8,-61.24 1602.39,-35.24 1679.22,-22.88"/>
<polygon fill="#63b8ff" stroke="#63b8ff" points="1680.16,-26.28 1689.48,-21.23 1679.05,-19.37 1680.16,-26.28"/>
</a>
</g>
</g>
<!-- Node23&#45;&gt;Node8 -->
<g id="edge33_Node000023_Node000008" class="edge">
<title>Node23&#45;&gt;Node8</title>
<g id="a_edge33_Node000023_Node000008"><a xlink:title=" ">
<path fill="none" stroke="#63b8ff" d="M1152.46,-149.89C1136.83,-147.41 1120.39,-144.96 1105,-143 1062.16,-137.53 747.95,-138.11 718,-107 701.27,-89.63 702.69,-60.68 706.58,-40.1"/>
<polygon fill="#63b8ff" stroke="#63b8ff" points="710.02,-40.73 708.75,-30.21 703.19,-39.22 710.02,-40.73"/>
</a>
</g>
</g>
<!-- Node23&#45;&gt;Node9 -->
<g id="edge34_Node000023_Node000009" class="edge">
<title>Node23&#45;&gt;Node9</title>
<g id="a_edge34_Node000023_Node000009"><a xlink:title=" ">
<path fill="none" stroke="#63b8ff" d="M1152.09,-149.51C1115.12,-140.93 1070.45,-127.42 1034,-107 1001.64,-88.87 971.12,-58.45 952.51,-37.82"/>
<polygon fill="#63b8ff" stroke="#63b8ff" points="954.99,-35.35 945.75,-30.17 949.75,-39.98 954.99,-35.35"/>
</a>
</g>
</g>
<!-- Node23&#45;&gt;Node10 -->
<g id="edge35_Node000023_Node000010" class="edge">
<title>Node23&#45;&gt;Node10</title>
<g id="a_edge35_Node000023_Node000010"><a xlink:title=" ">
<path fill="none" stroke="#63b8ff" d="M1212.82,-148.45C1190.6,-122.81 1143.31,-68.27 1116.88,-37.78"/>
<polygon fill="#63b8ff" stroke="#63b8ff" points="1119.52,-35.48 1110.33,-30.22 1114.23,-40.07 1119.52,-35.48"/>
</a>
</g>
</g>
<!-- Node23&#45;&gt;Node11 -->
<g id="edge36_Node000023_Node000011" class="edge">
<title>Node23&#45;&gt;Node11</title>
<g id="a_edge36_Node000023_Node000011"><a xlink:title=" ">
<path fill="none" stroke="#63b8ff" d="M1297.67,-149.69C1335.18,-141.12 1380.76,-127.55 1418,-107 1450.83,-88.88 1482,-58.46 1501.04,-37.82"/>
<polygon fill="#63b8ff" stroke="#63b8ff" points="1503.85,-39.94 1507.96,-30.18 1498.66,-35.24 1503.85,-39.94"/>
</a>
</g>
</g>
<!-- Node23&#45;&gt;Node16 -->
<g id="edge37_Node000023_Node000016" class="edge">
<title>Node23&#45;&gt;Node16</title>
<g id="a_edge37_Node000023_Node000016"><a xlink:title=" ">
<path fill="none" stroke="#63b8ff" d="M1152.46,-149.85C1136.84,-147.36 1120.39,-144.93 1105,-143 1015.35,-131.75 781.31,-146.39 700,-107 666.09,-90.57 638.67,-54.67 624.5,-33.19"/>
<polygon fill="#63b8ff" stroke="#63b8ff" points="627.43,-31.27 619.1,-24.72 621.52,-35.03 627.43,-31.27"/>
</a>
</g>
</g>
<!-- Node23&#45;&gt;Node17 -->
<g id="edge38_Node000023_Node000017" class="edge">
<title>Node23&#45;&gt;Node17</title>
<g id="a_edge38_Node000023_Node000017"><a xlink:title=" ">
<path fill="none" stroke="#63b8ff" d="M1297.79,-154.31C1331.18,-146.99 1368.85,-133.15 1394,-107 1412.84,-87.41 1418.19,-55.13 1419.62,-34.75"/>
<polygon fill="#63b8ff" stroke="#63b8ff" points="1423.12,-34.7 1420.07,-24.56 1416.13,-34.39 1423.12,-34.7"/>
</a>
</g>
</g>
<!-- Node23&#45;&gt;Node18 -->
<g id="edge39_Node000023_Node000018" class="edge">
<title>Node23&#45;&gt;Node18</title>
<g id="a_edge39_Node000023_Node000018"><a xlink:title=" ">
<path fill="none" stroke="#63b8ff" d="M1237.23,-148.39C1246.76,-137.39 1260.17,-121.92 1271.08,-109.33"/>
<polygon fill="#63b8ff" stroke="#63b8ff" points="1273.92,-111.39 1277.83,-101.54 1268.63,-106.81 1273.92,-111.39"/>
</a>
</g>
</g>
<!-- Node24&#45;&gt;Node12 -->
<g id="edge45_Node000024_Node000012" class="edge">
<title>Node24&#45;&gt;Node12</title>
<g id="a_edge45_Node000024_Node000012"><a xlink:title=" ">
<path fill="none" stroke="#63b8ff" d="M1901.01,-236.39C1891.96,-223.38 1874.63,-198.47 1862.94,-181.67"/>
<polygon fill="#63b8ff" stroke="#63b8ff" points="1865.7,-179.51 1857.12,-173.3 1859.96,-183.5 1865.7,-179.51"/>
</a>
</g>
</g>
<!-- Node24&#45;&gt;Node14 -->
<g id="edge42_Node000024_Node000014" class="edge">
<title>Node24&#45;&gt;Node14</title>
<g id="a_edge42_Node000024_Node000014"><a xlink:title=" ">
<path fill="none" stroke="#63b8ff" d="M1914.68,-236.27C1923.97,-225.08 1939.1,-204.63 1945,-184 1950.01,-166.48 1947.64,-161.03 1945,-143 1939.83,-107.66 1941.16,-96.14 1922,-66 1913.2,-52.15 1899.51,-39.83 1887.87,-30.88"/>
<polygon fill="#63b8ff" stroke="#63b8ff" points="1889.61,-27.82 1879.48,-24.73 1885.47,-33.47 1889.61,-27.82"/>
</a>
</g>
</g>
<!-- Node25 -->
<g id="Node000025" class="node">
<title>Node25</title>
<g id="a_Node000025"><a xlink:title=" ">
<polygon fill="#e0e0e0" stroke="#999999" points="2047,-173 1991,-173 1991,-154 2047,-154 2047,-173"/>
<text text-anchor="middle" x="2019" y="-161" font-family="Helvetica,sans-Serif" font-size="10.00">sstream</text>
</a>
</g>
</g>
<!-- Node24&#45;&gt;Node25 -->
<g id="edge41_Node000024_Node000025" class="edge">
<title>Node24&#45;&gt;Node25</title>
<g id="a_edge41_Node000024_Node000025"><a xlink:title=" ">
<path fill="none" stroke="#63b8ff" d="M1918.99,-236.39C1938.1,-222.65 1975.7,-195.62 1998.96,-178.91"/>
<polygon fill="#63b8ff" stroke="#63b8ff" points="2001.02,-181.73 2007.1,-173.05 1996.94,-176.05 2001.02,-181.73"/>
</a>
</g>
</g>
<!-- Node26 -->
<g id="Node000026" class="node">
<title>Node26</title>
<g id="a_Node000026"><a xlink:title=" ">
<polygon fill="#e0e0e0" stroke="#999999" points="2158.5,-173 2065.5,-173 2065.5,-154 2158.5,-154 2158.5,-173"/>
<text text-anchor="middle" x="2112" y="-161" font-family="Helvetica,sans-Serif" font-size="10.00">unordered_map</text>
</a>
</g>
</g>
<!-- Node24&#45;&gt;Node26 -->
<g id="edge43_Node000024_Node000026" class="edge">
<title>Node24&#45;&gt;Node26</title>
<g id="a_edge43_Node000024_Node000026"><a xlink:title=" ">
<path fill="none" stroke="#63b8ff" d="M1927.92,-236.48C1939.93,-231.62 1955.29,-225.42 1969,-220 2007.1,-204.93 2051.06,-187.92 2080.07,-176.76"/>
<polygon fill="#63b8ff" stroke="#63b8ff" points="2081.6,-179.92 2089.67,-173.06 2079.08,-173.39 2081.6,-179.92"/>
</a>
</g>
</g>
<!-- Node27 -->
<g id="Node000027" class="node">
<title>Node27</title>
<g id="a_Node000027"><a xlink:title=" ">
<polygon fill="#e0e0e0" stroke="#999999" points="2343.5,-173 2176.5,-173 2176.5,-154 2343.5,-154 2343.5,-173"/>
<text text-anchor="middle" x="2260" y="-161" font-family="Helvetica,sans-Serif" font-size="10.00">magic_enum/magic_enum.hpp</text>
</a>
</g>
</g>
<!-- Node24&#45;&gt;Node27 -->
<g id="edge44_Node000024_Node000027" class="edge">
<title>Node24&#45;&gt;Node27</title>
<g id="a_edge44_Node000024_Node000027"><a xlink:title=" ">
<path fill="none" stroke="#63b8ff" d="M1925.37,-236.44C1937.53,-231.06 1953.95,-224.35 1969,-220 2055.35,-195.06 2079.8,-201.32 2168,-184 2182.05,-181.24 2197.28,-178.08 2211.22,-175.12"/>
<polygon fill="#63b8ff" stroke="#63b8ff" points="2212.06,-178.52 2221.11,-173.01 2210.6,-171.68 2212.06,-178.52"/>
</a>
</g>
</g>
<!-- Node28&#45;&gt;Node3 -->
<g id="edge47_Node000028_Node000003" class="edge">
<title>Node28&#45;&gt;Node3</title>
<g id="a_edge47_Node000028_Node000003"><a xlink:title=" ">
<path fill="none" stroke="#63b8ff" d="M269.88,-76.98C251.91,-65.31 219.41,-44.2 197.77,-30.14"/>
<polygon fill="#63b8ff" stroke="#63b8ff" points="199.52,-27.1 189.23,-24.59 195.71,-32.97 199.52,-27.1"/>
</a>
</g>
</g>
<!-- Node29 -->
<g id="Node000029" class="node">
<title>Node29</title>
<g id="a_Node000029"><a xlink:title=" ">
<polygon fill="#e0e0e0" stroke="#999999" points="390.5,-30 283.5,-30 283.5,0 390.5,0 390.5,-30"/>
<text text-anchor="start" x="291.5" y="-18" font-family="Helvetica,sans-Serif" font-size="10.00">boost/serialization</text>
<text text-anchor="middle" x="337" y="-7" font-family="Helvetica,sans-Serif" font-size="10.00">/vector.hpp</text>
</a>
</g>
</g>
<!-- Node28&#45;&gt;Node29 -->
<g id="edge48_Node000028_Node000029" class="edge">
<title>Node28&#45;&gt;Node29</title>
<g id="a_edge48_Node000028_Node000029"><a xlink:title=" ">
<path fill="none" stroke="#63b8ff" d="M289.62,-76.98C297.06,-67.4 309.43,-51.48 319.67,-38.3"/>
<polygon fill="#63b8ff" stroke="#63b8ff" points="322.64,-40.18 326.02,-30.14 317.12,-35.89 322.64,-40.18"/>
</a>
</g>
</g>
<!-- Node30&#45;&gt;Node3 -->
<g id="edge50_Node000030_Node000003" class="edge">
<title>Node30&#45;&gt;Node3</title>
<g id="a_edge50_Node000030_Node000003"><a xlink:title=" ">
<path fill="none" stroke="#63b8ff" d="M532.3,-162.41C427.83,-160.7 242.57,-151.3 195,-107 175.27,-88.63 173.2,-55.48 174.14,-34.67"/>
<polygon fill="#63b8ff" stroke="#63b8ff" points="177.64,-34.77 174.88,-24.54 170.66,-34.26 177.64,-34.77"/>
</a>
</g>
</g>
<!-- Node30&#45;&gt;Node8 -->
<g id="edge52_Node000030_Node000008" class="edge">
<title>Node30&#45;&gt;Node8</title>
<g id="a_edge52_Node000030_Node000008"><a xlink:title=" ">
<path fill="none" stroke="#63b8ff" d="M563.65,-142.91C549.71,-134.04 535.73,-122.11 528,-107 519.7,-90.78 516.92,-80.47 528,-66 531.9,-60.91 598.11,-43.84 650.22,-31.05"/>
<polygon fill="#63b8ff" stroke="#63b8ff" points="651.22,-34.41 660.1,-28.63 649.56,-27.61 651.22,-34.41"/>
</a>
</g>
</g>
<!-- Node30&#45;&gt;Node9 -->
<g id="edge53_Node000030_Node000009" class="edge">
<title>Node30&#45;&gt;Node9</title>
<g id="a_edge53_Node000030_Node000009"><a xlink:title=" ">
<path fill="none" stroke="#63b8ff" d="M585.96,-142.72C567.99,-121.65 546.51,-88.32 566,-66 575.93,-54.63 768.35,-33.13 870.89,-22.41"/>
<polygon fill="#63b8ff" stroke="#63b8ff" points="871.54,-25.86 881.13,-21.35 870.82,-18.9 871.54,-25.86"/>
</a>
</g>
</g>
<!-- Node30&#45;&gt;Node10 -->
<g id="edge54_Node000030_Node000010" class="edge">
<title>Node30&#45;&gt;Node10</title>
<g id="a_edge54_Node000030_Node000010"><a xlink:title=" ">
<path fill="none" stroke="#63b8ff" d="M677.65,-155.75C741.48,-148.36 836.19,-133.81 915,-107 952.45,-94.26 958.61,-83.68 994,-66 1015.25,-55.38 1039.13,-43.87 1058.65,-34.57"/>
<polygon fill="#63b8ff" stroke="#63b8ff" points="1060.32,-37.65 1067.84,-30.2 1057.31,-31.33 1060.32,-37.65"/>
</a>
</g>
</g>
<!-- Node30&#45;&gt;Node11 -->
<g id="edge55_Node000030_Node000011" class="edge">
<title>Node30&#45;&gt;Node11</title>
<g id="a_edge55_Node000030_Node000011"><a xlink:title=" ">
<path fill="none" stroke="#63b8ff" d="M677.71,-156.37C725.3,-152.42 788.83,-147.24 845,-143 959.62,-134.35 1251.08,-140.6 1361,-107 1395.85,-96.35 1400.38,-84.11 1432,-66 1449.88,-55.76 1469.85,-44.4 1486.24,-35.11"/>
<polygon fill="#63b8ff" stroke="#63b8ff" points="1487.97,-38.15 1494.94,-30.18 1484.51,-32.06 1487.97,-38.15"/>
</a>
</g>
</g>
<!-- Node30&#45;&gt;Node18 -->
<g id="edge64_Node000030_Node000018" class="edge">
<title>Node30&#45;&gt;Node18</title>
<g id="a_edge64_Node000030_Node000018"><a xlink:title=" ">
<path fill="none" stroke="#63b8ff" d="M677.66,-154.54C809.54,-140.1 1086.79,-109.75 1218.11,-95.37"/>
<polygon fill="#63b8ff" stroke="#63b8ff" points="1218.51,-98.85 1228.07,-94.28 1217.75,-91.89 1218.51,-98.85"/>
</a>
</g>
</g>
<!-- Node30&#45;&gt;Node28 -->
<g id="edge63_Node000030_Node000028" class="edge">
<title>Node30&#45;&gt;Node28</title>
<g id="a_edge63_Node000030_Node000028"><a xlink:title=" ">
<path fill="none" stroke="#63b8ff" d="M532.34,-145.58C470.13,-131.09 382.43,-110.66 329.33,-98.29"/>
<polygon fill="#63b8ff" stroke="#63b8ff" points="330.04,-94.86 319.51,-96 328.46,-101.68 330.04,-94.86"/>
</a>
</g>
</g>
<!-- Node30&#45;&gt;Node29 -->
<g id="edge51_Node000030_Node000029" class="edge">
<title>Node30&#45;&gt;Node29</title>
<g id="a_edge51_Node000030_Node000029"><a xlink:title=" ">
<path fill="none" stroke="#63b8ff" d="M569.13,-142.89C517.44,-114.64 422.61,-62.8 371.62,-34.92"/>
<polygon fill="#63b8ff" stroke="#63b8ff" points="373.08,-31.73 362.63,-30.01 369.72,-37.88 373.08,-31.73"/>
</a>
</g>
</g>
<!-- Node31 -->
<g id="Node000031" class="node">
<title>Node31</title>
<g id="a_Node000031"><a xlink:href="Instar_8h.html" target="_top" xlink:title="Defines the Instar class representing developmental stages of an animal.">
<polygon fill="white" stroke="#666666" points="905.5,-107 760.5,-107 760.5,-66 905.5,-66 905.5,-107"/>
<text text-anchor="start" x="768.5" y="-95" font-family="Helvetica,sans-Serif" font-size="10.00">App/Model/IBM/Landscape</text>
<text text-anchor="start" x="768.5" y="-84" font-family="Helvetica,sans-Serif" font-size="10.00">/LivingBeings/Species</text>
<text text-anchor="middle" x="833" y="-73" font-family="Helvetica,sans-Serif" font-size="10.00">/Growth/Instar.h</text>
</a>
</g>
</g>
<!-- Node30&#45;&gt;Node31 -->
<g id="edge56_Node000030_Node000031" class="edge">
<title>Node30&#45;&gt;Node31</title>
<g id="a_edge56_Node000030_Node000031"><a xlink:title=" ">
<path fill="none" stroke="#63b8ff" d="M664.31,-142.99C694.8,-132.96 732.13,-120.68 763.92,-110.22"/>
<polygon fill="#63b8ff" stroke="#63b8ff" points="765.19,-113.49 773.59,-107.04 763,-106.84 765.19,-113.49"/>
</a>
</g>
</g>
<!-- Node31&#45;&gt;Node8 -->
<g id="edge59_Node000031_Node000008" class="edge">
<title>Node31&#45;&gt;Node8</title>
<g id="a_edge59_Node000031_Node000008"><a xlink:title=" ">
<path fill="none" stroke="#63b8ff" d="M799.25,-65.96C782.64,-56.33 762.69,-44.78 746.16,-35.2"/>
<polygon fill="#63b8ff" stroke="#63b8ff" points="747.77,-32.1 737.37,-30.11 744.27,-38.15 747.77,-32.1"/>
</a>
</g>
</g>
<!-- Node31&#45;&gt;Node9 -->
<g id="edge60_Node000031_Node000009" class="edge">
<title>Node31&#45;&gt;Node9</title>
<g id="a_edge60_Node000031_Node000009"><a xlink:title=" ">
<path fill="none" stroke="#63b8ff" d="M861.4,-65.96C875,-56.6 891.25,-45.42 904.93,-36.01"/>
<polygon fill="#63b8ff" stroke="#63b8ff" points="907.24,-38.66 913.49,-30.11 903.27,-32.9 907.24,-38.66"/>
</a>
</g>
</g>
<!-- Node31&#45;&gt;Node10 -->
<g id="edge61_Node000031_Node000010" class="edge">
<title>Node31&#45;&gt;Node10</title>
<g id="a_edge61_Node000031_Node000010"><a xlink:title=" ">
<path fill="none" stroke="#63b8ff" d="M905.76,-66.42C945.99,-55.87 995.51,-42.88 1034.21,-32.73"/>
<polygon fill="#63b8ff" stroke="#63b8ff" points="1035.53,-36 1044.31,-30.08 1033.75,-29.23 1035.53,-36"/>
</a>
</g>
</g>
<!-- Node31&#45;&gt;Node11 -->
<g id="edge62_Node000031_Node000011" class="edge">
<title>Node31&#45;&gt;Node11</title>
<g id="a_edge62_Node000031_Node000011"><a xlink:title=" ">
<path fill="none" stroke="#63b8ff" d="M905.87,-81.74C1020.2,-75.23 1248.8,-59.76 1452.01,-30.03"/>
<polygon fill="#63b8ff" stroke="#63b8ff" points="1452.59,-33.48 1461.97,-28.56 1451.57,-26.56 1452.59,-33.48"/>
</a>
</g>
</g>
<!-- Node31&#45;&gt;Node14 -->
<g id="edge58_Node000031_Node000014" class="edge">
<title>Node31&#45;&gt;Node14</title>
<g id="a_edge58_Node000031_Node000014"><a xlink:title=" ">
<path fill="none" stroke="#63b8ff" d="M905.64,-81.89C1094.49,-72.4 1597.72,-46.34 1764,-30 1787.37,-27.7 1813.62,-24.08 1833.64,-21.09"/>
<polygon fill="#63b8ff" stroke="#63b8ff" points="1834.41,-24.51 1843.77,-19.55 1833.36,-17.59 1834.41,-24.51"/>
</a>
</g>
</g>
<!-- Node31&#45;&gt;Node16 -->
<g id="edge57_Node000031_Node000016" class="edge">
<title>Node31&#45;&gt;Node16</title>
<g id="a_edge57_Node000031_Node000016"><a xlink:title=" ">
<path fill="none" stroke="#63b8ff" d="M766.1,-65.95C731.83,-55.69 689.53,-42.66 652,-30 650.15,-29.38 648.26,-28.72 646.35,-28.06"/>
<polygon fill="#63b8ff" stroke="#63b8ff" points="647.43,-24.72 636.83,-24.65 645.07,-31.31 647.43,-24.72"/>
</a>
</g>
</g>
<!-- Node32&#45;&gt;Node8 -->
<g id="edge68_Node000032_Node000008" class="edge">
<title>Node32&#45;&gt;Node8</title>
<g id="a_edge68_Node000032_Node000008"><a xlink:title=" ">
<path fill="none" stroke="#63b8ff" d="M1579.69,-158.67C1374.51,-146.59 756.24,-109.99 752,-107 730.25,-91.67 720.54,-61.59 716.27,-40.22"/>
<polygon fill="#63b8ff" stroke="#63b8ff" points="719.69,-39.49 714.53,-30.24 712.8,-40.69 719.69,-39.49"/>
</a>
</g>
</g>
<!-- Node32&#45;&gt;Node9 -->
<g id="edge69_Node000032_Node000009" class="edge">
<title>Node32&#45;&gt;Node9</title>
<g id="a_edge69_Node000032_Node000009"><a xlink:title=" ">
<path fill="none" stroke="#63b8ff" d="M1579.79,-160.12C1487.21,-155.56 1312.95,-142.65 1169,-107 1097.44,-89.28 1018.26,-55.46 972.5,-34.41"/>
<polygon fill="#63b8ff" stroke="#63b8ff" points="973.81,-31.16 963.26,-30.12 970.86,-37.51 973.81,-31.16"/>
</a>
</g>
</g>
<!-- Node32&#45;&gt;Node10 -->
<g id="edge70_Node000032_Node000010" class="edge">
<title>Node32&#45;&gt;Node10</title>
<g id="a_edge70_Node000032_Node000010"><a xlink:title=" ">
<path fill="none" stroke="#63b8ff" d="M1579.96,-158.62C1477.28,-151.72 1282.83,-135.33 1220,-107 1194.73,-95.61 1195.02,-82.83 1173,-66 1159.13,-55.4 1143.11,-44.54 1129.44,-35.66"/>
<polygon fill="#63b8ff" stroke="#63b8ff" points="1131.15,-32.6 1120.84,-30.14 1127.36,-38.49 1131.15,-32.6"/>
</a>
</g>
</g>
<!-- Node32&#45;&gt;Node11 -->
<g id="edge71_Node000032_Node000011" class="edge">
<title>Node32&#45;&gt;Node11</title>
<g id="a_edge71_Node000032_Node000011"><a xlink:title=" ">
<path fill="none" stroke="#63b8ff" d="M1692.77,-148.45C1712.9,-139.9 1734.34,-126.72 1746,-107 1755.28,-91.32 1757.41,-80.21 1746,-66 1726.44,-41.64 1647.25,-28.42 1588.1,-21.8"/>
<polygon fill="#63b8ff" stroke="#63b8ff" points="1588.36,-18.31 1578.05,-20.72 1587.61,-25.27 1588.36,-18.31"/>
</a>
</g>
</g>
<!-- Node32&#45;&gt;Node18 -->
<g id="edge75_Node000032_Node000018" class="edge">
<title>Node32&#45;&gt;Node18</title>
<g id="a_edge75_Node000032_Node000018"><a xlink:title=" ">
<path fill="none" stroke="#63b8ff" d="M1579.89,-148.74C1518.14,-135.7 1425.56,-116.14 1361.72,-102.65"/>
<polygon fill="#63b8ff" stroke="#63b8ff" points="1362.24,-99.18 1351.73,-100.54 1360.79,-106.03 1362.24,-99.18"/>
</a>
</g>
</g>
<!-- Node32&#45;&gt;Node22 -->
<g id="edge73_Node000032_Node000022" class="edge">
<title>Node32&#45;&gt;Node22</title>
<g id="a_edge73_Node000032_Node000022"><a xlink:title=" ">
<path fill="none" stroke="#63b8ff" d="M1710.32,-151.62C1736.22,-143.76 1763.47,-130.24 1779,-107 1789.12,-91.85 1786.52,-82.6 1779,-66 1772.22,-51.04 1758.52,-38.79 1746.25,-30.16"/>
<polygon fill="#63b8ff" stroke="#63b8ff" points="1747.96,-27.1 1737.68,-24.53 1744.12,-32.95 1747.96,-27.1"/>
</a>
</g>
</g>
<!-- Node33 -->
<g id="Node000033" class="node">
<title>Node33</title>
<g id="a_Node000033"><a xlink:title=" ">
<polygon fill="#e0e0e0" stroke="#999999" points="1653.5,-96 1598.5,-96 1598.5,-77 1653.5,-77 1653.5,-96"/>
<text text-anchor="middle" x="1626" y="-84" font-family="Helvetica,sans-Serif" font-size="10.00">fstream</text>
</a>
</g>
</g>
<!-- Node32&#45;&gt;Node33 -->
<g id="edge72_Node000032_Node000033" class="edge">
<title>Node32&#45;&gt;Node33</title>
<g id="a_edge72_Node000032_Node000033"><a xlink:title=" ">
<path fill="none" stroke="#63b8ff" d="M1641.43,-148.39C1638.4,-136.46 1634.05,-119.26 1630.73,-106.18"/>
<polygon fill="#63b8ff" stroke="#63b8ff" points="1634.1,-105.21 1628.25,-96.37 1627.31,-106.93 1634.1,-105.21"/>
</a>
</g>
</g>
<!-- Node34 -->
<g id="Node000034" class="node">
<title>Node34</title>
<g id="a_Node000034"><a xlink:title=" ">
<polygon fill="#e0e0e0" stroke="#999999" points="1736.5,-96 1671.5,-96 1671.5,-77 1736.5,-77 1736.5,-96"/>
<text text-anchor="middle" x="1704" y="-84" font-family="Helvetica,sans-Serif" font-size="10.00">stdexcept</text>
</a>
</g>
</g>
<!-- Node32&#45;&gt;Node34 -->
<g id="edge74_Node000032_Node000034" class="edge">
<title>Node32&#45;&gt;Node34</title>
<g id="a_edge74_Node000032_Node000034"><a xlink:title=" ">
<path fill="none" stroke="#63b8ff" d="M1656.1,-148.39C1665.96,-135.86 1680.38,-117.53 1690.82,-104.26"/>
<polygon fill="#63b8ff" stroke="#63b8ff" points="1693.59,-106.4 1697.02,-96.37 1688.08,-102.07 1693.59,-106.4"/>
</a>
</g>
</g>
</g>
</svg>
