<?xml version="1.0" encoding="UTF-8" standalone="no"?>
<!DOCTYPE svg PUBLIC "-//W3C//DTD SVG 1.1//EN"
 "http://www.w3.org/Graphics/SVG/1.1/DTD/svg11.dtd">
<!-- Generated by graphviz version 2.43.0 (0)
 -->
<!-- Title: /home/runner/work/Weaver/Weaver/include/App/Model/IBM/Landscape/Map/SpatialTree/TerrainCells/PatchApplicator/Obstacle/BranchCellObstacle.h Pages: 1 -->
<svg width="1079pt" height="357pt"
 viewBox="0.00 0.00 1078.72 357.00" xmlns="http://www.w3.org/2000/svg" xmlns:xlink="http://www.w3.org/1999/xlink">
<g id="graph0" class="graph" transform="scale(1 1) rotate(0) translate(4 353)">
<title>/home/runner/work/Weaver/Weaver/include/App/Model/IBM/Landscape/Map/SpatialTree/TerrainCells/PatchApplicator/Obstacle/BranchCellObstacle.h</title>
<!-- Node1 -->
<g id="Node000001" class="node">
<title>Node1</title>
<g id="a_Node000001"><a xlink:title="Defines the BranchCellObstacle class for managing obstacles in branch terrain cells.">
<polygon fill="#999999" stroke="#666666" points="304.22,-349 130.22,-349 130.22,-286 304.22,-286 304.22,-349"/>
<text text-anchor="start" x="138.22" y="-337" font-family="Helvetica,sans-Serif" font-size="10.00">/home/runner/work/Weaver</text>
<text text-anchor="start" x="138.22" y="-326" font-family="Helvetica,sans-Serif" font-size="10.00">/Weaver/include/App/Model</text>
<text text-anchor="start" x="138.22" y="-315" font-family="Helvetica,sans-Serif" font-size="10.00">/IBM/Landscape/Map/SpatialTree</text>
<text text-anchor="start" x="138.22" y="-304" font-family="Helvetica,sans-Serif" font-size="10.00">/TerrainCells/PatchApplicator</text>
<text text-anchor="middle" x="217.22" y="-293" font-family="Helvetica,sans-Serif" font-size="10.00">/Obstacle/BranchCellObstacle.h</text>
</a>
</g>
</g>
<!-- Node2 -->
<g id="Node000002" class="node">
<title>Node2</title>
<g id="a_Node000002"><a xlink:title=" ">
<polygon fill="#e0e0e0" stroke="#999999" points="70.72,-239 23.72,-239 23.72,-220 70.72,-220 70.72,-239"/>
<text text-anchor="middle" x="47.22" y="-227" font-family="Helvetica,sans-Serif" font-size="10.00">vector</text>
</a>
</g>
</g>
<!-- Node1&#45;&gt;Node2 -->
<g id="edge1_Node000001_Node000002" class="edge">
<title>Node1&#45;&gt;Node2</title>
<g id="a_edge1_Node000001_Node000002"><a xlink:title=" ">
<path fill="none" stroke="#63b8ff" d="M151.51,-285.95C128.74,-275 103.17,-262.32 80.22,-250 76.86,-248.19 73.35,-246.22 69.92,-244.24"/>
<polygon fill="#63b8ff" stroke="#63b8ff" points="71.6,-241.17 61.21,-239.11 68.05,-247.2 71.6,-241.17"/>
</a>
</g>
</g>
<!-- Node3 -->
<g id="Node000003" class="node">
<title>Node3</title>
<g id="a_Node000003"><a xlink:title=" ">
<polygon fill="#e0e0e0" stroke="#999999" points="145.22,-239 89.22,-239 89.22,-220 145.22,-220 145.22,-239"/>
<text text-anchor="middle" x="117.22" y="-227" font-family="Helvetica,sans-Serif" font-size="10.00">numeric</text>
</a>
</g>
</g>
<!-- Node1&#45;&gt;Node3 -->
<g id="edge2_Node000001_Node000003" class="edge">
<title>Node1&#45;&gt;Node3</title>
<g id="a_edge2_Node000001_Node000003"><a xlink:title=" ">
<path fill="none" stroke="#63b8ff" d="M181.69,-285.94C165.84,-272.31 147.88,-256.87 134.95,-245.75"/>
<polygon fill="#63b8ff" stroke="#63b8ff" points="137.12,-242.99 127.25,-239.12 132.55,-248.3 137.12,-242.99"/>
</a>
</g>
</g>
<!-- Node4 -->
<g id="Node000004" class="node">
<title>Node4</title>
<g id="a_Node000004"><a xlink:title=" ">
<polygon fill="#e0e0e0" stroke="#999999" points="270.72,-244.5 163.72,-244.5 163.72,-214.5 270.72,-214.5 270.72,-244.5"/>
<text text-anchor="start" x="171.72" y="-232.5" font-family="Helvetica,sans-Serif" font-size="10.00">boost/serialization</text>
<text text-anchor="middle" x="217.22" y="-221.5" font-family="Helvetica,sans-Serif" font-size="10.00">/export.hpp</text>
</a>
</g>
</g>
<!-- Node1&#45;&gt;Node4 -->
<g id="edge3_Node000001_Node000004" class="edge">
<title>Node1&#45;&gt;Node4</title>
<g id="a_edge3_Node000001_Node000004"><a xlink:title=" ">
<path fill="none" stroke="#63b8ff" d="M217.22,-285.94C217.22,-275.69 217.22,-264.42 217.22,-254.73"/>
<polygon fill="#63b8ff" stroke="#63b8ff" points="220.72,-254.6 217.22,-244.6 213.72,-254.6 220.72,-254.6"/>
</a>
</g>
</g>
<!-- Node5 -->
<g id="Node000005" class="node">
<title>Node5</title>
<g id="a_Node000005"><a xlink:href="CellObstacleInterface_8h.html" target="_top" xlink:title="Interface for obstacle elements within a terrain cell.">
<polygon fill="white" stroke="#666666" points="467.72,-250 288.72,-250 288.72,-209 467.72,-209 467.72,-250"/>
<text text-anchor="start" x="296.72" y="-238" font-family="Helvetica,sans-Serif" font-size="10.00">App/Model/IBM/Landscape</text>
<text text-anchor="start" x="296.72" y="-227" font-family="Helvetica,sans-Serif" font-size="10.00">/Map/TerrainCells/PatchApplicator</text>
<text text-anchor="middle" x="378.22" y="-216" font-family="Helvetica,sans-Serif" font-size="10.00">/Obstacle/CellObstacleInterface.h</text>
</a>
</g>
</g>
<!-- Node1&#45;&gt;Node5 -->
<g id="edge4_Node000001_Node000005" class="edge">
<title>Node1&#45;&gt;Node5</title>
<g id="a_edge4_Node000001_Node000005"><a xlink:title=" ">
<path fill="none" stroke="#63b8ff" d="M274.44,-285.94C293.37,-275.82 314.19,-264.71 332.17,-255.1"/>
<polygon fill="#63b8ff" stroke="#63b8ff" points="334.12,-258.02 341.3,-250.23 330.83,-251.85 334.12,-258.02"/>
</a>
</g>
</g>
<!-- Node18 -->
<g id="Node000018" class="node">
<title>Node18</title>
<g id="a_Node000018"><a xlink:href="ObstacleSource_8h.html" target="_top" xlink:title="Defines the ObstacleSource class representing obstacles in a landscape.">
<polygon fill="white" stroke="#666666" points="1070.72,-173 907.72,-173 907.72,-132 1070.72,-132 1070.72,-173"/>
<text text-anchor="start" x="915.72" y="-161" font-family="Helvetica,sans-Serif" font-size="10.00">App/Model/IBM/Landscape</text>
<text text-anchor="start" x="915.72" y="-150" font-family="Helvetica,sans-Serif" font-size="10.00">/Map/Patches/Source/Obstacle</text>
<text text-anchor="middle" x="989.22" y="-139" font-family="Helvetica,sans-Serif" font-size="10.00">Source.h</text>
</a>
</g>
</g>
<!-- Node1&#45;&gt;Node18 -->
<g id="edge31_Node000001_Node000018" class="edge">
<title>Node1&#45;&gt;Node18</title>
<g id="a_edge31_Node000001_Node000018"><a xlink:title=" ">
<path fill="none" stroke="#63b8ff" d="M304.28,-298.12C451.24,-267.09 747.17,-204.61 897.33,-172.9"/>
<polygon fill="#63b8ff" stroke="#63b8ff" points="898.38,-176.26 907.45,-170.77 896.94,-169.41 898.38,-176.26"/>
</a>
</g>
</g>
<!-- Node6 -->
<g id="Node000006" class="node">
<title>Node6</title>
<g id="a_Node000006"><a xlink:title=" ">
<polygon fill="#e0e0e0" stroke="#999999" points="611.72,-96 504.72,-96 504.72,-66 611.72,-66 611.72,-96"/>
<text text-anchor="start" x="512.72" y="-84" font-family="Helvetica,sans-Serif" font-size="10.00">boost/serialization</text>
<text text-anchor="middle" x="558.22" y="-73" font-family="Helvetica,sans-Serif" font-size="10.00">/serialization.hpp</text>
</a>
</g>
</g>
<!-- Node5&#45;&gt;Node6 -->
<g id="edge5_Node000005_Node000006" class="edge">
<title>Node5&#45;&gt;Node6</title>
<g id="a_edge5_Node000005_Node000006"><a xlink:title=" ">
<path fill="none" stroke="#63b8ff" d="M467.83,-222.84C540.4,-216.17 634.36,-202.06 658.22,-173 669.79,-158.92 667.8,-147.5 658.22,-132 649.52,-117.92 635.51,-107.67 620.71,-100.26"/>
<polygon fill="#63b8ff" stroke="#63b8ff" points="621.97,-96.99 611.42,-96.01 619.06,-103.35 621.97,-96.99"/>
</a>
</g>
</g>
<!-- Node7 -->
<g id="Node000007" class="node">
<title>Node7</title>
<g id="a_Node000007"><a xlink:title=" ">
<polygon fill="#e0e0e0" stroke="#999999" points="182.72,-96 75.72,-96 75.72,-66 182.72,-66 182.72,-96"/>
<text text-anchor="start" x="83.72" y="-84" font-family="Helvetica,sans-Serif" font-size="10.00">boost/serialization</text>
<text text-anchor="middle" x="129.22" y="-73" font-family="Helvetica,sans-Serif" font-size="10.00">/base_object.hpp</text>
</a>
</g>
</g>
<!-- Node5&#45;&gt;Node7 -->
<g id="edge6_Node000005_Node000007" class="edge">
<title>Node5&#45;&gt;Node7</title>
<g id="a_edge6_Node000005_Node000007"><a xlink:title=" ">
<path fill="none" stroke="#63b8ff" d="M288.59,-210.58C215.19,-195.69 122.99,-176.42 120.22,-173 105.03,-154.19 111.1,-125.56 118.51,-105.45"/>
<polygon fill="#63b8ff" stroke="#63b8ff" points="121.79,-106.66 122.28,-96.07 115.3,-104.04 121.79,-106.66"/>
</a>
</g>
</g>
<!-- Node8 -->
<g id="Node000008" class="node">
<title>Node8</title>
<g id="a_Node000008"><a xlink:title=" ">
<polygon fill="#e0e0e0" stroke="#999999" points="330.22,-96 206.22,-96 206.22,-66 330.22,-66 330.22,-96"/>
<text text-anchor="start" x="214.22" y="-84" font-family="Helvetica,sans-Serif" font-size="10.00">boost/serialization</text>
<text text-anchor="middle" x="268.22" y="-73" font-family="Helvetica,sans-Serif" font-size="10.00">/assume_abstract.hpp</text>
</a>
</g>
</g>
<!-- Node5&#45;&gt;Node8 -->
<g id="edge7_Node000005_Node000008" class="edge">
<title>Node5&#45;&gt;Node8</title>
<g id="a_edge7_Node000005_Node000008"><a xlink:title=" ">
<path fill="none" stroke="#63b8ff" d="M288.63,-209.63C219.36,-194.83 134.79,-176.22 132.22,-173 120.84,-158.77 121.8,-146.94 132.22,-132 140.86,-119.62 171.29,-107.86 201.18,-98.86"/>
<polygon fill="#63b8ff" stroke="#63b8ff" points="202.22,-102.2 210.84,-96.03 200.25,-95.48 202.22,-102.2"/>
</a>
</g>
</g>
<!-- Node9 -->
<g id="Node000009" class="node">
<title>Node9</title>
<g id="a_Node000009"><a xlink:title=" ">
<polygon fill="#e0e0e0" stroke="#999999" points="711.72,-30 606.72,-30 606.72,0 711.72,0 711.72,-30"/>
<text text-anchor="start" x="614.72" y="-18" font-family="Helvetica,sans-Serif" font-size="10.00">boost/archive/text</text>
<text text-anchor="middle" x="659.22" y="-7" font-family="Helvetica,sans-Serif" font-size="10.00">_iarchive.hpp</text>
</a>
</g>
</g>
<!-- Node5&#45;&gt;Node9 -->
<g id="edge8_Node000005_Node000009" class="edge">
<title>Node5&#45;&gt;Node9</title>
<g id="a_edge8_Node000005_Node000009"><a xlink:title=" ">
<path fill="none" stroke="#63b8ff" d="M467.84,-214.88C541.13,-203.17 638.59,-186.15 676.22,-173 745.11,-148.93 783.63,-158.54 821.22,-96 828.09,-84.57 829.14,-76.73 821.22,-66 814.94,-57.49 764.6,-42.76 721.68,-31.49"/>
<polygon fill="#63b8ff" stroke="#63b8ff" points="722.37,-28.05 711.81,-28.92 720.61,-34.83 722.37,-28.05"/>
</a>
</g>
</g>
<!-- Node10 -->
<g id="Node000010" class="node">
<title>Node10</title>
<g id="a_Node000010"><a xlink:title=" ">
<polygon fill="#e0e0e0" stroke="#999999" points="834.72,-30 729.72,-30 729.72,0 834.72,0 834.72,-30"/>
<text text-anchor="start" x="737.72" y="-18" font-family="Helvetica,sans-Serif" font-size="10.00">boost/archive/text</text>
<text text-anchor="middle" x="782.22" y="-7" font-family="Helvetica,sans-Serif" font-size="10.00">_oarchive.hpp</text>
</a>
</g>
</g>
<!-- Node5&#45;&gt;Node10 -->
<g id="edge9_Node000005_Node000010" class="edge">
<title>Node5&#45;&gt;Node10</title>
<g id="a_edge9_Node000005_Node000010"><a xlink:title=" ">
<path fill="none" stroke="#63b8ff" d="M468.16,-216.23C573.27,-201.69 734.58,-178.74 747.22,-173 795.47,-151.12 815.93,-144.06 838.22,-96 843.83,-83.9 843.67,-78.17 838.22,-66 833.02,-54.38 823.64,-44.35 814.02,-36.39"/>
<polygon fill="#63b8ff" stroke="#63b8ff" points="816.04,-33.52 805.98,-30.2 811.77,-39.07 816.04,-33.52"/>
</a>
</g>
</g>
<!-- Node11 -->
<g id="Node000011" class="node">
<title>Node11</title>
<g id="a_Node000011"><a xlink:title=" ">
<polygon fill="#e0e0e0" stroke="#999999" points="371.22,-30 255.22,-30 255.22,0 371.22,0 371.22,-30"/>
<text text-anchor="start" x="263.22" y="-18" font-family="Helvetica,sans-Serif" font-size="10.00">boost/archive/binary</text>
<text text-anchor="middle" x="313.22" y="-7" font-family="Helvetica,sans-Serif" font-size="10.00">_iarchive.hpp</text>
</a>
</g>
</g>
<!-- Node5&#45;&gt;Node11 -->
<g id="edge10_Node000005_Node000011" class="edge">
<title>Node5&#45;&gt;Node11</title>
<g id="a_edge10_Node000005_Node000011"><a xlink:title=" ">
<path fill="none" stroke="#63b8ff" d="M288.68,-210.64C285.49,-210.07 282.33,-209.52 279.22,-209 222.57,-199.45 60.91,-216.36 23.22,-173 -7.97,-137.11 -7.41,-102.37 23.22,-66 51.02,-33 168.39,-21.78 245.03,-17.96"/>
<polygon fill="#63b8ff" stroke="#63b8ff" points="245.27,-21.46 255.1,-17.49 244.94,-14.46 245.27,-21.46"/>
</a>
</g>
</g>
<!-- Node12 -->
<g id="Node000012" class="node">
<title>Node12</title>
<g id="a_Node000012"><a xlink:title=" ">
<polygon fill="#e0e0e0" stroke="#999999" points="505.22,-30 389.22,-30 389.22,0 505.22,0 505.22,-30"/>
<text text-anchor="start" x="397.22" y="-18" font-family="Helvetica,sans-Serif" font-size="10.00">boost/archive/binary</text>
<text text-anchor="middle" x="447.22" y="-7" font-family="Helvetica,sans-Serif" font-size="10.00">_oarchive.hpp</text>
</a>
</g>
</g>
<!-- Node5&#45;&gt;Node12 -->
<g id="edge11_Node000005_Node000012" class="edge">
<title>Node5&#45;&gt;Node12</title>
<g id="a_edge11_Node000005_Node000012"><a xlink:title=" ">
<path fill="none" stroke="#63b8ff" d="M288.46,-210.58C210.29,-194.9 109.11,-174.41 107.22,-173 66.43,-142.51 32.33,-104.01 66.22,-66 111.1,-15.68 295.28,-39.11 379.22,-29.81"/>
<polygon fill="#63b8ff" stroke="#63b8ff" points="379.74,-33.27 389.18,-28.47 378.8,-26.34 379.74,-33.27"/>
</a>
</g>
</g>
<!-- Node13 -->
<g id="Node000013" class="node">
<title>Node13</title>
<g id="a_Node000013"><a xlink:title=" ">
<polygon fill="#e0e0e0" stroke="#999999" points="196.72,-162 141.72,-162 141.72,-143 196.72,-143 196.72,-162"/>
<text text-anchor="middle" x="169.22" y="-150" font-family="Helvetica,sans-Serif" font-size="10.00">fstream</text>
</a>
</g>
</g>
<!-- Node5&#45;&gt;Node13 -->
<g id="edge12_Node000005_Node000013" class="edge">
<title>Node5&#45;&gt;Node13</title>
<g id="a_edge12_Node000005_Node000013"><a xlink:title=" ">
<path fill="none" stroke="#63b8ff" d="M307.27,-208.99C275.55,-199.45 238,-186.99 205.22,-173 201.1,-171.24 196.83,-169.17 192.73,-167.04"/>
<polygon fill="#63b8ff" stroke="#63b8ff" points="194.09,-163.79 183.63,-162.1 190.75,-169.95 194.09,-163.79"/>
</a>
</g>
</g>
<!-- Node14 -->
<g id="Node000014" class="node">
<title>Node14</title>
<g id="a_Node000014"><a xlink:title=" ">
<polygon fill="#e0e0e0" stroke="#999999" points="271.72,-162 214.72,-162 214.72,-143 271.72,-143 271.72,-162"/>
<text text-anchor="middle" x="243.22" y="-150" font-family="Helvetica,sans-Serif" font-size="10.00">ostream</text>
</a>
</g>
</g>
<!-- Node5&#45;&gt;Node14 -->
<g id="edge13_Node000005_Node000014" class="edge">
<title>Node5&#45;&gt;Node14</title>
<g id="a_edge13_Node000005_Node000014"><a xlink:title=" ">
<path fill="none" stroke="#63b8ff" d="M343.11,-208.99C319.39,-195.82 288.69,-178.76 267.62,-167.06"/>
<polygon fill="#63b8ff" stroke="#63b8ff" points="269.12,-163.88 258.68,-162.09 265.72,-170 269.12,-163.88"/>
</a>
</g>
</g>
<!-- Node15 -->
<g id="Node000015" class="node">
<title>Node15</title>
<g id="a_Node000015"><a xlink:title=" ">
<polygon fill="#e0e0e0" stroke="#999999" points="376.22,-162 290.22,-162 290.22,-143 376.22,-143 376.22,-162"/>
<text text-anchor="middle" x="333.22" y="-150" font-family="Helvetica,sans-Serif" font-size="10.00">unordered_set</text>
</a>
</g>
</g>
<!-- Node5&#45;&gt;Node15 -->
<g id="edge14_Node000005_Node000015" class="edge">
<title>Node5&#45;&gt;Node15</title>
<g id="a_edge14_Node000005_Node000015"><a xlink:title=" ">
<path fill="none" stroke="#63b8ff" d="M366.4,-208.79C359.39,-197.11 350.58,-182.43 343.8,-171.13"/>
<polygon fill="#63b8ff" stroke="#63b8ff" points="346.61,-169.01 338.47,-162.24 340.61,-172.61 346.61,-169.01"/>
</a>
</g>
</g>
<!-- Node16 -->
<g id="Node000016" class="node">
<title>Node16</title>
<g id="a_Node000016"><a xlink:title=" ">
<polygon fill="#e0e0e0" stroke="#999999" points="452.22,-162 394.22,-162 394.22,-143 452.22,-143 452.22,-162"/>
<text text-anchor="middle" x="423.22" y="-150" font-family="Helvetica,sans-Serif" font-size="10.00">memory</text>
</a>
</g>
</g>
<!-- Node5&#45;&gt;Node16 -->
<g id="edge15_Node000005_Node000016" class="edge">
<title>Node5&#45;&gt;Node16</title>
<g id="a_edge15_Node000005_Node000016"><a xlink:title=" ">
<path fill="none" stroke="#63b8ff" d="M390.05,-208.79C397.06,-197.11 405.86,-182.43 412.64,-171.13"/>
<polygon fill="#63b8ff" stroke="#63b8ff" points="415.84,-172.61 417.98,-162.24 409.84,-169.01 415.84,-172.61"/>
</a>
</g>
</g>
<!-- Node17 -->
<g id="Node000017" class="node">
<title>Node17</title>
<g id="a_Node000017"><a xlink:href="CellElement_8h.html" target="_top" xlink:title="Defines the CellElement base class representing any patch&#45;modifiable element within a terrain cell (m...">
<polygon fill="white" stroke="#666666" points="649.72,-173 470.72,-173 470.72,-132 649.72,-132 649.72,-173"/>
<text text-anchor="start" x="478.72" y="-161" font-family="Helvetica,sans-Serif" font-size="10.00">App/Model/IBM/Landscape</text>
<text text-anchor="start" x="478.72" y="-150" font-family="Helvetica,sans-Serif" font-size="10.00">/Map/TerrainCells/PatchApplicator</text>
<text text-anchor="middle" x="560.22" y="-139" font-family="Helvetica,sans-Serif" font-size="10.00">/CellElement.h</text>
</a>
</g>
</g>
<!-- Node5&#45;&gt;Node17 -->
<g id="edge16_Node000005_Node000017" class="edge">
<title>Node5&#45;&gt;Node17</title>
<g id="a_edge16_Node000005_Node000017"><a xlink:title=" ">
<path fill="none" stroke="#63b8ff" d="M425.57,-208.99C449.38,-199.18 478.42,-187.21 503.43,-176.9"/>
<polygon fill="#63b8ff" stroke="#63b8ff" points="504.89,-180.09 512.8,-173.04 502.22,-173.62 504.89,-180.09"/>
</a>
</g>
</g>
<!-- Node5&#45;&gt;Node18 -->
<g id="edge24_Node000005_Node000018" class="edge">
<title>Node5&#45;&gt;Node18</title>
<g id="a_edge24_Node000005_Node000018"><a xlink:title=" ">
<path fill="none" stroke="#63b8ff" d="M467.87,-221.39C570.88,-212.62 744.82,-196.02 893.22,-173 894.69,-172.77 896.18,-172.54 897.67,-172.29"/>
<polygon fill="#63b8ff" stroke="#63b8ff" points="898.34,-175.73 907.62,-170.61 897.17,-168.83 898.34,-175.73"/>
</a>
</g>
</g>
<!-- Node17&#45;&gt;Node6 -->
<g id="edge17_Node000017_Node000006" class="edge">
<title>Node17&#45;&gt;Node6</title>
<g id="a_edge17_Node000017_Node000006"><a xlink:title=" ">
<path fill="none" stroke="#63b8ff" d="M559.66,-131.77C559.43,-123.85 559.16,-114.63 558.92,-106.3"/>
<polygon fill="#63b8ff" stroke="#63b8ff" points="562.41,-105.93 558.63,-96.04 555.42,-106.13 562.41,-105.93"/>
</a>
</g>
</g>
<!-- Node17&#45;&gt;Node7 -->
<g id="edge18_Node000017_Node000007" class="edge">
<title>Node17&#45;&gt;Node7</title>
<g id="a_edge18_Node000017_Node000007"><a xlink:title=" ">
<path fill="none" stroke="#63b8ff" d="M470.69,-133.62C467.5,-133.06 464.33,-132.52 461.22,-132 344.41,-112.55 313.95,-115.95 197.22,-96 195.78,-95.75 194.31,-95.5 192.84,-95.23"/>
<polygon fill="#63b8ff" stroke="#63b8ff" points="193.45,-91.79 182.98,-93.42 192.18,-98.67 193.45,-91.79"/>
</a>
</g>
</g>
<!-- Node17&#45;&gt;Node8 -->
<g id="edge19_Node000017_Node000008" class="edge">
<title>Node17&#45;&gt;Node8</title>
<g id="a_edge19_Node000017_Node000008"><a xlink:title=" ">
<path fill="none" stroke="#63b8ff" d="M478.11,-131.96C433.6,-121.36 379.23,-108.42 336.98,-98.36"/>
<polygon fill="#63b8ff" stroke="#63b8ff" points="337.6,-94.91 327.06,-96 335.98,-101.72 337.6,-94.91"/>
</a>
</g>
</g>
<!-- Node17&#45;&gt;Node9 -->
<g id="edge20_Node000017_Node000009" class="edge">
<title>Node17&#45;&gt;Node9</title>
<g id="a_edge20_Node000017_Node000009"><a xlink:title=" ">
<path fill="none" stroke="#63b8ff" d="M509.93,-131.96C476.47,-116 442.05,-91.93 462.22,-66 478.73,-44.79 545.35,-31.11 596.6,-23.52"/>
<polygon fill="#63b8ff" stroke="#63b8ff" points="597.22,-26.97 606.63,-22.08 596.23,-20.04 597.22,-26.97"/>
</a>
</g>
</g>
<!-- Node17&#45;&gt;Node10 -->
<g id="edge21_Node000017_Node000010" class="edge">
<title>Node17&#45;&gt;Node10</title>
<g id="a_edge21_Node000017_Node000010"><a xlink:title=" ">
<path fill="none" stroke="#63b8ff" d="M528.13,-131.66C503.55,-114.01 476.71,-87.71 495.22,-66 526.35,-29.5 655.79,-38.44 719.5,-29.77"/>
<polygon fill="#63b8ff" stroke="#63b8ff" points="720.2,-33.2 729.51,-28.14 719.07,-26.29 720.2,-33.2"/>
</a>
</g>
</g>
<!-- Node17&#45;&gt;Node11 -->
<g id="edge22_Node000017_Node000011" class="edge">
<title>Node17&#45;&gt;Node11</title>
<g id="a_edge22_Node000017_Node000011"><a xlink:title=" ">
<path fill="none" stroke="#63b8ff" d="M514.24,-131.9C491.61,-121.84 464.12,-108.98 440.22,-96 405.61,-77.19 367.59,-52.7 342.25,-35.8"/>
<polygon fill="#63b8ff" stroke="#63b8ff" points="344.1,-32.82 333.85,-30.15 340.2,-38.63 344.1,-32.82"/>
</a>
</g>
</g>
<!-- Node17&#45;&gt;Node12 -->
<g id="edge23_Node000017_Node000012" class="edge">
<title>Node17&#45;&gt;Node12</title>
<g id="a_edge23_Node000017_Node000012"><a xlink:title=" ">
<path fill="none" stroke="#63b8ff" d="M497.53,-132C480.45,-123.63 463.77,-111.98 453.22,-96 442.46,-79.7 441.69,-57.24 443.19,-40.27"/>
<polygon fill="#63b8ff" stroke="#63b8ff" points="446.71,-40.38 444.43,-30.03 439.76,-39.54 446.71,-40.38"/>
</a>
</g>
</g>
<!-- Node19 -->
<g id="Node000019" class="node">
<title>Node19</title>
<g id="a_Node000019"><a xlink:title=" ">
<polygon fill="#e0e0e0" stroke="#999999" points="1044.22,-90.5 934.22,-90.5 934.22,-71.5 1044.22,-71.5 1044.22,-90.5"/>
<text text-anchor="middle" x="989.22" y="-78.5" font-family="Helvetica,sans-Serif" font-size="10.00">nlohmann/json.hpp</text>
</a>
</g>
</g>
<!-- Node18&#45;&gt;Node19 -->
<g id="edge25_Node000018_Node000019" class="edge">
<title>Node18&#45;&gt;Node19</title>
<g id="a_edge25_Node000018_Node000019"><a xlink:title=" ">
<path fill="none" stroke="#63b8ff" d="M989.22,-131.77C989.22,-122.08 989.22,-110.46 989.22,-100.88"/>
<polygon fill="#63b8ff" stroke="#63b8ff" points="992.72,-100.82 989.22,-90.82 985.72,-100.82 992.72,-100.82"/>
</a>
</g>
</g>
<!-- Node20 -->
<g id="Node000020" class="node">
<title>Node20</title>
<g id="a_Node000020"><a xlink:href="PathSource_8h.html" target="_top" xlink:title="Defines the PathSource abstract base class representing sources of landscape information.">
<polygon fill="white" stroke="#666666" points="812.72,-96 629.72,-96 629.72,-66 812.72,-66 812.72,-96"/>
<text text-anchor="start" x="637.72" y="-84" font-family="Helvetica,sans-Serif" font-size="10.00">App/Model/IBM/Landscape</text>
<text text-anchor="middle" x="721.22" y="-73" font-family="Helvetica,sans-Serif" font-size="10.00">/Map/Patches/Source/PathSource.h</text>
</a>
</g>
</g>
<!-- Node18&#45;&gt;Node20 -->
<g id="edge26_Node000018_Node000020" class="edge">
<title>Node18&#45;&gt;Node20</title>
<g id="a_edge26_Node000018_Node000020"><a xlink:title=" ">
<path fill="none" stroke="#63b8ff" d="M913.86,-131.96C873.35,-121.45 823.95,-108.64 785.31,-98.62"/>
<polygon fill="#63b8ff" stroke="#63b8ff" points="785.78,-95.13 775.22,-96 784.03,-101.9 785.78,-95.13"/>
</a>
</g>
</g>
<!-- Node20&#45;&gt;Node9 -->
<g id="edge27_Node000020_Node000009" class="edge">
<title>Node20&#45;&gt;Node9</title>
<g id="a_edge27_Node000020_Node000009"><a xlink:title=" ">
<path fill="none" stroke="#63b8ff" d="M707.46,-65.8C699.44,-57.51 689.15,-46.89 680.14,-37.59"/>
<polygon fill="#63b8ff" stroke="#63b8ff" points="682.42,-34.91 672.94,-30.16 677.39,-39.78 682.42,-34.91"/>
</a>
</g>
</g>
<!-- Node20&#45;&gt;Node10 -->
<g id="edge28_Node000020_Node000010" class="edge">
<title>Node20&#45;&gt;Node10</title>
<g id="a_edge28_Node000020_Node000010"><a xlink:title=" ">
<path fill="none" stroke="#63b8ff" d="M734.76,-65.8C742.66,-57.51 752.78,-46.89 761.65,-37.59"/>
<polygon fill="#63b8ff" stroke="#63b8ff" points="764.36,-39.82 768.72,-30.16 759.29,-34.99 764.36,-39.82"/>
</a>
</g>
</g>
<!-- Node20&#45;&gt;Node11 -->
<g id="edge29_Node000020_Node000011" class="edge">
<title>Node20&#45;&gt;Node11</title>
<g id="a_edge29_Node000020_Node000011"><a xlink:title=" ">
<path fill="none" stroke="#63b8ff" d="M629.63,-67.21C550.15,-55.99 440.02,-40.17 381.29,-30.1"/>
<polygon fill="#63b8ff" stroke="#63b8ff" points="381.74,-26.63 371.29,-28.36 380.53,-33.53 381.74,-26.63"/>
</a>
</g>
</g>
<!-- Node20&#45;&gt;Node12 -->
<g id="edge30_Node000020_Node000012" class="edge">
<title>Node20&#45;&gt;Node12</title>
<g id="a_edge30_Node000020_Node000012"><a xlink:title=" ">
<path fill="none" stroke="#63b8ff" d="M661.09,-65.95C618.03,-55.9 560,-42.34 515.25,-31.89"/>
<polygon fill="#63b8ff" stroke="#63b8ff" points="515.87,-28.44 505.33,-29.57 514.28,-35.26 515.87,-28.44"/>
</a>
</g>
</g>
</g>
</svg>
