<?xml version="1.0" encoding="UTF-8" standalone="no"?>
<!DOCTYPE svg PUBLIC "-//W3C//DTD SVG 1.1//EN"
 "http://www.w3.org/Graphics/SVG/1.1/DTD/svg11.dtd">
<!-- Generated by graphviz version 2.43.0 (0)
 -->
<!-- Title: /home/runner/work/Weaver/Weaver/include/App/Model/IBM/Landscape/Map/TerrainCells/PatchApplicator/CellElement.h Pages: 1 -->
<svg width="1647pt" height="1050pt"
 viewBox="0.00 0.00 1647.10 1050.00" xmlns="http://www.w3.org/2000/svg" xmlns:xlink="http://www.w3.org/1999/xlink">
<g id="graph0" class="graph" transform="scale(1 1) rotate(0) translate(4 1046)">
<title>/home/runner/work/Weaver/Weaver/include/App/Model/IBM/Landscape/Map/TerrainCells/PatchApplicator/CellElement.h</title>
<!-- Node1 -->
<g id="Node000001" class="node">
<title>Node1</title>
<g id="a_Node000001"><a xlink:title="Defines the CellElement base class representing any patch&#45;modifiable element within a terrain cell (m...">
<polygon fill="#999999" stroke="#666666" points="1062,-1042 885,-1042 885,-990 1062,-990 1062,-1042"/>
<text text-anchor="start" x="893" y="-1030" font-family="Helvetica,sans-Serif" font-size="10.00">/home/runner/work/Weaver</text>
<text text-anchor="start" x="893" y="-1019" font-family="Helvetica,sans-Serif" font-size="10.00">/Weaver/include/App/Model</text>
<text text-anchor="start" x="893" y="-1008" font-family="Helvetica,sans-Serif" font-size="10.00">/IBM/Landscape/Map/TerrainCells</text>
<text text-anchor="middle" x="973.5" y="-997" font-family="Helvetica,sans-Serif" font-size="10.00">/PatchApplicator/CellElement.h</text>
</a>
</g>
</g>
<!-- Node2 -->
<g id="Node000002" class="node">
<title>Node2</title>
<g id="a_Node000002"><a xlink:href="CellHabitatDomainInterface_8h.html" target="_top" xlink:title="Declares the CellHabitatDomainInterface class, which stores and manages habitat&#45;domain information fo...">
<polygon fill="white" stroke="#666666" points="1134,-855 957,-855 957,-792 1134,-792 1134,-855"/>
<text text-anchor="start" x="965" y="-843" font-family="Helvetica,sans-Serif" font-size="10.00">/home/runner/work/Weaver</text>
<text text-anchor="start" x="965" y="-832" font-family="Helvetica,sans-Serif" font-size="10.00">/Weaver/include/App/Model</text>
<text text-anchor="start" x="965" y="-821" font-family="Helvetica,sans-Serif" font-size="10.00">/IBM/Landscape/Map/TerrainCells</text>
<text text-anchor="start" x="965" y="-810" font-family="Helvetica,sans-Serif" font-size="10.00">/PatchApplicator/HabitatDomain</text>
<text text-anchor="middle" x="1045.5" y="-799" font-family="Helvetica,sans-Serif" font-size="10.00">/CellHabitatDomainInterface.h</text>
</a>
</g>
</g>
<!-- Node1&#45;&gt;Node2 -->
<g id="edge1_Node000001_Node000002" class="edge">
<title>Node1&#45;&gt;Node2</title>
<g id="a_edge1_Node000001_Node000002"><a xlink:title=" ">
<path fill="none" stroke="#63b8ff" d="M1004.87,-982.04C1011.61,-973.46 1018.03,-963.84 1022.5,-954 1036.95,-922.19 1042.34,-882.15 1044.34,-855.07"/>
<polygon fill="#63b8ff" stroke="#63b8ff" points="1002.04,-979.98 998.38,-989.92 1007.44,-984.43 1002.04,-979.98"/>
</a>
</g>
</g>
<!-- Node21 -->
<g id="Node000021" class="node">
<title>Node21</title>
<g id="a_Node000021"><a xlink:href="CellMoistureInterface_8h.html" target="_top" xlink:title="Abstract interface for managing moisture, temperature, and resource capacity in a terrain cell within...">
<polygon fill="white" stroke="#666666" points="857.5,-855 651.5,-855 651.5,-792 857.5,-792 857.5,-855"/>
<text text-anchor="start" x="659.5" y="-843" font-family="Helvetica,sans-Serif" font-size="10.00">/home/runner/work/Weaver</text>
<text text-anchor="start" x="659.5" y="-832" font-family="Helvetica,sans-Serif" font-size="10.00">/Weaver/include/App/Model</text>
<text text-anchor="start" x="659.5" y="-821" font-family="Helvetica,sans-Serif" font-size="10.00">/IBM/Landscape/Map/TerrainCells</text>
<text text-anchor="start" x="659.5" y="-810" font-family="Helvetica,sans-Serif" font-size="10.00">/PatchApplicator/Moisture/CellMoisture</text>
<text text-anchor="middle" x="754.5" y="-799" font-family="Helvetica,sans-Serif" font-size="10.00">Interface.h</text>
</a>
</g>
</g>
<!-- Node1&#45;&gt;Node21 -->
<g id="edge31_Node000001_Node000021" class="edge">
<title>Node1&#45;&gt;Node21</title>
<g id="a_edge31_Node000001_Node000021"><a xlink:title=" ">
<path fill="none" stroke="#63b8ff" d="M874.69,-1001.09C843.78,-992.23 811.93,-977.72 789.5,-954 764.22,-927.26 756.81,-884.2 754.85,-855.15"/>
<polygon fill="#63b8ff" stroke="#63b8ff" points="874.11,-1004.56 884.68,-1003.77 875.93,-997.8 874.11,-1004.56"/>
</a>
</g>
</g>
<!-- Node24 -->
<g id="Node000024" class="node">
<title>Node24</title>
<g id="a_Node000024"><a xlink:href="CellObstacleInterface_8h.html" target="_top" xlink:title="Interface for obstacle elements within a terrain cell.">
<polygon fill="white" stroke="#666666" points="1390.5,-855 1184.5,-855 1184.5,-792 1390.5,-792 1390.5,-855"/>
<text text-anchor="start" x="1192.5" y="-843" font-family="Helvetica,sans-Serif" font-size="10.00">/home/runner/work/Weaver</text>
<text text-anchor="start" x="1192.5" y="-832" font-family="Helvetica,sans-Serif" font-size="10.00">/Weaver/include/App/Model</text>
<text text-anchor="start" x="1192.5" y="-821" font-family="Helvetica,sans-Serif" font-size="10.00">/IBM/Landscape/Map/TerrainCells</text>
<text text-anchor="start" x="1192.5" y="-810" font-family="Helvetica,sans-Serif" font-size="10.00">/PatchApplicator/Obstacle/CellObstacle</text>
<text text-anchor="middle" x="1287.5" y="-799" font-family="Helvetica,sans-Serif" font-size="10.00">Interface.h</text>
</a>
</g>
</g>
<!-- Node1&#45;&gt;Node24 -->
<g id="edge38_Node000001_Node000024" class="edge">
<title>Node1&#45;&gt;Node24</title>
<g id="a_edge38_Node000001_Node000024"><a xlink:title=" ">
<path fill="none" stroke="#63b8ff" d="M1023.58,-984.61C1082.16,-949.08 1178.55,-890.6 1237.21,-855.01"/>
<polygon fill="#63b8ff" stroke="#63b8ff" points="1021.61,-981.72 1014.87,-989.9 1025.24,-987.7 1021.61,-981.72"/>
</a>
</g>
</g>
<!-- Node27 -->
<g id="Node000027" class="node">
<title>Node27</title>
<g id="a_Node000027"><a xlink:href="CellResourceInterface_8h.html" target="_top" xlink:title="Interface for resources in a terrain cell.">
<polygon fill="white" stroke="#666666" points="1013,-954 798,-954 798,-891 1013,-891 1013,-954"/>
<text text-anchor="start" x="806" y="-942" font-family="Helvetica,sans-Serif" font-size="10.00">/home/runner/work/Weaver</text>
<text text-anchor="start" x="806" y="-931" font-family="Helvetica,sans-Serif" font-size="10.00">/Weaver/include/App/Model</text>
<text text-anchor="start" x="806" y="-920" font-family="Helvetica,sans-Serif" font-size="10.00">/IBM/Landscape/Map/TerrainCells</text>
<text text-anchor="start" x="806" y="-909" font-family="Helvetica,sans-Serif" font-size="10.00">/PatchApplicator/Resources/CellResource</text>
<text text-anchor="middle" x="905.5" y="-898" font-family="Helvetica,sans-Serif" font-size="10.00">Interface.h</text>
</a>
</g>
</g>
<!-- Node1&#45;&gt;Node27 -->
<g id="edge44_Node000001_Node000027" class="edge">
<title>Node1&#45;&gt;Node27</title>
<g id="a_edge44_Node000001_Node000027"><a xlink:title=" ">
<path fill="none" stroke="#63b8ff" d="M948.89,-981.89C942.13,-972.79 934.83,-962.96 928.18,-954.02"/>
<polygon fill="#63b8ff" stroke="#63b8ff" points="946.14,-984.06 954.92,-990 951.76,-979.88 946.14,-984.06"/>
</a>
</g>
</g>
<!-- Node3 -->
<g id="Node000003" class="node">
<title>Node3</title>
<g id="a_Node000003"><a xlink:href="BranchCellHabitatDomain_8h.html" target="_top" xlink:title="Defines the BranchCellHabitatDomain class for managing habitat domains in branch terrain cells.">
<polygon fill="white" stroke="#666666" points="1321,-657 1088,-657 1088,-594 1321,-594 1321,-657"/>
<text text-anchor="start" x="1096" y="-645" font-family="Helvetica,sans-Serif" font-size="10.00">/home/runner/work/Weaver</text>
<text text-anchor="start" x="1096" y="-634" font-family="Helvetica,sans-Serif" font-size="10.00">/Weaver/include/App/Model</text>
<text text-anchor="start" x="1096" y="-623" font-family="Helvetica,sans-Serif" font-size="10.00">/IBM/Landscape/Map/SpatialTree</text>
<text text-anchor="start" x="1096" y="-612" font-family="Helvetica,sans-Serif" font-size="10.00">/TerrainCells/PatchApplicator</text>
<text text-anchor="middle" x="1204.5" y="-601" font-family="Helvetica,sans-Serif" font-size="10.00">/HabitatDomain/BranchCellHabitatDomain.h</text>
</a>
</g>
</g>
<!-- Node2&#45;&gt;Node3 -->
<g id="edge2_Node000002_Node000003" class="edge">
<title>Node2&#45;&gt;Node3</title>
<g id="a_edge2_Node000002_Node000003"><a xlink:title=" ">
<path fill="none" stroke="#63b8ff" d="M1129.34,-786.58C1142.46,-778.07 1154.85,-767.92 1164.5,-756 1187.67,-727.37 1197.46,-685.35 1201.57,-657.01"/>
<polygon fill="#63b8ff" stroke="#63b8ff" points="1127.31,-783.71 1120.63,-791.93 1130.98,-789.68 1127.31,-783.71"/>
</a>
</g>
</g>
<!-- Node13 -->
<g id="Node000013" class="node">
<title>Node13</title>
<g id="a_Node000013"><a xlink:href="CellHabitatDomain_8h.html" target="_top" xlink:title="Declares the CellHabitatDomain class, a concrete implementation of CellHabitatDomainInterface represe...">
<polygon fill="white" stroke="#666666" points="1155,-756 978,-756 978,-693 1155,-693 1155,-756"/>
<text text-anchor="start" x="986" y="-744" font-family="Helvetica,sans-Serif" font-size="10.00">/home/runner/work/Weaver</text>
<text text-anchor="start" x="986" y="-733" font-family="Helvetica,sans-Serif" font-size="10.00">/Weaver/include/App/Model</text>
<text text-anchor="start" x="986" y="-722" font-family="Helvetica,sans-Serif" font-size="10.00">/IBM/Landscape/Map/TerrainCells</text>
<text text-anchor="start" x="986" y="-711" font-family="Helvetica,sans-Serif" font-size="10.00">/PatchApplicator/HabitatDomain</text>
<text text-anchor="middle" x="1066.5" y="-700" font-family="Helvetica,sans-Serif" font-size="10.00">/CellHabitatDomain.h</text>
</a>
</g>
</g>
<!-- Node2&#45;&gt;Node13 -->
<g id="edge12_Node000002_Node000013" class="edge">
<title>Node2&#45;&gt;Node13</title>
<g id="a_edge12_Node000002_Node000013"><a xlink:title=" ">
<path fill="none" stroke="#63b8ff" d="M1054.28,-781.96C1056.13,-773.39 1058.06,-764.47 1059.83,-756.32"/>
<polygon fill="#63b8ff" stroke="#63b8ff" points="1050.84,-781.29 1052.14,-791.81 1057.68,-782.78 1050.84,-781.29"/>
</a>
</g>
</g>
<!-- Node16 -->
<g id="Node000016" class="node">
<title>Node16</title>
<g id="a_Node000016"><a xlink:href="PatchApplicator_8h.html" target="_top" xlink:title="Defines the PatchApplicator class responsible for applying patches (moisture, resource,...">
<polygon fill="white" stroke="#666666" points="767.5,-750.5 585.5,-750.5 585.5,-698.5 767.5,-698.5 767.5,-750.5"/>
<text text-anchor="start" x="593.5" y="-738.5" font-family="Helvetica,sans-Serif" font-size="10.00">/home/runner/work/Weaver</text>
<text text-anchor="start" x="593.5" y="-727.5" font-family="Helvetica,sans-Serif" font-size="10.00">/Weaver/include/App/Model</text>
<text text-anchor="start" x="593.5" y="-716.5" font-family="Helvetica,sans-Serif" font-size="10.00">/IBM/Landscape/Map/TerrainCells</text>
<text text-anchor="middle" x="676.5" y="-705.5" font-family="Helvetica,sans-Serif" font-size="10.00">/PatchApplicator/PatchApplicator.h</text>
</a>
</g>
</g>
<!-- Node2&#45;&gt;Node16 -->
<g id="edge16_Node000002_Node000016" class="edge">
<title>Node2&#45;&gt;Node16</title>
<g id="a_edge16_Node000002_Node000016"><a xlink:title=" ">
<path fill="none" stroke="#63b8ff" d="M946.71,-799.42C895.71,-787.17 832.58,-771.47 776.5,-756 770.2,-754.26 763.7,-752.41 757.17,-750.51"/>
<polygon fill="#63b8ff" stroke="#63b8ff" points="946.21,-802.9 956.75,-801.83 947.84,-796.09 946.21,-802.9"/>
</a>
</g>
</g>
<!-- Node4 -->
<g id="Node000004" class="node">
<title>Node4</title>
<g id="a_Node000004"><a xlink:href="BranchPatchApplicator_8h.html" target="_top" xlink:title="Defines the BranchPatchApplicator class for applying patches to branch terrain cells in a spatial tre...">
<polygon fill="white" stroke="#666666" points="1218.5,-558 1044.5,-558 1044.5,-495 1218.5,-495 1218.5,-558"/>
<text text-anchor="start" x="1052.5" y="-546" font-family="Helvetica,sans-Serif" font-size="10.00">/home/runner/work/Weaver</text>
<text text-anchor="start" x="1052.5" y="-535" font-family="Helvetica,sans-Serif" font-size="10.00">/Weaver/include/App/Model</text>
<text text-anchor="start" x="1052.5" y="-524" font-family="Helvetica,sans-Serif" font-size="10.00">/IBM/Landscape/Map/SpatialTree</text>
<text text-anchor="start" x="1052.5" y="-513" font-family="Helvetica,sans-Serif" font-size="10.00">/TerrainCells/PatchApplicator</text>
<text text-anchor="middle" x="1131.5" y="-502" font-family="Helvetica,sans-Serif" font-size="10.00">/BranchPatchApplicator.h</text>
</a>
</g>
</g>
<!-- Node3&#45;&gt;Node4 -->
<g id="edge3_Node000003_Node000004" class="edge">
<title>Node3&#45;&gt;Node4</title>
<g id="a_edge3_Node000003_Node000004"><a xlink:title=" ">
<path fill="none" stroke="#63b8ff" d="M1175.25,-585.64C1168.42,-576.56 1161.23,-567 1154.7,-558.32"/>
<polygon fill="#63b8ff" stroke="#63b8ff" points="1172.59,-587.92 1181.4,-593.81 1178.19,-583.71 1172.59,-587.92"/>
</a>
</g>
</g>
<!-- Node5 -->
<g id="Node000005" class="node">
<title>Node5</title>
<g id="a_Node000005"><a xlink:href="BranchTerrainCell_8h.html" target="_top" xlink:title="Branch node implementation of a spatial tree terrain cell.">
<polygon fill="white" stroke="#666666" points="931.5,-371 757.5,-371 757.5,-319 931.5,-319 931.5,-371"/>
<text text-anchor="start" x="765.5" y="-359" font-family="Helvetica,sans-Serif" font-size="10.00">/home/runner/work/Weaver</text>
<text text-anchor="start" x="765.5" y="-348" font-family="Helvetica,sans-Serif" font-size="10.00">/Weaver/include/App/Model</text>
<text text-anchor="start" x="765.5" y="-337" font-family="Helvetica,sans-Serif" font-size="10.00">/IBM/Landscape/Map/SpatialTree</text>
<text text-anchor="middle" x="844.5" y="-326" font-family="Helvetica,sans-Serif" font-size="10.00">/TerrainCells/BranchTerrainCell.h</text>
</a>
</g>
</g>
<!-- Node4&#45;&gt;Node5 -->
<g id="edge4_Node000004_Node000005" class="edge">
<title>Node4&#45;&gt;Node5</title>
<g id="a_edge4_Node000004_Node000005"><a xlink:title=" ">
<path fill="none" stroke="#63b8ff" d="M1073.72,-489.36C1017.54,-454.23 933.7,-401.79 884.52,-371.03"/>
<polygon fill="#63b8ff" stroke="#63b8ff" points="1072.15,-492.51 1082.49,-494.85 1075.87,-486.58 1072.15,-492.51"/>
</a>
</g>
</g>
<!-- Node6 -->
<g id="Node000006" class="node">
<title>Node6</title>
<g id="a_Node000006"><a xlink:href="RootTerrainCell_8h.html" target="_top" xlink:title="Defines the RootTerrainCell class, the top&#45;level node of the spatial tree in the landscape.">
<polygon fill="white" stroke="#666666" points="878.5,-283 704.5,-283 704.5,-231 878.5,-231 878.5,-283"/>
<text text-anchor="start" x="712.5" y="-271" font-family="Helvetica,sans-Serif" font-size="10.00">/home/runner/work/Weaver</text>
<text text-anchor="start" x="712.5" y="-260" font-family="Helvetica,sans-Serif" font-size="10.00">/Weaver/include/App/Model</text>
<text text-anchor="start" x="712.5" y="-249" font-family="Helvetica,sans-Serif" font-size="10.00">/IBM/Landscape/Map/SpatialTree</text>
<text text-anchor="middle" x="791.5" y="-238" font-family="Helvetica,sans-Serif" font-size="10.00">/TerrainCells/RootTerrainCell.h</text>
</a>
</g>
</g>
<!-- Node5&#45;&gt;Node6 -->
<g id="edge5_Node000005_Node000006" class="edge">
<title>Node5&#45;&gt;Node6</title>
<g id="a_edge5_Node000005_Node000006"><a xlink:title=" ">
<path fill="none" stroke="#63b8ff" d="M823.52,-309.96C818.01,-301.02 812.17,-291.54 807,-283.16"/>
<polygon fill="#63b8ff" stroke="#63b8ff" points="820.66,-311.99 828.88,-318.66 826.62,-308.31 820.66,-311.99"/>
</a>
</g>
</g>
<!-- Node7 -->
<g id="Node000007" class="node">
<title>Node7</title>
<g id="a_Node000007"><a xlink:href="SpatialTree_8h.html" target="_top" xlink:title="Defines the SpatialTree class, a spatially subdivided map implementation.">
<polygon fill="white" stroke="#666666" points="628,-195 445,-195 445,-154 628,-154 628,-195"/>
<text text-anchor="start" x="453" y="-183" font-family="Helvetica,sans-Serif" font-size="10.00">/home/runner/work/Weaver</text>
<text text-anchor="start" x="453" y="-172" font-family="Helvetica,sans-Serif" font-size="10.00">/Weaver/include/App/Model</text>
<text text-anchor="middle" x="536.5" y="-161" font-family="Helvetica,sans-Serif" font-size="10.00">/IBM/Landscape/Map/SpatialTree.h</text>
</a>
</g>
</g>
<!-- Node6&#45;&gt;Node7 -->
<g id="edge6_Node000006_Node000007" class="edge">
<title>Node6&#45;&gt;Node7</title>
<g id="a_edge6_Node000006_Node000007"><a xlink:title=" ">
<path fill="none" stroke="#63b8ff" d="M702.62,-227.94C668.2,-217.08 629.63,-204.9 598.32,-195.02"/>
<polygon fill="#63b8ff" stroke="#63b8ff" points="701.62,-231.3 712.21,-230.97 703.73,-224.62 701.62,-231.3"/>
</a>
</g>
</g>
<!-- Node8 -->
<g id="Node000008" class="node">
<title>Node8</title>
<g id="a_Node000008"><a xlink:href="Landscape_8h.html" target="_top" xlink:title="Doxygen&#45;documented declaration of the Landscape class and related serialization helpers.">
<polygon fill="white" stroke="#666666" points="452,-118 295,-118 295,-77 452,-77 452,-118"/>
<text text-anchor="start" x="303" y="-106" font-family="Helvetica,sans-Serif" font-size="10.00">/home/runner/work/Weaver</text>
<text text-anchor="start" x="303" y="-95" font-family="Helvetica,sans-Serif" font-size="10.00">/Weaver/include/App/Model</text>
<text text-anchor="middle" x="373.5" y="-84" font-family="Helvetica,sans-Serif" font-size="10.00">/IBM/Landscape/Landscape.h</text>
</a>
</g>
</g>
<!-- Node7&#45;&gt;Node8 -->
<g id="edge7_Node000007_Node000008" class="edge">
<title>Node7&#45;&gt;Node8</title>
<g id="a_edge7_Node000007_Node000008"><a xlink:title=" ">
<path fill="none" stroke="#63b8ff" d="M484.82,-149.72C462.64,-139.51 437.03,-127.73 415.97,-118.04"/>
<polygon fill="#63b8ff" stroke="#63b8ff" points="483.55,-152.99 494.1,-153.99 486.48,-146.63 483.55,-152.99"/>
</a>
</g>
</g>
<!-- Node9 -->
<g id="Node000009" class="node">
<title>Node9</title>
<g id="a_Node000009"><a xlink:href="IBM_8h.html" target="_top" xlink:title="Definition of the IBM class, representing the core individual&#45;based model of the simulation.">
<polygon fill="white" stroke="#666666" points="149,-41 0,-41 0,0 149,0 149,-41"/>
<text text-anchor="start" x="8" y="-29" font-family="Helvetica,sans-Serif" font-size="10.00">/home/runner/work/Weaver</text>
<text text-anchor="start" x="8" y="-18" font-family="Helvetica,sans-Serif" font-size="10.00">/Weaver/include/App/Model</text>
<text text-anchor="middle" x="74.5" y="-7" font-family="Helvetica,sans-Serif" font-size="10.00">/IBM/IBM.h</text>
</a>
</g>
</g>
<!-- Node8&#45;&gt;Node9 -->
<g id="edge8_Node000008_Node000009" class="edge">
<title>Node8&#45;&gt;Node9</title>
<g id="a_edge8_Node000008_Node000009"><a xlink:title=" ">
<path fill="none" stroke="#63b8ff" d="M286.02,-74.56C242.56,-63.65 190.6,-50.62 149.05,-40.2"/>
<polygon fill="#63b8ff" stroke="#63b8ff" points="285.17,-77.95 295.72,-76.99 286.87,-71.16 285.17,-77.95"/>
</a>
</g>
</g>
<!-- Node10 -->
<g id="Node000010" class="node">
<title>Node10</title>
<g id="a_Node000010"><a xlink:href="AquaticLandscape_8h.html" target="_top" xlink:title="Defines the AquaticLandscape class for aquatic ecosystem simulations.">
<polygon fill="white" stroke="#666666" points="360.5,-41 166.5,-41 166.5,0 360.5,0 360.5,-41"/>
<text text-anchor="start" x="174.5" y="-29" font-family="Helvetica,sans-Serif" font-size="10.00">/home/runner/work/Weaver</text>
<text text-anchor="start" x="174.5" y="-18" font-family="Helvetica,sans-Serif" font-size="10.00">/Weaver/include/App/Model</text>
<text text-anchor="middle" x="263.5" y="-7" font-family="Helvetica,sans-Serif" font-size="10.00">/IBM/Landscape/AquaticLandscape.h</text>
</a>
</g>
</g>
<!-- Node8&#45;&gt;Node10 -->
<g id="edge9_Node000008_Node000010" class="edge">
<title>Node8&#45;&gt;Node10</title>
<g id="a_edge9_Node000008_Node000010"><a xlink:title=" ">
<path fill="none" stroke="#63b8ff" d="M336.24,-71.09C321.9,-61.32 305.78,-50.32 292.35,-41.17"/>
<polygon fill="#63b8ff" stroke="#63b8ff" points="334.65,-74.25 344.89,-76.99 338.6,-68.47 334.65,-74.25"/>
</a>
</g>
</g>
<!-- Node11 -->
<g id="Node000011" class="node">
<title>Node11</title>
<g id="a_Node000011"><a xlink:href="ArthropodsLandscape_8h.html" target="_top" xlink:title="Defines the ArthropodsLandscape class for arthropod&#45;specific ecosystem simulations.">
<polygon fill="white" stroke="#666666" points="588.5,-41 378.5,-41 378.5,0 588.5,0 588.5,-41"/>
<text text-anchor="start" x="386.5" y="-29" font-family="Helvetica,sans-Serif" font-size="10.00">/home/runner/work/Weaver</text>
<text text-anchor="start" x="386.5" y="-18" font-family="Helvetica,sans-Serif" font-size="10.00">/Weaver/include/App/Model</text>
<text text-anchor="middle" x="483.5" y="-7" font-family="Helvetica,sans-Serif" font-size="10.00">/IBM/Landscape/ArthropodsLandscape.h</text>
</a>
</g>
</g>
<!-- Node8&#45;&gt;Node11 -->
<g id="edge10_Node000008_Node000011" class="edge">
<title>Node8&#45;&gt;Node11</title>
<g id="a_edge10_Node000008_Node000011"><a xlink:title=" ">
<path fill="none" stroke="#63b8ff" d="M410.76,-71.09C425.1,-61.32 441.22,-50.32 454.65,-41.17"/>
<polygon fill="#63b8ff" stroke="#63b8ff" points="408.4,-68.47 402.11,-76.99 412.35,-74.25 408.4,-68.47"/>
</a>
</g>
</g>
<!-- Node12 -->
<g id="Node000012" class="node">
<title>Node12</title>
<g id="a_Node000012"><a xlink:href="DinosaursLandscape_8h.html" target="_top" xlink:title="Defines the DinosaursLandscape class for dinosaur&#45;specific ecosystem simulations.">
<polygon fill="white" stroke="#666666" points="812.5,-41 606.5,-41 606.5,0 812.5,0 812.5,-41"/>
<text text-anchor="start" x="614.5" y="-29" font-family="Helvetica,sans-Serif" font-size="10.00">/home/runner/work/Weaver</text>
<text text-anchor="start" x="614.5" y="-18" font-family="Helvetica,sans-Serif" font-size="10.00">/Weaver/include/App/Model</text>
<text text-anchor="middle" x="709.5" y="-7" font-family="Helvetica,sans-Serif" font-size="10.00">/IBM/Landscape/DinosaursLandscape.h</text>
</a>
</g>
</g>
<!-- Node8&#45;&gt;Node12 -->
<g id="edge11_Node000008_Node000012" class="edge">
<title>Node8&#45;&gt;Node12</title>
<g id="a_edge11_Node000008_Node000012"><a xlink:title=" ">
<path fill="none" stroke="#63b8ff" d="M462.31,-76.68C511.69,-65.66 572.9,-51.99 622.06,-41.02"/>
<polygon fill="#63b8ff" stroke="#63b8ff" points="461.27,-73.32 452.28,-78.92 462.8,-80.15 461.27,-73.32"/>
</a>
</g>
</g>
<!-- Node14 -->
<g id="Node000014" class="node">
<title>Node14</title>
<g id="a_Node000014"><a xlink:href="LeafPatchApplicator_8h.html" target="_top" xlink:title="Defines the LeafPatchApplicator class for applying patches to leaf terrain cells in a spatial tree.">
<polygon fill="white" stroke="#666666" points="953.5,-558 779.5,-558 779.5,-495 953.5,-495 953.5,-558"/>
<text text-anchor="start" x="787.5" y="-546" font-family="Helvetica,sans-Serif" font-size="10.00">/home/runner/work/Weaver</text>
<text text-anchor="start" x="787.5" y="-535" font-family="Helvetica,sans-Serif" font-size="10.00">/Weaver/include/App/Model</text>
<text text-anchor="start" x="787.5" y="-524" font-family="Helvetica,sans-Serif" font-size="10.00">/IBM/Landscape/Map/SpatialTree</text>
<text text-anchor="start" x="787.5" y="-513" font-family="Helvetica,sans-Serif" font-size="10.00">/TerrainCells/PatchApplicator</text>
<text text-anchor="middle" x="866.5" y="-502" font-family="Helvetica,sans-Serif" font-size="10.00">/LeafPatchApplicator.h</text>
</a>
</g>
</g>
<!-- Node13&#45;&gt;Node14 -->
<g id="edge13_Node000013_Node000014" class="edge">
<title>Node13&#45;&gt;Node14</title>
<g id="a_edge13_Node000013_Node000014"><a xlink:title=" ">
<path fill="none" stroke="#63b8ff" d="M1040.47,-684.31C1021.34,-657.17 993.7,-621.19 964.5,-594 950.43,-580.9 933.57,-568.49 917.83,-558.03"/>
<polygon fill="#63b8ff" stroke="#63b8ff" points="1037.78,-686.58 1046.37,-692.78 1043.53,-682.58 1037.78,-686.58"/>
</a>
</g>
</g>
<!-- Node15 -->
<g id="Node000015" class="node">
<title>Node15</title>
<g id="a_Node000015"><a xlink:href="LeafTerrainCell_8h.html" target="_top" xlink:title="Leaf node implementation of a spatial tree terrain cell.">
<polygon fill="white" stroke="#666666" points="931.5,-459 757.5,-459 757.5,-407 931.5,-407 931.5,-459"/>
<text text-anchor="start" x="765.5" y="-447" font-family="Helvetica,sans-Serif" font-size="10.00">/home/runner/work/Weaver</text>
<text text-anchor="start" x="765.5" y="-436" font-family="Helvetica,sans-Serif" font-size="10.00">/Weaver/include/App/Model</text>
<text text-anchor="start" x="765.5" y="-425" font-family="Helvetica,sans-Serif" font-size="10.00">/IBM/Landscape/Map/SpatialTree</text>
<text text-anchor="middle" x="844.5" y="-414" font-family="Helvetica,sans-Serif" font-size="10.00">/TerrainCells/LeafTerrainCell.h</text>
</a>
</g>
</g>
<!-- Node14&#45;&gt;Node15 -->
<g id="edge14_Node000014_Node000015" class="edge">
<title>Node14&#45;&gt;Node15</title>
<g id="a_edge14_Node000014_Node000015"><a xlink:title=" ">
<path fill="none" stroke="#63b8ff" d="M856.76,-484.98C854.63,-476.14 852.44,-467.04 850.52,-459.02"/>
<polygon fill="#63b8ff" stroke="#63b8ff" points="853.37,-485.87 859.11,-494.78 860.18,-484.24 853.37,-485.87"/>
</a>
</g>
</g>
<!-- Node15&#45;&gt;Node5 -->
<g id="edge15_Node000015_Node000005" class="edge">
<title>Node15&#45;&gt;Node5</title>
<g id="a_edge15_Node000015_Node000005"><a xlink:title=" ">
<path fill="none" stroke="#63b8ff" d="M844.5,-396.56C844.5,-388.04 844.5,-379.1 844.5,-371.16"/>
<polygon fill="#63b8ff" stroke="#63b8ff" points="841,-396.66 844.5,-406.66 848,-396.66 841,-396.66"/>
</a>
</g>
</g>
<!-- Node17 -->
<g id="Node000017" class="node">
<title>Node17</title>
<g id="a_Node000017"><a xlink:href="SpatialTreePatchApplicator_8h.html" target="_top" xlink:title="Defines the SpatialTreePatchApplicator class for applying patches in a spatial tree of terrain cells.">
<polygon fill="white" stroke="#666666" points="955.5,-657 781.5,-657 781.5,-594 955.5,-594 955.5,-657"/>
<text text-anchor="start" x="789.5" y="-645" font-family="Helvetica,sans-Serif" font-size="10.00">/home/runner/work/Weaver</text>
<text text-anchor="start" x="789.5" y="-634" font-family="Helvetica,sans-Serif" font-size="10.00">/Weaver/include/App/Model</text>
<text text-anchor="start" x="789.5" y="-623" font-family="Helvetica,sans-Serif" font-size="10.00">/IBM/Landscape/Map/SpatialTree</text>
<text text-anchor="start" x="789.5" y="-612" font-family="Helvetica,sans-Serif" font-size="10.00">/TerrainCells/PatchApplicator</text>
<text text-anchor="middle" x="868.5" y="-601" font-family="Helvetica,sans-Serif" font-size="10.00">/SpatialTreePatchApplicator.h</text>
</a>
</g>
</g>
<!-- Node16&#45;&gt;Node17 -->
<g id="edge17_Node000016_Node000017" class="edge">
<title>Node16&#45;&gt;Node17</title>
<g id="a_edge17_Node000016_Node000017"><a xlink:title=" ">
<path fill="none" stroke="#63b8ff" d="M735.4,-693.74C758.38,-682.13 784.71,-668.83 807.85,-657.14"/>
<polygon fill="#63b8ff" stroke="#63b8ff" points="733.79,-690.63 726.44,-698.27 736.95,-696.88 733.79,-690.63"/>
</a>
</g>
</g>
<!-- Node19 -->
<g id="Node000019" class="node">
<title>Node19</title>
<g id="a_Node000019"><a xlink:href="TerrainCell_8h.html" target="_top" xlink:title="Defines the TerrainCell class representing a cell in the landscape.">
<polygon fill="white" stroke="#666666" points="492,-651.5 315,-651.5 315,-599.5 492,-599.5 492,-651.5"/>
<text text-anchor="start" x="323" y="-639.5" font-family="Helvetica,sans-Serif" font-size="10.00">/home/runner/work/Weaver</text>
<text text-anchor="start" x="323" y="-628.5" font-family="Helvetica,sans-Serif" font-size="10.00">/Weaver/include/App/Model</text>
<text text-anchor="start" x="323" y="-617.5" font-family="Helvetica,sans-Serif" font-size="10.00">/IBM/Landscape/Map/TerrainCells</text>
<text text-anchor="middle" x="403.5" y="-606.5" font-family="Helvetica,sans-Serif" font-size="10.00">/TerrainCell.h</text>
</a>
</g>
</g>
<!-- Node16&#45;&gt;Node19 -->
<g id="edge24_Node000016_Node000019" class="edge">
<title>Node16&#45;&gt;Node19</title>
<g id="a_edge24_Node000016_Node000019"><a xlink:title=" ">
<path fill="none" stroke="#63b8ff" d="M596.15,-694.95C557.36,-681.17 511.25,-664.78 473.86,-651.5"/>
<polygon fill="#63b8ff" stroke="#63b8ff" points="595.25,-698.34 605.84,-698.39 597.59,-691.75 595.25,-698.34"/>
</a>
</g>
</g>
<!-- Node17&#45;&gt;Node4 -->
<g id="edge18_Node000017_Node000004" class="edge">
<title>Node17&#45;&gt;Node4</title>
<g id="a_edge18_Node000017_Node000004"><a xlink:title=" ">
<path fill="none" stroke="#63b8ff" d="M960.93,-590.41C989.48,-579.88 1020.74,-568.35 1048.61,-558.07"/>
<polygon fill="#63b8ff" stroke="#63b8ff" points="959.52,-587.2 951.35,-593.94 961.95,-593.77 959.52,-587.2"/>
</a>
</g>
</g>
<!-- Node17&#45;&gt;Node14 -->
<g id="edge19_Node000017_Node000014" class="edge">
<title>Node17&#45;&gt;Node14</title>
<g id="a_edge19_Node000017_Node000014"><a xlink:title=" ">
<path fill="none" stroke="#63b8ff" d="M867.66,-583.69C867.48,-575.2 867.3,-566.38 867.14,-558.32"/>
<polygon fill="#63b8ff" stroke="#63b8ff" points="864.16,-583.88 867.87,-593.81 871.16,-583.74 864.16,-583.88"/>
</a>
</g>
</g>
<!-- Node18 -->
<g id="Node000018" class="node">
<title>Node18</title>
<g id="a_Node000018"><a xlink:href="SpatialTreeTerrainCell_8h.html" target="_top" xlink:title="Spatial tree implementation of a terrain cell.">
<polygon fill="white" stroke="#666666" points="760.5,-552.5 566.5,-552.5 566.5,-500.5 760.5,-500.5 760.5,-552.5"/>
<text text-anchor="start" x="574.5" y="-540.5" font-family="Helvetica,sans-Serif" font-size="10.00">/home/runner/work/Weaver</text>
<text text-anchor="start" x="574.5" y="-529.5" font-family="Helvetica,sans-Serif" font-size="10.00">/Weaver/include/App/Model</text>
<text text-anchor="start" x="574.5" y="-518.5" font-family="Helvetica,sans-Serif" font-size="10.00">/IBM/Landscape/Map/SpatialTree</text>
<text text-anchor="middle" x="663.5" y="-507.5" font-family="Helvetica,sans-Serif" font-size="10.00">/TerrainCells/SpatialTreeTerrainCell.h</text>
</a>
</g>
</g>
<!-- Node17&#45;&gt;Node18 -->
<g id="edge20_Node000017_Node000018" class="edge">
<title>Node17&#45;&gt;Node18</title>
<g id="a_edge20_Node000017_Node000018"><a xlink:title=" ">
<path fill="none" stroke="#63b8ff" d="M794.87,-589.66C768.94,-577.39 740.32,-563.85 716.43,-552.55"/>
<polygon fill="#63b8ff" stroke="#63b8ff" points="793.38,-592.83 803.92,-593.94 796.38,-586.5 793.38,-592.83"/>
</a>
</g>
</g>
<!-- Node18&#45;&gt;Node5 -->
<g id="edge22_Node000018_Node000005" class="edge">
<title>Node18&#45;&gt;Node5</title>
<g id="a_edge22_Node000018_Node000005"><a xlink:title=" ">
<path fill="none" stroke="#63b8ff" d="M683.06,-491.36C698.62,-466.12 722.12,-431.94 748.5,-407 762.85,-393.43 780.64,-381.16 796.99,-371.24"/>
<polygon fill="#63b8ff" stroke="#63b8ff" points="679.88,-489.86 677.69,-500.22 685.86,-493.48 679.88,-489.86"/>
</a>
</g>
</g>
<!-- Node18&#45;&gt;Node7 -->
<g id="edge21_Node000018_Node000007" class="edge">
<title>Node18&#45;&gt;Node7</title>
<g id="a_edge21_Node000018_Node000007"><a xlink:title=" ">
<path fill="none" stroke="#63b8ff" d="M650.88,-490.71C624.5,-418.02 564.27,-252.04 543.61,-195.1"/>
<polygon fill="#63b8ff" stroke="#63b8ff" points="647.67,-492.12 654.37,-500.33 654.25,-489.73 647.67,-492.12"/>
</a>
</g>
</g>
<!-- Node18&#45;&gt;Node15 -->
<g id="edge23_Node000018_Node000015" class="edge">
<title>Node18&#45;&gt;Node15</title>
<g id="a_edge23_Node000018_Node000015"><a xlink:title=" ">
<path fill="none" stroke="#63b8ff" d="M722.11,-495.87C745.57,-484.01 772.3,-470.5 794.79,-459.13"/>
<polygon fill="#63b8ff" stroke="#63b8ff" points="720.3,-492.86 712.96,-500.5 723.46,-499.11 720.3,-492.86"/>
</a>
</g>
</g>
<!-- Node19&#45;&gt;Node7 -->
<g id="edge29_Node000019_Node000007" class="edge">
<title>Node19&#45;&gt;Node7</title>
<g id="a_edge29_Node000019_Node000007"><a xlink:title=" ">
<path fill="none" stroke="#63b8ff" d="M443.99,-592.86C483.12,-558.41 536.5,-499.42 536.5,-434 536.5,-434 536.5,-434 536.5,-344 536.5,-290.17 536.5,-226.68 536.5,-195.22"/>
<polygon fill="#63b8ff" stroke="#63b8ff" points="441.67,-590.24 436.38,-599.42 446.24,-595.54 441.67,-590.24"/>
</a>
</g>
</g>
<!-- Node19&#45;&gt;Node8 -->
<g id="edge25_Node000019_Node000008" class="edge">
<title>Node19&#45;&gt;Node8</title>
<g id="a_edge25_Node000019_Node000008"><a xlink:title=" ">
<path fill="none" stroke="#63b8ff" d="M381.85,-590.63C360.33,-553.65 330.5,-491.96 330.5,-434 330.5,-434 330.5,-434 330.5,-256 330.5,-204.98 351.76,-147.84 364.38,-118.41"/>
<polygon fill="#63b8ff" stroke="#63b8ff" points="378.99,-592.68 387.12,-599.48 385.01,-589.1 378.99,-592.68"/>
</a>
</g>
</g>
<!-- Node19&#45;&gt;Node18 -->
<g id="edge30_Node000019_Node000018" class="edge">
<title>Node19&#45;&gt;Node18</title>
<g id="a_edge30_Node000019_Node000018"><a xlink:title=" ">
<path fill="none" stroke="#63b8ff" d="M480.5,-595.77C517.34,-582.03 561.03,-565.73 596.49,-552.5"/>
<polygon fill="#63b8ff" stroke="#63b8ff" points="478.94,-592.62 470.79,-599.39 481.39,-599.18 478.94,-592.62"/>
</a>
</g>
</g>
<!-- Node20 -->
<g id="Node000020" class="node">
<title>Node20</title>
<g id="a_Node000020"><a xlink:href="Map_8h.html" target="_top" xlink:title="Defines the Map class for spatial organization of landscapes.">
<polygon fill="white" stroke="#666666" points="508.5,-277.5 358.5,-277.5 358.5,-236.5 508.5,-236.5 508.5,-277.5"/>
<text text-anchor="start" x="366.5" y="-265.5" font-family="Helvetica,sans-Serif" font-size="10.00">/home/runner/work/Weaver</text>
<text text-anchor="start" x="366.5" y="-254.5" font-family="Helvetica,sans-Serif" font-size="10.00">/Weaver/include/App/Model</text>
<text text-anchor="middle" x="433.5" y="-243.5" font-family="Helvetica,sans-Serif" font-size="10.00">/IBM/Landscape/Map/Map.h</text>
</a>
</g>
</g>
<!-- Node19&#45;&gt;Node20 -->
<g id="edge26_Node000019_Node000020" class="edge">
<title>Node19&#45;&gt;Node20</title>
<g id="a_edge26_Node000019_Node000020"><a xlink:title=" ">
<path fill="none" stroke="#63b8ff" d="M406.38,-589.31C412.58,-513.56 427.03,-337.1 431.88,-277.82"/>
<polygon fill="#63b8ff" stroke="#63b8ff" points="402.89,-589.06 405.56,-599.31 409.87,-589.63 402.89,-589.06"/>
</a>
</g>
</g>
<!-- Node20&#45;&gt;Node7 -->
<g id="edge28_Node000020_Node000007" class="edge">
<title>Node20&#45;&gt;Node7</title>
<g id="a_edge28_Node000020_Node000007"><a xlink:title=" ">
<path fill="none" stroke="#63b8ff" d="M466.88,-229.91C481.28,-218.65 497.85,-205.71 511.21,-195.27"/>
<polygon fill="#63b8ff" stroke="#63b8ff" points="464.42,-227.39 458.7,-236.31 468.73,-232.91 464.42,-227.39"/>
</a>
</g>
</g>
<!-- Node20&#45;&gt;Node8 -->
<g id="edge27_Node000020_Node000008" class="edge">
<title>Node20&#45;&gt;Node8</title>
<g id="a_edge27_Node000020_Node000008"><a xlink:title=" ">
<path fill="none" stroke="#63b8ff" d="M422.38,-226.8C410.35,-195.22 391.5,-145.74 381.07,-118.38"/>
<polygon fill="#63b8ff" stroke="#63b8ff" points="419.19,-228.27 426.02,-236.37 425.73,-225.78 419.19,-228.27"/>
</a>
</g>
</g>
<!-- Node21&#45;&gt;Node16 -->
<g id="edge37_Node000021_Node000016" class="edge">
<title>Node21&#45;&gt;Node16</title>
<g id="a_edge37_Node000021_Node000016"><a xlink:title=" ">
<path fill="none" stroke="#63b8ff" d="M723.44,-783.87C714.49,-772.74 704.96,-760.89 696.84,-750.8"/>
<polygon fill="#63b8ff" stroke="#63b8ff" points="720.83,-786.21 729.82,-791.81 726.28,-781.82 720.83,-786.21"/>
</a>
</g>
</g>
<!-- Node22 -->
<g id="Node000022" class="node">
<title>Node22</title>
<g id="a_Node000022"><a xlink:href="BranchCellMoisture_8h.html" target="_top" xlink:title="Defines the BranchCellMoisture class for managing moisture in branch terrain cells.">
<polygon fill="white" stroke="#666666" points="959.5,-756 785.5,-756 785.5,-693 959.5,-693 959.5,-756"/>
<text text-anchor="start" x="793.5" y="-744" font-family="Helvetica,sans-Serif" font-size="10.00">/home/runner/work/Weaver</text>
<text text-anchor="start" x="793.5" y="-733" font-family="Helvetica,sans-Serif" font-size="10.00">/Weaver/include/App/Model</text>
<text text-anchor="start" x="793.5" y="-722" font-family="Helvetica,sans-Serif" font-size="10.00">/IBM/Landscape/Map/SpatialTree</text>
<text text-anchor="start" x="793.5" y="-711" font-family="Helvetica,sans-Serif" font-size="10.00">/TerrainCells/PatchApplicator</text>
<text text-anchor="middle" x="872.5" y="-700" font-family="Helvetica,sans-Serif" font-size="10.00">/Moisture/BranchCellMoisture.h</text>
</a>
</g>
</g>
<!-- Node21&#45;&gt;Node22 -->
<g id="edge32_Node000021_Node000022" class="edge">
<title>Node21&#45;&gt;Node22</title>
<g id="a_edge32_Node000021_Node000022"><a xlink:title=" ">
<path fill="none" stroke="#63b8ff" d="M799.75,-785.3C811.4,-775.73 823.8,-765.53 835,-756.32"/>
<polygon fill="#63b8ff" stroke="#63b8ff" points="797.34,-782.75 791.84,-791.81 801.78,-788.16 797.34,-782.75"/>
</a>
</g>
</g>
<!-- Node23 -->
<g id="Node000023" class="node">
<title>Node23</title>
<g id="a_Node000023"><a xlink:href="CellMoisture_8h.html" target="_top" xlink:title="Concrete implementation of CellMoistureInterface representing the moisture and thermal state of a ter...">
<polygon fill="white" stroke="#666666" points="763,-651.5 548,-651.5 548,-599.5 763,-599.5 763,-651.5"/>
<text text-anchor="start" x="556" y="-639.5" font-family="Helvetica,sans-Serif" font-size="10.00">/home/runner/work/Weaver</text>
<text text-anchor="start" x="556" y="-628.5" font-family="Helvetica,sans-Serif" font-size="10.00">/Weaver/include/App/Model</text>
<text text-anchor="start" x="556" y="-617.5" font-family="Helvetica,sans-Serif" font-size="10.00">/IBM/Landscape/Map/TerrainCells</text>
<text text-anchor="middle" x="655.5" y="-606.5" font-family="Helvetica,sans-Serif" font-size="10.00">/PatchApplicator/Moisture/CellMoisture.h</text>
</a>
</g>
</g>
<!-- Node21&#45;&gt;Node23 -->
<g id="edge34_Node000021_Node000023" class="edge">
<title>Node21&#45;&gt;Node23</title>
<g id="a_edge34_Node000021_Node000023"><a xlink:title=" ">
<path fill="none" stroke="#63b8ff" d="M641.34,-791.56C611.6,-781.05 585.32,-768.72 576.5,-756 560.54,-733 564.69,-718.39 576.5,-693 584.22,-676.42 598.32,-662.5 612.51,-651.74"/>
<polygon fill="#63b8ff" stroke="#63b8ff" points="640.51,-794.98 651.11,-794.91 642.78,-788.36 640.51,-794.98"/>
</a>
</g>
</g>
<!-- Node22&#45;&gt;Node4 -->
<g id="edge33_Node000022_Node000004" class="edge">
<title>Node22&#45;&gt;Node4</title>
<g id="a_edge33_Node000022_Node000004"><a xlink:title=" ">
<path fill="none" stroke="#63b8ff" d="M923.91,-686.81C937.2,-677.19 951.44,-666.78 964.5,-657 1008.85,-623.79 1058.98,-584.71 1092.64,-558.23"/>
<polygon fill="#63b8ff" stroke="#63b8ff" points="921.84,-683.98 915.78,-692.67 925.94,-689.66 921.84,-683.98"/>
</a>
</g>
</g>
<!-- Node23&#45;&gt;Node14 -->
<g id="edge35_Node000023_Node000014" class="edge">
<title>Node23&#45;&gt;Node14</title>
<g id="a_edge35_Node000023_Node000014"><a xlink:title=" ">
<path fill="none" stroke="#63b8ff" d="M719.33,-595.16C744.87,-583.42 774.28,-569.89 800.07,-558.04"/>
<polygon fill="#63b8ff" stroke="#63b8ff" points="717.74,-592.04 710.11,-599.39 720.66,-598.4 717.74,-592.04"/>
</a>
</g>
</g>
<!-- Node23&#45;&gt;Node18 -->
<g id="edge36_Node000023_Node000018" class="edge">
<title>Node23&#45;&gt;Node18</title>
<g id="a_edge36_Node000023_Node000018"><a xlink:title=" ">
<path fill="none" stroke="#63b8ff" d="M658.43,-589.03C659.42,-576.95 660.51,-563.7 661.43,-552.61"/>
<polygon fill="#63b8ff" stroke="#63b8ff" points="654.91,-589.01 657.58,-599.27 661.89,-589.59 654.91,-589.01"/>
</a>
</g>
</g>
<!-- Node24&#45;&gt;Node16 -->
<g id="edge43_Node000024_Node000016" class="edge">
<title>Node24&#45;&gt;Node16</title>
<g id="a_edge43_Node000024_Node000016"><a xlink:title=" ">
<path fill="none" stroke="#63b8ff" d="M1174.36,-797.3C1163.95,-795.36 1153.55,-793.55 1143.5,-792 981.53,-766.98 937.23,-788.06 776.5,-756 768.85,-754.47 760.94,-752.6 753.09,-750.54"/>
<polygon fill="#63b8ff" stroke="#63b8ff" points="1173.84,-800.77 1184.32,-799.2 1175.15,-793.89 1173.84,-800.77"/>
</a>
</g>
</g>
<!-- Node25 -->
<g id="Node000025" class="node">
<title>Node25</title>
<g id="a_Node000025"><a xlink:href="BranchCellObstacle_8h.html" target="_top" xlink:title="Defines the BranchCellObstacle class for managing obstacles in branch terrain cells.">
<polygon fill="white" stroke="#666666" points="1618.5,-756 1444.5,-756 1444.5,-693 1618.5,-693 1618.5,-756"/>
<text text-anchor="start" x="1452.5" y="-744" font-family="Helvetica,sans-Serif" font-size="10.00">/home/runner/work/Weaver</text>
<text text-anchor="start" x="1452.5" y="-733" font-family="Helvetica,sans-Serif" font-size="10.00">/Weaver/include/App/Model</text>
<text text-anchor="start" x="1452.5" y="-722" font-family="Helvetica,sans-Serif" font-size="10.00">/IBM/Landscape/Map/SpatialTree</text>
<text text-anchor="start" x="1452.5" y="-711" font-family="Helvetica,sans-Serif" font-size="10.00">/TerrainCells/PatchApplicator</text>
<text text-anchor="middle" x="1531.5" y="-700" font-family="Helvetica,sans-Serif" font-size="10.00">/Obstacle/BranchCellObstacle.h</text>
</a>
</g>
</g>
<!-- Node24&#45;&gt;Node25 -->
<g id="edge39_Node000024_Node000025" class="edge">
<title>Node24&#45;&gt;Node25</title>
<g id="a_edge39_Node000024_Node000025"><a xlink:title=" ">
<path fill="none" stroke="#63b8ff" d="M1373.94,-788.14C1400.25,-777.68 1428.97,-766.26 1454.6,-756.07"/>
<polygon fill="#63b8ff" stroke="#63b8ff" points="1372.37,-785 1364.37,-791.94 1374.95,-791.5 1372.37,-785"/>
</a>
</g>
</g>
<!-- Node26 -->
<g id="Node000026" class="node">
<title>Node26</title>
<g id="a_Node000026"><a xlink:href="CellObstacle_8h.html" target="_top" xlink:title="Concrete implementation of the obstacle interface for terrain cells.">
<polygon fill="white" stroke="#666666" points="1426,-750.5 1211,-750.5 1211,-698.5 1426,-698.5 1426,-750.5"/>
<text text-anchor="start" x="1219" y="-738.5" font-family="Helvetica,sans-Serif" font-size="10.00">/home/runner/work/Weaver</text>
<text text-anchor="start" x="1219" y="-727.5" font-family="Helvetica,sans-Serif" font-size="10.00">/Weaver/include/App/Model</text>
<text text-anchor="start" x="1219" y="-716.5" font-family="Helvetica,sans-Serif" font-size="10.00">/IBM/Landscape/Map/TerrainCells</text>
<text text-anchor="middle" x="1318.5" y="-705.5" font-family="Helvetica,sans-Serif" font-size="10.00">/PatchApplicator/Obstacle/CellObstacle.h</text>
</a>
</g>
</g>
<!-- Node24&#45;&gt;Node26 -->
<g id="edge41_Node000024_Node000026" class="edge">
<title>Node24&#45;&gt;Node26</title>
<g id="a_edge41_Node000024_Node000026"><a xlink:title=" ">
<path fill="none" stroke="#63b8ff" d="M1300.37,-782.24C1303.77,-771.6 1307.35,-760.4 1310.42,-750.8"/>
<polygon fill="#63b8ff" stroke="#63b8ff" points="1297.02,-781.22 1297.31,-791.81 1303.69,-783.35 1297.02,-781.22"/>
</a>
</g>
</g>
<!-- Node25&#45;&gt;Node4 -->
<g id="edge40_Node000025_Node000004" class="edge">
<title>Node25&#45;&gt;Node4</title>
<g id="a_edge40_Node000025_Node000004"><a xlink:title=" ">
<path fill="none" stroke="#63b8ff" d="M1434.69,-689.45C1406.75,-678.4 1380.75,-666.54 1369.5,-657 1344.38,-635.71 1356.32,-614.44 1330.5,-594 1298.37,-568.57 1256.04,-552.65 1218.69,-542.79"/>
<polygon fill="#63b8ff" stroke="#63b8ff" points="1433.64,-692.8 1444.23,-693.16 1436.18,-686.27 1433.64,-692.8"/>
</a>
</g>
</g>
<!-- Node26&#45;&gt;Node14 -->
<g id="edge42_Node000026_Node000014" class="edge">
<title>Node26&#45;&gt;Node14</title>
<g id="a_edge42_Node000026_Node000014"><a xlink:title=" ">
<path fill="none" stroke="#63b8ff" d="M1201.18,-701.46C1161.17,-691.22 1117.08,-676.8 1079.5,-657 1040.99,-636.7 1041.06,-617.63 1004.5,-594 983.95,-580.72 960.35,-568.39 938.54,-558.05"/>
<polygon fill="#63b8ff" stroke="#63b8ff" points="1200.44,-704.88 1210.99,-703.9 1202.14,-698.09 1200.44,-704.88"/>
</a>
</g>
</g>
<!-- Node27&#45;&gt;Node16 -->
<g id="edge48_Node000027_Node000016" class="edge">
<title>Node27&#45;&gt;Node16</title>
<g id="a_edge48_Node000027_Node000016"><a xlink:title=" ">
<path fill="none" stroke="#63b8ff" d="M902.79,-880.89C898.86,-852.63 889.34,-815.87 866.5,-792 858.39,-783.52 806.54,-765.65 759.05,-750.57"/>
<polygon fill="#63b8ff" stroke="#63b8ff" points="899.33,-881.38 904.01,-890.88 906.27,-880.53 899.33,-881.38"/>
</a>
</g>
</g>
<!-- Node28 -->
<g id="Node000028" class="node">
<title>Node28</title>
<g id="a_Node000028"><a xlink:href="BranchCellResource_8h.html" target="_top" xlink:title="Defines the BranchCellResource class for managing resources in branch terrain cells.">
<polygon fill="white" stroke="#666666" points="1557,-657 1378,-657 1378,-594 1557,-594 1557,-657"/>
<text text-anchor="start" x="1386" y="-645" font-family="Helvetica,sans-Serif" font-size="10.00">/home/runner/work/Weaver</text>
<text text-anchor="start" x="1386" y="-634" font-family="Helvetica,sans-Serif" font-size="10.00">/Weaver/include/App/Model</text>
<text text-anchor="start" x="1386" y="-623" font-family="Helvetica,sans-Serif" font-size="10.00">/IBM/Landscape/Map/SpatialTree</text>
<text text-anchor="start" x="1386" y="-612" font-family="Helvetica,sans-Serif" font-size="10.00">/TerrainCells/PatchApplicator</text>
<text text-anchor="middle" x="1467.5" y="-601" font-family="Helvetica,sans-Serif" font-size="10.00">/Resources/BranchCellResource.h</text>
</a>
</g>
</g>
<!-- Node27&#45;&gt;Node28 -->
<g id="edge45_Node000027_Node000028" class="edge">
<title>Node27&#45;&gt;Node28</title>
<g id="a_edge45_Node000027_Node000028"><a xlink:title=" ">
<path fill="none" stroke="#63b8ff" d="M1023.35,-913.56C1210.66,-898.03 1561.92,-855.98 1627.5,-756 1642.86,-732.59 1643.04,-716.29 1627.5,-693 1611.3,-668.73 1584.41,-653.3 1557.25,-643.5"/>
<polygon fill="#63b8ff" stroke="#63b8ff" points="1022.86,-910.09 1013.18,-914.39 1023.43,-917.07 1022.86,-910.09"/>
</a>
</g>
</g>
<!-- Node29 -->
<g id="Node000029" class="node">
<title>Node29</title>
<g id="a_Node000029"><a xlink:href="CellResource_8h.html" target="_top" xlink:title="Implementation of a resource cell in a terrain.">
<polygon fill="white" stroke="#666666" points="631.5,-849.5 407.5,-849.5 407.5,-797.5 631.5,-797.5 631.5,-849.5"/>
<text text-anchor="start" x="415.5" y="-837.5" font-family="Helvetica,sans-Serif" font-size="10.00">/home/runner/work/Weaver</text>
<text text-anchor="start" x="415.5" y="-826.5" font-family="Helvetica,sans-Serif" font-size="10.00">/Weaver/include/App/Model</text>
<text text-anchor="start" x="415.5" y="-815.5" font-family="Helvetica,sans-Serif" font-size="10.00">/IBM/Landscape/Map/TerrainCells</text>
<text text-anchor="middle" x="519.5" y="-804.5" font-family="Helvetica,sans-Serif" font-size="10.00">/PatchApplicator/Resources/CellResource.h</text>
</a>
</g>
</g>
<!-- Node27&#45;&gt;Node29 -->
<g id="edge49_Node000027_Node000029" class="edge">
<title>Node27&#45;&gt;Node29</title>
<g id="a_edge49_Node000027_Node000029"><a xlink:title=" ">
<path fill="none" stroke="#63b8ff" d="M788.02,-891.98C734.06,-878.42 670.75,-862.51 619.17,-849.55"/>
<polygon fill="#63b8ff" stroke="#63b8ff" points="787.43,-895.44 797.98,-894.48 789.13,-888.65 787.43,-895.44"/>
</a>
</g>
</g>
<!-- Node28&#45;&gt;Node4 -->
<g id="edge47_Node000028_Node000004" class="edge">
<title>Node28&#45;&gt;Node4</title>
<g id="a_edge47_Node000028_Node000004"><a xlink:title=" ">
<path fill="none" stroke="#63b8ff" d="M1367.94,-595.29C1366.45,-594.86 1364.97,-594.43 1363.5,-594 1315.61,-580.11 1262.11,-564.77 1218.57,-552.32"/>
<polygon fill="#63b8ff" stroke="#63b8ff" points="1367.3,-598.75 1377.88,-598.18 1369.25,-592.03 1367.3,-598.75"/>
</a>
</g>
</g>
<!-- Node28&#45;&gt;Node5 -->
<g id="edge46_Node000028_Node000005" class="edge">
<title>Node28&#45;&gt;Node5</title>
<g id="a_edge46_Node000028_Node000005"><a xlink:title=" ">
<path fill="none" stroke="#63b8ff" d="M1406.39,-588.8C1358.51,-561.51 1289.81,-523.8 1227.5,-495 1121.45,-445.99 994.36,-398.71 916.54,-371.01"/>
<polygon fill="#63b8ff" stroke="#63b8ff" points="1404.66,-591.85 1415.08,-593.77 1408.14,-585.77 1404.66,-591.85"/>
</a>
</g>
</g>
<!-- Node29&#45;&gt;Node8 -->
<g id="edge50_Node000029_Node000008" class="edge">
<title>Node29&#45;&gt;Node8</title>
<g id="a_edge50_Node000029_Node000008"><a xlink:title=" ">
<path fill="none" stroke="#63b8ff" d="M439.92,-793.33C372.77,-762.98 287.5,-708.33 287.5,-626.5 287.5,-626.5 287.5,-626.5 287.5,-256 287.5,-200.55 329.08,-146.06 354.41,-118.01"/>
<polygon fill="#63b8ff" stroke="#63b8ff" points="438.7,-796.62 449.26,-797.45 441.53,-790.21 438.7,-796.62"/>
</a>
</g>
</g>
<!-- Node29&#45;&gt;Node14 -->
<g id="edge51_Node000029_Node000014" class="edge">
<title>Node29&#45;&gt;Node14</title>
<g id="a_edge51_Node000029_Node000014"><a xlink:title=" ">
<path fill="none" stroke="#63b8ff" d="M510.68,-787.26C500.48,-737.3 490.77,-646.16 539.5,-594 574.82,-556.2 719.13,-569.79 769.5,-558 772.77,-557.24 776.08,-556.42 779.42,-555.56"/>
<polygon fill="#63b8ff" stroke="#63b8ff" points="507.3,-788.24 512.84,-797.27 514.15,-786.76 507.3,-788.24"/>
</a>
</g>
</g>
<!-- Node29&#45;&gt;Node16 -->
<g id="edge52_Node000029_Node000016" class="edge">
<title>Node29&#45;&gt;Node16</title>
<g id="a_edge52_Node000029_Node000016"><a xlink:title=" ">
<path fill="none" stroke="#63b8ff" d="M569.02,-791.9C590.55,-778.6 615.45,-763.22 635.86,-750.61"/>
<polygon fill="#63b8ff" stroke="#63b8ff" points="567.01,-789.03 560.34,-797.27 570.69,-794.99 567.01,-789.03"/>
</a>
</g>
</g>
<!-- Node29&#45;&gt;Node19 -->
<g id="edge53_Node000029_Node000019" class="edge">
<title>Node29&#45;&gt;Node19</title>
<g id="a_edge53_Node000029_Node000019"><a xlink:title=" ">
<path fill="none" stroke="#63b8ff" d="M499.31,-788.38C476.22,-749.37 438.96,-686.41 418.37,-651.63"/>
<polygon fill="#63b8ff" stroke="#63b8ff" points="496.47,-790.45 504.57,-797.28 502.49,-786.89 496.47,-790.45"/>
</a>
</g>
</g>
</g>
</svg>
