<?xml version="1.0" encoding="UTF-8" standalone="no"?>
<!DOCTYPE svg PUBLIC "-//W3C//DTD SVG 1.1//EN"
 "http://www.w3.org/Graphics/SVG/1.1/DTD/svg11.dtd">
<!-- Generated by graphviz version 2.43.0 (0)
 -->
<!-- Title: Prey Pages: 1 -->
<svg width="382pt" height="181pt"
 viewBox="0.00 0.00 381.50 181.00" xmlns="http://www.w3.org/2000/svg" xmlns:xlink="http://www.w3.org/1999/xlink">

<svg id="main" version="1.1" xmlns="http://www.w3.org/2000/svg" xmlns:xlink="http://www.w3.org/1999/xlink" xml:space="preserve" onload="init(evt)">
<style type="text/css"><![CDATA[
.node, .edge {opacity: 0.7;}
.node.selected, .edge.selected {opacity: 1;}
.edge:hover path { stroke: red; }
.edge:hover polygon { stroke: red; fill: red; }
]]></style>
<script type="application/ecmascript" xlink:href="svg.min.js"/>
<svg id="graph" class="graph">
<g id="graph0" class="graph" transform="scale(1 1) rotate(0) translate(4 177)">
<title>Prey</title>
<!-- Node1 -->
<g id="Node000001" class="node">
<title>Node1</title>
<g id="a_Node000001"><a xlink:title="Represents a prey item in the ecosystem, including its species, growth stage, and available biomass.">
<polygon fill="#999999" stroke="#666666" points="157.5,-19 119.5,-19 119.5,0 157.5,0 157.5,-19"/>
<text text-anchor="middle" x="138.5" y="-7" font-family="Helvetica,sans-Serif" font-size="10.00">Prey</text>
</a>
</g>
</g>
<!-- Node2 -->
<g id="Node000002" class="node">
<title>Node2</title>
<g id="a_Node000002"><a xlink:href="classSpecies_1_1ID.html" target="_top" xlink:title="Unique identifier for a Species.">
<polygon fill="white" stroke="#666666" points="71,-107 0,-107 0,-88 71,-88 71,-107"/>
<text text-anchor="middle" x="35.5" y="-95" font-family="Helvetica,sans-Serif" font-size="10.00">Species::ID</text>
</a>
</g>
</g>
<!-- Node2&#45;&gt;Node1 -->
<g id="edge1_Node000001_Node000002" class="edge">
<title>Node2&#45;&gt;Node1</title>
<g id="a_edge1_Node000001_Node000002"><a xlink:title=" ">
<path fill="none" stroke="#9a32cd" stroke-dasharray="5,2" d="M48.91,-79.7C59.57,-67 75.35,-49.65 91.5,-37 100.35,-30.07 111.23,-23.81 120.29,-19.12"/>
<polygon fill="#9a32cd" stroke="#9a32cd" points="46.03,-77.68 42.39,-87.63 51.44,-82.12 46.03,-77.68"/>
</a>
</g>
<text text-anchor="middle" x="98" y="-51" font-family="Helvetica,sans-Serif" font-size="10.00" fill="grey"> id</text>
</g>
<!-- Node3 -->
<g id="Node000003" class="node">
<title>Node3</title>
<g id="a_Node000003"><a xlink:href="classInstar.html" target="_top" xlink:title="Represents a developmental stage (instar) of an animal in the simulation.">
<polygon fill="white" stroke="#666666" points="133.5,-107 89.5,-107 89.5,-88 133.5,-88 133.5,-107"/>
<text text-anchor="middle" x="111.5" y="-95" font-family="Helvetica,sans-Serif" font-size="10.00">Instar</text>
</a>
</g>
</g>
<!-- Node3&#45;&gt;Node1 -->
<g id="edge2_Node000001_Node000003" class="edge">
<title>Node3&#45;&gt;Node1</title>
<g id="a_edge2_Node000001_Node000003"><a xlink:title=" ">
<path fill="none" stroke="#9a32cd" stroke-dasharray="5,2" d="M108.31,-77.37C107.13,-65.33 107.18,-49.71 112.5,-37 115.44,-29.98 121.19,-23.81 126.54,-19.18"/>
<polygon fill="#9a32cd" stroke="#9a32cd" points="104.88,-78.17 109.68,-87.61 111.82,-77.24 104.88,-78.17"/>
</a>
</g>
<text text-anchor="middle" x="128" y="-51" font-family="Helvetica,sans-Serif" font-size="10.00" fill="grey"> instar</text>
</g>
<!-- Node4 -->
<g id="Node000004" class="node">
<title>Node4</title>
<g id="a_Node000004"><a xlink:href="classDryMass.html" target="_top" xlink:title="Represents dry mass in the ecosystem simulation.">
<polygon fill="white" stroke="#666666" points="245,-107 186,-107 186,-88 245,-88 245,-107"/>
<text text-anchor="middle" x="215.5" y="-95" font-family="Helvetica,sans-Serif" font-size="10.00">DryMass</text>
</a>
</g>
</g>
<!-- Node4&#45;&gt;Node1 -->
<g id="edge3_Node000001_Node000004" class="edge">
<title>Node4&#45;&gt;Node1</title>
<g id="a_edge3_Node000001_Node000004"><a xlink:title=" ">
<path fill="none" stroke="#9a32cd" stroke-dasharray="5,2" d="M183.51,-83.03C177.35,-79.44 171.32,-75.1 166.5,-70 152.38,-55.07 144.27,-31.72 140.7,-19.17"/>
<polygon fill="#9a32cd" stroke="#9a32cd" points="182.02,-86.21 192.5,-87.78 185.29,-80.02 182.02,-86.21"/>
</a>
</g>
<text text-anchor="middle" x="230" y="-62" font-family="Helvetica,sans-Serif" font-size="10.00" fill="grey"> foodDryMass</text>
<text text-anchor="middle" x="230" y="-51" font-family="Helvetica,sans-Serif" font-size="10.00" fill="grey">foodDryMassPerTimeStep</text>
<text text-anchor="middle" x="230" y="-40" font-family="Helvetica,sans-Serif" font-size="10.00" fill="grey">initialDryMass</text>
</g>
<!-- Node5 -->
<g id="Node000005" class="node">
<title>Node5</title>
<g id="a_Node000005"><a xlink:href="classPreciseDouble.html" target="_top" xlink:title="Class for precise double&#45;precision floating&#45;point arithmetic.">
<polygon fill="white" stroke="#666666" points="299.5,-173 213.5,-173 213.5,-154 299.5,-154 299.5,-173"/>
<text text-anchor="middle" x="256.5" y="-161" font-family="Helvetica,sans-Serif" font-size="10.00">PreciseDouble</text>
</a>
</g>
</g>
<!-- Node5&#45;&gt;Node4 -->
<g id="edge4_Node000004_Node000005" class="edge">
<title>Node5&#45;&gt;Node4</title>
<g id="a_edge4_Node000004_Node000005"><a xlink:title=" ">
<path fill="none" stroke="#9a32cd" stroke-dasharray="5,2" d="M244,-145.55C241.79,-142.41 239.54,-139.13 237.5,-136 231.25,-126.38 224.66,-114.96 220.35,-107.28"/>
<polygon fill="#9a32cd" stroke="#9a32cd" points="241.27,-147.75 249.96,-153.81 246.95,-143.65 241.27,-147.75"/>
</a>
</g>
<text text-anchor="middle" x="253" y="-128" font-family="Helvetica,sans-Serif" font-size="10.00" fill="grey"> value</text>
</g>
<!-- Node6 -->
<g id="Node000006" class="node">
<title>Node6</title>
<g id="a_Node000006"><a xlink:href="classDay.html" target="_top" xlink:title="Represents time in days using high&#45;precision floating point.">
<polygon fill="white" stroke="#666666" points="316.5,-107 280.5,-107 280.5,-88 316.5,-88 316.5,-107"/>
<text text-anchor="middle" x="298.5" y="-95" font-family="Helvetica,sans-Serif" font-size="10.00">Day</text>
</a>
</g>
</g>
<!-- Node5&#45;&gt;Node6 -->
<g id="edge6_Node000006_Node000005" class="edge">
<title>Node5&#45;&gt;Node6</title>
<g id="a_edge6_Node000006_Node000005"><a xlink:title=" ">
<path fill="none" stroke="#9a32cd" stroke-dasharray="5,2" d="M267.72,-145.41C275.74,-133.18 286.23,-117.2 292.66,-107.41"/>
<polygon fill="#9a32cd" stroke="#9a32cd" points="264.72,-143.59 262.16,-153.87 270.58,-147.43 264.72,-143.59"/>
</a>
</g>
<text text-anchor="middle" x="296" y="-128" font-family="Helvetica,sans-Serif" font-size="10.00" fill="grey"> value</text>
</g>
<!-- Node6&#45;&gt;Node1 -->
<g id="edge5_Node000001_Node000006" class="edge">
<title>Node6&#45;&gt;Node1</title>
<g id="a_edge5_Node000001_Node000006"><a xlink:title=" ">
<path fill="none" stroke="#9a32cd" stroke-dasharray="5,2" d="M302.37,-77.72C303.9,-64.67 303.37,-47.75 293.5,-37 275.5,-17.39 194.99,-12.28 157.64,-10.96"/>
<polygon fill="#9a32cd" stroke="#9a32cd" points="298.86,-77.51 300.69,-87.94 305.77,-78.65 298.86,-77.51"/>
</a>
</g>
<text text-anchor="middle" x="338.5" y="-51" font-family="Helvetica,sans-Serif" font-size="10.00" fill="grey"> handlingTime</text>
</g>
</g>
</svg>
</svg>

<style type='text/css'>
<![CDATA[
[data-mouse-over-selected='false'] { opacity: 0.7; }
[data-mouse-over-selected='true']  { opacity: 1.0; }
]]>
</style>
<script type="application/ecmascript"><![CDATA[
document.addEventListener('DOMContentLoaded', (event) => {
  highlightEdges();
  highlightAdjacentNodes();
});
]]></script>
</svg>
