<?xml version="1.0" encoding="UTF-8" standalone="no"?>
<!DOCTYPE svg PUBLIC "-//W3C//DTD SVG 1.1//EN"
 "http://www.w3.org/Graphics/SVG/1.1/DTD/svg11.dtd">
<!-- Generated by graphviz version 2.43.0 (0)
 -->
<!-- Title: LeafTerrainCell Pages: 1 -->
<!--zoomable 277 -->

<svg id="main" version="1.1" xmlns="http://www.w3.org/2000/svg" xmlns:xlink="http://www.w3.org/1999/xlink" xml:space="preserve" onload="init(evt)">
<style type="text/css"><![CDATA[
.node, .edge {opacity: 0.7;}
.node.selected, .edge.selected {opacity: 1;}
.edge:hover path { stroke: red; }
.edge:hover polygon { stroke: red; fill: red; }
]]></style>

<defs>
  <circle id="rim" cx="0" cy="0" r="7"/>
  <circle id="rim2" cx="0" cy="0" r="3.5"/>
  <g id="zoomPlus">
    <use xlink:href="#rim" fill="#404040"><set attributeName="fill" to="#808080" begin="zoomplus.mouseover" end="zoomplus.mouseout"/></use>
    <path d="M-4,0h8M0,-4v8" fill="none" stroke="white" stroke-width="1.5" pointer-events="none"/>
  </g>
  <g id="zoomMin">
    <use xlink:href="#rim" fill="#404040"><set attributeName="fill" to="#808080" begin="zoomminus.mouseover" end="zoomminus.mouseout"/></use>
    <path d="M-4,0h8" fill="none" stroke="white" stroke-width="1.5" pointer-events="none"/>
  </g>
  <g id="arrowUp" transform="translate(30 24)">
    <use xlink:href="#rim"/>
    <path pointer-events="none" fill="none" stroke="white" stroke-width="1.5" d="M0,-3.0v7 M-2.5,-0.5L0,-3.0L2.5,-0.5"/>
  </g>
  <g id="arrowRight" transform="rotate(90) translate(36 -43)">
    <use xlink:href="#rim"/>
    <path pointer-events="none" fill="none" stroke="white" stroke-width="1.5" d="M0,-3.0v7 M-2.5,-0.5L0,-3.0L2.5,-0.5"/>
  </g>
  <g id="arrowDown" transform="rotate(180) translate(-30 -48)">
    <use xlink:href="#rim"/>
    <path pointer-events="none" fill="none" stroke="white" stroke-width="1.5" d="M0,-3.0v7 M-2.5,-0.5L0,-3.0L2.5,-0.5"/>
  </g>
  <g id="arrowLeft" transform="rotate(270) translate(-36 17)">
    <use xlink:href="#rim"/>
    <path pointer-events="none" fill="none" stroke="white" stroke-width="1.5" d="M0,-3.0v7 M-2.5,-0.5L0,-3.0L2.5,-0.5"/>
  </g>
  <g id="resetDef">
    <use xlink:href="#rim2" fill="#404040"><set attributeName="fill" to="#808080" begin="reset.mouseover" end="reset.mouseout"/></use>
  </g>
</defs>
<script type="application/ecmascript">
var viewWidth = 1183;
var viewHeight = 277;
var sectionId = 'dynsection-1';
</script>
<script type="application/ecmascript" xlink:href="svg.min.js"/>
<svg id="graph" class="graph">
<g id="viewport">
<title>LeafTerrainCell</title>
<!-- Node1 -->
<g id="Node000001" class="node">
<title>Node1</title>
<g id="a_Node000001"><a xlink:title="Represents a leaf terrain cell in a spatial tree.">
<polygon fill="#999999" stroke="#666666" points="1168.5,-242 1079.5,-242 1079.5,-223 1168.5,-223 1168.5,-242"/>
<text text-anchor="middle" x="1124" y="-230" font-family="Helvetica,sans-Serif" font-size="10.00">LeafTerrainCell</text>
</a>
</g>
</g>
<!-- Node2 -->
<g id="Node000002" class="node">
<title>Node2</title>
<g id="a_Node000002"><a xlink:href="classSpatialTreeTerrainCell.html" target="_top" xlink:title="Represents a terrain cell in a spatial tree structure.">
<polygon fill="white" stroke="#666666" points="950,-217 828,-217 828,-198 950,-198 950,-217"/>
<text text-anchor="middle" x="889" y="-205" font-family="Helvetica,sans-Serif" font-size="10.00">SpatialTreeTerrainCell</text>
</a>
</g>
</g>
<!-- Node2&#45;&gt;Node1 -->
<g id="edge1_Node000001_Node000002" class="edge">
<title>Node2&#45;&gt;Node1</title>
<g id="a_edge1_Node000001_Node000002"><a xlink:title=" ">
<path fill="none" stroke="#63b8ff" d="M960.18,-215.03C998.95,-219.19 1045.89,-224.23 1079.39,-227.82"/>
<polygon fill="#63b8ff" stroke="#63b8ff" points="960.32,-211.53 950,-213.94 959.57,-218.49 960.32,-211.53"/>
</a>
</g>
</g>
<!-- Node14 -->
<g id="Node000014" class="node">
<title>Node14</title>
<g id="a_Node000014"><a xlink:href="classBranchTerrainCell.html" target="_top" xlink:title="Represents an internal node (branch) of the spatial tree in the landscape.">
<polygon fill="white" stroke="#666666" points="1175,-198 1073,-198 1073,-179 1175,-179 1175,-198"/>
<text text-anchor="middle" x="1124" y="-186" font-family="Helvetica,sans-Serif" font-size="10.00">BranchTerrainCell</text>
</a>
</g>
</g>
<!-- Node2&#45;&gt;Node14 -->
<g id="edge18_Node000014_Node000002" class="edge">
<title>Node2&#45;&gt;Node14</title>
<g id="a_edge18_Node000014_Node000002"><a xlink:title=" ">
<path fill="none" stroke="#63b8ff" d="M960.03,-201.79C996.29,-198.83 1039.74,-195.29 1072.65,-192.61"/>
<polygon fill="#63b8ff" stroke="#63b8ff" points="959.69,-198.31 950,-202.61 960.25,-205.28 959.69,-198.31"/>
</a>
</g>
</g>
<!-- Node3 -->
<g id="Node000003" class="node">
<title>Node3</title>
<g id="a_Node000003"><a xlink:href="classTerrainCell.html" target="_top" xlink:title="Represents a single cell in the landscape.">
<polygon fill="white" stroke="#666666" points="654.5,-204 586.5,-204 586.5,-185 654.5,-185 654.5,-204"/>
<text text-anchor="middle" x="620.5" y="-192" font-family="Helvetica,sans-Serif" font-size="10.00">TerrainCell</text>
</a>
</g>
</g>
<!-- Node3&#45;&gt;Node2 -->
<g id="edge2_Node000002_Node000003" class="edge">
<title>Node3&#45;&gt;Node2</title>
<g id="a_edge2_Node000002_Node000003"><a xlink:title=" ">
<path fill="none" stroke="#63b8ff" d="M664.87,-196.62C709.18,-198.78 778.34,-202.15 827.91,-204.57"/>
<polygon fill="#63b8ff" stroke="#63b8ff" points="664.87,-193.11 654.71,-196.12 664.53,-200.1 664.87,-193.11"/>
</a>
</g>
</g>
<!-- Node4 -->
<g id="Node000004" class="node">
<title>Node4</title>
<g id="a_Node000004"><a xlink:href="classPatchApplicator.html" target="_top" xlink:title="Applies patches to a TerrainCell including moisture, resources, obstacles, and habitat domains.">
<polygon fill="white" stroke="#666666" points="935,-123 843,-123 843,-104 935,-104 935,-123"/>
<text text-anchor="middle" x="889" y="-111" font-family="Helvetica,sans-Serif" font-size="10.00">PatchApplicator</text>
</a>
</g>
</g>
<!-- Node3&#45;&gt;Node4 -->
<g id="edge4_Node000004_Node000003" class="edge">
<title>Node3&#45;&gt;Node4</title>
<g id="a_edge4_Node000004_Node000003"><a xlink:title=" ">
<path fill="none" stroke="#9a32cd" stroke-dasharray="5,2" d="M664.77,-188.25C711.89,-181.14 784.01,-169.23 810,-159.5 834.44,-150.35 859.98,-133.72 874.92,-123.17"/>
<polygon fill="#9a32cd" stroke="#9a32cd" points="664.2,-184.8 654.83,-189.74 665.24,-191.72 664.2,-184.8"/>
</a>
</g>
<text text-anchor="middle" x="762.5" y="-182.5" font-family="Helvetica,sans-Serif" font-size="10.00" fill="grey"> owner</text>
</g>
<!-- Node4&#45;&gt;Node3 -->
<g id="edge3_Node000003_Node000004" class="edge">
<title>Node4&#45;&gt;Node3</title>
<g id="a_edge3_Node000003_Node000004"><a xlink:title=" ">
<path fill="none" stroke="#9a32cd" stroke-dasharray="5,2" d="M832.78,-123.08C790.68,-130.68 736.42,-141.2 715,-148.5 686.75,-158.13 656.07,-174.45 637.83,-184.84"/>
<polygon fill="#9a32cd" stroke="#9a32cd" points="833.42,-126.52 842.65,-121.31 832.19,-119.63 833.42,-126.52"/>
</a>
</g>
<text text-anchor="middle" x="762.5" y="-151.5" font-family="Helvetica,sans-Serif" font-size="10.00" fill="grey"> patchApplicator</text>
</g>
<!-- Node5 -->
<g id="Node000005" class="node">
<title>Node5</title>
<g id="a_Node000005"><a xlink:href="classCellMoistureInterface.html" target="_top" xlink:title="Base interface representing the hydrological and thermal properties of a terrain cell.">
<polygon fill="white" stroke="#666666" points="681.5,-124 559.5,-124 559.5,-105 681.5,-105 681.5,-124"/>
<text text-anchor="middle" x="620.5" y="-112" font-family="Helvetica,sans-Serif" font-size="10.00">CellMoistureInterface</text>
</a>
</g>
</g>
<!-- Node5&#45;&gt;Node4 -->
<g id="edge5_Node000004_Node000005" class="edge">
<title>Node5&#45;&gt;Node4</title>
<g id="a_edge5_Node000004_Node000005"><a xlink:title=" ">
<path fill="none" stroke="#9a32cd" stroke-dasharray="5,2" d="M691.9,-114.24C739.62,-114.06 801.27,-113.83 842.6,-113.67"/>
<polygon fill="#9a32cd" stroke="#9a32cd" points="691.63,-110.74 681.64,-114.27 691.65,-117.74 691.63,-110.74"/>
</a>
</g>
<text text-anchor="middle" x="762.5" y="-117.5" font-family="Helvetica,sans-Serif" font-size="10.00" fill="grey"> cellMoisture</text>
</g>
<!-- Node6 -->
<g id="Node000006" class="node">
<title>Node6</title>
<g id="a_Node000006"><a xlink:href="classCellElement.html" target="_top" xlink:title="Base class for any modifiable element contained within a terrain cell.">
<polygon fill="white" stroke="#666666" points="287,-81 211,-81 211,-62 287,-62 287,-81"/>
<text text-anchor="middle" x="249" y="-69" font-family="Helvetica,sans-Serif" font-size="10.00">CellElement</text>
</a>
</g>
</g>
<!-- Node6&#45;&gt;Node5 -->
<g id="edge6_Node000005_Node000006" class="edge">
<title>Node6&#45;&gt;Node5</title>
<g id="a_edge6_Node000005_Node000006"><a xlink:title=" ">
<path fill="none" stroke="#63b8ff" d="M297.36,-77.01C364.18,-84.79 486.14,-98.98 559.31,-107.5"/>
<polygon fill="#63b8ff" stroke="#63b8ff" points="297.46,-73.5 287.12,-75.82 296.65,-80.45 297.46,-73.5"/>
</a>
</g>
</g>
<!-- Node9 -->
<g id="Node000009" class="node">
<title>Node9</title>
<g id="a_Node000009"><a xlink:href="classCellObstacleInterface.html" target="_top" xlink:title="Interface for managing obstacles in a terrain cell.">
<polygon fill="white" stroke="#666666" points="681.5,-87 559.5,-87 559.5,-68 681.5,-68 681.5,-87"/>
<text text-anchor="middle" x="620.5" y="-75" font-family="Helvetica,sans-Serif" font-size="10.00">CellObstacleInterface</text>
</a>
</g>
</g>
<!-- Node6&#45;&gt;Node9 -->
<g id="edge10_Node000009_Node000006" class="edge">
<title>Node6&#45;&gt;Node9</title>
<g id="a_edge10_Node000009_Node000006"><a xlink:title=" ">
<path fill="none" stroke="#63b8ff" d="M297.36,-72.27C364.18,-73.35 486.14,-75.33 559.31,-76.52"/>
<polygon fill="#63b8ff" stroke="#63b8ff" points="297.18,-68.77 287.12,-72.1 297.06,-75.76 297.18,-68.77"/>
</a>
</g>
</g>
<!-- Node10 -->
<g id="Node000010" class="node">
<title>Node10</title>
<g id="a_Node000010"><a xlink:href="classCellHabitatDomainInterface.html" target="_top" xlink:title="Represents the habitat&#45;domain information associated with a terrain cell.">
<polygon fill="white" stroke="#666666" points="697,-50 544,-50 544,-31 697,-31 697,-50"/>
<text text-anchor="middle" x="620.5" y="-38" font-family="Helvetica,sans-Serif" font-size="10.00">CellHabitatDomainInterface</text>
</a>
</g>
</g>
<!-- Node6&#45;&gt;Node10 -->
<g id="edge12_Node000010_Node000006" class="edge">
<title>Node6&#45;&gt;Node10</title>
<g id="a_edge12_Node000010_Node000006"><a xlink:title=" ">
<path fill="none" stroke="#63b8ff" d="M297.44,-67.52C359.74,-62.29 469.86,-53.05 543.76,-46.85"/>
<polygon fill="#63b8ff" stroke="#63b8ff" points="296.79,-64.06 287.12,-68.39 297.38,-71.04 296.79,-64.06"/>
</a>
</g>
</g>
<!-- Node7 -->
<g id="Node000007" class="node">
<title>Node7</title>
<g id="a_Node000007"><a xlink:href="classWetMass.html" target="_top" xlink:title="Represents wet mass in the ecosystem simulation.">
<polygon fill="white" stroke="#666666" points="279.5,-135 218.5,-135 218.5,-116 279.5,-116 279.5,-135"/>
<text text-anchor="middle" x="249" y="-123" font-family="Helvetica,sans-Serif" font-size="10.00">WetMass</text>
</a>
</g>
</g>
<!-- Node7&#45;&gt;Node5 -->
<g id="edge7_Node000005_Node000007" class="edge">
<title>Node7&#45;&gt;Node5</title>
<g id="a_edge7_Node000005_Node000007"><a xlink:title=" ">
<path fill="none" stroke="#9a32cd" stroke-dasharray="5,2" d="M289.82,-124.31C354.64,-122.38 483.35,-118.55 559.35,-116.29"/>
<polygon fill="#9a32cd" stroke="#9a32cd" points="289.5,-120.82 279.61,-124.62 289.71,-127.82 289.5,-120.82"/>
</a>
</g>
<text text-anchor="middle" x="444.5" y="-125.5" font-family="Helvetica,sans-Serif" font-size="10.00" fill="grey"> totalMaximumResourceCapacity</text>
</g>
<!-- Node8 -->
<g id="Node000008" class="node">
<title>Node8</title>
<g id="a_Node000008"><a xlink:href="classPreciseDouble.html" target="_top" xlink:title="Class for precise double&#45;precision floating&#45;point arithmetic.">
<polygon fill="white" stroke="#666666" points="86,-201 0,-201 0,-182 86,-182 86,-201"/>
<text text-anchor="middle" x="43" y="-189" font-family="Helvetica,sans-Serif" font-size="10.00">PreciseDouble</text>
</a>
</g>
</g>
<!-- Node8&#45;&gt;Node3 -->
<g id="edge15_Node000003_Node000008" class="edge">
<title>Node8&#45;&gt;Node3</title>
<g id="a_edge15_Node000003_Node000008"><a xlink:title=" ">
<path fill="none" stroke="#9a32cd" stroke-dasharray="5,2" d="M73.56,-205.21C95.07,-214.4 125.18,-225.67 153,-230.5 316.4,-258.85 362.37,-247.45 526,-220.5 548.28,-216.83 572.85,-209.88 591.21,-204.09"/>
<polygon fill="#9a32cd" stroke="#9a32cd" points="74.88,-201.97 64.32,-201.16 72.08,-208.38 74.88,-201.97"/>
</a>
</g>
<text text-anchor="middle" x="249" y="-260.5" font-family="Helvetica,sans-Serif" font-size="10.00" fill="grey"> hyperVolume</text>
<text text-anchor="middle" x="249" y="-249.5" font-family="Helvetica,sans-Serif" font-size="10.00" fill="grey">size</text>
</g>
<!-- Node8&#45;&gt;Node7 -->
<g id="edge8_Node000007_Node000008" class="edge">
<title>Node8&#45;&gt;Node7</title>
<g id="a_edge8_Node000007_Node000008"><a xlink:title=" ">
<path fill="none" stroke="#9a32cd" stroke-dasharray="5,2" d="M72.09,-177.45C93.74,-167.09 124.68,-153.33 153,-144.5 174.52,-137.79 199.54,-132.9 218.5,-129.76"/>
<polygon fill="#9a32cd" stroke="#9a32cd" points="70.3,-174.42 62.83,-181.93 73.36,-180.72 70.3,-174.42"/>
</a>
</g>
<text text-anchor="middle" x="119.5" y="-165.5" font-family="Helvetica,sans-Serif" font-size="10.00" fill="grey"> value</text>
</g>
<!-- Node9&#45;&gt;Node4 -->
<g id="edge9_Node000004_Node000009" class="edge">
<title>Node9&#45;&gt;Node4</title>
<g id="a_edge9_Node000004_Node000009"><a xlink:title=" ">
<path fill="none" stroke="#9a32cd" stroke-dasharray="5,2" d="M692.14,-84.71C727.59,-88.58 771.14,-93.75 810,-99.5 820.62,-101.07 832,-102.98 842.71,-104.89"/>
<polygon fill="#9a32cd" stroke="#9a32cd" points="692.22,-81.19 681.9,-83.59 691.46,-88.15 692.22,-81.19"/>
</a>
</g>
<text text-anchor="middle" x="762.5" y="-102.5" font-family="Helvetica,sans-Serif" font-size="10.00" fill="grey"> cellObstacle</text>
</g>
<!-- Node10&#45;&gt;Node4 -->
<g id="edge11_Node000004_Node000010" class="edge">
<title>Node10&#45;&gt;Node4</title>
<g id="a_edge11_Node000004_Node000010"><a xlink:title=" ">
<path fill="none" stroke="#9a32cd" stroke-dasharray="5,2" d="M707.09,-49.94C739.83,-54.98 777.17,-62.49 810,-73.5 832.94,-81.19 857.47,-94.76 872.77,-103.94"/>
<polygon fill="#9a32cd" stroke="#9a32cd" points="707.5,-46.46 697.09,-48.45 706.47,-53.38 707.5,-46.46"/>
</a>
</g>
<text text-anchor="middle" x="762.5" y="-76.5" font-family="Helvetica,sans-Serif" font-size="10.00" fill="grey"> cellHabitatDomain</text>
</g>
<!-- Node11 -->
<g id="Node000011" class="node">
<title>Node11</title>
<g id="a_Node000011"><a xlink:href="classCustomIndexedVector.html" target="_top" xlink:title=" ">
<polygon fill="white" stroke="#666666" points="345,-41 153,-41 153,0 345,0 345,-41"/>
<text text-anchor="start" x="161" y="-29" font-family="Helvetica,sans-Serif" font-size="10.00">CustomIndexedVector</text>
<text text-anchor="start" x="161" y="-18" font-family="Helvetica,sans-Serif" font-size="10.00">&lt; AnimalSpeciesID, CustomIndexed</text>
<text text-anchor="middle" x="249" y="-7" font-family="Helvetica,sans-Serif" font-size="10.00">Vector&lt; Instar, bool &gt; &gt;</text>
</a>
</g>
</g>
<!-- Node11&#45;&gt;Node10 -->
<g id="edge13_Node000010_Node000011" class="edge">
<title>Node11&#45;&gt;Node10</title>
<g id="a_edge13_Node000010_Node000011"><a xlink:title=" ">
<path fill="none" stroke="#9a32cd" stroke-dasharray="5,2" d="M355.25,-16.03C406.83,-15.08 469.8,-15.75 526,-21.5 544.29,-23.37 564.3,-27.19 581.1,-30.92"/>
<polygon fill="#9a32cd" stroke="#9a32cd" points="355.01,-12.54 345.09,-16.25 355.16,-19.54 355.01,-12.54"/>
</a>
</g>
<text text-anchor="middle" x="444.5" y="-24.5" font-family="Helvetica,sans-Serif" font-size="10.00" fill="grey"> habitatDomainStatus</text>
</g>
<!-- Node12 -->
<g id="Node000012" class="node">
<title>Node12</title>
<g id="a_Node000012"><a xlink:href="classPointMap.html" target="_top" xlink:title="Represents a point in a discrete map coordinate system.">
<polygon fill="white" stroke="#666666" points="280,-221 218,-221 218,-202 280,-202 280,-221"/>
<text text-anchor="middle" x="249" y="-209" font-family="Helvetica,sans-Serif" font-size="10.00">PointMap</text>
</a>
</g>
</g>
<!-- Node12&#45;&gt;Node3 -->
<g id="edge14_Node000003_Node000012" class="edge">
<title>Node12&#45;&gt;Node3</title>
<g id="a_edge14_Node000003_Node000012"><a xlink:title=" ">
<path fill="none" stroke="#9a32cd" stroke-dasharray="5,2" d="M290.5,-209.64C364.16,-206.25 518.7,-199.14 586.47,-196.02"/>
<polygon fill="#9a32cd" stroke="#9a32cd" points="290.07,-206.15 280.24,-210.11 290.39,-213.15 290.07,-206.15"/>
</a>
</g>
<text text-anchor="middle" x="444.5" y="-208.5" font-family="Helvetica,sans-Serif" font-size="10.00" fill="grey"> position</text>
</g>
<!-- Node13 -->
<g id="Node000013" class="node">
<title>Node13</title>
<g id="a_Node000013"><a xlink:href="classCustomIndexedVector.html" target="_top" xlink:title="A vector container indexed by a custom type with bounds checking.">
<polygon fill="white" stroke="#666666" points="326.5,-183.5 171.5,-183.5 171.5,-153.5 326.5,-153.5 326.5,-183.5"/>
<text text-anchor="start" x="179.5" y="-171.5" font-family="Helvetica,sans-Serif" font-size="10.00">CustomIndexedVector</text>
<text text-anchor="middle" x="249" y="-160.5" font-family="Helvetica,sans-Serif" font-size="10.00">&lt; IndexType, ContentType &gt;</text>
</a>
</g>
</g>
<!-- Node13&#45;&gt;Node3 -->
<g id="edge16_Node000003_Node000013" class="edge">
<title>Node13&#45;&gt;Node3</title>
<g id="a_edge16_Node000003_Node000013"><a xlink:title=" ">
<path fill="none" stroke="#9a32cd" stroke-dasharray="5,2" d="M336.83,-171.82C391.23,-174.25 462.78,-178.07 526,-183.5 546.03,-185.22 568.4,-187.83 586.23,-190.07"/>
<polygon fill="#9a32cd" stroke="#9a32cd" points="336.68,-168.31 326.53,-171.37 336.37,-175.3 336.68,-168.31"/>
</a>
</g>
<text text-anchor="middle" x="444.5" y="-186.5" font-family="Helvetica,sans-Serif" font-size="10.00" fill="grey"> animals</text>
</g>
<!-- Node14&#45;&gt;Node2 -->
<g id="edge17_Node000002_Node000014" class="edge">
<title>Node14&#45;&gt;Node2</title>
<g id="a_edge17_Node000002_Node000014"><a xlink:title=" ">
<path fill="none" stroke="#9a32cd" stroke-dasharray="5,2" d="M1062.49,-180.76C1033.72,-178.46 998.92,-177.67 968,-182.5 949.17,-185.44 928.69,-192.16 913.43,-197.88"/>
<polygon fill="#9a32cd" stroke="#9a32cd" points="1062.54,-184.28 1072.8,-181.67 1063.15,-177.31 1062.54,-184.28"/>
</a>
</g>
<text text-anchor="middle" x="1011.5" y="-185.5" font-family="Helvetica,sans-Serif" font-size="10.00" fill="grey"> parentTerrainCell</text>
</g>
</g>
</svg>

<g id="navigator" transform="translate(0 0)" fill="#404254">
  <rect fill="#f2f5e9" fill-opacity="0.5" stroke="#606060" stroke-width=".5" x="0" y="0" width="60" height="60"/>
  <use id="zoomplus" xlink:href="#zoomPlus" x="17" y="9" onmousedown="handleZoom(evt,'in')"/>
  <use id="zoomminus" xlink:href="#zoomMin" x="42" y="9" onmousedown="handleZoom(evt,'out')"/>
  <use id="reset" xlink:href="#resetDef" x="30" y="36" onmousedown="handleReset()"/>
   <use id="arrowup" xlink:href="#arrowUp" x="0" y="0" onmousedown="handlePan(0,-1)"/>
  <use id="arrowright" xlink:href="#arrowRight" x="0" y="0" onmousedown="handlePan(1,0)"/>
  <use id="arrowdown" xlink:href="#arrowDown" x="0" y="0" onmousedown="handlePan(0,1)"/>
  <use id="arrowleft" xlink:href="#arrowLeft" x="0" y="0" onmousedown="handlePan(-1,0)"/>
</g>
<svg viewBox="0 0 15 15" width="100%" height="30px" preserveAspectRatio="xMaxYMin meet">
 <g id="arrow_out" transform="scale(0.3 0.3)">
  <a xlink:href="classLeafTerrainCell__coll__graph_org.svg" target="_base">
   <rect id="button" ry="5" rx="5" y="6" x="6" height="38" width="38"
        fill="#f2f5e9" fill-opacity="0.5" stroke="#606060" stroke-width="1.0"/>
   <path id="arrow"
     d="M 11.500037,31.436501 C 11.940474,20.09759 22.043105,11.32322 32.158766,21.979434 L 37.068811,17.246167 C 37.068811,17.246167 37.088388,32 37.088388,32 L 22.160133,31.978069 C 22.160133,31.978069 26.997745,27.140456 26.997745,27.140456 C 18.528582,18.264221 13.291696,25.230495 11.500037,31.436501 z"
     style="fill:#404040;"/>
  </a>
 </g>
</svg>

<style type='text/css'>
<![CDATA[
[data-mouse-over-selected='false'] { opacity: 0.7; }
[data-mouse-over-selected='true']  { opacity: 1.0; }
]]>
</style>
<script type="application/ecmascript"><![CDATA[
document.addEventListener('DOMContentLoaded', (event) => {
  highlightEdges();
  highlightAdjacentNodes();
});
]]></script>
</svg>
