<?xml version="1.0" encoding="UTF-8" standalone="no"?>
<!DOCTYPE svg PUBLIC "-//W3C//DTD SVG 1.1//EN"
 "http://www.w3.org/Graphics/SVG/1.1/DTD/svg11.dtd">
<!-- Generated by graphviz version 2.43.0 (0)
 -->
<!-- Title: HabitatDomainSource Pages: 1 -->
<svg width="467pt" height="86pt"
 viewBox="0.00 0.00 467.00 86.00" xmlns="http://www.w3.org/2000/svg" xmlns:xlink="http://www.w3.org/1999/xlink">
<g id="graph0" class="graph" transform="scale(1 1) rotate(0) translate(4 82)">
<title>HabitatDomainSource</title>
<!-- Node1 -->
<g id="Node000001" class="node">
<title>Node1</title>
<g id="a_Node000001"><a xlink:title="Represents habitat domain information for animals in the landscape.">
<polygon fill="#999999" stroke="#666666" points="459,-54 335,-54 335,-35 459,-35 459,-54"/>
<text text-anchor="middle" x="397" y="-42" font-family="Helvetica,sans-Serif" font-size="10.00">HabitatDomainSource</text>
</a>
</g>
</g>
<!-- Node2 -->
<g id="Node000002" class="node">
<title>Node2</title>
<g id="a_Node000002"><a xlink:href="classPathSource.html" target="_top" xlink:title="Abstract base class for landscape data sources.">
<polygon fill="white" stroke="#666666" points="131.5,-78 60.5,-78 60.5,-59 131.5,-59 131.5,-78"/>
<text text-anchor="middle" x="96" y="-66" font-family="Helvetica,sans-Serif" font-size="10.00">PathSource</text>
</a>
</g>
</g>
<!-- Node2&#45;&gt;Node1 -->
<g id="edge1_Node000001_Node000002" class="edge">
<title>Node2&#45;&gt;Node1</title>
<g id="a_edge1_Node000001_Node000002"><a xlink:title=" ">
<path fill="none" stroke="#63b8ff" d="M141.7,-64.91C193,-60.79 277.43,-54.02 334.81,-49.41"/>
<polygon fill="#63b8ff" stroke="#63b8ff" points="141.28,-61.43 131.59,-65.72 141.84,-68.41 141.28,-61.43"/>
</a>
</g>
</g>
<!-- Node3 -->
<g id="Node000003" class="node">
<title>Node3</title>
<g id="a_Node000003"><a xlink:href="classCustomIndexedVector.html" target="_top" xlink:title=" ">
<polygon fill="white" stroke="#666666" points="192,-41 0,-41 0,0 192,0 192,-41"/>
<text text-anchor="start" x="8" y="-29" font-family="Helvetica,sans-Serif" font-size="10.00">CustomIndexedVector</text>
<text text-anchor="start" x="8" y="-18" font-family="Helvetica,sans-Serif" font-size="10.00">&lt; AnimalSpeciesID, CustomIndexed</text>
<text text-anchor="middle" x="96" y="-7" font-family="Helvetica,sans-Serif" font-size="10.00">Vector&lt; Instar, bool &gt; &gt;</text>
</a>
</g>
</g>
<!-- Node3&#45;&gt;Node1 -->
<g id="edge2_Node000001_Node000003" class="edge">
<title>Node3&#45;&gt;Node1</title>
<g id="a_edge2_Node000001_Node000003"><a xlink:title=" ">
<path fill="none" stroke="#9a32cd" stroke-dasharray="5,2" d="M202.23,-26.7C238.61,-29.1 279.62,-32.1 317,-35.5 322.77,-36.03 328.78,-36.62 334.79,-37.25"/>
<polygon fill="#9a32cd" stroke="#9a32cd" points="202.3,-23.2 192.1,-26.04 201.85,-30.18 202.3,-23.2"/>
</a>
</g>
<text text-anchor="middle" x="263.5" y="-38.5" font-family="Helvetica,sans-Serif" font-size="10.00" fill="grey"> habitatDomainStatus</text>
</g>
</g>
</svg>
