<?xml version="1.0" encoding="UTF-8" standalone="no"?>
<!DOCTYPE svg PUBLIC "-//W3C//DTD SVG 1.1//EN"
 "http://www.w3.org/Graphics/SVG/1.1/DTD/svg11.dtd">
<!-- Generated by graphviz version 2.43.0 (0)
 -->
<!-- Title: LeafPatchApplicator Pages: 1 -->
<svg width="1403pt" height="261pt"
 viewBox="0.00 0.00 1403.00 260.50" xmlns="http://www.w3.org/2000/svg" xmlns:xlink="http://www.w3.org/1999/xlink">
<g id="graph0" class="graph" transform="scale(1 1) rotate(0) translate(4 256.5)">
<title>LeafPatchApplicator</title>
<!-- Node1 -->
<g id="Node000001" class="node">
<title>Node1</title>
<g id="a_Node000001"><a xlink:title="Concrete implementation of SpatialTreePatchApplicator for leaf nodes.">
<polygon fill="#999999" stroke="#666666" points="1395,-175 1282,-175 1282,-156 1395,-156 1395,-175"/>
<text text-anchor="middle" x="1338.5" y="-163" font-family="Helvetica,sans-Serif" font-size="10.00">LeafPatchApplicator</text>
</a>
</g>
</g>
<!-- Node2 -->
<g id="Node000002" class="node">
<title>Node2</title>
<g id="a_Node000002"><a xlink:href="classSpatialTreePatchApplicator.html" target="_top" xlink:title="Abstract class for applying environmental patches to a spatial tree of terrain cells.">
<polygon fill="white" stroke="#666666" points="1245,-156 1099,-156 1099,-137 1245,-137 1245,-156"/>
<text text-anchor="middle" x="1172" y="-144" font-family="Helvetica,sans-Serif" font-size="10.00">SpatialTreePatchApplicator</text>
</a>
</g>
</g>
<!-- Node2&#45;&gt;Node1 -->
<g id="edge1_Node000001_Node000002" class="edge">
<title>Node2&#45;&gt;Node1</title>
<g id="a_edge1_Node000001_Node000002"><a xlink:title=" ">
<path fill="none" stroke="#63b8ff" d="M1255.25,-156C1264.22,-157.04 1273.19,-158.07 1281.73,-159.06"/>
<polygon fill="#63b8ff" stroke="#63b8ff" points="1255.49,-152.5 1245.15,-154.83 1254.68,-159.46 1255.49,-152.5"/>
</a>
</g>
</g>
<!-- Node3 -->
<g id="Node000003" class="node">
<title>Node3</title>
<g id="a_Node000003"><a xlink:href="classPatchApplicator.html" target="_top" xlink:title="Applies patches to a TerrainCell including moisture, resources, obstacles, and habitat domains.">
<polygon fill="white" stroke="#666666" points="951.5,-120 859.5,-120 859.5,-101 951.5,-101 951.5,-120"/>
<text text-anchor="middle" x="905.5" y="-108" font-family="Helvetica,sans-Serif" font-size="10.00">PatchApplicator</text>
</a>
</g>
</g>
<!-- Node3&#45;&gt;Node2 -->
<g id="edge2_Node000002_Node000003" class="edge">
<title>Node3&#45;&gt;Node2</title>
<g id="a_edge2_Node000002_Node000003"><a xlink:title=" ">
<path fill="none" stroke="#63b8ff" d="M961.63,-118C1002.16,-123.52 1057.52,-131.05 1101.14,-136.99"/>
<polygon fill="#63b8ff" stroke="#63b8ff" points="962.05,-114.53 951.67,-116.65 961.11,-121.46 962.05,-114.53"/>
</a>
</g>
</g>
<!-- Node4 -->
<g id="Node000004" class="node">
<title>Node4</title>
<g id="a_Node000004"><a xlink:href="classTerrainCell.html" target="_top" xlink:title="Represents a single cell in the landscape.">
<polygon fill="white" stroke="#666666" points="1206,-96 1138,-96 1138,-77 1206,-77 1206,-96"/>
<text text-anchor="middle" x="1172" y="-84" font-family="Helvetica,sans-Serif" font-size="10.00">TerrainCell</text>
</a>
</g>
</g>
<!-- Node3&#45;&gt;Node4 -->
<g id="edge4_Node000004_Node000003" class="edge">
<title>Node3&#45;&gt;Node4</title>
<g id="a_edge4_Node000004_Node000003"><a xlink:title=" ">
<path fill="none" stroke="#9a32cd" stroke-dasharray="5,2" d="M962.06,-107.59C996.38,-105.56 1041.3,-102.51 1081,-98.5 1099.82,-96.6 1120.77,-93.84 1137.72,-91.45"/>
<polygon fill="#9a32cd" stroke="#9a32cd" points="961.54,-104.11 951.76,-108.18 961.95,-111.1 961.54,-104.11"/>
</a>
</g>
<text text-anchor="middle" x="1041" y="-107.5" font-family="Helvetica,sans-Serif" font-size="10.00" fill="grey"> patchApplicator</text>
</g>
<!-- Node4&#45;&gt;Node3 -->
<g id="edge3_Node000003_Node000004" class="edge">
<title>Node4&#45;&gt;Node3</title>
<g id="a_edge3_Node000003_Node000004"><a xlink:title=" ">
<path fill="none" stroke="#9a32cd" stroke-dasharray="5,2" d="M1127.76,-83.99C1093.29,-82.66 1043.87,-82.23 1001,-87.5 979.55,-90.14 955.92,-95.89 937.66,-100.98"/>
<polygon fill="#9a32cd" stroke="#9a32cd" points="1127.81,-87.5 1137.95,-84.43 1128.11,-80.5 1127.81,-87.5"/>
</a>
</g>
<text text-anchor="middle" x="1041" y="-90.5" font-family="Helvetica,sans-Serif" font-size="10.00" fill="grey"> owner</text>
</g>
<!-- Node5 -->
<g id="Node000005" class="node">
<title>Node5</title>
<g id="a_Node000005"><a xlink:href="classPointMap.html" target="_top" xlink:title="Represents a point in a discrete map coordinate system.">
<polygon fill="white" stroke="#666666" points="936.5,-19 874.5,-19 874.5,0 936.5,0 936.5,-19"/>
<text text-anchor="middle" x="905.5" y="-7" font-family="Helvetica,sans-Serif" font-size="10.00">PointMap</text>
</a>
</g>
</g>
<!-- Node5&#45;&gt;Node4 -->
<g id="edge5_Node000004_Node000005" class="edge">
<title>Node5&#45;&gt;Node4</title>
<g id="a_edge5_Node000004_Node000005"><a xlink:title=" ">
<path fill="none" stroke="#9a32cd" stroke-dasharray="5,2" d="M946.8,-14.4C982.65,-19.45 1036.19,-28.7 1081,-43.5 1107.64,-52.3 1136.6,-67.18 1154.28,-76.92"/>
<polygon fill="#9a32cd" stroke="#9a32cd" points="947.11,-10.91 936.73,-13.02 946.16,-17.84 947.11,-10.91"/>
</a>
</g>
<text text-anchor="middle" x="1041" y="-46.5" font-family="Helvetica,sans-Serif" font-size="10.00" fill="grey"> position</text>
</g>
<!-- Node6 -->
<g id="Node000006" class="node">
<title>Node6</title>
<g id="a_Node000006"><a xlink:href="classPreciseDouble.html" target="_top" xlink:title="Class for precise double&#45;precision floating&#45;point arithmetic.">
<polygon fill="white" stroke="#666666" points="86,-217 0,-217 0,-198 86,-198 86,-217"/>
<text text-anchor="middle" x="43" y="-205" font-family="Helvetica,sans-Serif" font-size="10.00">PreciseDouble</text>
</a>
</g>
</g>
<!-- Node6&#45;&gt;Node4 -->
<g id="edge6_Node000004_Node000006" class="edge">
<title>Node6&#45;&gt;Node4</title>
<g id="a_edge6_Node000004_Node000006"><a xlink:title=" ">
<path fill="none" stroke="#9a32cd" stroke-dasharray="5,2" d="M96.09,-216.64C137.21,-223.05 196.09,-230.5 248,-230.5 248,-230.5 248,-230.5 906.5,-230.5 1003.32,-230.5 1015.89,-178.17 1099,-128.5 1117.88,-117.22 1139.72,-104.53 1154.35,-96.08"/>
<polygon fill="#9a32cd" stroke="#9a32cd" points="96.47,-213.15 86.04,-215.03 95.36,-220.06 96.47,-213.15"/>
</a>
</g>
<text text-anchor="middle" x="620.5" y="-244.5" font-family="Helvetica,sans-Serif" font-size="10.00" fill="grey"> hyperVolume</text>
<text text-anchor="middle" x="620.5" y="-233.5" font-family="Helvetica,sans-Serif" font-size="10.00" fill="grey">size</text>
</g>
<!-- Node10 -->
<g id="Node000010" class="node">
<title>Node10</title>
<g id="a_Node000010"><a xlink:href="classWetMass.html" target="_top" xlink:title="Represents wet mass in the ecosystem simulation.">
<polygon fill="white" stroke="#666666" points="279.5,-194 218.5,-194 218.5,-175 279.5,-175 279.5,-194"/>
<text text-anchor="middle" x="249" y="-182" font-family="Helvetica,sans-Serif" font-size="10.00">WetMass</text>
</a>
</g>
</g>
<!-- Node6&#45;&gt;Node10 -->
<g id="edge11_Node000010_Node000006" class="edge">
<title>Node6&#45;&gt;Node10</title>
<g id="a_edge11_Node000010_Node000006"><a xlink:title=" ">
<path fill="none" stroke="#9a32cd" stroke-dasharray="5,2" d="M96.32,-201.6C135.05,-197.23 186.42,-191.44 218.33,-187.85"/>
<polygon fill="#9a32cd" stroke="#9a32cd" points="95.81,-198.14 86.27,-202.73 96.6,-205.09 95.81,-198.14"/>
</a>
</g>
<text text-anchor="middle" x="119.5" y="-203.5" font-family="Helvetica,sans-Serif" font-size="10.00" fill="grey"> value</text>
</g>
<!-- Node7 -->
<g id="Node000007" class="node">
<title>Node7</title>
<g id="a_Node000007"><a xlink:href="classCustomIndexedVector.html" target="_top" xlink:title="A vector container indexed by a custom type with bounds checking.">
<polygon fill="white" stroke="#666666" points="983,-67.5 828,-67.5 828,-37.5 983,-37.5 983,-67.5"/>
<text text-anchor="start" x="836" y="-55.5" font-family="Helvetica,sans-Serif" font-size="10.00">CustomIndexedVector</text>
<text text-anchor="middle" x="905.5" y="-44.5" font-family="Helvetica,sans-Serif" font-size="10.00">&lt; IndexType, ContentType &gt;</text>
</a>
</g>
</g>
<!-- Node7&#45;&gt;Node4 -->
<g id="edge7_Node000004_Node000007" class="edge">
<title>Node7&#45;&gt;Node4</title>
<g id="a_edge7_Node000004_Node000007"><a xlink:title=" ">
<path fill="none" stroke="#9a32cd" stroke-dasharray="5,2" d="M993.37,-57.86C1021.42,-60.16 1052.6,-63.3 1081,-67.5 1099.96,-70.31 1120.92,-74.66 1137.84,-78.49"/>
<polygon fill="#9a32cd" stroke="#9a32cd" points="993.43,-54.36 983.18,-57.06 992.88,-61.33 993.43,-54.36"/>
</a>
</g>
<text text-anchor="middle" x="1041" y="-70.5" font-family="Helvetica,sans-Serif" font-size="10.00" fill="grey"> animals</text>
</g>
<!-- Node8 -->
<g id="Node000008" class="node">
<title>Node8</title>
<g id="a_Node000008"><a xlink:href="classCellMoistureInterface.html" target="_top" xlink:title="Base interface representing the hydrological and thermal properties of a terrain cell.">
<polygon fill="white" stroke="#666666" points="681.5,-151 559.5,-151 559.5,-132 681.5,-132 681.5,-151"/>
<text text-anchor="middle" x="620.5" y="-139" font-family="Helvetica,sans-Serif" font-size="10.00">CellMoistureInterface</text>
</a>
</g>
</g>
<!-- Node8&#45;&gt;Node3 -->
<g id="edge8_Node000003_Node000008" class="edge">
<title>Node8&#45;&gt;Node3</title>
<g id="a_edge8_Node000003_Node000008"><a xlink:title=" ">
<path fill="none" stroke="#9a32cd" stroke-dasharray="5,2" d="M691.76,-133.8C744.19,-128.06 814.29,-120.38 859.42,-115.44"/>
<polygon fill="#9a32cd" stroke="#9a32cd" points="691.08,-130.36 681.52,-134.93 691.84,-137.32 691.08,-130.36"/>
</a>
</g>
<text text-anchor="middle" x="762.5" y="-133.5" font-family="Helvetica,sans-Serif" font-size="10.00" fill="grey"> cellMoisture</text>
</g>
<!-- Node9 -->
<g id="Node000009" class="node">
<title>Node9</title>
<g id="a_Node000009"><a xlink:href="classCellElement.html" target="_top" xlink:title="Base class for any modifiable element contained within a terrain cell.">
<polygon fill="white" stroke="#666666" points="287,-110 211,-110 211,-91 287,-91 287,-110"/>
<text text-anchor="middle" x="249" y="-98" font-family="Helvetica,sans-Serif" font-size="10.00">CellElement</text>
</a>
</g>
</g>
<!-- Node9&#45;&gt;Node8 -->
<g id="edge9_Node000008_Node000009" class="edge">
<title>Node9&#45;&gt;Node8</title>
<g id="a_edge9_Node000008_Node000009"><a xlink:title=" ">
<path fill="none" stroke="#63b8ff" d="M297.36,-105.75C364.18,-113.17 486.14,-126.7 559.31,-134.82"/>
<polygon fill="#63b8ff" stroke="#63b8ff" points="297.45,-102.24 287.12,-104.62 296.67,-109.2 297.45,-102.24"/>
</a>
</g>
</g>
<!-- Node11 -->
<g id="Node000011" class="node">
<title>Node11</title>
<g id="a_Node000011"><a xlink:href="classCellObstacleInterface.html" target="_top" xlink:title="Interface for managing obstacles in a terrain cell.">
<polygon fill="white" stroke="#666666" points="681.5,-114 559.5,-114 559.5,-95 681.5,-95 681.5,-114"/>
<text text-anchor="middle" x="620.5" y="-102" font-family="Helvetica,sans-Serif" font-size="10.00">CellObstacleInterface</text>
</a>
</g>
</g>
<!-- Node9&#45;&gt;Node11 -->
<g id="edge13_Node000011_Node000009" class="edge">
<title>Node9&#45;&gt;Node11</title>
<g id="a_edge13_Node000011_Node000009"><a xlink:title=" ">
<path fill="none" stroke="#63b8ff" d="M297.36,-101.01C364.18,-101.74 486.14,-103.06 559.31,-103.85"/>
<polygon fill="#63b8ff" stroke="#63b8ff" points="297.16,-97.51 287.12,-100.9 297.08,-104.51 297.16,-97.51"/>
</a>
</g>
</g>
<!-- Node12 -->
<g id="Node000012" class="node">
<title>Node12</title>
<g id="a_Node000012"><a xlink:href="classCellHabitatDomainInterface.html" target="_top" xlink:title="Represents the habitat&#45;domain information associated with a terrain cell.">
<polygon fill="white" stroke="#666666" points="697,-77 544,-77 544,-58 697,-58 697,-77"/>
<text text-anchor="middle" x="620.5" y="-65" font-family="Helvetica,sans-Serif" font-size="10.00">CellHabitatDomainInterface</text>
</a>
</g>
</g>
<!-- Node9&#45;&gt;Node12 -->
<g id="edge15_Node000012_Node000009" class="edge">
<title>Node9&#45;&gt;Node12</title>
<g id="a_edge15_Node000012_Node000009"><a xlink:title=" ">
<path fill="none" stroke="#63b8ff" d="M297.44,-96.26C359.74,-90.7 469.86,-80.86 543.76,-74.26"/>
<polygon fill="#63b8ff" stroke="#63b8ff" points="296.77,-92.81 287.12,-97.18 297.39,-99.78 296.77,-92.81"/>
</a>
</g>
</g>
<!-- Node10&#45;&gt;Node1 -->
<g id="edge17_Node000001_Node000010" class="edge">
<title>Node10&#45;&gt;Node1</title>
<g id="a_edge17_Node000001_Node000010"><a xlink:title=" ">
<path fill="none" stroke="#9a32cd" stroke-dasharray="5,2" d="M289.92,-184.5C357.68,-184.5 499.54,-184.5 619.5,-184.5 619.5,-184.5 619.5,-184.5 1173,-184.5 1209.65,-184.5 1250.6,-179.79 1282.47,-175.06"/>
<polygon fill="#9a32cd" stroke="#9a32cd" points="289.7,-181 279.7,-184.5 289.69,-188 289.7,-181"/>
</a>
</g>
<text text-anchor="middle" x="905.5" y="-187.5" font-family="Helvetica,sans-Serif" font-size="10.00" fill="grey"> totalResourceBiomass</text>
</g>
<!-- Node10&#45;&gt;Node8 -->
<g id="edge10_Node000008_Node000010" class="edge">
<title>Node10&#45;&gt;Node8</title>
<g id="a_edge10_Node000008_Node000010"><a xlink:title=" ">
<path fill="none" stroke="#9a32cd" stroke-dasharray="5,2" d="M289.32,-174.3C310.92,-169.08 338.28,-163.08 363,-159.5 429.82,-149.82 507.22,-145.29 559.37,-143.21"/>
<polygon fill="#9a32cd" stroke="#9a32cd" points="288.39,-170.93 279.52,-176.71 290.07,-177.72 288.39,-170.93"/>
</a>
</g>
<text text-anchor="middle" x="444.5" y="-162.5" font-family="Helvetica,sans-Serif" font-size="10.00" fill="grey"> totalMaximumResourceCapacity</text>
</g>
<!-- Node11&#45;&gt;Node3 -->
<g id="edge12_Node000003_Node000011" class="edge">
<title>Node11&#45;&gt;Node3</title>
<g id="a_edge12_Node000003_Node000011"><a xlink:title=" ">
<path fill="none" stroke="#9a32cd" stroke-dasharray="5,2" d="M692.01,-105.36C727.43,-105.86 770.99,-106.57 810,-107.5 826.08,-107.88 843.7,-108.41 859.32,-108.92"/>
<polygon fill="#9a32cd" stroke="#9a32cd" points="691.83,-101.86 681.78,-105.22 691.73,-108.85 691.83,-101.86"/>
</a>
</g>
<text text-anchor="middle" x="762.5" y="-110.5" font-family="Helvetica,sans-Serif" font-size="10.00" fill="grey"> cellObstacle</text>
</g>
<!-- Node12&#45;&gt;Node3 -->
<g id="edge14_Node000003_Node000012" class="edge">
<title>Node12&#45;&gt;Node3</title>
<g id="a_edge14_Node000003_Node000012"><a xlink:title=" ">
<path fill="none" stroke="#9a32cd" stroke-dasharray="5,2" d="M707.67,-76.41C739.87,-80.16 776.69,-84.95 810,-90.5 827.53,-93.42 846.75,-97.35 863.25,-100.95"/>
<polygon fill="#9a32cd" stroke="#9a32cd" points="707.72,-72.9 697.39,-75.23 706.92,-79.85 707.72,-72.9"/>
</a>
</g>
<text text-anchor="middle" x="762.5" y="-93.5" font-family="Helvetica,sans-Serif" font-size="10.00" fill="grey"> cellHabitatDomain</text>
</g>
<!-- Node13 -->
<g id="Node000013" class="node">
<title>Node13</title>
<g id="a_Node000013"><a xlink:href="classCustomIndexedVector.html" target="_top" xlink:title=" ">
<polygon fill="white" stroke="#666666" points="345,-70 153,-70 153,-29 345,-29 345,-70"/>
<text text-anchor="start" x="161" y="-58" font-family="Helvetica,sans-Serif" font-size="10.00">CustomIndexedVector</text>
<text text-anchor="start" x="161" y="-47" font-family="Helvetica,sans-Serif" font-size="10.00">&lt; AnimalSpeciesID, CustomIndexed</text>
<text text-anchor="middle" x="249" y="-36" font-family="Helvetica,sans-Serif" font-size="10.00">Vector&lt; Instar, bool &gt; &gt;</text>
</a>
</g>
</g>
<!-- Node13&#45;&gt;Node12 -->
<g id="edge16_Node000012_Node000013" class="edge">
<title>Node13&#45;&gt;Node12</title>
<g id="a_edge16_Node000012_Node000013"><a xlink:title=" ">
<path fill="none" stroke="#9a32cd" stroke-dasharray="5,2" d="M355.2,-45.54C406.77,-44.7 469.75,-45.33 526,-50.5 542.43,-52.01 560.29,-54.94 575.96,-57.94"/>
<polygon fill="#9a32cd" stroke="#9a32cd" points="354.97,-42.04 345.04,-45.73 355.1,-49.04 354.97,-42.04"/>
</a>
</g>
<text text-anchor="middle" x="444.5" y="-53.5" font-family="Helvetica,sans-Serif" font-size="10.00" fill="grey"> habitatDomainStatus</text>
</g>
</g>
</svg>
