<?xml version="1.0" encoding="UTF-8" standalone="no"?>
<!DOCTYPE svg PUBLIC "-//W3C//DTD SVG 1.1//EN"
 "http://www.w3.org/Graphics/SVG/1.1/DTD/svg11.dtd">
<!-- Generated by graphviz version 2.43.0 (0)
 -->
<!-- Title: Element Pages: 1 -->
<svg width="460pt" height="82pt"
 viewBox="0.00 0.00 459.50 82.00" xmlns="http://www.w3.org/2000/svg" xmlns:xlink="http://www.w3.org/1999/xlink">
<g id="graph0" class="graph" transform="scale(1 1) rotate(0) translate(4 78)">
<title>Element</title>
<!-- Node1 -->
<g id="Node000001" class="node">
<title>Node1</title>
<g id="a_Node000001"><a xlink:title="Abstract base class for elements that can be validated and accessed in a configuration.">
<polygon fill="#999999" stroke="#666666" points="262,-74 205,-74 205,-55 262,-55 262,-74"/>
<text text-anchor="middle" x="233.5" y="-62" font-family="Helvetica,sans-Serif" font-size="10.00">Element</text>
</a>
</g>
</g>
<!-- Node2 -->
<g id="Node000002" class="node">
<title>Node2</title>
<g id="a_Node000002"><a xlink:href="classArray.html" target="_top" xlink:title="Represents an array element in a JSON configuration.">
<polygon fill="white" stroke="#666666" points="43,-19 0,-19 0,0 43,0 43,-19"/>
<text text-anchor="middle" x="21.5" y="-7" font-family="Helvetica,sans-Serif" font-size="10.00">Array</text>
</a>
</g>
</g>
<!-- Node1&#45;&gt;Node2 -->
<g id="edge1_Node000001_Node000002" class="edge">
<title>Node1&#45;&gt;Node2</title>
<g id="a_edge1_Node000001_Node000002"><a xlink:title=" ">
<path fill="none" stroke="#63b8ff" d="M195.12,-54.38C158.43,-45.58 101.6,-31.76 52.5,-19 49.48,-18.21 46.29,-17.36 43.16,-16.52"/>
<polygon fill="#63b8ff" stroke="#63b8ff" points="194.37,-57.8 204.91,-56.72 196,-50.99 194.37,-57.8"/>
</a>
</g>
</g>
<!-- Node3 -->
<g id="Node000003" class="node">
<title>Node3</title>
<g id="a_Node000003"><a xlink:href="classBoolean.html" target="_top" xlink:title="Represents a boolean element in a JSON configuration.">
<polygon fill="white" stroke="#666666" points="117.5,-19 61.5,-19 61.5,0 117.5,0 117.5,-19"/>
<text text-anchor="middle" x="89.5" y="-7" font-family="Helvetica,sans-Serif" font-size="10.00">Boolean</text>
</a>
</g>
</g>
<!-- Node1&#45;&gt;Node3 -->
<g id="edge2_Node000001_Node000003" class="edge">
<title>Node1&#45;&gt;Node3</title>
<g id="a_edge2_Node000001_Node000003"><a xlink:title=" ">
<path fill="none" stroke="#63b8ff" d="M200.68,-51.42C173.97,-41.59 136.9,-27.95 113.06,-19.17"/>
<polygon fill="#63b8ff" stroke="#63b8ff" points="199.77,-54.82 210.36,-54.98 202.19,-48.25 199.77,-54.82"/>
</a>
</g>
</g>
<!-- Node4 -->
<g id="Node000004" class="node">
<title>Node4</title>
<g id="a_Node000004"><a xlink:href="classInteger.html" target="_top" xlink:title="Represents an integer element in a JSON configuration.">
<polygon fill="white" stroke="#666666" points="187,-19 136,-19 136,0 187,0 187,-19"/>
<text text-anchor="middle" x="161.5" y="-7" font-family="Helvetica,sans-Serif" font-size="10.00">Integer</text>
</a>
</g>
</g>
<!-- Node1&#45;&gt;Node4 -->
<g id="edge3_Node000001_Node000004" class="edge">
<title>Node1&#45;&gt;Node4</title>
<g id="a_edge3_Node000001_Node000004"><a xlink:title=" ">
<path fill="none" stroke="#63b8ff" d="M213.63,-48.88C200.68,-39.34 184.2,-27.21 173.28,-19.17"/>
<polygon fill="#63b8ff" stroke="#63b8ff" points="211.8,-51.88 221.93,-54.98 215.95,-46.24 211.8,-51.88"/>
</a>
</g>
</g>
<!-- Node5 -->
<g id="Node000005" class="node">
<title>Node5</title>
<g id="a_Node000005"><a xlink:href="classNumber.html" target="_top" xlink:title="Represents a floating&#45;point number element in a JSON configuration.">
<polygon fill="white" stroke="#666666" points="261.5,-19 205.5,-19 205.5,0 261.5,0 261.5,-19"/>
<text text-anchor="middle" x="233.5" y="-7" font-family="Helvetica,sans-Serif" font-size="10.00">Number</text>
</a>
</g>
</g>
<!-- Node1&#45;&gt;Node5 -->
<g id="edge4_Node000001_Node000005" class="edge">
<title>Node1&#45;&gt;Node5</title>
<g id="a_edge4_Node000001_Node000005"><a xlink:title=" ">
<path fill="none" stroke="#63b8ff" d="M233.5,-44.66C233.5,-35.93 233.5,-25.99 233.5,-19.09"/>
<polygon fill="#63b8ff" stroke="#63b8ff" points="230,-44.75 233.5,-54.75 237,-44.75 230,-44.75"/>
</a>
</g>
</g>
<!-- Node6 -->
<g id="Node000006" class="node">
<title>Node6</title>
<g id="a_Node000006"><a xlink:href="classObject.html" target="_top" xlink:title="Represents a JSON object element with nested properties and conditional rules.">
<polygon fill="white" stroke="#666666" points="327.5,-19 279.5,-19 279.5,0 327.5,0 327.5,-19"/>
<text text-anchor="middle" x="303.5" y="-7" font-family="Helvetica,sans-Serif" font-size="10.00">Object</text>
</a>
</g>
</g>
<!-- Node1&#45;&gt;Node6 -->
<g id="edge5_Node000001_Node000006" class="edge">
<title>Node1&#45;&gt;Node6</title>
<g id="a_edge5_Node000001_Node000006"><a xlink:title=" ">
<path fill="none" stroke="#63b8ff" d="M252.81,-48.88C265.41,-39.34 281.43,-27.21 292.05,-19.17"/>
<polygon fill="#63b8ff" stroke="#63b8ff" points="250.61,-46.16 244.75,-54.98 254.83,-51.74 250.61,-46.16"/>
</a>
</g>
</g>
<!-- Node7 -->
<g id="Node000007" class="node">
<title>Node7</title>
<g id="a_Node000007"><a xlink:href="classString.html" target="_top" xlink:title="Represents a string&#45;type element in the JSON schema validation system.">
<polygon fill="white" stroke="#666666" points="391,-19 346,-19 346,0 391,0 391,-19"/>
<text text-anchor="middle" x="368.5" y="-7" font-family="Helvetica,sans-Serif" font-size="10.00">String</text>
</a>
</g>
</g>
<!-- Node1&#45;&gt;Node7 -->
<g id="edge6_Node000001_Node000007" class="edge">
<title>Node1&#45;&gt;Node7</title>
<g id="a_edge6_Node000001_Node000007"><a xlink:title=" ">
<path fill="none" stroke="#63b8ff" d="M264.6,-51.29C289.62,-41.47 324.16,-27.91 346.42,-19.17"/>
<polygon fill="#63b8ff" stroke="#63b8ff" points="263.22,-48.07 255.19,-54.98 265.78,-54.59 263.22,-48.07"/>
</a>
</g>
</g>
<!-- Node8 -->
<g id="Node000008" class="node">
<title>Node8</title>
<g id="a_Node000008"><a xlink:href="classTuple.html" target="_top" xlink:title="Represents a JSON Schema tuple&#45;type element with position&#45;dependent validation.">
<polygon fill="white" stroke="#666666" points="451.5,-19 409.5,-19 409.5,0 451.5,0 451.5,-19"/>
<text text-anchor="middle" x="430.5" y="-7" font-family="Helvetica,sans-Serif" font-size="10.00">Tuple</text>
</a>
</g>
</g>
<!-- Node1&#45;&gt;Node8 -->
<g id="edge7_Node000001_Node000008" class="edge">
<title>Node1&#45;&gt;Node8</title>
<g id="a_edge7_Node000001_Node000008"><a xlink:title=" ">
<path fill="none" stroke="#63b8ff" d="M272.15,-53.38C306.03,-44.47 356.58,-31.07 400.5,-19 403.32,-18.23 406.28,-17.4 409.21,-16.58"/>
<polygon fill="#63b8ff" stroke="#63b8ff" points="270.98,-50.07 262.2,-56 272.76,-56.84 270.98,-50.07"/>
</a>
</g>
</g>
</g>
</svg>
