<?xml version="1.0" encoding="UTF-8" standalone="no"?>
<!DOCTYPE svg PUBLIC "-//W3C//DTD SVG 1.1//EN"
 "http://www.w3.org/Graphics/SVG/1.1/DTD/svg11.dtd">
<!-- Generated by graphviz version 2.43.0 (0)
 -->
<!-- Title: CellResourceInterface Pages: 1 -->
<svg width="1066pt" height="360pt"
 viewBox="0.00 0.00 1066.00 360.00" xmlns="http://www.w3.org/2000/svg" xmlns:xlink="http://www.w3.org/1999/xlink">
<g id="graph0" class="graph" transform="scale(1 1) rotate(0) translate(4 356)">
<title>CellResourceInterface</title>
<!-- Node1 -->
<g id="Node000001" class="node">
<title>Node1</title>
<g id="a_Node000001"><a xlink:title="Interface for a resource in a terrain cell.">
<polygon fill="#999999" stroke="#666666" points="1058,-243 934,-243 934,-224 1058,-224 1058,-243"/>
<text text-anchor="middle" x="996" y="-231" font-family="Helvetica,sans-Serif" font-size="10.00">CellResourceInterface</text>
</a>
</g>
</g>
<!-- Node2 -->
<g id="Node000002" class="node">
<title>Node2</title>
<g id="a_Node000002"><a xlink:href="classEdible.html" target="_top" xlink:title="Represents a generic edible entity within a terrain cell.">
<polygon fill="white" stroke="#666666" points="750,-303 703,-303 703,-284 750,-284 750,-303"/>
<text text-anchor="middle" x="726.5" y="-291" font-family="Helvetica,sans-Serif" font-size="10.00">Edible</text>
</a>
</g>
</g>
<!-- Node2&#45;&gt;Node1 -->
<g id="edge1_Node000001_Node000002" class="edge">
<title>Node2&#45;&gt;Node1</title>
<g id="a_edge1_Node000001_Node000002"><a xlink:title=" ">
<path fill="none" stroke="#63b8ff" d="M760.13,-287.32C797.81,-280.06 861.6,-267.35 916,-254.5 930.78,-251.01 947,-246.77 960.89,-243.01"/>
<polygon fill="#63b8ff" stroke="#63b8ff" points="759.38,-283.9 750.22,-289.22 760.7,-290.78 759.38,-283.9"/>
</a>
</g>
</g>
<!-- Node3 -->
<g id="Node000003" class="node">
<title>Node3</title>
<g id="a_Node000003"><a xlink:href="classEdibleID.html" target="_top" xlink:title="Encapsulates a unique identifier for an edible object or resource.">
<polygon fill="white" stroke="#666666" points="383.5,-352 326.5,-352 326.5,-333 383.5,-333 383.5,-352"/>
<text text-anchor="middle" x="355" y="-340" font-family="Helvetica,sans-Serif" font-size="10.00">EdibleID</text>
</a>
</g>
</g>
<!-- Node3&#45;&gt;Node2 -->
<g id="edge2_Node000002_Node000003" class="edge">
<title>Node3&#45;&gt;Node2</title>
<g id="a_edge2_Node000002_Node000003"><a xlink:title=" ">
<path fill="none" stroke="#9a32cd" stroke-dasharray="5,2" d="M393.62,-340.72C446.95,-337.79 547.47,-330.8 632,-316.5 656.39,-312.37 683.83,-305.33 702.64,-300.12"/>
<polygon fill="#9a32cd" stroke="#9a32cd" points="393.4,-337.22 383.6,-341.25 393.77,-344.21 393.4,-337.22"/>
</a>
</g>
<text text-anchor="middle" x="550.5" y="-337.5" font-family="Helvetica,sans-Serif" font-size="10.00" fill="grey"> id</text>
</g>
<!-- Node4 -->
<g id="Node000004" class="node">
<title>Node4</title>
<g id="a_Node000004"><a xlink:href="classSpecies.html" target="_top" xlink:title="Represents a generic species in the ecosystem.">
<polygon fill="white" stroke="#666666" points="382,-315 328,-315 328,-296 382,-296 382,-315"/>
<text text-anchor="middle" x="355" y="-303" font-family="Helvetica,sans-Serif" font-size="10.00">Species</text>
</a>
</g>
</g>
<!-- Node4&#45;&gt;Node2 -->
<g id="edge3_Node000002_Node000004" class="edge">
<title>Node4&#45;&gt;Node2</title>
<g id="a_edge3_Node000002_Node000004"><a xlink:title=" ">
<path fill="none" stroke="#9a32cd" stroke-dasharray="5,2" d="M392.3,-304.32C468.04,-301.86 641.03,-296.24 702.94,-294.23"/>
<polygon fill="#9a32cd" stroke="#9a32cd" points="392.16,-300.82 382.28,-304.65 392.39,-307.82 392.16,-300.82"/>
</a>
</g>
<text text-anchor="middle" x="550.5" y="-304.5" font-family="Helvetica,sans-Serif" font-size="10.00" fill="grey"> mySpecies</text>
</g>
<!-- Node5 -->
<g id="Node000005" class="node">
<title>Node5</title>
<g id="a_Node000005"><a xlink:href="classSpecies_1_1ID.html" target="_top" xlink:title="Unique identifier for a Species.">
<polygon fill="white" stroke="#666666" points="113,-315 42,-315 42,-296 113,-296 113,-315"/>
<text text-anchor="middle" x="77.5" y="-303" font-family="Helvetica,sans-Serif" font-size="10.00">Species::ID</text>
</a>
</g>
</g>
<!-- Node5&#45;&gt;Node4 -->
<g id="edge4_Node000004_Node000005" class="edge">
<title>Node5&#45;&gt;Node4</title>
<g id="a_edge4_Node000004_Node000005"><a xlink:title=" ">
<path fill="none" stroke="#9a32cd" stroke-dasharray="5,2" d="M123.47,-305.5C181.61,-305.5 280.97,-305.5 327.94,-305.5"/>
<polygon fill="#9a32cd" stroke="#9a32cd" points="123.11,-302 113.11,-305.5 123.11,-309 123.11,-302"/>
</a>
</g>
<text text-anchor="middle" x="207" y="-308.5" font-family="Helvetica,sans-Serif" font-size="10.00" fill="grey"> id</text>
</g>
<!-- Node6 -->
<g id="Node000006" class="node">
<title>Node6</title>
<g id="a_Node000006"><a xlink:href="classTerrainCell.html" target="_top" xlink:title="Represents a single cell in the landscape.">
<polygon fill="white" stroke="#666666" points="389,-186 321,-186 321,-167 389,-167 389,-186"/>
<text text-anchor="middle" x="355" y="-174" font-family="Helvetica,sans-Serif" font-size="10.00">TerrainCell</text>
</a>
</g>
</g>
<!-- Node6&#45;&gt;Node2 -->
<g id="edge5_Node000002_Node000006" class="edge">
<title>Node6&#45;&gt;Node2</title>
<g id="a_edge5_Node000002_Node000006"><a xlink:title=" ">
<path fill="none" stroke="#9a32cd" stroke-dasharray="5,2" d="M374.88,-192.74C396.24,-210.17 432.79,-237.28 469,-251.5 490.68,-260.01 644.28,-282.12 702.87,-290.35"/>
<polygon fill="#9a32cd" stroke="#9a32cd" points="376.89,-189.85 366.96,-186.14 372.41,-195.23 376.89,-189.85"/>
</a>
</g>
<text text-anchor="middle" x="550.5" y="-282.5" font-family="Helvetica,sans-Serif" font-size="10.00" fill="grey"> terrainCell</text>
</g>
<!-- Node7 -->
<g id="Node000007" class="node">
<title>Node7</title>
<g id="a_Node000007"><a xlink:href="classPatchApplicator.html" target="_top" xlink:title="Applies patches to a TerrainCell including moisture, resources, obstacles, and habitat domains.">
<polygon fill="white" stroke="#666666" points="1042,-119 950,-119 950,-100 1042,-100 1042,-119"/>
<text text-anchor="middle" x="996" y="-107" font-family="Helvetica,sans-Serif" font-size="10.00">PatchApplicator</text>
</a>
</g>
</g>
<!-- Node6&#45;&gt;Node7 -->
<g id="edge7_Node000007_Node000006" class="edge">
<title>Node6&#45;&gt;Node7</title>
<g id="a_edge7_Node000007_Node000006"><a xlink:title=" ">
<path fill="none" stroke="#9a32cd" stroke-dasharray="5,2" d="M399.28,-173.89C493.53,-167.89 724.26,-151.54 916,-124.5 926.92,-122.96 938.62,-120.94 949.59,-118.89"/>
<polygon fill="#9a32cd" stroke="#9a32cd" points="399.03,-170.4 389.27,-174.52 399.47,-177.38 399.03,-170.4"/>
</a>
</g>
<text text-anchor="middle" x="726.5" y="-157.5" font-family="Helvetica,sans-Serif" font-size="10.00" fill="grey"> owner</text>
</g>
<!-- Node7&#45;&gt;Node6 -->
<g id="edge6_Node000006_Node000007" class="edge">
<title>Node7&#45;&gt;Node6</title>
<g id="a_edge6_Node000006_Node000007"><a xlink:title=" ">
<path fill="none" stroke="#9a32cd" stroke-dasharray="5,2" d="M978.42,-126.23C963.46,-140.23 940.16,-159.48 916,-169.5 731.78,-245.87 666.53,-235.93 469,-208.5 438.5,-204.27 404.67,-193.89 382.04,-186.1"/>
<polygon fill="#9a32cd" stroke="#9a32cd" points="981.05,-128.55 985.82,-119.09 976.19,-123.51 981.05,-128.55"/>
</a>
</g>
<text text-anchor="middle" x="726.5" y="-231.5" font-family="Helvetica,sans-Serif" font-size="10.00" fill="grey"> patchApplicator</text>
</g>
<!-- Node8 -->
<g id="Node000008" class="node">
<title>Node8</title>
<g id="a_Node000008"><a xlink:href="classCellMoistureInterface.html" target="_top" xlink:title="Base interface representing the hydrological and thermal properties of a terrain cell.">
<polygon fill="white" stroke="#666666" points="787.5,-82 665.5,-82 665.5,-63 787.5,-63 787.5,-82"/>
<text text-anchor="middle" x="726.5" y="-70" font-family="Helvetica,sans-Serif" font-size="10.00">CellMoistureInterface</text>
</a>
</g>
</g>
<!-- Node8&#45;&gt;Node7 -->
<g id="edge8_Node000007_Node000008" class="edge">
<title>Node8&#45;&gt;Node7</title>
<g id="a_edge8_Node000007_Node000008"><a xlink:title=" ">
<path fill="none" stroke="#9a32cd" stroke-dasharray="5,2" d="M798.17,-79.54C833.62,-83.38 877.17,-88.56 916,-94.5 927.04,-96.19 938.89,-98.29 949.98,-100.38"/>
<polygon fill="#9a32cd" stroke="#9a32cd" points="798.24,-76.03 787.92,-78.44 797.49,-82.99 798.24,-76.03"/>
</a>
</g>
<text text-anchor="middle" x="868.5" y="-97.5" font-family="Helvetica,sans-Serif" font-size="10.00" fill="grey"> cellMoisture</text>
</g>
<!-- Node9 -->
<g id="Node000009" class="node">
<title>Node9</title>
<g id="a_Node000009"><a xlink:href="classCellElement.html" target="_top" xlink:title="Base class for any modifiable element contained within a terrain cell.">
<polygon fill="white" stroke="#666666" points="393,-127 317,-127 317,-108 393,-108 393,-127"/>
<text text-anchor="middle" x="355" y="-115" font-family="Helvetica,sans-Serif" font-size="10.00">CellElement</text>
</a>
</g>
</g>
<!-- Node9&#45;&gt;Node1 -->
<g id="edge20_Node000001_Node000009" class="edge">
<title>Node9&#45;&gt;Node1</title>
<g id="a_edge20_Node000001_Node000009"><a xlink:title=" ">
<path fill="none" stroke="#63b8ff" d="M403.16,-126.06C519.73,-147.22 820.81,-201.88 942.66,-224"/>
<polygon fill="#63b8ff" stroke="#63b8ff" points="403.58,-122.58 393.12,-124.24 402.33,-129.47 403.58,-122.58"/>
</a>
</g>
</g>
<!-- Node9&#45;&gt;Node8 -->
<g id="edge9_Node000008_Node000009" class="edge">
<title>Node9&#45;&gt;Node8</title>
<g id="a_edge9_Node000008_Node000009"><a xlink:title=" ">
<path fill="none" stroke="#63b8ff" d="M403.37,-114.58C458.49,-110.82 552.16,-103.34 632,-91.5 648.88,-89 667.31,-85.43 683.31,-82.07"/>
<polygon fill="#63b8ff" stroke="#63b8ff" points="402.95,-111.1 393.2,-115.26 403.42,-118.08 402.95,-111.1"/>
</a>
</g>
</g>
<!-- Node12 -->
<g id="Node000012" class="node">
<title>Node12</title>
<g id="a_Node000012"><a xlink:href="classCellObstacleInterface.html" target="_top" xlink:title="Interface for managing obstacles in a terrain cell.">
<polygon fill="white" stroke="#666666" points="787.5,-119 665.5,-119 665.5,-100 787.5,-100 787.5,-119"/>
<text text-anchor="middle" x="726.5" y="-107" font-family="Helvetica,sans-Serif" font-size="10.00">CellObstacleInterface</text>
</a>
</g>
</g>
<!-- Node9&#45;&gt;Node12 -->
<g id="edge13_Node000012_Node000009" class="edge">
<title>Node9&#45;&gt;Node12</title>
<g id="a_edge13_Node000012_Node000009"><a xlink:title=" ">
<path fill="none" stroke="#63b8ff" d="M403.21,-118.35C458.18,-119.1 551.71,-119.65 632,-116.5 642.82,-116.08 654.32,-115.4 665.43,-114.63"/>
<polygon fill="#63b8ff" stroke="#63b8ff" points="403.12,-114.85 393.07,-118.2 403.02,-121.85 403.12,-114.85"/>
</a>
</g>
</g>
<!-- Node13 -->
<g id="Node000013" class="node">
<title>Node13</title>
<g id="a_Node000013"><a xlink:href="classCellHabitatDomainInterface.html" target="_top" xlink:title="Represents the habitat&#45;domain information associated with a terrain cell.">
<polygon fill="white" stroke="#666666" points="803,-45 650,-45 650,-26 803,-26 803,-45"/>
<text text-anchor="middle" x="726.5" y="-33" font-family="Helvetica,sans-Serif" font-size="10.00">CellHabitatDomainInterface</text>
</a>
</g>
</g>
<!-- Node9&#45;&gt;Node13 -->
<g id="edge15_Node000013_Node000009" class="edge">
<title>Node9&#45;&gt;Node13</title>
<g id="a_edge15_Node000013_Node000009"><a xlink:title=" ">
<path fill="none" stroke="#63b8ff" d="M403.02,-107.59C423.29,-103.41 447.29,-98.57 469,-94.5 541.25,-80.95 564.23,-94.98 632,-66.5 641.1,-62.68 641.03,-57.61 650,-53.5 657.35,-50.13 665.4,-47.35 673.42,-45.07"/>
<polygon fill="#63b8ff" stroke="#63b8ff" points="402.18,-104.19 393.1,-109.65 403.6,-111.05 402.18,-104.19"/>
</a>
</g>
</g>
<!-- Node10 -->
<g id="Node000010" class="node">
<title>Node10</title>
<g id="a_Node000010"><a xlink:href="classWetMass.html" target="_top" xlink:title="Represents wet mass in the ecosystem simulation.">
<polygon fill="white" stroke="#666666" points="385.5,-78 324.5,-78 324.5,-59 385.5,-59 385.5,-78"/>
<text text-anchor="middle" x="355" y="-66" font-family="Helvetica,sans-Serif" font-size="10.00">WetMass</text>
</a>
</g>
</g>
<!-- Node10&#45;&gt;Node8 -->
<g id="edge10_Node000008_Node000010" class="edge">
<title>Node10&#45;&gt;Node8</title>
<g id="a_edge10_Node000008_Node000010"><a xlink:title=" ">
<path fill="none" stroke="#9a32cd" stroke-dasharray="5,2" d="M395.82,-68.93C460.64,-69.63 589.35,-71.03 665.35,-71.85"/>
<polygon fill="#9a32cd" stroke="#9a32cd" points="395.65,-65.43 385.61,-68.82 395.57,-72.43 395.65,-65.43"/>
</a>
</g>
<text text-anchor="middle" x="550.5" y="-74.5" font-family="Helvetica,sans-Serif" font-size="10.00" fill="grey"> totalMaximumResourceCapacity</text>
</g>
<!-- Node11 -->
<g id="Node000011" class="node">
<title>Node11</title>
<g id="a_Node000011"><a xlink:href="classPreciseDouble.html" target="_top" xlink:title="Class for precise double&#45;precision floating&#45;point arithmetic.">
<polygon fill="white" stroke="#666666" points="120.5,-100 34.5,-100 34.5,-81 120.5,-81 120.5,-100"/>
<text text-anchor="middle" x="77.5" y="-88" font-family="Helvetica,sans-Serif" font-size="10.00">PreciseDouble</text>
</a>
</g>
</g>
<!-- Node11&#45;&gt;Node6 -->
<g id="edge18_Node000006_Node000011" class="edge">
<title>Node11&#45;&gt;Node6</title>
<g id="a_edge18_Node000006_Node000011"><a xlink:title=" ">
<path fill="none" stroke="#9a32cd" stroke-dasharray="5,2" d="M124.57,-102.69C157.23,-111.54 202.01,-124.09 241,-136.5 271.34,-146.15 305.78,-158.56 328.58,-166.97"/>
<polygon fill="#9a32cd" stroke="#9a32cd" points="125.41,-99.29 114.84,-100.07 123.59,-106.05 125.41,-99.29"/>
</a>
</g>
<text text-anchor="middle" x="207" y="-150.5" font-family="Helvetica,sans-Serif" font-size="10.00" fill="grey"> hyperVolume</text>
<text text-anchor="middle" x="207" y="-139.5" font-family="Helvetica,sans-Serif" font-size="10.00" fill="grey">size</text>
</g>
<!-- Node11&#45;&gt;Node10 -->
<g id="edge11_Node000010_Node000011" class="edge">
<title>Node11&#45;&gt;Node10</title>
<g id="a_edge11_Node000010_Node000011"><a xlink:title=" ">
<path fill="none" stroke="#9a32cd" stroke-dasharray="5,2" d="M130.9,-81.05C144.57,-78.89 159.3,-76.85 173,-75.5 226.2,-70.27 288.56,-68.9 324.46,-68.57"/>
<polygon fill="#9a32cd" stroke="#9a32cd" points="130.01,-77.65 120.7,-82.7 131.13,-84.56 130.01,-77.65"/>
</a>
</g>
<text text-anchor="middle" x="207" y="-78.5" font-family="Helvetica,sans-Serif" font-size="10.00" fill="grey"> value</text>
</g>
<!-- Node12&#45;&gt;Node7 -->
<g id="edge12_Node000007_Node000012" class="edge">
<title>Node12&#45;&gt;Node7</title>
<g id="a_edge12_Node000007_Node000012"><a xlink:title=" ">
<path fill="none" stroke="#9a32cd" stroke-dasharray="5,2" d="M797.56,-109.5C845.66,-109.5 908.08,-109.5 949.73,-109.5"/>
<polygon fill="#9a32cd" stroke="#9a32cd" points="797.53,-106 787.53,-109.5 797.53,-113 797.53,-106"/>
</a>
</g>
<text text-anchor="middle" x="868.5" y="-112.5" font-family="Helvetica,sans-Serif" font-size="10.00" fill="grey"> cellObstacle</text>
</g>
<!-- Node13&#45;&gt;Node7 -->
<g id="edge14_Node000007_Node000013" class="edge">
<title>Node13&#45;&gt;Node7</title>
<g id="a_edge14_Node000007_Node000013"><a xlink:title=" ">
<path fill="none" stroke="#9a32cd" stroke-dasharray="5,2" d="M813.18,-44.14C845.93,-48.97 883.25,-56.34 916,-67.5 939.82,-75.62 965.13,-90.28 980.5,-99.95"/>
<polygon fill="#9a32cd" stroke="#9a32cd" points="813.57,-40.66 803.18,-42.72 812.59,-47.59 813.57,-40.66"/>
</a>
</g>
<text text-anchor="middle" x="868.5" y="-70.5" font-family="Helvetica,sans-Serif" font-size="10.00" fill="grey"> cellHabitatDomain</text>
</g>
<!-- Node14 -->
<g id="Node000014" class="node">
<title>Node14</title>
<g id="a_Node000014"><a xlink:href="classCustomIndexedVector.html" target="_top" xlink:title=" ">
<polygon fill="white" stroke="#666666" points="451,-41 259,-41 259,0 451,0 451,-41"/>
<text text-anchor="start" x="267" y="-29" font-family="Helvetica,sans-Serif" font-size="10.00">CustomIndexedVector</text>
<text text-anchor="start" x="267" y="-18" font-family="Helvetica,sans-Serif" font-size="10.00">&lt; AnimalSpeciesID, CustomIndexed</text>
<text text-anchor="middle" x="355" y="-7" font-family="Helvetica,sans-Serif" font-size="10.00">Vector&lt; Instar, bool &gt; &gt;</text>
</a>
</g>
</g>
<!-- Node14&#45;&gt;Node13 -->
<g id="edge16_Node000013_Node000014" class="edge">
<title>Node14&#45;&gt;Node13</title>
<g id="a_edge16_Node000013_Node000014"><a xlink:title=" ">
<path fill="none" stroke="#9a32cd" stroke-dasharray="5,2" d="M461.45,-24.78C521.58,-27.22 595.54,-30.22 649.87,-32.43"/>
<polygon fill="#9a32cd" stroke="#9a32cd" points="461.29,-21.27 451.16,-24.36 461.01,-28.27 461.29,-21.27"/>
</a>
</g>
<text text-anchor="middle" x="550.5" y="-34.5" font-family="Helvetica,sans-Serif" font-size="10.00" fill="grey"> habitatDomainStatus</text>
</g>
<!-- Node15 -->
<g id="Node000015" class="node">
<title>Node15</title>
<g id="a_Node000015"><a xlink:href="classPointMap.html" target="_top" xlink:title="Represents a point in a discrete map coordinate system.">
<polygon fill="white" stroke="#666666" points="108.5,-207 46.5,-207 46.5,-188 108.5,-188 108.5,-207"/>
<text text-anchor="middle" x="77.5" y="-195" font-family="Helvetica,sans-Serif" font-size="10.00">PointMap</text>
</a>
</g>
</g>
<!-- Node15&#45;&gt;Node6 -->
<g id="edge17_Node000006_Node000015" class="edge">
<title>Node15&#45;&gt;Node6</title>
<g id="a_edge17_Node000006_Node000015"><a xlink:title=" ">
<path fill="none" stroke="#9a32cd" stroke-dasharray="5,2" d="M118.5,-194.45C173.04,-190.29 269.75,-182.92 320.61,-179.05"/>
<polygon fill="#9a32cd" stroke="#9a32cd" points="118.21,-190.96 108.51,-195.21 118.74,-197.94 118.21,-190.96"/>
</a>
</g>
<text text-anchor="middle" x="207" y="-192.5" font-family="Helvetica,sans-Serif" font-size="10.00" fill="grey"> position</text>
</g>
<!-- Node16 -->
<g id="Node000016" class="node">
<title>Node16</title>
<g id="a_Node000016"><a xlink:href="classCustomIndexedVector.html" target="_top" xlink:title="A vector container indexed by a custom type with bounds checking.">
<polygon fill="white" stroke="#666666" points="155,-169.5 0,-169.5 0,-139.5 155,-139.5 155,-169.5"/>
<text text-anchor="start" x="8" y="-157.5" font-family="Helvetica,sans-Serif" font-size="10.00">CustomIndexedVector</text>
<text text-anchor="middle" x="77.5" y="-146.5" font-family="Helvetica,sans-Serif" font-size="10.00">&lt; IndexType, ContentType &gt;</text>
</a>
</g>
</g>
<!-- Node16&#45;&gt;Node6 -->
<g id="edge19_Node000006_Node000016" class="edge">
<title>Node16&#45;&gt;Node6</title>
<g id="a_edge19_Node000006_Node000016"><a xlink:title=" ">
<path fill="none" stroke="#9a32cd" stroke-dasharray="5,2" d="M165.3,-161.43C218.11,-165.65 282.55,-170.79 320.82,-173.85"/>
<polygon fill="#9a32cd" stroke="#9a32cd" points="165.49,-157.94 155.24,-160.63 164.93,-164.91 165.49,-157.94"/>
</a>
</g>
<text text-anchor="middle" x="207" y="-170.5" font-family="Helvetica,sans-Serif" font-size="10.00" fill="grey"> animals</text>
</g>
</g>
</svg>
