<?xml version="1.0" encoding="UTF-8" standalone="no"?>
<!DOCTYPE svg PUBLIC "-//W3C//DTD SVG 1.1//EN"
 "http://www.w3.org/Graphics/SVG/1.1/DTD/svg11.dtd">
<!-- Generated by graphviz version 2.43.0 (0)
 -->
<!-- Title: /home/runner/work/Weaver/Weaver/include/App/Model/IBM/Landscape/LivingBeings/Animals/Species Pages: 1 -->
<!--zoomable 251 -->

<svg id="main" version="1.1" xmlns="http://www.w3.org/2000/svg" xmlns:xlink="http://www.w3.org/1999/xlink" xml:space="preserve" onload="init(evt)">
<style type="text/css"><![CDATA[
.node, .edge {opacity: 0.7;}
.node.selected, .edge.selected {opacity: 1;}
.edge:hover path { stroke: red; }
.edge:hover polygon { stroke: red; fill: red; }
]]></style>

<defs>
  <circle id="rim" cx="0" cy="0" r="7"/>
  <circle id="rim2" cx="0" cy="0" r="3.5"/>
  <g id="zoomPlus">
    <use xlink:href="#rim" fill="#404040"><set attributeName="fill" to="#808080" begin="zoomplus.mouseover" end="zoomplus.mouseout"/></use>
    <path d="M-4,0h8M0,-4v8" fill="none" stroke="white" stroke-width="1.5" pointer-events="none"/>
  </g>
  <g id="zoomMin">
    <use xlink:href="#rim" fill="#404040"><set attributeName="fill" to="#808080" begin="zoomminus.mouseover" end="zoomminus.mouseout"/></use>
    <path d="M-4,0h8" fill="none" stroke="white" stroke-width="1.5" pointer-events="none"/>
  </g>
  <g id="arrowUp" transform="translate(30 24)">
    <use xlink:href="#rim"/>
    <path pointer-events="none" fill="none" stroke="white" stroke-width="1.5" d="M0,-3.0v7 M-2.5,-0.5L0,-3.0L2.5,-0.5"/>
  </g>
  <g id="arrowRight" transform="rotate(90) translate(36 -43)">
    <use xlink:href="#rim"/>
    <path pointer-events="none" fill="none" stroke="white" stroke-width="1.5" d="M0,-3.0v7 M-2.5,-0.5L0,-3.0L2.5,-0.5"/>
  </g>
  <g id="arrowDown" transform="rotate(180) translate(-30 -48)">
    <use xlink:href="#rim"/>
    <path pointer-events="none" fill="none" stroke="white" stroke-width="1.5" d="M0,-3.0v7 M-2.5,-0.5L0,-3.0L2.5,-0.5"/>
  </g>
  <g id="arrowLeft" transform="rotate(270) translate(-36 17)">
    <use xlink:href="#rim"/>
    <path pointer-events="none" fill="none" stroke="white" stroke-width="1.5" d="M0,-3.0v7 M-2.5,-0.5L0,-3.0L2.5,-0.5"/>
  </g>
  <g id="resetDef">
    <use xlink:href="#rim2" fill="#404040"><set attributeName="fill" to="#808080" begin="reset.mouseover" end="reset.mouseout"/></use>
  </g>
</defs>
<script type="application/ecmascript">
var viewWidth = 648;
var viewHeight = 251;
var sectionId = 'dynsection-0';
</script>
<script type="application/ecmascript" xlink:href="svg.min.js"/>
<svg id="graph" class="graph">
<g id="viewport">
<title>/home/runner/work/Weaver/Weaver/include/App/Model/IBM/Landscape/LivingBeings/Animals/Species</title>
<g id="clust1" class="cluster">
<title>clusterdir_a3a1ca8af9b616e247b3f0c90e8cde87</title>
<g id="a_clust1"><a xlink:href="dir_a3a1ca8af9b616e247b3f0c90e8cde87.html" target="_top" xlink:title="Animals">
<polygon fill="#edf0f7" stroke="#7f7f7f" stroke-dasharray="5,2" points="150,-8 150,-235 396,-235 396,-8 150,-8"/>
<text text-anchor="middle" x="273" y="-223" font-family="Helvetica,sans-Serif" font-size="10.00">Animals</text>
</a>
</g>
</g>
<g id="clust2" class="cluster">
<title>clusterdir_599f11267c3a85736edb1f98923093b9</title>
<g id="a_clust2"><a xlink:href="dir_599f11267c3a85736edb1f98923093b9.html" target="_top">
<polygon fill="#edf0f7" stroke="#404040" stroke-width="2" points="158,-63 158,-208 328,-208 328,-63 158,-63"/>
</a>
</g>
</g>
<!-- dir_bcac7830ba4ce4ae1ccca2802e2445e2 -->
<g id="node1" class="node">
<title>dir_bcac7830ba4ce4ae1ccca2802e2445e2</title>
<g id="a_node1"><a xlink:href="dir_bcac7830ba4ce4ae1ccca2802e2445e2.html" target="_top" xlink:title="Growth">
<polygon fill="#a2b4d6" stroke="red" points="388,-90 336,-90 336,-71 388,-71 388,-90"/>
<text text-anchor="middle" x="362" y="-78" font-family="Helvetica,sans-Serif" font-size="10.00">Growth</text>
</a>
</g>
</g>
<!-- dir_e4a5f3ebbc8705b509aeb54f8d16dd0b -->
<g id="node2" class="node">
<title>dir_e4a5f3ebbc8705b509aeb54f8d16dd0b</title>
<g id="a_node2"><a xlink:href="dir_e4a5f3ebbc8705b509aeb54f8d16dd0b.html" target="_top" xlink:title="Genetics">
<polygon fill="#a2b4d6" stroke="red" points="249.5,-35 190.5,-35 190.5,-16 249.5,-16 249.5,-35"/>
<text text-anchor="middle" x="220" y="-23" font-family="Helvetica,sans-Serif" font-size="10.00">Genetics</text>
</a>
</g>
</g>
<!-- dir_599f11267c3a85736edb1f98923093b9 -->
<g id="node3" class="node">
<title>dir_599f11267c3a85736edb1f98923093b9</title>
<text text-anchor="middle" x="293" y="-188" font-family="Helvetica,sans-Serif" font-size="10.00">Species</text>
</g>
<!-- dir_f534364e3f87483dca4d9a57136f92fd -->
<g id="node4" class="node">
<title>dir_f534364e3f87483dca4d9a57136f92fd</title>
<g id="a_node4"><a xlink:href="dir_f534364e3f87483dca4d9a57136f92fd.html" target="_top" xlink:title="Decisions">
<polygon fill="#a2b4d6" stroke="#404040" points="250,-145 186,-145 186,-126 250,-126 250,-145"/>
<text text-anchor="middle" x="218" y="-133" font-family="Helvetica,sans-Serif" font-size="10.00">Decisions</text>
</a>
</g>
</g>
<!-- dir_599f11267c3a85736edb1f98923093b9&#45;&gt;dir_f534364e3f87483dca4d9a57136f92fd -->
<g id="edge9" class="edge">
<title>dir_599f11267c3a85736edb1f98923093b9&#45;&gt;dir_f534364e3f87483dca4d9a57136f92fd</title>
<g id="a_edge9"><a xlink:href="dir_000053_000006.html" target="_top">
<path fill="none" stroke="#63b8ff" d="M280.95,-180.98C269.54,-172.92 252.17,-160.65 238.57,-151.03"/>
<polygon fill="#63b8ff" stroke="#63b8ff" points="240.46,-148.08 230.27,-145.17 236.42,-153.8 240.46,-148.08"/>
</a>
</g>
<g id="a_edge9&#45;headlabel"><a xlink:href="dir_000053_000006.html" target="_top" xlink:title="4">
<text text-anchor="middle" x="245.03" y="-145.34" font-family="Helvetica,sans-Serif" font-size="10.00" fill="#63b8ff">4</text>
</a>
</g>
</g>
<!-- dir_214114fda18d46922f0b01572fdd09bb -->
<g id="node5" class="node">
<title>dir_214114fda18d46922f0b01572fdd09bb</title>
<g id="a_node5"><a xlink:href="dir_214114fda18d46922f0b01572fdd09bb.html" target="_top" xlink:title="Genetics">
<polygon fill="#a2b4d6" stroke="#404040" points="225.5,-90 166.5,-90 166.5,-71 225.5,-71 225.5,-90"/>
<text text-anchor="middle" x="196" y="-78" font-family="Helvetica,sans-Serif" font-size="10.00">Genetics</text>
</a>
</g>
</g>
<!-- dir_599f11267c3a85736edb1f98923093b9&#45;&gt;dir_214114fda18d46922f0b01572fdd09bb -->
<g id="edge2" class="edge">
<title>dir_599f11267c3a85736edb1f98923093b9&#45;&gt;dir_214114fda18d46922f0b01572fdd09bb</title>
<g id="a_edge2"><a xlink:href="dir_000053_000012.html" target="_top">
<path fill="none" stroke="#63b8ff" d="M265.83,-187.59C238.24,-184.03 196.86,-173.88 177,-145 167.36,-130.98 175.2,-111.97 183.54,-98.41"/>
<polygon fill="#63b8ff" stroke="#63b8ff" points="186.5,-100.27 189.18,-90.02 180.69,-96.37 186.5,-100.27"/>
</a>
</g>
<g id="a_edge2&#45;headlabel"><a xlink:href="dir_000053_000012.html" target="_top" xlink:title="26">
<text text-anchor="middle" x="186.85" y="-102.34" font-family="Helvetica,sans-Serif" font-size="10.00" fill="#63b8ff">26</text>
</a>
</g>
</g>
<!-- dir_16ace253734ae6f3c6b225496a38f11c -->
<g id="node6" class="node">
<title>dir_16ace253734ae6f3c6b225496a38f11c</title>
<g id="a_node6"><a xlink:href="dir_16ace253734ae6f3c6b225496a38f11c.html" target="_top" xlink:title="Growth">
<polygon fill="#a2b4d6" stroke="#404040" points="320,-145 268,-145 268,-126 320,-126 320,-145"/>
<text text-anchor="middle" x="294" y="-133" font-family="Helvetica,sans-Serif" font-size="10.00">Growth</text>
</a>
</g>
</g>
<!-- dir_599f11267c3a85736edb1f98923093b9&#45;&gt;dir_16ace253734ae6f3c6b225496a38f11c -->
<g id="edge1" class="edge">
<title>dir_599f11267c3a85736edb1f98923093b9&#45;&gt;dir_16ace253734ae6f3c6b225496a38f11c</title>
<g id="a_edge1"><a xlink:href="dir_000053_000015.html" target="_top">
<path fill="none" stroke="#63b8ff" d="M293.17,-180.75C293.3,-173.8 293.48,-163.85 293.65,-155.13"/>
<polygon fill="#63b8ff" stroke="#63b8ff" points="297.15,-155.15 293.84,-145.09 290.15,-155.02 297.15,-155.15"/>
</a>
</g>
<g id="a_edge1&#45;headlabel"><a xlink:href="dir_000053_000015.html" target="_top" xlink:title="1">
<text text-anchor="middle" x="299.92" y="-156.3" font-family="Helvetica,sans-Serif" font-size="10.00" fill="#63b8ff">1</text>
</a>
</g>
</g>
<!-- dir_389a21b4e0d5da4afd1bc923d1c21e90 -->
<g id="node7" class="node">
<title>dir_389a21b4e0d5da4afd1bc923d1c21e90</title>
<g id="a_node7"><a xlink:href="dir_389a21b4e0d5da4afd1bc923d1c21e90.html" target="_top" xlink:title="Map">
<polygon fill="#edf0f7" stroke="red" stroke-dasharray="5,2" points="554,-90 516,-90 516,-71 554,-71 554,-90"/>
<text text-anchor="middle" x="535" y="-78" font-family="Helvetica,sans-Serif" font-size="10.00">Map</text>
</a>
</g>
</g>
<!-- dir_599f11267c3a85736edb1f98923093b9&#45;&gt;dir_389a21b4e0d5da4afd1bc923d1c21e90 -->
<g id="edge3" class="edge">
<title>dir_599f11267c3a85736edb1f98923093b9&#45;&gt;dir_389a21b4e0d5da4afd1bc923d1c21e90</title>
<g id="a_edge3"><a xlink:href="dir_000053_000030.html" target="_top">
<path fill="none" stroke="#63b8ff" d="M320.16,-190.15C362.03,-189.82 443.13,-183.71 497,-145 512.61,-133.78 522.96,-113.97 528.86,-99.46"/>
<polygon fill="#63b8ff" stroke="#63b8ff" points="532.16,-100.61 532.38,-90.02 525.61,-98.16 532.16,-100.61"/>
</a>
</g>
<g id="a_edge3&#45;headlabel"><a xlink:href="dir_000053_000030.html" target="_top" xlink:title="3">
<text text-anchor="middle" x="533.57" y="-102.47" font-family="Helvetica,sans-Serif" font-size="10.00" fill="#63b8ff">3</text>
</a>
</g>
</g>
<!-- dir_4045643538bad1aadeff61b05dc9bc0d -->
<g id="node8" class="node">
<title>dir_4045643538bad1aadeff61b05dc9bc0d</title>
<g id="a_node8"><a xlink:href="dir_4045643538bad1aadeff61b05dc9bc0d.html" target="_top" xlink:title="Exceptions">
<polygon fill="#edf0f7" stroke="#7f7f7f" points="70,-35 0,-35 0,-16 70,-16 70,-35"/>
<text text-anchor="middle" x="35" y="-23" font-family="Helvetica,sans-Serif" font-size="10.00">Exceptions</text>
</a>
</g>
</g>
<!-- dir_599f11267c3a85736edb1f98923093b9&#45;&gt;dir_4045643538bad1aadeff61b05dc9bc0d -->
<g id="edge4" class="edge">
<title>dir_599f11267c3a85736edb1f98923093b9&#45;&gt;dir_4045643538bad1aadeff61b05dc9bc0d</title>
<g id="a_edge4"><a xlink:href="dir_000053_000010.html" target="_top">
<path fill="none" stroke="#63b8ff" d="M265.89,-181.94C240.03,-174.25 200.35,-161.17 168,-145 128.42,-125.21 117.54,-119.99 85,-90 69.74,-75.94 55.43,-56.94 46.06,-43.39"/>
<polygon fill="#63b8ff" stroke="#63b8ff" points="48.9,-41.35 40.41,-35.01 43.1,-45.26 48.9,-41.35"/>
</a>
</g>
<g id="a_edge4&#45;headlabel"><a xlink:href="dir_000053_000010.html" target="_top" xlink:title="5">
<text text-anchor="middle" x="53.27" y="-40.24" font-family="Helvetica,sans-Serif" font-size="10.00" fill="#63b8ff">5</text>
</a>
</g>
</g>
<!-- dir_6951a24f4a3b17f76f94f0e7c618fb09 -->
<g id="node9" class="node">
<title>dir_6951a24f4a3b17f76f94f0e7c618fb09</title>
<g id="a_node9"><a xlink:href="dir_6951a24f4a3b17f76f94f0e7c618fb09.html" target="_top" xlink:title="Species">
<polygon fill="#edf0f7" stroke="red" stroke-dasharray="5,2" points="498,-90 444,-90 444,-71 498,-71 498,-90"/>
<text text-anchor="middle" x="471" y="-78" font-family="Helvetica,sans-Serif" font-size="10.00">Species</text>
</a>
</g>
</g>
<!-- dir_599f11267c3a85736edb1f98923093b9&#45;&gt;dir_6951a24f4a3b17f76f94f0e7c618fb09 -->
<g id="edge5" class="edge">
<title>dir_599f11267c3a85736edb1f98923093b9&#45;&gt;dir_6951a24f4a3b17f76f94f0e7c618fb09</title>
<g id="a_edge5"><a xlink:href="dir_000053_000055.html" target="_top">
<path fill="none" stroke="#63b8ff" d="M320.1,-187.14C367.25,-182.4 461.23,-169.99 481,-145 491.14,-132.18 486.4,-113.25 480.5,-99.39"/>
<polygon fill="#63b8ff" stroke="#63b8ff" points="483.65,-97.87 476.18,-90.36 477.33,-100.89 483.65,-97.87"/>
</a>
</g>
<g id="a_edge5&#45;headlabel"><a xlink:href="dir_000053_000055.html" target="_top" xlink:title="3">
<text text-anchor="middle" x="487.76" y="-97.39" font-family="Helvetica,sans-Serif" font-size="10.00" fill="#63b8ff">3</text>
</a>
</g>
</g>
<!-- dir_6d30109d817e3a6d4be9084cc265e05a -->
<g id="node10" class="node">
<title>dir_6d30109d817e3a6d4be9084cc265e05a</title>
<g id="a_node10"><a xlink:href="dir_6d30109d817e3a6d4be9084cc265e05a.html" target="_top" xlink:title="Maths">
<polygon fill="#edf0f7" stroke="red" stroke-dasharray="5,2" points="451.5,-35 404.5,-35 404.5,-16 451.5,-16 451.5,-35"/>
<text text-anchor="middle" x="428" y="-23" font-family="Helvetica,sans-Serif" font-size="10.00">Maths</text>
</a>
</g>
</g>
<!-- dir_599f11267c3a85736edb1f98923093b9&#45;&gt;dir_6d30109d817e3a6d4be9084cc265e05a -->
<g id="edge6" class="edge">
<title>dir_599f11267c3a85736edb1f98923093b9&#45;&gt;dir_6d30109d817e3a6d4be9084cc265e05a</title>
<g id="a_edge6"><a xlink:href="dir_000053_000032.html" target="_top">
<path fill="none" stroke="#63b8ff" d="M320.19,-189.99C364.92,-189.59 455.4,-183.58 519,-145 545.77,-128.77 552.64,-119.54 563,-90 566.97,-78.68 570.29,-72.53 563,-63 550.74,-46.99 497.56,-36.39 461.72,-30.92"/>
<polygon fill="#63b8ff" stroke="#63b8ff" points="462.07,-27.43 451.66,-29.45 461.05,-34.36 462.07,-27.43"/>
</a>
</g>
<g id="a_edge6&#45;headlabel"><a xlink:href="dir_000053_000032.html" target="_top" xlink:title="5">
<text text-anchor="middle" x="466.03" y="-22.64" font-family="Helvetica,sans-Serif" font-size="10.00" fill="#63b8ff">5</text>
</a>
</g>
</g>
<!-- dir_dbc329bf08cdcad994818f4c40ac845b -->
<g id="node12" class="node">
<title>dir_dbc329bf08cdcad994818f4c40ac845b</title>
<g id="a_node12"><a xlink:href="dir_dbc329bf08cdcad994818f4c40ac845b.html" target="_top" xlink:title="Resources">
<polygon fill="#edf0f7" stroke="red" stroke-dasharray="5,2" points="471.5,-145 404.5,-145 404.5,-126 471.5,-126 471.5,-145"/>
<text text-anchor="middle" x="438" y="-133" font-family="Helvetica,sans-Serif" font-size="10.00">Resources</text>
</a>
</g>
</g>
<!-- dir_599f11267c3a85736edb1f98923093b9&#45;&gt;dir_dbc329bf08cdcad994818f4c40ac845b -->
<g id="edge7" class="edge">
<title>dir_599f11267c3a85736edb1f98923093b9&#45;&gt;dir_dbc329bf08cdcad994818f4c40ac845b</title>
<g id="a_edge7"><a xlink:href="dir_000053_000047.html" target="_top">
<path fill="none" stroke="#63b8ff" d="M316.3,-180.98C340.25,-172.23 377.78,-158.51 404.83,-148.62"/>
<polygon fill="#63b8ff" stroke="#63b8ff" points="406.09,-151.89 414.28,-145.17 403.69,-145.32 406.09,-151.89"/>
</a>
</g>
<g id="a_edge7&#45;headlabel"><a xlink:href="dir_000053_000047.html" target="_top" xlink:title="1">
<text text-anchor="middle" x="403.69" y="-153.29" font-family="Helvetica,sans-Serif" font-size="10.00" fill="#63b8ff">1</text>
</a>
</g>
</g>
<!-- dir_ed435641f8e8047e0f5542c775bc8256 -->
<g id="node13" class="node">
<title>dir_ed435641f8e8047e0f5542c775bc8256</title>
<g id="a_node13"><a xlink:href="dir_ed435641f8e8047e0f5542c775bc8256.html" target="_top" xlink:title="Misc">
<polygon fill="#edf0f7" stroke="red" stroke-dasharray="5,2" points="639.5,-35 600.5,-35 600.5,-16 639.5,-16 639.5,-35"/>
<text text-anchor="middle" x="620" y="-23" font-family="Helvetica,sans-Serif" font-size="10.00">Misc</text>
</a>
</g>
</g>
<!-- dir_599f11267c3a85736edb1f98923093b9&#45;&gt;dir_ed435641f8e8047e0f5542c775bc8256 -->
<g id="edge8" class="edge">
<title>dir_599f11267c3a85736edb1f98923093b9&#45;&gt;dir_ed435641f8e8047e0f5542c775bc8256</title>
<g id="a_edge8"><a xlink:href="dir_000053_000033.html" target="_top">
<path fill="none" stroke="#63b8ff" d="M320.06,-187.04C376.95,-181.51 506.81,-166.82 545,-145 583.46,-123.02 605.13,-72.43 614.46,-45"/>
<polygon fill="#63b8ff" stroke="#63b8ff" points="617.9,-45.7 617.62,-35.11 611.24,-43.57 617.9,-45.7"/>
</a>
</g>
<g id="a_edge8&#45;headlabel"><a xlink:href="dir_000053_000033.html" target="_top" xlink:title="14">
<text text-anchor="middle" x="619.51" y="-47.49" font-family="Helvetica,sans-Serif" font-size="10.00" fill="#63b8ff">14</text>
</a>
</g>
</g>
<!-- dir_f534364e3f87483dca4d9a57136f92fd&#45;&gt;dir_e4a5f3ebbc8705b509aeb54f8d16dd0b -->
<g id="edge15" class="edge">
<title>dir_f534364e3f87483dca4d9a57136f92fd&#45;&gt;dir_e4a5f3ebbc8705b509aeb54f8d16dd0b</title>
<g id="a_edge15"><a xlink:href="dir_000006_000011.html" target="_top">
<path fill="none" stroke="#63b8ff" d="M222.37,-125.91C226.56,-117.14 232.6,-103.01 235,-90 237.18,-78.2 237.32,-74.77 235,-63 233.77,-56.78 231.47,-50.29 229.04,-44.54"/>
<polygon fill="#63b8ff" stroke="#63b8ff" points="232.09,-42.8 224.71,-35.2 225.74,-45.74 232.09,-42.8"/>
</a>
</g>
<g id="a_edge15&#45;headlabel"><a xlink:href="dir_000006_000011.html" target="_top" xlink:title="3">
<text text-anchor="middle" x="236.18" y="-42.37" font-family="Helvetica,sans-Serif" font-size="10.00" fill="#63b8ff">3</text>
</a>
</g>
</g>
<!-- dir_f534364e3f87483dca4d9a57136f92fd&#45;&gt;dir_214114fda18d46922f0b01572fdd09bb -->
<g id="edge10" class="edge">
<title>dir_f534364e3f87483dca4d9a57136f92fd&#45;&gt;dir_214114fda18d46922f0b01572fdd09bb</title>
<g id="a_edge10"><a xlink:href="dir_000006_000012.html" target="_top">
<path fill="none" stroke="#63b8ff" d="M214.37,-125.75C211.42,-118.65 207.17,-108.4 203.49,-99.56"/>
<polygon fill="#63b8ff" stroke="#63b8ff" points="206.63,-97.98 199.57,-90.09 200.17,-100.67 206.63,-97.98"/>
</a>
</g>
<g id="a_edge10&#45;headlabel"><a xlink:href="dir_000006_000012.html" target="_top" xlink:title="4">
<text text-anchor="middle" x="210.63" y="-97.71" font-family="Helvetica,sans-Serif" font-size="10.00" fill="#63b8ff">4</text>
</a>
</g>
</g>
<!-- dir_f534364e3f87483dca4d9a57136f92fd&#45;&gt;dir_389a21b4e0d5da4afd1bc923d1c21e90 -->
<g id="edge11" class="edge">
<title>dir_f534364e3f87483dca4d9a57136f92fd&#45;&gt;dir_389a21b4e0d5da4afd1bc923d1c21e90</title>
<g id="a_edge11"><a xlink:href="dir_000006_000030.html" target="_top">
<path fill="none" stroke="#63b8ff" d="M250.19,-127.63C253.17,-127.06 256.14,-126.5 259,-126 365.58,-107.23 396.55,-113.84 506.04,-89.91"/>
<polygon fill="#63b8ff" stroke="#63b8ff" points="506.82,-93.32 515.82,-87.74 505.3,-86.49 506.82,-93.32"/>
</a>
</g>
<g id="a_edge11&#45;headlabel"><a xlink:href="dir_000006_000030.html" target="_top" xlink:title="1">
<text text-anchor="middle" x="503.92" y="-94.37" font-family="Helvetica,sans-Serif" font-size="10.00" fill="#63b8ff">1</text>
</a>
</g>
</g>
<!-- dir_f534364e3f87483dca4d9a57136f92fd&#45;&gt;dir_4045643538bad1aadeff61b05dc9bc0d -->
<g id="edge12" class="edge">
<title>dir_f534364e3f87483dca4d9a57136f92fd&#45;&gt;dir_4045643538bad1aadeff61b05dc9bc0d</title>
<g id="a_edge12"><a xlink:href="dir_000006_000010.html" target="_top">
<path fill="none" stroke="#63b8ff" d="M199.69,-125.87C181.86,-117.3 154.15,-103.52 131,-90 104.19,-74.34 74.55,-54.3 55.4,-40.96"/>
<polygon fill="#63b8ff" stroke="#63b8ff" points="57.34,-38.04 47.15,-35.17 53.33,-43.78 57.34,-38.04"/>
</a>
</g>
<g id="a_edge12&#45;headlabel"><a xlink:href="dir_000006_000010.html" target="_top" xlink:title="2">
<text text-anchor="middle" x="61.92" y="-35.28" font-family="Helvetica,sans-Serif" font-size="10.00" fill="#63b8ff">2</text>
</a>
</g>
</g>
<!-- dir_f534364e3f87483dca4d9a57136f92fd&#45;&gt;dir_6951a24f4a3b17f76f94f0e7c618fb09 -->
<g id="edge13" class="edge">
<title>dir_f534364e3f87483dca4d9a57136f92fd&#45;&gt;dir_6951a24f4a3b17f76f94f0e7c618fb09</title>
<g id="a_edge13"><a xlink:href="dir_000006_000055.html" target="_top">
<path fill="none" stroke="#63b8ff" d="M250.04,-127.79C296.97,-117.96 384.18,-99.69 433.84,-89.28"/>
<polygon fill="#63b8ff" stroke="#63b8ff" points="434.78,-92.66 443.85,-87.19 433.34,-85.81 434.78,-92.66"/>
</a>
</g>
<g id="a_edge13&#45;headlabel"><a xlink:href="dir_000006_000055.html" target="_top" xlink:title="1">
<text text-anchor="middle" x="431.84" y="-93.68" font-family="Helvetica,sans-Serif" font-size="10.00" fill="#63b8ff">1</text>
</a>
</g>
</g>
<!-- dir_f534364e3f87483dca4d9a57136f92fd&#45;&gt;dir_6d30109d817e3a6d4be9084cc265e05a -->
<g id="edge14" class="edge">
<title>dir_f534364e3f87483dca4d9a57136f92fd&#45;&gt;dir_6d30109d817e3a6d4be9084cc265e05a</title>
<g id="a_edge14"><a xlink:href="dir_000006_000032.html" target="_top">
<path fill="none" stroke="#63b8ff" d="M250.08,-127.43C300.75,-116.15 394.2,-94.86 400,-90 413.54,-78.65 420.75,-59.47 424.45,-45.15"/>
<polygon fill="#63b8ff" stroke="#63b8ff" points="427.87,-45.89 426.63,-35.36 421.04,-44.36 427.87,-45.89"/>
</a>
</g>
<g id="a_edge14&#45;headlabel"><a xlink:href="dir_000006_000032.html" target="_top" xlink:title="1">
<text text-anchor="middle" x="429.86" y="-47.51" font-family="Helvetica,sans-Serif" font-size="10.00" fill="#63b8ff">1</text>
</a>
</g>
</g>
<!-- dir_214114fda18d46922f0b01572fdd09bb&#45;&gt;dir_e4a5f3ebbc8705b509aeb54f8d16dd0b -->
<g id="edge18" class="edge">
<title>dir_214114fda18d46922f0b01572fdd09bb&#45;&gt;dir_e4a5f3ebbc8705b509aeb54f8d16dd0b</title>
<g id="a_edge18"><a xlink:href="dir_000012_000011.html" target="_top">
<path fill="none" stroke="#63b8ff" d="M199.96,-70.75C203.21,-63.57 207.92,-53.18 211.95,-44.27"/>
<polygon fill="#63b8ff" stroke="#63b8ff" points="215.17,-45.64 216.11,-35.09 208.8,-42.75 215.17,-45.64"/>
</a>
</g>
<g id="a_edge18&#45;headlabel"><a xlink:href="dir_000012_000011.html" target="_top" xlink:title="3">
<text text-anchor="middle" x="216.28" y="-47.59" font-family="Helvetica,sans-Serif" font-size="10.00" fill="#63b8ff">3</text>
</a>
</g>
</g>
<!-- dir_214114fda18d46922f0b01572fdd09bb&#45;&gt;dir_4045643538bad1aadeff61b05dc9bc0d -->
<g id="edge16" class="edge">
<title>dir_214114fda18d46922f0b01572fdd09bb&#45;&gt;dir_4045643538bad1aadeff61b05dc9bc0d</title>
<g id="a_edge16"><a xlink:href="dir_000012_000010.html" target="_top">
<path fill="none" stroke="#63b8ff" d="M170.13,-70.98C143.22,-62.13 100.88,-48.19 70.77,-38.28"/>
<polygon fill="#63b8ff" stroke="#63b8ff" points="71.66,-34.88 61.07,-35.08 69.47,-41.53 71.66,-34.88"/>
</a>
</g>
<g id="a_edge16&#45;headlabel"><a xlink:href="dir_000012_000010.html" target="_top" xlink:title="2">
<text text-anchor="middle" x="75.97" y="-30.81" font-family="Helvetica,sans-Serif" font-size="10.00" fill="#63b8ff">2</text>
</a>
</g>
</g>
<!-- dir_214114fda18d46922f0b01572fdd09bb&#45;&gt;dir_6d30109d817e3a6d4be9084cc265e05a -->
<g id="edge17" class="edge">
<title>dir_214114fda18d46922f0b01572fdd09bb&#45;&gt;dir_6d30109d817e3a6d4be9084cc265e05a</title>
<g id="a_edge17"><a xlink:href="dir_000012_000032.html" target="_top">
<path fill="none" stroke="#63b8ff" d="M211.18,-70.97C216.93,-68.06 223.62,-65.03 230,-63 299.85,-40.82 323.4,-51.37 394.37,-36.16"/>
<polygon fill="#63b8ff" stroke="#63b8ff" points="395.24,-39.55 404.23,-33.95 393.7,-32.72 395.24,-39.55"/>
</a>
</g>
<g id="a_edge17&#45;headlabel"><a xlink:href="dir_000012_000032.html" target="_top" xlink:title="2">
<text text-anchor="middle" x="392.35" y="-40.61" font-family="Helvetica,sans-Serif" font-size="10.00" fill="#63b8ff">2</text>
</a>
</g>
</g>
<!-- dir_82abf9c3cae407e2f368e3cd0d776797 -->
<g id="node11" class="node">
<title>dir_82abf9c3cae407e2f368e3cd0d776797</title>
<g id="a_node11"><a xlink:href="dir_82abf9c3cae407e2f368e3cd0d776797.html" target="_top" xlink:title="Physics">
<polygon fill="#edf0f7" stroke="#7f7f7f" points="141.5,-35 88.5,-35 88.5,-16 141.5,-16 141.5,-35"/>
<text text-anchor="middle" x="115" y="-23" font-family="Helvetica,sans-Serif" font-size="10.00">Physics</text>
</a>
</g>
</g>
<!-- dir_214114fda18d46922f0b01572fdd09bb&#45;&gt;dir_82abf9c3cae407e2f368e3cd0d776797 -->
<g id="edge20" class="edge">
<title>dir_214114fda18d46922f0b01572fdd09bb&#45;&gt;dir_82abf9c3cae407e2f368e3cd0d776797</title>
<g id="a_edge20"><a xlink:href="dir_000012_000044.html" target="_top">
<path fill="none" stroke="#63b8ff" d="M182.99,-70.98C170.54,-62.84 151.54,-50.41 136.79,-40.76"/>
<polygon fill="#63b8ff" stroke="#63b8ff" points="138.54,-37.72 128.25,-35.17 134.7,-43.57 138.54,-37.72"/>
</a>
</g>
<g id="a_edge20&#45;headlabel"><a xlink:href="dir_000012_000044.html" target="_top" xlink:title="1">
<text text-anchor="middle" x="143.1" y="-34.81" font-family="Helvetica,sans-Serif" font-size="10.00" fill="#63b8ff">1</text>
</a>
</g>
</g>
<!-- dir_214114fda18d46922f0b01572fdd09bb&#45;&gt;dir_ed435641f8e8047e0f5542c775bc8256 -->
<g id="edge19" class="edge">
<title>dir_214114fda18d46922f0b01572fdd09bb&#45;&gt;dir_ed435641f8e8047e0f5542c775bc8256</title>
<g id="a_edge19"><a xlink:href="dir_000012_000033.html" target="_top">
<path fill="none" stroke="#63b8ff" d="M210.77,-70.9C216.58,-67.9 223.43,-64.84 230,-63 297.71,-44.07 510.48,-31.91 589.8,-27.93"/>
<polygon fill="#63b8ff" stroke="#63b8ff" points="590.26,-31.41 600.07,-27.42 589.91,-24.42 590.26,-31.41"/>
</a>
</g>
<g id="a_edge19&#45;headlabel"><a xlink:href="dir_000012_000033.html" target="_top" xlink:title="8">
<text text-anchor="middle" x="586.81" y="-31.92" font-family="Helvetica,sans-Serif" font-size="10.00" fill="#63b8ff">8</text>
</a>
</g>
</g>
<!-- dir_16ace253734ae6f3c6b225496a38f11c&#45;&gt;dir_bcac7830ba4ce4ae1ccca2802e2445e2 -->
<g id="edge23" class="edge">
<title>dir_16ace253734ae6f3c6b225496a38f11c&#45;&gt;dir_bcac7830ba4ce4ae1ccca2802e2445e2</title>
<g id="a_edge23"><a xlink:href="dir_000015_000014.html" target="_top">
<path fill="none" stroke="#63b8ff" d="M304.93,-125.98C315.08,-118.07 330.42,-106.11 342.65,-96.58"/>
<polygon fill="#63b8ff" stroke="#63b8ff" points="345.14,-99.08 350.88,-90.17 340.84,-93.56 345.14,-99.08"/>
</a>
</g>
<g id="a_edge23&#45;headlabel"><a xlink:href="dir_000015_000014.html" target="_top" xlink:title="1">
<text text-anchor="middle" x="344.05" y="-101.03" font-family="Helvetica,sans-Serif" font-size="10.00" fill="#63b8ff">1</text>
</a>
</g>
</g>
<!-- dir_16ace253734ae6f3c6b225496a38f11c&#45;&gt;dir_6951a24f4a3b17f76f94f0e7c618fb09 -->
<g id="edge21" class="edge">
<title>dir_16ace253734ae6f3c6b225496a38f11c&#45;&gt;dir_6951a24f4a3b17f76f94f0e7c618fb09</title>
<g id="a_edge21"><a xlink:href="dir_000015_000055.html" target="_top">
<path fill="none" stroke="#63b8ff" d="M320.12,-126.68C350.31,-117.64 400.22,-102.69 434.31,-92.49"/>
<polygon fill="#63b8ff" stroke="#63b8ff" points="435.33,-95.84 443.9,-89.61 433.32,-89.13 435.33,-95.84"/>
</a>
</g>
<g id="a_edge21&#45;headlabel"><a xlink:href="dir_000015_000055.html" target="_top" xlink:title="1">
<text text-anchor="middle" x="432.7" y="-97.09" font-family="Helvetica,sans-Serif" font-size="10.00" fill="#63b8ff">1</text>
</a>
</g>
</g>
<!-- dir_16ace253734ae6f3c6b225496a38f11c&#45;&gt;dir_82abf9c3cae407e2f368e3cd0d776797 -->
<g id="edge22" class="edge">
<title>dir_16ace253734ae6f3c6b225496a38f11c&#45;&gt;dir_82abf9c3cae407e2f368e3cd0d776797</title>
<g id="a_edge22"><a xlink:href="dir_000015_000044.html" target="_top">
<path fill="none" stroke="#63b8ff" d="M267.86,-128.11C233.52,-119.35 175.51,-103.2 158,-90 142.26,-78.13 130.34,-58.75 123.09,-44.52"/>
<polygon fill="#63b8ff" stroke="#63b8ff" points="126.13,-42.75 118.65,-35.24 119.81,-45.77 126.13,-42.75"/>
</a>
</g>
<g id="a_edge22&#45;headlabel"><a xlink:href="dir_000015_000044.html" target="_top" xlink:title="1">
<text text-anchor="middle" x="130.24" y="-42.27" font-family="Helvetica,sans-Serif" font-size="10.00" fill="#63b8ff">1</text>
</a>
</g>
</g>
<!-- dir_16ace253734ae6f3c6b225496a38f11c&#45;&gt;dir_ed435641f8e8047e0f5542c775bc8256 -->
<g id="edge24" class="edge">
<title>dir_16ace253734ae6f3c6b225496a38f11c&#45;&gt;dir_ed435641f8e8047e0f5542c775bc8256</title>
<g id="a_edge24"><a xlink:href="dir_000015_000033.html" target="_top">
<path fill="none" stroke="#63b8ff" d="M320.14,-132.39C379.25,-127.26 521.29,-112.88 563,-90 582.82,-79.13 599.26,-58.66 609.31,-43.9"/>
<polygon fill="#63b8ff" stroke="#63b8ff" points="612.46,-45.47 614.96,-35.17 606.59,-41.66 612.46,-45.47"/>
</a>
</g>
<g id="a_edge24&#45;headlabel"><a xlink:href="dir_000015_000033.html" target="_top" xlink:title="2">
<text text-anchor="middle" x="612.89" y="-47.53" font-family="Helvetica,sans-Serif" font-size="10.00" fill="#63b8ff">2</text>
</a>
</g>
</g>
</g>
</svg>

<g id="navigator" transform="translate(0 0)" fill="#404254">
  <rect fill="#f2f5e9" fill-opacity="0.5" stroke="#606060" stroke-width=".5" x="0" y="0" width="60" height="60"/>
  <use id="zoomplus" xlink:href="#zoomPlus" x="17" y="9" onmousedown="handleZoom(evt,'in')"/>
  <use id="zoomminus" xlink:href="#zoomMin" x="42" y="9" onmousedown="handleZoom(evt,'out')"/>
  <use id="reset" xlink:href="#resetDef" x="30" y="36" onmousedown="handleReset()"/>
   <use id="arrowup" xlink:href="#arrowUp" x="0" y="0" onmousedown="handlePan(0,-1)"/>
  <use id="arrowright" xlink:href="#arrowRight" x="0" y="0" onmousedown="handlePan(1,0)"/>
  <use id="arrowdown" xlink:href="#arrowDown" x="0" y="0" onmousedown="handlePan(0,1)"/>
  <use id="arrowleft" xlink:href="#arrowLeft" x="0" y="0" onmousedown="handlePan(-1,0)"/>
</g>
<svg viewBox="0 0 15 15" width="100%" height="30px" preserveAspectRatio="xMaxYMin meet">
 <g id="arrow_out" transform="scale(0.3 0.3)">
  <a xlink:href="dir_599f11267c3a85736edb1f98923093b9_dep_org.svg" target="_base">
   <rect id="button" ry="5" rx="5" y="6" x="6" height="38" width="38"
        fill="#f2f5e9" fill-opacity="0.5" stroke="#606060" stroke-width="1.0"/>
   <path id="arrow"
     d="M 11.500037,31.436501 C 11.940474,20.09759 22.043105,11.32322 32.158766,21.979434 L 37.068811,17.246167 C 37.068811,17.246167 37.088388,32 37.088388,32 L 22.160133,31.978069 C 22.160133,31.978069 26.997745,27.140456 26.997745,27.140456 C 18.528582,18.264221 13.291696,25.230495 11.500037,31.436501 z"
     style="fill:#404040;"/>
  </a>
 </g>
</svg>

<style type='text/css'>
<![CDATA[
[data-mouse-over-selected='false'] { opacity: 0.7; }
[data-mouse-over-selected='true']  { opacity: 1.0; }
]]>
</style>
<script type="application/ecmascript"><![CDATA[
document.addEventListener('DOMContentLoaded', (event) => {
  highlightEdges();
  highlightAdjacentNodes();
});
]]></script>
</svg>
