<?xml version="1.0" encoding="UTF-8" standalone="no"?>
<!DOCTYPE svg PUBLIC "-//W3C//DTD SVG 1.1//EN"
 "http://www.w3.org/Graphics/SVG/1.1/DTD/svg11.dtd">
<!-- Generated by graphviz version 2.43.0 (0)
 -->
<!-- Title: /home/runner/work/Weaver/Weaver/include/App/Model/IBM/Landscape/LivingBeings Pages: 1 -->
<svg width="510pt" height="236pt"
 viewBox="0.00 0.00 510.18 236.39" xmlns="http://www.w3.org/2000/svg" xmlns:xlink="http://www.w3.org/1999/xlink">
<g id="graph0" class="graph" transform="scale(1 1) rotate(0) translate(4 232.39)">
<title>/home/runner/work/Weaver/Weaver/include/App/Model/IBM/Landscape/LivingBeings</title>
<g id="clust1" class="cluster">
<title>clusterdir_a3743c4f48a9f113c48eeb11d5f797ad</title>
<g id="a_clust1"><a xlink:href="dir_a3743c4f48a9f113c48eeb11d5f797ad.html" target="_top" xlink:title="Landscape">
<polygon fill="#edf0f7" stroke="#7f7f7f" stroke-dasharray="5,2" points="40.89,-40.39 40.89,-220.39 298.89,-220.39 298.89,-40.39 40.89,-40.39"/>
<text text-anchor="middle" x="169.89" y="-208.39" font-family="Helvetica,sans-Serif" font-size="10.00">Landscape</text>
</a>
</g>
</g>
<g id="clust2" class="cluster">
<title>clusterdir_deb6f38fabcacb3d9327502f4723bff5</title>
<g id="a_clust2"><a xlink:href="dir_deb6f38fabcacb3d9327502f4723bff5.html" target="_top">
<polygon fill="#edf0f7" stroke="#404040" stroke-width="2" points="48.89,-48.39 48.89,-193.39 242.89,-193.39 242.89,-48.39 48.89,-48.39"/>
</a>
</g>
</g>
<!-- dir_389a21b4e0d5da4afd1bc923d1c21e90 -->
<g id="node1" class="node">
<title>dir_389a21b4e0d5da4afd1bc923d1c21e90</title>
<g id="a_node1"><a xlink:href="dir_389a21b4e0d5da4afd1bc923d1c21e90.html" target="_top" xlink:title="Map">
<polygon fill="#a2b4d6" stroke="red" points="290.89,-130.39 252.89,-130.39 252.89,-111.39 290.89,-111.39 290.89,-130.39"/>
<text text-anchor="middle" x="271.89" y="-118.39" font-family="Helvetica,sans-Serif" font-size="10.00">Map</text>
</a>
</g>
</g>
<!-- dir_deb6f38fabcacb3d9327502f4723bff5 -->
<g id="node2" class="node">
<title>dir_deb6f38fabcacb3d9327502f4723bff5</title>
<text text-anchor="middle" x="102.89" y="-173.39" font-family="Helvetica,sans-Serif" font-size="10.00">LivingBeings</text>
</g>
<!-- dir_deb6f38fabcacb3d9327502f4723bff5&#45;&gt;dir_389a21b4e0d5da4afd1bc923d1c21e90 -->
<g id="edge1" class="edge">
<title>dir_deb6f38fabcacb3d9327502f4723bff5&#45;&gt;dir_389a21b4e0d5da4afd1bc923d1c21e90</title>
<g id="a_edge1"><a xlink:href="dir_000028_000030.html" target="_top">
<path fill="none" stroke="#63b8ff" d="M131.38,-166.35C158.44,-158.17 200.5,-145.32 243.13,-131.58"/>
<polygon fill="#63b8ff" stroke="#63b8ff" points="244.37,-134.86 252.8,-128.45 242.21,-128.2 244.37,-134.86"/>
</a>
</g>
<g id="a_edge1&#45;headlabel"><a xlink:href="dir_000028_000030.html" target="_top" xlink:title="5">
<text text-anchor="middle" x="241.82" y="-136.16" font-family="Helvetica,sans-Serif" font-size="10.00" fill="#63b8ff">5</text>
</a>
</g>
</g>
<!-- dir_43cb4bfd147dcd2c8e28f53755d3f09a -->
<g id="node4" class="node">
<title>dir_43cb4bfd147dcd2c8e28f53755d3f09a</title>
<g id="a_node4"><a xlink:href="dir_43cb4bfd147dcd2c8e28f53755d3f09a.html" target="_top" xlink:title="Growth">
<polygon fill="#a2b4d6" stroke="#404040" points="128.89,-130.39 76.89,-130.39 76.89,-111.39 128.89,-111.39 128.89,-130.39"/>
<text text-anchor="middle" x="102.89" y="-118.39" font-family="Helvetica,sans-Serif" font-size="10.00">Growth</text>
</a>
</g>
</g>
<!-- dir_deb6f38fabcacb3d9327502f4723bff5&#45;&gt;dir_43cb4bfd147dcd2c8e28f53755d3f09a -->
<g id="edge2" class="edge">
<title>dir_deb6f38fabcacb3d9327502f4723bff5&#45;&gt;dir_43cb4bfd147dcd2c8e28f53755d3f09a</title>
<g id="a_edge2"><a xlink:href="dir_000028_000016.html" target="_top">
<path fill="none" stroke="#63b8ff" d="M102.89,-166.14C102.89,-159.19 102.89,-149.24 102.89,-140.53"/>
<polygon fill="#63b8ff" stroke="#63b8ff" points="106.39,-140.48 102.89,-130.48 99.39,-140.48 106.39,-140.48"/>
</a>
</g>
<g id="a_edge2&#45;headlabel"><a xlink:href="dir_000028_000016.html" target="_top" xlink:title="2">
<text text-anchor="middle" x="109.23" y="-141.58" font-family="Helvetica,sans-Serif" font-size="10.00" fill="#63b8ff">2</text>
</a>
</g>
</g>
<!-- dir_6951a24f4a3b17f76f94f0e7c618fb09 -->
<g id="node6" class="node">
<title>dir_6951a24f4a3b17f76f94f0e7c618fb09</title>
<g id="a_node6"><a xlink:href="dir_6951a24f4a3b17f76f94f0e7c618fb09.html" target="_top" xlink:title="Species">
<polygon fill="#a2b4d6" stroke="#404040" points="170.89,-75.39 116.89,-75.39 116.89,-56.39 170.89,-56.39 170.89,-75.39"/>
<text text-anchor="middle" x="143.89" y="-63.39" font-family="Helvetica,sans-Serif" font-size="10.00">Species</text>
</a>
</g>
</g>
<!-- dir_deb6f38fabcacb3d9327502f4723bff5&#45;&gt;dir_6951a24f4a3b17f76f94f0e7c618fb09 -->
<g id="edge3" class="edge">
<title>dir_deb6f38fabcacb3d9327502f4723bff5&#45;&gt;dir_6951a24f4a3b17f76f94f0e7c618fb09</title>
<g id="a_edge3"><a xlink:href="dir_000028_000055.html" target="_top">
<path fill="none" stroke="#63b8ff" d="M92.02,-166.21C78.02,-153.94 56.75,-130.83 67.89,-111.39 76.44,-96.49 92.13,-86.09 107.04,-79.12"/>
<polygon fill="#63b8ff" stroke="#63b8ff" points="108.82,-82.16 116.65,-75.02 106.08,-75.73 108.82,-82.16"/>
</a>
</g>
<g id="a_edge3&#45;headlabel"><a xlink:href="dir_000028_000055.html" target="_top" xlink:title="11">
<text text-anchor="middle" x="106.63" y="-83.69" font-family="Helvetica,sans-Serif" font-size="10.00" fill="#63b8ff">11</text>
</a>
</g>
</g>
<!-- dir_6d30109d817e3a6d4be9084cc265e05a -->
<g id="node8" class="node">
<title>dir_6d30109d817e3a6d4be9084cc265e05a</title>
<g id="a_node8"><a xlink:href="dir_6d30109d817e3a6d4be9084cc265e05a.html" target="_top" xlink:title="Maths">
<polygon fill="#edf0f7" stroke="red" stroke-dasharray="5,2" points="78.39,-20.39 31.39,-20.39 31.39,-1.39 78.39,-1.39 78.39,-20.39"/>
<text text-anchor="middle" x="54.89" y="-8.39" font-family="Helvetica,sans-Serif" font-size="10.00">Maths</text>
</a>
</g>
</g>
<!-- dir_deb6f38fabcacb3d9327502f4723bff5&#45;&gt;dir_6d30109d817e3a6d4be9084cc265e05a -->
<g id="edge4" class="edge">
<title>dir_deb6f38fabcacb3d9327502f4723bff5&#45;&gt;dir_6d30109d817e3a6d4be9084cc265e05a</title>
<g id="a_edge4"><a xlink:href="dir_000028_000032.html" target="_top">
<path fill="none" stroke="#63b8ff" d="M66.6,-166.34C47.69,-159.84 26.19,-148.77 14.89,-130.39 -6.06,-96.32 -3.43,-75.95 14.89,-40.39 17.75,-34.86 22.23,-30.16 27.17,-26.27"/>
<polygon fill="#63b8ff" stroke="#63b8ff" points="29.4,-28.99 35.74,-20.5 25.49,-23.19 29.4,-28.99"/>
</a>
</g>
<g id="a_edge4&#45;headlabel"><a xlink:href="dir_000028_000032.html" target="_top" xlink:title="15">
<text text-anchor="middle" x="28.01" y="-30.86" font-family="Helvetica,sans-Serif" font-size="10.00" fill="#63b8ff">15</text>
</a>
</g>
</g>
<!-- dir_ed435641f8e8047e0f5542c775bc8256 -->
<g id="node10" class="node">
<title>dir_ed435641f8e8047e0f5542c775bc8256</title>
<g id="a_node10"><a xlink:href="dir_ed435641f8e8047e0f5542c775bc8256.html" target="_top" xlink:title="Misc">
<polygon fill="#edf0f7" stroke="red" stroke-dasharray="5,2" points="324.39,-20.39 285.39,-20.39 285.39,-1.39 324.39,-1.39 324.39,-20.39"/>
<text text-anchor="middle" x="304.89" y="-8.39" font-family="Helvetica,sans-Serif" font-size="10.00">Misc</text>
</a>
</g>
</g>
<!-- dir_deb6f38fabcacb3d9327502f4723bff5&#45;&gt;dir_ed435641f8e8047e0f5542c775bc8256 -->
<g id="edge5" class="edge">
<title>dir_deb6f38fabcacb3d9327502f4723bff5&#45;&gt;dir_ed435641f8e8047e0f5542c775bc8256</title>
<g id="a_edge5"><a xlink:href="dir_000028_000033.html" target="_top">
<path fill="none" stroke="#63b8ff" d="M142.54,-167.85C192.25,-158.71 274.41,-142.5 302.89,-130.39 343.62,-113.08 364.96,-114.38 385.89,-75.39 393.25,-61.69 394.88,-53.09 385.89,-40.39 374.37,-24.12 352.78,-17.07 334.78,-14.05"/>
<polygon fill="#63b8ff" stroke="#63b8ff" points="335.08,-10.56 324.71,-12.7 334.15,-17.5 335.08,-10.56"/>
</a>
</g>
<g id="a_edge5&#45;headlabel"><a xlink:href="dir_000028_000033.html" target="_top" xlink:title="26">
<text text-anchor="middle" x="339.02" y="-5.72" font-family="Helvetica,sans-Serif" font-size="10.00" fill="#63b8ff">26</text>
</a>
</g>
</g>
<!-- dir_a3a1ca8af9b616e247b3f0c90e8cde87 -->
<g id="node3" class="node">
<title>dir_a3a1ca8af9b616e247b3f0c90e8cde87</title>
<g id="a_node3"><a xlink:href="dir_a3a1ca8af9b616e247b3f0c90e8cde87.html" target="_top" xlink:title="Animals">
<polygon fill="#a2b4d6" stroke="#404040" points="231.89,-185.39 175.89,-185.39 175.89,-166.39 231.89,-166.39 231.89,-185.39"/>
<text text-anchor="middle" x="203.89" y="-173.39" font-family="Helvetica,sans-Serif" font-size="10.00">Animals</text>
</a>
</g>
</g>
<!-- dir_a3a1ca8af9b616e247b3f0c90e8cde87&#45;&gt;dir_389a21b4e0d5da4afd1bc923d1c21e90 -->
<g id="edge6" class="edge">
<title>dir_a3a1ca8af9b616e247b3f0c90e8cde87&#45;&gt;dir_389a21b4e0d5da4afd1bc923d1c21e90</title>
<g id="a_edge6"><a xlink:href="dir_000000_000030.html" target="_top">
<path fill="none" stroke="#63b8ff" d="M214.82,-166.38C224.97,-158.47 240.32,-146.5 252.54,-136.98"/>
<polygon fill="#63b8ff" stroke="#63b8ff" points="255.03,-139.47 260.77,-130.56 250.73,-133.95 255.03,-139.47"/>
</a>
</g>
<g id="a_edge6&#45;headlabel"><a xlink:href="dir_000000_000030.html" target="_top" xlink:title="4">
<text text-anchor="middle" x="253.94" y="-141.42" font-family="Helvetica,sans-Serif" font-size="10.00" fill="#63b8ff">4</text>
</a>
</g>
</g>
<!-- dir_a3a1ca8af9b616e247b3f0c90e8cde87&#45;&gt;dir_43cb4bfd147dcd2c8e28f53755d3f09a -->
<g id="edge11" class="edge">
<title>dir_a3a1ca8af9b616e247b3f0c90e8cde87&#45;&gt;dir_43cb4bfd147dcd2c8e28f53755d3f09a</title>
<g id="a_edge11"><a xlink:href="dir_000000_000016.html" target="_top">
<path fill="none" stroke="#63b8ff" d="M187.67,-166.38C171.71,-158 147.11,-145.1 128.52,-135.34"/>
<polygon fill="#63b8ff" stroke="#63b8ff" points="129.9,-132.11 119.42,-130.56 126.64,-138.31 129.9,-132.11"/>
</a>
</g>
<g id="a_edge11&#45;headlabel"><a xlink:href="dir_000000_000016.html" target="_top" xlink:title="1">
<text text-anchor="middle" x="134.4" y="-128.77" font-family="Helvetica,sans-Serif" font-size="10.00" fill="#63b8ff">1</text>
</a>
</g>
</g>
<!-- dir_dbc329bf08cdcad994818f4c40ac845b -->
<g id="node5" class="node">
<title>dir_dbc329bf08cdcad994818f4c40ac845b</title>
<g id="a_node5"><a xlink:href="dir_dbc329bf08cdcad994818f4c40ac845b.html" target="_top" xlink:title="Resources">
<polygon fill="#a2b4d6" stroke="#404040" points="234.39,-130.39 167.39,-130.39 167.39,-111.39 234.39,-111.39 234.39,-130.39"/>
<text text-anchor="middle" x="200.89" y="-118.39" font-family="Helvetica,sans-Serif" font-size="10.00">Resources</text>
</a>
</g>
</g>
<!-- dir_a3a1ca8af9b616e247b3f0c90e8cde87&#45;&gt;dir_dbc329bf08cdcad994818f4c40ac845b -->
<g id="edge13" class="edge">
<title>dir_a3a1ca8af9b616e247b3f0c90e8cde87&#45;&gt;dir_dbc329bf08cdcad994818f4c40ac845b</title>
<g id="a_edge13"><a xlink:href="dir_000000_000047.html" target="_top">
<path fill="none" stroke="#63b8ff" d="M203.4,-166.14C203,-159.19 202.44,-149.24 201.95,-140.53"/>
<polygon fill="#63b8ff" stroke="#63b8ff" points="205.44,-140.27 201.38,-130.48 198.45,-140.66 205.44,-140.27"/>
</a>
</g>
<g id="a_edge13&#45;headlabel"><a xlink:href="dir_000000_000047.html" target="_top" xlink:title="1">
<text text-anchor="middle" x="208.48" y="-141.2" font-family="Helvetica,sans-Serif" font-size="10.00" fill="#63b8ff">1</text>
</a>
</g>
</g>
<!-- dir_a3a1ca8af9b616e247b3f0c90e8cde87&#45;&gt;dir_6951a24f4a3b17f76f94f0e7c618fb09 -->
<g id="edge8" class="edge">
<title>dir_a3a1ca8af9b616e247b3f0c90e8cde87&#45;&gt;dir_6951a24f4a3b17f76f94f0e7c618fb09</title>
<g id="a_edge8"><a xlink:href="dir_000000_000055.html" target="_top">
<path fill="none" stroke="#63b8ff" d="M192.1,-166.36C181.78,-158.25 167.17,-145.15 158.89,-130.39 151.17,-116.64 147.41,-99.07 145.59,-85.89"/>
<polygon fill="#63b8ff" stroke="#63b8ff" points="149.03,-85.2 144.44,-75.66 142.08,-85.99 149.03,-85.2"/>
</a>
</g>
<g id="a_edge8&#45;headlabel"><a xlink:href="dir_000000_000055.html" target="_top" xlink:title="6">
<text text-anchor="middle" x="152.26" y="-85.96" font-family="Helvetica,sans-Serif" font-size="10.00" fill="#63b8ff">6</text>
</a>
</g>
</g>
<!-- dir_4045643538bad1aadeff61b05dc9bc0d -->
<g id="node7" class="node">
<title>dir_4045643538bad1aadeff61b05dc9bc0d</title>
<g id="a_node7"><a xlink:href="dir_4045643538bad1aadeff61b05dc9bc0d.html" target="_top" xlink:title="Exceptions">
<polygon fill="#edf0f7" stroke="#7f7f7f" points="376.89,-75.39 306.89,-75.39 306.89,-56.39 376.89,-56.39 376.89,-75.39"/>
<text text-anchor="middle" x="341.89" y="-63.39" font-family="Helvetica,sans-Serif" font-size="10.00">Exceptions</text>
</a>
</g>
</g>
<!-- dir_a3a1ca8af9b616e247b3f0c90e8cde87&#45;&gt;dir_4045643538bad1aadeff61b05dc9bc0d -->
<g id="edge7" class="edge">
<title>dir_a3a1ca8af9b616e247b3f0c90e8cde87&#45;&gt;dir_4045643538bad1aadeff61b05dc9bc0d</title>
<g id="a_edge7"><a xlink:href="dir_000000_000010.html" target="_top">
<path fill="none" stroke="#63b8ff" d="M232.02,-167.23C253.34,-160.31 282.37,-148.43 302.89,-130.39 317.14,-117.87 327.86,-98.86 334.42,-84.9"/>
<polygon fill="#63b8ff" stroke="#63b8ff" points="337.78,-85.97 338.62,-75.41 331.37,-83.14 337.78,-85.97"/>
</a>
</g>
<g id="a_edge7&#45;headlabel"><a xlink:href="dir_000000_000010.html" target="_top" xlink:title="9">
<text text-anchor="middle" x="338.92" y="-87.9" font-family="Helvetica,sans-Serif" font-size="10.00" fill="#63b8ff">9</text>
</a>
</g>
</g>
<!-- dir_a3a1ca8af9b616e247b3f0c90e8cde87&#45;&gt;dir_6d30109d817e3a6d4be9084cc265e05a -->
<g id="edge9" class="edge">
<title>dir_a3a1ca8af9b616e247b3f0c90e8cde87&#45;&gt;dir_6d30109d817e3a6d4be9084cc265e05a</title>
<g id="a_edge9"><a xlink:href="dir_000000_000032.html" target="_top">
<path fill="none" stroke="#63b8ff" d="M175.78,-169.42C140.12,-161.87 81.59,-147.27 67.89,-130.39 44.82,-101.97 47.43,-56.24 51.24,-30.7"/>
<polygon fill="#63b8ff" stroke="#63b8ff" points="54.75,-30.97 52.99,-20.52 47.85,-29.78 54.75,-30.97"/>
</a>
</g>
<g id="a_edge9&#45;headlabel"><a xlink:href="dir_000000_000032.html" target="_top" xlink:title="9">
<text text-anchor="middle" x="56.94" y="-32.49" font-family="Helvetica,sans-Serif" font-size="10.00" fill="#63b8ff">9</text>
</a>
</g>
</g>
<!-- dir_82abf9c3cae407e2f368e3cd0d776797 -->
<g id="node9" class="node">
<title>dir_82abf9c3cae407e2f368e3cd0d776797</title>
<g id="a_node9"><a xlink:href="dir_82abf9c3cae407e2f368e3cd0d776797.html" target="_top" xlink:title="Physics">
<polygon fill="#edf0f7" stroke="#7f7f7f" points="486.39,-75.39 433.39,-75.39 433.39,-56.39 486.39,-56.39 486.39,-75.39"/>
<text text-anchor="middle" x="459.89" y="-63.39" font-family="Helvetica,sans-Serif" font-size="10.00">Physics</text>
</a>
</g>
</g>
<!-- dir_a3a1ca8af9b616e247b3f0c90e8cde87&#45;&gt;dir_82abf9c3cae407e2f368e3cd0d776797 -->
<g id="edge12" class="edge">
<title>dir_a3a1ca8af9b616e247b3f0c90e8cde87&#45;&gt;dir_82abf9c3cae407e2f368e3cd0d776797</title>
<g id="a_edge12"><a xlink:href="dir_000000_000044.html" target="_top">
<path fill="none" stroke="#63b8ff" d="M231.97,-175.72C275.75,-175.65 361.2,-169.93 418.89,-130.39 435.09,-119.29 446.37,-99.46 452.93,-84.91"/>
<polygon fill="#63b8ff" stroke="#63b8ff" points="456.26,-86.02 456.89,-75.44 449.8,-83.32 456.26,-86.02"/>
</a>
</g>
<g id="a_edge12&#45;headlabel"><a xlink:href="dir_000000_000044.html" target="_top" xlink:title="4">
<text text-anchor="middle" x="457.5" y="-87.93" font-family="Helvetica,sans-Serif" font-size="10.00" fill="#63b8ff">4</text>
</a>
</g>
</g>
<!-- dir_a3a1ca8af9b616e247b3f0c90e8cde87&#45;&gt;dir_ed435641f8e8047e0f5542c775bc8256 -->
<g id="edge10" class="edge">
<title>dir_a3a1ca8af9b616e247b3f0c90e8cde87&#45;&gt;dir_ed435641f8e8047e0f5542c775bc8256</title>
<g id="a_edge10"><a xlink:href="dir_000000_000033.html" target="_top">
<path fill="none" stroke="#63b8ff" d="M232.07,-174.98C278.52,-174 372.9,-167.17 441.89,-130.39 472.12,-114.28 482.93,-107.1 495.89,-75.39 501.78,-60.99 506.05,-52.18 495.89,-40.39 475.44,-16.66 383.08,-12.39 334.68,-11.81"/>
<polygon fill="#63b8ff" stroke="#63b8ff" points="334.53,-8.31 324.51,-11.74 334.48,-15.31 334.53,-8.31"/>
</a>
</g>
<g id="a_edge10&#45;headlabel"><a xlink:href="dir_000000_000033.html" target="_top" xlink:title="19">
<text text-anchor="middle" x="338.15" y="-3" font-family="Helvetica,sans-Serif" font-size="10.00" fill="#63b8ff">19</text>
</a>
</g>
</g>
<!-- dir_43cb4bfd147dcd2c8e28f53755d3f09a&#45;&gt;dir_6951a24f4a3b17f76f94f0e7c618fb09 -->
<g id="edge14" class="edge">
<title>dir_43cb4bfd147dcd2c8e28f53755d3f09a&#45;&gt;dir_6951a24f4a3b17f76f94f0e7c618fb09</title>
<g id="a_edge14"><a xlink:href="dir_000016_000055.html" target="_top">
<path fill="none" stroke="#63b8ff" d="M109.66,-111.14C115.45,-103.65 123.95,-92.67 131.03,-83.52"/>
<polygon fill="#63b8ff" stroke="#63b8ff" points="133.9,-85.53 137.25,-75.48 128.36,-81.25 133.9,-85.53"/>
</a>
</g>
<g id="a_edge14&#45;headlabel"><a xlink:href="dir_000016_000055.html" target="_top" xlink:title="1">
<text text-anchor="middle" x="133.94" y="-87.61" font-family="Helvetica,sans-Serif" font-size="10.00" fill="#63b8ff">1</text>
</a>
</g>
</g>
<!-- dir_dbc329bf08cdcad994818f4c40ac845b&#45;&gt;dir_6951a24f4a3b17f76f94f0e7c618fb09 -->
<g id="edge15" class="edge">
<title>dir_dbc329bf08cdcad994818f4c40ac845b&#45;&gt;dir_6951a24f4a3b17f76f94f0e7c618fb09</title>
<g id="a_edge15"><a xlink:href="dir_000047_000055.html" target="_top">
<path fill="none" stroke="#63b8ff" d="M191.73,-111.38C183.39,-103.62 170.86,-91.97 160.72,-82.54"/>
<polygon fill="#63b8ff" stroke="#63b8ff" points="162.92,-79.81 153.22,-75.56 158.16,-84.94 162.92,-79.81"/>
</a>
</g>
<g id="a_edge15&#45;headlabel"><a xlink:href="dir_000047_000055.html" target="_top" xlink:title="2">
<text text-anchor="middle" x="167.49" y="-77.68" font-family="Helvetica,sans-Serif" font-size="10.00" fill="#63b8ff">2</text>
</a>
</g>
</g>
<!-- dir_dbc329bf08cdcad994818f4c40ac845b&#45;&gt;dir_4045643538bad1aadeff61b05dc9bc0d -->
<g id="edge18" class="edge">
<title>dir_dbc329bf08cdcad994818f4c40ac845b&#45;&gt;dir_4045643538bad1aadeff61b05dc9bc0d</title>
<g id="a_edge18"><a xlink:href="dir_000047_000010.html" target="_top">
<path fill="none" stroke="#63b8ff" d="M223.55,-111.38C246.74,-102.66 283.01,-89.02 309.29,-79.15"/>
<polygon fill="#63b8ff" stroke="#63b8ff" points="310.7,-82.36 318.83,-75.56 308.23,-75.81 310.7,-82.36"/>
</a>
</g>
<g id="a_edge18&#45;headlabel"><a xlink:href="dir_000047_000010.html" target="_top" xlink:title="1">
<text text-anchor="middle" x="308.33" y="-83.78" font-family="Helvetica,sans-Serif" font-size="10.00" fill="#63b8ff">1</text>
</a>
</g>
</g>
<!-- dir_dbc329bf08cdcad994818f4c40ac845b&#45;&gt;dir_6d30109d817e3a6d4be9084cc265e05a -->
<g id="edge16" class="edge">
<title>dir_dbc329bf08cdcad994818f4c40ac845b&#45;&gt;dir_6d30109d817e3a6d4be9084cc265e05a</title>
<g id="a_edge16"><a xlink:href="dir_000047_000032.html" target="_top">
<path fill="none" stroke="#63b8ff" d="M175.97,-111.34C156.25,-103.82 128.67,-91.54 107.89,-75.39 91.13,-62.36 76.05,-43.2 66.3,-29.33"/>
<polygon fill="#63b8ff" stroke="#63b8ff" points="68.96,-27.03 60.45,-20.72 63.17,-30.96 68.96,-27.03"/>
</a>
</g>
<g id="a_edge16&#45;headlabel"><a xlink:href="dir_000047_000032.html" target="_top" xlink:title="3">
<text text-anchor="middle" x="73.33" y="-25.9" font-family="Helvetica,sans-Serif" font-size="10.00" fill="#63b8ff">3</text>
</a>
</g>
</g>
<!-- dir_dbc329bf08cdcad994818f4c40ac845b&#45;&gt;dir_82abf9c3cae407e2f368e3cd0d776797 -->
<g id="edge17" class="edge">
<title>dir_dbc329bf08cdcad994818f4c40ac845b&#45;&gt;dir_82abf9c3cae407e2f368e3cd0d776797</title>
<g id="a_edge17"><a xlink:href="dir_000047_000044.html" target="_top">
<path fill="none" stroke="#63b8ff" d="M234.45,-112.35C235.95,-112.02 237.44,-111.7 238.89,-111.39 303.75,-97.61 379.56,-82.58 423.41,-73.99"/>
<polygon fill="#63b8ff" stroke="#63b8ff" points="424.18,-77.41 433.32,-72.05 422.83,-70.54 424.18,-77.41"/>
</a>
</g>
<g id="a_edge17&#45;headlabel"><a xlink:href="dir_000047_000044.html" target="_top" xlink:title="1">
<text text-anchor="middle" x="421.2" y="-78.38" font-family="Helvetica,sans-Serif" font-size="10.00" fill="#63b8ff">1</text>
</a>
</g>
</g>
<!-- dir_dbc329bf08cdcad994818f4c40ac845b&#45;&gt;dir_ed435641f8e8047e0f5542c775bc8256 -->
<g id="edge19" class="edge">
<title>dir_dbc329bf08cdcad994818f4c40ac845b&#45;&gt;dir_ed435641f8e8047e0f5542c775bc8256</title>
<g id="a_edge19"><a xlink:href="dir_000047_000033.html" target="_top">
<path fill="none" stroke="#63b8ff" d="M209.4,-111.05C226.94,-92.85 267.29,-50.94 289.52,-27.86"/>
<polygon fill="#63b8ff" stroke="#63b8ff" points="292.14,-30.18 296.56,-20.55 287.1,-25.33 292.14,-30.18"/>
</a>
</g>
<g id="a_edge19&#45;headlabel"><a xlink:href="dir_000047_000033.html" target="_top" xlink:title="2">
<text text-anchor="middle" x="291.69" y="-32.24" font-family="Helvetica,sans-Serif" font-size="10.00" fill="#63b8ff">2</text>
</a>
</g>
</g>
<!-- dir_6951a24f4a3b17f76f94f0e7c618fb09&#45;&gt;dir_6d30109d817e3a6d4be9084cc265e05a -->
<g id="edge20" class="edge">
<title>dir_6951a24f4a3b17f76f94f0e7c618fb09&#45;&gt;dir_6d30109d817e3a6d4be9084cc265e05a</title>
<g id="a_edge20"><a xlink:href="dir_000055_000032.html" target="_top">
<path fill="none" stroke="#63b8ff" d="M129.59,-56.38C115.79,-48.16 94.65,-35.57 78.38,-25.88"/>
<polygon fill="#63b8ff" stroke="#63b8ff" points="79.84,-22.67 69.45,-20.56 76.25,-28.69 79.84,-22.67"/>
</a>
</g>
<g id="a_edge20&#45;headlabel"><a xlink:href="dir_000055_000032.html" target="_top" xlink:title="1">
<text text-anchor="middle" x="84.38" y="-19.57" font-family="Helvetica,sans-Serif" font-size="10.00" fill="#63b8ff">1</text>
</a>
</g>
</g>
<!-- dir_6951a24f4a3b17f76f94f0e7c618fb09&#45;&gt;dir_ed435641f8e8047e0f5542c775bc8256 -->
<g id="edge21" class="edge">
<title>dir_6951a24f4a3b17f76f94f0e7c618fb09&#45;&gt;dir_ed435641f8e8047e0f5542c775bc8256</title>
<g id="a_edge21"><a xlink:href="dir_000055_000033.html" target="_top">
<path fill="none" stroke="#63b8ff" d="M158.3,-56.25C167.4,-51.08 179.54,-44.7 190.89,-40.39 218.68,-29.85 251.76,-22.07 275.11,-17.33"/>
<polygon fill="#63b8ff" stroke="#63b8ff" points="275.96,-20.73 285.1,-15.37 274.61,-13.86 275.96,-20.73"/>
</a>
</g>
<g id="a_edge21&#45;headlabel"><a xlink:href="dir_000055_000033.html" target="_top" xlink:title="4">
<text text-anchor="middle" x="272.98" y="-21.71" font-family="Helvetica,sans-Serif" font-size="10.00" fill="#63b8ff">4</text>
</a>
</g>
</g>
</g>
</svg>
