<?xml version="1.0" encoding="UTF-8" standalone="no"?>
<!DOCTYPE svg PUBLIC "-//W3C//DTD SVG 1.1//EN"
 "http://www.w3.org/Graphics/SVG/1.1/DTD/svg11.dtd">
<!-- Generated by graphviz version 2.43.0 (0)
 -->
<!-- Title: /home/runner/work/Weaver/Weaver/include/Misc/JsonValidator/Elements/Element.h Pages: 1 -->
<svg width="441pt" height="225pt"
 viewBox="0.00 0.00 441.00 225.00" xmlns="http://www.w3.org/2000/svg" xmlns:xlink="http://www.w3.org/1999/xlink">
<g id="graph0" class="graph" transform="scale(1 1) rotate(0) translate(4 221)">
<title>/home/runner/work/Weaver/Weaver/include/Misc/JsonValidator/Elements/Element.h</title>
<!-- Node1 -->
<g id="Node000001" class="node">
<title>Node1</title>
<g id="a_Node000001"><a xlink:title="Abstract base class representing a configurable element in JSON&#45;based configurations.">
<polygon fill="#999999" stroke="#666666" points="220,-217 33,-217 33,-176 220,-176 220,-217"/>
<text text-anchor="start" x="41" y="-205" font-family="Helvetica,sans-Serif" font-size="10.00">/home/runner/work/Weaver</text>
<text text-anchor="start" x="41" y="-194" font-family="Helvetica,sans-Serif" font-size="10.00">/Weaver/include/Misc/JsonValidator</text>
<text text-anchor="middle" x="126.5" y="-183" font-family="Helvetica,sans-Serif" font-size="10.00">/Elements/Element.h</text>
</a>
</g>
</g>
<!-- Node2 -->
<g id="Node000002" class="node">
<title>Node2</title>
<g id="a_Node000002"><a xlink:title=" ">
<polygon fill="#e0e0e0" stroke="#999999" points="47,-134.5 0,-134.5 0,-115.5 47,-115.5 47,-134.5"/>
<text text-anchor="middle" x="23.5" y="-122.5" font-family="Helvetica,sans-Serif" font-size="10.00">vector</text>
</a>
</g>
</g>
<!-- Node1&#45;&gt;Node2 -->
<g id="edge1_Node000001_Node000002" class="edge">
<title>Node1&#45;&gt;Node2</title>
<g id="a_edge1_Node000001_Node000002"><a xlink:title=" ">
<path fill="none" stroke="#63b8ff" d="M97.53,-175.96C80.78,-164.65 60.06,-150.67 44.81,-140.38"/>
<polygon fill="#63b8ff" stroke="#63b8ff" points="46.35,-137.2 36.1,-134.5 42.43,-143 46.35,-137.2"/>
</a>
</g>
</g>
<!-- Node3 -->
<g id="Node000003" class="node">
<title>Node3</title>
<g id="a_Node000003"><a xlink:title=" ">
<polygon fill="#e0e0e0" stroke="#999999" points="258.5,-19 214.5,-19 214.5,0 258.5,0 258.5,-19"/>
<text text-anchor="middle" x="236.5" y="-7" font-family="Helvetica,sans-Serif" font-size="10.00">string</text>
</a>
</g>
</g>
<!-- Node1&#45;&gt;Node3 -->
<g id="edge2_Node000001_Node000003" class="edge">
<title>Node1&#45;&gt;Node3</title>
<g id="a_edge2_Node000001_Node000003"><a xlink:title=" ">
<path fill="none" stroke="#63b8ff" d="M109.94,-175.91C97.1,-158.19 83.23,-131.65 94.5,-110 117.58,-65.64 170.49,-36.96 204.81,-22.28"/>
<polygon fill="#63b8ff" stroke="#63b8ff" points="206.46,-25.39 214.38,-18.34 203.8,-18.91 206.46,-25.39"/>
</a>
</g>
</g>
<!-- Node4 -->
<g id="Node000004" class="node">
<title>Node4</title>
<g id="a_Node000004"><a xlink:title=" ">
<polygon fill="#e0e0e0" stroke="#999999" points="149,-134.5 104,-134.5 104,-115.5 149,-115.5 149,-134.5"/>
<text text-anchor="middle" x="126.5" y="-122.5" font-family="Helvetica,sans-Serif" font-size="10.00">utility</text>
</a>
</g>
</g>
<!-- Node1&#45;&gt;Node4 -->
<g id="edge3_Node000001_Node000004" class="edge">
<title>Node1&#45;&gt;Node4</title>
<g id="a_edge3_Node000001_Node000004"><a xlink:title=" ">
<path fill="none" stroke="#63b8ff" d="M126.5,-175.77C126.5,-166.08 126.5,-154.46 126.5,-144.88"/>
<polygon fill="#63b8ff" stroke="#63b8ff" points="130,-144.82 126.5,-134.82 123,-144.82 130,-144.82"/>
</a>
</g>
</g>
<!-- Node5 -->
<g id="Node000005" class="node">
<title>Node5</title>
<g id="a_Node000005"><a xlink:title=" ">
<polygon fill="#e0e0e0" stroke="#999999" points="277.5,-134.5 167.5,-134.5 167.5,-115.5 277.5,-115.5 277.5,-134.5"/>
<text text-anchor="middle" x="222.5" y="-122.5" font-family="Helvetica,sans-Serif" font-size="10.00">nlohmann/json.hpp</text>
</a>
</g>
</g>
<!-- Node1&#45;&gt;Node5 -->
<g id="edge4_Node000001_Node000005" class="edge">
<title>Node1&#45;&gt;Node5</title>
<g id="a_edge4_Node000001_Node000005"><a xlink:title=" ">
<path fill="none" stroke="#63b8ff" d="M153.5,-175.96C169.11,-164.65 188.42,-150.67 202.64,-140.38"/>
<polygon fill="#63b8ff" stroke="#63b8ff" points="204.71,-143.2 210.75,-134.5 200.6,-137.53 204.71,-143.2"/>
</a>
</g>
</g>
<!-- Node6 -->
<g id="Node000006" class="node">
<title>Node6</title>
<g id="a_Node000006"><a xlink:href="Exceptions_8h.html" target="_top" xlink:title="Defines JSON validator exception classes with line/file information for error reporting.">
<polygon fill="white" stroke="#666666" points="401.5,-140 295.5,-140 295.5,-110 401.5,-110 401.5,-140"/>
<text text-anchor="start" x="303.5" y="-128" font-family="Helvetica,sans-Serif" font-size="10.00">Misc/JsonValidator</text>
<text text-anchor="middle" x="348.5" y="-117" font-family="Helvetica,sans-Serif" font-size="10.00">/Exceptions.h</text>
</a>
</g>
</g>
<!-- Node1&#45;&gt;Node6 -->
<g id="edge5_Node000001_Node000006" class="edge">
<title>Node1&#45;&gt;Node6</title>
<g id="a_edge5_Node000001_Node000006"><a xlink:title=" ">
<path fill="none" stroke="#63b8ff" d="M188.93,-175.96C222.05,-165.59 262.37,-152.97 294.18,-143"/>
<polygon fill="#63b8ff" stroke="#63b8ff" points="295.27,-146.33 303.77,-140 293.18,-139.65 295.27,-146.33"/>
</a>
</g>
</g>
<!-- Node6&#45;&gt;Node3 -->
<g id="edge6_Node000006_Node000003" class="edge">
<title>Node6&#45;&gt;Node3</title>
<g id="a_edge6_Node000006_Node000003"><a xlink:title=" ">
<path fill="none" stroke="#63b8ff" d="M306.59,-109.86C288.59,-101.88 268.71,-90.2 255.5,-74 245.16,-61.32 240.44,-43.14 238.3,-29.47"/>
<polygon fill="#63b8ff" stroke="#63b8ff" points="241.74,-28.77 237.03,-19.28 234.79,-29.64 241.74,-28.77"/>
</a>
</g>
</g>
<!-- Node7 -->
<g id="Node000007" class="node">
<title>Node7</title>
<g id="a_Node000007"><a xlink:href="LineInfoException_8h.html" target="_top" xlink:title="Exception class with detailed file and line information for error reporting.">
<polygon fill="white" stroke="#666666" points="433,-74 264,-74 264,-55 433,-55 433,-74"/>
<text text-anchor="middle" x="348.5" y="-62" font-family="Helvetica,sans-Serif" font-size="10.00">Exceptions/LineInfoException.h</text>
</a>
</g>
</g>
<!-- Node6&#45;&gt;Node7 -->
<g id="edge7_Node000006_Node000007" class="edge">
<title>Node6&#45;&gt;Node7</title>
<g id="a_edge7_Node000006_Node000007"><a xlink:title=" ">
<path fill="none" stroke="#63b8ff" d="M348.5,-109.84C348.5,-102.21 348.5,-92.7 348.5,-84.45"/>
<polygon fill="#63b8ff" stroke="#63b8ff" points="352,-84.27 348.5,-74.27 345,-84.27 352,-84.27"/>
</a>
</g>
</g>
<!-- Node7&#45;&gt;Node3 -->
<g id="edge9_Node000007_Node000003" class="edge">
<title>Node7&#45;&gt;Node3</title>
<g id="a_edge9_Node000007_Node000003"><a xlink:title=" ">
<path fill="none" stroke="#63b8ff" d="M330.51,-54.98C312.57,-46.5 284.78,-33.35 264.07,-23.54"/>
<polygon fill="#63b8ff" stroke="#63b8ff" points="265.36,-20.28 254.82,-19.17 262.36,-26.61 265.36,-20.28"/>
</a>
</g>
</g>
<!-- Node8 -->
<g id="Node000008" class="node">
<title>Node8</title>
<g id="a_Node000008"><a xlink:title=" ">
<polygon fill="#e0e0e0" stroke="#999999" points="381,-19 316,-19 316,0 381,0 381,-19"/>
<text text-anchor="middle" x="348.5" y="-7" font-family="Helvetica,sans-Serif" font-size="10.00">exception</text>
</a>
</g>
</g>
<!-- Node7&#45;&gt;Node8 -->
<g id="edge8_Node000007_Node000008" class="edge">
<title>Node7&#45;&gt;Node8</title>
<g id="a_edge8_Node000007_Node000008"><a xlink:title=" ">
<path fill="none" stroke="#63b8ff" d="M348.5,-54.75C348.5,-47.8 348.5,-37.85 348.5,-29.13"/>
<polygon fill="#63b8ff" stroke="#63b8ff" points="352,-29.09 348.5,-19.09 345,-29.09 352,-29.09"/>
</a>
</g>
</g>
</g>
</svg>
