<?xml version="1.0" encoding="UTF-8" standalone="no"?>
<!DOCTYPE svg PUBLIC "-//W3C//DTD SVG 1.1//EN"
 "http://www.w3.org/Graphics/SVG/1.1/DTD/svg11.dtd">
<!-- Generated by graphviz version 2.43.0 (0)
 -->
<!-- Title: Graphical Class Hierarchy Pages: 1 -->
<svg width="277pt" height="64pt"
 viewBox="0.00 0.00 277.00 64.00" xmlns="http://www.w3.org/2000/svg" xmlns:xlink="http://www.w3.org/1999/xlink">
<g id="graph0" class="graph" transform="scale(1 1) rotate(0) translate(4 60)">
<title>Graphical Class Hierarchy</title>
<!-- Node0 -->
<g id="Node000000" class="node">
<title>Node0</title>
<g id="a_Node000000"><a xlink:href="classTraitDefinitionSection.html" target="_top" xlink:title="Represents the definition of a trait, either at the species or individual level.">
<polygon fill="white" stroke="#666666" points="121,-37 0,-37 0,-18 121,-18 121,-37"/>
<text text-anchor="middle" x="60.5" y="-25" font-family="Helvetica,sans-Serif" font-size="10.00">TraitDefinitionSection</text>
</a>
</g>
</g>
<!-- Node1 -->
<g id="Node000001" class="node">
<title>Node1</title>
<g id="a_Node000001"><a xlink:href="classIndividualLevelTrait.html" target="_top" xlink:title="Represents a trait defined at the individual level within a species.">
<polygon fill="white" stroke="#666666" points="269,-56 157,-56 157,-37 269,-37 269,-56"/>
<text text-anchor="middle" x="213" y="-44" font-family="Helvetica,sans-Serif" font-size="10.00">IndividualLevelTrait</text>
</a>
</g>
</g>
<!-- Node0&#45;&gt;Node1 -->
<g id="edge93_Node000000_Node000001" class="edge">
<title>Node0&#45;&gt;Node1</title>
<g id="a_edge93_Node000000_Node000001"><a xlink:title=" ">
<path fill="none" stroke="#63b8ff" d="M131.61,-36.35C140.02,-37.41 148.52,-38.49 156.69,-39.52"/>
<polygon fill="#63b8ff" stroke="#63b8ff" points="131.77,-32.84 121.41,-35.06 130.9,-39.79 131.77,-32.84"/>
</a>
</g>
</g>
<!-- Node2 -->
<g id="Node000002" class="node">
<title>Node2</title>
<g id="a_Node000002"><a xlink:href="classSpeciesLevelTrait.html" target="_top" xlink:title="Represents a trait that is constant for all individuals of a species.">
<polygon fill="white" stroke="#666666" points="263.5,-19 162.5,-19 162.5,0 263.5,0 263.5,-19"/>
<text text-anchor="middle" x="213" y="-7" font-family="Helvetica,sans-Serif" font-size="10.00">SpeciesLevelTrait</text>
</a>
</g>
</g>
<!-- Node0&#45;&gt;Node2 -->
<g id="edge94_Node000000_Node000002" class="edge">
<title>Node0&#45;&gt;Node2</title>
<g id="a_edge94_Node000000_Node000002"><a xlink:title=" ">
<path fill="none" stroke="#63b8ff" d="M131.4,-19.14C141.88,-17.89 152.51,-16.62 162.45,-15.43"/>
<polygon fill="#63b8ff" stroke="#63b8ff" points="130.93,-15.67 121.41,-20.33 131.76,-22.62 130.93,-15.67"/>
</a>
</g>
</g>
</g>
</svg>
