<?xml version="1.0" encoding="UTF-8" standalone="no"?>
<!DOCTYPE svg PUBLIC "-//W3C//DTD SVG 1.1//EN"
 "http://www.w3.org/Graphics/SVG/1.1/DTD/svg11.dtd">
<!-- Generated by graphviz version 2.43.0 (0)
 -->
<!-- Title: /home/runner/work/Weaver/Weaver/include/App/View/GUI/Widgets/LogTextbox.h Pages: 1 -->
<svg width="885pt" height="104pt"
 viewBox="0.00 0.00 885.00 104.00" xmlns="http://www.w3.org/2000/svg" xmlns:xlink="http://www.w3.org/1999/xlink">
<g id="graph0" class="graph" transform="scale(1 1) rotate(0) translate(4 100)">
<title>/home/runner/work/Weaver/Weaver/include/App/View/GUI/Widgets/LogTextbox.h</title>
<!-- Node1 -->
<g id="Node000001" class="node">
<title>Node1</title>
<g id="a_Node000001"><a xlink:title="Defines the LogTextbox widget for displaying log messages.">
<polygon fill="#999999" stroke="#666666" points="638.5,-96 489.5,-96 489.5,-55 638.5,-55 638.5,-96"/>
<text text-anchor="start" x="497.5" y="-84" font-family="Helvetica,sans-Serif" font-size="10.00">/home/runner/work/Weaver</text>
<text text-anchor="start" x="497.5" y="-73" font-family="Helvetica,sans-Serif" font-size="10.00">/Weaver/include/App/View</text>
<text text-anchor="middle" x="564" y="-62" font-family="Helvetica,sans-Serif" font-size="10.00">/GUI/Widgets/LogTextbox.h</text>
</a>
</g>
</g>
<!-- Node2 -->
<g id="Node000002" class="node">
<title>Node2</title>
<g id="a_Node000002"><a xlink:title=" ">
<polygon fill="#e0e0e0" stroke="#999999" points="80,-19 0,-19 0,0 80,0 80,-19"/>
<text text-anchor="middle" x="40" y="-7" font-family="Helvetica,sans-Serif" font-size="10.00">nana/gui.hpp</text>
</a>
</g>
</g>
<!-- Node1&#45;&gt;Node2 -->
<g id="edge1_Node000001_Node000002" class="edge">
<title>Node1&#45;&gt;Node2</title>
<g id="a_edge1_Node000001_Node000002"><a xlink:title=" ">
<path fill="none" stroke="#63b8ff" d="M489.38,-67.07C397.79,-57.67 237.52,-40.27 90.21,-19.1"/>
<polygon fill="#63b8ff" stroke="#63b8ff" points="90.48,-15.61 80.08,-17.64 89.48,-22.53 90.48,-15.61"/>
</a>
</g>
</g>
<!-- Node3 -->
<g id="Node000003" class="node">
<title>Node3</title>
<g id="a_Node000003"><a xlink:title=" ">
<polygon fill="#e0e0e0" stroke="#999999" points="249.5,-19 98.5,-19 98.5,0 249.5,0 249.5,-19"/>
<text text-anchor="middle" x="174" y="-7" font-family="Helvetica,sans-Serif" font-size="10.00">nana/gui/widgets/panel.hpp</text>
</a>
</g>
</g>
<!-- Node1&#45;&gt;Node3 -->
<g id="edge2_Node000001_Node000003" class="edge">
<title>Node1&#45;&gt;Node3</title>
<g id="a_edge2_Node000001_Node000003"><a xlink:title=" ">
<path fill="none" stroke="#63b8ff" d="M489.27,-62.24C415.84,-50.19 305.1,-32.01 236.3,-20.72"/>
<polygon fill="#63b8ff" stroke="#63b8ff" points="236.48,-17.21 226.04,-19.04 235.34,-24.11 236.48,-17.21"/>
</a>
</g>
</g>
<!-- Node4 -->
<g id="Node000004" class="node">
<title>Node4</title>
<g id="a_Node000004"><a xlink:title=" ">
<polygon fill="#e0e0e0" stroke="#999999" points="428.5,-19 267.5,-19 267.5,0 428.5,0 428.5,-19"/>
<text text-anchor="middle" x="348" y="-7" font-family="Helvetica,sans-Serif" font-size="10.00">nana/gui/widgets/textbox.hpp</text>
</a>
</g>
</g>
<!-- Node1&#45;&gt;Node4 -->
<g id="edge3_Node000001_Node000004" class="edge">
<title>Node1&#45;&gt;Node4</title>
<g id="a_edge3_Node000001_Node000004"><a xlink:title=" ">
<path fill="none" stroke="#63b8ff" d="M498.02,-54.95C461.57,-44.15 417.56,-31.11 386.66,-21.95"/>
<polygon fill="#63b8ff" stroke="#63b8ff" points="387.3,-18.49 376.71,-19.01 385.31,-25.2 387.3,-18.49"/>
</a>
</g>
</g>
<!-- Node5 -->
<g id="Node000005" class="node">
<title>Node5</title>
<g id="a_Node000005"><a xlink:title=" ">
<polygon fill="#e0e0e0" stroke="#999999" points="555,-19 447,-19 447,0 555,0 555,-19"/>
<text text-anchor="middle" x="501" y="-7" font-family="Helvetica,sans-Serif" font-size="10.00">nana/gui/timer.hpp</text>
</a>
</g>
</g>
<!-- Node1&#45;&gt;Node5 -->
<g id="edge4_Node000001_Node000005" class="edge">
<title>Node1&#45;&gt;Node5</title>
<g id="a_edge4_Node000001_Node000005"><a xlink:title=" ">
<path fill="none" stroke="#63b8ff" d="M544.76,-54.95C535.78,-45.83 525.23,-35.11 516.74,-26.49"/>
<polygon fill="#63b8ff" stroke="#63b8ff" points="519.13,-23.93 509.62,-19.26 514.14,-28.84 519.13,-23.93"/>
</a>
</g>
</g>
<!-- Node6 -->
<g id="Node000006" class="node">
<title>Node6</title>
<g id="a_Node000006"><a xlink:title=" ">
<polygon fill="#e0e0e0" stroke="#999999" points="682.5,-19 573.5,-19 573.5,0 682.5,0 682.5,-19"/>
<text text-anchor="middle" x="628" y="-7" font-family="Helvetica,sans-Serif" font-size="10.00">nana/gui/place.hpp</text>
</a>
</g>
</g>
<!-- Node1&#45;&gt;Node6 -->
<g id="edge5_Node000001_Node000006" class="edge">
<title>Node1&#45;&gt;Node6</title>
<g id="a_edge5_Node000001_Node000006"><a xlink:title=" ">
<path fill="none" stroke="#63b8ff" d="M583.55,-54.95C592.67,-45.83 603.39,-35.11 612.01,-26.49"/>
<polygon fill="#63b8ff" stroke="#63b8ff" points="614.64,-28.81 619.24,-19.26 609.69,-23.86 614.64,-28.81"/>
</a>
</g>
</g>
<!-- Node7 -->
<g id="Node000007" class="node">
<title>Node7</title>
<g id="a_Node000007"><a xlink:title=" ">
<polygon fill="#e0e0e0" stroke="#999999" points="749,-19 701,-19 701,0 749,0 749,-19"/>
<text text-anchor="middle" x="725" y="-7" font-family="Helvetica,sans-Serif" font-size="10.00">mutex</text>
</a>
</g>
</g>
<!-- Node1&#45;&gt;Node7 -->
<g id="edge6_Node000001_Node000007" class="edge">
<title>Node1&#45;&gt;Node7</title>
<g id="a_edge6_Node000001_Node000007"><a xlink:title=" ">
<path fill="none" stroke="#63b8ff" d="M613.18,-54.95C639.44,-44.51 670.97,-31.98 693.84,-22.88"/>
<polygon fill="#63b8ff" stroke="#63b8ff" points="695.39,-26.04 703.39,-19.09 692.8,-19.53 695.39,-26.04"/>
</a>
</g>
</g>
<!-- Node8 -->
<g id="Node000008" class="node">
<title>Node8</title>
<g id="a_Node000008"><a xlink:title=" ">
<polygon fill="#e0e0e0" stroke="#999999" points="814.5,-19 767.5,-19 767.5,0 814.5,0 814.5,-19"/>
<text text-anchor="middle" x="791" y="-7" font-family="Helvetica,sans-Serif" font-size="10.00">queue</text>
</a>
</g>
</g>
<!-- Node1&#45;&gt;Node8 -->
<g id="edge7_Node000001_Node000008" class="edge">
<title>Node1&#45;&gt;Node8</title>
<g id="a_edge7_Node000001_Node000008"><a xlink:title=" ">
<path fill="none" stroke="#63b8ff" d="M633.34,-54.95C674.52,-43.34 724.88,-29.14 757.43,-19.96"/>
<polygon fill="#63b8ff" stroke="#63b8ff" points="758.67,-23.25 767.34,-17.17 756.77,-16.51 758.67,-23.25"/>
</a>
</g>
</g>
<!-- Node9 -->
<g id="Node000009" class="node">
<title>Node9</title>
<g id="a_Node000009"><a xlink:title=" ">
<polygon fill="#e0e0e0" stroke="#999999" points="877,-19 833,-19 833,0 877,0 877,-19"/>
<text text-anchor="middle" x="855" y="-7" font-family="Helvetica,sans-Serif" font-size="10.00">string</text>
</a>
</g>
</g>
<!-- Node1&#45;&gt;Node9 -->
<g id="edge8_Node000001_Node000009" class="edge">
<title>Node1&#45;&gt;Node9</title>
<g id="a_edge8_Node000001_Node000009"><a xlink:title=" ">
<path fill="none" stroke="#63b8ff" d="M638.5,-59.78C688.18,-49.68 755.15,-35.56 822.72,-19.21"/>
<polygon fill="#63b8ff" stroke="#63b8ff" points="823.8,-22.55 832.69,-16.78 822.14,-15.75 823.8,-22.55"/>
</a>
</g>
</g>
</g>
</svg>
