<?xml version="1.0" encoding="UTF-8" standalone="no"?>
<!DOCTYPE svg PUBLIC "-//W3C//DTD SVG 1.1//EN"
 "http://www.w3.org/Graphics/SVG/1.1/DTD/svg11.dtd">
<!-- Generated by graphviz version 2.43.0 (0)
 -->
<!-- Title: /home/runner/work/Weaver/Weaver/include/Misc/JsonValidator/Elements/String.h Pages: 1 -->
<!--zoomable 291 -->

<svg id="main" version="1.1" xmlns="http://www.w3.org/2000/svg" xmlns:xlink="http://www.w3.org/1999/xlink" xml:space="preserve" onload="init(evt)">
<style type="text/css"><![CDATA[
.node, .edge {opacity: 0.7;}
.node.selected, .edge.selected {opacity: 1;}
.edge:hover path { stroke: red; }
.edge:hover polygon { stroke: red; fill: red; }
]]></style>

<defs>
  <circle id="rim" cx="0" cy="0" r="7"/>
  <circle id="rim2" cx="0" cy="0" r="3.5"/>
  <g id="zoomPlus">
    <use xlink:href="#rim" fill="#404040"><set attributeName="fill" to="#808080" begin="zoomplus.mouseover" end="zoomplus.mouseout"/></use>
    <path d="M-4,0h8M0,-4v8" fill="none" stroke="white" stroke-width="1.5" pointer-events="none"/>
  </g>
  <g id="zoomMin">
    <use xlink:href="#rim" fill="#404040"><set attributeName="fill" to="#808080" begin="zoomminus.mouseover" end="zoomminus.mouseout"/></use>
    <path d="M-4,0h8" fill="none" stroke="white" stroke-width="1.5" pointer-events="none"/>
  </g>
  <g id="arrowUp" transform="translate(30 24)">
    <use xlink:href="#rim"/>
    <path pointer-events="none" fill="none" stroke="white" stroke-width="1.5" d="M0,-3.0v7 M-2.5,-0.5L0,-3.0L2.5,-0.5"/>
  </g>
  <g id="arrowRight" transform="rotate(90) translate(36 -43)">
    <use xlink:href="#rim"/>
    <path pointer-events="none" fill="none" stroke="white" stroke-width="1.5" d="M0,-3.0v7 M-2.5,-0.5L0,-3.0L2.5,-0.5"/>
  </g>
  <g id="arrowDown" transform="rotate(180) translate(-30 -48)">
    <use xlink:href="#rim"/>
    <path pointer-events="none" fill="none" stroke="white" stroke-width="1.5" d="M0,-3.0v7 M-2.5,-0.5L0,-3.0L2.5,-0.5"/>
  </g>
  <g id="arrowLeft" transform="rotate(270) translate(-36 17)">
    <use xlink:href="#rim"/>
    <path pointer-events="none" fill="none" stroke="white" stroke-width="1.5" d="M0,-3.0v7 M-2.5,-0.5L0,-3.0L2.5,-0.5"/>
  </g>
  <g id="resetDef">
    <use xlink:href="#rim2" fill="#404040"><set attributeName="fill" to="#808080" begin="reset.mouseover" end="reset.mouseout"/></use>
  </g>
</defs>
<script type="application/ecmascript">
var viewWidth = 552;
var viewHeight = 291;
var sectionId = 'dynsection-0';
</script>
<script type="application/ecmascript" xlink:href="svg.min.js"/>
<svg id="graph" class="graph">
<g id="viewport">
<title>/home/runner/work/Weaver/Weaver/include/Misc/JsonValidator/Elements/String.h</title>
<!-- Node1 -->
<g id="Node000001" class="node">
<title>Node1</title>
<g id="a_Node000001"><a xlink:title="Defines the String class, a JSON Schema validator element representing string types.">
<polygon fill="#999999" stroke="#666666" points="391.7,-283 204.7,-283 204.7,-242 391.7,-242 391.7,-283"/>
<text text-anchor="start" x="212.7" y="-271" font-family="Helvetica,sans-Serif" font-size="10.00">/home/runner/work/Weaver</text>
<text text-anchor="start" x="212.7" y="-260" font-family="Helvetica,sans-Serif" font-size="10.00">/Weaver/include/Misc/JsonValidator</text>
<text text-anchor="middle" x="298.2" y="-249" font-family="Helvetica,sans-Serif" font-size="10.00">/Elements/String.h</text>
</a>
</g>
</g>
<!-- Node2 -->
<g id="Node000002" class="node">
<title>Node2</title>
<g id="a_Node000002"><a xlink:title=" ">
<polygon fill="#e0e0e0" stroke="#999999" points="63.7,-134.5 16.7,-134.5 16.7,-115.5 63.7,-115.5 63.7,-134.5"/>
<text text-anchor="middle" x="40.2" y="-122.5" font-family="Helvetica,sans-Serif" font-size="10.00">vector</text>
</a>
</g>
</g>
<!-- Node1&#45;&gt;Node2 -->
<g id="edge1_Node000001_Node000002" class="edge">
<title>Node1&#45;&gt;Node2</title>
<g id="a_edge1_Node000001_Node000002"><a xlink:title=" ">
<path fill="none" stroke="#63b8ff" d="M214.79,-241.91C186.22,-233.25 154.78,-221.45 128.2,-206 98.75,-188.87 70.71,-160.59 54.49,-142.65"/>
<polygon fill="#63b8ff" stroke="#63b8ff" points="56.77,-139.94 47.53,-134.76 51.53,-144.58 56.77,-139.94"/>
</a>
</g>
</g>
<!-- Node3 -->
<g id="Node000003" class="node">
<title>Node3</title>
<g id="a_Node000003"><a xlink:title=" ">
<polygon fill="#e0e0e0" stroke="#999999" points="54.2,-19 10.2,-19 10.2,0 54.2,0 54.2,-19"/>
<text text-anchor="middle" x="32.2" y="-7" font-family="Helvetica,sans-Serif" font-size="10.00">string</text>
</a>
</g>
</g>
<!-- Node1&#45;&gt;Node3 -->
<g id="edge2_Node000001_Node000003" class="edge">
<title>Node1&#45;&gt;Node3</title>
<g id="a_edge2_Node000001_Node000003"><a xlink:title=" ">
<path fill="none" stroke="#63b8ff" d="M204.37,-254.06C132.92,-242.53 41.24,-213.38 7.2,-140 -10.15,-102.59 9.29,-53.73 22.34,-28.04"/>
<polygon fill="#63b8ff" stroke="#63b8ff" points="25.48,-29.58 27.1,-19.11 19.3,-26.29 25.48,-29.58"/>
</a>
</g>
</g>
<!-- Node4 -->
<g id="Node000004" class="node">
<title>Node4</title>
<g id="a_Node000004"><a xlink:title=" ">
<polygon fill="#e0e0e0" stroke="#999999" points="309.7,-134.5 264.7,-134.5 264.7,-115.5 309.7,-115.5 309.7,-134.5"/>
<text text-anchor="middle" x="287.2" y="-122.5" font-family="Helvetica,sans-Serif" font-size="10.00">utility</text>
</a>
</g>
</g>
<!-- Node1&#45;&gt;Node4 -->
<g id="edge3_Node000001_Node000004" class="edge">
<title>Node1&#45;&gt;Node4</title>
<g id="a_edge3_Node000001_Node000004"><a xlink:title=" ">
<path fill="none" stroke="#63b8ff" d="M296.6,-241.8C294.5,-215.83 290.81,-170.45 288.74,-144.89"/>
<polygon fill="#63b8ff" stroke="#63b8ff" points="292.21,-144.37 287.91,-134.69 285.23,-144.94 292.21,-144.37"/>
</a>
</g>
</g>
<!-- Node5 -->
<g id="Node000005" class="node">
<title>Node5</title>
<g id="a_Node000005"><a xlink:title=" ">
<polygon fill="#e0e0e0" stroke="#999999" points="408.2,-200.5 364.2,-200.5 364.2,-181.5 408.2,-181.5 408.2,-200.5"/>
<text text-anchor="middle" x="386.2" y="-188.5" font-family="Helvetica,sans-Serif" font-size="10.00">regex</text>
</a>
</g>
</g>
<!-- Node1&#45;&gt;Node5 -->
<g id="edge4_Node000001_Node000005" class="edge">
<title>Node1&#45;&gt;Node5</title>
<g id="a_edge4_Node000001_Node000005"><a xlink:title=" ">
<path fill="none" stroke="#63b8ff" d="M323.19,-241.77C337.06,-230.81 354.05,-217.39 366.9,-207.25"/>
<polygon fill="#63b8ff" stroke="#63b8ff" points="369.36,-209.76 375.04,-200.82 365.02,-204.27 369.36,-209.76"/>
</a>
</g>
</g>
<!-- Node6 -->
<g id="Node000006" class="node">
<title>Node6</title>
<g id="a_Node000006"><a xlink:title=" ">
<polygon fill="#e0e0e0" stroke="#999999" points="470.2,-200.5 426.2,-200.5 426.2,-181.5 470.2,-181.5 470.2,-200.5"/>
<text text-anchor="middle" x="448.2" y="-188.5" font-family="Helvetica,sans-Serif" font-size="10.00">limits</text>
</a>
</g>
</g>
<!-- Node1&#45;&gt;Node6 -->
<g id="edge5_Node000001_Node000006" class="edge">
<title>Node1&#45;&gt;Node6</title>
<g id="a_edge5_Node000001_Node000006"><a xlink:title=" ">
<path fill="none" stroke="#63b8ff" d="M340.39,-241.96C366.05,-230.06 398.1,-215.21 420.56,-204.81"/>
<polygon fill="#63b8ff" stroke="#63b8ff" points="422.25,-207.88 429.85,-200.5 419.31,-201.53 422.25,-207.88"/>
</a>
</g>
</g>
<!-- Node7 -->
<g id="Node000007" class="node">
<title>Node7</title>
<g id="a_Node000007"><a xlink:title=" ">
<polygon fill="#e0e0e0" stroke="#999999" points="544.2,-200.5 488.2,-200.5 488.2,-181.5 544.2,-181.5 544.2,-200.5"/>
<text text-anchor="middle" x="516.2" y="-188.5" font-family="Helvetica,sans-Serif" font-size="10.00">sstream</text>
</a>
</g>
</g>
<!-- Node1&#45;&gt;Node7 -->
<g id="edge6_Node000001_Node000007" class="edge">
<title>Node1&#45;&gt;Node7</title>
<g id="a_edge6_Node000001_Node000007"><a xlink:title=" ">
<path fill="none" stroke="#63b8ff" d="M365.58,-241.96C399.78,-231.76 441.89,-218.77 479.2,-206 481.06,-205.37 482.95,-204.7 484.87,-204.02"/>
<polygon fill="#63b8ff" stroke="#63b8ff" points="486.2,-207.26 494.38,-200.53 483.78,-200.69 486.2,-207.26"/>
</a>
</g>
</g>
<!-- Node8 -->
<g id="Node000008" class="node">
<title>Node8</title>
<g id="a_Node000008"><a xlink:title=" ">
<polygon fill="#e0e0e0" stroke="#999999" points="438.2,-134.5 328.2,-134.5 328.2,-115.5 438.2,-115.5 438.2,-134.5"/>
<text text-anchor="middle" x="383.2" y="-122.5" font-family="Helvetica,sans-Serif" font-size="10.00">nlohmann/json.hpp</text>
</a>
</g>
</g>
<!-- Node1&#45;&gt;Node8 -->
<g id="edge7_Node000001_Node000008" class="edge">
<title>Node1&#45;&gt;Node8</title>
<g id="a_edge7_Node000001_Node000008"><a xlink:title=" ">
<path fill="none" stroke="#63b8ff" d="M310.56,-241.8C327.22,-215.24 356.61,-168.4 372.42,-143.2"/>
<polygon fill="#63b8ff" stroke="#63b8ff" points="375.41,-145.02 377.76,-134.69 369.48,-141.3 375.41,-145.02"/>
</a>
</g>
</g>
<!-- Node9 -->
<g id="Node000009" class="node">
<title>Node9</title>
<g id="a_Node000009"><a xlink:href="Element_8h.html" target="_top" xlink:title="Abstract base class representing a configurable element in JSON&#45;based configurations.">
<polygon fill="white" stroke="#666666" points="270.2,-206 152.2,-206 152.2,-176 270.2,-176 270.2,-206"/>
<text text-anchor="start" x="160.2" y="-194" font-family="Helvetica,sans-Serif" font-size="10.00">Misc/JsonValidator</text>
<text text-anchor="middle" x="211.2" y="-183" font-family="Helvetica,sans-Serif" font-size="10.00">/Elements/Element.h</text>
</a>
</g>
</g>
<!-- Node1&#45;&gt;Node9 -->
<g id="edge8_Node000001_Node000009" class="edge">
<title>Node1&#45;&gt;Node9</title>
<g id="a_edge8_Node000001_Node000009"><a xlink:title=" ">
<path fill="none" stroke="#63b8ff" d="M273.51,-241.77C262.03,-232.6 248.38,-221.7 236.79,-212.44"/>
<polygon fill="#63b8ff" stroke="#63b8ff" points="238.78,-209.55 228.78,-206.04 234.41,-215.01 238.78,-209.55"/>
</a>
</g>
</g>
<!-- Node10 -->
<g id="Node000010" class="node">
<title>Node10</title>
<g id="a_Node000010"><a xlink:href="Exceptions_8h.html" target="_top" xlink:title="Defines JSON validator exception classes with line/file information for error reporting.">
<polygon fill="white" stroke="#666666" points="188.2,-140 82.2,-140 82.2,-110 188.2,-110 188.2,-140"/>
<text text-anchor="start" x="90.2" y="-128" font-family="Helvetica,sans-Serif" font-size="10.00">Misc/JsonValidator</text>
<text text-anchor="middle" x="135.2" y="-117" font-family="Helvetica,sans-Serif" font-size="10.00">/Exceptions.h</text>
</a>
</g>
</g>
<!-- Node1&#45;&gt;Node10 -->
<g id="edge18_Node000001_Node000010" class="edge">
<title>Node1&#45;&gt;Node10</title>
<g id="a_edge18_Node000001_Node000010"><a xlink:title=" ">
<path fill="none" stroke="#63b8ff" d="M204.36,-246.35C181.06,-238.13 158.43,-225.48 143.2,-206 130.96,-190.33 129.87,-167.33 131.3,-150.01"/>
<polygon fill="#63b8ff" stroke="#63b8ff" points="134.78,-150.41 132.45,-140.08 127.83,-149.61 134.78,-150.41"/>
</a>
</g>
</g>
<!-- Node9&#45;&gt;Node2 -->
<g id="edge9_Node000009_Node000002" class="edge">
<title>Node9&#45;&gt;Node2</title>
<g id="a_edge9_Node000009_Node000002"><a xlink:title=" ">
<path fill="none" stroke="#63b8ff" d="M170.53,-175.91C142.93,-166.19 105.7,-152.77 73.2,-140 72,-139.53 70.77,-139.04 69.53,-138.54"/>
<polygon fill="#63b8ff" stroke="#63b8ff" points="70.61,-135.19 60.03,-134.61 67.93,-141.66 70.61,-135.19"/>
</a>
</g>
</g>
<!-- Node9&#45;&gt;Node3 -->
<g id="edge10_Node000009_Node000003" class="edge">
<title>Node9&#45;&gt;Node3</title>
<g id="a_edge10_Node000009_Node000003"><a xlink:title=" ">
<path fill="none" stroke="#63b8ff" d="M217.21,-175.96C227.59,-149.23 245.23,-90.56 217.2,-55 207.73,-42.98 115.03,-25.04 64.56,-16.05"/>
<polygon fill="#63b8ff" stroke="#63b8ff" points="64.93,-12.57 54.48,-14.28 63.72,-19.46 64.93,-12.57"/>
</a>
</g>
</g>
<!-- Node9&#45;&gt;Node4 -->
<g id="edge11_Node000009_Node000004" class="edge">
<title>Node9&#45;&gt;Node4</title>
<g id="a_edge11_Node000009_Node000004"><a xlink:title=" ">
<path fill="none" stroke="#63b8ff" d="M228.07,-175.8C240.15,-165.62 256.41,-151.93 268.82,-141.48"/>
<polygon fill="#63b8ff" stroke="#63b8ff" points="271.31,-143.96 276.7,-134.84 266.8,-138.61 271.31,-143.96"/>
</a>
</g>
</g>
<!-- Node9&#45;&gt;Node8 -->
<g id="edge12_Node000009_Node000008" class="edge">
<title>Node9&#45;&gt;Node8</title>
<g id="a_edge12_Node000009_Node000008"><a xlink:title=" ">
<path fill="none" stroke="#63b8ff" d="M248.95,-175.95C279.38,-164.63 321.73,-148.88 350.68,-138.1"/>
<polygon fill="#63b8ff" stroke="#63b8ff" points="352.16,-141.28 360.31,-134.52 349.72,-134.72 352.16,-141.28"/>
</a>
</g>
</g>
<!-- Node9&#45;&gt;Node10 -->
<g id="edge13_Node000009_Node000010" class="edge">
<title>Node9&#45;&gt;Node10</title>
<g id="a_edge13_Node000009_Node000010"><a xlink:title=" ">
<path fill="none" stroke="#63b8ff" d="M194.34,-175.8C184.2,-167.26 171.13,-156.25 159.85,-146.75"/>
<polygon fill="#63b8ff" stroke="#63b8ff" points="161.93,-143.93 152.02,-140.16 157.42,-149.28 161.93,-143.93"/>
</a>
</g>
</g>
<!-- Node10&#45;&gt;Node3 -->
<g id="edge14_Node000010_Node000003" class="edge">
<title>Node10&#45;&gt;Node3</title>
<g id="a_edge14_Node000010_Node000003"><a xlink:title=" ">
<path fill="none" stroke="#63b8ff" d="M82.17,-111.68C62.35,-104.22 41.85,-92.44 30.2,-74 21.83,-60.74 23.38,-42.62 26.41,-29.13"/>
<polygon fill="#63b8ff" stroke="#63b8ff" points="29.89,-29.66 29.11,-19.1 23.13,-27.84 29.89,-29.66"/>
</a>
</g>
</g>
<!-- Node11 -->
<g id="Node000011" class="node">
<title>Node11</title>
<g id="a_Node000011"><a xlink:href="LineInfoException_8h.html" target="_top" xlink:title="Exception class with detailed file and line information for error reporting.">
<polygon fill="white" stroke="#666666" points="208.7,-74 39.7,-74 39.7,-55 208.7,-55 208.7,-74"/>
<text text-anchor="middle" x="124.2" y="-62" font-family="Helvetica,sans-Serif" font-size="10.00">Exceptions/LineInfoException.h</text>
</a>
</g>
</g>
<!-- Node10&#45;&gt;Node11 -->
<g id="edge15_Node000010_Node000011" class="edge">
<title>Node10&#45;&gt;Node11</title>
<g id="a_edge15_Node000010_Node000011"><a xlink:title=" ">
<path fill="none" stroke="#63b8ff" d="M132.54,-109.84C131.09,-102.13 129.28,-92.49 127.71,-84.17"/>
<polygon fill="#63b8ff" stroke="#63b8ff" points="131.14,-83.45 125.85,-74.27 124.26,-84.74 131.14,-83.45"/>
</a>
</g>
</g>
<!-- Node11&#45;&gt;Node3 -->
<g id="edge17_Node000011_Node000003" class="edge">
<title>Node11&#45;&gt;Node3</title>
<g id="a_edge17_Node000011_Node000003"><a xlink:title=" ">
<path fill="none" stroke="#63b8ff" d="M109.42,-54.98C95.02,-46.69 72.9,-33.94 56.01,-24.22"/>
<polygon fill="#63b8ff" stroke="#63b8ff" points="57.67,-21.13 47.25,-19.17 54.17,-27.19 57.67,-21.13"/>
</a>
</g>
</g>
<!-- Node12 -->
<g id="Node000012" class="node">
<title>Node12</title>
<g id="a_Node000012"><a xlink:title=" ">
<polygon fill="#e0e0e0" stroke="#999999" points="156.7,-19 91.7,-19 91.7,0 156.7,0 156.7,-19"/>
<text text-anchor="middle" x="124.2" y="-7" font-family="Helvetica,sans-Serif" font-size="10.00">exception</text>
</a>
</g>
</g>
<!-- Node11&#45;&gt;Node12 -->
<g id="edge16_Node000011_Node000012" class="edge">
<title>Node11&#45;&gt;Node12</title>
<g id="a_edge16_Node000011_Node000012"><a xlink:title=" ">
<path fill="none" stroke="#63b8ff" d="M124.2,-54.75C124.2,-47.8 124.2,-37.85 124.2,-29.13"/>
<polygon fill="#63b8ff" stroke="#63b8ff" points="127.7,-29.09 124.2,-19.09 120.7,-29.09 127.7,-29.09"/>
</a>
</g>
</g>
</g>
</svg>

<g id="navigator" transform="translate(0 0)" fill="#404254">
  <rect fill="#f2f5e9" fill-opacity="0.5" stroke="#606060" stroke-width=".5" x="0" y="0" width="60" height="60"/>
  <use id="zoomplus" xlink:href="#zoomPlus" x="17" y="9" onmousedown="handleZoom(evt,'in')"/>
  <use id="zoomminus" xlink:href="#zoomMin" x="42" y="9" onmousedown="handleZoom(evt,'out')"/>
  <use id="reset" xlink:href="#resetDef" x="30" y="36" onmousedown="handleReset()"/>
   <use id="arrowup" xlink:href="#arrowUp" x="0" y="0" onmousedown="handlePan(0,-1)"/>
  <use id="arrowright" xlink:href="#arrowRight" x="0" y="0" onmousedown="handlePan(1,0)"/>
  <use id="arrowdown" xlink:href="#arrowDown" x="0" y="0" onmousedown="handlePan(0,1)"/>
  <use id="arrowleft" xlink:href="#arrowLeft" x="0" y="0" onmousedown="handlePan(-1,0)"/>
</g>
<svg viewBox="0 0 15 15" width="100%" height="30px" preserveAspectRatio="xMaxYMin meet">
 <g id="arrow_out" transform="scale(0.3 0.3)">
  <a xlink:href="String_8h__incl_org.svg" target="_base">
   <rect id="button" ry="5" rx="5" y="6" x="6" height="38" width="38"
        fill="#f2f5e9" fill-opacity="0.5" stroke="#606060" stroke-width="1.0"/>
   <path id="arrow"
     d="M 11.500037,31.436501 C 11.940474,20.09759 22.043105,11.32322 32.158766,21.979434 L 37.068811,17.246167 C 37.068811,17.246167 37.088388,32 37.088388,32 L 22.160133,31.978069 C 22.160133,31.978069 26.997745,27.140456 26.997745,27.140456 C 18.528582,18.264221 13.291696,25.230495 11.500037,31.436501 z"
     style="fill:#404040;"/>
  </a>
 </g>
</svg>

<style type='text/css'>
<![CDATA[
[data-mouse-over-selected='false'] { opacity: 0.7; }
[data-mouse-over-selected='true']  { opacity: 1.0; }
]]>
</style>
<script type="application/ecmascript"><![CDATA[
document.addEventListener('DOMContentLoaded', (event) => {
  highlightEdges();
  highlightAdjacentNodes();
});
]]></script>
</svg>
