<?xml version="1.0" encoding="UTF-8" standalone="no"?>
<!DOCTYPE svg PUBLIC "-//W3C//DTD SVG 1.1//EN"
 "http://www.w3.org/Graphics/SVG/1.1/DTD/svg11.dtd">
<!-- Generated by graphviz version 2.43.0 (0)
 -->
<!-- Title: /home/runner/work/Weaver/Weaver/include/App/Model/IBM/Landscape/LivingBeings/Animals/Species/Genetics/Allele.h Pages: 1 -->
<!--zoomable 324 -->

<svg id="main" version="1.1" xmlns="http://www.w3.org/2000/svg" xmlns:xlink="http://www.w3.org/1999/xlink" xml:space="preserve" onload="init(evt)">
<style type="text/css"><![CDATA[
.node, .edge {opacity: 0.7;}
.node.selected, .edge.selected {opacity: 1;}
.edge:hover path { stroke: red; }
.edge:hover polygon { stroke: red; fill: red; }
]]></style>

<defs>
  <circle id="rim" cx="0" cy="0" r="7"/>
  <circle id="rim2" cx="0" cy="0" r="3.5"/>
  <g id="zoomPlus">
    <use xlink:href="#rim" fill="#404040"><set attributeName="fill" to="#808080" begin="zoomplus.mouseover" end="zoomplus.mouseout"/></use>
    <path d="M-4,0h8M0,-4v8" fill="none" stroke="white" stroke-width="1.5" pointer-events="none"/>
  </g>
  <g id="zoomMin">
    <use xlink:href="#rim" fill="#404040"><set attributeName="fill" to="#808080" begin="zoomminus.mouseover" end="zoomminus.mouseout"/></use>
    <path d="M-4,0h8" fill="none" stroke="white" stroke-width="1.5" pointer-events="none"/>
  </g>
  <g id="arrowUp" transform="translate(30 24)">
    <use xlink:href="#rim"/>
    <path pointer-events="none" fill="none" stroke="white" stroke-width="1.5" d="M0,-3.0v7 M-2.5,-0.5L0,-3.0L2.5,-0.5"/>
  </g>
  <g id="arrowRight" transform="rotate(90) translate(36 -43)">
    <use xlink:href="#rim"/>
    <path pointer-events="none" fill="none" stroke="white" stroke-width="1.5" d="M0,-3.0v7 M-2.5,-0.5L0,-3.0L2.5,-0.5"/>
  </g>
  <g id="arrowDown" transform="rotate(180) translate(-30 -48)">
    <use xlink:href="#rim"/>
    <path pointer-events="none" fill="none" stroke="white" stroke-width="1.5" d="M0,-3.0v7 M-2.5,-0.5L0,-3.0L2.5,-0.5"/>
  </g>
  <g id="arrowLeft" transform="rotate(270) translate(-36 17)">
    <use xlink:href="#rim"/>
    <path pointer-events="none" fill="none" stroke="white" stroke-width="1.5" d="M0,-3.0v7 M-2.5,-0.5L0,-3.0L2.5,-0.5"/>
  </g>
  <g id="resetDef">
    <use xlink:href="#rim2" fill="#404040"><set attributeName="fill" to="#808080" begin="reset.mouseover" end="reset.mouseout"/></use>
  </g>
</defs>
<script type="application/ecmascript">
var viewWidth = 1586;
var viewHeight = 324;
var sectionId = 'dynsection-0';
</script>
<script type="application/ecmascript" xlink:href="svg.min.js"/>
<svg id="graph" class="graph">
<g id="viewport">
<title>/home/runner/work/Weaver/Weaver/include/App/Model/IBM/Landscape/LivingBeings/Animals/Species/Genetics/Allele.h</title>
<!-- Node1 -->
<g id="Node000001" class="node">
<title>Node1</title>
<g id="a_Node000001"><a xlink:title="Defines the Allele class, representing a genetic allele with a unique identifier, a numerical value,...">
<polygon fill="#999999" stroke="#666666" points="546.45,-316 361.45,-316 361.45,-264 546.45,-264 546.45,-316"/>
<text text-anchor="start" x="369.45" y="-304" font-family="Helvetica,sans-Serif" font-size="10.00">/home/runner/work/Weaver</text>
<text text-anchor="start" x="369.45" y="-293" font-family="Helvetica,sans-Serif" font-size="10.00">/Weaver/include/App/Model</text>
<text text-anchor="start" x="369.45" y="-282" font-family="Helvetica,sans-Serif" font-size="10.00">/IBM/Landscape/LivingBeings</text>
<text text-anchor="middle" x="453.95" y="-271" font-family="Helvetica,sans-Serif" font-size="10.00">/Animals/Species/Genetics/Allele.h</text>
</a>
</g>
</g>
<!-- Node2 -->
<g id="Node000002" class="node">
<title>Node2</title>
<g id="a_Node000002"><a xlink:title=" ">
<polygon fill="#e0e0e0" stroke="#999999" points="374.45,-228 267.45,-228 267.45,-198 374.45,-198 374.45,-228"/>
<text text-anchor="start" x="275.45" y="-216" font-family="Helvetica,sans-Serif" font-size="10.00">boost/serialization</text>
<text text-anchor="middle" x="320.95" y="-205" font-family="Helvetica,sans-Serif" font-size="10.00">/export.hpp</text>
</a>
</g>
</g>
<!-- Node1&#45;&gt;Node2 -->
<g id="edge1_Node000001_Node000002" class="edge">
<title>Node1&#45;&gt;Node2</title>
<g id="a_edge1_Node000001_Node000002"><a xlink:title=" ">
<path fill="none" stroke="#63b8ff" d="M409.29,-263.82C391.46,-253.76 371.28,-242.38 354.7,-233.04"/>
<polygon fill="#63b8ff" stroke="#63b8ff" points="356.34,-229.94 345.91,-228.08 352.9,-236.04 356.34,-229.94"/>
</a>
</g>
</g>
<!-- Node3 -->
<g id="Node000003" class="node">
<title>Node3</title>
<g id="a_Node000003"><a xlink:title=" ">
<polygon fill="#e0e0e0" stroke="#999999" points="791.45,-90.5 734.45,-90.5 734.45,-71.5 791.45,-71.5 791.45,-90.5"/>
<text text-anchor="middle" x="762.95" y="-78.5" font-family="Helvetica,sans-Serif" font-size="10.00">ostream</text>
</a>
</g>
</g>
<!-- Node1&#45;&gt;Node3 -->
<g id="edge2_Node000001_Node000003" class="edge">
<title>Node1&#45;&gt;Node3</title>
<g id="a_edge2_Node000001_Node000003"><a xlink:title=" ">
<path fill="none" stroke="#63b8ff" d="M546.74,-275.29C662.56,-256.06 850.51,-217.15 891.95,-162 899.95,-151.34 899.52,-142.97 891.95,-132 866.29,-94.84 838.94,-112.6 796.95,-96 795.57,-95.46 794.17,-94.9 792.76,-94.33"/>
<polygon fill="#63b8ff" stroke="#63b8ff" points="793.99,-91.05 783.4,-90.53 791.35,-97.54 793.99,-91.05"/>
</a>
</g>
</g>
<!-- Node4 -->
<g id="Node000004" class="node">
<title>Node4</title>
<g id="a_Node000004"><a xlink:href="Random_8h.html" target="_top" xlink:title="Defines the Random class that provides various random number generation utilities.">
<polygon fill="white" stroke="#666666" points="515.45,-228 392.45,-228 392.45,-198 515.45,-198 515.45,-228"/>
<text text-anchor="start" x="400.45" y="-216" font-family="Helvetica,sans-Serif" font-size="10.00">App/Model/IBM/Maths</text>
<text text-anchor="middle" x="453.95" y="-205" font-family="Helvetica,sans-Serif" font-size="10.00">/Random.h</text>
</a>
</g>
</g>
<!-- Node1&#45;&gt;Node4 -->
<g id="edge3_Node000001_Node000004" class="edge">
<title>Node1&#45;&gt;Node4</title>
<g id="a_edge3_Node000001_Node000004"><a xlink:title=" ">
<path fill="none" stroke="#63b8ff" d="M453.95,-263.61C453.95,-255.54 453.95,-246.64 453.95,-238.63"/>
<polygon fill="#63b8ff" stroke="#63b8ff" points="457.45,-238.43 453.95,-228.43 450.45,-238.43 457.45,-238.43"/>
</a>
</g>
</g>
<!-- Node5 -->
<g id="Node000005" class="node">
<title>Node5</title>
<g id="a_Node000005"><a xlink:title=" ">
<polygon fill="#e0e0e0" stroke="#999999" points="1049.45,-24.5 1002.45,-24.5 1002.45,-5.5 1049.45,-5.5 1049.45,-24.5"/>
<text text-anchor="middle" x="1025.95" y="-12.5" font-family="Helvetica,sans-Serif" font-size="10.00">cmath</text>
</a>
</g>
</g>
<!-- Node4&#45;&gt;Node5 -->
<g id="edge4_Node000004_Node000005" class="edge">
<title>Node4&#45;&gt;Node5</title>
<g id="a_edge4_Node000004_Node000005"><a xlink:title=" ">
<path fill="none" stroke="#63b8ff" d="M515.69,-211.83C668.56,-210.76 1055.19,-203.91 1093.95,-162 1130.37,-122.62 1074.01,-60.26 1043.47,-31.49"/>
<polygon fill="#63b8ff" stroke="#63b8ff" points="1045.73,-28.8 1035.99,-24.62 1040.99,-33.96 1045.73,-28.8"/>
</a>
</g>
</g>
<!-- Node6 -->
<g id="Node000006" class="node">
<title>Node6</title>
<g id="a_Node000006"><a xlink:title=" ">
<polygon fill="#e0e0e0" stroke="#999999" points="97.45,-156.5 44.45,-156.5 44.45,-137.5 97.45,-137.5 97.45,-156.5"/>
<text text-anchor="middle" x="70.95" y="-144.5" font-family="Helvetica,sans-Serif" font-size="10.00">stdlib.h</text>
</a>
</g>
</g>
<!-- Node4&#45;&gt;Node6 -->
<g id="edge5_Node000004_Node000006" class="edge">
<title>Node4&#45;&gt;Node6</title>
<g id="a_edge5_Node000004_Node000006"><a xlink:title=" ">
<path fill="none" stroke="#63b8ff" d="M392.42,-199.61C389.22,-199.05 386.05,-198.51 382.95,-198 260.42,-177.98 226.08,-193.3 105.95,-162 103.78,-161.44 101.58,-160.78 99.38,-160.05"/>
<polygon fill="#63b8ff" stroke="#63b8ff" points="100.5,-156.74 89.91,-156.59 98.1,-163.31 100.5,-156.74"/>
</a>
</g>
</g>
<!-- Node7 -->
<g id="Node000007" class="node">
<title>Node7</title>
<g id="a_Node000007"><a xlink:title=" ">
<polygon fill="#e0e0e0" stroke="#999999" points="69.95,-24.5 9.95,-24.5 9.95,-5.5 69.95,-5.5 69.95,-24.5"/>
<text text-anchor="middle" x="39.95" y="-12.5" font-family="Helvetica,sans-Serif" font-size="10.00">iostream</text>
</a>
</g>
</g>
<!-- Node4&#45;&gt;Node7 -->
<g id="edge6_Node000004_Node000007" class="edge">
<title>Node4&#45;&gt;Node7</title>
<g id="a_edge6_Node000004_Node000007"><a xlink:title=" ">
<path fill="none" stroke="#63b8ff" d="M392.44,-199.49C389.23,-198.96 386.05,-198.46 382.95,-198 342.3,-192.02 42.55,-192.43 14.95,-162 -17.65,-126.06 11.38,-63.79 28.9,-33.53"/>
<polygon fill="#63b8ff" stroke="#63b8ff" points="32.14,-34.94 34.3,-24.57 26.14,-31.33 32.14,-34.94"/>
</a>
</g>
</g>
<!-- Node8 -->
<g id="Node000008" class="node">
<title>Node8</title>
<g id="a_Node000008"><a xlink:title=" ">
<polygon fill="#e0e0e0" stroke="#999999" points="162.45,-156.5 115.45,-156.5 115.45,-137.5 162.45,-137.5 162.45,-156.5"/>
<text text-anchor="middle" x="138.95" y="-144.5" font-family="Helvetica,sans-Serif" font-size="10.00">float.h</text>
</a>
</g>
</g>
<!-- Node4&#45;&gt;Node8 -->
<g id="edge7_Node000004_Node000008" class="edge">
<title>Node4&#45;&gt;Node8</title>
<g id="a_edge7_Node000004_Node000008"><a xlink:title=" ">
<path fill="none" stroke="#63b8ff" d="M392.39,-199.76C389.2,-199.16 386.03,-198.57 382.95,-198 289.38,-180.8 263.24,-188.76 171.95,-162 170.26,-161.51 168.55,-160.95 166.83,-160.36"/>
<polygon fill="#63b8ff" stroke="#63b8ff" points="167.76,-156.96 157.17,-156.62 165.24,-163.49 167.76,-156.96"/>
</a>
</g>
</g>
<!-- Node9 -->
<g id="Node000009" class="node">
<title>Node9</title>
<g id="a_Node000009"><a xlink:title=" ">
<polygon fill="#e0e0e0" stroke="#999999" points="212.95,-156.5 180.95,-156.5 180.95,-137.5 212.95,-137.5 212.95,-156.5"/>
<text text-anchor="middle" x="196.95" y="-144.5" font-family="Helvetica,sans-Serif" font-size="10.00">list</text>
</a>
</g>
</g>
<!-- Node4&#45;&gt;Node9 -->
<g id="edge8_Node000004_Node000009" class="edge">
<title>Node4&#45;&gt;Node9</title>
<g id="a_edge8_Node000004_Node000009"><a xlink:title=" ">
<path fill="none" stroke="#63b8ff" d="M392.29,-199.7C329.07,-186.93 237.8,-167.99 221.95,-162 221.23,-161.73 220.51,-161.44 219.79,-161.14"/>
<polygon fill="#63b8ff" stroke="#63b8ff" points="221.12,-157.89 210.61,-156.61 218.03,-164.17 221.12,-157.89"/>
</a>
</g>
</g>
<!-- Node10 -->
<g id="Node000010" class="node">
<title>Node10</title>
<g id="a_Node000010"><a xlink:title=" ">
<polygon fill="#e0e0e0" stroke="#999999" points="278.45,-156.5 231.45,-156.5 231.45,-137.5 278.45,-137.5 278.45,-156.5"/>
<text text-anchor="middle" x="254.95" y="-144.5" font-family="Helvetica,sans-Serif" font-size="10.00">vector</text>
</a>
</g>
</g>
<!-- Node4&#45;&gt;Node10 -->
<g id="edge9_Node000004_Node000010" class="edge">
<title>Node4&#45;&gt;Node10</title>
<g id="a_edge9_Node000004_Node000010"><a xlink:title=" ">
<path fill="none" stroke="#63b8ff" d="M402.25,-197.99C369.25,-188.67 325.73,-175.66 287.95,-162 286.56,-161.5 285.14,-160.97 283.71,-160.42"/>
<polygon fill="#63b8ff" stroke="#63b8ff" points="284.93,-157.14 274.35,-156.65 282.32,-163.63 284.93,-157.14"/>
</a>
</g>
</g>
<!-- Node11 -->
<g id="Node000011" class="node">
<title>Node11</title>
<g id="a_Node000011"><a xlink:title=" ">
<polygon fill="#e0e0e0" stroke="#999999" points="350.95,-156.5 296.95,-156.5 296.95,-137.5 350.95,-137.5 350.95,-156.5"/>
<text text-anchor="middle" x="323.95" y="-144.5" font-family="Helvetica,sans-Serif" font-size="10.00">random</text>
</a>
</g>
</g>
<!-- Node4&#45;&gt;Node11 -->
<g id="edge10_Node000004_Node000011" class="edge">
<title>Node4&#45;&gt;Node11</title>
<g id="a_edge10_Node000004_Node000011"><a xlink:title=" ">
<path fill="none" stroke="#63b8ff" d="M425.42,-197.95C403.02,-186.93 372.08,-171.7 350.27,-160.96"/>
<polygon fill="#63b8ff" stroke="#63b8ff" points="351.76,-157.79 341.25,-156.52 348.67,-164.07 351.76,-157.79"/>
</a>
</g>
</g>
<!-- Node12 -->
<g id="Node000012" class="node">
<title>Node12</title>
<g id="a_Node000012"><a xlink:title=" ">
<polygon fill="#e0e0e0" stroke="#999999" points="404.95,-24.5 340.95,-24.5 340.95,-5.5 404.95,-5.5 404.95,-24.5"/>
<text text-anchor="middle" x="372.95" y="-12.5" font-family="Helvetica,sans-Serif" font-size="10.00">algorithm</text>
</a>
</g>
</g>
<!-- Node4&#45;&gt;Node12 -->
<g id="edge11_Node000004_Node000012" class="edge">
<title>Node4&#45;&gt;Node12</title>
<g id="a_edge11_Node000004_Node000012"><a xlink:title=" ">
<path fill="none" stroke="#63b8ff" d="M392.43,-199.51C389.23,-198.97 386.05,-198.47 382.95,-198 306.06,-186.47 87.02,-219.73 34.95,-162 -53.7,-63.71 222.2,-28.9 330.91,-19.19"/>
<polygon fill="#63b8ff" stroke="#63b8ff" points="331.23,-22.68 340.89,-18.33 330.62,-15.7 331.23,-22.68"/>
</a>
</g>
</g>
<!-- Node13 -->
<g id="Node000013" class="node">
<title>Node13</title>
<g id="a_Node000013"><a xlink:title=" ">
<polygon fill="#e0e0e0" stroke="#999999" points="613.95,-156.5 555.95,-156.5 555.95,-137.5 613.95,-137.5 613.95,-156.5"/>
<text text-anchor="middle" x="584.95" y="-144.5" font-family="Helvetica,sans-Serif" font-size="10.00">memory</text>
</a>
</g>
</g>
<!-- Node4&#45;&gt;Node13 -->
<g id="edge12_Node000004_Node000013" class="edge">
<title>Node4&#45;&gt;Node13</title>
<g id="a_edge12_Node000004_Node000013"><a xlink:title=" ">
<path fill="none" stroke="#63b8ff" d="M482.69,-197.95C505.26,-186.93 536.44,-171.7 558.42,-160.96"/>
<polygon fill="#63b8ff" stroke="#63b8ff" points="560.06,-164.05 567.51,-156.52 556.99,-157.76 560.06,-164.05"/>
</a>
</g>
</g>
<!-- Node14 -->
<g id="Node000014" class="node">
<title>Node14</title>
<g id="a_Node000014"><a xlink:title=" ">
<polygon fill="#e0e0e0" stroke="#999999" points="741.95,-156.5 631.95,-156.5 631.95,-137.5 741.95,-137.5 741.95,-156.5"/>
<text text-anchor="middle" x="686.95" y="-144.5" font-family="Helvetica,sans-Serif" font-size="10.00">nlohmann/json.hpp</text>
</a>
</g>
</g>
<!-- Node4&#45;&gt;Node14 -->
<g id="edge13_Node000004_Node000014" class="edge">
<title>Node4&#45;&gt;Node14</title>
<g id="a_edge13_Node000004_Node000014"><a xlink:title=" ">
<path fill="none" stroke="#63b8ff" d="M505.08,-197.95C547.47,-186.31 606.94,-169.98 646.17,-159.2"/>
<polygon fill="#63b8ff" stroke="#63b8ff" points="647.22,-162.54 655.94,-156.52 645.37,-155.79 647.22,-162.54"/>
</a>
</g>
</g>
<!-- Node15 -->
<g id="Node000015" class="node">
<title>Node15</title>
<g id="a_Node000015"><a xlink:href="LineInfoException_8h.html" target="_top" xlink:title="Exception class with detailed file and line information for error reporting.">
<polygon fill="white" stroke="#666666" points="538.45,-156.5 369.45,-156.5 369.45,-137.5 538.45,-137.5 538.45,-156.5"/>
<text text-anchor="middle" x="453.95" y="-144.5" font-family="Helvetica,sans-Serif" font-size="10.00">Exceptions/LineInfoException.h</text>
</a>
</g>
</g>
<!-- Node4&#45;&gt;Node15 -->
<g id="edge14_Node000004_Node000015" class="edge">
<title>Node4&#45;&gt;Node15</title>
<g id="a_edge14_Node000004_Node000015"><a xlink:title=" ">
<path fill="none" stroke="#63b8ff" d="M453.95,-197.8C453.95,-188.7 453.95,-176.79 453.95,-166.9"/>
<polygon fill="#63b8ff" stroke="#63b8ff" points="457.45,-166.84 453.95,-156.84 450.45,-166.84 457.45,-166.84"/>
</a>
</g>
</g>
<!-- Node18 -->
<g id="Node000018" class="node">
<title>Node18</title>
<g id="a_Node000018"><a xlink:href="Constants_8h.html" target="_top" xlink:title="Mathematical and physical constants used throughout the project.">
<polygon fill="white" stroke="#666666" points="883.45,-162 760.45,-162 760.45,-132 883.45,-132 883.45,-162"/>
<text text-anchor="start" x="768.45" y="-150" font-family="Helvetica,sans-Serif" font-size="10.00">App/Model/IBM/Maths</text>
<text text-anchor="middle" x="821.95" y="-139" font-family="Helvetica,sans-Serif" font-size="10.00">/Constants.h</text>
</a>
</g>
</g>
<!-- Node4&#45;&gt;Node18 -->
<g id="edge17_Node000004_Node000018" class="edge">
<title>Node4&#45;&gt;Node18</title>
<g id="a_edge17_Node000004_Node000018"><a xlink:title=" ">
<path fill="none" stroke="#63b8ff" d="M515.47,-202.16C573.42,-192.77 662.92,-177.97 750.55,-162.04"/>
<polygon fill="#63b8ff" stroke="#63b8ff" points="751.18,-165.48 760.39,-160.25 749.93,-158.6 751.18,-165.48"/>
</a>
</g>
</g>
<!-- Node19 -->
<g id="Node000019" class="node">
<title>Node19</title>
<g id="a_Node000019"><a xlink:href="TimeUnits_8h.html" target="_top" xlink:title="Defines the TimeStep and Day classes for representing simulation time units.">
<polygon fill="white" stroke="#666666" points="1085.45,-162 940.45,-162 940.45,-132 1085.45,-132 1085.45,-162"/>
<text text-anchor="start" x="948.45" y="-150" font-family="Helvetica,sans-Serif" font-size="10.00">App/Model/IBM/Landscape</text>
<text text-anchor="middle" x="1012.95" y="-139" font-family="Helvetica,sans-Serif" font-size="10.00">/LivingBeings/TimeUnits.h</text>
</a>
</g>
</g>
<!-- Node4&#45;&gt;Node19 -->
<g id="edge18_Node000004_Node000019" class="edge">
<title>Node4&#45;&gt;Node19</title>
<g id="a_edge18_Node000004_Node000019"><a xlink:title=" ">
<path fill="none" stroke="#63b8ff" d="M515.6,-204.99C600.39,-195.35 757.74,-177.42 891.95,-162 904.3,-160.58 917.35,-159.07 930.14,-157.6"/>
<polygon fill="#63b8ff" stroke="#63b8ff" points="930.79,-161.05 940.33,-156.42 929.99,-154.09 930.79,-161.05"/>
</a>
</g>
</g>
<!-- Node27 -->
<g id="Node000027" class="node">
<title>Node27</title>
<g id="a_Node000027"><a xlink:href="Types_8h.html" target="_top" xlink:title="Defines common type aliases and constants used throughout the Weaver project.">
<polygon fill="white" stroke="#666666" points="1229.45,-156.5 1150.45,-156.5 1150.45,-137.5 1229.45,-137.5 1229.45,-156.5"/>
<text text-anchor="middle" x="1189.95" y="-144.5" font-family="Helvetica,sans-Serif" font-size="10.00">Misc/Types.h</text>
</a>
</g>
</g>
<!-- Node4&#45;&gt;Node27 -->
<g id="edge36_Node000004_Node000027" class="edge">
<title>Node4&#45;&gt;Node27</title>
<g id="a_edge36_Node000004_Node000027"><a xlink:title=" ">
<path fill="none" stroke="#63b8ff" d="M515.62,-210.48C634.62,-206.86 903.97,-195.41 1127.95,-162 1133.89,-161.11 1140.11,-159.97 1146.22,-158.72"/>
<polygon fill="#63b8ff" stroke="#63b8ff" points="1147.29,-162.07 1156.33,-156.54 1145.82,-155.23 1147.29,-162.07"/>
</a>
</g>
</g>
<!-- Node16 -->
<g id="Node000016" class="node">
<title>Node16</title>
<g id="a_Node000016"><a xlink:title=" ">
<polygon fill="#e0e0e0" stroke="#999999" points="486.45,-90.5 421.45,-90.5 421.45,-71.5 486.45,-71.5 486.45,-90.5"/>
<text text-anchor="middle" x="453.95" y="-78.5" font-family="Helvetica,sans-Serif" font-size="10.00">exception</text>
</a>
</g>
</g>
<!-- Node15&#45;&gt;Node16 -->
<g id="edge15_Node000015_Node000016" class="edge">
<title>Node15&#45;&gt;Node16</title>
<g id="a_edge15_Node000015_Node000016"><a xlink:title=" ">
<path fill="none" stroke="#63b8ff" d="M453.95,-137.37C453.95,-128.16 453.95,-113.29 453.95,-101.27"/>
<polygon fill="#63b8ff" stroke="#63b8ff" points="457.45,-100.91 453.95,-90.91 450.45,-100.91 457.45,-100.91"/>
</a>
</g>
</g>
<!-- Node17 -->
<g id="Node000017" class="node">
<title>Node17</title>
<g id="a_Node000017"><a xlink:title=" ">
<polygon fill="#e0e0e0" stroke="#999999" points="593.95,-24.5 549.95,-24.5 549.95,-5.5 593.95,-5.5 593.95,-24.5"/>
<text text-anchor="middle" x="571.95" y="-12.5" font-family="Helvetica,sans-Serif" font-size="10.00">string</text>
</a>
</g>
</g>
<!-- Node15&#45;&gt;Node17 -->
<g id="edge16_Node000015_Node000017" class="edge">
<title>Node15&#45;&gt;Node17</title>
<g id="a_edge16_Node000015_Node000017"><a xlink:title=" ">
<path fill="none" stroke="#63b8ff" d="M461.69,-137.47C481.02,-116.17 531.66,-60.38 557.02,-32.44"/>
<polygon fill="#63b8ff" stroke="#63b8ff" points="559.89,-34.49 564.02,-24.73 554.71,-29.78 559.89,-34.49"/>
</a>
</g>
</g>
<!-- Node19&#45;&gt;Node3 -->
<g id="edge23_Node000019_Node000003" class="edge">
<title>Node19&#45;&gt;Node3</title>
<g id="a_edge23_Node000019_Node000003"><a xlink:title=" ">
<path fill="none" stroke="#63b8ff" d="M949.2,-131.95C908.09,-122.56 853.61,-109.49 805.95,-96 803.34,-95.26 800.66,-94.47 797.97,-93.65"/>
<polygon fill="#63b8ff" stroke="#63b8ff" points="798.9,-90.28 788.31,-90.62 796.8,-96.95 798.9,-90.28"/>
</a>
</g>
</g>
<!-- Node19&#45;&gt;Node5 -->
<g id="edge24_Node000019_Node000005" class="edge">
<title>Node19&#45;&gt;Node5</title>
<g id="a_edge24_Node000019_Node000005"><a xlink:title=" ">
<path fill="none" stroke="#63b8ff" d="M1014.36,-131.84C1016.71,-108.34 1021.42,-61.26 1024.05,-34.93"/>
<polygon fill="#63b8ff" stroke="#63b8ff" points="1027.56,-35.05 1025.07,-24.75 1020.59,-34.35 1027.56,-35.05"/>
</a>
</g>
</g>
<!-- Node20 -->
<g id="Node000020" class="node">
<title>Node20</title>
<g id="a_Node000020"><a xlink:title=" ">
<polygon fill="#e0e0e0" stroke="#999999" points="778.45,-30 673.45,-30 673.45,0 778.45,0 778.45,-30"/>
<text text-anchor="start" x="681.45" y="-18" font-family="Helvetica,sans-Serif" font-size="10.00">boost/archive/text</text>
<text text-anchor="middle" x="725.95" y="-7" font-family="Helvetica,sans-Serif" font-size="10.00">_iarchive.hpp</text>
</a>
</g>
</g>
<!-- Node19&#45;&gt;Node20 -->
<g id="edge19_Node000019_Node000020" class="edge">
<title>Node19&#45;&gt;Node20</title>
<g id="a_edge19_Node000019_Node000020"><a xlink:title=" ">
<path fill="none" stroke="#63b8ff" d="M957.59,-131.93C926.95,-123.27 888.58,-110.97 855.95,-96 818.88,-79 779.41,-53.54 753.82,-35.93"/>
<polygon fill="#63b8ff" stroke="#63b8ff" points="755.58,-32.89 745.37,-30.05 751.58,-38.63 755.58,-32.89"/>
</a>
</g>
</g>
<!-- Node21 -->
<g id="Node000021" class="node">
<title>Node21</title>
<g id="a_Node000021"><a xlink:title=" ">
<polygon fill="#e0e0e0" stroke="#999999" points="901.45,-30 796.45,-30 796.45,0 901.45,0 901.45,-30"/>
<text text-anchor="start" x="804.45" y="-18" font-family="Helvetica,sans-Serif" font-size="10.00">boost/archive/text</text>
<text text-anchor="middle" x="848.95" y="-7" font-family="Helvetica,sans-Serif" font-size="10.00">_oarchive.hpp</text>
</a>
</g>
</g>
<!-- Node19&#45;&gt;Node21 -->
<g id="edge20_Node000019_Node000021" class="edge">
<title>Node19&#45;&gt;Node21</title>
<g id="a_edge20_Node000019_Node000021"><a xlink:title=" ">
<path fill="none" stroke="#63b8ff" d="M940.18,-132.1C917.49,-124.66 893.98,-113.3 876.95,-96 862.16,-80.98 855.15,-57.71 851.85,-40.14"/>
<polygon fill="#63b8ff" stroke="#63b8ff" points="855.27,-39.38 850.23,-30.05 848.36,-40.48 855.27,-39.38"/>
</a>
</g>
</g>
<!-- Node22 -->
<g id="Node000022" class="node">
<title>Node22</title>
<g id="a_Node000022"><a xlink:title=" ">
<polygon fill="#e0e0e0" stroke="#999999" points="1379.95,-30 1263.95,-30 1263.95,0 1379.95,0 1379.95,-30"/>
<text text-anchor="start" x="1271.95" y="-18" font-family="Helvetica,sans-Serif" font-size="10.00">boost/archive/binary</text>
<text text-anchor="middle" x="1321.95" y="-7" font-family="Helvetica,sans-Serif" font-size="10.00">_iarchive.hpp</text>
</a>
</g>
</g>
<!-- Node19&#45;&gt;Node22 -->
<g id="edge21_Node000019_Node000022" class="edge">
<title>Node19&#45;&gt;Node22</title>
<g id="a_edge21_Node000019_Node000022"><a xlink:title=" ">
<path fill="none" stroke="#63b8ff" d="M1046.31,-131.96C1102.6,-108.28 1216.38,-60.41 1278.71,-34.19"/>
<polygon fill="#63b8ff" stroke="#63b8ff" points="1280.39,-37.28 1288.25,-30.17 1277.68,-30.83 1280.39,-37.28"/>
</a>
</g>
</g>
<!-- Node23 -->
<g id="Node000023" class="node">
<title>Node23</title>
<g id="a_Node000023"><a xlink:title=" ">
<polygon fill="#e0e0e0" stroke="#999999" points="1245.95,-30 1129.95,-30 1129.95,0 1245.95,0 1245.95,-30"/>
<text text-anchor="start" x="1137.95" y="-18" font-family="Helvetica,sans-Serif" font-size="10.00">boost/archive/binary</text>
<text text-anchor="middle" x="1187.95" y="-7" font-family="Helvetica,sans-Serif" font-size="10.00">_oarchive.hpp</text>
</a>
</g>
</g>
<!-- Node19&#45;&gt;Node23 -->
<g id="edge22_Node000019_Node000023" class="edge">
<title>Node19&#45;&gt;Node23</title>
<g id="a_edge22_Node000019_Node000023"><a xlink:title=" ">
<path fill="none" stroke="#63b8ff" d="M1032.01,-131.84C1063.17,-108.69 1125.13,-62.66 1160.85,-36.13"/>
<polygon fill="#63b8ff" stroke="#63b8ff" points="1162.97,-38.92 1168.91,-30.14 1158.79,-33.3 1162.97,-38.92"/>
</a>
</g>
</g>
<!-- Node24 -->
<g id="Node000024" class="node">
<title>Node24</title>
<g id="a_Node000024"><a xlink:href="PreciseDouble_8h.html" target="_top" xlink:title="Defines the PreciseDouble class for safe and precise double&#45;precision arithmetic.">
<polygon fill="white" stroke="#666666" points="1009.45,-96 886.45,-96 886.45,-66 1009.45,-66 1009.45,-96"/>
<text text-anchor="start" x="894.45" y="-84" font-family="Helvetica,sans-Serif" font-size="10.00">App/Model/IBM/Maths</text>
<text text-anchor="middle" x="947.95" y="-73" font-family="Helvetica,sans-Serif" font-size="10.00">/PreciseDouble.h</text>
</a>
</g>
</g>
<!-- Node19&#45;&gt;Node24 -->
<g id="edge25_Node000019_Node000024" class="edge">
<title>Node19&#45;&gt;Node24</title>
<g id="a_edge25_Node000019_Node000024"><a xlink:title=" ">
<path fill="none" stroke="#63b8ff" d="M998.52,-131.8C990.02,-123.43 979.1,-112.68 969.59,-103.31"/>
<polygon fill="#63b8ff" stroke="#63b8ff" points="971.91,-100.69 962.33,-96.16 967,-105.67 971.91,-100.69"/>
</a>
</g>
</g>
<!-- Node24&#45;&gt;Node5 -->
<g id="edge31_Node000024_Node000005" class="edge">
<title>Node24&#45;&gt;Node5</title>
<g id="a_edge31_Node000024_Node000005"><a xlink:title=" ">
<path fill="none" stroke="#63b8ff" d="M965.26,-65.8C977.65,-55.62 994.34,-41.93 1007.08,-31.48"/>
<polygon fill="#63b8ff" stroke="#63b8ff" points="1009.66,-33.89 1015.17,-24.84 1005.22,-28.48 1009.66,-33.89"/>
</a>
</g>
</g>
<!-- Node24&#45;&gt;Node7 -->
<g id="edge33_Node000024_Node000007" class="edge">
<title>Node24&#45;&gt;Node7</title>
<g id="a_edge33_Node000024_Node000007"><a xlink:title=" ">
<path fill="none" stroke="#63b8ff" d="M886.41,-73.78C859.83,-71.2 828.37,-68.28 799.95,-66 525.1,-43.96 193.75,-24.65 80.31,-18.25"/>
<polygon fill="#63b8ff" stroke="#63b8ff" points="80.2,-14.74 70.02,-17.67 79.81,-21.72 80.2,-14.74"/>
</a>
</g>
</g>
<!-- Node24&#45;&gt;Node12 -->
<g id="edge32_Node000024_Node000012" class="edge">
<title>Node24&#45;&gt;Node12</title>
<g id="a_edge32_Node000024_Node000012"><a xlink:title=" ">
<path fill="none" stroke="#63b8ff" d="M886.41,-73.15C769.03,-60.09 515.89,-31.91 415.35,-20.72"/>
<polygon fill="#63b8ff" stroke="#63b8ff" points="415.59,-17.23 405.27,-19.6 414.82,-24.18 415.59,-17.23"/>
</a>
</g>
</g>
<!-- Node24&#45;&gt;Node17 -->
<g id="edge30_Node000024_Node000017" class="edge">
<title>Node24&#45;&gt;Node17</title>
<g id="a_edge30_Node000024_Node000017"><a xlink:title=" ">
<path fill="none" stroke="#63b8ff" d="M886.28,-69.5C805.53,-55.76 666.91,-32.16 604.31,-21.51"/>
<polygon fill="#63b8ff" stroke="#63b8ff" points="604.68,-18.02 594.23,-19.79 603.5,-24.92 604.68,-18.02"/>
</a>
</g>
</g>
<!-- Node24&#45;&gt;Node20 -->
<g id="edge26_Node000024_Node000020" class="edge">
<title>Node24&#45;&gt;Node20</title>
<g id="a_edge26_Node000024_Node000020"><a xlink:title=" ">
<path fill="none" stroke="#63b8ff" d="M899.23,-65.95C865.39,-56.2 820.15,-43.16 784.37,-32.84"/>
<polygon fill="#63b8ff" stroke="#63b8ff" points="785.13,-29.42 774.55,-30.01 783.19,-36.15 785.13,-29.42"/>
</a>
</g>
</g>
<!-- Node24&#45;&gt;Node21 -->
<g id="edge27_Node000024_Node000021" class="edge">
<title>Node24&#45;&gt;Node21</title>
<g id="a_edge27_Node000024_Node000021"><a xlink:title=" ">
<path fill="none" stroke="#63b8ff" d="M925.97,-65.8C912.26,-56.93 894.41,-45.39 879.35,-35.66"/>
<polygon fill="#63b8ff" stroke="#63b8ff" points="881.15,-32.65 870.86,-30.16 877.35,-38.53 881.15,-32.65"/>
</a>
</g>
</g>
<!-- Node24&#45;&gt;Node22 -->
<g id="edge28_Node000024_Node000022" class="edge">
<title>Node24&#45;&gt;Node22</title>
<g id="a_edge28_Node000024_Node000022"><a xlink:title=" ">
<path fill="none" stroke="#63b8ff" d="M1009.54,-70.79C1069.44,-61.65 1163.25,-46.85 1253.97,-30.13"/>
<polygon fill="#63b8ff" stroke="#63b8ff" points="1254.68,-33.56 1263.87,-28.3 1253.4,-26.68 1254.68,-33.56"/>
</a>
</g>
</g>
<!-- Node24&#45;&gt;Node23 -->
<g id="edge29_Node000024_Node000023" class="edge">
<title>Node24&#45;&gt;Node23</title>
<g id="a_edge29_Node000024_Node000023"><a xlink:title=" ">
<path fill="none" stroke="#63b8ff" d="M1000.61,-65.95C1037.35,-56.16 1086.53,-43.05 1125.28,-32.71"/>
<polygon fill="#63b8ff" stroke="#63b8ff" points="1126.64,-35.97 1135.4,-30.01 1124.84,-29.21 1126.64,-35.97"/>
</a>
</g>
</g>
<!-- Node25 -->
<g id="Node000025" class="node">
<title>Node25</title>
<g id="a_Node000025"><a xlink:title=" ">
<polygon fill="#e0e0e0" stroke="#999999" points="1111.95,-24.5 1067.95,-24.5 1067.95,-5.5 1111.95,-5.5 1111.95,-24.5"/>
<text text-anchor="middle" x="1089.95" y="-12.5" font-family="Helvetica,sans-Serif" font-size="10.00">limits</text>
</a>
</g>
</g>
<!-- Node24&#45;&gt;Node25 -->
<g id="edge34_Node000024_Node000025" class="edge">
<title>Node24&#45;&gt;Node25</title>
<g id="a_edge34_Node000024_Node000025"><a xlink:title=" ">
<path fill="none" stroke="#63b8ff" d="M979.11,-65.95C1003.79,-54.83 1037.97,-39.42 1061.83,-28.67"/>
<polygon fill="#63b8ff" stroke="#63b8ff" points="1063.37,-31.82 1071.05,-24.52 1060.49,-25.44 1063.37,-31.82"/>
</a>
</g>
</g>
<!-- Node26 -->
<g id="Node000026" class="node">
<title>Node26</title>
<g id="a_Node000026"><a xlink:title=" ">
<polygon fill="#e0e0e0" stroke="#999999" points="984.45,-24.5 919.45,-24.5 919.45,-5.5 984.45,-5.5 984.45,-24.5"/>
<text text-anchor="middle" x="951.95" y="-12.5" font-family="Helvetica,sans-Serif" font-size="10.00">functional</text>
</a>
</g>
</g>
<!-- Node24&#45;&gt;Node26 -->
<g id="edge35_Node000024_Node000026" class="edge">
<title>Node24&#45;&gt;Node26</title>
<g id="a_edge35_Node000024_Node000026"><a xlink:title=" ">
<path fill="none" stroke="#63b8ff" d="M948.83,-65.8C949.4,-56.7 950.15,-44.79 950.76,-34.9"/>
<polygon fill="#63b8ff" stroke="#63b8ff" points="954.26,-35.04 951.39,-24.84 947.28,-34.61 954.26,-35.04"/>
</a>
</g>
</g>
<!-- Node27&#45;&gt;Node24 -->
<g id="edge44_Node000027_Node000024" class="edge">
<title>Node27&#45;&gt;Node24</title>
<g id="a_edge44_Node000027_Node000024"><a xlink:title=" ">
<path fill="none" stroke="#63b8ff" d="M1157.56,-137.44C1120.16,-127.55 1057.77,-111.05 1010.76,-98.61"/>
<polygon fill="#63b8ff" stroke="#63b8ff" points="1011.54,-95.2 1000.98,-96.02 1009.75,-101.97 1011.54,-95.2"/>
</a>
</g>
</g>
<!-- Node27&#45;&gt;Node25 -->
<g id="edge43_Node000027_Node000025" class="edge">
<title>Node27&#45;&gt;Node25</title>
<g id="a_edge43_Node000027_Node000025"><a xlink:title=" ">
<path fill="none" stroke="#63b8ff" d="M1183.38,-137.47C1167.07,-116.27 1124.45,-60.86 1102.87,-32.8"/>
<polygon fill="#63b8ff" stroke="#63b8ff" points="1105.53,-30.52 1096.66,-24.73 1099.99,-34.79 1105.53,-30.52"/>
</a>
</g>
</g>
<!-- Node28 -->
<g id="Node000028" class="node">
<title>Node28</title>
<g id="a_Node000028"><a xlink:href="Coordinate3D_8h.html" target="_top" xlink:title="Defines a templated 3D coordinate class with Boost.Serialization support.">
<polygon fill="white" stroke="#666666" points="1371.95,-90.5 1279.95,-90.5 1279.95,-71.5 1371.95,-71.5 1371.95,-90.5"/>
<text text-anchor="middle" x="1325.95" y="-78.5" font-family="Helvetica,sans-Serif" font-size="10.00">Coordinate3D.h</text>
</a>
</g>
</g>
<!-- Node27&#45;&gt;Node28 -->
<g id="edge37_Node000027_Node000028" class="edge">
<title>Node27&#45;&gt;Node28</title>
<g id="a_edge37_Node000027_Node000028"><a xlink:title=" ">
<path fill="none" stroke="#63b8ff" d="M1208.29,-137.37C1231.4,-126.49 1271.36,-107.69 1298.21,-95.05"/>
<polygon fill="#63b8ff" stroke="#63b8ff" points="1299.9,-98.12 1307.46,-90.7 1296.92,-91.79 1299.9,-98.12"/>
</a>
</g>
</g>
<!-- Node31 -->
<g id="Node000031" class="node">
<title>Node31</title>
<g id="a_Node000031"><a xlink:title=" ">
<polygon fill="#e0e0e0" stroke="#999999" points="1261.95,-90.5 1217.95,-90.5 1217.95,-71.5 1261.95,-71.5 1261.95,-90.5"/>
<text text-anchor="middle" x="1239.95" y="-78.5" font-family="Helvetica,sans-Serif" font-size="10.00">cfloat</text>
</a>
</g>
</g>
<!-- Node27&#45;&gt;Node31 -->
<g id="edge42_Node000027_Node000031" class="edge">
<title>Node27&#45;&gt;Node31</title>
<g id="a_edge42_Node000027_Node000031"><a xlink:title=" ">
<path fill="none" stroke="#63b8ff" d="M1196.69,-137.37C1204.33,-127.59 1216.96,-111.42 1226.61,-99.08"/>
<polygon fill="#63b8ff" stroke="#63b8ff" points="1229.59,-100.94 1232.99,-90.91 1224.07,-96.63 1229.59,-100.94"/>
</a>
</g>
</g>
<!-- Node28&#45;&gt;Node22 -->
<g id="edge39_Node000028_Node000022" class="edge">
<title>Node28&#45;&gt;Node22</title>
<g id="a_edge39_Node000028_Node000022"><a xlink:title=" ">
<path fill="none" stroke="#63b8ff" d="M1325.41,-71.37C1324.91,-63.49 1324.16,-51.45 1323.48,-40.6"/>
<polygon fill="#63b8ff" stroke="#63b8ff" points="1326.96,-40.12 1322.84,-30.36 1319.97,-40.56 1326.96,-40.12"/>
</a>
</g>
</g>
<!-- Node28&#45;&gt;Node23 -->
<g id="edge40_Node000028_Node000023" class="edge">
<title>Node28&#45;&gt;Node23</title>
<g id="a_edge40_Node000028_Node000023"><a xlink:title=" ">
<path fill="none" stroke="#63b8ff" d="M1307.33,-71.37C1287.02,-61.95 1253.9,-46.59 1227.69,-34.43"/>
<polygon fill="#63b8ff" stroke="#63b8ff" points="1228.93,-31.15 1218.38,-30.12 1225.98,-37.5 1228.93,-31.15"/>
</a>
</g>
</g>
<!-- Node29 -->
<g id="Node000029" class="node">
<title>Node29</title>
<g id="a_Node000029"><a xlink:title=" ">
<polygon fill="#e0e0e0" stroke="#999999" points="1505.45,-30 1398.45,-30 1398.45,0 1505.45,0 1505.45,-30"/>
<text text-anchor="start" x="1406.45" y="-18" font-family="Helvetica,sans-Serif" font-size="10.00">boost/serialization</text>
<text text-anchor="middle" x="1451.95" y="-7" font-family="Helvetica,sans-Serif" font-size="10.00">/access.hpp</text>
</a>
</g>
</g>
<!-- Node28&#45;&gt;Node29 -->
<g id="edge38_Node000028_Node000029" class="edge">
<title>Node28&#45;&gt;Node29</title>
<g id="a_edge38_Node000028_Node000029"><a xlink:title=" ">
<path fill="none" stroke="#63b8ff" d="M1342.94,-71.37C1361.32,-62.03 1391.2,-46.86 1415.03,-34.75"/>
<polygon fill="#63b8ff" stroke="#63b8ff" points="1416.82,-37.76 1424.16,-30.12 1413.65,-31.52 1416.82,-37.76"/>
</a>
</g>
</g>
<!-- Node30 -->
<g id="Node000030" class="node">
<title>Node30</title>
<g id="a_Node000030"><a xlink:title=" ">
<polygon fill="#e0e0e0" stroke="#999999" points="1578.45,-24.5 1523.45,-24.5 1523.45,-5.5 1578.45,-5.5 1578.45,-24.5"/>
<text text-anchor="middle" x="1550.95" y="-12.5" font-family="Helvetica,sans-Serif" font-size="10.00">fstream</text>
</a>
</g>
</g>
<!-- Node28&#45;&gt;Node30 -->
<g id="edge41_Node000028_Node000030" class="edge">
<title>Node28&#45;&gt;Node30</title>
<g id="a_edge41_Node000028_Node000030"><a xlink:title=" ">
<path fill="none" stroke="#63b8ff" d="M1363.24,-71.44C1401.63,-62.33 1462.98,-46.92 1514.95,-30 1516.81,-29.39 1518.72,-28.74 1520.64,-28.06"/>
<polygon fill="#63b8ff" stroke="#63b8ff" points="1521.99,-31.3 1530.15,-24.54 1519.56,-24.73 1521.99,-31.3"/>
</a>
</g>
</g>
</g>
</svg>

<g id="navigator" transform="translate(0 0)" fill="#404254">
  <rect fill="#f2f5e9" fill-opacity="0.5" stroke="#606060" stroke-width=".5" x="0" y="0" width="60" height="60"/>
  <use id="zoomplus" xlink:href="#zoomPlus" x="17" y="9" onmousedown="handleZoom(evt,'in')"/>
  <use id="zoomminus" xlink:href="#zoomMin" x="42" y="9" onmousedown="handleZoom(evt,'out')"/>
  <use id="reset" xlink:href="#resetDef" x="30" y="36" onmousedown="handleReset()"/>
   <use id="arrowup" xlink:href="#arrowUp" x="0" y="0" onmousedown="handlePan(0,-1)"/>
  <use id="arrowright" xlink:href="#arrowRight" x="0" y="0" onmousedown="handlePan(1,0)"/>
  <use id="arrowdown" xlink:href="#arrowDown" x="0" y="0" onmousedown="handlePan(0,1)"/>
  <use id="arrowleft" xlink:href="#arrowLeft" x="0" y="0" onmousedown="handlePan(-1,0)"/>
</g>
<svg viewBox="0 0 15 15" width="100%" height="30px" preserveAspectRatio="xMaxYMin meet">
 <g id="arrow_out" transform="scale(0.3 0.3)">
  <a xlink:href="Allele_8h__incl_org.svg" target="_base">
   <rect id="button" ry="5" rx="5" y="6" x="6" height="38" width="38"
        fill="#f2f5e9" fill-opacity="0.5" stroke="#606060" stroke-width="1.0"/>
   <path id="arrow"
     d="M 11.500037,31.436501 C 11.940474,20.09759 22.043105,11.32322 32.158766,21.979434 L 37.068811,17.246167 C 37.068811,17.246167 37.088388,32 37.088388,32 L 22.160133,31.978069 C 22.160133,31.978069 26.997745,27.140456 26.997745,27.140456 C 18.528582,18.264221 13.291696,25.230495 11.500037,31.436501 z"
     style="fill:#404040;"/>
  </a>
 </g>
</svg>

<style type='text/css'>
<![CDATA[
[data-mouse-over-selected='false'] { opacity: 0.7; }
[data-mouse-over-selected='true']  { opacity: 1.0; }
]]>
</style>
<script type="application/ecmascript"><![CDATA[
document.addEventListener('DOMContentLoaded', (event) => {
  highlightEdges();
  highlightAdjacentNodes();
});
]]></script>
</svg>
