<?xml version="1.0" encoding="UTF-8" standalone="no"?>
<!DOCTYPE svg PUBLIC "-//W3C//DTD SVG 1.1//EN"
 "http://www.w3.org/Graphics/SVG/1.1/DTD/svg11.dtd">
<!-- Generated by graphviz version 2.43.0 (0)
 -->
<!-- Title: /home/runner/work/Weaver/Weaver/include/App/Model/IBM/Landscape/LivingBeings/Animals/Growth/AnimalGrowth.h Pages: 1 -->
<svg width="936pt" height="1006pt"
 viewBox="0.00 0.00 936.00 1006.00" xmlns="http://www.w3.org/2000/svg" xmlns:xlink="http://www.w3.org/1999/xlink">
<g id="graph0" class="graph" transform="scale(1 1) rotate(0) translate(4 1002)">
<title>/home/runner/work/Weaver/Weaver/include/App/Model/IBM/Landscape/LivingBeings/Animals/Growth/AnimalGrowth.h</title>
<!-- Node1 -->
<g id="Node000001" class="node">
<title>Node1</title>
<g id="a_Node000001"><a xlink:title="Defines the AnimalGrowth class for managing the growth, mass, and age of animals.">
<polygon fill="#999999" stroke="#666666" points="556.5,-998 377.5,-998 377.5,-946 556.5,-946 556.5,-998"/>
<text text-anchor="start" x="385.5" y="-986" font-family="Helvetica,sans-Serif" font-size="10.00">/home/runner/work/Weaver</text>
<text text-anchor="start" x="385.5" y="-975" font-family="Helvetica,sans-Serif" font-size="10.00">/Weaver/include/App/Model</text>
<text text-anchor="start" x="385.5" y="-964" font-family="Helvetica,sans-Serif" font-size="10.00">/IBM/Landscape/LivingBeings</text>
<text text-anchor="middle" x="467" y="-953" font-family="Helvetica,sans-Serif" font-size="10.00">/Animals/Growth/AnimalGrowth.h</text>
</a>
</g>
</g>
<!-- Node2 -->
<g id="Node000002" class="node">
<title>Node2</title>
<g id="a_Node000002"><a xlink:href="Animal_8h.html" target="_top" xlink:title="Defines the Animal class, an abstract class representing animals in the ecosystem.">
<polygon fill="white" stroke="#666666" points="546,-904.5 388,-904.5 388,-852.5 546,-852.5 546,-904.5"/>
<text text-anchor="start" x="396" y="-892.5" font-family="Helvetica,sans-Serif" font-size="10.00">/home/runner/work/Weaver</text>
<text text-anchor="start" x="396" y="-881.5" font-family="Helvetica,sans-Serif" font-size="10.00">/Weaver/include/App/Model</text>
<text text-anchor="start" x="396" y="-870.5" font-family="Helvetica,sans-Serif" font-size="10.00">/IBM/Landscape/LivingBeings</text>
<text text-anchor="middle" x="467" y="-859.5" font-family="Helvetica,sans-Serif" font-size="10.00">/Animals/Animal.h</text>
</a>
</g>
</g>
<!-- Node1&#45;&gt;Node2 -->
<g id="edge1_Node000001_Node000002" class="edge">
<title>Node1&#45;&gt;Node2</title>
<g id="a_edge1_Node000001_Node000002"><a xlink:title=" ">
<path fill="none" stroke="#63b8ff" d="M467,-935.96C467,-925.58 467,-914.42 467,-904.79"/>
<polygon fill="#63b8ff" stroke="#63b8ff" points="463.5,-936 467,-946 470.5,-936 463.5,-936"/>
</a>
</g>
</g>
<!-- Node19 -->
<g id="Node000019" class="node">
<title>Node19</title>
<g id="a_Node000019"><a xlink:href="AnimalNonStatisticalGrowth_8h.html" target="_top" xlink:title="Defines the AnimalNonStatisticalGrowth class, which extends AnimalGrowth for non&#45;statistical animal s...">
<polygon fill="white" stroke="#666666" points="366.5,-910 163.5,-910 163.5,-847 366.5,-847 366.5,-910"/>
<text text-anchor="start" x="171.5" y="-898" font-family="Helvetica,sans-Serif" font-size="10.00">/home/runner/work/Weaver</text>
<text text-anchor="start" x="171.5" y="-887" font-family="Helvetica,sans-Serif" font-size="10.00">/Weaver/include/App/Model</text>
<text text-anchor="start" x="171.5" y="-876" font-family="Helvetica,sans-Serif" font-size="10.00">/IBM/Landscape/LivingBeings</text>
<text text-anchor="start" x="171.5" y="-865" font-family="Helvetica,sans-Serif" font-size="10.00">/Animals/Growth/AnimalNonStatistical</text>
<text text-anchor="middle" x="265" y="-854" font-family="Helvetica,sans-Serif" font-size="10.00">Growth.h</text>
</a>
</g>
</g>
<!-- Node1&#45;&gt;Node19 -->
<g id="edge32_Node000001_Node000019" class="edge">
<title>Node1&#45;&gt;Node19</title>
<g id="a_edge32_Node000001_Node000019"><a xlink:title=" ">
<path fill="none" stroke="#63b8ff" d="M402.4,-941.74C380.05,-931.61 354.94,-920.24 332.37,-910.02"/>
<polygon fill="#63b8ff" stroke="#63b8ff" points="401.25,-945.06 411.8,-946 404.14,-938.68 401.25,-945.06"/>
</a>
</g>
</g>
<!-- Node20 -->
<g id="Node000020" class="node">
<title>Node20</title>
<g id="a_Node000020"><a xlink:href="AnimalStatisticalGrowth_8h.html" target="_top" xlink:title="Defines the AnimalStatisticalGrowth class, which represents the growth of an animal using statistical...">
<polygon fill="white" stroke="#666666" points="794,-904.5 566,-904.5 566,-852.5 794,-852.5 794,-904.5"/>
<text text-anchor="start" x="574" y="-892.5" font-family="Helvetica,sans-Serif" font-size="10.00">/home/runner/work/Weaver</text>
<text text-anchor="start" x="574" y="-881.5" font-family="Helvetica,sans-Serif" font-size="10.00">/Weaver/include/App/Model</text>
<text text-anchor="start" x="574" y="-870.5" font-family="Helvetica,sans-Serif" font-size="10.00">/IBM/Landscape/LivingBeings</text>
<text text-anchor="middle" x="680" y="-859.5" font-family="Helvetica,sans-Serif" font-size="10.00">/Animals/Growth/AnimalStatisticalGrowth.h</text>
</a>
</g>
</g>
<!-- Node1&#45;&gt;Node20 -->
<g id="edge34_Node000001_Node000020" class="edge">
<title>Node1&#45;&gt;Node20</title>
<g id="a_edge34_Node000001_Node000020"><a xlink:title=" ">
<path fill="none" stroke="#63b8ff" d="M534.51,-942C562.46,-929.99 594.57,-916.2 621.5,-904.63"/>
<polygon fill="#63b8ff" stroke="#63b8ff" points="533.01,-938.83 525.2,-946 535.77,-945.27 533.01,-938.83"/>
</a>
</g>
</g>
<!-- Node3 -->
<g id="Node000003" class="node">
<title>Node3</title>
<g id="a_Node000003"><a xlink:href="AnimalNonStatistical_8h.html" target="_top" xlink:title="Defines the AnimalNonStatistical class, a non&#45;statistical concrete implementation of Animal.">
<polygon fill="white" stroke="#666666" points="344,-811 170,-811 170,-759 344,-759 344,-811"/>
<text text-anchor="start" x="178" y="-799" font-family="Helvetica,sans-Serif" font-size="10.00">/home/runner/work/Weaver</text>
<text text-anchor="start" x="178" y="-788" font-family="Helvetica,sans-Serif" font-size="10.00">/Weaver/include/App/Model</text>
<text text-anchor="start" x="178" y="-777" font-family="Helvetica,sans-Serif" font-size="10.00">/IBM/Landscape/LivingBeings</text>
<text text-anchor="middle" x="257" y="-766" font-family="Helvetica,sans-Serif" font-size="10.00">/Animals/AnimalNonStatistical.h</text>
</a>
</g>
</g>
<!-- Node2&#45;&gt;Node3 -->
<g id="edge2_Node000002_Node000003" class="edge">
<title>Node2&#45;&gt;Node3</title>
<g id="a_edge2_Node000002_Node000003"><a xlink:title=" ">
<path fill="none" stroke="#63b8ff" d="M400.44,-848.5C372.88,-836.49 341.23,-822.7 314.68,-811.13"/>
<polygon fill="#63b8ff" stroke="#63b8ff" points="399.05,-851.71 409.62,-852.5 401.85,-845.29 399.05,-851.71"/>
</a>
</g>
</g>
<!-- Node12 -->
<g id="Node000012" class="node">
<title>Node12</title>
<g id="a_Node000012"><a xlink:href="TerrainCell_8h.html" target="_top" xlink:title="Defines the TerrainCell class representing a cell in the landscape.">
<polygon fill="white" stroke="#666666" points="448.5,-635 271.5,-635 271.5,-583 448.5,-583 448.5,-635"/>
<text text-anchor="start" x="279.5" y="-623" font-family="Helvetica,sans-Serif" font-size="10.00">/home/runner/work/Weaver</text>
<text text-anchor="start" x="279.5" y="-612" font-family="Helvetica,sans-Serif" font-size="10.00">/Weaver/include/App/Model</text>
<text text-anchor="start" x="279.5" y="-601" font-family="Helvetica,sans-Serif" font-size="10.00">/IBM/Landscape/Map/TerrainCells</text>
<text text-anchor="middle" x="360" y="-590" font-family="Helvetica,sans-Serif" font-size="10.00">/TerrainCell.h</text>
</a>
</g>
</g>
<!-- Node2&#45;&gt;Node12 -->
<g id="edge31_Node000002_Node000012" class="edge">
<title>Node2&#45;&gt;Node12</title>
<g id="a_edge31_Node000002_Node000012"><a xlink:title=" ">
<path fill="none" stroke="#63b8ff" d="M453.1,-842.74C431.24,-788.1 389.36,-683.39 370.12,-635.29"/>
<polygon fill="#63b8ff" stroke="#63b8ff" points="449.97,-844.35 456.93,-852.33 456.47,-841.75 449.97,-844.35"/>
</a>
</g>
</g>
<!-- Node16 -->
<g id="Node000016" class="node">
<title>Node16</title>
<g id="a_Node000016"><a xlink:href="RootTerrainCell_8h.html" target="_top" xlink:title="Defines the RootTerrainCell class, the top&#45;level node of the spatial tree in the landscape.">
<polygon fill="white" stroke="#666666" points="467,-283 293,-283 293,-231 467,-231 467,-283"/>
<text text-anchor="start" x="301" y="-271" font-family="Helvetica,sans-Serif" font-size="10.00">/home/runner/work/Weaver</text>
<text text-anchor="start" x="301" y="-260" font-family="Helvetica,sans-Serif" font-size="10.00">/Weaver/include/App/Model</text>
<text text-anchor="start" x="301" y="-249" font-family="Helvetica,sans-Serif" font-size="10.00">/IBM/Landscape/Map/SpatialTree</text>
<text text-anchor="middle" x="380" y="-238" font-family="Helvetica,sans-Serif" font-size="10.00">/TerrainCells/RootTerrainCell.h</text>
</a>
</g>
</g>
<!-- Node2&#45;&gt;Node16 -->
<g id="edge30_Node000002_Node000016" class="edge">
<title>Node2&#45;&gt;Node16</title>
<g id="a_edge30_Node000002_Node000016"><a xlink:title=" ">
<path fill="none" stroke="#63b8ff" d="M469.82,-842.2C472.46,-806.02 476,-748.12 476,-698 476,-698 476,-698 476,-432 476,-381.07 482.91,-362.84 457,-319 448.67,-304.9 435.76,-292.8 422.88,-283.18"/>
<polygon fill="#63b8ff" stroke="#63b8ff" points="466.32,-842.02 469.06,-852.25 473.3,-842.54 466.32,-842.02"/>
</a>
</g>
</g>
<!-- Node18 -->
<g id="Node000018" class="node">
<title>Node18</title>
<g id="a_Node000018"><a xlink:href="AnimalStatistical_8h.html" target="_top" xlink:title="Defines the AnimalStatistical class, a concrete subclass of Animal for statistical simulations.">
<polygon fill="white" stroke="#666666" points="760,-723 602,-723 602,-671 760,-671 760,-723"/>
<text text-anchor="start" x="610" y="-711" font-family="Helvetica,sans-Serif" font-size="10.00">/home/runner/work/Weaver</text>
<text text-anchor="start" x="610" y="-700" font-family="Helvetica,sans-Serif" font-size="10.00">/Weaver/include/App/Model</text>
<text text-anchor="start" x="610" y="-689" font-family="Helvetica,sans-Serif" font-size="10.00">/IBM/Landscape/LivingBeings</text>
<text text-anchor="middle" x="681" y="-678" font-family="Helvetica,sans-Serif" font-size="10.00">/Animals/AnimalStatistical.h</text>
</a>
</g>
</g>
<!-- Node2&#45;&gt;Node18 -->
<g id="edge27_Node000002_Node000018" class="edge">
<title>Node2&#45;&gt;Node18</title>
<g id="a_edge27_Node000002_Node000018"><a xlink:title=" ">
<path fill="none" stroke="#63b8ff" d="M504.95,-845.67C546.63,-810.71 612.7,-755.28 650.95,-723.21"/>
<polygon fill="#63b8ff" stroke="#63b8ff" points="502.62,-843.05 497.21,-852.16 507.12,-848.42 502.62,-843.05"/>
</a>
</g>
</g>
<!-- Node4 -->
<g id="Node000004" class="node">
<title>Node4</title>
<g id="a_Node000004"><a xlink:href="Landscape_8h.html" target="_top" xlink:title="Doxygen&#45;documented declaration of the Landscape class and related serialization helpers.">
<polygon fill="white" stroke="#666666" points="567.5,-118 410.5,-118 410.5,-77 567.5,-77 567.5,-118"/>
<text text-anchor="start" x="418.5" y="-106" font-family="Helvetica,sans-Serif" font-size="10.00">/home/runner/work/Weaver</text>
<text text-anchor="start" x="418.5" y="-95" font-family="Helvetica,sans-Serif" font-size="10.00">/Weaver/include/App/Model</text>
<text text-anchor="middle" x="489" y="-84" font-family="Helvetica,sans-Serif" font-size="10.00">/IBM/Landscape/Landscape.h</text>
</a>
</g>
</g>
<!-- Node3&#45;&gt;Node4 -->
<g id="edge3_Node000003_Node000004" class="edge">
<title>Node3&#45;&gt;Node4</title>
<g id="a_edge3_Node000003_Node000004"><a xlink:title=" ">
<path fill="none" stroke="#63b8ff" d="M160.27,-760.44C87.41,-736.24 0,-690.44 0,-610 0,-610 0,-610 0,-256 0,-170.82 272.2,-125.07 410.43,-107.33"/>
<polygon fill="#63b8ff" stroke="#63b8ff" points="159.4,-763.83 169.99,-763.57 161.55,-757.17 159.4,-763.83"/>
</a>
</g>
</g>
<!-- Node9 -->
<g id="Node000009" class="node">
<title>Node9</title>
<g id="a_Node000009"><a xlink:href="SpatialTreeAnimal_8h.html" target="_top" xlink:title="Defines the SpatialTreeAnimal class for animals in a spatial tree terrain.">
<polygon fill="white" stroke="#666666" points="253.5,-635 28.5,-635 28.5,-583 253.5,-583 253.5,-635"/>
<text text-anchor="start" x="36.5" y="-623" font-family="Helvetica,sans-Serif" font-size="10.00">/home/runner/work/Weaver</text>
<text text-anchor="start" x="36.5" y="-612" font-family="Helvetica,sans-Serif" font-size="10.00">/Weaver/include/App/Model</text>
<text text-anchor="start" x="36.5" y="-601" font-family="Helvetica,sans-Serif" font-size="10.00">/IBM/Landscape/Map/SpatialTree</text>
<text text-anchor="middle" x="141" y="-590" font-family="Helvetica,sans-Serif" font-size="10.00">/LivingBeings/Animals/SpatialTreeAnimal.h</text>
</a>
</g>
</g>
<!-- Node3&#45;&gt;Node9 -->
<g id="edge8_Node000003_Node000009" class="edge">
<title>Node3&#45;&gt;Node9</title>
<g id="a_edge8_Node000003_Node000009"><a xlink:title=" ">
<path fill="none" stroke="#63b8ff" d="M190.42,-753.5C178.32,-745.19 167.01,-735.07 159,-723 141.53,-696.68 138.82,-659.47 139.27,-635.04"/>
<polygon fill="#63b8ff" stroke="#63b8ff" points="188.59,-756.49 198.89,-758.96 192.38,-750.6 188.59,-756.49"/>
</a>
</g>
</g>
<!-- Node11 -->
<g id="Node000011" class="node">
<title>Node11</title>
<g id="a_Node000011"><a xlink:href="CellValue_8h.html" target="_top" xlink:title="Defines the CellValue struct representing the evaluation of a terrain cell by an animal.">
<polygon fill="white" stroke="#666666" points="345.5,-723 168.5,-723 168.5,-671 345.5,-671 345.5,-723"/>
<text text-anchor="start" x="176.5" y="-711" font-family="Helvetica,sans-Serif" font-size="10.00">/home/runner/work/Weaver</text>
<text text-anchor="start" x="176.5" y="-700" font-family="Helvetica,sans-Serif" font-size="10.00">/Weaver/include/App/Model</text>
<text text-anchor="start" x="176.5" y="-689" font-family="Helvetica,sans-Serif" font-size="10.00">/IBM/Landscape/Map/TerrainCells</text>
<text text-anchor="middle" x="257" y="-678" font-family="Helvetica,sans-Serif" font-size="10.00">/CellValue.h</text>
</a>
</g>
</g>
<!-- Node3&#45;&gt;Node11 -->
<g id="edge11_Node000003_Node000011" class="edge">
<title>Node3&#45;&gt;Node11</title>
<g id="a_edge11_Node000003_Node000011"><a xlink:title=" ">
<path fill="none" stroke="#63b8ff" d="M257,-748.56C257,-740.04 257,-731.1 257,-723.16"/>
<polygon fill="#63b8ff" stroke="#63b8ff" points="253.5,-748.66 257,-758.66 260.5,-748.66 253.5,-748.66"/>
</a>
</g>
</g>
<!-- Node3&#45;&gt;Node12 -->
<g id="edge26_Node000003_Node000012" class="edge">
<title>Node3&#45;&gt;Node12</title>
<g id="a_edge26_Node000003_Node000012"><a xlink:title=" ">
<path fill="none" stroke="#63b8ff" d="M325.03,-753.21C336.49,-745.01 346.94,-735.01 354,-723 369.72,-696.24 368.32,-659.47 364.95,-635.23"/>
<polygon fill="#63b8ff" stroke="#63b8ff" points="322.93,-750.4 316.54,-758.86 326.81,-756.23 322.93,-750.4"/>
</a>
</g>
</g>
<!-- Node5 -->
<g id="Node000005" class="node">
<title>Node5</title>
<g id="a_Node000005"><a xlink:href="IBM_8h.html" target="_top" xlink:title="Definition of the IBM class, representing the core individual&#45;based model of the simulation.">
<polygon fill="white" stroke="#666666" points="264.5,-41 115.5,-41 115.5,0 264.5,0 264.5,-41"/>
<text text-anchor="start" x="123.5" y="-29" font-family="Helvetica,sans-Serif" font-size="10.00">/home/runner/work/Weaver</text>
<text text-anchor="start" x="123.5" y="-18" font-family="Helvetica,sans-Serif" font-size="10.00">/Weaver/include/App/Model</text>
<text text-anchor="middle" x="190" y="-7" font-family="Helvetica,sans-Serif" font-size="10.00">/IBM/IBM.h</text>
</a>
</g>
</g>
<!-- Node4&#45;&gt;Node5 -->
<g id="edge4_Node000004_Node000005" class="edge">
<title>Node4&#45;&gt;Node5</title>
<g id="a_edge4_Node000004_Node000005"><a xlink:title=" ">
<path fill="none" stroke="#63b8ff" d="M401.52,-74.56C358.06,-63.65 306.1,-50.62 264.55,-40.2"/>
<polygon fill="#63b8ff" stroke="#63b8ff" points="400.67,-77.95 411.22,-76.99 402.37,-71.16 400.67,-77.95"/>
</a>
</g>
</g>
<!-- Node6 -->
<g id="Node000006" class="node">
<title>Node6</title>
<g id="a_Node000006"><a xlink:href="AquaticLandscape_8h.html" target="_top" xlink:title="Defines the AquaticLandscape class for aquatic ecosystem simulations.">
<polygon fill="white" stroke="#666666" points="476,-41 282,-41 282,0 476,0 476,-41"/>
<text text-anchor="start" x="290" y="-29" font-family="Helvetica,sans-Serif" font-size="10.00">/home/runner/work/Weaver</text>
<text text-anchor="start" x="290" y="-18" font-family="Helvetica,sans-Serif" font-size="10.00">/Weaver/include/App/Model</text>
<text text-anchor="middle" x="379" y="-7" font-family="Helvetica,sans-Serif" font-size="10.00">/IBM/Landscape/AquaticLandscape.h</text>
</a>
</g>
</g>
<!-- Node4&#45;&gt;Node6 -->
<g id="edge5_Node000004_Node000006" class="edge">
<title>Node4&#45;&gt;Node6</title>
<g id="a_edge5_Node000004_Node000006"><a xlink:title=" ">
<path fill="none" stroke="#63b8ff" d="M451.74,-71.09C437.4,-61.32 421.28,-50.32 407.85,-41.17"/>
<polygon fill="#63b8ff" stroke="#63b8ff" points="450.15,-74.25 460.39,-76.99 454.1,-68.47 450.15,-74.25"/>
</a>
</g>
</g>
<!-- Node7 -->
<g id="Node000007" class="node">
<title>Node7</title>
<g id="a_Node000007"><a xlink:href="ArthropodsLandscape_8h.html" target="_top" xlink:title="Defines the ArthropodsLandscape class for arthropod&#45;specific ecosystem simulations.">
<polygon fill="white" stroke="#666666" points="704,-41 494,-41 494,0 704,0 704,-41"/>
<text text-anchor="start" x="502" y="-29" font-family="Helvetica,sans-Serif" font-size="10.00">/home/runner/work/Weaver</text>
<text text-anchor="start" x="502" y="-18" font-family="Helvetica,sans-Serif" font-size="10.00">/Weaver/include/App/Model</text>
<text text-anchor="middle" x="599" y="-7" font-family="Helvetica,sans-Serif" font-size="10.00">/IBM/Landscape/ArthropodsLandscape.h</text>
</a>
</g>
</g>
<!-- Node4&#45;&gt;Node7 -->
<g id="edge6_Node000004_Node000007" class="edge">
<title>Node4&#45;&gt;Node7</title>
<g id="a_edge6_Node000004_Node000007"><a xlink:title=" ">
<path fill="none" stroke="#63b8ff" d="M526.26,-71.09C540.6,-61.32 556.72,-50.32 570.15,-41.17"/>
<polygon fill="#63b8ff" stroke="#63b8ff" points="523.9,-68.47 517.61,-76.99 527.85,-74.25 523.9,-68.47"/>
</a>
</g>
</g>
<!-- Node8 -->
<g id="Node000008" class="node">
<title>Node8</title>
<g id="a_Node000008"><a xlink:href="DinosaursLandscape_8h.html" target="_top" xlink:title="Defines the DinosaursLandscape class for dinosaur&#45;specific ecosystem simulations.">
<polygon fill="white" stroke="#666666" points="928,-41 722,-41 722,0 928,0 928,-41"/>
<text text-anchor="start" x="730" y="-29" font-family="Helvetica,sans-Serif" font-size="10.00">/home/runner/work/Weaver</text>
<text text-anchor="start" x="730" y="-18" font-family="Helvetica,sans-Serif" font-size="10.00">/Weaver/include/App/Model</text>
<text text-anchor="middle" x="825" y="-7" font-family="Helvetica,sans-Serif" font-size="10.00">/IBM/Landscape/DinosaursLandscape.h</text>
</a>
</g>
</g>
<!-- Node4&#45;&gt;Node8 -->
<g id="edge7_Node000004_Node000008" class="edge">
<title>Node4&#45;&gt;Node8</title>
<g id="a_edge7_Node000004_Node000008"><a xlink:title=" ">
<path fill="none" stroke="#63b8ff" d="M577.81,-76.68C627.19,-65.66 688.4,-51.99 737.56,-41.02"/>
<polygon fill="#63b8ff" stroke="#63b8ff" points="576.77,-73.32 567.78,-78.92 578.3,-80.15 576.77,-73.32"/>
</a>
</g>
</g>
<!-- Node10 -->
<g id="Node000010" class="node">
<title>Node10</title>
<g id="a_Node000010"><a xlink:href="SpatialTree_8h.html" target="_top" xlink:title="Defines the SpatialTree class, a spatially subdivided map implementation.">
<polygon fill="white" stroke="#666666" points="471.5,-195 288.5,-195 288.5,-154 471.5,-154 471.5,-195"/>
<text text-anchor="start" x="296.5" y="-183" font-family="Helvetica,sans-Serif" font-size="10.00">/home/runner/work/Weaver</text>
<text text-anchor="start" x="296.5" y="-172" font-family="Helvetica,sans-Serif" font-size="10.00">/Weaver/include/App/Model</text>
<text text-anchor="middle" x="380" y="-161" font-family="Helvetica,sans-Serif" font-size="10.00">/IBM/Landscape/Map/SpatialTree.h</text>
</a>
</g>
</g>
<!-- Node9&#45;&gt;Node10 -->
<g id="edge9_Node000009_Node000010" class="edge">
<title>Node9&#45;&gt;Node10</title>
<g id="a_edge9_Node000009_Node000010"><a xlink:title=" ">
<path fill="none" stroke="#63b8ff" d="M138.11,-572.73C135.47,-537.6 132,-482.11 132,-434 132,-434 132,-434 132,-344 132,-287.95 144.99,-266.94 188,-231 216.09,-207.53 253.64,-193.98 288.07,-186.16"/>
<polygon fill="#63b8ff" stroke="#63b8ff" points="134.63,-573.25 138.89,-582.95 141.61,-572.71 134.63,-573.25"/>
</a>
</g>
</g>
<!-- Node10&#45;&gt;Node4 -->
<g id="edge10_Node000010_Node000004" class="edge">
<title>Node10&#45;&gt;Node4</title>
<g id="a_edge10_Node000010_Node000004"><a xlink:title=" ">
<path fill="none" stroke="#63b8ff" d="M416.93,-148.09C431.13,-138.32 447.11,-127.32 460.41,-118.17"/>
<polygon fill="#63b8ff" stroke="#63b8ff" points="414.61,-145.44 408.35,-153.99 418.58,-151.21 414.61,-145.44"/>
</a>
</g>
</g>
<!-- Node11&#45;&gt;Node9 -->
<g id="edge12_Node000011_Node000009" class="edge">
<title>Node11&#45;&gt;Node9</title>
<g id="a_edge12_Node000011_Node000009"><a xlink:title=" ">
<path fill="none" stroke="#63b8ff" d="M214.76,-664.69C201.72,-655.02 187.53,-644.49 175.11,-635.29"/>
<polygon fill="#63b8ff" stroke="#63b8ff" points="213.02,-667.75 223.14,-670.89 217.19,-662.13 213.02,-667.75"/>
</a>
</g>
</g>
<!-- Node11&#45;&gt;Node12 -->
<g id="edge13_Node000011_Node000012" class="edge">
<title>Node11&#45;&gt;Node12</title>
<g id="a_edge13_Node000011_Node000012"><a xlink:title=" ">
<path fill="none" stroke="#63b8ff" d="M294.84,-664.41C306.32,-654.82 318.79,-644.41 329.72,-635.29"/>
<polygon fill="#63b8ff" stroke="#63b8ff" points="292.5,-661.8 287.07,-670.89 296.99,-667.17 292.5,-661.8"/>
</a>
</g>
</g>
<!-- Node12&#45;&gt;Node4 -->
<g id="edge14_Node000012_Node000004" class="edge">
<title>Node12&#45;&gt;Node4</title>
<g id="a_edge14_Node000012_Node000004"><a xlink:title=" ">
<path fill="none" stroke="#63b8ff" d="M458.74,-585.14C526.98,-564.04 613.98,-525.59 663,-459 693.19,-417.99 682,-396.93 682,-346 682,-346 682,-346 682,-256 682,-185.72 604.24,-141.2 547.43,-118.06"/>
<polygon fill="#63b8ff" stroke="#63b8ff" points="457.39,-581.89 448.82,-588.12 459.4,-588.59 457.39,-581.89"/>
</a>
</g>
</g>
<!-- Node12&#45;&gt;Node10 -->
<g id="edge18_Node000012_Node000010" class="edge">
<title>Node12&#45;&gt;Node10</title>
<g id="a_edge18_Node000012_Node000010"><a xlink:title=" ">
<path fill="none" stroke="#63b8ff" d="M277.16,-578.41C260.62,-569.98 244.27,-559.58 231,-547 189.58,-507.73 170,-491.07 170,-434 170,-434 170,-434 170,-344 170,-266.87 257.24,-219.17 319.26,-195"/>
<polygon fill="#63b8ff" stroke="#63b8ff" points="275.83,-581.66 286.35,-582.89 278.9,-575.36 275.83,-581.66"/>
</a>
</g>
</g>
<!-- Node13 -->
<g id="Node000013" class="node">
<title>Node13</title>
<g id="a_Node000013"><a xlink:href="Map_8h.html" target="_top" xlink:title="Defines the Map class for spatial organization of landscapes.">
<polygon fill="white" stroke="#666666" points="654,-453.5 504,-453.5 504,-412.5 654,-412.5 654,-453.5"/>
<text text-anchor="start" x="512" y="-441.5" font-family="Helvetica,sans-Serif" font-size="10.00">/home/runner/work/Weaver</text>
<text text-anchor="start" x="512" y="-430.5" font-family="Helvetica,sans-Serif" font-size="10.00">/Weaver/include/App/Model</text>
<text text-anchor="middle" x="579" y="-419.5" font-family="Helvetica,sans-Serif" font-size="10.00">/IBM/Landscape/Map/Map.h</text>
</a>
</g>
</g>
<!-- Node12&#45;&gt;Node13 -->
<g id="edge15_Node000012_Node000013" class="edge">
<title>Node12&#45;&gt;Node13</title>
<g id="a_edge15_Node000012_Node000013"><a xlink:title=" ">
<path fill="none" stroke="#63b8ff" d="M403.34,-576.89C416.22,-567.45 430.29,-556.94 443,-547 483.63,-515.24 529.5,-476.5 556.24,-453.62"/>
<polygon fill="#63b8ff" stroke="#63b8ff" points="401.09,-574.21 395.07,-582.93 405.22,-579.86 401.09,-574.21"/>
</a>
</g>
</g>
<!-- Node14 -->
<g id="Node000014" class="node">
<title>Node14</title>
<g id="a_Node000014"><a xlink:href="SpatialTreeTerrainCell_8h.html" target="_top" xlink:title="Spatial tree implementation of a terrain cell.">
<polygon fill="white" stroke="#666666" points="434,-547 240,-547 240,-495 434,-495 434,-547"/>
<text text-anchor="start" x="248" y="-535" font-family="Helvetica,sans-Serif" font-size="10.00">/home/runner/work/Weaver</text>
<text text-anchor="start" x="248" y="-524" font-family="Helvetica,sans-Serif" font-size="10.00">/Weaver/include/App/Model</text>
<text text-anchor="start" x="248" y="-513" font-family="Helvetica,sans-Serif" font-size="10.00">/IBM/Landscape/Map/SpatialTree</text>
<text text-anchor="middle" x="337" y="-502" font-family="Helvetica,sans-Serif" font-size="10.00">/TerrainCells/SpatialTreeTerrainCell.h</text>
</a>
</g>
</g>
<!-- Node12&#45;&gt;Node14 -->
<g id="edge19_Node000012_Node000014" class="edge">
<title>Node12&#45;&gt;Node14</title>
<g id="a_edge19_Node000012_Node000014"><a xlink:title=" ">
<path fill="none" stroke="#63b8ff" d="M350.6,-572.84C348.29,-564.23 345.88,-555.19 343.73,-547.16"/>
<polygon fill="#63b8ff" stroke="#63b8ff" points="347.26,-573.91 353.22,-582.66 354.02,-572.1 347.26,-573.91"/>
</a>
</g>
</g>
<!-- Node13&#45;&gt;Node4 -->
<g id="edge16_Node000013_Node000004" class="edge">
<title>Node13&#45;&gt;Node4</title>
<g id="a_edge16_Node000013_Node000004"><a xlink:title=" ">
<path fill="none" stroke="#63b8ff" d="M571.98,-402.58C566.46,-379.74 558.48,-347.3 551,-319 531.33,-244.61 505.97,-156.7 494.76,-118.21"/>
<polygon fill="#63b8ff" stroke="#63b8ff" points="568.59,-403.45 574.33,-412.36 575.39,-401.81 568.59,-403.45"/>
</a>
</g>
</g>
<!-- Node13&#45;&gt;Node10 -->
<g id="edge17_Node000013_Node000010" class="edge">
<title>Node13&#45;&gt;Node10</title>
<g id="a_edge17_Node000013_Node000010"><a xlink:title=" ">
<path fill="none" stroke="#63b8ff" d="M565.36,-403.19C540.45,-350.93 488.97,-244.64 476,-231 461.94,-216.21 443.06,-204.15 425.77,-195.1"/>
<polygon fill="#63b8ff" stroke="#63b8ff" points="562.23,-404.76 569.68,-412.28 568.55,-401.75 562.23,-404.76"/>
</a>
</g>
</g>
<!-- Node14&#45;&gt;Node10 -->
<g id="edge20_Node000014_Node000010" class="edge">
<title>Node14&#45;&gt;Node10</title>
<g id="a_edge20_Node000014_Node000010"><a xlink:title=" ">
<path fill="none" stroke="#63b8ff" d="M257.37,-489.68C245.24,-481.56 234.34,-471.46 227,-459 215.27,-439.09 223.4,-429.83 227,-407 239.82,-325.78 232.3,-294.94 284,-231 296.35,-215.73 314.09,-203.82 330.98,-195.01"/>
<polygon fill="#63b8ff" stroke="#63b8ff" points="255.59,-492.69 265.94,-494.99 259.28,-486.74 255.59,-492.69"/>
</a>
</g>
</g>
<!-- Node15 -->
<g id="Node000015" class="node">
<title>Node15</title>
<g id="a_Node000015"><a xlink:href="BranchTerrainCell_8h.html" target="_top" xlink:title="Branch node implementation of a spatial tree terrain cell.">
<polygon fill="white" stroke="#666666" points="448,-371 274,-371 274,-319 448,-319 448,-371"/>
<text text-anchor="start" x="282" y="-359" font-family="Helvetica,sans-Serif" font-size="10.00">/home/runner/work/Weaver</text>
<text text-anchor="start" x="282" y="-348" font-family="Helvetica,sans-Serif" font-size="10.00">/Weaver/include/App/Model</text>
<text text-anchor="start" x="282" y="-337" font-family="Helvetica,sans-Serif" font-size="10.00">/IBM/Landscape/Map/SpatialTree</text>
<text text-anchor="middle" x="361" y="-326" font-family="Helvetica,sans-Serif" font-size="10.00">/TerrainCells/BranchTerrainCell.h</text>
</a>
</g>
</g>
<!-- Node14&#45;&gt;Node15 -->
<g id="edge21_Node000014_Node000015" class="edge">
<title>Node14&#45;&gt;Node15</title>
<g id="a_edge21_Node000014_Node000015"><a xlink:title=" ">
<path fill="none" stroke="#63b8ff" d="M394.05,-488.66C404.12,-480.4 413.22,-470.51 419,-459 429.38,-438.35 427.57,-428.46 419,-407 413.58,-393.43 403.54,-381.15 393.32,-371.23"/>
<polygon fill="#63b8ff" stroke="#63b8ff" points="391.65,-486.09 385.82,-494.93 395.89,-491.65 391.65,-486.09"/>
</a>
</g>
</g>
<!-- Node17 -->
<g id="Node000017" class="node">
<title>Node17</title>
<g id="a_Node000017"><a xlink:href="LeafTerrainCell_8h.html" target="_top" xlink:title="Leaf node implementation of a spatial tree terrain cell.">
<polygon fill="white" stroke="#666666" points="410,-459 236,-459 236,-407 410,-407 410,-459"/>
<text text-anchor="start" x="244" y="-447" font-family="Helvetica,sans-Serif" font-size="10.00">/home/runner/work/Weaver</text>
<text text-anchor="start" x="244" y="-436" font-family="Helvetica,sans-Serif" font-size="10.00">/Weaver/include/App/Model</text>
<text text-anchor="start" x="244" y="-425" font-family="Helvetica,sans-Serif" font-size="10.00">/IBM/Landscape/Map/SpatialTree</text>
<text text-anchor="middle" x="323" y="-414" font-family="Helvetica,sans-Serif" font-size="10.00">/TerrainCells/LeafTerrainCell.h</text>
</a>
</g>
</g>
<!-- Node14&#45;&gt;Node17 -->
<g id="edge24_Node000014_Node000017" class="edge">
<title>Node14&#45;&gt;Node17</title>
<g id="a_edge24_Node000014_Node000017"><a xlink:title=" ">
<path fill="none" stroke="#63b8ff" d="M331.23,-484.56C329.84,-476.04 328.39,-467.1 327.1,-459.16"/>
<polygon fill="#63b8ff" stroke="#63b8ff" points="327.81,-485.35 332.88,-494.66 334.72,-484.23 327.81,-485.35"/>
</a>
</g>
</g>
<!-- Node15&#45;&gt;Node16 -->
<g id="edge22_Node000015_Node000016" class="edge">
<title>Node15&#45;&gt;Node16</title>
<g id="a_edge22_Node000015_Node000016"><a xlink:title=" ">
<path fill="none" stroke="#63b8ff" d="M368.77,-308.84C370.67,-300.23 372.67,-291.19 374.44,-283.16"/>
<polygon fill="#63b8ff" stroke="#63b8ff" points="365.34,-308.14 366.6,-318.66 372.17,-309.65 365.34,-308.14"/>
</a>
</g>
</g>
<!-- Node16&#45;&gt;Node10 -->
<g id="edge23_Node000016_Node000010" class="edge">
<title>Node16&#45;&gt;Node10</title>
<g id="a_edge23_Node000016_Node000010"><a xlink:title=" ">
<path fill="none" stroke="#63b8ff" d="M380,-220.87C380,-212.05 380,-202.9 380,-195.15"/>
<polygon fill="#63b8ff" stroke="#63b8ff" points="376.5,-220.97 380,-230.97 383.5,-220.97 376.5,-220.97"/>
</a>
</g>
</g>
<!-- Node17&#45;&gt;Node15 -->
<g id="edge25_Node000017_Node000015" class="edge">
<title>Node17&#45;&gt;Node15</title>
<g id="a_edge25_Node000017_Node000015"><a xlink:title=" ">
<path fill="none" stroke="#63b8ff" d="M338.29,-397.4C342.17,-388.63 346.26,-379.36 349.88,-371.16"/>
<polygon fill="#63b8ff" stroke="#63b8ff" points="335.04,-396.1 334.2,-406.66 341.44,-398.93 335.04,-396.1"/>
</a>
</g>
</g>
<!-- Node18&#45;&gt;Node10 -->
<g id="edge29_Node000018_Node000010" class="edge">
<title>Node18&#45;&gt;Node10</title>
<g id="a_edge29_Node000018_Node000010"><a xlink:title=" ">
<path fill="none" stroke="#63b8ff" d="M693.59,-661.07C704.99,-626.3 720,-571.17 720,-522 720,-522 720,-522 720,-432 720,-299.46 553.31,-226.77 453.36,-195.1"/>
<polygon fill="#63b8ff" stroke="#63b8ff" points="690.21,-660.15 690.34,-670.75 696.84,-662.38 690.21,-660.15"/>
</a>
</g>
</g>
<!-- Node18&#45;&gt;Node13 -->
<g id="edge28_Node000018_Node000013" class="edge">
<title>Node18&#45;&gt;Node13</title>
<g id="a_edge28_Node000018_Node000013"><a xlink:title=" ">
<path fill="none" stroke="#63b8ff" d="M667.54,-661.43C645.84,-605.69 603.82,-497.75 586.62,-453.57"/>
<polygon fill="#63b8ff" stroke="#63b8ff" points="664.33,-662.83 671.22,-670.88 670.85,-660.29 664.33,-662.83"/>
</a>
</g>
</g>
<!-- Node19&#45;&gt;Node3 -->
<g id="edge33_Node000019_Node000003" class="edge">
<title>Node19&#45;&gt;Node3</title>
<g id="a_edge33_Node000019_Node000003"><a xlink:title=" ">
<path fill="none" stroke="#63b8ff" d="M261.43,-836.7C260.67,-827.95 259.88,-818.96 259.19,-811.02"/>
<polygon fill="#63b8ff" stroke="#63b8ff" points="257.96,-837.12 262.31,-846.78 264.93,-836.51 257.96,-837.12"/>
</a>
</g>
</g>
<!-- Node20&#45;&gt;Node18 -->
<g id="edge35_Node000020_Node000018" class="edge">
<title>Node20&#45;&gt;Node18</title>
<g id="a_edge35_Node000020_Node000018"><a xlink:title=" ">
<path fill="none" stroke="#63b8ff" d="M680.2,-841.89C680.39,-806.82 680.69,-754.15 680.86,-723.21"/>
<polygon fill="#63b8ff" stroke="#63b8ff" points="676.7,-842.14 680.14,-852.16 683.7,-842.18 676.7,-842.14"/>
</a>
</g>
</g>
</g>
</svg>
