<?xml version="1.0" encoding="UTF-8" standalone="no"?>
<!DOCTYPE svg PUBLIC "-//W3C//DTD SVG 1.1//EN"
 "http://www.w3.org/Graphics/SVG/1.1/DTD/svg11.dtd">
<!-- Generated by graphviz version 2.43.0 (0)
 -->
<!-- Title: CellResourceInterfaceGrowth Pages: 1 -->
<!--zoomable 439 -->

<svg id="main" version="1.1" xmlns="http://www.w3.org/2000/svg" xmlns:xlink="http://www.w3.org/1999/xlink" xml:space="preserve" onload="init(evt)">
<style type="text/css"><![CDATA[
.node, .edge {opacity: 0.7;}
.node.selected, .edge.selected {opacity: 1;}
.edge:hover path { stroke: red; }
.edge:hover polygon { stroke: red; fill: red; }
]]></style>

<defs>
  <circle id="rim" cx="0" cy="0" r="7"/>
  <circle id="rim2" cx="0" cy="0" r="3.5"/>
  <g id="zoomPlus">
    <use xlink:href="#rim" fill="#404040"><set attributeName="fill" to="#808080" begin="zoomplus.mouseover" end="zoomplus.mouseout"/></use>
    <path d="M-4,0h8M0,-4v8" fill="none" stroke="white" stroke-width="1.5" pointer-events="none"/>
  </g>
  <g id="zoomMin">
    <use xlink:href="#rim" fill="#404040"><set attributeName="fill" to="#808080" begin="zoomminus.mouseover" end="zoomminus.mouseout"/></use>
    <path d="M-4,0h8" fill="none" stroke="white" stroke-width="1.5" pointer-events="none"/>
  </g>
  <g id="arrowUp" transform="translate(30 24)">
    <use xlink:href="#rim"/>
    <path pointer-events="none" fill="none" stroke="white" stroke-width="1.5" d="M0,-3.0v7 M-2.5,-0.5L0,-3.0L2.5,-0.5"/>
  </g>
  <g id="arrowRight" transform="rotate(90) translate(36 -43)">
    <use xlink:href="#rim"/>
    <path pointer-events="none" fill="none" stroke="white" stroke-width="1.5" d="M0,-3.0v7 M-2.5,-0.5L0,-3.0L2.5,-0.5"/>
  </g>
  <g id="arrowDown" transform="rotate(180) translate(-30 -48)">
    <use xlink:href="#rim"/>
    <path pointer-events="none" fill="none" stroke="white" stroke-width="1.5" d="M0,-3.0v7 M-2.5,-0.5L0,-3.0L2.5,-0.5"/>
  </g>
  <g id="arrowLeft" transform="rotate(270) translate(-36 17)">
    <use xlink:href="#rim"/>
    <path pointer-events="none" fill="none" stroke="white" stroke-width="1.5" d="M0,-3.0v7 M-2.5,-0.5L0,-3.0L2.5,-0.5"/>
  </g>
  <g id="resetDef">
    <use xlink:href="#rim2" fill="#404040"><set attributeName="fill" to="#808080" begin="reset.mouseover" end="reset.mouseout"/></use>
  </g>
</defs>
<script type="application/ecmascript">
var viewWidth = 1843;
var viewHeight = 439;
var sectionId = 'dynsection-1';
</script>
<script type="application/ecmascript" xlink:href="svg.min.js"/>
<svg id="graph" class="graph">
<g id="viewport">
<title>CellResourceInterfaceGrowth</title>
<!-- Node1 -->
<g id="Node000001" class="node">
<title>Node1</title>
<g id="a_Node000001"><a xlink:title="Manages growth and biomass for a resource cell.">
<polygon fill="#999999" stroke="#666666" points="1835,-304 1676,-304 1676,-285 1835,-285 1835,-304"/>
<text text-anchor="middle" x="1755.5" y="-292" font-family="Helvetica,sans-Serif" font-size="10.00">CellResourceInterfaceGrowth</text>
</a>
</g>
</g>
<!-- Node2 -->
<g id="Node000002" class="node">
<title>Node2</title>
<g id="a_Node000002"><a xlink:href="classEdibleGrowth.html" target="_top" xlink:title="Represents the growth characteristics and current biomasses of an edible object.">
<polygon fill="white" stroke="#666666" points="799.5,-353 717.5,-353 717.5,-334 799.5,-334 799.5,-353"/>
<text text-anchor="middle" x="758.5" y="-341" font-family="Helvetica,sans-Serif" font-size="10.00">EdibleGrowth</text>
</a>
</g>
</g>
<!-- Node2&#45;&gt;Node1 -->
<g id="edge1_Node000001_Node000002" class="edge">
<title>Node2&#45;&gt;Node1</title>
<g id="a_edge1_Node000001_Node000002"><a xlink:title=" ">
<path fill="none" stroke="#63b8ff" d="M809.89,-340.07C866.47,-336.53 961.02,-331.5 1042.5,-331.5 1042.5,-331.5 1042.5,-331.5 1545,-331.5 1608.16,-331.5 1680.42,-314.99 1721.44,-304.03"/>
<polygon fill="#63b8ff" stroke="#63b8ff" points="809.54,-336.59 799.78,-340.72 809.98,-343.57 809.54,-336.59"/>
</a>
</g>
</g>
<!-- Node3 -->
<g id="Node000003" class="node">
<title>Node3</title>
<g id="a_Node000003"><a xlink:href="classInstar.html" target="_top" xlink:title="Represents a developmental stage (instar) of an animal in the simulation.">
<polygon fill="white" stroke="#666666" points="93.5,-422 49.5,-422 49.5,-403 93.5,-403 93.5,-422"/>
<text text-anchor="middle" x="71.5" y="-410" font-family="Helvetica,sans-Serif" font-size="10.00">Instar</text>
</a>
</g>
</g>
<!-- Node3&#45;&gt;Node2 -->
<g id="edge2_Node000002_Node000003" class="edge">
<title>Node3&#45;&gt;Node2</title>
<g id="a_edge2_Node000002_Node000003"><a xlink:title=" ">
<path fill="none" stroke="#9a32cd" stroke-dasharray="5,2" d="M103.8,-414.8C192.86,-420.53 454.76,-431.64 664,-382.5 691.4,-376.07 721.07,-362.44 739.47,-353.13"/>
<polygon fill="#9a32cd" stroke="#9a32cd" points="103.78,-411.3 93.57,-414.12 103.31,-418.28 103.78,-411.3"/>
</a>
</g>
<text text-anchor="middle" x="387" y="-422.5" font-family="Helvetica,sans-Serif" font-size="10.00" fill="grey"> instar</text>
</g>
<!-- Node4 -->
<g id="Node000004" class="node">
<title>Node4</title>
<g id="a_Node000004"><a xlink:href="classSpeciesGrowth.html" target="_top" xlink:title="Represents the growth characteristics of a species across its instars.">
<polygon fill="white" stroke="#666666" points="431.5,-385 342.5,-385 342.5,-366 431.5,-366 431.5,-385"/>
<text text-anchor="middle" x="387" y="-373" font-family="Helvetica,sans-Serif" font-size="10.00">SpeciesGrowth</text>
</a>
</g>
</g>
<!-- Node3&#45;&gt;Node4 -->
<g id="edge4_Node000004_Node000003" class="edge">
<title>Node3&#45;&gt;Node4</title>
<g id="a_edge4_Node000004_Node000003"><a xlink:title=" ">
<path fill="none" stroke="#9a32cd" stroke-dasharray="5,2" d="M103.43,-406.24C120.38,-402.97 141.78,-399.13 161,-396.5 223.78,-387.91 296.89,-381.8 342.32,-378.46"/>
<polygon fill="#9a32cd" stroke="#9a32cd" points="102.66,-402.82 93.52,-408.17 104.01,-409.69 102.66,-402.82"/>
</a>
</g>
<text text-anchor="middle" x="217" y="-399.5" font-family="Helvetica,sans-Serif" font-size="10.00" fill="grey"> lastInstar</text>
</g>
<!-- Node4&#45;&gt;Node2 -->
<g id="edge3_Node000002_Node000004" class="edge">
<title>Node4&#45;&gt;Node2</title>
<g id="a_edge3_Node000002_Node000004"><a xlink:title=" ">
<path fill="none" stroke="#9a32cd" stroke-dasharray="5,2" d="M441.53,-372.08C497.18,-368.38 586.78,-361.98 664,-354.5 681.57,-352.8 700.96,-350.58 717.5,-348.57"/>
<polygon fill="#9a32cd" stroke="#9a32cd" points="441.3,-368.59 431.55,-372.74 441.76,-375.57 441.3,-368.59"/>
</a>
</g>
<text text-anchor="middle" x="582.5" y="-370.5" font-family="Helvetica,sans-Serif" font-size="10.00" fill="grey"> speciesGrowth</text>
</g>
<!-- Node5 -->
<g id="Node000005" class="node">
<title>Node5</title>
<g id="a_Node000005"><a xlink:href="classCustomIndexedVector.html" target="_top" xlink:title=" ">
<polygon fill="white" stroke="#666666" points="143,-376.5 0,-376.5 0,-346.5 143,-346.5 143,-376.5"/>
<text text-anchor="start" x="8" y="-364.5" font-family="Helvetica,sans-Serif" font-size="10.00">CustomIndexedVector</text>
<text text-anchor="middle" x="71.5" y="-353.5" font-family="Helvetica,sans-Serif" font-size="10.00">&lt; Instar, PreciseDouble &gt;</text>
</a>
</g>
</g>
<!-- Node5&#45;&gt;Node4 -->
<g id="edge5_Node000004_Node000005" class="edge">
<title>Node5&#45;&gt;Node4</title>
<g id="a_edge5_Node000004_Node000005"><a xlink:title=" ">
<path fill="none" stroke="#9a32cd" stroke-dasharray="5,2" d="M153.2,-359.89C189.8,-359.68 233.62,-360.14 273,-362.5 295.96,-363.87 321.43,-366.69 342.36,-369.35"/>
<polygon fill="#9a32cd" stroke="#9a32cd" points="153.05,-356.39 143.08,-359.97 153.11,-363.39 153.05,-356.39"/>
</a>
</g>
<text text-anchor="middle" x="217" y="-365.5" font-family="Helvetica,sans-Serif" font-size="10.00" fill="grey"> conversionToWetMass</text>
</g>
<!-- Node6 -->
<g id="Node000006" class="node">
<title>Node6</title>
<g id="a_Node000006"><a xlink:href="classDryMass.html" target="_top" xlink:title="Represents dry mass in the ecosystem simulation.">
<polygon fill="white" stroke="#666666" points="416.5,-341 357.5,-341 357.5,-322 416.5,-322 416.5,-341"/>
<text text-anchor="middle" x="387" y="-329" font-family="Helvetica,sans-Serif" font-size="10.00">DryMass</text>
</a>
</g>
</g>
<!-- Node6&#45;&gt;Node2 -->
<g id="edge6_Node000002_Node000006" class="edge">
<title>Node6&#45;&gt;Node2</title>
<g id="a_edge6_Node000002_Node000006"><a xlink:title=" ">
<path fill="none" stroke="#9a32cd" stroke-dasharray="5,2" d="M426.92,-332.76C497.49,-335.06 645.86,-339.87 717.34,-342.2"/>
<polygon fill="#9a32cd" stroke="#9a32cd" points="426.79,-329.26 416.69,-332.43 426.57,-336.25 426.79,-329.26"/>
</a>
</g>
<text text-anchor="middle" x="582.5" y="-342.5" font-family="Helvetica,sans-Serif" font-size="10.00" fill="grey"> currentTotalDryMass</text>
</g>
<!-- Node7 -->
<g id="Node000007" class="node">
<title>Node7</title>
<g id="a_Node000007"><a xlink:href="classPreciseDouble.html" target="_top" xlink:title="Class for precise double&#45;precision floating&#45;point arithmetic.">
<polygon fill="white" stroke="#666666" points="114.5,-292 28.5,-292 28.5,-273 114.5,-273 114.5,-292"/>
<text text-anchor="middle" x="71.5" y="-280" font-family="Helvetica,sans-Serif" font-size="10.00">PreciseDouble</text>
</a>
</g>
</g>
<!-- Node7&#45;&gt;Node6 -->
<g id="edge7_Node000006_Node000007" class="edge">
<title>Node7&#45;&gt;Node6</title>
<g id="a_edge7_Node000006_Node000007"><a xlink:title=" ">
<path fill="none" stroke="#9a32cd" stroke-dasharray="5,2" d="M124.98,-291.55C136.82,-293.55 149.34,-295.63 161,-297.5 231.41,-308.79 314.39,-321.06 357.21,-327.32"/>
<polygon fill="#9a32cd" stroke="#9a32cd" points="125.23,-288.05 114.79,-289.83 124.06,-294.95 125.23,-288.05"/>
</a>
</g>
<text text-anchor="middle" x="217" y="-317.5" font-family="Helvetica,sans-Serif" font-size="10.00" fill="grey"> value</text>
</g>
<!-- Node8 -->
<g id="Node000008" class="node">
<title>Node8</title>
<g id="a_Node000008"><a xlink:href="classWetMass.html" target="_top" xlink:title="Represents wet mass in the ecosystem simulation.">
<polygon fill="white" stroke="#666666" points="417.5,-292 356.5,-292 356.5,-273 417.5,-273 417.5,-292"/>
<text text-anchor="middle" x="387" y="-280" font-family="Helvetica,sans-Serif" font-size="10.00">WetMass</text>
</a>
</g>
</g>
<!-- Node7&#45;&gt;Node8 -->
<g id="edge9_Node000008_Node000007" class="edge">
<title>Node7&#45;&gt;Node8</title>
<g id="a_edge9_Node000008_Node000007"><a xlink:title=" ">
<path fill="none" stroke="#9a32cd" stroke-dasharray="5,2" d="M125,-282.5C191.24,-282.5 302.9,-282.5 356.09,-282.5"/>
<polygon fill="#9a32cd" stroke="#9a32cd" points="124.78,-279 114.78,-282.5 124.78,-286 124.78,-279"/>
</a>
</g>
<text text-anchor="middle" x="217" y="-285.5" font-family="Helvetica,sans-Serif" font-size="10.00" fill="grey"> value</text>
</g>
<!-- Node14 -->
<g id="Node000014" class="node">
<title>Node14</title>
<g id="a_Node000014"><a xlink:href="classTerrainCell.html" target="_top" xlink:title="Represents a single cell in the landscape.">
<polygon fill="white" stroke="#666666" points="1305,-197 1237,-197 1237,-178 1305,-178 1305,-197"/>
<text text-anchor="middle" x="1271" y="-185" font-family="Helvetica,sans-Serif" font-size="10.00">TerrainCell</text>
</a>
</g>
</g>
<!-- Node7&#45;&gt;Node14 -->
<g id="edge27_Node000014_Node000007" class="edge">
<title>Node7&#45;&gt;Node14</title>
<g id="a_edge27_Node000014_Node000007"><a xlink:title=" ">
<path fill="none" stroke="#9a32cd" stroke-dasharray="5,2" d="M124.55,-271.75C186.54,-259.9 293.35,-242.5 386,-242.5 386,-242.5 386,-242.5 1044.5,-242.5 1123.27,-242.5 1143.93,-235.37 1219,-211.5 1230.56,-207.82 1242.89,-202.08 1252.53,-197.13"/>
<polygon fill="#9a32cd" stroke="#9a32cd" points="123.77,-268.33 114.62,-273.67 125.11,-275.21 123.77,-268.33"/>
</a>
</g>
<text text-anchor="middle" x="758.5" y="-256.5" font-family="Helvetica,sans-Serif" font-size="10.00" fill="grey"> hyperVolume</text>
<text text-anchor="middle" x="758.5" y="-245.5" font-family="Helvetica,sans-Serif" font-size="10.00" fill="grey">size</text>
</g>
<!-- Node8&#45;&gt;Node2 -->
<g id="edge8_Node000002_Node000008" class="edge">
<title>Node8&#45;&gt;Node2</title>
<g id="a_edge8_Node000002_Node000008"><a xlink:title=" ">
<path fill="none" stroke="#9a32cd" stroke-dasharray="5,2" d="M427.75,-286.34C481.59,-291.88 580.58,-303.26 664,-319.5 684.23,-323.44 706.61,-329.13 724.4,-333.99"/>
<polygon fill="#9a32cd" stroke="#9a32cd" points="427.9,-282.84 417.6,-285.31 427.19,-289.8 427.9,-282.84"/>
</a>
</g>
<text text-anchor="middle" x="582.5" y="-322.5" font-family="Helvetica,sans-Serif" font-size="10.00" fill="grey"> currentTotalWetMass</text>
</g>
<!-- Node16 -->
<g id="Node000016" class="node">
<title>Node16</title>
<g id="a_Node000016"><a xlink:href="classCellMoistureInterface.html" target="_top" xlink:title="Base interface representing the hydrological and thermal properties of a terrain cell.">
<polygon fill="white" stroke="#666666" points="819.5,-204 697.5,-204 697.5,-185 819.5,-185 819.5,-204"/>
<text text-anchor="middle" x="758.5" y="-192" font-family="Helvetica,sans-Serif" font-size="10.00">CellMoistureInterface</text>
</a>
</g>
</g>
<!-- Node8&#45;&gt;Node16 -->
<g id="edge20_Node000016_Node000008" class="edge">
<title>Node8&#45;&gt;Node16</title>
<g id="a_edge20_Node000016_Node000008"><a xlink:title=" ">
<path fill="none" stroke="#9a32cd" stroke-dasharray="5,2" d="M427.49,-273.09C498.38,-256.21 646.42,-220.96 717.6,-204"/>
<polygon fill="#9a32cd" stroke="#9a32cd" points="426.53,-269.73 417.61,-275.45 428.15,-276.54 426.53,-269.73"/>
</a>
</g>
<text text-anchor="middle" x="582.5" y="-256.5" font-family="Helvetica,sans-Serif" font-size="10.00" fill="grey"> totalMaximumResourceCapacity</text>
</g>
<!-- Node9 -->
<g id="Node000009" class="node">
<title>Node9</title>
<g id="a_Node000009"><a xlink:href="classCellResourceInterface.html" target="_top" xlink:title="Interface for a resource in a terrain cell.">
<polygon fill="white" stroke="#666666" points="1606,-248 1482,-248 1482,-229 1606,-229 1606,-248"/>
<text text-anchor="middle" x="1544" y="-236" font-family="Helvetica,sans-Serif" font-size="10.00">CellResourceInterface</text>
</a>
</g>
</g>
<!-- Node9&#45;&gt;Node1 -->
<g id="edge10_Node000001_Node000009" class="edge">
<title>Node9&#45;&gt;Node1</title>
<g id="a_edge10_Node000001_Node000009"><a xlink:title=" ">
<path fill="none" stroke="#9a32cd" stroke-dasharray="5,2" d="M1590.94,-250.78C1629.46,-261.08 1683.68,-275.57 1718.96,-285"/>
<polygon fill="#9a32cd" stroke="#9a32cd" points="1591.58,-247.33 1581.01,-248.13 1589.77,-254.09 1591.58,-247.33"/>
</a>
</g>
<text text-anchor="middle" x="1641" y="-270.5" font-family="Helvetica,sans-Serif" font-size="10.00" fill="grey"> owner</text>
</g>
<!-- Node10 -->
<g id="Node000010" class="node">
<title>Node10</title>
<g id="a_Node000010"><a xlink:href="classEdible.html" target="_top" xlink:title="Represents a generic edible entity within a terrain cell.">
<polygon fill="white" stroke="#666666" points="1445,-248 1398,-248 1398,-229 1445,-229 1445,-248"/>
<text text-anchor="middle" x="1421.5" y="-236" font-family="Helvetica,sans-Serif" font-size="10.00">Edible</text>
</a>
</g>
</g>
<!-- Node10&#45;&gt;Node9 -->
<g id="edge11_Node000009_Node000010" class="edge">
<title>Node10&#45;&gt;Node9</title>
<g id="a_edge11_Node000009_Node000010"><a xlink:title=" ">
<path fill="none" stroke="#63b8ff" d="M1455.4,-238.5C1463.61,-238.5 1472.69,-238.5 1481.79,-238.5"/>
<polygon fill="#63b8ff" stroke="#63b8ff" points="1455.17,-235 1445.17,-238.5 1455.17,-242 1455.17,-235"/>
</a>
</g>
</g>
<!-- Node11 -->
<g id="Node000011" class="node">
<title>Node11</title>
<g id="a_Node000011"><a xlink:href="classEdibleID.html" target="_top" xlink:title="Encapsulates a unique identifier for an edible object or resource.">
<polygon fill="white" stroke="#666666" points="1299.5,-285 1242.5,-285 1242.5,-266 1299.5,-266 1299.5,-285"/>
<text text-anchor="middle" x="1271" y="-273" font-family="Helvetica,sans-Serif" font-size="10.00">EdibleID</text>
</a>
</g>
</g>
<!-- Node11&#45;&gt;Node10 -->
<g id="edge12_Node000010_Node000011" class="edge">
<title>Node11&#45;&gt;Node10</title>
<g id="a_edge12_Node000010_Node000011"><a xlink:title=" ">
<path fill="none" stroke="#9a32cd" stroke-dasharray="5,2" d="M1309.88,-269.26C1330.75,-265.45 1357.02,-260.05 1380,-253.5 1385.91,-251.81 1392.19,-249.67 1398,-247.53"/>
<polygon fill="#9a32cd" stroke="#9a32cd" points="1309.04,-265.85 1299.8,-271.05 1310.26,-272.74 1309.04,-265.85"/>
</a>
</g>
<text text-anchor="middle" x="1351.5" y="-269.5" font-family="Helvetica,sans-Serif" font-size="10.00" fill="grey"> id</text>
</g>
<!-- Node12 -->
<g id="Node000012" class="node">
<title>Node12</title>
<g id="a_Node000012"><a xlink:href="classSpecies.html" target="_top" xlink:title="Represents a generic species in the ecosystem.">
<polygon fill="white" stroke="#666666" points="1298,-248 1244,-248 1244,-229 1298,-229 1298,-248"/>
<text text-anchor="middle" x="1271" y="-236" font-family="Helvetica,sans-Serif" font-size="10.00">Species</text>
</a>
</g>
</g>
<!-- Node12&#45;&gt;Node10 -->
<g id="edge13_Node000010_Node000012" class="edge">
<title>Node12&#45;&gt;Node10</title>
<g id="a_edge13_Node000010_Node000012"><a xlink:title=" ">
<path fill="none" stroke="#9a32cd" stroke-dasharray="5,2" d="M1308.41,-238.5C1336.4,-238.5 1374.19,-238.5 1397.95,-238.5"/>
<polygon fill="#9a32cd" stroke="#9a32cd" points="1308.21,-235 1298.21,-238.5 1308.21,-242 1308.21,-235"/>
</a>
</g>
<text text-anchor="middle" x="1351.5" y="-241.5" font-family="Helvetica,sans-Serif" font-size="10.00" fill="grey"> mySpecies</text>
</g>
<!-- Node13 -->
<g id="Node000013" class="node">
<title>Node13</title>
<g id="a_Node000013"><a xlink:href="classSpecies_1_1ID.html" target="_top" xlink:title="Unique identifier for a Species.">
<polygon fill="white" stroke="#666666" points="1079,-290 1008,-290 1008,-271 1079,-271 1079,-290"/>
<text text-anchor="middle" x="1043.5" y="-278" font-family="Helvetica,sans-Serif" font-size="10.00">Species::ID</text>
</a>
</g>
</g>
<!-- Node13&#45;&gt;Node12 -->
<g id="edge14_Node000012_Node000013" class="edge">
<title>Node13&#45;&gt;Node12</title>
<g id="a_edge14_Node000012_Node000013"><a xlink:title=" ">
<path fill="none" stroke="#9a32cd" stroke-dasharray="5,2" d="M1089.38,-276.85C1124.9,-273.36 1175.59,-267.03 1219,-256.5 1228.03,-254.31 1237.71,-251.12 1246.18,-248.03"/>
<polygon fill="#9a32cd" stroke="#9a32cd" points="1088.95,-273.38 1079.32,-277.8 1089.61,-280.34 1088.95,-273.38"/>
</a>
</g>
<text text-anchor="middle" x="1179" y="-272.5" font-family="Helvetica,sans-Serif" font-size="10.00" fill="grey"> id</text>
</g>
<!-- Node14&#45;&gt;Node10 -->
<g id="edge15_Node000010_Node000014" class="edge">
<title>Node14&#45;&gt;Node10</title>
<g id="a_edge15_Node000010_Node000014"><a xlink:title=" ">
<path fill="none" stroke="#9a32cd" stroke-dasharray="5,2" d="M1311.08,-200.18C1331.65,-206.94 1357.25,-215.5 1380,-223.5 1385.8,-225.54 1392.04,-227.81 1397.84,-229.96"/>
<polygon fill="#9a32cd" stroke="#9a32cd" points="1312.02,-196.81 1301.43,-197.02 1309.84,-203.46 1312.02,-196.81"/>
</a>
</g>
<text text-anchor="middle" x="1351.5" y="-226.5" font-family="Helvetica,sans-Serif" font-size="10.00" fill="grey"> terrainCell</text>
</g>
<!-- Node15 -->
<g id="Node000015" class="node">
<title>Node15</title>
<g id="a_Node000015"><a xlink:href="classPatchApplicator.html" target="_top" xlink:title="Applies patches to a TerrainCell including moisture, resources, obstacles, and habitat domains.">
<polygon fill="white" stroke="#666666" points="1089.5,-204 997.5,-204 997.5,-185 1089.5,-185 1089.5,-204"/>
<text text-anchor="middle" x="1043.5" y="-192" font-family="Helvetica,sans-Serif" font-size="10.00">PatchApplicator</text>
</a>
</g>
</g>
<!-- Node14&#45;&gt;Node15 -->
<g id="edge17_Node000015_Node000014" class="edge">
<title>Node14&#45;&gt;Node15</title>
<g id="a_edge17_Node000015_Node000014"><a xlink:title=" ">
<path fill="none" stroke="#9a32cd" stroke-dasharray="5,2" d="M1226.75,-182.06C1224.13,-181.84 1221.53,-181.65 1219,-181.5 1183.51,-179.42 1174.47,-179.07 1139,-181.5 1122.81,-182.61 1105.16,-184.77 1089.55,-187.02"/>
<polygon fill="#9a32cd" stroke="#9a32cd" points="1226.57,-185.56 1236.85,-183.03 1227.24,-178.59 1226.57,-185.56"/>
</a>
</g>
<text text-anchor="middle" x="1179" y="-184.5" font-family="Helvetica,sans-Serif" font-size="10.00" fill="grey"> owner</text>
</g>
<!-- Node15&#45;&gt;Node14 -->
<g id="edge16_Node000014_Node000015" class="edge">
<title>Node15&#45;&gt;Node14</title>
<g id="a_edge16_Node000014_Node000015"><a xlink:title=" ">
<path fill="none" stroke="#9a32cd" stroke-dasharray="5,2" d="M1100.04,-196.43C1134.36,-197.14 1179.28,-197.21 1219,-194.5 1224.8,-194.1 1230.94,-193.46 1236.87,-192.71"/>
<polygon fill="#9a32cd" stroke="#9a32cd" points="1099.83,-192.92 1089.75,-196.19 1099.67,-199.92 1099.83,-192.92"/>
</a>
</g>
<text text-anchor="middle" x="1179" y="-199.5" font-family="Helvetica,sans-Serif" font-size="10.00" fill="grey"> patchApplicator</text>
</g>
<!-- Node16&#45;&gt;Node15 -->
<g id="edge18_Node000015_Node000016" class="edge">
<title>Node16&#45;&gt;Node15</title>
<g id="a_edge18_Node000015_Node000016"><a xlink:title=" ">
<path fill="none" stroke="#9a32cd" stroke-dasharray="5,2" d="M829.76,-194.5C882.19,-194.5 952.29,-194.5 997.42,-194.5"/>
<polygon fill="#9a32cd" stroke="#9a32cd" points="829.52,-191 819.52,-194.5 829.52,-198 829.52,-191"/>
</a>
</g>
<text text-anchor="middle" x="900.5" y="-197.5" font-family="Helvetica,sans-Serif" font-size="10.00" fill="grey"> cellMoisture</text>
</g>
<!-- Node17 -->
<g id="Node000017" class="node">
<title>Node17</title>
<g id="a_Node000017"><a xlink:href="classCellElement.html" target="_top" xlink:title="Base class for any modifiable element contained within a terrain cell.">
<polygon fill="white" stroke="#666666" points="425,-103 349,-103 349,-84 425,-84 425,-103"/>
<text text-anchor="middle" x="387" y="-91" font-family="Helvetica,sans-Serif" font-size="10.00">CellElement</text>
</a>
</g>
</g>
<!-- Node17&#45;&gt;Node9 -->
<g id="edge29_Node000009_Node000017" class="edge">
<title>Node17&#45;&gt;Node9</title>
<g id="a_edge29_Node000009_Node000017"><a xlink:title=" ">
<path fill="none" stroke="#63b8ff" d="M435.49,-88.86C505.77,-82.41 641.67,-71.5 757.5,-71.5 757.5,-71.5 757.5,-71.5 1422.5,-71.5 1500.44,-71.5 1533.02,-192.6 1540.98,-228.55"/>
<polygon fill="#63b8ff" stroke="#63b8ff" points="434.83,-85.41 425.19,-89.82 435.47,-92.38 434.83,-85.41"/>
</a>
</g>
</g>
<!-- Node17&#45;&gt;Node16 -->
<g id="edge19_Node000016_Node000017" class="edge">
<title>Node17&#45;&gt;Node16</title>
<g id="a_edge19_Node000016_Node000017"><a xlink:title=" ">
<path fill="none" stroke="#63b8ff" d="M427.44,-106.23C449.08,-113.09 476.44,-121.54 501,-128.5 577.31,-150.12 667.25,-172.57 717.79,-184.92"/>
<polygon fill="#63b8ff" stroke="#63b8ff" points="428.21,-102.8 417.62,-103.11 426.09,-109.47 428.21,-102.8"/>
</a>
</g>
</g>
<!-- Node18 -->
<g id="Node000018" class="node">
<title>Node18</title>
<g id="a_Node000018"><a xlink:href="classCellObstacleInterface.html" target="_top" xlink:title="Interface for managing obstacles in a terrain cell.">
<polygon fill="white" stroke="#666666" points="819.5,-143 697.5,-143 697.5,-124 819.5,-124 819.5,-143"/>
<text text-anchor="middle" x="758.5" y="-131" font-family="Helvetica,sans-Serif" font-size="10.00">CellObstacleInterface</text>
</a>
</g>
</g>
<!-- Node17&#45;&gt;Node18 -->
<g id="edge22_Node000018_Node000017" class="edge">
<title>Node17&#45;&gt;Node18</title>
<g id="a_edge22_Node000018_Node000017"><a xlink:title=" ">
<path fill="none" stroke="#63b8ff" d="M435.36,-98.63C502.18,-105.86 624.14,-119.06 697.31,-126.98"/>
<polygon fill="#63b8ff" stroke="#63b8ff" points="435.44,-95.12 425.12,-97.52 434.69,-102.07 435.44,-95.12"/>
</a>
</g>
</g>
<!-- Node19 -->
<g id="Node000019" class="node">
<title>Node19</title>
<g id="a_Node000019"><a xlink:href="classCellHabitatDomainInterface.html" target="_top" xlink:title="Represents the habitat&#45;domain information associated with a terrain cell.">
<polygon fill="white" stroke="#666666" points="835,-43 682,-43 682,-24 835,-24 835,-43"/>
<text text-anchor="middle" x="758.5" y="-31" font-family="Helvetica,sans-Serif" font-size="10.00">CellHabitatDomainInterface</text>
</a>
</g>
</g>
<!-- Node17&#45;&gt;Node19 -->
<g id="edge24_Node000019_Node000017" class="edge">
<title>Node17&#45;&gt;Node19</title>
<g id="a_edge24_Node000019_Node000017"><a xlink:title=" ">
<path fill="none" stroke="#63b8ff" d="M425.07,-80.85C446.93,-73.85 475.26,-65.57 501,-60.5 561.19,-48.64 630.42,-41.74 681.77,-37.89"/>
<polygon fill="#63b8ff" stroke="#63b8ff" points="423.95,-77.53 415.52,-83.96 426.11,-84.19 423.95,-77.53"/>
</a>
</g>
</g>
<!-- Node18&#45;&gt;Node15 -->
<g id="edge21_Node000015_Node000018" class="edge">
<title>Node18&#45;&gt;Node15</title>
<g id="a_edge21_Node000015_Node000018"><a xlink:title=" ">
<path fill="none" stroke="#9a32cd" stroke-dasharray="5,2" d="M813.72,-145.19C867.29,-156.73 948.26,-174.19 998.13,-184.94"/>
<polygon fill="#9a32cd" stroke="#9a32cd" points="814.23,-141.72 803.72,-143.03 812.76,-148.56 814.23,-141.72"/>
</a>
</g>
<text text-anchor="middle" x="900.5" y="-175.5" font-family="Helvetica,sans-Serif" font-size="10.00" fill="grey"> cellObstacle</text>
</g>
<!-- Node19&#45;&gt;Node15 -->
<g id="edge23_Node000015_Node000019" class="edge">
<title>Node19&#45;&gt;Node15</title>
<g id="a_edge23_Node000015_Node000019"><a xlink:title=" ">
<path fill="none" stroke="#9a32cd" stroke-dasharray="5,2" d="M797.03,-46.72C838.55,-62.97 905.21,-94.09 948,-139.5 960.54,-152.81 951.72,-165.08 966,-176.5 974.95,-183.66 986.26,-188.06 997.43,-190.74"/>
<polygon fill="#9a32cd" stroke="#9a32cd" points="798.15,-43.4 787.56,-43.1 795.65,-49.94 798.15,-43.4"/>
</a>
</g>
<text text-anchor="middle" x="900.5" y="-142.5" font-family="Helvetica,sans-Serif" font-size="10.00" fill="grey"> cellHabitatDomain</text>
</g>
<!-- Node20 -->
<g id="Node000020" class="node">
<title>Node20</title>
<g id="a_Node000020"><a xlink:href="classCustomIndexedVector.html" target="_top" xlink:title=" ">
<polygon fill="white" stroke="#666666" points="483,-41 291,-41 291,0 483,0 483,-41"/>
<text text-anchor="start" x="299" y="-29" font-family="Helvetica,sans-Serif" font-size="10.00">CustomIndexedVector</text>
<text text-anchor="start" x="299" y="-18" font-family="Helvetica,sans-Serif" font-size="10.00">&lt; AnimalSpeciesID, CustomIndexed</text>
<text text-anchor="middle" x="387" y="-7" font-family="Helvetica,sans-Serif" font-size="10.00">Vector&lt; Instar, bool &gt; &gt;</text>
</a>
</g>
</g>
<!-- Node20&#45;&gt;Node19 -->
<g id="edge25_Node000019_Node000020" class="edge">
<title>Node20&#45;&gt;Node19</title>
<g id="a_edge25_Node000019_Node000020"><a xlink:title=" ">
<path fill="none" stroke="#9a32cd" stroke-dasharray="5,2" d="M493.4,-17.82C544.9,-17.29 607.74,-17.8 664,-21.5 672.9,-22.08 682.25,-22.96 691.45,-23.99"/>
<polygon fill="#9a32cd" stroke="#9a32cd" points="493.22,-14.32 483.26,-17.94 493.3,-21.32 493.22,-14.32"/>
</a>
</g>
<text text-anchor="middle" x="582.5" y="-24.5" font-family="Helvetica,sans-Serif" font-size="10.00" fill="grey"> habitatDomainStatus</text>
</g>
<!-- Node21 -->
<g id="Node000021" class="node">
<title>Node21</title>
<g id="a_Node000021"><a xlink:href="classPointMap.html" target="_top" xlink:title="Represents a point in a discrete map coordinate system.">
<polygon fill="white" stroke="#666666" points="1074.5,-167 1012.5,-167 1012.5,-148 1074.5,-148 1074.5,-167"/>
<text text-anchor="middle" x="1043.5" y="-155" font-family="Helvetica,sans-Serif" font-size="10.00">PointMap</text>
</a>
</g>
</g>
<!-- Node21&#45;&gt;Node14 -->
<g id="edge26_Node000014_Node000021" class="edge">
<title>Node21&#45;&gt;Node14</title>
<g id="a_edge26_Node000014_Node000021"><a xlink:title=" ">
<path fill="none" stroke="#9a32cd" stroke-dasharray="5,2" d="M1084.65,-154.81C1120.41,-153.42 1173.88,-153.85 1219,-164.5 1230.91,-167.31 1243.45,-172.93 1253.12,-177.91"/>
<polygon fill="#9a32cd" stroke="#9a32cd" points="1084.44,-151.31 1074.61,-155.26 1084.76,-158.31 1084.44,-151.31"/>
</a>
</g>
<text text-anchor="middle" x="1179" y="-167.5" font-family="Helvetica,sans-Serif" font-size="10.00" fill="grey"> position</text>
</g>
<!-- Node22 -->
<g id="Node000022" class="node">
<title>Node22</title>
<g id="a_Node000022"><a xlink:href="classCustomIndexedVector.html" target="_top" xlink:title="A vector container indexed by a custom type with bounds checking.">
<polygon fill="white" stroke="#666666" points="1121,-129.5 966,-129.5 966,-99.5 1121,-99.5 1121,-129.5"/>
<text text-anchor="start" x="974" y="-117.5" font-family="Helvetica,sans-Serif" font-size="10.00">CustomIndexedVector</text>
<text text-anchor="middle" x="1043.5" y="-106.5" font-family="Helvetica,sans-Serif" font-size="10.00">&lt; IndexType, ContentType &gt;</text>
</a>
</g>
</g>
<!-- Node22&#45;&gt;Node14 -->
<g id="edge28_Node000014_Node000022" class="edge">
<title>Node22&#45;&gt;Node14</title>
<g id="a_edge28_Node000014_Node000022"><a xlink:title=" ">
<path fill="none" stroke="#9a32cd" stroke-dasharray="5,2" d="M1131.42,-116.5C1160.39,-119.84 1192.11,-126.56 1219,-139.5 1237.62,-148.47 1254,-166.69 1262.91,-177.92"/>
<polygon fill="#9a32cd" stroke="#9a32cd" points="1131.61,-113 1121.3,-115.45 1130.89,-119.96 1131.61,-113"/>
</a>
</g>
<text text-anchor="middle" x="1179" y="-142.5" font-family="Helvetica,sans-Serif" font-size="10.00" fill="grey"> animals</text>
</g>
</g>
</svg>

<g id="navigator" transform="translate(0 0)" fill="#404254">
  <rect fill="#f2f5e9" fill-opacity="0.5" stroke="#606060" stroke-width=".5" x="0" y="0" width="60" height="60"/>
  <use id="zoomplus" xlink:href="#zoomPlus" x="17" y="9" onmousedown="handleZoom(evt,'in')"/>
  <use id="zoomminus" xlink:href="#zoomMin" x="42" y="9" onmousedown="handleZoom(evt,'out')"/>
  <use id="reset" xlink:href="#resetDef" x="30" y="36" onmousedown="handleReset()"/>
   <use id="arrowup" xlink:href="#arrowUp" x="0" y="0" onmousedown="handlePan(0,-1)"/>
  <use id="arrowright" xlink:href="#arrowRight" x="0" y="0" onmousedown="handlePan(1,0)"/>
  <use id="arrowdown" xlink:href="#arrowDown" x="0" y="0" onmousedown="handlePan(0,1)"/>
  <use id="arrowleft" xlink:href="#arrowLeft" x="0" y="0" onmousedown="handlePan(-1,0)"/>
</g>
<svg viewBox="0 0 15 15" width="100%" height="30px" preserveAspectRatio="xMaxYMin meet">
 <g id="arrow_out" transform="scale(0.3 0.3)">
  <a xlink:href="classCellResourceInterfaceGrowth__coll__graph_org.svg" target="_base">
   <rect id="button" ry="5" rx="5" y="6" x="6" height="38" width="38"
        fill="#f2f5e9" fill-opacity="0.5" stroke="#606060" stroke-width="1.0"/>
   <path id="arrow"
     d="M 11.500037,31.436501 C 11.940474,20.09759 22.043105,11.32322 32.158766,21.979434 L 37.068811,17.246167 C 37.068811,17.246167 37.088388,32 37.088388,32 L 22.160133,31.978069 C 22.160133,31.978069 26.997745,27.140456 26.997745,27.140456 C 18.528582,18.264221 13.291696,25.230495 11.500037,31.436501 z"
     style="fill:#404040;"/>
  </a>
 </g>
</svg>

<style type='text/css'>
<![CDATA[
[data-mouse-over-selected='false'] { opacity: 0.7; }
[data-mouse-over-selected='true']  { opacity: 1.0; }
]]>
</style>
<script type="application/ecmascript"><![CDATA[
document.addEventListener('DOMContentLoaded', (event) => {
  highlightEdges();
  highlightAdjacentNodes();
});
]]></script>
</svg>
