<?xml version="1.0" encoding="UTF-8" standalone="no"?>
<!DOCTYPE svg PUBLIC "-//W3C//DTD SVG 1.1//EN"
 "http://www.w3.org/Graphics/SVG/1.1/DTD/svg11.dtd">
<!-- Generated by graphviz version 2.43.0 (0)
 -->
<!-- Title: /home/runner/work/Weaver/Weaver/include/App/Model/IBM/Landscape/Map/Patches Pages: 1 -->
<!--zoomable 196 -->

<svg id="main" version="1.1" xmlns="http://www.w3.org/2000/svg" xmlns:xlink="http://www.w3.org/1999/xlink" xml:space="preserve" onload="init(evt)">
<style type="text/css"><![CDATA[
.node, .edge {opacity: 0.7;}
.node.selected, .edge.selected {opacity: 1;}
.edge:hover path { stroke: red; }
.edge:hover polygon { stroke: red; fill: red; }
]]></style>

<defs>
  <circle id="rim" cx="0" cy="0" r="7"/>
  <circle id="rim2" cx="0" cy="0" r="3.5"/>
  <g id="zoomPlus">
    <use xlink:href="#rim" fill="#404040"><set attributeName="fill" to="#808080" begin="zoomplus.mouseover" end="zoomplus.mouseout"/></use>
    <path d="M-4,0h8M0,-4v8" fill="none" stroke="white" stroke-width="1.5" pointer-events="none"/>
  </g>
  <g id="zoomMin">
    <use xlink:href="#rim" fill="#404040"><set attributeName="fill" to="#808080" begin="zoomminus.mouseover" end="zoomminus.mouseout"/></use>
    <path d="M-4,0h8" fill="none" stroke="white" stroke-width="1.5" pointer-events="none"/>
  </g>
  <g id="arrowUp" transform="translate(30 24)">
    <use xlink:href="#rim"/>
    <path pointer-events="none" fill="none" stroke="white" stroke-width="1.5" d="M0,-3.0v7 M-2.5,-0.5L0,-3.0L2.5,-0.5"/>
  </g>
  <g id="arrowRight" transform="rotate(90) translate(36 -43)">
    <use xlink:href="#rim"/>
    <path pointer-events="none" fill="none" stroke="white" stroke-width="1.5" d="M0,-3.0v7 M-2.5,-0.5L0,-3.0L2.5,-0.5"/>
  </g>
  <g id="arrowDown" transform="rotate(180) translate(-30 -48)">
    <use xlink:href="#rim"/>
    <path pointer-events="none" fill="none" stroke="white" stroke-width="1.5" d="M0,-3.0v7 M-2.5,-0.5L0,-3.0L2.5,-0.5"/>
  </g>
  <g id="arrowLeft" transform="rotate(270) translate(-36 17)">
    <use xlink:href="#rim"/>
    <path pointer-events="none" fill="none" stroke="white" stroke-width="1.5" d="M0,-3.0v7 M-2.5,-0.5L0,-3.0L2.5,-0.5"/>
  </g>
  <g id="resetDef">
    <use xlink:href="#rim2" fill="#404040"><set attributeName="fill" to="#808080" begin="reset.mouseover" end="reset.mouseout"/></use>
  </g>
</defs>
<script type="application/ecmascript">
var viewWidth = 533;
var viewHeight = 196;
var sectionId = 'dynsection-0';
</script>
<script type="application/ecmascript" xlink:href="svg.min.js"/>
<svg id="graph" class="graph">
<g id="viewport">
<title>/home/runner/work/Weaver/Weaver/include/App/Model/IBM/Landscape/Map/Patches</title>
<g id="clust1" class="cluster">
<title>clusterdir_389a21b4e0d5da4afd1bc923d1c21e90</title>
<g id="a_clust1"><a xlink:href="dir_389a21b4e0d5da4afd1bc923d1c21e90.html" target="_top" xlink:title="Map">
<polygon fill="#edf0f7" stroke="#7f7f7f" stroke-dasharray="5,2" points="8,-8 8,-180 156,-180 156,-8 8,-8"/>
<text text-anchor="middle" x="82" y="-168" font-family="Helvetica,sans-Serif" font-size="10.00">Map</text>
</a>
</g>
</g>
<g id="clust2" class="cluster">
<title>clusterdir_017facbfd39d2f00dec237be0066268e</title>
<g id="a_clust2"><a xlink:href="dir_017facbfd39d2f00dec237be0066268e.html" target="_top">
<polygon fill="#edf0f7" stroke="#404040" stroke-width="2" points="16,-63 16,-153 148,-153 148,-63 16,-63"/>
</a>
</g>
</g>
<!-- dir_c87c7e4d4fdad4f97d517f6e37fa3d03 -->
<g id="node1" class="node">
<title>dir_c87c7e4d4fdad4f97d517f6e37fa3d03</title>
<g id="a_node1"><a xlink:href="dir_c87c7e4d4fdad4f97d517f6e37fa3d03.html" target="_top" xlink:title="Geometry">
<polygon fill="#a2b4d6" stroke="#404040" points="81.5,-35 16.5,-35 16.5,-16 81.5,-16 81.5,-35"/>
<text text-anchor="middle" x="49" y="-23" font-family="Helvetica,sans-Serif" font-size="10.00">Geometry</text>
</a>
</g>
</g>
<!-- dir_017facbfd39d2f00dec237be0066268e -->
<g id="node2" class="node">
<title>dir_017facbfd39d2f00dec237be0066268e</title>
<text text-anchor="middle" x="113" y="-133" font-family="Helvetica,sans-Serif" font-size="10.00">Patches</text>
</g>
<!-- dir_0dc1834a7948f19bb563227649322f0c -->
<g id="node3" class="node">
<title>dir_0dc1834a7948f19bb563227649322f0c</title>
<g id="a_node3"><a xlink:href="dir_0dc1834a7948f19bb563227649322f0c.html" target="_top" xlink:title="Shape">
<polygon fill="#a2b4d6" stroke="#404040" points="71.5,-90 24.5,-90 24.5,-71 71.5,-71 71.5,-90"/>
<text text-anchor="middle" x="48" y="-78" font-family="Helvetica,sans-Serif" font-size="10.00">Shape</text>
</a>
</g>
</g>
<!-- dir_017facbfd39d2f00dec237be0066268e&#45;&gt;dir_0dc1834a7948f19bb563227649322f0c -->
<g id="edge1" class="edge">
<title>dir_017facbfd39d2f00dec237be0066268e&#45;&gt;dir_0dc1834a7948f19bb563227649322f0c</title>
<g id="a_edge1"><a xlink:href="dir_000043_000050.html" target="_top">
<path fill="none" stroke="#63b8ff" d="M102.56,-125.98C92.85,-118.07 78.18,-106.11 66.5,-96.58"/>
<polygon fill="#63b8ff" stroke="#63b8ff" points="68.6,-93.78 58.63,-90.17 64.17,-99.2 68.6,-93.78"/>
</a>
</g>
<g id="a_edge1&#45;headlabel"><a xlink:href="dir_000043_000050.html" target="_top" xlink:title="1">
<text text-anchor="middle" x="73.18" y="-91.35" font-family="Helvetica,sans-Serif" font-size="10.00" fill="#63b8ff">1</text>
</a>
</g>
</g>
<!-- dir_766e5b4c713182c5414b572bd65dab52 -->
<g id="node4" class="node">
<title>dir_766e5b4c713182c5414b572bd65dab52</title>
<g id="a_node4"><a xlink:href="dir_766e5b4c713182c5414b572bd65dab52.html" target="_top" xlink:title="Source">
<polygon fill="#a2b4d6" stroke="#404040" points="140,-90 90,-90 90,-71 140,-71 140,-90"/>
<text text-anchor="middle" x="115" y="-78" font-family="Helvetica,sans-Serif" font-size="10.00">Source</text>
</a>
</g>
</g>
<!-- dir_017facbfd39d2f00dec237be0066268e&#45;&gt;dir_766e5b4c713182c5414b572bd65dab52 -->
<g id="edge2" class="edge">
<title>dir_017facbfd39d2f00dec237be0066268e&#45;&gt;dir_766e5b4c713182c5414b572bd65dab52</title>
<g id="a_edge2"><a xlink:href="dir_000043_000051.html" target="_top">
<path fill="none" stroke="#63b8ff" d="M113.33,-125.75C113.59,-118.8 113.97,-108.85 114.3,-100.13"/>
<polygon fill="#63b8ff" stroke="#63b8ff" points="117.8,-100.21 114.68,-90.09 110.8,-99.95 117.8,-100.21"/>
</a>
</g>
<g id="a_edge2&#45;headlabel"><a xlink:href="dir_000043_000051.html" target="_top" xlink:title="1">
<text text-anchor="middle" x="120.5" y="-101.41" font-family="Helvetica,sans-Serif" font-size="10.00" fill="#63b8ff">1</text>
</a>
</g>
</g>
<!-- dir_ed435641f8e8047e0f5542c775bc8256 -->
<g id="node5" class="node">
<title>dir_ed435641f8e8047e0f5542c775bc8256</title>
<g id="a_node5"><a xlink:href="dir_ed435641f8e8047e0f5542c775bc8256.html" target="_top" xlink:title="Misc">
<polygon fill="#edf0f7" stroke="red" stroke-dasharray="5,2" points="524.5,-35 485.5,-35 485.5,-16 524.5,-16 524.5,-35"/>
<text text-anchor="middle" x="505" y="-23" font-family="Helvetica,sans-Serif" font-size="10.00">Misc</text>
</a>
</g>
</g>
<!-- dir_017facbfd39d2f00dec237be0066268e&#45;&gt;dir_ed435641f8e8047e0f5542c775bc8256 -->
<g id="edge3" class="edge">
<title>dir_017facbfd39d2f00dec237be0066268e&#45;&gt;dir_ed435641f8e8047e0f5542c775bc8256</title>
<g id="a_edge3"><a xlink:href="dir_000043_000033.html" target="_top">
<path fill="none" stroke="#63b8ff" d="M140.01,-127.39C199.03,-111.8 344.11,-73.17 475.59,-35.35"/>
<polygon fill="#63b8ff" stroke="#63b8ff" points="476.8,-38.65 485.44,-32.51 474.86,-31.92 476.8,-38.65"/>
</a>
</g>
<g id="a_edge3&#45;headlabel"><a xlink:href="dir_000043_000033.html" target="_top" xlink:title="3">
<text text-anchor="middle" x="474.13" y="-39.87" font-family="Helvetica,sans-Serif" font-size="10.00" fill="#63b8ff">3</text>
</a>
</g>
</g>
<!-- dir_0dc1834a7948f19bb563227649322f0c&#45;&gt;dir_c87c7e4d4fdad4f97d517f6e37fa3d03 -->
<g id="edge5" class="edge">
<title>dir_0dc1834a7948f19bb563227649322f0c&#45;&gt;dir_c87c7e4d4fdad4f97d517f6e37fa3d03</title>
<g id="a_edge5"><a xlink:href="dir_000050_000013.html" target="_top">
<path fill="none" stroke="#63b8ff" d="M48.17,-70.75C48.3,-63.8 48.48,-53.85 48.65,-45.13"/>
<polygon fill="#63b8ff" stroke="#63b8ff" points="52.15,-45.15 48.84,-35.09 45.15,-45.02 52.15,-45.15"/>
</a>
</g>
<g id="a_edge5&#45;headlabel"><a xlink:href="dir_000050_000013.html" target="_top" xlink:title="1">
<text text-anchor="middle" x="54.92" y="-46.3" font-family="Helvetica,sans-Serif" font-size="10.00" fill="#63b8ff">1</text>
</a>
</g>
</g>
<!-- dir_0dc1834a7948f19bb563227649322f0c&#45;&gt;dir_ed435641f8e8047e0f5542c775bc8256 -->
<g id="edge6" class="edge">
<title>dir_0dc1834a7948f19bb563227649322f0c&#45;&gt;dir_ed435641f8e8047e0f5542c775bc8256</title>
<g id="a_edge6"><a xlink:href="dir_000050_000033.html" target="_top">
<path fill="none" stroke="#63b8ff" d="M61.97,-70.99C67.67,-67.93 74.45,-64.79 81,-63 248.02,-17.29 301.51,-65.2 475.27,-34.9"/>
<polygon fill="#63b8ff" stroke="#63b8ff" points="476.03,-38.32 485.25,-33.09 474.79,-31.43 476.03,-38.32"/>
</a>
</g>
<g id="a_edge6&#45;headlabel"><a xlink:href="dir_000050_000033.html" target="_top" xlink:title="1">
<text text-anchor="middle" x="473" y="-39.25" font-family="Helvetica,sans-Serif" font-size="10.00" fill="#63b8ff">1</text>
</a>
</g>
</g>
<!-- dir_4045643538bad1aadeff61b05dc9bc0d -->
<g id="node6" class="node">
<title>dir_4045643538bad1aadeff61b05dc9bc0d</title>
<g id="a_node6"><a xlink:href="dir_4045643538bad1aadeff61b05dc9bc0d.html" target="_top" xlink:title="Exceptions">
<polygon fill="#edf0f7" stroke="#7f7f7f" points="234,-35 164,-35 164,-16 234,-16 234,-35"/>
<text text-anchor="middle" x="199" y="-23" font-family="Helvetica,sans-Serif" font-size="10.00">Exceptions</text>
</a>
</g>
</g>
<!-- dir_0dc1834a7948f19bb563227649322f0c&#45;&gt;dir_4045643538bad1aadeff61b05dc9bc0d -->
<g id="edge4" class="edge">
<title>dir_0dc1834a7948f19bb563227649322f0c&#45;&gt;dir_4045643538bad1aadeff61b05dc9bc0d</title>
<g id="a_edge4"><a xlink:href="dir_000050_000010.html" target="_top">
<path fill="none" stroke="#63b8ff" d="M63.87,-70.91C69.23,-68.18 75.29,-65.29 81,-63 105.61,-53.12 133.99,-44.26 156.75,-37.75"/>
<polygon fill="#63b8ff" stroke="#63b8ff" points="157.78,-41.1 166.45,-35.02 155.88,-34.36 157.78,-41.1"/>
</a>
</g>
<g id="a_edge4&#45;headlabel"><a xlink:href="dir_000050_000010.html" target="_top" xlink:title="1">
<text text-anchor="middle" x="155.08" y="-42.31" font-family="Helvetica,sans-Serif" font-size="10.00" fill="#63b8ff">1</text>
</a>
</g>
</g>
<!-- dir_766e5b4c713182c5414b572bd65dab52&#45;&gt;dir_ed435641f8e8047e0f5542c775bc8256 -->
<g id="edge10" class="edge">
<title>dir_766e5b4c713182c5414b572bd65dab52&#45;&gt;dir_ed435641f8e8047e0f5542c775bc8256</title>
<g id="a_edge10"><a xlink:href="dir_000051_000033.html" target="_top">
<path fill="none" stroke="#63b8ff" d="M140.26,-77.9C198.07,-73.92 344.48,-62.04 475.05,-35.1"/>
<polygon fill="#63b8ff" stroke="#63b8ff" points="476.16,-38.44 485.23,-32.96 474.72,-31.59 476.16,-38.44"/>
</a>
</g>
<g id="a_edge10&#45;headlabel"><a xlink:href="dir_000051_000033.html" target="_top" xlink:title="1">
<text text-anchor="middle" x="473.22" y="-39.46" font-family="Helvetica,sans-Serif" font-size="10.00" fill="#63b8ff">1</text>
</a>
</g>
</g>
<!-- dir_deb6f38fabcacb3d9327502f4723bff5 -->
<g id="node7" class="node">
<title>dir_deb6f38fabcacb3d9327502f4723bff5</title>
<g id="a_node7"><a xlink:href="dir_deb6f38fabcacb3d9327502f4723bff5.html" target="_top" xlink:title="LivingBeings">
<polygon fill="#edf0f7" stroke="red" stroke-dasharray="5,2" points="467.5,-35 388.5,-35 388.5,-16 467.5,-16 467.5,-35"/>
<text text-anchor="middle" x="428" y="-23" font-family="Helvetica,sans-Serif" font-size="10.00">LivingBeings</text>
</a>
</g>
</g>
<!-- dir_766e5b4c713182c5414b572bd65dab52&#45;&gt;dir_deb6f38fabcacb3d9327502f4723bff5 -->
<g id="edge9" class="edge">
<title>dir_766e5b4c713182c5414b572bd65dab52&#45;&gt;dir_deb6f38fabcacb3d9327502f4723bff5</title>
<g id="a_edge9"><a xlink:href="dir_000051_000028.html" target="_top">
<path fill="none" stroke="#63b8ff" d="M140.22,-75.34C185.74,-67.82 284.88,-51.36 378.53,-35.24"/>
<polygon fill="#63b8ff" stroke="#63b8ff" points="379.19,-38.68 388.45,-33.53 378,-31.78 379.19,-38.68"/>
</a>
</g>
<g id="a_edge9&#45;headlabel"><a xlink:href="dir_000051_000028.html" target="_top" xlink:title="5">
<text text-anchor="middle" x="376.13" y="-39.59" font-family="Helvetica,sans-Serif" font-size="10.00" fill="#63b8ff">5</text>
</a>
</g>
</g>
<!-- dir_82abf9c3cae407e2f368e3cd0d776797 -->
<g id="node8" class="node">
<title>dir_82abf9c3cae407e2f368e3cd0d776797</title>
<g id="a_node8"><a xlink:href="dir_82abf9c3cae407e2f368e3cd0d776797.html" target="_top" xlink:title="Physics">
<polygon fill="#edf0f7" stroke="#7f7f7f" points="305.5,-35 252.5,-35 252.5,-16 305.5,-16 305.5,-35"/>
<text text-anchor="middle" x="279" y="-23" font-family="Helvetica,sans-Serif" font-size="10.00">Physics</text>
</a>
</g>
</g>
<!-- dir_766e5b4c713182c5414b572bd65dab52&#45;&gt;dir_82abf9c3cae407e2f368e3cd0d776797 -->
<g id="edge8" class="edge">
<title>dir_766e5b4c713182c5414b572bd65dab52&#45;&gt;dir_82abf9c3cae407e2f368e3cd0d776797</title>
<g id="a_edge8"><a xlink:href="dir_000051_000044.html" target="_top">
<path fill="none" stroke="#63b8ff" d="M140.27,-71.33C167.75,-62.45 211.91,-48.18 243.02,-38.13"/>
<polygon fill="#63b8ff" stroke="#63b8ff" points="244.18,-41.43 252.62,-35.03 242.03,-34.77 244.18,-41.43"/>
</a>
</g>
<g id="a_edge8&#45;headlabel"><a xlink:href="dir_000051_000044.html" target="_top" xlink:title="1">
<text text-anchor="middle" x="241.63" y="-42.74" font-family="Helvetica,sans-Serif" font-size="10.00" fill="#63b8ff">1</text>
</a>
</g>
</g>
<!-- dir_6d30109d817e3a6d4be9084cc265e05a -->
<g id="node9" class="node">
<title>dir_6d30109d817e3a6d4be9084cc265e05a</title>
<g id="a_node9"><a xlink:href="dir_6d30109d817e3a6d4be9084cc265e05a.html" target="_top" xlink:title="Maths">
<polygon fill="#edf0f7" stroke="red" stroke-dasharray="5,2" points="370.5,-35 323.5,-35 323.5,-16 370.5,-16 370.5,-35"/>
<text text-anchor="middle" x="347" y="-23" font-family="Helvetica,sans-Serif" font-size="10.00">Maths</text>
</a>
</g>
</g>
<!-- dir_766e5b4c713182c5414b572bd65dab52&#45;&gt;dir_6d30109d817e3a6d4be9084cc265e05a -->
<g id="edge7" class="edge">
<title>dir_766e5b4c713182c5414b572bd65dab52&#45;&gt;dir_6d30109d817e3a6d4be9084cc265e05a</title>
<g id="a_edge7"><a xlink:href="dir_000051_000032.html" target="_top">
<path fill="none" stroke="#63b8ff" d="M140.02,-74.28C176.18,-66.65 245.39,-51.78 313.26,-35.35"/>
<polygon fill="#63b8ff" stroke="#63b8ff" points="314.37,-38.69 323.26,-32.92 312.72,-31.89 314.37,-38.69"/>
</a>
</g>
<g id="a_edge7&#45;headlabel"><a xlink:href="dir_000051_000032.html" target="_top" xlink:title="4">
<text text-anchor="middle" x="311.55" y="-39.8" font-family="Helvetica,sans-Serif" font-size="10.00" fill="#63b8ff">4</text>
</a>
</g>
</g>
</g>
</svg>

<g id="navigator" transform="translate(0 0)" fill="#404254">
  <rect fill="#f2f5e9" fill-opacity="0.5" stroke="#606060" stroke-width=".5" x="0" y="0" width="60" height="60"/>
  <use id="zoomplus" xlink:href="#zoomPlus" x="17" y="9" onmousedown="handleZoom(evt,'in')"/>
  <use id="zoomminus" xlink:href="#zoomMin" x="42" y="9" onmousedown="handleZoom(evt,'out')"/>
  <use id="reset" xlink:href="#resetDef" x="30" y="36" onmousedown="handleReset()"/>
   <use id="arrowup" xlink:href="#arrowUp" x="0" y="0" onmousedown="handlePan(0,-1)"/>
  <use id="arrowright" xlink:href="#arrowRight" x="0" y="0" onmousedown="handlePan(1,0)"/>
  <use id="arrowdown" xlink:href="#arrowDown" x="0" y="0" onmousedown="handlePan(0,1)"/>
  <use id="arrowleft" xlink:href="#arrowLeft" x="0" y="0" onmousedown="handlePan(-1,0)"/>
</g>
<svg viewBox="0 0 15 15" width="100%" height="30px" preserveAspectRatio="xMaxYMin meet">
 <g id="arrow_out" transform="scale(0.3 0.3)">
  <a xlink:href="dir_017facbfd39d2f00dec237be0066268e_dep_org.svg" target="_base">
   <rect id="button" ry="5" rx="5" y="6" x="6" height="38" width="38"
        fill="#f2f5e9" fill-opacity="0.5" stroke="#606060" stroke-width="1.0"/>
   <path id="arrow"
     d="M 11.500037,31.436501 C 11.940474,20.09759 22.043105,11.32322 32.158766,21.979434 L 37.068811,17.246167 C 37.068811,17.246167 37.088388,32 37.088388,32 L 22.160133,31.978069 C 22.160133,31.978069 26.997745,27.140456 26.997745,27.140456 C 18.528582,18.264221 13.291696,25.230495 11.500037,31.436501 z"
     style="fill:#404040;"/>
  </a>
 </g>
</svg>

<style type='text/css'>
<![CDATA[
[data-mouse-over-selected='false'] { opacity: 0.7; }
[data-mouse-over-selected='true']  { opacity: 1.0; }
]]>
</style>
<script type="application/ecmascript"><![CDATA[
document.addEventListener('DOMContentLoaded', (event) => {
  highlightEdges();
  highlightAdjacentNodes();
});
]]></script>
</svg>
