<?xml version="1.0" encoding="UTF-8" standalone="no"?>
<!DOCTYPE svg PUBLIC "-//W3C//DTD SVG 1.1//EN"
 "http://www.w3.org/Graphics/SVG/1.1/DTD/svg11.dtd">
<!-- Generated by graphviz version 2.43.0 (0)
 -->
<!-- Title: /home/runner/work/Weaver/Weaver/include/App/Model/IBM/Landscape/LivingBeings/Edible.h Pages: 1 -->
<svg width="1334pt" height="1028pt"
 viewBox="0.00 0.00 1333.50 1028.00" xmlns="http://www.w3.org/2000/svg" xmlns:xlink="http://www.w3.org/1999/xlink">
<g id="graph0" class="graph" transform="scale(1 1) rotate(0) translate(4 1024)">
<title>/home/runner/work/Weaver/Weaver/include/App/Model/IBM/Landscape/LivingBeings/Edible.h</title>
<!-- Node1 -->
<g id="Node000001" class="node">
<title>Node1</title>
<g id="a_Node000001"><a xlink:title="Defines the base class for edible entities in the simulation.">
<polygon fill="#999999" stroke="#666666" points="542.5,-1020 384.5,-1020 384.5,-968 542.5,-968 542.5,-1020"/>
<text text-anchor="start" x="392.5" y="-1008" font-family="Helvetica,sans-Serif" font-size="10.00">/home/runner/work/Weaver</text>
<text text-anchor="start" x="392.5" y="-997" font-family="Helvetica,sans-Serif" font-size="10.00">/Weaver/include/App/Model</text>
<text text-anchor="start" x="392.5" y="-986" font-family="Helvetica,sans-Serif" font-size="10.00">/IBM/Landscape/LivingBeings</text>
<text text-anchor="middle" x="463.5" y="-975" font-family="Helvetica,sans-Serif" font-size="10.00">/Edible.h</text>
</a>
</g>
</g>
<!-- Node2 -->
<g id="Node000002" class="node">
<title>Node2</title>
<g id="a_Node000002"><a xlink:href="Landscape_8h.html" target="_top" xlink:title="Doxygen&#45;documented declaration of the Landscape class and related serialization helpers.">
<polygon fill="white" stroke="#666666" points="452,-118 295,-118 295,-77 452,-77 452,-118"/>
<text text-anchor="start" x="303" y="-106" font-family="Helvetica,sans-Serif" font-size="10.00">/home/runner/work/Weaver</text>
<text text-anchor="start" x="303" y="-95" font-family="Helvetica,sans-Serif" font-size="10.00">/Weaver/include/App/Model</text>
<text text-anchor="middle" x="373.5" y="-84" font-family="Helvetica,sans-Serif" font-size="10.00">/IBM/Landscape/Landscape.h</text>
</a>
</g>
</g>
<!-- Node1&#45;&gt;Node2 -->
<g id="edge1_Node000001_Node000002" class="edge">
<title>Node1&#45;&gt;Node2</title>
<g id="a_edge1_Node000001_Node000002"><a xlink:title=" ">
<path fill="none" stroke="#63b8ff" d="M374.88,-969.51C299.88,-943.63 204.5,-893.85 204.5,-808 204.5,-808 204.5,-808 204.5,-256 204.5,-204.28 223.11,-189.73 260.5,-154 276.46,-138.75 297.42,-126.89 316.94,-118.13"/>
<polygon fill="#63b8ff" stroke="#63b8ff" points="373.79,-972.83 384.38,-972.7 376.02,-966.2 373.79,-972.83"/>
</a>
</g>
</g>
<!-- Node7 -->
<g id="Node000007" class="node">
<title>Node7</title>
<g id="a_Node000007"><a xlink:href="Animal_8h.html" target="_top" xlink:title="Defines the Animal class, an abstract class representing animals in the ecosystem.">
<polygon fill="white" stroke="#666666" points="489.5,-926.5 331.5,-926.5 331.5,-874.5 489.5,-874.5 489.5,-926.5"/>
<text text-anchor="start" x="339.5" y="-914.5" font-family="Helvetica,sans-Serif" font-size="10.00">/home/runner/work/Weaver</text>
<text text-anchor="start" x="339.5" y="-903.5" font-family="Helvetica,sans-Serif" font-size="10.00">/Weaver/include/App/Model</text>
<text text-anchor="start" x="339.5" y="-892.5" font-family="Helvetica,sans-Serif" font-size="10.00">/IBM/Landscape/LivingBeings</text>
<text text-anchor="middle" x="410.5" y="-881.5" font-family="Helvetica,sans-Serif" font-size="10.00">/Animals/Animal.h</text>
</a>
</g>
</g>
<!-- Node1&#45;&gt;Node7 -->
<g id="edge6_Node000001_Node000007" class="edge">
<title>Node1&#45;&gt;Node7</title>
<g id="a_edge6_Node000001_Node000007"><a xlink:title=" ">
<path fill="none" stroke="#63b8ff" d="M443.95,-959.26C437.73,-948.52 430.96,-936.83 425.15,-926.79"/>
<polygon fill="#63b8ff" stroke="#63b8ff" points="440.98,-961.1 449.02,-968 447.03,-957.59 440.98,-961.1"/>
</a>
</g>
</g>
<!-- Node11 -->
<g id="Node000011" class="node">
<title>Node11</title>
<g id="a_Node000011"><a xlink:href="CellValue_8h.html" target="_top" xlink:title="Defines the CellValue struct representing the evaluation of a terrain cell by an animal.">
<polygon fill="white" stroke="#666666" points="591,-745 414,-745 414,-693 591,-693 591,-745"/>
<text text-anchor="start" x="422" y="-733" font-family="Helvetica,sans-Serif" font-size="10.00">/home/runner/work/Weaver</text>
<text text-anchor="start" x="422" y="-722" font-family="Helvetica,sans-Serif" font-size="10.00">/Weaver/include/App/Model</text>
<text text-anchor="start" x="422" y="-711" font-family="Helvetica,sans-Serif" font-size="10.00">/IBM/Landscape/Map/TerrainCells</text>
<text text-anchor="middle" x="502.5" y="-700" font-family="Helvetica,sans-Serif" font-size="10.00">/CellValue.h</text>
</a>
</g>
</g>
<!-- Node1&#45;&gt;Node11 -->
<g id="edge33_Node000001_Node000011" class="edge">
<title>Node1&#45;&gt;Node11</title>
<g id="a_edge33_Node000001_Node000011"><a xlink:title=" ">
<path fill="none" stroke="#63b8ff" d="M486.95,-959.04C491.66,-950.56 495.94,-941.25 498.5,-932 516.61,-866.54 510.69,-785.32 505.98,-745.06"/>
<polygon fill="#63b8ff" stroke="#63b8ff" points="483.81,-957.47 481.73,-967.86 489.83,-961.03 483.81,-957.47"/>
</a>
</g>
</g>
<!-- Node19 -->
<g id="Node000019" class="node">
<title>Node19</title>
<g id="a_Node000019"><a xlink:href="CellResourceInterface_8h.html" target="_top" xlink:title="Interface for resources in a terrain cell.">
<polygon fill="white" stroke="#666666" points="1053,-932 838,-932 838,-869 1053,-869 1053,-932"/>
<text text-anchor="start" x="846" y="-920" font-family="Helvetica,sans-Serif" font-size="10.00">/home/runner/work/Weaver</text>
<text text-anchor="start" x="846" y="-909" font-family="Helvetica,sans-Serif" font-size="10.00">/Weaver/include/App/Model</text>
<text text-anchor="start" x="846" y="-898" font-family="Helvetica,sans-Serif" font-size="10.00">/IBM/Landscape/Map/TerrainCells</text>
<text text-anchor="start" x="846" y="-887" font-family="Helvetica,sans-Serif" font-size="10.00">/PatchApplicator/Resources/CellResource</text>
<text text-anchor="middle" x="945.5" y="-876" font-family="Helvetica,sans-Serif" font-size="10.00">Interface.h</text>
</a>
</g>
</g>
<!-- Node1&#45;&gt;Node19 -->
<g id="edge34_Node000001_Node000019" class="edge">
<title>Node1&#45;&gt;Node19</title>
<g id="a_edge34_Node000001_Node000019"><a xlink:title=" ">
<path fill="none" stroke="#63b8ff" d="M552.66,-976.07C633.15,-960.8 751.75,-938.28 837.56,-921.99"/>
<polygon fill="#63b8ff" stroke="#63b8ff" points="551.72,-972.69 542.55,-977.99 553.03,-979.57 551.72,-972.69"/>
</a>
</g>
</g>
<!-- Node3 -->
<g id="Node000003" class="node">
<title>Node3</title>
<g id="a_Node000003"><a xlink:href="IBM_8h.html" target="_top" xlink:title="Definition of the IBM class, representing the core individual&#45;based model of the simulation.">
<polygon fill="white" stroke="#666666" points="149,-41 0,-41 0,0 149,0 149,-41"/>
<text text-anchor="start" x="8" y="-29" font-family="Helvetica,sans-Serif" font-size="10.00">/home/runner/work/Weaver</text>
<text text-anchor="start" x="8" y="-18" font-family="Helvetica,sans-Serif" font-size="10.00">/Weaver/include/App/Model</text>
<text text-anchor="middle" x="74.5" y="-7" font-family="Helvetica,sans-Serif" font-size="10.00">/IBM/IBM.h</text>
</a>
</g>
</g>
<!-- Node2&#45;&gt;Node3 -->
<g id="edge2_Node000002_Node000003" class="edge">
<title>Node2&#45;&gt;Node3</title>
<g id="a_edge2_Node000002_Node000003"><a xlink:title=" ">
<path fill="none" stroke="#63b8ff" d="M286.02,-74.56C242.56,-63.65 190.6,-50.62 149.05,-40.2"/>
<polygon fill="#63b8ff" stroke="#63b8ff" points="285.17,-77.95 295.72,-76.99 286.87,-71.16 285.17,-77.95"/>
</a>
</g>
</g>
<!-- Node4 -->
<g id="Node000004" class="node">
<title>Node4</title>
<g id="a_Node000004"><a xlink:href="AquaticLandscape_8h.html" target="_top" xlink:title="Defines the AquaticLandscape class for aquatic ecosystem simulations.">
<polygon fill="white" stroke="#666666" points="360.5,-41 166.5,-41 166.5,0 360.5,0 360.5,-41"/>
<text text-anchor="start" x="174.5" y="-29" font-family="Helvetica,sans-Serif" font-size="10.00">/home/runner/work/Weaver</text>
<text text-anchor="start" x="174.5" y="-18" font-family="Helvetica,sans-Serif" font-size="10.00">/Weaver/include/App/Model</text>
<text text-anchor="middle" x="263.5" y="-7" font-family="Helvetica,sans-Serif" font-size="10.00">/IBM/Landscape/AquaticLandscape.h</text>
</a>
</g>
</g>
<!-- Node2&#45;&gt;Node4 -->
<g id="edge3_Node000002_Node000004" class="edge">
<title>Node2&#45;&gt;Node4</title>
<g id="a_edge3_Node000002_Node000004"><a xlink:title=" ">
<path fill="none" stroke="#63b8ff" d="M336.24,-71.09C321.9,-61.32 305.78,-50.32 292.35,-41.17"/>
<polygon fill="#63b8ff" stroke="#63b8ff" points="334.65,-74.25 344.89,-76.99 338.6,-68.47 334.65,-74.25"/>
</a>
</g>
</g>
<!-- Node5 -->
<g id="Node000005" class="node">
<title>Node5</title>
<g id="a_Node000005"><a xlink:href="ArthropodsLandscape_8h.html" target="_top" xlink:title="Defines the ArthropodsLandscape class for arthropod&#45;specific ecosystem simulations.">
<polygon fill="white" stroke="#666666" points="588.5,-41 378.5,-41 378.5,0 588.5,0 588.5,-41"/>
<text text-anchor="start" x="386.5" y="-29" font-family="Helvetica,sans-Serif" font-size="10.00">/home/runner/work/Weaver</text>
<text text-anchor="start" x="386.5" y="-18" font-family="Helvetica,sans-Serif" font-size="10.00">/Weaver/include/App/Model</text>
<text text-anchor="middle" x="483.5" y="-7" font-family="Helvetica,sans-Serif" font-size="10.00">/IBM/Landscape/ArthropodsLandscape.h</text>
</a>
</g>
</g>
<!-- Node2&#45;&gt;Node5 -->
<g id="edge4_Node000002_Node000005" class="edge">
<title>Node2&#45;&gt;Node5</title>
<g id="a_edge4_Node000002_Node000005"><a xlink:title=" ">
<path fill="none" stroke="#63b8ff" d="M410.76,-71.09C425.1,-61.32 441.22,-50.32 454.65,-41.17"/>
<polygon fill="#63b8ff" stroke="#63b8ff" points="408.4,-68.47 402.11,-76.99 412.35,-74.25 408.4,-68.47"/>
</a>
</g>
</g>
<!-- Node6 -->
<g id="Node000006" class="node">
<title>Node6</title>
<g id="a_Node000006"><a xlink:href="DinosaursLandscape_8h.html" target="_top" xlink:title="Defines the DinosaursLandscape class for dinosaur&#45;specific ecosystem simulations.">
<polygon fill="white" stroke="#666666" points="812.5,-41 606.5,-41 606.5,0 812.5,0 812.5,-41"/>
<text text-anchor="start" x="614.5" y="-29" font-family="Helvetica,sans-Serif" font-size="10.00">/home/runner/work/Weaver</text>
<text text-anchor="start" x="614.5" y="-18" font-family="Helvetica,sans-Serif" font-size="10.00">/Weaver/include/App/Model</text>
<text text-anchor="middle" x="709.5" y="-7" font-family="Helvetica,sans-Serif" font-size="10.00">/IBM/Landscape/DinosaursLandscape.h</text>
</a>
</g>
</g>
<!-- Node2&#45;&gt;Node6 -->
<g id="edge5_Node000002_Node000006" class="edge">
<title>Node2&#45;&gt;Node6</title>
<g id="a_edge5_Node000002_Node000006"><a xlink:title=" ">
<path fill="none" stroke="#63b8ff" d="M462.31,-76.68C511.69,-65.66 572.9,-51.99 622.06,-41.02"/>
<polygon fill="#63b8ff" stroke="#63b8ff" points="461.27,-73.32 452.28,-78.92 462.8,-80.15 461.27,-73.32"/>
</a>
</g>
</g>
<!-- Node8 -->
<g id="Node000008" class="node">
<title>Node8</title>
<g id="a_Node000008"><a xlink:href="AnimalNonStatistical_8h.html" target="_top" xlink:title="Defines the AnimalNonStatistical class, a non&#45;statistical concrete implementation of Animal.">
<polygon fill="white" stroke="#666666" points="489.5,-833 315.5,-833 315.5,-781 489.5,-781 489.5,-833"/>
<text text-anchor="start" x="323.5" y="-821" font-family="Helvetica,sans-Serif" font-size="10.00">/home/runner/work/Weaver</text>
<text text-anchor="start" x="323.5" y="-810" font-family="Helvetica,sans-Serif" font-size="10.00">/Weaver/include/App/Model</text>
<text text-anchor="start" x="323.5" y="-799" font-family="Helvetica,sans-Serif" font-size="10.00">/IBM/Landscape/LivingBeings</text>
<text text-anchor="middle" x="402.5" y="-788" font-family="Helvetica,sans-Serif" font-size="10.00">/Animals/AnimalNonStatistical.h</text>
</a>
</g>
</g>
<!-- Node7&#45;&gt;Node8 -->
<g id="edge7_Node000007_Node000008" class="edge">
<title>Node7&#45;&gt;Node8</title>
<g id="a_edge7_Node000007_Node000008"><a xlink:title=" ">
<path fill="none" stroke="#63b8ff" d="M407.44,-864.46C406.53,-854.08 405.55,-842.92 404.71,-833.29"/>
<polygon fill="#63b8ff" stroke="#63b8ff" points="403.96,-864.84 408.31,-874.5 410.93,-864.23 403.96,-864.84"/>
</a>
</g>
</g>
<!-- Node12 -->
<g id="Node000012" class="node">
<title>Node12</title>
<g id="a_Node000012"><a xlink:href="TerrainCell_8h.html" target="_top" xlink:title="Defines the TerrainCell class representing a cell in the landscape.">
<polygon fill="white" stroke="#666666" points="729,-651.5 552,-651.5 552,-599.5 729,-599.5 729,-651.5"/>
<text text-anchor="start" x="560" y="-639.5" font-family="Helvetica,sans-Serif" font-size="10.00">/home/runner/work/Weaver</text>
<text text-anchor="start" x="560" y="-628.5" font-family="Helvetica,sans-Serif" font-size="10.00">/Weaver/include/App/Model</text>
<text text-anchor="start" x="560" y="-617.5" font-family="Helvetica,sans-Serif" font-size="10.00">/IBM/Landscape/Map/TerrainCells</text>
<text text-anchor="middle" x="640.5" y="-606.5" font-family="Helvetica,sans-Serif" font-size="10.00">/TerrainCell.h</text>
</a>
</g>
</g>
<!-- Node7&#45;&gt;Node12 -->
<g id="edge32_Node000007_Node000012" class="edge">
<title>Node7&#45;&gt;Node12</title>
<g id="a_edge32_Node000007_Node000012"><a xlink:title=" ">
<path fill="none" stroke="#63b8ff" d="M478.88,-869.91C528.9,-844.43 593.68,-802.64 627.5,-745 644.26,-716.44 645.15,-677.29 643.46,-651.95"/>
<polygon fill="#63b8ff" stroke="#63b8ff" points="477.11,-866.88 469.73,-874.47 480.24,-873.14 477.11,-866.88"/>
</a>
</g>
</g>
<!-- Node16 -->
<g id="Node000016" class="node">
<title>Node16</title>
<g id="a_Node000016"><a xlink:href="RootTerrainCell_8h.html" target="_top" xlink:title="Defines the RootTerrainCell class, the top&#45;level node of the spatial tree in the landscape.">
<polygon fill="white" stroke="#666666" points="893.5,-283 719.5,-283 719.5,-231 893.5,-231 893.5,-283"/>
<text text-anchor="start" x="727.5" y="-271" font-family="Helvetica,sans-Serif" font-size="10.00">/home/runner/work/Weaver</text>
<text text-anchor="start" x="727.5" y="-260" font-family="Helvetica,sans-Serif" font-size="10.00">/Weaver/include/App/Model</text>
<text text-anchor="start" x="727.5" y="-249" font-family="Helvetica,sans-Serif" font-size="10.00">/IBM/Landscape/Map/SpatialTree</text>
<text text-anchor="middle" x="806.5" y="-238" font-family="Helvetica,sans-Serif" font-size="10.00">/TerrainCells/RootTerrainCell.h</text>
</a>
</g>
</g>
<!-- Node7&#45;&gt;Node16 -->
<g id="edge31_Node000007_Node000016" class="edge">
<title>Node7&#45;&gt;Node16</title>
<g id="a_edge31_Node000007_Node000016"><a xlink:title=" ">
<path fill="none" stroke="#63b8ff" d="M499.48,-874.88C528.1,-864.57 558.99,-850.77 584.5,-833 669.78,-773.58 701.94,-754.3 738.5,-657 748.35,-630.79 752.79,-618.08 738.5,-594 721.44,-565.27 689.56,-586.73 672.5,-558 658.21,-533.92 665.37,-522.08 672.5,-495 694.75,-410.43 754.82,-324.32 786.43,-283.06"/>
<polygon fill="#63b8ff" stroke="#63b8ff" points="498.15,-871.64 489.86,-878.24 500.46,-878.25 498.15,-871.64"/>
</a>
</g>
</g>
<!-- Node18 -->
<g id="Node000018" class="node">
<title>Node18</title>
<g id="a_Node000018"><a xlink:href="AnimalStatistical_8h.html" target="_top" xlink:title="Defines the AnimalStatistical class, a concrete subclass of Animal for statistical simulations.">
<polygon fill="white" stroke="#666666" points="587.5,-371 429.5,-371 429.5,-319 587.5,-319 587.5,-371"/>
<text text-anchor="start" x="437.5" y="-359" font-family="Helvetica,sans-Serif" font-size="10.00">/home/runner/work/Weaver</text>
<text text-anchor="start" x="437.5" y="-348" font-family="Helvetica,sans-Serif" font-size="10.00">/Weaver/include/App/Model</text>
<text text-anchor="start" x="437.5" y="-337" font-family="Helvetica,sans-Serif" font-size="10.00">/IBM/Landscape/LivingBeings</text>
<text text-anchor="middle" x="508.5" y="-326" font-family="Helvetica,sans-Serif" font-size="10.00">/Animals/AnimalStatistical.h</text>
</a>
</g>
</g>
<!-- Node7&#45;&gt;Node18 -->
<g id="edge28_Node000007_Node000018" class="edge">
<title>Node7&#45;&gt;Node18</title>
<g id="a_edge28_Node000007_Node000018"><a xlink:title=" ">
<path fill="none" stroke="#63b8ff" d="M341.78,-868.88C327.81,-859.42 314.85,-847.55 306.5,-833 253.62,-740.82 263.05,-693.82 299.5,-594 334.94,-496.95 426.96,-411.61 476.23,-371.05"/>
<polygon fill="#63b8ff" stroke="#63b8ff" points="340.27,-872.06 350.58,-874.47 344.02,-866.15 340.27,-872.06"/>
</a>
</g>
</g>
<!-- Node8&#45;&gt;Node2 -->
<g id="edge8_Node000008_Node000002" class="edge">
<title>Node8&#45;&gt;Node2</title>
<g id="a_edge8_Node000008_Node000002"><a xlink:title=" ">
<path fill="none" stroke="#63b8ff" d="M368.47,-773.38C321.49,-724.65 242.5,-627.8 242.5,-527.5 242.5,-527.5 242.5,-527.5 242.5,-256 242.5,-194.47 302.33,-144.18 341.12,-118.03"/>
<polygon fill="#63b8ff" stroke="#63b8ff" points="366.22,-776.08 375.72,-780.78 371.22,-771.18 366.22,-776.08"/>
</a>
</g>
</g>
<!-- Node9 -->
<g id="Node000009" class="node">
<title>Node9</title>
<g id="a_Node000009"><a xlink:href="SpatialTreeAnimal_8h.html" target="_top" xlink:title="Defines the SpatialTreeAnimal class for animals in a spatial tree terrain.">
<polygon fill="white" stroke="#666666" points="534,-651.5 309,-651.5 309,-599.5 534,-599.5 534,-651.5"/>
<text text-anchor="start" x="317" y="-639.5" font-family="Helvetica,sans-Serif" font-size="10.00">/home/runner/work/Weaver</text>
<text text-anchor="start" x="317" y="-628.5" font-family="Helvetica,sans-Serif" font-size="10.00">/Weaver/include/App/Model</text>
<text text-anchor="start" x="317" y="-617.5" font-family="Helvetica,sans-Serif" font-size="10.00">/IBM/Landscape/Map/SpatialTree</text>
<text text-anchor="middle" x="421.5" y="-606.5" font-family="Helvetica,sans-Serif" font-size="10.00">/LivingBeings/Animals/SpatialTreeAnimal.h</text>
</a>
</g>
</g>
<!-- Node8&#45;&gt;Node9 -->
<g id="edge9_Node000008_Node000009" class="edge">
<title>Node8&#45;&gt;Node9</title>
<g id="a_edge9_Node000008_Node000009"><a xlink:title=" ">
<path fill="none" stroke="#63b8ff" d="M401.54,-770.7C401.41,-748.34 402.08,-718.87 405.5,-693 407.33,-679.11 410.88,-663.89 414.16,-651.53"/>
<polygon fill="#63b8ff" stroke="#63b8ff" points="398.05,-770.79 401.66,-780.75 405.05,-770.71 398.05,-770.79"/>
</a>
</g>
</g>
<!-- Node8&#45;&gt;Node11 -->
<g id="edge12_Node000008_Node000011" class="edge">
<title>Node8&#45;&gt;Node11</title>
<g id="a_edge12_Node000008_Node000011"><a xlink:title=" ">
<path fill="none" stroke="#63b8ff" d="M439.56,-774.13C450.62,-764.62 462.59,-754.32 473.1,-745.29"/>
<polygon fill="#63b8ff" stroke="#63b8ff" points="436.99,-771.72 431.69,-780.89 441.56,-777.03 436.99,-771.72"/>
</a>
</g>
</g>
<!-- Node8&#45;&gt;Node12 -->
<g id="edge27_Node000008_Node000012" class="edge">
<title>Node8&#45;&gt;Node12</title>
<g id="a_edge27_Node000008_Node000012"><a xlink:title=" ">
<path fill="none" stroke="#63b8ff" d="M499.41,-794.57C534.74,-786.01 572.57,-771.06 599.5,-745 625.16,-720.17 634.77,-678.52 638.36,-651.79"/>
<polygon fill="#63b8ff" stroke="#63b8ff" points="498.5,-791.19 489.52,-796.82 500.05,-798.01 498.5,-791.19"/>
</a>
</g>
</g>
<!-- Node10 -->
<g id="Node000010" class="node">
<title>Node10</title>
<g id="a_Node000010"><a xlink:href="SpatialTree_8h.html" target="_top" xlink:title="Defines the SpatialTree class, a spatially subdivided map implementation.">
<polygon fill="white" stroke="#666666" points="669,-195 486,-195 486,-154 669,-154 669,-195"/>
<text text-anchor="start" x="494" y="-183" font-family="Helvetica,sans-Serif" font-size="10.00">/home/runner/work/Weaver</text>
<text text-anchor="start" x="494" y="-172" font-family="Helvetica,sans-Serif" font-size="10.00">/Weaver/include/App/Model</text>
<text text-anchor="middle" x="577.5" y="-161" font-family="Helvetica,sans-Serif" font-size="10.00">/IBM/Landscape/Map/SpatialTree.h</text>
</a>
</g>
</g>
<!-- Node9&#45;&gt;Node10 -->
<g id="edge10_Node000009_Node000010" class="edge">
<title>Node9&#45;&gt;Node10</title>
<g id="a_edge10_Node000009_Node000010"><a xlink:title=" ">
<path fill="none" stroke="#63b8ff" d="M370.58,-592.88C359.26,-583.19 348.77,-571.47 342.5,-558 301.99,-470.96 286.98,-346.42 390.5,-231 414.69,-204.02 451.33,-189.9 485.78,-182.6"/>
<polygon fill="#63b8ff" stroke="#63b8ff" points="368.52,-595.71 378.51,-599.26 372.91,-590.26 368.52,-595.71"/>
</a>
</g>
</g>
<!-- Node10&#45;&gt;Node2 -->
<g id="edge11_Node000010_Node000002" class="edge">
<title>Node10&#45;&gt;Node2</title>
<g id="a_edge11_Node000010_Node000002"><a xlink:title=" ">
<path fill="none" stroke="#63b8ff" d="M515.05,-150.54C486.78,-140.15 453.71,-127.99 426.65,-118.04"/>
<polygon fill="#63b8ff" stroke="#63b8ff" points="513.84,-153.82 524.43,-153.99 516.26,-147.25 513.84,-153.82"/>
</a>
</g>
</g>
<!-- Node11&#45;&gt;Node9 -->
<g id="edge13_Node000011_Node000009" class="edge">
<title>Node11&#45;&gt;Node9</title>
<g id="a_edge13_Node000011_Node000009"><a xlink:title=" ">
<path fill="none" stroke="#63b8ff" d="M473.48,-685.22C463.74,-674.22 453.04,-662.13 443.89,-651.79"/>
<polygon fill="#63b8ff" stroke="#63b8ff" points="471.12,-687.83 480.37,-693 476.36,-683.19 471.12,-687.83"/>
</a>
</g>
</g>
<!-- Node11&#45;&gt;Node12 -->
<g id="edge14_Node000011_Node000012" class="edge">
<title>Node11&#45;&gt;Node12</title>
<g id="a_edge14_Node000011_Node000012"><a xlink:title=" ">
<path fill="none" stroke="#63b8ff" d="M548.58,-687.45C566.04,-675.87 585.71,-662.83 602.36,-651.79"/>
<polygon fill="#63b8ff" stroke="#63b8ff" points="546.61,-684.55 540.21,-693 550.48,-690.39 546.61,-684.55"/>
</a>
</g>
</g>
<!-- Node12&#45;&gt;Node2 -->
<g id="edge15_Node000012_Node000002" class="edge">
<title>Node12&#45;&gt;Node2</title>
<g id="a_edge15_Node000012_Node000002"><a xlink:title=" ">
<path fill="none" stroke="#63b8ff" d="M553.15,-595.33C532.11,-585.63 510.75,-573.3 493.5,-558 455,-523.87 453.55,-506.38 433.5,-459 381.83,-336.88 374.54,-173.88 373.6,-118.14"/>
<polygon fill="#63b8ff" stroke="#63b8ff" points="551.89,-598.6 562.45,-599.46 554.73,-592.2 551.89,-598.6"/>
</a>
</g>
</g>
<!-- Node12&#45;&gt;Node10 -->
<g id="edge19_Node000012_Node000010" class="edge">
<title>Node12&#45;&gt;Node10</title>
<g id="a_edge19_Node000012_Node000010"><a xlink:title=" ">
<path fill="none" stroke="#63b8ff" d="M633.08,-589.3C625.71,-551.21 615.5,-488.58 615.5,-434 615.5,-434 615.5,-434 615.5,-344 615.5,-288.97 595.98,-226.26 584.92,-195.15"/>
<polygon fill="#63b8ff" stroke="#63b8ff" points="629.7,-590.24 635.08,-599.37 636.57,-588.88 629.7,-590.24"/>
</a>
</g>
</g>
<!-- Node13 -->
<g id="Node000013" class="node">
<title>Node13</title>
<g id="a_Node000013"><a xlink:href="Map_8h.html" target="_top" xlink:title="Defines the Map class for spatial organization of landscapes.">
<polygon fill="white" stroke="#666666" points="549.5,-277.5 399.5,-277.5 399.5,-236.5 549.5,-236.5 549.5,-277.5"/>
<text text-anchor="start" x="407.5" y="-265.5" font-family="Helvetica,sans-Serif" font-size="10.00">/home/runner/work/Weaver</text>
<text text-anchor="start" x="407.5" y="-254.5" font-family="Helvetica,sans-Serif" font-size="10.00">/Weaver/include/App/Model</text>
<text text-anchor="middle" x="474.5" y="-243.5" font-family="Helvetica,sans-Serif" font-size="10.00">/IBM/Landscape/Map/Map.h</text>
</a>
</g>
</g>
<!-- Node12&#45;&gt;Node13 -->
<g id="edge16_Node000012_Node000013" class="edge">
<title>Node12&#45;&gt;Node13</title>
<g id="a_edge16_Node000012_Node000013"><a xlink:title=" ">
<path fill="none" stroke="#63b8ff" d="M599.09,-593.13C545.9,-549.93 456.18,-466.54 420.5,-371 412.42,-349.35 412.31,-340.61 420.5,-319 426.57,-303 438.96,-288.49 450.35,-277.65"/>
<polygon fill="#63b8ff" stroke="#63b8ff" points="596.99,-595.93 606.98,-599.46 601.37,-590.47 596.99,-595.93"/>
</a>
</g>
</g>
<!-- Node14 -->
<g id="Node000014" class="node">
<title>Node14</title>
<g id="a_Node000014"><a xlink:href="SpatialTreeTerrainCell_8h.html" target="_top" xlink:title="Spatial tree implementation of a terrain cell.">
<polygon fill="white" stroke="#666666" points="875.5,-552.5 681.5,-552.5 681.5,-500.5 875.5,-500.5 875.5,-552.5"/>
<text text-anchor="start" x="689.5" y="-540.5" font-family="Helvetica,sans-Serif" font-size="10.00">/home/runner/work/Weaver</text>
<text text-anchor="start" x="689.5" y="-529.5" font-family="Helvetica,sans-Serif" font-size="10.00">/Weaver/include/App/Model</text>
<text text-anchor="start" x="689.5" y="-518.5" font-family="Helvetica,sans-Serif" font-size="10.00">/IBM/Landscape/Map/SpatialTree</text>
<text text-anchor="middle" x="778.5" y="-507.5" font-family="Helvetica,sans-Serif" font-size="10.00">/TerrainCells/SpatialTreeTerrainCell.h</text>
</a>
</g>
</g>
<!-- Node12&#45;&gt;Node14 -->
<g id="edge20_Node000012_Node000014" class="edge">
<title>Node12&#45;&gt;Node14</title>
<g id="a_edge20_Node000012_Node000014"><a xlink:title=" ">
<path fill="none" stroke="#63b8ff" d="M684.79,-593.37C703.53,-580.19 725.08,-565.05 742.78,-552.61"/>
<polygon fill="#63b8ff" stroke="#63b8ff" points="682.57,-590.65 676.4,-599.27 686.59,-596.38 682.57,-590.65"/>
</a>
</g>
</g>
<!-- Node13&#45;&gt;Node2 -->
<g id="edge17_Node000013_Node000002" class="edge">
<title>Node13&#45;&gt;Node2</title>
<g id="a_edge17_Node000013_Node000002"><a xlink:title=" ">
<path fill="none" stroke="#63b8ff" d="M456.3,-227.61C436.08,-196.08 403.95,-145.98 386.25,-118.38"/>
<polygon fill="#63b8ff" stroke="#63b8ff" points="453.57,-229.84 461.91,-236.37 459.46,-226.06 453.57,-229.84"/>
</a>
</g>
</g>
<!-- Node13&#45;&gt;Node10 -->
<g id="edge18_Node000013_Node000010" class="edge">
<title>Node13&#45;&gt;Node10</title>
<g id="a_edge18_Node000013_Node000010"><a xlink:title=" ">
<path fill="none" stroke="#63b8ff" d="M507.88,-229.91C522.28,-218.65 538.85,-205.71 552.21,-195.27"/>
<polygon fill="#63b8ff" stroke="#63b8ff" points="505.42,-227.39 499.7,-236.31 509.73,-232.91 505.42,-227.39"/>
</a>
</g>
</g>
<!-- Node14&#45;&gt;Node10 -->
<g id="edge21_Node000014_Node000010" class="edge">
<title>Node14&#45;&gt;Node10</title>
<g id="a_edge21_Node000014_Node000010"><a xlink:title=" ">
<path fill="none" stroke="#63b8ff" d="M764.79,-490.84C741.44,-433.91 690.53,-318.2 629.5,-231 620.49,-218.13 608.62,-205.23 598.5,-195.11"/>
<polygon fill="#63b8ff" stroke="#63b8ff" points="761.55,-492.17 768.56,-500.12 768.03,-489.54 761.55,-492.17"/>
</a>
</g>
</g>
<!-- Node15 -->
<g id="Node000015" class="node">
<title>Node15</title>
<g id="a_Node000015"><a xlink:href="BranchTerrainCell_8h.html" target="_top" xlink:title="Branch node implementation of a spatial tree terrain cell.">
<polygon fill="white" stroke="#666666" points="1024.5,-371 850.5,-371 850.5,-319 1024.5,-319 1024.5,-371"/>
<text text-anchor="start" x="858.5" y="-359" font-family="Helvetica,sans-Serif" font-size="10.00">/home/runner/work/Weaver</text>
<text text-anchor="start" x="858.5" y="-348" font-family="Helvetica,sans-Serif" font-size="10.00">/Weaver/include/App/Model</text>
<text text-anchor="start" x="858.5" y="-337" font-family="Helvetica,sans-Serif" font-size="10.00">/IBM/Landscape/Map/SpatialTree</text>
<text text-anchor="middle" x="937.5" y="-326" font-family="Helvetica,sans-Serif" font-size="10.00">/TerrainCells/BranchTerrainCell.h</text>
</a>
</g>
</g>
<!-- Node14&#45;&gt;Node15 -->
<g id="edge22_Node000014_Node000015" class="edge">
<title>Node14&#45;&gt;Node15</title>
<g id="a_edge22_Node000014_Node000015"><a xlink:title=" ">
<path fill="none" stroke="#63b8ff" d="M791.45,-490.45C802.07,-465.15 819.01,-431.31 841.5,-407 854.51,-392.94 871.44,-380.78 887.46,-371.09"/>
<polygon fill="#63b8ff" stroke="#63b8ff" points="788.08,-489.45 787.56,-500.03 794.57,-492.08 788.08,-489.45"/>
</a>
</g>
</g>
<!-- Node17 -->
<g id="Node000017" class="node">
<title>Node17</title>
<g id="a_Node000017"><a xlink:href="LeafTerrainCell_8h.html" target="_top" xlink:title="Leaf node implementation of a spatial tree terrain cell.">
<polygon fill="white" stroke="#666666" points="1024.5,-459 850.5,-459 850.5,-407 1024.5,-407 1024.5,-459"/>
<text text-anchor="start" x="858.5" y="-447" font-family="Helvetica,sans-Serif" font-size="10.00">/home/runner/work/Weaver</text>
<text text-anchor="start" x="858.5" y="-436" font-family="Helvetica,sans-Serif" font-size="10.00">/Weaver/include/App/Model</text>
<text text-anchor="start" x="858.5" y="-425" font-family="Helvetica,sans-Serif" font-size="10.00">/IBM/Landscape/Map/SpatialTree</text>
<text text-anchor="middle" x="937.5" y="-414" font-family="Helvetica,sans-Serif" font-size="10.00">/TerrainCells/LeafTerrainCell.h</text>
</a>
</g>
</g>
<!-- Node14&#45;&gt;Node17 -->
<g id="edge25_Node000014_Node000017" class="edge">
<title>Node14&#45;&gt;Node17</title>
<g id="a_edge25_Node000014_Node000017"><a xlink:title=" ">
<path fill="none" stroke="#63b8ff" d="M830.81,-495.4C851.21,-483.66 874.34,-470.35 893.83,-459.13"/>
<polygon fill="#63b8ff" stroke="#63b8ff" points="828.87,-492.48 821.95,-500.5 832.36,-498.54 828.87,-492.48"/>
</a>
</g>
</g>
<!-- Node15&#45;&gt;Node16 -->
<g id="edge23_Node000015_Node000016" class="edge">
<title>Node15&#45;&gt;Node16</title>
<g id="a_edge23_Node000015_Node000016"><a xlink:title=" ">
<path fill="none" stroke="#63b8ff" d="M890.64,-313.24C875.68,-303.42 859.31,-292.67 845.02,-283.29"/>
<polygon fill="#63b8ff" stroke="#63b8ff" points="888.98,-316.33 899.26,-318.89 892.82,-310.48 888.98,-316.33"/>
</a>
</g>
</g>
<!-- Node16&#45;&gt;Node10 -->
<g id="edge24_Node000016_Node000010" class="edge">
<title>Node16&#45;&gt;Node10</title>
<g id="a_edge24_Node000016_Node000010"><a xlink:title=" ">
<path fill="none" stroke="#63b8ff" d="M725.5,-227.52C694.88,-216.76 660.77,-204.77 633.02,-195.02"/>
<polygon fill="#63b8ff" stroke="#63b8ff" points="724.7,-230.96 735.3,-230.97 727.02,-224.35 724.7,-230.96"/>
</a>
</g>
</g>
<!-- Node17&#45;&gt;Node15 -->
<g id="edge26_Node000017_Node000015" class="edge">
<title>Node17&#45;&gt;Node15</title>
<g id="a_edge26_Node000017_Node000015"><a xlink:title=" ">
<path fill="none" stroke="#63b8ff" d="M937.5,-396.56C937.5,-388.04 937.5,-379.1 937.5,-371.16"/>
<polygon fill="#63b8ff" stroke="#63b8ff" points="934,-396.66 937.5,-406.66 941,-396.66 934,-396.66"/>
</a>
</g>
</g>
<!-- Node18&#45;&gt;Node10 -->
<g id="edge30_Node000018_Node000010" class="edge">
<title>Node18&#45;&gt;Node10</title>
<g id="a_edge30_Node000018_Node000010"><a xlink:title=" ">
<path fill="none" stroke="#63b8ff" d="M540.72,-310.88C547.52,-302.36 553.99,-292.81 558.5,-283 571.72,-254.24 575.78,-217.26 577,-195.02"/>
<polygon fill="#63b8ff" stroke="#63b8ff" points="537.9,-308.8 534.16,-318.71 543.27,-313.29 537.9,-308.8"/>
</a>
</g>
</g>
<!-- Node18&#45;&gt;Node13 -->
<g id="edge29_Node000018_Node000013" class="edge">
<title>Node18&#45;&gt;Node13</title>
<g id="a_edge29_Node000018_Node000013"><a xlink:title=" ">
<path fill="none" stroke="#63b8ff" d="M494.71,-309.11C490.48,-298.41 485.97,-287.01 482.29,-277.7"/>
<polygon fill="#63b8ff" stroke="#63b8ff" points="491.55,-310.65 498.48,-318.66 498.06,-308.08 491.55,-310.65"/>
</a>
</g>
</g>
<!-- Node20 -->
<g id="Node000020" class="node">
<title>Node20</title>
<g id="a_Node000020"><a xlink:href="BranchCellResource_8h.html" target="_top" xlink:title="Defines the BranchCellResource class for managing resources in branch terrain cells.">
<polygon fill="white" stroke="#666666" points="1262,-657 1083,-657 1083,-594 1262,-594 1262,-657"/>
<text text-anchor="start" x="1091" y="-645" font-family="Helvetica,sans-Serif" font-size="10.00">/home/runner/work/Weaver</text>
<text text-anchor="start" x="1091" y="-634" font-family="Helvetica,sans-Serif" font-size="10.00">/Weaver/include/App/Model</text>
<text text-anchor="start" x="1091" y="-623" font-family="Helvetica,sans-Serif" font-size="10.00">/IBM/Landscape/Map/SpatialTree</text>
<text text-anchor="start" x="1091" y="-612" font-family="Helvetica,sans-Serif" font-size="10.00">/TerrainCells/PatchApplicator</text>
<text text-anchor="middle" x="1172.5" y="-601" font-family="Helvetica,sans-Serif" font-size="10.00">/Resources/BranchCellResource.h</text>
</a>
</g>
</g>
<!-- Node19&#45;&gt;Node20 -->
<g id="edge35_Node000019_Node000020" class="edge">
<title>Node19&#45;&gt;Node20</title>
<g id="a_edge35_Node000019_Node000020"><a xlink:title=" ">
<path fill="none" stroke="#63b8ff" d="M1063.25,-879.94C1090.8,-870.08 1117.59,-855.26 1136.5,-833 1178.91,-783.08 1179.48,-701.27 1176.08,-657.09"/>
<polygon fill="#63b8ff" stroke="#63b8ff" points="1061.84,-876.72 1053.48,-883.22 1064.08,-883.35 1061.84,-876.72"/>
</a>
</g>
</g>
<!-- Node22 -->
<g id="Node000022" class="node">
<title>Node22</title>
<g id="a_Node000022"><a xlink:href="PatchApplicator_8h.html" target="_top" xlink:title="Defines the PatchApplicator class responsible for applying patches (moisture, resource,...">
<polygon fill="white" stroke="#666666" points="966.5,-745 784.5,-745 784.5,-693 966.5,-693 966.5,-745"/>
<text text-anchor="start" x="792.5" y="-733" font-family="Helvetica,sans-Serif" font-size="10.00">/home/runner/work/Weaver</text>
<text text-anchor="start" x="792.5" y="-722" font-family="Helvetica,sans-Serif" font-size="10.00">/Weaver/include/App/Model</text>
<text text-anchor="start" x="792.5" y="-711" font-family="Helvetica,sans-Serif" font-size="10.00">/IBM/Landscape/Map/TerrainCells</text>
<text text-anchor="middle" x="875.5" y="-700" font-family="Helvetica,sans-Serif" font-size="10.00">/PatchApplicator/PatchApplicator.h</text>
</a>
</g>
</g>
<!-- Node19&#45;&gt;Node22 -->
<g id="edge39_Node000019_Node000022" class="edge">
<title>Node19&#45;&gt;Node22</title>
<g id="a_edge39_Node000019_Node000022"><a xlink:title=" ">
<path fill="none" stroke="#63b8ff" d="M910.81,-860.71C904.54,-852.07 898.68,-842.6 894.5,-833 882.12,-804.54 877.77,-768.81 876.26,-745.23"/>
<polygon fill="#63b8ff" stroke="#63b8ff" points="908.06,-862.87 916.9,-868.72 913.63,-858.64 908.06,-862.87"/>
</a>
</g>
</g>
<!-- Node25 -->
<g id="Node000025" class="node">
<title>Node25</title>
<g id="a_Node000025"><a xlink:href="CellResource_8h.html" target="_top" xlink:title="Implementation of a resource cell in a terrain.">
<polygon fill="white" stroke="#666666" points="1127.5,-833 903.5,-833 903.5,-781 1127.5,-781 1127.5,-833"/>
<text text-anchor="start" x="911.5" y="-821" font-family="Helvetica,sans-Serif" font-size="10.00">/home/runner/work/Weaver</text>
<text text-anchor="start" x="911.5" y="-810" font-family="Helvetica,sans-Serif" font-size="10.00">/Weaver/include/App/Model</text>
<text text-anchor="start" x="911.5" y="-799" font-family="Helvetica,sans-Serif" font-size="10.00">/IBM/Landscape/Map/TerrainCells</text>
<text text-anchor="middle" x="1015.5" y="-788" font-family="Helvetica,sans-Serif" font-size="10.00">/PatchApplicator/Resources/CellResource.h</text>
</a>
</g>
</g>
<!-- Node19&#45;&gt;Node25 -->
<g id="edge46_Node000019_Node000025" class="edge">
<title>Node19&#45;&gt;Node25</title>
<g id="a_edge46_Node000019_Node000025"><a xlink:title=" ">
<path fill="none" stroke="#63b8ff" d="M975.19,-860.69C982.36,-851.32 989.83,-841.56 996.36,-833.02"/>
<polygon fill="#63b8ff" stroke="#63b8ff" points="972.3,-858.71 969,-868.78 977.86,-862.96 972.3,-858.71"/>
</a>
</g>
</g>
<!-- Node20&#45;&gt;Node15 -->
<g id="edge36_Node000020_Node000015" class="edge">
<title>Node20&#45;&gt;Node15</title>
<g id="a_edge36_Node000020_Node000015"><a xlink:title=" ">
<path fill="none" stroke="#63b8ff" d="M1243.75,-587.44C1253.71,-579.13 1262.56,-569.34 1268.5,-558 1281.49,-533.2 1283.57,-518.6 1268.5,-495 1215.4,-411.89 1103.52,-374.71 1024.57,-358.36"/>
<polygon fill="#63b8ff" stroke="#63b8ff" points="1241.32,-584.9 1235.56,-593.8 1245.61,-590.43 1241.32,-584.9"/>
</a>
</g>
</g>
<!-- Node21 -->
<g id="Node000021" class="node">
<title>Node21</title>
<g id="a_Node000021"><a xlink:href="BranchPatchApplicator_8h.html" target="_top" xlink:title="Defines the BranchPatchApplicator class for applying patches to branch terrain cells in a spatial tre...">
<polygon fill="white" stroke="#666666" points="1259.5,-558 1085.5,-558 1085.5,-495 1259.5,-495 1259.5,-558"/>
<text text-anchor="start" x="1093.5" y="-546" font-family="Helvetica,sans-Serif" font-size="10.00">/home/runner/work/Weaver</text>
<text text-anchor="start" x="1093.5" y="-535" font-family="Helvetica,sans-Serif" font-size="10.00">/Weaver/include/App/Model</text>
<text text-anchor="start" x="1093.5" y="-524" font-family="Helvetica,sans-Serif" font-size="10.00">/IBM/Landscape/Map/SpatialTree</text>
<text text-anchor="start" x="1093.5" y="-513" font-family="Helvetica,sans-Serif" font-size="10.00">/TerrainCells/PatchApplicator</text>
<text text-anchor="middle" x="1172.5" y="-502" font-family="Helvetica,sans-Serif" font-size="10.00">/BranchPatchApplicator.h</text>
</a>
</g>
</g>
<!-- Node20&#45;&gt;Node21 -->
<g id="edge37_Node000020_Node000021" class="edge">
<title>Node20&#45;&gt;Node21</title>
<g id="a_edge37_Node000020_Node000021"><a xlink:title=" ">
<path fill="none" stroke="#63b8ff" d="M1172.5,-583.69C1172.5,-575.2 1172.5,-566.38 1172.5,-558.32"/>
<polygon fill="#63b8ff" stroke="#63b8ff" points="1169,-583.81 1172.5,-593.81 1176,-583.81 1169,-583.81"/>
</a>
</g>
</g>
<!-- Node21&#45;&gt;Node15 -->
<g id="edge38_Node000021_Node000015" class="edge">
<title>Node21&#45;&gt;Node15</title>
<g id="a_edge38_Node000021_Node000015"><a xlink:title=" ">
<path fill="none" stroke="#63b8ff" d="M1131.6,-487.99C1104.55,-463.85 1067.86,-432.37 1033.5,-407 1016.5,-394.45 996.94,-381.73 979.93,-371.18"/>
<polygon fill="#63b8ff" stroke="#63b8ff" points="1129.53,-490.84 1139.32,-494.91 1134.21,-485.63 1129.53,-490.84"/>
</a>
</g>
</g>
<!-- Node22&#45;&gt;Node12 -->
<g id="edge45_Node000022_Node000012" class="edge">
<title>Node22&#45;&gt;Node12</title>
<g id="a_edge45_Node000022_Node000012"><a xlink:title=" ">
<path fill="none" stroke="#63b8ff" d="M801.82,-689.31C770.8,-677.23 735.01,-663.3 705.05,-651.63"/>
<polygon fill="#63b8ff" stroke="#63b8ff" points="800.7,-692.63 811.29,-693 803.24,-686.11 800.7,-692.63"/>
</a>
</g>
</g>
<!-- Node23 -->
<g id="Node000023" class="node">
<title>Node23</title>
<g id="a_Node000023"><a xlink:href="SpatialTreePatchApplicator_8h.html" target="_top" xlink:title="Defines the SpatialTreePatchApplicator class for applying patches in a spatial tree of terrain cells.">
<polygon fill="white" stroke="#666666" points="983.5,-657 809.5,-657 809.5,-594 983.5,-594 983.5,-657"/>
<text text-anchor="start" x="817.5" y="-645" font-family="Helvetica,sans-Serif" font-size="10.00">/home/runner/work/Weaver</text>
<text text-anchor="start" x="817.5" y="-634" font-family="Helvetica,sans-Serif" font-size="10.00">/Weaver/include/App/Model</text>
<text text-anchor="start" x="817.5" y="-623" font-family="Helvetica,sans-Serif" font-size="10.00">/IBM/Landscape/Map/SpatialTree</text>
<text text-anchor="start" x="817.5" y="-612" font-family="Helvetica,sans-Serif" font-size="10.00">/TerrainCells/PatchApplicator</text>
<text text-anchor="middle" x="896.5" y="-601" font-family="Helvetica,sans-Serif" font-size="10.00">/SpatialTreePatchApplicator.h</text>
</a>
</g>
</g>
<!-- Node22&#45;&gt;Node23 -->
<g id="edge40_Node000022_Node000023" class="edge">
<title>Node22&#45;&gt;Node23</title>
<g id="a_edge40_Node000022_Node000023"><a xlink:title=" ">
<path fill="none" stroke="#63b8ff" d="M883.48,-683.21C885.46,-674.59 887.57,-665.42 889.5,-657.02"/>
<polygon fill="#63b8ff" stroke="#63b8ff" points="880.06,-682.47 881.24,-693 886.89,-684.03 880.06,-682.47"/>
</a>
</g>
</g>
<!-- Node23&#45;&gt;Node14 -->
<g id="edge44_Node000023_Node000014" class="edge">
<title>Node23&#45;&gt;Node14</title>
<g id="a_edge44_Node000023_Node000014"><a xlink:title=" ">
<path fill="none" stroke="#63b8ff" d="M851.08,-587.16C837.09,-575.67 822.03,-563.28 809.27,-552.8"/>
<polygon fill="#63b8ff" stroke="#63b8ff" points="849.22,-590.16 859.16,-593.81 853.66,-584.75 849.22,-590.16"/>
</a>
</g>
</g>
<!-- Node23&#45;&gt;Node21 -->
<g id="edge41_Node000023_Node000021" class="edge">
<title>Node23&#45;&gt;Node21</title>
<g id="a_edge41_Node000023_Node000021"><a xlink:title=" ">
<path fill="none" stroke="#63b8ff" d="M993.1,-590.55C1023.18,-579.98 1056.14,-568.39 1085.51,-558.07"/>
<polygon fill="#63b8ff" stroke="#63b8ff" points="991.72,-587.32 983.45,-593.94 994.04,-593.93 991.72,-587.32"/>
</a>
</g>
</g>
<!-- Node24 -->
<g id="Node000024" class="node">
<title>Node24</title>
<g id="a_Node000024"><a xlink:href="LeafPatchApplicator_8h.html" target="_top" xlink:title="Defines the LeafPatchApplicator class for applying patches to leaf terrain cells in a spatial tree.">
<polygon fill="white" stroke="#666666" points="1067.5,-558 893.5,-558 893.5,-495 1067.5,-495 1067.5,-558"/>
<text text-anchor="start" x="901.5" y="-546" font-family="Helvetica,sans-Serif" font-size="10.00">/home/runner/work/Weaver</text>
<text text-anchor="start" x="901.5" y="-535" font-family="Helvetica,sans-Serif" font-size="10.00">/Weaver/include/App/Model</text>
<text text-anchor="start" x="901.5" y="-524" font-family="Helvetica,sans-Serif" font-size="10.00">/IBM/Landscape/Map/SpatialTree</text>
<text text-anchor="start" x="901.5" y="-513" font-family="Helvetica,sans-Serif" font-size="10.00">/TerrainCells/PatchApplicator</text>
<text text-anchor="middle" x="980.5" y="-502" font-family="Helvetica,sans-Serif" font-size="10.00">/LeafPatchApplicator.h</text>
</a>
</g>
</g>
<!-- Node23&#45;&gt;Node24 -->
<g id="edge42_Node000023_Node000024" class="edge">
<title>Node23&#45;&gt;Node24</title>
<g id="a_edge42_Node000023_Node000024"><a xlink:title=" ">
<path fill="none" stroke="#63b8ff" d="M929.67,-586.19C937.68,-576.95 946.14,-567.18 953.81,-558.32"/>
<polygon fill="#63b8ff" stroke="#63b8ff" points="926.98,-583.96 923.08,-593.81 932.27,-588.54 926.98,-583.96"/>
</a>
</g>
</g>
<!-- Node24&#45;&gt;Node17 -->
<g id="edge43_Node000024_Node000017" class="edge">
<title>Node24&#45;&gt;Node17</title>
<g id="a_edge43_Node000024_Node000017"><a xlink:title=" ">
<path fill="none" stroke="#63b8ff" d="M961.73,-485.55C957.49,-476.54 953.11,-467.21 949.26,-459.02"/>
<polygon fill="#63b8ff" stroke="#63b8ff" points="958.64,-487.22 966.06,-494.78 964.98,-484.24 958.64,-487.22"/>
</a>
</g>
</g>
<!-- Node25&#45;&gt;Node2 -->
<g id="edge47_Node000025_Node000002" class="edge">
<title>Node25&#45;&gt;Node2</title>
<g id="a_edge47_Node000025_Node000002"><a xlink:title=" ">
<path fill="none" stroke="#63b8ff" d="M1137.81,-785.4C1224.51,-762.99 1325.5,-717.37 1325.5,-626.5 1325.5,-626.5 1325.5,-626.5 1325.5,-256 1325.5,-167.74 680.3,-118.06 452.22,-103.25"/>
<polygon fill="#63b8ff" stroke="#63b8ff" points="1136.71,-782.07 1127.86,-787.89 1138.41,-788.86 1136.71,-782.07"/>
</a>
</g>
</g>
<!-- Node25&#45;&gt;Node12 -->
<g id="edge50_Node000025_Node000012" class="edge">
<title>Node25&#45;&gt;Node12</title>
<g id="a_edge50_Node000025_Node000012"><a xlink:title=" ">
<path fill="none" stroke="#63b8ff" d="M1012.18,-770.91C1007.88,-745.57 998.05,-712.51 975.5,-693 973.13,-690.95 827.47,-662.54 729.02,-643.53"/>
<polygon fill="#63b8ff" stroke="#63b8ff" points="1008.73,-771.5 1013.66,-780.88 1015.65,-770.48 1008.73,-771.5"/>
</a>
</g>
</g>
<!-- Node25&#45;&gt;Node22 -->
<g id="edge49_Node000025_Node000022" class="edge">
<title>Node25&#45;&gt;Node22</title>
<g id="a_edge49_Node000025_Node000022"><a xlink:title=" ">
<path fill="none" stroke="#63b8ff" d="M965.87,-775.51C949.76,-765.62 932.08,-754.76 916.66,-745.29"/>
<polygon fill="#63b8ff" stroke="#63b8ff" points="964.28,-778.64 974.63,-780.89 967.94,-772.68 964.28,-778.64"/>
</a>
</g>
</g>
<!-- Node25&#45;&gt;Node24 -->
<g id="edge48_Node000025_Node000024" class="edge">
<title>Node25&#45;&gt;Node24</title>
<g id="a_edge48_Node000025_Node000024"><a xlink:title=" ">
<path fill="none" stroke="#63b8ff" d="M1012.58,-770.75C1008.87,-728.58 1001.83,-655.93 992.5,-594 990.73,-582.28 988.49,-569.46 986.43,-558.23"/>
<polygon fill="#63b8ff" stroke="#63b8ff" points="1009.1,-771.12 1013.45,-780.78 1016.07,-770.52 1009.1,-771.12"/>
</a>
</g>
</g>
</g>
</svg>
