<?xml version="1.0" encoding="UTF-8" standalone="no"?>
<!DOCTYPE svg PUBLIC "-//W3C//DTD SVG 1.1//EN"
 "http://www.w3.org/Graphics/SVG/1.1/DTD/svg11.dtd">
<!-- Generated by graphviz version 2.43.0 (0)
 -->
<!-- Title: /home/runner/work/Weaver/Weaver/include/App/Model/IBM/Landscape/LivingBeings/Animals/Genetics/Gamete.h Pages: 1 -->
<svg width="1366pt" height="478pt"
 viewBox="0.00 0.00 1365.93 478.00" xmlns="http://www.w3.org/2000/svg" xmlns:xlink="http://www.w3.org/1999/xlink">
<g id="graph0" class="graph" transform="scale(1 1) rotate(0) translate(4 474)">
<title>/home/runner/work/Weaver/Weaver/include/App/Model/IBM/Landscape/LivingBeings/Animals/Genetics/Gamete.h</title>
<!-- Node1 -->
<g id="Node000001" class="node">
<title>Node1</title>
<g id="a_Node000001"><a xlink:title="Defines the Gamete class used in the genetic model.">
<polygon fill="#999999" stroke="#666666" points="1252.43,-470 1094.43,-470 1094.43,-418 1252.43,-418 1252.43,-470"/>
<text text-anchor="start" x="1102.43" y="-458" font-family="Helvetica,sans-Serif" font-size="10.00">/home/runner/work/Weaver</text>
<text text-anchor="start" x="1102.43" y="-447" font-family="Helvetica,sans-Serif" font-size="10.00">/Weaver/include/App/Model</text>
<text text-anchor="start" x="1102.43" y="-436" font-family="Helvetica,sans-Serif" font-size="10.00">/IBM/Landscape/LivingBeings</text>
<text text-anchor="middle" x="1173.43" y="-425" font-family="Helvetica,sans-Serif" font-size="10.00">/Animals/Genetics/Gamete.h</text>
</a>
</g>
</g>
<!-- Node2 -->
<g id="Node000002" class="node">
<title>Node2</title>
<g id="a_Node000002"><a xlink:title=" ">
<polygon fill="#e0e0e0" stroke="#999999" points="1251.93,-156.5 1204.93,-156.5 1204.93,-137.5 1251.93,-137.5 1251.93,-156.5"/>
<text text-anchor="middle" x="1228.43" y="-144.5" font-family="Helvetica,sans-Serif" font-size="10.00">vector</text>
</a>
</g>
</g>
<!-- Node1&#45;&gt;Node2 -->
<g id="edge1_Node000001_Node000002" class="edge">
<title>Node1&#45;&gt;Node2</title>
<g id="a_edge1_Node000001_Node000002"><a xlink:title=" ">
<path fill="none" stroke="#63b8ff" d="M1188.69,-417.92C1194.66,-407.18 1201.11,-394.3 1205.43,-382 1232.88,-303.82 1241.18,-280.66 1235.43,-198 1234.71,-187.68 1233.16,-176.25 1231.71,-166.93"/>
<polygon fill="#63b8ff" stroke="#63b8ff" points="1235.12,-166.11 1230.04,-156.81 1228.21,-167.25 1235.12,-166.11"/>
</a>
</g>
</g>
<!-- Node3 -->
<g id="Node000003" class="node">
<title>Node3</title>
<g id="a_Node000003"><a xlink:href="Chromosome_8h.html" target="_top" xlink:title="Defines the Chromosome class used in the genetic model.">
<polygon fill="white" stroke="#666666" points="1195.93,-382 1050.93,-382 1050.93,-341 1195.93,-341 1195.93,-382"/>
<text text-anchor="start" x="1058.93" y="-370" font-family="Helvetica,sans-Serif" font-size="10.00">App/Model/IBM/Landscape</text>
<text text-anchor="start" x="1058.93" y="-359" font-family="Helvetica,sans-Serif" font-size="10.00">/LivingBeings/Animals</text>
<text text-anchor="middle" x="1123.43" y="-348" font-family="Helvetica,sans-Serif" font-size="10.00">/Genetics/Chromosome.h</text>
</a>
</g>
</g>
<!-- Node1&#45;&gt;Node3 -->
<g id="edge2_Node000001_Node000003" class="edge">
<title>Node1&#45;&gt;Node3</title>
<g id="a_edge2_Node000001_Node000003"><a xlink:title=" ">
<path fill="none" stroke="#63b8ff" d="M1157.88,-417.97C1152.5,-409.32 1146.45,-399.56 1140.92,-390.67"/>
<polygon fill="#63b8ff" stroke="#63b8ff" points="1143.88,-388.79 1135.63,-382.15 1137.93,-392.49 1143.88,-388.79"/>
</a>
</g>
</g>
<!-- Node3&#45;&gt;Node2 -->
<g id="edge5_Node000003_Node000002" class="edge">
<title>Node3&#45;&gt;Node2</title>
<g id="a_edge5_Node000003_Node000002"><a xlink:title=" ">
<path fill="none" stroke="#63b8ff" d="M1155.01,-340.94C1167.77,-331.54 1181.55,-319.22 1190.43,-305 1218.09,-260.71 1225.61,-197.78 1227.66,-166.77"/>
<polygon fill="#63b8ff" stroke="#63b8ff" points="1231.17,-166.72 1228.21,-156.55 1224.18,-166.35 1231.17,-166.72"/>
</a>
</g>
</g>
<!-- Node4 -->
<g id="Node000004" class="node">
<title>Node4</title>
<g id="a_Node000004"><a xlink:title=" ">
<polygon fill="#e0e0e0" stroke="#999999" points="471.93,-228 364.93,-228 364.93,-198 471.93,-198 471.93,-228"/>
<text text-anchor="start" x="372.93" y="-216" font-family="Helvetica,sans-Serif" font-size="10.00">boost/serialization</text>
<text text-anchor="middle" x="418.43" y="-205" font-family="Helvetica,sans-Serif" font-size="10.00">/export.hpp</text>
</a>
</g>
</g>
<!-- Node3&#45;&gt;Node4 -->
<g id="edge3_Node000003_Node000004" class="edge">
<title>Node3&#45;&gt;Node4</title>
<g id="a_edge3_Node000003_Node000004"><a xlink:title=" ">
<path fill="none" stroke="#63b8ff" d="M1050.7,-351.74C977.11,-342.32 860.28,-325.85 760.43,-305 658.74,-283.76 542.2,-250.89 474.77,-231.01"/>
<polygon fill="#63b8ff" stroke="#63b8ff" points="475.37,-227.53 464.79,-228.05 473.38,-234.24 475.37,-227.53"/>
</a>
</g>
</g>
<!-- Node5 -->
<g id="Node000005" class="node">
<title>Node5</title>
<g id="a_Node000005"><a xlink:title=" ">
<polygon fill="#e0e0e0" stroke="#999999" points="1147.93,-299.5 1040.93,-299.5 1040.93,-269.5 1147.93,-269.5 1147.93,-299.5"/>
<text text-anchor="start" x="1048.93" y="-287.5" font-family="Helvetica,sans-Serif" font-size="10.00">boost/serialization</text>
<text text-anchor="middle" x="1094.43" y="-276.5" font-family="Helvetica,sans-Serif" font-size="10.00">/vector.hpp</text>
</a>
</g>
</g>
<!-- Node3&#45;&gt;Node5 -->
<g id="edge4_Node000003_Node000005" class="edge">
<title>Node3&#45;&gt;Node5</title>
<g id="a_edge4_Node000003_Node000005"><a xlink:title=" ">
<path fill="none" stroke="#63b8ff" d="M1115.81,-340.79C1112.08,-331.16 1107.57,-319.48 1103.65,-309.35"/>
<polygon fill="#63b8ff" stroke="#63b8ff" points="1106.85,-307.93 1099.98,-299.86 1100.32,-310.45 1106.85,-307.93"/>
</a>
</g>
</g>
<!-- Node6 -->
<g id="Node000006" class="node">
<title>Node6</title>
<g id="a_Node000006"><a xlink:title=" ">
<polygon fill="#e0e0e0" stroke="#999999" points="1235.93,-90.5 1178.93,-90.5 1178.93,-71.5 1235.93,-71.5 1235.93,-90.5"/>
<text text-anchor="middle" x="1207.43" y="-78.5" font-family="Helvetica,sans-Serif" font-size="10.00">ostream</text>
</a>
</g>
</g>
<!-- Node3&#45;&gt;Node6 -->
<g id="edge6_Node000003_Node000006" class="edge">
<title>Node3&#45;&gt;Node6</title>
<g id="a_edge6_Node000003_Node000006"><a xlink:title=" ">
<path fill="none" stroke="#63b8ff" d="M1137.07,-340.98C1143.74,-330.68 1151.39,-317.59 1156.43,-305 1160.29,-295.34 1192.02,-151.98 1203.39,-100.36"/>
<polygon fill="#63b8ff" stroke="#63b8ff" points="1206.82,-101.08 1205.55,-90.56 1199.98,-99.58 1206.82,-101.08"/>
</a>
</g>
</g>
<!-- Node7 -->
<g id="Node000007" class="node">
<title>Node7</title>
<g id="a_Node000007"><a xlink:href="Allele_8h.html" target="_top" xlink:title="Defines the Allele class, representing a genetic allele with a unique identifier, a numerical value,...">
<polygon fill="white" stroke="#666666" points="914.93,-305 769.93,-305 769.93,-264 914.93,-264 914.93,-305"/>
<text text-anchor="start" x="777.93" y="-293" font-family="Helvetica,sans-Serif" font-size="10.00">App/Model/IBM/Landscape</text>
<text text-anchor="start" x="777.93" y="-282" font-family="Helvetica,sans-Serif" font-size="10.00">/LivingBeings/Animals</text>
<text text-anchor="middle" x="842.43" y="-271" font-family="Helvetica,sans-Serif" font-size="10.00">/Species/Genetics/Allele.h</text>
</a>
</g>
</g>
<!-- Node3&#45;&gt;Node7 -->
<g id="edge7_Node000003_Node000007" class="edge">
<title>Node3&#45;&gt;Node7</title>
<g id="a_edge7_Node000003_Node000007"><a xlink:title=" ">
<path fill="none" stroke="#63b8ff" d="M1050.7,-341.09C1012.24,-330.82 964.87,-318.18 925.03,-307.55"/>
<polygon fill="#63b8ff" stroke="#63b8ff" points="925.9,-304.16 915.34,-304.96 924.1,-310.92 925.9,-304.16"/>
</a>
</g>
</g>
<!-- Node7&#45;&gt;Node4 -->
<g id="edge8_Node000007_Node000004" class="edge">
<title>Node7&#45;&gt;Node4</title>
<g id="a_edge8_Node000007_Node000004"><a xlink:title=" ">
<path fill="none" stroke="#63b8ff" d="M769.71,-273.88C698.65,-264.12 587.22,-247.91 481.98,-228.23"/>
<polygon fill="#63b8ff" stroke="#63b8ff" points="482.62,-224.78 472.15,-226.37 481.33,-231.66 482.62,-224.78"/>
</a>
</g>
</g>
<!-- Node7&#45;&gt;Node6 -->
<g id="edge9_Node000007_Node000006" class="edge">
<title>Node7&#45;&gt;Node6</title>
<g id="a_edge9_Node000007_Node000006"><a xlink:title=" ">
<path fill="none" stroke="#63b8ff" d="M900.88,-263.94C958.68,-243.21 1048.39,-207.23 1118.43,-162 1147.07,-143.5 1175.57,-115.83 1192.34,-98.36"/>
<polygon fill="#63b8ff" stroke="#63b8ff" points="1195.26,-100.37 1199.57,-90.69 1190.17,-95.56 1195.26,-100.37"/>
</a>
</g>
</g>
<!-- Node8 -->
<g id="Node000008" class="node">
<title>Node8</title>
<g id="a_Node000008"><a xlink:href="Random_8h.html" target="_top" xlink:title="Defines the Random class that provides various random number generation utilities.">
<polygon fill="white" stroke="#666666" points="612.93,-228 489.93,-228 489.93,-198 612.93,-198 612.93,-228"/>
<text text-anchor="start" x="497.93" y="-216" font-family="Helvetica,sans-Serif" font-size="10.00">App/Model/IBM/Maths</text>
<text text-anchor="middle" x="551.43" y="-205" font-family="Helvetica,sans-Serif" font-size="10.00">/Random.h</text>
</a>
</g>
</g>
<!-- Node7&#45;&gt;Node8 -->
<g id="edge10_Node000007_Node000008" class="edge">
<title>Node7&#45;&gt;Node8</title>
<g id="a_edge10_Node000007_Node000008"><a xlink:title=" ">
<path fill="none" stroke="#63b8ff" d="M769.75,-266.14C724.05,-255.23 665.43,-241.23 620.45,-230.48"/>
<polygon fill="#63b8ff" stroke="#63b8ff" points="621.02,-227.02 610.48,-228.1 619.4,-233.83 621.02,-227.02"/>
</a>
</g>
</g>
<!-- Node8&#45;&gt;Node2 -->
<g id="edge16_Node000008_Node000002" class="edge">
<title>Node8&#45;&gt;Node2</title>
<g id="a_edge16_Node000008_Node000002"><a xlink:title=" ">
<path fill="none" stroke="#63b8ff" d="M613.17,-207.34C717.42,-199.3 934.94,-181.76 1118.43,-162 1144.09,-159.24 1173.04,-155.53 1194.8,-152.62"/>
<polygon fill="#63b8ff" stroke="#63b8ff" points="1195.41,-156.07 1204.85,-151.27 1194.48,-149.13 1195.41,-156.07"/>
</a>
</g>
</g>
<!-- Node9 -->
<g id="Node000009" class="node">
<title>Node9</title>
<g id="a_Node000009"><a xlink:title=" ">
<polygon fill="#e0e0e0" stroke="#999999" points="276.93,-24.5 229.93,-24.5 229.93,-5.5 276.93,-5.5 276.93,-24.5"/>
<text text-anchor="middle" x="253.43" y="-12.5" font-family="Helvetica,sans-Serif" font-size="10.00">cmath</text>
</a>
</g>
</g>
<!-- Node8&#45;&gt;Node9 -->
<g id="edge11_Node000008_Node000009" class="edge">
<title>Node8&#45;&gt;Node9</title>
<g id="a_edge11_Node000008_Node000009"><a xlink:title=" ">
<path fill="none" stroke="#63b8ff" d="M489.54,-199.35C486.47,-198.86 483.41,-198.41 480.43,-198 428.2,-190.89 43.25,-200.66 7.43,-162 -11.12,-141.99 10.65,-80.05 25.43,-66 53.02,-39.77 162.93,-25.11 219.46,-19.16"/>
<polygon fill="#63b8ff" stroke="#63b8ff" points="220.09,-22.62 229.68,-18.12 219.38,-15.65 220.09,-22.62"/>
</a>
</g>
</g>
<!-- Node10 -->
<g id="Node000010" class="node">
<title>Node10</title>
<g id="a_Node000010"><a xlink:title=" ">
<polygon fill="#e0e0e0" stroke="#999999" points="91.93,-156.5 38.93,-156.5 38.93,-137.5 91.93,-137.5 91.93,-156.5"/>
<text text-anchor="middle" x="65.43" y="-144.5" font-family="Helvetica,sans-Serif" font-size="10.00">stdlib.h</text>
</a>
</g>
</g>
<!-- Node8&#45;&gt;Node10 -->
<g id="edge12_Node000008_Node000010" class="edge">
<title>Node8&#45;&gt;Node10</title>
<g id="a_edge12_Node000008_Node000010"><a xlink:title=" ">
<path fill="none" stroke="#63b8ff" d="M489.92,-199.48C486.71,-198.95 483.53,-198.45 480.43,-198 312.55,-173.56 265.31,-201.91 100.43,-162 98.12,-161.44 95.76,-160.76 93.42,-160"/>
<polygon fill="#63b8ff" stroke="#63b8ff" points="94.59,-156.7 83.99,-156.57 92.19,-163.28 94.59,-156.7"/>
</a>
</g>
</g>
<!-- Node11 -->
<g id="Node000011" class="node">
<title>Node11</title>
<g id="a_Node000011"><a xlink:title=" ">
<polygon fill="#e0e0e0" stroke="#999999" points="355.43,-24.5 295.43,-24.5 295.43,-5.5 355.43,-5.5 355.43,-24.5"/>
<text text-anchor="middle" x="325.43" y="-12.5" font-family="Helvetica,sans-Serif" font-size="10.00">iostream</text>
</a>
</g>
</g>
<!-- Node8&#45;&gt;Node11 -->
<g id="edge13_Node000008_Node000011" class="edge">
<title>Node8&#45;&gt;Node11</title>
<g id="a_edge13_Node000008_Node000011"><a xlink:title=" ">
<path fill="none" stroke="#63b8ff" d="M489.93,-199.42C486.72,-198.91 483.54,-198.43 480.43,-198 430.63,-191.13 63.53,-198.93 29.43,-162 -57.42,-67.95 163.15,-67.89 285.43,-30 287.68,-29.3 290,-28.56 292.32,-27.79"/>
<polygon fill="#63b8ff" stroke="#63b8ff" points="293.48,-31.1 301.83,-24.58 291.24,-24.47 293.48,-31.1"/>
</a>
</g>
</g>
<!-- Node12 -->
<g id="Node000012" class="node">
<title>Node12</title>
<g id="a_Node000012"><a xlink:title=" ">
<polygon fill="#e0e0e0" stroke="#999999" points="343.93,-156.5 296.93,-156.5 296.93,-137.5 343.93,-137.5 343.93,-156.5"/>
<text text-anchor="middle" x="320.43" y="-144.5" font-family="Helvetica,sans-Serif" font-size="10.00">float.h</text>
</a>
</g>
</g>
<!-- Node8&#45;&gt;Node12 -->
<g id="edge14_Node000008_Node000012" class="edge">
<title>Node8&#45;&gt;Node12</title>
<g id="a_edge14_Node000008_Node000012"><a xlink:title=" ">
<path fill="none" stroke="#63b8ff" d="M489.62,-198.97C450.21,-190.03 398.29,-177.08 353.43,-162 351.8,-161.45 350.15,-160.86 348.49,-160.25"/>
<polygon fill="#63b8ff" stroke="#63b8ff" points="349.67,-156.95 339.08,-156.5 347.08,-163.45 349.67,-156.95"/>
</a>
</g>
</g>
<!-- Node13 -->
<g id="Node000013" class="node">
<title>Node13</title>
<g id="a_Node000013"><a xlink:title=" ">
<polygon fill="#e0e0e0" stroke="#999999" points="394.43,-156.5 362.43,-156.5 362.43,-137.5 394.43,-137.5 394.43,-156.5"/>
<text text-anchor="middle" x="378.43" y="-144.5" font-family="Helvetica,sans-Serif" font-size="10.00">list</text>
</a>
</g>
</g>
<!-- Node8&#45;&gt;Node13 -->
<g id="edge15_Node000008_Node000013" class="edge">
<title>Node8&#45;&gt;Node13</title>
<g id="a_edge15_Node000008_Node000013"><a xlink:title=" ">
<path fill="none" stroke="#63b8ff" d="M502.58,-197.99C473.31,-188.99 435.65,-176.32 403.43,-162 402.87,-161.75 402.31,-161.5 401.75,-161.24"/>
<polygon fill="#63b8ff" stroke="#63b8ff" points="403.23,-158.06 392.74,-156.61 400.03,-164.29 403.23,-158.06"/>
</a>
</g>
</g>
<!-- Node14 -->
<g id="Node000014" class="node">
<title>Node14</title>
<g id="a_Node000014"><a xlink:title=" ">
<polygon fill="#e0e0e0" stroke="#999999" points="466.43,-156.5 412.43,-156.5 412.43,-137.5 466.43,-137.5 466.43,-156.5"/>
<text text-anchor="middle" x="439.43" y="-144.5" font-family="Helvetica,sans-Serif" font-size="10.00">random</text>
</a>
</g>
</g>
<!-- Node8&#45;&gt;Node14 -->
<g id="edge17_Node000008_Node000014" class="edge">
<title>Node8&#45;&gt;Node14</title>
<g id="a_edge17_Node000008_Node000014"><a xlink:title=" ">
<path fill="none" stroke="#63b8ff" d="M526.85,-197.95C507.9,-187.13 481.85,-172.24 463.13,-161.54"/>
<polygon fill="#63b8ff" stroke="#63b8ff" points="464.75,-158.44 454.33,-156.52 461.28,-164.52 464.75,-158.44"/>
</a>
</g>
</g>
<!-- Node15 -->
<g id="Node000015" class="node">
<title>Node15</title>
<g id="a_Node000015"><a xlink:title=" ">
<polygon fill="#e0e0e0" stroke="#999999" points="499.43,-24.5 435.43,-24.5 435.43,-5.5 499.43,-5.5 499.43,-24.5"/>
<text text-anchor="middle" x="467.43" y="-12.5" font-family="Helvetica,sans-Serif" font-size="10.00">algorithm</text>
</a>
</g>
</g>
<!-- Node8&#45;&gt;Node15 -->
<g id="edge18_Node000008_Node000015" class="edge">
<title>Node8&#45;&gt;Node15</title>
<g id="a_edge18_Node000008_Node000015"><a xlink:title=" ">
<path fill="none" stroke="#63b8ff" d="M538.34,-197.6C530.24,-188.07 520.14,-174.98 513.43,-162 491.11,-118.87 477.21,-62.92 471.09,-34.43"/>
<polygon fill="#63b8ff" stroke="#63b8ff" points="474.51,-33.71 469.06,-24.63 467.66,-35.13 474.51,-33.71"/>
</a>
</g>
</g>
<!-- Node16 -->
<g id="Node000016" class="node">
<title>Node16</title>
<g id="a_Node000016"><a xlink:title=" ">
<polygon fill="#e0e0e0" stroke="#999999" points="580.43,-156.5 522.43,-156.5 522.43,-137.5 580.43,-137.5 580.43,-156.5"/>
<text text-anchor="middle" x="551.43" y="-144.5" font-family="Helvetica,sans-Serif" font-size="10.00">memory</text>
</a>
</g>
</g>
<!-- Node8&#45;&gt;Node16 -->
<g id="edge19_Node000008_Node000016" class="edge">
<title>Node8&#45;&gt;Node16</title>
<g id="a_edge19_Node000008_Node000016"><a xlink:title=" ">
<path fill="none" stroke="#63b8ff" d="M551.43,-197.8C551.43,-188.7 551.43,-176.79 551.43,-166.9"/>
<polygon fill="#63b8ff" stroke="#63b8ff" points="554.93,-166.84 551.43,-156.84 547.93,-166.84 554.93,-166.84"/>
</a>
</g>
</g>
<!-- Node17 -->
<g id="Node000017" class="node">
<title>Node17</title>
<g id="a_Node000017"><a xlink:title=" ">
<polygon fill="#e0e0e0" stroke="#999999" points="708.43,-156.5 598.43,-156.5 598.43,-137.5 708.43,-137.5 708.43,-156.5"/>
<text text-anchor="middle" x="653.43" y="-144.5" font-family="Helvetica,sans-Serif" font-size="10.00">nlohmann/json.hpp</text>
</a>
</g>
</g>
<!-- Node8&#45;&gt;Node17 -->
<g id="edge20_Node000008_Node000017" class="edge">
<title>Node8&#45;&gt;Node17</title>
<g id="a_edge20_Node000008_Node000017"><a xlink:title=" ">
<path fill="none" stroke="#63b8ff" d="M573.81,-197.95C590.83,-187.27 614.14,-172.65 631.14,-161.98"/>
<polygon fill="#63b8ff" stroke="#63b8ff" points="633.24,-164.8 639.85,-156.52 629.52,-158.87 633.24,-164.8"/>
</a>
</g>
</g>
<!-- Node18 -->
<g id="Node000018" class="node">
<title>Node18</title>
<g id="a_Node000018"><a xlink:href="LineInfoException_8h.html" target="_top" xlink:title="Exception class with detailed file and line information for error reporting.">
<polygon fill="white" stroke="#666666" points="278.93,-156.5 109.93,-156.5 109.93,-137.5 278.93,-137.5 278.93,-156.5"/>
<text text-anchor="middle" x="194.43" y="-144.5" font-family="Helvetica,sans-Serif" font-size="10.00">Exceptions/LineInfoException.h</text>
</a>
</g>
</g>
<!-- Node8&#45;&gt;Node18 -->
<g id="edge21_Node000008_Node000018" class="edge">
<title>Node8&#45;&gt;Node18</title>
<g id="a_edge21_Node000008_Node000018"><a xlink:title=" ">
<path fill="none" stroke="#63b8ff" d="M489.87,-199.78C486.68,-199.17 483.51,-198.57 480.43,-198 402.82,-183.57 313.14,-168.08 255.2,-158.23"/>
<polygon fill="#63b8ff" stroke="#63b8ff" points="255.56,-154.74 245.12,-156.52 254.39,-161.65 255.56,-154.74"/>
</a>
</g>
</g>
<!-- Node21 -->
<g id="Node000021" class="node">
<title>Node21</title>
<g id="a_Node000021"><a xlink:href="Constants_8h.html" target="_top" xlink:title="Mathematical and physical constants used throughout the project.">
<polygon fill="white" stroke="#666666" points="849.93,-162 726.93,-162 726.93,-132 849.93,-132 849.93,-162"/>
<text text-anchor="start" x="734.93" y="-150" font-family="Helvetica,sans-Serif" font-size="10.00">App/Model/IBM/Maths</text>
<text text-anchor="middle" x="788.43" y="-139" font-family="Helvetica,sans-Serif" font-size="10.00">/Constants.h</text>
</a>
</g>
</g>
<!-- Node8&#45;&gt;Node21 -->
<g id="edge24_Node000008_Node000021" class="edge">
<title>Node8&#45;&gt;Node21</title>
<g id="a_edge24_Node000008_Node000021"><a xlink:title=" ">
<path fill="none" stroke="#63b8ff" d="M603.44,-197.95C639.71,-188.16 688.27,-175.05 726.54,-164.71"/>
<polygon fill="#63b8ff" stroke="#63b8ff" points="727.8,-168 736.54,-162.01 725.97,-161.24 727.8,-168"/>
</a>
</g>
</g>
<!-- Node22 -->
<g id="Node000022" class="node">
<title>Node22</title>
<g id="a_Node000022"><a xlink:href="TimeUnits_8h.html" target="_top" xlink:title="Defines the TimeStep and Day classes for representing simulation time units.">
<polygon fill="white" stroke="#666666" points="1012.93,-162 867.93,-162 867.93,-132 1012.93,-132 1012.93,-162"/>
<text text-anchor="start" x="875.93" y="-150" font-family="Helvetica,sans-Serif" font-size="10.00">App/Model/IBM/Landscape</text>
<text text-anchor="middle" x="940.43" y="-139" font-family="Helvetica,sans-Serif" font-size="10.00">/LivingBeings/TimeUnits.h</text>
</a>
</g>
</g>
<!-- Node8&#45;&gt;Node22 -->
<g id="edge25_Node000008_Node000022" class="edge">
<title>Node8&#45;&gt;Node22</title>
<g id="a_edge25_Node000008_Node000022"><a xlink:title=" ">
<path fill="none" stroke="#63b8ff" d="M613.19,-202.08C673.02,-192.44 766.6,-177.28 857.62,-162.13"/>
<polygon fill="#63b8ff" stroke="#63b8ff" points="858.27,-165.57 867.55,-160.47 857.11,-158.66 858.27,-165.57"/>
</a>
</g>
</g>
<!-- Node30 -->
<g id="Node000030" class="node">
<title>Node30</title>
<g id="a_Node000030"><a xlink:href="Types_8h.html" target="_top" xlink:title="Defines common type aliases and constants used throughout the Weaver project.">
<polygon fill="white" stroke="#666666" points="1109.93,-156.5 1030.93,-156.5 1030.93,-137.5 1109.93,-137.5 1109.93,-156.5"/>
<text text-anchor="middle" x="1070.43" y="-144.5" font-family="Helvetica,sans-Serif" font-size="10.00">Misc/Types.h</text>
</a>
</g>
</g>
<!-- Node8&#45;&gt;Node30 -->
<g id="edge43_Node000008_Node000030" class="edge">
<title>Node8&#45;&gt;Node30</title>
<g id="a_edge43_Node000008_Node000030"><a xlink:title=" ">
<path fill="none" stroke="#63b8ff" d="M613.14,-208.83C703.46,-203.43 876.64,-190.17 1021.43,-162 1025.53,-161.2 1029.79,-160.22 1034,-159.15"/>
<polygon fill="#63b8ff" stroke="#63b8ff" points="1034.93,-162.53 1043.67,-156.55 1033.1,-155.77 1034.93,-162.53"/>
</a>
</g>
</g>
<!-- Node19 -->
<g id="Node000019" class="node">
<title>Node19</title>
<g id="a_Node000019"><a xlink:title=" ">
<polygon fill="#e0e0e0" stroke="#999999" points="226.93,-90.5 161.93,-90.5 161.93,-71.5 226.93,-71.5 226.93,-90.5"/>
<text text-anchor="middle" x="194.43" y="-78.5" font-family="Helvetica,sans-Serif" font-size="10.00">exception</text>
</a>
</g>
</g>
<!-- Node18&#45;&gt;Node19 -->
<g id="edge22_Node000018_Node000019" class="edge">
<title>Node18&#45;&gt;Node19</title>
<g id="a_edge22_Node000018_Node000019"><a xlink:title=" ">
<path fill="none" stroke="#63b8ff" d="M194.43,-137.37C194.43,-128.16 194.43,-113.29 194.43,-101.27"/>
<polygon fill="#63b8ff" stroke="#63b8ff" points="197.93,-100.91 194.43,-90.91 190.93,-100.91 197.93,-100.91"/>
</a>
</g>
</g>
<!-- Node20 -->
<g id="Node000020" class="node">
<title>Node20</title>
<g id="a_Node000020"><a xlink:title=" ">
<polygon fill="#e0e0e0" stroke="#999999" points="417.43,-24.5 373.43,-24.5 373.43,-5.5 417.43,-5.5 417.43,-24.5"/>
<text text-anchor="middle" x="395.43" y="-12.5" font-family="Helvetica,sans-Serif" font-size="10.00">string</text>
</a>
</g>
</g>
<!-- Node18&#45;&gt;Node20 -->
<g id="edge23_Node000018_Node000020" class="edge">
<title>Node18&#45;&gt;Node20</title>
<g id="a_edge23_Node000018_Node000020"><a xlink:title=" ">
<path fill="none" stroke="#63b8ff" d="M207.61,-137.47C241.47,-115.57 331.74,-57.19 373.57,-30.13"/>
<polygon fill="#63b8ff" stroke="#63b8ff" points="375.69,-32.93 382.19,-24.56 371.89,-27.05 375.69,-32.93"/>
</a>
</g>
</g>
<!-- Node22&#45;&gt;Node6 -->
<g id="edge30_Node000022_Node000006" class="edge">
<title>Node22&#45;&gt;Node6</title>
<g id="a_edge30_Node000022_Node000006"><a xlink:title=" ">
<path fill="none" stroke="#63b8ff" d="M1013.01,-132.81C1058.36,-123.92 1117.76,-111.08 1169.43,-96 1171.7,-95.34 1174.04,-94.6 1176.38,-93.83"/>
<polygon fill="#63b8ff" stroke="#63b8ff" points="1177.6,-97.11 1185.9,-90.52 1175.3,-90.5 1177.6,-97.11"/>
</a>
</g>
</g>
<!-- Node22&#45;&gt;Node9 -->
<g id="edge31_Node000022_Node000009" class="edge">
<title>Node22&#45;&gt;Node9</title>
<g id="a_edge31_Node000022_Node000009"><a xlink:title=" ">
<path fill="none" stroke="#63b8ff" d="M867.57,-133.45C864.48,-132.95 861.42,-132.47 858.43,-132 603.28,-92.22 532.88,-107.11 286.43,-30 284.79,-29.49 283.13,-28.93 281.46,-28.33"/>
<polygon fill="#63b8ff" stroke="#63b8ff" points="282.62,-25.02 272.03,-24.64 280.07,-31.54 282.62,-25.02"/>
</a>
</g>
</g>
<!-- Node23 -->
<g id="Node000023" class="node">
<title>Node23</title>
<g id="a_Node000023"><a xlink:title=" ">
<polygon fill="#e0e0e0" stroke="#999999" points="828.93,-30 723.93,-30 723.93,0 828.93,0 828.93,-30"/>
<text text-anchor="start" x="731.93" y="-18" font-family="Helvetica,sans-Serif" font-size="10.00">boost/archive/text</text>
<text text-anchor="middle" x="776.43" y="-7" font-family="Helvetica,sans-Serif" font-size="10.00">_iarchive.hpp</text>
</a>
</g>
</g>
<!-- Node22&#45;&gt;Node23 -->
<g id="edge26_Node000022_Node000023" class="edge">
<title>Node22&#45;&gt;Node23</title>
<g id="a_edge26_Node000022_Node000023"><a xlink:title=" ">
<path fill="none" stroke="#63b8ff" d="M913.96,-131.88C897.39,-122.57 875.94,-109.6 858.43,-96 835.61,-78.28 812.29,-54.92 796.38,-38.02"/>
<polygon fill="#63b8ff" stroke="#63b8ff" points="798.57,-35.24 789.2,-30.3 793.45,-40 798.57,-35.24"/>
</a>
</g>
</g>
<!-- Node24 -->
<g id="Node000024" class="node">
<title>Node24</title>
<g id="a_Node000024"><a xlink:title=" ">
<polygon fill="#e0e0e0" stroke="#999999" points="622.93,-30 517.93,-30 517.93,0 622.93,0 622.93,-30"/>
<text text-anchor="start" x="525.93" y="-18" font-family="Helvetica,sans-Serif" font-size="10.00">boost/archive/text</text>
<text text-anchor="middle" x="570.43" y="-7" font-family="Helvetica,sans-Serif" font-size="10.00">_oarchive.hpp</text>
</a>
</g>
</g>
<!-- Node22&#45;&gt;Node24 -->
<g id="edge27_Node000022_Node000024" class="edge">
<title>Node22&#45;&gt;Node24</title>
<g id="a_edge27_Node000022_Node000024"><a xlink:title=" ">
<path fill="none" stroke="#63b8ff" d="M867.55,-133.55C864.47,-133.02 861.42,-132.51 858.43,-132 762.9,-115.85 728.52,-142.32 643.43,-96 618.59,-82.48 597.74,-57.24 584.77,-38.71"/>
<polygon fill="#63b8ff" stroke="#63b8ff" points="587.54,-36.56 579.05,-30.23 581.74,-40.48 587.54,-36.56"/>
</a>
</g>
</g>
<!-- Node25 -->
<g id="Node000025" class="node">
<title>Node25</title>
<g id="a_Node000025"><a xlink:title=" ">
<polygon fill="#e0e0e0" stroke="#999999" points="1159.43,-30 1043.43,-30 1043.43,0 1159.43,0 1159.43,-30"/>
<text text-anchor="start" x="1051.43" y="-18" font-family="Helvetica,sans-Serif" font-size="10.00">boost/archive/binary</text>
<text text-anchor="middle" x="1101.43" y="-7" font-family="Helvetica,sans-Serif" font-size="10.00">_iarchive.hpp</text>
</a>
</g>
</g>
<!-- Node22&#45;&gt;Node25 -->
<g id="edge28_Node000022_Node000025" class="edge">
<title>Node22&#45;&gt;Node25</title>
<g id="a_edge28_Node000022_Node000025"><a xlink:title=" ">
<path fill="none" stroke="#63b8ff" d="M947.56,-131.92C956.97,-114.51 974.99,-84.9 997.43,-66 1013.22,-52.7 1033.14,-42.01 1051.32,-33.98"/>
<polygon fill="#63b8ff" stroke="#63b8ff" points="1052.8,-37.15 1060.63,-30.02 1050.06,-30.71 1052.8,-37.15"/>
</a>
</g>
</g>
<!-- Node26 -->
<g id="Node000026" class="node">
<title>Node26</title>
<g id="a_Node000026"><a xlink:title=" ">
<polygon fill="#e0e0e0" stroke="#999999" points="1025.43,-30 909.43,-30 909.43,0 1025.43,0 1025.43,-30"/>
<text text-anchor="start" x="917.43" y="-18" font-family="Helvetica,sans-Serif" font-size="10.00">boost/archive/binary</text>
<text text-anchor="middle" x="967.43" y="-7" font-family="Helvetica,sans-Serif" font-size="10.00">_oarchive.hpp</text>
</a>
</g>
</g>
<!-- Node22&#45;&gt;Node26 -->
<g id="edge29_Node000022_Node000026" class="edge">
<title>Node22&#45;&gt;Node26</title>
<g id="a_edge29_Node000022_Node000026"><a xlink:title=" ">
<path fill="none" stroke="#63b8ff" d="M943.37,-131.84C947.95,-109.76 956.86,-66.89 962.45,-39.94"/>
<polygon fill="#63b8ff" stroke="#63b8ff" points="965.88,-40.65 964.49,-30.14 959.03,-39.22 965.88,-40.65"/>
</a>
</g>
</g>
<!-- Node27 -->
<g id="Node000027" class="node">
<title>Node27</title>
<g id="a_Node000027"><a xlink:href="PreciseDouble_8h.html" target="_top" xlink:title="Defines the PreciseDouble class for safe and precise double&#45;precision arithmetic.">
<polygon fill="white" stroke="#666666" points="775.93,-96 652.93,-96 652.93,-66 775.93,-66 775.93,-96"/>
<text text-anchor="start" x="660.93" y="-84" font-family="Helvetica,sans-Serif" font-size="10.00">App/Model/IBM/Maths</text>
<text text-anchor="middle" x="714.43" y="-73" font-family="Helvetica,sans-Serif" font-size="10.00">/PreciseDouble.h</text>
</a>
</g>
</g>
<!-- Node22&#45;&gt;Node27 -->
<g id="edge32_Node000022_Node000027" class="edge">
<title>Node22&#45;&gt;Node27</title>
<g id="a_edge32_Node000022_Node000027"><a xlink:title=" ">
<path fill="none" stroke="#63b8ff" d="M890.83,-131.95C856.39,-122.2 810.32,-109.16 773.91,-98.84"/>
<polygon fill="#63b8ff" stroke="#63b8ff" points="774.48,-95.37 763.91,-96.01 772.58,-102.1 774.48,-95.37"/>
</a>
</g>
</g>
<!-- Node27&#45;&gt;Node9 -->
<g id="edge38_Node000027_Node000009" class="edge">
<title>Node27&#45;&gt;Node9</title>
<g id="a_edge38_Node000027_Node000009"><a xlink:title=" ">
<path fill="none" stroke="#63b8ff" d="M652.81,-78.29C568.71,-74.72 413.89,-63.74 286.43,-30 284.49,-29.49 282.51,-28.88 280.54,-28.21"/>
<polygon fill="#63b8ff" stroke="#63b8ff" points="281.5,-24.83 270.91,-24.51 278.99,-31.37 281.5,-24.83"/>
</a>
</g>
</g>
<!-- Node27&#45;&gt;Node11 -->
<g id="edge40_Node000027_Node000011" class="edge">
<title>Node27&#45;&gt;Node11</title>
<g id="a_edge40_Node000027_Node000011"><a xlink:title=" ">
<path fill="none" stroke="#63b8ff" d="M652.69,-75C582.19,-68.4 463.76,-54.65 364.43,-30 361.92,-29.38 359.35,-28.66 356.79,-27.87"/>
<polygon fill="#63b8ff" stroke="#63b8ff" points="357.64,-24.47 347.05,-24.64 355.44,-31.11 357.64,-24.47"/>
</a>
</g>
</g>
<!-- Node27&#45;&gt;Node15 -->
<g id="edge39_Node000027_Node000015" class="edge">
<title>Node27&#45;&gt;Node15</title>
<g id="a_edge39_Node000027_Node000015"><a xlink:title=" ">
<path fill="none" stroke="#63b8ff" d="M652.74,-66.57C611.61,-57.24 556.48,-44 508.43,-30 505.96,-29.28 503.43,-28.51 500.88,-27.7"/>
<polygon fill="#63b8ff" stroke="#63b8ff" points="501.75,-24.3 491.16,-24.51 499.57,-30.95 501.75,-24.3"/>
</a>
</g>
</g>
<!-- Node27&#45;&gt;Node20 -->
<g id="edge37_Node000027_Node000020" class="edge">
<title>Node27&#45;&gt;Node20</title>
<g id="a_edge37_Node000027_Node000020"><a xlink:title=" ">
<path fill="none" stroke="#63b8ff" d="M652.7,-73.85C593.65,-66.9 502.59,-53.4 426.43,-30 424.98,-29.56 423.51,-29.06 422.04,-28.53"/>
<polygon fill="#63b8ff" stroke="#63b8ff" points="423.09,-25.17 412.51,-24.64 420.45,-31.66 423.09,-25.17"/>
</a>
</g>
</g>
<!-- Node27&#45;&gt;Node23 -->
<g id="edge33_Node000027_Node000023" class="edge">
<title>Node27&#45;&gt;Node23</title>
<g id="a_edge33_Node000027_Node000023"><a xlink:title=" ">
<path fill="none" stroke="#63b8ff" d="M728.19,-65.8C736.21,-57.51 746.5,-46.89 755.51,-37.59"/>
<polygon fill="#63b8ff" stroke="#63b8ff" points="758.26,-39.78 762.7,-30.16 753.23,-34.91 758.26,-39.78"/>
</a>
</g>
</g>
<!-- Node27&#45;&gt;Node24 -->
<g id="edge34_Node000027_Node000024" class="edge">
<title>Node27&#45;&gt;Node24</title>
<g id="a_edge34_Node000027_Node000024"><a xlink:title=" ">
<path fill="none" stroke="#63b8ff" d="M682.82,-65.95C661.82,-56.62 634.02,-44.27 611.33,-34.18"/>
<polygon fill="#63b8ff" stroke="#63b8ff" points="612.51,-30.88 601.95,-30.01 609.67,-37.27 612.51,-30.88"/>
</a>
</g>
</g>
<!-- Node27&#45;&gt;Node25 -->
<g id="edge35_Node000027_Node000025" class="edge">
<title>Node27&#45;&gt;Node25</title>
<g id="a_edge35_Node000027_Node000025"><a xlink:title=" ">
<path fill="none" stroke="#63b8ff" d="M775.93,-71.34C838.27,-62.35 937.73,-47.42 1033.23,-30.16"/>
<polygon fill="#63b8ff" stroke="#63b8ff" points="1034.14,-33.56 1043.36,-28.32 1032.89,-26.67 1034.14,-33.56"/>
</a>
</g>
</g>
<!-- Node27&#45;&gt;Node26 -->
<g id="edge36_Node000027_Node000026" class="edge">
<title>Node27&#45;&gt;Node26</title>
<g id="a_edge36_Node000027_Node000026"><a xlink:title=" ">
<path fill="none" stroke="#63b8ff" d="M769.95,-65.95C808.92,-56.1 861.17,-42.88 902.14,-32.51"/>
<polygon fill="#63b8ff" stroke="#63b8ff" points="903.2,-35.86 912.03,-30.01 901.48,-29.07 903.2,-35.86"/>
</a>
</g>
</g>
<!-- Node28 -->
<g id="Node000028" class="node">
<title>Node28</title>
<g id="a_Node000028"><a xlink:title=" ">
<polygon fill="#e0e0e0" stroke="#999999" points="891.43,-24.5 847.43,-24.5 847.43,-5.5 891.43,-5.5 891.43,-24.5"/>
<text text-anchor="middle" x="869.43" y="-12.5" font-family="Helvetica,sans-Serif" font-size="10.00">limits</text>
</a>
</g>
</g>
<!-- Node27&#45;&gt;Node28 -->
<g id="edge41_Node000027_Node000028" class="edge">
<title>Node27&#45;&gt;Node28</title>
<g id="a_edge41_Node000027_Node000028"><a xlink:title=" ">
<path fill="none" stroke="#63b8ff" d="M749.79,-65.91C774.42,-56.03 808.01,-42.41 837.43,-30 838.59,-29.51 839.77,-29.01 840.97,-28.5"/>
<polygon fill="#63b8ff" stroke="#63b8ff" points="842.38,-31.7 850.17,-24.52 839.6,-25.27 842.38,-31.7"/>
</a>
</g>
</g>
<!-- Node29 -->
<g id="Node000029" class="node">
<title>Node29</title>
<g id="a_Node000029"><a xlink:title=" ">
<polygon fill="#e0e0e0" stroke="#999999" points="705.93,-24.5 640.93,-24.5 640.93,-5.5 705.93,-5.5 705.93,-24.5"/>
<text text-anchor="middle" x="673.43" y="-12.5" font-family="Helvetica,sans-Serif" font-size="10.00">functional</text>
</a>
</g>
</g>
<!-- Node27&#45;&gt;Node29 -->
<g id="edge42_Node000027_Node000029" class="edge">
<title>Node27&#45;&gt;Node29</title>
<g id="a_edge42_Node000027_Node000029"><a xlink:title=" ">
<path fill="none" stroke="#63b8ff" d="M705.33,-65.8C699.19,-56.21 691.04,-43.5 684.52,-33.32"/>
<polygon fill="#63b8ff" stroke="#63b8ff" points="687.43,-31.38 679.09,-24.84 681.54,-35.15 687.43,-31.38"/>
</a>
</g>
</g>
<!-- Node30&#45;&gt;Node27 -->
<g id="edge51_Node000030_Node000027" class="edge">
<title>Node30&#45;&gt;Node27</title>
<g id="a_edge51_Node000030_Node000027"><a xlink:title=" ">
<path fill="none" stroke="#63b8ff" d="M1042.59,-137.44C1035.71,-135.49 1028.33,-133.54 1021.43,-132 941.55,-114.15 848.65,-99.91 786.14,-91.26"/>
<polygon fill="#63b8ff" stroke="#63b8ff" points="786.37,-87.76 775.99,-89.87 785.42,-94.7 786.37,-87.76"/>
</a>
</g>
</g>
<!-- Node30&#45;&gt;Node28 -->
<g id="edge50_Node000030_Node000028" class="edge">
<title>Node30&#45;&gt;Node28</title>
<g id="a_edge50_Node000030_Node000028"><a xlink:title=" ">
<path fill="none" stroke="#63b8ff" d="M1057.24,-137.47C1023.38,-115.57 933.12,-57.19 891.28,-30.13"/>
<polygon fill="#63b8ff" stroke="#63b8ff" points="892.96,-27.05 882.66,-24.56 889.16,-32.93 892.96,-27.05"/>
</a>
</g>
</g>
<!-- Node31 -->
<g id="Node000031" class="node">
<title>Node31</title>
<g id="a_Node000031"><a xlink:href="Coordinate3D_8h.html" target="_top" xlink:title="Defines a templated 3D coordinate class with Boost.Serialization support.">
<polygon fill="white" stroke="#666666" points="1098.43,-90.5 1006.43,-90.5 1006.43,-71.5 1098.43,-71.5 1098.43,-90.5"/>
<text text-anchor="middle" x="1052.43" y="-78.5" font-family="Helvetica,sans-Serif" font-size="10.00">Coordinate3D.h</text>
</a>
</g>
</g>
<!-- Node30&#45;&gt;Node31 -->
<g id="edge44_Node000030_Node000031" class="edge">
<title>Node30&#45;&gt;Node31</title>
<g id="a_edge44_Node000030_Node000031"><a xlink:title=" ">
<path fill="none" stroke="#63b8ff" d="M1068,-137.37C1065.38,-128.07 1061.14,-112.98 1057.74,-100.9"/>
<polygon fill="#63b8ff" stroke="#63b8ff" points="1061.01,-99.58 1054.93,-90.91 1054.27,-101.48 1061.01,-99.58"/>
</a>
</g>
</g>
<!-- Node34 -->
<g id="Node000034" class="node">
<title>Node34</title>
<g id="a_Node000034"><a xlink:title=" ">
<polygon fill="#e0e0e0" stroke="#999999" points="1160.43,-90.5 1116.43,-90.5 1116.43,-71.5 1160.43,-71.5 1160.43,-90.5"/>
<text text-anchor="middle" x="1138.43" y="-78.5" font-family="Helvetica,sans-Serif" font-size="10.00">cfloat</text>
</a>
</g>
</g>
<!-- Node30&#45;&gt;Node34 -->
<g id="edge49_Node000030_Node000034" class="edge">
<title>Node30&#45;&gt;Node34</title>
<g id="a_edge49_Node000030_Node000034"><a xlink:title=" ">
<path fill="none" stroke="#63b8ff" d="M1079.6,-137.37C1090.28,-127.31 1108.17,-110.48 1121.42,-98.01"/>
<polygon fill="#63b8ff" stroke="#63b8ff" points="1124.08,-100.31 1128.96,-90.91 1119.28,-95.21 1124.08,-100.31"/>
</a>
</g>
</g>
<!-- Node31&#45;&gt;Node25 -->
<g id="edge46_Node000031_Node000025" class="edge">
<title>Node31&#45;&gt;Node25</title>
<g id="a_edge46_Node000031_Node000025"><a xlink:title=" ">
<path fill="none" stroke="#63b8ff" d="M1059.03,-71.37C1065.45,-62.99 1075.45,-49.93 1084.13,-38.59"/>
<polygon fill="#63b8ff" stroke="#63b8ff" points="1087.13,-40.43 1090.43,-30.36 1081.57,-36.17 1087.13,-40.43"/>
</a>
</g>
</g>
<!-- Node31&#45;&gt;Node26 -->
<g id="edge47_Node000031_Node000026" class="edge">
<title>Node31&#45;&gt;Node26</title>
<g id="a_edge47_Node000031_Node000026"><a xlink:title=" ">
<path fill="none" stroke="#63b8ff" d="M1040.96,-71.37C1029.11,-62.44 1010.18,-48.19 994.49,-36.38"/>
<polygon fill="#63b8ff" stroke="#63b8ff" points="996.27,-33.33 986.17,-30.12 992.06,-38.93 996.27,-33.33"/>
</a>
</g>
</g>
<!-- Node32 -->
<g id="Node000032" class="node">
<title>Node32</title>
<g id="a_Node000032"><a xlink:title=" ">
<polygon fill="#e0e0e0" stroke="#999999" points="1284.93,-30 1177.93,-30 1177.93,0 1284.93,0 1284.93,-30"/>
<text text-anchor="start" x="1185.93" y="-18" font-family="Helvetica,sans-Serif" font-size="10.00">boost/serialization</text>
<text text-anchor="middle" x="1231.43" y="-7" font-family="Helvetica,sans-Serif" font-size="10.00">/access.hpp</text>
</a>
</g>
</g>
<!-- Node31&#45;&gt;Node32 -->
<g id="edge45_Node000031_Node000032" class="edge">
<title>Node31&#45;&gt;Node32</title>
<g id="a_edge45_Node000031_Node000032"><a xlink:title=" ">
<path fill="none" stroke="#63b8ff" d="M1076.57,-71.37C1103.49,-61.74 1147.77,-45.91 1182.1,-33.64"/>
<polygon fill="#63b8ff" stroke="#63b8ff" points="1183.71,-36.78 1191.95,-30.12 1181.35,-30.19 1183.71,-36.78"/>
</a>
</g>
</g>
<!-- Node33 -->
<g id="Node000033" class="node">
<title>Node33</title>
<g id="a_Node000033"><a xlink:title=" ">
<polygon fill="#e0e0e0" stroke="#999999" points="1357.93,-24.5 1302.93,-24.5 1302.93,-5.5 1357.93,-5.5 1357.93,-24.5"/>
<text text-anchor="middle" x="1330.43" y="-12.5" font-family="Helvetica,sans-Serif" font-size="10.00">fstream</text>
</a>
</g>
</g>
<!-- Node31&#45;&gt;Node33 -->
<g id="edge48_Node000031_Node000033" class="edge">
<title>Node31&#45;&gt;Node33</title>
<g id="a_edge48_Node000031_Node000033"><a xlink:title=" ">
<path fill="none" stroke="#63b8ff" d="M1084.63,-71.46C1092.1,-69.58 1100.02,-67.65 1107.43,-66 1190.03,-47.55 1213.1,-53.43 1294.43,-30 1296.57,-29.38 1298.77,-28.69 1300.97,-27.95"/>
<polygon fill="#63b8ff" stroke="#63b8ff" points="1302.26,-31.2 1310.46,-24.5 1299.87,-24.62 1302.26,-31.2"/>
</a>
</g>
</g>
</g>
</svg>
