<?xml version="1.0" encoding="UTF-8" standalone="no"?>
<!DOCTYPE svg PUBLIC "-//W3C//DTD SVG 1.1//EN"
 "http://www.w3.org/Graphics/SVG/1.1/DTD/svg11.dtd">
<!-- Generated by graphviz version 2.43.0 (0)
 -->
<!-- Title: Graphical Class Hierarchy Pages: 1 -->
<svg width="245pt" height="175pt"
 viewBox="0.00 0.00 245.00 175.00" xmlns="http://www.w3.org/2000/svg" xmlns:xlink="http://www.w3.org/1999/xlink">
<g id="graph0" class="graph" transform="scale(1 1) rotate(0) translate(4 171)">
<title>Graphical Class Hierarchy</title>
<!-- Node0 -->
<g id="Node000000" class="node">
<title>Node0</title>
<g id="a_Node000000"><a xlink:href="classPatchShape.html" target="_top" xlink:title="Abstract base class representing a patch shape.">
<polygon fill="white" stroke="#666666" points="73,-93 0,-93 0,-74 73,-74 73,-93"/>
<text text-anchor="middle" x="36.5" y="-81" font-family="Helvetica,sans-Serif" font-size="10.00">PatchShape</text>
</a>
</g>
</g>
<!-- Node1 -->
<g id="Node000001" class="node">
<title>Node1</title>
<g id="a_Node000001"><a xlink:href="classCubicPatch.html" target="_top" xlink:title="Represents a cuboidal patch shape.">
<polygon fill="white" stroke="#666666" points="208,-167 138,-167 138,-148 208,-148 208,-167"/>
<text text-anchor="middle" x="173" y="-155" font-family="Helvetica,sans-Serif" font-size="10.00">CubicPatch</text>
</a>
</g>
</g>
<!-- Node0&#45;&gt;Node1 -->
<g id="edge63_Node000000_Node000001" class="edge">
<title>Node0&#45;&gt;Node1</title>
<g id="a_edge63_Node000000_Node000001"><a xlink:title=" ">
<path fill="none" stroke="#63b8ff" d="M54.94,-100.33C68.65,-112.74 88.76,-129.18 109,-139.5 117.92,-144.05 128.15,-147.59 137.74,-150.29"/>
<polygon fill="#63b8ff" stroke="#63b8ff" points="56.99,-97.46 47.28,-93.22 52.23,-102.59 56.99,-97.46"/>
</a>
</g>
</g>
<!-- Node2 -->
<g id="Node000002" class="node">
<title>Node2</title>
<g id="a_Node000002"><a xlink:href="classGaussianPatch.html" target="_top" xlink:title="Represents a patch with Gaussian&#45;shaped influence.">
<polygon fill="white" stroke="#666666" points="217,-130 129,-130 129,-111 217,-111 217,-130"/>
<text text-anchor="middle" x="173" y="-118" font-family="Helvetica,sans-Serif" font-size="10.00">GaussianPatch</text>
</a>
</g>
</g>
<!-- Node0&#45;&gt;Node2 -->
<g id="edge64_Node000000_Node000002" class="edge">
<title>Node0&#45;&gt;Node2</title>
<g id="a_edge64_Node000000_Node000002"><a xlink:title=" ">
<path fill="none" stroke="#63b8ff" d="M81.81,-95.69C99.74,-100.62 120.15,-106.24 137.01,-110.88"/>
<polygon fill="#63b8ff" stroke="#63b8ff" points="82.71,-92.31 72.14,-93.03 80.85,-99.06 82.71,-92.31"/>
</a>
</g>
</g>
<!-- Node3 -->
<g id="Node000003" class="node">
<title>Node3</title>
<g id="a_Node000003"><a xlink:href="classHomogeneousPatch.html" target="_top" xlink:title="Represents a patch with homogeneous (uniform) influence.">
<polygon fill="white" stroke="#666666" points="229.5,-93 116.5,-93 116.5,-74 229.5,-74 229.5,-93"/>
<text text-anchor="middle" x="173" y="-81" font-family="Helvetica,sans-Serif" font-size="10.00">HomogeneousPatch</text>
</a>
</g>
</g>
<!-- Node0&#45;&gt;Node3 -->
<g id="edge65_Node000000_Node000003" class="edge">
<title>Node0&#45;&gt;Node3</title>
<g id="a_edge65_Node000000_Node000003"><a xlink:title=" ">
<path fill="none" stroke="#63b8ff" d="M83.46,-83.5C94.04,-83.5 105.41,-83.5 116.35,-83.5"/>
<polygon fill="#63b8ff" stroke="#63b8ff" points="83.19,-80 73.19,-83.5 83.19,-87 83.19,-80"/>
</a>
</g>
</g>
<!-- Node4 -->
<g id="Node000004" class="node">
<title>Node4</title>
<g id="a_Node000004"><a xlink:href="classRandomGaussianPatch.html" target="_top" xlink:title="Represents a patch with stochastic Gaussian influence.">
<polygon fill="white" stroke="#666666" points="237,-56 109,-56 109,-37 237,-37 237,-56"/>
<text text-anchor="middle" x="173" y="-44" font-family="Helvetica,sans-Serif" font-size="10.00">RandomGaussianPatch</text>
</a>
</g>
</g>
<!-- Node0&#45;&gt;Node4 -->
<g id="edge66_Node000000_Node000004" class="edge">
<title>Node0&#45;&gt;Node4</title>
<g id="a_edge66_Node000000_Node000004"><a xlink:title=" ">
<path fill="none" stroke="#63b8ff" d="M81.81,-71.31C99.74,-66.38 120.15,-60.76 137.01,-56.12"/>
<polygon fill="#63b8ff" stroke="#63b8ff" points="80.85,-67.94 72.14,-73.97 82.71,-74.69 80.85,-67.94"/>
</a>
</g>
</g>
<!-- Node5 -->
<g id="Node000005" class="node">
<title>Node5</title>
<g id="a_Node000005"><a xlink:href="classSphericalPatch.html" target="_top" xlink:title="Represents a patch with spherical influence.">
<polygon fill="white" stroke="#666666" points="217,-19 129,-19 129,0 217,0 217,-19"/>
<text text-anchor="middle" x="173" y="-7" font-family="Helvetica,sans-Serif" font-size="10.00">SphericalPatch</text>
</a>
</g>
</g>
<!-- Node0&#45;&gt;Node5 -->
<g id="edge67_Node000000_Node000005" class="edge">
<title>Node0&#45;&gt;Node5</title>
<g id="a_edge67_Node000000_Node000005"><a xlink:title=" ">
<path fill="none" stroke="#63b8ff" d="M55.51,-66.65C69.26,-54.57 89.16,-38.69 109,-28.5 116.32,-24.74 124.5,-21.6 132.49,-19.01"/>
<polygon fill="#63b8ff" stroke="#63b8ff" points="52.89,-64.3 47.8,-73.59 57.57,-69.5 52.89,-64.3"/>
</a>
</g>
</g>
</g>
</svg>
