<?xml version="1.0" encoding="UTF-8" standalone="no"?>
<!DOCTYPE svg PUBLIC "-//W3C//DTD SVG 1.1//EN"
 "http://www.w3.org/Graphics/SVG/1.1/DTD/svg11.dtd">
<!-- Generated by graphviz version 2.43.0 (0)
 -->
<!-- Title: /home/runner/work/Weaver/Weaver/include/App/Model/IBM/Landscape/Map/Patches/Source/ObstacleSource.h Pages: 1 -->
<svg width="505pt" height="192pt"
 viewBox="0.00 0.00 504.50 192.00" xmlns="http://www.w3.org/2000/svg" xmlns:xlink="http://www.w3.org/1999/xlink">
<g id="graph0" class="graph" transform="scale(1 1) rotate(0) translate(4 188)">
<title>/home/runner/work/Weaver/Weaver/include/App/Model/IBM/Landscape/Map/Patches/Source/ObstacleSource.h</title>
<!-- Node1 -->
<g id="Node000001" class="node">
<title>Node1</title>
<g id="a_Node000001"><a xlink:title="Defines the ObstacleSource class representing obstacles in a landscape.">
<polygon fill="#999999" stroke="#666666" points="235.5,-184 77.5,-184 77.5,-132 235.5,-132 235.5,-184"/>
<text text-anchor="start" x="85.5" y="-172" font-family="Helvetica,sans-Serif" font-size="10.00">/home/runner/work/Weaver</text>
<text text-anchor="start" x="85.5" y="-161" font-family="Helvetica,sans-Serif" font-size="10.00">/Weaver/include/App/Model</text>
<text text-anchor="start" x="85.5" y="-150" font-family="Helvetica,sans-Serif" font-size="10.00">/IBM/Landscape/Map/Patches</text>
<text text-anchor="middle" x="156.5" y="-139" font-family="Helvetica,sans-Serif" font-size="10.00">/Source/ObstacleSource.h</text>
</a>
</g>
</g>
<!-- Node2 -->
<g id="Node000002" class="node">
<title>Node2</title>
<g id="a_Node000002"><a xlink:title=" ">
<polygon fill="#e0e0e0" stroke="#999999" points="129.5,-90.5 19.5,-90.5 19.5,-71.5 129.5,-71.5 129.5,-90.5"/>
<text text-anchor="middle" x="74.5" y="-78.5" font-family="Helvetica,sans-Serif" font-size="10.00">nlohmann/json.hpp</text>
</a>
</g>
</g>
<!-- Node1&#45;&gt;Node2 -->
<g id="edge1_Node000001_Node000002" class="edge">
<title>Node1&#45;&gt;Node2</title>
<g id="a_edge1_Node000001_Node000002"><a xlink:title=" ">
<path fill="none" stroke="#63b8ff" d="M128.74,-131.61C116.45,-120.37 102.38,-107.5 91.65,-97.68"/>
<polygon fill="#63b8ff" stroke="#63b8ff" points="93.92,-95.02 84.18,-90.85 89.19,-100.18 93.92,-95.02"/>
</a>
</g>
</g>
<!-- Node3 -->
<g id="Node000003" class="node">
<title>Node3</title>
<g id="a_Node000003"><a xlink:href="PathSource_8h.html" target="_top" xlink:title="Defines the PathSource abstract base class representing sources of landscape information.">
<polygon fill="white" stroke="#666666" points="331,-96 148,-96 148,-66 331,-66 331,-96"/>
<text text-anchor="start" x="156" y="-84" font-family="Helvetica,sans-Serif" font-size="10.00">App/Model/IBM/Landscape</text>
<text text-anchor="middle" x="239.5" y="-73" font-family="Helvetica,sans-Serif" font-size="10.00">/Map/Patches/Source/PathSource.h</text>
</a>
</g>
</g>
<!-- Node1&#45;&gt;Node3 -->
<g id="edge2_Node000001_Node000003" class="edge">
<title>Node1&#45;&gt;Node3</title>
<g id="a_edge2_Node000001_Node000003"><a xlink:title=" ">
<path fill="none" stroke="#63b8ff" d="M184.6,-131.61C194.84,-122.35 206.3,-112 216.09,-103.15"/>
<polygon fill="#63b8ff" stroke="#63b8ff" points="218.46,-105.73 223.53,-96.43 213.77,-100.54 218.46,-105.73"/>
</a>
</g>
</g>
<!-- Node4 -->
<g id="Node000004" class="node">
<title>Node4</title>
<g id="a_Node000004"><a xlink:title=" ">
<polygon fill="#e0e0e0" stroke="#999999" points="105,-30 0,-30 0,0 105,0 105,-30"/>
<text text-anchor="start" x="8" y="-18" font-family="Helvetica,sans-Serif" font-size="10.00">boost/archive/text</text>
<text text-anchor="middle" x="52.5" y="-7" font-family="Helvetica,sans-Serif" font-size="10.00">_iarchive.hpp</text>
</a>
</g>
</g>
<!-- Node3&#45;&gt;Node4 -->
<g id="edge3_Node000003_Node000004" class="edge">
<title>Node3&#45;&gt;Node4</title>
<g id="a_edge3_Node000003_Node000004"><a xlink:title=" ">
<path fill="none" stroke="#63b8ff" d="M198.46,-65.95C170.45,-56.37 133.15,-43.6 103.27,-33.37"/>
<polygon fill="#63b8ff" stroke="#63b8ff" points="104.04,-29.94 93.44,-30.01 101.77,-36.56 104.04,-29.94"/>
</a>
</g>
</g>
<!-- Node5 -->
<g id="Node000005" class="node">
<title>Node5</title>
<g id="a_Node000005"><a xlink:title=" ">
<polygon fill="#e0e0e0" stroke="#999999" points="228,-30 123,-30 123,0 228,0 228,-30"/>
<text text-anchor="start" x="131" y="-18" font-family="Helvetica,sans-Serif" font-size="10.00">boost/archive/text</text>
<text text-anchor="middle" x="175.5" y="-7" font-family="Helvetica,sans-Serif" font-size="10.00">_oarchive.hpp</text>
</a>
</g>
</g>
<!-- Node3&#45;&gt;Node5 -->
<g id="edge4_Node000003_Node000005" class="edge">
<title>Node3&#45;&gt;Node5</title>
<g id="a_edge4_Node000003_Node000005"><a xlink:title=" ">
<path fill="none" stroke="#63b8ff" d="M225.3,-65.8C216.93,-57.43 206.18,-46.68 196.81,-37.31"/>
<polygon fill="#63b8ff" stroke="#63b8ff" points="199.21,-34.76 189.66,-30.16 194.26,-39.71 199.21,-34.76"/>
</a>
</g>
</g>
<!-- Node6 -->
<g id="Node000006" class="node">
<title>Node6</title>
<g id="a_Node000006"><a xlink:title=" ">
<polygon fill="#e0e0e0" stroke="#999999" points="362.5,-30 246.5,-30 246.5,0 362.5,0 362.5,-30"/>
<text text-anchor="start" x="254.5" y="-18" font-family="Helvetica,sans-Serif" font-size="10.00">boost/archive/binary</text>
<text text-anchor="middle" x="304.5" y="-7" font-family="Helvetica,sans-Serif" font-size="10.00">_iarchive.hpp</text>
</a>
</g>
</g>
<!-- Node3&#45;&gt;Node6 -->
<g id="edge5_Node000003_Node000006" class="edge">
<title>Node3&#45;&gt;Node6</title>
<g id="a_edge5_Node000003_Node000006"><a xlink:title=" ">
<path fill="none" stroke="#63b8ff" d="M253.93,-65.8C262.43,-57.43 273.34,-46.68 282.86,-37.31"/>
<polygon fill="#63b8ff" stroke="#63b8ff" points="285.44,-39.67 290.11,-30.16 280.53,-34.69 285.44,-39.67"/>
</a>
</g>
</g>
<!-- Node7 -->
<g id="Node000007" class="node">
<title>Node7</title>
<g id="a_Node000007"><a xlink:title=" ">
<polygon fill="#e0e0e0" stroke="#999999" points="496.5,-30 380.5,-30 380.5,0 496.5,0 496.5,-30"/>
<text text-anchor="start" x="388.5" y="-18" font-family="Helvetica,sans-Serif" font-size="10.00">boost/archive/binary</text>
<text text-anchor="middle" x="438.5" y="-7" font-family="Helvetica,sans-Serif" font-size="10.00">_oarchive.hpp</text>
</a>
</g>
</g>
<!-- Node3&#45;&gt;Node7 -->
<g id="edge6_Node000003_Node000007" class="edge">
<title>Node3&#45;&gt;Node7</title>
<g id="a_edge6_Node000003_Node000007"><a xlink:title=" ">
<path fill="none" stroke="#63b8ff" d="M283.17,-65.95C313.24,-56.28 353.37,-43.38 385.3,-33.11"/>
<polygon fill="#63b8ff" stroke="#63b8ff" points="386.48,-36.41 394.93,-30.01 384.34,-29.74 386.48,-36.41"/>
</a>
</g>
</g>
</g>
</svg>
