<?xml version="1.0" encoding="UTF-8" standalone="no"?>
<!DOCTYPE svg PUBLIC "-//W3C//DTD SVG 1.1//EN"
 "http://www.w3.org/Graphics/SVG/1.1/DTD/svg11.dtd">
<!-- Generated by graphviz version 2.43.0 (0)
 -->
<!-- Title: /home/runner/work/Weaver/Weaver/include/App/Model/IBM/Landscape/LivingBeings/Species/Species.h Pages: 1 -->
<!--zoomable 280 -->

<svg id="main" version="1.1" xmlns="http://www.w3.org/2000/svg" xmlns:xlink="http://www.w3.org/1999/xlink" xml:space="preserve" onload="init(evt)">
<style type="text/css"><![CDATA[
.node, .edge {opacity: 0.7;}
.node.selected, .edge.selected {opacity: 1;}
.edge:hover path { stroke: red; }
.edge:hover polygon { stroke: red; fill: red; }
]]></style>

<defs>
  <circle id="rim" cx="0" cy="0" r="7"/>
  <circle id="rim2" cx="0" cy="0" r="3.5"/>
  <g id="zoomPlus">
    <use xlink:href="#rim" fill="#404040"><set attributeName="fill" to="#808080" begin="zoomplus.mouseover" end="zoomplus.mouseout"/></use>
    <path d="M-4,0h8M0,-4v8" fill="none" stroke="white" stroke-width="1.5" pointer-events="none"/>
  </g>
  <g id="zoomMin">
    <use xlink:href="#rim" fill="#404040"><set attributeName="fill" to="#808080" begin="zoomminus.mouseover" end="zoomminus.mouseout"/></use>
    <path d="M-4,0h8" fill="none" stroke="white" stroke-width="1.5" pointer-events="none"/>
  </g>
  <g id="arrowUp" transform="translate(30 24)">
    <use xlink:href="#rim"/>
    <path pointer-events="none" fill="none" stroke="white" stroke-width="1.5" d="M0,-3.0v7 M-2.5,-0.5L0,-3.0L2.5,-0.5"/>
  </g>
  <g id="arrowRight" transform="rotate(90) translate(36 -43)">
    <use xlink:href="#rim"/>
    <path pointer-events="none" fill="none" stroke="white" stroke-width="1.5" d="M0,-3.0v7 M-2.5,-0.5L0,-3.0L2.5,-0.5"/>
  </g>
  <g id="arrowDown" transform="rotate(180) translate(-30 -48)">
    <use xlink:href="#rim"/>
    <path pointer-events="none" fill="none" stroke="white" stroke-width="1.5" d="M0,-3.0v7 M-2.5,-0.5L0,-3.0L2.5,-0.5"/>
  </g>
  <g id="arrowLeft" transform="rotate(270) translate(-36 17)">
    <use xlink:href="#rim"/>
    <path pointer-events="none" fill="none" stroke="white" stroke-width="1.5" d="M0,-3.0v7 M-2.5,-0.5L0,-3.0L2.5,-0.5"/>
  </g>
  <g id="resetDef">
    <use xlink:href="#rim2" fill="#404040"><set attributeName="fill" to="#808080" begin="reset.mouseover" end="reset.mouseout"/></use>
  </g>
</defs>
<script type="application/ecmascript">
var viewWidth = 1503;
var viewHeight = 280;
var sectionId = 'dynsection-0';
</script>
<script type="application/ecmascript" xlink:href="svg.min.js"/>
<svg id="graph" class="graph">
<g id="viewport">
<title>/home/runner/work/Weaver/Weaver/include/App/Model/IBM/Landscape/LivingBeings/Species/Species.h</title>
<!-- Node1 -->
<g id="Node000001" class="node">
<title>Node1</title>
<g id="a_Node000001"><a xlink:title="Defines the base class for all species in the simulation, including animals and resources.">
<polygon fill="#999999" stroke="#666666" points="953.5,-272 795.5,-272 795.5,-220 953.5,-220 953.5,-272"/>
<text text-anchor="start" x="803.5" y="-260" font-family="Helvetica,sans-Serif" font-size="10.00">/home/runner/work/Weaver</text>
<text text-anchor="start" x="803.5" y="-249" font-family="Helvetica,sans-Serif" font-size="10.00">/Weaver/include/App/Model</text>
<text text-anchor="start" x="803.5" y="-238" font-family="Helvetica,sans-Serif" font-size="10.00">/IBM/Landscape/LivingBeings</text>
<text text-anchor="middle" x="874.5" y="-227" font-family="Helvetica,sans-Serif" font-size="10.00">/Species/Species.h</text>
</a>
</g>
</g>
<!-- Node2 -->
<g id="Node000002" class="node">
<title>Node2</title>
<g id="a_Node000002"><a xlink:title=" ">
<polygon fill="#e0e0e0" stroke="#999999" points="822.5,-24.5 778.5,-24.5 778.5,-5.5 822.5,-5.5 822.5,-24.5"/>
<text text-anchor="middle" x="800.5" y="-12.5" font-family="Helvetica,sans-Serif" font-size="10.00">string</text>
</a>
</g>
</g>
<!-- Node1&#45;&gt;Node2 -->
<g id="edge1_Node000001_Node000002" class="edge">
<title>Node1&#45;&gt;Node2</title>
<g id="a_edge1_Node000001_Node000002"><a xlink:title=" ">
<path fill="none" stroke="#63b8ff" d="M843.16,-219.82C814.64,-194.71 774.48,-153.3 757.5,-107 751.22,-89.89 751.16,-83.09 757.5,-66 762.48,-52.58 772.84,-40.35 782.15,-31.34"/>
<polygon fill="#63b8ff" stroke="#63b8ff" points="784.54,-33.89 789.58,-24.57 779.83,-28.72 784.54,-33.89"/>
</a>
</g>
</g>
<!-- Node3 -->
<g id="Node000003" class="node">
<title>Node3</title>
<g id="a_Node000003"><a xlink:title=" ">
<polygon fill="#e0e0e0" stroke="#999999" points="1209,-24.5 1162,-24.5 1162,-5.5 1209,-5.5 1209,-24.5"/>
<text text-anchor="middle" x="1185.5" y="-12.5" font-family="Helvetica,sans-Serif" font-size="10.00">cmath</text>
</a>
</g>
</g>
<!-- Node1&#45;&gt;Node3 -->
<g id="edge2_Node000001_Node000003" class="edge">
<title>Node1&#45;&gt;Node3</title>
<g id="a_edge2_Node000001_Node000003"><a xlink:title=" ">
<path fill="none" stroke="#63b8ff" d="M953.81,-241.7C1041.36,-236.2 1174.09,-221.72 1205.5,-184 1241.78,-140.43 1211.98,-67.05 1195.12,-33.58"/>
<polygon fill="#63b8ff" stroke="#63b8ff" points="1198.13,-31.79 1190.39,-24.56 1191.93,-35.04 1198.13,-31.79"/>
</a>
</g>
</g>
<!-- Node4 -->
<g id="Node000004" class="node">
<title>Node4</title>
<g id="a_Node000004"><a xlink:title=" ">
<polygon fill="#e0e0e0" stroke="#999999" points="946,-30 841,-30 841,0 946,0 946,-30"/>
<text text-anchor="start" x="849" y="-18" font-family="Helvetica,sans-Serif" font-size="10.00">boost/archive/text</text>
<text text-anchor="middle" x="893.5" y="-7" font-family="Helvetica,sans-Serif" font-size="10.00">_iarchive.hpp</text>
</a>
</g>
</g>
<!-- Node1&#45;&gt;Node4 -->
<g id="edge3_Node000001_Node000004" class="edge">
<title>Node1&#45;&gt;Node4</title>
<g id="a_edge3_Node000001_Node000004"><a xlink:title=" ">
<path fill="none" stroke="#63b8ff" d="M853.47,-219.58C838.31,-197.96 822.99,-166.74 838.5,-143 860.26,-109.68 898.74,-140.32 920.5,-107 934.11,-86.16 922.26,-58.22 910.25,-38.83"/>
<polygon fill="#63b8ff" stroke="#63b8ff" points="913.06,-36.73 904.63,-30.31 907.22,-40.59 913.06,-36.73"/>
</a>
</g>
</g>
<!-- Node5 -->
<g id="Node000005" class="node">
<title>Node5</title>
<g id="a_Node000005"><a xlink:title=" ">
<polygon fill="#e0e0e0" stroke="#999999" points="1144,-30 1039,-30 1039,0 1144,0 1144,-30"/>
<text text-anchor="start" x="1047" y="-18" font-family="Helvetica,sans-Serif" font-size="10.00">boost/archive/text</text>
<text text-anchor="middle" x="1091.5" y="-7" font-family="Helvetica,sans-Serif" font-size="10.00">_oarchive.hpp</text>
</a>
</g>
</g>
<!-- Node1&#45;&gt;Node5 -->
<g id="edge4_Node000001_Node000005" class="edge">
<title>Node1&#45;&gt;Node5</title>
<g id="a_edge4_Node000001_Node000005"><a xlink:title=" ">
<path fill="none" stroke="#63b8ff" d="M953.77,-240.68C1036.31,-234.33 1157.56,-219.15 1186.5,-184 1225.95,-136.09 1158.57,-69.55 1118.31,-36.43"/>
<polygon fill="#63b8ff" stroke="#63b8ff" points="1120.4,-33.62 1110.41,-30.08 1116.01,-39.07 1120.4,-33.62"/>
</a>
</g>
</g>
<!-- Node6 -->
<g id="Node000006" class="node">
<title>Node6</title>
<g id="a_Node000006"><a xlink:title=" ">
<polygon fill="#e0e0e0" stroke="#999999" points="402.5,-30 286.5,-30 286.5,0 402.5,0 402.5,-30"/>
<text text-anchor="start" x="294.5" y="-18" font-family="Helvetica,sans-Serif" font-size="10.00">boost/archive/binary</text>
<text text-anchor="middle" x="344.5" y="-7" font-family="Helvetica,sans-Serif" font-size="10.00">_iarchive.hpp</text>
</a>
</g>
</g>
<!-- Node1&#45;&gt;Node6 -->
<g id="edge5_Node000001_Node000006" class="edge">
<title>Node1&#45;&gt;Node6</title>
<g id="a_edge5_Node000001_Node000006"><a xlink:title=" ">
<path fill="none" stroke="#63b8ff" d="M795.4,-244.83C599.5,-243.62 103.82,-235.46 51.5,-184 14.04,-147.16 10.37,-105.94 44.5,-66 77.82,-27 221.98,-38.9 272.5,-30 273.77,-29.78 275.05,-29.55 276.34,-29.32"/>
<polygon fill="#63b8ff" stroke="#63b8ff" points="277.17,-32.72 286.37,-27.49 275.91,-25.84 277.17,-32.72"/>
</a>
</g>
</g>
<!-- Node7 -->
<g id="Node000007" class="node">
<title>Node7</title>
<g id="a_Node000007"><a xlink:title=" ">
<polygon fill="#e0e0e0" stroke="#999999" points="598.5,-30 482.5,-30 482.5,0 598.5,0 598.5,-30"/>
<text text-anchor="start" x="490.5" y="-18" font-family="Helvetica,sans-Serif" font-size="10.00">boost/archive/binary</text>
<text text-anchor="middle" x="540.5" y="-7" font-family="Helvetica,sans-Serif" font-size="10.00">_oarchive.hpp</text>
</a>
</g>
</g>
<!-- Node1&#45;&gt;Node7 -->
<g id="edge6_Node000001_Node000007" class="edge">
<title>Node1&#45;&gt;Node7</title>
<g id="a_edge6_Node000001_Node000007"><a xlink:title=" ">
<path fill="none" stroke="#63b8ff" d="M795.17,-238.51C712.36,-227.01 586.39,-195.17 526.5,-107 512.98,-87.09 520.2,-59.12 528.45,-39.46"/>
<polygon fill="#63b8ff" stroke="#63b8ff" points="531.67,-40.84 532.62,-30.29 525.3,-37.94 531.67,-40.84"/>
</a>
</g>
</g>
<!-- Node8 -->
<g id="Node000008" class="node">
<title>Node8</title>
<g id="a_Node000008"><a xlink:href="trim_8h.html" target="_top" xlink:title="Provides utility functions to trim whitespace from strings.">
<polygon fill="white" stroke="#666666" points="162.5,-173 60.5,-173 60.5,-154 162.5,-154 162.5,-173"/>
<text text-anchor="middle" x="111.5" y="-161" font-family="Helvetica,sans-Serif" font-size="10.00">Misc/string/trim.h</text>
</a>
</g>
</g>
<!-- Node1&#45;&gt;Node8 -->
<g id="edge7_Node000001_Node000008" class="edge">
<title>Node1&#45;&gt;Node8</title>
<g id="a_edge7_Node000001_Node000008"><a xlink:title=" ">
<path fill="none" stroke="#63b8ff" d="M795.36,-236.65C642.66,-220.54 310.32,-185.48 172.88,-170.98"/>
<polygon fill="#63b8ff" stroke="#63b8ff" points="172.86,-167.45 162.54,-169.89 172.12,-174.42 172.86,-167.45"/>
</a>
</g>
</g>
<!-- Node12 -->
<g id="Node000012" class="node">
<title>Node12</title>
<g id="a_Node000012"><a xlink:href="Types_8h.html" target="_top" xlink:title="Defines common type aliases and constants used throughout the Weaver project.">
<polygon fill="white" stroke="#666666" points="395,-173 316,-173 316,-154 395,-154 395,-173"/>
<text text-anchor="middle" x="355.5" y="-161" font-family="Helvetica,sans-Serif" font-size="10.00">Misc/Types.h</text>
</a>
</g>
</g>
<!-- Node1&#45;&gt;Node12 -->
<g id="edge11_Node000001_Node000012" class="edge">
<title>Node1&#45;&gt;Node12</title>
<g id="a_edge11_Node000001_Node000012"><a xlink:title=" ">
<path fill="none" stroke="#63b8ff" d="M795.25,-233.69C713.16,-221.84 581.23,-202.42 467.5,-184 447.01,-180.68 424.45,-176.8 404.99,-173.37"/>
<polygon fill="#63b8ff" stroke="#63b8ff" points="405.57,-169.92 395.11,-171.63 404.35,-176.82 405.57,-169.92"/>
</a>
</g>
</g>
<!-- Node21 -->
<g id="Node000021" class="node">
<title>Node21</title>
<g id="a_Node000021"><a xlink:href="CustomIndexedVector_8h.html" target="_top" xlink:title="Template class providing a vector indexed by a custom type with bounds checking and Boost....">
<polygon fill="white" stroke="#666666" points="1467,-96 1310,-96 1310,-77 1467,-77 1467,-96"/>
<text text-anchor="middle" x="1388.5" y="-84" font-family="Helvetica,sans-Serif" font-size="10.00">Misc/CustomIndexedVector.h</text>
</a>
</g>
</g>
<!-- Node1&#45;&gt;Node21 -->
<g id="edge30_Node000001_Node000021" class="edge">
<title>Node1&#45;&gt;Node21</title>
<g id="a_edge30_Node000001_Node000021"><a xlink:title=" ">
<path fill="none" stroke="#63b8ff" d="M953.64,-242.3C1102.73,-236.41 1413.22,-219.91 1445.5,-184 1468.31,-158.63 1433.14,-122.75 1408.71,-102.65"/>
<polygon fill="#63b8ff" stroke="#63b8ff" points="1410.64,-99.71 1400.63,-96.24 1406.29,-105.2 1410.64,-99.71"/>
</a>
</g>
</g>
<!-- Node24 -->
<g id="Node000024" class="node">
<title>Node24</title>
<g id="a_Node000024"><a xlink:href="SpeciesGrowth_8h.html" target="_top" xlink:title="Defines the SpeciesGrowth class representing the growth characteristics of a species.">
<polygon fill="white" stroke="#666666" points="1177,-184 1032,-184 1032,-143 1177,-143 1177,-184"/>
<text text-anchor="start" x="1040" y="-172" font-family="Helvetica,sans-Serif" font-size="10.00">App/Model/IBM/Landscape</text>
<text text-anchor="start" x="1040" y="-161" font-family="Helvetica,sans-Serif" font-size="10.00">/LivingBeings/Species</text>
<text text-anchor="middle" x="1104.5" y="-150" font-family="Helvetica,sans-Serif" font-size="10.00">/Growth/SpeciesGrowth.h</text>
</a>
</g>
</g>
<!-- Node1&#45;&gt;Node24 -->
<g id="edge33_Node000001_Node000024" class="edge">
<title>Node1&#45;&gt;Node24</title>
<g id="a_edge33_Node000001_Node000024"><a xlink:title=" ">
<path fill="none" stroke="#63b8ff" d="M946.01,-219.97C975.75,-209.56 1010.04,-197.56 1039.1,-187.39"/>
<polygon fill="#63b8ff" stroke="#63b8ff" points="1040.46,-190.62 1048.74,-184.02 1038.14,-184.02 1040.46,-190.62"/>
</a>
</g>
</g>
<!-- Node27 -->
<g id="Node000027" class="node">
<title>Node27</title>
<g id="a_Node000027"><a xlink:href="SpeciesType_8h.html" target="_top" xlink:title="Defines the type of species in the simulation.">
<polygon fill="white" stroke="#666666" points="1436,-184 1291,-184 1291,-143 1436,-143 1436,-184"/>
<text text-anchor="start" x="1299" y="-172" font-family="Helvetica,sans-Serif" font-size="10.00">App/Model/IBM/Landscape</text>
<text text-anchor="start" x="1299" y="-161" font-family="Helvetica,sans-Serif" font-size="10.00">/LivingBeings/Species</text>
<text text-anchor="middle" x="1363.5" y="-150" font-family="Helvetica,sans-Serif" font-size="10.00">/SpeciesType.h</text>
</a>
</g>
</g>
<!-- Node1&#45;&gt;Node27 -->
<g id="edge49_Node000001_Node000027" class="edge">
<title>Node1&#45;&gt;Node27</title>
<g id="a_edge49_Node000001_Node000027"><a xlink:title=" ">
<path fill="none" stroke="#63b8ff" d="M953.72,-234.64C1035,-223.63 1164.97,-204.93 1276.5,-184 1277.97,-183.72 1279.46,-183.44 1280.96,-183.15"/>
<polygon fill="#63b8ff" stroke="#63b8ff" points="1281.82,-186.55 1290.95,-181.16 1280.46,-179.68 1281.82,-186.55"/>
</a>
</g>
</g>
<!-- Node28 -->
<g id="Node000028" class="node">
<title>Node28</title>
<g id="a_Node000028"><a xlink:href="StructuralUnits_8h.html" target="_top" xlink:title="Defines physical units used in the simulation: DryMass, WetMass, and Length.">
<polygon fill="white" stroke="#666666" points="1014,-178.5 847,-178.5 847,-148.5 1014,-148.5 1014,-178.5"/>
<text text-anchor="start" x="855" y="-166.5" font-family="Helvetica,sans-Serif" font-size="10.00">App/Model/IBM/Landscape</text>
<text text-anchor="middle" x="930.5" y="-155.5" font-family="Helvetica,sans-Serif" font-size="10.00">/LivingBeings/StructuralUnits.h</text>
</a>
</g>
</g>
<!-- Node1&#45;&gt;Node28 -->
<g id="edge50_Node000001_Node000028" class="edge">
<title>Node1&#45;&gt;Node28</title>
<g id="a_edge50_Node000001_Node000028"><a xlink:title=" ">
<path fill="none" stroke="#63b8ff" d="M891.91,-219.97C899.16,-209.55 907.53,-197.53 914.61,-187.35"/>
<polygon fill="#63b8ff" stroke="#63b8ff" points="917.6,-189.17 920.44,-178.96 911.86,-185.17 917.6,-189.17"/>
</a>
</g>
</g>
<!-- Node9 -->
<g id="Node000009" class="node">
<title>Node9</title>
<g id="a_Node000009"><a xlink:title=" ">
<polygon fill="#e0e0e0" stroke="#999999" points="189.5,-24.5 125.5,-24.5 125.5,-5.5 189.5,-5.5 189.5,-24.5"/>
<text text-anchor="middle" x="157.5" y="-12.5" font-family="Helvetica,sans-Serif" font-size="10.00">algorithm</text>
</a>
</g>
</g>
<!-- Node8&#45;&gt;Node9 -->
<g id="edge8_Node000008_Node000009" class="edge">
<title>Node8&#45;&gt;Node9</title>
<g id="a_edge8_Node000008_Node000009"><a xlink:title=" ">
<path fill="none" stroke="#63b8ff" d="M94.33,-153.99C78.09,-144.88 54.72,-128.73 44.5,-107 36.75,-90.51 34.56,-81.27 44.5,-66 49.26,-58.69 93.6,-40.48 125.29,-28.18"/>
<polygon fill="#63b8ff" stroke="#63b8ff" points="126.59,-31.43 134.67,-24.56 124.08,-24.89 126.59,-31.43"/>
</a>
</g>
</g>
<!-- Node10 -->
<g id="Node000010" class="node">
<title>Node10</title>
<g id="a_Node000010"><a xlink:title=" ">
<polygon fill="#e0e0e0" stroke="#999999" points="103,-96 54,-96 54,-77 103,-77 103,-96"/>
<text text-anchor="middle" x="78.5" y="-84" font-family="Helvetica,sans-Serif" font-size="10.00">cctype</text>
</a>
</g>
</g>
<!-- Node8&#45;&gt;Node10 -->
<g id="edge9_Node000008_Node000010" class="edge">
<title>Node8&#45;&gt;Node10</title>
<g id="a_edge9_Node000008_Node000010"><a xlink:title=" ">
<path fill="none" stroke="#63b8ff" d="M107.71,-153.9C102.54,-142.14 93.14,-120.78 86.4,-105.45"/>
<polygon fill="#63b8ff" stroke="#63b8ff" points="89.47,-103.75 82.24,-96 83.07,-106.57 89.47,-103.75"/>
</a>
</g>
</g>
<!-- Node11 -->
<g id="Node000011" class="node">
<title>Node11</title>
<g id="a_Node000011"><a xlink:title=" ">
<polygon fill="#e0e0e0" stroke="#999999" points="167.5,-96 121.5,-96 121.5,-77 167.5,-77 167.5,-96"/>
<text text-anchor="middle" x="144.5" y="-84" font-family="Helvetica,sans-Serif" font-size="10.00">locale</text>
</a>
</g>
</g>
<!-- Node8&#45;&gt;Node11 -->
<g id="edge10_Node000008_Node000011" class="edge">
<title>Node8&#45;&gt;Node11</title>
<g id="a_edge10_Node000008_Node000011"><a xlink:title=" ">
<path fill="none" stroke="#63b8ff" d="M115.29,-153.9C120.46,-142.14 129.86,-120.78 136.6,-105.45"/>
<polygon fill="#63b8ff" stroke="#63b8ff" points="139.93,-106.57 140.76,-96 133.53,-103.75 139.93,-106.57"/>
</a>
</g>
</g>
<!-- Node13 -->
<g id="Node000013" class="node">
<title>Node13</title>
<g id="a_Node000013"><a xlink:href="Coordinate3D_8h.html" target="_top" xlink:title="Defines a templated 3D coordinate class with Boost.Serialization support.">
<polygon fill="white" stroke="#666666" points="277.5,-96 185.5,-96 185.5,-77 277.5,-77 277.5,-96"/>
<text text-anchor="middle" x="231.5" y="-84" font-family="Helvetica,sans-Serif" font-size="10.00">Coordinate3D.h</text>
</a>
</g>
</g>
<!-- Node12&#45;&gt;Node13 -->
<g id="edge12_Node000012_Node000013" class="edge">
<title>Node12&#45;&gt;Node13</title>
<g id="a_edge12_Node000012_Node000013"><a xlink:title=" ">
<path fill="none" stroke="#63b8ff" d="M341.28,-153.9C319.97,-141.01 279.58,-116.58 254.18,-101.21"/>
<polygon fill="#63b8ff" stroke="#63b8ff" points="255.93,-98.18 245.56,-96 252.3,-104.17 255.93,-98.18"/>
</a>
</g>
</g>
<!-- Node16 -->
<g id="Node000016" class="node">
<title>Node16</title>
<g id="a_Node000016"><a xlink:title=" ">
<polygon fill="#e0e0e0" stroke="#999999" points="377.5,-96 333.5,-96 333.5,-77 377.5,-77 377.5,-96"/>
<text text-anchor="middle" x="355.5" y="-84" font-family="Helvetica,sans-Serif" font-size="10.00">cfloat</text>
</a>
</g>
</g>
<!-- Node12&#45;&gt;Node16 -->
<g id="edge17_Node000012_Node000016" class="edge">
<title>Node12&#45;&gt;Node16</title>
<g id="a_edge17_Node000012_Node000016"><a xlink:title=" ">
<path fill="none" stroke="#63b8ff" d="M355.5,-153.9C355.5,-142.37 355.5,-121.59 355.5,-106.34"/>
<polygon fill="#63b8ff" stroke="#63b8ff" points="359,-106 355.5,-96 352,-106 359,-106"/>
</a>
</g>
</g>
<!-- Node17 -->
<g id="Node000017" class="node">
<title>Node17</title>
<g id="a_Node000017"><a xlink:title=" ">
<polygon fill="#e0e0e0" stroke="#999999" points="464.5,-24.5 420.5,-24.5 420.5,-5.5 464.5,-5.5 464.5,-24.5"/>
<text text-anchor="middle" x="442.5" y="-12.5" font-family="Helvetica,sans-Serif" font-size="10.00">limits</text>
</a>
</g>
</g>
<!-- Node12&#45;&gt;Node17 -->
<g id="edge18_Node000012_Node000017" class="edge">
<title>Node12&#45;&gt;Node17</title>
<g id="a_edge18_Node000012_Node000017"><a xlink:title=" ">
<path fill="none" stroke="#63b8ff" d="M348.03,-153.81C333.69,-136.01 305.33,-94.67 324.5,-66 347.75,-31.21 373.09,-46.61 411.5,-30 412.5,-29.57 413.52,-29.12 414.55,-28.67"/>
<polygon fill="#63b8ff" stroke="#63b8ff" points="416.14,-31.8 423.85,-24.54 413.3,-25.4 416.14,-31.8"/>
</a>
</g>
</g>
<!-- Node18 -->
<g id="Node000018" class="node">
<title>Node18</title>
<g id="a_Node000018"><a xlink:href="PreciseDouble_8h.html" target="_top" xlink:title="Defines the PreciseDouble class for safe and precise double&#45;precision arithmetic.">
<polygon fill="white" stroke="#666666" points="709,-101.5 586,-101.5 586,-71.5 709,-71.5 709,-101.5"/>
<text text-anchor="start" x="594" y="-89.5" font-family="Helvetica,sans-Serif" font-size="10.00">App/Model/IBM/Maths</text>
<text text-anchor="middle" x="647.5" y="-78.5" font-family="Helvetica,sans-Serif" font-size="10.00">/PreciseDouble.h</text>
</a>
</g>
</g>
<!-- Node12&#45;&gt;Node18 -->
<g id="edge19_Node000012_Node000018" class="edge">
<title>Node12&#45;&gt;Node18</title>
<g id="a_edge19_Node000012_Node000018"><a xlink:title=" ">
<path fill="none" stroke="#63b8ff" d="M388.71,-153.97C435.86,-141.86 523.14,-119.44 583.21,-104.01"/>
<polygon fill="#63b8ff" stroke="#63b8ff" points="584.16,-107.38 592.98,-101.5 582.42,-100.6 584.16,-107.38"/>
</a>
</g>
</g>
<!-- Node13&#45;&gt;Node6 -->
<g id="edge14_Node000013_Node000006" class="edge">
<title>Node13&#45;&gt;Node6</title>
<g id="a_edge14_Node000013_Node000006"><a xlink:title=" ">
<path fill="none" stroke="#63b8ff" d="M245.36,-76.98C262.03,-66.72 290.57,-49.17 312.75,-35.53"/>
<polygon fill="#63b8ff" stroke="#63b8ff" points="314.83,-38.36 321.51,-30.14 311.16,-32.4 314.83,-38.36"/>
</a>
</g>
</g>
<!-- Node13&#45;&gt;Node7 -->
<g id="edge15_Node000013_Node000007" class="edge">
<title>Node13&#45;&gt;Node7</title>
<g id="a_edge15_Node000013_Node000007"><a xlink:title=" ">
<path fill="none" stroke="#63b8ff" d="M269.39,-76.98C319.87,-65.62 410.06,-45.34 472.47,-31.3"/>
<polygon fill="#63b8ff" stroke="#63b8ff" points="473.26,-34.71 482.24,-29.1 471.72,-27.88 473.26,-34.71"/>
</a>
</g>
</g>
<!-- Node14 -->
<g id="Node000014" class="node">
<title>Node14</title>
<g id="a_Node000014"><a xlink:title=" ">
<polygon fill="#e0e0e0" stroke="#999999" points="107,-30 0,-30 0,0 107,0 107,-30"/>
<text text-anchor="start" x="8" y="-18" font-family="Helvetica,sans-Serif" font-size="10.00">boost/serialization</text>
<text text-anchor="middle" x="53.5" y="-7" font-family="Helvetica,sans-Serif" font-size="10.00">/access.hpp</text>
</a>
</g>
</g>
<!-- Node13&#45;&gt;Node14 -->
<g id="edge13_Node000013_Node000014" class="edge">
<title>Node13&#45;&gt;Node14</title>
<g id="a_edge13_Node000013_Node000014"><a xlink:title=" ">
<path fill="none" stroke="#63b8ff" d="M209.67,-76.98C182.27,-66.28 134.54,-47.64 99.04,-33.78"/>
<polygon fill="#63b8ff" stroke="#63b8ff" points="99.96,-30.38 89.37,-30.01 97.42,-36.9 99.96,-30.38"/>
</a>
</g>
</g>
<!-- Node15 -->
<g id="Node000015" class="node">
<title>Node15</title>
<g id="a_Node000015"><a xlink:title=" ">
<polygon fill="#e0e0e0" stroke="#999999" points="263,-24.5 208,-24.5 208,-5.5 263,-5.5 263,-24.5"/>
<text text-anchor="middle" x="235.5" y="-12.5" font-family="Helvetica,sans-Serif" font-size="10.00">fstream</text>
</a>
</g>
</g>
<!-- Node13&#45;&gt;Node15 -->
<g id="edge16_Node000013_Node000015" class="edge">
<title>Node13&#45;&gt;Node15</title>
<g id="a_edge16_Node000013_Node000015"><a xlink:title=" ">
<path fill="none" stroke="#63b8ff" d="M231.99,-76.98C232.59,-66.56 233.62,-48.61 234.41,-34.88"/>
<polygon fill="#63b8ff" stroke="#63b8ff" points="237.93,-34.78 235.01,-24.59 230.94,-34.37 237.93,-34.78"/>
</a>
</g>
</g>
<!-- Node18&#45;&gt;Node2 -->
<g id="edge24_Node000018_Node000002" class="edge">
<title>Node18&#45;&gt;Node2</title>
<g id="a_edge24_Node000018_Node000002"><a xlink:title=" ">
<path fill="none" stroke="#63b8ff" d="M678.46,-71.44C705.99,-58.93 745.89,-40.81 772.49,-28.72"/>
<polygon fill="#63b8ff" stroke="#63b8ff" points="773.98,-31.89 781.64,-24.57 771.09,-25.52 773.98,-31.89"/>
</a>
</g>
</g>
<!-- Node18&#45;&gt;Node3 -->
<g id="edge25_Node000018_Node000003" class="edge">
<title>Node18&#45;&gt;Node3</title>
<g id="a_edge25_Node000018_Node000003"><a xlink:title=" ">
<path fill="none" stroke="#63b8ff" d="M709.03,-73.64C724.79,-70.87 741.74,-68.11 757.5,-66 932.66,-42.56 982.34,-73.99 1153.5,-30 1155.39,-29.51 1157.32,-28.93 1159.24,-28.27"/>
<polygon fill="#63b8ff" stroke="#63b8ff" points="1160.56,-31.51 1168.59,-24.6 1158,-25 1160.56,-31.51"/>
</a>
</g>
</g>
<!-- Node18&#45;&gt;Node4 -->
<g id="edge20_Node000018_Node000004" class="edge">
<title>Node18&#45;&gt;Node4</title>
<g id="a_edge20_Node000018_Node000004"><a xlink:title=" ">
<path fill="none" stroke="#63b8ff" d="M697.28,-71.44C736.79,-60.27 792.16,-44.63 834,-32.81"/>
<polygon fill="#63b8ff" stroke="#63b8ff" points="835.12,-36.13 843.79,-30.04 833.22,-29.39 835.12,-36.13"/>
</a>
</g>
</g>
<!-- Node18&#45;&gt;Node5 -->
<g id="edge21_Node000018_Node000005" class="edge">
<title>Node18&#45;&gt;Node5</title>
<g id="a_edge21_Node000018_Node000005"><a xlink:title=" ">
<path fill="none" stroke="#63b8ff" d="M709.09,-74.09C724.85,-71.3 741.78,-68.43 757.5,-66 875.26,-47.81 908.33,-51.5 1028.99,-30.17"/>
<polygon fill="#63b8ff" stroke="#63b8ff" points="1029.76,-33.59 1038.99,-28.38 1028.53,-26.7 1029.76,-33.59"/>
</a>
</g>
</g>
<!-- Node18&#45;&gt;Node6 -->
<g id="edge22_Node000018_Node000006" class="edge">
<title>Node18&#45;&gt;Node6</title>
<g id="a_edge22_Node000018_Node000006"><a xlink:title=" ">
<path fill="none" stroke="#63b8ff" d="M586.18,-71.44C535.82,-59.88 464.56,-43.54 412.46,-31.59"/>
<polygon fill="#63b8ff" stroke="#63b8ff" points="413.17,-28.16 402.64,-29.34 411.61,-34.98 413.17,-28.16"/>
</a>
</g>
</g>
<!-- Node18&#45;&gt;Node7 -->
<g id="edge23_Node000018_Node000007" class="edge">
<title>Node18&#45;&gt;Node7</title>
<g id="a_edge23_Node000018_Node000007"><a xlink:title=" ">
<path fill="none" stroke="#63b8ff" d="M625.85,-71.44C610.04,-61.17 588.4,-47.11 570.86,-35.72"/>
<polygon fill="#63b8ff" stroke="#63b8ff" points="572.41,-32.56 562.12,-30.04 568.6,-38.43 572.41,-32.56"/>
</a>
</g>
</g>
<!-- Node18&#45;&gt;Node9 -->
<g id="edge26_Node000018_Node000009" class="edge">
<title>Node18&#45;&gt;Node9</title>
<g id="a_edge26_Node000018_Node000009"><a xlink:title=" ">
<path fill="none" stroke="#63b8ff" d="M585.97,-81.76C499,-75.59 335.56,-60.78 199.5,-30 196.45,-29.31 193.31,-28.49 190.18,-27.59"/>
<polygon fill="#63b8ff" stroke="#63b8ff" points="190.96,-24.16 180.37,-24.54 188.88,-30.85 190.96,-24.16"/>
</a>
</g>
</g>
<!-- Node18&#45;&gt;Node17 -->
<g id="edge28_Node000018_Node000017" class="edge">
<title>Node18&#45;&gt;Node17</title>
<g id="a_edge28_Node000018_Node000017"><a xlink:title=" ">
<path fill="none" stroke="#63b8ff" d="M598.23,-71.44C563.1,-61.01 514.94,-45.91 473.5,-30 472.32,-29.55 471.12,-29.07 469.92,-28.58"/>
<polygon fill="#63b8ff" stroke="#63b8ff" points="471.28,-25.36 460.71,-24.65 468.53,-31.8 471.28,-25.36"/>
</a>
</g>
</g>
<!-- Node19 -->
<g id="Node000019" class="node">
<title>Node19</title>
<g id="a_Node000019"><a xlink:title=" ">
<polygon fill="#e0e0e0" stroke="#999999" points="676.5,-24.5 616.5,-24.5 616.5,-5.5 676.5,-5.5 676.5,-24.5"/>
<text text-anchor="middle" x="646.5" y="-12.5" font-family="Helvetica,sans-Serif" font-size="10.00">iostream</text>
</a>
</g>
</g>
<!-- Node18&#45;&gt;Node19 -->
<g id="edge27_Node000018_Node000019" class="edge">
<title>Node18&#45;&gt;Node19</title>
<g id="a_edge27_Node000018_Node000019"><a xlink:title=" ">
<path fill="none" stroke="#63b8ff" d="M647.3,-71.44C647.15,-60.96 646.94,-46.55 646.77,-35.05"/>
<polygon fill="#63b8ff" stroke="#63b8ff" points="650.27,-34.72 646.63,-24.77 643.27,-34.82 650.27,-34.72"/>
</a>
</g>
</g>
<!-- Node20 -->
<g id="Node000020" class="node">
<title>Node20</title>
<g id="a_Node000020"><a xlink:title=" ">
<polygon fill="#e0e0e0" stroke="#999999" points="760,-24.5 695,-24.5 695,-5.5 760,-5.5 760,-24.5"/>
<text text-anchor="middle" x="727.5" y="-12.5" font-family="Helvetica,sans-Serif" font-size="10.00">functional</text>
</a>
</g>
</g>
<!-- Node18&#45;&gt;Node20 -->
<g id="edge29_Node000018_Node000020" class="edge">
<title>Node18&#45;&gt;Node20</title>
<g id="a_edge29_Node000018_Node000020"><a xlink:title=" ">
<path fill="none" stroke="#63b8ff" d="M663.69,-71.44C677,-59.87 695.84,-43.51 709.59,-31.56"/>
<polygon fill="#63b8ff" stroke="#63b8ff" points="712.15,-33.97 717.41,-24.77 707.56,-28.68 712.15,-33.97"/>
</a>
</g>
</g>
<!-- Node22 -->
<g id="Node000022" class="node">
<title>Node22</title>
<g id="a_Node000022"><a xlink:title=" ">
<polygon fill="#e0e0e0" stroke="#999999" points="1349,-24.5 1302,-24.5 1302,-5.5 1349,-5.5 1349,-24.5"/>
<text text-anchor="middle" x="1325.5" y="-12.5" font-family="Helvetica,sans-Serif" font-size="10.00">vector</text>
</a>
</g>
</g>
<!-- Node21&#45;&gt;Node22 -->
<g id="edge31_Node000021_Node000022" class="edge">
<title>Node21&#45;&gt;Node22</title>
<g id="a_edge31_Node000021_Node000022"><a xlink:title=" ">
<path fill="none" stroke="#63b8ff" d="M1380.77,-76.98C1370.67,-65.83 1352.75,-46.06 1340.06,-32.06"/>
<polygon fill="#63b8ff" stroke="#63b8ff" points="1342.6,-29.65 1333.29,-24.59 1337.41,-34.35 1342.6,-29.65"/>
</a>
</g>
</g>
<!-- Node23 -->
<g id="Node000023" class="node">
<title>Node23</title>
<g id="a_Node000023"><a xlink:title=" ">
<polygon fill="#e0e0e0" stroke="#999999" points="1495,-30 1388,-30 1388,0 1495,0 1495,-30"/>
<text text-anchor="start" x="1396" y="-18" font-family="Helvetica,sans-Serif" font-size="10.00">boost/serialization</text>
<text text-anchor="middle" x="1441.5" y="-7" font-family="Helvetica,sans-Serif" font-size="10.00">/vector.hpp</text>
</a>
</g>
</g>
<!-- Node21&#45;&gt;Node23 -->
<g id="edge32_Node000021_Node000023" class="edge">
<title>Node21&#45;&gt;Node23</title>
<g id="a_edge32_Node000021_Node000023"><a xlink:title=" ">
<path fill="none" stroke="#63b8ff" d="M1395,-76.98C1402.3,-67.4 1414.44,-51.48 1424.49,-38.3"/>
<polygon fill="#63b8ff" stroke="#63b8ff" points="1427.44,-40.21 1430.72,-30.14 1421.87,-35.97 1427.44,-40.21"/>
</a>
</g>
</g>
<!-- Node24&#45;&gt;Node4 -->
<g id="edge36_Node000024_Node000004" class="edge">
<title>Node24&#45;&gt;Node4</title>
<g id="a_edge36_Node000024_Node000004"><a xlink:title=" ">
<path fill="none" stroke="#63b8ff" d="M1077.82,-142.97C1050.74,-123.25 1007.51,-92.08 969.5,-66 954.65,-55.81 937.95,-44.78 924,-35.68"/>
<polygon fill="#63b8ff" stroke="#63b8ff" points="925.56,-32.52 915.27,-30 921.74,-38.39 925.56,-32.52"/>
</a>
</g>
</g>
<!-- Node24&#45;&gt;Node5 -->
<g id="edge37_Node000024_Node000005" class="edge">
<title>Node24&#45;&gt;Node5</title>
<g id="a_edge37_Node000024_Node000005"><a xlink:title=" ">
<path fill="none" stroke="#63b8ff" d="M1106.38,-142.8C1107.86,-123.23 1109.13,-92.39 1105.5,-66 1104.31,-57.33 1102.01,-48.05 1099.61,-39.87"/>
<polygon fill="#63b8ff" stroke="#63b8ff" points="1102.92,-38.72 1096.6,-30.22 1096.24,-40.81 1102.92,-38.72"/>
</a>
</g>
</g>
<!-- Node24&#45;&gt;Node6 -->
<g id="edge38_Node000024_Node000006" class="edge">
<title>Node24&#45;&gt;Node6</title>
<g id="a_edge38_Node000024_Node000006"><a xlink:title=" ">
<path fill="none" stroke="#63b8ff" d="M1031.75,-144.4C1028.97,-143.9 1026.21,-143.43 1023.5,-143 813.03,-109.96 751.92,-159.74 545.5,-107 482.97,-91.02 415.68,-56.66 376.98,-35.03"/>
<polygon fill="#63b8ff" stroke="#63b8ff" points="378.67,-31.96 368.24,-30.09 375.23,-38.06 378.67,-31.96"/>
</a>
</g>
</g>
<!-- Node24&#45;&gt;Node7 -->
<g id="edge39_Node000024_Node000007" class="edge">
<title>Node24&#45;&gt;Node7</title>
<g id="a_edge39_Node000024_Node000007"><a xlink:title=" ">
<path fill="none" stroke="#63b8ff" d="M1031.75,-144.42C1028.97,-143.91 1026.21,-143.43 1023.5,-143 925.31,-127.32 657.69,-165.79 577.5,-107 556.2,-91.39 547.13,-61.37 543.29,-40.08"/>
<polygon fill="#63b8ff" stroke="#63b8ff" points="546.74,-39.5 541.76,-30.16 539.82,-40.57 546.74,-39.5"/>
</a>
</g>
</g>
<!-- Node24&#45;&gt;Node18 -->
<g id="edge48_Node000024_Node000018" class="edge">
<title>Node24&#45;&gt;Node18</title>
<g id="a_edge48_Node000024_Node000018"><a xlink:title=" ">
<path fill="none" stroke="#63b8ff" d="M1031.72,-144.61C1028.95,-144.05 1026.2,-143.51 1023.5,-143 906.24,-121.01 875.37,-125.42 757.5,-107 745.1,-105.06 731.94,-102.86 719.2,-100.65"/>
<polygon fill="#63b8ff" stroke="#63b8ff" points="719.55,-97.16 709.09,-98.88 718.34,-104.05 719.55,-97.16"/>
</a>
</g>
</g>
<!-- Node24&#45;&gt;Node21 -->
<g id="edge47_Node000024_Node000021" class="edge">
<title>Node24&#45;&gt;Node21</title>
<g id="a_edge47_Node000024_Node000021"><a xlink:title=" ">
<path fill="none" stroke="#63b8ff" d="M1177.27,-143.28C1230.79,-129.15 1301.67,-110.43 1346.19,-98.67"/>
<polygon fill="#63b8ff" stroke="#63b8ff" points="1347.31,-102 1356.09,-96.06 1345.53,-95.23 1347.31,-102"/>
</a>
</g>
</g>
<!-- Node24&#45;&gt;Node22 -->
<g id="edge34_Node000024_Node000022" class="edge">
<title>Node24&#45;&gt;Node22</title>
<g id="a_edge34_Node000024_Node000022"><a xlink:title=" ">
<path fill="none" stroke="#63b8ff" d="M1134.31,-142.74C1179.56,-112.74 1264.51,-56.43 1304.13,-30.16"/>
<polygon fill="#63b8ff" stroke="#63b8ff" points="1306.13,-33.04 1312.53,-24.6 1302.26,-27.21 1306.13,-33.04"/>
</a>
</g>
</g>
<!-- Node24&#45;&gt;Node23 -->
<g id="edge35_Node000024_Node000023" class="edge">
<title>Node24&#45;&gt;Node23</title>
<g id="a_edge35_Node000024_Node000023"><a xlink:title=" ">
<path fill="none" stroke="#63b8ff" d="M1177.35,-154.09C1282.87,-141.56 1466.8,-118.25 1476.5,-107 1493.61,-87.14 1477.21,-58.01 1461.58,-38.08"/>
<polygon fill="#63b8ff" stroke="#63b8ff" points="1464.1,-35.64 1455.03,-30.17 1458.71,-40.1 1464.1,-35.64"/>
</a>
</g>
</g>
<!-- Node25 -->
<g id="Node000025" class="node">
<title>Node25</title>
<g id="a_Node000025"><a xlink:href="Instar_8h.html" target="_top" xlink:title="Defines the Instar class representing developmental stages of an animal.">
<polygon fill="white" stroke="#666666" points="911,-107 766,-107 766,-66 911,-66 911,-107"/>
<text text-anchor="start" x="774" y="-95" font-family="Helvetica,sans-Serif" font-size="10.00">App/Model/IBM/Landscape</text>
<text text-anchor="start" x="774" y="-84" font-family="Helvetica,sans-Serif" font-size="10.00">/LivingBeings/Species</text>
<text text-anchor="middle" x="838.5" y="-73" font-family="Helvetica,sans-Serif" font-size="10.00">/Growth/Instar.h</text>
</a>
</g>
</g>
<!-- Node24&#45;&gt;Node25 -->
<g id="edge40_Node000024_Node000025" class="edge">
<title>Node24&#45;&gt;Node25</title>
<g id="a_edge40_Node000024_Node000025"><a xlink:title=" ">
<path fill="none" stroke="#63b8ff" d="M1035.31,-142.99C999.27,-132.83 955.05,-120.36 917.66,-109.82"/>
<polygon fill="#63b8ff" stroke="#63b8ff" points="918.38,-106.39 907.81,-107.04 916.48,-113.12 918.38,-106.39"/>
</a>
</g>
</g>
<!-- Node25&#45;&gt;Node2 -->
<g id="edge42_Node000025_Node000002" class="edge">
<title>Node25&#45;&gt;Node2</title>
<g id="a_edge42_Node000025_Node000002"><a xlink:title=" ">
<path fill="none" stroke="#63b8ff" d="M827.71,-65.77C822.18,-55.66 815.5,-43.44 810.15,-33.64"/>
<polygon fill="#63b8ff" stroke="#63b8ff" points="813.19,-31.91 805.32,-24.82 807.05,-35.27 813.19,-31.91"/>
</a>
</g>
</g>
<!-- Node25&#45;&gt;Node4 -->
<g id="edge43_Node000025_Node000004" class="edge">
<title>Node25&#45;&gt;Node4</title>
<g id="a_edge43_Node000025_Node000004"><a xlink:title=" ">
<path fill="none" stroke="#63b8ff" d="M854.11,-65.77C860.95,-57.13 869,-46.96 876.03,-38.08"/>
<polygon fill="#63b8ff" stroke="#63b8ff" points="878.93,-40.05 882.39,-30.04 873.44,-35.71 878.93,-40.05"/>
</a>
</g>
</g>
<!-- Node25&#45;&gt;Node5 -->
<g id="edge44_Node000025_Node000005" class="edge">
<title>Node25&#45;&gt;Node5</title>
<g id="a_edge44_Node000025_Node000005"><a xlink:title=" ">
<path fill="none" stroke="#63b8ff" d="M909.65,-65.96C947.72,-55.5 994.13,-42.75 1030.53,-32.75"/>
<polygon fill="#63b8ff" stroke="#63b8ff" points="1031.81,-36.03 1040.52,-30 1029.95,-29.28 1031.81,-36.03"/>
</a>
</g>
</g>
<!-- Node25&#45;&gt;Node6 -->
<g id="edge45_Node000025_Node000006" class="edge">
<title>Node25&#45;&gt;Node6</title>
<g id="a_edge45_Node000025_Node000006"><a xlink:title=" ">
<path fill="none" stroke="#63b8ff" d="M765.92,-73.17C750.3,-70.67 733.86,-68.15 718.5,-66 585.63,-47.42 548.81,-51.85 412.53,-30.07"/>
<polygon fill="#63b8ff" stroke="#63b8ff" points="412.98,-26.6 402.55,-28.46 411.86,-33.51 412.98,-26.6"/>
</a>
</g>
</g>
<!-- Node25&#45;&gt;Node7 -->
<g id="edge46_Node000025_Node000007" class="edge">
<title>Node25&#45;&gt;Node7</title>
<g id="a_edge46_Node000025_Node000007"><a xlink:title=" ">
<path fill="none" stroke="#63b8ff" d="M765.98,-68.59C718.05,-57.41 655.63,-42.85 608.62,-31.89"/>
<polygon fill="#63b8ff" stroke="#63b8ff" points="609.37,-28.47 598.84,-29.61 607.78,-35.29 609.37,-28.47"/>
</a>
</g>
</g>
<!-- Node26 -->
<g id="Node000026" class="node">
<title>Node26</title>
<g id="a_Node000026"><a xlink:title=" ">
<polygon fill="#e0e0e0" stroke="#999999" points="1021,-24.5 964,-24.5 964,-5.5 1021,-5.5 1021,-24.5"/>
<text text-anchor="middle" x="992.5" y="-12.5" font-family="Helvetica,sans-Serif" font-size="10.00">ostream</text>
</a>
</g>
</g>
<!-- Node25&#45;&gt;Node26 -->
<g id="edge41_Node000025_Node000026" class="edge">
<title>Node25&#45;&gt;Node26</title>
<g id="a_edge41_Node000025_Node000026"><a xlink:title=" ">
<path fill="none" stroke="#63b8ff" d="M881.81,-65.96C908.27,-54.01 941.36,-39.08 964.43,-28.67"/>
<polygon fill="#63b8ff" stroke="#63b8ff" points="965.98,-31.81 973.66,-24.5 963.1,-25.43 965.98,-31.81"/>
</a>
</g>
</g>
<!-- Node28&#45;&gt;Node3 -->
<g id="edge56_Node000028_Node000003" class="edge">
<title>Node28&#45;&gt;Node3</title>
<g id="a_edge56_Node000028_Node000003"><a xlink:title=" ">
<path fill="none" stroke="#63b8ff" d="M954.95,-148.45C1003.92,-120.32 1113.45,-57.39 1161.8,-29.62"/>
<polygon fill="#63b8ff" stroke="#63b8ff" points="1163.69,-32.57 1170.61,-24.55 1160.2,-26.5 1163.69,-32.57"/>
</a>
</g>
</g>
<!-- Node28&#45;&gt;Node4 -->
<g id="edge51_Node000028_Node000004" class="edge">
<title>Node28&#45;&gt;Node4</title>
<g id="a_edge51_Node000028_Node000004"><a xlink:title=" ">
<path fill="none" stroke="#63b8ff" d="M939.41,-148.49C950.49,-129.17 966.43,-93.61 953.5,-66 947.87,-53.99 937.78,-43.85 927.46,-35.91"/>
<polygon fill="#63b8ff" stroke="#63b8ff" points="929.39,-32.99 919.22,-30.03 925.32,-38.69 929.39,-32.99"/>
</a>
</g>
</g>
<!-- Node28&#45;&gt;Node5 -->
<g id="edge52_Node000028_Node000005" class="edge">
<title>Node28&#45;&gt;Node5</title>
<g id="a_edge52_Node000028_Node000005"><a xlink:title=" ">
<path fill="none" stroke="#63b8ff" d="M945.94,-148.45C974.35,-122.6 1035.08,-67.34 1068.41,-37.01"/>
<polygon fill="#63b8ff" stroke="#63b8ff" points="1070.83,-39.54 1075.87,-30.22 1066.12,-34.36 1070.83,-39.54"/>
</a>
</g>
</g>
<!-- Node28&#45;&gt;Node6 -->
<g id="edge53_Node000028_Node000006" class="edge">
<title>Node28&#45;&gt;Node6</title>
<g id="a_edge53_Node000028_Node000006"><a xlink:title=" ">
<path fill="none" stroke="#63b8ff" d="M846.96,-160.22C723.87,-155.69 500.68,-142.7 429.5,-107 421.22,-102.85 385.91,-63.44 363.48,-37.86"/>
<polygon fill="#63b8ff" stroke="#63b8ff" points="365.92,-35.34 356.71,-30.11 360.65,-39.94 365.92,-35.34"/>
</a>
</g>
</g>
<!-- Node28&#45;&gt;Node7 -->
<g id="edge54_Node000028_Node000007" class="edge">
<title>Node28&#45;&gt;Node7</title>
<g id="a_edge54_Node000028_Node000007"><a xlink:title=" ">
<path fill="none" stroke="#63b8ff" d="M846.75,-162.56C745.17,-160.67 582.63,-150.66 543.5,-107 527.42,-89.06 529.43,-60.22 533.68,-39.82"/>
<polygon fill="#63b8ff" stroke="#63b8ff" points="537.1,-40.57 536.03,-30.03 530.29,-38.94 537.1,-40.57"/>
</a>
</g>
</g>
<!-- Node28&#45;&gt;Node18 -->
<g id="edge57_Node000028_Node000018" class="edge">
<title>Node28&#45;&gt;Node18</title>
<g id="a_edge57_Node000028_Node000018"><a xlink:title=" ">
<path fill="none" stroke="#63b8ff" d="M877.6,-148.48C830.21,-135.92 760.62,-117.48 710.39,-104.17"/>
<polygon fill="#63b8ff" stroke="#63b8ff" points="711.18,-100.76 700.62,-101.58 709.39,-107.52 711.18,-100.76"/>
</a>
</g>
</g>
<!-- Node28&#45;&gt;Node26 -->
<g id="edge55_Node000028_Node000026" class="edge">
<title>Node28&#45;&gt;Node26</title>
<g id="a_edge55_Node000028_Node000026"><a xlink:title=" ">
<path fill="none" stroke="#63b8ff" d="M942.67,-148.33C951.29,-137.61 962.53,-122.2 969.5,-107 980.41,-83.22 986.68,-53.46 989.84,-34.59"/>
<polygon fill="#63b8ff" stroke="#63b8ff" points="993.31,-35.05 991.39,-24.63 986.4,-33.97 993.31,-35.05"/>
</a>
</g>
</g>
</g>
</svg>

<g id="navigator" transform="translate(0 0)" fill="#404254">
  <rect fill="#f2f5e9" fill-opacity="0.5" stroke="#606060" stroke-width=".5" x="0" y="0" width="60" height="60"/>
  <use id="zoomplus" xlink:href="#zoomPlus" x="17" y="9" onmousedown="handleZoom(evt,'in')"/>
  <use id="zoomminus" xlink:href="#zoomMin" x="42" y="9" onmousedown="handleZoom(evt,'out')"/>
  <use id="reset" xlink:href="#resetDef" x="30" y="36" onmousedown="handleReset()"/>
   <use id="arrowup" xlink:href="#arrowUp" x="0" y="0" onmousedown="handlePan(0,-1)"/>
  <use id="arrowright" xlink:href="#arrowRight" x="0" y="0" onmousedown="handlePan(1,0)"/>
  <use id="arrowdown" xlink:href="#arrowDown" x="0" y="0" onmousedown="handlePan(0,1)"/>
  <use id="arrowleft" xlink:href="#arrowLeft" x="0" y="0" onmousedown="handlePan(-1,0)"/>
</g>
<svg viewBox="0 0 15 15" width="100%" height="30px" preserveAspectRatio="xMaxYMin meet">
 <g id="arrow_out" transform="scale(0.3 0.3)">
  <a xlink:href="Species_8h__incl_org.svg" target="_base">
   <rect id="button" ry="5" rx="5" y="6" x="6" height="38" width="38"
        fill="#f2f5e9" fill-opacity="0.5" stroke="#606060" stroke-width="1.0"/>
   <path id="arrow"
     d="M 11.500037,31.436501 C 11.940474,20.09759 22.043105,11.32322 32.158766,21.979434 L 37.068811,17.246167 C 37.068811,17.246167 37.088388,32 37.088388,32 L 22.160133,31.978069 C 22.160133,31.978069 26.997745,27.140456 26.997745,27.140456 C 18.528582,18.264221 13.291696,25.230495 11.500037,31.436501 z"
     style="fill:#404040;"/>
  </a>
 </g>
</svg>

<style type='text/css'>
<![CDATA[
[data-mouse-over-selected='false'] { opacity: 0.7; }
[data-mouse-over-selected='true']  { opacity: 1.0; }
]]>
</style>
<script type="application/ecmascript"><![CDATA[
document.addEventListener('DOMContentLoaded', (event) => {
  highlightEdges();
  highlightAdjacentNodes();
});
]]></script>
</svg>
