<?xml version="1.0" encoding="UTF-8" standalone="no"?>
<!DOCTYPE svg PUBLIC "-//W3C//DTD SVG 1.1//EN"
 "http://www.w3.org/Graphics/SVG/1.1/DTD/svg11.dtd">
<!-- Generated by graphviz version 2.43.0 (0)
 -->
<!-- Title: /home/runner/work/Weaver/Weaver/include/App/Model/IBM/Landscape/Map/TerrainCells/PatchApplicator/Obstacle/CellObstacleInterface.h Pages: 1 -->
<!--zoomable 280 -->

<svg id="main" version="1.1" xmlns="http://www.w3.org/2000/svg" xmlns:xlink="http://www.w3.org/1999/xlink" xml:space="preserve" onload="init(evt)">
<style type="text/css"><![CDATA[
.node, .edge {opacity: 0.7;}
.node.selected, .edge.selected {opacity: 1;}
.edge:hover path { stroke: red; }
.edge:hover polygon { stroke: red; fill: red; }
]]></style>

<defs>
  <circle id="rim" cx="0" cy="0" r="7"/>
  <circle id="rim2" cx="0" cy="0" r="3.5"/>
  <g id="zoomPlus">
    <use xlink:href="#rim" fill="#404040"><set attributeName="fill" to="#808080" begin="zoomplus.mouseover" end="zoomplus.mouseout"/></use>
    <path d="M-4,0h8M0,-4v8" fill="none" stroke="white" stroke-width="1.5" pointer-events="none"/>
  </g>
  <g id="zoomMin">
    <use xlink:href="#rim" fill="#404040"><set attributeName="fill" to="#808080" begin="zoomminus.mouseover" end="zoomminus.mouseout"/></use>
    <path d="M-4,0h8" fill="none" stroke="white" stroke-width="1.5" pointer-events="none"/>
  </g>
  <g id="arrowUp" transform="translate(30 24)">
    <use xlink:href="#rim"/>
    <path pointer-events="none" fill="none" stroke="white" stroke-width="1.5" d="M0,-3.0v7 M-2.5,-0.5L0,-3.0L2.5,-0.5"/>
  </g>
  <g id="arrowRight" transform="rotate(90) translate(36 -43)">
    <use xlink:href="#rim"/>
    <path pointer-events="none" fill="none" stroke="white" stroke-width="1.5" d="M0,-3.0v7 M-2.5,-0.5L0,-3.0L2.5,-0.5"/>
  </g>
  <g id="arrowDown" transform="rotate(180) translate(-30 -48)">
    <use xlink:href="#rim"/>
    <path pointer-events="none" fill="none" stroke="white" stroke-width="1.5" d="M0,-3.0v7 M-2.5,-0.5L0,-3.0L2.5,-0.5"/>
  </g>
  <g id="arrowLeft" transform="rotate(270) translate(-36 17)">
    <use xlink:href="#rim"/>
    <path pointer-events="none" fill="none" stroke="white" stroke-width="1.5" d="M0,-3.0v7 M-2.5,-0.5L0,-3.0L2.5,-0.5"/>
  </g>
  <g id="resetDef">
    <use xlink:href="#rim2" fill="#404040"><set attributeName="fill" to="#808080" begin="reset.mouseover" end="reset.mouseout"/></use>
  </g>
</defs>
<script type="application/ecmascript">
var viewWidth = 1002;
var viewHeight = 280;
var sectionId = 'dynsection-0';
</script>
<script type="application/ecmascript" xlink:href="svg.min.js"/>
<svg id="graph" class="graph">
<g id="viewport">
<title>/home/runner/work/Weaver/Weaver/include/App/Model/IBM/Landscape/Map/TerrainCells/PatchApplicator/Obstacle/CellObstacleInterface.h</title>
<!-- Node1 -->
<g id="Node000001" class="node">
<title>Node1</title>
<g id="a_Node000001"><a xlink:title="Interface for obstacle elements within a terrain cell.">
<polygon fill="#999999" stroke="#666666" points="644.13,-272 438.13,-272 438.13,-209 644.13,-209 644.13,-272"/>
<text text-anchor="start" x="446.13" y="-260" font-family="Helvetica,sans-Serif" font-size="10.00">/home/runner/work/Weaver</text>
<text text-anchor="start" x="446.13" y="-249" font-family="Helvetica,sans-Serif" font-size="10.00">/Weaver/include/App/Model</text>
<text text-anchor="start" x="446.13" y="-238" font-family="Helvetica,sans-Serif" font-size="10.00">/IBM/Landscape/Map/TerrainCells</text>
<text text-anchor="start" x="446.13" y="-227" font-family="Helvetica,sans-Serif" font-size="10.00">/PatchApplicator/Obstacle/CellObstacle</text>
<text text-anchor="middle" x="541.13" y="-216" font-family="Helvetica,sans-Serif" font-size="10.00">Interface.h</text>
</a>
</g>
</g>
<!-- Node2 -->
<g id="Node000002" class="node">
<title>Node2</title>
<g id="a_Node000002"><a xlink:title=" ">
<polygon fill="#e0e0e0" stroke="#999999" points="141.63,-96 34.63,-96 34.63,-66 141.63,-66 141.63,-96"/>
<text text-anchor="start" x="42.63" y="-84" font-family="Helvetica,sans-Serif" font-size="10.00">boost/serialization</text>
<text text-anchor="middle" x="88.13" y="-73" font-family="Helvetica,sans-Serif" font-size="10.00">/serialization.hpp</text>
</a>
</g>
</g>
<!-- Node1&#45;&gt;Node2 -->
<g id="edge1_Node000001_Node000002" class="edge">
<title>Node1&#45;&gt;Node2</title>
<g id="a_edge1_Node000001_Node000002"><a xlink:title=" ">
<path fill="none" stroke="#63b8ff" d="M437.89,-232.73C367.81,-225 274.53,-208.44 199.13,-173 162.97,-156.01 128.57,-124.61 107.9,-103.51"/>
<polygon fill="#63b8ff" stroke="#63b8ff" points="110.38,-101.04 100.93,-96.25 105.33,-105.89 110.38,-101.04"/>
</a>
</g>
</g>
<!-- Node3 -->
<g id="Node000003" class="node">
<title>Node3</title>
<g id="a_Node000003"><a xlink:title=" ">
<polygon fill="#e0e0e0" stroke="#999999" points="266.63,-96 159.63,-96 159.63,-66 266.63,-66 266.63,-96"/>
<text text-anchor="start" x="167.63" y="-84" font-family="Helvetica,sans-Serif" font-size="10.00">boost/serialization</text>
<text text-anchor="middle" x="213.13" y="-73" font-family="Helvetica,sans-Serif" font-size="10.00">/base_object.hpp</text>
</a>
</g>
</g>
<!-- Node1&#45;&gt;Node3 -->
<g id="edge2_Node000001_Node000003" class="edge">
<title>Node1&#45;&gt;Node3</title>
<g id="a_edge2_Node000001_Node000003"><a xlink:title=" ">
<path fill="none" stroke="#63b8ff" d="M437.79,-232.38C352.92,-224.13 242.26,-207.05 214.13,-173 198.87,-154.54 201.33,-126.04 205.88,-105.86"/>
<polygon fill="#63b8ff" stroke="#63b8ff" points="209.27,-106.71 208.36,-96.16 202.49,-104.98 209.27,-106.71"/>
</a>
</g>
</g>
<!-- Node4 -->
<g id="Node000004" class="node">
<title>Node4</title>
<g id="a_Node000004"><a xlink:title=" ">
<polygon fill="#e0e0e0" stroke="#999999" points="523.13,-96 399.13,-96 399.13,-66 523.13,-66 523.13,-96"/>
<text text-anchor="start" x="407.13" y="-84" font-family="Helvetica,sans-Serif" font-size="10.00">boost/serialization</text>
<text text-anchor="middle" x="461.13" y="-73" font-family="Helvetica,sans-Serif" font-size="10.00">/assume_abstract.hpp</text>
</a>
</g>
</g>
<!-- Node1&#45;&gt;Node4 -->
<g id="edge3_Node000001_Node000004" class="edge">
<title>Node1&#45;&gt;Node4</title>
<g id="a_edge3_Node000001_Node000004"><a xlink:title=" ">
<path fill="none" stroke="#63b8ff" d="M482.22,-208.93C469.34,-199.27 457.39,-187.31 450.13,-173 439.44,-151.95 444.83,-124.74 451.26,-105.58"/>
<polygon fill="#63b8ff" stroke="#63b8ff" points="454.57,-106.7 454.73,-96.11 448,-104.29 454.57,-106.7"/>
</a>
</g>
</g>
<!-- Node5 -->
<g id="Node000005" class="node">
<title>Node5</title>
<g id="a_Node000005"><a xlink:title=" ">
<polygon fill="#e0e0e0" stroke="#999999" points="809.63,-30 704.63,-30 704.63,0 809.63,0 809.63,-30"/>
<text text-anchor="start" x="712.63" y="-18" font-family="Helvetica,sans-Serif" font-size="10.00">boost/archive/text</text>
<text text-anchor="middle" x="757.13" y="-7" font-family="Helvetica,sans-Serif" font-size="10.00">_iarchive.hpp</text>
</a>
</g>
</g>
<!-- Node1&#45;&gt;Node5 -->
<g id="edge4_Node000001_Node000005" class="edge">
<title>Node1&#45;&gt;Node5</title>
<g id="a_edge4_Node000001_Node000005"><a xlink:title=" ">
<path fill="none" stroke="#63b8ff" d="M644.31,-238.78C760.2,-235.53 937.69,-222.35 980.13,-173 1013.65,-134.01 977.75,-96.19 936.13,-66 902.23,-41.41 856.69,-28.9 820.03,-22.54"/>
<polygon fill="#63b8ff" stroke="#63b8ff" points="820.37,-19.05 809.94,-20.91 819.25,-25.96 820.37,-19.05"/>
</a>
</g>
</g>
<!-- Node6 -->
<g id="Node000006" class="node">
<title>Node6</title>
<g id="a_Node000006"><a xlink:title=" ">
<polygon fill="#e0e0e0" stroke="#999999" points="301.63,-30 196.63,-30 196.63,0 301.63,0 301.63,-30"/>
<text text-anchor="start" x="204.63" y="-18" font-family="Helvetica,sans-Serif" font-size="10.00">boost/archive/text</text>
<text text-anchor="middle" x="249.13" y="-7" font-family="Helvetica,sans-Serif" font-size="10.00">_oarchive.hpp</text>
</a>
</g>
</g>
<!-- Node1&#45;&gt;Node6 -->
<g id="edge5_Node000001_Node000006" class="edge">
<title>Node1&#45;&gt;Node6</title>
<g id="a_edge5_Node000001_Node000006"><a xlink:title=" ">
<path fill="none" stroke="#63b8ff" d="M438.1,-237.08C312.32,-232.19 108.92,-217.45 49.13,-173 8.97,-143.15 -17.36,-104.89 14.13,-66 35.45,-39.67 124.34,-26.62 186.46,-20.6"/>
<polygon fill="#63b8ff" stroke="#63b8ff" points="186.94,-24.07 196.57,-19.66 186.29,-17.1 186.94,-24.07"/>
</a>
</g>
</g>
<!-- Node7 -->
<g id="Node000007" class="node">
<title>Node7</title>
<g id="a_Node000007"><a xlink:title=" ">
<polygon fill="#e0e0e0" stroke="#999999" points="436.13,-30 320.13,-30 320.13,0 436.13,0 436.13,-30"/>
<text text-anchor="start" x="328.13" y="-18" font-family="Helvetica,sans-Serif" font-size="10.00">boost/archive/binary</text>
<text text-anchor="middle" x="378.13" y="-7" font-family="Helvetica,sans-Serif" font-size="10.00">_iarchive.hpp</text>
</a>
</g>
</g>
<!-- Node1&#45;&gt;Node7 -->
<g id="edge6_Node000001_Node000007" class="edge">
<title>Node1&#45;&gt;Node7</title>
<g id="a_edge6_Node000001_Node000007"><a xlink:title=" ">
<path fill="none" stroke="#63b8ff" d="M437.77,-234.92C354.09,-228.32 234.55,-212.22 137.13,-173 81.09,-150.44 53.25,-149.46 25.13,-96 -15.15,-19.44 110.3,-60.99 309.78,-29.92"/>
<polygon fill="#63b8ff" stroke="#63b8ff" points="310.63,-33.33 319.94,-28.29 309.51,-26.42 310.63,-33.33"/>
</a>
</g>
</g>
<!-- Node8 -->
<g id="Node000008" class="node">
<title>Node8</title>
<g id="a_Node000008"><a xlink:title=" ">
<polygon fill="#e0e0e0" stroke="#999999" points="686.13,-30 570.13,-30 570.13,0 686.13,0 686.13,-30"/>
<text text-anchor="start" x="578.13" y="-18" font-family="Helvetica,sans-Serif" font-size="10.00">boost/archive/binary</text>
<text text-anchor="middle" x="628.13" y="-7" font-family="Helvetica,sans-Serif" font-size="10.00">_oarchive.hpp</text>
</a>
</g>
</g>
<!-- Node1&#45;&gt;Node8 -->
<g id="edge7_Node000001_Node000008" class="edge">
<title>Node1&#45;&gt;Node8</title>
<g id="a_edge7_Node000001_Node000008"><a xlink:title=" ">
<path fill="none" stroke="#63b8ff" d="M644.36,-237.9C755.05,-233.74 920.31,-219.63 960.13,-173 995.53,-131.54 947.87,-92.32 900.13,-66 822.25,-23.07 788.86,-45.61 696.39,-29.91"/>
<polygon fill="#63b8ff" stroke="#63b8ff" points="696.81,-26.43 686.34,-28.1 695.56,-33.32 696.81,-26.43"/>
</a>
</g>
</g>
<!-- Node9 -->
<g id="Node000009" class="node">
<title>Node9</title>
<g id="a_Node000009"><a xlink:title=" ">
<polygon fill="#e0e0e0" stroke="#999999" points="695.63,-162 640.63,-162 640.63,-143 695.63,-143 695.63,-162"/>
<text text-anchor="middle" x="668.13" y="-150" font-family="Helvetica,sans-Serif" font-size="10.00">fstream</text>
</a>
</g>
</g>
<!-- Node1&#45;&gt;Node9 -->
<g id="edge8_Node000001_Node000009" class="edge">
<title>Node1&#45;&gt;Node9</title>
<g id="a_edge8_Node000001_Node000009"><a xlink:title=" ">
<path fill="none" stroke="#63b8ff" d="M586.26,-208.94C606.95,-194.92 630.49,-178.98 647,-167.8"/>
<polygon fill="#63b8ff" stroke="#63b8ff" points="649.07,-170.63 655.39,-162.12 645.15,-164.83 649.07,-170.63"/>
</a>
</g>
</g>
<!-- Node10 -->
<g id="Node000010" class="node">
<title>Node10</title>
<g id="a_Node000010"><a xlink:title=" ">
<polygon fill="#e0e0e0" stroke="#999999" points="770.63,-162 713.63,-162 713.63,-143 770.63,-143 770.63,-162"/>
<text text-anchor="middle" x="742.13" y="-150" font-family="Helvetica,sans-Serif" font-size="10.00">ostream</text>
</a>
</g>
</g>
<!-- Node1&#45;&gt;Node10 -->
<g id="edge9_Node000001_Node000010" class="edge">
<title>Node1&#45;&gt;Node10</title>
<g id="a_edge9_Node000001_Node000010"><a xlink:title=" ">
<path fill="none" stroke="#63b8ff" d="M621.06,-208.95C648.01,-198.15 678.1,-185.56 705.13,-173 709.31,-171.05 713.7,-168.87 717.94,-166.69"/>
<polygon fill="#63b8ff" stroke="#63b8ff" points="719.6,-169.77 726.82,-162.01 716.34,-163.58 719.6,-169.77"/>
</a>
</g>
</g>
<!-- Node11 -->
<g id="Node000011" class="node">
<title>Node11</title>
<g id="a_Node000011"><a xlink:title=" ">
<polygon fill="#e0e0e0" stroke="#999999" points="875.13,-162 789.13,-162 789.13,-143 875.13,-143 875.13,-162"/>
<text text-anchor="middle" x="832.13" y="-150" font-family="Helvetica,sans-Serif" font-size="10.00">unordered_set</text>
</a>
</g>
</g>
<!-- Node1&#45;&gt;Node11 -->
<g id="edge10_Node000001_Node000011" class="edge">
<title>Node1&#45;&gt;Node11</title>
<g id="a_edge10_Node000001_Node000011"><a xlink:title=" ">
<path fill="none" stroke="#63b8ff" d="M644.36,-212.89C686.68,-201.44 736,-187.38 780.13,-173 786.9,-170.79 794.1,-168.23 800.91,-165.71"/>
<polygon fill="#63b8ff" stroke="#63b8ff" points="802.4,-168.89 810.52,-162.09 799.93,-162.34 802.4,-168.89"/>
</a>
</g>
</g>
<!-- Node12 -->
<g id="Node000012" class="node">
<title>Node12</title>
<g id="a_Node000012"><a xlink:title=" ">
<polygon fill="#e0e0e0" stroke="#999999" points="951.13,-162 893.13,-162 893.13,-143 951.13,-143 951.13,-162"/>
<text text-anchor="middle" x="922.13" y="-150" font-family="Helvetica,sans-Serif" font-size="10.00">memory</text>
</a>
</g>
</g>
<!-- Node1&#45;&gt;Node12 -->
<g id="edge11_Node000001_Node000012" class="edge">
<title>Node1&#45;&gt;Node12</title>
<g id="a_edge11_Node000001_Node000012"><a xlink:title=" ">
<path fill="none" stroke="#63b8ff" d="M644.41,-227.24C713.55,-217.16 805.87,-200.05 884.13,-173 888.95,-171.33 893.93,-169.15 898.64,-166.85"/>
<polygon fill="#63b8ff" stroke="#63b8ff" points="900.51,-169.82 907.76,-162.1 897.27,-163.61 900.51,-169.82"/>
</a>
</g>
</g>
<!-- Node13 -->
<g id="Node000013" class="node">
<title>Node13</title>
<g id="a_Node000013"><a xlink:href="CellElement_8h.html" target="_top" xlink:title="Defines the CellElement base class representing any patch&#45;modifiable element within a terrain cell (m...">
<polygon fill="white" stroke="#666666" points="402.63,-173 223.63,-173 223.63,-132 402.63,-132 402.63,-173"/>
<text text-anchor="start" x="231.63" y="-161" font-family="Helvetica,sans-Serif" font-size="10.00">App/Model/IBM/Landscape</text>
<text text-anchor="start" x="231.63" y="-150" font-family="Helvetica,sans-Serif" font-size="10.00">/Map/TerrainCells/PatchApplicator</text>
<text text-anchor="middle" x="313.13" y="-139" font-family="Helvetica,sans-Serif" font-size="10.00">/CellElement.h</text>
</a>
</g>
</g>
<!-- Node1&#45;&gt;Node13 -->
<g id="edge12_Node000001_Node000013" class="edge">
<title>Node1&#45;&gt;Node13</title>
<g id="a_edge12_Node000001_Node000013"><a xlink:title=" ">
<path fill="none" stroke="#63b8ff" d="M460.1,-208.94C431.94,-198.32 400.85,-186.59 374.54,-176.67"/>
<polygon fill="#63b8ff" stroke="#63b8ff" points="375.67,-173.35 365.08,-173.1 373.2,-179.9 375.67,-173.35"/>
</a>
</g>
</g>
<!-- Node14 -->
<g id="Node000014" class="node">
<title>Node14</title>
<g id="a_Node000014"><a xlink:href="ObstacleSource_8h.html" target="_top" xlink:title="Defines the ObstacleSource class representing obstacles in a landscape.">
<polygon fill="white" stroke="#666666" points="622.63,-173 459.63,-173 459.63,-132 622.63,-132 622.63,-173"/>
<text text-anchor="start" x="467.63" y="-161" font-family="Helvetica,sans-Serif" font-size="10.00">App/Model/IBM/Landscape</text>
<text text-anchor="start" x="467.63" y="-150" font-family="Helvetica,sans-Serif" font-size="10.00">/Map/Patches/Source/Obstacle</text>
<text text-anchor="middle" x="541.13" y="-139" font-family="Helvetica,sans-Serif" font-size="10.00">Source.h</text>
</a>
</g>
</g>
<!-- Node1&#45;&gt;Node14 -->
<g id="edge20_Node000001_Node000014" class="edge">
<title>Node1&#45;&gt;Node14</title>
<g id="a_edge20_Node000001_Node000014"><a xlink:title=" ">
<path fill="none" stroke="#63b8ff" d="M541.13,-208.94C541.13,-200.59 541.13,-191.55 541.13,-183.25"/>
<polygon fill="#63b8ff" stroke="#63b8ff" points="544.63,-183.23 541.13,-173.23 537.63,-183.23 544.63,-183.23"/>
</a>
</g>
</g>
<!-- Node13&#45;&gt;Node2 -->
<g id="edge13_Node000013_Node000002" class="edge">
<title>Node13&#45;&gt;Node2</title>
<g id="a_edge13_Node000013_Node000002"><a xlink:title=" ">
<path fill="none" stroke="#63b8ff" d="M249.85,-131.96C216.28,-121.59 175.43,-108.97 143.18,-99"/>
<polygon fill="#63b8ff" stroke="#63b8ff" points="144.05,-95.61 133.46,-96 141.98,-102.3 144.05,-95.61"/>
</a>
</g>
</g>
<!-- Node13&#45;&gt;Node3 -->
<g id="edge14_Node000013_Node000003" class="edge">
<title>Node13&#45;&gt;Node3</title>
<g id="a_edge14_Node000013_Node000003"><a xlink:title=" ">
<path fill="none" stroke="#63b8ff" d="M285,-131.96C271.55,-122.6 255.45,-111.42 241.91,-102.01"/>
<polygon fill="#63b8ff" stroke="#63b8ff" points="243.64,-98.95 233.43,-96.11 239.65,-104.69 243.64,-98.95"/>
</a>
</g>
</g>
<!-- Node13&#45;&gt;Node4 -->
<g id="edge15_Node000013_Node000004" class="edge">
<title>Node13&#45;&gt;Node4</title>
<g id="a_edge15_Node000013_Node000004"><a xlink:title=" ">
<path fill="none" stroke="#63b8ff" d="M354.75,-131.96C375.8,-122.07 401.22,-110.13 421.92,-100.41"/>
<polygon fill="#63b8ff" stroke="#63b8ff" points="423.51,-103.53 431.07,-96.11 420.53,-97.2 423.51,-103.53"/>
</a>
</g>
</g>
<!-- Node13&#45;&gt;Node5 -->
<g id="edge16_Node000013_Node000005" class="edge">
<title>Node13&#45;&gt;Node5</title>
<g id="a_edge16_Node000013_Node000005"><a xlink:title=" ">
<path fill="none" stroke="#63b8ff" d="M402.64,-138.56C418.45,-136.33 434.77,-134.07 450.13,-132 513.17,-123.52 685.82,-137.39 734.13,-96 750.1,-82.31 755.35,-58.31 756.9,-40.16"/>
<polygon fill="#63b8ff" stroke="#63b8ff" points="760.4,-40.19 757.44,-30.02 753.41,-39.81 760.4,-40.19"/>
</a>
</g>
</g>
<!-- Node13&#45;&gt;Node6 -->
<g id="edge17_Node000013_Node000006" class="edge">
<title>Node13&#45;&gt;Node6</title>
<g id="a_edge17_Node000013_Node000006"><a xlink:title=" ">
<path fill="none" stroke="#63b8ff" d="M304.86,-131.99C297.38,-114.56 285.91,-88.39 275.13,-66 270.87,-57.16 265.96,-47.58 261.56,-39.19"/>
<polygon fill="#63b8ff" stroke="#63b8ff" points="264.64,-37.53 256.87,-30.32 258.45,-40.8 264.64,-37.53"/>
</a>
</g>
</g>
<!-- Node13&#45;&gt;Node7 -->
<g id="edge18_Node000013_Node000007" class="edge">
<title>Node13&#45;&gt;Node7</title>
<g id="a_edge18_Node000013_Node000007"><a xlink:title=" ">
<path fill="none" stroke="#63b8ff" d="M322.58,-131.8C334.32,-107.33 354.32,-65.62 366.85,-39.51"/>
<polygon fill="#63b8ff" stroke="#63b8ff" points="370.08,-40.86 371.25,-30.33 363.77,-37.83 370.08,-40.86"/>
</a>
</g>
</g>
<!-- Node13&#45;&gt;Node8 -->
<g id="edge19_Node000013_Node000008" class="edge">
<title>Node13&#45;&gt;Node8</title>
<g id="a_edge19_Node000013_Node000008"><a xlink:title=" ">
<path fill="none" stroke="#63b8ff" d="M328.38,-131.9C346.28,-109.4 375.41,-74.47 390.13,-66 442.16,-36.04 509.82,-23.94 559.7,-19.1"/>
<polygon fill="#63b8ff" stroke="#63b8ff" points="560.09,-22.58 569.74,-18.2 559.47,-15.6 560.09,-22.58"/>
</a>
</g>
</g>
<!-- Node15 -->
<g id="Node000015" class="node">
<title>Node15</title>
<g id="a_Node000015"><a xlink:title=" ">
<polygon fill="#e0e0e0" stroke="#999999" points="891.13,-90.5 781.13,-90.5 781.13,-71.5 891.13,-71.5 891.13,-90.5"/>
<text text-anchor="middle" x="836.13" y="-78.5" font-family="Helvetica,sans-Serif" font-size="10.00">nlohmann/json.hpp</text>
</a>
</g>
</g>
<!-- Node14&#45;&gt;Node15 -->
<g id="edge21_Node000014_Node000015" class="edge">
<title>Node14&#45;&gt;Node15</title>
<g id="a_edge21_Node000014_Node000015"><a xlink:title=" ">
<path fill="none" stroke="#63b8ff" d="M622.91,-132.23C676.69,-119.56 745.13,-103.44 789.76,-92.92"/>
<polygon fill="#63b8ff" stroke="#63b8ff" points="790.8,-96.27 799.73,-90.57 789.2,-89.46 790.8,-96.27"/>
</a>
</g>
</g>
<!-- Node16 -->
<g id="Node000016" class="node">
<title>Node16</title>
<g id="a_Node000016"><a xlink:href="PathSource_8h.html" target="_top" xlink:title="Defines the PathSource abstract base class representing sources of landscape information.">
<polygon fill="white" stroke="#666666" points="724.63,-96 541.63,-96 541.63,-66 724.63,-66 724.63,-96"/>
<text text-anchor="start" x="549.63" y="-84" font-family="Helvetica,sans-Serif" font-size="10.00">App/Model/IBM/Landscape</text>
<text text-anchor="middle" x="633.13" y="-73" font-family="Helvetica,sans-Serif" font-size="10.00">/Map/Patches/Source/PathSource.h</text>
</a>
</g>
</g>
<!-- Node14&#45;&gt;Node16 -->
<g id="edge22_Node000014_Node000016" class="edge">
<title>Node14&#45;&gt;Node16</title>
<g id="a_edge22_Node000014_Node000016"><a xlink:title=" ">
<path fill="none" stroke="#63b8ff" d="M567.24,-131.77C579.5,-122.51 594.09,-111.49 606.42,-102.17"/>
<polygon fill="#63b8ff" stroke="#63b8ff" points="608.67,-104.86 614.54,-96.04 604.45,-99.27 608.67,-104.86"/>
</a>
</g>
</g>
<!-- Node16&#45;&gt;Node5 -->
<g id="edge23_Node000016_Node000005" class="edge">
<title>Node16&#45;&gt;Node5</title>
<g id="a_edge23_Node000016_Node000005"><a xlink:title=" ">
<path fill="none" stroke="#63b8ff" d="M660.34,-65.95C678.11,-56.78 701.51,-44.71 720.85,-34.72"/>
<polygon fill="#63b8ff" stroke="#63b8ff" points="722.7,-37.71 729.98,-30.01 719.49,-31.49 722.7,-37.71"/>
</a>
</g>
</g>
<!-- Node16&#45;&gt;Node6 -->
<g id="edge24_Node000016_Node000006" class="edge">
<title>Node16&#45;&gt;Node6</title>
<g id="a_edge24_Node000016_Node000006"><a xlink:title=" ">
<path fill="none" stroke="#63b8ff" d="M541.27,-66.45C466.9,-55.35 366.97,-40.14 311.91,-30.04"/>
<polygon fill="#63b8ff" stroke="#63b8ff" points="312.31,-26.56 301.84,-28.16 311.03,-33.44 312.31,-26.56"/>
</a>
</g>
</g>
<!-- Node16&#45;&gt;Node7 -->
<g id="edge25_Node000016_Node000007" class="edge">
<title>Node16&#45;&gt;Node7</title>
<g id="a_edge25_Node000016_Node000007"><a xlink:title=" ">
<path fill="none" stroke="#63b8ff" d="M577.17,-65.95C537.8,-56.08 484.99,-42.82 443.66,-32.45"/>
<polygon fill="#63b8ff" stroke="#63b8ff" points="444.51,-29.05 433.96,-30.01 442.8,-35.84 444.51,-29.05"/>
</a>
</g>
</g>
<!-- Node16&#45;&gt;Node8 -->
<g id="edge26_Node000016_Node000008" class="edge">
<title>Node16&#45;&gt;Node8</title>
<g id="a_edge26_Node000016_Node000008"><a xlink:title=" ">
<path fill="none" stroke="#63b8ff" d="M632.02,-65.8C631.43,-58.34 630.7,-48.99 630.03,-40.41"/>
<polygon fill="#63b8ff" stroke="#63b8ff" points="633.5,-39.86 629.23,-30.16 626.52,-40.41 633.5,-39.86"/>
</a>
</g>
</g>
</g>
</svg>

<g id="navigator" transform="translate(0 0)" fill="#404254">
  <rect fill="#f2f5e9" fill-opacity="0.5" stroke="#606060" stroke-width=".5" x="0" y="0" width="60" height="60"/>
  <use id="zoomplus" xlink:href="#zoomPlus" x="17" y="9" onmousedown="handleZoom(evt,'in')"/>
  <use id="zoomminus" xlink:href="#zoomMin" x="42" y="9" onmousedown="handleZoom(evt,'out')"/>
  <use id="reset" xlink:href="#resetDef" x="30" y="36" onmousedown="handleReset()"/>
   <use id="arrowup" xlink:href="#arrowUp" x="0" y="0" onmousedown="handlePan(0,-1)"/>
  <use id="arrowright" xlink:href="#arrowRight" x="0" y="0" onmousedown="handlePan(1,0)"/>
  <use id="arrowdown" xlink:href="#arrowDown" x="0" y="0" onmousedown="handlePan(0,1)"/>
  <use id="arrowleft" xlink:href="#arrowLeft" x="0" y="0" onmousedown="handlePan(-1,0)"/>
</g>
<svg viewBox="0 0 15 15" width="100%" height="30px" preserveAspectRatio="xMaxYMin meet">
 <g id="arrow_out" transform="scale(0.3 0.3)">
  <a xlink:href="CellObstacleInterface_8h__incl_org.svg" target="_base">
   <rect id="button" ry="5" rx="5" y="6" x="6" height="38" width="38"
        fill="#f2f5e9" fill-opacity="0.5" stroke="#606060" stroke-width="1.0"/>
   <path id="arrow"
     d="M 11.500037,31.436501 C 11.940474,20.09759 22.043105,11.32322 32.158766,21.979434 L 37.068811,17.246167 C 37.068811,17.246167 37.088388,32 37.088388,32 L 22.160133,31.978069 C 22.160133,31.978069 26.997745,27.140456 26.997745,27.140456 C 18.528582,18.264221 13.291696,25.230495 11.500037,31.436501 z"
     style="fill:#404040;"/>
  </a>
 </g>
</svg>

<style type='text/css'>
<![CDATA[
[data-mouse-over-selected='false'] { opacity: 0.7; }
[data-mouse-over-selected='true']  { opacity: 1.0; }
]]>
</style>
<script type="application/ecmascript"><![CDATA[
document.addEventListener('DOMContentLoaded', (event) => {
  highlightEdges();
  highlightAdjacentNodes();
});
]]></script>
</svg>
