<?xml version="1.0" encoding="UTF-8" standalone="no"?>
<!DOCTYPE svg PUBLIC "-//W3C//DTD SVG 1.1//EN"
 "http://www.w3.org/Graphics/SVG/1.1/DTD/svg11.dtd">
<!-- Generated by graphviz version 2.43.0 (0)
 -->
<!-- Title: Patch Pages: 1 -->
<svg width="170pt" height="93pt"
 viewBox="0.00 0.00 170.00 93.00" xmlns="http://www.w3.org/2000/svg" xmlns:xlink="http://www.w3.org/1999/xlink">
<g id="graph0" class="graph" transform="scale(1 1) rotate(0) translate(4 89)">
<title>Patch</title>
<!-- Node1 -->
<g id="Node000001" class="node">
<title>Node1</title>
<g id="a_Node000001"><a xlink:title="Represents a spatial patch in a landscape with a specific shape and priority.">
<polygon fill="#999999" stroke="#666666" points="102,-19 59,-19 59,0 102,0 102,-19"/>
<text text-anchor="middle" x="80.5" y="-7" font-family="Helvetica,sans-Serif" font-size="10.00">Patch</text>
</a>
</g>
</g>
<!-- Node2 -->
<g id="Node000002" class="node">
<title>Node2</title>
<g id="a_Node000002"><a xlink:href="classPathSource.html" target="_top" xlink:title="Abstract base class for landscape data sources.">
<polygon fill="white" stroke="#666666" points="71,-85 0,-85 0,-66 71,-66 71,-85"/>
<text text-anchor="middle" x="35.5" y="-73" font-family="Helvetica,sans-Serif" font-size="10.00">PathSource</text>
</a>
</g>
</g>
<!-- Node2&#45;&gt;Node1 -->
<g id="edge1_Node000001_Node000002" class="edge">
<title>Node2&#45;&gt;Node1</title>
<g id="a_edge1_Node000001_Node000002"><a xlink:title=" ">
<path fill="none" stroke="#9a32cd" stroke-dasharray="5,2" d="M47.52,-57.41C56.12,-45.18 67.35,-29.2 74.24,-19.41"/>
<polygon fill="#9a32cd" stroke="#9a32cd" points="44.46,-55.68 41.57,-65.87 50.18,-59.7 44.46,-55.68"/>
</a>
</g>
<text text-anchor="middle" x="79.5" y="-40" font-family="Helvetica,sans-Serif" font-size="10.00" fill="grey"> source</text>
</g>
<!-- Node3 -->
<g id="Node000003" class="node">
<title>Node3</title>
<g id="a_Node000003"><a xlink:href="classPatchShape.html" target="_top" xlink:title="Abstract base class representing a patch shape.">
<polygon fill="white" stroke="#666666" points="162,-85 89,-85 89,-66 162,-66 162,-85"/>
<text text-anchor="middle" x="125.5" y="-73" font-family="Helvetica,sans-Serif" font-size="10.00">PatchShape</text>
</a>
</g>
</g>
<!-- Node3&#45;&gt;Node1 -->
<g id="edge2_Node000001_Node000003" class="edge">
<title>Node3&#45;&gt;Node1</title>
<g id="a_edge2_Node000001_Node000003"><a xlink:title=" ">
<path fill="none" stroke="#9a32cd" stroke-dasharray="5,2" d="M115.04,-57.36C110.96,-50.88 106.15,-43.51 101.5,-37 97.14,-30.88 91.89,-24.26 87.73,-19.16"/>
<polygon fill="#9a32cd" stroke="#9a32cd" points="112.15,-59.35 120.4,-66 118.1,-55.66 112.15,-59.35"/>
</a>
</g>
<text text-anchor="middle" x="124" y="-40" font-family="Helvetica,sans-Serif" font-size="10.00" fill="grey"> shape</text>
</g>
</g>
</svg>
