<?xml version="1.0" encoding="UTF-8" standalone="no"?>
<!DOCTYPE svg PUBLIC "-//W3C//DTD SVG 1.1//EN"
 "http://www.w3.org/Graphics/SVG/1.1/DTD/svg11.dtd">
<!-- Generated by graphviz version 2.43.0 (0)
 -->
<!-- Title: GrowthRateDynamics Pages: 1 -->
<svg width="477pt" height="228pt"
 viewBox="0.00 0.00 476.50 228.00" xmlns="http://www.w3.org/2000/svg" xmlns:xlink="http://www.w3.org/1999/xlink">

<svg id="main" version="1.1" xmlns="http://www.w3.org/2000/svg" xmlns:xlink="http://www.w3.org/1999/xlink" xml:space="preserve" onload="init(evt)">
<style type="text/css"><![CDATA[
.node, .edge {opacity: 0.7;}
.node.selected, .edge.selected {opacity: 1;}
.edge:hover path { stroke: red; }
.edge:hover polygon { stroke: red; fill: red; }
]]></style>
<script type="application/ecmascript" xlink:href="svg.min.js"/>
<svg id="graph" class="graph">
<g id="graph0" class="graph" transform="scale(1 1) rotate(0) translate(4 224)">
<title>GrowthRateDynamics</title>
<!-- Node1 -->
<g id="Node000001" class="node">
<title>Node1</title>
<g id="a_Node000001"><a xlink:title="Implements mass&#45;based dynamics for growth rate of organisms.">
<polygon fill="#999999" stroke="#666666" points="242,-19 119,-19 119,0 242,0 242,-19"/>
<text text-anchor="middle" x="180.5" y="-7" font-family="Helvetica,sans-Serif" font-size="10.00">GrowthRateDynamics</text>
</a>
</g>
</g>
<!-- Node2 -->
<g id="Node000002" class="node">
<title>Node2</title>
<g id="a_Node000002"><a xlink:href="classMassBasedDynamics.html" target="_top" xlink:title="Represents dynamics based on mass for living beings or resources.">
<polygon fill="white" stroke="#666666" points="121,-114 0,-114 0,-95 121,-95 121,-114"/>
<text text-anchor="middle" x="60.5" y="-102" font-family="Helvetica,sans-Serif" font-size="10.00">MassBasedDynamics</text>
</a>
</g>
</g>
<!-- Node2&#45;&gt;Node1 -->
<g id="edge1_Node000001_Node000002" class="edge">
<title>Node2&#45;&gt;Node1</title>
<g id="a_edge1_Node000001_Node000002"><a xlink:title=" ">
<path fill="none" stroke="#63b8ff" d="M78.69,-88.46C95.36,-74.79 120.82,-54.19 143.5,-37 151.56,-30.89 160.81,-24.27 168.05,-19.17"/>
<polygon fill="#63b8ff" stroke="#63b8ff" points="76.34,-85.86 70.84,-94.92 80.79,-91.27 76.34,-85.86"/>
</a>
</g>
</g>
<!-- Node3 -->
<g id="Node000003" class="node">
<title>Node3</title>
<g id="a_Node000003"><a xlink:href="classDynamics.html" target="_top" xlink:title="Abstract base class for modeling temporal dynamics.">
<polygon fill="white" stroke="#666666" points="93,-220 28,-220 28,-201 93,-201 93,-220"/>
<text text-anchor="middle" x="60.5" y="-208" font-family="Helvetica,sans-Serif" font-size="10.00">Dynamics</text>
</a>
</g>
</g>
<!-- Node3&#45;&gt;Node2 -->
<g id="edge2_Node000002_Node000003" class="edge">
<title>Node3&#45;&gt;Node2</title>
<g id="a_edge2_Node000002_Node000003"><a xlink:title=" ">
<path fill="none" stroke="#63b8ff" d="M60.5,-190.93C60.5,-168.27 60.5,-130.91 60.5,-114.13"/>
<polygon fill="#63b8ff" stroke="#63b8ff" points="57,-190.99 60.5,-200.99 64,-190.99 57,-190.99"/>
</a>
</g>
</g>
<!-- Node4 -->
<g id="Node000004" class="node">
<title>Node4</title>
<g id="a_Node000004"><a xlink:href="classPreciseDouble.html" target="_top" xlink:title="Class for precise double&#45;precision floating&#45;point arithmetic.">
<polygon fill="white" stroke="#666666" points="332.5,-220 246.5,-220 246.5,-201 332.5,-201 332.5,-220"/>
<text text-anchor="middle" x="289.5" y="-208" font-family="Helvetica,sans-Serif" font-size="10.00">PreciseDouble</text>
</a>
</g>
</g>
<!-- Node4&#45;&gt;Node1 -->
<g id="edge3_Node000001_Node000004" class="edge">
<title>Node4&#45;&gt;Node1</title>
<g id="a_edge3_Node000001_Node000004"><a xlink:title=" ">
<path fill="none" stroke="#9a32cd" stroke-dasharray="5,2" d="M252.08,-197.28C222.96,-185.57 184.58,-164.76 166.5,-132 145.67,-94.26 166.68,-39.97 176.27,-19.11"/>
<polygon fill="#9a32cd" stroke="#9a32cd" points="250.96,-200.6 261.55,-200.91 253.46,-194.06 250.96,-200.6"/>
</a>
</g>
<text text-anchor="middle" x="208" y="-124" font-family="Helvetica,sans-Serif" font-size="10.00" fill="grey"> M</text>
<text text-anchor="middle" x="208" y="-113" font-family="Helvetica,sans-Serif" font-size="10.00" fill="grey">activationEnergy</text>
<text text-anchor="middle" x="208" y="-102" font-family="Helvetica,sans-Serif" font-size="10.00" fill="grey">energyDecay</text>
<text text-anchor="middle" x="208" y="-91" font-family="Helvetica,sans-Serif" font-size="10.00" fill="grey">initialValue</text>
<text text-anchor="middle" x="208" y="-80" font-family="Helvetica,sans-Serif" font-size="10.00" fill="grey">rMaxScale</text>
</g>
<!-- Node5 -->
<g id="Node000005" class="node">
<title>Node5</title>
<g id="a_Node000005"><a xlink:href="classWetMass.html" target="_top" xlink:title="Represents wet mass in the ecosystem simulation.">
<polygon fill="white" stroke="#666666" points="320,-114 259,-114 259,-95 320,-95 320,-114"/>
<text text-anchor="middle" x="289.5" y="-102" font-family="Helvetica,sans-Serif" font-size="10.00">WetMass</text>
</a>
</g>
</g>
<!-- Node4&#45;&gt;Node5 -->
<g id="edge5_Node000005_Node000004" class="edge">
<title>Node4&#45;&gt;Node5</title>
<g id="a_edge5_Node000005_Node000004"><a xlink:title=" ">
<path fill="none" stroke="#9a32cd" stroke-dasharray="5,2" d="M289.5,-190.93C289.5,-168.27 289.5,-130.91 289.5,-114.13"/>
<polygon fill="#9a32cd" stroke="#9a32cd" points="286,-190.99 289.5,-200.99 293,-190.99 286,-190.99"/>
</a>
</g>
<text text-anchor="middle" x="305" y="-164" font-family="Helvetica,sans-Serif" font-size="10.00" fill="grey"> value</text>
</g>
<!-- Node6 -->
<g id="Node000006" class="node">
<title>Node6</title>
<g id="a_Node000006"><a xlink:href="classTemperature.html" target="_top" xlink:title="Represents a temperature and provides conversions and operations between scales.">
<polygon fill="white" stroke="#666666" points="416.5,-114 338.5,-114 338.5,-95 416.5,-95 416.5,-114"/>
<text text-anchor="middle" x="377.5" y="-102" font-family="Helvetica,sans-Serif" font-size="10.00">Temperature</text>
</a>
</g>
</g>
<!-- Node4&#45;&gt;Node6 -->
<g id="edge7_Node000006_Node000004" class="edge">
<title>Node4&#45;&gt;Node6</title>
<g id="a_edge7_Node000006_Node000004"><a xlink:title=" ">
<path fill="none" stroke="#9a32cd" stroke-dasharray="5,2" d="M311.11,-194.88C315.77,-191.26 320.49,-187.21 324.5,-183 345.64,-160.81 364.31,-129.42 372.74,-114.3"/>
<polygon fill="#9a32cd" stroke="#9a32cd" points="308.95,-192.12 302.96,-200.85 313.09,-197.76 308.95,-192.12"/>
</a>
</g>
<text text-anchor="middle" x="406.5" y="-175" font-family="Helvetica,sans-Serif" font-size="10.00" fill="grey"> temperatureCelsius</text>
<text text-anchor="middle" x="406.5" y="-164" font-family="Helvetica,sans-Serif" font-size="10.00" fill="grey">temperatureFahrenheit</text>
<text text-anchor="middle" x="406.5" y="-153" font-family="Helvetica,sans-Serif" font-size="10.00" fill="grey">temperatureKelvin</text>
</g>
<!-- Node5&#45;&gt;Node1 -->
<g id="edge4_Node000001_Node000005" class="edge">
<title>Node5&#45;&gt;Node1</title>
<g id="a_edge4_Node000001_Node000005"><a xlink:title=" ">
<path fill="none" stroke="#9a32cd" stroke-dasharray="5,2" d="M266.43,-89.65C259.43,-85.51 251.68,-81.01 244.5,-77 229.57,-68.66 222.99,-70.68 210.5,-59 198.21,-47.5 189.01,-29.89 184.22,-19.35"/>
<polygon fill="#9a32cd" stroke="#9a32cd" points="265.02,-92.88 275.41,-94.98 268.6,-86.86 265.02,-92.88"/>
</a>
</g>
<text text-anchor="middle" x="279.5" y="-45.5" font-family="Helvetica,sans-Serif" font-size="10.00" fill="grey"> resourceMaximumCapacity</text>
</g>
<!-- Node6&#45;&gt;Node1 -->
<g id="edge6_Node000001_Node000006" class="edge">
<title>Node6&#45;&gt;Node1</title>
<g id="a_edge6_Node000001_Node000006"><a xlink:title=" ">
<path fill="none" stroke="#9a32cd" stroke-dasharray="5,2" d="M374.48,-85.07C370.96,-69.76 363.58,-48.65 348.5,-37 332.09,-24.31 283.09,-17.57 242.21,-14.07"/>
<polygon fill="#9a32cd" stroke="#9a32cd" points="371.06,-85.84 376.41,-94.98 377.93,-84.5 371.06,-85.84"/>
</a>
</g>
<text text-anchor="middle" x="417" y="-51" font-family="Helvetica,sans-Serif" font-size="10.00" fill="grey"> temperatureOptimal</text>
<text text-anchor="middle" x="417" y="-40" font-family="Helvetica,sans-Serif" font-size="10.00" fill="grey">temperatureRef</text>
</g>
</g>
</svg>
</svg>

<style type='text/css'>
<![CDATA[
[data-mouse-over-selected='false'] { opacity: 0.7; }
[data-mouse-over-selected='true']  { opacity: 1.0; }
]]>
</style>
<script type="application/ecmascript"><![CDATA[
document.addEventListener('DOMContentLoaded', (event) => {
  highlightEdges();
  highlightAdjacentNodes();
});
]]></script>
</svg>
