<?xml version="1.0" encoding="UTF-8" standalone="no"?>
<!DOCTYPE svg PUBLIC "-//W3C//DTD SVG 1.1//EN"
 "http://www.w3.org/Graphics/SVG/1.1/DTD/svg11.dtd">
<!-- Generated by graphviz version 2.43.0 (0)
 -->
<!-- Title: LinearIndividualGrowthModel Pages: 1 -->
<svg width="224pt" height="159pt"
 viewBox="0.00 0.00 224.00 159.00" xmlns="http://www.w3.org/2000/svg" xmlns:xlink="http://www.w3.org/1999/xlink">
<g id="graph0" class="graph" transform="scale(1 1) rotate(0) translate(4 155)">
<title>LinearIndividualGrowthModel</title>
<!-- Node1 -->
<g id="Node000001" class="node">
<title>Node1</title>
<g id="a_Node000001"><a xlink:title="Implements a linear individual growth model.">
<polygon fill="#999999" stroke="#666666" points="180,-19 20,-19 20,0 180,0 180,-19"/>
<text text-anchor="middle" x="100" y="-7" font-family="Helvetica,sans-Serif" font-size="10.00">LinearIndividualGrowthModel</text>
</a>
</g>
</g>
<!-- Node2 -->
<g id="Node000002" class="node">
<title>Node2</title>
<g id="a_Node000002"><a xlink:href="classIndividualGrowthModel.html" target="_top" xlink:title="Abstract base class for representing an individual animal growth model.">
<polygon fill="white" stroke="#666666" points="130,-85 0,-85 0,-66 130,-66 130,-85"/>
<text text-anchor="middle" x="65" y="-73" font-family="Helvetica,sans-Serif" font-size="10.00">IndividualGrowthModel</text>
</a>
</g>
</g>
<!-- Node2&#45;&gt;Node1 -->
<g id="edge1_Node000001_Node000002" class="edge">
<title>Node2&#45;&gt;Node1</title>
<g id="a_edge1_Node000001_Node000002"><a xlink:title=" ">
<path fill="none" stroke="#63b8ff" d="M74.54,-57.05C81.21,-44.86 89.83,-29.11 95.13,-19.41"/>
<polygon fill="#63b8ff" stroke="#63b8ff" points="71.45,-55.42 69.72,-65.87 77.59,-58.77 71.45,-55.42"/>
</a>
</g>
</g>
<!-- Node3 -->
<g id="Node000003" class="node">
<title>Node3</title>
<g id="a_Node000003"><a xlink:href="classLength.html" target="_top" xlink:title="Represents length in the ecosystem simulation.">
<polygon fill="white" stroke="#666666" points="198,-85 148,-85 148,-66 198,-66 198,-85"/>
<text text-anchor="middle" x="173" y="-73" font-family="Helvetica,sans-Serif" font-size="10.00">Length</text>
</a>
</g>
</g>
<!-- Node3&#45;&gt;Node1 -->
<g id="edge2_Node000001_Node000003" class="edge">
<title>Node3&#45;&gt;Node1</title>
<g id="a_edge2_Node000001_Node000003"><a xlink:title=" ">
<path fill="none" stroke="#9a32cd" stroke-dasharray="5,2" d="M155.52,-59.18C141.36,-46.76 121.88,-29.68 110.16,-19.41"/>
<polygon fill="#9a32cd" stroke="#9a32cd" points="153.33,-61.91 163.15,-65.87 157.94,-56.64 153.33,-61.91"/>
</a>
</g>
<text text-anchor="middle" x="174" y="-40" font-family="Helvetica,sans-Serif" font-size="10.00" fill="grey"> lengthAtBirth</text>
</g>
<!-- Node4 -->
<g id="Node000004" class="node">
<title>Node4</title>
<g id="a_Node000004"><a xlink:href="classPreciseDouble.html" target="_top" xlink:title="Class for precise double&#45;precision floating&#45;point arithmetic.">
<polygon fill="white" stroke="#666666" points="216,-151 130,-151 130,-132 216,-132 216,-151"/>
<text text-anchor="middle" x="173" y="-139" font-family="Helvetica,sans-Serif" font-size="10.00">PreciseDouble</text>
</a>
</g>
</g>
<!-- Node4&#45;&gt;Node3 -->
<g id="edge3_Node000003_Node000004" class="edge">
<title>Node4&#45;&gt;Node3</title>
<g id="a_edge3_Node000003_Node000004"><a xlink:title=" ">
<path fill="none" stroke="#9a32cd" stroke-dasharray="5,2" d="M173,-121.58C173,-109.63 173,-94.72 173,-85.41"/>
<polygon fill="#9a32cd" stroke="#9a32cd" points="169.5,-121.87 173,-131.87 176.5,-121.87 169.5,-121.87"/>
</a>
</g>
<text text-anchor="middle" x="188.5" y="-106" font-family="Helvetica,sans-Serif" font-size="10.00" fill="grey"> value</text>
</g>
</g>
</svg>
