<?xml version="1.0" encoding="UTF-8" standalone="no"?>
<!DOCTYPE svg PUBLIC "-//W3C//DTD SVG 1.1//EN"
 "http://www.w3.org/Graphics/SVG/1.1/DTD/svg11.dtd">
<!-- Generated by graphviz version 2.43.0 (0)
 -->
<!-- Title: AnimalStatisticalGrowth Pages: 1 -->
<!--zoomable 528 -->

<svg id="main" version="1.1" xmlns="http://www.w3.org/2000/svg" xmlns:xlink="http://www.w3.org/1999/xlink" xml:space="preserve" onload="init(evt)">
<style type="text/css"><![CDATA[
.node, .edge {opacity: 0.7;}
.node.selected, .edge.selected {opacity: 1;}
.edge:hover path { stroke: red; }
.edge:hover polygon { stroke: red; fill: red; }
]]></style>

<defs>
  <circle id="rim" cx="0" cy="0" r="7"/>
  <circle id="rim2" cx="0" cy="0" r="3.5"/>
  <g id="zoomPlus">
    <use xlink:href="#rim" fill="#404040"><set attributeName="fill" to="#808080" begin="zoomplus.mouseover" end="zoomplus.mouseout"/></use>
    <path d="M-4,0h8M0,-4v8" fill="none" stroke="white" stroke-width="1.5" pointer-events="none"/>
  </g>
  <g id="zoomMin">
    <use xlink:href="#rim" fill="#404040"><set attributeName="fill" to="#808080" begin="zoomminus.mouseover" end="zoomminus.mouseout"/></use>
    <path d="M-4,0h8" fill="none" stroke="white" stroke-width="1.5" pointer-events="none"/>
  </g>
  <g id="arrowUp" transform="translate(30 24)">
    <use xlink:href="#rim"/>
    <path pointer-events="none" fill="none" stroke="white" stroke-width="1.5" d="M0,-3.0v7 M-2.5,-0.5L0,-3.0L2.5,-0.5"/>
  </g>
  <g id="arrowRight" transform="rotate(90) translate(36 -43)">
    <use xlink:href="#rim"/>
    <path pointer-events="none" fill="none" stroke="white" stroke-width="1.5" d="M0,-3.0v7 M-2.5,-0.5L0,-3.0L2.5,-0.5"/>
  </g>
  <g id="arrowDown" transform="rotate(180) translate(-30 -48)">
    <use xlink:href="#rim"/>
    <path pointer-events="none" fill="none" stroke="white" stroke-width="1.5" d="M0,-3.0v7 M-2.5,-0.5L0,-3.0L2.5,-0.5"/>
  </g>
  <g id="arrowLeft" transform="rotate(270) translate(-36 17)">
    <use xlink:href="#rim"/>
    <path pointer-events="none" fill="none" stroke="white" stroke-width="1.5" d="M0,-3.0v7 M-2.5,-0.5L0,-3.0L2.5,-0.5"/>
  </g>
  <g id="resetDef">
    <use xlink:href="#rim2" fill="#404040"><set attributeName="fill" to="#808080" begin="reset.mouseover" end="reset.mouseout"/></use>
  </g>
</defs>
<script type="application/ecmascript">
var viewWidth = 1098;
var viewHeight = 528;
var sectionId = 'dynsection-1';
</script>
<script type="application/ecmascript" xlink:href="svg.min.js"/>
<svg id="graph" class="graph">
<g id="viewport">
<title>AnimalStatisticalGrowth</title>
<!-- Node1 -->
<g id="Node000001" class="node">
<title>Node1</title>
<g id="a_Node000001"><a xlink:title="Represents an animal growth model based on statistical approaches.">
<polygon fill="#999999" stroke="#666666" points="1090,-197.02 955,-197.02 955,-178.02 1090,-178.02 1090,-197.02"/>
<text text-anchor="middle" x="1022.5" y="-185.02" font-family="Helvetica,sans-Serif" font-size="10.00">AnimalStatisticalGrowth</text>
</a>
</g>
</g>
<!-- Node2 -->
<g id="Node000002" class="node">
<title>Node2</title>
<g id="a_Node000002"><a xlink:href="classAnimalGrowth.html" target="_top" xlink:title="Manages the growth and mass dynamics of an individual animal.">
<polygon fill="white" stroke="#666666" points="918,-197.02 832,-197.02 832,-178.02 918,-178.02 918,-197.02"/>
<text text-anchor="middle" x="875" y="-185.02" font-family="Helvetica,sans-Serif" font-size="10.00">AnimalGrowth</text>
</a>
</g>
</g>
<!-- Node2&#45;&gt;Node1 -->
<g id="edge1_Node000001_Node000002" class="edge">
<title>Node2&#45;&gt;Node1</title>
<g id="a_edge1_Node000001_Node000002"><a xlink:title=" ">
<path fill="none" stroke="#63b8ff" d="M928.33,-187.52C936.93,-187.52 945.95,-187.52 954.84,-187.52"/>
<polygon fill="#63b8ff" stroke="#63b8ff" points="928.08,-184.02 918.08,-187.52 928.08,-191.02 928.08,-184.02"/>
</a>
</g>
</g>
<!-- Node3 -->
<g id="Node000003" class="node">
<title>Node3</title>
<g id="a_Node000003"><a xlink:href="classEdibleGrowth.html" target="_top" xlink:title="Represents the growth characteristics and current biomasses of an edible object.">
<polygon fill="white" stroke="#666666" points="643,-401.02 561,-401.02 561,-382.02 643,-382.02 643,-401.02"/>
<text text-anchor="middle" x="602" y="-389.02" font-family="Helvetica,sans-Serif" font-size="10.00">EdibleGrowth</text>
</a>
</g>
</g>
<!-- Node3&#45;&gt;Node2 -->
<g id="edge2_Node000002_Node000003" class="edge">
<title>Node3&#45;&gt;Node2</title>
<g id="a_edge2_Node000002_Node000003"><a xlink:title=" ">
<path fill="none" stroke="#63b8ff" d="M653.4,-399.91C700.17,-404.73 769.13,-403.89 814,-367.52 868.51,-323.34 873.85,-228.07 874.1,-197.31"/>
<polygon fill="#63b8ff" stroke="#63b8ff" points="653.52,-396.41 643.19,-398.74 652.72,-403.36 653.52,-396.41"/>
</a>
</g>
</g>
<!-- Node4 -->
<g id="Node000004" class="node">
<title>Node4</title>
<g id="a_Node000004"><a xlink:href="classInstar.html" target="_top" xlink:title="Represents a developmental stage (instar) of an animal in the simulation.">
<polygon fill="white" stroke="#666666" points="93.5,-459.02 49.5,-459.02 49.5,-440.02 93.5,-440.02 93.5,-459.02"/>
<text text-anchor="middle" x="71.5" y="-447.02" font-family="Helvetica,sans-Serif" font-size="10.00">Instar</text>
</a>
</g>
</g>
<!-- Node4&#45;&gt;Node3 -->
<g id="edge3_Node000003_Node000004" class="edge">
<title>Node4&#45;&gt;Node3</title>
<g id="a_edge3_Node000003_Node000004"><a xlink:title=" ">
<path fill="none" stroke="#9a32cd" stroke-dasharray="5,2" d="M104.34,-447.39C177.69,-442.27 364.2,-428.09 519,-406.52 532.62,-404.62 547.42,-402.07 560.65,-399.61"/>
<polygon fill="#9a32cd" stroke="#9a32cd" points="103.69,-443.92 93.95,-448.1 104.17,-450.91 103.69,-443.92"/>
</a>
</g>
<text text-anchor="middle" x="335.5" y="-434.52" font-family="Helvetica,sans-Serif" font-size="10.00" fill="grey"> instar</text>
</g>
<!-- Node5 -->
<g id="Node000005" class="node">
<title>Node5</title>
<g id="a_Node000005"><a xlink:href="classSpeciesGrowth.html" target="_top" xlink:title="Represents the growth characteristics of a species across its instars.">
<polygon fill="white" stroke="#666666" points="380,-486.02 291,-486.02 291,-467.02 380,-467.02 380,-486.02"/>
<text text-anchor="middle" x="335.5" y="-474.02" font-family="Helvetica,sans-Serif" font-size="10.00">SpeciesGrowth</text>
</a>
</g>
</g>
<!-- Node4&#45;&gt;Node5 -->
<g id="edge5_Node000005_Node000004" class="edge">
<title>Node4&#45;&gt;Node5</title>
<g id="a_edge5_Node000005_Node000004"><a xlink:title=" ">
<path fill="none" stroke="#9a32cd" stroke-dasharray="5,2" d="M104.05,-452.77C150.67,-457.58 238.08,-466.58 290.82,-472.02"/>
<polygon fill="#9a32cd" stroke="#9a32cd" points="104.25,-449.27 93.94,-451.73 103.53,-456.24 104.25,-449.27"/>
</a>
</g>
<text text-anchor="middle" x="217" y="-472.52" font-family="Helvetica,sans-Serif" font-size="10.00" fill="grey"> lastInstar</text>
</g>
<!-- Node5&#45;&gt;Node3 -->
<g id="edge4_Node000003_Node000005" class="edge">
<title>Node5&#45;&gt;Node3</title>
<g id="a_edge4_Node000003_Node000005"><a xlink:title=" ">
<path fill="none" stroke="#9a32cd" stroke-dasharray="5,2" d="M390.24,-476.06C427.57,-474.1 477.8,-468.16 519,-451.52 548.44,-439.63 577.02,-414.8 591.39,-401.1"/>
<polygon fill="#9a32cd" stroke="#9a32cd" points="389.91,-472.57 380.07,-476.51 390.22,-479.56 389.91,-472.57"/>
</a>
</g>
<text text-anchor="middle" x="458.5" y="-477.52" font-family="Helvetica,sans-Serif" font-size="10.00" fill="grey"> speciesGrowth</text>
</g>
<!-- Node6 -->
<g id="Node000006" class="node">
<title>Node6</title>
<g id="a_Node000006"><a xlink:href="classCustomIndexedVector.html" target="_top" xlink:title=" ">
<polygon fill="white" stroke="#666666" points="143,-519.52 0,-519.52 0,-489.52 143,-489.52 143,-519.52"/>
<text text-anchor="start" x="8" y="-507.52" font-family="Helvetica,sans-Serif" font-size="10.00">CustomIndexedVector</text>
<text text-anchor="middle" x="71.5" y="-496.52" font-family="Helvetica,sans-Serif" font-size="10.00">&lt; Instar, PreciseDouble &gt;</text>
</a>
</g>
</g>
<!-- Node6&#45;&gt;Node5 -->
<g id="edge6_Node000005_Node000006" class="edge">
<title>Node6&#45;&gt;Node5</title>
<g id="a_edge6_Node000005_Node000006"><a xlink:title=" ">
<path fill="none" stroke="#9a32cd" stroke-dasharray="5,2" d="M153.19,-495.9C198.6,-491.04 253.53,-485.17 290.94,-481.18"/>
<polygon fill="#9a32cd" stroke="#9a32cd" points="152.63,-492.44 143.06,-496.98 153.37,-499.4 152.63,-492.44"/>
</a>
</g>
<text text-anchor="middle" x="217" y="-497.52" font-family="Helvetica,sans-Serif" font-size="10.00" fill="grey"> conversionToWetMass</text>
</g>
<!-- Node7 -->
<g id="Node000007" class="node">
<title>Node7</title>
<g id="a_Node000007"><a xlink:href="classDryMass.html" target="_top" xlink:title="Represents dry mass in the ecosystem simulation.">
<polygon fill="white" stroke="#666666" points="365,-325.02 306,-325.02 306,-306.02 365,-306.02 365,-325.02"/>
<text text-anchor="middle" x="335.5" y="-313.02" font-family="Helvetica,sans-Serif" font-size="10.00">DryMass</text>
</a>
</g>
</g>
<!-- Node7&#45;&gt;Node2 -->
<g id="edge15_Node000002_Node000007" class="edge">
<title>Node7&#45;&gt;Node2</title>
<g id="a_edge15_Node000002_Node000007"><a xlink:title=" ">
<path fill="none" stroke="#9a32cd" stroke-dasharray="5,2" d="M374.95,-306.31C382.56,-304.62 390.52,-302.94 398,-301.52 581.73,-266.74 643.82,-316.03 814,-238.52 835.4,-228.77 855.13,-209.1 865.77,-197.24"/>
<polygon fill="#9a32cd" stroke="#9a32cd" points="374.17,-302.9 365.19,-308.53 375.72,-309.73 374.17,-302.9"/>
</a>
</g>
<text text-anchor="middle" x="602" y="-311.52" font-family="Helvetica,sans-Serif" font-size="10.00" fill="grey"> currentBodySize</text>
<text text-anchor="middle" x="602" y="-300.52" font-family="Helvetica,sans-Serif" font-size="10.00" fill="grey">currentEnergyTank</text>
<text text-anchor="middle" x="602" y="-289.52" font-family="Helvetica,sans-Serif" font-size="10.00" fill="grey">eggDryMassAtBirth</text>
</g>
<!-- Node7&#45;&gt;Node3 -->
<g id="edge7_Node000003_Node000007" class="edge">
<title>Node7&#45;&gt;Node3</title>
<g id="a_edge7_Node000003_Node000007"><a xlink:title=" ">
<path fill="none" stroke="#9a32cd" stroke-dasharray="5,2" d="M375.31,-309.24C413.3,-304.75 472.14,-302.32 519,-320.52 552,-333.34 580.75,-365.62 593.7,-381.87"/>
<polygon fill="#9a32cd" stroke="#9a32cd" points="374.65,-305.79 365.17,-310.54 375.54,-312.74 374.65,-305.79"/>
</a>
</g>
<text text-anchor="middle" x="458.5" y="-323.52" font-family="Helvetica,sans-Serif" font-size="10.00" fill="grey"> currentTotalDryMass</text>
</g>
<!-- Node8 -->
<g id="Node000008" class="node">
<title>Node8</title>
<g id="a_Node000008"><a xlink:href="classPreciseDouble.html" target="_top" xlink:title="Class for precise double&#45;precision floating&#45;point arithmetic.">
<polygon fill="white" stroke="#666666" points="114.5,-350.02 28.5,-350.02 28.5,-331.02 114.5,-331.02 114.5,-350.02"/>
<text text-anchor="middle" x="71.5" y="-338.02" font-family="Helvetica,sans-Serif" font-size="10.00">PreciseDouble</text>
</a>
</g>
</g>
<!-- Node8&#45;&gt;Node2 -->
<g id="edge18_Node000002_Node000008" class="edge">
<title>Node8&#45;&gt;Node2</title>
<g id="a_edge18_Node000002_Node000008"><a xlink:title=" ">
<path fill="none" stroke="#9a32cd" stroke-dasharray="5,2" d="M125.11,-344.77C229.58,-351.95 470.11,-362.2 667,-323.52 734.86,-310.19 758.74,-314.1 814,-272.52 841.57,-251.78 861.4,-214.67 869.69,-197.17"/>
<polygon fill="#9a32cd" stroke="#9a32cd" points="125.05,-341.26 114.83,-344.04 124.56,-348.24 125.05,-341.26"/>
</a>
</g>
<text text-anchor="middle" x="458.5" y="-352.52" font-family="Helvetica,sans-Serif" font-size="10.00" fill="grey"> baseDevTimeProportion</text>
</g>
<!-- Node8&#45;&gt;Node7 -->
<g id="edge8_Node000007_Node000008" class="edge">
<title>Node8&#45;&gt;Node7</title>
<g id="a_edge8_Node000007_Node000008"><a xlink:title=" ">
<path fill="none" stroke="#9a32cd" stroke-dasharray="5,2" d="M124.95,-332.88C136.79,-331.3 149.31,-329.75 161,-328.52 211.92,-323.17 271.47,-319.2 305.9,-317.14"/>
<polygon fill="#9a32cd" stroke="#9a32cd" points="124.19,-329.45 114.75,-334.27 125.13,-336.39 124.19,-329.45"/>
</a>
</g>
<text text-anchor="middle" x="217" y="-331.52" font-family="Helvetica,sans-Serif" font-size="10.00" fill="grey"> value</text>
</g>
<!-- Node9 -->
<g id="Node000009" class="node">
<title>Node9</title>
<g id="a_Node000009"><a xlink:href="classWetMass.html" target="_top" xlink:title="Represents wet mass in the ecosystem simulation.">
<polygon fill="white" stroke="#666666" points="366,-401.02 305,-401.02 305,-382.02 366,-382.02 366,-401.02"/>
<text text-anchor="middle" x="335.5" y="-389.02" font-family="Helvetica,sans-Serif" font-size="10.00">WetMass</text>
</a>
</g>
</g>
<!-- Node8&#45;&gt;Node9 -->
<g id="edge10_Node000009_Node000008" class="edge">
<title>Node8&#45;&gt;Node9</title>
<g id="a_edge10_Node000009_Node000008"><a xlink:title=" ">
<path fill="none" stroke="#9a32cd" stroke-dasharray="5,2" d="M109.57,-353.27C125.28,-358.29 143.88,-363.75 161,-367.52 210.89,-378.51 270.02,-385.41 304.78,-388.86"/>
<polygon fill="#9a32cd" stroke="#9a32cd" points="110.3,-349.82 99.71,-350.05 108.13,-356.48 110.3,-349.82"/>
</a>
</g>
<text text-anchor="middle" x="217" y="-387.52" font-family="Helvetica,sans-Serif" font-size="10.00" fill="grey"> value</text>
</g>
<!-- Node14 -->
<g id="Node000014" class="node">
<title>Node14</title>
<g id="a_Node000014"><a xlink:href="classLength.html" target="_top" xlink:title="Represents length in the ecosystem simulation.">
<polygon fill="white" stroke="#666666" points="483.5,-169.02 433.5,-169.02 433.5,-150.02 483.5,-150.02 483.5,-169.02"/>
<text text-anchor="middle" x="458.5" y="-157.02" font-family="Helvetica,sans-Serif" font-size="10.00">Length</text>
</a>
</g>
</g>
<!-- Node8&#45;&gt;Node14 -->
<g id="edge17_Node000014_Node000008" class="edge">
<title>Node8&#45;&gt;Node14</title>
<g id="a_edge17_Node000014_Node000008"><a xlink:title=" ">
<path fill="none" stroke="#9a32cd" stroke-dasharray="5,2" d="M102.3,-326.51C177.47,-291.17 373.36,-199.08 437.12,-169.1"/>
<polygon fill="#9a32cd" stroke="#9a32cd" points="100.49,-323.5 92.93,-330.92 103.47,-329.83 100.49,-323.5"/>
</a>
</g>
<text text-anchor="middle" x="217" y="-300.52" font-family="Helvetica,sans-Serif" font-size="10.00" fill="grey"> value</text>
</g>
<!-- Node9&#45;&gt;Node3 -->
<g id="edge9_Node000003_Node000009" class="edge">
<title>Node9&#45;&gt;Node3</title>
<g id="a_edge9_Node000003_Node000009"><a xlink:title=" ">
<path fill="none" stroke="#9a32cd" stroke-dasharray="5,2" d="M376.14,-391.52C425.92,-391.52 510.86,-391.52 560.87,-391.52"/>
<polygon fill="#9a32cd" stroke="#9a32cd" points="376.07,-388.02 366.07,-391.52 376.07,-395.02 376.07,-388.02"/>
</a>
</g>
<text text-anchor="middle" x="458.5" y="-394.52" font-family="Helvetica,sans-Serif" font-size="10.00" fill="grey"> currentTotalWetMass</text>
</g>
<!-- Node10 -->
<g id="Node000010" class="node">
<title>Node10</title>
<g id="a_Node000010"><a xlink:href="classCustomIndexedVector.html" target="_top" xlink:title=" ">
<polygon fill="white" stroke="#666666" points="663.5,-250.52 540.5,-250.52 540.5,-220.52 663.5,-220.52 663.5,-250.52"/>
<text text-anchor="start" x="548.5" y="-238.52" font-family="Helvetica,sans-Serif" font-size="10.00">CustomIndexedVector</text>
<text text-anchor="middle" x="602" y="-227.52" font-family="Helvetica,sans-Serif" font-size="10.00">&lt; Instar, TimeStep &gt;</text>
</a>
</g>
</g>
<!-- Node10&#45;&gt;Node2 -->
<g id="edge11_Node000002_Node000010" class="edge">
<title>Node10&#45;&gt;Node2</title>
<g id="a_edge11_Node000002_Node000010"><a xlink:title=" ">
<path fill="none" stroke="#9a32cd" stroke-dasharray="5,2" d="M673.66,-226.09C714.78,-220.2 767.51,-211.95 814,-202.52 821.79,-200.94 830.09,-199.02 837.95,-197.09"/>
<polygon fill="#9a32cd" stroke="#9a32cd" points="673.15,-222.63 663.74,-227.5 674.13,-229.56 673.15,-222.63"/>
</a>
</g>
<text text-anchor="middle" x="749.5" y="-226.52" font-family="Helvetica,sans-Serif" font-size="10.00" fill="grey"> individualInstarAgeVector</text>
</g>
<!-- Node11 -->
<g id="Node000011" class="node">
<title>Node11</title>
<g id="a_Node000011"><a xlink:href="classCustomIndexedVector.html" target="_top" xlink:title=" ">
<polygon fill="white" stroke="#666666" points="663.5,-202.52 540.5,-202.52 540.5,-172.52 663.5,-172.52 663.5,-202.52"/>
<text text-anchor="start" x="548.5" y="-190.52" font-family="Helvetica,sans-Serif" font-size="10.00">CustomIndexedVector</text>
<text text-anchor="middle" x="602" y="-179.52" font-family="Helvetica,sans-Serif" font-size="10.00">&lt; Instar, Length &gt;</text>
</a>
</g>
</g>
<!-- Node11&#45;&gt;Node2 -->
<g id="edge12_Node000002_Node000011" class="edge">
<title>Node11&#45;&gt;Node2</title>
<g id="a_edge12_Node000002_Node000011"><a xlink:title=" ">
<path fill="none" stroke="#9a32cd" stroke-dasharray="5,2" d="M673.96,-187.52C724.16,-187.52 789.77,-187.52 831.91,-187.52"/>
<polygon fill="#9a32cd" stroke="#9a32cd" points="673.82,-184.02 663.82,-187.52 673.82,-191.02 673.82,-184.02"/>
</a>
</g>
<text text-anchor="middle" x="749.5" y="-190.52" font-family="Helvetica,sans-Serif" font-size="10.00" fill="grey"> instarLengthsVector</text>
</g>
<!-- Node12 -->
<g id="Node000012" class="node">
<title>Node12</title>
<g id="a_Node000012"><a xlink:href="classCustomIndexedVector.html" target="_top" xlink:title=" ">
<polygon fill="white" stroke="#666666" points="663.5,-154.52 540.5,-154.52 540.5,-124.52 663.5,-124.52 663.5,-154.52"/>
<text text-anchor="start" x="548.5" y="-142.52" font-family="Helvetica,sans-Serif" font-size="10.00">CustomIndexedVector</text>
<text text-anchor="middle" x="602" y="-131.52" font-family="Helvetica,sans-Serif" font-size="10.00">&lt; Instar, DryMass &gt;</text>
</a>
</g>
</g>
<!-- Node12&#45;&gt;Node2 -->
<g id="edge13_Node000002_Node000012" class="edge">
<title>Node12&#45;&gt;Node2</title>
<g id="a_edge13_Node000002_Node000012"><a xlink:title=" ">
<path fill="none" stroke="#9a32cd" stroke-dasharray="5,2" d="M673.66,-148.95C714.78,-154.85 767.51,-163.09 814,-172.52 821.79,-174.1 830.09,-176.02 837.95,-177.95"/>
<polygon fill="#9a32cd" stroke="#9a32cd" points="674.13,-145.49 663.74,-147.55 673.15,-152.42 674.13,-145.49"/>
</a>
</g>
<text text-anchor="middle" x="749.5" y="-175.52" font-family="Helvetica,sans-Serif" font-size="10.00" fill="grey"> instarMassesVector</text>
</g>
<!-- Node13 -->
<g id="Node000013" class="node">
<title>Node13</title>
<g id="a_Node000013"><a xlink:href="classIndividualGrowthModel.html" target="_top" xlink:title="Abstract base class for representing an individual animal growth model.">
<polygon fill="white" stroke="#666666" points="667,-106.02 537,-106.02 537,-87.02 667,-87.02 667,-106.02"/>
<text text-anchor="middle" x="602" y="-94.02" font-family="Helvetica,sans-Serif" font-size="10.00">IndividualGrowthModel</text>
</a>
</g>
</g>
<!-- Node13&#45;&gt;Node2 -->
<g id="edge14_Node000002_Node000013" class="edge">
<title>Node13&#45;&gt;Node2</title>
<g id="a_edge14_Node000002_Node000013"><a xlink:title=" ">
<path fill="none" stroke="#9a32cd" stroke-dasharray="5,2" d="M677.23,-100.62C719.08,-105.25 771.36,-115.01 814,-135.52 835.36,-145.8 855.11,-165.74 865.76,-177.72"/>
<polygon fill="#9a32cd" stroke="#9a32cd" points="677.41,-97.12 667.11,-99.58 676.7,-104.08 677.41,-97.12"/>
</a>
</g>
<text text-anchor="middle" x="749.5" y="-138.52" font-family="Helvetica,sans-Serif" font-size="10.00" fill="grey"> individualGrowthModel</text>
</g>
<!-- Node14&#45;&gt;Node2 -->
<g id="edge16_Node000002_Node000014" class="edge">
<title>Node14&#45;&gt;Node2</title>
<g id="a_edge16_Node000002_Node000014"><a xlink:title=" ">
<path fill="none" stroke="#9a32cd" stroke-dasharray="5,2" d="M468.78,-140.75C480.96,-118.5 504.65,-82.57 537,-67.52 589.39,-43.15 609.51,-61.71 667,-67.52 733.34,-74.22 758.67,-60.31 814,-97.52 844.23,-117.85 863.1,-159.05 870.47,-177.82"/>
<polygon fill="#9a32cd" stroke="#9a32cd" points="465.54,-139.39 464.01,-149.88 471.74,-142.64 465.54,-139.39"/>
</a>
</g>
<text text-anchor="middle" x="602" y="-70.52" font-family="Helvetica,sans-Serif" font-size="10.00" fill="grey"> lengthAtBirth</text>
</g>
<!-- Node15 -->
<g id="Node000015" class="node">
<title>Node15</title>
<g id="a_Node000015"><a xlink:href="classTimeStep.html" target="_top" xlink:title="Represents a discrete time step in the simulation.">
<polygon fill="white" stroke="#666666" points="633.5,-21.02 570.5,-21.02 570.5,-2.02 633.5,-2.02 633.5,-21.02"/>
<text text-anchor="middle" x="602" y="-9.02" font-family="Helvetica,sans-Serif" font-size="10.00">TimeStep</text>
</a>
</g>
</g>
<!-- Node15&#45;&gt;Node2 -->
<g id="edge19_Node000002_Node000015" class="edge">
<title>Node15&#45;&gt;Node2</title>
<g id="a_edge19_Node000002_Node000015"><a xlink:title=" ">
<path fill="none" stroke="#9a32cd" stroke-dasharray="5,2" d="M643.75,-3.91C689.88,2.29 764.97,4.78 814,-32.52 862.23,-69.21 871.71,-150.01 873.56,-177.86"/>
<polygon fill="#9a32cd" stroke="#9a32cd" points="643.19,-0.46 633.8,-5.37 644.2,-7.38 643.19,-0.46"/>
</a>
</g>
<text text-anchor="middle" x="749.5" y="-35.52" font-family="Helvetica,sans-Serif" font-size="10.00" fill="grey"> currentAge</text>
</g>
</g>
</svg>

<g id="navigator" transform="translate(0 0)" fill="#404254">
  <rect fill="#f2f5e9" fill-opacity="0.5" stroke="#606060" stroke-width=".5" x="0" y="0" width="60" height="60"/>
  <use id="zoomplus" xlink:href="#zoomPlus" x="17" y="9" onmousedown="handleZoom(evt,'in')"/>
  <use id="zoomminus" xlink:href="#zoomMin" x="42" y="9" onmousedown="handleZoom(evt,'out')"/>
  <use id="reset" xlink:href="#resetDef" x="30" y="36" onmousedown="handleReset()"/>
   <use id="arrowup" xlink:href="#arrowUp" x="0" y="0" onmousedown="handlePan(0,-1)"/>
  <use id="arrowright" xlink:href="#arrowRight" x="0" y="0" onmousedown="handlePan(1,0)"/>
  <use id="arrowdown" xlink:href="#arrowDown" x="0" y="0" onmousedown="handlePan(0,1)"/>
  <use id="arrowleft" xlink:href="#arrowLeft" x="0" y="0" onmousedown="handlePan(-1,0)"/>
</g>
<svg viewBox="0 0 15 15" width="100%" height="30px" preserveAspectRatio="xMaxYMin meet">
 <g id="arrow_out" transform="scale(0.3 0.3)">
  <a xlink:href="classAnimalStatisticalGrowth__coll__graph_org.svg" target="_base">
   <rect id="button" ry="5" rx="5" y="6" x="6" height="38" width="38"
        fill="#f2f5e9" fill-opacity="0.5" stroke="#606060" stroke-width="1.0"/>
   <path id="arrow"
     d="M 11.500037,31.436501 C 11.940474,20.09759 22.043105,11.32322 32.158766,21.979434 L 37.068811,17.246167 C 37.068811,17.246167 37.088388,32 37.088388,32 L 22.160133,31.978069 C 22.160133,31.978069 26.997745,27.140456 26.997745,27.140456 C 18.528582,18.264221 13.291696,25.230495 11.500037,31.436501 z"
     style="fill:#404040;"/>
  </a>
 </g>
</svg>

<style type='text/css'>
<![CDATA[
[data-mouse-over-selected='false'] { opacity: 0.7; }
[data-mouse-over-selected='true']  { opacity: 1.0; }
]]>
</style>
<script type="application/ecmascript"><![CDATA[
document.addEventListener('DOMContentLoaded', (event) => {
  highlightEdges();
  highlightAdjacentNodes();
});
]]></script>
</svg>
