<?xml version="1.0" encoding="UTF-8" standalone="no"?>
<!DOCTYPE svg PUBLIC "-//W3C//DTD SVG 1.1//EN"
 "http://www.w3.org/Graphics/SVG/1.1/DTD/svg11.dtd">
<!-- Generated by graphviz version 2.43.0 (0)
 -->
<!-- Title: CellResourceInterface Pages: 1 -->
<svg width="220pt" height="137pt"
 viewBox="0.00 0.00 220.00 137.00" xmlns="http://www.w3.org/2000/svg" xmlns:xlink="http://www.w3.org/1999/xlink">
<g id="graph0" class="graph" transform="scale(1 1) rotate(0) translate(4 133)">
<title>CellResourceInterface</title>
<!-- Node1 -->
<g id="Node000001" class="node">
<title>Node1</title>
<g id="a_Node000001"><a xlink:title="Interface for a resource in a terrain cell.">
<polygon fill="#999999" stroke="#666666" points="176,-74 52,-74 52,-55 176,-55 176,-74"/>
<text text-anchor="middle" x="114" y="-62" font-family="Helvetica,sans-Serif" font-size="10.00">CellResourceInterface</text>
</a>
</g>
</g>
<!-- Node4 -->
<g id="Node000004" class="node">
<title>Node4</title>
<g id="a_Node000004"><a xlink:href="classBranchCellResource.html" target="_top" xlink:title="Resource representation for branch nodes in a spatial tree.">
<polygon fill="white" stroke="#666666" points="114,-19 0,-19 0,0 114,0 114,-19"/>
<text text-anchor="middle" x="57" y="-7" font-family="Helvetica,sans-Serif" font-size="10.00">BranchCellResource</text>
</a>
</g>
</g>
<!-- Node1&#45;&gt;Node4 -->
<g id="edge3_Node000001_Node000004" class="edge">
<title>Node1&#45;&gt;Node4</title>
<g id="a_edge3_Node000001_Node000004"><a xlink:title=" ">
<path fill="none" stroke="#63b8ff" d="M97.38,-48.04C87.27,-38.64 74.72,-26.98 66.32,-19.17"/>
<polygon fill="#63b8ff" stroke="#63b8ff" points="95.14,-50.74 104.84,-54.98 99.9,-45.61 95.14,-50.74"/>
</a>
</g>
</g>
<!-- Node5 -->
<g id="Node000005" class="node">
<title>Node5</title>
<g id="a_Node000005"><a xlink:href="classCellResource.html" target="_top" xlink:title="Concrete implementation of a resource cell.">
<polygon fill="white" stroke="#666666" points="212,-19 132,-19 132,0 212,0 212,-19"/>
<text text-anchor="middle" x="172" y="-7" font-family="Helvetica,sans-Serif" font-size="10.00">CellResource</text>
</a>
</g>
</g>
<!-- Node1&#45;&gt;Node5 -->
<g id="edge4_Node000001_Node000005" class="edge">
<title>Node1&#45;&gt;Node5</title>
<g id="a_edge4_Node000001_Node000005"><a xlink:title=" ">
<path fill="none" stroke="#63b8ff" d="M130.91,-48.04C141.2,-38.64 153.97,-26.98 162.51,-19.17"/>
<polygon fill="#63b8ff" stroke="#63b8ff" points="128.34,-45.66 123.32,-54.98 133.06,-50.82 128.34,-45.66"/>
</a>
</g>
</g>
<!-- Node2 -->
<g id="Node000002" class="node">
<title>Node2</title>
<g id="a_Node000002"><a xlink:href="classEdible.html" target="_top" xlink:title="Represents a generic edible entity within a terrain cell.">
<polygon fill="white" stroke="#666666" points="97.5,-129 50.5,-129 50.5,-110 97.5,-110 97.5,-129"/>
<text text-anchor="middle" x="74" y="-117" font-family="Helvetica,sans-Serif" font-size="10.00">Edible</text>
</a>
</g>
</g>
<!-- Node2&#45;&gt;Node1 -->
<g id="edge1_Node000001_Node000002" class="edge">
<title>Node2&#45;&gt;Node1</title>
<g id="a_edge1_Node000001_Node000002"><a xlink:title=" ">
<path fill="none" stroke="#63b8ff" d="M86.7,-101.67C93.63,-92.5 101.91,-81.52 107.52,-74.09"/>
<polygon fill="#63b8ff" stroke="#63b8ff" points="83.84,-99.66 80.61,-109.75 89.42,-103.87 83.84,-99.66"/>
</a>
</g>
</g>
<!-- Node3 -->
<g id="Node000003" class="node">
<title>Node3</title>
<g id="a_Node000003"><a xlink:href="classCellElement.html" target="_top" xlink:title="Base class for any modifiable element contained within a terrain cell.">
<polygon fill="white" stroke="#666666" points="192,-129 116,-129 116,-110 192,-110 192,-129"/>
<text text-anchor="middle" x="154" y="-117" font-family="Helvetica,sans-Serif" font-size="10.00">CellElement</text>
</a>
</g>
</g>
<!-- Node3&#45;&gt;Node1 -->
<g id="edge2_Node000001_Node000003" class="edge">
<title>Node3&#45;&gt;Node1</title>
<g id="a_edge2_Node000001_Node000003"><a xlink:title=" ">
<path fill="none" stroke="#63b8ff" d="M141.3,-101.67C134.37,-92.5 126.09,-81.52 120.48,-74.09"/>
<polygon fill="#63b8ff" stroke="#63b8ff" points="138.58,-103.87 147.39,-109.75 144.16,-99.66 138.58,-103.87"/>
</a>
</g>
</g>
</g>
</svg>
