<?xml version="1.0" encoding="UTF-8" standalone="no"?>
<!DOCTYPE svg PUBLIC "-//W3C//DTD SVG 1.1//EN"
 "http://www.w3.org/Graphics/SVG/1.1/DTD/svg11.dtd">
<!-- Generated by graphviz version 2.43.0 (0)
 -->
<!-- Title: ValidatorJSONException Pages: 1 -->
<svg width="360pt" height="192pt"
 viewBox="0.00 0.00 360.00 192.00" xmlns="http://www.w3.org/2000/svg" xmlns:xlink="http://www.w3.org/1999/xlink">

<svg id="main" version="1.1" xmlns="http://www.w3.org/2000/svg" xmlns:xlink="http://www.w3.org/1999/xlink" xml:space="preserve" onload="init(evt)">
<style type="text/css"><![CDATA[
.node, .edge {opacity: 0.7;}
.node.selected, .edge.selected {opacity: 1;}
.edge:hover path { stroke: red; }
.edge:hover polygon { stroke: red; fill: red; }
]]></style>
<script type="application/ecmascript" xlink:href="svg.min.js"/>
<svg id="graph" class="graph">
<g id="graph0" class="graph" transform="scale(1 1) rotate(0) translate(4 188)">
<title>ValidatorJSONException</title>
<!-- Node1 -->
<g id="Node000001" class="node">
<title>Node1</title>
<g id="a_Node000001"><a xlink:title="Base exception for JSON validation errors.">
<polygon fill="#999999" stroke="#666666" points="239.5,-74 107.5,-74 107.5,-55 239.5,-55 239.5,-74"/>
<text text-anchor="middle" x="173.5" y="-62" font-family="Helvetica,sans-Serif" font-size="10.00">ValidatorJSONException</text>
</a>
</g>
</g>
<!-- Node4 -->
<g id="Node000004" class="node">
<title>Node4</title>
<g id="a_Node000004"><a xlink:href="classValidatorConfigJSONException.html" target="_top" xlink:title="Exception thrown when the JSON configuration is invalid.">
<polygon fill="white" stroke="#666666" points="163,-19 0,-19 0,0 163,0 163,-19"/>
<text text-anchor="middle" x="81.5" y="-7" font-family="Helvetica,sans-Serif" font-size="10.00">ValidatorConfigJSONException</text>
</a>
</g>
</g>
<!-- Node1&#45;&gt;Node4 -->
<g id="edge3_Node000001_Node000004" class="edge">
<title>Node1&#45;&gt;Node4</title>
<g id="a_edge3_Node000001_Node000004"><a xlink:title=" ">
<path fill="none" stroke="#63b8ff" d="M150.01,-49.97C133.19,-40.28 111.05,-27.52 96.55,-19.17"/>
<polygon fill="#63b8ff" stroke="#63b8ff" points="148.31,-53.03 158.72,-54.98 151.8,-46.96 148.31,-53.03"/>
</a>
</g>
</g>
<!-- Node5 -->
<g id="Node000005" class="node">
<title>Node5</title>
<g id="a_Node000005"><a xlink:href="classValidatorSchemaJSONException.html" target="_top" xlink:title="Exception thrown when the JSON schema is invalid.">
<polygon fill="white" stroke="#666666" points="352,-19 181,-19 181,0 352,0 352,-19"/>
<text text-anchor="middle" x="266.5" y="-7" font-family="Helvetica,sans-Serif" font-size="10.00">ValidatorSchemaJSONException</text>
</a>
</g>
</g>
<!-- Node1&#45;&gt;Node5 -->
<g id="edge4_Node000001_Node000005" class="edge">
<title>Node1&#45;&gt;Node5</title>
<g id="a_edge4_Node000001_Node000005"><a xlink:title=" ">
<path fill="none" stroke="#63b8ff" d="M197.25,-49.97C214.25,-40.28 236.63,-27.52 251.29,-19.17"/>
<polygon fill="#63b8ff" stroke="#63b8ff" points="195.4,-46.99 188.44,-54.98 198.86,-53.07 195.4,-46.99"/>
</a>
</g>
</g>
<!-- Node2 -->
<g id="Node000002" class="node">
<title>Node2</title>
<g id="a_Node000002"><a xlink:href="classLineInfoException.html" target="_top" xlink:title="Exception class that stores file, line, and custom error message.">
<polygon fill="white" stroke="#666666" points="225.5,-129 121.5,-129 121.5,-110 225.5,-110 225.5,-129"/>
<text text-anchor="middle" x="173.5" y="-117" font-family="Helvetica,sans-Serif" font-size="10.00">LineInfoException</text>
</a>
</g>
</g>
<!-- Node2&#45;&gt;Node1 -->
<g id="edge1_Node000001_Node000002" class="edge">
<title>Node2&#45;&gt;Node1</title>
<g id="a_edge1_Node000001_Node000002"><a xlink:title=" ">
<path fill="none" stroke="#63b8ff" d="M173.5,-99.66C173.5,-90.93 173.5,-80.99 173.5,-74.09"/>
<polygon fill="#63b8ff" stroke="#63b8ff" points="170,-99.75 173.5,-109.75 177,-99.75 170,-99.75"/>
</a>
</g>
</g>
<!-- Node3 -->
<g id="Node000003" class="node">
<title>Node3</title>
<g id="a_Node000003"><a xlink:title=" ">
<polygon fill="white" stroke="#bfbfbf" points="216.5,-184 130.5,-184 130.5,-165 216.5,-165 216.5,-184"/>
<text text-anchor="middle" x="173.5" y="-172" font-family="Helvetica,sans-Serif" font-size="10.00">std::exception</text>
</a>
</g>
</g>
<!-- Node3&#45;&gt;Node2 -->
<g id="edge2_Node000002_Node000003" class="edge">
<title>Node3&#45;&gt;Node2</title>
<g id="a_edge2_Node000002_Node000003"><a xlink:title=" ">
<path fill="none" stroke="#63b8ff" d="M173.5,-154.66C173.5,-145.93 173.5,-135.99 173.5,-129.09"/>
<polygon fill="#63b8ff" stroke="#63b8ff" points="170,-154.75 173.5,-164.75 177,-154.75 170,-154.75"/>
</a>
</g>
</g>
</g>
</svg>
</svg>

<style type='text/css'>
<![CDATA[
[data-mouse-over-selected='false'] { opacity: 0.7; }
[data-mouse-over-selected='true']  { opacity: 1.0; }
]]>
</style>
<script type="application/ecmascript"><![CDATA[
document.addEventListener('DOMContentLoaded', (event) => {
  highlightEdges();
  highlightAdjacentNodes();
});
]]></script>
</svg>
