<?xml version="1.0" encoding="UTF-8" standalone="no"?>
<!DOCTYPE svg PUBLIC "-//W3C//DTD SVG 1.1//EN"
 "http://www.w3.org/Graphics/SVG/1.1/DTD/svg11.dtd">
<!-- Generated by graphviz version 2.43.0 (0)
 -->
<!-- Title: /home/runner/work/Weaver/Weaver/include/App/Model/IBM/Maths/Conversions.h Pages: 1 -->
<svg width="937pt" height="181pt"
 viewBox="0.00 0.00 937.00 181.00" xmlns="http://www.w3.org/2000/svg" xmlns:xlink="http://www.w3.org/1999/xlink">
<g id="graph0" class="graph" transform="scale(1 1) rotate(0) translate(4 177)">
<title>/home/runner/work/Weaver/Weaver/include/App/Model/IBM/Maths/Conversions.h</title>
<!-- Node1 -->
<g id="Node000001" class="node">
<title>Node1</title>
<g id="a_Node000001"><a xlink:title="Functions for converting between organism length and dry mass using allometric relationships.">
<polygon fill="#999999" stroke="#666666" points="338,-173 189,-173 189,-132 338,-132 338,-173"/>
<text text-anchor="start" x="197" y="-161" font-family="Helvetica,sans-Serif" font-size="10.00">/home/runner/work/Weaver</text>
<text text-anchor="start" x="197" y="-150" font-family="Helvetica,sans-Serif" font-size="10.00">/Weaver/include/App/Model</text>
<text text-anchor="middle" x="263.5" y="-139" font-family="Helvetica,sans-Serif" font-size="10.00">/IBM/Maths/Conversions.h</text>
</a>
</g>
</g>
<!-- Node2 -->
<g id="Node000002" class="node">
<title>Node2</title>
<g id="a_Node000002"><a xlink:title=" ">
<polygon fill="#e0e0e0" stroke="#999999" points="47,-24.5 0,-24.5 0,-5.5 47,-5.5 47,-24.5"/>
<text text-anchor="middle" x="23.5" y="-12.5" font-family="Helvetica,sans-Serif" font-size="10.00">cmath</text>
</a>
</g>
</g>
<!-- Node1&#45;&gt;Node2 -->
<g id="edge1_Node000001_Node000002" class="edge">
<title>Node1&#45;&gt;Node2</title>
<g id="a_edge1_Node000001_Node000002"><a xlink:title=" ">
<path fill="none" stroke="#63b8ff" d="M228.86,-131.94C179.5,-104.07 90.19,-53.65 47.49,-29.55"/>
<polygon fill="#63b8ff" stroke="#63b8ff" points="49.07,-26.42 38.64,-24.55 45.63,-32.51 49.07,-26.42"/>
</a>
</g>
</g>
<!-- Node3 -->
<g id="Node000003" class="node">
<title>Node3</title>
<g id="a_Node000003"><a xlink:href="PreciseDouble_8h.html" target="_top" xlink:title="Defines the PreciseDouble class for safe and precise double&#45;precision arithmetic.">
<polygon fill="white" stroke="#666666" points="565,-96 442,-96 442,-66 565,-66 565,-96"/>
<text text-anchor="start" x="450" y="-84" font-family="Helvetica,sans-Serif" font-size="10.00">App/Model/IBM/Maths</text>
<text text-anchor="middle" x="503.5" y="-73" font-family="Helvetica,sans-Serif" font-size="10.00">/PreciseDouble.h</text>
</a>
</g>
</g>
<!-- Node1&#45;&gt;Node3 -->
<g id="edge2_Node000001_Node000003" class="edge">
<title>Node1&#45;&gt;Node3</title>
<g id="a_edge2_Node000001_Node000003"><a xlink:title=" ">
<path fill="none" stroke="#63b8ff" d="M330.99,-131.96C366.96,-121.54 410.76,-108.86 445.22,-98.88"/>
<polygon fill="#63b8ff" stroke="#63b8ff" points="446.51,-102.15 455.14,-96 444.56,-95.42 446.51,-102.15"/>
</a>
</g>
</g>
<!-- Node3&#45;&gt;Node2 -->
<g id="edge8_Node000003_Node000002" class="edge">
<title>Node3&#45;&gt;Node2</title>
<g id="a_edge8_Node000003_Node000002"><a xlink:title=" ">
<path fill="none" stroke="#63b8ff" d="M441.92,-78.96C354.55,-76.17 190.25,-66.1 55.5,-30 53.61,-29.49 51.69,-28.89 49.78,-28.23"/>
<polygon fill="#63b8ff" stroke="#63b8ff" points="51.01,-24.96 40.43,-24.54 48.44,-31.47 51.01,-24.96"/>
</a>
</g>
</g>
<!-- Node4 -->
<g id="Node000004" class="node">
<title>Node4</title>
<g id="a_Node000004"><a xlink:title=" ">
<polygon fill="#e0e0e0" stroke="#999999" points="170,-30 65,-30 65,0 170,0 170,-30"/>
<text text-anchor="start" x="73" y="-18" font-family="Helvetica,sans-Serif" font-size="10.00">boost/archive/text</text>
<text text-anchor="middle" x="117.5" y="-7" font-family="Helvetica,sans-Serif" font-size="10.00">_iarchive.hpp</text>
</a>
</g>
</g>
<!-- Node3&#45;&gt;Node4 -->
<g id="edge3_Node000003_Node000004" class="edge">
<title>Node3&#45;&gt;Node4</title>
<g id="a_edge3_Node000003_Node000004"><a xlink:title=" ">
<path fill="none" stroke="#63b8ff" d="M441.87,-71.88C378.51,-63.23 276.79,-48.49 179.98,-30.21"/>
<polygon fill="#63b8ff" stroke="#63b8ff" points="180.5,-26.74 170.02,-28.31 179.19,-33.62 180.5,-26.74"/>
</a>
</g>
</g>
<!-- Node5 -->
<g id="Node000005" class="node">
<title>Node5</title>
<g id="a_Node000005"><a xlink:title=" ">
<polygon fill="#e0e0e0" stroke="#999999" points="293,-30 188,-30 188,0 293,0 293,-30"/>
<text text-anchor="start" x="196" y="-18" font-family="Helvetica,sans-Serif" font-size="10.00">boost/archive/text</text>
<text text-anchor="middle" x="240.5" y="-7" font-family="Helvetica,sans-Serif" font-size="10.00">_oarchive.hpp</text>
</a>
</g>
</g>
<!-- Node3&#45;&gt;Node5 -->
<g id="edge4_Node000003_Node000005" class="edge">
<title>Node3&#45;&gt;Node5</title>
<g id="a_edge4_Node000003_Node000005"><a xlink:title=" ">
<path fill="none" stroke="#63b8ff" d="M445.78,-65.95C403.56,-55.68 346.33,-41.75 303.02,-31.21"/>
<polygon fill="#63b8ff" stroke="#63b8ff" points="303.71,-27.78 293.17,-28.82 302.06,-34.58 303.71,-27.78"/>
</a>
</g>
</g>
<!-- Node6 -->
<g id="Node000006" class="node">
<title>Node6</title>
<g id="a_Node000006"><a xlink:title=" ">
<polygon fill="#e0e0e0" stroke="#999999" points="427.5,-30 311.5,-30 311.5,0 427.5,0 427.5,-30"/>
<text text-anchor="start" x="319.5" y="-18" font-family="Helvetica,sans-Serif" font-size="10.00">boost/archive/binary</text>
<text text-anchor="middle" x="369.5" y="-7" font-family="Helvetica,sans-Serif" font-size="10.00">_iarchive.hpp</text>
</a>
</g>
</g>
<!-- Node3&#45;&gt;Node6 -->
<g id="edge5_Node000003_Node000006" class="edge">
<title>Node3&#45;&gt;Node6</title>
<g id="a_edge5_Node000003_Node000006"><a xlink:title=" ">
<path fill="none" stroke="#63b8ff" d="M474.09,-65.95C454.72,-56.7 429.14,-44.49 408.13,-34.45"/>
<polygon fill="#63b8ff" stroke="#63b8ff" points="409.37,-31.16 398.84,-30.01 406.35,-37.48 409.37,-31.16"/>
</a>
</g>
</g>
<!-- Node7 -->
<g id="Node000007" class="node">
<title>Node7</title>
<g id="a_Node000007"><a xlink:title=" ">
<polygon fill="#e0e0e0" stroke="#999999" points="561.5,-30 445.5,-30 445.5,0 561.5,0 561.5,-30"/>
<text text-anchor="start" x="453.5" y="-18" font-family="Helvetica,sans-Serif" font-size="10.00">boost/archive/binary</text>
<text text-anchor="middle" x="503.5" y="-7" font-family="Helvetica,sans-Serif" font-size="10.00">_oarchive.hpp</text>
</a>
</g>
</g>
<!-- Node3&#45;&gt;Node7 -->
<g id="edge6_Node000003_Node000007" class="edge">
<title>Node3&#45;&gt;Node7</title>
<g id="a_edge6_Node000003_Node000007"><a xlink:title=" ">
<path fill="none" stroke="#63b8ff" d="M503.5,-65.8C503.5,-58.34 503.5,-48.99 503.5,-40.41"/>
<polygon fill="#63b8ff" stroke="#63b8ff" points="507,-40.16 503.5,-30.16 500,-40.16 507,-40.16"/>
</a>
</g>
</g>
<!-- Node8 -->
<g id="Node000008" class="node">
<title>Node8</title>
<g id="a_Node000008"><a xlink:title=" ">
<polygon fill="#e0e0e0" stroke="#999999" points="623.5,-24.5 579.5,-24.5 579.5,-5.5 623.5,-5.5 623.5,-24.5"/>
<text text-anchor="middle" x="601.5" y="-12.5" font-family="Helvetica,sans-Serif" font-size="10.00">string</text>
</a>
</g>
</g>
<!-- Node3&#45;&gt;Node8 -->
<g id="edge7_Node000003_Node000008" class="edge">
<title>Node3&#45;&gt;Node8</title>
<g id="a_edge7_Node000003_Node000008"><a xlink:title=" ">
<path fill="none" stroke="#63b8ff" d="M525.25,-65.8C541.37,-55.27 563.26,-40.97 579.45,-30.4"/>
<polygon fill="#63b8ff" stroke="#63b8ff" points="581.78,-33.06 588.24,-24.66 577.96,-27.2 581.78,-33.06"/>
</a>
</g>
</g>
<!-- Node9 -->
<g id="Node000009" class="node">
<title>Node9</title>
<g id="a_Node000009"><a xlink:title=" ">
<polygon fill="#e0e0e0" stroke="#999999" points="705.5,-24.5 641.5,-24.5 641.5,-5.5 705.5,-5.5 705.5,-24.5"/>
<text text-anchor="middle" x="673.5" y="-12.5" font-family="Helvetica,sans-Serif" font-size="10.00">algorithm</text>
</a>
</g>
</g>
<!-- Node3&#45;&gt;Node9 -->
<g id="edge9_Node000003_Node000009" class="edge">
<title>Node3&#45;&gt;Node9</title>
<g id="a_edge9_Node000003_Node000009"><a xlink:title=" ">
<path fill="none" stroke="#63b8ff" d="M540.81,-65.95C570.88,-54.63 612.74,-38.88 641.35,-28.1"/>
<polygon fill="#63b8ff" stroke="#63b8ff" points="642.75,-31.32 650.88,-24.52 640.28,-24.77 642.75,-31.32"/>
</a>
</g>
</g>
<!-- Node10 -->
<g id="Node000010" class="node">
<title>Node10</title>
<g id="a_Node000010"><a xlink:title=" ">
<polygon fill="#e0e0e0" stroke="#999999" points="783.5,-24.5 723.5,-24.5 723.5,-5.5 783.5,-5.5 783.5,-24.5"/>
<text text-anchor="middle" x="753.5" y="-12.5" font-family="Helvetica,sans-Serif" font-size="10.00">iostream</text>
</a>
</g>
</g>
<!-- Node3&#45;&gt;Node10 -->
<g id="edge10_Node000003_Node000010" class="edge">
<title>Node3&#45;&gt;Node10</title>
<g id="a_edge10_Node000003_Node000010"><a xlink:title=" ">
<path fill="none" stroke="#63b8ff" d="M565.38,-67.25C607.69,-58.07 664.88,-44.74 714.5,-30 716.77,-29.33 719.1,-28.59 721.44,-27.83"/>
<polygon fill="#63b8ff" stroke="#63b8ff" points="722.63,-31.12 730.96,-24.58 720.36,-24.5 722.63,-31.12"/>
</a>
</g>
</g>
<!-- Node11 -->
<g id="Node000011" class="node">
<title>Node11</title>
<g id="a_Node000011"><a xlink:title=" ">
<polygon fill="#e0e0e0" stroke="#999999" points="845.5,-24.5 801.5,-24.5 801.5,-5.5 845.5,-5.5 845.5,-24.5"/>
<text text-anchor="middle" x="823.5" y="-12.5" font-family="Helvetica,sans-Serif" font-size="10.00">limits</text>
</a>
</g>
</g>
<!-- Node3&#45;&gt;Node11 -->
<g id="edge11_Node000003_Node000011" class="edge">
<title>Node3&#45;&gt;Node11</title>
<g id="a_edge11_Node000003_Node000011"><a xlink:title=" ">
<path fill="none" stroke="#63b8ff" d="M565.16,-73.91C624.4,-66.99 715.95,-53.49 792.5,-30 793.95,-29.56 795.41,-29.06 796.88,-28.53"/>
<polygon fill="#63b8ff" stroke="#63b8ff" points="798.48,-31.66 806.42,-24.64 795.84,-25.18 798.48,-31.66"/>
</a>
</g>
</g>
<!-- Node12 -->
<g id="Node000012" class="node">
<title>Node12</title>
<g id="a_Node000012"><a xlink:title=" ">
<polygon fill="#e0e0e0" stroke="#999999" points="929,-24.5 864,-24.5 864,-5.5 929,-5.5 929,-24.5"/>
<text text-anchor="middle" x="896.5" y="-12.5" font-family="Helvetica,sans-Serif" font-size="10.00">functional</text>
</a>
</g>
</g>
<!-- Node3&#45;&gt;Node12 -->
<g id="edge12_Node000003_Node000012" class="edge">
<title>Node3&#45;&gt;Node12</title>
<g id="a_edge12_Node000003_Node000012"><a xlink:title=" ">
<path fill="none" stroke="#63b8ff" d="M565.31,-74.6C635.92,-67.64 754.6,-53.56 854.5,-30 857.47,-29.3 860.53,-28.48 863.58,-27.59"/>
<polygon fill="#63b8ff" stroke="#63b8ff" points="864.66,-30.92 873.17,-24.61 862.58,-24.24 864.66,-30.92"/>
</a>
</g>
</g>
</g>
</svg>
