<?xml version="1.0" encoding="UTF-8" standalone="no"?>
<!DOCTYPE svg PUBLIC "-//W3C//DTD SVG 1.1//EN"
 "http://www.w3.org/Graphics/SVG/1.1/DTD/svg11.dtd">
<!-- Generated by graphviz version 2.43.0 (0)
 -->
<!-- Title: /home/runner/work/Weaver/Weaver/include/App/Model/IBM/Maths/Dynamics/NonMassBased/NonDynamics.h Pages: 1 -->
<svg width="1217pt" height="1226pt"
 viewBox="0.00 0.00 1217.00 1226.00" xmlns="http://www.w3.org/2000/svg" xmlns:xlink="http://www.w3.org/1999/xlink">
<g id="graph0" class="graph" transform="scale(1 1) rotate(0) translate(4 1222)">
<title>/home/runner/work/Weaver/Weaver/include/App/Model/IBM/Maths/Dynamics/NonMassBased/NonDynamics.h</title>
<!-- Node1 -->
<g id="Node000001" class="node">
<title>Node1</title>
<g id="a_Node000001"><a xlink:title="Defines the NonDynamics class, representing static (non&#45;changing) dynamics in the ecosystem model.">
<polygon fill="#999999" stroke="#666666" points="364.5,-1218 163.5,-1218 163.5,-1166 364.5,-1166 364.5,-1218"/>
<text text-anchor="start" x="171.5" y="-1206" font-family="Helvetica,sans-Serif" font-size="10.00">/home/runner/work/Weaver</text>
<text text-anchor="start" x="171.5" y="-1195" font-family="Helvetica,sans-Serif" font-size="10.00">/Weaver/include/App/Model</text>
<text text-anchor="start" x="171.5" y="-1184" font-family="Helvetica,sans-Serif" font-size="10.00">/IBM/Maths/Dynamics/NonMassBased</text>
<text text-anchor="middle" x="264" y="-1173" font-family="Helvetica,sans-Serif" font-size="10.00">/NonDynamics.h</text>
</a>
</g>
</g>
<!-- Node2 -->
<g id="Node000002" class="node">
<title>Node2</title>
<g id="a_Node000002"><a xlink:href="Landscape_8h.html" target="_top" xlink:title="Doxygen&#45;documented declaration of the Landscape class and related serialization helpers.">
<polygon fill="white" stroke="#666666" points="848.5,-118 691.5,-118 691.5,-77 848.5,-77 848.5,-118"/>
<text text-anchor="start" x="699.5" y="-106" font-family="Helvetica,sans-Serif" font-size="10.00">/home/runner/work/Weaver</text>
<text text-anchor="start" x="699.5" y="-95" font-family="Helvetica,sans-Serif" font-size="10.00">/Weaver/include/App/Model</text>
<text text-anchor="middle" x="770" y="-84" font-family="Helvetica,sans-Serif" font-size="10.00">/IBM/Landscape/Landscape.h</text>
</a>
</g>
</g>
<!-- Node1&#45;&gt;Node2 -->
<g id="edge1_Node000001_Node000002" class="edge">
<title>Node1&#45;&gt;Node2</title>
<g id="a_edge1_Node000001_Node000002"><a xlink:title=" ">
<path fill="none" stroke="#63b8ff" d="M153.75,-1162.8C81.36,-1136.9 0,-1090.27 0,-1011.5 0,-1011.5 0,-1011.5 0,-256 0,-115.97 494.97,-99.24 691.22,-98.11"/>
<polygon fill="#63b8ff" stroke="#63b8ff" points="152.85,-1166.19 163.44,-1166.17 155.14,-1159.58 152.85,-1166.19"/>
</a>
</g>
</g>
<!-- Node7 -->
<g id="Node000007" class="node">
<title>Node7</title>
<g id="a_Node000007"><a xlink:href="ResourceSource_8h.html" target="_top" xlink:title="Defines the ResourceSource class representing resource availability in the landscape.">
<polygon fill="white" stroke="#666666" points="607,-1130 449,-1130 449,-1078 607,-1078 607,-1130"/>
<text text-anchor="start" x="457" y="-1118" font-family="Helvetica,sans-Serif" font-size="10.00">/home/runner/work/Weaver</text>
<text text-anchor="start" x="457" y="-1107" font-family="Helvetica,sans-Serif" font-size="10.00">/Weaver/include/App/Model</text>
<text text-anchor="start" x="457" y="-1096" font-family="Helvetica,sans-Serif" font-size="10.00">/IBM/Landscape/Map/Patches</text>
<text text-anchor="middle" x="528" y="-1085" font-family="Helvetica,sans-Serif" font-size="10.00">/Source/ResourceSource.h</text>
</a>
</g>
</g>
<!-- Node1&#45;&gt;Node7 -->
<g id="edge6_Node000001_Node000007" class="edge">
<title>Node1&#45;&gt;Node7</title>
<g id="a_edge6_Node000001_Node000007"><a xlink:title=" ">
<path fill="none" stroke="#63b8ff" d="M350.94,-1162.68C383.19,-1152.17 419.52,-1140.34 450.83,-1130.14"/>
<polygon fill="#63b8ff" stroke="#63b8ff" points="349.49,-1159.47 341.07,-1165.89 351.66,-1166.12 349.49,-1159.47"/>
</a>
</g>
</g>
<!-- Node3 -->
<g id="Node000003" class="node">
<title>Node3</title>
<g id="a_Node000003"><a xlink:href="IBM_8h.html" target="_top" xlink:title="Definition of the IBM class, representing the core individual&#45;based model of the simulation.">
<polygon fill="white" stroke="#666666" points="545.5,-41 396.5,-41 396.5,0 545.5,0 545.5,-41"/>
<text text-anchor="start" x="404.5" y="-29" font-family="Helvetica,sans-Serif" font-size="10.00">/home/runner/work/Weaver</text>
<text text-anchor="start" x="404.5" y="-18" font-family="Helvetica,sans-Serif" font-size="10.00">/Weaver/include/App/Model</text>
<text text-anchor="middle" x="471" y="-7" font-family="Helvetica,sans-Serif" font-size="10.00">/IBM/IBM.h</text>
</a>
</g>
</g>
<!-- Node2&#45;&gt;Node3 -->
<g id="edge2_Node000002_Node000003" class="edge">
<title>Node2&#45;&gt;Node3</title>
<g id="a_edge2_Node000002_Node000003"><a xlink:title=" ">
<path fill="none" stroke="#63b8ff" d="M682.52,-74.56C639.06,-63.65 587.1,-50.62 545.55,-40.2"/>
<polygon fill="#63b8ff" stroke="#63b8ff" points="681.67,-77.95 692.22,-76.99 683.37,-71.16 681.67,-77.95"/>
</a>
</g>
</g>
<!-- Node4 -->
<g id="Node000004" class="node">
<title>Node4</title>
<g id="a_Node000004"><a xlink:href="AquaticLandscape_8h.html" target="_top" xlink:title="Defines the AquaticLandscape class for aquatic ecosystem simulations.">
<polygon fill="white" stroke="#666666" points="757,-41 563,-41 563,0 757,0 757,-41"/>
<text text-anchor="start" x="571" y="-29" font-family="Helvetica,sans-Serif" font-size="10.00">/home/runner/work/Weaver</text>
<text text-anchor="start" x="571" y="-18" font-family="Helvetica,sans-Serif" font-size="10.00">/Weaver/include/App/Model</text>
<text text-anchor="middle" x="660" y="-7" font-family="Helvetica,sans-Serif" font-size="10.00">/IBM/Landscape/AquaticLandscape.h</text>
</a>
</g>
</g>
<!-- Node2&#45;&gt;Node4 -->
<g id="edge3_Node000002_Node000004" class="edge">
<title>Node2&#45;&gt;Node4</title>
<g id="a_edge3_Node000002_Node000004"><a xlink:title=" ">
<path fill="none" stroke="#63b8ff" d="M732.74,-71.09C718.4,-61.32 702.28,-50.32 688.85,-41.17"/>
<polygon fill="#63b8ff" stroke="#63b8ff" points="731.15,-74.25 741.39,-76.99 735.1,-68.47 731.15,-74.25"/>
</a>
</g>
</g>
<!-- Node5 -->
<g id="Node000005" class="node">
<title>Node5</title>
<g id="a_Node000005"><a xlink:href="ArthropodsLandscape_8h.html" target="_top" xlink:title="Defines the ArthropodsLandscape class for arthropod&#45;specific ecosystem simulations.">
<polygon fill="white" stroke="#666666" points="985,-41 775,-41 775,0 985,0 985,-41"/>
<text text-anchor="start" x="783" y="-29" font-family="Helvetica,sans-Serif" font-size="10.00">/home/runner/work/Weaver</text>
<text text-anchor="start" x="783" y="-18" font-family="Helvetica,sans-Serif" font-size="10.00">/Weaver/include/App/Model</text>
<text text-anchor="middle" x="880" y="-7" font-family="Helvetica,sans-Serif" font-size="10.00">/IBM/Landscape/ArthropodsLandscape.h</text>
</a>
</g>
</g>
<!-- Node2&#45;&gt;Node5 -->
<g id="edge4_Node000002_Node000005" class="edge">
<title>Node2&#45;&gt;Node5</title>
<g id="a_edge4_Node000002_Node000005"><a xlink:title=" ">
<path fill="none" stroke="#63b8ff" d="M807.26,-71.09C821.6,-61.32 837.72,-50.32 851.15,-41.17"/>
<polygon fill="#63b8ff" stroke="#63b8ff" points="804.9,-68.47 798.61,-76.99 808.85,-74.25 804.9,-68.47"/>
</a>
</g>
</g>
<!-- Node6 -->
<g id="Node000006" class="node">
<title>Node6</title>
<g id="a_Node000006"><a xlink:href="DinosaursLandscape_8h.html" target="_top" xlink:title="Defines the DinosaursLandscape class for dinosaur&#45;specific ecosystem simulations.">
<polygon fill="white" stroke="#666666" points="1209,-41 1003,-41 1003,0 1209,0 1209,-41"/>
<text text-anchor="start" x="1011" y="-29" font-family="Helvetica,sans-Serif" font-size="10.00">/home/runner/work/Weaver</text>
<text text-anchor="start" x="1011" y="-18" font-family="Helvetica,sans-Serif" font-size="10.00">/Weaver/include/App/Model</text>
<text text-anchor="middle" x="1106" y="-7" font-family="Helvetica,sans-Serif" font-size="10.00">/IBM/Landscape/DinosaursLandscape.h</text>
</a>
</g>
</g>
<!-- Node2&#45;&gt;Node6 -->
<g id="edge5_Node000002_Node000006" class="edge">
<title>Node2&#45;&gt;Node6</title>
<g id="a_edge5_Node000002_Node000006"><a xlink:title=" ">
<path fill="none" stroke="#63b8ff" d="M858.81,-76.68C908.19,-65.66 969.4,-51.99 1018.56,-41.02"/>
<polygon fill="#63b8ff" stroke="#63b8ff" points="857.77,-73.32 848.78,-78.92 859.3,-80.15 857.77,-73.32"/>
</a>
</g>
</g>
<!-- Node7&#45;&gt;Node2 -->
<g id="edge7_Node000007_Node000002" class="edge">
<title>Node7&#45;&gt;Node2</title>
<g id="a_edge7_Node000007_Node000002"><a xlink:title=" ">
<path fill="none" stroke="#63b8ff" d="M617.18,-1091.92C717.92,-1073.84 868,-1027.58 868,-912.5 868,-912.5 868,-912.5 868,-256 868,-199.32 821.68,-146.13 792.73,-118.42"/>
<polygon fill="#63b8ff" stroke="#63b8ff" points="616.54,-1088.48 607.29,-1093.63 617.74,-1095.37 616.54,-1088.48"/>
</a>
</g>
</g>
<!-- Node8 -->
<g id="Node000008" class="node">
<title>Node8</title>
<g id="a_Node000008"><a xlink:href="PatchApplicator_8h.html" target="_top" xlink:title="Defines the PatchApplicator class responsible for applying patches (moisture, resource,...">
<polygon fill="white" stroke="#666666" points="645,-750.5 463,-750.5 463,-698.5 645,-698.5 645,-750.5"/>
<text text-anchor="start" x="471" y="-738.5" font-family="Helvetica,sans-Serif" font-size="10.00">/home/runner/work/Weaver</text>
<text text-anchor="start" x="471" y="-727.5" font-family="Helvetica,sans-Serif" font-size="10.00">/Weaver/include/App/Model</text>
<text text-anchor="start" x="471" y="-716.5" font-family="Helvetica,sans-Serif" font-size="10.00">/IBM/Landscape/Map/TerrainCells</text>
<text text-anchor="middle" x="554" y="-705.5" font-family="Helvetica,sans-Serif" font-size="10.00">/PatchApplicator/PatchApplicator.h</text>
</a>
</g>
</g>
<!-- Node7&#45;&gt;Node8 -->
<g id="edge8_Node000007_Node000008" class="edge">
<title>Node7&#45;&gt;Node8</title>
<g id="a_edge8_Node000007_Node000008"><a xlink:title=" ">
<path fill="none" stroke="#63b8ff" d="M590.78,-1072.82C638.46,-1046.06 700.52,-1002.07 729,-943 758.64,-881.52 746.36,-843 701,-792 684.9,-773.9 662.89,-760.43 640.81,-750.54"/>
<polygon fill="#63b8ff" stroke="#63b8ff" points="588.83,-1069.89 581.75,-1077.77 592.2,-1076.03 588.83,-1069.89"/>
</a>
</g>
</g>
<!-- Node19 -->
<g id="Node000019" class="node">
<title>Node19</title>
<g id="a_Node000019"><a xlink:href="CellResourceInterface_8h.html" target="_top" xlink:title="Interface for resources in a terrain cell.">
<polygon fill="white" stroke="#666666" points="514.5,-943 299.5,-943 299.5,-880 514.5,-880 514.5,-943"/>
<text text-anchor="start" x="307.5" y="-931" font-family="Helvetica,sans-Serif" font-size="10.00">/home/runner/work/Weaver</text>
<text text-anchor="start" x="307.5" y="-920" font-family="Helvetica,sans-Serif" font-size="10.00">/Weaver/include/App/Model</text>
<text text-anchor="start" x="307.5" y="-909" font-family="Helvetica,sans-Serif" font-size="10.00">/IBM/Landscape/Map/TerrainCells</text>
<text text-anchor="start" x="307.5" y="-898" font-family="Helvetica,sans-Serif" font-size="10.00">/PatchApplicator/Resources/CellResource</text>
<text text-anchor="middle" x="407" y="-887" font-family="Helvetica,sans-Serif" font-size="10.00">Interface.h</text>
</a>
</g>
</g>
<!-- Node7&#45;&gt;Node19 -->
<g id="edge29_Node000007_Node000019" class="edge">
<title>Node7&#45;&gt;Node19</title>
<g id="a_edge29_Node000007_Node000019"><a xlink:title=" ">
<path fill="none" stroke="#63b8ff" d="M530.03,-1067.29C529.84,-1040.93 525.9,-1005.23 509,-979 499.72,-964.61 486.11,-952.67 471.82,-943.06"/>
<polygon fill="#63b8ff" stroke="#63b8ff" points="526.52,-1067.57 529.91,-1077.61 533.52,-1067.65 526.52,-1067.57"/>
</a>
</g>
</g>
<!-- Node22 -->
<g id="Node000022" class="node">
<title>Node22</title>
<g id="a_Node000022"><a xlink:href="CellResourceInterfaceGrowth_8h.html" target="_top" xlink:title="Growth logic for a resource cell, extending EdibleGrowth.">
<polygon fill="white" stroke="#666666" points="500.5,-1042 313.5,-1042 313.5,-979 500.5,-979 500.5,-1042"/>
<text text-anchor="start" x="321.5" y="-1030" font-family="Helvetica,sans-Serif" font-size="10.00">/home/runner/work/Weaver</text>
<text text-anchor="start" x="321.5" y="-1019" font-family="Helvetica,sans-Serif" font-size="10.00">/Weaver/include/App/Model</text>
<text text-anchor="start" x="321.5" y="-1008" font-family="Helvetica,sans-Serif" font-size="10.00">/IBM/Landscape/Map/TerrainCells</text>
<text text-anchor="start" x="321.5" y="-997" font-family="Helvetica,sans-Serif" font-size="10.00">/PatchApplicator/Resources/Growth</text>
<text text-anchor="middle" x="407" y="-986" font-family="Helvetica,sans-Serif" font-size="10.00">/CellResourceInterfaceGrowth.h</text>
</a>
</g>
</g>
<!-- Node7&#45;&gt;Node22 -->
<g id="edge39_Node000007_Node000022" class="edge">
<title>Node7&#45;&gt;Node22</title>
<g id="a_edge39_Node000007_Node000022"><a xlink:title=" ">
<path fill="none" stroke="#63b8ff" d="M486.78,-1071.83C474.04,-1062.2 460.03,-1051.6 447.35,-1042.02"/>
<polygon fill="#63b8ff" stroke="#63b8ff" points="484.85,-1074.76 494.94,-1078 489.07,-1069.17 484.85,-1074.76"/>
</a>
</g>
</g>
<!-- Node9 -->
<g id="Node000009" class="node">
<title>Node9</title>
<g id="a_Node000009"><a xlink:href="SpatialTreePatchApplicator_8h.html" target="_top" xlink:title="Defines the SpatialTreePatchApplicator class for applying patches in a spatial tree of terrain cells.">
<polygon fill="white" stroke="#666666" points="561,-657 387,-657 387,-594 561,-594 561,-657"/>
<text text-anchor="start" x="395" y="-645" font-family="Helvetica,sans-Serif" font-size="10.00">/home/runner/work/Weaver</text>
<text text-anchor="start" x="395" y="-634" font-family="Helvetica,sans-Serif" font-size="10.00">/Weaver/include/App/Model</text>
<text text-anchor="start" x="395" y="-623" font-family="Helvetica,sans-Serif" font-size="10.00">/IBM/Landscape/Map/SpatialTree</text>
<text text-anchor="start" x="395" y="-612" font-family="Helvetica,sans-Serif" font-size="10.00">/TerrainCells/PatchApplicator</text>
<text text-anchor="middle" x="474" y="-601" font-family="Helvetica,sans-Serif" font-size="10.00">/SpatialTreePatchApplicator.h</text>
</a>
</g>
</g>
<!-- Node8&#45;&gt;Node9 -->
<g id="edge9_Node000008_Node000009" class="edge">
<title>Node8&#45;&gt;Node9</title>
<g id="a_edge9_Node000008_Node000009"><a xlink:title=" ">
<path fill="none" stroke="#63b8ff" d="M526.62,-690.31C517.76,-679.56 507.98,-667.69 499.27,-657.14"/>
<polygon fill="#63b8ff" stroke="#63b8ff" points="524.13,-692.78 533.19,-698.27 529.53,-688.33 524.13,-692.78"/>
</a>
</g>
</g>
<!-- Node17 -->
<g id="Node000017" class="node">
<title>Node17</title>
<g id="a_Node000017"><a xlink:href="TerrainCell_8h.html" target="_top" xlink:title="Defines the TerrainCell class representing a cell in the landscape.">
<polygon fill="white" stroke="#666666" points="761.5,-651.5 584.5,-651.5 584.5,-599.5 761.5,-599.5 761.5,-651.5"/>
<text text-anchor="start" x="592.5" y="-639.5" font-family="Helvetica,sans-Serif" font-size="10.00">/home/runner/work/Weaver</text>
<text text-anchor="start" x="592.5" y="-628.5" font-family="Helvetica,sans-Serif" font-size="10.00">/Weaver/include/App/Model</text>
<text text-anchor="start" x="592.5" y="-617.5" font-family="Helvetica,sans-Serif" font-size="10.00">/IBM/Landscape/Map/TerrainCells</text>
<text text-anchor="middle" x="673" y="-606.5" font-family="Helvetica,sans-Serif" font-size="10.00">/TerrainCell.h</text>
</a>
</g>
</g>
<!-- Node8&#45;&gt;Node17 -->
<g id="edge22_Node000008_Node000017" class="edge">
<title>Node8&#45;&gt;Node17</title>
<g id="a_edge22_Node000008_Node000017"><a xlink:title=" ">
<path fill="none" stroke="#63b8ff" d="M593.07,-691.66C609.02,-678.65 627.21,-663.83 642.2,-651.61"/>
<polygon fill="#63b8ff" stroke="#63b8ff" points="590.5,-689.24 584.96,-698.27 594.92,-694.66 590.5,-689.24"/>
</a>
</g>
</g>
<!-- Node10 -->
<g id="Node000010" class="node">
<title>Node10</title>
<g id="a_Node000010"><a xlink:href="BranchPatchApplicator_8h.html" target="_top" xlink:title="Defines the BranchPatchApplicator class for applying patches to branch terrain cells in a spatial tre...">
<polygon fill="white" stroke="#666666" points="241,-558 67,-558 67,-495 241,-495 241,-558"/>
<text text-anchor="start" x="75" y="-546" font-family="Helvetica,sans-Serif" font-size="10.00">/home/runner/work/Weaver</text>
<text text-anchor="start" x="75" y="-535" font-family="Helvetica,sans-Serif" font-size="10.00">/Weaver/include/App/Model</text>
<text text-anchor="start" x="75" y="-524" font-family="Helvetica,sans-Serif" font-size="10.00">/IBM/Landscape/Map/SpatialTree</text>
<text text-anchor="start" x="75" y="-513" font-family="Helvetica,sans-Serif" font-size="10.00">/TerrainCells/PatchApplicator</text>
<text text-anchor="middle" x="154" y="-502" font-family="Helvetica,sans-Serif" font-size="10.00">/BranchPatchApplicator.h</text>
</a>
</g>
</g>
<!-- Node9&#45;&gt;Node10 -->
<g id="edge10_Node000009_Node000010" class="edge">
<title>Node9&#45;&gt;Node10</title>
<g id="a_edge10_Node000009_Node000010"><a xlink:title=" ">
<path fill="none" stroke="#63b8ff" d="M377.29,-596.23C337.77,-584.56 291.64,-570.8 250,-558 247.07,-557.1 244.1,-556.18 241.1,-555.25"/>
<polygon fill="#63b8ff" stroke="#63b8ff" points="376.34,-599.6 386.92,-599.07 378.32,-592.88 376.34,-599.6"/>
</a>
</g>
</g>
<!-- Node14 -->
<g id="Node000014" class="node">
<title>Node14</title>
<g id="a_Node000014"><a xlink:href="LeafPatchApplicator_8h.html" target="_top" xlink:title="Defines the LeafPatchApplicator class for applying patches to leaf terrain cells in a spatial tree.">
<polygon fill="white" stroke="#666666" points="433,-558 259,-558 259,-495 433,-495 433,-558"/>
<text text-anchor="start" x="267" y="-546" font-family="Helvetica,sans-Serif" font-size="10.00">/home/runner/work/Weaver</text>
<text text-anchor="start" x="267" y="-535" font-family="Helvetica,sans-Serif" font-size="10.00">/Weaver/include/App/Model</text>
<text text-anchor="start" x="267" y="-524" font-family="Helvetica,sans-Serif" font-size="10.00">/IBM/Landscape/Map/SpatialTree</text>
<text text-anchor="start" x="267" y="-513" font-family="Helvetica,sans-Serif" font-size="10.00">/TerrainCells/PatchApplicator</text>
<text text-anchor="middle" x="346" y="-502" font-family="Helvetica,sans-Serif" font-size="10.00">/LeafPatchApplicator.h</text>
</a>
</g>
</g>
<!-- Node9&#45;&gt;Node14 -->
<g id="edge15_Node000009_Node000014" class="edge">
<title>Node9&#45;&gt;Node14</title>
<g id="a_edge15_Node000009_Node000014"><a xlink:title=" ">
<path fill="none" stroke="#63b8ff" d="M425.28,-587.58C412.54,-577.92 398.95,-567.62 386.68,-558.32"/>
<polygon fill="#63b8ff" stroke="#63b8ff" points="423.42,-590.56 433.5,-593.81 427.64,-584.98 423.42,-590.56"/>
</a>
</g>
</g>
<!-- Node16 -->
<g id="Node000016" class="node">
<title>Node16</title>
<g id="a_Node000016"><a xlink:href="SpatialTreeTerrainCell_8h.html" target="_top" xlink:title="Spatial tree implementation of a terrain cell.">
<polygon fill="white" stroke="#666666" points="645,-552.5 451,-552.5 451,-500.5 645,-500.5 645,-552.5"/>
<text text-anchor="start" x="459" y="-540.5" font-family="Helvetica,sans-Serif" font-size="10.00">/home/runner/work/Weaver</text>
<text text-anchor="start" x="459" y="-529.5" font-family="Helvetica,sans-Serif" font-size="10.00">/Weaver/include/App/Model</text>
<text text-anchor="start" x="459" y="-518.5" font-family="Helvetica,sans-Serif" font-size="10.00">/IBM/Landscape/Map/SpatialTree</text>
<text text-anchor="middle" x="548" y="-507.5" font-family="Helvetica,sans-Serif" font-size="10.00">/TerrainCells/SpatialTreeTerrainCell.h</text>
</a>
</g>
</g>
<!-- Node9&#45;&gt;Node16 -->
<g id="edge18_Node000009_Node000016" class="edge">
<title>Node9&#45;&gt;Node16</title>
<g id="a_edge18_Node000009_Node000016"><a xlink:title=" ">
<path fill="none" stroke="#63b8ff" d="M503.72,-585.55C512.13,-574.51 521.08,-562.79 528.7,-552.8"/>
<polygon fill="#63b8ff" stroke="#63b8ff" points="500.7,-583.74 497.41,-593.81 506.26,-587.98 500.7,-583.74"/>
</a>
</g>
</g>
<!-- Node11 -->
<g id="Node000011" class="node">
<title>Node11</title>
<g id="a_Node000011"><a xlink:href="BranchTerrainCell_8h.html" target="_top" xlink:title="Branch node implementation of a spatial tree terrain cell.">
<polygon fill="white" stroke="#666666" points="445,-371 271,-371 271,-319 445,-319 445,-371"/>
<text text-anchor="start" x="279" y="-359" font-family="Helvetica,sans-Serif" font-size="10.00">/home/runner/work/Weaver</text>
<text text-anchor="start" x="279" y="-348" font-family="Helvetica,sans-Serif" font-size="10.00">/Weaver/include/App/Model</text>
<text text-anchor="start" x="279" y="-337" font-family="Helvetica,sans-Serif" font-size="10.00">/IBM/Landscape/Map/SpatialTree</text>
<text text-anchor="middle" x="358" y="-326" font-family="Helvetica,sans-Serif" font-size="10.00">/TerrainCells/BranchTerrainCell.h</text>
</a>
</g>
</g>
<!-- Node10&#45;&gt;Node11 -->
<g id="edge11_Node000010_Node000011" class="edge">
<title>Node10&#45;&gt;Node11</title>
<g id="a_edge11_Node000010_Node000011"><a xlink:title=" ">
<path fill="none" stroke="#63b8ff" d="M184.61,-486.94C205.06,-462.49 233.38,-431.05 262,-407 277.72,-393.79 296.51,-381.24 313.29,-371"/>
<polygon fill="#63b8ff" stroke="#63b8ff" points="181.66,-485 177.98,-494.94 187.05,-489.47 181.66,-485"/>
</a>
</g>
</g>
<!-- Node12 -->
<g id="Node000012" class="node">
<title>Node12</title>
<g id="a_Node000012"><a xlink:href="RootTerrainCell_8h.html" target="_top" xlink:title="Defines the RootTerrainCell class, the top&#45;level node of the spatial tree in the landscape.">
<polygon fill="white" stroke="#666666" points="477,-283 303,-283 303,-231 477,-231 477,-283"/>
<text text-anchor="start" x="311" y="-271" font-family="Helvetica,sans-Serif" font-size="10.00">/home/runner/work/Weaver</text>
<text text-anchor="start" x="311" y="-260" font-family="Helvetica,sans-Serif" font-size="10.00">/Weaver/include/App/Model</text>
<text text-anchor="start" x="311" y="-249" font-family="Helvetica,sans-Serif" font-size="10.00">/IBM/Landscape/Map/SpatialTree</text>
<text text-anchor="middle" x="390" y="-238" font-family="Helvetica,sans-Serif" font-size="10.00">/TerrainCells/RootTerrainCell.h</text>
</a>
</g>
</g>
<!-- Node11&#45;&gt;Node12 -->
<g id="edge12_Node000011_Node000012" class="edge">
<title>Node11&#45;&gt;Node12</title>
<g id="a_edge12_Node000011_Node000012"><a xlink:title=" ">
<path fill="none" stroke="#63b8ff" d="M370.98,-309.12C374.21,-300.43 377.62,-291.28 380.64,-283.16"/>
<polygon fill="#63b8ff" stroke="#63b8ff" points="367.64,-308.07 367.43,-318.66 374.2,-310.51 367.64,-308.07"/>
</a>
</g>
</g>
<!-- Node13 -->
<g id="Node000013" class="node">
<title>Node13</title>
<g id="a_Node000013"><a xlink:href="SpatialTree_8h.html" target="_top" xlink:title="Defines the SpatialTree class, a spatially subdivided map implementation.">
<polygon fill="white" stroke="#666666" points="677.5,-195 494.5,-195 494.5,-154 677.5,-154 677.5,-195"/>
<text text-anchor="start" x="502.5" y="-183" font-family="Helvetica,sans-Serif" font-size="10.00">/home/runner/work/Weaver</text>
<text text-anchor="start" x="502.5" y="-172" font-family="Helvetica,sans-Serif" font-size="10.00">/Weaver/include/App/Model</text>
<text text-anchor="middle" x="586" y="-161" font-family="Helvetica,sans-Serif" font-size="10.00">/IBM/Landscape/Map/SpatialTree.h</text>
</a>
</g>
</g>
<!-- Node12&#45;&gt;Node13 -->
<g id="edge13_Node000012_Node000013" class="edge">
<title>Node12&#45;&gt;Node13</title>
<g id="a_edge13_Node000012_Node000013"><a xlink:title=" ">
<path fill="none" stroke="#63b8ff" d="M460.35,-227.1C486.29,-216.45 515.04,-204.65 538.48,-195.02"/>
<polygon fill="#63b8ff" stroke="#63b8ff" points="458.86,-223.93 450.94,-230.97 461.52,-230.41 458.86,-223.93"/>
</a>
</g>
</g>
<!-- Node13&#45;&gt;Node2 -->
<g id="edge14_Node000013_Node000002" class="edge">
<title>Node13&#45;&gt;Node2</title>
<g id="a_edge14_Node000013_Node000002"><a xlink:title=" ">
<path fill="none" stroke="#63b8ff" d="M643.33,-150.13C668.6,-139.83 697.97,-127.86 722.06,-118.04"/>
<polygon fill="#63b8ff" stroke="#63b8ff" points="641.8,-146.97 633.86,-153.99 644.44,-153.46 641.8,-146.97"/>
</a>
</g>
</g>
<!-- Node15 -->
<g id="Node000015" class="node">
<title>Node15</title>
<g id="a_Node000015"><a xlink:href="LeafTerrainCell_8h.html" target="_top" xlink:title="Leaf node implementation of a spatial tree terrain cell.">
<polygon fill="white" stroke="#666666" points="445,-459 271,-459 271,-407 445,-407 445,-459"/>
<text text-anchor="start" x="279" y="-447" font-family="Helvetica,sans-Serif" font-size="10.00">/home/runner/work/Weaver</text>
<text text-anchor="start" x="279" y="-436" font-family="Helvetica,sans-Serif" font-size="10.00">/Weaver/include/App/Model</text>
<text text-anchor="start" x="279" y="-425" font-family="Helvetica,sans-Serif" font-size="10.00">/IBM/Landscape/Map/SpatialTree</text>
<text text-anchor="middle" x="358" y="-414" font-family="Helvetica,sans-Serif" font-size="10.00">/TerrainCells/LeafTerrainCell.h</text>
</a>
</g>
</g>
<!-- Node14&#45;&gt;Node15 -->
<g id="edge16_Node000014_Node000015" class="edge">
<title>Node14&#45;&gt;Node15</title>
<g id="a_edge16_Node000014_Node000015"><a xlink:title=" ">
<path fill="none" stroke="#63b8ff" d="M351.35,-484.7C352.5,-475.95 353.68,-466.96 354.72,-459.02"/>
<polygon fill="#63b8ff" stroke="#63b8ff" points="347.86,-484.41 350.03,-494.78 354.8,-485.32 347.86,-484.41"/>
</a>
</g>
</g>
<!-- Node15&#45;&gt;Node11 -->
<g id="edge17_Node000015_Node000011" class="edge">
<title>Node15&#45;&gt;Node11</title>
<g id="a_edge17_Node000015_Node000011"><a xlink:title=" ">
<path fill="none" stroke="#63b8ff" d="M358,-396.56C358,-388.04 358,-379.1 358,-371.16"/>
<polygon fill="#63b8ff" stroke="#63b8ff" points="354.5,-396.66 358,-406.66 361.5,-396.66 354.5,-396.66"/>
</a>
</g>
</g>
<!-- Node16&#45;&gt;Node11 -->
<g id="edge20_Node000016_Node000011" class="edge">
<title>Node16&#45;&gt;Node11</title>
<g id="a_edge20_Node000016_Node000011"><a xlink:title=" ">
<path fill="none" stroke="#63b8ff" d="M525.91,-491.84C508.34,-466.65 482.1,-432.31 454,-407 439.03,-393.52 420.75,-381.1 404.18,-371.03"/>
<polygon fill="#63b8ff" stroke="#63b8ff" points="523.2,-494.09 531.75,-500.34 528.97,-490.12 523.2,-494.09"/>
</a>
</g>
</g>
<!-- Node16&#45;&gt;Node13 -->
<g id="edge19_Node000016_Node000013" class="edge">
<title>Node16&#45;&gt;Node13</title>
<g id="a_edge19_Node000016_Node000013"><a xlink:title=" ">
<path fill="none" stroke="#63b8ff" d="M548.99,-490.08C550.97,-434.54 556.64,-323.71 572,-231 574,-218.94 577.31,-205.66 580.21,-195.11"/>
<polygon fill="#63b8ff" stroke="#63b8ff" points="545.49,-490 548.65,-500.11 552.49,-490.24 545.49,-490"/>
</a>
</g>
</g>
<!-- Node16&#45;&gt;Node15 -->
<g id="edge21_Node000016_Node000015" class="edge">
<title>Node16&#45;&gt;Node15</title>
<g id="a_edge21_Node000016_Node000015"><a xlink:title=" ">
<path fill="none" stroke="#63b8ff" d="M486.8,-496.03C462.1,-484.13 433.89,-470.55 410.19,-459.13"/>
<polygon fill="#63b8ff" stroke="#63b8ff" points="485.55,-499.31 496.08,-500.5 488.59,-493 485.55,-499.31"/>
</a>
</g>
</g>
<!-- Node17&#45;&gt;Node2 -->
<g id="edge23_Node000017_Node000002" class="edge">
<title>Node17&#45;&gt;Node2</title>
<g id="a_edge23_Node000017_Node000002"><a xlink:title=" ">
<path fill="none" stroke="#63b8ff" d="M709.06,-592.15C744.08,-557.01 792,-497.35 792,-434 792,-434 792,-434 792,-256 792,-206.03 781,-147.99 774.56,-118.27"/>
<polygon fill="#63b8ff" stroke="#63b8ff" points="706.49,-589.77 701.81,-599.27 711.4,-594.76 706.49,-589.77"/>
</a>
</g>
</g>
<!-- Node17&#45;&gt;Node13 -->
<g id="edge27_Node000017_Node000013" class="edge">
<title>Node17&#45;&gt;Node13</title>
<g id="a_edge27_Node000017_Node000013"><a xlink:title=" ">
<path fill="none" stroke="#63b8ff" d="M668.57,-588.92C665.14,-562.83 659.96,-526.6 654,-495 636.08,-399.97 624.31,-377.76 605,-283 598.79,-252.54 592.74,-216.99 589.19,-195.37"/>
<polygon fill="#63b8ff" stroke="#63b8ff" points="665.14,-589.62 669.89,-599.09 672.08,-588.72 665.14,-589.62"/>
</a>
</g>
</g>
<!-- Node17&#45;&gt;Node16 -->
<g id="edge28_Node000017_Node000016" class="edge">
<title>Node17&#45;&gt;Node16</title>
<g id="a_edge28_Node000017_Node000016"><a xlink:title=" ">
<path fill="none" stroke="#63b8ff" d="M632.42,-593.01C615.55,-579.92 596.24,-564.94 580.35,-552.61"/>
<polygon fill="#63b8ff" stroke="#63b8ff" points="630.44,-595.9 640.48,-599.27 634.73,-590.37 630.44,-595.9"/>
</a>
</g>
</g>
<!-- Node18 -->
<g id="Node000018" class="node">
<title>Node18</title>
<g id="a_Node000018"><a xlink:href="Map_8h.html" target="_top" xlink:title="Defines the Map class for spatial organization of landscapes.">
<polygon fill="white" stroke="#666666" points="764,-277.5 614,-277.5 614,-236.5 764,-236.5 764,-277.5"/>
<text text-anchor="start" x="622" y="-265.5" font-family="Helvetica,sans-Serif" font-size="10.00">/home/runner/work/Weaver</text>
<text text-anchor="start" x="622" y="-254.5" font-family="Helvetica,sans-Serif" font-size="10.00">/Weaver/include/App/Model</text>
<text text-anchor="middle" x="689" y="-243.5" font-family="Helvetica,sans-Serif" font-size="10.00">/IBM/Landscape/Map/Map.h</text>
</a>
</g>
</g>
<!-- Node17&#45;&gt;Node18 -->
<g id="edge24_Node000017_Node000018" class="edge">
<title>Node17&#45;&gt;Node18</title>
<g id="a_edge24_Node000017_Node000018"><a xlink:title=" ">
<path fill="none" stroke="#63b8ff" d="M681.77,-589.36C683.91,-579.3 685.9,-568.27 687,-558 698.3,-452.87 692.94,-325.83 690.23,-277.73"/>
<polygon fill="#63b8ff" stroke="#63b8ff" points="678.29,-588.91 679.52,-599.43 685.12,-590.43 678.29,-588.91"/>
</a>
</g>
</g>
<!-- Node18&#45;&gt;Node2 -->
<g id="edge25_Node000018_Node000002" class="edge">
<title>Node18&#45;&gt;Node2</title>
<g id="a_edge25_Node000018_Node000002"><a xlink:title=" ">
<path fill="none" stroke="#63b8ff" d="M703.81,-227.21C720.04,-195.65 745.64,-145.86 759.78,-118.38"/>
<polygon fill="#63b8ff" stroke="#63b8ff" points="700.56,-225.88 699.09,-236.37 706.78,-229.08 700.56,-225.88"/>
</a>
</g>
</g>
<!-- Node18&#45;&gt;Node13 -->
<g id="edge26_Node000018_Node000013" class="edge">
<title>Node18&#45;&gt;Node13</title>
<g id="a_edge26_Node000018_Node000013"><a xlink:title=" ">
<path fill="none" stroke="#63b8ff" d="M655.62,-229.91C641.22,-218.65 624.65,-205.71 611.29,-195.27"/>
<polygon fill="#63b8ff" stroke="#63b8ff" points="653.77,-232.91 663.8,-236.31 658.08,-227.39 653.77,-232.91"/>
</a>
</g>
</g>
<!-- Node19&#45;&gt;Node8 -->
<g id="edge33_Node000019_Node000008" class="edge">
<title>Node19&#45;&gt;Node8</title>
<g id="a_edge33_Node000019_Node000008"><a xlink:title=" ">
<path fill="none" stroke="#63b8ff" d="M418.58,-870.08C426.99,-845.64 440.22,-814.9 459,-792 472.4,-775.65 490.79,-761.53 507.82,-750.55"/>
<polygon fill="#63b8ff" stroke="#63b8ff" points="415.19,-869.19 415.37,-879.78 421.83,-871.38 415.19,-869.19"/>
</a>
</g>
</g>
<!-- Node20 -->
<g id="Node000020" class="node">
<title>Node20</title>
<g id="a_Node000020"><a xlink:href="BranchCellResource_8h.html" target="_top" xlink:title="Defines the BranchCellResource class for managing resources in branch terrain cells.">
<polygon fill="white" stroke="#666666" points="243.5,-756 64.5,-756 64.5,-693 243.5,-693 243.5,-756"/>
<text text-anchor="start" x="72.5" y="-744" font-family="Helvetica,sans-Serif" font-size="10.00">/home/runner/work/Weaver</text>
<text text-anchor="start" x="72.5" y="-733" font-family="Helvetica,sans-Serif" font-size="10.00">/Weaver/include/App/Model</text>
<text text-anchor="start" x="72.5" y="-722" font-family="Helvetica,sans-Serif" font-size="10.00">/IBM/Landscape/Map/SpatialTree</text>
<text text-anchor="start" x="72.5" y="-711" font-family="Helvetica,sans-Serif" font-size="10.00">/TerrainCells/PatchApplicator</text>
<text text-anchor="middle" x="154" y="-700" font-family="Helvetica,sans-Serif" font-size="10.00">/Resources/BranchCellResource.h</text>
</a>
</g>
</g>
<!-- Node19&#45;&gt;Node20 -->
<g id="edge30_Node000019_Node000020" class="edge">
<title>Node19&#45;&gt;Node20</title>
<g id="a_edge30_Node000019_Node000020"><a xlink:title=" ">
<path fill="none" stroke="#63b8ff" d="M356.99,-873.93C309.87,-839.48 240.09,-788.45 195.84,-756.09"/>
<polygon fill="#63b8ff" stroke="#63b8ff" points="355.08,-876.87 365.22,-879.95 359.22,-871.22 355.08,-876.87"/>
</a>
</g>
</g>
<!-- Node21 -->
<g id="Node000021" class="node">
<title>Node21</title>
<g id="a_Node000021"><a xlink:href="CellResource_8h.html" target="_top" xlink:title="Implementation of a resource cell in a terrain.">
<polygon fill="white" stroke="#666666" points="692,-844 468,-844 468,-792 692,-792 692,-844"/>
<text text-anchor="start" x="476" y="-832" font-family="Helvetica,sans-Serif" font-size="10.00">/home/runner/work/Weaver</text>
<text text-anchor="start" x="476" y="-821" font-family="Helvetica,sans-Serif" font-size="10.00">/Weaver/include/App/Model</text>
<text text-anchor="start" x="476" y="-810" font-family="Helvetica,sans-Serif" font-size="10.00">/IBM/Landscape/Map/TerrainCells</text>
<text text-anchor="middle" x="580" y="-799" font-family="Helvetica,sans-Serif" font-size="10.00">/PatchApplicator/Resources/CellResource.h</text>
</a>
</g>
</g>
<!-- Node19&#45;&gt;Node21 -->
<g id="edge34_Node000019_Node000021" class="edge">
<title>Node19&#45;&gt;Node21</title>
<g id="a_edge34_Node000019_Node000021"><a xlink:title=" ">
<path fill="none" stroke="#63b8ff" d="M473.98,-875.07C493.58,-864.71 514.59,-853.59 532.7,-844.02"/>
<polygon fill="#63b8ff" stroke="#63b8ff" points="472.29,-872.01 465.09,-879.78 475.56,-878.2 472.29,-872.01"/>
</a>
</g>
</g>
<!-- Node20&#45;&gt;Node10 -->
<g id="edge32_Node000020_Node000010" class="edge">
<title>Node20&#45;&gt;Node10</title>
<g id="a_edge32_Node000020_Node000010"><a xlink:title=" ">
<path fill="none" stroke="#63b8ff" d="M154,-682.42C154,-645.37 154,-591.69 154,-558.23"/>
<polygon fill="#63b8ff" stroke="#63b8ff" points="150.5,-682.87 154,-692.88 157.5,-682.88 150.5,-682.87"/>
</a>
</g>
</g>
<!-- Node20&#45;&gt;Node11 -->
<g id="edge31_Node000020_Node000011" class="edge">
<title>Node20&#45;&gt;Node11</title>
<g id="a_edge31_Node000020_Node000011"><a xlink:title=" ">
<path fill="none" stroke="#63b8ff" d="M116.58,-685.08C76.01,-638.56 21.61,-558.53 58,-495 101.79,-418.55 198.81,-380.4 270.73,-362"/>
<polygon fill="#63b8ff" stroke="#63b8ff" points="114.2,-687.67 123.46,-692.81 119.43,-683.02 114.2,-687.67"/>
</a>
</g>
</g>
<!-- Node21&#45;&gt;Node2 -->
<g id="edge35_Node000021_Node000002" class="edge">
<title>Node21&#45;&gt;Node2</title>
<g id="a_edge35_Node000021_Node000002"><a xlink:title=" ">
<path fill="none" stroke="#63b8ff" d="M673.07,-788.17C744.15,-759.7 830,-708.36 830,-626.5 830,-626.5 830,-626.5 830,-256 830,-203.62 800.67,-147.49 783.02,-118.46"/>
<polygon fill="#63b8ff" stroke="#63b8ff" points="671.64,-784.97 663.59,-791.87 674.18,-791.5 671.64,-784.97"/>
</a>
</g>
</g>
<!-- Node21&#45;&gt;Node8 -->
<g id="edge37_Node000021_Node000008" class="edge">
<title>Node21&#45;&gt;Node8</title>
<g id="a_edge37_Node000021_Node000008"><a xlink:title=" ">
<path fill="none" stroke="#63b8ff" d="M570.14,-782.29C567.16,-771.82 563.95,-760.53 561.19,-750.79"/>
<polygon fill="#63b8ff" stroke="#63b8ff" points="566.8,-783.33 572.9,-792 573.53,-781.42 566.8,-783.33"/>
</a>
</g>
</g>
<!-- Node21&#45;&gt;Node14 -->
<g id="edge36_Node000021_Node000014" class="edge">
<title>Node21&#45;&gt;Node14</title>
<g id="a_edge36_Node000021_Node000014"><a xlink:title=" ">
<path fill="none" stroke="#63b8ff" d="M504.63,-787.57C487.05,-778.85 469.08,-768.29 454,-756 410.99,-720.97 402.05,-706.98 378,-657 362.64,-625.07 354.21,-585.05 349.91,-558.02"/>
<polygon fill="#63b8ff" stroke="#63b8ff" points="503.24,-790.79 513.77,-791.97 506.27,-784.48 503.24,-790.79"/>
</a>
</g>
</g>
<!-- Node21&#45;&gt;Node17 -->
<g id="edge38_Node000021_Node000017" class="edge">
<title>Node21&#45;&gt;Node17</title>
<g id="a_edge38_Node000021_Node000017"><a xlink:title=" ">
<path fill="none" stroke="#63b8ff" d="M628.88,-785.46C638.61,-777.01 647.74,-767.1 654,-756 672.42,-723.34 674.99,-678.99 674.49,-651.58"/>
<polygon fill="#63b8ff" stroke="#63b8ff" points="626.52,-782.87 621,-791.92 630.95,-788.29 626.52,-782.87"/>
</a>
</g>
</g>
<!-- Node22&#45;&gt;Node19 -->
<g id="edge42_Node000022_Node000019" class="edge">
<title>Node22&#45;&gt;Node19</title>
<g id="a_edge42_Node000022_Node000019"><a xlink:title=" ">
<path fill="none" stroke="#63b8ff" d="M407,-968.69C407,-960.2 407,-951.38 407,-943.32"/>
<polygon fill="#63b8ff" stroke="#63b8ff" points="403.5,-968.81 407,-978.81 410.5,-968.81 403.5,-968.81"/>
</a>
</g>
</g>
<!-- Node23 -->
<g id="Node000023" class="node">
<title>Node23</title>
<g id="a_Node000023"><a xlink:href="BranchCellResourceGrowth_8h.html" target="_top" xlink:title="Defines the BranchCellResourceGrowth class for aggregating resource growth in branch terrain cells.">
<polygon fill="white" stroke="#666666" points="281.5,-943 28.5,-943 28.5,-880 281.5,-880 281.5,-943"/>
<text text-anchor="start" x="36.5" y="-931" font-family="Helvetica,sans-Serif" font-size="10.00">/home/runner/work/Weaver</text>
<text text-anchor="start" x="36.5" y="-920" font-family="Helvetica,sans-Serif" font-size="10.00">/Weaver/include/App/Model</text>
<text text-anchor="start" x="36.5" y="-909" font-family="Helvetica,sans-Serif" font-size="10.00">/IBM/Landscape/Map/SpatialTree</text>
<text text-anchor="start" x="36.5" y="-898" font-family="Helvetica,sans-Serif" font-size="10.00">/TerrainCells/PatchApplicator</text>
<text text-anchor="middle" x="155" y="-887" font-family="Helvetica,sans-Serif" font-size="10.00">/Resources/Growth/BranchCellResourceGrowth.h</text>
</a>
</g>
</g>
<!-- Node22&#45;&gt;Node23 -->
<g id="edge40_Node000022_Node000023" class="edge">
<title>Node22&#45;&gt;Node23</title>
<g id="a_edge40_Node000022_Node000023"><a xlink:title=" ">
<path fill="none" stroke="#63b8ff" d="M318.08,-975.27C290.82,-964.78 261.01,-953.31 234.42,-943.07"/>
<polygon fill="#63b8ff" stroke="#63b8ff" points="317.02,-978.62 327.61,-978.94 319.54,-972.08 317.02,-978.62"/>
</a>
</g>
</g>
<!-- Node24 -->
<g id="Node000024" class="node">
<title>Node24</title>
<g id="a_Node000024"><a xlink:href="CellResourceGrowth_8h.html" target="_top" xlink:title="Concrete implementation of resource growth for a terrain cell.">
<polygon fill="white" stroke="#666666" points="719.5,-943 532.5,-943 532.5,-880 719.5,-880 719.5,-943"/>
<text text-anchor="start" x="540.5" y="-931" font-family="Helvetica,sans-Serif" font-size="10.00">/home/runner/work/Weaver</text>
<text text-anchor="start" x="540.5" y="-920" font-family="Helvetica,sans-Serif" font-size="10.00">/Weaver/include/App/Model</text>
<text text-anchor="start" x="540.5" y="-909" font-family="Helvetica,sans-Serif" font-size="10.00">/IBM/Landscape/Map/TerrainCells</text>
<text text-anchor="start" x="540.5" y="-898" font-family="Helvetica,sans-Serif" font-size="10.00">/PatchApplicator/Resources/Growth</text>
<text text-anchor="middle" x="626" y="-887" font-family="Helvetica,sans-Serif" font-size="10.00">/CellResourceGrowth.h</text>
</a>
</g>
</g>
<!-- Node22&#45;&gt;Node24 -->
<g id="edge43_Node000022_Node000024" class="edge">
<title>Node22&#45;&gt;Node24</title>
<g id="a_edge43_Node000022_Node000024"><a xlink:title=" ">
<path fill="none" stroke="#63b8ff" d="M485.21,-974.86C508.65,-964.48 534.17,-953.17 556.98,-943.07"/>
<polygon fill="#63b8ff" stroke="#63b8ff" points="483.72,-971.69 475.99,-978.94 486.55,-978.09 483.72,-971.69"/>
</a>
</g>
</g>
<!-- Node23&#45;&gt;Node20 -->
<g id="edge41_Node000023_Node000020" class="edge">
<title>Node23&#45;&gt;Node20</title>
<g id="a_edge41_Node000023_Node000020"><a xlink:title=" ">
<path fill="none" stroke="#63b8ff" d="M154.78,-869.79C154.59,-835.49 154.33,-787.18 154.17,-756.09"/>
<polygon fill="#63b8ff" stroke="#63b8ff" points="151.28,-869.97 154.83,-879.95 158.28,-869.93 151.28,-869.97"/>
</a>
</g>
</g>
<!-- Node24&#45;&gt;Node21 -->
<g id="edge44_Node000024_Node000021" class="edge">
<title>Node24&#45;&gt;Node21</title>
<g id="a_edge44_Node000024_Node000021"><a xlink:title=" ">
<path fill="none" stroke="#63b8ff" d="M606.06,-870.84C601.48,-861.73 596.74,-852.3 592.58,-844.02"/>
<polygon fill="#63b8ff" stroke="#63b8ff" points="602.94,-872.41 610.55,-879.78 609.19,-869.27 602.94,-872.41"/>
</a>
</g>
</g>
</g>
</svg>
