<?xml version="1.0" encoding="UTF-8" standalone="no"?>
<!DOCTYPE svg PUBLIC "-//W3C//DTD SVG 1.1//EN"
 "http://www.w3.org/Graphics/SVG/1.1/DTD/svg11.dtd">
<!-- Generated by graphviz version 2.43.0 (0)
 -->
<!-- Title: /home/runner/work/Weaver/Weaver/include/App/Model/IBM/Landscape/LivingBeings/Animals/Species/Genetics/Traits/TemperatureSection/PawarTraitTemperatureSection.h Pages: 1 -->
<svg width="1588pt" height="181pt"
 viewBox="0.00 0.00 1588.00 181.00" xmlns="http://www.w3.org/2000/svg" xmlns:xlink="http://www.w3.org/1999/xlink">
<g id="graph0" class="graph" transform="scale(1 1) rotate(0) translate(4 177)">
<title>/home/runner/work/Weaver/Weaver/include/App/Model/IBM/Landscape/LivingBeings/Animals/Species/Genetics/Traits/TemperatureSection/PawarTraitTemperatureSection.h</title>
<!-- Node1 -->
<g id="Node000001" class="node">
<title>Node1</title>
<g id="a_Node000001"><a xlink:title="Defines the PawarTraitTemperatureSection class, handling Pawar metabolic model traits with temperatur...">
<polygon fill="#999999" stroke="#666666" points="918.5,-173 686.5,-173 686.5,-99 918.5,-99 918.5,-173"/>
<text text-anchor="start" x="694.5" y="-161" font-family="Helvetica,sans-Serif" font-size="10.00">/home/runner/work/Weaver</text>
<text text-anchor="start" x="694.5" y="-150" font-family="Helvetica,sans-Serif" font-size="10.00">/Weaver/include/App/Model</text>
<text text-anchor="start" x="694.5" y="-139" font-family="Helvetica,sans-Serif" font-size="10.00">/IBM/Landscape/LivingBeings</text>
<text text-anchor="start" x="694.5" y="-128" font-family="Helvetica,sans-Serif" font-size="10.00">/Animals/Species/Genetics/Traits</text>
<text text-anchor="start" x="694.5" y="-117" font-family="Helvetica,sans-Serif" font-size="10.00">/TemperatureSection/PawarTraitTemperature</text>
<text text-anchor="middle" x="802.5" y="-106" font-family="Helvetica,sans-Serif" font-size="10.00">Section.h</text>
</a>
</g>
</g>
<!-- Node2 -->
<g id="Node000002" class="node">
<title>Node2</title>
<g id="a_Node000002"><a xlink:href="PawarIndividualTraitTemperatureSection_8h.html" target="_top" xlink:title="Defines the PawarIndividualTraitTemperatureSection class for temperature&#45;dependent trait modification...">
<polygon fill="white" stroke="#666666" points="215,-63 0,-63 0,0 215,0 215,-63"/>
<text text-anchor="start" x="8" y="-51" font-family="Helvetica,sans-Serif" font-size="10.00">/home/runner/work/Weaver</text>
<text text-anchor="start" x="8" y="-40" font-family="Helvetica,sans-Serif" font-size="10.00">/Weaver/include/App/Model</text>
<text text-anchor="start" x="8" y="-29" font-family="Helvetica,sans-Serif" font-size="10.00">/IBM/Landscape/LivingBeings</text>
<text text-anchor="start" x="8" y="-18" font-family="Helvetica,sans-Serif" font-size="10.00">/Animals/Genetics/Traits/PawarIndividual</text>
<text text-anchor="middle" x="107.5" y="-7" font-family="Helvetica,sans-Serif" font-size="10.00">TraitTemperatureSection.h</text>
</a>
</g>
</g>
<!-- Node1&#45;&gt;Node2 -->
<g id="edge1_Node000001_Node000002" class="edge">
<title>Node1&#45;&gt;Node2</title>
<g id="a_edge1_Node000001_Node000002"><a xlink:title=" ">
<path fill="none" stroke="#63b8ff" d="M676.3,-124.2C558.49,-112.96 378.14,-92.81 223.5,-63 220.74,-62.47 217.95,-61.91 215.14,-61.32"/>
<polygon fill="#63b8ff" stroke="#63b8ff" points="676.15,-127.7 686.44,-125.16 676.81,-120.73 676.15,-127.7"/>
</a>
</g>
</g>
<!-- Node3 -->
<g id="Node000003" class="node">
<title>Node3</title>
<g id="a_Node000003"><a xlink:href="BaseTrait_8h.html" target="_top" xlink:title="Defines the BaseTrait class, representing fundamental traits in the simulation.">
<polygon fill="white" stroke="#666666" points="408,-63 233,-63 233,0 408,0 408,-63"/>
<text text-anchor="start" x="241" y="-51" font-family="Helvetica,sans-Serif" font-size="10.00">/home/runner/work/Weaver</text>
<text text-anchor="start" x="241" y="-40" font-family="Helvetica,sans-Serif" font-size="10.00">/Weaver/include/App/Model</text>
<text text-anchor="start" x="241" y="-29" font-family="Helvetica,sans-Serif" font-size="10.00">/IBM/Landscape/LivingBeings</text>
<text text-anchor="start" x="241" y="-18" font-family="Helvetica,sans-Serif" font-size="10.00">/Animals/Species/Genetics/Traits</text>
<text text-anchor="middle" x="320.5" y="-7" font-family="Helvetica,sans-Serif" font-size="10.00">/BaseTrait.h</text>
</a>
</g>
</g>
<!-- Node1&#45;&gt;Node3 -->
<g id="edge2_Node000001_Node000003" class="edge">
<title>Node1&#45;&gt;Node3</title>
<g id="a_edge2_Node000001_Node000003"><a xlink:title=" ">
<path fill="none" stroke="#63b8ff" d="M676.34,-115.5C600.52,-102.79 502.4,-84.57 416.5,-63 413.7,-62.3 410.86,-61.56 408.01,-60.79"/>
<polygon fill="#63b8ff" stroke="#63b8ff" points="675.98,-118.99 686.42,-117.18 677.13,-112.09 675.98,-118.99"/>
</a>
</g>
</g>
<!-- Node4 -->
<g id="Node000004" class="node">
<title>Node4</title>
<g id="a_Node000004"><a xlink:href="CellValueTrait_8h.html" target="_top" xlink:title="Defines the CellValueTrait class, representing traits related to cell values in the simulation.">
<polygon fill="white" stroke="#666666" points="601,-63 426,-63 426,0 601,0 601,-63"/>
<text text-anchor="start" x="434" y="-51" font-family="Helvetica,sans-Serif" font-size="10.00">/home/runner/work/Weaver</text>
<text text-anchor="start" x="434" y="-40" font-family="Helvetica,sans-Serif" font-size="10.00">/Weaver/include/App/Model</text>
<text text-anchor="start" x="434" y="-29" font-family="Helvetica,sans-Serif" font-size="10.00">/IBM/Landscape/LivingBeings</text>
<text text-anchor="start" x="434" y="-18" font-family="Helvetica,sans-Serif" font-size="10.00">/Animals/Species/Genetics/Traits</text>
<text text-anchor="middle" x="513.5" y="-7" font-family="Helvetica,sans-Serif" font-size="10.00">/CellValueTrait.h</text>
</a>
</g>
</g>
<!-- Node1&#45;&gt;Node4 -->
<g id="edge3_Node000001_Node000004" class="edge">
<title>Node1&#45;&gt;Node4</title>
<g id="a_edge3_Node000001_Node000004"><a xlink:title=" ">
<path fill="none" stroke="#63b8ff" d="M690.86,-95.4C660.58,-84.67 628.28,-73.21 599.65,-63.05"/>
<polygon fill="#63b8ff" stroke="#63b8ff" points="690.01,-98.82 700.61,-98.86 692.35,-92.22 690.01,-98.82"/>
</a>
</g>
</g>
<!-- Node5 -->
<g id="Node000005" class="node">
<title>Node5</title>
<g id="a_Node000005"><a xlink:href="EdibilityValueWeightTrait_8h.html" target="_top" xlink:title="Defines the EdibilityValueWeightTrait class, representing traits that affect edibility decisions in a...">
<polygon fill="white" stroke="#666666" points="794,-63 619,-63 619,0 794,0 794,-63"/>
<text text-anchor="start" x="627" y="-51" font-family="Helvetica,sans-Serif" font-size="10.00">/home/runner/work/Weaver</text>
<text text-anchor="start" x="627" y="-40" font-family="Helvetica,sans-Serif" font-size="10.00">/Weaver/include/App/Model</text>
<text text-anchor="start" x="627" y="-29" font-family="Helvetica,sans-Serif" font-size="10.00">/IBM/Landscape/LivingBeings</text>
<text text-anchor="start" x="627" y="-18" font-family="Helvetica,sans-Serif" font-size="10.00">/Animals/Species/Genetics/Traits</text>
<text text-anchor="middle" x="706.5" y="-7" font-family="Helvetica,sans-Serif" font-size="10.00">/EdibilityValueWeightTrait.h</text>
</a>
</g>
</g>
<!-- Node1&#45;&gt;Node5 -->
<g id="edge4_Node000001_Node000005" class="edge">
<title>Node1&#45;&gt;Node5</title>
<g id="a_edge4_Node000001_Node000005"><a xlink:title=" ">
<path fill="none" stroke="#63b8ff" d="M761.63,-91.37C752.76,-81.9 743.56,-72.07 735.27,-63.22"/>
<polygon fill="#63b8ff" stroke="#63b8ff" points="759.26,-93.96 768.65,-98.86 764.37,-89.17 759.26,-93.96"/>
</a>
</g>
</g>
<!-- Node6 -->
<g id="Node000006" class="node">
<title>Node6</title>
<g id="a_Node000006"><a xlink:href="EscapeProbabilityWeightTrait_8h.html" target="_top" xlink:title="Defines the EscapeProbabilityWeightTrait class, representing traits that affect escape probability de...">
<polygon fill="white" stroke="#666666" points="987,-63 812,-63 812,0 987,0 987,-63"/>
<text text-anchor="start" x="820" y="-51" font-family="Helvetica,sans-Serif" font-size="10.00">/home/runner/work/Weaver</text>
<text text-anchor="start" x="820" y="-40" font-family="Helvetica,sans-Serif" font-size="10.00">/Weaver/include/App/Model</text>
<text text-anchor="start" x="820" y="-29" font-family="Helvetica,sans-Serif" font-size="10.00">/IBM/Landscape/LivingBeings</text>
<text text-anchor="start" x="820" y="-18" font-family="Helvetica,sans-Serif" font-size="10.00">/Animals/Species/Genetics/Traits</text>
<text text-anchor="middle" x="899.5" y="-7" font-family="Helvetica,sans-Serif" font-size="10.00">/EscapeProbabilityWeightTrait.h</text>
</a>
</g>
</g>
<!-- Node1&#45;&gt;Node6 -->
<g id="edge5_Node000001_Node000006" class="edge">
<title>Node1&#45;&gt;Node6</title>
<g id="a_edge5_Node000001_Node000006"><a xlink:title=" ">
<path fill="none" stroke="#63b8ff" d="M843.79,-91.37C852.75,-81.9 862.05,-72.07 870.43,-63.22"/>
<polygon fill="#63b8ff" stroke="#63b8ff" points="841.03,-89.19 836.7,-98.86 846.11,-94 841.03,-89.19"/>
</a>
</g>
</g>
<!-- Node7 -->
<g id="Node000007" class="node">
<title>Node7</title>
<g id="a_Node000007"><a xlink:href="PredationProbabilityWeightTrait_8h.html" target="_top" xlink:title="Defines the PredationProbabilityWeightTrait class, representing traits that affect predation probabil...">
<polygon fill="white" stroke="#666666" points="1187.5,-63 1005.5,-63 1005.5,0 1187.5,0 1187.5,-63"/>
<text text-anchor="start" x="1013.5" y="-51" font-family="Helvetica,sans-Serif" font-size="10.00">/home/runner/work/Weaver</text>
<text text-anchor="start" x="1013.5" y="-40" font-family="Helvetica,sans-Serif" font-size="10.00">/Weaver/include/App/Model</text>
<text text-anchor="start" x="1013.5" y="-29" font-family="Helvetica,sans-Serif" font-size="10.00">/IBM/Landscape/LivingBeings</text>
<text text-anchor="start" x="1013.5" y="-18" font-family="Helvetica,sans-Serif" font-size="10.00">/Animals/Species/Genetics/Traits</text>
<text text-anchor="middle" x="1096.5" y="-7" font-family="Helvetica,sans-Serif" font-size="10.00">/PredationProbabilityWeightTrait.h</text>
</a>
</g>
</g>
<!-- Node1&#45;&gt;Node7 -->
<g id="edge6_Node000001_Node000007" class="edge">
<title>Node1&#45;&gt;Node7</title>
<g id="a_edge6_Node000001_Node000007"><a xlink:title=" ">
<path fill="none" stroke="#63b8ff" d="M915.67,-95.54C946.59,-84.77 979.61,-73.25 1008.86,-63.05"/>
<polygon fill="#63b8ff" stroke="#63b8ff" points="914.44,-92.27 906.15,-98.86 916.75,-98.88 914.44,-92.27"/>
</a>
</g>
</g>
<!-- Node8 -->
<g id="Node000008" class="node">
<title>Node8</title>
<g id="a_Node000008"><a xlink:href="PreferencesTrait_8h.html" target="_top" xlink:title="Defines the PreferencesTrait class, representing traits related to animal preferences in decision&#45;mak...">
<polygon fill="white" stroke="#666666" points="1381,-63 1206,-63 1206,0 1381,0 1381,-63"/>
<text text-anchor="start" x="1214" y="-51" font-family="Helvetica,sans-Serif" font-size="10.00">/home/runner/work/Weaver</text>
<text text-anchor="start" x="1214" y="-40" font-family="Helvetica,sans-Serif" font-size="10.00">/Weaver/include/App/Model</text>
<text text-anchor="start" x="1214" y="-29" font-family="Helvetica,sans-Serif" font-size="10.00">/IBM/Landscape/LivingBeings</text>
<text text-anchor="start" x="1214" y="-18" font-family="Helvetica,sans-Serif" font-size="10.00">/Animals/Species/Genetics/Traits</text>
<text text-anchor="middle" x="1293.5" y="-7" font-family="Helvetica,sans-Serif" font-size="10.00">/PreferencesTrait.h</text>
</a>
</g>
</g>
<!-- Node1&#45;&gt;Node8 -->
<g id="edge7_Node000001_Node000008" class="edge">
<title>Node1&#45;&gt;Node8</title>
<g id="a_edge7_Node000001_Node000008"><a xlink:title=" ">
<path fill="none" stroke="#63b8ff" d="M929.13,-115.96C1006.8,-103.26 1108,-84.91 1196.5,-63 1199.58,-62.24 1202.71,-61.43 1205.87,-60.59"/>
<polygon fill="#63b8ff" stroke="#63b8ff" points="928.12,-112.57 918.81,-117.63 929.24,-119.48 928.12,-112.57"/>
</a>
</g>
</g>
<!-- Node9 -->
<g id="Node000009" class="node">
<title>Node9</title>
<g id="a_Node000009"><a xlink:href="ProbabilityDensityFunctionTrait_8h.html" target="_top" xlink:title="Defines the ProbabilityDensityFunctionTrait class, a specialized Trait representing probability densi...">
<polygon fill="white" stroke="#666666" points="1580,-63 1399,-63 1399,0 1580,0 1580,-63"/>
<text text-anchor="start" x="1407" y="-51" font-family="Helvetica,sans-Serif" font-size="10.00">/home/runner/work/Weaver</text>
<text text-anchor="start" x="1407" y="-40" font-family="Helvetica,sans-Serif" font-size="10.00">/Weaver/include/App/Model</text>
<text text-anchor="start" x="1407" y="-29" font-family="Helvetica,sans-Serif" font-size="10.00">/IBM/Landscape/LivingBeings</text>
<text text-anchor="start" x="1407" y="-18" font-family="Helvetica,sans-Serif" font-size="10.00">/Animals/Species/Genetics/Traits</text>
<text text-anchor="middle" x="1489.5" y="-7" font-family="Helvetica,sans-Serif" font-size="10.00">/ProbabilityDensityFunctionTrait.h</text>
</a>
</g>
</g>
<!-- Node1&#45;&gt;Node9 -->
<g id="edge8_Node000001_Node000009" class="edge">
<title>Node1&#45;&gt;Node9</title>
<g id="a_edge8_Node000001_Node000009"><a xlink:title=" ">
<path fill="none" stroke="#63b8ff" d="M929.01,-126.02C1048.82,-115.99 1233.28,-96.57 1390.5,-63 1393.23,-62.42 1395.99,-61.79 1398.76,-61.14"/>
<polygon fill="#63b8ff" stroke="#63b8ff" points="928.38,-122.56 918.7,-126.87 928.96,-129.54 928.38,-122.56"/>
</a>
</g>
</g>
</g>
</svg>
