<?xml version="1.0" encoding="UTF-8" standalone="no"?>
<!DOCTYPE svg PUBLIC "-//W3C//DTD SVG 1.1//EN"
 "http://www.w3.org/Graphics/SVG/1.1/DTD/svg11.dtd">
<!-- Generated by graphviz version 2.43.0 (0)
 -->
<!-- Title: /home/runner/work/Weaver/Weaver/include/Misc/ProgressBar.h Pages: 1 -->
<svg width="1031pt" height="269pt"
 viewBox="0.00 0.00 1031.09 269.00" xmlns="http://www.w3.org/2000/svg" xmlns:xlink="http://www.w3.org/1999/xlink">
<g id="graph0" class="graph" transform="scale(1 1) rotate(0) translate(4 265)">
<title>/home/runner/work/Weaver/Weaver/include/Misc/ProgressBar.h</title>
<!-- Node1 -->
<g id="Node000001" class="node">
<title>Node1</title>
<g id="a_Node000001"><a xlink:title="Lightweight textual progress bar utility for console or View output.">
<polygon fill="#999999" stroke="#666666" points="612,-261 422,-261 422,-231 612,-231 612,-261"/>
<text text-anchor="start" x="430" y="-249" font-family="Helvetica,sans-Serif" font-size="10.00">/home/runner/work/Weaver</text>
<text text-anchor="middle" x="517" y="-238" font-family="Helvetica,sans-Serif" font-size="10.00">/Weaver/include/Misc/ProgressBar.h</text>
</a>
</g>
</g>
<!-- Node2 -->
<g id="Node000002" class="node">
<title>Node2</title>
<g id="a_Node000002"><a xlink:title=" ">
<polygon fill="#e0e0e0" stroke="#999999" points="405,-195 345,-195 345,-176 405,-176 405,-195"/>
<text text-anchor="middle" x="375" y="-183" font-family="Helvetica,sans-Serif" font-size="10.00">iostream</text>
</a>
</g>
</g>
<!-- Node1&#45;&gt;Node2 -->
<g id="edge1_Node000001_Node000002" class="edge">
<title>Node1&#45;&gt;Node2</title>
<g id="a_edge1_Node000001_Node000002"><a xlink:title=" ">
<path fill="none" stroke="#63b8ff" d="M482.99,-230.99C459.4,-221.27 428.26,-208.44 405.48,-199.06"/>
<polygon fill="#63b8ff" stroke="#63b8ff" points="406.55,-195.71 395.97,-195.14 403.88,-202.18 406.55,-195.71"/>
</a>
</g>
</g>
<!-- Node3 -->
<g id="Node000003" class="node">
<title>Node3</title>
<g id="a_Node000003"><a xlink:title=" ">
<polygon fill="#e0e0e0" stroke="#999999" points="715,-19 671,-19 671,0 715,0 715,-19"/>
<text text-anchor="middle" x="693" y="-7" font-family="Helvetica,sans-Serif" font-size="10.00">string</text>
</a>
</g>
</g>
<!-- Node1&#45;&gt;Node3 -->
<g id="edge2_Node000001_Node000003" class="edge">
<title>Node1&#45;&gt;Node3</title>
<g id="a_edge2_Node000001_Node000003"><a xlink:title=" ">
<path fill="none" stroke="#63b8ff" d="M612.24,-237.67C738.69,-225.8 951.94,-197.65 1002,-140 1026.8,-111.45 1030.79,-83.56 1006,-55 969.9,-13.4 798.03,-9.68 725.46,-10.01"/>
<polygon fill="#63b8ff" stroke="#63b8ff" points="725.07,-6.51 715.1,-10.09 725.12,-13.51 725.07,-6.51"/>
</a>
</g>
</g>
<!-- Node4 -->
<g id="Node000004" class="node">
<title>Node4</title>
<g id="a_Node000004"><a xlink:title=" ">
<polygon fill="#e0e0e0" stroke="#999999" points="586.5,-195 539.5,-195 539.5,-176 586.5,-176 586.5,-195"/>
<text text-anchor="middle" x="563" y="-183" font-family="Helvetica,sans-Serif" font-size="10.00">cmath</text>
</a>
</g>
</g>
<!-- Node1&#45;&gt;Node4 -->
<g id="edge3_Node000001_Node000004" class="edge">
<title>Node1&#45;&gt;Node4</title>
<g id="a_edge3_Node000001_Node000004"><a xlink:title=" ">
<path fill="none" stroke="#63b8ff" d="M528.14,-230.84C534.68,-222.52 542.98,-211.96 549.84,-203.23"/>
<polygon fill="#63b8ff" stroke="#63b8ff" points="552.68,-205.29 556.11,-195.27 547.17,-200.96 552.68,-205.29"/>
</a>
</g>
</g>
<!-- Node5 -->
<g id="Node000005" class="node">
<title>Node5</title>
<g id="a_Node000005"><a xlink:href="View_8h.html" target="_top" xlink:title="Abstract base class for a view in the MVC pattern, handling logging and RunMode titles.">
<polygon fill="white" stroke="#666666" points="521,-195 423,-195 423,-176 521,-176 521,-195"/>
<text text-anchor="middle" x="472" y="-183" font-family="Helvetica,sans-Serif" font-size="10.00">App/View/View.h</text>
</a>
</g>
</g>
<!-- Node1&#45;&gt;Node5 -->
<g id="edge4_Node000001_Node000005" class="edge">
<title>Node1&#45;&gt;Node5</title>
<g id="a_edge4_Node000001_Node000005"><a xlink:title=" ">
<path fill="none" stroke="#63b8ff" d="M506.11,-230.84C499.71,-222.52 491.58,-211.96 484.87,-203.23"/>
<polygon fill="#63b8ff" stroke="#63b8ff" points="487.61,-201.06 478.74,-195.27 482.07,-205.33 487.61,-201.06"/>
</a>
</g>
</g>
<!-- Node5&#45;&gt;Node3 -->
<g id="edge5_Node000005_Node000003" class="edge">
<title>Node5&#45;&gt;Node3</title>
<g id="a_edge5_Node000005_Node000003"><a xlink:title=" ">
<path fill="none" stroke="#63b8ff" d="M521.31,-176.7C577.98,-167.28 664.56,-151.29 675,-140 703.05,-109.69 700.32,-57.05 696.39,-29.14"/>
<polygon fill="#63b8ff" stroke="#63b8ff" points="699.83,-28.44 694.78,-19.13 692.92,-29.56 699.83,-28.44"/>
</a>
</g>
</g>
<!-- Node6 -->
<g id="Node000006" class="node">
<title>Node6</title>
<g id="a_Node000006"><a xlink:title=" ">
<polygon fill="#e0e0e0" stroke="#999999" points="126.5,-140 43.5,-140 43.5,-121 126.5,-121 126.5,-140"/>
<text text-anchor="middle" x="85" y="-128" font-family="Helvetica,sans-Serif" font-size="10.00">initializer_list</text>
</a>
</g>
</g>
<!-- Node5&#45;&gt;Node6 -->
<g id="edge6_Node000005_Node000006" class="edge">
<title>Node5&#45;&gt;Node6</title>
<g id="a_edge6_Node000005_Node000006"><a xlink:title=" ">
<path fill="none" stroke="#63b8ff" d="M422.96,-177.25C419.93,-176.82 416.92,-176.4 414,-176 293.72,-159.4 260.89,-158.29 136.63,-140.04"/>
<polygon fill="#63b8ff" stroke="#63b8ff" points="137.13,-136.58 126.73,-138.58 136.11,-143.5 137.13,-136.58"/>
</a>
</g>
</g>
<!-- Node7 -->
<g id="Node000007" class="node">
<title>Node7</title>
<g id="a_Node000007"><a xlink:title=" ">
<polygon fill="#e0e0e0" stroke="#999999" points="195,-140 145,-140 145,-121 195,-121 195,-140"/>
<text text-anchor="middle" x="170" y="-128" font-family="Helvetica,sans-Serif" font-size="10.00">chrono</text>
</a>
</g>
</g>
<!-- Node5&#45;&gt;Node7 -->
<g id="edge7_Node000005_Node000007" class="edge">
<title>Node5&#45;&gt;Node7</title>
<g id="a_edge7_Node000005_Node000007"><a xlink:title=" ">
<path fill="none" stroke="#63b8ff" d="M422.86,-176.83C361.43,-167.16 258.74,-150.71 205.22,-140.08"/>
<polygon fill="#63b8ff" stroke="#63b8ff" points="205.7,-136.61 195.2,-138.04 204.3,-143.47 205.7,-136.61"/>
</a>
</g>
</g>
<!-- Node8 -->
<g id="Node000008" class="node">
<title>Node8</title>
<g id="a_Node000008"><a xlink:title=" ">
<polygon fill="#e0e0e0" stroke="#999999" points="268.5,-140 213.5,-140 213.5,-121 268.5,-121 268.5,-140"/>
<text text-anchor="middle" x="241" y="-128" font-family="Helvetica,sans-Serif" font-size="10.00">fstream</text>
</a>
</g>
</g>
<!-- Node5&#45;&gt;Node8 -->
<g id="edge8_Node000005_Node000008" class="edge">
<title>Node5&#45;&gt;Node8</title>
<g id="a_edge8_Node000005_Node000008"><a xlink:title=" ">
<path fill="none" stroke="#63b8ff" d="M434.23,-175.97C397.01,-167.54 338.24,-154.18 278.5,-140.34"/>
<polygon fill="#63b8ff" stroke="#63b8ff" points="279.04,-136.87 268.51,-138.02 277.46,-143.69 279.04,-136.87"/>
</a>
</g>
</g>
<!-- Node9 -->
<g id="Node000009" class="node">
<title>Node9</title>
<g id="a_Node000009"><a xlink:title=" ">
<polygon fill="#e0e0e0" stroke="#999999" points="56,-79.5 0,-79.5 0,-60.5 56,-60.5 56,-79.5"/>
<text text-anchor="middle" x="28" y="-67.5" font-family="Helvetica,sans-Serif" font-size="10.00">sstream</text>
</a>
</g>
</g>
<!-- Node5&#45;&gt;Node9 -->
<g id="edge9_Node000005_Node000009" class="edge">
<title>Node5&#45;&gt;Node9</title>
<g id="a_edge9_Node000005_Node000009"><a xlink:title=" ">
<path fill="none" stroke="#63b8ff" d="M422.98,-177.14C419.94,-176.74 416.93,-176.35 414,-176 371.89,-170.92 63.87,-170.1 34,-140 21.19,-127.09 21.42,-105.34 23.76,-89.71"/>
<polygon fill="#63b8ff" stroke="#63b8ff" points="27.25,-90.1 25.67,-79.62 20.37,-88.79 27.25,-90.1"/>
</a>
</g>
</g>
<!-- Node10 -->
<g id="Node000010" class="node">
<title>Node10</title>
<g id="a_Node000010"><a xlink:title=" ">
<polygon fill="#e0e0e0" stroke="#999999" points="466,-140 410,-140 410,-121 466,-121 466,-140"/>
<text text-anchor="middle" x="438" y="-128" font-family="Helvetica,sans-Serif" font-size="10.00">iomanip</text>
</a>
</g>
</g>
<!-- Node5&#45;&gt;Node10 -->
<g id="edge10_Node000005_Node000010" class="edge">
<title>Node5&#45;&gt;Node10</title>
<g id="a_edge10_Node000005_Node000010"><a xlink:title=" ">
<path fill="none" stroke="#63b8ff" d="M466.39,-175.75C461.68,-168.42 454.83,-157.73 449.03,-148.7"/>
<polygon fill="#63b8ff" stroke="#63b8ff" points="451.86,-146.62 443.51,-140.09 445.96,-150.4 451.86,-146.62"/>
</a>
</g>
</g>
<!-- Node11 -->
<g id="Node000011" class="node">
<title>Node11</title>
<g id="a_Node000011"><a xlink:title=" ">
<polygon fill="#e0e0e0" stroke="#999999" points="528,-140 484,-140 484,-121 528,-121 528,-140"/>
<text text-anchor="middle" x="506" y="-128" font-family="Helvetica,sans-Serif" font-size="10.00">ctime</text>
</a>
</g>
</g>
<!-- Node5&#45;&gt;Node11 -->
<g id="edge11_Node000005_Node000011" class="edge">
<title>Node5&#45;&gt;Node11</title>
<g id="a_edge11_Node000005_Node000011"><a xlink:title=" ">
<path fill="none" stroke="#63b8ff" d="M477.61,-175.75C482.32,-168.42 489.17,-157.73 494.97,-148.7"/>
<polygon fill="#63b8ff" stroke="#63b8ff" points="498.04,-150.4 500.49,-140.09 492.14,-146.62 498.04,-150.4"/>
</a>
</g>
</g>
<!-- Node12 -->
<g id="Node000012" class="node">
<title>Node12</title>
<g id="a_Node000012"><a xlink:href="RunMode_8h_source.html" target="_top" xlink:title=" ">
<polygon fill="white" stroke="#666666" points="666,-140 546,-140 546,-121 666,-121 666,-140"/>
<text text-anchor="middle" x="606" y="-128" font-family="Helvetica,sans-Serif" font-size="10.00">App/View/RunMode.h</text>
</a>
</g>
</g>
<!-- Node5&#45;&gt;Node12 -->
<g id="edge12_Node000005_Node000012" class="edge">
<title>Node5&#45;&gt;Node12</title>
<g id="a_edge12_Node000005_Node000012"><a xlink:title=" ">
<path fill="none" stroke="#63b8ff" d="M493.53,-175.98C515.47,-167.3 549.74,-153.75 574.69,-143.88"/>
<polygon fill="#63b8ff" stroke="#63b8ff" points="576.07,-147.1 584.08,-140.17 573.49,-140.59 576.07,-147.1"/>
</a>
</g>
</g>
<!-- Node13 -->
<g id="Node000013" class="node">
<title>Node13</title>
<g id="a_Node000013"><a xlink:href="EnumClass_8h.html" target="_top" xlink:title="Template helper class for working with strongly&#45;typed enums.">
<polygon fill="white" stroke="#666666" points="391.5,-140 286.5,-140 286.5,-121 391.5,-121 391.5,-140"/>
<text text-anchor="middle" x="339" y="-128" font-family="Helvetica,sans-Serif" font-size="10.00">Misc/EnumClass.h</text>
</a>
</g>
</g>
<!-- Node5&#45;&gt;Node13 -->
<g id="edge13_Node000005_Node000013" class="edge">
<title>Node5&#45;&gt;Node13</title>
<g id="a_edge13_Node000005_Node000013"><a xlink:title=" ">
<path fill="none" stroke="#63b8ff" d="M450.63,-175.98C428.85,-167.3 394.84,-153.75 370.08,-143.88"/>
<polygon fill="#63b8ff" stroke="#63b8ff" points="371.34,-140.62 360.76,-140.17 368.75,-147.12 371.34,-140.62"/>
</a>
</g>
</g>
<!-- Node18 -->
<g id="Node000018" class="node">
<title>Node18</title>
<g id="a_Node000018"><a xlink:href="CustomIndexedVector_8h.html" target="_top" xlink:title="Template class providing a vector indexed by a custom type with bounds checking and Boost....">
<polygon fill="white" stroke="#666666" points="879.5,-140 722.5,-140 722.5,-121 879.5,-121 879.5,-140"/>
<text text-anchor="middle" x="801" y="-128" font-family="Helvetica,sans-Serif" font-size="10.00">Misc/CustomIndexedVector.h</text>
</a>
</g>
</g>
<!-- Node5&#45;&gt;Node18 -->
<g id="edge21_Node000005_Node000018" class="edge">
<title>Node5&#45;&gt;Node18</title>
<g id="a_edge21_Node000005_Node000018"><a xlink:title=" ">
<path fill="none" stroke="#63b8ff" d="M521.25,-176.57C578.99,-167.26 674.78,-151.83 737.91,-141.66"/>
<polygon fill="#63b8ff" stroke="#63b8ff" points="738.82,-145.06 748.13,-140.02 737.71,-138.15 738.82,-145.06"/>
</a>
</g>
</g>
<!-- Node21 -->
<g id="Node000021" class="node">
<title>Node21</title>
<g id="a_Node000021"><a xlink:href="PathUtils_8h.html" target="_top" xlink:title="Utility functions for handling filesystem paths.">
<polygon fill="white" stroke="#666666" points="993.5,-140 898.5,-140 898.5,-121 993.5,-121 993.5,-140"/>
<text text-anchor="middle" x="946" y="-128" font-family="Helvetica,sans-Serif" font-size="10.00">Misc/PathUtils.h</text>
</a>
</g>
</g>
<!-- Node5&#45;&gt;Node21 -->
<g id="edge24_Node000005_Node000021" class="edge">
<title>Node5&#45;&gt;Node21</title>
<g id="a_edge24_Node000005_Node000021"><a xlink:title=" ">
<path fill="none" stroke="#63b8ff" d="M521.03,-177.16C524.06,-176.75 527.07,-176.36 530,-176 688.71,-156.4 729.29,-159.6 888,-140 888.1,-139.99 888.21,-139.97 888.31,-139.96"/>
<polygon fill="#63b8ff" stroke="#63b8ff" points="888.76,-143.43 898.23,-138.68 887.86,-136.49 888.76,-143.43"/>
</a>
</g>
</g>
<!-- Node13&#45;&gt;Node3 -->
<g id="edge15_Node000013_Node000003" class="edge">
<title>Node13&#45;&gt;Node3</title>
<g id="a_edge15_Node000013_Node000003"><a xlink:title=" ">
<path fill="none" stroke="#63b8ff" d="M391.61,-121.87C461.81,-111.48 579.47,-93.22 598,-85 629.9,-70.85 660.49,-43.59 677.98,-26.26"/>
<polygon fill="#63b8ff" stroke="#63b8ff" points="680.53,-28.66 685.05,-19.08 675.54,-23.75 680.53,-28.66"/>
</a>
</g>
</g>
<!-- Node13&#45;&gt;Node9 -->
<g id="edge14_Node000013_Node000009" class="edge">
<title>Node13&#45;&gt;Node9</title>
<g id="a_edge14_Node000013_Node000009"><a xlink:title=" ">
<path fill="none" stroke="#63b8ff" d="M293.78,-120.99C232.4,-109.45 123.8,-89.02 66.26,-78.2"/>
<polygon fill="#63b8ff" stroke="#63b8ff" points="66.61,-74.7 56.13,-76.29 65.31,-81.58 66.61,-74.7"/>
</a>
</g>
</g>
<!-- Node14 -->
<g id="Node000014" class="node">
<title>Node14</title>
<g id="a_Node000014"><a xlink:title=" ">
<polygon fill="#e0e0e0" stroke="#999999" points="589.5,-79.5 496.5,-79.5 496.5,-60.5 589.5,-60.5 589.5,-79.5"/>
<text text-anchor="middle" x="543" y="-67.5" font-family="Helvetica,sans-Serif" font-size="10.00">unordered_map</text>
</a>
</g>
</g>
<!-- Node13&#45;&gt;Node14 -->
<g id="edge16_Node000013_Node000014" class="edge">
<title>Node13&#45;&gt;Node14</title>
<g id="a_edge16_Node000013_Node000014"><a xlink:title=" ">
<path fill="none" stroke="#63b8ff" d="M368.66,-120.99C404.24,-110.79 464.02,-93.65 503.48,-82.33"/>
<polygon fill="#63b8ff" stroke="#63b8ff" points="504.65,-85.64 513.3,-79.52 502.72,-78.91 504.65,-85.64"/>
</a>
</g>
</g>
<!-- Node15 -->
<g id="Node000015" class="node">
<title>Node15</title>
<g id="a_Node000015"><a xlink:title=" ">
<polygon fill="#e0e0e0" stroke="#999999" points="478.5,-79.5 311.5,-79.5 311.5,-60.5 478.5,-60.5 478.5,-79.5"/>
<text text-anchor="middle" x="395" y="-67.5" font-family="Helvetica,sans-Serif" font-size="10.00">magic_enum/magic_enum.hpp</text>
</a>
</g>
</g>
<!-- Node13&#45;&gt;Node15 -->
<g id="edge17_Node000013_Node000015" class="edge">
<title>Node13&#45;&gt;Node15</title>
<g id="a_edge17_Node000013_Node000015"><a xlink:title=" ">
<path fill="none" stroke="#63b8ff" d="M347.26,-120.87C355.78,-111.97 369.26,-97.89 379.73,-86.95"/>
<polygon fill="#63b8ff" stroke="#63b8ff" points="382.32,-89.31 386.7,-79.67 377.26,-84.47 382.32,-89.31"/>
</a>
</g>
</g>
<!-- Node16 -->
<g id="Node000016" class="node">
<title>Node16</title>
<g id="a_Node000016"><a xlink:href="LineInfoException_8h.html" target="_top" xlink:title="Exception class with detailed file and line information for error reporting.">
<polygon fill="white" stroke="#666666" points="293.5,-79.5 124.5,-79.5 124.5,-60.5 293.5,-60.5 293.5,-79.5"/>
<text text-anchor="middle" x="209" y="-67.5" font-family="Helvetica,sans-Serif" font-size="10.00">Exceptions/LineInfoException.h</text>
</a>
</g>
</g>
<!-- Node13&#45;&gt;Node16 -->
<g id="edge18_Node000013_Node000016" class="edge">
<title>Node13&#45;&gt;Node16</title>
<g id="a_edge18_Node000013_Node000016"><a xlink:title=" ">
<path fill="none" stroke="#63b8ff" d="M320.1,-120.99C298.34,-111.2 262.38,-95.02 237.29,-83.73"/>
<polygon fill="#63b8ff" stroke="#63b8ff" points="238.48,-80.43 227.93,-79.52 235.61,-86.81 238.48,-80.43"/>
</a>
</g>
</g>
<!-- Node16&#45;&gt;Node3 -->
<g id="edge20_Node000016_Node000003" class="edge">
<title>Node16&#45;&gt;Node3</title>
<g id="a_edge20_Node000016_Node000003"><a xlink:title=" ">
<path fill="none" stroke="#63b8ff" d="M263.54,-60.45C276.16,-58.57 289.54,-56.65 302,-55 434.81,-37.45 593.56,-20.68 660.6,-13.79"/>
<polygon fill="#63b8ff" stroke="#63b8ff" points="661.33,-17.23 670.92,-12.73 660.61,-10.27 661.33,-17.23"/>
</a>
</g>
</g>
<!-- Node17 -->
<g id="Node000017" class="node">
<title>Node17</title>
<g id="a_Node000017"><a xlink:title=" ">
<polygon fill="#e0e0e0" stroke="#999999" points="241.5,-19 176.5,-19 176.5,0 241.5,0 241.5,-19"/>
<text text-anchor="middle" x="209" y="-7" font-family="Helvetica,sans-Serif" font-size="10.00">exception</text>
</a>
</g>
</g>
<!-- Node16&#45;&gt;Node17 -->
<g id="edge19_Node000016_Node000017" class="edge">
<title>Node16&#45;&gt;Node17</title>
<g id="a_edge19_Node000016_Node000017"><a xlink:title=" ">
<path fill="none" stroke="#63b8ff" d="M209,-60.37C209,-52.25 209,-39.81 209,-29.39"/>
<polygon fill="#63b8ff" stroke="#63b8ff" points="212.5,-29.17 209,-19.17 205.5,-29.17 212.5,-29.17"/>
</a>
</g>
</g>
<!-- Node19 -->
<g id="Node000019" class="node">
<title>Node19</title>
<g id="a_Node000019"><a xlink:title=" ">
<polygon fill="#e0e0e0" stroke="#999999" points="768.5,-79.5 721.5,-79.5 721.5,-60.5 768.5,-60.5 768.5,-79.5"/>
<text text-anchor="middle" x="745" y="-67.5" font-family="Helvetica,sans-Serif" font-size="10.00">vector</text>
</a>
</g>
</g>
<!-- Node18&#45;&gt;Node19 -->
<g id="edge22_Node000018_Node000019" class="edge">
<title>Node18&#45;&gt;Node19</title>
<g id="a_edge22_Node000018_Node000019"><a xlink:title=" ">
<path fill="none" stroke="#63b8ff" d="M792.74,-120.87C784.22,-111.97 770.74,-97.89 760.27,-86.95"/>
<polygon fill="#63b8ff" stroke="#63b8ff" points="762.74,-84.47 753.3,-79.67 757.68,-89.31 762.74,-84.47"/>
</a>
</g>
</g>
<!-- Node20 -->
<g id="Node000020" class="node">
<title>Node20</title>
<g id="a_Node000020"><a xlink:title=" ">
<polygon fill="#e0e0e0" stroke="#999999" points="893.5,-85 786.5,-85 786.5,-55 893.5,-55 893.5,-85"/>
<text text-anchor="start" x="794.5" y="-73" font-family="Helvetica,sans-Serif" font-size="10.00">boost/serialization</text>
<text text-anchor="middle" x="840" y="-62" font-family="Helvetica,sans-Serif" font-size="10.00">/vector.hpp</text>
</a>
</g>
</g>
<!-- Node18&#45;&gt;Node20 -->
<g id="edge23_Node000018_Node000020" class="edge">
<title>Node18&#45;&gt;Node20</title>
<g id="a_edge23_Node000018_Node000020"><a xlink:title=" ">
<path fill="none" stroke="#63b8ff" d="M806.75,-120.87C811.56,-113.67 818.62,-103.07 825,-93.49"/>
<polygon fill="#63b8ff" stroke="#63b8ff" points="827.96,-95.38 830.59,-85.11 822.13,-91.49 827.96,-95.38"/>
</a>
</g>
</g>
<!-- Node21&#45;&gt;Node3 -->
<g id="edge26_Node000021_Node000003" class="edge">
<title>Node21&#45;&gt;Node3</title>
<g id="a_edge26_Node000021_Node000003"><a xlink:title=" ">
<path fill="none" stroke="#63b8ff" d="M957.66,-120.79C975.88,-106.16 1007.22,-76.16 989,-55 955.29,-15.84 795.34,-10.67 725.62,-10.31"/>
<polygon fill="#63b8ff" stroke="#63b8ff" points="725.24,-6.81 715.23,-10.29 725.23,-13.81 725.24,-6.81"/>
</a>
</g>
</g>
<!-- Node22 -->
<g id="Node000022" class="node">
<title>Node22</title>
<g id="a_Node000022"><a xlink:title=" ">
<polygon fill="#e0e0e0" stroke="#999999" points="980,-79.5 912,-79.5 912,-60.5 980,-60.5 980,-79.5"/>
<text text-anchor="middle" x="946" y="-67.5" font-family="Helvetica,sans-Serif" font-size="10.00">filesystem</text>
</a>
</g>
</g>
<!-- Node21&#45;&gt;Node22 -->
<g id="edge25_Node000021_Node000022" class="edge">
<title>Node21&#45;&gt;Node22</title>
<g id="a_edge25_Node000021_Node000022"><a xlink:title=" ">
<path fill="none" stroke="#63b8ff" d="M946,-120.87C946,-112.75 946,-100.31 946,-89.89"/>
<polygon fill="#63b8ff" stroke="#63b8ff" points="949.5,-89.67 946,-79.67 942.5,-89.67 949.5,-89.67"/>
</a>
</g>
</g>
</g>
</svg>
