<?xml version="1.0" encoding="UTF-8" standalone="no"?>
<!DOCTYPE svg PUBLIC "-//W3C//DTD SVG 1.1//EN"
 "http://www.w3.org/Graphics/SVG/1.1/DTD/svg11.dtd">
<!-- Generated by graphviz version 2.43.0 (0)
 -->
<!-- Title: /home/runner/work/Weaver/Weaver/include/App/Model/IBM/Maths/Random.h Pages: 1 -->
<!--zoomable 247 -->

<svg id="main" version="1.1" xmlns="http://www.w3.org/2000/svg" xmlns:xlink="http://www.w3.org/1999/xlink" xml:space="preserve" onload="init(evt)">
<style type="text/css"><![CDATA[
.node, .edge {opacity: 0.7;}
.node.selected, .edge.selected {opacity: 1;}
.edge:hover path { stroke: red; }
.edge:hover polygon { stroke: red; fill: red; }
]]></style>

<defs>
  <circle id="rim" cx="0" cy="0" r="7"/>
  <circle id="rim2" cx="0" cy="0" r="3.5"/>
  <g id="zoomPlus">
    <use xlink:href="#rim" fill="#404040"><set attributeName="fill" to="#808080" begin="zoomplus.mouseover" end="zoomplus.mouseout"/></use>
    <path d="M-4,0h8M0,-4v8" fill="none" stroke="white" stroke-width="1.5" pointer-events="none"/>
  </g>
  <g id="zoomMin">
    <use xlink:href="#rim" fill="#404040"><set attributeName="fill" to="#808080" begin="zoomminus.mouseover" end="zoomminus.mouseout"/></use>
    <path d="M-4,0h8" fill="none" stroke="white" stroke-width="1.5" pointer-events="none"/>
  </g>
  <g id="arrowUp" transform="translate(30 24)">
    <use xlink:href="#rim"/>
    <path pointer-events="none" fill="none" stroke="white" stroke-width="1.5" d="M0,-3.0v7 M-2.5,-0.5L0,-3.0L2.5,-0.5"/>
  </g>
  <g id="arrowRight" transform="rotate(90) translate(36 -43)">
    <use xlink:href="#rim"/>
    <path pointer-events="none" fill="none" stroke="white" stroke-width="1.5" d="M0,-3.0v7 M-2.5,-0.5L0,-3.0L2.5,-0.5"/>
  </g>
  <g id="arrowDown" transform="rotate(180) translate(-30 -48)">
    <use xlink:href="#rim"/>
    <path pointer-events="none" fill="none" stroke="white" stroke-width="1.5" d="M0,-3.0v7 M-2.5,-0.5L0,-3.0L2.5,-0.5"/>
  </g>
  <g id="arrowLeft" transform="rotate(270) translate(-36 17)">
    <use xlink:href="#rim"/>
    <path pointer-events="none" fill="none" stroke="white" stroke-width="1.5" d="M0,-3.0v7 M-2.5,-0.5L0,-3.0L2.5,-0.5"/>
  </g>
  <g id="resetDef">
    <use xlink:href="#rim2" fill="#404040"><set attributeName="fill" to="#808080" begin="reset.mouseover" end="reset.mouseout"/></use>
  </g>
</defs>
<script type="application/ecmascript">
var viewWidth = 1546;
var viewHeight = 247;
var sectionId = 'dynsection-0';
</script>
<script type="application/ecmascript" xlink:href="svg.min.js"/>
<svg id="graph" class="graph">
<g id="viewport">
<title>/home/runner/work/Weaver/Weaver/include/App/Model/IBM/Maths/Random.h</title>
<!-- Node1 -->
<g id="Node000001" class="node">
<title>Node1</title>
<g id="a_Node000001"><a xlink:title="Defines the Random class that provides various random number generation utilities.">
<polygon fill="#999999" stroke="#666666" points="435.03,-239 286.03,-239 286.03,-198 435.03,-198 435.03,-239"/>
<text text-anchor="start" x="294.03" y="-227" font-family="Helvetica,sans-Serif" font-size="10.00">/home/runner/work/Weaver</text>
<text text-anchor="start" x="294.03" y="-216" font-family="Helvetica,sans-Serif" font-size="10.00">/Weaver/include/App/Model</text>
<text text-anchor="middle" x="360.53" y="-205" font-family="Helvetica,sans-Serif" font-size="10.00">/IBM/Maths/Random.h</text>
</a>
</g>
</g>
<!-- Node2 -->
<g id="Node000002" class="node">
<title>Node2</title>
<g id="a_Node000002"><a xlink:title=" ">
<polygon fill="#e0e0e0" stroke="#999999" points="457.03,-24.5 410.03,-24.5 410.03,-5.5 457.03,-5.5 457.03,-24.5"/>
<text text-anchor="middle" x="433.53" y="-12.5" font-family="Helvetica,sans-Serif" font-size="10.00">cmath</text>
</a>
</g>
</g>
<!-- Node1&#45;&gt;Node2 -->
<g id="edge1_Node000001_Node000002" class="edge">
<title>Node1&#45;&gt;Node2</title>
<g id="a_edge1_Node000001_Node000002"><a xlink:title=" ">
<path fill="none" stroke="#63b8ff" d="M285.86,-216.77C192.58,-214.09 40.87,-203.29 5.53,-162 -3.14,-151.87 -0.04,-144.11 5.53,-132 24.37,-91.05 41.47,-84.59 82.53,-66 138.9,-40.48 323.21,-24.21 399.75,-18.4"/>
<polygon fill="#63b8ff" stroke="#63b8ff" points="400.09,-21.88 409.8,-17.65 399.57,-14.9 400.09,-21.88"/>
</a>
</g>
</g>
<!-- Node3 -->
<g id="Node000003" class="node">
<title>Node3</title>
<g id="a_Node000003"><a xlink:title=" ">
<polygon fill="#e0e0e0" stroke="#999999" points="68.03,-156.5 15.03,-156.5 15.03,-137.5 68.03,-137.5 68.03,-156.5"/>
<text text-anchor="middle" x="41.53" y="-144.5" font-family="Helvetica,sans-Serif" font-size="10.00">stdlib.h</text>
</a>
</g>
</g>
<!-- Node1&#45;&gt;Node3 -->
<g id="edge2_Node000001_Node000003" class="edge">
<title>Node1&#45;&gt;Node3</title>
<g id="a_edge2_Node000001_Node000003"><a xlink:title=" ">
<path fill="none" stroke="#63b8ff" d="M285.87,-205.35C229.55,-195.53 150.61,-180.33 82.53,-162 79.9,-161.29 77.19,-160.5 74.48,-159.67"/>
<polygon fill="#63b8ff" stroke="#63b8ff" points="75.38,-156.28 64.79,-156.53 73.22,-162.94 75.38,-156.28"/>
</a>
</g>
</g>
<!-- Node4 -->
<g id="Node000004" class="node">
<title>Node4</title>
<g id="a_Node000004"><a xlink:title=" ">
<polygon fill="#e0e0e0" stroke="#999999" points="535.53,-24.5 475.53,-24.5 475.53,-5.5 535.53,-5.5 535.53,-24.5"/>
<text text-anchor="middle" x="505.53" y="-12.5" font-family="Helvetica,sans-Serif" font-size="10.00">iostream</text>
</a>
</g>
</g>
<!-- Node1&#45;&gt;Node4 -->
<g id="edge3_Node000001_Node000004" class="edge">
<title>Node1&#45;&gt;Node4</title>
<g id="a_edge3_Node000001_Node000004"><a xlink:title=" ">
<path fill="none" stroke="#63b8ff" d="M285.99,-216.06C197.84,-211.57 68.63,-194.52 115.53,-132 212.76,-2.39 311.24,-79.45 465.53,-30 467.78,-29.28 470.09,-28.52 472.42,-27.74"/>
<polygon fill="#63b8ff" stroke="#63b8ff" points="473.58,-31.04 481.91,-24.5 471.32,-24.42 473.58,-31.04"/>
</a>
</g>
</g>
<!-- Node5 -->
<g id="Node000005" class="node">
<title>Node5</title>
<g id="a_Node000005"><a xlink:title=" ">
<polygon fill="#e0e0e0" stroke="#999999" points="172.03,-156.5 125.03,-156.5 125.03,-137.5 172.03,-137.5 172.03,-156.5"/>
<text text-anchor="middle" x="148.53" y="-144.5" font-family="Helvetica,sans-Serif" font-size="10.00">float.h</text>
</a>
</g>
</g>
<!-- Node1&#45;&gt;Node5 -->
<g id="edge4_Node000001_Node000005" class="edge">
<title>Node1&#45;&gt;Node5</title>
<g id="a_edge4_Node000001_Node000005"><a xlink:title=" ">
<path fill="none" stroke="#63b8ff" d="M291.57,-197.88C258.09,-187.91 217.43,-175.14 181.53,-162 180.15,-161.49 178.73,-160.96 177.31,-160.41"/>
<polygon fill="#63b8ff" stroke="#63b8ff" points="178.53,-157.13 167.95,-156.62 175.91,-163.61 178.53,-157.13"/>
</a>
</g>
</g>
<!-- Node6 -->
<g id="Node000006" class="node">
<title>Node6</title>
<g id="a_Node000006"><a xlink:title=" ">
<polygon fill="#e0e0e0" stroke="#999999" points="222.53,-156.5 190.53,-156.5 190.53,-137.5 222.53,-137.5 222.53,-156.5"/>
<text text-anchor="middle" x="206.53" y="-144.5" font-family="Helvetica,sans-Serif" font-size="10.00">list</text>
</a>
</g>
</g>
<!-- Node1&#45;&gt;Node6 -->
<g id="edge5_Node000001_Node000006" class="edge">
<title>Node1&#45;&gt;Node6</title>
<g id="a_edge5_Node000001_Node000006"><a xlink:title=" ">
<path fill="none" stroke="#63b8ff" d="M311.9,-197.99C287.51,-187.84 257.66,-174.89 231.53,-162 231.11,-161.79 230.68,-161.58 230.25,-161.36"/>
<polygon fill="#63b8ff" stroke="#63b8ff" points="231.68,-158.15 221.2,-156.55 228.39,-164.33 231.68,-158.15"/>
</a>
</g>
</g>
<!-- Node7 -->
<g id="Node000007" class="node">
<title>Node7</title>
<g id="a_Node000007"><a xlink:title=" ">
<polygon fill="#e0e0e0" stroke="#999999" points="288.03,-156.5 241.03,-156.5 241.03,-137.5 288.03,-137.5 288.03,-156.5"/>
<text text-anchor="middle" x="264.53" y="-144.5" font-family="Helvetica,sans-Serif" font-size="10.00">vector</text>
</a>
</g>
</g>
<!-- Node1&#45;&gt;Node7 -->
<g id="edge6_Node000001_Node000007" class="edge">
<title>Node1&#45;&gt;Node7</title>
<g id="a_edge6_Node000001_Node000007"><a xlink:title=" ">
<path fill="none" stroke="#63b8ff" d="M333.54,-197.96C317.92,-186.65 298.61,-172.67 284.4,-162.38"/>
<polygon fill="#63b8ff" stroke="#63b8ff" points="286.43,-159.53 276.28,-156.5 282.33,-165.2 286.43,-159.53"/>
</a>
</g>
</g>
<!-- Node8 -->
<g id="Node000008" class="node">
<title>Node8</title>
<g id="a_Node000008"><a xlink:title=" ">
<polygon fill="#e0e0e0" stroke="#999999" points="360.53,-156.5 306.53,-156.5 306.53,-137.5 360.53,-137.5 360.53,-156.5"/>
<text text-anchor="middle" x="333.53" y="-144.5" font-family="Helvetica,sans-Serif" font-size="10.00">random</text>
</a>
</g>
</g>
<!-- Node1&#45;&gt;Node8 -->
<g id="edge7_Node000001_Node000008" class="edge">
<title>Node1&#45;&gt;Node8</title>
<g id="a_edge7_Node000001_Node000008"><a xlink:title=" ">
<path fill="none" stroke="#63b8ff" d="M352.87,-197.77C349.02,-187.87 344.39,-175.95 340.63,-166.26"/>
<polygon fill="#63b8ff" stroke="#63b8ff" points="343.84,-164.87 336.96,-156.82 337.32,-167.41 343.84,-164.87"/>
</a>
</g>
</g>
<!-- Node9 -->
<g id="Node000009" class="node">
<title>Node9</title>
<g id="a_Node000009"><a xlink:title=" ">
<polygon fill="#e0e0e0" stroke="#999999" points="617.53,-24.5 553.53,-24.5 553.53,-5.5 617.53,-5.5 617.53,-24.5"/>
<text text-anchor="middle" x="585.53" y="-12.5" font-family="Helvetica,sans-Serif" font-size="10.00">algorithm</text>
</a>
</g>
</g>
<!-- Node1&#45;&gt;Node9 -->
<g id="edge8_Node000001_Node000009" class="edge">
<title>Node1&#45;&gt;Node9</title>
<g id="a_edge8_Node000001_Node000009"><a xlink:title=" ">
<path fill="none" stroke="#63b8ff" d="M368.07,-197.78C375.87,-179.24 389.45,-151.5 407.53,-132 451.63,-84.46 519.1,-47.51 557.05,-29.03"/>
<polygon fill="#63b8ff" stroke="#63b8ff" points="558.97,-31.99 566.48,-24.52 555.95,-25.68 558.97,-31.99"/>
</a>
</g>
</g>
<!-- Node10 -->
<g id="Node000010" class="node">
<title>Node10</title>
<g id="a_Node000010"><a xlink:title=" ">
<polygon fill="#e0e0e0" stroke="#999999" points="474.53,-156.5 416.53,-156.5 416.53,-137.5 474.53,-137.5 474.53,-156.5"/>
<text text-anchor="middle" x="445.53" y="-144.5" font-family="Helvetica,sans-Serif" font-size="10.00">memory</text>
</a>
</g>
</g>
<!-- Node1&#45;&gt;Node10 -->
<g id="edge9_Node000001_Node000010" class="edge">
<title>Node1&#45;&gt;Node10</title>
<g id="a_edge9_Node000001_Node000010"><a xlink:title=" ">
<path fill="none" stroke="#63b8ff" d="M384.66,-197.77C398.06,-186.81 414.48,-173.39 426.89,-163.25"/>
<polygon fill="#63b8ff" stroke="#63b8ff" points="429.22,-165.86 434.75,-156.82 424.79,-160.44 429.22,-165.86"/>
</a>
</g>
</g>
<!-- Node11 -->
<g id="Node000011" class="node">
<title>Node11</title>
<g id="a_Node000011"><a xlink:title=" ">
<polygon fill="#e0e0e0" stroke="#999999" points="602.53,-156.5 492.53,-156.5 492.53,-137.5 602.53,-137.5 602.53,-156.5"/>
<text text-anchor="middle" x="547.53" y="-144.5" font-family="Helvetica,sans-Serif" font-size="10.00">nlohmann/json.hpp</text>
</a>
</g>
</g>
<!-- Node1&#45;&gt;Node11 -->
<g id="edge10_Node000001_Node000011" class="edge">
<title>Node1&#45;&gt;Node11</title>
<g id="a_edge10_Node000001_Node000011"><a xlink:title=" ">
<path fill="none" stroke="#63b8ff" d="M413.12,-197.96C445.83,-185.8 486.87,-170.55 514.94,-160.11"/>
<polygon fill="#63b8ff" stroke="#63b8ff" points="516.5,-163.27 524.65,-156.5 514.06,-156.71 516.5,-163.27"/>
</a>
</g>
</g>
<!-- Node12 -->
<g id="Node000012" class="node">
<title>Node12</title>
<g id="a_Node000012"><a xlink:href="LineInfoException_8h.html" target="_top" xlink:title="Exception class with detailed file and line information for error reporting.">
<polygon fill="white" stroke="#666666" points="790.03,-156.5 621.03,-156.5 621.03,-137.5 790.03,-137.5 790.03,-156.5"/>
<text text-anchor="middle" x="705.53" y="-144.5" font-family="Helvetica,sans-Serif" font-size="10.00">Exceptions/LineInfoException.h</text>
</a>
</g>
</g>
<!-- Node1&#45;&gt;Node12 -->
<g id="edge11_Node000001_Node000012" class="edge">
<title>Node1&#45;&gt;Node12</title>
<g id="a_edge11_Node000001_Node000012"><a xlink:title=" ">
<path fill="none" stroke="#63b8ff" d="M435.39,-202.42C501.2,-189.16 595.28,-170.21 653.27,-158.53"/>
<polygon fill="#63b8ff" stroke="#63b8ff" points="654.2,-161.91 663.32,-156.5 652.82,-155.05 654.2,-161.91"/>
</a>
</g>
</g>
<!-- Node15 -->
<g id="Node000015" class="node">
<title>Node15</title>
<g id="a_Node000015"><a xlink:href="Constants_8h.html" target="_top" xlink:title="Mathematical and physical constants used throughout the project.">
<polygon fill="white" stroke="#666666" points="931.03,-162 808.03,-162 808.03,-132 931.03,-132 931.03,-162"/>
<text text-anchor="start" x="816.03" y="-150" font-family="Helvetica,sans-Serif" font-size="10.00">App/Model/IBM/Maths</text>
<text text-anchor="middle" x="869.53" y="-139" font-family="Helvetica,sans-Serif" font-size="10.00">/Constants.h</text>
</a>
</g>
</g>
<!-- Node1&#45;&gt;Node15 -->
<g id="edge14_Node000001_Node000015" class="edge">
<title>Node1&#45;&gt;Node15</title>
<g id="a_edge14_Node000001_Node000015"><a xlink:title=" ">
<path fill="none" stroke="#63b8ff" d="M435.16,-209.62C520.38,-200.27 664.18,-183.41 797.98,-162.02"/>
<polygon fill="#63b8ff" stroke="#63b8ff" points="798.69,-165.45 808.01,-160.4 797.58,-158.54 798.69,-165.45"/>
</a>
</g>
</g>
<!-- Node16 -->
<g id="Node000016" class="node">
<title>Node16</title>
<g id="a_Node000016"><a xlink:href="TimeUnits_8h.html" target="_top" xlink:title="Defines the TimeStep and Day classes for representing simulation time units.">
<polygon fill="white" stroke="#666666" points="1094.03,-162 949.03,-162 949.03,-132 1094.03,-132 1094.03,-162"/>
<text text-anchor="start" x="957.03" y="-150" font-family="Helvetica,sans-Serif" font-size="10.00">App/Model/IBM/Landscape</text>
<text text-anchor="middle" x="1021.53" y="-139" font-family="Helvetica,sans-Serif" font-size="10.00">/LivingBeings/TimeUnits.h</text>
</a>
</g>
</g>
<!-- Node1&#45;&gt;Node16 -->
<g id="edge15_Node000001_Node000016" class="edge">
<title>Node1&#45;&gt;Node16</title>
<g id="a_edge15_Node000001_Node000016"><a xlink:title=" ">
<path fill="none" stroke="#63b8ff" d="M435.22,-212.11C543.77,-203.87 751.64,-186.64 938.68,-162.05"/>
<polygon fill="#63b8ff" stroke="#63b8ff" points="939.24,-165.5 948.7,-160.72 938.33,-158.56 939.24,-165.5"/>
</a>
</g>
</g>
<!-- Node25 -->
<g id="Node000025" class="node">
<title>Node25</title>
<g id="a_Node000025"><a xlink:href="Types_8h.html" target="_top" xlink:title="Defines common type aliases and constants used throughout the Weaver project.">
<polygon fill="white" stroke="#666666" points="1191.03,-156.5 1112.03,-156.5 1112.03,-137.5 1191.03,-137.5 1191.03,-156.5"/>
<text text-anchor="middle" x="1151.53" y="-144.5" font-family="Helvetica,sans-Serif" font-size="10.00">Misc/Types.h</text>
</a>
</g>
</g>
<!-- Node1&#45;&gt;Node25 -->
<g id="edge33_Node000001_Node000025" class="edge">
<title>Node1&#45;&gt;Node25</title>
<g id="a_edge33_Node000001_Node000025"><a xlink:title=" ">
<path fill="none" stroke="#63b8ff" d="M435.14,-216.92C569.6,-214.78 861.06,-205.06 1102.53,-162 1106.75,-161.25 1111.12,-160.28 1115.44,-159.21"/>
<polygon fill="#63b8ff" stroke="#63b8ff" points="1116.57,-162.53 1125.32,-156.55 1114.75,-155.77 1116.57,-162.53"/>
</a>
</g>
</g>
<!-- Node13 -->
<g id="Node000013" class="node">
<title>Node13</title>
<g id="a_Node000013"><a xlink:title=" ">
<polygon fill="#e0e0e0" stroke="#999999" points="669.03,-90.5 604.03,-90.5 604.03,-71.5 669.03,-71.5 669.03,-90.5"/>
<text text-anchor="middle" x="636.53" y="-78.5" font-family="Helvetica,sans-Serif" font-size="10.00">exception</text>
</a>
</g>
</g>
<!-- Node12&#45;&gt;Node13 -->
<g id="edge12_Node000012_Node000013" class="edge">
<title>Node12&#45;&gt;Node13</title>
<g id="a_edge12_Node000012_Node000013"><a xlink:title=" ">
<path fill="none" stroke="#63b8ff" d="M696.23,-137.37C685.38,-127.31 667.24,-110.48 653.79,-98.01"/>
<polygon fill="#63b8ff" stroke="#63b8ff" points="655.85,-95.14 646.13,-90.91 651.09,-100.27 655.85,-95.14"/>
</a>
</g>
</g>
<!-- Node14 -->
<g id="Node000014" class="node">
<title>Node14</title>
<g id="a_Node000014"><a xlink:title=" ">
<polygon fill="#e0e0e0" stroke="#999999" points="679.53,-24.5 635.53,-24.5 635.53,-5.5 679.53,-5.5 679.53,-24.5"/>
<text text-anchor="middle" x="657.53" y="-12.5" font-family="Helvetica,sans-Serif" font-size="10.00">string</text>
</a>
</g>
</g>
<!-- Node12&#45;&gt;Node14 -->
<g id="edge13_Node000012_Node000014" class="edge">
<title>Node12&#45;&gt;Node14</title>
<g id="a_edge13_Node000012_Node000014"><a xlink:title=" ">
<path fill="none" stroke="#63b8ff" d="M702.55,-137.08C697.57,-122.25 687.14,-91.63 677.53,-66 673.58,-55.44 668.91,-43.73 665.08,-34.3"/>
<polygon fill="#63b8ff" stroke="#63b8ff" points="668.22,-32.74 661.19,-24.81 661.74,-35.39 668.22,-32.74"/>
</a>
</g>
</g>
<!-- Node16&#45;&gt;Node2 -->
<g id="edge21_Node000016_Node000002" class="edge">
<title>Node16&#45;&gt;Node2</title>
<g id="a_edge21_Node000016_Node000002"><a xlink:title=" ">
<path fill="none" stroke="#63b8ff" d="M948.74,-133.09C876.2,-120.11 773.01,-101.28 754.53,-96 719.22,-85.91 712.93,-75.81 677.53,-66 585.85,-40.6 557.83,-56.76 466.53,-30 464.85,-29.51 463.14,-28.95 461.42,-28.36"/>
<polygon fill="#63b8ff" stroke="#63b8ff" points="462.35,-24.96 451.76,-24.62 459.82,-31.49 462.35,-24.96"/>
</a>
</g>
</g>
<!-- Node17 -->
<g id="Node000017" class="node">
<title>Node17</title>
<g id="a_Node000017"><a xlink:title=" ">
<polygon fill="#e0e0e0" stroke="#999999" points="1009.03,-30 904.03,-30 904.03,0 1009.03,0 1009.03,-30"/>
<text text-anchor="start" x="912.03" y="-18" font-family="Helvetica,sans-Serif" font-size="10.00">boost/archive/text</text>
<text text-anchor="middle" x="956.53" y="-7" font-family="Helvetica,sans-Serif" font-size="10.00">_iarchive.hpp</text>
</a>
</g>
</g>
<!-- Node16&#45;&gt;Node17 -->
<g id="edge16_Node000016_Node000017" class="edge">
<title>Node16&#45;&gt;Node17</title>
<g id="a_edge16_Node000016_Node000017"><a xlink:title=" ">
<path fill="none" stroke="#63b8ff" d="M1022.13,-131.85C1022.24,-115.16 1020.53,-87.03 1009.53,-66 1003.69,-54.82 994.35,-44.75 985.12,-36.64"/>
<polygon fill="#63b8ff" stroke="#63b8ff" points="987.08,-33.71 977.14,-30.03 982.61,-39.1 987.08,-33.71"/>
</a>
</g>
</g>
<!-- Node18 -->
<g id="Node000018" class="node">
<title>Node18</title>
<g id="a_Node000018"><a xlink:title=" ">
<polygon fill="#e0e0e0" stroke="#999999" points="803.03,-30 698.03,-30 698.03,0 803.03,0 803.03,-30"/>
<text text-anchor="start" x="706.03" y="-18" font-family="Helvetica,sans-Serif" font-size="10.00">boost/archive/text</text>
<text text-anchor="middle" x="750.53" y="-7" font-family="Helvetica,sans-Serif" font-size="10.00">_oarchive.hpp</text>
</a>
</g>
</g>
<!-- Node16&#45;&gt;Node18 -->
<g id="edge17_Node000016_Node000018" class="edge">
<title>Node16&#45;&gt;Node18</title>
<g id="a_edge17_Node000016_Node000018"><a xlink:title=" ">
<path fill="none" stroke="#63b8ff" d="M962.98,-131.92C933.66,-123.62 898.19,-111.66 868.53,-96 849.2,-85.79 847.46,-78.53 829.53,-66 814.44,-55.45 797.21,-44.43 782.7,-35.43"/>
<polygon fill="#63b8ff" stroke="#63b8ff" points="784.41,-32.37 774.06,-30.11 780.74,-38.33 784.41,-32.37"/>
</a>
</g>
</g>
<!-- Node19 -->
<g id="Node000019" class="node">
<title>Node19</title>
<g id="a_Node000019"><a xlink:title=" ">
<polygon fill="#e0e0e0" stroke="#999999" points="1205.53,-30 1089.53,-30 1089.53,0 1205.53,0 1205.53,-30"/>
<text text-anchor="start" x="1097.53" y="-18" font-family="Helvetica,sans-Serif" font-size="10.00">boost/archive/binary</text>
<text text-anchor="middle" x="1147.53" y="-7" font-family="Helvetica,sans-Serif" font-size="10.00">_iarchive.hpp</text>
</a>
</g>
</g>
<!-- Node16&#45;&gt;Node19 -->
<g id="edge18_Node000016_Node000019" class="edge">
<title>Node16&#45;&gt;Node19</title>
<g id="a_edge18_Node000016_Node000019"><a xlink:title=" ">
<path fill="none" stroke="#63b8ff" d="M1035.26,-131.84C1057.32,-109.08 1100.81,-64.21 1126.71,-37.49"/>
<polygon fill="#63b8ff" stroke="#63b8ff" points="1129.38,-39.76 1133.83,-30.14 1124.35,-34.89 1129.38,-39.76"/>
</a>
</g>
</g>
<!-- Node20 -->
<g id="Node000020" class="node">
<title>Node20</title>
<g id="a_Node000020"><a xlink:title=" ">
<polygon fill="#e0e0e0" stroke="#999999" points="1339.53,-30 1223.53,-30 1223.53,0 1339.53,0 1339.53,-30"/>
<text text-anchor="start" x="1231.53" y="-18" font-family="Helvetica,sans-Serif" font-size="10.00">boost/archive/binary</text>
<text text-anchor="middle" x="1281.53" y="-7" font-family="Helvetica,sans-Serif" font-size="10.00">_oarchive.hpp</text>
</a>
</g>
</g>
<!-- Node16&#45;&gt;Node20 -->
<g id="edge19_Node000016_Node000020" class="edge">
<title>Node16&#45;&gt;Node20</title>
<g id="a_edge19_Node000016_Node000020"><a xlink:title=" ">
<path fill="none" stroke="#63b8ff" d="M1049.85,-131.84C1097.03,-108.25 1191.72,-60.91 1244.26,-34.64"/>
<polygon fill="#63b8ff" stroke="#63b8ff" points="1245.87,-37.74 1253.25,-30.14 1242.74,-31.48 1245.87,-37.74"/>
</a>
</g>
</g>
<!-- Node21 -->
<g id="Node000021" class="node">
<title>Node21</title>
<g id="a_Node000021"><a xlink:title=" ">
<polygon fill="#e0e0e0" stroke="#999999" points="821.03,-90.5 764.03,-90.5 764.03,-71.5 821.03,-71.5 821.03,-90.5"/>
<text text-anchor="middle" x="792.53" y="-78.5" font-family="Helvetica,sans-Serif" font-size="10.00">ostream</text>
</a>
</g>
</g>
<!-- Node16&#45;&gt;Node21 -->
<g id="edge20_Node000016_Node000021" class="edge">
<title>Node16&#45;&gt;Node21</title>
<g id="a_edge20_Node000016_Node000021"><a xlink:title=" ">
<path fill="none" stroke="#63b8ff" d="M966.39,-131.98C929.26,-122.35 879.29,-108.99 835.53,-96 832.94,-95.23 830.27,-94.41 827.58,-93.58"/>
<polygon fill="#63b8ff" stroke="#63b8ff" points="828.52,-90.2 817.93,-90.51 826.4,-96.88 828.52,-90.2"/>
</a>
</g>
</g>
<!-- Node22 -->
<g id="Node000022" class="node">
<title>Node22</title>
<g id="a_Node000022"><a xlink:href="PreciseDouble_8h.html" target="_top" xlink:title="Defines the PreciseDouble class for safe and precise double&#45;precision arithmetic.">
<polygon fill="white" stroke="#666666" points="1001.03,-96 878.03,-96 878.03,-66 1001.03,-66 1001.03,-96"/>
<text text-anchor="start" x="886.03" y="-84" font-family="Helvetica,sans-Serif" font-size="10.00">App/Model/IBM/Maths</text>
<text text-anchor="middle" x="939.53" y="-73" font-family="Helvetica,sans-Serif" font-size="10.00">/PreciseDouble.h</text>
</a>
</g>
</g>
<!-- Node16&#45;&gt;Node22 -->
<g id="edge22_Node000016_Node000022" class="edge">
<title>Node16&#45;&gt;Node22</title>
<g id="a_edge22_Node000016_Node000022"><a xlink:title=" ">
<path fill="none" stroke="#63b8ff" d="M1003.34,-131.8C992.29,-123.18 978.02,-112.04 965.77,-102.48"/>
<polygon fill="#63b8ff" stroke="#63b8ff" points="967.72,-99.56 957.68,-96.16 963.41,-105.08 967.72,-99.56"/>
</a>
</g>
</g>
<!-- Node22&#45;&gt;Node2 -->
<g id="edge28_Node000022_Node000002" class="edge">
<title>Node22&#45;&gt;Node2</title>
<g id="a_edge28_Node000022_Node000002"><a xlink:title=" ">
<path fill="none" stroke="#63b8ff" d="M877.9,-71.85C862.14,-69.85 845.22,-67.78 829.53,-66 668.44,-47.76 623.62,-70.12 466.53,-30 464.59,-29.5 462.61,-28.91 460.64,-28.25"/>
<polygon fill="#63b8ff" stroke="#63b8ff" points="461.59,-24.87 451,-24.57 459.1,-31.41 461.59,-24.87"/>
</a>
</g>
</g>
<!-- Node22&#45;&gt;Node4 -->
<g id="edge30_Node000022_Node000004" class="edge">
<title>Node22&#45;&gt;Node4</title>
<g id="a_edge30_Node000022_Node000004"><a xlink:title=" ">
<path fill="none" stroke="#63b8ff" d="M877.87,-72.14C862.11,-70.14 845.19,-67.99 829.53,-66 702.87,-49.94 668.69,-59.75 544.53,-30 541.87,-29.36 539.14,-28.6 536.41,-27.78"/>
<polygon fill="#63b8ff" stroke="#63b8ff" points="537.33,-24.39 526.73,-24.56 535.12,-31.03 537.33,-24.39"/>
</a>
</g>
</g>
<!-- Node22&#45;&gt;Node9 -->
<g id="edge29_Node000022_Node000009" class="edge">
<title>Node22&#45;&gt;Node9</title>
<g id="a_edge29_Node000022_Node000009"><a xlink:title=" ">
<path fill="none" stroke="#63b8ff" d="M877.73,-71.41C800.53,-60.45 672.93,-41.54 626.53,-30 623.73,-29.3 620.84,-28.5 617.96,-27.64"/>
<polygon fill="#63b8ff" stroke="#63b8ff" points="618.9,-24.26 608.31,-24.55 616.77,-30.93 618.9,-24.26"/>
</a>
</g>
</g>
<!-- Node22&#45;&gt;Node14 -->
<g id="edge27_Node000022_Node000014" class="edge">
<title>Node22&#45;&gt;Node14</title>
<g id="a_edge27_Node000022_Node000014"><a xlink:title=" ">
<path fill="none" stroke="#63b8ff" d="M877.94,-71.73C826.51,-63.89 751.68,-50.26 688.53,-30 687.09,-29.54 685.63,-29.03 684.16,-28.48"/>
<polygon fill="#63b8ff" stroke="#63b8ff" points="685.22,-25.13 674.64,-24.56 682.55,-31.61 685.22,-25.13"/>
</a>
</g>
</g>
<!-- Node22&#45;&gt;Node17 -->
<g id="edge23_Node000022_Node000017" class="edge">
<title>Node22&#45;&gt;Node17</title>
<g id="a_edge23_Node000022_Node000017"><a xlink:title=" ">
<path fill="none" stroke="#63b8ff" d="M943.31,-65.8C945.33,-58.17 947.88,-48.57 950.2,-39.84"/>
<polygon fill="#63b8ff" stroke="#63b8ff" points="953.59,-40.73 952.77,-30.16 946.82,-38.93 953.59,-40.73"/>
</a>
</g>
</g>
<!-- Node22&#45;&gt;Node18 -->
<g id="edge24_Node000022_Node000018" class="edge">
<title>Node22&#45;&gt;Node18</title>
<g id="a_edge24_Node000022_Node000018"><a xlink:title=" ">
<path fill="none" stroke="#63b8ff" d="M898.06,-65.95C869.62,-56.33 831.72,-43.49 801.45,-33.24"/>
<polygon fill="#63b8ff" stroke="#63b8ff" points="802.51,-29.9 791.91,-30.01 800.26,-36.53 802.51,-29.9"/>
</a>
</g>
</g>
<!-- Node22&#45;&gt;Node19 -->
<g id="edge25_Node000022_Node000019" class="edge">
<title>Node22&#45;&gt;Node19</title>
<g id="a_edge25_Node000022_Node000019"><a xlink:title=" ">
<path fill="none" stroke="#63b8ff" d="M985.18,-65.95C1016.74,-56.24 1058.91,-43.27 1092.36,-32.98"/>
<polygon fill="#63b8ff" stroke="#63b8ff" points="1093.47,-36.3 1101.99,-30.01 1091.41,-29.61 1093.47,-36.3"/>
</a>
</g>
</g>
<!-- Node22&#45;&gt;Node20 -->
<g id="edge26_Node000022_Node000020" class="edge">
<title>Node22&#45;&gt;Node20</title>
<g id="a_edge26_Node000022_Node000020"><a xlink:title=" ">
<path fill="none" stroke="#63b8ff" d="M1001.06,-69.29C1054.56,-59.87 1134.43,-45.54 1213.33,-30.21"/>
<polygon fill="#63b8ff" stroke="#63b8ff" points="1214.3,-33.58 1223.45,-28.23 1212.96,-26.71 1214.3,-33.58"/>
</a>
</g>
</g>
<!-- Node23 -->
<g id="Node000023" class="node">
<title>Node23</title>
<g id="a_Node000023"><a xlink:title=" ">
<polygon fill="#e0e0e0" stroke="#999999" points="1071.53,-24.5 1027.53,-24.5 1027.53,-5.5 1071.53,-5.5 1071.53,-24.5"/>
<text text-anchor="middle" x="1049.53" y="-12.5" font-family="Helvetica,sans-Serif" font-size="10.00">limits</text>
</a>
</g>
</g>
<!-- Node22&#45;&gt;Node23 -->
<g id="edge31_Node000022_Node000023" class="edge">
<title>Node22&#45;&gt;Node23</title>
<g id="a_edge31_Node000022_Node000023"><a xlink:title=" ">
<path fill="none" stroke="#63b8ff" d="M963.67,-65.95C982.2,-55.18 1007.63,-40.38 1026.01,-29.69"/>
<polygon fill="#63b8ff" stroke="#63b8ff" points="1028.01,-32.57 1034.89,-24.52 1024.49,-26.52 1028.01,-32.57"/>
</a>
</g>
</g>
<!-- Node24 -->
<g id="Node000024" class="node">
<title>Node24</title>
<g id="a_Node000024"><a xlink:title=" ">
<polygon fill="#e0e0e0" stroke="#999999" points="886.03,-24.5 821.03,-24.5 821.03,-5.5 886.03,-5.5 886.03,-24.5"/>
<text text-anchor="middle" x="853.53" y="-12.5" font-family="Helvetica,sans-Serif" font-size="10.00">functional</text>
</a>
</g>
</g>
<!-- Node22&#45;&gt;Node24 -->
<g id="edge32_Node000022_Node000024" class="edge">
<title>Node22&#45;&gt;Node24</title>
<g id="a_edge32_Node000022_Node000024"><a xlink:title=" ">
<path fill="none" stroke="#63b8ff" d="M920.45,-65.8C906.51,-55.43 887.67,-41.4 873.53,-30.88"/>
<polygon fill="#63b8ff" stroke="#63b8ff" points="875.53,-28.01 865.42,-24.84 871.35,-33.62 875.53,-28.01"/>
</a>
</g>
</g>
<!-- Node25&#45;&gt;Node22 -->
<g id="edge41_Node000025_Node000022" class="edge">
<title>Node25&#45;&gt;Node22</title>
<g id="a_edge41_Node000025_Node000022"><a xlink:title=" ">
<path fill="none" stroke="#63b8ff" d="M1122.94,-137.37C1090.51,-127.58 1036.81,-111.37 995.87,-99.01"/>
<polygon fill="#63b8ff" stroke="#63b8ff" points="996.88,-95.66 986.29,-96.12 994.85,-102.36 996.88,-95.66"/>
</a>
</g>
</g>
<!-- Node25&#45;&gt;Node23 -->
<g id="edge40_Node000025_Node000023" class="edge">
<title>Node25&#45;&gt;Node23</title>
<g id="a_edge40_Node000025_Node000023"><a xlink:title=" ">
<path fill="none" stroke="#63b8ff" d="M1144.84,-137.47C1128.2,-116.27 1084.73,-60.86 1062.72,-32.8"/>
<polygon fill="#63b8ff" stroke="#63b8ff" points="1065.31,-30.44 1056.38,-24.73 1059.8,-34.76 1065.31,-30.44"/>
</a>
</g>
</g>
<!-- Node26 -->
<g id="Node000026" class="node">
<title>Node26</title>
<g id="a_Node000026"><a xlink:href="Coordinate3D_8h.html" target="_top" xlink:title="Defines a templated 3D coordinate class with Boost.Serialization support.">
<polygon fill="white" stroke="#666666" points="1318.53,-90.5 1226.53,-90.5 1226.53,-71.5 1318.53,-71.5 1318.53,-90.5"/>
<text text-anchor="middle" x="1272.53" y="-78.5" font-family="Helvetica,sans-Serif" font-size="10.00">Coordinate3D.h</text>
</a>
</g>
</g>
<!-- Node25&#45;&gt;Node26 -->
<g id="edge34_Node000025_Node000026" class="edge">
<title>Node25&#45;&gt;Node26</title>
<g id="a_edge34_Node000025_Node000026"><a xlink:title=" ">
<path fill="none" stroke="#63b8ff" d="M1167.85,-137.37C1188.24,-126.59 1223.35,-108.02 1247.23,-95.38"/>
<polygon fill="#63b8ff" stroke="#63b8ff" points="1248.88,-98.47 1256.09,-90.7 1245.61,-92.28 1248.88,-98.47"/>
</a>
</g>
</g>
<!-- Node29 -->
<g id="Node000029" class="node">
<title>Node29</title>
<g id="a_Node000029"><a xlink:title=" ">
<polygon fill="#e0e0e0" stroke="#999999" points="1380.53,-90.5 1336.53,-90.5 1336.53,-71.5 1380.53,-71.5 1380.53,-90.5"/>
<text text-anchor="middle" x="1358.53" y="-78.5" font-family="Helvetica,sans-Serif" font-size="10.00">cfloat</text>
</a>
</g>
</g>
<!-- Node25&#45;&gt;Node29 -->
<g id="edge39_Node000025_Node000029" class="edge">
<title>Node25&#45;&gt;Node29</title>
<g id="a_edge39_Node000025_Node000029"><a xlink:title=" ">
<path fill="none" stroke="#63b8ff" d="M1187.42,-137.46C1223.34,-128.52 1279.95,-113.4 1327.53,-96 1328.75,-95.56 1329.99,-95.08 1331.23,-94.59"/>
<polygon fill="#63b8ff" stroke="#63b8ff" points="1332.84,-97.71 1340.69,-90.6 1330.11,-91.27 1332.84,-97.71"/>
</a>
</g>
</g>
<!-- Node26&#45;&gt;Node19 -->
<g id="edge36_Node000026_Node000019" class="edge">
<title>Node26&#45;&gt;Node19</title>
<g id="a_edge36_Node000026_Node000019"><a xlink:title=" ">
<path fill="none" stroke="#63b8ff" d="M1255.68,-71.37C1237.44,-62.03 1207.8,-46.86 1184.16,-34.75"/>
<polygon fill="#63b8ff" stroke="#63b8ff" points="1185.6,-31.56 1175.1,-30.12 1182.41,-37.79 1185.6,-31.56"/>
</a>
</g>
</g>
<!-- Node26&#45;&gt;Node20 -->
<g id="edge37_Node000026_Node000020" class="edge">
<title>Node26&#45;&gt;Node20</title>
<g id="a_edge37_Node000026_Node000020"><a xlink:title=" ">
<path fill="none" stroke="#63b8ff" d="M1273.75,-71.37C1274.87,-63.4 1276.58,-51.2 1278.12,-40.27"/>
<polygon fill="#63b8ff" stroke="#63b8ff" points="1281.59,-40.75 1279.51,-30.36 1274.66,-39.78 1281.59,-40.75"/>
</a>
</g>
</g>
<!-- Node27 -->
<g id="Node000027" class="node">
<title>Node27</title>
<g id="a_Node000027"><a xlink:title=" ">
<polygon fill="#e0e0e0" stroke="#999999" points="1465.03,-30 1358.03,-30 1358.03,0 1465.03,0 1465.03,-30"/>
<text text-anchor="start" x="1366.03" y="-18" font-family="Helvetica,sans-Serif" font-size="10.00">boost/serialization</text>
<text text-anchor="middle" x="1411.53" y="-7" font-family="Helvetica,sans-Serif" font-size="10.00">/access.hpp</text>
</a>
</g>
</g>
<!-- Node26&#45;&gt;Node27 -->
<g id="edge35_Node000026_Node000027" class="edge">
<title>Node26&#45;&gt;Node27</title>
<g id="a_edge35_Node000026_Node000027"><a xlink:title=" ">
<path fill="none" stroke="#63b8ff" d="M1291.28,-71.37C1311.74,-61.95 1345.1,-46.59 1371.5,-34.43"/>
<polygon fill="#63b8ff" stroke="#63b8ff" points="1373.26,-37.48 1380.88,-30.12 1370.33,-31.12 1373.26,-37.48"/>
</a>
</g>
</g>
<!-- Node28 -->
<g id="Node000028" class="node">
<title>Node28</title>
<g id="a_Node000028"><a xlink:title=" ">
<polygon fill="#e0e0e0" stroke="#999999" points="1538.03,-24.5 1483.03,-24.5 1483.03,-5.5 1538.03,-5.5 1538.03,-24.5"/>
<text text-anchor="middle" x="1510.53" y="-12.5" font-family="Helvetica,sans-Serif" font-size="10.00">fstream</text>
</a>
</g>
</g>
<!-- Node26&#45;&gt;Node28 -->
<g id="edge38_Node000026_Node000028" class="edge">
<title>Node26&#45;&gt;Node28</title>
<g id="a_edge38_Node000026_Node000028"><a xlink:title=" ">
<path fill="none" stroke="#63b8ff" d="M1305.97,-71.44C1313.08,-69.63 1320.56,-67.74 1327.53,-66 1392.79,-49.7 1410.39,-50.23 1474.53,-30 1476.4,-29.41 1478.32,-28.77 1480.24,-28.1"/>
<polygon fill="#63b8ff" stroke="#63b8ff" points="1481.58,-31.34 1489.76,-24.61 1479.16,-24.77 1481.58,-31.34"/>
</a>
</g>
</g>
</g>
</svg>

<g id="navigator" transform="translate(0 0)" fill="#404254">
  <rect fill="#f2f5e9" fill-opacity="0.5" stroke="#606060" stroke-width=".5" x="0" y="0" width="60" height="60"/>
  <use id="zoomplus" xlink:href="#zoomPlus" x="17" y="9" onmousedown="handleZoom(evt,'in')"/>
  <use id="zoomminus" xlink:href="#zoomMin" x="42" y="9" onmousedown="handleZoom(evt,'out')"/>
  <use id="reset" xlink:href="#resetDef" x="30" y="36" onmousedown="handleReset()"/>
   <use id="arrowup" xlink:href="#arrowUp" x="0" y="0" onmousedown="handlePan(0,-1)"/>
  <use id="arrowright" xlink:href="#arrowRight" x="0" y="0" onmousedown="handlePan(1,0)"/>
  <use id="arrowdown" xlink:href="#arrowDown" x="0" y="0" onmousedown="handlePan(0,1)"/>
  <use id="arrowleft" xlink:href="#arrowLeft" x="0" y="0" onmousedown="handlePan(-1,0)"/>
</g>
<svg viewBox="0 0 15 15" width="100%" height="30px" preserveAspectRatio="xMaxYMin meet">
 <g id="arrow_out" transform="scale(0.3 0.3)">
  <a xlink:href="Random_8h__incl_org.svg" target="_base">
   <rect id="button" ry="5" rx="5" y="6" x="6" height="38" width="38"
        fill="#f2f5e9" fill-opacity="0.5" stroke="#606060" stroke-width="1.0"/>
   <path id="arrow"
     d="M 11.500037,31.436501 C 11.940474,20.09759 22.043105,11.32322 32.158766,21.979434 L 37.068811,17.246167 C 37.068811,17.246167 37.088388,32 37.088388,32 L 22.160133,31.978069 C 22.160133,31.978069 26.997745,27.140456 26.997745,27.140456 C 18.528582,18.264221 13.291696,25.230495 11.500037,31.436501 z"
     style="fill:#404040;"/>
  </a>
 </g>
</svg>

<style type='text/css'>
<![CDATA[
[data-mouse-over-selected='false'] { opacity: 0.7; }
[data-mouse-over-selected='true']  { opacity: 1.0; }
]]>
</style>
<script type="application/ecmascript"><![CDATA[
document.addEventListener('DOMContentLoaded', (event) => {
  highlightEdges();
  highlightAdjacentNodes();
});
]]></script>
</svg>
