<?xml version="1.0" encoding="UTF-8" standalone="no"?>
<!DOCTYPE svg PUBLIC "-//W3C//DTD SVG 1.1//EN"
 "http://www.w3.org/Graphics/SVG/1.1/DTD/svg11.dtd">
<!-- Generated by graphviz version 2.43.0 (0)
 -->
<!-- Title: CellValue Pages: 1 -->
<svg width="1034pt" height="403pt"
 viewBox="0.00 0.00 1034.00 403.00" xmlns="http://www.w3.org/2000/svg" xmlns:xlink="http://www.w3.org/1999/xlink">
<g id="graph0" class="graph" transform="scale(1 1) rotate(0) translate(4 399)">
<title>CellValue</title>
<!-- Node1 -->
<g id="Node000001" class="node">
<title>Node1</title>
<g id="a_Node000001"><a xlink:title="Stores the evaluation of a terrain cell from the perspective of an animal.">
<polygon fill="#999999" stroke="#666666" points="1011,-335 949,-335 949,-316 1011,-316 1011,-335"/>
<text text-anchor="middle" x="980" y="-323" font-family="Helvetica,sans-Serif" font-size="10.00">CellValue</text>
</a>
</g>
</g>
<!-- Node2 -->
<g id="Node000002" class="node">
<title>Node2</title>
<g id="a_Node000002"><a xlink:href="classEdible.html" target="_top" xlink:title="Represents a generic edible entity within a terrain cell.">
<polygon fill="white" stroke="#666666" points="750,-335 703,-335 703,-316 750,-316 750,-335"/>
<text text-anchor="middle" x="726.5" y="-323" font-family="Helvetica,sans-Serif" font-size="10.00">Edible</text>
</a>
</g>
</g>
<!-- Node2&#45;&gt;Node1 -->
<g id="edge1_Node000001_Node000002" class="edge">
<title>Node2&#45;&gt;Node1</title>
<g id="a_edge1_Node000001_Node000002"><a xlink:title=" ">
<path fill="none" stroke="#9a32cd" stroke-dasharray="5,2" d="M760.35,-325.5C809.44,-325.5 901.26,-325.5 948.78,-325.5"/>
<polygon fill="#9a32cd" stroke="#9a32cd" points="760.26,-322 750.26,-325.5 760.26,-329 760.26,-322"/>
</a>
</g>
<text text-anchor="middle" x="868.5" y="-328.5" font-family="Helvetica,sans-Serif" font-size="10.00" fill="grey"> bestEdibility</text>
</g>
<!-- Node3 -->
<g id="Node000003" class="node">
<title>Node3</title>
<g id="a_Node000003"><a xlink:href="classEdibleID.html" target="_top" xlink:title="Encapsulates a unique identifier for an edible object or resource.">
<polygon fill="white" stroke="#666666" points="383.5,-332 326.5,-332 326.5,-313 383.5,-313 383.5,-332"/>
<text text-anchor="middle" x="355" y="-320" font-family="Helvetica,sans-Serif" font-size="10.00">EdibleID</text>
</a>
</g>
</g>
<!-- Node3&#45;&gt;Node2 -->
<g id="edge2_Node000002_Node000003" class="edge">
<title>Node3&#45;&gt;Node2</title>
<g id="a_edge2_Node000002_Node000003"><a xlink:title=" ">
<path fill="none" stroke="#9a32cd" stroke-dasharray="5,2" d="M393.92,-322.81C470.39,-323.43 641.08,-324.81 702.73,-325.32"/>
<polygon fill="#9a32cd" stroke="#9a32cd" points="393.8,-319.31 383.77,-322.73 393.74,-326.31 393.8,-319.31"/>
</a>
</g>
<text text-anchor="middle" x="550.5" y="-327.5" font-family="Helvetica,sans-Serif" font-size="10.00" fill="grey"> id</text>
</g>
<!-- Node4 -->
<g id="Node000004" class="node">
<title>Node4</title>
<g id="a_Node000004"><a xlink:href="classSpecies.html" target="_top" xlink:title="Represents a generic species in the ecosystem.">
<polygon fill="white" stroke="#666666" points="382,-369 328,-369 328,-350 382,-350 382,-369"/>
<text text-anchor="middle" x="355" y="-357" font-family="Helvetica,sans-Serif" font-size="10.00">Species</text>
</a>
</g>
</g>
<!-- Node4&#45;&gt;Node2 -->
<g id="edge3_Node000002_Node000004" class="edge">
<title>Node4&#45;&gt;Node2</title>
<g id="a_edge3_Node000002_Node000004"><a xlink:title=" ">
<path fill="none" stroke="#9a32cd" stroke-dasharray="5,2" d="M392.52,-357.15C445.4,-353.62 546.34,-346.41 632,-337.5 656.25,-334.98 683.95,-331.33 702.86,-328.72"/>
<polygon fill="#9a32cd" stroke="#9a32cd" points="392.04,-353.67 382.3,-357.83 392.51,-360.66 392.04,-353.67"/>
</a>
</g>
<text text-anchor="middle" x="550.5" y="-353.5" font-family="Helvetica,sans-Serif" font-size="10.00" fill="grey"> mySpecies</text>
</g>
<!-- Node5 -->
<g id="Node000005" class="node">
<title>Node5</title>
<g id="a_Node000005"><a xlink:href="classSpecies_1_1ID.html" target="_top" xlink:title="Unique identifier for a Species.">
<polygon fill="white" stroke="#666666" points="113,-347 42,-347 42,-328 113,-328 113,-347"/>
<text text-anchor="middle" x="77.5" y="-335" font-family="Helvetica,sans-Serif" font-size="10.00">Species::ID</text>
</a>
</g>
</g>
<!-- Node5&#45;&gt;Node4 -->
<g id="edge4_Node000004_Node000005" class="edge">
<title>Node5&#45;&gt;Node4</title>
<g id="a_edge4_Node000004_Node000005"><a xlink:title=" ">
<path fill="none" stroke="#9a32cd" stroke-dasharray="5,2" d="M123.29,-335.64C155.99,-334.81 201.34,-334.72 241,-338.5 245.32,-338.91 295.97,-348.47 327.98,-354.54"/>
<polygon fill="#9a32cd" stroke="#9a32cd" points="123.04,-332.15 113.14,-335.94 123.24,-339.15 123.04,-332.15"/>
</a>
</g>
<text text-anchor="middle" x="207" y="-341.5" font-family="Helvetica,sans-Serif" font-size="10.00" fill="grey"> id</text>
</g>
<!-- Node6 -->
<g id="Node000006" class="node">
<title>Node6</title>
<g id="a_Node000006"><a xlink:href="classTerrainCell.html" target="_top" xlink:title="Represents a single cell in the landscape.">
<polygon fill="white" stroke="#666666" points="389,-268 321,-268 321,-249 389,-249 389,-268"/>
<text text-anchor="middle" x="355" y="-256" font-family="Helvetica,sans-Serif" font-size="10.00">TerrainCell</text>
</a>
</g>
</g>
<!-- Node6&#45;&gt;Node2 -->
<g id="edge5_Node000002_Node000006" class="edge">
<title>Node6&#45;&gt;Node2</title>
<g id="a_edge5_Node000002_Node000006"><a xlink:title=" ">
<path fill="none" stroke="#9a32cd" stroke-dasharray="5,2" d="M399.14,-265.96C453.48,-275.4 549.73,-292.28 632,-307.5 656.22,-311.98 683.92,-317.34 702.85,-321.04"/>
<polygon fill="#9a32cd" stroke="#9a32cd" points="399.62,-262.49 389.17,-264.23 398.42,-269.39 399.62,-262.49"/>
</a>
</g>
<text text-anchor="middle" x="550.5" y="-310.5" font-family="Helvetica,sans-Serif" font-size="10.00" fill="grey"> terrainCell</text>
</g>
<!-- Node7 -->
<g id="Node000007" class="node">
<title>Node7</title>
<g id="a_Node000007"><a xlink:href="classPatchApplicator.html" target="_top" xlink:title="Applies patches to a TerrainCell including moisture, resources, obstacles, and habitat domains.">
<polygon fill="white" stroke="#666666" points="1026,-137 934,-137 934,-118 1026,-118 1026,-137"/>
<text text-anchor="middle" x="980" y="-125" font-family="Helvetica,sans-Serif" font-size="10.00">PatchApplicator</text>
</a>
</g>
</g>
<!-- Node6&#45;&gt;Node7 -->
<g id="edge7_Node000007_Node000006" class="edge">
<title>Node6&#45;&gt;Node7</title>
<g id="a_edge7_Node000007_Node000006"><a xlink:title=" ">
<path fill="none" stroke="#9a32cd" stroke-dasharray="5,2" d="M399.21,-250C493.32,-231.39 723.8,-185.28 916,-142.5 923.68,-140.79 931.87,-138.89 939.72,-137.04"/>
<polygon fill="#9a32cd" stroke="#9a32cd" points="398.34,-246.6 389.21,-251.98 399.7,-253.47 398.34,-246.6"/>
</a>
</g>
<text text-anchor="middle" x="726.5" y="-202.5" font-family="Helvetica,sans-Serif" font-size="10.00" fill="grey"> owner</text>
</g>
<!-- Node7&#45;&gt;Node6 -->
<g id="edge6_Node000006_Node000007" class="edge">
<title>Node7&#45;&gt;Node6</title>
<g id="a_edge6_Node000006_Node000007"><a xlink:title=" ">
<path fill="none" stroke="#9a32cd" stroke-dasharray="5,2" d="M972.76,-146.68C964.08,-169.87 945.98,-207.97 916,-225.5 826.04,-278.11 495.16,-265.82 389.01,-260.37"/>
<polygon fill="#9a32cd" stroke="#9a32cd" points="976.08,-147.79 976.09,-137.2 969.47,-145.47 976.08,-147.79"/>
</a>
</g>
<text text-anchor="middle" x="726.5" y="-268.5" font-family="Helvetica,sans-Serif" font-size="10.00" fill="grey"> patchApplicator</text>
</g>
<!-- Node8 -->
<g id="Node000008" class="node">
<title>Node8</title>
<g id="a_Node000008"><a xlink:href="classCellMoistureInterface.html" target="_top" xlink:title="Base interface representing the hydrological and thermal properties of a terrain cell.">
<polygon fill="white" stroke="#666666" points="787.5,-100 665.5,-100 665.5,-81 787.5,-81 787.5,-100"/>
<text text-anchor="middle" x="726.5" y="-88" font-family="Helvetica,sans-Serif" font-size="10.00">CellMoistureInterface</text>
</a>
</g>
</g>
<!-- Node8&#45;&gt;Node7 -->
<g id="edge8_Node000007_Node000008" class="edge">
<title>Node8&#45;&gt;Node7</title>
<g id="a_edge8_Node000007_Node000008"><a xlink:title=" ">
<path fill="none" stroke="#9a32cd" stroke-dasharray="5,2" d="M797.89,-96.73C833.44,-100.38 877.17,-105.64 916,-112.5 924.53,-114.01 933.62,-115.96 942.17,-117.97"/>
<polygon fill="#9a32cd" stroke="#9a32cd" points="797.91,-93.22 787.61,-95.7 797.21,-100.18 797.91,-93.22"/>
</a>
</g>
<text text-anchor="middle" x="868.5" y="-115.5" font-family="Helvetica,sans-Serif" font-size="10.00" fill="grey"> cellMoisture</text>
</g>
<!-- Node9 -->
<g id="Node000009" class="node">
<title>Node9</title>
<g id="a_Node000009"><a xlink:href="classCellElement.html" target="_top" xlink:title="Base class for any modifiable element contained within a terrain cell.">
<polygon fill="white" stroke="#666666" points="393,-115 317,-115 317,-96 393,-96 393,-115"/>
<text text-anchor="middle" x="355" y="-103" font-family="Helvetica,sans-Serif" font-size="10.00">CellElement</text>
</a>
</g>
</g>
<!-- Node9&#45;&gt;Node8 -->
<g id="edge9_Node000008_Node000009" class="edge">
<title>Node9&#45;&gt;Node8</title>
<g id="a_edge9_Node000008_Node000009"><a xlink:title=" ">
<path fill="none" stroke="#63b8ff" d="M403.36,-103.58C470.18,-100.86 592.14,-95.91 665.31,-92.94"/>
<polygon fill="#63b8ff" stroke="#63b8ff" points="402.97,-100.09 393.12,-103.99 403.25,-107.08 402.97,-100.09"/>
</a>
</g>
</g>
<!-- Node12 -->
<g id="Node000012" class="node">
<title>Node12</title>
<g id="a_Node000012"><a xlink:href="classCellObstacleInterface.html" target="_top" xlink:title="Interface for managing obstacles in a terrain cell.">
<polygon fill="white" stroke="#666666" points="787.5,-137 665.5,-137 665.5,-118 787.5,-118 787.5,-137"/>
<text text-anchor="middle" x="726.5" y="-125" font-family="Helvetica,sans-Serif" font-size="10.00">CellObstacleInterface</text>
</a>
</g>
</g>
<!-- Node9&#45;&gt;Node12 -->
<g id="edge13_Node000012_Node000009" class="edge">
<title>Node9&#45;&gt;Node12</title>
<g id="a_edge13_Node000012_Node000009"><a xlink:title=" ">
<path fill="none" stroke="#63b8ff" d="M403.36,-108.47C423.58,-109.73 447.45,-111.2 469,-112.5 536.24,-116.55 613.39,-121.04 665.38,-124.04"/>
<polygon fill="#63b8ff" stroke="#63b8ff" points="403.35,-104.96 393.15,-107.83 402.91,-111.95 403.35,-104.96"/>
</a>
</g>
</g>
<!-- Node13 -->
<g id="Node000013" class="node">
<title>Node13</title>
<g id="a_Node000013"><a xlink:href="classCellHabitatDomainInterface.html" target="_top" xlink:title="Represents the habitat&#45;domain information associated with a terrain cell.">
<polygon fill="white" stroke="#666666" points="803,-63 650,-63 650,-44 803,-44 803,-63"/>
<text text-anchor="middle" x="726.5" y="-51" font-family="Helvetica,sans-Serif" font-size="10.00">CellHabitatDomainInterface</text>
</a>
</g>
</g>
<!-- Node9&#45;&gt;Node13 -->
<g id="edge15_Node000013_Node000009" class="edge">
<title>Node9&#45;&gt;Node13</title>
<g id="a_edge15_Node000013_Node000009"><a xlink:title=" ">
<path fill="none" stroke="#63b8ff" d="M403.42,-98.83C468.03,-89.73 584.12,-73.4 657.86,-63.02"/>
<polygon fill="#63b8ff" stroke="#63b8ff" points="402.54,-95.42 393.12,-100.28 403.51,-102.35 402.54,-95.42"/>
</a>
</g>
</g>
<!-- Node10 -->
<g id="Node000010" class="node">
<title>Node10</title>
<g id="a_Node000010"><a xlink:href="classWetMass.html" target="_top" xlink:title="Represents wet mass in the ecosystem simulation.">
<polygon fill="white" stroke="#666666" points="385.5,-78 324.5,-78 324.5,-59 385.5,-59 385.5,-78"/>
<text text-anchor="middle" x="355" y="-66" font-family="Helvetica,sans-Serif" font-size="10.00">WetMass</text>
</a>
</g>
</g>
<!-- Node10&#45;&gt;Node8 -->
<g id="edge10_Node000008_Node000010" class="edge">
<title>Node10&#45;&gt;Node8</title>
<g id="a_edge10_Node000008_Node000010"><a xlink:title=" ">
<path fill="none" stroke="#9a32cd" stroke-dasharray="5,2" d="M395.98,-69.45C449.71,-70.9 548.15,-74.2 632,-80.5 642.83,-81.31 654.34,-82.38 665.45,-83.51"/>
<polygon fill="#9a32cd" stroke="#9a32cd" points="395.94,-65.94 385.85,-69.18 395.76,-72.94 395.94,-65.94"/>
</a>
</g>
<text text-anchor="middle" x="550.5" y="-83.5" font-family="Helvetica,sans-Serif" font-size="10.00" fill="grey"> totalMaximumResourceCapacity</text>
</g>
<!-- Node11 -->
<g id="Node000011" class="node">
<title>Node11</title>
<g id="a_Node000011"><a xlink:href="classPreciseDouble.html" target="_top" xlink:title="Class for precise double&#45;precision floating&#45;point arithmetic.">
<polygon fill="white" stroke="#666666" points="120.5,-175 34.5,-175 34.5,-156 120.5,-156 120.5,-175"/>
<text text-anchor="middle" x="77.5" y="-163" font-family="Helvetica,sans-Serif" font-size="10.00">PreciseDouble</text>
</a>
</g>
</g>
<!-- Node11&#45;&gt;Node1 -->
<g id="edge21_Node000001_Node000011" class="edge">
<title>Node11&#45;&gt;Node1</title>
<g id="a_edge21_Node000001_Node000011"><a xlink:title=" ">
<path fill="none" stroke="#9a32cd" stroke-dasharray="5,2" d="M130.87,-162.08C275.87,-153.3 679.93,-133.75 803,-179.5 881.15,-208.55 949.52,-288.19 971.56,-315.87"/>
<polygon fill="#9a32cd" stroke="#9a32cd" points="130.66,-158.58 120.89,-162.69 131.09,-165.57 130.66,-158.58"/>
</a>
</g>
<text text-anchor="middle" x="550.5" y="-157.5" font-family="Helvetica,sans-Serif" font-size="10.00" fill="grey"> valuePerceived</text>
</g>
<!-- Node11&#45;&gt;Node6 -->
<g id="edge18_Node000006_Node000011" class="edge">
<title>Node11&#45;&gt;Node6</title>
<g id="a_edge18_Node000006_Node000011"><a xlink:title=" ">
<path fill="none" stroke="#9a32cd" stroke-dasharray="5,2" d="M116.22,-178.23C172.12,-197.1 275.72,-232.07 325.65,-248.93"/>
<polygon fill="#9a32cd" stroke="#9a32cd" points="117.28,-174.9 106.69,-175.02 115.04,-181.53 117.28,-174.9"/>
</a>
</g>
<text text-anchor="middle" x="207" y="-234.5" font-family="Helvetica,sans-Serif" font-size="10.00" fill="grey"> hyperVolume</text>
<text text-anchor="middle" x="207" y="-223.5" font-family="Helvetica,sans-Serif" font-size="10.00" fill="grey">size</text>
</g>
<!-- Node11&#45;&gt;Node10 -->
<g id="edge11_Node000010_Node000011" class="edge">
<title>Node11&#45;&gt;Node10</title>
<g id="a_edge11_Node000010_Node000011"><a xlink:title=" ">
<path fill="none" stroke="#9a32cd" stroke-dasharray="5,2" d="M105.71,-151.27C140.41,-133.67 202.69,-103.91 259,-86.5 280.49,-79.85 305.51,-75.23 324.48,-72.34"/>
<polygon fill="#9a32cd" stroke="#9a32cd" points="103.99,-148.22 96.68,-155.89 107.18,-154.45 103.99,-148.22"/>
</a>
</g>
<text text-anchor="middle" x="207" y="-122.5" font-family="Helvetica,sans-Serif" font-size="10.00" fill="grey"> value</text>
</g>
<!-- Node12&#45;&gt;Node7 -->
<g id="edge12_Node000007_Node000012" class="edge">
<title>Node12&#45;&gt;Node7</title>
<g id="a_edge12_Node000007_Node000012"><a xlink:title=" ">
<path fill="none" stroke="#9a32cd" stroke-dasharray="5,2" d="M797.98,-127.5C841.5,-127.5 896.04,-127.5 933.82,-127.5"/>
<polygon fill="#9a32cd" stroke="#9a32cd" points="797.74,-124 787.74,-127.5 797.74,-131 797.74,-124"/>
</a>
</g>
<text text-anchor="middle" x="868.5" y="-130.5" font-family="Helvetica,sans-Serif" font-size="10.00" fill="grey"> cellObstacle</text>
</g>
<!-- Node13&#45;&gt;Node7 -->
<g id="edge14_Node000007_Node000013" class="edge">
<title>Node13&#45;&gt;Node7</title>
<g id="a_edge14_Node000007_Node000013"><a xlink:title=" ">
<path fill="none" stroke="#9a32cd" stroke-dasharray="5,2" d="M813.38,-60.38C846.31,-64.99 883.71,-72.67 916,-85.5 935.79,-93.36 955.76,-108.09 967.76,-117.85"/>
<polygon fill="#9a32cd" stroke="#9a32cd" points="813.69,-56.89 803.31,-59.05 812.77,-63.83 813.69,-56.89"/>
</a>
</g>
<text text-anchor="middle" x="868.5" y="-88.5" font-family="Helvetica,sans-Serif" font-size="10.00" fill="grey"> cellHabitatDomain</text>
</g>
<!-- Node14 -->
<g id="Node000014" class="node">
<title>Node14</title>
<g id="a_Node000014"><a xlink:href="classCustomIndexedVector.html" target="_top" xlink:title=" ">
<polygon fill="white" stroke="#666666" points="451,-41 259,-41 259,0 451,0 451,-41"/>
<text text-anchor="start" x="267" y="-29" font-family="Helvetica,sans-Serif" font-size="10.00">CustomIndexedVector</text>
<text text-anchor="start" x="267" y="-18" font-family="Helvetica,sans-Serif" font-size="10.00">&lt; AnimalSpeciesID, CustomIndexed</text>
<text text-anchor="middle" x="355" y="-7" font-family="Helvetica,sans-Serif" font-size="10.00">Vector&lt; Instar, bool &gt; &gt;</text>
</a>
</g>
</g>
<!-- Node14&#45;&gt;Node13 -->
<g id="edge16_Node000013_Node000014" class="edge">
<title>Node14&#45;&gt;Node13</title>
<g id="a_edge16_Node000013_Node000014"><a xlink:title=" ">
<path fill="none" stroke="#9a32cd" stroke-dasharray="5,2" d="M461.45,-29.92C521.58,-35.29 595.54,-41.89 649.87,-46.75"/>
<polygon fill="#9a32cd" stroke="#9a32cd" points="461.43,-26.4 451.16,-29 460.8,-33.37 461.43,-26.4"/>
</a>
</g>
<text text-anchor="middle" x="550.5" y="-48.5" font-family="Helvetica,sans-Serif" font-size="10.00" fill="grey"> habitatDomainStatus</text>
</g>
<!-- Node15 -->
<g id="Node000015" class="node">
<title>Node15</title>
<g id="a_Node000015"><a xlink:href="classPointMap.html" target="_top" xlink:title="Represents a point in a discrete map coordinate system.">
<polygon fill="white" stroke="#666666" points="108.5,-395 46.5,-395 46.5,-376 108.5,-376 108.5,-395"/>
<text text-anchor="middle" x="77.5" y="-383" font-family="Helvetica,sans-Serif" font-size="10.00">PointMap</text>
</a>
</g>
</g>
<!-- Node15&#45;&gt;Node1 -->
<g id="edge20_Node000001_Node000015" class="edge">
<title>Node15&#45;&gt;Node1</title>
<g id="a_edge20_Node000001_Node000015"><a xlink:title=" ">
<path fill="none" stroke="#9a32cd" stroke-dasharray="5,2" d="M118.88,-385.13C151.76,-384.8 199.38,-384.25 241,-383.5 541.56,-378.07 619.27,-388.62 916,-340.5 926.77,-338.75 938.42,-336.18 948.74,-333.65"/>
<polygon fill="#9a32cd" stroke="#9a32cd" points="118.72,-381.63 108.75,-385.23 118.78,-388.63 118.72,-381.63"/>
</a>
</g>
<text text-anchor="middle" x="550.5" y="-383.5" font-family="Helvetica,sans-Serif" font-size="10.00" fill="grey"> cellPosition</text>
</g>
<!-- Node15&#45;&gt;Node6 -->
<g id="edge17_Node000006_Node000015" class="edge">
<title>Node15&#45;&gt;Node6</title>
<g id="a_edge17_Node000006_Node000015"><a xlink:title=" ">
<path fill="none" stroke="#9a32cd" stroke-dasharray="5,2" d="M118.71,-380.95C160.69,-375.46 222.9,-364.99 241,-349.5 257.68,-335.22 244.02,-319.55 259,-303.5 275.56,-285.75 300.55,-274.3 320.75,-267.39"/>
<polygon fill="#9a32cd" stroke="#9a32cd" points="118.26,-377.48 108.77,-382.21 119.13,-384.43 118.26,-377.48"/>
</a>
</g>
<text text-anchor="middle" x="207" y="-374.5" font-family="Helvetica,sans-Serif" font-size="10.00" fill="grey"> position</text>
</g>
<!-- Node16 -->
<g id="Node000016" class="node">
<title>Node16</title>
<g id="a_Node000016"><a xlink:href="classCustomIndexedVector.html" target="_top" xlink:title="A vector container indexed by a custom type with bounds checking.">
<polygon fill="white" stroke="#666666" points="155,-273.5 0,-273.5 0,-243.5 155,-243.5 155,-273.5"/>
<text text-anchor="start" x="8" y="-261.5" font-family="Helvetica,sans-Serif" font-size="10.00">CustomIndexedVector</text>
<text text-anchor="middle" x="77.5" y="-250.5" font-family="Helvetica,sans-Serif" font-size="10.00">&lt; IndexType, ContentType &gt;</text>
</a>
</g>
</g>
<!-- Node16&#45;&gt;Node6 -->
<g id="edge19_Node000006_Node000016" class="edge">
<title>Node16&#45;&gt;Node6</title>
<g id="a_edge19_Node000006_Node000016"><a xlink:title=" ">
<path fill="none" stroke="#9a32cd" stroke-dasharray="5,2" d="M165.3,-258.5C218.11,-258.5 282.55,-258.5 320.82,-258.5"/>
<polygon fill="#9a32cd" stroke="#9a32cd" points="165.24,-255 155.24,-258.5 165.24,-262 165.24,-255"/>
</a>
</g>
<text text-anchor="middle" x="207" y="-261.5" font-family="Helvetica,sans-Serif" font-size="10.00" fill="grey"> animals</text>
</g>
</g>
</svg>
