<?xml version="1.0" encoding="UTF-8" standalone="no"?>
<!DOCTYPE svg PUBLIC "-//W3C//DTD SVG 1.1//EN"
 "http://www.w3.org/Graphics/SVG/1.1/DTD/svg11.dtd">
<!-- Generated by graphviz version 2.43.0 (0)
 -->
<!-- Title: SpeciesLevelTrait Pages: 1 -->
<svg width="234pt" height="93pt"
 viewBox="0.00 0.00 233.50 93.00" xmlns="http://www.w3.org/2000/svg" xmlns:xlink="http://www.w3.org/1999/xlink">
<g id="graph0" class="graph" transform="scale(1 1) rotate(0) translate(4 89)">
<title>SpeciesLevelTrait</title>
<!-- Node1 -->
<g id="Node000001" class="node">
<title>Node1</title>
<g id="a_Node000001"><a xlink:title="Represents a trait that is constant for all individuals of a species.">
<polygon fill="#999999" stroke="#666666" points="172,-19 71,-19 71,0 172,0 172,-19"/>
<text text-anchor="middle" x="121.5" y="-7" font-family="Helvetica,sans-Serif" font-size="10.00">SpeciesLevelTrait</text>
</a>
</g>
</g>
<!-- Node2 -->
<g id="Node000002" class="node">
<title>Node2</title>
<g id="a_Node000002"><a xlink:href="classTraitDefinitionSection.html" target="_top" xlink:title="Represents the definition of a trait, either at the species or individual level.">
<polygon fill="white" stroke="#666666" points="121,-85 0,-85 0,-66 121,-66 121,-85"/>
<text text-anchor="middle" x="60.5" y="-73" font-family="Helvetica,sans-Serif" font-size="10.00">TraitDefinitionSection</text>
</a>
</g>
</g>
<!-- Node2&#45;&gt;Node1 -->
<g id="edge1_Node000001_Node000002" class="edge">
<title>Node2&#45;&gt;Node1</title>
<g id="a_edge1_Node000001_Node000002"><a xlink:title=" ">
<path fill="none" stroke="#63b8ff" d="M75.77,-58.48C87.55,-46.12 103.4,-29.49 113.01,-19.41"/>
<polygon fill="#63b8ff" stroke="#63b8ff" points="73.09,-56.22 68.73,-65.87 78.16,-61.04 73.09,-56.22"/>
</a>
</g>
</g>
<!-- Node3 -->
<g id="Node000003" class="node">
<title>Node3</title>
<g id="a_Node000003"><a xlink:href="classPreciseDouble.html" target="_top" xlink:title="Class for precise double&#45;precision floating&#45;point arithmetic.">
<polygon fill="white" stroke="#666666" points="225.5,-85 139.5,-85 139.5,-66 225.5,-66 225.5,-85"/>
<text text-anchor="middle" x="182.5" y="-73" font-family="Helvetica,sans-Serif" font-size="10.00">PreciseDouble</text>
</a>
</g>
</g>
<!-- Node3&#45;&gt;Node1 -->
<g id="edge2_Node000001_Node000003" class="edge">
<title>Node3&#45;&gt;Node1</title>
<g id="a_edge2_Node000001_Node000003"><a xlink:title=" ">
<path fill="none" stroke="#9a32cd" stroke-dasharray="5,2" d="M167.23,-58.48C155.45,-46.12 139.6,-29.49 129.99,-19.41"/>
<polygon fill="#9a32cd" stroke="#9a32cd" points="164.84,-61.04 174.27,-65.87 169.91,-56.22 164.84,-61.04"/>
</a>
</g>
<text text-anchor="middle" x="171" y="-40" font-family="Helvetica,sans-Serif" font-size="10.00" fill="grey"> value</text>
</g>
</g>
</svg>
