<?xml version="1.0" encoding="UTF-8" standalone="no"?>
<!DOCTYPE svg PUBLIC "-//W3C//DTD SVG 1.1//EN"
 "http://www.w3.org/Graphics/SVG/1.1/DTD/svg11.dtd">
<!-- Generated by graphviz version 2.43.0 (0)
 -->
<!-- Title: PathSource Pages: 1 -->
<svg width="466pt" height="82pt"
 viewBox="0.00 0.00 465.50 82.00" xmlns="http://www.w3.org/2000/svg" xmlns:xlink="http://www.w3.org/1999/xlink">
<g id="graph0" class="graph" transform="scale(1 1) rotate(0) translate(4 78)">
<title>PathSource</title>
<!-- Node1 -->
<g id="Node000001" class="node">
<title>Node1</title>
<g id="a_Node000001"><a xlink:title="Abstract base class for landscape data sources.">
<polygon fill="#999999" stroke="#666666" points="278.5,-74 207.5,-74 207.5,-55 278.5,-55 278.5,-74"/>
<text text-anchor="middle" x="243" y="-62" font-family="Helvetica,sans-Serif" font-size="10.00">PathSource</text>
</a>
</g>
</g>
<!-- Node2 -->
<g id="Node000002" class="node">
<title>Node2</title>
<g id="a_Node000002"><a xlink:href="classHabitatDomainSource.html" target="_top" xlink:title="Represents habitat domain information for animals in the landscape.">
<polygon fill="white" stroke="#666666" points="124,-19 0,-19 0,0 124,0 124,-19"/>
<text text-anchor="middle" x="62" y="-7" font-family="Helvetica,sans-Serif" font-size="10.00">HabitatDomainSource</text>
</a>
</g>
</g>
<!-- Node1&#45;&gt;Node2 -->
<g id="edge1_Node000001_Node000002" class="edge">
<title>Node1&#45;&gt;Node2</title>
<g id="a_edge1_Node000001_Node000002"><a xlink:title=" ">
<path fill="none" stroke="#63b8ff" d="M203.92,-52.06C170.09,-42.15 121.92,-28.04 91.31,-19.08"/>
<polygon fill="#63b8ff" stroke="#63b8ff" points="203.34,-55.53 213.92,-54.98 205.31,-48.82 203.34,-55.53"/>
</a>
</g>
</g>
<!-- Node3 -->
<g id="Node000003" class="node">
<title>Node3</title>
<g id="a_Node000003"><a xlink:href="classMoistureSource.html" target="_top" xlink:title="Represents a moisture source in the landscape.">
<polygon fill="white" stroke="#666666" points="234,-19 142,-19 142,0 234,0 234,-19"/>
<text text-anchor="middle" x="188" y="-7" font-family="Helvetica,sans-Serif" font-size="10.00">MoistureSource</text>
</a>
</g>
</g>
<!-- Node1&#45;&gt;Node3 -->
<g id="edge2_Node000001_Node000003" class="edge">
<title>Node1&#45;&gt;Node3</title>
<g id="a_edge2_Node000001_Node000003"><a xlink:title=" ">
<path fill="none" stroke="#63b8ff" d="M226.71,-47.8C216.96,-38.41 204.95,-26.83 196.91,-19.09"/>
<polygon fill="#63b8ff" stroke="#63b8ff" points="224.29,-50.33 233.92,-54.75 229.15,-45.29 224.29,-50.33"/>
</a>
</g>
</g>
<!-- Node4 -->
<g id="Node000004" class="node">
<title>Node4</title>
<g id="a_Node000004"><a xlink:href="classObstacleSource.html" target="_top" xlink:title="Represents an obstacle source in the landscape.">
<polygon fill="white" stroke="#666666" points="344,-19 252,-19 252,0 344,0 344,-19"/>
<text text-anchor="middle" x="298" y="-7" font-family="Helvetica,sans-Serif" font-size="10.00">ObstacleSource</text>
</a>
</g>
</g>
<!-- Node1&#45;&gt;Node4 -->
<g id="edge3_Node000001_Node000004" class="edge">
<title>Node1&#45;&gt;Node4</title>
<g id="a_edge3_Node000001_Node000004"><a xlink:title=" ">
<path fill="none" stroke="#63b8ff" d="M259.29,-47.8C269.04,-38.41 281.05,-26.83 289.09,-19.09"/>
<polygon fill="#63b8ff" stroke="#63b8ff" points="256.85,-45.29 252.08,-54.75 261.71,-50.33 256.85,-45.29"/>
</a>
</g>
</g>
<!-- Node5 -->
<g id="Node000005" class="node">
<title>Node5</title>
<g id="a_Node000005"><a xlink:href="classResourceSource.html" target="_top" xlink:title="Represents a resource source in the landscape.">
<polygon fill="white" stroke="#666666" points="457.5,-19 362.5,-19 362.5,0 457.5,0 457.5,-19"/>
<text text-anchor="middle" x="410" y="-7" font-family="Helvetica,sans-Serif" font-size="10.00">ResourceSource</text>
</a>
</g>
</g>
<!-- Node1&#45;&gt;Node5 -->
<g id="edge4_Node000001_Node000005" class="edge">
<title>Node1&#45;&gt;Node5</title>
<g id="a_edge4_Node000001_Node000005"><a xlink:title=" ">
<path fill="none" stroke="#63b8ff" d="M279.46,-51.93C310.66,-42.03 354.84,-28.01 382.96,-19.08"/>
<polygon fill="#63b8ff" stroke="#63b8ff" points="278.3,-48.62 269.83,-54.98 280.42,-55.3 278.3,-48.62"/>
</a>
</g>
</g>
</g>
</svg>
