<?xml version="1.0" encoding="UTF-8" standalone="no"?>
<!DOCTYPE svg PUBLIC "-//W3C//DTD SVG 1.1//EN"
 "http://www.w3.org/Graphics/SVG/1.1/DTD/svg11.dtd">
<!-- Generated by graphviz version 2.43.0 (0)
 -->
<!-- Title: BranchCellResource Pages: 1 -->
<svg width="2349pt" height="453pt"
 viewBox="0.00 0.00 2349.00 453.00" xmlns="http://www.w3.org/2000/svg" xmlns:xlink="http://www.w3.org/1999/xlink">
<g id="graph0" class="graph" transform="scale(1 1) rotate(0) translate(4 449)">
<title>BranchCellResource</title>
<!-- Node1 -->
<g id="Node000001" class="node">
<title>Node1</title>
<g id="a_Node000001"><a xlink:title="Resource representation for branch nodes in a spatial tree.">
<polygon fill="#999999" stroke="#666666" points="2341,-234.5 2227,-234.5 2227,-215.5 2341,-215.5 2341,-234.5"/>
<text text-anchor="middle" x="2284" y="-222.5" font-family="Helvetica,sans-Serif" font-size="10.00">BranchCellResource</text>
</a>
</g>
</g>
<!-- Node2 -->
<g id="Node000002" class="node">
<title>Node2</title>
<g id="a_Node000002"><a xlink:href="classCellResourceInterface.html" target="_top" xlink:title="Interface for a resource in a terrain cell.">
<polygon fill="white" stroke="#666666" points="1672,-253.5 1548,-253.5 1548,-234.5 1672,-234.5 1672,-253.5"/>
<text text-anchor="middle" x="1610" y="-241.5" font-family="Helvetica,sans-Serif" font-size="10.00">CellResourceInterface</text>
</a>
</g>
</g>
<!-- Node2&#45;&gt;Node1 -->
<g id="edge1_Node000001_Node000002" class="edge">
<title>Node2&#45;&gt;Node1</title>
<g id="a_edge1_Node000001_Node000002"><a xlink:title=" ">
<path fill="none" stroke="#63b8ff" d="M1682.32,-243.35C1794.47,-242.09 2018.87,-238.64 2209,-230 2214.79,-229.74 2220.83,-229.41 2226.85,-229.05"/>
<polygon fill="#63b8ff" stroke="#63b8ff" points="1682.11,-239.85 1672.15,-243.46 1682.19,-246.85 1682.11,-239.85"/>
</a>
</g>
</g>
<!-- Node19 -->
<g id="Node000019" class="node">
<title>Node19</title>
<g id="a_Node000019"><a xlink:href="classCellResourceInterfaceGrowth.html" target="_top" xlink:title="Manages growth and biomass for a resource cell.">
<polygon fill="white" stroke="#666666" points="1901,-215.5 1742,-215.5 1742,-196.5 1901,-196.5 1901,-215.5"/>
<text text-anchor="middle" x="1821.5" y="-203.5" font-family="Helvetica,sans-Serif" font-size="10.00">CellResourceInterfaceGrowth</text>
</a>
</g>
</g>
<!-- Node2&#45;&gt;Node19 -->
<g id="edge32_Node000019_Node000002" class="edge">
<title>Node2&#45;&gt;Node19</title>
<g id="a_edge32_Node000019_Node000002"><a xlink:title=" ">
<path fill="none" stroke="#9a32cd" stroke-dasharray="5,2" d="M1646.45,-231.06C1659.93,-226.6 1675.52,-221.98 1690,-219 1706.61,-215.58 1724.61,-213.05 1741.78,-211.18"/>
<polygon fill="#9a32cd" stroke="#9a32cd" points="1644.95,-227.87 1636.62,-234.41 1647.21,-234.5 1644.95,-227.87"/>
</a>
</g>
<text text-anchor="middle" x="1707" y="-222" font-family="Helvetica,sans-Serif" font-size="10.00" fill="grey"> owner</text>
</g>
<!-- Node3 -->
<g id="Node000003" class="node">
<title>Node3</title>
<g id="a_Node000003"><a xlink:href="classEdible.html" target="_top" xlink:title="Represents a generic edible entity within a terrain cell.">
<polygon fill="white" stroke="#666666" points="1511,-253.5 1464,-253.5 1464,-234.5 1511,-234.5 1511,-253.5"/>
<text text-anchor="middle" x="1487.5" y="-241.5" font-family="Helvetica,sans-Serif" font-size="10.00">Edible</text>
</a>
</g>
</g>
<!-- Node3&#45;&gt;Node2 -->
<g id="edge2_Node000002_Node000003" class="edge">
<title>Node3&#45;&gt;Node2</title>
<g id="a_edge2_Node000002_Node000003"><a xlink:title=" ">
<path fill="none" stroke="#63b8ff" d="M1521.4,-244C1529.61,-244 1538.69,-244 1547.79,-244"/>
<polygon fill="#63b8ff" stroke="#63b8ff" points="1521.17,-240.5 1511.17,-244 1521.17,-247.5 1521.17,-240.5"/>
</a>
</g>
</g>
<!-- Node4 -->
<g id="Node000004" class="node">
<title>Node4</title>
<g id="a_Node000004"><a xlink:href="classEdibleID.html" target="_top" xlink:title="Encapsulates a unique identifier for an edible object or resource.">
<polygon fill="white" stroke="#666666" points="1299.5,-253.5 1242.5,-253.5 1242.5,-234.5 1299.5,-234.5 1299.5,-253.5"/>
<text text-anchor="middle" x="1271" y="-241.5" font-family="Helvetica,sans-Serif" font-size="10.00">EdibleID</text>
</a>
</g>
</g>
<!-- Node4&#45;&gt;Node3 -->
<g id="edge3_Node000003_Node000004" class="edge">
<title>Node4&#45;&gt;Node3</title>
<g id="a_edge3_Node000003_Node000004"><a xlink:title=" ">
<path fill="none" stroke="#9a32cd" stroke-dasharray="5,2" d="M1309.76,-244C1354.4,-244 1427.23,-244 1463.9,-244"/>
<polygon fill="#9a32cd" stroke="#9a32cd" points="1309.6,-240.5 1299.6,-244 1309.6,-247.5 1309.6,-240.5"/>
</a>
</g>
<text text-anchor="middle" x="1384.5" y="-247" font-family="Helvetica,sans-Serif" font-size="10.00" fill="grey"> id</text>
</g>
<!-- Node5 -->
<g id="Node000005" class="node">
<title>Node5</title>
<g id="a_Node000005"><a xlink:href="classSpecies.html" target="_top" xlink:title="Represents a generic species in the ecosystem.">
<polygon fill="white" stroke="#666666" points="1298,-216.5 1244,-216.5 1244,-197.5 1298,-197.5 1298,-216.5"/>
<text text-anchor="middle" x="1271" y="-204.5" font-family="Helvetica,sans-Serif" font-size="10.00">Species</text>
</a>
</g>
</g>
<!-- Node5&#45;&gt;Node3 -->
<g id="edge4_Node000003_Node000005" class="edge">
<title>Node5&#45;&gt;Node3</title>
<g id="a_edge4_Node000003_Node000005"><a xlink:title=" ">
<path fill="none" stroke="#9a32cd" stroke-dasharray="5,2" d="M1308.64,-209.19C1344.16,-211.88 1399.36,-217.58 1446,-229 1451.83,-230.43 1457.97,-232.43 1463.65,-234.5"/>
<polygon fill="#9a32cd" stroke="#9a32cd" points="1308.51,-205.67 1298.28,-208.45 1308.01,-212.65 1308.51,-205.67"/>
</a>
</g>
<text text-anchor="middle" x="1384.5" y="-232" font-family="Helvetica,sans-Serif" font-size="10.00" fill="grey"> mySpecies</text>
</g>
<!-- Node6 -->
<g id="Node000006" class="node">
<title>Node6</title>
<g id="a_Node000006"><a xlink:href="classSpecies_1_1ID.html" target="_top" xlink:title="Unique identifier for a Species.">
<polygon fill="white" stroke="#666666" points="1079,-215.5 1008,-215.5 1008,-196.5 1079,-196.5 1079,-215.5"/>
<text text-anchor="middle" x="1043.5" y="-203.5" font-family="Helvetica,sans-Serif" font-size="10.00">Species::ID</text>
</a>
</g>
</g>
<!-- Node6&#45;&gt;Node5 -->
<g id="edge5_Node000005_Node000006" class="edge">
<title>Node6&#45;&gt;Node5</title>
<g id="a_edge5_Node000005_Node000006"><a xlink:title=" ">
<path fill="none" stroke="#9a32cd" stroke-dasharray="5,2" d="M1089.27,-206.2C1135.41,-206.4 1205.8,-206.72 1243.68,-206.88"/>
<polygon fill="#9a32cd" stroke="#9a32cd" points="1089.26,-202.7 1079.24,-206.15 1089.22,-209.7 1089.26,-202.7"/>
</a>
</g>
<text text-anchor="middle" x="1179" y="-209" font-family="Helvetica,sans-Serif" font-size="10.00" fill="grey"> id</text>
</g>
<!-- Node7 -->
<g id="Node000007" class="node">
<title>Node7</title>
<g id="a_Node000007"><a xlink:href="classTerrainCell.html" target="_top" xlink:title="Represents a single cell in the landscape.">
<polygon fill="white" stroke="#666666" points="1305,-316.5 1237,-316.5 1237,-297.5 1305,-297.5 1305,-316.5"/>
<text text-anchor="middle" x="1271" y="-304.5" font-family="Helvetica,sans-Serif" font-size="10.00">TerrainCell</text>
</a>
</g>
</g>
<!-- Node7&#45;&gt;Node3 -->
<g id="edge6_Node000003_Node000007" class="edge">
<title>Node7&#45;&gt;Node3</title>
<g id="a_edge6_Node000003_Node000007"><a xlink:title=" ">
<path fill="none" stroke="#9a32cd" stroke-dasharray="5,2" d="M1315.28,-296.16C1350.67,-287.03 1401.89,-273.22 1446,-259 1451.85,-257.11 1458.11,-254.9 1463.91,-252.75"/>
<polygon fill="#9a32cd" stroke="#9a32cd" points="1314.1,-292.85 1305.28,-298.72 1315.84,-299.63 1314.1,-292.85"/>
</a>
</g>
<text text-anchor="middle" x="1384.5" y="-296" font-family="Helvetica,sans-Serif" font-size="10.00" fill="grey"> terrainCell</text>
</g>
<!-- Node8 -->
<g id="Node000008" class="node">
<title>Node8</title>
<g id="a_Node000008"><a xlink:href="classPatchApplicator.html" target="_top" xlink:title="Applies patches to a TerrainCell including moisture, resources, obstacles, and habitat domains.">
<polygon fill="white" stroke="#666666" points="1089.5,-338.5 997.5,-338.5 997.5,-319.5 1089.5,-319.5 1089.5,-338.5"/>
<text text-anchor="middle" x="1043.5" y="-326.5" font-family="Helvetica,sans-Serif" font-size="10.00">PatchApplicator</text>
</a>
</g>
</g>
<!-- Node7&#45;&gt;Node8 -->
<g id="edge8_Node000008_Node000007" class="edge">
<title>Node7&#45;&gt;Node8</title>
<g id="a_edge8_Node000008_Node000007"><a xlink:title=" ">
<path fill="none" stroke="#9a32cd" stroke-dasharray="5,2" d="M1243.46,-320.86C1235.77,-324.21 1227.23,-327.3 1219,-329 1175.83,-337.91 1125.36,-336.7 1089.84,-333.98"/>
<polygon fill="#9a32cd" stroke="#9a32cd" points="1245.06,-323.98 1252.65,-316.59 1242.1,-317.64 1245.06,-323.98"/>
</a>
</g>
<text text-anchor="middle" x="1179" y="-338" font-family="Helvetica,sans-Serif" font-size="10.00" fill="grey"> owner</text>
</g>
<!-- Node8&#45;&gt;Node7 -->
<g id="edge7_Node000007_Node000008" class="edge">
<title>Node8&#45;&gt;Node7</title>
<g id="a_edge7_Node000007_Node000008"><a xlink:title=" ">
<path fill="none" stroke="#9a32cd" stroke-dasharray="5,2" d="M1099.77,-322.26C1112.64,-320.78 1126.29,-319.27 1139,-318 1172.27,-314.67 1210.36,-311.55 1236.86,-309.49"/>
<polygon fill="#9a32cd" stroke="#9a32cd" points="1099.18,-318.81 1089.65,-323.45 1099.99,-325.76 1099.18,-318.81"/>
</a>
</g>
<text text-anchor="middle" x="1179" y="-321" font-family="Helvetica,sans-Serif" font-size="10.00" fill="grey"> patchApplicator</text>
</g>
<!-- Node9 -->
<g id="Node000009" class="node">
<title>Node9</title>
<g id="a_Node000009"><a xlink:href="classCellMoistureInterface.html" target="_top" xlink:title="Base interface representing the hydrological and thermal properties of a terrain cell.">
<polygon fill="white" stroke="#666666" points="819.5,-311.5 697.5,-311.5 697.5,-292.5 819.5,-292.5 819.5,-311.5"/>
<text text-anchor="middle" x="758.5" y="-299.5" font-family="Helvetica,sans-Serif" font-size="10.00">CellMoistureInterface</text>
</a>
</g>
</g>
<!-- Node9&#45;&gt;Node8 -->
<g id="edge9_Node000008_Node000009" class="edge">
<title>Node9&#45;&gt;Node8</title>
<g id="a_edge9_Node000008_Node000009"><a xlink:title=" ">
<path fill="none" stroke="#9a32cd" stroke-dasharray="5,2" d="M830.08,-306.83C865.51,-309.45 909.06,-312.98 948,-317 964.12,-318.66 981.75,-320.81 997.37,-322.83"/>
<polygon fill="#9a32cd" stroke="#9a32cd" points="830.07,-303.32 819.84,-306.08 829.56,-310.3 830.07,-303.32"/>
</a>
</g>
<text text-anchor="middle" x="900.5" y="-320" font-family="Helvetica,sans-Serif" font-size="10.00" fill="grey"> cellMoisture</text>
</g>
<!-- Node10 -->
<g id="Node000010" class="node">
<title>Node10</title>
<g id="a_Node000010"><a xlink:href="classCellElement.html" target="_top" xlink:title="Base class for any modifiable element contained within a terrain cell.">
<polygon fill="white" stroke="#666666" points="425,-335.5 349,-335.5 349,-316.5 425,-316.5 425,-335.5"/>
<text text-anchor="middle" x="387" y="-323.5" font-family="Helvetica,sans-Serif" font-size="10.00">CellElement</text>
</a>
</g>
</g>
<!-- Node10&#45;&gt;Node2 -->
<g id="edge21_Node000002_Node000010" class="edge">
<title>Node10&#45;&gt;Node2</title>
<g id="a_edge21_Node000002_Node000010"><a xlink:title=" ">
<path fill="none" stroke="#63b8ff" d="M434.82,-336.66C504.69,-351.61 640.54,-377 757.5,-377 757.5,-377 757.5,-377 1488.5,-377 1555.18,-377 1594.58,-284.06 1605.72,-253.57"/>
<polygon fill="#63b8ff" stroke="#63b8ff" points="435.52,-333.23 425,-334.54 434.04,-340.07 435.52,-333.23"/>
</a>
</g>
</g>
<!-- Node10&#45;&gt;Node9 -->
<g id="edge10_Node000009_Node000010" class="edge">
<title>Node10&#45;&gt;Node9</title>
<g id="a_edge10_Node000009_Node000010"><a xlink:title=" ">
<path fill="none" stroke="#63b8ff" d="M435.36,-322.92C502.18,-318.58 624.14,-310.66 697.31,-305.91"/>
<polygon fill="#63b8ff" stroke="#63b8ff" points="434.87,-319.45 425.12,-323.59 435.33,-326.43 434.87,-319.45"/>
</a>
</g>
</g>
<!-- Node13 -->
<g id="Node000013" class="node">
<title>Node13</title>
<g id="a_Node000013"><a xlink:href="classCellObstacleInterface.html" target="_top" xlink:title="Interface for managing obstacles in a terrain cell.">
<polygon fill="white" stroke="#666666" points="819.5,-348.5 697.5,-348.5 697.5,-329.5 819.5,-329.5 819.5,-348.5"/>
<text text-anchor="middle" x="758.5" y="-336.5" font-family="Helvetica,sans-Serif" font-size="10.00">CellObstacleInterface</text>
</a>
</g>
</g>
<!-- Node10&#45;&gt;Node13 -->
<g id="edge14_Node000013_Node000010" class="edge">
<title>Node10&#45;&gt;Node13</title>
<g id="a_edge14_Node000013_Node000010"><a xlink:title=" ">
<path fill="none" stroke="#63b8ff" d="M435.36,-327.67C502.18,-330.02 624.14,-334.31 697.31,-336.88"/>
<polygon fill="#63b8ff" stroke="#63b8ff" points="435.24,-324.16 425.12,-327.31 434.99,-331.16 435.24,-324.16"/>
</a>
</g>
</g>
<!-- Node14 -->
<g id="Node000014" class="node">
<title>Node14</title>
<g id="a_Node000014"><a xlink:href="classCellHabitatDomainInterface.html" target="_top" xlink:title="Represents the habitat&#45;domain information associated with a terrain cell.">
<polygon fill="white" stroke="#666666" points="835,-274.5 682,-274.5 682,-255.5 835,-255.5 835,-274.5"/>
<text text-anchor="middle" x="758.5" y="-262.5" font-family="Helvetica,sans-Serif" font-size="10.00">CellHabitatDomainInterface</text>
</a>
</g>
</g>
<!-- Node10&#45;&gt;Node14 -->
<g id="edge16_Node000014_Node000010" class="edge">
<title>Node10&#45;&gt;Node14</title>
<g id="a_edge16_Node000014_Node000010"><a xlink:title=" ">
<path fill="none" stroke="#63b8ff" d="M435.01,-316.4C455.27,-312.37 479.27,-307.77 501,-304 564.91,-292.92 638.08,-281.97 689.87,-274.5"/>
<polygon fill="#63b8ff" stroke="#63b8ff" points="434.2,-312.99 425.08,-318.38 435.57,-319.85 434.2,-312.99"/>
</a>
</g>
</g>
<!-- Node11 -->
<g id="Node000011" class="node">
<title>Node11</title>
<g id="a_Node000011"><a xlink:href="classWetMass.html" target="_top" xlink:title="Represents wet mass in the ecosystem simulation.">
<polygon fill="white" stroke="#666666" points="417.5,-177.5 356.5,-177.5 356.5,-158.5 417.5,-158.5 417.5,-177.5"/>
<text text-anchor="middle" x="387" y="-165.5" font-family="Helvetica,sans-Serif" font-size="10.00">WetMass</text>
</a>
</g>
</g>
<!-- Node11&#45;&gt;Node9 -->
<g id="edge11_Node000009_Node000011" class="edge">
<title>Node11&#45;&gt;Node9</title>
<g id="a_edge11_Node000009_Node000011"><a xlink:title=" ">
<path fill="none" stroke="#9a32cd" stroke-dasharray="5,2" d="M427.58,-175.41C494.88,-188.66 627.82,-217.85 664,-248 677.74,-259.45 667.99,-272.88 682,-284 686.65,-287.68 691.92,-290.63 697.48,-292.99"/>
<polygon fill="#9a32cd" stroke="#9a32cd" points="428.24,-171.97 417.76,-173.5 426.91,-178.84 428.24,-171.97"/>
</a>
</g>
<text text-anchor="middle" x="582.5" y="-251" font-family="Helvetica,sans-Serif" font-size="10.00" fill="grey"> totalMaximumResourceCapacity</text>
</g>
<!-- Node18 -->
<g id="Node000018" class="node">
<title>Node18</title>
<g id="a_Node000018"><a xlink:href="classBranchCellResourceGrowth.html" target="_top" xlink:title="Aggregates the growth information of resources for branch terrain cells.">
<polygon fill="white" stroke="#666666" points="2087,-215.5 1938,-215.5 1938,-196.5 2087,-196.5 2087,-215.5"/>
<text text-anchor="middle" x="2012.5" y="-203.5" font-family="Helvetica,sans-Serif" font-size="10.00">BranchCellResourceGrowth</text>
</a>
</g>
</g>
<!-- Node11&#45;&gt;Node18 -->
<g id="edge33_Node000018_Node000011" class="edge">
<title>Node11&#45;&gt;Node18</title>
<g id="a_edge33_Node000018_Node000011"><a xlink:title=" ">
<path fill="none" stroke="#9a32cd" stroke-dasharray="5,2" d="M427.92,-168C495.68,-168 637.54,-168 757.5,-168 757.5,-168 757.5,-168 1822.5,-168 1880.07,-168 1945.6,-185.15 1982.4,-196.41"/>
<polygon fill="#9a32cd" stroke="#9a32cd" points="427.7,-164.5 417.7,-168 427.69,-171.5 427.7,-164.5"/>
</a>
</g>
<text text-anchor="middle" x="1384.5" y="-171" font-family="Helvetica,sans-Serif" font-size="10.00" fill="grey"> minimumEdibleBiomass</text>
</g>
<!-- Node20 -->
<g id="Node000020" class="node">
<title>Node20</title>
<g id="a_Node000020"><a xlink:href="classEdibleGrowth.html" target="_top" xlink:title="Represents the growth characteristics and current biomasses of an edible object.">
<polygon fill="white" stroke="#666666" points="799.5,-117.5 717.5,-117.5 717.5,-98.5 799.5,-98.5 799.5,-117.5"/>
<text text-anchor="middle" x="758.5" y="-105.5" font-family="Helvetica,sans-Serif" font-size="10.00">EdibleGrowth</text>
</a>
</g>
</g>
<!-- Node11&#45;&gt;Node20 -->
<g id="edge31_Node000020_Node000011" class="edge">
<title>Node11&#45;&gt;Node20</title>
<g id="a_edge31_Node000020_Node000011"><a xlink:title=" ">
<path fill="none" stroke="#9a32cd" stroke-dasharray="5,2" d="M427.42,-158.44C449.06,-153.41 476.41,-147.39 501,-143 521.82,-139.28 650.72,-122.11 717.49,-113.28"/>
<polygon fill="#9a32cd" stroke="#9a32cd" points="426.54,-155.06 417.61,-160.75 428.14,-161.87 426.54,-155.06"/>
</a>
</g>
<text text-anchor="middle" x="582.5" y="-146" font-family="Helvetica,sans-Serif" font-size="10.00" fill="grey"> currentTotalWetMass</text>
</g>
<!-- Node12 -->
<g id="Node000012" class="node">
<title>Node12</title>
<g id="a_Node000012"><a xlink:href="classPreciseDouble.html" target="_top" xlink:title="Class for precise double&#45;precision floating&#45;point arithmetic.">
<polygon fill="white" stroke="#666666" points="114.5,-177.5 28.5,-177.5 28.5,-158.5 114.5,-158.5 114.5,-177.5"/>
<text text-anchor="middle" x="71.5" y="-165.5" font-family="Helvetica,sans-Serif" font-size="10.00">PreciseDouble</text>
</a>
</g>
</g>
<!-- Node12&#45;&gt;Node7 -->
<g id="edge19_Node000007_Node000012" class="edge">
<title>Node12&#45;&gt;Node7</title>
<g id="a_edge19_Node000007_Node000012"><a xlink:title=" ">
<path fill="none" stroke="#9a32cd" stroke-dasharray="5,2" d="M83.1,-186.63C118.06,-245.41 236.11,-423 386,-423 386,-423 386,-423 1044.5,-423 1136.95,-423 1229.47,-344.94 1259.73,-316.89"/>
<polygon fill="#9a32cd" stroke="#9a32cd" points="85.94,-184.56 77.87,-177.68 79.89,-188.09 85.94,-184.56"/>
</a>
</g>
<text text-anchor="middle" x="758.5" y="-437" font-family="Helvetica,sans-Serif" font-size="10.00" fill="grey"> hyperVolume</text>
<text text-anchor="middle" x="758.5" y="-426" font-family="Helvetica,sans-Serif" font-size="10.00" fill="grey">size</text>
</g>
<!-- Node12&#45;&gt;Node11 -->
<g id="edge12_Node000011_Node000012" class="edge">
<title>Node12&#45;&gt;Node11</title>
<g id="a_edge12_Node000011_Node000012"><a xlink:title=" ">
<path fill="none" stroke="#9a32cd" stroke-dasharray="5,2" d="M125,-168C191.24,-168 302.9,-168 356.09,-168"/>
<polygon fill="#9a32cd" stroke="#9a32cd" points="124.78,-164.5 114.78,-168 124.78,-171.5 124.78,-164.5"/>
</a>
</g>
<text text-anchor="middle" x="217" y="-171" font-family="Helvetica,sans-Serif" font-size="10.00" fill="grey"> value</text>
</g>
<!-- Node24 -->
<g id="Node000024" class="node">
<title>Node24</title>
<g id="a_Node000024"><a xlink:href="classDryMass.html" target="_top" xlink:title="Represents dry mass in the ecosystem simulation.">
<polygon fill="white" stroke="#666666" points="416.5,-132.5 357.5,-132.5 357.5,-113.5 416.5,-113.5 416.5,-132.5"/>
<text text-anchor="middle" x="387" y="-120.5" font-family="Helvetica,sans-Serif" font-size="10.00">DryMass</text>
</a>
</g>
</g>
<!-- Node12&#45;&gt;Node24 -->
<g id="edge30_Node000024_Node000012" class="edge">
<title>Node12&#45;&gt;Node24</title>
<g id="a_edge30_Node000024_Node000012"><a xlink:title=" ">
<path fill="none" stroke="#9a32cd" stroke-dasharray="5,2" d="M124.96,-158.79C136.8,-156.8 149.32,-154.77 161,-153 231.33,-142.35 314.34,-131.81 357.18,-126.51"/>
<polygon fill="#9a32cd" stroke="#9a32cd" points="124.04,-155.4 114.77,-160.52 125.21,-162.3 124.04,-155.4"/>
</a>
</g>
<text text-anchor="middle" x="217" y="-156" font-family="Helvetica,sans-Serif" font-size="10.00" fill="grey"> value</text>
</g>
<!-- Node13&#45;&gt;Node8 -->
<g id="edge13_Node000008_Node000013" class="edge">
<title>Node13&#45;&gt;Node8</title>
<g id="a_edge13_Node000008_Node000013"><a xlink:title=" ">
<path fill="none" stroke="#9a32cd" stroke-dasharray="5,2" d="M829.76,-336.52C882.19,-334.66 952.29,-332.19 997.42,-330.59"/>
<polygon fill="#9a32cd" stroke="#9a32cd" points="829.39,-333.03 819.52,-336.88 829.63,-340.02 829.39,-333.03"/>
</a>
</g>
<text text-anchor="middle" x="900.5" y="-338" font-family="Helvetica,sans-Serif" font-size="10.00" fill="grey"> cellObstacle</text>
</g>
<!-- Node14&#45;&gt;Node8 -->
<g id="edge15_Node000008_Node000014" class="edge">
<title>Node14&#45;&gt;Node8</title>
<g id="a_edge15_Node000008_Node000014"><a xlink:title=" ">
<path fill="none" stroke="#9a32cd" stroke-dasharray="5,2" d="M845.52,-266.33C878.95,-269.71 916.67,-277.22 948,-293 958.11,-298.09 956.12,-305.49 966,-311 975.54,-316.31 986.58,-320.06 997.26,-322.71"/>
<polygon fill="#9a32cd" stroke="#9a32cd" points="845.56,-262.82 835.29,-265.4 844.94,-269.79 845.56,-262.82"/>
</a>
</g>
<text text-anchor="middle" x="900.5" y="-296" font-family="Helvetica,sans-Serif" font-size="10.00" fill="grey"> cellHabitatDomain</text>
</g>
<!-- Node15 -->
<g id="Node000015" class="node">
<title>Node15</title>
<g id="a_Node000015"><a xlink:href="classCustomIndexedVector.html" target="_top" xlink:title=" ">
<polygon fill="white" stroke="#666666" points="483,-283.5 291,-283.5 291,-242.5 483,-242.5 483,-283.5"/>
<text text-anchor="start" x="299" y="-271.5" font-family="Helvetica,sans-Serif" font-size="10.00">CustomIndexedVector</text>
<text text-anchor="start" x="299" y="-260.5" font-family="Helvetica,sans-Serif" font-size="10.00">&lt; AnimalSpeciesID, CustomIndexed</text>
<text text-anchor="middle" x="387" y="-249.5" font-family="Helvetica,sans-Serif" font-size="10.00">Vector&lt; Instar, bool &gt; &gt;</text>
</a>
</g>
</g>
<!-- Node15&#45;&gt;Node14 -->
<g id="edge17_Node000014_Node000015" class="edge">
<title>Node15&#45;&gt;Node14</title>
<g id="a_edge17_Node000014_Node000015"><a xlink:title=" ">
<path fill="none" stroke="#9a32cd" stroke-dasharray="5,2" d="M493.3,-263.21C544.77,-263.35 607.62,-263.6 664,-264 669.84,-264.04 675.89,-264.09 681.97,-264.15"/>
<polygon fill="#9a32cd" stroke="#9a32cd" points="493.17,-259.71 483.16,-263.18 493.15,-266.71 493.17,-259.71"/>
</a>
</g>
<text text-anchor="middle" x="582.5" y="-267" font-family="Helvetica,sans-Serif" font-size="10.00" fill="grey"> habitatDomainStatus</text>
</g>
<!-- Node16 -->
<g id="Node000016" class="node">
<title>Node16</title>
<g id="a_Node000016"><a xlink:href="classPointMap.html" target="_top" xlink:title="Represents a point in a discrete map coordinate system.">
<polygon fill="white" stroke="#666666" points="1074.5,-301.5 1012.5,-301.5 1012.5,-282.5 1074.5,-282.5 1074.5,-301.5"/>
<text text-anchor="middle" x="1043.5" y="-289.5" font-family="Helvetica,sans-Serif" font-size="10.00">PointMap</text>
</a>
</g>
</g>
<!-- Node16&#45;&gt;Node7 -->
<g id="edge18_Node000007_Node000016" class="edge">
<title>Node16&#45;&gt;Node7</title>
<g id="a_edge18_Node000007_Node000016"><a xlink:title=" ">
<path fill="none" stroke="#9a32cd" stroke-dasharray="5,2" d="M1084.55,-284.41C1120.23,-279 1173.66,-274.25 1219,-284 1231.15,-286.61 1243.9,-292.36 1253.62,-297.46"/>
<polygon fill="#9a32cd" stroke="#9a32cd" points="1083.85,-280.98 1074.53,-286.02 1084.95,-287.89 1083.85,-280.98"/>
</a>
</g>
<text text-anchor="middle" x="1179" y="-287" font-family="Helvetica,sans-Serif" font-size="10.00" fill="grey"> position</text>
</g>
<!-- Node17 -->
<g id="Node000017" class="node">
<title>Node17</title>
<g id="a_Node000017"><a xlink:href="classCustomIndexedVector.html" target="_top" xlink:title="A vector container indexed by a custom type with bounds checking.">
<polygon fill="white" stroke="#666666" points="1121,-264 966,-264 966,-234 1121,-234 1121,-264"/>
<text text-anchor="start" x="974" y="-252" font-family="Helvetica,sans-Serif" font-size="10.00">CustomIndexedVector</text>
<text text-anchor="middle" x="1043.5" y="-241" font-family="Helvetica,sans-Serif" font-size="10.00">&lt; IndexType, ContentType &gt;</text>
</a>
</g>
</g>
<!-- Node17&#45;&gt;Node7 -->
<g id="edge20_Node000007_Node000017" class="edge">
<title>Node17&#45;&gt;Node7</title>
<g id="a_edge20_Node000007_Node000017"><a xlink:title=" ">
<path fill="none" stroke="#9a32cd" stroke-dasharray="5,2" d="M1131.3,-245.33C1160.12,-246.86 1191.78,-251.62 1219,-263 1236.91,-270.49 1253.04,-286.76 1262.16,-297.29"/>
<polygon fill="#9a32cd" stroke="#9a32cd" points="1131.37,-241.83 1121.23,-244.92 1131.08,-248.83 1131.37,-241.83"/>
</a>
</g>
<text text-anchor="middle" x="1179" y="-266" font-family="Helvetica,sans-Serif" font-size="10.00" fill="grey"> animals</text>
</g>
<!-- Node18&#45;&gt;Node1 -->
<g id="edge22_Node000001_Node000018" class="edge">
<title>Node18&#45;&gt;Node1</title>
<g id="a_edge22_Node000001_Node000018"><a xlink:title=" ">
<path fill="none" stroke="#9a32cd" stroke-dasharray="5,2" d="M2097.38,-211.31C2131.95,-213.57 2172.41,-216.3 2209,-219 2214.78,-219.43 2220.82,-219.89 2226.84,-220.36"/>
<polygon fill="#9a32cd" stroke="#9a32cd" points="2097.53,-207.81 2087.32,-210.66 2097.07,-214.8 2097.53,-207.81"/>
</a>
</g>
<text text-anchor="middle" x="2157" y="-222" font-family="Helvetica,sans-Serif" font-size="10.00" fill="grey"> growthBuildingBlock</text>
</g>
<!-- Node19&#45;&gt;Node18 -->
<g id="edge23_Node000018_Node000019" class="edge">
<title>Node19&#45;&gt;Node18</title>
<g id="a_edge23_Node000018_Node000019"><a xlink:title=" ">
<path fill="none" stroke="#63b8ff" d="M1911.06,-206C1920,-206 1929.01,-206 1937.78,-206"/>
<polygon fill="#63b8ff" stroke="#63b8ff" points="1911.01,-202.5 1901.01,-206 1911.01,-209.5 1911.01,-202.5"/>
</a>
</g>
</g>
<!-- Node20&#45;&gt;Node19 -->
<g id="edge24_Node000019_Node000020" class="edge">
<title>Node20&#45;&gt;Node19</title>
<g id="a_edge24_Node000019_Node000020"><a xlink:title=" ">
<path fill="none" stroke="#63b8ff" d="M809.9,-111.14C866.47,-114.39 961.03,-119 1042.5,-119 1042.5,-119 1042.5,-119 1611,-119 1690.95,-119 1775.84,-173.71 1807.56,-196.36"/>
<polygon fill="#63b8ff" stroke="#63b8ff" points="809.97,-107.64 799.78,-110.55 809.56,-114.63 809.97,-107.64"/>
</a>
</g>
</g>
<!-- Node21 -->
<g id="Node000021" class="node">
<title>Node21</title>
<g id="a_Node000021"><a xlink:href="classInstar.html" target="_top" xlink:title="Represents a developmental stage (instar) of an animal in the simulation.">
<polygon fill="white" stroke="#666666" points="93.5,-76.5 49.5,-76.5 49.5,-57.5 93.5,-57.5 93.5,-76.5"/>
<text text-anchor="middle" x="71.5" y="-64.5" font-family="Helvetica,sans-Serif" font-size="10.00">Instar</text>
</a>
</g>
</g>
<!-- Node21&#45;&gt;Node20 -->
<g id="edge25_Node000020_Node000021" class="edge">
<title>Node21&#45;&gt;Node20</title>
<g id="a_edge25_Node000020_Node000021"><a xlink:title=" ">
<path fill="none" stroke="#9a32cd" stroke-dasharray="5,2" d="M103.86,-68.8C192.07,-73.88 449.87,-88.79 664,-102 681.53,-103.08 700.91,-104.32 717.46,-105.39"/>
<polygon fill="#9a32cd" stroke="#9a32cd" points="103.91,-65.3 93.72,-68.22 103.5,-72.29 103.91,-65.3"/>
</a>
</g>
<text text-anchor="middle" x="387" y="-94" font-family="Helvetica,sans-Serif" font-size="10.00" fill="grey"> instar</text>
</g>
<!-- Node22 -->
<g id="Node000022" class="node">
<title>Node22</title>
<g id="a_Node000022"><a xlink:href="classSpeciesGrowth.html" target="_top" xlink:title="Represents the growth characteristics of a species across its instars.">
<polygon fill="white" stroke="#666666" points="431.5,-38.5 342.5,-38.5 342.5,-19.5 431.5,-19.5 431.5,-38.5"/>
<text text-anchor="middle" x="387" y="-26.5" font-family="Helvetica,sans-Serif" font-size="10.00">SpeciesGrowth</text>
</a>
</g>
</g>
<!-- Node21&#45;&gt;Node22 -->
<g id="edge27_Node000022_Node000021" class="edge">
<title>Node21&#45;&gt;Node22</title>
<g id="a_edge27_Node000022_Node000021"><a xlink:title=" ">
<path fill="none" stroke="#9a32cd" stroke-dasharray="5,2" d="M103.41,-60.3C120.35,-56.82 141.76,-52.74 161,-50 223.73,-41.07 296.86,-35.05 342.3,-31.82"/>
<polygon fill="#9a32cd" stroke="#9a32cd" points="102.58,-56.9 93.5,-62.37 104.01,-63.75 102.58,-56.9"/>
</a>
</g>
<text text-anchor="middle" x="217" y="-53" font-family="Helvetica,sans-Serif" font-size="10.00" fill="grey"> lastInstar</text>
</g>
<!-- Node22&#45;&gt;Node20 -->
<g id="edge26_Node000020_Node000022" class="edge">
<title>Node22&#45;&gt;Node20</title>
<g id="a_edge26_Node000020_Node000022"><a xlink:title=" ">
<path fill="none" stroke="#9a32cd" stroke-dasharray="5,2" d="M441.96,-25.65C498.69,-23.84 589.82,-25.78 664,-50 696.5,-60.61 729.27,-84.74 746.03,-98.3"/>
<polygon fill="#9a32cd" stroke="#9a32cd" points="441.65,-22.16 431.78,-26.03 441.91,-29.16 441.65,-22.16"/>
</a>
</g>
<text text-anchor="middle" x="582.5" y="-53" font-family="Helvetica,sans-Serif" font-size="10.00" fill="grey"> speciesGrowth</text>
</g>
<!-- Node23 -->
<g id="Node000023" class="node">
<title>Node23</title>
<g id="a_Node000023"><a xlink:href="classCustomIndexedVector.html" target="_top" xlink:title=" ">
<polygon fill="white" stroke="#666666" points="143,-30 0,-30 0,0 143,0 143,-30"/>
<text text-anchor="start" x="8" y="-18" font-family="Helvetica,sans-Serif" font-size="10.00">CustomIndexedVector</text>
<text text-anchor="middle" x="71.5" y="-7" font-family="Helvetica,sans-Serif" font-size="10.00">&lt; Instar, PreciseDouble &gt;</text>
</a>
</g>
</g>
<!-- Node23&#45;&gt;Node22 -->
<g id="edge28_Node000022_Node000023" class="edge">
<title>Node23&#45;&gt;Node22</title>
<g id="a_edge28_Node000022_Node000023"><a xlink:title=" ">
<path fill="none" stroke="#9a32cd" stroke-dasharray="5,2" d="M153.2,-13.39C189.8,-13.18 233.62,-13.64 273,-16 295.96,-17.37 321.43,-20.19 342.36,-22.85"/>
<polygon fill="#9a32cd" stroke="#9a32cd" points="153.05,-9.89 143.08,-13.47 153.11,-16.89 153.05,-9.89"/>
</a>
</g>
<text text-anchor="middle" x="217" y="-19" font-family="Helvetica,sans-Serif" font-size="10.00" fill="grey"> conversionToWetMass</text>
</g>
<!-- Node24&#45;&gt;Node20 -->
<g id="edge29_Node000020_Node000024" class="edge">
<title>Node24&#45;&gt;Node20</title>
<g id="a_edge29_Node000020_Node000024"><a xlink:title=" ">
<path fill="none" stroke="#9a32cd" stroke-dasharray="5,2" d="M426.87,-117.02C448.61,-113.97 476.25,-110.58 501,-109 577.44,-104.13 666.95,-105.35 717.46,-106.68"/>
<polygon fill="#9a32cd" stroke="#9a32cd" points="426.11,-113.6 416.71,-118.48 427.1,-120.52 426.11,-113.6"/>
</a>
</g>
<text text-anchor="middle" x="582.5" y="-112" font-family="Helvetica,sans-Serif" font-size="10.00" fill="grey"> currentTotalDryMass</text>
</g>
</g>
</svg>
