<?xml version="1.0" encoding="UTF-8" standalone="no"?>
<!DOCTYPE svg PUBLIC "-//W3C//DTD SVG 1.1//EN"
 "http://www.w3.org/Graphics/SVG/1.1/DTD/svg11.dtd">
<!-- Generated by graphviz version 2.43.0 (0)
 -->
<!-- Title: Landscape Pages: 1 -->
<!--zoomable 355 -->

<svg id="main" version="1.1" xmlns="http://www.w3.org/2000/svg" xmlns:xlink="http://www.w3.org/1999/xlink" xml:space="preserve" onload="init(evt)">
<style type="text/css"><![CDATA[
.node, .edge {opacity: 0.7;}
.node.selected, .edge.selected {opacity: 1;}
.edge:hover path { stroke: red; }
.edge:hover polygon { stroke: red; fill: red; }
]]></style>

<defs>
  <circle id="rim" cx="0" cy="0" r="7"/>
  <circle id="rim2" cx="0" cy="0" r="3.5"/>
  <g id="zoomPlus">
    <use xlink:href="#rim" fill="#404040"><set attributeName="fill" to="#808080" begin="zoomplus.mouseover" end="zoomplus.mouseout"/></use>
    <path d="M-4,0h8M0,-4v8" fill="none" stroke="white" stroke-width="1.5" pointer-events="none"/>
  </g>
  <g id="zoomMin">
    <use xlink:href="#rim" fill="#404040"><set attributeName="fill" to="#808080" begin="zoomminus.mouseover" end="zoomminus.mouseout"/></use>
    <path d="M-4,0h8" fill="none" stroke="white" stroke-width="1.5" pointer-events="none"/>
  </g>
  <g id="arrowUp" transform="translate(30 24)">
    <use xlink:href="#rim"/>
    <path pointer-events="none" fill="none" stroke="white" stroke-width="1.5" d="M0,-3.0v7 M-2.5,-0.5L0,-3.0L2.5,-0.5"/>
  </g>
  <g id="arrowRight" transform="rotate(90) translate(36 -43)">
    <use xlink:href="#rim"/>
    <path pointer-events="none" fill="none" stroke="white" stroke-width="1.5" d="M0,-3.0v7 M-2.5,-0.5L0,-3.0L2.5,-0.5"/>
  </g>
  <g id="arrowDown" transform="rotate(180) translate(-30 -48)">
    <use xlink:href="#rim"/>
    <path pointer-events="none" fill="none" stroke="white" stroke-width="1.5" d="M0,-3.0v7 M-2.5,-0.5L0,-3.0L2.5,-0.5"/>
  </g>
  <g id="arrowLeft" transform="rotate(270) translate(-36 17)">
    <use xlink:href="#rim"/>
    <path pointer-events="none" fill="none" stroke="white" stroke-width="1.5" d="M0,-3.0v7 M-2.5,-0.5L0,-3.0L2.5,-0.5"/>
  </g>
  <g id="resetDef">
    <use xlink:href="#rim2" fill="#404040"><set attributeName="fill" to="#808080" begin="reset.mouseover" end="reset.mouseout"/></use>
  </g>
</defs>
<script type="application/ecmascript">
var viewWidth = 1080;
var viewHeight = 355;
var sectionId = 'dynsection-1';
</script>
<script type="application/ecmascript" xlink:href="svg.min.js"/>
<svg id="graph" class="graph">
<g id="viewport">
<title>Landscape</title>
<!-- Node1 -->
<g id="Node000001" class="node">
<title>Node1</title>
<g id="a_Node000001"><a xlink:title="Abstract base class that represents the simulation landscape.">
<polygon fill="#999999" stroke="#666666" points="1072,-194 1004,-194 1004,-175 1072,-175 1072,-194"/>
<text text-anchor="middle" x="1038" y="-182" font-family="Helvetica,sans-Serif" font-size="10.00">Landscape</text>
</a>
</g>
</g>
<!-- Node2 -->
<g id="Node000002" class="node">
<title>Node2</title>
<g id="a_Node000002"><a xlink:href="classView.html" target="_top" xlink:title="Abstract base class representing a view in the MVC pattern.">
<polygon fill="white" stroke="#666666" points="770,-331 729,-331 729,-312 770,-312 770,-331"/>
<text text-anchor="middle" x="749.5" y="-319" font-family="Helvetica,sans-Serif" font-size="10.00">View</text>
</a>
</g>
</g>
<!-- Node2&#45;&gt;Node1 -->
<g id="edge1_Node000001_Node000002" class="edge">
<title>Node2&#45;&gt;Node1</title>
<g id="a_edge1_Node000001_Node000002"><a xlink:title=" ">
<path fill="none" stroke="#9a32cd" stroke-dasharray="5,2" d="M780.15,-314.37C842.47,-299.34 981.74,-265.53 986,-262.5 1010.91,-244.77 1026.84,-210.7 1033.47,-194.09"/>
<polygon fill="#9a32cd" stroke="#9a32cd" points="779.04,-311.04 770.14,-316.78 780.68,-317.84 779.04,-311.04"/>
</a>
</g>
<text text-anchor="middle" x="916" y="-299.5" font-family="Helvetica,sans-Serif" font-size="10.00" fill="grey"> view</text>
</g>
<!-- Node3 -->
<g id="Node000003" class="node">
<title>Node3</title>
<g id="a_Node000003"><a xlink:href="classModel.html" target="_top" xlink:title="Abstract base class for all simulation models in the Weaver framework.">
<polygon fill="white" stroke="#666666" points="1061.5,-346 1014.5,-346 1014.5,-327 1061.5,-327 1061.5,-346"/>
<text text-anchor="middle" x="1038" y="-334" font-family="Helvetica,sans-Serif" font-size="10.00">Model</text>
</a>
</g>
</g>
<!-- Node2&#45;&gt;Node3 -->
<g id="edge3_Node000003_Node000002" class="edge">
<title>Node2&#45;&gt;Node3</title>
<g id="a_edge3_Node000003_Node000002"><a xlink:title=" ">
<path fill="none" stroke="#9a32cd" stroke-dasharray="5,2" d="M780.26,-325.22C799.08,-327.42 823.93,-330.06 846,-331.5 906.74,-335.47 978.54,-336.32 1014.33,-336.48"/>
<polygon fill="#9a32cd" stroke="#9a32cd" points="780.56,-321.73 770.22,-324.02 779.73,-328.68 780.56,-321.73"/>
</a>
</g>
<text text-anchor="middle" x="916" y="-338.5" font-family="Helvetica,sans-Serif" font-size="10.00" fill="grey"> view</text>
</g>
<!-- Node3&#45;&gt;Node2 -->
<g id="edge2_Node000002_Node000003" class="edge">
<title>Node3&#45;&gt;Node2</title>
<g id="a_edge2_Node000002_Node000003"><a xlink:title=" ">
<path fill="none" stroke="#9a32cd" stroke-dasharray="5,2" d="M1004.42,-324.67C998.37,-322.94 992.05,-321.43 986,-320.5 906.79,-308.37 810.82,-315.4 770.19,-319.36"/>
<polygon fill="#9a32cd" stroke="#9a32cd" points="1003.66,-328.1 1014.25,-327.74 1005.74,-321.42 1003.66,-328.1"/>
</a>
</g>
<text text-anchor="middle" x="916" y="-323.5" font-family="Helvetica,sans-Serif" font-size="10.00" fill="grey"> model</text>
</g>
<!-- Node4 -->
<g id="Node000004" class="node">
<title>Node4</title>
<g id="a_Node000004"><a xlink:href="classCustomIndexedVector.html" target="_top" xlink:title=" ">
<polygon fill="white" stroke="#666666" points="484,-336.5 344,-336.5 344,-306.5 484,-306.5 484,-336.5"/>
<text text-anchor="start" x="352" y="-324.5" font-family="Helvetica,sans-Serif" font-size="10.00">CustomIndexedVector</text>
<text text-anchor="middle" x="414" y="-313.5" font-family="Helvetica,sans-Serif" font-size="10.00">&lt; RunMode, std::string &gt;</text>
</a>
</g>
</g>
<!-- Node4&#45;&gt;Node2 -->
<g id="edge4_Node000002_Node000004" class="edge">
<title>Node4&#45;&gt;Node2</title>
<g id="a_edge4_Node000002_Node000004"><a xlink:title=" ">
<path fill="none" stroke="#9a32cd" stroke-dasharray="5,2" d="M494.29,-321.5C571.59,-321.5 683.85,-321.5 728.81,-321.5"/>
<polygon fill="#9a32cd" stroke="#9a32cd" points="494.1,-318 484.1,-321.5 494.1,-325 494.1,-318"/>
</a>
</g>
<text text-anchor="middle" x="591" y="-324.5" font-family="Helvetica,sans-Serif" font-size="10.00" fill="grey"> runModesTitles</text>
</g>
<!-- Node5 -->
<g id="Node000005" class="node">
<title>Node5</title>
<g id="a_Node000005"><a xlink:href="classDay.html" target="_top" xlink:title="Represents time in days using high&#45;precision floating point.">
<polygon fill="white" stroke="#666666" points="767.5,-213 731.5,-213 731.5,-194 767.5,-194 767.5,-213"/>
<text text-anchor="middle" x="749.5" y="-201" font-family="Helvetica,sans-Serif" font-size="10.00">Day</text>
</a>
</g>
</g>
<!-- Node5&#45;&gt;Node1 -->
<g id="edge5_Node000001_Node000005" class="edge">
<title>Node5&#45;&gt;Node1</title>
<g id="a_edge5_Node000001_Node000005"><a xlink:title=" ">
<path fill="none" stroke="#9a32cd" stroke-dasharray="5,2" d="M777.82,-201.69C830.58,-198.19 946.32,-190.51 1003.57,-186.72"/>
<polygon fill="#9a32cd" stroke="#9a32cd" points="777.31,-198.21 767.56,-202.37 777.77,-205.2 777.31,-198.21"/>
</a>
</g>
<text text-anchor="middle" x="916" y="-199.5" font-family="Helvetica,sans-Serif" font-size="10.00" fill="grey"> runDays</text>
</g>
<!-- Node6 -->
<g id="Node000006" class="node">
<title>Node6</title>
<g id="a_Node000006"><a xlink:href="classPreciseDouble.html" target="_top" xlink:title="Class for precise double&#45;precision floating&#45;point arithmetic.">
<polygon fill="white" stroke="#666666" points="457,-233 371,-233 371,-214 457,-214 457,-233"/>
<text text-anchor="middle" x="414" y="-221" font-family="Helvetica,sans-Serif" font-size="10.00">PreciseDouble</text>
</a>
</g>
</g>
<!-- Node6&#45;&gt;Node1 -->
<g id="edge7_Node000001_Node000006" class="edge">
<title>Node6&#45;&gt;Node1</title>
<g id="a_edge7_Node000001_Node000006"><a xlink:title=" ">
<path fill="none" stroke="#9a32cd" stroke-dasharray="5,2" d="M467.34,-227.39C486.7,-228.65 508.84,-229.88 529,-230.5 732.19,-236.73 790.53,-267.33 986,-211.5 999.29,-207.7 1013.08,-200.15 1022.96,-194"/>
<polygon fill="#9a32cd" stroke="#9a32cd" points="467.41,-223.89 457.2,-226.71 466.94,-230.87 467.41,-223.89"/>
</a>
</g>
<text text-anchor="middle" x="749.5" y="-279.5" font-family="Helvetica,sans-Serif" font-size="10.00" fill="grey"> coefficientOfVariationThreshold</text>
<text text-anchor="middle" x="749.5" y="-268.5" font-family="Helvetica,sans-Serif" font-size="10.00" fill="grey">multiplierForFieldMetabolicRate</text>
<text text-anchor="middle" x="749.5" y="-257.5" font-family="Helvetica,sans-Serif" font-size="10.00" fill="grey">pdfThreshold</text>
<text text-anchor="middle" x="749.5" y="-246.5" font-family="Helvetica,sans-Serif" font-size="10.00" fill="grey">timeStepsPerDay</text>
</g>
<!-- Node6&#45;&gt;Node5 -->
<g id="edge6_Node000005_Node000006" class="edge">
<title>Node6&#45;&gt;Node5</title>
<g id="a_edge6_Node000005_Node000006"><a xlink:title=" ">
<path fill="none" stroke="#9a32cd" stroke-dasharray="5,2" d="M467.62,-220.34C544.25,-215.75 682.68,-207.45 731.16,-204.54"/>
<polygon fill="#9a32cd" stroke="#9a32cd" points="467.01,-216.87 457.24,-220.97 467.43,-223.86 467.01,-216.87"/>
</a>
</g>
<text text-anchor="middle" x="591" y="-218.5" font-family="Helvetica,sans-Serif" font-size="10.00" fill="grey"> value</text>
</g>
<!-- Node9 -->
<g id="Node000009" class="node">
<title>Node9</title>
<g id="a_Node000009"><a xlink:href="classMap.html" target="_top" xlink:title="Abstract base class for spatial landscape representations.">
<polygon fill="white" stroke="#666666" points="768.5,-176 730.5,-176 730.5,-157 768.5,-157 768.5,-176"/>
<text text-anchor="middle" x="749.5" y="-164" font-family="Helvetica,sans-Serif" font-size="10.00">Map</text>
</a>
</g>
</g>
<!-- Node6&#45;&gt;Node9 -->
<g id="edge11_Node000009_Node000006" class="edge">
<title>Node6&#45;&gt;Node9</title>
<g id="a_edge11_Node000009_Node000006"><a xlink:title=" ">
<path fill="none" stroke="#9a32cd" stroke-dasharray="5,2" d="M445.73,-209.86C468.3,-200.49 499.97,-188.66 529,-182.5 602.45,-166.92 692.47,-165.83 730.34,-166.17"/>
<polygon fill="#9a32cd" stroke="#9a32cd" points="444.18,-206.71 436.34,-213.84 446.91,-213.16 444.18,-206.71"/>
</a>
</g>
<text text-anchor="middle" x="591" y="-196.5" font-family="Helvetica,sans-Serif" font-size="10.00" fill="grey"> minCellSize</text>
<text text-anchor="middle" x="591" y="-185.5" font-family="Helvetica,sans-Serif" font-size="10.00" fill="grey">minHyperVolume</text>
</g>
<!-- Node7 -->
<g id="Node000007" class="node">
<title>Node7</title>
<g id="a_Node000007"><a xlink:href="classCustomIndexedVector.html" target="_top" xlink:title=" ">
<polygon fill="white" stroke="#666666" points="815,-139 684,-139 684,-98 815,-98 815,-139"/>
<text text-anchor="start" x="692" y="-127" font-family="Helvetica,sans-Serif" font-size="10.00">CustomIndexedVector</text>
<text text-anchor="start" x="692" y="-116" font-family="Helvetica,sans-Serif" font-size="10.00">&lt; AnimalSpeciesID, std</text>
<text text-anchor="middle" x="749.5" y="-105" font-family="Helvetica,sans-Serif" font-size="10.00">::ofstream * &gt;</text>
</a>
</g>
</g>
<!-- Node7&#45;&gt;Node1 -->
<g id="edge8_Node000001_Node000007" class="edge">
<title>Node7&#45;&gt;Node1</title>
<g id="a_edge8_Node000001_Node000007"><a xlink:title=" ">
<path fill="none" stroke="#9a32cd" stroke-dasharray="5,2" d="M825.39,-117.61C872.92,-119.39 934.87,-126.12 986,-146.5 1002.21,-152.96 1017.83,-165.92 1027.43,-174.9"/>
<polygon fill="#9a32cd" stroke="#9a32cd" points="825.27,-114.1 815.17,-117.29 825.06,-121.1 825.27,-114.1"/>
</a>
</g>
<text text-anchor="middle" x="916" y="-149.5" font-family="Helvetica,sans-Serif" font-size="10.00" fill="grey"> animalConstitutiveTraitsFile</text>
</g>
<!-- Node8 -->
<g id="Node000008" class="node">
<title>Node8</title>
<g id="a_Node000008"><a xlink:href="classTimeStep.html" target="_top" xlink:title="Represents a discrete time step in the simulation.">
<polygon fill="white" stroke="#666666" points="781,-80 718,-80 718,-61 781,-61 781,-80"/>
<text text-anchor="middle" x="749.5" y="-68" font-family="Helvetica,sans-Serif" font-size="10.00">TimeStep</text>
</a>
</g>
</g>
<!-- Node8&#45;&gt;Node1 -->
<g id="edge9_Node000001_Node000008" class="edge">
<title>Node8&#45;&gt;Node1</title>
<g id="a_edge9_Node000001_Node000008"><a xlink:title=" ">
<path fill="none" stroke="#9a32cd" stroke-dasharray="5,2" d="M791.27,-66.34C841.24,-63.31 926.61,-65.09 986,-103.5 1012.65,-120.74 1027.92,-157.34 1033.96,-174.82"/>
<polygon fill="#9a32cd" stroke="#9a32cd" points="790.89,-62.85 781.16,-67.04 791.38,-69.84 790.89,-62.85"/>
</a>
</g>
<text text-anchor="middle" x="916" y="-106.5" font-family="Helvetica,sans-Serif" font-size="10.00" fill="grey"> stabilityCalculationInterval</text>
</g>
<!-- Node9&#45;&gt;Node1 -->
<g id="edge10_Node000001_Node000009" class="edge">
<title>Node9&#45;&gt;Node1</title>
<g id="a_edge10_Node000001_Node000009"><a xlink:title=" ">
<path fill="none" stroke="#9a32cd" stroke-dasharray="5,2" d="M778.7,-164.39C823.09,-161.63 911.85,-158.34 986,-169.5 993.76,-170.67 1001.99,-172.71 1009.52,-174.93"/>
<polygon fill="#9a32cd" stroke="#9a32cd" points="778.41,-160.9 768.66,-165.06 778.87,-167.89 778.41,-160.9"/>
</a>
</g>
<text text-anchor="middle" x="916" y="-172.5" font-family="Helvetica,sans-Serif" font-size="10.00" fill="grey"> landscapeMap</text>
</g>
<!-- Node10 -->
<g id="Node000010" class="node">
<title>Node10</title>
<g id="a_Node000010"><a xlink:href="classCustomIndexedVector.html" target="_top" xlink:title=" ">
<polygon fill="white" stroke="#666666" points="511,-159.5 317,-159.5 317,-129.5 511,-129.5 511,-159.5"/>
<text text-anchor="start" x="325" y="-147.5" font-family="Helvetica,sans-Serif" font-size="10.00">CustomIndexedVector</text>
<text text-anchor="middle" x="414" y="-136.5" font-family="Helvetica,sans-Serif" font-size="10.00">&lt; LifeStage, AnimalSearchParams &gt;</text>
</a>
</g>
</g>
<!-- Node10&#45;&gt;Node9 -->
<g id="edge12_Node000009_Node000010" class="edge">
<title>Node10&#45;&gt;Node9</title>
<g id="a_edge12_Node000009_Node000010"><a xlink:title=" ">
<path fill="none" stroke="#9a32cd" stroke-dasharray="5,2" d="M521.17,-140.14C562.43,-139.7 610.03,-140.74 653,-145.5 667.76,-147.14 706.97,-156.35 730.3,-162.01"/>
<polygon fill="#9a32cd" stroke="#9a32cd" points="521.04,-136.64 511.09,-140.28 521.14,-143.64 521.04,-136.64"/>
</a>
</g>
<text text-anchor="middle" x="591" y="-148.5" font-family="Helvetica,sans-Serif" font-size="10.00" fill="grey"> lifeStageSearchParams</text>
</g>
<!-- Node11 -->
<g id="Node000011" class="node">
<title>Node11</title>
<g id="a_Node000011"><a xlink:href="classAnimalSearchParams.html" target="_top" xlink:title="Stores parameters for searching animals within a terrain cell.">
<polygon fill="white" stroke="#666666" points="474,-111 354,-111 354,-92 474,-92 474,-111"/>
<text text-anchor="middle" x="414" y="-99" font-family="Helvetica,sans-Serif" font-size="10.00">AnimalSearchParams</text>
</a>
</g>
</g>
<!-- Node11&#45;&gt;Node9 -->
<g id="edge13_Node000009_Node000011" class="edge">
<title>Node11&#45;&gt;Node9</title>
<g id="a_edge13_Node000009_Node000011"><a xlink:title=" ">
<path fill="none" stroke="#9a32cd" stroke-dasharray="5,2" d="M484.26,-93.93C534.25,-91.73 601.7,-95.68 653,-124.5 664.62,-131.03 659.83,-141.22 671,-148.5 688.94,-160.19 713.56,-164.33 730.2,-165.77"/>
<polygon fill="#9a32cd" stroke="#9a32cd" points="483.99,-90.44 474.19,-94.47 484.36,-97.43 483.99,-90.44"/>
</a>
</g>
<text text-anchor="middle" x="591" y="-127.5" font-family="Helvetica,sans-Serif" font-size="10.00" fill="grey"> allAnimalsSearchParams</text>
</g>
<!-- Node12 -->
<g id="Node000012" class="node">
<title>Node12</title>
<g id="a_Node000012"><a xlink:href="classCustomIndexedVector.html" target="_top" xlink:title=" ">
<polygon fill="white" stroke="#666666" points="142.5,-181 9.5,-181 9.5,-140 142.5,-140 142.5,-181"/>
<text text-anchor="start" x="17.5" y="-169" font-family="Helvetica,sans-Serif" font-size="10.00">CustomIndexedVector</text>
<text text-anchor="start" x="17.5" y="-158" font-family="Helvetica,sans-Serif" font-size="10.00">&lt; LifeStage, std::vector</text>
<text text-anchor="middle" x="76" y="-147" font-family="Helvetica,sans-Serif" font-size="10.00">&lt; AnimalSpeciesID &gt; &gt;</text>
</a>
</g>
</g>
<!-- Node12&#45;&gt;Node11 -->
<g id="edge14_Node000011_Node000012" class="edge">
<title>Node12&#45;&gt;Node11</title>
<g id="a_edge14_Node000011_Node000012"><a xlink:title=" ">
<path fill="none" stroke="#9a32cd" stroke-dasharray="5,2" d="M152.8,-147.19C215.43,-136.19 302.83,-120.84 358.67,-111.04"/>
<polygon fill="#9a32cd" stroke="#9a32cd" points="151.83,-143.81 142.58,-148.98 153.04,-150.7 151.83,-143.81"/>
</a>
</g>
<text text-anchor="middle" x="234.5" y="-145.5" font-family="Helvetica,sans-Serif" font-size="10.00" fill="grey"> searchableAnimalSpecies</text>
</g>
<!-- Node13 -->
<g id="Node000013" class="node">
<title>Node13</title>
<g id="a_Node000013"><a xlink:href="classCustomIndexedVector.html" target="_top" xlink:title=" ">
<polygon fill="white" stroke="#666666" points="152,-122 0,-122 0,-81 152,-81 152,-122"/>
<text text-anchor="start" x="8" y="-110" font-family="Helvetica,sans-Serif" font-size="10.00">CustomIndexedVector</text>
<text text-anchor="start" x="8" y="-99" font-family="Helvetica,sans-Serif" font-size="10.00">&lt; LifeStage, std::vector</text>
<text text-anchor="middle" x="76" y="-88" font-family="Helvetica,sans-Serif" font-size="10.00">&lt; std::vector&lt; Instar &gt; &gt; &gt;</text>
</a>
</g>
</g>
<!-- Node13&#45;&gt;Node11 -->
<g id="edge15_Node000011_Node000013" class="edge">
<title>Node13&#45;&gt;Node11</title>
<g id="a_edge15_Node000011_Node000013"><a xlink:title=" ">
<path fill="none" stroke="#9a32cd" stroke-dasharray="5,2" d="M162.59,-101.5C222.4,-101.5 300.74,-101.5 353.75,-101.5"/>
<polygon fill="#9a32cd" stroke="#9a32cd" points="162.4,-98 152.4,-101.5 162.4,-105 162.4,-98"/>
</a>
</g>
<text text-anchor="middle" x="234.5" y="-104.5" font-family="Helvetica,sans-Serif" font-size="10.00" fill="grey"> searchableInstars</text>
</g>
<!-- Node14 -->
<g id="Node000014" class="node">
<title>Node14</title>
<g id="a_Node000014"><a xlink:href="classCustomIndexedVector.html" target="_top" xlink:title=" ">
<polygon fill="white" stroke="#666666" points="152,-63 0,-63 0,0 152,0 152,-63"/>
<text text-anchor="start" x="8" y="-51" font-family="Helvetica,sans-Serif" font-size="10.00">CustomIndexedVector</text>
<text text-anchor="start" x="8" y="-40" font-family="Helvetica,sans-Serif" font-size="10.00">&lt; LifeStage, std::vector</text>
<text text-anchor="start" x="8" y="-29" font-family="Helvetica,sans-Serif" font-size="10.00">&lt; CustomIndexedVector&lt;</text>
<text text-anchor="start" x="8" y="-18" font-family="Helvetica,sans-Serif" font-size="10.00"> Instar, std::vector&lt; Gender</text>
<text text-anchor="middle" x="76" y="-7" font-family="Helvetica,sans-Serif" font-size="10.00"> &gt; &gt; &gt; &gt;</text>
</a>
</g>
</g>
<!-- Node14&#45;&gt;Node11 -->
<g id="edge16_Node000011_Node000014" class="edge">
<title>Node14&#45;&gt;Node11</title>
<g id="a_edge16_Node000011_Node000014"><a xlink:title=" ">
<path fill="none" stroke="#9a32cd" stroke-dasharray="5,2" d="M162.26,-49.26C227.44,-62.84 314.77,-81.03 367.29,-91.98"/>
<polygon fill="#9a32cd" stroke="#9a32cd" points="162.91,-45.82 152.4,-47.21 161.48,-52.68 162.91,-45.82"/>
</a>
</g>
<text text-anchor="middle" x="234.5" y="-80.5" font-family="Helvetica,sans-Serif" font-size="10.00" fill="grey"> searchableGenders</text>
</g>
</g>
</svg>

<g id="navigator" transform="translate(0 0)" fill="#404254">
  <rect fill="#f2f5e9" fill-opacity="0.5" stroke="#606060" stroke-width=".5" x="0" y="0" width="60" height="60"/>
  <use id="zoomplus" xlink:href="#zoomPlus" x="17" y="9" onmousedown="handleZoom(evt,'in')"/>
  <use id="zoomminus" xlink:href="#zoomMin" x="42" y="9" onmousedown="handleZoom(evt,'out')"/>
  <use id="reset" xlink:href="#resetDef" x="30" y="36" onmousedown="handleReset()"/>
   <use id="arrowup" xlink:href="#arrowUp" x="0" y="0" onmousedown="handlePan(0,-1)"/>
  <use id="arrowright" xlink:href="#arrowRight" x="0" y="0" onmousedown="handlePan(1,0)"/>
  <use id="arrowdown" xlink:href="#arrowDown" x="0" y="0" onmousedown="handlePan(0,1)"/>
  <use id="arrowleft" xlink:href="#arrowLeft" x="0" y="0" onmousedown="handlePan(-1,0)"/>
</g>
<svg viewBox="0 0 15 15" width="100%" height="30px" preserveAspectRatio="xMaxYMin meet">
 <g id="arrow_out" transform="scale(0.3 0.3)">
  <a xlink:href="classLandscape__coll__graph_org.svg" target="_base">
   <rect id="button" ry="5" rx="5" y="6" x="6" height="38" width="38"
        fill="#f2f5e9" fill-opacity="0.5" stroke="#606060" stroke-width="1.0"/>
   <path id="arrow"
     d="M 11.500037,31.436501 C 11.940474,20.09759 22.043105,11.32322 32.158766,21.979434 L 37.068811,17.246167 C 37.068811,17.246167 37.088388,32 37.088388,32 L 22.160133,31.978069 C 22.160133,31.978069 26.997745,27.140456 26.997745,27.140456 C 18.528582,18.264221 13.291696,25.230495 11.500037,31.436501 z"
     style="fill:#404040;"/>
  </a>
 </g>
</svg>

<style type='text/css'>
<![CDATA[
[data-mouse-over-selected='false'] { opacity: 0.7; }
[data-mouse-over-selected='true']  { opacity: 1.0; }
]]>
</style>
<script type="application/ecmascript"><![CDATA[
document.addEventListener('DOMContentLoaded', (event) => {
  highlightEdges();
  highlightAdjacentNodes();
});
]]></script>
</svg>
