<?xml version="1.0" encoding="UTF-8" standalone="no"?>
<!DOCTYPE svg PUBLIC "-//W3C//DTD SVG 1.1//EN"
 "http://www.w3.org/Graphics/SVG/1.1/DTD/svg11.dtd">
<!-- Generated by graphviz version 2.43.0 (0)
 -->
<!-- Title: Edible Pages: 1 -->
<!--zoomable 341 -->

<svg id="main" version="1.1" xmlns="http://www.w3.org/2000/svg" xmlns:xlink="http://www.w3.org/1999/xlink" xml:space="preserve" onload="init(evt)">
<style type="text/css"><![CDATA[
.node, .edge {opacity: 0.7;}
.node.selected, .edge.selected {opacity: 1;}
.edge:hover path { stroke: red; }
.edge:hover polygon { stroke: red; fill: red; }
]]></style>

<defs>
  <circle id="rim" cx="0" cy="0" r="7"/>
  <circle id="rim2" cx="0" cy="0" r="3.5"/>
  <g id="zoomPlus">
    <use xlink:href="#rim" fill="#404040"><set attributeName="fill" to="#808080" begin="zoomplus.mouseover" end="zoomplus.mouseout"/></use>
    <path d="M-4,0h8M0,-4v8" fill="none" stroke="white" stroke-width="1.5" pointer-events="none"/>
  </g>
  <g id="zoomMin">
    <use xlink:href="#rim" fill="#404040"><set attributeName="fill" to="#808080" begin="zoomminus.mouseover" end="zoomminus.mouseout"/></use>
    <path d="M-4,0h8" fill="none" stroke="white" stroke-width="1.5" pointer-events="none"/>
  </g>
  <g id="arrowUp" transform="translate(30 24)">
    <use xlink:href="#rim"/>
    <path pointer-events="none" fill="none" stroke="white" stroke-width="1.5" d="M0,-3.0v7 M-2.5,-0.5L0,-3.0L2.5,-0.5"/>
  </g>
  <g id="arrowRight" transform="rotate(90) translate(36 -43)">
    <use xlink:href="#rim"/>
    <path pointer-events="none" fill="none" stroke="white" stroke-width="1.5" d="M0,-3.0v7 M-2.5,-0.5L0,-3.0L2.5,-0.5"/>
  </g>
  <g id="arrowDown" transform="rotate(180) translate(-30 -48)">
    <use xlink:href="#rim"/>
    <path pointer-events="none" fill="none" stroke="white" stroke-width="1.5" d="M0,-3.0v7 M-2.5,-0.5L0,-3.0L2.5,-0.5"/>
  </g>
  <g id="arrowLeft" transform="rotate(270) translate(-36 17)">
    <use xlink:href="#rim"/>
    <path pointer-events="none" fill="none" stroke="white" stroke-width="1.5" d="M0,-3.0v7 M-2.5,-0.5L0,-3.0L2.5,-0.5"/>
  </g>
  <g id="resetDef">
    <use xlink:href="#rim2" fill="#404040"><set attributeName="fill" to="#808080" begin="reset.mouseover" end="reset.mouseout"/></use>
  </g>
</defs>
<script type="application/ecmascript">
var viewWidth = 928;
var viewHeight = 341;
var sectionId = 'dynsection-1';
</script>
<script type="application/ecmascript" xlink:href="svg.min.js"/>
<svg id="graph" class="graph">
<g id="viewport">
<title>Edible</title>
<!-- Node1 -->
<g id="Node000001" class="node">
<title>Node1</title>
<g id="a_Node000001"><a xlink:title="Represents a generic edible entity within a terrain cell.">
<polygon fill="#999999" stroke="#666666" points="897.5,-296 850.5,-296 850.5,-277 897.5,-277 897.5,-296"/>
<text text-anchor="middle" x="874" y="-284" font-family="Helvetica,sans-Serif" font-size="10.00">Edible</text>
</a>
</g>
</g>
<!-- Node2 -->
<g id="Node000002" class="node">
<title>Node2</title>
<g id="a_Node000002"><a xlink:href="classEdibleID.html" target="_top" xlink:title="Encapsulates a unique identifier for an edible object or resource.">
<polygon fill="white" stroke="#666666" points="649,-333 592,-333 592,-314 649,-314 649,-333"/>
<text text-anchor="middle" x="620.5" y="-321" font-family="Helvetica,sans-Serif" font-size="10.00">EdibleID</text>
</a>
</g>
</g>
<!-- Node2&#45;&gt;Node1 -->
<g id="edge1_Node000001_Node000002" class="edge">
<title>Node2&#45;&gt;Node1</title>
<g id="a_edge1_Node000001_Node000002"><a xlink:title=" ">
<path fill="none" stroke="#9a32cd" stroke-dasharray="5,2" d="M659.27,-320.41C697.46,-316.97 758.1,-310.67 810,-301.5 823.51,-299.11 838.45,-295.59 850.39,-292.56"/>
<polygon fill="#9a32cd" stroke="#9a32cd" points="658.77,-316.94 649.12,-321.3 659.39,-323.91 658.77,-316.94"/>
</a>
</g>
<text text-anchor="middle" x="762.5" y="-316.5" font-family="Helvetica,sans-Serif" font-size="10.00" fill="grey"> id</text>
</g>
<!-- Node3 -->
<g id="Node000003" class="node">
<title>Node3</title>
<g id="a_Node000003"><a xlink:href="classSpecies.html" target="_top" xlink:title="Represents a generic species in the ecosystem.">
<polygon fill="white" stroke="#666666" points="647.5,-296 593.5,-296 593.5,-277 647.5,-277 647.5,-296"/>
<text text-anchor="middle" x="620.5" y="-284" font-family="Helvetica,sans-Serif" font-size="10.00">Species</text>
</a>
</g>
</g>
<!-- Node3&#45;&gt;Node1 -->
<g id="edge2_Node000001_Node000003" class="edge">
<title>Node3&#45;&gt;Node1</title>
<g id="a_edge2_Node000001_Node000003"><a xlink:title=" ">
<path fill="none" stroke="#9a32cd" stroke-dasharray="5,2" d="M658.2,-286.5C710.93,-286.5 806.58,-286.5 850.21,-286.5"/>
<polygon fill="#9a32cd" stroke="#9a32cd" points="657.94,-283 647.94,-286.5 657.94,-290 657.94,-283"/>
</a>
</g>
<text text-anchor="middle" x="762.5" y="-289.5" font-family="Helvetica,sans-Serif" font-size="10.00" fill="grey"> mySpecies</text>
</g>
<!-- Node4 -->
<g id="Node000004" class="node">
<title>Node4</title>
<g id="a_Node000004"><a xlink:href="classSpecies_1_1ID.html" target="_top" xlink:title="Unique identifier for a Species.">
<polygon fill="white" stroke="#666666" points="284.5,-307 213.5,-307 213.5,-288 284.5,-288 284.5,-307"/>
<text text-anchor="middle" x="249" y="-295" font-family="Helvetica,sans-Serif" font-size="10.00">Species::ID</text>
</a>
</g>
</g>
<!-- Node4&#45;&gt;Node3 -->
<g id="edge3_Node000003_Node000004" class="edge">
<title>Node4&#45;&gt;Node3</title>
<g id="a_edge3_Node000003_Node000004"><a xlink:title=" ">
<path fill="none" stroke="#9a32cd" stroke-dasharray="5,2" d="M295.23,-296.15C373.27,-293.83 530.86,-289.14 593.23,-287.28"/>
<polygon fill="#9a32cd" stroke="#9a32cd" points="294.65,-292.67 284.76,-296.47 294.86,-299.67 294.65,-292.67"/>
</a>
</g>
<text text-anchor="middle" x="444.5" y="-296.5" font-family="Helvetica,sans-Serif" font-size="10.00" fill="grey"> id</text>
</g>
<!-- Node5 -->
<g id="Node000005" class="node">
<title>Node5</title>
<g id="a_Node000005"><a xlink:href="classTerrainCell.html" target="_top" xlink:title="Represents a single cell in the landscape.">
<polygon fill="white" stroke="#666666" points="654.5,-208 586.5,-208 586.5,-189 654.5,-189 654.5,-208"/>
<text text-anchor="middle" x="620.5" y="-196" font-family="Helvetica,sans-Serif" font-size="10.00">TerrainCell</text>
</a>
</g>
</g>
<!-- Node5&#45;&gt;Node1 -->
<g id="edge4_Node000001_Node000005" class="edge">
<title>Node5&#45;&gt;Node1</title>
<g id="a_edge4_Node000001_Node000005"><a xlink:title=" ">
<path fill="none" stroke="#9a32cd" stroke-dasharray="5,2" d="M658.56,-211.47C711.46,-229.98 806.99,-263.4 850.42,-278.6"/>
<polygon fill="#9a32cd" stroke="#9a32cd" points="659.49,-208.08 648.89,-208.09 657.18,-214.69 659.49,-208.08"/>
</a>
</g>
<text text-anchor="middle" x="762.5" y="-265.5" font-family="Helvetica,sans-Serif" font-size="10.00" fill="grey"> terrainCell</text>
</g>
<!-- Node6 -->
<g id="Node000006" class="node">
<title>Node6</title>
<g id="a_Node000006"><a xlink:href="classPatchApplicator.html" target="_top" xlink:title="Applies patches to a TerrainCell including moisture, resources, obstacles, and habitat domains.">
<polygon fill="white" stroke="#666666" points="920,-135 828,-135 828,-116 920,-116 920,-135"/>
<text text-anchor="middle" x="874" y="-123" font-family="Helvetica,sans-Serif" font-size="10.00">PatchApplicator</text>
</a>
</g>
</g>
<!-- Node5&#45;&gt;Node6 -->
<g id="edge6_Node000006_Node000005" class="edge">
<title>Node5&#45;&gt;Node6</title>
<g id="a_edge6_Node000006_Node000005"><a xlink:title=" ">
<path fill="none" stroke="#9a32cd" stroke-dasharray="5,2" d="M664.57,-199.4C703.88,-198.76 762.88,-194.08 810,-174.5 831.75,-165.46 852.4,-146.82 863.81,-135.31"/>
<polygon fill="#9a32cd" stroke="#9a32cd" points="664.49,-195.9 654.52,-199.48 664.55,-202.9 664.49,-195.9"/>
</a>
</g>
<text text-anchor="middle" x="762.5" y="-198.5" font-family="Helvetica,sans-Serif" font-size="10.00" fill="grey"> owner</text>
</g>
<!-- Node6&#45;&gt;Node5 -->
<g id="edge5_Node000005_Node000006" class="edge">
<title>Node6&#45;&gt;Node5</title>
<g id="a_edge5_Node000005_Node000006"><a xlink:title=" ">
<path fill="none" stroke="#9a32cd" stroke-dasharray="5,2" d="M820.71,-137.35C782.68,-146.11 734.56,-157.51 715,-163.5 690.64,-170.96 663.42,-181.39 644.67,-188.92"/>
<polygon fill="#9a32cd" stroke="#9a32cd" points="821.67,-140.72 830.63,-135.07 820.1,-133.9 821.67,-140.72"/>
</a>
</g>
<text text-anchor="middle" x="762.5" y="-166.5" font-family="Helvetica,sans-Serif" font-size="10.00" fill="grey"> patchApplicator</text>
</g>
<!-- Node7 -->
<g id="Node000007" class="node">
<title>Node7</title>
<g id="a_Node000007"><a xlink:href="classCellMoistureInterface.html" target="_top" xlink:title="Base interface representing the hydrological and thermal properties of a terrain cell.">
<polygon fill="white" stroke="#666666" points="681.5,-135 559.5,-135 559.5,-116 681.5,-116 681.5,-135"/>
<text text-anchor="middle" x="620.5" y="-123" font-family="Helvetica,sans-Serif" font-size="10.00">CellMoistureInterface</text>
</a>
</g>
</g>
<!-- Node7&#45;&gt;Node6 -->
<g id="edge7_Node000006_Node000007" class="edge">
<title>Node7&#45;&gt;Node6</title>
<g id="a_edge7_Node000006_Node000007"><a xlink:title=" ">
<path fill="none" stroke="#9a32cd" stroke-dasharray="5,2" d="M691.98,-125.5C735.5,-125.5 790.04,-125.5 827.82,-125.5"/>
<polygon fill="#9a32cd" stroke="#9a32cd" points="691.74,-122 681.74,-125.5 691.74,-129 691.74,-122"/>
</a>
</g>
<text text-anchor="middle" x="762.5" y="-128.5" font-family="Helvetica,sans-Serif" font-size="10.00" fill="grey"> cellMoisture</text>
</g>
<!-- Node8 -->
<g id="Node000008" class="node">
<title>Node8</title>
<g id="a_Node000008"><a xlink:href="classCellElement.html" target="_top" xlink:title="Base class for any modifiable element contained within a terrain cell.">
<polygon fill="white" stroke="#666666" points="287,-81 211,-81 211,-62 287,-62 287,-81"/>
<text text-anchor="middle" x="249" y="-69" font-family="Helvetica,sans-Serif" font-size="10.00">CellElement</text>
</a>
</g>
</g>
<!-- Node8&#45;&gt;Node7 -->
<g id="edge8_Node000007_Node000008" class="edge">
<title>Node8&#45;&gt;Node7</title>
<g id="a_edge8_Node000007_Node000008"><a xlink:title=" ">
<path fill="none" stroke="#63b8ff" d="M297.36,-78.42C364.18,-88.19 486.14,-106.01 559.31,-116.7"/>
<polygon fill="#63b8ff" stroke="#63b8ff" points="297.52,-74.91 287.12,-76.92 296.51,-81.83 297.52,-74.91"/>
</a>
</g>
</g>
<!-- Node11 -->
<g id="Node000011" class="node">
<title>Node11</title>
<g id="a_Node000011"><a xlink:href="classCellObstacleInterface.html" target="_top" xlink:title="Interface for managing obstacles in a terrain cell.">
<polygon fill="white" stroke="#666666" points="681.5,-97 559.5,-97 559.5,-78 681.5,-78 681.5,-97"/>
<text text-anchor="middle" x="620.5" y="-85" font-family="Helvetica,sans-Serif" font-size="10.00">CellObstacleInterface</text>
</a>
</g>
</g>
<!-- Node8&#45;&gt;Node11 -->
<g id="edge12_Node000011_Node000008" class="edge">
<title>Node8&#45;&gt;Node11</title>
<g id="a_edge12_Node000011_Node000008"><a xlink:title=" ">
<path fill="none" stroke="#63b8ff" d="M297.36,-73.55C364.18,-76.44 486.14,-81.73 559.31,-84.89"/>
<polygon fill="#63b8ff" stroke="#63b8ff" points="297.26,-70.04 287.12,-73.11 296.96,-77.04 297.26,-70.04"/>
</a>
</g>
</g>
<!-- Node12 -->
<g id="Node000012" class="node">
<title>Node12</title>
<g id="a_Node000012"><a xlink:href="classCellHabitatDomainInterface.html" target="_top" xlink:title="Represents the habitat&#45;domain information associated with a terrain cell.">
<polygon fill="white" stroke="#666666" points="697,-56 544,-56 544,-37 697,-37 697,-56"/>
<text text-anchor="middle" x="620.5" y="-44" font-family="Helvetica,sans-Serif" font-size="10.00">CellHabitatDomainInterface</text>
</a>
</g>
</g>
<!-- Node8&#45;&gt;Node12 -->
<g id="edge14_Node000012_Node000008" class="edge">
<title>Node8&#45;&gt;Node12</title>
<g id="a_edge14_Node000012_Node000008"><a xlink:title=" ">
<path fill="none" stroke="#63b8ff" d="M297.44,-68.29C359.74,-64.08 469.86,-56.62 543.76,-51.62"/>
<polygon fill="#63b8ff" stroke="#63b8ff" points="296.86,-64.82 287.12,-68.99 297.33,-71.81 296.86,-64.82"/>
</a>
</g>
</g>
<!-- Node9 -->
<g id="Node000009" class="node">
<title>Node9</title>
<g id="a_Node000009"><a xlink:href="classWetMass.html" target="_top" xlink:title="Represents wet mass in the ecosystem simulation.">
<polygon fill="white" stroke="#666666" points="279.5,-125 218.5,-125 218.5,-106 279.5,-106 279.5,-125"/>
<text text-anchor="middle" x="249" y="-113" font-family="Helvetica,sans-Serif" font-size="10.00">WetMass</text>
</a>
</g>
</g>
<!-- Node9&#45;&gt;Node7 -->
<g id="edge9_Node000007_Node000009" class="edge">
<title>Node9&#45;&gt;Node7</title>
<g id="a_edge9_Node000007_Node000009"><a xlink:title=" ">
<path fill="none" stroke="#9a32cd" stroke-dasharray="5,2" d="M289.82,-116.58C354.64,-118.33 483.35,-121.82 559.35,-123.87"/>
<polygon fill="#9a32cd" stroke="#9a32cd" points="289.7,-113.07 279.61,-116.3 289.51,-120.07 289.7,-113.07"/>
</a>
</g>
<text text-anchor="middle" x="444.5" y="-126.5" font-family="Helvetica,sans-Serif" font-size="10.00" fill="grey"> totalMaximumResourceCapacity</text>
</g>
<!-- Node10 -->
<g id="Node000010" class="node">
<title>Node10</title>
<g id="a_Node000010"><a xlink:href="classPreciseDouble.html" target="_top" xlink:title="Class for precise double&#45;precision floating&#45;point arithmetic.">
<polygon fill="white" stroke="#666666" points="86,-191 0,-191 0,-172 86,-172 86,-191"/>
<text text-anchor="middle" x="43" y="-179" font-family="Helvetica,sans-Serif" font-size="10.00">PreciseDouble</text>
</a>
</g>
</g>
<!-- Node10&#45;&gt;Node5 -->
<g id="edge17_Node000005_Node000010" class="edge">
<title>Node10&#45;&gt;Node5</title>
<g id="a_edge17_Node000005_Node000010"><a xlink:title=" ">
<path fill="none" stroke="#9a32cd" stroke-dasharray="5,2" d="M73.56,-195.21C95.07,-204.4 125.18,-215.67 153,-220.5 316.35,-248.84 361.1,-232.67 526,-215.5 546.18,-213.4 568.56,-209.39 586.36,-205.8"/>
<polygon fill="#9a32cd" stroke="#9a32cd" points="74.88,-191.97 64.32,-191.16 72.08,-198.38 74.88,-191.97"/>
</a>
</g>
<text text-anchor="middle" x="249" y="-249.5" font-family="Helvetica,sans-Serif" font-size="10.00" fill="grey"> hyperVolume</text>
<text text-anchor="middle" x="249" y="-238.5" font-family="Helvetica,sans-Serif" font-size="10.00" fill="grey">size</text>
</g>
<!-- Node10&#45;&gt;Node9 -->
<g id="edge10_Node000009_Node000010" class="edge">
<title>Node10&#45;&gt;Node9</title>
<g id="a_edge10_Node000009_Node000010"><a xlink:title=" ">
<path fill="none" stroke="#9a32cd" stroke-dasharray="5,2" d="M72.09,-167.45C93.74,-157.09 124.68,-143.33 153,-134.5 174.52,-127.79 199.54,-122.9 218.5,-119.76"/>
<polygon fill="#9a32cd" stroke="#9a32cd" points="70.3,-164.42 62.83,-171.93 73.36,-170.72 70.3,-164.42"/>
</a>
</g>
<text text-anchor="middle" x="119.5" y="-155.5" font-family="Helvetica,sans-Serif" font-size="10.00" fill="grey"> value</text>
</g>
<!-- Node11&#45;&gt;Node6 -->
<g id="edge11_Node000006_Node000011" class="edge">
<title>Node11&#45;&gt;Node6</title>
<g id="a_edge11_Node000006_Node000011"><a xlink:title=" ">
<path fill="none" stroke="#9a32cd" stroke-dasharray="5,2" d="M691.88,-94.19C727.44,-98.05 771.16,-103.53 810,-110.5 818.52,-112.03 827.62,-114 836.17,-116"/>
<polygon fill="#9a32cd" stroke="#9a32cd" points="691.92,-90.67 681.61,-93.09 691.18,-97.63 691.92,-90.67"/>
</a>
</g>
<text text-anchor="middle" x="762.5" y="-113.5" font-family="Helvetica,sans-Serif" font-size="10.00" fill="grey"> cellObstacle</text>
</g>
<!-- Node12&#45;&gt;Node6 -->
<g id="edge13_Node000006_Node000012" class="edge">
<title>Node12&#45;&gt;Node6</title>
<g id="a_edge13_Node000006_Node000012"><a xlink:title=" ">
<path fill="none" stroke="#9a32cd" stroke-dasharray="5,2" d="M707.47,-55.34C740.41,-60.66 777.8,-69.12 810,-82.5 829.81,-90.73 849.78,-105.76 861.77,-115.69"/>
<polygon fill="#9a32cd" stroke="#9a32cd" points="707.82,-51.85 697.4,-53.79 706.75,-58.77 707.82,-51.85"/>
</a>
</g>
<text text-anchor="middle" x="762.5" y="-85.5" font-family="Helvetica,sans-Serif" font-size="10.00" fill="grey"> cellHabitatDomain</text>
</g>
<!-- Node13 -->
<g id="Node000013" class="node">
<title>Node13</title>
<g id="a_Node000013"><a xlink:href="classCustomIndexedVector.html" target="_top" xlink:title=" ">
<polygon fill="white" stroke="#666666" points="345,-41 153,-41 153,0 345,0 345,-41"/>
<text text-anchor="start" x="161" y="-29" font-family="Helvetica,sans-Serif" font-size="10.00">CustomIndexedVector</text>
<text text-anchor="start" x="161" y="-18" font-family="Helvetica,sans-Serif" font-size="10.00">&lt; AnimalSpeciesID, CustomIndexed</text>
<text text-anchor="middle" x="249" y="-7" font-family="Helvetica,sans-Serif" font-size="10.00">Vector&lt; Instar, bool &gt; &gt;</text>
</a>
</g>
</g>
<!-- Node13&#45;&gt;Node12 -->
<g id="edge15_Node000012_Node000013" class="edge">
<title>Node13&#45;&gt;Node12</title>
<g id="a_edge15_Node000012_Node000013"><a xlink:title=" ">
<path fill="none" stroke="#9a32cd" stroke-dasharray="5,2" d="M355.33,-26.87C406.81,-30.11 469.66,-34.25 526,-38.5 531.85,-38.94 537.9,-39.42 543.98,-39.91"/>
<polygon fill="#9a32cd" stroke="#9a32cd" points="355.39,-23.36 345.2,-26.23 354.96,-30.35 355.39,-23.36"/>
</a>
</g>
<text text-anchor="middle" x="444.5" y="-41.5" font-family="Helvetica,sans-Serif" font-size="10.00" fill="grey"> habitatDomainStatus</text>
</g>
<!-- Node14 -->
<g id="Node000014" class="node">
<title>Node14</title>
<g id="a_Node000014"><a xlink:href="classPointMap.html" target="_top" xlink:title="Represents a point in a discrete map coordinate system.">
<polygon fill="white" stroke="#666666" points="280,-211 218,-211 218,-192 280,-192 280,-211"/>
<text text-anchor="middle" x="249" y="-199" font-family="Helvetica,sans-Serif" font-size="10.00">PointMap</text>
</a>
</g>
</g>
<!-- Node14&#45;&gt;Node5 -->
<g id="edge16_Node000005_Node000014" class="edge">
<title>Node14&#45;&gt;Node5</title>
<g id="a_edge16_Node000005_Node000014"><a xlink:title=" ">
<path fill="none" stroke="#9a32cd" stroke-dasharray="5,2" d="M290.5,-201.17C364.16,-200.57 518.7,-199.32 586.47,-198.77"/>
<polygon fill="#9a32cd" stroke="#9a32cd" points="290.21,-197.67 280.24,-201.25 290.27,-204.67 290.21,-197.67"/>
</a>
</g>
<text text-anchor="middle" x="444.5" y="-203.5" font-family="Helvetica,sans-Serif" font-size="10.00" fill="grey"> position</text>
</g>
<!-- Node15 -->
<g id="Node000015" class="node">
<title>Node15</title>
<g id="a_Node000015"><a xlink:href="classCustomIndexedVector.html" target="_top" xlink:title="A vector container indexed by a custom type with bounds checking.">
<polygon fill="white" stroke="#666666" points="326.5,-173.5 171.5,-173.5 171.5,-143.5 326.5,-143.5 326.5,-173.5"/>
<text text-anchor="start" x="179.5" y="-161.5" font-family="Helvetica,sans-Serif" font-size="10.00">CustomIndexedVector</text>
<text text-anchor="middle" x="249" y="-150.5" font-family="Helvetica,sans-Serif" font-size="10.00">&lt; IndexType, ContentType &gt;</text>
</a>
</g>
</g>
<!-- Node15&#45;&gt;Node5 -->
<g id="edge18_Node000005_Node000015" class="edge">
<title>Node15&#45;&gt;Node5</title>
<g id="a_edge18_Node000005_Node000015"><a xlink:title=" ">
<path fill="none" stroke="#9a32cd" stroke-dasharray="5,2" d="M336.9,-164.83C391.33,-169.18 462.88,-175.59 526,-183.5 546.06,-186.02 568.43,-189.58 586.26,-192.6"/>
<polygon fill="#9a32cd" stroke="#9a32cd" points="336.84,-161.32 326.59,-164.02 336.29,-168.29 336.84,-161.32"/>
</a>
</g>
<text text-anchor="middle" x="444.5" y="-186.5" font-family="Helvetica,sans-Serif" font-size="10.00" fill="grey"> animals</text>
</g>
</g>
</svg>

<g id="navigator" transform="translate(0 0)" fill="#404254">
  <rect fill="#f2f5e9" fill-opacity="0.5" stroke="#606060" stroke-width=".5" x="0" y="0" width="60" height="60"/>
  <use id="zoomplus" xlink:href="#zoomPlus" x="17" y="9" onmousedown="handleZoom(evt,'in')"/>
  <use id="zoomminus" xlink:href="#zoomMin" x="42" y="9" onmousedown="handleZoom(evt,'out')"/>
  <use id="reset" xlink:href="#resetDef" x="30" y="36" onmousedown="handleReset()"/>
   <use id="arrowup" xlink:href="#arrowUp" x="0" y="0" onmousedown="handlePan(0,-1)"/>
  <use id="arrowright" xlink:href="#arrowRight" x="0" y="0" onmousedown="handlePan(1,0)"/>
  <use id="arrowdown" xlink:href="#arrowDown" x="0" y="0" onmousedown="handlePan(0,1)"/>
  <use id="arrowleft" xlink:href="#arrowLeft" x="0" y="0" onmousedown="handlePan(-1,0)"/>
</g>
<svg viewBox="0 0 15 15" width="100%" height="30px" preserveAspectRatio="xMaxYMin meet">
 <g id="arrow_out" transform="scale(0.3 0.3)">
  <a xlink:href="classEdible__coll__graph_org.svg" target="_base">
   <rect id="button" ry="5" rx="5" y="6" x="6" height="38" width="38"
        fill="#f2f5e9" fill-opacity="0.5" stroke="#606060" stroke-width="1.0"/>
   <path id="arrow"
     d="M 11.500037,31.436501 C 11.940474,20.09759 22.043105,11.32322 32.158766,21.979434 L 37.068811,17.246167 C 37.068811,17.246167 37.088388,32 37.088388,32 L 22.160133,31.978069 C 22.160133,31.978069 26.997745,27.140456 26.997745,27.140456 C 18.528582,18.264221 13.291696,25.230495 11.500037,31.436501 z"
     style="fill:#404040;"/>
  </a>
 </g>
</svg>

<style type='text/css'>
<![CDATA[
[data-mouse-over-selected='false'] { opacity: 0.7; }
[data-mouse-over-selected='true']  { opacity: 1.0; }
]]>
</style>
<script type="application/ecmascript"><![CDATA[
document.addEventListener('DOMContentLoaded', (event) => {
  highlightEdges();
  highlightAdjacentNodes();
});
]]></script>
</svg>
