<?xml version="1.0" encoding="UTF-8" standalone="no"?>
<!DOCTYPE svg PUBLIC "-//W3C//DTD SVG 1.1//EN"
 "http://www.w3.org/Graphics/SVG/1.1/DTD/svg11.dtd">
<!-- Generated by graphviz version 2.43.0 (0)
 -->
<!-- Title: TerrainCell Pages: 1 -->
<svg width="218pt" height="192pt"
 viewBox="0.00 0.00 217.50 192.00" xmlns="http://www.w3.org/2000/svg" xmlns:xlink="http://www.w3.org/1999/xlink">
<g id="graph0" class="graph" transform="scale(1 1) rotate(0) translate(4 188)">
<title>TerrainCell</title>
<!-- Node1 -->
<g id="Node000001" class="node">
<title>Node1</title>
<g id="a_Node000001"><a xlink:title="Represents a single cell in the landscape.">
<polygon fill="#999999" stroke="#666666" points="142,-184 74,-184 74,-165 142,-165 142,-184"/>
<text text-anchor="middle" x="108" y="-172" font-family="Helvetica,sans-Serif" font-size="10.00">TerrainCell</text>
</a>
</g>
</g>
<!-- Node2 -->
<g id="Node000002" class="node">
<title>Node2</title>
<g id="a_Node000002"><a xlink:href="classSpatialTreeTerrainCell.html" target="_top" xlink:title="Represents a terrain cell in a spatial tree structure.">
<polygon fill="white" stroke="#666666" points="169,-129 47,-129 47,-110 169,-110 169,-129"/>
<text text-anchor="middle" x="108" y="-117" font-family="Helvetica,sans-Serif" font-size="10.00">SpatialTreeTerrainCell</text>
</a>
</g>
</g>
<!-- Node1&#45;&gt;Node2 -->
<g id="edge1_Node000001_Node000002" class="edge">
<title>Node1&#45;&gt;Node2</title>
<g id="a_edge1_Node000001_Node000002"><a xlink:title=" ">
<path fill="none" stroke="#63b8ff" d="M108,-154.66C108,-145.93 108,-135.99 108,-129.09"/>
<polygon fill="#63b8ff" stroke="#63b8ff" points="104.5,-154.75 108,-164.75 111.5,-154.75 104.5,-154.75"/>
</a>
</g>
</g>
<!-- Node3 -->
<g id="Node000003" class="node">
<title>Node3</title>
<g id="a_Node000003"><a xlink:href="classBranchTerrainCell.html" target="_top" xlink:title="Represents an internal node (branch) of the spatial tree in the landscape.">
<polygon fill="white" stroke="#666666" points="102,-74 0,-74 0,-55 102,-55 102,-74"/>
<text text-anchor="middle" x="51" y="-62" font-family="Helvetica,sans-Serif" font-size="10.00">BranchTerrainCell</text>
</a>
</g>
</g>
<!-- Node2&#45;&gt;Node3 -->
<g id="edge2_Node000002_Node000003" class="edge">
<title>Node2&#45;&gt;Node3</title>
<g id="a_edge2_Node000002_Node000003"><a xlink:title=" ">
<path fill="none" stroke="#63b8ff" d="M91.38,-103.04C81.27,-93.64 68.72,-81.98 60.32,-74.17"/>
<polygon fill="#63b8ff" stroke="#63b8ff" points="89.14,-105.74 98.84,-109.98 93.9,-100.61 89.14,-105.74"/>
</a>
</g>
</g>
<!-- Node5 -->
<g id="Node000005" class="node">
<title>Node5</title>
<g id="a_Node000005"><a xlink:href="classLeafTerrainCell.html" target="_top" xlink:title="Represents a leaf terrain cell in a spatial tree.">
<polygon fill="white" stroke="#666666" points="209.5,-74 120.5,-74 120.5,-55 209.5,-55 209.5,-74"/>
<text text-anchor="middle" x="165" y="-62" font-family="Helvetica,sans-Serif" font-size="10.00">LeafTerrainCell</text>
</a>
</g>
</g>
<!-- Node2&#45;&gt;Node5 -->
<g id="edge4_Node000002_Node000005" class="edge">
<title>Node2&#45;&gt;Node5</title>
<g id="a_edge4_Node000002_Node000005"><a xlink:title=" ">
<path fill="none" stroke="#63b8ff" d="M124.62,-103.04C134.73,-93.64 147.28,-81.98 155.68,-74.17"/>
<polygon fill="#63b8ff" stroke="#63b8ff" points="122.1,-100.61 117.16,-109.98 126.86,-105.74 122.1,-100.61"/>
</a>
</g>
</g>
<!-- Node4 -->
<g id="Node000004" class="node">
<title>Node4</title>
<g id="a_Node000004"><a xlink:href="classRootTerrainCell.html" target="_top" xlink:title="Represents the root node of the spatial tree in the landscape.">
<polygon fill="white" stroke="#666666" points="96.5,-19 5.5,-19 5.5,0 96.5,0 96.5,-19"/>
<text text-anchor="middle" x="51" y="-7" font-family="Helvetica,sans-Serif" font-size="10.00">RootTerrainCell</text>
</a>
</g>
</g>
<!-- Node3&#45;&gt;Node4 -->
<g id="edge3_Node000003_Node000004" class="edge">
<title>Node3&#45;&gt;Node4</title>
<g id="a_edge3_Node000003_Node000004"><a xlink:title=" ">
<path fill="none" stroke="#63b8ff" d="M51,-44.66C51,-35.93 51,-25.99 51,-19.09"/>
<polygon fill="#63b8ff" stroke="#63b8ff" points="47.5,-44.75 51,-54.75 54.5,-44.75 47.5,-44.75"/>
</a>
</g>
</g>
</g>
</svg>
