<?xml version="1.0" encoding="UTF-8" standalone="no"?>
<!DOCTYPE svg PUBLIC "-//W3C//DTD SVG 1.1//EN"
 "http://www.w3.org/Graphics/SVG/1.1/DTD/svg11.dtd">
<!-- Generated by graphviz version 2.43.0 (0)
 -->
<!-- Title: BranchTerrainCell Pages: 1 -->
<svg width="958pt" height="277pt"
 viewBox="0.00 0.00 958.00 276.50" xmlns="http://www.w3.org/2000/svg" xmlns:xlink="http://www.w3.org/1999/xlink">
<g id="graph0" class="graph" transform="scale(1 1) rotate(0) translate(4 272.5)">
<title>BranchTerrainCell</title>
<!-- Node1 -->
<g id="Node000001" class="node">
<title>Node1</title>
<g id="a_Node000001"><a xlink:title="Represents an internal node (branch) of the spatial tree in the landscape.">
<polygon fill="#999999" stroke="#666666" points="671.5,-258 569.5,-258 569.5,-239 671.5,-239 671.5,-258"/>
<text text-anchor="middle" x="620.5" y="-246" font-family="Helvetica,sans-Serif" font-size="10.00">BranchTerrainCell</text>
</a>
</g>
</g>
<!-- Node2 -->
<g id="Node000002" class="node">
<title>Node2</title>
<g id="a_Node000002"><a xlink:href="classSpatialTreeTerrainCell.html" target="_top" xlink:title="Represents a terrain cell in a spatial tree structure.">
<polygon fill="white" stroke="#666666" points="950,-242 828,-242 828,-223 950,-223 950,-242"/>
<text text-anchor="middle" x="889" y="-230" font-family="Helvetica,sans-Serif" font-size="10.00">SpatialTreeTerrainCell</text>
</a>
</g>
</g>
<!-- Node1&#45;&gt;Node2 -->
<g id="edge17_Node000002_Node000001" class="edge">
<title>Node1&#45;&gt;Node2</title>
<g id="a_edge17_Node000002_Node000001"><a xlink:title=" ">
<path fill="none" stroke="#9a32cd" stroke-dasharray="5,2" d="M681.73,-248.64C718.78,-248.3 767.21,-247.07 810,-243.5 815.72,-243.02 821.67,-242.4 827.61,-241.71"/>
<polygon fill="#9a32cd" stroke="#9a32cd" points="681.57,-245.14 671.59,-248.72 681.62,-252.14 681.57,-245.14"/>
</a>
</g>
<text text-anchor="middle" x="762.5" y="-250.5" font-family="Helvetica,sans-Serif" font-size="10.00" fill="grey"> parentTerrainCell</text>
</g>
<!-- Node2&#45;&gt;Node1 -->
<g id="edge1_Node000001_Node000002" class="edge">
<title>Node2&#45;&gt;Node1</title>
<g id="a_edge1_Node000001_Node000002"><a xlink:title=" ">
<path fill="none" stroke="#63b8ff" d="M817.65,-236.72C771.71,-239.48 712.84,-243.02 671.63,-245.49"/>
<polygon fill="#63b8ff" stroke="#63b8ff" points="818.06,-240.21 827.83,-236.11 817.64,-233.22 818.06,-240.21"/>
</a>
</g>
</g>
<!-- Node3 -->
<g id="Node000003" class="node">
<title>Node3</title>
<g id="a_Node000003"><a xlink:href="classTerrainCell.html" target="_top" xlink:title="Represents a single cell in the landscape.">
<polygon fill="white" stroke="#666666" points="654.5,-204 586.5,-204 586.5,-185 654.5,-185 654.5,-204"/>
<text text-anchor="middle" x="620.5" y="-192" font-family="Helvetica,sans-Serif" font-size="10.00">TerrainCell</text>
</a>
</g>
</g>
<!-- Node3&#45;&gt;Node2 -->
<g id="edge2_Node000002_Node000003" class="edge">
<title>Node3&#45;&gt;Node2</title>
<g id="a_edge2_Node000002_Node000003"><a xlink:title=" ">
<path fill="none" stroke="#63b8ff" d="M664.87,-200.68C709.18,-207 778.34,-216.86 827.91,-223.93"/>
<polygon fill="#63b8ff" stroke="#63b8ff" points="665.11,-197.18 654.71,-199.24 664.12,-204.11 665.11,-197.18"/>
</a>
</g>
</g>
<!-- Node4 -->
<g id="Node000004" class="node">
<title>Node4</title>
<g id="a_Node000004"><a xlink:href="classPatchApplicator.html" target="_top" xlink:title="Applies patches to a TerrainCell including moisture, resources, obstacles, and habitat domains.">
<polygon fill="white" stroke="#666666" points="935,-123 843,-123 843,-104 935,-104 935,-123"/>
<text text-anchor="middle" x="889" y="-111" font-family="Helvetica,sans-Serif" font-size="10.00">PatchApplicator</text>
</a>
</g>
</g>
<!-- Node3&#45;&gt;Node4 -->
<g id="edge4_Node000004_Node000003" class="edge">
<title>Node3&#45;&gt;Node4</title>
<g id="a_edge4_Node000004_Node000003"><a xlink:title=" ">
<path fill="none" stroke="#9a32cd" stroke-dasharray="5,2" d="M664.75,-190.8C703.71,-186.46 762.07,-177.44 810,-159.5 834.44,-150.35 859.98,-133.72 874.92,-123.17"/>
<polygon fill="#9a32cd" stroke="#9a32cd" points="664.36,-187.32 654.79,-191.85 665.1,-194.28 664.36,-187.32"/>
</a>
</g>
<text text-anchor="middle" x="762.5" y="-185.5" font-family="Helvetica,sans-Serif" font-size="10.00" fill="grey"> owner</text>
</g>
<!-- Node4&#45;&gt;Node3 -->
<g id="edge3_Node000003_Node000004" class="edge">
<title>Node4&#45;&gt;Node3</title>
<g id="a_edge3_Node000003_Node000004"><a xlink:title=" ">
<path fill="none" stroke="#9a32cd" stroke-dasharray="5,2" d="M832.78,-123.08C790.68,-130.68 736.42,-141.2 715,-148.5 686.75,-158.13 656.07,-174.45 637.83,-184.84"/>
<polygon fill="#9a32cd" stroke="#9a32cd" points="833.42,-126.52 842.65,-121.31 832.19,-119.63 833.42,-126.52"/>
</a>
</g>
<text text-anchor="middle" x="762.5" y="-151.5" font-family="Helvetica,sans-Serif" font-size="10.00" fill="grey"> patchApplicator</text>
</g>
<!-- Node5 -->
<g id="Node000005" class="node">
<title>Node5</title>
<g id="a_Node000005"><a xlink:href="classCellMoistureInterface.html" target="_top" xlink:title="Base interface representing the hydrological and thermal properties of a terrain cell.">
<polygon fill="white" stroke="#666666" points="681.5,-124 559.5,-124 559.5,-105 681.5,-105 681.5,-124"/>
<text text-anchor="middle" x="620.5" y="-112" font-family="Helvetica,sans-Serif" font-size="10.00">CellMoistureInterface</text>
</a>
</g>
</g>
<!-- Node5&#45;&gt;Node4 -->
<g id="edge5_Node000004_Node000005" class="edge">
<title>Node5&#45;&gt;Node4</title>
<g id="a_edge5_Node000004_Node000005"><a xlink:title=" ">
<path fill="none" stroke="#9a32cd" stroke-dasharray="5,2" d="M691.9,-114.24C739.62,-114.06 801.27,-113.83 842.6,-113.67"/>
<polygon fill="#9a32cd" stroke="#9a32cd" points="691.63,-110.74 681.64,-114.27 691.65,-117.74 691.63,-110.74"/>
</a>
</g>
<text text-anchor="middle" x="762.5" y="-117.5" font-family="Helvetica,sans-Serif" font-size="10.00" fill="grey"> cellMoisture</text>
</g>
<!-- Node6 -->
<g id="Node000006" class="node">
<title>Node6</title>
<g id="a_Node000006"><a xlink:href="classCellElement.html" target="_top" xlink:title="Base class for any modifiable element contained within a terrain cell.">
<polygon fill="white" stroke="#666666" points="287,-81 211,-81 211,-62 287,-62 287,-81"/>
<text text-anchor="middle" x="249" y="-69" font-family="Helvetica,sans-Serif" font-size="10.00">CellElement</text>
</a>
</g>
</g>
<!-- Node6&#45;&gt;Node5 -->
<g id="edge6_Node000005_Node000006" class="edge">
<title>Node6&#45;&gt;Node5</title>
<g id="a_edge6_Node000005_Node000006"><a xlink:title=" ">
<path fill="none" stroke="#63b8ff" d="M297.36,-77.01C364.18,-84.79 486.14,-98.98 559.31,-107.5"/>
<polygon fill="#63b8ff" stroke="#63b8ff" points="297.46,-73.5 287.12,-75.82 296.65,-80.45 297.46,-73.5"/>
</a>
</g>
</g>
<!-- Node9 -->
<g id="Node000009" class="node">
<title>Node9</title>
<g id="a_Node000009"><a xlink:href="classCellObstacleInterface.html" target="_top" xlink:title="Interface for managing obstacles in a terrain cell.">
<polygon fill="white" stroke="#666666" points="681.5,-87 559.5,-87 559.5,-68 681.5,-68 681.5,-87"/>
<text text-anchor="middle" x="620.5" y="-75" font-family="Helvetica,sans-Serif" font-size="10.00">CellObstacleInterface</text>
</a>
</g>
</g>
<!-- Node6&#45;&gt;Node9 -->
<g id="edge10_Node000009_Node000006" class="edge">
<title>Node6&#45;&gt;Node9</title>
<g id="a_edge10_Node000009_Node000006"><a xlink:title=" ">
<path fill="none" stroke="#63b8ff" d="M297.36,-72.27C364.18,-73.35 486.14,-75.33 559.31,-76.52"/>
<polygon fill="#63b8ff" stroke="#63b8ff" points="297.18,-68.77 287.12,-72.1 297.06,-75.76 297.18,-68.77"/>
</a>
</g>
</g>
<!-- Node10 -->
<g id="Node000010" class="node">
<title>Node10</title>
<g id="a_Node000010"><a xlink:href="classCellHabitatDomainInterface.html" target="_top" xlink:title="Represents the habitat&#45;domain information associated with a terrain cell.">
<polygon fill="white" stroke="#666666" points="697,-50 544,-50 544,-31 697,-31 697,-50"/>
<text text-anchor="middle" x="620.5" y="-38" font-family="Helvetica,sans-Serif" font-size="10.00">CellHabitatDomainInterface</text>
</a>
</g>
</g>
<!-- Node6&#45;&gt;Node10 -->
<g id="edge12_Node000010_Node000006" class="edge">
<title>Node6&#45;&gt;Node10</title>
<g id="a_edge12_Node000010_Node000006"><a xlink:title=" ">
<path fill="none" stroke="#63b8ff" d="M297.44,-67.52C359.74,-62.29 469.86,-53.05 543.76,-46.85"/>
<polygon fill="#63b8ff" stroke="#63b8ff" points="296.79,-64.06 287.12,-68.39 297.38,-71.04 296.79,-64.06"/>
</a>
</g>
</g>
<!-- Node7 -->
<g id="Node000007" class="node">
<title>Node7</title>
<g id="a_Node000007"><a xlink:href="classWetMass.html" target="_top" xlink:title="Represents wet mass in the ecosystem simulation.">
<polygon fill="white" stroke="#666666" points="279.5,-135 218.5,-135 218.5,-116 279.5,-116 279.5,-135"/>
<text text-anchor="middle" x="249" y="-123" font-family="Helvetica,sans-Serif" font-size="10.00">WetMass</text>
</a>
</g>
</g>
<!-- Node7&#45;&gt;Node5 -->
<g id="edge7_Node000005_Node000007" class="edge">
<title>Node7&#45;&gt;Node5</title>
<g id="a_edge7_Node000005_Node000007"><a xlink:title=" ">
<path fill="none" stroke="#9a32cd" stroke-dasharray="5,2" d="M289.82,-124.31C354.64,-122.38 483.35,-118.55 559.35,-116.29"/>
<polygon fill="#9a32cd" stroke="#9a32cd" points="289.5,-120.82 279.61,-124.62 289.71,-127.82 289.5,-120.82"/>
</a>
</g>
<text text-anchor="middle" x="444.5" y="-125.5" font-family="Helvetica,sans-Serif" font-size="10.00" fill="grey"> totalMaximumResourceCapacity</text>
</g>
<!-- Node8 -->
<g id="Node000008" class="node">
<title>Node8</title>
<g id="a_Node000008"><a xlink:href="classPreciseDouble.html" target="_top" xlink:title="Class for precise double&#45;precision floating&#45;point arithmetic.">
<polygon fill="white" stroke="#666666" points="86,-201 0,-201 0,-182 86,-182 86,-201"/>
<text text-anchor="middle" x="43" y="-189" font-family="Helvetica,sans-Serif" font-size="10.00">PreciseDouble</text>
</a>
</g>
</g>
<!-- Node8&#45;&gt;Node3 -->
<g id="edge15_Node000003_Node000008" class="edge">
<title>Node8&#45;&gt;Node3</title>
<g id="a_edge15_Node000003_Node000008"><a xlink:title=" ">
<path fill="none" stroke="#9a32cd" stroke-dasharray="5,2" d="M73.56,-205.21C95.07,-214.4 125.18,-225.67 153,-230.5 316.4,-258.85 362.37,-247.45 526,-220.5 548.28,-216.83 572.85,-209.88 591.21,-204.09"/>
<polygon fill="#9a32cd" stroke="#9a32cd" points="74.88,-201.97 64.32,-201.16 72.08,-208.38 74.88,-201.97"/>
</a>
</g>
<text text-anchor="middle" x="249" y="-260.5" font-family="Helvetica,sans-Serif" font-size="10.00" fill="grey"> hyperVolume</text>
<text text-anchor="middle" x="249" y="-249.5" font-family="Helvetica,sans-Serif" font-size="10.00" fill="grey">size</text>
</g>
<!-- Node8&#45;&gt;Node7 -->
<g id="edge8_Node000007_Node000008" class="edge">
<title>Node8&#45;&gt;Node7</title>
<g id="a_edge8_Node000007_Node000008"><a xlink:title=" ">
<path fill="none" stroke="#9a32cd" stroke-dasharray="5,2" d="M72.09,-177.45C93.74,-167.09 124.68,-153.33 153,-144.5 174.52,-137.79 199.54,-132.9 218.5,-129.76"/>
<polygon fill="#9a32cd" stroke="#9a32cd" points="70.3,-174.42 62.83,-181.93 73.36,-180.72 70.3,-174.42"/>
</a>
</g>
<text text-anchor="middle" x="119.5" y="-165.5" font-family="Helvetica,sans-Serif" font-size="10.00" fill="grey"> value</text>
</g>
<!-- Node9&#45;&gt;Node4 -->
<g id="edge9_Node000004_Node000009" class="edge">
<title>Node9&#45;&gt;Node4</title>
<g id="a_edge9_Node000004_Node000009"><a xlink:title=" ">
<path fill="none" stroke="#9a32cd" stroke-dasharray="5,2" d="M692.14,-84.71C727.59,-88.58 771.14,-93.75 810,-99.5 820.62,-101.07 832,-102.98 842.71,-104.89"/>
<polygon fill="#9a32cd" stroke="#9a32cd" points="692.22,-81.19 681.9,-83.59 691.46,-88.15 692.22,-81.19"/>
</a>
</g>
<text text-anchor="middle" x="762.5" y="-102.5" font-family="Helvetica,sans-Serif" font-size="10.00" fill="grey"> cellObstacle</text>
</g>
<!-- Node10&#45;&gt;Node4 -->
<g id="edge11_Node000004_Node000010" class="edge">
<title>Node10&#45;&gt;Node4</title>
<g id="a_edge11_Node000004_Node000010"><a xlink:title=" ">
<path fill="none" stroke="#9a32cd" stroke-dasharray="5,2" d="M707.09,-49.94C739.83,-54.98 777.17,-62.49 810,-73.5 832.94,-81.19 857.47,-94.76 872.77,-103.94"/>
<polygon fill="#9a32cd" stroke="#9a32cd" points="707.5,-46.46 697.09,-48.45 706.47,-53.38 707.5,-46.46"/>
</a>
</g>
<text text-anchor="middle" x="762.5" y="-76.5" font-family="Helvetica,sans-Serif" font-size="10.00" fill="grey"> cellHabitatDomain</text>
</g>
<!-- Node11 -->
<g id="Node000011" class="node">
<title>Node11</title>
<g id="a_Node000011"><a xlink:href="classCustomIndexedVector.html" target="_top" xlink:title=" ">
<polygon fill="white" stroke="#666666" points="345,-41 153,-41 153,0 345,0 345,-41"/>
<text text-anchor="start" x="161" y="-29" font-family="Helvetica,sans-Serif" font-size="10.00">CustomIndexedVector</text>
<text text-anchor="start" x="161" y="-18" font-family="Helvetica,sans-Serif" font-size="10.00">&lt; AnimalSpeciesID, CustomIndexed</text>
<text text-anchor="middle" x="249" y="-7" font-family="Helvetica,sans-Serif" font-size="10.00">Vector&lt; Instar, bool &gt; &gt;</text>
</a>
</g>
</g>
<!-- Node11&#45;&gt;Node10 -->
<g id="edge13_Node000010_Node000011" class="edge">
<title>Node11&#45;&gt;Node10</title>
<g id="a_edge13_Node000010_Node000011"><a xlink:title=" ">
<path fill="none" stroke="#9a32cd" stroke-dasharray="5,2" d="M355.25,-16.03C406.83,-15.08 469.8,-15.75 526,-21.5 544.29,-23.37 564.3,-27.19 581.1,-30.92"/>
<polygon fill="#9a32cd" stroke="#9a32cd" points="355.01,-12.54 345.09,-16.25 355.16,-19.54 355.01,-12.54"/>
</a>
</g>
<text text-anchor="middle" x="444.5" y="-24.5" font-family="Helvetica,sans-Serif" font-size="10.00" fill="grey"> habitatDomainStatus</text>
</g>
<!-- Node12 -->
<g id="Node000012" class="node">
<title>Node12</title>
<g id="a_Node000012"><a xlink:href="classPointMap.html" target="_top" xlink:title="Represents a point in a discrete map coordinate system.">
<polygon fill="white" stroke="#666666" points="280,-221 218,-221 218,-202 280,-202 280,-221"/>
<text text-anchor="middle" x="249" y="-209" font-family="Helvetica,sans-Serif" font-size="10.00">PointMap</text>
</a>
</g>
</g>
<!-- Node12&#45;&gt;Node3 -->
<g id="edge14_Node000003_Node000012" class="edge">
<title>Node12&#45;&gt;Node3</title>
<g id="a_edge14_Node000003_Node000012"><a xlink:title=" ">
<path fill="none" stroke="#9a32cd" stroke-dasharray="5,2" d="M290.5,-209.64C364.16,-206.25 518.7,-199.14 586.47,-196.02"/>
<polygon fill="#9a32cd" stroke="#9a32cd" points="290.07,-206.15 280.24,-210.11 290.39,-213.15 290.07,-206.15"/>
</a>
</g>
<text text-anchor="middle" x="444.5" y="-208.5" font-family="Helvetica,sans-Serif" font-size="10.00" fill="grey"> position</text>
</g>
<!-- Node13 -->
<g id="Node000013" class="node">
<title>Node13</title>
<g id="a_Node000013"><a xlink:href="classCustomIndexedVector.html" target="_top" xlink:title="A vector container indexed by a custom type with bounds checking.">
<polygon fill="white" stroke="#666666" points="326.5,-183.5 171.5,-183.5 171.5,-153.5 326.5,-153.5 326.5,-183.5"/>
<text text-anchor="start" x="179.5" y="-171.5" font-family="Helvetica,sans-Serif" font-size="10.00">CustomIndexedVector</text>
<text text-anchor="middle" x="249" y="-160.5" font-family="Helvetica,sans-Serif" font-size="10.00">&lt; IndexType, ContentType &gt;</text>
</a>
</g>
</g>
<!-- Node13&#45;&gt;Node3 -->
<g id="edge16_Node000003_Node000013" class="edge">
<title>Node13&#45;&gt;Node3</title>
<g id="a_edge16_Node000003_Node000013"><a xlink:title=" ">
<path fill="none" stroke="#9a32cd" stroke-dasharray="5,2" d="M336.83,-171.82C391.23,-174.25 462.78,-178.07 526,-183.5 546.03,-185.22 568.4,-187.83 586.23,-190.07"/>
<polygon fill="#9a32cd" stroke="#9a32cd" points="336.68,-168.31 326.53,-171.37 336.37,-175.3 336.68,-168.31"/>
</a>
</g>
<text text-anchor="middle" x="444.5" y="-186.5" font-family="Helvetica,sans-Serif" font-size="10.00" fill="grey"> animals</text>
</g>
</g>
</svg>
