<?xml version="1.0" encoding="UTF-8" standalone="no"?>
<!DOCTYPE svg PUBLIC "-//W3C//DTD SVG 1.1//EN"
 "http://www.w3.org/Graphics/SVG/1.1/DTD/svg11.dtd">
<!-- Generated by graphviz version 2.43.0 (0)
 -->
<!-- Title: /home/runner/work/Weaver/Weaver/include/App/Model/IBM/Maths/Dynamics/Decay/Decay.h Pages: 1 -->
<!--zoomable 247 -->

<svg id="main" version="1.1" xmlns="http://www.w3.org/2000/svg" xmlns:xlink="http://www.w3.org/1999/xlink" xml:space="preserve" onload="init(evt)">
<style type="text/css"><![CDATA[
.node, .edge {opacity: 0.7;}
.node.selected, .edge.selected {opacity: 1;}
.edge:hover path { stroke: red; }
.edge:hover polygon { stroke: red; fill: red; }
]]></style>

<defs>
  <circle id="rim" cx="0" cy="0" r="7"/>
  <circle id="rim2" cx="0" cy="0" r="3.5"/>
  <g id="zoomPlus">
    <use xlink:href="#rim" fill="#404040"><set attributeName="fill" to="#808080" begin="zoomplus.mouseover" end="zoomplus.mouseout"/></use>
    <path d="M-4,0h8M0,-4v8" fill="none" stroke="white" stroke-width="1.5" pointer-events="none"/>
  </g>
  <g id="zoomMin">
    <use xlink:href="#rim" fill="#404040"><set attributeName="fill" to="#808080" begin="zoomminus.mouseover" end="zoomminus.mouseout"/></use>
    <path d="M-4,0h8" fill="none" stroke="white" stroke-width="1.5" pointer-events="none"/>
  </g>
  <g id="arrowUp" transform="translate(30 24)">
    <use xlink:href="#rim"/>
    <path pointer-events="none" fill="none" stroke="white" stroke-width="1.5" d="M0,-3.0v7 M-2.5,-0.5L0,-3.0L2.5,-0.5"/>
  </g>
  <g id="arrowRight" transform="rotate(90) translate(36 -43)">
    <use xlink:href="#rim"/>
    <path pointer-events="none" fill="none" stroke="white" stroke-width="1.5" d="M0,-3.0v7 M-2.5,-0.5L0,-3.0L2.5,-0.5"/>
  </g>
  <g id="arrowDown" transform="rotate(180) translate(-30 -48)">
    <use xlink:href="#rim"/>
    <path pointer-events="none" fill="none" stroke="white" stroke-width="1.5" d="M0,-3.0v7 M-2.5,-0.5L0,-3.0L2.5,-0.5"/>
  </g>
  <g id="arrowLeft" transform="rotate(270) translate(-36 17)">
    <use xlink:href="#rim"/>
    <path pointer-events="none" fill="none" stroke="white" stroke-width="1.5" d="M0,-3.0v7 M-2.5,-0.5L0,-3.0L2.5,-0.5"/>
  </g>
  <g id="resetDef">
    <use xlink:href="#rim2" fill="#404040"><set attributeName="fill" to="#808080" begin="reset.mouseover" end="reset.mouseout"/></use>
  </g>
</defs>
<script type="application/ecmascript">
var viewWidth = 1546;
var viewHeight = 247;
var sectionId = 'dynsection-0';
</script>
<script type="application/ecmascript" xlink:href="svg.min.js"/>
<svg id="graph" class="graph">
<g id="viewport">
<title>/home/runner/work/Weaver/Weaver/include/App/Model/IBM/Maths/Dynamics/Decay/Decay.h</title>
<!-- Node1 -->
<g id="Node000001" class="node">
<title>Node1</title>
<g id="a_Node000001"><a xlink:title="Defines the abstract Decay class for modeling decay processes.">
<polygon fill="#999999" stroke="#666666" points="658,-239 501,-239 501,-187 658,-187 658,-239"/>
<text text-anchor="start" x="509" y="-227" font-family="Helvetica,sans-Serif" font-size="10.00">/home/runner/work/Weaver</text>
<text text-anchor="start" x="509" y="-216" font-family="Helvetica,sans-Serif" font-size="10.00">/Weaver/include/App/Model</text>
<text text-anchor="start" x="509" y="-205" font-family="Helvetica,sans-Serif" font-size="10.00">/IBM/Maths/Dynamics/Decay</text>
<text text-anchor="middle" x="579.5" y="-194" font-family="Helvetica,sans-Serif" font-size="10.00">/Decay.h</text>
</a>
</g>
</g>
<!-- Node2 -->
<g id="Node000002" class="node">
<title>Node2</title>
<g id="a_Node000002"><a xlink:title=" ">
<polygon fill="#e0e0e0" stroke="#999999" points="105,-85 0,-85 0,-55 105,-55 105,-85"/>
<text text-anchor="start" x="8" y="-73" font-family="Helvetica,sans-Serif" font-size="10.00">boost/archive/text</text>
<text text-anchor="middle" x="52.5" y="-62" font-family="Helvetica,sans-Serif" font-size="10.00">_iarchive.hpp</text>
</a>
</g>
</g>
<!-- Node1&#45;&gt;Node2 -->
<g id="edge1_Node000001_Node000002" class="edge">
<title>Node1&#45;&gt;Node2</title>
<g id="a_edge1_Node000001_Node000002"><a xlink:title=" ">
<path fill="none" stroke="#63b8ff" d="M500.87,-194.17C450.56,-182.51 384,-166.59 325.5,-151 249.8,-130.83 163.09,-104.94 108.09,-88.16"/>
<polygon fill="#63b8ff" stroke="#63b8ff" points="108.78,-84.72 98.19,-85.14 106.73,-91.41 108.78,-84.72"/>
</a>
</g>
</g>
<!-- Node3 -->
<g id="Node000003" class="node">
<title>Node3</title>
<g id="a_Node000003"><a xlink:title=" ">
<polygon fill="#e0e0e0" stroke="#999999" points="228,-85 123,-85 123,-55 228,-55 228,-85"/>
<text text-anchor="start" x="131" y="-73" font-family="Helvetica,sans-Serif" font-size="10.00">boost/archive/text</text>
<text text-anchor="middle" x="175.5" y="-62" font-family="Helvetica,sans-Serif" font-size="10.00">_oarchive.hpp</text>
</a>
</g>
</g>
<!-- Node1&#45;&gt;Node3 -->
<g id="edge2_Node000001_Node000003" class="edge">
<title>Node1&#45;&gt;Node3</title>
<g id="a_edge2_Node000001_Node000003"><a xlink:title=" ">
<path fill="none" stroke="#63b8ff" d="M507.74,-186.95C426.53,-158.61 296.36,-113.18 225.47,-88.44"/>
<polygon fill="#63b8ff" stroke="#63b8ff" points="226.46,-85.08 215.87,-85.09 224.16,-91.69 226.46,-85.08"/>
</a>
</g>
</g>
<!-- Node4 -->
<g id="Node000004" class="node">
<title>Node4</title>
<g id="a_Node000004"><a xlink:title=" ">
<polygon fill="#e0e0e0" stroke="#999999" points="362.5,-85 246.5,-85 246.5,-55 362.5,-55 362.5,-85"/>
<text text-anchor="start" x="254.5" y="-73" font-family="Helvetica,sans-Serif" font-size="10.00">boost/archive/binary</text>
<text text-anchor="middle" x="304.5" y="-62" font-family="Helvetica,sans-Serif" font-size="10.00">_iarchive.hpp</text>
</a>
</g>
</g>
<!-- Node1&#45;&gt;Node4 -->
<g id="edge3_Node000001_Node000004" class="edge">
<title>Node1&#45;&gt;Node4</title>
<g id="a_edge3_Node000001_Node000004"><a xlink:title=" ">
<path fill="none" stroke="#63b8ff" d="M530.65,-186.95C476.28,-159.08 389.66,-114.66 340.91,-89.67"/>
<polygon fill="#63b8ff" stroke="#63b8ff" points="342.47,-86.54 331.98,-85.09 339.28,-92.77 342.47,-86.54"/>
</a>
</g>
</g>
<!-- Node5 -->
<g id="Node000005" class="node">
<title>Node5</title>
<g id="a_Node000005"><a xlink:title=" ">
<polygon fill="#e0e0e0" stroke="#999999" points="496.5,-85 380.5,-85 380.5,-55 496.5,-55 496.5,-85"/>
<text text-anchor="start" x="388.5" y="-73" font-family="Helvetica,sans-Serif" font-size="10.00">boost/archive/binary</text>
<text text-anchor="middle" x="438.5" y="-62" font-family="Helvetica,sans-Serif" font-size="10.00">_oarchive.hpp</text>
</a>
</g>
</g>
<!-- Node1&#45;&gt;Node5 -->
<g id="edge4_Node000001_Node000005" class="edge">
<title>Node1&#45;&gt;Node5</title>
<g id="a_edge4_Node000001_Node000005"><a xlink:title=" ">
<path fill="none" stroke="#63b8ff" d="M548.25,-186.8C535.55,-176.14 520.97,-163.35 508.5,-151 489.75,-132.42 470.09,-109.62 456.4,-93.12"/>
<polygon fill="#63b8ff" stroke="#63b8ff" points="458.88,-90.62 449.82,-85.12 453.47,-95.07 458.88,-90.62"/>
</a>
</g>
</g>
<!-- Node6 -->
<g id="Node000006" class="node">
<title>Node6</title>
<g id="a_Node000006"><a xlink:title=" ">
<polygon fill="#e0e0e0" stroke="#999999" points="974.5,-19 930.5,-19 930.5,0 974.5,0 974.5,-19"/>
<text text-anchor="middle" x="952.5" y="-7" font-family="Helvetica,sans-Serif" font-size="10.00">string</text>
</a>
</g>
</g>
<!-- Node1&#45;&gt;Node6 -->
<g id="edge5_Node000001_Node000006" class="edge">
<title>Node1&#45;&gt;Node6</title>
<g id="a_edge5_Node000001_Node000006"><a xlink:title=" ">
<path fill="none" stroke="#63b8ff" d="M658.28,-197.72C730.79,-181.17 837.8,-147.73 910.5,-85 928.02,-69.88 939.78,-45.56 946.29,-28.84"/>
<polygon fill="#63b8ff" stroke="#63b8ff" points="949.69,-29.72 949.82,-19.13 943.12,-27.33 949.69,-29.72"/>
</a>
</g>
</g>
<!-- Node7 -->
<g id="Node000007" class="node">
<title>Node7</title>
<g id="a_Node000007"><a xlink:title=" ">
<polygon fill="#e0e0e0" stroke="#999999" points="1537.5,-79.5 1481.5,-79.5 1481.5,-60.5 1537.5,-60.5 1537.5,-79.5"/>
<text text-anchor="middle" x="1509.5" y="-67.5" font-family="Helvetica,sans-Serif" font-size="10.00">sstream</text>
</a>
</g>
</g>
<!-- Node1&#45;&gt;Node7 -->
<g id="edge6_Node000001_Node000007" class="edge">
<title>Node1&#45;&gt;Node7</title>
<g id="a_edge6_Node000001_Node000007"><a xlink:title=" ">
<path fill="none" stroke="#63b8ff" d="M658.01,-208.9C792.09,-202.71 1059.1,-186.3 1145.5,-151 1165.42,-142.86 1163.65,-129.3 1183.5,-121 1303.33,-70.91 1347.57,-116.78 1473.5,-85 1475.8,-84.42 1478.16,-83.73 1480.51,-82.97"/>
<polygon fill="#63b8ff" stroke="#63b8ff" points="1481.74,-86.25 1489.98,-79.6 1479.39,-79.66 1481.74,-86.25"/>
</a>
</g>
</g>
<!-- Node8 -->
<g id="Node000008" class="node">
<title>Node8</title>
<g id="a_Node000008"><a xlink:title=" ">
<polygon fill="#e0e0e0" stroke="#999999" points="1302.5,-145.5 1192.5,-145.5 1192.5,-126.5 1302.5,-126.5 1302.5,-145.5"/>
<text text-anchor="middle" x="1247.5" y="-133.5" font-family="Helvetica,sans-Serif" font-size="10.00">nlohmann/json.hpp</text>
</a>
</g>
</g>
<!-- Node1&#45;&gt;Node8 -->
<g id="edge7_Node000001_Node000008" class="edge">
<title>Node1&#45;&gt;Node8</title>
<g id="a_edge7_Node000001_Node000008"><a xlink:title=" ">
<path fill="none" stroke="#63b8ff" d="M658.31,-206.47C773.14,-197.84 993,-179.19 1178.5,-151 1185.16,-149.99 1192.15,-148.76 1199.01,-147.46"/>
<polygon fill="#63b8ff" stroke="#63b8ff" points="1199.79,-150.88 1208.94,-145.52 1198.45,-144.01 1199.79,-150.88"/>
</a>
</g>
</g>
<!-- Node9 -->
<g id="Node000009" class="node">
<title>Node9</title>
<g id="a_Node000009"><a xlink:href="EnumClass_8h.html" target="_top" xlink:title="Template helper class for working with strongly&#45;typed enums.">
<polygon fill="white" stroke="#666666" points="1136,-145.5 1031,-145.5 1031,-126.5 1136,-126.5 1136,-145.5"/>
<text text-anchor="middle" x="1083.5" y="-133.5" font-family="Helvetica,sans-Serif" font-size="10.00">Misc/EnumClass.h</text>
</a>
</g>
</g>
<!-- Node1&#45;&gt;Node9 -->
<g id="edge8_Node000001_Node000009" class="edge">
<title>Node1&#45;&gt;Node9</title>
<g id="a_edge8_Node000001_Node000009"><a xlink:title=" ">
<path fill="none" stroke="#63b8ff" d="M658.25,-200.28C758.32,-185.39 929.03,-159.99 1020.78,-146.33"/>
<polygon fill="#63b8ff" stroke="#63b8ff" points="1021.38,-149.78 1030.75,-144.85 1020.35,-142.86 1021.38,-149.78"/>
</a>
</g>
</g>
<!-- Node14 -->
<g id="Node000014" class="node">
<title>Node14</title>
<g id="a_Node000014"><a xlink:href="PreciseDouble_8h.html" target="_top" xlink:title="Defines the PreciseDouble class for safe and precise double&#45;precision arithmetic.">
<polygon fill="white" stroke="#666666" points="641,-151 518,-151 518,-121 641,-121 641,-151"/>
<text text-anchor="start" x="526" y="-139" font-family="Helvetica,sans-Serif" font-size="10.00">App/Model/IBM/Maths</text>
<text text-anchor="middle" x="579.5" y="-128" font-family="Helvetica,sans-Serif" font-size="10.00">/PreciseDouble.h</text>
</a>
</g>
</g>
<!-- Node1&#45;&gt;Node14 -->
<g id="edge16_Node000001_Node000014" class="edge">
<title>Node1&#45;&gt;Node14</title>
<g id="a_edge16_Node000001_Node000014"><a xlink:title=" ">
<path fill="none" stroke="#63b8ff" d="M579.5,-186.61C579.5,-178.54 579.5,-169.64 579.5,-161.63"/>
<polygon fill="#63b8ff" stroke="#63b8ff" points="583,-161.43 579.5,-151.43 576,-161.43 583,-161.43"/>
</a>
</g>
</g>
<!-- Node9&#45;&gt;Node6 -->
<g id="edge10_Node000009_Node000006" class="edge">
<title>Node9&#45;&gt;Node6</title>
<g id="a_edge10_Node000009_Node000006"><a xlink:title=" ">
<path fill="none" stroke="#63b8ff" d="M1058.76,-126.49C1038.36,-118.44 1009.73,-104.65 990.5,-85 974.84,-69 964.26,-45.24 958.32,-28.88"/>
<polygon fill="#63b8ff" stroke="#63b8ff" points="961.61,-27.69 955.08,-19.35 954.98,-29.94 961.61,-27.69"/>
</a>
</g>
</g>
<!-- Node9&#45;&gt;Node7 -->
<g id="edge9_Node000009_Node000007" class="edge">
<title>Node9&#45;&gt;Node7</title>
<g id="a_edge9_Node000009_Node000007"><a xlink:title=" ">
<path fill="none" stroke="#63b8ff" d="M1121.3,-126.45C1130.8,-124.48 1141,-122.52 1150.5,-121 1293.13,-98.2 1333.23,-119.47 1473.5,-85 1475.86,-84.42 1478.28,-83.72 1480.69,-82.95"/>
<polygon fill="#63b8ff" stroke="#63b8ff" points="1482.12,-86.16 1490.37,-79.5 1479.77,-79.56 1482.12,-86.16"/>
</a>
</g>
</g>
<!-- Node10 -->
<g id="Node000010" class="node">
<title>Node10</title>
<g id="a_Node000010"><a xlink:title=" ">
<polygon fill="#e0e0e0" stroke="#999999" points="1279,-79.5 1186,-79.5 1186,-60.5 1279,-60.5 1279,-79.5"/>
<text text-anchor="middle" x="1232.5" y="-67.5" font-family="Helvetica,sans-Serif" font-size="10.00">unordered_map</text>
</a>
</g>
</g>
<!-- Node9&#45;&gt;Node10 -->
<g id="edge11_Node000009_Node000010" class="edge">
<title>Node9&#45;&gt;Node10</title>
<g id="a_edge11_Node000009_Node000010"><a xlink:title=" ">
<path fill="none" stroke="#63b8ff" d="M1103.59,-126.37C1129.14,-115.39 1173.46,-96.36 1202.89,-83.72"/>
<polygon fill="#63b8ff" stroke="#63b8ff" points="1204.44,-86.86 1212.25,-79.7 1201.68,-80.43 1204.44,-86.86"/>
</a>
</g>
</g>
<!-- Node11 -->
<g id="Node000011" class="node">
<title>Node11</title>
<g id="a_Node000011"><a xlink:title=" ">
<polygon fill="#e0e0e0" stroke="#999999" points="1464,-79.5 1297,-79.5 1297,-60.5 1464,-60.5 1464,-79.5"/>
<text text-anchor="middle" x="1380.5" y="-67.5" font-family="Helvetica,sans-Serif" font-size="10.00">magic_enum/magic_enum.hpp</text>
</a>
</g>
</g>
<!-- Node9&#45;&gt;Node11 -->
<g id="edge12_Node000009_Node000011" class="edge">
<title>Node9&#45;&gt;Node11</title>
<g id="a_edge12_Node000009_Node000011"><a xlink:title=" ">
<path fill="none" stroke="#63b8ff" d="M1123.25,-126.44C1176.93,-114.87 1272.58,-94.26 1330.9,-81.69"/>
<polygon fill="#63b8ff" stroke="#63b8ff" points="1331.95,-85.04 1340.99,-79.51 1330.48,-78.2 1331.95,-85.04"/>
</a>
</g>
</g>
<!-- Node12 -->
<g id="Node000012" class="node">
<title>Node12</title>
<g id="a_Node000012"><a xlink:href="LineInfoException_8h.html" target="_top" xlink:title="Exception class with detailed file and line information for error reporting.">
<polygon fill="white" stroke="#666666" points="1168,-79.5 999,-79.5 999,-60.5 1168,-60.5 1168,-79.5"/>
<text text-anchor="middle" x="1083.5" y="-67.5" font-family="Helvetica,sans-Serif" font-size="10.00">Exceptions/LineInfoException.h</text>
</a>
</g>
</g>
<!-- Node9&#45;&gt;Node12 -->
<g id="edge13_Node000009_Node000012" class="edge">
<title>Node9&#45;&gt;Node12</title>
<g id="a_edge13_Node000009_Node000012"><a xlink:title=" ">
<path fill="none" stroke="#63b8ff" d="M1083.5,-126.37C1083.5,-117.16 1083.5,-102.29 1083.5,-90.27"/>
<polygon fill="#63b8ff" stroke="#63b8ff" points="1087,-89.91 1083.5,-79.91 1080,-89.91 1087,-89.91"/>
</a>
</g>
</g>
<!-- Node12&#45;&gt;Node6 -->
<g id="edge15_Node000012_Node000006" class="edge">
<title>Node12&#45;&gt;Node6</title>
<g id="a_edge15_Node000012_Node000006"><a xlink:title=" ">
<path fill="none" stroke="#63b8ff" d="M1064.45,-60.49C1042.53,-50.7 1006.29,-34.52 981,-23.23"/>
<polygon fill="#63b8ff" stroke="#63b8ff" points="982.13,-19.9 971.57,-19.02 979.28,-26.29 982.13,-19.9"/>
</a>
</g>
</g>
<!-- Node13 -->
<g id="Node000013" class="node">
<title>Node13</title>
<g id="a_Node000013"><a xlink:title=" ">
<polygon fill="#e0e0e0" stroke="#999999" points="1116,-19 1051,-19 1051,0 1116,0 1116,-19"/>
<text text-anchor="middle" x="1083.5" y="-7" font-family="Helvetica,sans-Serif" font-size="10.00">exception</text>
</a>
</g>
</g>
<!-- Node12&#45;&gt;Node13 -->
<g id="edge14_Node000012_Node000013" class="edge">
<title>Node12&#45;&gt;Node13</title>
<g id="a_edge14_Node000012_Node000013"><a xlink:title=" ">
<path fill="none" stroke="#63b8ff" d="M1083.5,-60.37C1083.5,-52.25 1083.5,-39.81 1083.5,-29.39"/>
<polygon fill="#63b8ff" stroke="#63b8ff" points="1087,-29.17 1083.5,-19.17 1080,-29.17 1087,-29.17"/>
</a>
</g>
</g>
<!-- Node14&#45;&gt;Node2 -->
<g id="edge17_Node000014_Node000002" class="edge">
<title>Node14&#45;&gt;Node2</title>
<g id="a_edge17_Node000014_Node000002"><a xlink:title=" ">
<path fill="none" stroke="#63b8ff" d="M517.74,-130.72C430.23,-124.14 264.97,-109.8 115.6,-85.24"/>
<polygon fill="#63b8ff" stroke="#63b8ff" points="115.76,-81.72 105.32,-83.53 114.61,-88.62 115.76,-81.72"/>
</a>
</g>
</g>
<!-- Node14&#45;&gt;Node3 -->
<g id="edge18_Node000014_Node000003" class="edge">
<title>Node14&#45;&gt;Node3</title>
<g id="a_edge18_Node000014_Node000003"><a xlink:title=" ">
<path fill="none" stroke="#63b8ff" d="M517.79,-127.43C451.27,-118.94 342.08,-104.07 238.24,-85.05"/>
<polygon fill="#63b8ff" stroke="#63b8ff" points="238.68,-81.57 228.21,-83.19 237.41,-88.45 238.68,-81.57"/>
</a>
</g>
</g>
<!-- Node14&#45;&gt;Node4 -->
<g id="edge19_Node000014_Node000004" class="edge">
<title>Node14&#45;&gt;Node4</title>
<g id="a_edge19_Node000014_Node000004"><a xlink:title=" ">
<path fill="none" stroke="#63b8ff" d="M519.15,-120.95C475.94,-110.9 417.69,-97.34 372.77,-86.89"/>
<polygon fill="#63b8ff" stroke="#63b8ff" points="373.36,-83.43 362.82,-84.57 371.77,-90.25 373.36,-83.43"/>
</a>
</g>
</g>
<!-- Node14&#45;&gt;Node5 -->
<g id="edge20_Node000014_Node000005" class="edge">
<title>Node14&#45;&gt;Node5</title>
<g id="a_edge20_Node000014_Node000005"><a xlink:title=" ">
<path fill="none" stroke="#63b8ff" d="M548.56,-120.95C527.99,-111.62 500.77,-99.27 478.55,-89.18"/>
<polygon fill="#63b8ff" stroke="#63b8ff" points="479.92,-85.96 469.37,-85.01 477.03,-92.33 479.92,-85.96"/>
</a>
</g>
</g>
<!-- Node14&#45;&gt;Node6 -->
<g id="edge21_Node000014_Node000006" class="edge">
<title>Node14&#45;&gt;Node6</title>
<g id="a_edge21_Node000014_Node000006"><a xlink:title=" ">
<path fill="none" stroke="#63b8ff" d="M641.15,-135.23C703.66,-133.1 801.6,-123.15 876.5,-85 903.42,-71.29 926.95,-44.7 940.45,-27.28"/>
<polygon fill="#63b8ff" stroke="#63b8ff" points="943.36,-29.23 946.55,-19.12 937.76,-25.03 943.36,-29.23"/>
</a>
</g>
</g>
<!-- Node15 -->
<g id="Node000015" class="node">
<title>Node15</title>
<g id="a_Node000015"><a xlink:title=" ">
<polygon fill="#e0e0e0" stroke="#999999" points="785,-79.5 738,-79.5 738,-60.5 785,-60.5 785,-79.5"/>
<text text-anchor="middle" x="761.5" y="-67.5" font-family="Helvetica,sans-Serif" font-size="10.00">cmath</text>
</a>
</g>
</g>
<!-- Node14&#45;&gt;Node15 -->
<g id="edge22_Node000014_Node000015" class="edge">
<title>Node14&#45;&gt;Node15</title>
<g id="a_edge22_Node000014_Node000015"><a xlink:title=" ">
<path fill="none" stroke="#63b8ff" d="M624.48,-120.91C654.21,-111.35 693.93,-98.11 728.5,-85 729.88,-84.48 731.29,-83.93 732.71,-83.37"/>
<polygon fill="#63b8ff" stroke="#63b8ff" points="734.13,-86.57 742.06,-79.54 731.48,-80.09 734.13,-86.57"/>
</a>
</g>
</g>
<!-- Node16 -->
<g id="Node000016" class="node">
<title>Node16</title>
<g id="a_Node000016"><a xlink:title=" ">
<polygon fill="#e0e0e0" stroke="#999999" points="867.5,-79.5 803.5,-79.5 803.5,-60.5 867.5,-60.5 867.5,-79.5"/>
<text text-anchor="middle" x="835.5" y="-67.5" font-family="Helvetica,sans-Serif" font-size="10.00">algorithm</text>
</a>
</g>
</g>
<!-- Node14&#45;&gt;Node16 -->
<g id="edge23_Node000014_Node000016" class="edge">
<title>Node14&#45;&gt;Node16</title>
<g id="a_edge23_Node000014_Node000016"><a xlink:title=" ">
<path fill="none" stroke="#63b8ff" d="M641.23,-122.16C684.19,-112.84 742.65,-99.38 793.5,-85 796.11,-84.26 798.81,-83.46 801.51,-82.63"/>
<polygon fill="#63b8ff" stroke="#63b8ff" points="802.73,-85.91 811.19,-79.53 800.6,-79.24 802.73,-85.91"/>
</a>
</g>
</g>
<!-- Node17 -->
<g id="Node000017" class="node">
<title>Node17</title>
<g id="a_Node000017"><a xlink:title=" ">
<polygon fill="#e0e0e0" stroke="#999999" points="574.5,-79.5 514.5,-79.5 514.5,-60.5 574.5,-60.5 574.5,-79.5"/>
<text text-anchor="middle" x="544.5" y="-67.5" font-family="Helvetica,sans-Serif" font-size="10.00">iostream</text>
</a>
</g>
</g>
<!-- Node14&#45;&gt;Node17 -->
<g id="edge24_Node000014_Node000017" class="edge">
<title>Node14&#45;&gt;Node17</title>
<g id="a_edge24_Node000014_Node000017"><a xlink:title=" ">
<path fill="none" stroke="#63b8ff" d="M571.73,-120.8C566.54,-111.31 559.68,-98.76 554.14,-88.63"/>
<polygon fill="#63b8ff" stroke="#63b8ff" points="557.21,-86.94 549.34,-79.84 551.06,-90.3 557.21,-86.94"/>
</a>
</g>
</g>
<!-- Node18 -->
<g id="Node000018" class="node">
<title>Node18</title>
<g id="a_Node000018"><a xlink:title=" ">
<polygon fill="#e0e0e0" stroke="#999999" points="636.5,-79.5 592.5,-79.5 592.5,-60.5 636.5,-60.5 636.5,-79.5"/>
<text text-anchor="middle" x="614.5" y="-67.5" font-family="Helvetica,sans-Serif" font-size="10.00">limits</text>
</a>
</g>
</g>
<!-- Node14&#45;&gt;Node18 -->
<g id="edge25_Node000014_Node000018" class="edge">
<title>Node14&#45;&gt;Node18</title>
<g id="a_edge25_Node000014_Node000018"><a xlink:title=" ">
<path fill="none" stroke="#63b8ff" d="M587.27,-120.8C592.46,-111.31 599.32,-98.76 604.86,-88.63"/>
<polygon fill="#63b8ff" stroke="#63b8ff" points="607.94,-90.3 609.66,-79.84 601.79,-86.94 607.94,-90.3"/>
</a>
</g>
</g>
<!-- Node19 -->
<g id="Node000019" class="node">
<title>Node19</title>
<g id="a_Node000019"><a xlink:title=" ">
<polygon fill="#e0e0e0" stroke="#999999" points="720,-79.5 655,-79.5 655,-60.5 720,-60.5 720,-79.5"/>
<text text-anchor="middle" x="687.5" y="-67.5" font-family="Helvetica,sans-Serif" font-size="10.00">functional</text>
</a>
</g>
</g>
<!-- Node14&#45;&gt;Node19 -->
<g id="edge26_Node000014_Node000019" class="edge">
<title>Node14&#45;&gt;Node19</title>
<g id="a_edge26_Node000014_Node000019"><a xlink:title=" ">
<path fill="none" stroke="#63b8ff" d="M603.2,-120.95C621.39,-110.18 646.36,-95.38 664.4,-84.69"/>
<polygon fill="#63b8ff" stroke="#63b8ff" points="666.31,-87.63 673.13,-79.52 662.74,-81.6 666.31,-87.63"/>
</a>
</g>
</g>
</g>
</svg>

<g id="navigator" transform="translate(0 0)" fill="#404254">
  <rect fill="#f2f5e9" fill-opacity="0.5" stroke="#606060" stroke-width=".5" x="0" y="0" width="60" height="60"/>
  <use id="zoomplus" xlink:href="#zoomPlus" x="17" y="9" onmousedown="handleZoom(evt,'in')"/>
  <use id="zoomminus" xlink:href="#zoomMin" x="42" y="9" onmousedown="handleZoom(evt,'out')"/>
  <use id="reset" xlink:href="#resetDef" x="30" y="36" onmousedown="handleReset()"/>
   <use id="arrowup" xlink:href="#arrowUp" x="0" y="0" onmousedown="handlePan(0,-1)"/>
  <use id="arrowright" xlink:href="#arrowRight" x="0" y="0" onmousedown="handlePan(1,0)"/>
  <use id="arrowdown" xlink:href="#arrowDown" x="0" y="0" onmousedown="handlePan(0,1)"/>
  <use id="arrowleft" xlink:href="#arrowLeft" x="0" y="0" onmousedown="handlePan(-1,0)"/>
</g>
<svg viewBox="0 0 15 15" width="100%" height="30px" preserveAspectRatio="xMaxYMin meet">
 <g id="arrow_out" transform="scale(0.3 0.3)">
  <a xlink:href="Decay_8h__incl_org.svg" target="_base">
   <rect id="button" ry="5" rx="5" y="6" x="6" height="38" width="38"
        fill="#f2f5e9" fill-opacity="0.5" stroke="#606060" stroke-width="1.0"/>
   <path id="arrow"
     d="M 11.500037,31.436501 C 11.940474,20.09759 22.043105,11.32322 32.158766,21.979434 L 37.068811,17.246167 C 37.068811,17.246167 37.088388,32 37.088388,32 L 22.160133,31.978069 C 22.160133,31.978069 26.997745,27.140456 26.997745,27.140456 C 18.528582,18.264221 13.291696,25.230495 11.500037,31.436501 z"
     style="fill:#404040;"/>
  </a>
 </g>
</svg>

<style type='text/css'>
<![CDATA[
[data-mouse-over-selected='false'] { opacity: 0.7; }
[data-mouse-over-selected='true']  { opacity: 1.0; }
]]>
</style>
<script type="application/ecmascript"><![CDATA[
document.addEventListener('DOMContentLoaded', (event) => {
  highlightEdges();
  highlightAdjacentNodes();
});
]]></script>
</svg>
