<?xml version="1.0" encoding="UTF-8" standalone="no"?>
<!DOCTYPE svg PUBLIC "-//W3C//DTD SVG 1.1//EN"
 "http://www.w3.org/Graphics/SVG/1.1/DTD/svg11.dtd">
<!-- Generated by graphviz version 2.43.0 (0)
 -->
<!-- Title: /home/runner/work/Weaver/Weaver/include/App/Model/IBM/Landscape/Map/SpatialTree Pages: 1 -->
<!--zoomable 196 -->

<svg id="main" version="1.1" xmlns="http://www.w3.org/2000/svg" xmlns:xlink="http://www.w3.org/1999/xlink" xml:space="preserve" onload="init(evt)">
<style type="text/css"><![CDATA[
.node, .edge {opacity: 0.7;}
.node.selected, .edge.selected {opacity: 1;}
.edge:hover path { stroke: red; }
.edge:hover polygon { stroke: red; fill: red; }
]]></style>

<defs>
  <circle id="rim" cx="0" cy="0" r="7"/>
  <circle id="rim2" cx="0" cy="0" r="3.5"/>
  <g id="zoomPlus">
    <use xlink:href="#rim" fill="#404040"><set attributeName="fill" to="#808080" begin="zoomplus.mouseover" end="zoomplus.mouseout"/></use>
    <path d="M-4,0h8M0,-4v8" fill="none" stroke="white" stroke-width="1.5" pointer-events="none"/>
  </g>
  <g id="zoomMin">
    <use xlink:href="#rim" fill="#404040"><set attributeName="fill" to="#808080" begin="zoomminus.mouseover" end="zoomminus.mouseout"/></use>
    <path d="M-4,0h8" fill="none" stroke="white" stroke-width="1.5" pointer-events="none"/>
  </g>
  <g id="arrowUp" transform="translate(30 24)">
    <use xlink:href="#rim"/>
    <path pointer-events="none" fill="none" stroke="white" stroke-width="1.5" d="M0,-3.0v7 M-2.5,-0.5L0,-3.0L2.5,-0.5"/>
  </g>
  <g id="arrowRight" transform="rotate(90) translate(36 -43)">
    <use xlink:href="#rim"/>
    <path pointer-events="none" fill="none" stroke="white" stroke-width="1.5" d="M0,-3.0v7 M-2.5,-0.5L0,-3.0L2.5,-0.5"/>
  </g>
  <g id="arrowDown" transform="rotate(180) translate(-30 -48)">
    <use xlink:href="#rim"/>
    <path pointer-events="none" fill="none" stroke="white" stroke-width="1.5" d="M0,-3.0v7 M-2.5,-0.5L0,-3.0L2.5,-0.5"/>
  </g>
  <g id="arrowLeft" transform="rotate(270) translate(-36 17)">
    <use xlink:href="#rim"/>
    <path pointer-events="none" fill="none" stroke="white" stroke-width="1.5" d="M0,-3.0v7 M-2.5,-0.5L0,-3.0L2.5,-0.5"/>
  </g>
  <g id="resetDef">
    <use xlink:href="#rim2" fill="#404040"><set attributeName="fill" to="#808080" begin="reset.mouseover" end="reset.mouseout"/></use>
  </g>
</defs>
<script type="application/ecmascript">
var viewWidth = 867;
var viewHeight = 196;
var sectionId = 'dynsection-0';
</script>
<script type="application/ecmascript" xlink:href="svg.min.js"/>
<svg id="graph" class="graph">
<g id="viewport">
<title>/home/runner/work/Weaver/Weaver/include/App/Model/IBM/Landscape/Map/SpatialTree</title>
<g id="clust1" class="cluster">
<title>clusterdir_389a21b4e0d5da4afd1bc923d1c21e90</title>
<g id="a_clust1"><a xlink:href="dir_389a21b4e0d5da4afd1bc923d1c21e90.html" target="_top" xlink:title="Map">
<polygon fill="#edf0f7" stroke="#7f7f7f" stroke-dasharray="5,2" points="8,-8 8,-180 559,-180 559,-8 8,-8"/>
<text text-anchor="middle" x="283.5" y="-168" font-family="Helvetica,sans-Serif" font-size="10.00">Map</text>
</a>
</g>
</g>
<g id="clust2" class="cluster">
<title>clusterdir_2ee29caf34043349edd495638e9b55e5</title>
<g id="a_clust2"><a xlink:href="dir_2ee29caf34043349edd495638e9b55e5.html" target="_top">
<polygon fill="#edf0f7" stroke="#404040" stroke-width="2" points="16,-63 16,-153 293,-153 293,-63 16,-63"/>
</a>
</g>
</g>
<!-- dir_017facbfd39d2f00dec237be0066268e -->
<g id="node1" class="node">
<title>dir_017facbfd39d2f00dec237be0066268e</title>
<g id="a_node1"><a xlink:href="dir_017facbfd39d2f00dec237be0066268e.html" target="_top" xlink:title="Patches">
<polygon fill="#a2b4d6" stroke="red" points="447,-90 393,-90 393,-71 447,-71 447,-90"/>
<text text-anchor="middle" x="420" y="-78" font-family="Helvetica,sans-Serif" font-size="10.00">Patches</text>
</a>
</g>
</g>
<!-- dir_bdb6f255533d67630a72c5b36fc2157a -->
<g id="node2" class="node">
<title>dir_bdb6f255533d67630a72c5b36fc2157a</title>
<g id="a_node2"><a xlink:href="dir_bdb6f255533d67630a72c5b36fc2157a.html" target="_top" xlink:title="TerrainCells">
<polygon fill="#a2b4d6" stroke="red" points="375,-90 301,-90 301,-71 375,-71 375,-90"/>
<text text-anchor="middle" x="338" y="-78" font-family="Helvetica,sans-Serif" font-size="10.00">TerrainCells</text>
</a>
</g>
</g>
<!-- dir_c87c7e4d4fdad4f97d517f6e37fa3d03 -->
<g id="node3" class="node">
<title>dir_c87c7e4d4fdad4f97d517f6e37fa3d03</title>
<g id="a_node3"><a xlink:href="dir_c87c7e4d4fdad4f97d517f6e37fa3d03.html" target="_top" xlink:title="Geometry">
<polygon fill="#a2b4d6" stroke="#404040" points="530.5,-90 465.5,-90 465.5,-71 530.5,-71 530.5,-90"/>
<text text-anchor="middle" x="498" y="-78" font-family="Helvetica,sans-Serif" font-size="10.00">Geometry</text>
</a>
</g>
</g>
<!-- dir_fe2315cfed866a6b02d6c74118be6618 -->
<g id="node4" class="node">
<title>dir_fe2315cfed866a6b02d6c74118be6618</title>
<g id="a_node4"><a xlink:href="dir_fe2315cfed866a6b02d6c74118be6618.html" target="_top" xlink:title="Points">
<polygon fill="#a2b4d6" stroke="#404040" points="365.5,-35 318.5,-35 318.5,-16 365.5,-16 365.5,-35"/>
<text text-anchor="middle" x="342" y="-23" font-family="Helvetica,sans-Serif" font-size="10.00">Points</text>
</a>
</g>
</g>
<!-- dir_2ee29caf34043349edd495638e9b55e5 -->
<g id="node5" class="node">
<title>dir_2ee29caf34043349edd495638e9b55e5</title>
<text text-anchor="middle" x="249" y="-133" font-family="Helvetica,sans-Serif" font-size="10.00">SpatialTree</text>
</g>
<!-- dir_1caedbbf81a3f4880795c9b1377e10e5 -->
<g id="node6" class="node">
<title>dir_1caedbbf81a3f4880795c9b1377e10e5</title>
<g id="a_node6"><a xlink:href="dir_1caedbbf81a3f4880795c9b1377e10e5.html" target="_top" xlink:title="LivingBeings">
<polygon fill="#a2b4d6" stroke="#404040" points="102.5,-145 23.5,-145 23.5,-126 102.5,-126 102.5,-145"/>
<text text-anchor="middle" x="63" y="-133" font-family="Helvetica,sans-Serif" font-size="10.00">LivingBeings</text>
</a>
</g>
</g>
<!-- dir_1caedbbf81a3f4880795c9b1377e10e5&#45;&gt;dir_bdb6f255533d67630a72c5b36fc2157a -->
<g id="edge2" class="edge">
<title>dir_1caedbbf81a3f4880795c9b1377e10e5&#45;&gt;dir_bdb6f255533d67630a72c5b36fc2157a</title>
<g id="a_edge2"><a xlink:href="dir_000029_000059.html" target="_top">
<path fill="none" stroke="#63b8ff" d="M102.79,-127.14C147.19,-118.88 221.48,-104.93 290.73,-91.24"/>
<polygon fill="#63b8ff" stroke="#63b8ff" points="291.78,-94.6 300.91,-89.22 290.42,-87.73 291.78,-94.6"/>
</a>
</g>
<g id="a_edge2&#45;headlabel"><a xlink:href="dir_000029_000059.html" target="_top" xlink:title="1">
<text text-anchor="middle" x="288.81" y="-95.58" font-family="Helvetica,sans-Serif" font-size="10.00" fill="#63b8ff">1</text>
</a>
</g>
</g>
<!-- dir_25015be572c6167d8a88c49c64178081 -->
<g id="node7" class="node">
<title>dir_25015be572c6167d8a88c49c64178081</title>
<g id="a_node7"><a xlink:href="dir_25015be572c6167d8a88c49c64178081.html" target="_top" xlink:title="Points">
<polygon fill="#a2b4d6" stroke="#404040" points="181.5,-90 134.5,-90 134.5,-71 181.5,-71 181.5,-90"/>
<text text-anchor="middle" x="158" y="-78" font-family="Helvetica,sans-Serif" font-size="10.00">Points</text>
</a>
</g>
</g>
<!-- dir_1caedbbf81a3f4880795c9b1377e10e5&#45;&gt;dir_25015be572c6167d8a88c49c64178081 -->
<g id="edge1" class="edge">
<title>dir_1caedbbf81a3f4880795c9b1377e10e5&#45;&gt;dir_25015be572c6167d8a88c49c64178081</title>
<g id="a_edge1"><a xlink:href="dir_000029_000046.html" target="_top">
<path fill="none" stroke="#63b8ff" d="M78.26,-125.98C93.13,-117.69 115.98,-104.94 133.42,-95.22"/>
<polygon fill="#63b8ff" stroke="#63b8ff" points="135.43,-98.1 142.46,-90.17 132.02,-91.99 135.43,-98.1"/>
</a>
</g>
<g id="a_edge1&#45;headlabel"><a xlink:href="dir_000029_000046.html" target="_top" xlink:title="1">
<text text-anchor="middle" x="133.68" y="-99.83" font-family="Helvetica,sans-Serif" font-size="10.00" fill="#63b8ff">1</text>
</a>
</g>
</g>
<!-- dir_deb6f38fabcacb3d9327502f4723bff5 -->
<g id="node9" class="node">
<title>dir_deb6f38fabcacb3d9327502f4723bff5</title>
<g id="a_node9"><a xlink:href="dir_deb6f38fabcacb3d9327502f4723bff5.html" target="_top" xlink:title="LivingBeings">
<polygon fill="#edf0f7" stroke="red" stroke-dasharray="5,2" points="647.5,-90 568.5,-90 568.5,-71 647.5,-71 647.5,-90"/>
<text text-anchor="middle" x="608" y="-78" font-family="Helvetica,sans-Serif" font-size="10.00">LivingBeings</text>
</a>
</g>
</g>
<!-- dir_1caedbbf81a3f4880795c9b1377e10e5&#45;&gt;dir_deb6f38fabcacb3d9327502f4723bff5 -->
<g id="edge3" class="edge">
<title>dir_1caedbbf81a3f4880795c9b1377e10e5&#45;&gt;dir_deb6f38fabcacb3d9327502f4723bff5</title>
<g id="a_edge3"><a xlink:href="dir_000029_000028.html" target="_top">
<path fill="none" stroke="#63b8ff" d="M102.53,-127.32C105.73,-126.84 108.92,-126.39 112,-126 308.18,-101.21 361.92,-116.18 558.22,-90.57"/>
<polygon fill="#63b8ff" stroke="#63b8ff" points="558.83,-94.02 568.29,-89.24 557.91,-87.08 558.83,-94.02"/>
</a>
</g>
<g id="a_edge3&#45;headlabel"><a xlink:href="dir_000029_000028.html" target="_top" xlink:title="2">
<text text-anchor="middle" x="555.64" y="-94.81" font-family="Helvetica,sans-Serif" font-size="10.00" fill="#63b8ff">2</text>
</a>
</g>
</g>
<!-- dir_25015be572c6167d8a88c49c64178081&#45;&gt;dir_fe2315cfed866a6b02d6c74118be6618 -->
<g id="edge4" class="edge">
<title>dir_25015be572c6167d8a88c49c64178081&#45;&gt;dir_fe2315cfed866a6b02d6c74118be6618</title>
<g id="a_edge4"><a xlink:href="dir_000046_000045.html" target="_top">
<path fill="none" stroke="#63b8ff" d="M170.69,-70.92C175.34,-68.08 180.76,-65.1 186,-63 226.48,-46.78 275.88,-36.74 308.1,-31.39"/>
<polygon fill="#63b8ff" stroke="#63b8ff" points="309.01,-34.79 318.33,-29.75 307.91,-27.88 309.01,-34.79"/>
</a>
</g>
<g id="a_edge4&#45;headlabel"><a xlink:href="dir_000046_000045.html" target="_top" xlink:title="2">
<text text-anchor="middle" x="305.91" y="-35.66" font-family="Helvetica,sans-Serif" font-size="10.00" fill="#63b8ff">2</text>
</a>
</g>
</g>
<!-- dir_845f765ceb09dbaba6cc19a0421afa33 -->
<g id="node8" class="node">
<title>dir_845f765ceb09dbaba6cc19a0421afa33</title>
<g id="a_node8"><a xlink:href="dir_845f765ceb09dbaba6cc19a0421afa33.html" target="_top" xlink:title="TerrainCells">
<polygon fill="#a2b4d6" stroke="#404040" points="195,-145 121,-145 121,-126 195,-126 195,-145"/>
<text text-anchor="middle" x="158" y="-133" font-family="Helvetica,sans-Serif" font-size="10.00">TerrainCells</text>
</a>
</g>
</g>
<!-- dir_845f765ceb09dbaba6cc19a0421afa33&#45;&gt;dir_017facbfd39d2f00dec237be0066268e -->
<g id="edge5" class="edge">
<title>dir_845f765ceb09dbaba6cc19a0421afa33&#45;&gt;dir_017facbfd39d2f00dec237be0066268e</title>
<g id="a_edge5"><a xlink:href="dir_000058_000043.html" target="_top">
<path fill="none" stroke="#63b8ff" d="M195.28,-127.6C238.14,-119.58 310.85,-105.66 382.76,-90.2"/>
<polygon fill="#63b8ff" stroke="#63b8ff" points="383.86,-93.55 392.9,-88.01 382.38,-86.7 383.86,-93.55"/>
</a>
</g>
<g id="a_edge5&#45;headlabel"><a xlink:href="dir_000058_000043.html" target="_top" xlink:title="2">
<text text-anchor="middle" x="380.95" y="-94.58" font-family="Helvetica,sans-Serif" font-size="10.00" fill="#63b8ff">2</text>
</a>
</g>
</g>
<!-- dir_845f765ceb09dbaba6cc19a0421afa33&#45;&gt;dir_bdb6f255533d67630a72c5b36fc2157a -->
<g id="edge9" class="edge">
<title>dir_845f765ceb09dbaba6cc19a0421afa33&#45;&gt;dir_bdb6f255533d67630a72c5b36fc2157a</title>
<g id="a_edge9"><a xlink:href="dir_000058_000059.html" target="_top">
<path fill="none" stroke="#63b8ff" d="M186.92,-125.98C217.27,-117.05 265.17,-102.94 298.88,-93.02"/>
<polygon fill="#63b8ff" stroke="#63b8ff" points="300.25,-96.26 308.85,-90.08 298.27,-89.55 300.25,-96.26"/>
</a>
</g>
<g id="a_edge9&#45;headlabel"><a xlink:href="dir_000058_000059.html" target="_top" xlink:title="12">
<text text-anchor="middle" x="297.6" y="-97.5" font-family="Helvetica,sans-Serif" font-size="10.00" fill="#63b8ff">12</text>
</a>
</g>
</g>
<!-- dir_845f765ceb09dbaba6cc19a0421afa33&#45;&gt;dir_c87c7e4d4fdad4f97d517f6e37fa3d03 -->
<g id="edge10" class="edge">
<title>dir_845f765ceb09dbaba6cc19a0421afa33&#45;&gt;dir_c87c7e4d4fdad4f97d517f6e37fa3d03</title>
<g id="a_edge10"><a xlink:href="dir_000058_000013.html" target="_top">
<path fill="none" stroke="#63b8ff" d="M195.18,-127.65C198.5,-127.07 201.81,-126.52 205,-126 313.09,-108.48 343.26,-109.13 455.45,-90"/>
<polygon fill="#63b8ff" stroke="#63b8ff" points="456.21,-93.42 465.48,-88.27 455.03,-86.52 456.21,-93.42"/>
</a>
</g>
<g id="a_edge10&#45;headlabel"><a xlink:href="dir_000058_000013.html" target="_top" xlink:title="2">
<text text-anchor="middle" x="453.15" y="-94.33" font-family="Helvetica,sans-Serif" font-size="10.00" fill="#63b8ff">2</text>
</a>
</g>
</g>
<!-- dir_845f765ceb09dbaba6cc19a0421afa33&#45;&gt;dir_fe2315cfed866a6b02d6c74118be6618 -->
<g id="edge13" class="edge">
<title>dir_845f765ceb09dbaba6cc19a0421afa33&#45;&gt;dir_fe2315cfed866a6b02d6c74118be6618</title>
<g id="a_edge13"><a xlink:href="dir_000058_000045.html" target="_top">
<path fill="none" stroke="#63b8ff" d="M195.16,-127.53C198.48,-126.98 201.8,-126.46 205,-126 279.11,-115.33 489.97,-145.7 540,-90 587.63,-36.98 444.02,-27.97 375.82,-26.62"/>
<polygon fill="#63b8ff" stroke="#63b8ff" points="375.62,-23.12 365.56,-26.47 375.51,-30.12 375.62,-23.12"/>
</a>
</g>
<g id="a_edge13&#45;headlabel"><a xlink:href="dir_000058_000045.html" target="_top" xlink:title="1">
<text text-anchor="middle" x="379.25" y="-17.84" font-family="Helvetica,sans-Serif" font-size="10.00" fill="#63b8ff">1</text>
</a>
</g>
</g>
<!-- dir_845f765ceb09dbaba6cc19a0421afa33&#45;&gt;dir_25015be572c6167d8a88c49c64178081 -->
<g id="edge6" class="edge">
<title>dir_845f765ceb09dbaba6cc19a0421afa33&#45;&gt;dir_25015be572c6167d8a88c49c64178081</title>
<g id="a_edge6"><a xlink:href="dir_000058_000046.html" target="_top">
<path fill="none" stroke="#63b8ff" d="M158,-125.75C158,-118.8 158,-108.85 158,-100.13"/>
<polygon fill="#63b8ff" stroke="#63b8ff" points="161.5,-100.09 158,-90.09 154.5,-100.09 161.5,-100.09"/>
</a>
</g>
<g id="a_edge6&#45;headlabel"><a xlink:href="dir_000058_000046.html" target="_top" xlink:title="4">
<text text-anchor="middle" x="164.34" y="-101.18" font-family="Helvetica,sans-Serif" font-size="10.00" fill="#63b8ff">4</text>
</a>
</g>
</g>
<!-- dir_845f765ceb09dbaba6cc19a0421afa33&#45;&gt;dir_deb6f38fabcacb3d9327502f4723bff5 -->
<g id="edge11" class="edge">
<title>dir_845f765ceb09dbaba6cc19a0421afa33&#45;&gt;dir_deb6f38fabcacb3d9327502f4723bff5</title>
<g id="a_edge11"><a xlink:href="dir_000058_000028.html" target="_top">
<path fill="none" stroke="#63b8ff" d="M195.16,-127.5C198.48,-126.96 201.8,-126.45 205,-126 360.11,-104.21 402.98,-112.5 558.37,-90.61"/>
<polygon fill="#63b8ff" stroke="#63b8ff" points="558.87,-94.07 568.28,-89.2 557.88,-87.14 558.87,-94.07"/>
</a>
</g>
<g id="a_edge11&#45;headlabel"><a xlink:href="dir_000058_000028.html" target="_top" xlink:title="5">
<text text-anchor="middle" x="555.72" y="-94.89" font-family="Helvetica,sans-Serif" font-size="10.00" fill="#63b8ff">5</text>
</a>
</g>
</g>
<!-- dir_6d30109d817e3a6d4be9084cc265e05a -->
<g id="node10" class="node">
<title>dir_6d30109d817e3a6d4be9084cc265e05a</title>
<g id="a_node10"><a xlink:href="dir_6d30109d817e3a6d4be9084cc265e05a.html" target="_top" xlink:title="Maths">
<polygon fill="#edf0f7" stroke="red" stroke-dasharray="5,2" points="712.5,-90 665.5,-90 665.5,-71 712.5,-71 712.5,-90"/>
<text text-anchor="middle" x="689" y="-78" font-family="Helvetica,sans-Serif" font-size="10.00">Maths</text>
</a>
</g>
</g>
<!-- dir_845f765ceb09dbaba6cc19a0421afa33&#45;&gt;dir_6d30109d817e3a6d4be9084cc265e05a -->
<g id="edge8" class="edge">
<title>dir_845f765ceb09dbaba6cc19a0421afa33&#45;&gt;dir_6d30109d817e3a6d4be9084cc265e05a</title>
<g id="a_edge8"><a xlink:href="dir_000058_000032.html" target="_top">
<path fill="none" stroke="#63b8ff" d="M195.15,-127.43C198.47,-126.9 201.79,-126.42 205,-126 401.63,-100.45 456.6,-123.25 655.45,-89.97"/>
<polygon fill="#63b8ff" stroke="#63b8ff" points="656.07,-93.42 665.34,-88.29 654.89,-86.52 656.07,-93.42"/>
</a>
</g>
<g id="a_edge8&#45;headlabel"><a xlink:href="dir_000058_000032.html" target="_top" xlink:title="1">
<text text-anchor="middle" x="653" y="-94.32" font-family="Helvetica,sans-Serif" font-size="10.00" fill="#63b8ff">1</text>
</a>
</g>
</g>
<!-- dir_4045643538bad1aadeff61b05dc9bc0d -->
<g id="node11" class="node">
<title>dir_4045643538bad1aadeff61b05dc9bc0d</title>
<g id="a_node11"><a xlink:href="dir_4045643538bad1aadeff61b05dc9bc0d.html" target="_top" xlink:title="Exceptions">
<polygon fill="#edf0f7" stroke="#7f7f7f" points="801,-90 731,-90 731,-71 801,-71 801,-90"/>
<text text-anchor="middle" x="766" y="-78" font-family="Helvetica,sans-Serif" font-size="10.00">Exceptions</text>
</a>
</g>
</g>
<!-- dir_845f765ceb09dbaba6cc19a0421afa33&#45;&gt;dir_4045643538bad1aadeff61b05dc9bc0d -->
<g id="edge7" class="edge">
<title>dir_845f765ceb09dbaba6cc19a0421afa33&#45;&gt;dir_4045643538bad1aadeff61b05dc9bc0d</title>
<g id="a_edge7"><a xlink:href="dir_000058_000010.html" target="_top">
<path fill="none" stroke="#63b8ff" d="M195.14,-127.4C198.47,-126.88 201.79,-126.4 205,-126 430.32,-97.87 491.88,-119.27 721.02,-89.95"/>
<polygon fill="#63b8ff" stroke="#63b8ff" points="721.53,-93.42 731,-88.66 720.63,-86.48 721.53,-93.42"/>
</a>
</g>
<g id="a_edge7&#45;headlabel"><a xlink:href="dir_000058_000010.html" target="_top" xlink:title="2">
<text text-anchor="middle" x="718.33" y="-94.2" font-family="Helvetica,sans-Serif" font-size="10.00" fill="#63b8ff">2</text>
</a>
</g>
</g>
<!-- dir_ed435641f8e8047e0f5542c775bc8256 -->
<g id="node12" class="node">
<title>dir_ed435641f8e8047e0f5542c775bc8256</title>
<g id="a_node12"><a xlink:href="dir_ed435641f8e8047e0f5542c775bc8256.html" target="_top" xlink:title="Misc">
<polygon fill="#edf0f7" stroke="red" stroke-dasharray="5,2" points="858.5,-90 819.5,-90 819.5,-71 858.5,-71 858.5,-90"/>
<text text-anchor="middle" x="839" y="-78" font-family="Helvetica,sans-Serif" font-size="10.00">Misc</text>
</a>
</g>
</g>
<!-- dir_845f765ceb09dbaba6cc19a0421afa33&#45;&gt;dir_ed435641f8e8047e0f5542c775bc8256 -->
<g id="edge12" class="edge">
<title>dir_845f765ceb09dbaba6cc19a0421afa33&#45;&gt;dir_ed435641f8e8047e0f5542c775bc8256</title>
<g id="a_edge12"><a xlink:href="dir_000058_000033.html" target="_top">
<path fill="none" stroke="#63b8ff" d="M195.14,-127.36C198.47,-126.85 201.79,-126.38 205,-126 469.19,-94.37 542.83,-135.16 809.51,-89.6"/>
<polygon fill="#63b8ff" stroke="#63b8ff" points="810.23,-93.03 819.49,-87.87 809.04,-86.13 810.23,-93.03"/>
</a>
</g>
<g id="a_edge12&#45;headlabel"><a xlink:href="dir_000058_000033.html" target="_top" xlink:title="1">
<text text-anchor="middle" x="807.17" y="-93.94" font-family="Helvetica,sans-Serif" font-size="10.00" fill="#63b8ff">1</text>
</a>
</g>
</g>
</g>
</svg>

<g id="navigator" transform="translate(0 0)" fill="#404254">
  <rect fill="#f2f5e9" fill-opacity="0.5" stroke="#606060" stroke-width=".5" x="0" y="0" width="60" height="60"/>
  <use id="zoomplus" xlink:href="#zoomPlus" x="17" y="9" onmousedown="handleZoom(evt,'in')"/>
  <use id="zoomminus" xlink:href="#zoomMin" x="42" y="9" onmousedown="handleZoom(evt,'out')"/>
  <use id="reset" xlink:href="#resetDef" x="30" y="36" onmousedown="handleReset()"/>
   <use id="arrowup" xlink:href="#arrowUp" x="0" y="0" onmousedown="handlePan(0,-1)"/>
  <use id="arrowright" xlink:href="#arrowRight" x="0" y="0" onmousedown="handlePan(1,0)"/>
  <use id="arrowdown" xlink:href="#arrowDown" x="0" y="0" onmousedown="handlePan(0,1)"/>
  <use id="arrowleft" xlink:href="#arrowLeft" x="0" y="0" onmousedown="handlePan(-1,0)"/>
</g>
<svg viewBox="0 0 15 15" width="100%" height="30px" preserveAspectRatio="xMaxYMin meet">
 <g id="arrow_out" transform="scale(0.3 0.3)">
  <a xlink:href="dir_2ee29caf34043349edd495638e9b55e5_dep_org.svg" target="_base">
   <rect id="button" ry="5" rx="5" y="6" x="6" height="38" width="38"
        fill="#f2f5e9" fill-opacity="0.5" stroke="#606060" stroke-width="1.0"/>
   <path id="arrow"
     d="M 11.500037,31.436501 C 11.940474,20.09759 22.043105,11.32322 32.158766,21.979434 L 37.068811,17.246167 C 37.068811,17.246167 37.088388,32 37.088388,32 L 22.160133,31.978069 C 22.160133,31.978069 26.997745,27.140456 26.997745,27.140456 C 18.528582,18.264221 13.291696,25.230495 11.500037,31.436501 z"
     style="fill:#404040;"/>
  </a>
 </g>
</svg>

<style type='text/css'>
<![CDATA[
[data-mouse-over-selected='false'] { opacity: 0.7; }
[data-mouse-over-selected='true']  { opacity: 1.0; }
]]>
</style>
<script type="application/ecmascript"><![CDATA[
document.addEventListener('DOMContentLoaded', (event) => {
  highlightEdges();
  highlightAdjacentNodes();
});
]]></script>
</svg>
