<?xml version="1.0" encoding="UTF-8" standalone="no"?>
<!DOCTYPE svg PUBLIC "-//W3C//DTD SVG 1.1//EN"
 "http://www.w3.org/Graphics/SVG/1.1/DTD/svg11.dtd">
<!-- Generated by graphviz version 2.43.0 (0)
 -->
<!-- Title: /home/runner/work/Weaver/Weaver/include/App/Model/IBM/Landscape/LivingBeings/Resources Pages: 1 -->
<svg width="461pt" height="141pt"
 viewBox="0.00 0.00 460.50 141.00" xmlns="http://www.w3.org/2000/svg" xmlns:xlink="http://www.w3.org/1999/xlink">
<g id="graph0" class="graph" transform="scale(1 1) rotate(0) translate(4 137)">
<title>/home/runner/work/Weaver/Weaver/include/App/Model/IBM/Landscape/LivingBeings/Resources</title>
<g id="clust1" class="cluster">
<title>clusterdir_deb6f38fabcacb3d9327502f4723bff5</title>
<g id="a_clust1"><a xlink:href="dir_deb6f38fabcacb3d9327502f4723bff5.html" target="_top" xlink:title="LivingBeings">
<polygon fill="#edf0f7" stroke="#7f7f7f" stroke-dasharray="5,2" points="8,-8 8,-125 180,-125 180,-8 8,-8"/>
<text text-anchor="middle" x="94" y="-113" font-family="Helvetica,sans-Serif" font-size="10.00">LivingBeings</text>
</a>
</g>
</g>
<g id="clust2" class="cluster">
<title>clusterdir_dbc329bf08cdcad994818f4c40ac845b</title>
<g id="a_clust2"><a xlink:href="dir_dbc329bf08cdcad994818f4c40ac845b.html" target="_top">
<polygon fill="#edf0f7" stroke="#404040" stroke-width="2" points="16,-63 16,-98 172,-98 172,-63 16,-63"/>
</a>
</g>
</g>
<!-- dir_6951a24f4a3b17f76f94f0e7c618fb09 -->
<g id="node1" class="node">
<title>dir_6951a24f4a3b17f76f94f0e7c618fb09</title>
<g id="a_node1"><a xlink:href="dir_6951a24f4a3b17f76f94f0e7c618fb09.html" target="_top" xlink:title="Species">
<polygon fill="#a2b4d6" stroke="red" points="78,-35 24,-35 24,-16 78,-16 78,-35"/>
<text text-anchor="middle" x="51" y="-23" font-family="Helvetica,sans-Serif" font-size="10.00">Species</text>
</a>
</g>
</g>
<!-- dir_dbc329bf08cdcad994818f4c40ac845b -->
<g id="node2" class="node">
<title>dir_dbc329bf08cdcad994818f4c40ac845b</title>
<text text-anchor="middle" x="130" y="-78" font-family="Helvetica,sans-Serif" font-size="10.00">Resources</text>
</g>
<!-- dir_4e45b264a966826cddda22b8cd5f8e68 -->
<g id="node3" class="node">
<title>dir_4e45b264a966826cddda22b8cd5f8e68</title>
<g id="a_node3"><a xlink:href="dir_4e45b264a966826cddda22b8cd5f8e68.html" target="_top" xlink:title="Species">
<polygon fill="#a2b4d6" stroke="#404040" points="78,-90 24,-90 24,-71 78,-71 78,-90"/>
<text text-anchor="middle" x="51" y="-78" font-family="Helvetica,sans-Serif" font-size="10.00">Species</text>
</a>
</g>
</g>
<!-- dir_4e45b264a966826cddda22b8cd5f8e68&#45;&gt;dir_6951a24f4a3b17f76f94f0e7c618fb09 -->
<g id="edge2" class="edge">
<title>dir_4e45b264a966826cddda22b8cd5f8e68&#45;&gt;dir_6951a24f4a3b17f76f94f0e7c618fb09</title>
<g id="a_edge2"><a xlink:href="dir_000054_000055.html" target="_top">
<path fill="none" stroke="#63b8ff" d="M51,-70.75C51,-63.8 51,-53.85 51,-45.13"/>
<polygon fill="#63b8ff" stroke="#63b8ff" points="54.5,-45.09 51,-35.09 47.5,-45.09 54.5,-45.09"/>
</a>
</g>
<g id="a_edge2&#45;headlabel"><a xlink:href="dir_000054_000055.html" target="_top" xlink:title="2">
<text text-anchor="middle" x="57.34" y="-46.18" font-family="Helvetica,sans-Serif" font-size="10.00" fill="#63b8ff">2</text>
</a>
</g>
</g>
<!-- dir_6d30109d817e3a6d4be9084cc265e05a -->
<g id="node4" class="node">
<title>dir_6d30109d817e3a6d4be9084cc265e05a</title>
<g id="a_node4"><a xlink:href="dir_6d30109d817e3a6d4be9084cc265e05a.html" target="_top" xlink:title="Maths">
<polygon fill="#edf0f7" stroke="red" stroke-dasharray="5,2" points="235.5,-35 188.5,-35 188.5,-16 235.5,-16 235.5,-35"/>
<text text-anchor="middle" x="212" y="-23" font-family="Helvetica,sans-Serif" font-size="10.00">Maths</text>
</a>
</g>
</g>
<!-- dir_4e45b264a966826cddda22b8cd5f8e68&#45;&gt;dir_6d30109d817e3a6d4be9084cc265e05a -->
<g id="edge3" class="edge">
<title>dir_4e45b264a966826cddda22b8cd5f8e68&#45;&gt;dir_6d30109d817e3a6d4be9084cc265e05a</title>
<g id="a_edge3"><a xlink:href="dir_000054_000032.html" target="_top">
<path fill="none" stroke="#63b8ff" d="M68.86,-70.95C74.87,-68.23 81.66,-65.33 88,-63 126.63,-48.83 139.5,-47.76 178.56,-36.56"/>
<polygon fill="#63b8ff" stroke="#63b8ff" points="179.86,-39.83 188.48,-33.66 177.9,-33.11 179.86,-39.83"/>
</a>
</g>
<g id="a_edge3&#45;headlabel"><a xlink:href="dir_000054_000032.html" target="_top" xlink:title="3">
<text text-anchor="middle" x="177.21" y="-41.06" font-family="Helvetica,sans-Serif" font-size="10.00" fill="#63b8ff">3</text>
</a>
</g>
</g>
<!-- dir_82abf9c3cae407e2f368e3cd0d776797 -->
<g id="node5" class="node">
<title>dir_82abf9c3cae407e2f368e3cd0d776797</title>
<g id="a_node5"><a xlink:href="dir_82abf9c3cae407e2f368e3cd0d776797.html" target="_top" xlink:title="Physics">
<polygon fill="#edf0f7" stroke="#7f7f7f" points="306.5,-35 253.5,-35 253.5,-16 306.5,-16 306.5,-35"/>
<text text-anchor="middle" x="280" y="-23" font-family="Helvetica,sans-Serif" font-size="10.00">Physics</text>
</a>
</g>
</g>
<!-- dir_4e45b264a966826cddda22b8cd5f8e68&#45;&gt;dir_82abf9c3cae407e2f368e3cd0d776797 -->
<g id="edge4" class="edge">
<title>dir_4e45b264a966826cddda22b8cd5f8e68&#45;&gt;dir_82abf9c3cae407e2f368e3cd0d776797</title>
<g id="a_edge4"><a xlink:href="dir_000054_000044.html" target="_top">
<path fill="none" stroke="#63b8ff" d="M67.98,-70.89C74.16,-68.03 81.28,-65.06 88,-63 152.71,-43.13 173.76,-48.98 243.16,-35.24"/>
<polygon fill="#63b8ff" stroke="#63b8ff" points="244.19,-38.6 253.29,-33.17 242.79,-31.75 244.19,-38.6"/>
</a>
</g>
<g id="a_edge4&#45;headlabel"><a xlink:href="dir_000054_000044.html" target="_top" xlink:title="1">
<text text-anchor="middle" x="241.24" y="-39.61" font-family="Helvetica,sans-Serif" font-size="10.00" fill="#63b8ff">1</text>
</a>
</g>
</g>
<!-- dir_4045643538bad1aadeff61b05dc9bc0d -->
<g id="node6" class="node">
<title>dir_4045643538bad1aadeff61b05dc9bc0d</title>
<g id="a_node6"><a xlink:href="dir_4045643538bad1aadeff61b05dc9bc0d.html" target="_top" xlink:title="Exceptions">
<polygon fill="#edf0f7" stroke="#7f7f7f" points="395,-35 325,-35 325,-16 395,-16 395,-35"/>
<text text-anchor="middle" x="360" y="-23" font-family="Helvetica,sans-Serif" font-size="10.00">Exceptions</text>
</a>
</g>
</g>
<!-- dir_4e45b264a966826cddda22b8cd5f8e68&#45;&gt;dir_4045643538bad1aadeff61b05dc9bc0d -->
<g id="edge1" class="edge">
<title>dir_4e45b264a966826cddda22b8cd5f8e68&#45;&gt;dir_4045643538bad1aadeff61b05dc9bc0d</title>
<g id="a_edge1"><a xlink:href="dir_000054_000010.html" target="_top">
<path fill="none" stroke="#63b8ff" d="M67.55,-70.85C73.81,-67.93 81.09,-64.92 88,-63 183.3,-36.54 213.29,-50 314.91,-35.03"/>
<polygon fill="#63b8ff" stroke="#63b8ff" points="315.62,-38.46 324.97,-33.49 314.56,-31.54 315.62,-38.46"/>
</a>
</g>
<g id="a_edge1&#45;headlabel"><a xlink:href="dir_000054_000010.html" target="_top" xlink:title="1">
<text text-anchor="middle" x="312.49" y="-39.31" font-family="Helvetica,sans-Serif" font-size="10.00" fill="#63b8ff">1</text>
</a>
</g>
</g>
<!-- dir_ed435641f8e8047e0f5542c775bc8256 -->
<g id="node7" class="node">
<title>dir_ed435641f8e8047e0f5542c775bc8256</title>
<g id="a_node7"><a xlink:href="dir_ed435641f8e8047e0f5542c775bc8256.html" target="_top" xlink:title="Misc">
<polygon fill="#edf0f7" stroke="red" stroke-dasharray="5,2" points="452.5,-35 413.5,-35 413.5,-16 452.5,-16 452.5,-35"/>
<text text-anchor="middle" x="433" y="-23" font-family="Helvetica,sans-Serif" font-size="10.00">Misc</text>
</a>
</g>
</g>
<!-- dir_4e45b264a966826cddda22b8cd5f8e68&#45;&gt;dir_ed435641f8e8047e0f5542c775bc8256 -->
<g id="edge5" class="edge">
<title>dir_4e45b264a966826cddda22b8cd5f8e68&#45;&gt;dir_ed435641f8e8047e0f5542c775bc8256</title>
<g id="a_edge5"><a xlink:href="dir_000054_000033.html" target="_top">
<path fill="none" stroke="#63b8ff" d="M67.15,-70.9C73.49,-67.91 80.92,-64.84 88,-63 221.27,-28.41 263.48,-59.64 403.24,-34.69"/>
<polygon fill="#63b8ff" stroke="#63b8ff" points="404.28,-38.05 413.47,-32.79 403,-31.17 404.28,-38.05"/>
</a>
</g>
<g id="a_edge5&#45;headlabel"><a xlink:href="dir_000054_000033.html" target="_top" xlink:title="2">
<text text-anchor="middle" x="401.26" y="-39" font-family="Helvetica,sans-Serif" font-size="10.00" fill="#63b8ff">2</text>
</a>
</g>
</g>
</g>
</svg>
