<?xml version="1.0" encoding="UTF-8" standalone="no"?>
<!DOCTYPE svg PUBLIC "-//W3C//DTD SVG 1.1//EN"
 "http://www.w3.org/Graphics/SVG/1.1/DTD/svg11.dtd">
<!-- Generated by graphviz version 2.43.0 (0)
 -->
<!-- Title: /home/runner/work/Weaver/Weaver/include/App/View/GUI/GUI.h Pages: 1 -->
<svg width="2851pt" height="291pt"
 viewBox="0.00 0.00 2850.93 291.00" xmlns="http://www.w3.org/2000/svg" xmlns:xlink="http://www.w3.org/1999/xlink">
<g id="graph0" class="graph" transform="scale(1 1) rotate(0) translate(4 287)">
<title>/home/runner/work/Weaver/Weaver/include/App/View/GUI/GUI.h</title>
<!-- Node1 -->
<g id="Node000001" class="node">
<title>Node1</title>
<g id="a_Node000001"><a xlink:title="Defines the GUI class for Weaver ecosystem simulator.">
<polygon fill="#999999" stroke="#666666" points="1441.61,-283 1292.61,-283 1292.61,-242 1441.61,-242 1441.61,-283"/>
<text text-anchor="start" x="1300.61" y="-271" font-family="Helvetica,sans-Serif" font-size="10.00">/home/runner/work/Weaver</text>
<text text-anchor="start" x="1300.61" y="-260" font-family="Helvetica,sans-Serif" font-size="10.00">/Weaver/include/App/View</text>
<text text-anchor="middle" x="1367.11" y="-249" font-family="Helvetica,sans-Serif" font-size="10.00">/GUI/GUI.h</text>
</a>
</g>
</g>
<!-- Node2 -->
<g id="Node000002" class="node">
<title>Node2</title>
<g id="a_Node000002"><a xlink:title=" ">
<polygon fill="#e0e0e0" stroke="#999999" points="1882.11,-140 1802.11,-140 1802.11,-121 1882.11,-121 1882.11,-140"/>
<text text-anchor="middle" x="1842.11" y="-128" font-family="Helvetica,sans-Serif" font-size="10.00">nana/gui.hpp</text>
</a>
</g>
</g>
<!-- Node1&#45;&gt;Node2 -->
<g id="edge1_Node000001_Node000002" class="edge">
<title>Node1&#45;&gt;Node2</title>
<g id="a_edge1_Node000001_Node000002"><a xlink:title=" ">
<path fill="none" stroke="#63b8ff" d="M1441.73,-259.67C1549.25,-255.76 1741.1,-243.57 1798.11,-206 1818.05,-192.86 1830.19,-167.3 1836.53,-149.82"/>
<polygon fill="#63b8ff" stroke="#63b8ff" points="1839.91,-150.76 1839.75,-140.16 1833.27,-148.55 1839.91,-150.76"/>
</a>
</g>
</g>
<!-- Node3 -->
<g id="Node000003" class="node">
<title>Node3</title>
<g id="a_Node000003"><a xlink:title=" ">
<polygon fill="#e0e0e0" stroke="#999999" points="1328.61,-140 1173.61,-140 1173.61,-121 1328.61,-121 1328.61,-140"/>
<text text-anchor="middle" x="1251.11" y="-128" font-family="Helvetica,sans-Serif" font-size="10.00">nana/gui/widgets/button.hpp</text>
</a>
</g>
</g>
<!-- Node1&#45;&gt;Node3 -->
<g id="edge2_Node000001_Node000003" class="edge">
<title>Node1&#45;&gt;Node3</title>
<g id="a_edge2_Node000001_Node000003"><a xlink:title=" ">
<path fill="none" stroke="#63b8ff" d="M1292.56,-250.5C1242.03,-241.34 1181.7,-226.49 1166.11,-206 1158.03,-195.39 1159.2,-187.41 1166.11,-176 1175.25,-160.89 1191.39,-150.67 1207.17,-143.87"/>
<polygon fill="#63b8ff" stroke="#63b8ff" points="1208.85,-146.97 1216.89,-140.07 1206.3,-140.46 1208.85,-146.97"/>
</a>
</g>
</g>
<!-- Node4 -->
<g id="Node000004" class="node">
<title>Node4</title>
<g id="a_Node000004"><a xlink:title=" ">
<polygon fill="#e0e0e0" stroke="#999999" points="2178.61,-140 2027.61,-140 2027.61,-121 2178.61,-121 2178.61,-140"/>
<text text-anchor="middle" x="2103.11" y="-128" font-family="Helvetica,sans-Serif" font-size="10.00">nana/gui/widgets/panel.hpp</text>
</a>
</g>
</g>
<!-- Node1&#45;&gt;Node4 -->
<g id="edge3_Node000001_Node000004" class="edge">
<title>Node1&#45;&gt;Node4</title>
<g id="a_edge3_Node000001_Node000004"><a xlink:title=" ">
<path fill="none" stroke="#63b8ff" d="M1441.78,-255.71C1532.86,-247.91 1691.23,-231.92 1825.11,-206 1912.9,-189.01 2013.81,-159.36 2066.59,-143.06"/>
<polygon fill="#63b8ff" stroke="#63b8ff" points="2067.66,-146.39 2076.18,-140.08 2065.59,-139.71 2067.66,-146.39"/>
</a>
</g>
</g>
<!-- Node5 -->
<g id="Node000005" class="node">
<title>Node5</title>
<g id="a_Node000005"><a xlink:title=" ">
<polygon fill="#e0e0e0" stroke="#999999" points="1089.11,-140 981.11,-140 981.11,-121 1089.11,-121 1089.11,-140"/>
<text text-anchor="middle" x="1035.11" y="-128" font-family="Helvetica,sans-Serif" font-size="10.00">nana/gui/timer.hpp</text>
</a>
</g>
</g>
<!-- Node1&#45;&gt;Node5 -->
<g id="edge4_Node000001_Node000005" class="edge">
<title>Node1&#45;&gt;Node5</title>
<g id="a_edge4_Node000001_Node000005"><a xlink:title=" ">
<path fill="none" stroke="#63b8ff" d="M1292.58,-247.52C1251.37,-238.41 1199.81,-224.71 1156.11,-206 1118.07,-189.71 1077.93,-162.79 1054.77,-146.15"/>
<polygon fill="#63b8ff" stroke="#63b8ff" points="1056.64,-143.18 1046.5,-140.12 1052.52,-148.84 1056.64,-143.18"/>
</a>
</g>
</g>
<!-- Node6 -->
<g id="Node000006" class="node">
<title>Node6</title>
<g id="a_Node000006"><a xlink:title=" ">
<polygon fill="#e0e0e0" stroke="#999999" points="1223.11,-200.5 1175.11,-200.5 1175.11,-181.5 1223.11,-181.5 1223.11,-200.5"/>
<text text-anchor="middle" x="1199.11" y="-188.5" font-family="Helvetica,sans-Serif" font-size="10.00">thread</text>
</a>
</g>
</g>
<!-- Node1&#45;&gt;Node6 -->
<g id="edge5_Node000001_Node000006" class="edge">
<title>Node1&#45;&gt;Node6</title>
<g id="a_edge5_Node000001_Node000006"><a xlink:title=" ">
<path fill="none" stroke="#63b8ff" d="M1319.26,-241.98C1293.42,-231.4 1260.98,-218.06 1232.11,-206 1230.94,-205.51 1229.76,-205.02 1228.56,-204.52"/>
<polygon fill="#63b8ff" stroke="#63b8ff" points="1229.91,-201.29 1219.34,-200.62 1227.19,-207.74 1229.91,-201.29"/>
</a>
</g>
</g>
<!-- Node7 -->
<g id="Node000007" class="node">
<title>Node7</title>
<g id="a_Node000007"><a xlink:title=" ">
<polygon fill="#e0e0e0" stroke="#999999" points="1301.11,-200.5 1241.11,-200.5 1241.11,-181.5 1301.11,-181.5 1301.11,-200.5"/>
<text text-anchor="middle" x="1271.11" y="-188.5" font-family="Helvetica,sans-Serif" font-size="10.00">iostream</text>
</a>
</g>
</g>
<!-- Node1&#45;&gt;Node7 -->
<g id="edge6_Node000001_Node000007" class="edge">
<title>Node1&#45;&gt;Node7</title>
<g id="a_edge6_Node000001_Node000007"><a xlink:title=" ">
<path fill="none" stroke="#63b8ff" d="M1340.11,-241.96C1324.49,-230.65 1305.19,-216.67 1290.97,-206.38"/>
<polygon fill="#63b8ff" stroke="#63b8ff" points="1293.01,-203.53 1282.85,-200.5 1288.9,-209.2 1293.01,-203.53"/>
</a>
</g>
</g>
<!-- Node8 -->
<g id="Node000008" class="node">
<title>Node8</title>
<g id="a_Node000008"><a xlink:title=" ">
<polygon fill="#e0e0e0" stroke="#999999" points="1155.11,-140 1107.11,-140 1107.11,-121 1155.11,-121 1155.11,-140"/>
<text text-anchor="middle" x="1131.11" y="-128" font-family="Helvetica,sans-Serif" font-size="10.00">mutex</text>
</a>
</g>
</g>
<!-- Node1&#45;&gt;Node8 -->
<g id="edge7_Node000001_Node000008" class="edge">
<title>Node1&#45;&gt;Node8</title>
<g id="a_edge7_Node000001_Node000008"><a xlink:title=" ">
<path fill="none" stroke="#63b8ff" d="M1367.16,-241.89C1366.1,-222.35 1361.3,-192.89 1343.11,-176 1283.96,-121.08 1243.83,-157.79 1165.11,-140 1165.01,-139.98 1164.91,-139.95 1164.81,-139.93"/>
<polygon fill="#63b8ff" stroke="#63b8ff" points="1165.76,-136.56 1155.22,-137.67 1164.15,-143.37 1165.76,-136.56"/>
</a>
</g>
</g>
<!-- Node9 -->
<g id="Node000009" class="node">
<title>Node9</title>
<g id="a_Node000009"><a xlink:title=" ">
<polygon fill="#e0e0e0" stroke="#999999" points="1393.61,-140 1346.61,-140 1346.61,-121 1393.61,-121 1393.61,-140"/>
<text text-anchor="middle" x="1370.11" y="-128" font-family="Helvetica,sans-Serif" font-size="10.00">queue</text>
</a>
</g>
</g>
<!-- Node1&#45;&gt;Node9 -->
<g id="edge8_Node000001_Node000009" class="edge">
<title>Node1&#45;&gt;Node9</title>
<g id="a_edge8_Node000001_Node000009"><a xlink:title=" ">
<path fill="none" stroke="#63b8ff" d="M1373.3,-241.95C1376.31,-231.42 1379.6,-218.13 1381.11,-206 1382.75,-192.77 1382.72,-189.24 1381.11,-176 1380.05,-167.31 1377.87,-157.87 1375.73,-149.93"/>
<polygon fill="#63b8ff" stroke="#63b8ff" points="1379.07,-148.89 1372.94,-140.25 1372.34,-150.83 1379.07,-148.89"/>
</a>
</g>
</g>
<!-- Node10 -->
<g id="Node000010" class="node">
<title>Node10</title>
<g id="a_Node000010"><a xlink:href="View_8h.html" target="_top" xlink:title="Abstract base class for a view in the MVC pattern, handling logging and RunMode titles.">
<polygon fill="white" stroke="#666666" points="460.11,-200.5 362.11,-200.5 362.11,-181.5 460.11,-181.5 460.11,-200.5"/>
<text text-anchor="middle" x="411.11" y="-188.5" font-family="Helvetica,sans-Serif" font-size="10.00">App/View/View.h</text>
</a>
</g>
</g>
<!-- Node1&#45;&gt;Node10 -->
<g id="edge9_Node000001_Node000010" class="edge">
<title>Node1&#45;&gt;Node10</title>
<g id="a_edge9_Node000001_Node000010"><a xlink:title=" ">
<path fill="none" stroke="#63b8ff" d="M1292.49,-256.08C1108.59,-242.71 636.48,-208.38 470.17,-196.29"/>
<polygon fill="#63b8ff" stroke="#63b8ff" points="470.35,-192.8 460.13,-195.56 469.85,-199.78 470.35,-192.8"/>
</a>
</g>
</g>
<!-- Node19 -->
<g id="Node000019" class="node">
<title>Node19</title>
<g id="a_Node000019"><a xlink:href="EnumClass_8h.html" target="_top" xlink:title="Template helper class for working with strongly&#45;typed enums.">
<polygon fill="white" stroke="#666666" points="674.61,-140 569.61,-140 569.61,-121 674.61,-121 674.61,-140"/>
<text text-anchor="middle" x="622.11" y="-128" font-family="Helvetica,sans-Serif" font-size="10.00">Misc/EnumClass.h</text>
</a>
</g>
</g>
<!-- Node1&#45;&gt;Node19 -->
<g id="edge33_Node000001_Node000019" class="edge">
<title>Node1&#45;&gt;Node19</title>
<g id="a_edge33_Node000001_Node000019"><a xlink:title=" ">
<path fill="none" stroke="#63b8ff" d="M1292.61,-248.5C1144.45,-222.65 815.56,-165.26 681.11,-141.8"/>
<polygon fill="#63b8ff" stroke="#63b8ff" points="681.46,-138.3 671.01,-140.03 680.26,-145.2 681.46,-138.3"/>
</a>
</g>
</g>
<!-- Node24 -->
<g id="Node000024" class="node">
<title>Node24</title>
<g id="a_Node000024"><a xlink:href="CustomIndexedVector_8h.html" target="_top" xlink:title="Template class providing a vector indexed by a custom type with bounds checking and Boost....">
<polygon fill="white" stroke="#666666" points="962.61,-140 805.61,-140 805.61,-121 962.61,-121 962.61,-140"/>
<text text-anchor="middle" x="884.11" y="-128" font-family="Helvetica,sans-Serif" font-size="10.00">Misc/CustomIndexedVector.h</text>
</a>
</g>
</g>
<!-- Node1&#45;&gt;Node24 -->
<g id="edge32_Node000001_Node000024" class="edge">
<title>Node1&#45;&gt;Node24</title>
<g id="a_edge32_Node000001_Node000024"><a xlink:title=" ">
<path fill="none" stroke="#63b8ff" d="M1359.86,-241.8C1351.3,-221.59 1335,-191.04 1310.11,-176 1306.52,-173.83 1096.94,-152.67 973.12,-140.33"/>
<polygon fill="#63b8ff" stroke="#63b8ff" points="973.19,-136.82 962.89,-139.31 972.49,-143.78 973.19,-136.82"/>
</a>
</g>
</g>
<!-- Node29 -->
<g id="Node000029" class="node">
<title>Node29</title>
<g id="a_Node000029"><a xlink:href="PathChooser_8h.html" target="_top" xlink:title="Defines the PathChooser widget for selecting files or directories.">
<polygon fill="white" stroke="#666666" points="1789.11,-206 1663.11,-206 1663.11,-176 1789.11,-176 1789.11,-206"/>
<text text-anchor="start" x="1671.11" y="-194" font-family="Helvetica,sans-Serif" font-size="10.00">App/View/GUI/Widgets</text>
<text text-anchor="middle" x="1726.11" y="-183" font-family="Helvetica,sans-Serif" font-size="10.00">/PathChooser.h</text>
</a>
</g>
</g>
<!-- Node1&#45;&gt;Node29 -->
<g id="edge34_Node000001_Node000029" class="edge">
<title>Node1&#45;&gt;Node29</title>
<g id="a_edge34_Node000001_Node000029"><a xlink:title=" ">
<path fill="none" stroke="#63b8ff" d="M1441.93,-247.02C1503.93,-235.01 1591.53,-218.05 1653.04,-206.14"/>
<polygon fill="#63b8ff" stroke="#63b8ff" points="1653.91,-209.54 1663.06,-204.2 1652.58,-202.67 1653.91,-209.54"/>
</a>
</g>
</g>
<!-- Node34 -->
<g id="Node000034" class="node">
<title>Node34</title>
<g id="a_Node000034"><a xlink:href="OptionSelector_8h.html" target="_top" xlink:title="Defines the OptionSelector widget for selecting options from a dropdown.">
<polygon fill="white" stroke="#666666" points="2218.11,-206 2092.11,-206 2092.11,-176 2218.11,-176 2218.11,-206"/>
<text text-anchor="start" x="2100.11" y="-194" font-family="Helvetica,sans-Serif" font-size="10.00">App/View/GUI/Widgets</text>
<text text-anchor="middle" x="2155.11" y="-183" font-family="Helvetica,sans-Serif" font-size="10.00">/OptionSelector.h</text>
</a>
</g>
</g>
<!-- Node1&#45;&gt;Node34 -->
<g id="edge43_Node000001_Node000034" class="edge">
<title>Node1&#45;&gt;Node34</title>
<g id="a_edge43_Node000001_Node000034"><a xlink:title=" ">
<path fill="none" stroke="#63b8ff" d="M1441.62,-255.37C1561.74,-245.44 1805.61,-224.99 2012.11,-206 2034.72,-203.92 2059.34,-201.55 2081.68,-199.36"/>
<polygon fill="#63b8ff" stroke="#63b8ff" points="2082.16,-202.83 2091.77,-198.36 2081.47,-195.86 2082.16,-202.83"/>
</a>
</g>
</g>
<!-- Node36 -->
<g id="Node000036" class="node">
<title>Node36</title>
<g id="a_Node000036"><a xlink:href="Checkbox_8h.html" target="_top" xlink:title="Defines a custom Checkbox widget combining a label and a checkbox.">
<polygon fill="white" stroke="#666666" points="2484.11,-206 2358.11,-206 2358.11,-176 2484.11,-176 2484.11,-206"/>
<text text-anchor="start" x="2366.11" y="-194" font-family="Helvetica,sans-Serif" font-size="10.00">App/View/GUI/Widgets</text>
<text text-anchor="middle" x="2421.11" y="-183" font-family="Helvetica,sans-Serif" font-size="10.00">/Checkbox.h</text>
</a>
</g>
</g>
<!-- Node1&#45;&gt;Node36 -->
<g id="edge51_Node000001_Node000036" class="edge">
<title>Node1&#45;&gt;Node36</title>
<g id="a_edge51_Node000001_Node000036"><a xlink:title=" ">
<path fill="none" stroke="#63b8ff" d="M1441.89,-256.87C1591.18,-247.57 1936.78,-225.84 2227.11,-206 2266.99,-203.27 2311.46,-200.08 2347.76,-197.43"/>
<polygon fill="#63b8ff" stroke="#63b8ff" points="2348.05,-200.91 2357.77,-196.69 2347.54,-193.93 2348.05,-200.91"/>
</a>
</g>
</g>
<!-- Node38 -->
<g id="Node000038" class="node">
<title>Node38</title>
<g id="a_Node000038"><a xlink:href="LogTextbox_8h.html" target="_top" xlink:title="Defines the LogTextbox widget for displaying log messages.">
<polygon fill="white" stroke="#666666" points="1559.11,-206 1433.11,-206 1433.11,-176 1559.11,-176 1559.11,-206"/>
<text text-anchor="start" x="1441.11" y="-194" font-family="Helvetica,sans-Serif" font-size="10.00">App/View/GUI/Widgets</text>
<text text-anchor="middle" x="1496.11" y="-183" font-family="Helvetica,sans-Serif" font-size="10.00">/LogTextbox.h</text>
</a>
</g>
</g>
<!-- Node1&#45;&gt;Node38 -->
<g id="edge59_Node000001_Node000038" class="edge">
<title>Node1&#45;&gt;Node38</title>
<g id="a_edge59_Node000001_Node000038"><a xlink:title=" ">
<path fill="none" stroke="#63b8ff" d="M1403.38,-241.96C1421.41,-232.25 1443.09,-220.56 1460.96,-210.94"/>
<polygon fill="#63b8ff" stroke="#63b8ff" points="1462.77,-213.94 1469.91,-206.11 1459.45,-207.77 1462.77,-213.94"/>
</a>
</g>
</g>
<!-- Node11 -->
<g id="Node000011" class="node">
<title>Node11</title>
<g id="a_Node000011"><a xlink:title=" ">
<polygon fill="#e0e0e0" stroke="#999999" points="966.11,-19 922.11,-19 922.11,0 966.11,0 966.11,-19"/>
<text text-anchor="middle" x="944.11" y="-7" font-family="Helvetica,sans-Serif" font-size="10.00">string</text>
</a>
</g>
</g>
<!-- Node10&#45;&gt;Node11 -->
<g id="edge10_Node000010_Node000011" class="edge">
<title>Node10&#45;&gt;Node11</title>
<g id="a_edge10_Node000010_Node000011"><a xlink:title=" ">
<path fill="none" stroke="#63b8ff" d="M376.57,-181.39C355.39,-174.13 329.96,-161.39 317.11,-140 305.68,-120.98 294.42,-83.7 324.11,-55 366.62,-13.91 790.65,-10.56 911.89,-10.45"/>
<polygon fill="#63b8ff" stroke="#63b8ff" points="912.02,-13.95 922.02,-10.44 912.02,-6.95 912.02,-13.95"/>
</a>
</g>
</g>
<!-- Node12 -->
<g id="Node000012" class="node">
<title>Node12</title>
<g id="a_Node000012"><a xlink:title=" ">
<polygon fill="#e0e0e0" stroke="#999999" points="409.61,-140 326.61,-140 326.61,-121 409.61,-121 409.61,-140"/>
<text text-anchor="middle" x="368.11" y="-128" font-family="Helvetica,sans-Serif" font-size="10.00">initializer_list</text>
</a>
</g>
</g>
<!-- Node10&#45;&gt;Node12 -->
<g id="edge11_Node000010_Node000012" class="edge">
<title>Node10&#45;&gt;Node12</title>
<g id="a_edge11_Node000010_Node000012"><a xlink:title=" ">
<path fill="none" stroke="#63b8ff" d="M404.76,-181.37C398.41,-172.73 388.47,-159.2 380.54,-148.42"/>
<polygon fill="#63b8ff" stroke="#63b8ff" points="383.22,-146.15 374.48,-140.17 377.58,-150.3 383.22,-146.15"/>
</a>
</g>
</g>
<!-- Node13 -->
<g id="Node000013" class="node">
<title>Node13</title>
<g id="a_Node000013"><a xlink:title=" ">
<polygon fill="#e0e0e0" stroke="#999999" points="478.11,-140 428.11,-140 428.11,-121 478.11,-121 478.11,-140"/>
<text text-anchor="middle" x="453.11" y="-128" font-family="Helvetica,sans-Serif" font-size="10.00">chrono</text>
</a>
</g>
</g>
<!-- Node10&#45;&gt;Node13 -->
<g id="edge12_Node000010_Node000013" class="edge">
<title>Node10&#45;&gt;Node13</title>
<g id="a_edge12_Node000010_Node000013"><a xlink:title=" ">
<path fill="none" stroke="#63b8ff" d="M417.3,-181.37C423.51,-172.73 433.22,-159.2 440.96,-148.42"/>
<polygon fill="#63b8ff" stroke="#63b8ff" points="443.89,-150.33 446.88,-140.17 438.21,-146.25 443.89,-150.33"/>
</a>
</g>
</g>
<!-- Node14 -->
<g id="Node000014" class="node">
<title>Node14</title>
<g id="a_Node000014"><a xlink:title=" ">
<polygon fill="#e0e0e0" stroke="#999999" points="551.61,-140 496.61,-140 496.61,-121 551.61,-121 551.61,-140"/>
<text text-anchor="middle" x="524.11" y="-128" font-family="Helvetica,sans-Serif" font-size="10.00">fstream</text>
</a>
</g>
</g>
<!-- Node10&#45;&gt;Node14 -->
<g id="edge13_Node000010_Node000014" class="edge">
<title>Node10&#45;&gt;Node14</title>
<g id="a_edge13_Node000010_Node000014"><a xlink:title=" ">
<path fill="none" stroke="#63b8ff" d="M427.78,-181.37C446.39,-171.73 476.73,-156.03 498.39,-144.81"/>
<polygon fill="#63b8ff" stroke="#63b8ff" points="500.09,-147.87 507.36,-140.17 496.87,-141.66 500.09,-147.87"/>
</a>
</g>
</g>
<!-- Node15 -->
<g id="Node000015" class="node">
<title>Node15</title>
<g id="a_Node000015"><a xlink:title=" ">
<polygon fill="#e0e0e0" stroke="#999999" points="389.11,-79.5 333.11,-79.5 333.11,-60.5 389.11,-60.5 389.11,-79.5"/>
<text text-anchor="middle" x="361.11" y="-67.5" font-family="Helvetica,sans-Serif" font-size="10.00">sstream</text>
</a>
</g>
</g>
<!-- Node10&#45;&gt;Node15 -->
<g id="edge14_Node000010_Node000015" class="edge">
<title>Node10&#45;&gt;Node15</title>
<g id="a_edge14_Node000010_Node000015"><a xlink:title=" ">
<path fill="none" stroke="#63b8ff" d="M362.01,-187.54C259.11,-181.88 28.43,-166.37 5.11,-140 -38.15,-91.09 222.37,-76.14 322.82,-72.23"/>
<polygon fill="#63b8ff" stroke="#63b8ff" points="323.01,-75.72 332.87,-71.85 322.74,-68.73 323.01,-75.72"/>
</a>
</g>
</g>
<!-- Node16 -->
<g id="Node000016" class="node">
<title>Node16</title>
<g id="a_Node000016"><a xlink:title=" ">
<polygon fill="#e0e0e0" stroke="#999999" points="70.11,-140 14.11,-140 14.11,-121 70.11,-121 70.11,-140"/>
<text text-anchor="middle" x="42.11" y="-128" font-family="Helvetica,sans-Serif" font-size="10.00">iomanip</text>
</a>
</g>
</g>
<!-- Node10&#45;&gt;Node16 -->
<g id="edge15_Node000010_Node000016" class="edge">
<title>Node10&#45;&gt;Node16</title>
<g id="a_edge15_Node000010_Node000016"><a xlink:title=" ">
<path fill="none" stroke="#63b8ff" d="M361.97,-183.79C298.96,-175.57 186.13,-159.96 80.24,-140.09"/>
<polygon fill="#63b8ff" stroke="#63b8ff" points="80.82,-136.64 70.34,-138.22 79.52,-143.52 80.82,-136.64"/>
</a>
</g>
</g>
<!-- Node17 -->
<g id="Node000017" class="node">
<title>Node17</title>
<g id="a_Node000017"><a xlink:title=" ">
<polygon fill="#e0e0e0" stroke="#999999" points="132.11,-140 88.11,-140 88.11,-121 132.11,-121 132.11,-140"/>
<text text-anchor="middle" x="110.11" y="-128" font-family="Helvetica,sans-Serif" font-size="10.00">ctime</text>
</a>
</g>
</g>
<!-- Node10&#45;&gt;Node17 -->
<g id="edge16_Node000010_Node000017" class="edge">
<title>Node10&#45;&gt;Node17</title>
<g id="a_edge16_Node000010_Node000017"><a xlink:title=" ">
<path fill="none" stroke="#63b8ff" d="M362.07,-182.2C309.85,-173.61 224.58,-158.76 142.17,-140.09"/>
<polygon fill="#63b8ff" stroke="#63b8ff" points="142.93,-136.67 132.4,-137.86 141.37,-143.5 142.93,-136.67"/>
</a>
</g>
</g>
<!-- Node18 -->
<g id="Node000018" class="node">
<title>Node18</title>
<g id="a_Node000018"><a xlink:href="RunMode_8h_source.html" target="_top" xlink:title=" ">
<polygon fill="white" stroke="#666666" points="270.11,-140 150.11,-140 150.11,-121 270.11,-121 270.11,-140"/>
<text text-anchor="middle" x="210.11" y="-128" font-family="Helvetica,sans-Serif" font-size="10.00">App/View/RunMode.h</text>
</a>
</g>
</g>
<!-- Node10&#45;&gt;Node18 -->
<g id="edge17_Node000010_Node000018" class="edge">
<title>Node10&#45;&gt;Node18</title>
<g id="a_edge17_Node000010_Node000018"><a xlink:title=" ">
<path fill="none" stroke="#63b8ff" d="M381.88,-181.49C346.9,-171.31 288.18,-154.22 249.29,-142.9"/>
<polygon fill="#63b8ff" stroke="#63b8ff" points="249.95,-139.45 239.37,-140.02 247.99,-146.17 249.95,-139.45"/>
</a>
</g>
</g>
<!-- Node10&#45;&gt;Node19 -->
<g id="edge18_Node000010_Node000019" class="edge">
<title>Node10&#45;&gt;Node19</title>
<g id="a_edge18_Node000010_Node000019"><a xlink:title=" ">
<path fill="none" stroke="#63b8ff" d="M441.79,-181.49C478.67,-171.27 540.68,-154.08 581.5,-142.76"/>
<polygon fill="#63b8ff" stroke="#63b8ff" points="582.69,-146.06 591.39,-140.02 580.82,-139.32 582.69,-146.06"/>
</a>
</g>
</g>
<!-- Node10&#45;&gt;Node24 -->
<g id="edge26_Node000010_Node000024" class="edge">
<title>Node10&#45;&gt;Node24</title>
<g id="a_edge26_Node000010_Node000024"><a xlink:title=" ">
<path fill="none" stroke="#63b8ff" d="M460.39,-183.91C542.2,-173.79 706.75,-153.43 804.98,-141.29"/>
<polygon fill="#63b8ff" stroke="#63b8ff" points="805.66,-144.73 815.16,-140.03 804.8,-137.78 805.66,-144.73"/>
</a>
</g>
</g>
<!-- Node27 -->
<g id="Node000027" class="node">
<title>Node27</title>
<g id="a_Node000027"><a xlink:href="PathUtils_8h.html" target="_top" xlink:title="Utility functions for handling filesystem paths.">
<polygon fill="white" stroke="#666666" points="787.61,-140 692.61,-140 692.61,-121 787.61,-121 787.61,-140"/>
<text text-anchor="middle" x="740.11" y="-128" font-family="Helvetica,sans-Serif" font-size="10.00">Misc/PathUtils.h</text>
</a>
</g>
</g>
<!-- Node10&#45;&gt;Node27 -->
<g id="edge29_Node000010_Node000027" class="edge">
<title>Node10&#45;&gt;Node27</title>
<g id="a_edge29_Node000010_Node000027"><a xlink:title=" ">
<path fill="none" stroke="#63b8ff" d="M458.95,-181.49C518.24,-170.95 619.19,-153 682.63,-141.72"/>
<polygon fill="#63b8ff" stroke="#63b8ff" points="683.24,-145.17 692.48,-139.97 682.02,-138.27 683.24,-145.17"/>
</a>
</g>
</g>
<!-- Node19&#45;&gt;Node11 -->
<g id="edge20_Node000019_Node000011" class="edge">
<title>Node19&#45;&gt;Node11</title>
<g id="a_edge20_Node000019_Node000011"><a xlink:title=" ">
<path fill="none" stroke="#63b8ff" d="M620,-120.74C616.84,-105.2 612.93,-72.77 630.11,-55 668.42,-15.37 838.88,-10.51 911.34,-10.27"/>
<polygon fill="#63b8ff" stroke="#63b8ff" points="911.69,-13.77 921.69,-10.27 911.69,-6.77 911.69,-13.77"/>
</a>
</g>
</g>
<!-- Node19&#45;&gt;Node15 -->
<g id="edge19_Node000019_Node000015" class="edge">
<title>Node19&#45;&gt;Node15</title>
<g id="a_edge19_Node000019_Node000015"><a xlink:title=" ">
<path fill="none" stroke="#63b8ff" d="M571.95,-120.93C527.52,-112.95 461.06,-100.03 404.11,-85 401.33,-84.27 398.47,-83.46 395.61,-82.61"/>
<polygon fill="#63b8ff" stroke="#63b8ff" points="396.56,-79.24 385.98,-79.63 394.49,-85.93 396.56,-79.24"/>
</a>
</g>
</g>
<!-- Node20 -->
<g id="Node000020" class="node">
<title>Node20</title>
<g id="a_Node000020"><a xlink:title=" ">
<polygon fill="#e0e0e0" stroke="#999999" points="731.61,-79.5 638.61,-79.5 638.61,-60.5 731.61,-60.5 731.61,-79.5"/>
<text text-anchor="middle" x="685.11" y="-67.5" font-family="Helvetica,sans-Serif" font-size="10.00">unordered_map</text>
</a>
</g>
</g>
<!-- Node19&#45;&gt;Node20 -->
<g id="edge21_Node000019_Node000020" class="edge">
<title>Node19&#45;&gt;Node20</title>
<g id="a_edge21_Node000019_Node000020"><a xlink:title=" ">
<path fill="none" stroke="#63b8ff" d="M631.4,-120.87C641.08,-111.88 656.45,-97.61 668.27,-86.64"/>
<polygon fill="#63b8ff" stroke="#63b8ff" points="670.83,-89.04 675.77,-79.67 666.06,-83.91 670.83,-89.04"/>
</a>
</g>
</g>
<!-- Node21 -->
<g id="Node000021" class="node">
<title>Node21</title>
<g id="a_Node000021"><a xlink:title=" ">
<polygon fill="#e0e0e0" stroke="#999999" points="916.61,-79.5 749.61,-79.5 749.61,-60.5 916.61,-60.5 916.61,-79.5"/>
<text text-anchor="middle" x="833.11" y="-67.5" font-family="Helvetica,sans-Serif" font-size="10.00">magic_enum/magic_enum.hpp</text>
</a>
</g>
</g>
<!-- Node19&#45;&gt;Node21 -->
<g id="edge22_Node000019_Node000021" class="edge">
<title>Node19&#45;&gt;Node21</title>
<g id="a_edge22_Node000019_Node000021"><a xlink:title=" ">
<path fill="none" stroke="#63b8ff" d="M652.79,-120.99C689.67,-110.77 751.68,-93.58 792.5,-82.26"/>
<polygon fill="#63b8ff" stroke="#63b8ff" points="793.69,-85.56 802.39,-79.52 791.82,-78.82 793.69,-85.56"/>
</a>
</g>
</g>
<!-- Node22 -->
<g id="Node000022" class="node">
<title>Node22</title>
<g id="a_Node000022"><a xlink:href="LineInfoException_8h.html" target="_top" xlink:title="Exception class with detailed file and line information for error reporting.">
<polygon fill="white" stroke="#666666" points="582.61,-79.5 413.61,-79.5 413.61,-60.5 582.61,-60.5 582.61,-79.5"/>
<text text-anchor="middle" x="498.11" y="-67.5" font-family="Helvetica,sans-Serif" font-size="10.00">Exceptions/LineInfoException.h</text>
</a>
</g>
</g>
<!-- Node19&#45;&gt;Node22 -->
<g id="edge23_Node000019_Node000022" class="edge">
<title>Node19&#45;&gt;Node22</title>
<g id="a_edge23_Node000019_Node000022"><a xlink:title=" ">
<path fill="none" stroke="#63b8ff" d="M604.08,-120.99C583.41,-111.25 549.33,-95.16 525.41,-83.88"/>
<polygon fill="#63b8ff" stroke="#63b8ff" points="526.7,-80.62 516.16,-79.52 523.71,-86.95 526.7,-80.62"/>
</a>
</g>
</g>
<!-- Node22&#45;&gt;Node11 -->
<g id="edge25_Node000022_Node000011" class="edge">
<title>Node22&#45;&gt;Node11</title>
<g id="a_edge25_Node000022_Node000011"><a xlink:title=" ">
<path fill="none" stroke="#63b8ff" d="M556.64,-60.49C569.63,-58.65 583.33,-56.73 596.11,-55 712.26,-39.28 850.44,-22.05 911.89,-14.46"/>
<polygon fill="#63b8ff" stroke="#63b8ff" points="912.61,-17.9 922.11,-13.2 911.75,-10.95 912.61,-17.9"/>
</a>
</g>
</g>
<!-- Node23 -->
<g id="Node000023" class="node">
<title>Node23</title>
<g id="a_Node000023"><a xlink:title=" ">
<polygon fill="#e0e0e0" stroke="#999999" points="530.61,-19 465.61,-19 465.61,0 530.61,0 530.61,-19"/>
<text text-anchor="middle" x="498.11" y="-7" font-family="Helvetica,sans-Serif" font-size="10.00">exception</text>
</a>
</g>
</g>
<!-- Node22&#45;&gt;Node23 -->
<g id="edge24_Node000022_Node000023" class="edge">
<title>Node22&#45;&gt;Node23</title>
<g id="a_edge24_Node000022_Node000023"><a xlink:title=" ">
<path fill="none" stroke="#63b8ff" d="M498.11,-60.37C498.11,-52.25 498.11,-39.81 498.11,-29.39"/>
<polygon fill="#63b8ff" stroke="#63b8ff" points="501.61,-29.17 498.11,-19.17 494.61,-29.17 501.61,-29.17"/>
</a>
</g>
</g>
<!-- Node25 -->
<g id="Node000025" class="node">
<title>Node25</title>
<g id="a_Node000025"><a xlink:title=" ">
<polygon fill="#e0e0e0" stroke="#999999" points="2616.61,-79.5 2569.61,-79.5 2569.61,-60.5 2616.61,-60.5 2616.61,-79.5"/>
<text text-anchor="middle" x="2593.11" y="-67.5" font-family="Helvetica,sans-Serif" font-size="10.00">vector</text>
</a>
</g>
</g>
<!-- Node24&#45;&gt;Node25 -->
<g id="edge27_Node000024_Node000025" class="edge">
<title>Node24&#45;&gt;Node25</title>
<g id="a_edge27_Node000024_Node000025"><a xlink:title=" ">
<path fill="none" stroke="#63b8ff" d="M962.77,-121.64C965.92,-121.41 969.04,-121.19 972.11,-121 1608.94,-80.47 2388.68,-72.51 2559.16,-71.22"/>
<polygon fill="#63b8ff" stroke="#63b8ff" points="2559.31,-74.72 2569.28,-71.15 2559.26,-67.72 2559.31,-74.72"/>
</a>
</g>
</g>
<!-- Node26 -->
<g id="Node000026" class="node">
<title>Node26</title>
<g id="a_Node000026"><a xlink:title=" ">
<polygon fill="#e0e0e0" stroke="#999999" points="1079.61,-85 972.61,-85 972.61,-55 1079.61,-55 1079.61,-85"/>
<text text-anchor="start" x="980.61" y="-73" font-family="Helvetica,sans-Serif" font-size="10.00">boost/serialization</text>
<text text-anchor="middle" x="1026.11" y="-62" font-family="Helvetica,sans-Serif" font-size="10.00">/vector.hpp</text>
</a>
</g>
</g>
<!-- Node24&#45;&gt;Node26 -->
<g id="edge28_Node000024_Node000026" class="edge">
<title>Node24&#45;&gt;Node26</title>
<g id="a_edge28_Node000024_Node000026"><a xlink:title=" ">
<path fill="none" stroke="#63b8ff" d="M904.75,-120.99C925.1,-112.61 956.81,-99.55 982.72,-88.87"/>
<polygon fill="#63b8ff" stroke="#63b8ff" points="984.05,-92.11 991.97,-85.06 981.39,-85.64 984.05,-92.11"/>
</a>
</g>
</g>
<!-- Node27&#45;&gt;Node11 -->
<g id="edge31_Node000027_Node000011" class="edge">
<title>Node27&#45;&gt;Node11</title>
<g id="a_edge31_Node000027_Node000011"><a xlink:title=" ">
<path fill="none" stroke="#63b8ff" d="M786.97,-120.92C838.76,-111.03 916.21,-94.88 926.11,-85 940.65,-70.49 944.2,-46.39 944.72,-29.54"/>
<polygon fill="#63b8ff" stroke="#63b8ff" points="948.22,-29.23 944.7,-19.24 941.22,-29.25 948.22,-29.23"/>
</a>
</g>
</g>
<!-- Node28 -->
<g id="Node000028" class="node">
<title>Node28</title>
<g id="a_Node000028"><a xlink:title=" ">
<polygon fill="#e0e0e0" stroke="#999999" points="1280.11,-79.5 1212.11,-79.5 1212.11,-60.5 1280.11,-60.5 1280.11,-79.5"/>
<text text-anchor="middle" x="1246.11" y="-67.5" font-family="Helvetica,sans-Serif" font-size="10.00">filesystem</text>
</a>
</g>
</g>
<!-- Node27&#45;&gt;Node28 -->
<g id="edge30_Node000027_Node000028" class="edge">
<title>Node27&#45;&gt;Node28</title>
<g id="a_edge30_Node000027_Node000028"><a xlink:title=" ">
<path fill="none" stroke="#63b8ff" d="M787.67,-122.27C790.86,-121.83 794.03,-121.4 797.11,-121 945.05,-101.74 1121.02,-83.5 1201.7,-75.39"/>
<polygon fill="#63b8ff" stroke="#63b8ff" points="1202.38,-78.84 1211.98,-74.36 1201.68,-71.88 1202.38,-78.84"/>
</a>
</g>
</g>
<!-- Node29&#45;&gt;Node2 -->
<g id="edge35_Node000029_Node000002" class="edge">
<title>Node29&#45;&gt;Node2</title>
<g id="a_edge35_Node000029_Node000002"><a xlink:title=" ">
<path fill="none" stroke="#63b8ff" d="M1753.89,-175.99C1772.73,-166.49 1797.46,-154.02 1815.94,-144.69"/>
<polygon fill="#63b8ff" stroke="#63b8ff" points="1817.62,-147.77 1824.98,-140.14 1814.47,-141.52 1817.62,-147.77"/>
</a>
</g>
</g>
<!-- Node29&#45;&gt;Node3 -->
<g id="edge38_Node000029_Node000003" class="edge">
<title>Node29&#45;&gt;Node3</title>
<g id="a_edge38_Node000029_Node000003"><a xlink:title=" ">
<path fill="none" stroke="#63b8ff" d="M1663.03,-182.23C1577.2,-171.66 1423.63,-152.75 1330.2,-141.24"/>
<polygon fill="#63b8ff" stroke="#63b8ff" points="1330.58,-137.76 1320.23,-140.01 1329.73,-144.71 1330.58,-137.76"/>
</a>
</g>
</g>
<!-- Node29&#45;&gt;Node4 -->
<g id="edge40_Node000029_Node000004" class="edge">
<title>Node29&#45;&gt;Node4</title>
<g id="a_edge40_Node000029_Node000004"><a xlink:title=" ">
<path fill="none" stroke="#63b8ff" d="M1789.21,-180.21C1858.23,-169.5 1968.32,-152.42 2038.09,-141.59"/>
<polygon fill="#63b8ff" stroke="#63b8ff" points="2038.74,-145.03 2048.09,-140.04 2037.67,-138.11 2038.74,-145.03"/>
</a>
</g>
</g>
<!-- Node29&#45;&gt;Node28 -->
<g id="edge42_Node000029_Node000028" class="edge">
<title>Node29&#45;&gt;Node28</title>
<g id="a_edge42_Node000029_Node000028"><a xlink:title=" ">
<path fill="none" stroke="#63b8ff" d="M1707.02,-175.96C1681.98,-157.81 1639.09,-127.71 1621.11,-121 1507.17,-78.51 1361.89,-71.33 1290.2,-70.61"/>
<polygon fill="#63b8ff" stroke="#63b8ff" points="1290.19,-67.11 1280.17,-70.54 1290.15,-74.1 1290.19,-67.11"/>
</a>
</g>
</g>
<!-- Node30 -->
<g id="Node000030" class="node">
<title>Node30</title>
<g id="a_Node000030"><a xlink:title=" ">
<polygon fill="#e0e0e0" stroke="#999999" points="2565.11,-140 2417.11,-140 2417.11,-121 2565.11,-121 2565.11,-140"/>
<text text-anchor="middle" x="2491.11" y="-128" font-family="Helvetica,sans-Serif" font-size="10.00">nana/gui/widgets/label.hpp</text>
</a>
</g>
</g>
<!-- Node29&#45;&gt;Node30 -->
<g id="edge36_Node000029_Node000030" class="edge">
<title>Node29&#45;&gt;Node30</title>
<g id="a_edge36_Node000029_Node000030"><a xlink:title=" ">
<path fill="none" stroke="#63b8ff" d="M1789.15,-185.99C1907.84,-178.3 2172.8,-160.51 2406.84,-140.09"/>
<polygon fill="#63b8ff" stroke="#63b8ff" points="2407.25,-143.57 2416.9,-139.21 2406.64,-136.59 2407.25,-143.57"/>
</a>
</g>
</g>
<!-- Node31 -->
<g id="Node000031" class="node">
<title>Node31</title>
<g id="a_Node000031"><a xlink:title=" ">
<polygon fill="#e0e0e0" stroke="#999999" points="1611.61,-140 1450.61,-140 1450.61,-121 1611.61,-121 1611.61,-140"/>
<text text-anchor="middle" x="1531.11" y="-128" font-family="Helvetica,sans-Serif" font-size="10.00">nana/gui/widgets/textbox.hpp</text>
</a>
</g>
</g>
<!-- Node29&#45;&gt;Node31 -->
<g id="edge37_Node000029_Node000031" class="edge">
<title>Node29&#45;&gt;Node31</title>
<g id="a_edge37_Node000029_Node000031"><a xlink:title=" ">
<path fill="none" stroke="#63b8ff" d="M1679.4,-175.99C1645.75,-165.89 1600.89,-152.44 1569.36,-142.98"/>
<polygon fill="#63b8ff" stroke="#63b8ff" points="1570.2,-139.57 1559.62,-140.05 1568.19,-146.28 1570.2,-139.57"/>
</a>
</g>
</g>
<!-- Node32 -->
<g id="Node000032" class="node">
<title>Node32</title>
<g id="a_Node000032"><a xlink:title=" ">
<polygon fill="#e0e0e0" stroke="#999999" points="1784.11,-140 1668.11,-140 1668.11,-121 1784.11,-121 1784.11,-140"/>
<text text-anchor="middle" x="1726.11" y="-128" font-family="Helvetica,sans-Serif" font-size="10.00">nana/gui/filebox.hpp</text>
</a>
</g>
</g>
<!-- Node29&#45;&gt;Node32 -->
<g id="edge39_Node000029_Node000032" class="edge">
<title>Node29&#45;&gt;Node32</title>
<g id="a_edge39_Node000029_Node000032"><a xlink:title=" ">
<path fill="none" stroke="#63b8ff" d="M1726.11,-175.84C1726.11,-168.21 1726.11,-158.7 1726.11,-150.45"/>
<polygon fill="#63b8ff" stroke="#63b8ff" points="1729.61,-150.27 1726.11,-140.27 1722.61,-150.27 1729.61,-150.27"/>
</a>
</g>
</g>
<!-- Node33 -->
<g id="Node000033" class="node">
<title>Node33</title>
<g id="a_Node000033"><a xlink:title=" ">
<polygon fill="#e0e0e0" stroke="#999999" points="2009.61,-140 1900.61,-140 1900.61,-121 2009.61,-121 2009.61,-140"/>
<text text-anchor="middle" x="1955.11" y="-128" font-family="Helvetica,sans-Serif" font-size="10.00">nana/gui/place.hpp</text>
</a>
</g>
</g>
<!-- Node29&#45;&gt;Node33 -->
<g id="edge41_Node000029_Node000033" class="edge">
<title>Node29&#45;&gt;Node33</title>
<g id="a_edge41_Node000029_Node000033"><a xlink:title=" ">
<path fill="none" stroke="#63b8ff" d="M1780.96,-175.99C1820.99,-165.76 1874.52,-152.09 1911.62,-142.61"/>
<polygon fill="#63b8ff" stroke="#63b8ff" points="1912.8,-145.92 1921.62,-140.05 1911.07,-139.14 1912.8,-145.92"/>
</a>
</g>
</g>
<!-- Node34&#45;&gt;Node2 -->
<g id="edge44_Node000034_Node000002" class="edge">
<title>Node34&#45;&gt;Node2</title>
<g id="a_edge44_Node000034_Node000002"><a xlink:title=" ">
<path fill="none" stroke="#63b8ff" d="M2091.77,-178.16C2033.03,-167.18 1946.77,-151.06 1892.56,-140.93"/>
<polygon fill="#63b8ff" stroke="#63b8ff" points="1892.97,-137.45 1882.49,-139.05 1891.68,-144.33 1892.97,-137.45"/>
</a>
</g>
</g>
<!-- Node34&#45;&gt;Node4 -->
<g id="edge46_Node000034_Node000004" class="edge">
<title>Node34&#45;&gt;Node4</title>
<g id="a_edge46_Node000034_Node000004"><a xlink:title=" ">
<path fill="none" stroke="#63b8ff" d="M2142.52,-175.84C2135.05,-167.43 2125.54,-156.74 2117.74,-147.96"/>
<polygon fill="#63b8ff" stroke="#63b8ff" points="2120.16,-145.41 2110.9,-140.27 2114.93,-150.07 2120.16,-145.41"/>
</a>
</g>
</g>
<!-- Node34&#45;&gt;Node11 -->
<g id="edge50_Node000034_Node000011" class="edge">
<title>Node34&#45;&gt;Node11</title>
<g id="a_edge50_Node000034_Node000011"><a xlink:title=" ">
<path fill="none" stroke="#63b8ff" d="M2170.53,-175.9C2185.13,-160.86 2202.81,-137.07 2188.11,-121 2103.79,-28.86 1163.52,-13.07 976.38,-10.83"/>
<polygon fill="#63b8ff" stroke="#63b8ff" points="976.15,-7.33 966.11,-10.71 976.07,-14.33 976.15,-7.33"/>
</a>
</g>
</g>
<!-- Node34&#45;&gt;Node25 -->
<g id="edge49_Node000034_Node000025" class="edge">
<title>Node34&#45;&gt;Node25</title>
<g id="a_edge49_Node000034_Node000025"><a xlink:title=" ">
<path fill="none" stroke="#63b8ff" d="M2218.52,-184.3C2332.35,-173.8 2560.8,-151.45 2574.11,-140 2588.36,-127.74 2592.4,-105.88 2593.32,-90.04"/>
<polygon fill="#63b8ff" stroke="#63b8ff" points="2596.83,-89.87 2593.55,-79.79 2589.83,-89.72 2596.83,-89.87"/>
</a>
</g>
</g>
<!-- Node34&#45;&gt;Node30 -->
<g id="edge45_Node000034_Node000030" class="edge">
<title>Node34&#45;&gt;Node30</title>
<g id="a_edge45_Node000034_Node000030"><a xlink:title=" ">
<path fill="none" stroke="#63b8ff" d="M2218.31,-179C2279.67,-168.31 2372.11,-152.22 2432.03,-141.78"/>
<polygon fill="#63b8ff" stroke="#63b8ff" points="2432.84,-145.2 2442.1,-140.03 2431.64,-138.3 2432.84,-145.2"/>
</a>
</g>
</g>
<!-- Node34&#45;&gt;Node33 -->
<g id="edge48_Node000034_Node000033" class="edge">
<title>Node34&#45;&gt;Node33</title>
<g id="a_edge48_Node000034_Node000033"><a xlink:title=" ">
<path fill="none" stroke="#63b8ff" d="M2107.2,-175.99C2072.69,-165.89 2026.68,-152.44 1994.34,-142.98"/>
<polygon fill="#63b8ff" stroke="#63b8ff" points="1994.93,-139.5 1984.35,-140.05 1992.96,-146.22 1994.93,-139.5"/>
</a>
</g>
</g>
<!-- Node35 -->
<g id="Node000035" class="node">
<title>Node35</title>
<g id="a_Node000035"><a xlink:title=" ">
<polygon fill="#e0e0e0" stroke="#999999" points="2398.61,-140 2235.61,-140 2235.61,-121 2398.61,-121 2398.61,-140"/>
<text text-anchor="middle" x="2317.11" y="-128" font-family="Helvetica,sans-Serif" font-size="10.00">nana/gui/widgets/combox.hpp</text>
</a>
</g>
</g>
<!-- Node34&#45;&gt;Node35 -->
<g id="edge47_Node000034_Node000035" class="edge">
<title>Node34&#45;&gt;Node35</title>
<g id="a_edge47_Node000034_Node000035"><a xlink:title=" ">
<path fill="none" stroke="#63b8ff" d="M2193.91,-175.99C2221.3,-166.1 2257.62,-152.98 2283.72,-143.56"/>
<polygon fill="#63b8ff" stroke="#63b8ff" points="2284.97,-146.83 2293.18,-140.14 2282.59,-140.24 2284.97,-146.83"/>
</a>
</g>
</g>
<!-- Node36&#45;&gt;Node2 -->
<g id="edge52_Node000036_Node000002" class="edge">
<title>Node36&#45;&gt;Node2</title>
<g id="a_edge52_Node000036_Node000002"><a xlink:title=" ">
<path fill="none" stroke="#63b8ff" d="M2357.83,-185.54C2258.42,-178.2 2059.7,-162.13 1892.11,-140 1892.01,-139.99 1891.9,-139.97 1891.8,-139.96"/>
<polygon fill="#63b8ff" stroke="#63b8ff" points="1892.58,-136.54 1882.18,-138.58 1891.59,-143.46 1892.58,-136.54"/>
</a>
</g>
</g>
<!-- Node36&#45;&gt;Node4 -->
<g id="edge54_Node000036_Node000004" class="edge">
<title>Node36&#45;&gt;Node4</title>
<g id="a_edge54_Node000036_Node000004"><a xlink:title=" ">
<path fill="none" stroke="#63b8ff" d="M2357.9,-178.37C2300.09,-167.74 2215.36,-152.15 2159.72,-141.92"/>
<polygon fill="#63b8ff" stroke="#63b8ff" points="2160.15,-138.44 2149.69,-140.07 2158.89,-145.32 2160.15,-138.44"/>
</a>
</g>
</g>
<!-- Node36&#45;&gt;Node11 -->
<g id="edge58_Node000036_Node000011" class="edge">
<title>Node36&#45;&gt;Node11</title>
<g id="a_edge58_Node000036_Node000011"><a xlink:title=" ">
<path fill="none" stroke="#63b8ff" d="M2484.17,-189.97C2610.92,-188.69 2880.95,-179.21 2838.11,-121 2779.61,-41.52 2723.46,-71.12 2626.11,-55 2457.75,-27.12 1195.26,-13.06 976.4,-10.82"/>
<polygon fill="#63b8ff" stroke="#63b8ff" points="976.25,-7.32 966.21,-10.72 976.18,-14.32 976.25,-7.32"/>
</a>
</g>
</g>
<!-- Node36&#45;&gt;Node25 -->
<g id="edge57_Node000036_Node000025" class="edge">
<title>Node36&#45;&gt;Node25</title>
<g id="a_edge57_Node000036_Node000025"><a xlink:title=" ">
<path fill="none" stroke="#63b8ff" d="M2484.45,-181.3C2532.24,-173.28 2592.05,-159.64 2607.11,-140 2618.45,-125.2 2611.3,-103.53 2603.67,-88.44"/>
<polygon fill="#63b8ff" stroke="#63b8ff" points="2606.69,-86.66 2598.78,-79.61 2600.56,-90.05 2606.69,-86.66"/>
</a>
</g>
</g>
<!-- Node36&#45;&gt;Node30 -->
<g id="edge53_Node000036_Node000030" class="edge">
<title>Node36&#45;&gt;Node30</title>
<g id="a_edge53_Node000036_Node000030"><a xlink:title=" ">
<path fill="none" stroke="#63b8ff" d="M2438.05,-175.84C2448.52,-167.09 2461.97,-155.85 2472.7,-146.88"/>
<polygon fill="#63b8ff" stroke="#63b8ff" points="2475.19,-149.36 2480.62,-140.27 2470.7,-143.99 2475.19,-149.36"/>
</a>
</g>
</g>
<!-- Node36&#45;&gt;Node33 -->
<g id="edge56_Node000036_Node000033" class="edge">
<title>Node36&#45;&gt;Node33</title>
<g id="a_edge56_Node000036_Node000033"><a xlink:title=" ">
<path fill="none" stroke="#63b8ff" d="M2358.07,-182.32C2280.99,-172.9 2146.25,-156.31 2020.14,-140.12"/>
<polygon fill="#63b8ff" stroke="#63b8ff" points="2020.28,-136.61 2009.92,-138.81 2019.39,-143.56 2020.28,-136.61"/>
</a>
</g>
</g>
<!-- Node37 -->
<g id="Node000037" class="node">
<title>Node37</title>
<g id="a_Node000037"><a xlink:title=" ">
<polygon fill="#e0e0e0" stroke="#999999" points="2829.11,-140 2659.11,-140 2659.11,-121 2829.11,-121 2829.11,-140"/>
<text text-anchor="middle" x="2744.11" y="-128" font-family="Helvetica,sans-Serif" font-size="10.00">nana/gui/widgets/checkbox.hpp</text>
</a>
</g>
</g>
<!-- Node36&#45;&gt;Node37 -->
<g id="edge55_Node000036_Node000037" class="edge">
<title>Node36&#45;&gt;Node37</title>
<g id="a_edge55_Node000036_Node000037"><a xlink:title=" ">
<path fill="none" stroke="#63b8ff" d="M2484.15,-178.58C2543.04,-167.92 2630.16,-152.14 2687.04,-141.84"/>
<polygon fill="#63b8ff" stroke="#63b8ff" points="2687.72,-145.27 2696.94,-140.04 2686.48,-138.38 2687.72,-145.27"/>
</a>
</g>
</g>
<!-- Node38&#45;&gt;Node2 -->
<g id="edge60_Node000038_Node000002" class="edge">
<title>Node38&#45;&gt;Node2</title>
<g id="a_edge60_Node000038_Node000002"><a xlink:title=" ">
<path fill="none" stroke="#63b8ff" d="M1559.27,-179.46C1617.18,-169.78 1705.59,-154.94 1792.02,-140.18"/>
<polygon fill="#63b8ff" stroke="#63b8ff" points="1792.73,-143.61 1802,-138.47 1791.55,-136.71 1792.73,-143.61"/>
</a>
</g>
</g>
<!-- Node38&#45;&gt;Node4 -->
<g id="edge61_Node000038_Node000004" class="edge">
<title>Node38&#45;&gt;Node4</title>
<g id="a_edge61_Node000038_Node000004"><a xlink:title=" ">
<path fill="none" stroke="#63b8ff" d="M1559.31,-184.07C1655.78,-175 1845.8,-157.02 2017.57,-140.15"/>
<polygon fill="#63b8ff" stroke="#63b8ff" points="2017.94,-143.63 2027.55,-139.17 2017.26,-136.66 2017.94,-143.63"/>
</a>
</g>
</g>
<!-- Node38&#45;&gt;Node5 -->
<g id="edge63_Node000038_Node000005" class="edge">
<title>Node38&#45;&gt;Node5</title>
<g id="a_edge63_Node000038_Node000005"><a xlink:title=" ">
<path fill="none" stroke="#63b8ff" d="M1433.01,-182.25C1356.58,-172.83 1223.61,-156.31 1099.46,-140.17"/>
<polygon fill="#63b8ff" stroke="#63b8ff" points="1099.77,-136.68 1089.4,-138.86 1098.86,-143.62 1099.77,-136.68"/>
</a>
</g>
</g>
<!-- Node38&#45;&gt;Node8 -->
<g id="edge65_Node000038_Node000008" class="edge">
<title>Node38&#45;&gt;Node8</title>
<g id="a_edge65_Node000038_Node000008"><a xlink:title=" ">
<path fill="none" stroke="#63b8ff" d="M1432.96,-182.28C1366.12,-173.68 1257.71,-158.53 1165.11,-140 1165.01,-139.98 1164.91,-139.96 1164.8,-139.94"/>
<polygon fill="#63b8ff" stroke="#63b8ff" points="1165.71,-136.55 1155.19,-137.82 1164.2,-143.39 1165.71,-136.55"/>
</a>
</g>
</g>
<!-- Node38&#45;&gt;Node9 -->
<g id="edge66_Node000038_Node000009" class="edge">
<title>Node38&#45;&gt;Node9</title>
<g id="a_edge66_Node000038_Node000009"><a xlink:title=" ">
<path fill="none" stroke="#63b8ff" d="M1465.93,-175.99C1445.28,-166.4 1418.11,-153.79 1397.97,-144.44"/>
<polygon fill="#63b8ff" stroke="#63b8ff" points="1399.26,-141.18 1388.71,-140.14 1396.31,-147.52 1399.26,-141.18"/>
</a>
</g>
</g>
<!-- Node38&#45;&gt;Node11 -->
<g id="edge67_Node000038_Node000011" class="edge">
<title>Node38&#45;&gt;Node11</title>
<g id="a_edge67_Node000038_Node000011"><a xlink:title=" ">
<path fill="none" stroke="#63b8ff" d="M1480.45,-175.67C1447.78,-146.78 1368.76,-81.97 1289.11,-55 1178.76,-17.63 1038.8,-11.31 976.53,-10.47"/>
<polygon fill="#63b8ff" stroke="#63b8ff" points="976.21,-6.96 966.17,-10.37 976.14,-13.96 976.21,-6.96"/>
</a>
</g>
</g>
<!-- Node38&#45;&gt;Node31 -->
<g id="edge62_Node000038_Node000031" class="edge">
<title>Node38&#45;&gt;Node31</title>
<g id="a_edge62_Node000038_Node000031"><a xlink:title=" ">
<path fill="none" stroke="#63b8ff" d="M1504.58,-175.84C1509.4,-167.78 1515.48,-157.62 1520.6,-149.06"/>
<polygon fill="#63b8ff" stroke="#63b8ff" points="1523.73,-150.64 1525.86,-140.27 1517.72,-147.05 1523.73,-150.64"/>
</a>
</g>
</g>
<!-- Node38&#45;&gt;Node33 -->
<g id="edge64_Node000038_Node000033" class="edge">
<title>Node38&#45;&gt;Node33</title>
<g id="a_edge64_Node000038_Node000033"><a xlink:title=" ">
<path fill="none" stroke="#63b8ff" d="M1559.4,-182.11C1635.37,-172.61 1766.89,-156.08 1890.29,-140.1"/>
<polygon fill="#63b8ff" stroke="#63b8ff" points="1890.83,-143.56 1900.3,-138.8 1889.93,-136.62 1890.83,-143.56"/>
</a>
</g>
</g>
</g>
</svg>
