<?xml version="1.0" encoding="UTF-8" standalone="no"?>
<!DOCTYPE svg PUBLIC "-//W3C//DTD SVG 1.1//EN"
 "http://www.w3.org/Graphics/SVG/1.1/DTD/svg11.dtd">
<!-- Generated by graphviz version 2.43.0 (0)
 -->
<!-- Title: /home/runner/work/Weaver/Weaver/include/App/Model/IBM/Landscape/LivingBeings/Animals/Growth/Model/IndividualGrowthModel.h Pages: 1 -->
<svg width="1009pt" height="269pt"
 viewBox="0.00 0.00 1009.00 269.00" xmlns="http://www.w3.org/2000/svg" xmlns:xlink="http://www.w3.org/1999/xlink">
<g id="graph0" class="graph" transform="scale(1 1) rotate(0) translate(4 265)">
<title>/home/runner/work/Weaver/Weaver/include/App/Model/IBM/Landscape/LivingBeings/Animals/Growth/Model/IndividualGrowthModel.h</title>
<!-- Node1 -->
<g id="Node000001" class="node">
<title>Node1</title>
<g id="a_Node000001"><a xlink:title="Defines the IndividualGrowthModel class, an abstract base class for modeling individual animal growth...">
<polygon fill="#999999" stroke="#666666" points="404,-261 187,-261 187,-198 404,-198 404,-261"/>
<text text-anchor="start" x="195" y="-249" font-family="Helvetica,sans-Serif" font-size="10.00">/home/runner/work/Weaver</text>
<text text-anchor="start" x="195" y="-238" font-family="Helvetica,sans-Serif" font-size="10.00">/Weaver/include/App/Model</text>
<text text-anchor="start" x="195" y="-227" font-family="Helvetica,sans-Serif" font-size="10.00">/IBM/Landscape/LivingBeings</text>
<text text-anchor="start" x="195" y="-216" font-family="Helvetica,sans-Serif" font-size="10.00">/Animals/Growth/Model/IndividualGrowth</text>
<text text-anchor="middle" x="295.5" y="-205" font-family="Helvetica,sans-Serif" font-size="10.00">Model.h</text>
</a>
</g>
</g>
<!-- Node2 -->
<g id="Node000002" class="node">
<title>Node2</title>
<g id="a_Node000002"><a xlink:title=" ">
<polygon fill="#e0e0e0" stroke="#999999" points="59.5,-156.5 1.5,-156.5 1.5,-137.5 59.5,-137.5 59.5,-156.5"/>
<text text-anchor="middle" x="30.5" y="-144.5" font-family="Helvetica,sans-Serif" font-size="10.00">memory</text>
</a>
</g>
</g>
<!-- Node1&#45;&gt;Node2 -->
<g id="edge1_Node000001_Node000002" class="edge">
<title>Node1&#45;&gt;Node2</title>
<g id="a_edge1_Node000001_Node000002"><a xlink:title=" ">
<path fill="none" stroke="#63b8ff" d="M191.72,-197.97C154.39,-186.84 112,-174.03 73.5,-162 71.07,-161.24 68.57,-160.45 66.06,-159.65"/>
<polygon fill="#63b8ff" stroke="#63b8ff" points="66.98,-156.27 56.39,-156.54 64.84,-162.93 66.98,-156.27"/>
</a>
</g>
</g>
<!-- Node3 -->
<g id="Node000003" class="node">
<title>Node3</title>
<g id="a_Node000003"><a xlink:title=" ">
<polygon fill="#e0e0e0" stroke="#999999" points="105,-30 0,-30 0,0 105,0 105,-30"/>
<text text-anchor="start" x="8" y="-18" font-family="Helvetica,sans-Serif" font-size="10.00">boost/archive/text</text>
<text text-anchor="middle" x="52.5" y="-7" font-family="Helvetica,sans-Serif" font-size="10.00">_iarchive.hpp</text>
</a>
</g>
</g>
<!-- Node1&#45;&gt;Node3 -->
<g id="edge2_Node000001_Node000003" class="edge">
<title>Node1&#45;&gt;Node3</title>
<g id="a_edge2_Node000001_Node000003"><a xlink:title=" ">
<path fill="none" stroke="#63b8ff" d="M260.43,-197.83C210.29,-153.99 119.46,-74.56 76.39,-36.89"/>
<polygon fill="#63b8ff" stroke="#63b8ff" points="78.52,-34.1 68.68,-30.15 73.91,-39.37 78.52,-34.1"/>
</a>
</g>
</g>
<!-- Node4 -->
<g id="Node000004" class="node">
<title>Node4</title>
<g id="a_Node000004"><a xlink:title=" ">
<polygon fill="#e0e0e0" stroke="#999999" points="228,-30 123,-30 123,0 228,0 228,-30"/>
<text text-anchor="start" x="131" y="-18" font-family="Helvetica,sans-Serif" font-size="10.00">boost/archive/text</text>
<text text-anchor="middle" x="175.5" y="-7" font-family="Helvetica,sans-Serif" font-size="10.00">_oarchive.hpp</text>
</a>
</g>
</g>
<!-- Node1&#45;&gt;Node4 -->
<g id="edge3_Node000001_Node000004" class="edge">
<title>Node1&#45;&gt;Node4</title>
<g id="a_edge3_Node000001_Node000004"><a xlink:title=" ">
<path fill="none" stroke="#63b8ff" d="M275.58,-198C268.44,-186.79 260.44,-173.92 253.5,-162 228.7,-119.38 202.1,-68.29 187.26,-39.24"/>
<polygon fill="#63b8ff" stroke="#63b8ff" points="190.35,-37.61 182.69,-30.28 184.11,-40.78 190.35,-37.61"/>
</a>
</g>
</g>
<!-- Node5 -->
<g id="Node000005" class="node">
<title>Node5</title>
<g id="a_Node000005"><a xlink:title=" ">
<polygon fill="#e0e0e0" stroke="#999999" points="362.5,-30 246.5,-30 246.5,0 362.5,0 362.5,-30"/>
<text text-anchor="start" x="254.5" y="-18" font-family="Helvetica,sans-Serif" font-size="10.00">boost/archive/binary</text>
<text text-anchor="middle" x="304.5" y="-7" font-family="Helvetica,sans-Serif" font-size="10.00">_iarchive.hpp</text>
</a>
</g>
</g>
<!-- Node1&#45;&gt;Node5 -->
<g id="edge4_Node000001_Node000005" class="edge">
<title>Node1&#45;&gt;Node5</title>
<g id="a_edge4_Node000001_Node000005"><a xlink:title=" ">
<path fill="none" stroke="#63b8ff" d="M274.71,-197.69C268.55,-186.88 262.63,-174.34 259.5,-162 248.38,-118.11 272.1,-67.84 289.14,-39.21"/>
<polygon fill="#63b8ff" stroke="#63b8ff" points="292.32,-40.71 294.6,-30.37 286.37,-37.03 292.32,-40.71"/>
</a>
</g>
</g>
<!-- Node6 -->
<g id="Node000006" class="node">
<title>Node6</title>
<g id="a_Node000006"><a xlink:title=" ">
<polygon fill="#e0e0e0" stroke="#999999" points="867.5,-30 751.5,-30 751.5,0 867.5,0 867.5,-30"/>
<text text-anchor="start" x="759.5" y="-18" font-family="Helvetica,sans-Serif" font-size="10.00">boost/archive/binary</text>
<text text-anchor="middle" x="809.5" y="-7" font-family="Helvetica,sans-Serif" font-size="10.00">_oarchive.hpp</text>
</a>
</g>
</g>
<!-- Node1&#45;&gt;Node6 -->
<g id="edge5_Node000001_Node000006" class="edge">
<title>Node1&#45;&gt;Node6</title>
<g id="a_edge5_Node000001_Node000006"><a xlink:title=" ">
<path fill="none" stroke="#63b8ff" d="M404.26,-225.4C509.87,-216.73 668.5,-187.89 768.5,-96 785.12,-80.73 796.05,-57.18 802.41,-39.58"/>
<polygon fill="#63b8ff" stroke="#63b8ff" points="805.76,-40.61 805.63,-30.01 799.12,-38.37 805.76,-40.61"/>
</a>
</g>
</g>
<!-- Node7 -->
<g id="Node000007" class="node">
<title>Node7</title>
<g id="a_Node000007"><a xlink:href="LineInfoException_8h.html" target="_top" xlink:title="Exception class with detailed file and line information for error reporting.">
<polygon fill="white" stroke="#666666" points="996,-156.5 827,-156.5 827,-137.5 996,-137.5 996,-156.5"/>
<text text-anchor="middle" x="911.5" y="-144.5" font-family="Helvetica,sans-Serif" font-size="10.00">Exceptions/LineInfoException.h</text>
</a>
</g>
</g>
<!-- Node1&#45;&gt;Node7 -->
<g id="edge6_Node000001_Node000007" class="edge">
<title>Node1&#45;&gt;Node7</title>
<g id="a_edge6_Node000001_Node000007"><a xlink:title=" ">
<path fill="none" stroke="#63b8ff" d="M404.2,-215C509.05,-201.87 672.22,-181.16 813.5,-162 822.98,-160.71 832.97,-159.33 842.8,-157.94"/>
<polygon fill="#63b8ff" stroke="#63b8ff" points="843.55,-161.37 852.96,-156.5 842.57,-154.44 843.55,-161.37"/>
</a>
</g>
</g>
<!-- Node10 -->
<g id="Node000010" class="node">
<title>Node10</title>
<g id="a_Node000010"><a xlink:href="StructuralUnits_8h.html" target="_top" xlink:title="Defines physical units used in the simulation: DryMass, WetMass, and Length.">
<polygon fill="white" stroke="#666666" points="436,-162 269,-162 269,-132 436,-132 436,-162"/>
<text text-anchor="start" x="277" y="-150" font-family="Helvetica,sans-Serif" font-size="10.00">App/Model/IBM/Landscape</text>
<text text-anchor="middle" x="352.5" y="-139" font-family="Helvetica,sans-Serif" font-size="10.00">/LivingBeings/StructuralUnits.h</text>
</a>
</g>
</g>
<!-- Node1&#45;&gt;Node10 -->
<g id="edge9_Node000001_Node000010" class="edge">
<title>Node1&#45;&gt;Node10</title>
<g id="a_edge9_Node000001_Node000010"><a xlink:title=" ">
<path fill="none" stroke="#63b8ff" d="M317.37,-197.61C323.81,-188.52 330.71,-178.77 336.69,-170.33"/>
<polygon fill="#63b8ff" stroke="#63b8ff" points="339.59,-172.29 342.51,-162.1 333.88,-168.24 339.59,-172.29"/>
</a>
</g>
</g>
<!-- Node18 -->
<g id="Node000018" class="node">
<title>Node18</title>
<g id="a_Node000018"><a xlink:href="TimeUnits_8h.html" target="_top" xlink:title="Defines the TimeStep and Day classes for representing simulation time units.">
<polygon fill="white" stroke="#666666" points="599,-162 454,-162 454,-132 599,-132 599,-162"/>
<text text-anchor="start" x="462" y="-150" font-family="Helvetica,sans-Serif" font-size="10.00">App/Model/IBM/Landscape</text>
<text text-anchor="middle" x="526.5" y="-139" font-family="Helvetica,sans-Serif" font-size="10.00">/LivingBeings/TimeUnits.h</text>
</a>
</g>
</g>
<!-- Node1&#45;&gt;Node18 -->
<g id="edge27_Node000001_Node000018" class="edge">
<title>Node1&#45;&gt;Node18</title>
<g id="a_edge27_Node000001_Node000018"><a xlink:title=" ">
<path fill="none" stroke="#63b8ff" d="M383.16,-197.95C414.76,-186.94 449.32,-174.9 476.58,-165.39"/>
<polygon fill="#63b8ff" stroke="#63b8ff" points="477.99,-168.61 486.28,-162.02 475.69,-162 477.99,-168.61"/>
</a>
</g>
</g>
<!-- Node8 -->
<g id="Node000008" class="node">
<title>Node8</title>
<g id="a_Node000008"><a xlink:title=" ">
<polygon fill="#e0e0e0" stroke="#999999" points="1001,-90.5 936,-90.5 936,-71.5 1001,-71.5 1001,-90.5"/>
<text text-anchor="middle" x="968.5" y="-78.5" font-family="Helvetica,sans-Serif" font-size="10.00">exception</text>
</a>
</g>
</g>
<!-- Node7&#45;&gt;Node8 -->
<g id="edge7_Node000007_Node000008" class="edge">
<title>Node7&#45;&gt;Node8</title>
<g id="a_edge7_Node000007_Node000008"><a xlink:title=" ">
<path fill="none" stroke="#63b8ff" d="M919.19,-137.37C927.98,-127.5 942.57,-111.11 953.61,-98.72"/>
<polygon fill="#63b8ff" stroke="#63b8ff" points="956.53,-100.7 960.57,-90.91 951.3,-96.05 956.53,-100.7"/>
</a>
</g>
</g>
<!-- Node9 -->
<g id="Node000009" class="node">
<title>Node9</title>
<g id="a_Node000009"><a xlink:title=" ">
<polygon fill="#e0e0e0" stroke="#999999" points="929.5,-24.5 885.5,-24.5 885.5,-5.5 929.5,-5.5 929.5,-24.5"/>
<text text-anchor="middle" x="907.5" y="-12.5" font-family="Helvetica,sans-Serif" font-size="10.00">string</text>
</a>
</g>
</g>
<!-- Node7&#45;&gt;Node9 -->
<g id="edge8_Node000007_Node000009" class="edge">
<title>Node7&#45;&gt;Node9</title>
<g id="a_edge8_Node000007_Node000009"><a xlink:title=" ">
<path fill="none" stroke="#63b8ff" d="M911.24,-137.47C910.6,-116.82 908.97,-63.72 908.09,-35.04"/>
<polygon fill="#63b8ff" stroke="#63b8ff" points="911.57,-34.62 907.77,-24.73 904.58,-34.83 911.57,-34.62"/>
</a>
</g>
</g>
<!-- Node10&#45;&gt;Node3 -->
<g id="edge10_Node000010_Node000003" class="edge">
<title>Node10&#45;&gt;Node3</title>
<g id="a_edge10_Node000010_Node000003"><a xlink:title=" ">
<path fill="none" stroke="#63b8ff" d="M294,-131.96C261.89,-123.35 221.75,-111.07 187.5,-96 148.97,-79.04 107.76,-53.41 81.15,-35.75"/>
<polygon fill="#63b8ff" stroke="#63b8ff" points="82.97,-32.75 72.71,-30.09 79.07,-38.57 82.97,-32.75"/>
</a>
</g>
</g>
<!-- Node10&#45;&gt;Node4 -->
<g id="edge11_Node000010_Node000004" class="edge">
<title>Node10&#45;&gt;Node4</title>
<g id="a_edge11_Node000010_Node000004"><a xlink:title=" ">
<path fill="none" stroke="#63b8ff" d="M333.22,-131.84C301.7,-108.69 239.03,-62.66 202.9,-36.13"/>
<polygon fill="#63b8ff" stroke="#63b8ff" points="204.89,-33.24 194.76,-30.14 200.74,-38.88 204.89,-33.24"/>
</a>
</g>
</g>
<!-- Node10&#45;&gt;Node5 -->
<g id="edge12_Node000010_Node000005" class="edge">
<title>Node10&#45;&gt;Node5</title>
<g id="a_edge12_Node000010_Node000005"><a xlink:title=" ">
<path fill="none" stroke="#63b8ff" d="M347.27,-131.84C339.08,-109.67 323.15,-66.51 313.21,-39.59"/>
<polygon fill="#63b8ff" stroke="#63b8ff" points="316.47,-38.31 309.72,-30.14 309.9,-40.74 316.47,-38.31"/>
</a>
</g>
</g>
<!-- Node10&#45;&gt;Node6 -->
<g id="edge13_Node000010_Node000006" class="edge">
<title>Node10&#45;&gt;Node6</title>
<g id="a_edge13_Node000010_Node000006"><a xlink:title=" ">
<path fill="none" stroke="#63b8ff" d="M436.35,-132.93C522.96,-119.33 646.99,-99.52 657.5,-96 702.08,-81.05 749.42,-54.17 779.19,-35.72"/>
<polygon fill="#63b8ff" stroke="#63b8ff" points="781.24,-38.57 787.85,-30.29 777.52,-32.64 781.24,-38.57"/>
</a>
</g>
</g>
<!-- Node11 -->
<g id="Node000011" class="node">
<title>Node11</title>
<g id="a_Node000011"><a xlink:title=" ">
<polygon fill="#e0e0e0" stroke="#999999" points="439,-90.5 382,-90.5 382,-71.5 439,-71.5 439,-90.5"/>
<text text-anchor="middle" x="410.5" y="-78.5" font-family="Helvetica,sans-Serif" font-size="10.00">ostream</text>
</a>
</g>
</g>
<!-- Node10&#45;&gt;Node11 -->
<g id="edge14_Node000010_Node000011" class="edge">
<title>Node10&#45;&gt;Node11</title>
<g id="a_edge14_Node000010_Node000011"><a xlink:title=" ">
<path fill="none" stroke="#63b8ff" d="M365.37,-131.8C374.33,-121.92 386.29,-108.72 395.64,-98.39"/>
<polygon fill="#63b8ff" stroke="#63b8ff" points="398.36,-100.6 402.48,-90.84 393.18,-95.9 398.36,-100.6"/>
</a>
</g>
</g>
<!-- Node12 -->
<g id="Node000012" class="node">
<title>Node12</title>
<g id="a_Node000012"><a xlink:title=" ">
<polygon fill="#e0e0e0" stroke="#999999" points="733,-24.5 686,-24.5 686,-5.5 733,-5.5 733,-24.5"/>
<text text-anchor="middle" x="709.5" y="-12.5" font-family="Helvetica,sans-Serif" font-size="10.00">cmath</text>
</a>
</g>
</g>
<!-- Node10&#45;&gt;Node12 -->
<g id="edge15_Node000010_Node000012" class="edge">
<title>Node10&#45;&gt;Node12</title>
<g id="a_edge15_Node000010_Node000012"><a xlink:title=" ">
<path fill="none" stroke="#63b8ff" d="M436.12,-133.33C510.66,-121.62 610.55,-104.75 627.5,-96 635.45,-91.9 672.72,-54.05 694.18,-31.92"/>
<polygon fill="#63b8ff" stroke="#63b8ff" points="696.85,-34.19 701.28,-24.56 691.82,-29.32 696.85,-34.19"/>
</a>
</g>
</g>
<!-- Node13 -->
<g id="Node000013" class="node">
<title>Node13</title>
<g id="a_Node000013"><a xlink:href="PreciseDouble_8h.html" target="_top" xlink:title="Defines the PreciseDouble class for safe and precise double&#45;precision arithmetic.">
<polygon fill="white" stroke="#666666" points="619,-96 496,-96 496,-66 619,-66 619,-96"/>
<text text-anchor="start" x="504" y="-84" font-family="Helvetica,sans-Serif" font-size="10.00">App/Model/IBM/Maths</text>
<text text-anchor="middle" x="557.5" y="-73" font-family="Helvetica,sans-Serif" font-size="10.00">/PreciseDouble.h</text>
</a>
</g>
</g>
<!-- Node10&#45;&gt;Node13 -->
<g id="edge16_Node000010_Node000013" class="edge">
<title>Node10&#45;&gt;Node13</title>
<g id="a_edge16_Node000010_Node000013"><a xlink:title=" ">
<path fill="none" stroke="#63b8ff" d="M397.49,-131.95C428.46,-122.28 469.8,-109.38 502.7,-99.11"/>
<polygon fill="#63b8ff" stroke="#63b8ff" points="504.11,-102.33 512.62,-96.01 502.03,-95.65 504.11,-102.33"/>
</a>
</g>
</g>
<!-- Node13&#45;&gt;Node3 -->
<g id="edge17_Node000013_Node000003" class="edge">
<title>Node13&#45;&gt;Node3</title>
<g id="a_edge17_Node000013_Node000003"><a xlink:title=" ">
<path fill="none" stroke="#63b8ff" d="M495.86,-71.94C480.1,-69.94 463.18,-67.84 447.5,-66 302.55,-48.97 262.52,-54.48 115.62,-30.24"/>
<polygon fill="#63b8ff" stroke="#63b8ff" points="115.76,-26.72 105.32,-28.53 114.61,-33.62 115.76,-26.72"/>
</a>
</g>
</g>
<!-- Node13&#45;&gt;Node4 -->
<g id="edge18_Node000013_Node000004" class="edge">
<title>Node13&#45;&gt;Node4</title>
<g id="a_edge18_Node000013_Node000004"><a xlink:title=" ">
<path fill="none" stroke="#63b8ff" d="M495.94,-71.63C433.5,-62.86 333.87,-48.09 238.07,-30.03"/>
<polygon fill="#63b8ff" stroke="#63b8ff" points="238.69,-26.58 228.21,-28.16 237.39,-33.46 238.69,-26.58"/>
</a>
</g>
</g>
<!-- Node13&#45;&gt;Node5 -->
<g id="edge19_Node000013_Node000005" class="edge">
<title>Node13&#45;&gt;Node5</title>
<g id="a_edge19_Node000013_Node000005"><a xlink:title=" ">
<path fill="none" stroke="#63b8ff" d="M501.98,-65.95C463.01,-56.1 410.75,-42.88 369.78,-32.51"/>
<polygon fill="#63b8ff" stroke="#63b8ff" points="370.45,-29.07 359.89,-30.01 368.73,-35.86 370.45,-29.07"/>
</a>
</g>
</g>
<!-- Node13&#45;&gt;Node6 -->
<g id="edge20_Node000013_Node000006" class="edge">
<title>Node13&#45;&gt;Node6</title>
<g id="a_edge20_Node000013_Node000006"><a xlink:title=" ">
<path fill="none" stroke="#63b8ff" d="M612.8,-65.95C651.62,-56.1 703.67,-42.88 744.48,-32.51"/>
<polygon fill="#63b8ff" stroke="#63b8ff" points="745.5,-35.87 754.33,-30.01 743.77,-29.08 745.5,-35.87"/>
</a>
</g>
</g>
<!-- Node13&#45;&gt;Node9 -->
<g id="edge21_Node000013_Node000009" class="edge">
<title>Node13&#45;&gt;Node9</title>
<g id="a_edge21_Node000013_Node000009"><a xlink:title=" ">
<path fill="none" stroke="#63b8ff" d="M619.14,-75.28C684.2,-69.16 789.21,-56.03 876.5,-30 878.13,-29.51 879.79,-28.96 881.45,-28.36"/>
<polygon fill="#63b8ff" stroke="#63b8ff" points="882.83,-31.57 890.76,-24.55 880.18,-25.09 882.83,-31.57"/>
</a>
</g>
</g>
<!-- Node13&#45;&gt;Node12 -->
<g id="edge22_Node000013_Node000012" class="edge">
<title>Node13&#45;&gt;Node12</title>
<g id="a_edge22_Node000013_Node000012"><a xlink:title=" ">
<path fill="none" stroke="#63b8ff" d="M591.11,-65.91C614.95,-55.91 647.7,-42.16 676.5,-30 677.66,-29.51 678.84,-29.01 680.04,-28.5"/>
<polygon fill="#63b8ff" stroke="#63b8ff" points="681.42,-31.72 689.26,-24.6 678.69,-25.28 681.42,-31.72"/>
</a>
</g>
</g>
<!-- Node14 -->
<g id="Node000014" class="node">
<title>Node14</title>
<g id="a_Node000014"><a xlink:title=" ">
<polygon fill="#e0e0e0" stroke="#999999" points="444.5,-24.5 380.5,-24.5 380.5,-5.5 444.5,-5.5 444.5,-24.5"/>
<text text-anchor="middle" x="412.5" y="-12.5" font-family="Helvetica,sans-Serif" font-size="10.00">algorithm</text>
</a>
</g>
</g>
<!-- Node13&#45;&gt;Node14 -->
<g id="edge23_Node000013_Node000014" class="edge">
<title>Node13&#45;&gt;Node14</title>
<g id="a_edge23_Node000013_Node000014"><a xlink:title=" ">
<path fill="none" stroke="#63b8ff" d="M525.68,-65.95C500.47,-54.83 465.57,-39.42 441.21,-28.67"/>
<polygon fill="#63b8ff" stroke="#63b8ff" points="442.36,-25.35 431.8,-24.52 439.53,-31.76 442.36,-25.35"/>
</a>
</g>
</g>
<!-- Node15 -->
<g id="Node000015" class="node">
<title>Node15</title>
<g id="a_Node000015"><a xlink:title=" ">
<polygon fill="#e0e0e0" stroke="#999999" points="522.5,-24.5 462.5,-24.5 462.5,-5.5 522.5,-5.5 522.5,-24.5"/>
<text text-anchor="middle" x="492.5" y="-12.5" font-family="Helvetica,sans-Serif" font-size="10.00">iostream</text>
</a>
</g>
</g>
<!-- Node13&#45;&gt;Node15 -->
<g id="edge24_Node000013_Node000015" class="edge">
<title>Node13&#45;&gt;Node15</title>
<g id="a_edge24_Node000013_Node000015"><a xlink:title=" ">
<path fill="none" stroke="#63b8ff" d="M543.07,-65.8C532.94,-55.82 519.37,-42.46 508.84,-32.09"/>
<polygon fill="#63b8ff" stroke="#63b8ff" points="511.06,-29.37 501.48,-24.84 506.15,-34.35 511.06,-29.37"/>
</a>
</g>
</g>
<!-- Node16 -->
<g id="Node000016" class="node">
<title>Node16</title>
<g id="a_Node000016"><a xlink:title=" ">
<polygon fill="#e0e0e0" stroke="#999999" points="584.5,-24.5 540.5,-24.5 540.5,-5.5 584.5,-5.5 584.5,-24.5"/>
<text text-anchor="middle" x="562.5" y="-12.5" font-family="Helvetica,sans-Serif" font-size="10.00">limits</text>
</a>
</g>
</g>
<!-- Node13&#45;&gt;Node16 -->
<g id="edge25_Node000013_Node000016" class="edge">
<title>Node13&#45;&gt;Node16</title>
<g id="a_edge25_Node000013_Node000016"><a xlink:title=" ">
<path fill="none" stroke="#63b8ff" d="M558.61,-65.8C559.32,-56.7 560.25,-44.79 561.02,-34.9"/>
<polygon fill="#63b8ff" stroke="#63b8ff" points="564.52,-35.09 561.81,-24.84 557.54,-34.54 564.52,-35.09"/>
</a>
</g>
</g>
<!-- Node17 -->
<g id="Node000017" class="node">
<title>Node17</title>
<g id="a_Node000017"><a xlink:title=" ">
<polygon fill="#e0e0e0" stroke="#999999" points="668,-24.5 603,-24.5 603,-5.5 668,-5.5 668,-24.5"/>
<text text-anchor="middle" x="635.5" y="-12.5" font-family="Helvetica,sans-Serif" font-size="10.00">functional</text>
</a>
</g>
</g>
<!-- Node13&#45;&gt;Node17 -->
<g id="edge26_Node000013_Node000017" class="edge">
<title>Node13&#45;&gt;Node17</title>
<g id="a_edge26_Node000013_Node000017"><a xlink:title=" ">
<path fill="none" stroke="#63b8ff" d="M574.81,-65.8C587.21,-55.62 603.9,-41.93 616.63,-31.48"/>
<polygon fill="#63b8ff" stroke="#63b8ff" points="619.21,-33.89 624.72,-24.84 614.77,-28.48 619.21,-33.89"/>
</a>
</g>
</g>
<!-- Node18&#45;&gt;Node3 -->
<g id="edge28_Node000018_Node000003" class="edge">
<title>Node18&#45;&gt;Node3</title>
<g id="a_edge28_Node000018_Node000003"><a xlink:title=" ">
<path fill="none" stroke="#63b8ff" d="M453.79,-132.63C407.34,-123.56 346.01,-110.59 292.5,-96 224.71,-77.52 147.92,-50.9 99.85,-33.52"/>
<polygon fill="#63b8ff" stroke="#63b8ff" points="100.94,-30.19 90.34,-30.07 98.55,-36.77 100.94,-30.19"/>
</a>
</g>
</g>
<!-- Node18&#45;&gt;Node4 -->
<g id="edge29_Node000018_Node000004" class="edge">
<title>Node18&#45;&gt;Node4</title>
<g id="a_edge29_Node000018_Node000004"><a xlink:title=" ">
<path fill="none" stroke="#63b8ff" d="M480.38,-131.98C449.63,-122.4 408.41,-109.1 372.5,-96 318.36,-76.25 256.98,-50.83 217.33,-34.01"/>
<polygon fill="#63b8ff" stroke="#63b8ff" points="218.56,-30.73 207.99,-30.03 215.82,-37.17 218.56,-30.73"/>
</a>
</g>
</g>
<!-- Node18&#45;&gt;Node5 -->
<g id="edge30_Node000018_Node000005" class="edge">
<title>Node18&#45;&gt;Node5</title>
<g id="a_edge30_Node000018_Node000005"><a xlink:title=" ">
<path fill="none" stroke="#63b8ff" d="M515.97,-131.92C502.08,-114.24 476.04,-84.05 447.5,-66 424.64,-51.54 397.07,-40.63 372.26,-32.75"/>
<polygon fill="#63b8ff" stroke="#63b8ff" points="373.13,-29.35 362.54,-29.77 371.08,-36.05 373.13,-29.35"/>
</a>
</g>
</g>
<!-- Node18&#45;&gt;Node6 -->
<g id="edge31_Node000018_Node000006" class="edge">
<title>Node18&#45;&gt;Node6</title>
<g id="a_edge31_Node000018_Node000006"><a xlink:title=" ">
<path fill="none" stroke="#63b8ff" d="M599.43,-139.66C642.07,-133.37 695.57,-120.87 737.5,-96 761.53,-81.75 782.05,-56.85 794.97,-38.61"/>
<polygon fill="#63b8ff" stroke="#63b8ff" points="797.92,-40.49 800.68,-30.26 792.14,-36.54 797.92,-40.49"/>
</a>
</g>
</g>
<!-- Node18&#45;&gt;Node11 -->
<g id="edge32_Node000018_Node000011" class="edge">
<title>Node18&#45;&gt;Node11</title>
<g id="a_edge32_Node000018_Node000011"><a xlink:title=" ">
<path fill="none" stroke="#63b8ff" d="M501.04,-131.95C481.33,-121.08 454.19,-106.11 434.78,-95.4"/>
<polygon fill="#63b8ff" stroke="#63b8ff" points="436.38,-92.28 425.94,-90.52 433,-98.41 436.38,-92.28"/>
</a>
</g>
</g>
<!-- Node18&#45;&gt;Node12 -->
<g id="edge33_Node000018_Node000012" class="edge">
<title>Node18&#45;&gt;Node12</title>
<g id="a_edge33_Node000018_Node000012"><a xlink:title=" ">
<path fill="none" stroke="#63b8ff" d="M590.57,-131.93C614.71,-124.29 641.21,-112.84 661.5,-96 681.51,-79.4 695.29,-52.17 702.8,-34.16"/>
<polygon fill="#63b8ff" stroke="#63b8ff" points="706.09,-35.36 706.49,-24.78 699.57,-32.8 706.09,-35.36"/>
</a>
</g>
</g>
<!-- Node18&#45;&gt;Node13 -->
<g id="edge34_Node000018_Node000013" class="edge">
<title>Node18&#45;&gt;Node13</title>
<g id="a_edge34_Node000018_Node000013"><a xlink:title=" ">
<path fill="none" stroke="#63b8ff" d="M533.38,-131.8C537.15,-124.01 541.92,-114.16 546.23,-105.28"/>
<polygon fill="#63b8ff" stroke="#63b8ff" points="549.43,-106.69 550.64,-96.16 543.13,-103.64 549.43,-106.69"/>
</a>
</g>
</g>
</g>
</svg>
