<?xml version="1.0" encoding="UTF-8" standalone="no"?>
<!DOCTYPE svg PUBLIC "-//W3C//DTD SVG 1.1//EN"
 "http://www.w3.org/Graphics/SVG/1.1/DTD/svg11.dtd">
<!-- Generated by graphviz version 2.43.0 (0)
 -->
<!-- Title: Graphical Class Hierarchy Pages: 1 -->
<svg width="476pt" height="138pt"
 viewBox="0.00 0.00 476.00 138.00" xmlns="http://www.w3.org/2000/svg" xmlns:xlink="http://www.w3.org/1999/xlink">
<g id="graph0" class="graph" transform="scale(1 1) rotate(0) translate(4 134)">
<title>Graphical Class Hierarchy</title>
<!-- Node0 -->
<g id="Node000000" class="node">
<title>Node0</title>
<g id="a_Node000000"><a xlink:href="classEdibleGrowth.html" target="_top" xlink:title="Represents the growth characteristics and current biomasses of an edible object.">
<polygon fill="white" stroke="#666666" points="82,-74 0,-74 0,-55 82,-55 82,-74"/>
<text text-anchor="middle" x="41" y="-62" font-family="Helvetica,sans-Serif" font-size="10.00">EdibleGrowth</text>
</a>
</g>
</g>
<!-- Node1 -->
<g id="Node000001" class="node">
<title>Node1</title>
<g id="a_Node000001"><a xlink:href="classAnimalGrowth.html" target="_top" xlink:title="Manages the growth and mass dynamics of an individual animal.">
<polygon fill="white" stroke="#666666" points="240.5,-93 154.5,-93 154.5,-74 240.5,-74 240.5,-93"/>
<text text-anchor="middle" x="197.5" y="-81" font-family="Helvetica,sans-Serif" font-size="10.00">AnimalGrowth</text>
</a>
</g>
</g>
<!-- Node0&#45;&gt;Node1 -->
<g id="edge31_Node000000_Node000001" class="edge">
<title>Node0&#45;&gt;Node1</title>
<g id="a_edge31_Node000000_Node000001"><a xlink:title=" ">
<path fill="none" stroke="#63b8ff" d="M92.38,-70.7C112.42,-73.16 135.21,-75.96 154.35,-78.32"/>
<polygon fill="#63b8ff" stroke="#63b8ff" points="92.54,-67.19 82.19,-69.44 91.69,-74.14 92.54,-67.19"/>
</a>
</g>
</g>
<!-- Node4 -->
<g id="Node000004" class="node">
<title>Node4</title>
<g id="a_Node000004"><a xlink:href="classCellResourceInterfaceGrowth.html" target="_top" xlink:title="Manages growth and biomass for a resource cell.">
<polygon fill="white" stroke="#666666" points="277,-56 118,-56 118,-37 277,-37 277,-56"/>
<text text-anchor="middle" x="197.5" y="-44" font-family="Helvetica,sans-Serif" font-size="10.00">CellResourceInterfaceGrowth</text>
</a>
</g>
</g>
<!-- Node0&#45;&gt;Node4 -->
<g id="edge34_Node000000_Node000004" class="edge">
<title>Node0&#45;&gt;Node4</title>
<g id="a_edge34_Node000000_Node000004"><a xlink:title=" ">
<path fill="none" stroke="#63b8ff" d="M92.3,-58.64C100.5,-57.68 109.17,-56.67 117.86,-55.66"/>
<polygon fill="#63b8ff" stroke="#63b8ff" points="91.72,-55.18 82.19,-59.82 92.53,-62.14 91.72,-55.18"/>
</a>
</g>
</g>
<!-- Node2 -->
<g id="Node000002" class="node">
<title>Node2</title>
<g id="a_Node000002"><a xlink:href="classAnimalNonStatisticalGrowth.html" target="_top" xlink:title="Represents the growth dynamics of individual animals in a non&#45;statistical simulation.">
<polygon fill="white" stroke="#666666" points="468,-130 313,-130 313,-111 468,-111 468,-130"/>
<text text-anchor="middle" x="390.5" y="-118" font-family="Helvetica,sans-Serif" font-size="10.00">AnimalNonStatisticalGrowth</text>
</a>
</g>
</g>
<!-- Node1&#45;&gt;Node2 -->
<g id="edge32_Node000001_Node000002" class="edge">
<title>Node1&#45;&gt;Node2</title>
<g id="a_edge32_Node000001_Node000002"><a xlink:title=" ">
<path fill="none" stroke="#63b8ff" d="M250.85,-93.64C278.7,-99.04 312.75,-105.63 340.14,-110.94"/>
<polygon fill="#63b8ff" stroke="#63b8ff" points="251.37,-90.18 240.89,-91.71 250.04,-97.05 251.37,-90.18"/>
</a>
</g>
</g>
<!-- Node3 -->
<g id="Node000003" class="node">
<title>Node3</title>
<g id="a_Node000003"><a xlink:href="classAnimalStatisticalGrowth.html" target="_top" xlink:title="Represents an animal growth model based on statistical approaches.">
<polygon fill="white" stroke="#666666" points="458,-93 323,-93 323,-74 458,-74 458,-93"/>
<text text-anchor="middle" x="390.5" y="-81" font-family="Helvetica,sans-Serif" font-size="10.00">AnimalStatisticalGrowth</text>
</a>
</g>
</g>
<!-- Node1&#45;&gt;Node3 -->
<g id="edge33_Node000001_Node000003" class="edge">
<title>Node1&#45;&gt;Node3</title>
<g id="a_edge33_Node000001_Node000003"><a xlink:title=" ">
<path fill="none" stroke="#63b8ff" d="M251.11,-83.5C273.28,-83.5 299.35,-83.5 322.84,-83.5"/>
<polygon fill="#63b8ff" stroke="#63b8ff" points="250.89,-80 240.89,-83.5 250.89,-87 250.89,-80"/>
</a>
</g>
</g>
<!-- Node5 -->
<g id="Node000005" class="node">
<title>Node5</title>
<g id="a_Node000005"><a xlink:href="classBranchCellResourceGrowth.html" target="_top" xlink:title="Aggregates the growth information of resources for branch terrain cells.">
<polygon fill="white" stroke="#666666" points="465,-56 316,-56 316,-37 465,-37 465,-56"/>
<text text-anchor="middle" x="390.5" y="-44" font-family="Helvetica,sans-Serif" font-size="10.00">BranchCellResourceGrowth</text>
</a>
</g>
</g>
<!-- Node4&#45;&gt;Node5 -->
<g id="edge35_Node000004_Node000005" class="edge">
<title>Node4&#45;&gt;Node5</title>
<g id="a_edge35_Node000004_Node000005"><a xlink:title=" ">
<path fill="none" stroke="#63b8ff" d="M287.03,-46.5C296.69,-46.5 306.45,-46.5 315.9,-46.5"/>
<polygon fill="#63b8ff" stroke="#63b8ff" points="287.01,-43 277.01,-46.5 287.01,-50 287.01,-43"/>
</a>
</g>
</g>
<!-- Node6 -->
<g id="Node000006" class="node">
<title>Node6</title>
<g id="a_Node000006"><a xlink:href="classCellResourceGrowth.html" target="_top" xlink:title="Concrete growth handler for a resource in a terrain cell.">
<polygon fill="white" stroke="#666666" points="448.5,-19 332.5,-19 332.5,0 448.5,0 448.5,-19"/>
<text text-anchor="middle" x="390.5" y="-7" font-family="Helvetica,sans-Serif" font-size="10.00">CellResourceGrowth</text>
</a>
</g>
</g>
<!-- Node4&#45;&gt;Node6 -->
<g id="edge36_Node000004_Node000006" class="edge">
<title>Node4&#45;&gt;Node6</title>
<g id="a_edge36_Node000004_Node000006"><a xlink:title=" ">
<path fill="none" stroke="#63b8ff" d="M257.6,-35.05C284.07,-29.92 314.93,-23.94 340.15,-19.06"/>
<polygon fill="#63b8ff" stroke="#63b8ff" points="256.84,-31.63 247.69,-36.97 258.17,-38.51 256.84,-31.63"/>
</a>
</g>
</g>
</g>
</svg>
