<?xml version="1.0" encoding="UTF-8" standalone="no"?>
<!DOCTYPE svg PUBLIC "-//W3C//DTD SVG 1.1//EN"
 "http://www.w3.org/Graphics/SVG/1.1/DTD/svg11.dtd">
<!-- Generated by graphviz version 2.43.0 (0)
 -->
<!-- Title: Graphical Class Hierarchy Pages: 1 -->
<svg width="593pt" height="360pt"
 viewBox="0.00 0.00 593.00 360.00" xmlns="http://www.w3.org/2000/svg" xmlns:xlink="http://www.w3.org/1999/xlink">
<g id="graph0" class="graph" transform="scale(1 1) rotate(0) translate(4 356)">
<title>Graphical Class Hierarchy</title>
<!-- Node0 -->
<g id="Node000000" class="node">
<title>Node0</title>
<g id="a_Node000000"><a xlink:href="classCellElement.html" target="_top" xlink:title="Base class for any modifiable element contained within a terrain cell.">
<polygon fill="white" stroke="#666666" points="76,-222 0,-222 0,-203 76,-203 76,-222"/>
<text text-anchor="middle" x="38" y="-210" font-family="Helvetica,sans-Serif" font-size="10.00">CellElement</text>
</a>
</g>
</g>
<!-- Node1 -->
<g id="Node000001" class="node">
<title>Node1</title>
<g id="a_Node000001"><a xlink:href="classCellHabitatDomainInterface.html" target="_top" xlink:title="Represents the habitat&#45;domain information associated with a terrain cell.">
<polygon fill="white" stroke="#666666" points="265,-315 112,-315 112,-296 265,-296 265,-315"/>
<text text-anchor="middle" x="188.5" y="-303" font-family="Helvetica,sans-Serif" font-size="10.00">CellHabitatDomainInterface</text>
</a>
</g>
</g>
<!-- Node0&#45;&gt;Node1 -->
<g id="edge1_Node000000_Node000001" class="edge">
<title>Node0&#45;&gt;Node1</title>
<g id="a_edge1_Node000000_Node000001"><a xlink:title=" ">
<path fill="none" stroke="#63b8ff" d="M63.13,-227.61C93.88,-246.87 146.14,-279.6 172.03,-295.81"/>
<polygon fill="#63b8ff" stroke="#63b8ff" points="64.67,-224.44 54.33,-222.1 60.95,-230.38 64.67,-224.44"/>
</a>
</g>
</g>
<!-- Node4 -->
<g id="Node000004" class="node">
<title>Node4</title>
<g id="a_Node000004"><a xlink:href="classCellMoistureInterface.html" target="_top" xlink:title="Base interface representing the hydrological and thermal properties of a terrain cell.">
<polygon fill="white" stroke="#666666" points="249.5,-241 127.5,-241 127.5,-222 249.5,-222 249.5,-241"/>
<text text-anchor="middle" x="188.5" y="-229" font-family="Helvetica,sans-Serif" font-size="10.00">CellMoistureInterface</text>
</a>
</g>
</g>
<!-- Node0&#45;&gt;Node4 -->
<g id="edge4_Node000000_Node000004" class="edge">
<title>Node0&#45;&gt;Node4</title>
<g id="a_edge4_Node000000_Node000004"><a xlink:title=" ">
<path fill="none" stroke="#63b8ff" d="M86.22,-218.54C99.25,-220.21 113.56,-222.04 127.22,-223.79"/>
<polygon fill="#63b8ff" stroke="#63b8ff" points="86.45,-215.04 76.09,-217.25 85.56,-221.99 86.45,-215.04"/>
</a>
</g>
</g>
<!-- Node7 -->
<g id="Node000007" class="node">
<title>Node7</title>
<g id="a_Node000007"><a xlink:href="classCellObstacleInterface.html" target="_top" xlink:title="Interface for managing obstacles in a terrain cell.">
<polygon fill="white" stroke="#666666" points="249.5,-204 127.5,-204 127.5,-185 249.5,-185 249.5,-204"/>
<text text-anchor="middle" x="188.5" y="-192" font-family="Helvetica,sans-Serif" font-size="10.00">CellObstacleInterface</text>
</a>
</g>
</g>
<!-- Node0&#45;&gt;Node7 -->
<g id="edge7_Node000000_Node000007" class="edge">
<title>Node0&#45;&gt;Node7</title>
<g id="a_edge7_Node000000_Node000007"><a xlink:title=" ">
<path fill="none" stroke="#63b8ff" d="M86.22,-206.78C99.25,-205.2 113.56,-203.46 127.22,-201.81"/>
<polygon fill="#63b8ff" stroke="#63b8ff" points="85.6,-203.33 76.09,-208 86.44,-210.28 85.6,-203.33"/>
</a>
</g>
</g>
<!-- Node10 -->
<g id="Node000010" class="node">
<title>Node10</title>
<g id="a_Node000010"><a xlink:href="classCellResourceInterface.html" target="_top" xlink:title="Interface for a resource in a terrain cell.">
<polygon fill="white" stroke="#666666" points="250.5,-112 126.5,-112 126.5,-93 250.5,-93 250.5,-112"/>
<text text-anchor="middle" x="188.5" y="-100" font-family="Helvetica,sans-Serif" font-size="10.00">CellResourceInterface</text>
</a>
</g>
</g>
<!-- Node0&#45;&gt;Node10 -->
<g id="edge10_Node000000_Node000010" class="edge">
<title>Node0&#45;&gt;Node10</title>
<g id="a_edge10_Node000000_Node000010"><a xlink:title=" ">
<path fill="none" stroke="#63b8ff" d="M59.96,-196.98C91.12,-173.89 148.77,-131.19 174.51,-112.13"/>
<polygon fill="#63b8ff" stroke="#63b8ff" points="57.87,-194.17 51.92,-202.93 62.04,-199.79 57.87,-194.17"/>
</a>
</g>
</g>
<!-- Node2 -->
<g id="Node000002" class="node">
<title>Node2</title>
<g id="a_Node000002"><a xlink:href="classBranchCellHabitatDomain.html" target="_top" xlink:title="Habitat domain implementation for branch nodes in a spatial tree.">
<polygon fill="white" stroke="#666666" points="444,-352 301,-352 301,-333 444,-333 444,-352"/>
<text text-anchor="middle" x="372.5" y="-340" font-family="Helvetica,sans-Serif" font-size="10.00">BranchCellHabitatDomain</text>
</a>
</g>
</g>
<!-- Node1&#45;&gt;Node2 -->
<g id="edge2_Node000001_Node000002" class="edge">
<title>Node1&#45;&gt;Node2</title>
<g id="a_edge2_Node000001_Node000002"><a xlink:title=" ">
<path fill="none" stroke="#63b8ff" d="M246.48,-317.08C271.56,-322.18 300.66,-328.1 324.47,-332.94"/>
<polygon fill="#63b8ff" stroke="#63b8ff" points="246.87,-313.59 236.37,-315.03 245.47,-320.45 246.87,-313.59"/>
</a>
</g>
</g>
<!-- Node3 -->
<g id="Node000003" class="node">
<title>Node3</title>
<g id="a_Node000003"><a xlink:href="classCellHabitatDomain.html" target="_top" xlink:title="Concrete implementation of CellHabitatDomainInterface representing the habitat&#45;domain properties of a...">
<polygon fill="white" stroke="#666666" points="427.5,-315 317.5,-315 317.5,-296 427.5,-296 427.5,-315"/>
<text text-anchor="middle" x="372.5" y="-303" font-family="Helvetica,sans-Serif" font-size="10.00">CellHabitatDomain</text>
</a>
</g>
</g>
<!-- Node1&#45;&gt;Node3 -->
<g id="edge3_Node000001_Node000003" class="edge">
<title>Node1&#45;&gt;Node3</title>
<g id="a_edge3_Node000001_Node000003"><a xlink:title=" ">
<path fill="none" stroke="#63b8ff" d="M275.47,-305.5C289.78,-305.5 304.26,-305.5 317.48,-305.5"/>
<polygon fill="#63b8ff" stroke="#63b8ff" points="275.1,-302 265.1,-305.5 275.1,-309 275.1,-302"/>
</a>
</g>
</g>
<!-- Node5 -->
<g id="Node000005" class="node">
<title>Node5</title>
<g id="a_Node000005"><a xlink:href="classBranchCellMoisture.html" target="_top" xlink:title="Moisture implementation for branch nodes in a spatial tree.">
<polygon fill="white" stroke="#666666" points="428.5,-278 316.5,-278 316.5,-259 428.5,-259 428.5,-278"/>
<text text-anchor="middle" x="372.5" y="-266" font-family="Helvetica,sans-Serif" font-size="10.00">BranchCellMoisture</text>
</a>
</g>
</g>
<!-- Node4&#45;&gt;Node5 -->
<g id="edge5_Node000004_Node000005" class="edge">
<title>Node4&#45;&gt;Node5</title>
<g id="a_edge5_Node000004_Node000005"><a xlink:title=" ">
<path fill="none" stroke="#63b8ff" d="M246.48,-243.08C271.56,-248.18 300.66,-254.1 324.47,-258.94"/>
<polygon fill="#63b8ff" stroke="#63b8ff" points="246.87,-239.59 236.37,-241.03 245.47,-246.45 246.87,-239.59"/>
</a>
</g>
</g>
<!-- Node6 -->
<g id="Node000006" class="node">
<title>Node6</title>
<g id="a_Node000006"><a xlink:href="classCellMoisture.html" target="_top" xlink:title="Concrete moisture model for a terrain cell.">
<polygon fill="white" stroke="#666666" points="411.5,-241 333.5,-241 333.5,-222 411.5,-222 411.5,-241"/>
<text text-anchor="middle" x="372.5" y="-229" font-family="Helvetica,sans-Serif" font-size="10.00">CellMoisture</text>
</a>
</g>
</g>
<!-- Node4&#45;&gt;Node6 -->
<g id="edge6_Node000004_Node000006" class="edge">
<title>Node4&#45;&gt;Node6</title>
<g id="a_edge6_Node000004_Node000006"><a xlink:title=" ">
<path fill="none" stroke="#63b8ff" d="M259.81,-231.5C284.87,-231.5 312.14,-231.5 333.47,-231.5"/>
<polygon fill="#63b8ff" stroke="#63b8ff" points="259.6,-228 249.6,-231.5 259.6,-235 259.6,-228"/>
</a>
</g>
</g>
<!-- Node8 -->
<g id="Node000008" class="node">
<title>Node8</title>
<g id="a_Node000008"><a xlink:href="classBranchCellObstacle.html" target="_top" xlink:title="Obstacle representation for branch nodes in a spatial tree.">
<polygon fill="white" stroke="#666666" points="428.5,-204 316.5,-204 316.5,-185 428.5,-185 428.5,-204"/>
<text text-anchor="middle" x="372.5" y="-192" font-family="Helvetica,sans-Serif" font-size="10.00">BranchCellObstacle</text>
</a>
</g>
</g>
<!-- Node7&#45;&gt;Node8 -->
<g id="edge8_Node000007_Node000008" class="edge">
<title>Node7&#45;&gt;Node8</title>
<g id="a_edge8_Node000007_Node000008"><a xlink:title=" ">
<path fill="none" stroke="#63b8ff" d="M259.6,-194.5C278.42,-194.5 298.5,-194.5 316.38,-194.5"/>
<polygon fill="#63b8ff" stroke="#63b8ff" points="259.6,-191 249.6,-194.5 259.6,-198 259.6,-191"/>
</a>
</g>
</g>
<!-- Node9 -->
<g id="Node000009" class="node">
<title>Node9</title>
<g id="a_Node000009"><a xlink:href="classCellObstacle.html" target="_top" xlink:title="Concrete obstacle element for a terrain cell.">
<polygon fill="white" stroke="#666666" points="411.5,-167 333.5,-167 333.5,-148 411.5,-148 411.5,-167"/>
<text text-anchor="middle" x="372.5" y="-155" font-family="Helvetica,sans-Serif" font-size="10.00">CellObstacle</text>
</a>
</g>
</g>
<!-- Node7&#45;&gt;Node9 -->
<g id="edge9_Node000007_Node000009" class="edge">
<title>Node7&#45;&gt;Node9</title>
<g id="a_edge9_Node000007_Node000009"><a xlink:title=" ">
<path fill="none" stroke="#63b8ff" d="M246.53,-182.91C274.82,-177.15 308.21,-170.37 333.36,-165.25"/>
<polygon fill="#63b8ff" stroke="#63b8ff" points="245.47,-179.55 236.37,-184.97 246.87,-186.41 245.47,-179.55"/>
</a>
</g>
</g>
<!-- Node11 -->
<g id="Node000011" class="node">
<title>Node11</title>
<g id="a_Node000011"><a xlink:href="classBranchCellResource.html" target="_top" xlink:title="Resource representation for branch nodes in a spatial tree.">
<polygon fill="white" stroke="#666666" points="429.5,-130 315.5,-130 315.5,-111 429.5,-111 429.5,-130"/>
<text text-anchor="middle" x="372.5" y="-118" font-family="Helvetica,sans-Serif" font-size="10.00">BranchCellResource</text>
</a>
</g>
</g>
<!-- Node10&#45;&gt;Node11 -->
<g id="edge11_Node000010_Node000011" class="edge">
<title>Node10&#45;&gt;Node11</title>
<g id="a_edge11_Node000010_Node000011"><a xlink:title=" ">
<path fill="none" stroke="#63b8ff" d="M260.59,-109.53C278.8,-111.33 298.13,-113.24 315.46,-114.96"/>
<polygon fill="#63b8ff" stroke="#63b8ff" points="260.91,-106.05 250.61,-108.54 260.22,-113.01 260.91,-106.05"/>
</a>
</g>
</g>
<!-- Node12 -->
<g id="Node000012" class="node">
<title>Node12</title>
<g id="a_Node000012"><a xlink:href="classCellResource.html" target="_top" xlink:title="Concrete implementation of a resource cell.">
<polygon fill="white" stroke="#666666" points="412.5,-93 332.5,-93 332.5,-74 412.5,-74 412.5,-93"/>
<text text-anchor="middle" x="372.5" y="-81" font-family="Helvetica,sans-Serif" font-size="10.00">CellResource</text>
</a>
</g>
</g>
<!-- Node10&#45;&gt;Node12 -->
<g id="edge12_Node000010_Node000012" class="edge">
<title>Node10&#45;&gt;Node12</title>
<g id="a_edge12_Node000010_Node000012"><a xlink:title=" ">
<path fill="none" stroke="#63b8ff" d="M260.88,-95.05C285.17,-92.51 311.43,-89.77 332.26,-87.6"/>
<polygon fill="#63b8ff" stroke="#63b8ff" points="260.19,-91.6 250.61,-96.12 260.92,-98.56 260.19,-91.6"/>
</a>
</g>
</g>
<!-- Node13 -->
<g id="Node000013" class="node">
<title>Node13</title>
<g id="a_Node000013"><a xlink:href="classEdible.html" target="_top" xlink:title="Represents a generic edible entity within a terrain cell.">
<polygon fill="white" stroke="#666666" points="61.5,-75 14.5,-75 14.5,-56 61.5,-56 61.5,-75"/>
<text text-anchor="middle" x="38" y="-63" font-family="Helvetica,sans-Serif" font-size="10.00">Edible</text>
</a>
</g>
</g>
<!-- Node13&#45;&gt;Node10 -->
<g id="edge17_Node000013_Node000010" class="edge">
<title>Node13&#45;&gt;Node10</title>
<g id="a_edge17_Node000013_Node000010"><a xlink:title=" ">
<path fill="none" stroke="#63b8ff" d="M71.46,-73.59C94.32,-79.28 125.03,-86.93 149.11,-92.93"/>
<polygon fill="#63b8ff" stroke="#63b8ff" points="72.1,-70.14 61.55,-71.12 70.41,-76.93 72.1,-70.14"/>
</a>
</g>
</g>
<!-- Node14 -->
<g id="Node000014" class="node">
<title>Node14</title>
<g id="a_Node000014"><a xlink:href="classAnimal.html" target="_top" xlink:title="Abstract base class representing an individual animal.">
<polygon fill="white" stroke="#666666" points="214,-56 163,-56 163,-37 214,-37 214,-56"/>
<text text-anchor="middle" x="188.5" y="-44" font-family="Helvetica,sans-Serif" font-size="10.00">Animal</text>
</a>
</g>
</g>
<!-- Node13&#45;&gt;Node14 -->
<g id="edge13_Node000013_Node000014" class="edge">
<title>Node13&#45;&gt;Node14</title>
<g id="a_edge13_Node000013_Node000014"><a xlink:title=" ">
<path fill="none" stroke="#63b8ff" d="M71.48,-61.34C98.95,-57.83 137.73,-52.87 162.75,-49.67"/>
<polygon fill="#63b8ff" stroke="#63b8ff" points="71.03,-57.87 61.55,-62.61 71.92,-64.82 71.03,-57.87"/>
</a>
</g>
</g>
<!-- Node15 -->
<g id="Node000015" class="node">
<title>Node15</title>
<g id="a_Node000015"><a xlink:href="classAnimalNonStatistical.html" target="_top" xlink:title="Concrete subclass of Animal implementing detailed individual&#45;based behavior.">
<polygon fill="white" stroke="#666666" points="432,-56 313,-56 313,-37 432,-37 432,-56"/>
<text text-anchor="middle" x="372.5" y="-44" font-family="Helvetica,sans-Serif" font-size="10.00">AnimalNonStatistical</text>
</a>
</g>
</g>
<!-- Node14&#45;&gt;Node15 -->
<g id="edge14_Node000014_Node000015" class="edge">
<title>Node14&#45;&gt;Node15</title>
<g id="a_edge14_Node000014_Node000015"><a xlink:title=" ">
<path fill="none" stroke="#63b8ff" d="M224.17,-46.5C249.22,-46.5 283.67,-46.5 312.95,-46.5"/>
<polygon fill="#63b8ff" stroke="#63b8ff" points="224.05,-43 214.05,-46.5 224.05,-50 224.05,-43"/>
</a>
</g>
</g>
<!-- Node17 -->
<g id="Node000017" class="node">
<title>Node17</title>
<g id="a_Node000017"><a xlink:href="classAnimalStatistical.html" target="_top" xlink:title="Concrete implementation of Animal for statistical modeling.">
<polygon fill="white" stroke="#666666" points="422.5,-19 322.5,-19 322.5,0 422.5,0 422.5,-19"/>
<text text-anchor="middle" x="372.5" y="-7" font-family="Helvetica,sans-Serif" font-size="10.00">AnimalStatistical</text>
</a>
</g>
</g>
<!-- Node14&#45;&gt;Node17 -->
<g id="edge16_Node000014_Node000017" class="edge">
<title>Node14&#45;&gt;Node17</title>
<g id="a_edge16_Node000014_Node000017"><a xlink:title=" ">
<path fill="none" stroke="#63b8ff" d="M223.94,-39.5C252.42,-33.71 293.15,-25.43 324.6,-19.03"/>
<polygon fill="#63b8ff" stroke="#63b8ff" points="223.15,-36.09 214.05,-41.51 224.54,-42.95 223.15,-36.09"/>
</a>
</g>
</g>
<!-- Node16 -->
<g id="Node000016" class="node">
<title>Node16</title>
<g id="a_Node000016"><a xlink:href="classSpatialTreeAnimal.html" target="_top" xlink:title="Represents a non&#45;statistical animal located in a spatial tree terrain.">
<polygon fill="white" stroke="#666666" points="585,-56 480,-56 480,-37 585,-37 585,-56"/>
<text text-anchor="middle" x="532.5" y="-44" font-family="Helvetica,sans-Serif" font-size="10.00">SpatialTreeAnimal</text>
</a>
</g>
</g>
<!-- Node15&#45;&gt;Node16 -->
<g id="edge15_Node000015_Node000016" class="edge">
<title>Node15&#45;&gt;Node16</title>
<g id="a_edge15_Node000015_Node000016"><a xlink:title=" ">
<path fill="none" stroke="#63b8ff" d="M442.34,-46.5C454.95,-46.5 467.9,-46.5 479.89,-46.5"/>
<polygon fill="#63b8ff" stroke="#63b8ff" points="442.33,-43 432.33,-46.5 442.33,-50 442.33,-43"/>
</a>
</g>
</g>
</g>
</svg>
