<?xml version="1.0" encoding="UTF-8" standalone="no"?>
<!DOCTYPE svg PUBLIC "-//W3C//DTD SVG 1.1//EN"
 "http://www.w3.org/Graphics/SVG/1.1/DTD/svg11.dtd">
<!-- Generated by graphviz version 2.43.0 (0)
 -->
<!-- Title: /home/runner/work/Weaver/Weaver/include/App/Model/IBM/Landscape/LivingBeings/Species/Growth/SpeciesGrowth.h Pages: 1 -->
<!--zoomable 203 -->

<svg id="main" version="1.1" xmlns="http://www.w3.org/2000/svg" xmlns:xlink="http://www.w3.org/1999/xlink" xml:space="preserve" onload="init(evt)">
<style type="text/css"><![CDATA[
.node, .edge {opacity: 0.7;}
.node.selected, .edge.selected {opacity: 1;}
.edge:hover path { stroke: red; }
.edge:hover polygon { stroke: red; fill: red; }
]]></style>

<defs>
  <circle id="rim" cx="0" cy="0" r="7"/>
  <circle id="rim2" cx="0" cy="0" r="3.5"/>
  <g id="zoomPlus">
    <use xlink:href="#rim" fill="#404040"><set attributeName="fill" to="#808080" begin="zoomplus.mouseover" end="zoomplus.mouseout"/></use>
    <path d="M-4,0h8M0,-4v8" fill="none" stroke="white" stroke-width="1.5" pointer-events="none"/>
  </g>
  <g id="zoomMin">
    <use xlink:href="#rim" fill="#404040"><set attributeName="fill" to="#808080" begin="zoomminus.mouseover" end="zoomminus.mouseout"/></use>
    <path d="M-4,0h8" fill="none" stroke="white" stroke-width="1.5" pointer-events="none"/>
  </g>
  <g id="arrowUp" transform="translate(30 24)">
    <use xlink:href="#rim"/>
    <path pointer-events="none" fill="none" stroke="white" stroke-width="1.5" d="M0,-3.0v7 M-2.5,-0.5L0,-3.0L2.5,-0.5"/>
  </g>
  <g id="arrowRight" transform="rotate(90) translate(36 -43)">
    <use xlink:href="#rim"/>
    <path pointer-events="none" fill="none" stroke="white" stroke-width="1.5" d="M0,-3.0v7 M-2.5,-0.5L0,-3.0L2.5,-0.5"/>
  </g>
  <g id="arrowDown" transform="rotate(180) translate(-30 -48)">
    <use xlink:href="#rim"/>
    <path pointer-events="none" fill="none" stroke="white" stroke-width="1.5" d="M0,-3.0v7 M-2.5,-0.5L0,-3.0L2.5,-0.5"/>
  </g>
  <g id="arrowLeft" transform="rotate(270) translate(-36 17)">
    <use xlink:href="#rim"/>
    <path pointer-events="none" fill="none" stroke="white" stroke-width="1.5" d="M0,-3.0v7 M-2.5,-0.5L0,-3.0L2.5,-0.5"/>
  </g>
  <g id="resetDef">
    <use xlink:href="#rim2" fill="#404040"><set attributeName="fill" to="#808080" begin="reset.mouseover" end="reset.mouseout"/></use>
  </g>
</defs>
<script type="application/ecmascript">
var viewWidth = 1204;
var viewHeight = 203;
var sectionId = 'dynsection-0';
</script>
<script type="application/ecmascript" xlink:href="svg.min.js"/>
<svg id="graph" class="graph">
<g id="viewport">
<title>/home/runner/work/Weaver/Weaver/include/App/Model/IBM/Landscape/LivingBeings/Species/Growth/SpeciesGrowth.h</title>
<!-- Node1 -->
<g id="Node000001" class="node">
<title>Node1</title>
<g id="a_Node000001"><a xlink:title="Defines the SpeciesGrowth class representing the growth characteristics of a species.">
<polygon fill="#999999" stroke="#666666" points="456.5,-195 276.5,-195 276.5,-143 456.5,-143 456.5,-195"/>
<text text-anchor="start" x="284.5" y="-183" font-family="Helvetica,sans-Serif" font-size="10.00">/home/runner/work/Weaver</text>
<text text-anchor="start" x="284.5" y="-172" font-family="Helvetica,sans-Serif" font-size="10.00">/Weaver/include/App/Model</text>
<text text-anchor="start" x="284.5" y="-161" font-family="Helvetica,sans-Serif" font-size="10.00">/IBM/Landscape/LivingBeings</text>
<text text-anchor="middle" x="366.5" y="-150" font-family="Helvetica,sans-Serif" font-size="10.00">/Species/Growth/SpeciesGrowth.h</text>
</a>
</g>
</g>
<!-- Node2 -->
<g id="Node000002" class="node">
<title>Node2</title>
<g id="a_Node000002"><a xlink:title=" ">
<polygon fill="#e0e0e0" stroke="#999999" points="47,-24.5 0,-24.5 0,-5.5 47,-5.5 47,-24.5"/>
<text text-anchor="middle" x="23.5" y="-12.5" font-family="Helvetica,sans-Serif" font-size="10.00">vector</text>
</a>
</g>
</g>
<!-- Node1&#45;&gt;Node2 -->
<g id="edge1_Node000001_Node000002" class="edge">
<title>Node1&#45;&gt;Node2</title>
<g id="a_edge1_Node000001_Node000002"><a xlink:title=" ">
<path fill="none" stroke="#63b8ff" d="M276.2,-162.08C192.11,-154.67 74.99,-138.86 42.5,-107 23.34,-88.22 21.05,-55.46 21.8,-34.8"/>
<polygon fill="#63b8ff" stroke="#63b8ff" points="25.3,-34.93 22.44,-24.73 18.32,-34.48 25.3,-34.93"/>
</a>
</g>
</g>
<!-- Node3 -->
<g id="Node000003" class="node">
<title>Node3</title>
<g id="a_Node000003"><a xlink:title=" ">
<polygon fill="#e0e0e0" stroke="#999999" points="172,-30 65,-30 65,0 172,0 172,-30"/>
<text text-anchor="start" x="73" y="-18" font-family="Helvetica,sans-Serif" font-size="10.00">boost/serialization</text>
<text text-anchor="middle" x="118.5" y="-7" font-family="Helvetica,sans-Serif" font-size="10.00">/vector.hpp</text>
</a>
</g>
</g>
<!-- Node1&#45;&gt;Node3 -->
<g id="edge2_Node000001_Node000003" class="edge">
<title>Node1&#45;&gt;Node3</title>
<g id="a_edge2_Node000001_Node000003"><a xlink:title=" ">
<path fill="none" stroke="#63b8ff" d="M332.72,-142.97C303.06,-121.46 258.38,-90.17 217.5,-66 198.45,-54.73 176.54,-43.5 158.19,-34.55"/>
<polygon fill="#63b8ff" stroke="#63b8ff" points="159.47,-31.28 148.95,-30.08 156.43,-37.59 159.47,-31.28"/>
</a>
</g>
</g>
<!-- Node4 -->
<g id="Node000004" class="node">
<title>Node4</title>
<g id="a_Node000004"><a xlink:title=" ">
<polygon fill="#e0e0e0" stroke="#999999" points="628,-30 523,-30 523,0 628,0 628,-30"/>
<text text-anchor="start" x="531" y="-18" font-family="Helvetica,sans-Serif" font-size="10.00">boost/archive/text</text>
<text text-anchor="middle" x="575.5" y="-7" font-family="Helvetica,sans-Serif" font-size="10.00">_iarchive.hpp</text>
</a>
</g>
</g>
<!-- Node1&#45;&gt;Node4 -->
<g id="edge3_Node000001_Node000004" class="edge">
<title>Node1&#45;&gt;Node4</title>
<g id="a_edge3_Node000001_Node000004"><a xlink:title=" ">
<path fill="none" stroke="#63b8ff" d="M456.54,-156C489.69,-147.37 525.07,-132.52 549.5,-107 566.65,-89.09 572.61,-60.68 574.62,-40.37"/>
<polygon fill="#63b8ff" stroke="#63b8ff" points="578.12,-40.54 575.36,-30.31 571.14,-40.03 578.12,-40.54"/>
</a>
</g>
</g>
<!-- Node5 -->
<g id="Node000005" class="node">
<title>Node5</title>
<g id="a_Node000005"><a xlink:title=" ">
<polygon fill="#e0e0e0" stroke="#999999" points="370,-30 265,-30 265,0 370,0 370,-30"/>
<text text-anchor="start" x="273" y="-18" font-family="Helvetica,sans-Serif" font-size="10.00">boost/archive/text</text>
<text text-anchor="middle" x="317.5" y="-7" font-family="Helvetica,sans-Serif" font-size="10.00">_oarchive.hpp</text>
</a>
</g>
</g>
<!-- Node1&#45;&gt;Node5 -->
<g id="edge4_Node000001_Node000005" class="edge">
<title>Node1&#45;&gt;Node5</title>
<g id="a_edge4_Node000001_Node000005"><a xlink:title=" ">
<path fill="none" stroke="#63b8ff" d="M358.41,-142.9C349.2,-114.34 334.27,-68.03 325.22,-39.95"/>
<polygon fill="#63b8ff" stroke="#63b8ff" points="328.46,-38.6 322.06,-30.16 321.8,-40.75 328.46,-38.6"/>
</a>
</g>
</g>
<!-- Node6 -->
<g id="Node000006" class="node">
<title>Node6</title>
<g id="a_Node000006"><a xlink:title=" ">
<polygon fill="#e0e0e0" stroke="#999999" points="504.5,-30 388.5,-30 388.5,0 504.5,0 504.5,-30"/>
<text text-anchor="start" x="396.5" y="-18" font-family="Helvetica,sans-Serif" font-size="10.00">boost/archive/binary</text>
<text text-anchor="middle" x="446.5" y="-7" font-family="Helvetica,sans-Serif" font-size="10.00">_iarchive.hpp</text>
</a>
</g>
</g>
<!-- Node1&#45;&gt;Node6 -->
<g id="edge5_Node000001_Node000006" class="edge">
<title>Node1&#45;&gt;Node6</title>
<g id="a_edge5_Node000001_Node000006"><a xlink:title=" ">
<path fill="none" stroke="#63b8ff" d="M366.46,-142.84C367.48,-121.11 371.56,-89.57 385.5,-66 392.43,-54.28 403.18,-44.12 413.73,-36.08"/>
<polygon fill="#63b8ff" stroke="#63b8ff" points="415.99,-38.77 422.08,-30.1 411.91,-33.08 415.99,-38.77"/>
</a>
</g>
</g>
<!-- Node7 -->
<g id="Node000007" class="node">
<title>Node7</title>
<g id="a_Node000007"><a xlink:title=" ">
<polygon fill="#e0e0e0" stroke="#999999" points="762.5,-30 646.5,-30 646.5,0 762.5,0 762.5,-30"/>
<text text-anchor="start" x="654.5" y="-18" font-family="Helvetica,sans-Serif" font-size="10.00">boost/archive/binary</text>
<text text-anchor="middle" x="704.5" y="-7" font-family="Helvetica,sans-Serif" font-size="10.00">_oarchive.hpp</text>
</a>
</g>
</g>
<!-- Node1&#45;&gt;Node7 -->
<g id="edge6_Node000001_Node000007" class="edge">
<title>Node1&#45;&gt;Node7</title>
<g id="a_edge6_Node000001_Node000007"><a xlink:title=" ">
<path fill="none" stroke="#63b8ff" d="M456.7,-148.15C493.88,-138.26 536.76,-124.61 573.5,-107 613.44,-87.86 654.6,-57.12 679.87,-36.75"/>
<polygon fill="#63b8ff" stroke="#63b8ff" points="682.28,-39.3 687.81,-30.26 677.85,-33.88 682.28,-39.3"/>
</a>
</g>
</g>
<!-- Node8 -->
<g id="Node000008" class="node">
<title>Node8</title>
<g id="a_Node000008"><a xlink:href="Instar_8h.html" target="_top" xlink:title="Defines the Instar class representing developmental stages of an animal.">
<polygon fill="white" stroke="#666666" points="540,-107 395,-107 395,-66 540,-66 540,-107"/>
<text text-anchor="start" x="403" y="-95" font-family="Helvetica,sans-Serif" font-size="10.00">App/Model/IBM/Landscape</text>
<text text-anchor="start" x="403" y="-84" font-family="Helvetica,sans-Serif" font-size="10.00">/LivingBeings/Species</text>
<text text-anchor="middle" x="467.5" y="-73" font-family="Helvetica,sans-Serif" font-size="10.00">/Growth/Instar.h</text>
</a>
</g>
</g>
<!-- Node1&#45;&gt;Node8 -->
<g id="edge7_Node000001_Node000008" class="edge">
<title>Node1&#45;&gt;Node8</title>
<g id="a_edge7_Node000001_Node000008"><a xlink:title=" ">
<path fill="none" stroke="#63b8ff" d="M397.9,-142.97C409.67,-133.6 423.05,-122.93 434.92,-113.47"/>
<polygon fill="#63b8ff" stroke="#63b8ff" points="437.21,-116.12 442.85,-107.15 432.85,-110.64 437.21,-116.12"/>
</a>
</g>
</g>
<!-- Node11 -->
<g id="Node000011" class="node">
<title>Node11</title>
<g id="a_Node000011"><a xlink:href="CustomIndexedVector_8h.html" target="_top" xlink:title="Template class providing a vector indexed by a custom type with bounds checking and Boost....">
<polygon fill="white" stroke="#666666" points="209,-96 52,-96 52,-77 209,-77 209,-96"/>
<text text-anchor="middle" x="130.5" y="-84" font-family="Helvetica,sans-Serif" font-size="10.00">Misc/CustomIndexedVector.h</text>
</a>
</g>
</g>
<!-- Node1&#45;&gt;Node11 -->
<g id="edge14_Node000001_Node000011" class="edge">
<title>Node1&#45;&gt;Node11</title>
<g id="a_edge14_Node000001_Node000011"><a xlink:title=" ">
<path fill="none" stroke="#63b8ff" d="M293.12,-142.97C250.57,-128.46 198.94,-110.85 165.44,-99.42"/>
<polygon fill="#63b8ff" stroke="#63b8ff" points="166.25,-96 155.65,-96.08 163.99,-102.62 166.25,-96"/>
</a>
</g>
</g>
<!-- Node12 -->
<g id="Node000012" class="node">
<title>Node12</title>
<g id="a_Node000012"><a xlink:href="PreciseDouble_8h.html" target="_top" xlink:title="Defines the PreciseDouble class for safe and precise double&#45;precision arithmetic.">
<polygon fill="white" stroke="#666666" points="864,-101.5 741,-101.5 741,-71.5 864,-71.5 864,-101.5"/>
<text text-anchor="start" x="749" y="-89.5" font-family="Helvetica,sans-Serif" font-size="10.00">App/Model/IBM/Maths</text>
<text text-anchor="middle" x="802.5" y="-78.5" font-family="Helvetica,sans-Serif" font-size="10.00">/PreciseDouble.h</text>
</a>
</g>
</g>
<!-- Node1&#45;&gt;Node12 -->
<g id="edge17_Node000001_Node000012" class="edge">
<title>Node1&#45;&gt;Node12</title>
<g id="a_edge17_Node000001_Node000012"><a xlink:title=" ">
<path fill="none" stroke="#63b8ff" d="M456.58,-151.37C537.95,-136.34 656.13,-114.52 731.14,-100.68"/>
<polygon fill="#63b8ff" stroke="#63b8ff" points="731.77,-104.12 740.97,-98.86 730.5,-97.23 731.77,-104.12"/>
</a>
</g>
</g>
<!-- Node8&#45;&gt;Node4 -->
<g id="edge10_Node000008_Node000004" class="edge">
<title>Node8&#45;&gt;Node4</title>
<g id="a_edge10_Node000008_Node000004"><a xlink:title=" ">
<path fill="none" stroke="#63b8ff" d="M497.87,-65.96C512.54,-56.51 530.12,-45.2 544.83,-35.74"/>
<polygon fill="#63b8ff" stroke="#63b8ff" points="547.05,-38.47 553.57,-30.11 543.27,-32.58 547.05,-38.47"/>
</a>
</g>
</g>
<!-- Node8&#45;&gt;Node5 -->
<g id="edge11_Node000008_Node000005" class="edge">
<title>Node8&#45;&gt;Node5</title>
<g id="a_edge11_Node000008_Node000005"><a xlink:title=" ">
<path fill="none" stroke="#63b8ff" d="M425.32,-65.96C403.98,-56.07 378.22,-44.13 357.23,-34.41"/>
<polygon fill="#63b8ff" stroke="#63b8ff" points="358.5,-31.14 347.96,-30.11 355.56,-37.49 358.5,-31.14"/>
</a>
</g>
</g>
<!-- Node8&#45;&gt;Node6 -->
<g id="edge12_Node000008_Node000006" class="edge">
<title>Node8&#45;&gt;Node6</title>
<g id="a_edge12_Node000008_Node000006"><a xlink:title=" ">
<path fill="none" stroke="#63b8ff" d="M461.54,-65.77C459.09,-57.67 456.23,-48.22 453.67,-39.74"/>
<polygon fill="#63b8ff" stroke="#63b8ff" points="456.98,-38.6 450.74,-30.04 450.28,-40.62 456.98,-38.6"/>
</a>
</g>
</g>
<!-- Node8&#45;&gt;Node7 -->
<g id="edge13_Node000008_Node000007" class="edge">
<title>Node8&#45;&gt;Node7</title>
<g id="a_edge13_Node000008_Node000007"><a xlink:title=" ">
<path fill="none" stroke="#63b8ff" d="M534.15,-65.96C569.66,-55.54 612.92,-42.86 646.95,-32.88"/>
<polygon fill="#63b8ff" stroke="#63b8ff" points="648.13,-36.18 656.75,-30 646.16,-29.46 648.13,-36.18"/>
</a>
</g>
</g>
<!-- Node9 -->
<g id="Node000009" class="node">
<title>Node9</title>
<g id="a_Node000009"><a xlink:title=" ">
<polygon fill="#e0e0e0" stroke="#999999" points="247,-24.5 190,-24.5 190,-5.5 247,-5.5 247,-24.5"/>
<text text-anchor="middle" x="218.5" y="-12.5" font-family="Helvetica,sans-Serif" font-size="10.00">ostream</text>
</a>
</g>
</g>
<!-- Node8&#45;&gt;Node9 -->
<g id="edge8_Node000008_Node000009" class="edge">
<title>Node8&#45;&gt;Node9</title>
<g id="a_edge8_Node000008_Node000009"><a xlink:title=" ">
<path fill="none" stroke="#63b8ff" d="M394.84,-68.49C353.65,-58.35 301.35,-44.63 255.5,-30 253.59,-29.39 251.63,-28.74 249.66,-28.06"/>
<polygon fill="#63b8ff" stroke="#63b8ff" points="250.48,-24.63 239.89,-24.53 248.11,-31.22 250.48,-24.63"/>
</a>
</g>
</g>
<!-- Node10 -->
<g id="Node000010" class="node">
<title>Node10</title>
<g id="a_Node000010"><a xlink:title=" ">
<polygon fill="#e0e0e0" stroke="#999999" points="824.5,-24.5 780.5,-24.5 780.5,-5.5 824.5,-5.5 824.5,-24.5"/>
<text text-anchor="middle" x="802.5" y="-12.5" font-family="Helvetica,sans-Serif" font-size="10.00">string</text>
</a>
</g>
</g>
<!-- Node8&#45;&gt;Node10 -->
<g id="edge9_Node000008_Node000010" class="edge">
<title>Node8&#45;&gt;Node10</title>
<g id="a_edge9_Node000008_Node000010"><a xlink:title=" ">
<path fill="none" stroke="#63b8ff" d="M540.25,-77.28C602.6,-69.05 694.29,-54.09 771.5,-30 772.94,-29.55 774.41,-29.05 775.88,-28.51"/>
<polygon fill="#63b8ff" stroke="#63b8ff" points="777.48,-31.64 785.41,-24.61 774.83,-25.16 777.48,-31.64"/>
</a>
</g>
</g>
<!-- Node11&#45;&gt;Node2 -->
<g id="edge15_Node000011_Node000002" class="edge">
<title>Node11&#45;&gt;Node2</title>
<g id="a_edge15_Node000011_Node000002"><a xlink:title=" ">
<path fill="none" stroke="#63b8ff" d="M117.38,-76.98C99.41,-65.31 66.91,-44.2 45.27,-30.14"/>
<polygon fill="#63b8ff" stroke="#63b8ff" points="47.02,-27.1 36.73,-24.59 43.21,-32.97 47.02,-27.1"/>
</a>
</g>
</g>
<!-- Node11&#45;&gt;Node3 -->
<g id="edge16_Node000011_Node000003" class="edge">
<title>Node11&#45;&gt;Node3</title>
<g id="a_edge16_Node000011_Node000003"><a xlink:title=" ">
<path fill="none" stroke="#63b8ff" d="M129.03,-76.98C127.45,-67.86 124.89,-52.98 122.68,-40.2"/>
<polygon fill="#63b8ff" stroke="#63b8ff" points="126.09,-39.4 120.94,-30.14 119.19,-40.59 126.09,-39.4"/>
</a>
</g>
</g>
<!-- Node12&#45;&gt;Node4 -->
<g id="edge18_Node000012_Node000004" class="edge">
<title>Node12&#45;&gt;Node4</title>
<g id="a_edge18_Node000012_Node000004"><a xlink:title=" ">
<path fill="none" stroke="#63b8ff" d="M756.56,-71.44C720.41,-60.37 669.88,-44.9 631.38,-33.11"/>
<polygon fill="#63b8ff" stroke="#63b8ff" points="631.96,-29.62 621.37,-30.04 629.91,-36.32 631.96,-29.62"/>
</a>
</g>
</g>
<!-- Node12&#45;&gt;Node5 -->
<g id="edge19_Node000012_Node000005" class="edge">
<title>Node12&#45;&gt;Node5</title>
<g id="a_edge19_Node000012_Node000005"><a xlink:title=" ">
<path fill="none" stroke="#63b8ff" d="M740.93,-79.21C660.37,-70.58 514.63,-53.62 380.26,-30.03"/>
<polygon fill="#63b8ff" stroke="#63b8ff" points="380.66,-26.54 370.2,-28.24 379.43,-33.44 380.66,-26.54"/>
</a>
</g>
</g>
<!-- Node12&#45;&gt;Node6 -->
<g id="edge20_Node000012_Node000006" class="edge">
<title>Node12&#45;&gt;Node6</title>
<g id="a_edge20_Node000012_Node000006"><a xlink:title=" ">
<path fill="none" stroke="#63b8ff" d="M740.94,-73.87C684.82,-63.22 599.34,-46.85 514.77,-30.04"/>
<polygon fill="#63b8ff" stroke="#63b8ff" points="515.22,-26.56 504.73,-28.04 513.85,-33.42 515.22,-26.56"/>
</a>
</g>
</g>
<!-- Node12&#45;&gt;Node7 -->
<g id="edge21_Node000012_Node000007" class="edge">
<title>Node12&#45;&gt;Node7</title>
<g id="a_edge21_Node000012_Node000007"><a xlink:title=" ">
<path fill="none" stroke="#63b8ff" d="M782.67,-71.44C768.32,-61.26 748.73,-47.37 732.75,-36.04"/>
<polygon fill="#63b8ff" stroke="#63b8ff" points="734.48,-32.97 724.3,-30.04 730.43,-38.68 734.48,-32.97"/>
</a>
</g>
</g>
<!-- Node12&#45;&gt;Node10 -->
<g id="edge22_Node000012_Node000010" class="edge">
<title>Node12&#45;&gt;Node10</title>
<g id="a_edge22_Node000012_Node000010"><a xlink:title=" ">
<path fill="none" stroke="#63b8ff" d="M802.5,-71.44C802.5,-60.96 802.5,-46.55 802.5,-35.05"/>
<polygon fill="#63b8ff" stroke="#63b8ff" points="806,-34.77 802.5,-24.77 799,-34.77 806,-34.77"/>
</a>
</g>
</g>
<!-- Node13 -->
<g id="Node000013" class="node">
<title>Node13</title>
<g id="a_Node000013"><a xlink:title=" ">
<polygon fill="#e0e0e0" stroke="#999999" points="973,-24.5 926,-24.5 926,-5.5 973,-5.5 973,-24.5"/>
<text text-anchor="middle" x="949.5" y="-12.5" font-family="Helvetica,sans-Serif" font-size="10.00">cmath</text>
</a>
</g>
</g>
<!-- Node12&#45;&gt;Node13 -->
<g id="edge23_Node000012_Node000013" class="edge">
<title>Node12&#45;&gt;Node13</title>
<g id="a_edge23_Node000012_Node000013"><a xlink:title=" ">
<path fill="none" stroke="#63b8ff" d="M832.25,-71.44C858.58,-58.99 896.7,-40.96 922.25,-28.88"/>
<polygon fill="#63b8ff" stroke="#63b8ff" points="923.83,-32.01 931.38,-24.57 920.84,-25.68 923.83,-32.01"/>
</a>
</g>
</g>
<!-- Node14 -->
<g id="Node000014" class="node">
<title>Node14</title>
<g id="a_Node000014"><a xlink:title=" ">
<polygon fill="#e0e0e0" stroke="#999999" points="1055.5,-24.5 991.5,-24.5 991.5,-5.5 1055.5,-5.5 1055.5,-24.5"/>
<text text-anchor="middle" x="1023.5" y="-12.5" font-family="Helvetica,sans-Serif" font-size="10.00">algorithm</text>
</a>
</g>
</g>
<!-- Node12&#45;&gt;Node14 -->
<g id="edge24_Node000012_Node000014" class="edge">
<title>Node12&#45;&gt;Node14</title>
<g id="a_edge24_Node000012_Node000014"><a xlink:title=" ">
<path fill="none" stroke="#63b8ff" d="M849.62,-71.39C886,-60.4 937.56,-44.6 982.5,-30 984.65,-29.3 986.86,-28.57 989.09,-27.83"/>
<polygon fill="#63b8ff" stroke="#63b8ff" points="990.46,-31.06 998.82,-24.56 988.23,-24.43 990.46,-31.06"/>
</a>
</g>
</g>
<!-- Node15 -->
<g id="Node000015" class="node">
<title>Node15</title>
<g id="a_Node000015"><a xlink:title=" ">
<polygon fill="#e0e0e0" stroke="#999999" points="1133.5,-24.5 1073.5,-24.5 1073.5,-5.5 1133.5,-5.5 1133.5,-24.5"/>
<text text-anchor="middle" x="1103.5" y="-12.5" font-family="Helvetica,sans-Serif" font-size="10.00">iostream</text>
</a>
</g>
</g>
<!-- Node12&#45;&gt;Node15 -->
<g id="edge25_Node000012_Node000015" class="edge">
<title>Node12&#45;&gt;Node15</title>
<g id="a_edge25_Node000012_Node000015"><a xlink:title=" ">
<path fill="none" stroke="#63b8ff" d="M864.22,-74.88C917.68,-65.09 996.85,-49.21 1064.5,-30 1066.92,-29.31 1069.41,-28.55 1071.9,-27.75"/>
<polygon fill="#63b8ff" stroke="#63b8ff" points="1073.05,-31.05 1081.4,-24.52 1070.8,-24.43 1073.05,-31.05"/>
</a>
</g>
</g>
<!-- Node16 -->
<g id="Node000016" class="node">
<title>Node16</title>
<g id="a_Node000016"><a xlink:title=" ">
<polygon fill="#e0e0e0" stroke="#999999" points="1195.5,-24.5 1151.5,-24.5 1151.5,-5.5 1195.5,-5.5 1195.5,-24.5"/>
<text text-anchor="middle" x="1173.5" y="-12.5" font-family="Helvetica,sans-Serif" font-size="10.00">limits</text>
</a>
</g>
</g>
<!-- Node12&#45;&gt;Node16 -->
<g id="edge26_Node000012_Node000016" class="edge">
<title>Node12&#45;&gt;Node16</title>
<g id="a_edge26_Node000012_Node000016"><a xlink:title=" ">
<path fill="none" stroke="#63b8ff" d="M864.09,-80.35C933.05,-73.45 1047.59,-58.63 1142.5,-30 1144.13,-29.51 1145.79,-28.95 1147.45,-28.34"/>
<polygon fill="#63b8ff" stroke="#63b8ff" points="1148.83,-31.56 1156.75,-24.53 1146.17,-25.08 1148.83,-31.56"/>
</a>
</g>
</g>
<!-- Node17 -->
<g id="Node000017" class="node">
<title>Node17</title>
<g id="a_Node000017"><a xlink:title=" ">
<polygon fill="#e0e0e0" stroke="#999999" points="908,-24.5 843,-24.5 843,-5.5 908,-5.5 908,-24.5"/>
<text text-anchor="middle" x="875.5" y="-12.5" font-family="Helvetica,sans-Serif" font-size="10.00">functional</text>
</a>
</g>
</g>
<!-- Node12&#45;&gt;Node17 -->
<g id="edge27_Node000012_Node000017" class="edge">
<title>Node12&#45;&gt;Node17</title>
<g id="a_edge27_Node000012_Node000017"><a xlink:title=" ">
<path fill="none" stroke="#63b8ff" d="M817.27,-71.44C829.3,-59.98 846.28,-43.82 858.8,-31.9"/>
<polygon fill="#63b8ff" stroke="#63b8ff" points="861.46,-34.2 866.29,-24.77 856.64,-29.13 861.46,-34.2"/>
</a>
</g>
</g>
</g>
</svg>

<g id="navigator" transform="translate(0 0)" fill="#404254">
  <rect fill="#f2f5e9" fill-opacity="0.5" stroke="#606060" stroke-width=".5" x="0" y="0" width="60" height="60"/>
  <use id="zoomplus" xlink:href="#zoomPlus" x="17" y="9" onmousedown="handleZoom(evt,'in')"/>
  <use id="zoomminus" xlink:href="#zoomMin" x="42" y="9" onmousedown="handleZoom(evt,'out')"/>
  <use id="reset" xlink:href="#resetDef" x="30" y="36" onmousedown="handleReset()"/>
   <use id="arrowup" xlink:href="#arrowUp" x="0" y="0" onmousedown="handlePan(0,-1)"/>
  <use id="arrowright" xlink:href="#arrowRight" x="0" y="0" onmousedown="handlePan(1,0)"/>
  <use id="arrowdown" xlink:href="#arrowDown" x="0" y="0" onmousedown="handlePan(0,1)"/>
  <use id="arrowleft" xlink:href="#arrowLeft" x="0" y="0" onmousedown="handlePan(-1,0)"/>
</g>
<svg viewBox="0 0 15 15" width="100%" height="30px" preserveAspectRatio="xMaxYMin meet">
 <g id="arrow_out" transform="scale(0.3 0.3)">
  <a xlink:href="SpeciesGrowth_8h__incl_org.svg" target="_base">
   <rect id="button" ry="5" rx="5" y="6" x="6" height="38" width="38"
        fill="#f2f5e9" fill-opacity="0.5" stroke="#606060" stroke-width="1.0"/>
   <path id="arrow"
     d="M 11.500037,31.436501 C 11.940474,20.09759 22.043105,11.32322 32.158766,21.979434 L 37.068811,17.246167 C 37.068811,17.246167 37.088388,32 37.088388,32 L 22.160133,31.978069 C 22.160133,31.978069 26.997745,27.140456 26.997745,27.140456 C 18.528582,18.264221 13.291696,25.230495 11.500037,31.436501 z"
     style="fill:#404040;"/>
  </a>
 </g>
</svg>

<style type='text/css'>
<![CDATA[
[data-mouse-over-selected='false'] { opacity: 0.7; }
[data-mouse-over-selected='true']  { opacity: 1.0; }
]]>
</style>
<script type="application/ecmascript"><![CDATA[
document.addEventListener('DOMContentLoaded', (event) => {
  highlightEdges();
  highlightAdjacentNodes();
});
]]></script>
</svg>
