<?xml version="1.0" encoding="UTF-8" standalone="no"?>
<!DOCTYPE svg PUBLIC "-//W3C//DTD SVG 1.1//EN"
 "http://www.w3.org/Graphics/SVG/1.1/DTD/svg11.dtd">
<!-- Generated by graphviz version 2.43.0 (0)
 -->
<!-- Title: /home/runner/work/Weaver/Weaver/include/App/Model/IBM/Landscape/LivingBeings/Animals/Species/AnimalSpeciesID.h Pages: 1 -->
<svg width="1137pt" height="247pt"
 viewBox="0.00 0.00 1136.50 247.00" xmlns="http://www.w3.org/2000/svg" xmlns:xlink="http://www.w3.org/1999/xlink">
<g id="graph0" class="graph" transform="scale(1 1) rotate(0) translate(4 243)">
<title>/home/runner/work/Weaver/Weaver/include/App/Model/IBM/Landscape/LivingBeings/Animals/Species/AnimalSpeciesID.h</title>
<!-- Node1 -->
<g id="Node000001" class="node">
<title>Node1</title>
<g id="a_Node000001"><a xlink:title="Defines the AnimalSpeciesID class for uniquely identifying animal species.">
<polygon fill="#999999" stroke="#666666" points="540.5,-239 346.5,-239 346.5,-187 540.5,-187 540.5,-239"/>
<text text-anchor="start" x="354.5" y="-227" font-family="Helvetica,sans-Serif" font-size="10.00">/home/runner/work/Weaver</text>
<text text-anchor="start" x="354.5" y="-216" font-family="Helvetica,sans-Serif" font-size="10.00">/Weaver/include/App/Model</text>
<text text-anchor="start" x="354.5" y="-205" font-family="Helvetica,sans-Serif" font-size="10.00">/IBM/Landscape/LivingBeings</text>
<text text-anchor="middle" x="443.5" y="-194" font-family="Helvetica,sans-Serif" font-size="10.00">/Animals/Species/AnimalSpeciesID.h</text>
</a>
</g>
</g>
<!-- Node2 -->
<g id="Node000002" class="node">
<title>Node2</title>
<g id="a_Node000002"><a xlink:title=" ">
<polygon fill="#e0e0e0" stroke="#999999" points="303,-30 198,-30 198,0 303,0 303,-30"/>
<text text-anchor="start" x="206" y="-18" font-family="Helvetica,sans-Serif" font-size="10.00">boost/archive/text</text>
<text text-anchor="middle" x="250.5" y="-7" font-family="Helvetica,sans-Serif" font-size="10.00">_iarchive.hpp</text>
</a>
</g>
</g>
<!-- Node1&#45;&gt;Node2 -->
<g id="edge1_Node000001_Node000002" class="edge">
<title>Node1&#45;&gt;Node2</title>
<g id="a_edge1_Node000001_Node000002"><a xlink:title=" ">
<path fill="none" stroke="#63b8ff" d="M418.66,-186.78C380.26,-147.78 307.18,-73.56 271.35,-37.18"/>
<polygon fill="#63b8ff" stroke="#63b8ff" points="273.81,-34.68 264.3,-30.01 268.82,-39.6 273.81,-34.68"/>
</a>
</g>
</g>
<!-- Node3 -->
<g id="Node000003" class="node">
<title>Node3</title>
<g id="a_Node000003"><a xlink:title=" ">
<polygon fill="#e0e0e0" stroke="#999999" points="426,-30 321,-30 321,0 426,0 426,-30"/>
<text text-anchor="start" x="329" y="-18" font-family="Helvetica,sans-Serif" font-size="10.00">boost/archive/text</text>
<text text-anchor="middle" x="373.5" y="-7" font-family="Helvetica,sans-Serif" font-size="10.00">_oarchive.hpp</text>
</a>
</g>
</g>
<!-- Node1&#45;&gt;Node3 -->
<g id="edge2_Node000001_Node000003" class="edge">
<title>Node1&#45;&gt;Node3</title>
<g id="a_edge2_Node000001_Node000003"><a xlink:title=" ">
<path fill="none" stroke="#63b8ff" d="M434.49,-186.78C420.86,-148.6 395.16,-76.65 381.9,-39.51"/>
<polygon fill="#63b8ff" stroke="#63b8ff" points="385.16,-38.25 378.51,-30.01 378.57,-40.61 385.16,-38.25"/>
</a>
</g>
</g>
<!-- Node4 -->
<g id="Node000004" class="node">
<title>Node4</title>
<g id="a_Node000004"><a xlink:title=" ">
<polygon fill="#e0e0e0" stroke="#999999" points="560.5,-30 444.5,-30 444.5,0 560.5,0 560.5,-30"/>
<text text-anchor="start" x="452.5" y="-18" font-family="Helvetica,sans-Serif" font-size="10.00">boost/archive/binary</text>
<text text-anchor="middle" x="502.5" y="-7" font-family="Helvetica,sans-Serif" font-size="10.00">_iarchive.hpp</text>
</a>
</g>
</g>
<!-- Node1&#45;&gt;Node4 -->
<g id="edge3_Node000001_Node000004" class="edge">
<title>Node1&#45;&gt;Node4</title>
<g id="a_edge3_Node000001_Node000004"><a xlink:title=" ">
<path fill="none" stroke="#63b8ff" d="M442.73,-186.91C442.71,-156.95 445.55,-105.87 462.5,-66 466.81,-55.87 473.76,-46.1 480.68,-37.92"/>
<polygon fill="#63b8ff" stroke="#63b8ff" points="483.42,-40.11 487.48,-30.32 478.2,-35.44 483.42,-40.11"/>
</a>
</g>
</g>
<!-- Node5 -->
<g id="Node000005" class="node">
<title>Node5</title>
<g id="a_Node000005"><a xlink:title=" ">
<polygon fill="#e0e0e0" stroke="#999999" points="694.5,-30 578.5,-30 578.5,0 694.5,0 694.5,-30"/>
<text text-anchor="start" x="586.5" y="-18" font-family="Helvetica,sans-Serif" font-size="10.00">boost/archive/binary</text>
<text text-anchor="middle" x="636.5" y="-7" font-family="Helvetica,sans-Serif" font-size="10.00">_oarchive.hpp</text>
</a>
</g>
</g>
<!-- Node1&#45;&gt;Node5 -->
<g id="edge4_Node000001_Node000005" class="edge">
<title>Node1&#45;&gt;Node5</title>
<g id="a_edge4_Node000001_Node000005"><a xlink:title=" ">
<path fill="none" stroke="#63b8ff" d="M474.25,-186.83C501.23,-164.17 540.97,-129.4 572.5,-96 589.81,-77.67 607.57,-55.11 619.98,-38.62"/>
<polygon fill="#63b8ff" stroke="#63b8ff" points="623.12,-40.27 626.28,-30.16 617.5,-36.09 623.12,-40.27"/>
</a>
</g>
</g>
<!-- Node6 -->
<g id="Node000006" class="node">
<title>Node6</title>
<g id="a_Node000006"><a xlink:href="Types_8h.html" target="_top" xlink:title="Defines common type aliases and constants used throughout the Weaver project.">
<polygon fill="white" stroke="#666666" points="776,-151 697,-151 697,-132 776,-132 776,-151"/>
<text text-anchor="middle" x="736.5" y="-139" font-family="Helvetica,sans-Serif" font-size="10.00">Misc/Types.h</text>
</a>
</g>
</g>
<!-- Node1&#45;&gt;Node6 -->
<g id="edge5_Node000001_Node000006" class="edge">
<title>Node1&#45;&gt;Node6</title>
<g id="a_edge5_Node000001_Node000006"><a xlink:title=" ">
<path fill="none" stroke="#63b8ff" d="M540.66,-188.95C591.18,-176.97 650.57,-162.88 690.59,-153.39"/>
<polygon fill="#63b8ff" stroke="#63b8ff" points="691.41,-156.79 700.33,-151.08 689.79,-149.98 691.41,-156.79"/>
</a>
</g>
</g>
<!-- Node7 -->
<g id="Node000007" class="node">
<title>Node7</title>
<g id="a_Node000007"><a xlink:href="Coordinate3D_8h.html" target="_top" xlink:title="Defines a templated 3D coordinate class with Boost.Serialization support.">
<polygon fill="white" stroke="#666666" points="563.5,-90.5 471.5,-90.5 471.5,-71.5 563.5,-71.5 563.5,-90.5"/>
<text text-anchor="middle" x="517.5" y="-78.5" font-family="Helvetica,sans-Serif" font-size="10.00">Coordinate3D.h</text>
</a>
</g>
</g>
<!-- Node6&#45;&gt;Node7 -->
<g id="edge6_Node000006_Node000007" class="edge">
<title>Node6&#45;&gt;Node7</title>
<g id="a_edge6_Node000006_Node000007"><a xlink:title=" ">
<path fill="none" stroke="#63b8ff" d="M704.66,-131.99C666.22,-121.73 601.47,-104.43 559.11,-93.12"/>
<polygon fill="#63b8ff" stroke="#63b8ff" points="559.95,-89.72 549.38,-90.52 558.14,-96.48 559.95,-89.72"/>
</a>
</g>
</g>
<!-- Node10 -->
<g id="Node000010" class="node">
<title>Node10</title>
<g id="a_Node000010"><a xlink:title=" ">
<polygon fill="#e0e0e0" stroke="#999999" points="860.5,-90.5 816.5,-90.5 816.5,-71.5 860.5,-71.5 860.5,-90.5"/>
<text text-anchor="middle" x="838.5" y="-78.5" font-family="Helvetica,sans-Serif" font-size="10.00">cfloat</text>
</a>
</g>
</g>
<!-- Node6&#45;&gt;Node10 -->
<g id="edge11_Node000006_Node000010" class="edge">
<title>Node6&#45;&gt;Node10</title>
<g id="a_edge11_Node000006_Node000010"><a xlink:title=" ">
<path fill="none" stroke="#63b8ff" d="M751.55,-131.87C768.12,-122.36 795,-106.95 814.49,-95.77"/>
<polygon fill="#63b8ff" stroke="#63b8ff" points="816.45,-98.68 823.39,-90.67 812.97,-92.61 816.45,-98.68"/>
</a>
</g>
</g>
<!-- Node11 -->
<g id="Node000011" class="node">
<title>Node11</title>
<g id="a_Node000011"><a xlink:title=" ">
<polygon fill="#e0e0e0" stroke="#999999" points="1128.5,-24.5 1084.5,-24.5 1084.5,-5.5 1128.5,-5.5 1128.5,-24.5"/>
<text text-anchor="middle" x="1106.5" y="-12.5" font-family="Helvetica,sans-Serif" font-size="10.00">limits</text>
</a>
</g>
</g>
<!-- Node6&#45;&gt;Node11 -->
<g id="edge12_Node000006_Node000011" class="edge">
<title>Node6&#45;&gt;Node11</title>
<g id="a_edge12_Node000006_Node000011"><a xlink:title=" ">
<path fill="none" stroke="#63b8ff" d="M766.36,-131.96C825.87,-114.69 963.23,-73.5 1075.5,-30 1076.68,-29.54 1077.87,-29.07 1079.08,-28.57"/>
<polygon fill="#63b8ff" stroke="#63b8ff" points="1080.47,-31.79 1088.28,-24.63 1077.71,-25.35 1080.47,-31.79"/>
</a>
</g>
</g>
<!-- Node12 -->
<g id="Node000012" class="node">
<title>Node12</title>
<g id="a_Node000012"><a xlink:href="PreciseDouble_8h.html" target="_top" xlink:title="Defines the PreciseDouble class for safe and precise double&#45;precision arithmetic.">
<polygon fill="white" stroke="#666666" points="798,-96 675,-96 675,-66 798,-66 798,-96"/>
<text text-anchor="start" x="683" y="-84" font-family="Helvetica,sans-Serif" font-size="10.00">App/Model/IBM/Maths</text>
<text text-anchor="middle" x="736.5" y="-73" font-family="Helvetica,sans-Serif" font-size="10.00">/PreciseDouble.h</text>
</a>
</g>
</g>
<!-- Node6&#45;&gt;Node12 -->
<g id="edge13_Node000006_Node000012" class="edge">
<title>Node6&#45;&gt;Node12</title>
<g id="a_edge13_Node000006_Node000012"><a xlink:title=" ">
<path fill="none" stroke="#63b8ff" d="M736.5,-131.87C736.5,-125.11 736.5,-115.35 736.5,-106.26"/>
<polygon fill="#63b8ff" stroke="#63b8ff" points="740,-106.11 736.5,-96.11 733,-106.11 740,-106.11"/>
</a>
</g>
</g>
<!-- Node7&#45;&gt;Node4 -->
<g id="edge8_Node000007_Node000004" class="edge">
<title>Node7&#45;&gt;Node4</title>
<g id="a_edge8_Node000007_Node000004"><a xlink:title=" ">
<path fill="none" stroke="#63b8ff" d="M515.48,-71.37C513.61,-63.4 510.75,-51.2 508.19,-40.27"/>
<polygon fill="#63b8ff" stroke="#63b8ff" points="511.56,-39.3 505.87,-30.36 504.74,-40.9 511.56,-39.3"/>
</a>
</g>
</g>
<!-- Node7&#45;&gt;Node5 -->
<g id="edge9_Node000007_Node000005" class="edge">
<title>Node7&#45;&gt;Node5</title>
<g id="a_edge9_Node000007_Node000005"><a xlink:title=" ">
<path fill="none" stroke="#63b8ff" d="M533.55,-71.37C550.83,-62.07 578.88,-46.99 601.33,-34.91"/>
<polygon fill="#63b8ff" stroke="#63b8ff" points="603.1,-37.93 610.25,-30.12 599.79,-31.77 603.1,-37.93"/>
</a>
</g>
</g>
<!-- Node8 -->
<g id="Node000008" class="node">
<title>Node8</title>
<g id="a_Node000008"><a xlink:title=" ">
<polygon fill="#e0e0e0" stroke="#999999" points="107,-30 0,-30 0,0 107,0 107,-30"/>
<text text-anchor="start" x="8" y="-18" font-family="Helvetica,sans-Serif" font-size="10.00">boost/serialization</text>
<text text-anchor="middle" x="53.5" y="-7" font-family="Helvetica,sans-Serif" font-size="10.00">/access.hpp</text>
</a>
</g>
</g>
<!-- Node7&#45;&gt;Node8 -->
<g id="edge7_Node000007_Node000008" class="edge">
<title>Node7&#45;&gt;Node8</title>
<g id="a_edge7_Node000007_Node000008"><a xlink:title=" ">
<path fill="none" stroke="#63b8ff" d="M471.46,-75.76C398.36,-68.71 251.09,-53.17 117.23,-30.2"/>
<polygon fill="#63b8ff" stroke="#63b8ff" points="117.65,-26.73 107.2,-28.47 116.46,-33.62 117.65,-26.73"/>
</a>
</g>
</g>
<!-- Node9 -->
<g id="Node000009" class="node">
<title>Node9</title>
<g id="a_Node000009"><a xlink:title=" ">
<polygon fill="#e0e0e0" stroke="#999999" points="180,-24.5 125,-24.5 125,-5.5 180,-5.5 180,-24.5"/>
<text text-anchor="middle" x="152.5" y="-12.5" font-family="Helvetica,sans-Serif" font-size="10.00">fstream</text>
</a>
</g>
</g>
<!-- Node7&#45;&gt;Node9 -->
<g id="edge10_Node000007_Node000009" class="edge">
<title>Node7&#45;&gt;Node9</title>
<g id="a_edge10_Node000007_Node000009"><a xlink:title=" ">
<path fill="none" stroke="#63b8ff" d="M471.34,-76.21C407.09,-70.22 287.44,-56.41 188.5,-30 186.34,-29.42 184.14,-28.76 181.93,-28.04"/>
<polygon fill="#63b8ff" stroke="#63b8ff" points="183.02,-24.71 172.42,-24.65 180.66,-31.31 183.02,-24.71"/>
</a>
</g>
</g>
<!-- Node12&#45;&gt;Node2 -->
<g id="edge14_Node000012_Node000002" class="edge">
<title>Node12&#45;&gt;Node2</title>
<g id="a_edge14_Node000012_Node000002"><a xlink:title=" ">
<path fill="none" stroke="#63b8ff" d="M674.97,-74.87C594.06,-67.66 447.36,-52.97 313.36,-30.22"/>
<polygon fill="#63b8ff" stroke="#63b8ff" points="313.78,-26.74 303.33,-28.49 312.59,-33.64 313.78,-26.74"/>
</a>
</g>
</g>
<!-- Node12&#45;&gt;Node3 -->
<g id="edge15_Node000012_Node000003" class="edge">
<title>Node12&#45;&gt;Node3</title>
<g id="a_edge15_Node000012_Node000003"><a xlink:title=" ">
<path fill="none" stroke="#63b8ff" d="M674.92,-70.83C616.15,-61.84 524.91,-47.26 436.19,-30.07"/>
<polygon fill="#63b8ff" stroke="#63b8ff" points="436.71,-26.6 426.22,-28.12 435.37,-33.47 436.71,-26.6"/>
</a>
</g>
</g>
<!-- Node12&#45;&gt;Node4 -->
<g id="edge16_Node000012_Node000004" class="edge">
<title>Node12&#45;&gt;Node4</title>
<g id="a_edge16_Node000012_Node000004"><a xlink:title=" ">
<path fill="none" stroke="#63b8ff" d="M685.15,-65.95C649.33,-56.16 601.38,-43.05 563.6,-32.71"/>
<polygon fill="#63b8ff" stroke="#63b8ff" points="564.3,-29.27 553.73,-30.01 562.45,-36.03 564.3,-29.27"/>
</a>
</g>
</g>
<!-- Node12&#45;&gt;Node5 -->
<g id="edge17_Node000012_Node000005" class="edge">
<title>Node12&#45;&gt;Node5</title>
<g id="a_edge17_Node000012_Node000005"><a xlink:title=" ">
<path fill="none" stroke="#63b8ff" d="M714.31,-65.8C700.45,-56.93 682.43,-45.39 667.21,-35.66"/>
<polygon fill="#63b8ff" stroke="#63b8ff" points="668.94,-32.61 658.63,-30.16 665.17,-38.5 668.94,-32.61"/>
</a>
</g>
</g>
<!-- Node12&#45;&gt;Node11 -->
<g id="edge22_Node000012_Node000011" class="edge">
<title>Node12&#45;&gt;Node11</title>
<g id="a_edge22_Node000012_Node000011"><a xlink:title=" ">
<path fill="none" stroke="#63b8ff" d="M798.03,-67.63C801.23,-67.06 804.4,-66.51 807.5,-66 926.07,-46.37 959.96,-63.08 1075.5,-30 1077.14,-29.53 1078.8,-28.99 1080.47,-28.4"/>
<polygon fill="#63b8ff" stroke="#63b8ff" points="1081.83,-31.62 1089.78,-24.62 1079.2,-25.13 1081.83,-31.62"/>
</a>
</g>
</g>
<!-- Node13 -->
<g id="Node000013" class="node">
<title>Node13</title>
<g id="a_Node000013"><a xlink:title=" ">
<polygon fill="#e0e0e0" stroke="#999999" points="1066.5,-24.5 1022.5,-24.5 1022.5,-5.5 1066.5,-5.5 1066.5,-24.5"/>
<text text-anchor="middle" x="1044.5" y="-12.5" font-family="Helvetica,sans-Serif" font-size="10.00">string</text>
</a>
</g>
</g>
<!-- Node12&#45;&gt;Node13 -->
<g id="edge18_Node000012_Node000013" class="edge">
<title>Node12&#45;&gt;Node13</title>
<g id="a_edge18_Node000012_Node000013"><a xlink:title=" ">
<path fill="none" stroke="#63b8ff" d="M798.06,-67.78C801.25,-67.17 804.41,-66.57 807.5,-66 898.88,-49.01 924.67,-57.34 1013.5,-30 1014.95,-29.55 1016.41,-29.06 1017.88,-28.53"/>
<polygon fill="#63b8ff" stroke="#63b8ff" points="1019.48,-31.65 1027.42,-24.64 1016.84,-25.17 1019.48,-31.65"/>
</a>
</g>
</g>
<!-- Node14 -->
<g id="Node000014" class="node">
<title>Node14</title>
<g id="a_Node000014"><a xlink:title=" ">
<polygon fill="#e0e0e0" stroke="#999999" points="760,-24.5 713,-24.5 713,-5.5 760,-5.5 760,-24.5"/>
<text text-anchor="middle" x="736.5" y="-12.5" font-family="Helvetica,sans-Serif" font-size="10.00">cmath</text>
</a>
</g>
</g>
<!-- Node12&#45;&gt;Node14 -->
<g id="edge19_Node000012_Node000014" class="edge">
<title>Node12&#45;&gt;Node14</title>
<g id="a_edge19_Node000012_Node000014"><a xlink:title=" ">
<path fill="none" stroke="#63b8ff" d="M736.5,-65.8C736.5,-56.7 736.5,-44.79 736.5,-34.9"/>
<polygon fill="#63b8ff" stroke="#63b8ff" points="740,-34.84 736.5,-24.84 733,-34.84 740,-34.84"/>
</a>
</g>
</g>
<!-- Node15 -->
<g id="Node000015" class="node">
<title>Node15</title>
<g id="a_Node000015"><a xlink:title=" ">
<polygon fill="#e0e0e0" stroke="#999999" points="842.5,-24.5 778.5,-24.5 778.5,-5.5 842.5,-5.5 842.5,-24.5"/>
<text text-anchor="middle" x="810.5" y="-12.5" font-family="Helvetica,sans-Serif" font-size="10.00">algorithm</text>
</a>
</g>
</g>
<!-- Node12&#45;&gt;Node15 -->
<g id="edge20_Node000012_Node000015" class="edge">
<title>Node12&#45;&gt;Node15</title>
<g id="a_edge20_Node000012_Node000015"><a xlink:title=" ">
<path fill="none" stroke="#63b8ff" d="M752.92,-65.8C764.69,-55.62 780.52,-41.93 792.6,-31.48"/>
<polygon fill="#63b8ff" stroke="#63b8ff" points="795,-34.03 800.27,-24.84 790.42,-28.74 795,-34.03"/>
</a>
</g>
</g>
<!-- Node16 -->
<g id="Node000016" class="node">
<title>Node16</title>
<g id="a_Node000016"><a xlink:title=" ">
<polygon fill="#e0e0e0" stroke="#999999" points="920.5,-24.5 860.5,-24.5 860.5,-5.5 920.5,-5.5 920.5,-24.5"/>
<text text-anchor="middle" x="890.5" y="-12.5" font-family="Helvetica,sans-Serif" font-size="10.00">iostream</text>
</a>
</g>
</g>
<!-- Node12&#45;&gt;Node16 -->
<g id="edge21_Node000012_Node000016" class="edge">
<title>Node12&#45;&gt;Node16</title>
<g id="a_edge21_Node000012_Node000016"><a xlink:title=" ">
<path fill="none" stroke="#63b8ff" d="M770.3,-65.95C797.3,-54.73 834.8,-39.15 860.69,-28.39"/>
<polygon fill="#63b8ff" stroke="#63b8ff" points="862.11,-31.59 870.01,-24.52 859.43,-25.12 862.11,-31.59"/>
</a>
</g>
</g>
<!-- Node17 -->
<g id="Node000017" class="node">
<title>Node17</title>
<g id="a_Node000017"><a xlink:title=" ">
<polygon fill="#e0e0e0" stroke="#999999" points="1004,-24.5 939,-24.5 939,-5.5 1004,-5.5 1004,-24.5"/>
<text text-anchor="middle" x="971.5" y="-12.5" font-family="Helvetica,sans-Serif" font-size="10.00">functional</text>
</a>
</g>
</g>
<!-- Node12&#45;&gt;Node17 -->
<g id="edge23_Node000012_Node000017" class="edge">
<title>Node12&#45;&gt;Node17</title>
<g id="a_edge23_Node000012_Node000017"><a xlink:title=" ">
<path fill="none" stroke="#63b8ff" d="M795.06,-65.93C833.47,-56.44 884.69,-43.26 929.5,-30 931.95,-29.28 934.47,-28.5 937.01,-27.71"/>
<polygon fill="#63b8ff" stroke="#63b8ff" points="938.27,-30.98 946.71,-24.57 936.12,-24.31 938.27,-30.98"/>
</a>
</g>
</g>
</g>
</svg>
