<?xml version="1.0" encoding="UTF-8" standalone="no"?>
<!DOCTYPE svg PUBLIC "-//W3C//DTD SVG 1.1//EN"
 "http://www.w3.org/Graphics/SVG/1.1/DTD/svg11.dtd">
<!-- Generated by graphviz version 2.43.0 (0)
 -->
<!-- Title: PawarTraitTemperatureSection Pages: 1 -->
<svg width="429pt" height="86pt"
 viewBox="0.00 0.00 429.00 86.00" xmlns="http://www.w3.org/2000/svg" xmlns:xlink="http://www.w3.org/1999/xlink">
<g id="graph0" class="graph" transform="scale(1 1) rotate(0) translate(4 82)">
<title>PawarTraitTemperatureSection</title>
<!-- Node1 -->
<g id="Node000001" class="node">
<title>Node1</title>
<g id="a_Node000001"><a xlink:title="Represents a temperature&#45;dependent section of a Pawar metabolic model trait.">
<polygon fill="#999999" stroke="#666666" points="421,-54 257,-54 257,-35 421,-35 421,-54"/>
<text text-anchor="middle" x="339" y="-42" font-family="Helvetica,sans-Serif" font-size="10.00">PawarTraitTemperatureSection</text>
</a>
</g>
</g>
<!-- Node2 -->
<g id="Node000002" class="node">
<title>Node2</title>
<g id="a_Node000002"><a xlink:href="classTraitTemperatureSection.html" target="_top" xlink:title="Represents the temperature&#45;dependent part of a trait.">
<polygon fill="white" stroke="#666666" points="153.5,-78 18.5,-78 18.5,-59 153.5,-59 153.5,-78"/>
<text text-anchor="middle" x="86" y="-66" font-family="Helvetica,sans-Serif" font-size="10.00">TraitTemperatureSection</text>
</a>
</g>
</g>
<!-- Node2&#45;&gt;Node1 -->
<g id="edge1_Node000001_Node000002" class="edge">
<title>Node2&#45;&gt;Node1</title>
<g id="a_edge1_Node000001_Node000002"><a xlink:title=" ">
<path fill="none" stroke="#63b8ff" d="M163.82,-61.15C193.26,-58.34 226.91,-55.12 256.74,-52.27"/>
<polygon fill="#63b8ff" stroke="#63b8ff" points="163.23,-57.7 153.6,-62.13 163.89,-64.66 163.23,-57.7"/>
</a>
</g>
</g>
<!-- Node3 -->
<g id="Node000003" class="node">
<title>Node3</title>
<g id="a_Node000003"><a xlink:href="classCustomIndexedVector.html" target="_top" xlink:title=" ">
<polygon fill="white" stroke="#666666" points="172,-41 0,-41 0,0 172,0 172,-41"/>
<text text-anchor="start" x="8" y="-29" font-family="Helvetica,sans-Serif" font-size="10.00">CustomIndexedVector</text>
<text text-anchor="start" x="8" y="-18" font-family="Helvetica,sans-Serif" font-size="10.00">&lt; PawarElement, TraitDefinition</text>
<text text-anchor="middle" x="86" y="-7" font-family="Helvetica,sans-Serif" font-size="10.00">Section * &gt;</text>
</a>
</g>
</g>
<!-- Node3&#45;&gt;Node1 -->
<g id="edge2_Node000001_Node000003" class="edge">
<title>Node3&#45;&gt;Node1</title>
<g id="a_edge2_Node000001_Node000003"><a xlink:title=" ">
<path fill="none" stroke="#9a32cd" stroke-dasharray="5,2" d="M182.35,-29.62C206.86,-31.96 233,-34.46 256.72,-36.73"/>
<polygon fill="#9a32cd" stroke="#9a32cd" points="182.62,-26.13 172.33,-28.66 181.95,-33.09 182.62,-26.13"/>
</a>
</g>
<text text-anchor="middle" x="214.5" y="-37.5" font-family="Helvetica,sans-Serif" font-size="10.00" fill="grey"> elements</text>
</g>
</g>
</svg>
