<?xml version="1.0" encoding="UTF-8" standalone="no"?>
<!DOCTYPE svg PUBLIC "-//W3C//DTD SVG 1.1//EN"
 "http://www.w3.org/Graphics/SVG/1.1/DTD/svg11.dtd">
<!-- Generated by graphviz version 2.43.0 (0)
 -->
<!-- Title: SpatialTreePatchApplicator Pages: 1 -->
<svg width="266pt" height="137pt"
 viewBox="0.00 0.00 265.50 137.00" xmlns="http://www.w3.org/2000/svg" xmlns:xlink="http://www.w3.org/1999/xlink">
<g id="graph0" class="graph" transform="scale(1 1) rotate(0) translate(4 133)">
<title>SpatialTreePatchApplicator</title>
<!-- Node1 -->
<g id="Node000001" class="node">
<title>Node1</title>
<g id="a_Node000001"><a xlink:title="Abstract class for applying environmental patches to a spatial tree of terrain cells.">
<polygon fill="#999999" stroke="#666666" points="205,-74 59,-74 59,-55 205,-55 205,-74"/>
<text text-anchor="middle" x="132" y="-62" font-family="Helvetica,sans-Serif" font-size="10.00">SpatialTreePatchApplicator</text>
</a>
</g>
</g>
<!-- Node3 -->
<g id="Node000003" class="node">
<title>Node3</title>
<g id="a_Node000003"><a xlink:href="classBranchPatchApplicator.html" target="_top" xlink:title="Concrete implementation of SpatialTreePatchApplicator for branch nodes.">
<polygon fill="white" stroke="#666666" points="126,-19 0,-19 0,0 126,0 126,-19"/>
<text text-anchor="middle" x="63" y="-7" font-family="Helvetica,sans-Serif" font-size="10.00">BranchPatchApplicator</text>
</a>
</g>
</g>
<!-- Node1&#45;&gt;Node3 -->
<g id="edge2_Node000001_Node000003" class="edge">
<title>Node1&#45;&gt;Node3</title>
<g id="a_edge2_Node000001_Node000003"><a xlink:title=" ">
<path fill="none" stroke="#63b8ff" d="M112.96,-48.88C100.54,-39.34 84.76,-27.21 74.29,-19.17"/>
<polygon fill="#63b8ff" stroke="#63b8ff" points="110.85,-51.67 120.91,-54.98 115.12,-46.12 110.85,-51.67"/>
</a>
</g>
</g>
<!-- Node4 -->
<g id="Node000004" class="node">
<title>Node4</title>
<g id="a_Node000004"><a xlink:href="classLeafPatchApplicator.html" target="_top" xlink:title="Concrete implementation of SpatialTreePatchApplicator for leaf nodes.">
<polygon fill="white" stroke="#666666" points="257.5,-19 144.5,-19 144.5,0 257.5,0 257.5,-19"/>
<text text-anchor="middle" x="201" y="-7" font-family="Helvetica,sans-Serif" font-size="10.00">LeafPatchApplicator</text>
</a>
</g>
</g>
<!-- Node1&#45;&gt;Node4 -->
<g id="edge3_Node000001_Node000004" class="edge">
<title>Node1&#45;&gt;Node4</title>
<g id="a_edge3_Node000001_Node000004"><a xlink:title=" ">
<path fill="none" stroke="#63b8ff" d="M151.04,-48.88C163.46,-39.34 179.24,-27.21 189.71,-19.17"/>
<polygon fill="#63b8ff" stroke="#63b8ff" points="148.88,-46.12 143.09,-54.98 153.15,-51.67 148.88,-46.12"/>
</a>
</g>
</g>
<!-- Node2 -->
<g id="Node000002" class="node">
<title>Node2</title>
<g id="a_Node000002"><a xlink:href="classPatchApplicator.html" target="_top" xlink:title="Applies patches to a TerrainCell including moisture, resources, obstacles, and habitat domains.">
<polygon fill="white" stroke="#666666" points="178,-129 86,-129 86,-110 178,-110 178,-129"/>
<text text-anchor="middle" x="132" y="-117" font-family="Helvetica,sans-Serif" font-size="10.00">PatchApplicator</text>
</a>
</g>
</g>
<!-- Node2&#45;&gt;Node1 -->
<g id="edge1_Node000001_Node000002" class="edge">
<title>Node2&#45;&gt;Node1</title>
<g id="a_edge1_Node000001_Node000002"><a xlink:title=" ">
<path fill="none" stroke="#63b8ff" d="M132,-99.66C132,-90.93 132,-80.99 132,-74.09"/>
<polygon fill="#63b8ff" stroke="#63b8ff" points="128.5,-99.75 132,-109.75 135.5,-99.75 128.5,-99.75"/>
</a>
</g>
</g>
</g>
</svg>
