<?xml version="1.0" encoding="UTF-8" standalone="no"?>
<!DOCTYPE svg PUBLIC "-//W3C//DTD SVG 1.1//EN"
 "http://www.w3.org/Graphics/SVG/1.1/DTD/svg11.dtd">
<!-- Generated by graphviz version 2.43.0 (0)
 -->
<!-- Title: ResourceSpeciesGrowth Pages: 1 -->
<svg width="389pt" height="173pt"
 viewBox="0.00 0.00 388.50 173.00" xmlns="http://www.w3.org/2000/svg" xmlns:xlink="http://www.w3.org/1999/xlink">
<g id="graph0" class="graph" transform="scale(1 1) rotate(0) translate(4 169)">
<title>ResourceSpeciesGrowth</title>
<!-- Node1 -->
<g id="Node000001" class="node">
<title>Node1</title>
<g id="a_Node000001"><a xlink:title="Growth model for resource&#45;type species.">
<polygon fill="#999999" stroke="#666666" points="328,-19 194,-19 194,0 328,0 328,-19"/>
<text text-anchor="middle" x="261" y="-7" font-family="Helvetica,sans-Serif" font-size="10.00">ResourceSpeciesGrowth</text>
</a>
</g>
</g>
<!-- Node2 -->
<g id="Node000002" class="node">
<title>Node2</title>
<g id="a_Node000002"><a xlink:href="classSpeciesGrowth.html" target="_top" xlink:title="Represents the growth characteristics of a species across its instars.">
<polygon fill="white" stroke="#666666" points="178.5,-86.5 89.5,-86.5 89.5,-67.5 178.5,-67.5 178.5,-86.5"/>
<text text-anchor="middle" x="134" y="-74.5" font-family="Helvetica,sans-Serif" font-size="10.00">SpeciesGrowth</text>
</a>
</g>
</g>
<!-- Node2&#45;&gt;Node1 -->
<g id="edge1_Node000001_Node000002" class="edge">
<title>Node2&#45;&gt;Node1</title>
<g id="a_edge1_Node000001_Node000002"><a xlink:title=" ">
<path fill="none" stroke="#63b8ff" d="M159.61,-62.79C184.9,-49.75 222.81,-30.2 244.39,-19.07"/>
<polygon fill="#63b8ff" stroke="#63b8ff" points="157.89,-59.74 150.6,-67.44 161.09,-65.96 157.89,-59.74"/>
</a>
</g>
</g>
<!-- Node3 -->
<g id="Node000003" class="node">
<title>Node3</title>
<g id="a_Node000003"><a xlink:href="classInstar.html" target="_top" xlink:title="Represents a developmental stage (instar) of an animal in the simulation.">
<polygon fill="white" stroke="#666666" points="44,-159.5 0,-159.5 0,-140.5 44,-140.5 44,-159.5"/>
<text text-anchor="middle" x="22" y="-147.5" font-family="Helvetica,sans-Serif" font-size="10.00">Instar</text>
</a>
</g>
</g>
<!-- Node3&#45;&gt;Node2 -->
<g id="edge2_Node000002_Node000003" class="edge">
<title>Node3&#45;&gt;Node2</title>
<g id="a_edge2_Node000002_Node000003"><a xlink:title=" ">
<path fill="none" stroke="#9a32cd" stroke-dasharray="5,2" d="M41.22,-133.91C52.53,-125.31 67.25,-114.58 81,-106 92.3,-98.95 105.55,-91.95 115.98,-86.71"/>
<polygon fill="#9a32cd" stroke="#9a32cd" points="38.76,-131.39 32.98,-140.26 43.03,-136.93 38.76,-131.39"/>
</a>
</g>
<text text-anchor="middle" x="105.5" y="-109" font-family="Helvetica,sans-Serif" font-size="10.00" fill="grey"> lastInstar</text>
</g>
<!-- Node4 -->
<g id="Node000004" class="node">
<title>Node4</title>
<g id="a_Node000004"><a xlink:href="classCustomIndexedVector.html" target="_top" xlink:title=" ">
<polygon fill="white" stroke="#666666" points="205.5,-165 62.5,-165 62.5,-135 205.5,-135 205.5,-165"/>
<text text-anchor="start" x="70.5" y="-153" font-family="Helvetica,sans-Serif" font-size="10.00">CustomIndexedVector</text>
<text text-anchor="middle" x="134" y="-142" font-family="Helvetica,sans-Serif" font-size="10.00">&lt; Instar, PreciseDouble &gt;</text>
</a>
</g>
</g>
<!-- Node4&#45;&gt;Node2 -->
<g id="edge3_Node000002_Node000004" class="edge">
<title>Node4&#45;&gt;Node2</title>
<g id="a_edge3_Node000002_Node000004"><a xlink:title=" ">
<path fill="none" stroke="#9a32cd" stroke-dasharray="5,2" d="M134,-124.63C134,-111.47 134,-96.03 134,-86.64"/>
<polygon fill="#9a32cd" stroke="#9a32cd" points="130.5,-124.97 134,-134.97 137.5,-124.97 130.5,-124.97"/>
</a>
</g>
<text text-anchor="middle" x="190" y="-109" font-family="Helvetica,sans-Serif" font-size="10.00" fill="grey"> conversionToWetMass</text>
</g>
<!-- Node5 -->
<g id="Node000005" class="node">
<title>Node5</title>
<g id="a_Node000005"><a xlink:href="classWetMass.html" target="_top" xlink:title="Represents wet mass in the ecosystem simulation.">
<polygon fill="white" stroke="#666666" points="380.5,-86.5 319.5,-86.5 319.5,-67.5 380.5,-67.5 380.5,-86.5"/>
<text text-anchor="middle" x="350" y="-74.5" font-family="Helvetica,sans-Serif" font-size="10.00">WetMass</text>
</a>
</g>
</g>
<!-- Node5&#45;&gt;Node1 -->
<g id="edge4_Node000001_Node000005" class="edge">
<title>Node5&#45;&gt;Node1</title>
<g id="a_edge4_Node000001_Node000005"><a xlink:title=" ">
<path fill="none" stroke="#9a32cd" stroke-dasharray="5,2" d="M329.9,-61.21C312.24,-48.21 287.16,-29.76 272.64,-19.07"/>
<polygon fill="#9a32cd" stroke="#9a32cd" points="328.24,-64.33 338.36,-67.44 332.39,-58.69 328.24,-64.33"/>
</a>
</g>
<text text-anchor="middle" x="333" y="-40" font-family="Helvetica,sans-Serif" font-size="10.00" fill="grey"> cellMass</text>
</g>
<!-- Node6 -->
<g id="Node000006" class="node">
<title>Node6</title>
<g id="a_Node000006"><a xlink:href="classPreciseDouble.html" target="_top" xlink:title="Class for precise double&#45;precision floating&#45;point arithmetic.">
<polygon fill="white" stroke="#666666" points="338,-159.5 252,-159.5 252,-140.5 338,-140.5 338,-159.5"/>
<text text-anchor="middle" x="295" y="-147.5" font-family="Helvetica,sans-Serif" font-size="10.00">PreciseDouble</text>
</a>
</g>
</g>
<!-- Node6&#45;&gt;Node1 -->
<g id="edge6_Node000001_Node000006" class="edge">
<title>Node6&#45;&gt;Node1</title>
<g id="a_edge6_Node000001_Node000006"><a xlink:title=" ">
<path fill="none" stroke="#9a32cd" stroke-dasharray="5,2" d="M286.5,-130.86C281.25,-118.93 274.81,-102.83 271,-88 264.72,-63.56 262.29,-33.72 261.43,-19.23"/>
<polygon fill="#9a32cd" stroke="#9a32cd" points="283.39,-132.48 290.71,-140.14 289.76,-129.58 283.39,-132.48"/>
</a>
</g>
<text text-anchor="middle" x="291" y="-80" font-family="Helvetica,sans-Serif" font-size="10.00" fill="grey"> maxRH</text>
<text text-anchor="middle" x="291" y="-69" font-family="Helvetica,sans-Serif" font-size="10.00" fill="grey">minRH</text>
</g>
<!-- Node6&#45;&gt;Node5 -->
<g id="edge5_Node000005_Node000006" class="edge">
<title>Node6&#45;&gt;Node5</title>
<g id="a_edge5_Node000005_Node000006"><a xlink:title=" ">
<path fill="none" stroke="#9a32cd" stroke-dasharray="5,2" d="M307.95,-132.28C318.99,-118.02 334.43,-98.1 343.2,-86.78"/>
<polygon fill="#9a32cd" stroke="#9a32cd" points="305.1,-130.25 301.74,-140.29 310.64,-134.53 305.1,-130.25"/>
</a>
</g>
<text text-anchor="middle" x="342.5" y="-109" font-family="Helvetica,sans-Serif" font-size="10.00" fill="grey"> value</text>
</g>
</g>
</svg>
