<?xml version="1.0" encoding="UTF-8" standalone="no"?>
<!DOCTYPE svg PUBLIC "-//W3C//DTD SVG 1.1//EN"
 "http://www.w3.org/Graphics/SVG/1.1/DTD/svg11.dtd">
<!-- Generated by graphviz version 2.43.0 (0)
 -->
<!-- Title: Model Pages: 1 -->
<svg width="214pt" height="104pt"
 viewBox="0.00 0.00 213.50 104.00" xmlns="http://www.w3.org/2000/svg" xmlns:xlink="http://www.w3.org/1999/xlink">
<g id="graph0" class="graph" transform="scale(1 1) rotate(0) translate(4 100)">
<title>Model</title>
<!-- Node1 -->
<g id="Node000001" class="node">
<title>Node1</title>
<g id="a_Node000001"><a xlink:title="Abstract base class for all simulation models in the Weaver framework.">
<polygon fill="#999999" stroke="#666666" points="47,-90.5 0,-90.5 0,-71.5 47,-71.5 47,-90.5"/>
<text text-anchor="middle" x="23.5" y="-78.5" font-family="Helvetica,sans-Serif" font-size="10.00">Model</text>
</a>
</g>
</g>
<!-- Node2 -->
<g id="Node000002" class="node">
<title>Node2</title>
<g id="a_Node000002"><a xlink:href="classView.html" target="_top" xlink:title="Abstract base class representing a view in the MVC pattern.">
<polygon fill="white" stroke="#666666" points="101,-19 60,-19 60,0 101,0 101,-19"/>
<text text-anchor="middle" x="80.5" y="-7" font-family="Helvetica,sans-Serif" font-size="10.00">View</text>
</a>
</g>
</g>
<!-- Node1&#45;&gt;Node2 -->
<g id="edge2_Node000002_Node000001" class="edge">
<title>Node1&#45;&gt;Node2</title>
<g id="a_edge2_Node000002_Node000001"><a xlink:title=" ">
<path fill="none" stroke="#9a32cd" stroke-dasharray="5,2" d="M17.46,-61.59C15.93,-53.46 15.84,-44.15 20.5,-37 29.14,-23.74 46.09,-17.07 59.77,-13.74"/>
<polygon fill="#9a32cd" stroke="#9a32cd" points="14.09,-62.54 20.02,-71.32 20.86,-60.75 14.09,-62.54"/>
</a>
</g>
<text text-anchor="middle" x="37.5" y="-40" font-family="Helvetica,sans-Serif" font-size="10.00" fill="grey"> model</text>
</g>
<!-- Node2&#45;&gt;Node1 -->
<g id="edge1_Node000001_Node000002" class="edge">
<title>Node2&#45;&gt;Node1</title>
<g id="a_edge1_Node000001_Node000002"><a xlink:title=" ">
<path fill="none" stroke="#9a32cd" stroke-dasharray="5,2" d="M71.75,-27.85C68.07,-34.45 63.48,-41.85 58.5,-48 51.46,-56.7 42.02,-65.19 34.72,-71.24"/>
<polygon fill="#9a32cd" stroke="#9a32cd" points="74.85,-29.48 76.44,-19.01 68.67,-26.2 74.85,-29.48"/>
</a>
</g>
<text text-anchor="middle" x="79" y="-40" font-family="Helvetica,sans-Serif" font-size="10.00" fill="grey"> view</text>
</g>
<!-- Node3 -->
<g id="Node000003" class="node">
<title>Node3</title>
<g id="a_Node000003"><a xlink:href="classCustomIndexedVector.html" target="_top" xlink:title=" ">
<polygon fill="white" stroke="#666666" points="205.5,-96 65.5,-96 65.5,-66 205.5,-66 205.5,-96"/>
<text text-anchor="start" x="73.5" y="-84" font-family="Helvetica,sans-Serif" font-size="10.00">CustomIndexedVector</text>
<text text-anchor="middle" x="135.5" y="-73" font-family="Helvetica,sans-Serif" font-size="10.00">&lt; RunMode, std::string &gt;</text>
</a>
</g>
</g>
<!-- Node3&#45;&gt;Node2 -->
<g id="edge3_Node000002_Node000003" class="edge">
<title>Node3&#45;&gt;Node2</title>
<g id="a_edge3_Node000002_Node000003"><a xlink:title=" ">
<path fill="none" stroke="#9a32cd" stroke-dasharray="5,2" d="M124.3,-56.42C120.66,-49.83 116.3,-42.87 111.5,-37 106.03,-30.32 98.73,-23.99 92.59,-19.19"/>
<polygon fill="#9a32cd" stroke="#9a32cd" points="121.38,-58.39 129.1,-65.65 127.59,-55.16 121.38,-58.39"/>
</a>
</g>
<text text-anchor="middle" x="158" y="-40" font-family="Helvetica,sans-Serif" font-size="10.00" fill="grey"> runModesTitles</text>
</g>
</g>
</svg>
