<?xml version="1.0" encoding="UTF-8" standalone="no"?>
<!DOCTYPE svg PUBLIC "-//W3C//DTD SVG 1.1//EN"
 "http://www.w3.org/Graphics/SVG/1.1/DTD/svg11.dtd">
<!-- Generated by graphviz version 2.43.0 (0)
 -->
<!-- Title: PatchShape Pages: 1 -->
<svg width="568pt" height="82pt"
 viewBox="0.00 0.00 568.00 82.00" xmlns="http://www.w3.org/2000/svg" xmlns:xlink="http://www.w3.org/1999/xlink">
<g id="graph0" class="graph" transform="scale(1 1) rotate(0) translate(4 78)">
<title>PatchShape</title>
<!-- Node1 -->
<g id="Node000001" class="node">
<title>Node1</title>
<g id="a_Node000001"><a xlink:title="Abstract base class representing a patch shape.">
<polygon fill="#999999" stroke="#666666" points="287.5,-74 214.5,-74 214.5,-55 287.5,-55 287.5,-74"/>
<text text-anchor="middle" x="251" y="-62" font-family="Helvetica,sans-Serif" font-size="10.00">PatchShape</text>
</a>
</g>
</g>
<!-- Node2 -->
<g id="Node000002" class="node">
<title>Node2</title>
<g id="a_Node000002"><a xlink:href="classCubicPatch.html" target="_top" xlink:title="Represents a cuboidal patch shape.">
<polygon fill="white" stroke="#666666" points="70,-19 0,-19 0,0 70,0 70,-19"/>
<text text-anchor="middle" x="35" y="-7" font-family="Helvetica,sans-Serif" font-size="10.00">CubicPatch</text>
</a>
</g>
</g>
<!-- Node1&#45;&gt;Node2 -->
<g id="edge1_Node000001_Node000002" class="edge">
<title>Node1&#45;&gt;Node2</title>
<g id="a_edge1_Node000001_Node000002"><a xlink:title=" ">
<path fill="none" stroke="#63b8ff" d="M206.43,-52.56C165.98,-42.64 107.13,-28.2 69.98,-19.08"/>
<polygon fill="#63b8ff" stroke="#63b8ff" points="205.75,-56 216.3,-54.98 207.42,-49.2 205.75,-56"/>
</a>
</g>
</g>
<!-- Node3 -->
<g id="Node000003" class="node">
<title>Node3</title>
<g id="a_Node000003"><a xlink:href="classGaussianPatch.html" target="_top" xlink:title="Represents a patch with Gaussian&#45;shaped influence.">
<polygon fill="white" stroke="#666666" points="176,-19 88,-19 88,0 176,0 176,-19"/>
<text text-anchor="middle" x="132" y="-7" font-family="Helvetica,sans-Serif" font-size="10.00">GaussianPatch</text>
</a>
</g>
</g>
<!-- Node1&#45;&gt;Node3 -->
<g id="edge2_Node000001_Node000003" class="edge">
<title>Node1&#45;&gt;Node3</title>
<g id="a_edge2_Node000001_Node000003"><a xlink:title=" ">
<path fill="none" stroke="#63b8ff" d="M222.7,-50.9C200.72,-41.11 170.82,-27.79 151.47,-19.17"/>
<polygon fill="#63b8ff" stroke="#63b8ff" points="221.32,-54.11 231.88,-54.98 224.17,-47.72 221.32,-54.11"/>
</a>
</g>
</g>
<!-- Node4 -->
<g id="Node000004" class="node">
<title>Node4</title>
<g id="a_Node000004"><a xlink:href="classHomogeneousPatch.html" target="_top" xlink:title="Represents a patch with homogeneous (uniform) influence.">
<polygon fill="white" stroke="#666666" points="307.5,-19 194.5,-19 194.5,0 307.5,0 307.5,-19"/>
<text text-anchor="middle" x="251" y="-7" font-family="Helvetica,sans-Serif" font-size="10.00">HomogeneousPatch</text>
</a>
</g>
</g>
<!-- Node1&#45;&gt;Node4 -->
<g id="edge3_Node000001_Node000004" class="edge">
<title>Node1&#45;&gt;Node4</title>
<g id="a_edge3_Node000001_Node000004"><a xlink:title=" ">
<path fill="none" stroke="#63b8ff" d="M251,-44.66C251,-35.93 251,-25.99 251,-19.09"/>
<polygon fill="#63b8ff" stroke="#63b8ff" points="247.5,-44.75 251,-54.75 254.5,-44.75 247.5,-44.75"/>
</a>
</g>
</g>
<!-- Node5 -->
<g id="Node000005" class="node">
<title>Node5</title>
<g id="a_Node000005"><a xlink:href="classRandomGaussianPatch.html" target="_top" xlink:title="Represents a patch with stochastic Gaussian influence.">
<polygon fill="white" stroke="#666666" points="454,-19 326,-19 326,0 454,0 454,-19"/>
<text text-anchor="middle" x="390" y="-7" font-family="Helvetica,sans-Serif" font-size="10.00">RandomGaussianPatch</text>
</a>
</g>
</g>
<!-- Node1&#45;&gt;Node5 -->
<g id="edge4_Node000001_Node000005" class="edge">
<title>Node1&#45;&gt;Node5</title>
<g id="a_edge4_Node000001_Node000005"><a xlink:title=" ">
<path fill="none" stroke="#63b8ff" d="M282.68,-51.42C308.47,-41.59 344.24,-27.95 367.26,-19.17"/>
<polygon fill="#63b8ff" stroke="#63b8ff" points="281.43,-48.15 273.33,-54.98 283.92,-54.69 281.43,-48.15"/>
</a>
</g>
</g>
<!-- Node6 -->
<g id="Node000006" class="node">
<title>Node6</title>
<g id="a_Node000006"><a xlink:href="classSphericalPatch.html" target="_top" xlink:title="Represents a patch with spherical influence.">
<polygon fill="white" stroke="#666666" points="560,-19 472,-19 472,0 560,0 560,-19"/>
<text text-anchor="middle" x="516" y="-7" font-family="Helvetica,sans-Serif" font-size="10.00">SphericalPatch</text>
</a>
</g>
</g>
<!-- Node1&#45;&gt;Node6 -->
<g id="edge5_Node000001_Node000006" class="edge">
<title>Node1&#45;&gt;Node6</title>
<g id="a_edge5_Node000001_Node000006"><a xlink:title=" ">
<path fill="none" stroke="#63b8ff" d="M297.4,-54.22C347.02,-44.3 425.06,-28.69 473.23,-19.05"/>
<polygon fill="#63b8ff" stroke="#63b8ff" points="296.69,-50.79 287.57,-56.19 298.06,-57.66 296.69,-50.79"/>
</a>
</g>
</g>
</g>
</svg>
