<?xml version="1.0" encoding="UTF-8" standalone="no"?>
<!DOCTYPE svg PUBLIC "-//W3C//DTD SVG 1.1//EN"
 "http://www.w3.org/Graphics/SVG/1.1/DTD/svg11.dtd">
<!-- Generated by graphviz version 2.43.0 (0)
 -->
<!-- Title: /home/runner/work/Weaver/Weaver/include/App/Model/IBM/Landscape/Map/SpatialTree/TerrainCells Pages: 1 -->
<svg width="602pt" height="180pt"
 viewBox="0.00 0.00 601.50 180.00" xmlns="http://www.w3.org/2000/svg" xmlns:xlink="http://www.w3.org/1999/xlink">
<g id="graph0" class="graph" transform="scale(1 1) rotate(0) translate(4 176)">
<title>/home/runner/work/Weaver/Weaver/include/App/Model/IBM/Landscape/Map/SpatialTree/TerrainCells</title>
<g id="clust1" class="cluster">
<title>clusterdir_2ee29caf34043349edd495638e9b55e5</title>
<g id="a_clust1"><a xlink:href="dir_2ee29caf34043349edd495638e9b55e5.html" target="_top" xlink:title="SpatialTree">
<polygon fill="#edf0f7" stroke="#7f7f7f" stroke-dasharray="5,2" points="8,-39 8,-164 190,-164 190,-39 8,-39"/>
<text text-anchor="middle" x="99" y="-152" font-family="Helvetica,sans-Serif" font-size="10.00">SpatialTree</text>
</a>
</g>
</g>
<g id="clust2" class="cluster">
<title>clusterdir_845f765ceb09dbaba6cc19a0421afa33</title>
<g id="a_clust2"><a xlink:href="dir_845f765ceb09dbaba6cc19a0421afa33.html" target="_top">
<polygon fill="#edf0f7" stroke="#404040" stroke-width="2" points="16,-47 16,-137 124,-137 124,-47 16,-47"/>
</a>
</g>
</g>
<!-- dir_25015be572c6167d8a88c49c64178081 -->
<g id="node1" class="node">
<title>dir_25015be572c6167d8a88c49c64178081</title>
<g id="a_node1"><a xlink:href="dir_25015be572c6167d8a88c49c64178081.html" target="_top" xlink:title="Points">
<polygon fill="#a2b4d6" stroke="#404040" points="181.5,-74 134.5,-74 134.5,-55 181.5,-55 181.5,-74"/>
<text text-anchor="middle" x="158" y="-62" font-family="Helvetica,sans-Serif" font-size="10.00">Points</text>
</a>
</g>
</g>
<!-- dir_845f765ceb09dbaba6cc19a0421afa33 -->
<g id="node2" class="node">
<title>dir_845f765ceb09dbaba6cc19a0421afa33</title>
<text text-anchor="middle" x="79" y="-117" font-family="Helvetica,sans-Serif" font-size="10.00">TerrainCells</text>
</g>
<!-- dir_845f765ceb09dbaba6cc19a0421afa33&#45;&gt;dir_25015be572c6167d8a88c49c64178081 -->
<g id="edge1" class="edge">
<title>dir_845f765ceb09dbaba6cc19a0421afa33&#45;&gt;dir_25015be572c6167d8a88c49c64178081</title>
<g id="a_edge1"><a xlink:href="dir_000058_000046.html" target="_top">
<path fill="none" stroke="#63b8ff" d="M91.69,-109.98C103.83,-101.84 122.36,-89.41 136.75,-79.76"/>
<polygon fill="#63b8ff" stroke="#63b8ff" points="138.72,-82.65 145.08,-74.17 134.82,-76.84 138.72,-82.65"/>
</a>
</g>
<g id="a_edge1&#45;headlabel"><a xlink:href="dir_000058_000046.html" target="_top" xlink:title="4">
<text text-anchor="middle" x="137.32" y="-84.51" font-family="Helvetica,sans-Serif" font-size="10.00" fill="#63b8ff">4</text>
</a>
</g>
</g>
<!-- dir_c30f9e8a7d796810c85124a14a036853 -->
<g id="node3" class="node">
<title>dir_c30f9e8a7d796810c85124a14a036853</title>
<g id="a_node3"><a xlink:href="dir_c30f9e8a7d796810c85124a14a036853.html" target="_top" xlink:title="PatchApplicator">
<polygon fill="#a2b4d6" stroke="#404040" points="116,-74 24,-74 24,-55 116,-55 116,-74"/>
<text text-anchor="middle" x="70" y="-62" font-family="Helvetica,sans-Serif" font-size="10.00">PatchApplicator</text>
</a>
</g>
</g>
<!-- dir_845f765ceb09dbaba6cc19a0421afa33&#45;&gt;dir_c30f9e8a7d796810c85124a14a036853 -->
<g id="edge5" class="edge">
<title>dir_845f765ceb09dbaba6cc19a0421afa33&#45;&gt;dir_c30f9e8a7d796810c85124a14a036853</title>
<g id="a_edge5"><a xlink:href="dir_000058_000041.html" target="_top">
<path fill="none" stroke="#63b8ff" d="M77.51,-109.75C76.33,-102.8 74.64,-92.85 73.16,-84.13"/>
<polygon fill="#63b8ff" stroke="#63b8ff" points="76.58,-83.36 71.46,-74.09 69.68,-84.53 76.58,-83.36"/>
</a>
</g>
<g id="a_edge5&#45;headlabel"><a xlink:href="dir_000058_000041.html" target="_top" xlink:title="9">
<text text-anchor="middle" x="79.98" y="-83.93" font-family="Helvetica,sans-Serif" font-size="10.00" fill="#63b8ff">9</text>
</a>
</g>
</g>
<!-- dir_4045643538bad1aadeff61b05dc9bc0d -->
<g id="node5" class="node">
<title>dir_4045643538bad1aadeff61b05dc9bc0d</title>
<g id="a_node5"><a xlink:href="dir_4045643538bad1aadeff61b05dc9bc0d.html" target="_top" xlink:title="Exceptions">
<polygon fill="#edf0f7" stroke="#7f7f7f" points="270,-74 200,-74 200,-55 270,-55 270,-74"/>
<text text-anchor="middle" x="235" y="-62" font-family="Helvetica,sans-Serif" font-size="10.00">Exceptions</text>
</a>
</g>
</g>
<!-- dir_845f765ceb09dbaba6cc19a0421afa33&#45;&gt;dir_4045643538bad1aadeff61b05dc9bc0d -->
<g id="edge2" class="edge">
<title>dir_845f765ceb09dbaba6cc19a0421afa33&#45;&gt;dir_4045643538bad1aadeff61b05dc9bc0d</title>
<g id="a_edge2"><a xlink:href="dir_000058_000010.html" target="_top">
<path fill="none" stroke="#63b8ff" d="M104.06,-109.98C130.03,-101.16 170.81,-87.31 199.96,-77.41"/>
<polygon fill="#63b8ff" stroke="#63b8ff" points="201.4,-80.61 209.74,-74.08 199.15,-73.99 201.4,-80.61"/>
</a>
</g>
<g id="a_edge2&#45;headlabel"><a xlink:href="dir_000058_000010.html" target="_top" xlink:title="2">
<text text-anchor="middle" x="198.91" y="-81.96" font-family="Helvetica,sans-Serif" font-size="10.00" fill="#63b8ff">2</text>
</a>
</g>
</g>
<!-- dir_6d30109d817e3a6d4be9084cc265e05a -->
<g id="node6" class="node">
<title>dir_6d30109d817e3a6d4be9084cc265e05a</title>
<g id="a_node6"><a xlink:href="dir_6d30109d817e3a6d4be9084cc265e05a.html" target="_top" xlink:title="Maths">
<polygon fill="#edf0f7" stroke="red" stroke-dasharray="5,2" points="335.5,-74 288.5,-74 288.5,-55 335.5,-55 335.5,-74"/>
<text text-anchor="middle" x="312" y="-62" font-family="Helvetica,sans-Serif" font-size="10.00">Maths</text>
</a>
</g>
</g>
<!-- dir_845f765ceb09dbaba6cc19a0421afa33&#45;&gt;dir_6d30109d817e3a6d4be9084cc265e05a -->
<g id="edge3" class="edge">
<title>dir_845f765ceb09dbaba6cc19a0421afa33&#45;&gt;dir_6d30109d817e3a6d4be9084cc265e05a</title>
<g id="a_edge3"><a xlink:href="dir_000058_000032.html" target="_top">
<path fill="none" stroke="#63b8ff" d="M116.31,-110.58C154.51,-102.4 215.82,-89.02 278.21,-74.13"/>
<polygon fill="#63b8ff" stroke="#63b8ff" points="279.32,-77.46 288.23,-71.72 277.69,-70.65 279.32,-77.46"/>
</a>
</g>
<g id="a_edge3&#45;headlabel"><a xlink:href="dir_000058_000032.html" target="_top" xlink:title="1">
<text text-anchor="middle" x="276.49" y="-78.56" font-family="Helvetica,sans-Serif" font-size="10.00" fill="#63b8ff">1</text>
</a>
</g>
</g>
<!-- dir_bdb6f255533d67630a72c5b36fc2157a -->
<g id="node7" class="node">
<title>dir_bdb6f255533d67630a72c5b36fc2157a</title>
<g id="a_node7"><a xlink:href="dir_bdb6f255533d67630a72c5b36fc2157a.html" target="_top" xlink:title="TerrainCells">
<polygon fill="#edf0f7" stroke="red" stroke-dasharray="5,2" points="298,-19 224,-19 224,0 298,0 298,-19"/>
<text text-anchor="middle" x="261" y="-7" font-family="Helvetica,sans-Serif" font-size="10.00">TerrainCells</text>
</a>
</g>
</g>
<!-- dir_845f765ceb09dbaba6cc19a0421afa33&#45;&gt;dir_bdb6f255533d67630a72c5b36fc2157a -->
<g id="edge4" class="edge">
<title>dir_845f765ceb09dbaba6cc19a0421afa33&#45;&gt;dir_bdb6f255533d67630a72c5b36fc2157a</title>
<g id="a_edge4"><a xlink:href="dir_000058_000059.html" target="_top">
<path fill="none" stroke="#63b8ff" d="M116.15,-117.95C182.26,-116.1 316.11,-108.13 345,-74 355.05,-62.13 354.06,-51.64 345,-39 336.33,-26.9 322.22,-19.87 308.03,-15.81"/>
<polygon fill="#63b8ff" stroke="#63b8ff" points="308.79,-12.4 298.25,-13.45 307.15,-19.2 308.79,-12.4"/>
</a>
</g>
<g id="a_edge4&#45;headlabel"><a xlink:href="dir_000058_000059.html" target="_top" xlink:title="12">
<text text-anchor="middle" x="312.95" y="-7.98" font-family="Helvetica,sans-Serif" font-size="10.00" fill="#63b8ff">12</text>
</a>
</g>
</g>
<!-- dir_deb6f38fabcacb3d9327502f4723bff5 -->
<g id="node9" class="node">
<title>dir_deb6f38fabcacb3d9327502f4723bff5</title>
<g id="a_node9"><a xlink:href="dir_deb6f38fabcacb3d9327502f4723bff5.html" target="_top" xlink:title="LivingBeings">
<polygon fill="#edf0f7" stroke="red" stroke-dasharray="5,2" points="471.5,-74 392.5,-74 392.5,-55 471.5,-55 471.5,-74"/>
<text text-anchor="middle" x="432" y="-62" font-family="Helvetica,sans-Serif" font-size="10.00">LivingBeings</text>
</a>
</g>
</g>
<!-- dir_845f765ceb09dbaba6cc19a0421afa33&#45;&gt;dir_deb6f38fabcacb3d9327502f4723bff5 -->
<g id="edge6" class="edge">
<title>dir_845f765ceb09dbaba6cc19a0421afa33&#45;&gt;dir_deb6f38fabcacb3d9327502f4723bff5</title>
<g id="a_edge6"><a xlink:href="dir_000058_000028.html" target="_top">
<path fill="none" stroke="#63b8ff" d="M116.31,-113.05C172.9,-104.76 283.84,-88.42 378,-74 379.47,-73.78 380.95,-73.55 382.46,-73.32"/>
<polygon fill="#63b8ff" stroke="#63b8ff" points="383.14,-76.75 392.49,-71.76 382.07,-69.83 383.14,-76.75"/>
</a>
</g>
<g id="a_edge6&#45;headlabel"><a xlink:href="dir_000058_000028.html" target="_top" xlink:title="5">
<text text-anchor="middle" x="380.03" y="-77.61" font-family="Helvetica,sans-Serif" font-size="10.00" fill="#63b8ff">5</text>
</a>
</g>
</g>
<!-- dir_ed435641f8e8047e0f5542c775bc8256 -->
<g id="node10" class="node">
<title>dir_ed435641f8e8047e0f5542c775bc8256</title>
<g id="a_node10"><a xlink:href="dir_ed435641f8e8047e0f5542c775bc8256.html" target="_top" xlink:title="Misc">
<polygon fill="#edf0f7" stroke="red" stroke-dasharray="5,2" points="528.5,-74 489.5,-74 489.5,-55 528.5,-55 528.5,-74"/>
<text text-anchor="middle" x="509" y="-62" font-family="Helvetica,sans-Serif" font-size="10.00">Misc</text>
</a>
</g>
</g>
<!-- dir_845f765ceb09dbaba6cc19a0421afa33&#45;&gt;dir_ed435641f8e8047e0f5542c775bc8256 -->
<g id="edge7" class="edge">
<title>dir_845f765ceb09dbaba6cc19a0421afa33&#45;&gt;dir_ed435641f8e8047e0f5542c775bc8256</title>
<g id="a_edge7"><a xlink:href="dir_000058_000033.html" target="_top">
<path fill="none" stroke="#63b8ff" d="M116.21,-116.68C185.92,-112.77 340.93,-101.75 479.3,-74.02"/>
<polygon fill="#63b8ff" stroke="#63b8ff" points="480.13,-77.42 489.23,-71.99 478.73,-70.56 480.13,-77.42"/>
</a>
</g>
<g id="a_edge7&#45;headlabel"><a xlink:href="dir_000058_000033.html" target="_top" xlink:title="1">
<text text-anchor="middle" x="477.18" y="-78.42" font-family="Helvetica,sans-Serif" font-size="10.00" fill="#63b8ff">1</text>
</a>
</g>
</g>
<!-- dir_fe2315cfed866a6b02d6c74118be6618 -->
<g id="node11" class="node">
<title>dir_fe2315cfed866a6b02d6c74118be6618</title>
<g id="a_node11"><a xlink:href="dir_fe2315cfed866a6b02d6c74118be6618.html" target="_top" xlink:title="Points">
<polygon fill="#edf0f7" stroke="#7f7f7f" points="593.5,-74 546.5,-74 546.5,-55 593.5,-55 593.5,-74"/>
<text text-anchor="middle" x="570" y="-62" font-family="Helvetica,sans-Serif" font-size="10.00">Points</text>
</a>
</g>
</g>
<!-- dir_845f765ceb09dbaba6cc19a0421afa33&#45;&gt;dir_fe2315cfed866a6b02d6c74118be6618 -->
<g id="edge8" class="edge">
<title>dir_845f765ceb09dbaba6cc19a0421afa33&#45;&gt;dir_fe2315cfed866a6b02d6c74118be6618</title>
<g id="a_edge8"><a xlink:href="dir_000058_000045.html" target="_top">
<path fill="none" stroke="#63b8ff" d="M116.17,-116.95C193.03,-113.31 375.11,-102.41 536.24,-74.05"/>
<polygon fill="#63b8ff" stroke="#63b8ff" points="537.1,-77.45 546.33,-72.25 535.87,-70.56 537.1,-77.45"/>
</a>
</g>
<g id="a_edge8&#45;headlabel"><a xlink:href="dir_000058_000045.html" target="_top" xlink:title="1">
<text text-anchor="middle" x="534.06" y="-78.38" font-family="Helvetica,sans-Serif" font-size="10.00" fill="#63b8ff">1</text>
</a>
</g>
</g>
<!-- dir_017facbfd39d2f00dec237be0066268e -->
<g id="node4" class="node">
<title>dir_017facbfd39d2f00dec237be0066268e</title>
<g id="a_node4"><a xlink:href="dir_017facbfd39d2f00dec237be0066268e.html" target="_top" xlink:title="Patches">
<polygon fill="#edf0f7" stroke="red" stroke-dasharray="5,2" points="58,-19 4,-19 4,0 58,0 58,-19"/>
<text text-anchor="middle" x="31" y="-7" font-family="Helvetica,sans-Serif" font-size="10.00">Patches</text>
</a>
</g>
</g>
<!-- dir_c30f9e8a7d796810c85124a14a036853&#45;&gt;dir_017facbfd39d2f00dec237be0066268e -->
<g id="edge9" class="edge">
<title>dir_c30f9e8a7d796810c85124a14a036853&#45;&gt;dir_017facbfd39d2f00dec237be0066268e</title>
<g id="a_edge9"><a xlink:href="dir_000041_000043.html" target="_top">
<path fill="none" stroke="#63b8ff" d="M63.56,-54.75C58.11,-47.34 50.14,-36.5 43.44,-27.41"/>
<polygon fill="#63b8ff" stroke="#63b8ff" points="46.07,-25.07 37.32,-19.09 40.43,-29.22 46.07,-25.07"/>
</a>
</g>
<g id="a_edge9&#45;headlabel"><a xlink:href="dir_000041_000043.html" target="_top" xlink:title="2">
<text text-anchor="middle" x="50.48" y="-23.78" font-family="Helvetica,sans-Serif" font-size="10.00" fill="#63b8ff">2</text>
</a>
</g>
</g>
<!-- dir_c30f9e8a7d796810c85124a14a036853&#45;&gt;dir_bdb6f255533d67630a72c5b36fc2157a -->
<g id="edge10" class="edge">
<title>dir_c30f9e8a7d796810c85124a14a036853&#45;&gt;dir_bdb6f255533d67630a72c5b36fc2157a</title>
<g id="a_edge10"><a xlink:href="dir_000041_000059.html" target="_top">
<path fill="none" stroke="#63b8ff" d="M84.89,-54.95C94.61,-49.68 107.74,-43.17 120,-39 150.4,-28.67 185.83,-21.53 213.57,-16.98"/>
<polygon fill="#63b8ff" stroke="#63b8ff" points="214.47,-20.38 223.8,-15.36 213.38,-13.46 214.47,-20.38"/>
</a>
</g>
<g id="a_edge10&#45;headlabel"><a xlink:href="dir_000041_000059.html" target="_top" xlink:title="10">
<text text-anchor="middle" x="211.36" y="-21.24" font-family="Helvetica,sans-Serif" font-size="10.00" fill="#63b8ff">10</text>
</a>
</g>
</g>
<!-- dir_c87c7e4d4fdad4f97d517f6e37fa3d03 -->
<g id="node8" class="node">
<title>dir_c87c7e4d4fdad4f97d517f6e37fa3d03</title>
<g id="a_node8"><a xlink:href="dir_c87c7e4d4fdad4f97d517f6e37fa3d03.html" target="_top" xlink:title="Geometry">
<polygon fill="#edf0f7" stroke="#7f7f7f" points="141.5,-19 76.5,-19 76.5,0 141.5,0 141.5,-19"/>
<text text-anchor="middle" x="109" y="-7" font-family="Helvetica,sans-Serif" font-size="10.00">Geometry</text>
</a>
</g>
</g>
<!-- dir_c30f9e8a7d796810c85124a14a036853&#45;&gt;dir_c87c7e4d4fdad4f97d517f6e37fa3d03 -->
<g id="edge11" class="edge">
<title>dir_c30f9e8a7d796810c85124a14a036853&#45;&gt;dir_c87c7e4d4fdad4f97d517f6e37fa3d03</title>
<g id="a_edge11"><a xlink:href="dir_000041_000013.html" target="_top">
<path fill="none" stroke="#63b8ff" d="M76.44,-54.75C81.89,-47.34 89.86,-36.5 96.56,-27.41"/>
<polygon fill="#63b8ff" stroke="#63b8ff" points="99.57,-29.22 102.68,-19.09 93.93,-25.07 99.57,-29.22"/>
</a>
</g>
<g id="a_edge11&#45;headlabel"><a xlink:href="dir_000041_000013.html" target="_top" xlink:title="2">
<text text-anchor="middle" x="99.73" y="-31.3" font-family="Helvetica,sans-Serif" font-size="10.00" fill="#63b8ff">2</text>
</a>
</g>
</g>
</g>
</svg>
