<?xml version="1.0" encoding="UTF-8" standalone="no"?>
<!DOCTYPE svg PUBLIC "-//W3C//DTD SVG 1.1//EN"
 "http://www.w3.org/Graphics/SVG/1.1/DTD/svg11.dtd">
<!-- Generated by graphviz version 2.43.0 (0)
 -->
<!-- Title: Graphical Class Hierarchy Pages: 1 -->
<svg width="157pt" height="249pt"
 viewBox="0.00 0.00 157.00 249.00" xmlns="http://www.w3.org/2000/svg" xmlns:xlink="http://www.w3.org/1999/xlink">
<g id="graph0" class="graph" transform="scale(1 1) rotate(0) translate(4 245)">
<title>Graphical Class Hierarchy</title>
<!-- Node0 -->
<g id="Node000000" class="node">
<title>Node0</title>
<g id="a_Node000000"><a xlink:href="classElement.html" target="_top" xlink:title="Abstract base class for elements that can be validated and accessed in a configuration.">
<polygon fill="white" stroke="#666666" points="57,-130 0,-130 0,-111 57,-111 57,-130"/>
<text text-anchor="middle" x="28.5" y="-118" font-family="Helvetica,sans-Serif" font-size="10.00">Element</text>
</a>
</g>
</g>
<!-- Node1 -->
<g id="Node000001" class="node">
<title>Node1</title>
<g id="a_Node000001"><a xlink:href="classArray.html" target="_top" xlink:title="Represents an array element in a JSON configuration.">
<polygon fill="white" stroke="#666666" points="142.5,-241 99.5,-241 99.5,-222 142.5,-222 142.5,-241"/>
<text text-anchor="middle" x="121" y="-229" font-family="Helvetica,sans-Serif" font-size="10.00">Array</text>
</a>
</g>
</g>
<!-- Node0&#45;&gt;Node1 -->
<g id="edge37_Node000000_Node000001" class="edge">
<title>Node0&#45;&gt;Node1</title>
<g id="a_edge37_Node000000_Node000001"><a xlink:title=" ">
<path fill="none" stroke="#63b8ff" d="M39.32,-139.07C50.49,-159.03 70.17,-190.92 93,-213.5 96.12,-216.59 99.85,-219.47 103.52,-221.98"/>
<polygon fill="#63b8ff" stroke="#63b8ff" points="42.28,-137.18 34.42,-130.08 36.14,-140.54 42.28,-137.18"/>
</a>
</g>
</g>
<!-- Node2 -->
<g id="Node000002" class="node">
<title>Node2</title>
<g id="a_Node000002"><a xlink:href="classBoolean.html" target="_top" xlink:title="Represents a boolean element in a JSON configuration.">
<polygon fill="white" stroke="#666666" points="149,-204 93,-204 93,-185 149,-185 149,-204"/>
<text text-anchor="middle" x="121" y="-192" font-family="Helvetica,sans-Serif" font-size="10.00">Boolean</text>
</a>
</g>
</g>
<!-- Node0&#45;&gt;Node2 -->
<g id="edge38_Node000000_Node000002" class="edge">
<title>Node0&#45;&gt;Node2</title>
<g id="a_edge38_Node000000_Node000002"><a xlink:title=" ">
<path fill="none" stroke="#63b8ff" d="M46.9,-136.98C59.36,-148.51 76.75,-164.01 93,-176.5 96.75,-179.38 100.95,-182.31 104.89,-184.95"/>
<polygon fill="#63b8ff" stroke="#63b8ff" points="49.17,-134.32 39.48,-130.06 44.4,-139.44 49.17,-134.32"/>
</a>
</g>
</g>
<!-- Node3 -->
<g id="Node000003" class="node">
<title>Node3</title>
<g id="a_Node000003"><a xlink:href="classInteger.html" target="_top" xlink:title="Represents an integer element in a JSON configuration.">
<polygon fill="white" stroke="#666666" points="146.5,-167 95.5,-167 95.5,-148 146.5,-148 146.5,-167"/>
<text text-anchor="middle" x="121" y="-155" font-family="Helvetica,sans-Serif" font-size="10.00">Integer</text>
</a>
</g>
</g>
<!-- Node0&#45;&gt;Node3 -->
<g id="edge39_Node000000_Node000003" class="edge">
<title>Node0&#45;&gt;Node3</title>
<g id="a_edge39_Node000000_Node000003"><a xlink:title=" ">
<path fill="none" stroke="#63b8ff" d="M62.36,-133.94C73.65,-138.55 86.06,-143.62 96.46,-147.88"/>
<polygon fill="#63b8ff" stroke="#63b8ff" points="63.39,-130.57 52.81,-130.03 60.74,-137.05 63.39,-130.57"/>
</a>
</g>
</g>
<!-- Node4 -->
<g id="Node000004" class="node">
<title>Node4</title>
<g id="a_Node000004"><a xlink:href="classNumber.html" target="_top" xlink:title="Represents a floating&#45;point number element in a JSON configuration.">
<polygon fill="white" stroke="#666666" points="149,-130 93,-130 93,-111 149,-111 149,-130"/>
<text text-anchor="middle" x="121" y="-118" font-family="Helvetica,sans-Serif" font-size="10.00">Number</text>
</a>
</g>
</g>
<!-- Node0&#45;&gt;Node4 -->
<g id="edge40_Node000000_Node000004" class="edge">
<title>Node0&#45;&gt;Node4</title>
<g id="a_edge40_Node000000_Node000004"><a xlink:title=" ">
<path fill="none" stroke="#63b8ff" d="M67.32,-120.5C75.89,-120.5 84.81,-120.5 92.84,-120.5"/>
<polygon fill="#63b8ff" stroke="#63b8ff" points="67.14,-117 57.14,-120.5 67.14,-124 67.14,-117"/>
</a>
</g>
</g>
<!-- Node5 -->
<g id="Node000005" class="node">
<title>Node5</title>
<g id="a_Node000005"><a xlink:href="classObject.html" target="_top" xlink:title="Represents a JSON object element with nested properties and conditional rules.">
<polygon fill="white" stroke="#666666" points="145,-93 97,-93 97,-74 145,-74 145,-93"/>
<text text-anchor="middle" x="121" y="-81" font-family="Helvetica,sans-Serif" font-size="10.00">Object</text>
</a>
</g>
</g>
<!-- Node0&#45;&gt;Node5 -->
<g id="edge41_Node000000_Node000005" class="edge">
<title>Node0&#45;&gt;Node5</title>
<g id="a_edge41_Node000000_Node000005"><a xlink:title=" ">
<path fill="none" stroke="#63b8ff" d="M62.1,-107.17C73.57,-102.48 86.23,-97.31 96.77,-93"/>
<polygon fill="#63b8ff" stroke="#63b8ff" points="60.74,-103.95 52.81,-110.97 63.39,-110.43 60.74,-103.95"/>
</a>
</g>
</g>
<!-- Node6 -->
<g id="Node000006" class="node">
<title>Node6</title>
<g id="a_Node000006"><a xlink:href="classString.html" target="_top" xlink:title="Represents a string&#45;type element in the JSON schema validation system.">
<polygon fill="white" stroke="#666666" points="143.5,-56 98.5,-56 98.5,-37 143.5,-37 143.5,-56"/>
<text text-anchor="middle" x="121" y="-44" font-family="Helvetica,sans-Serif" font-size="10.00">String</text>
</a>
</g>
</g>
<!-- Node0&#45;&gt;Node6 -->
<g id="edge42_Node000000_Node000006" class="edge">
<title>Node0&#45;&gt;Node6</title>
<g id="a_edge42_Node000000_Node000006"><a xlink:title=" ">
<path fill="none" stroke="#63b8ff" d="M47.48,-104.07C59.98,-92.87 77.16,-77.88 93,-65.5 97.06,-62.32 101.61,-59.03 105.79,-56.1"/>
<polygon fill="#63b8ff" stroke="#63b8ff" points="45.08,-101.52 40.01,-110.82 49.78,-106.71 45.08,-101.52"/>
</a>
</g>
</g>
<!-- Node7 -->
<g id="Node000007" class="node">
<title>Node7</title>
<g id="a_Node000007"><a xlink:href="classTuple.html" target="_top" xlink:title="Represents a JSON Schema tuple&#45;type element with position&#45;dependent validation.">
<polygon fill="white" stroke="#666666" points="142,-19 100,-19 100,0 142,0 142,-19"/>
<text text-anchor="middle" x="121" y="-7" font-family="Helvetica,sans-Serif" font-size="10.00">Tuple</text>
</a>
</g>
</g>
<!-- Node0&#45;&gt;Node7 -->
<g id="edge43_Node000000_Node000007" class="edge">
<title>Node0&#45;&gt;Node7</title>
<g id="a_edge43_Node000000_Node000007"><a xlink:title=" ">
<path fill="none" stroke="#63b8ff" d="M39.65,-101.94C50.98,-82.27 70.68,-51.02 93,-28.5 96.39,-25.08 100.46,-21.86 104.4,-19.07"/>
<polygon fill="#63b8ff" stroke="#63b8ff" points="36.51,-100.38 34.66,-110.81 42.61,-103.81 36.51,-100.38"/>
</a>
</g>
</g>
</g>
</svg>
