<?xml version="1.0" encoding="UTF-8" standalone="no"?>
<!DOCTYPE svg PUBLIC "-//W3C//DTD SVG 1.1//EN"
 "http://www.w3.org/Graphics/SVG/1.1/DTD/svg11.dtd">
<!-- Generated by graphviz version 2.43.0 (0)
 -->
<!-- Title: /home/runner/work/Weaver/Weaver/include/App/Model/IBM/Landscape/Map/SpatialTree/Points/PointSpatialTree.h Pages: 1 -->
<!--zoomable 247 -->

<svg id="main" version="1.1" xmlns="http://www.w3.org/2000/svg" xmlns:xlink="http://www.w3.org/1999/xlink" xml:space="preserve" onload="init(evt)">
<style type="text/css"><![CDATA[
.node, .edge {opacity: 0.7;}
.node.selected, .edge.selected {opacity: 1;}
.edge:hover path { stroke: red; }
.edge:hover polygon { stroke: red; fill: red; }
]]></style>

<defs>
  <circle id="rim" cx="0" cy="0" r="7"/>
  <circle id="rim2" cx="0" cy="0" r="3.5"/>
  <g id="zoomPlus">
    <use xlink:href="#rim" fill="#404040"><set attributeName="fill" to="#808080" begin="zoomplus.mouseover" end="zoomplus.mouseout"/></use>
    <path d="M-4,0h8M0,-4v8" fill="none" stroke="white" stroke-width="1.5" pointer-events="none"/>
  </g>
  <g id="zoomMin">
    <use xlink:href="#rim" fill="#404040"><set attributeName="fill" to="#808080" begin="zoomminus.mouseover" end="zoomminus.mouseout"/></use>
    <path d="M-4,0h8" fill="none" stroke="white" stroke-width="1.5" pointer-events="none"/>
  </g>
  <g id="arrowUp" transform="translate(30 24)">
    <use xlink:href="#rim"/>
    <path pointer-events="none" fill="none" stroke="white" stroke-width="1.5" d="M0,-3.0v7 M-2.5,-0.5L0,-3.0L2.5,-0.5"/>
  </g>
  <g id="arrowRight" transform="rotate(90) translate(36 -43)">
    <use xlink:href="#rim"/>
    <path pointer-events="none" fill="none" stroke="white" stroke-width="1.5" d="M0,-3.0v7 M-2.5,-0.5L0,-3.0L2.5,-0.5"/>
  </g>
  <g id="arrowDown" transform="rotate(180) translate(-30 -48)">
    <use xlink:href="#rim"/>
    <path pointer-events="none" fill="none" stroke="white" stroke-width="1.5" d="M0,-3.0v7 M-2.5,-0.5L0,-3.0L2.5,-0.5"/>
  </g>
  <g id="arrowLeft" transform="rotate(270) translate(-36 17)">
    <use xlink:href="#rim"/>
    <path pointer-events="none" fill="none" stroke="white" stroke-width="1.5" d="M0,-3.0v7 M-2.5,-0.5L0,-3.0L2.5,-0.5"/>
  </g>
  <g id="resetDef">
    <use xlink:href="#rim2" fill="#404040"><set attributeName="fill" to="#808080" begin="reset.mouseover" end="reset.mouseout"/></use>
  </g>
</defs>
<script type="application/ecmascript">
var viewWidth = 1298;
var viewHeight = 247;
var sectionId = 'dynsection-0';
</script>
<script type="application/ecmascript" xlink:href="svg.min.js"/>
<svg id="graph" class="graph">
<g id="viewport">
<title>/home/runner/work/Weaver/Weaver/include/App/Model/IBM/Landscape/Map/SpatialTree/Points/PointSpatialTree.h</title>
<!-- Node1 -->
<g id="Node000001" class="node">
<title>Node1</title>
<g id="a_Node000001"><a xlink:title="Defines the PointSpatialTree class for representing spatial tree coordinates.">
<polygon fill="#999999" stroke="#666666" points="681.5,-239 507.5,-239 507.5,-187 681.5,-187 681.5,-239"/>
<text text-anchor="start" x="515.5" y="-227" font-family="Helvetica,sans-Serif" font-size="10.00">/home/runner/work/Weaver</text>
<text text-anchor="start" x="515.5" y="-216" font-family="Helvetica,sans-Serif" font-size="10.00">/Weaver/include/App/Model</text>
<text text-anchor="start" x="515.5" y="-205" font-family="Helvetica,sans-Serif" font-size="10.00">/IBM/Landscape/Map/SpatialTree</text>
<text text-anchor="middle" x="594.5" y="-194" font-family="Helvetica,sans-Serif" font-size="10.00">/Points/PointSpatialTree.h</text>
</a>
</g>
</g>
<!-- Node2 -->
<g id="Node000002" class="node">
<title>Node2</title>
<g id="a_Node000002"><a xlink:title=" ">
<polygon fill="#e0e0e0" stroke="#999999" points="47,-79.5 0,-79.5 0,-60.5 47,-60.5 47,-79.5"/>
<text text-anchor="middle" x="23.5" y="-67.5" font-family="Helvetica,sans-Serif" font-size="10.00">vector</text>
</a>
</g>
</g>
<!-- Node1&#45;&gt;Node2 -->
<g id="edge1_Node000001_Node000002" class="edge">
<title>Node1&#45;&gt;Node2</title>
<g id="a_edge1_Node000001_Node000002"><a xlink:title=" ">
<path fill="none" stroke="#63b8ff" d="M507.3,-199.7C438.62,-189.19 340.74,-172.39 256.5,-151 165.77,-127.96 144.1,-117.97 56.5,-85 55.12,-84.48 53.71,-83.93 52.28,-83.38"/>
<polygon fill="#63b8ff" stroke="#63b8ff" points="53.52,-80.1 42.94,-79.56 50.87,-86.58 53.52,-80.1"/>
</a>
</g>
</g>
<!-- Node3 -->
<g id="Node000003" class="node">
<title>Node3</title>
<g id="a_Node000003"><a xlink:title=" ">
<polygon fill="#e0e0e0" stroke="#999999" points="125.5,-79.5 65.5,-79.5 65.5,-60.5 125.5,-60.5 125.5,-79.5"/>
<text text-anchor="middle" x="95.5" y="-67.5" font-family="Helvetica,sans-Serif" font-size="10.00">iostream</text>
</a>
</g>
</g>
<!-- Node1&#45;&gt;Node3 -->
<g id="edge2_Node000001_Node000003" class="edge">
<title>Node1&#45;&gt;Node3</title>
<g id="a_edge2_Node000001_Node000003"><a xlink:title=" ">
<path fill="none" stroke="#63b8ff" d="M507.45,-190.05C414.52,-166.14 263.23,-125.81 134.5,-85 132.38,-84.33 130.21,-83.62 128.02,-82.88"/>
<polygon fill="#63b8ff" stroke="#63b8ff" points="129.09,-79.55 118.5,-79.58 126.8,-86.16 129.09,-79.55"/>
</a>
</g>
</g>
<!-- Node4 -->
<g id="Node000004" class="node">
<title>Node4</title>
<g id="a_Node000004"><a xlink:title=" ">
<polygon fill="#e0e0e0" stroke="#999999" points="831,-151 724,-151 724,-121 831,-121 831,-151"/>
<text text-anchor="start" x="732" y="-139" font-family="Helvetica,sans-Serif" font-size="10.00">boost/serialization</text>
<text text-anchor="middle" x="777.5" y="-128" font-family="Helvetica,sans-Serif" font-size="10.00">/export.hpp</text>
</a>
</g>
</g>
<!-- Node1&#45;&gt;Node4 -->
<g id="edge3_Node000001_Node000004" class="edge">
<title>Node1&#45;&gt;Node4</title>
<g id="a_edge3_Node000001_Node000004"><a xlink:title=" ">
<path fill="none" stroke="#63b8ff" d="M655.69,-186.92C681.35,-176.4 710.6,-164.42 734,-154.83"/>
<polygon fill="#63b8ff" stroke="#63b8ff" points="735.39,-158.04 743.32,-151.01 732.74,-151.56 735.39,-158.04"/>
</a>
</g>
</g>
<!-- Node5 -->
<g id="Node000005" class="node">
<title>Node5</title>
<g id="a_Node000005"><a xlink:href="PointMap_8h.html" target="_top" xlink:title="Defines the PointMap class for discrete points in a Map.">
<polygon fill="white" stroke="#666666" points="667,-151 522,-151 522,-121 667,-121 667,-151"/>
<text text-anchor="start" x="530" y="-139" font-family="Helvetica,sans-Serif" font-size="10.00">App/Model/IBM/Landscape</text>
<text text-anchor="middle" x="594.5" y="-128" font-family="Helvetica,sans-Serif" font-size="10.00">/Map/Points/PointMap.h</text>
</a>
</g>
</g>
<!-- Node1&#45;&gt;Node5 -->
<g id="edge4_Node000001_Node000005" class="edge">
<title>Node1&#45;&gt;Node5</title>
<g id="a_edge4_Node000001_Node000005"><a xlink:title=" ">
<path fill="none" stroke="#63b8ff" d="M594.5,-186.61C594.5,-178.54 594.5,-169.64 594.5,-161.63"/>
<polygon fill="#63b8ff" stroke="#63b8ff" points="598,-161.43 594.5,-151.43 591,-161.43 598,-161.43"/>
</a>
</g>
</g>
<!-- Node13 -->
<g id="Node000013" class="node">
<title>Node13</title>
<g id="a_Node000013"><a xlink:href="Axis_8h.html" target="_top" xlink:title="Defines the Axis enum for 3D spatial directions.">
<polygon fill="white" stroke="#666666" points="1290,-85 1145,-85 1145,-55 1290,-55 1290,-85"/>
<text text-anchor="start" x="1153" y="-73" font-family="Helvetica,sans-Serif" font-size="10.00">App/Model/IBM/Landscape</text>
<text text-anchor="middle" x="1217.5" y="-62" font-family="Helvetica,sans-Serif" font-size="10.00">/Map/Points/Axis.h</text>
</a>
</g>
</g>
<!-- Node1&#45;&gt;Node13 -->
<g id="edge18_Node000001_Node000013" class="edge">
<title>Node1&#45;&gt;Node13</title>
<g id="a_edge18_Node000001_Node000013"><a xlink:title=" ">
<path fill="none" stroke="#63b8ff" d="M628.5,-186.9C643.29,-175.93 660.79,-162.88 676.5,-151 693.94,-137.81 695.13,-128.97 715.5,-121 881.32,-56.14 937.57,-105 1114.5,-85 1121.13,-84.25 1127.99,-83.43 1134.87,-82.56"/>
<polygon fill="#63b8ff" stroke="#63b8ff" points="1135.48,-86.01 1144.96,-81.28 1134.6,-79.07 1135.48,-86.01"/>
</a>
</g>
</g>
<!-- Node5&#45;&gt;Node2 -->
<g id="edge7_Node000005_Node000002" class="edge">
<title>Node5&#45;&gt;Node2</title>
<g id="a_edge7_Node000005_Node000002"><a xlink:title=" ">
<path fill="none" stroke="#63b8ff" d="M521.95,-135.29C417.48,-134.14 219.32,-126.05 56.5,-85 54.55,-84.51 52.57,-83.92 50.6,-83.27"/>
<polygon fill="#63b8ff" stroke="#63b8ff" points="51.55,-79.88 40.96,-79.59 49.06,-86.42 51.55,-79.88"/>
</a>
</g>
</g>
<!-- Node5&#45;&gt;Node3 -->
<g id="edge8_Node000005_Node000003" class="edge">
<title>Node5&#45;&gt;Node3</title>
<g id="a_edge8_Node000005_Node000003"><a xlink:title=" ">
<path fill="none" stroke="#63b8ff" d="M522,-129.22C411.53,-120.06 206.32,-101.55 134.5,-85 131.83,-84.39 129.09,-83.64 126.37,-82.83"/>
<polygon fill="#63b8ff" stroke="#63b8ff" points="127.28,-79.44 116.68,-79.63 125.08,-86.09 127.28,-79.44"/>
</a>
</g>
</g>
<!-- Node6 -->
<g id="Node000006" class="node">
<title>Node6</title>
<g id="a_Node000006"><a xlink:title=" ">
<polygon fill="#e0e0e0" stroke="#999999" points="730.5,-19 686.5,-19 686.5,0 730.5,0 730.5,-19"/>
<text text-anchor="middle" x="708.5" y="-7" font-family="Helvetica,sans-Serif" font-size="10.00">string</text>
</a>
</g>
</g>
<!-- Node5&#45;&gt;Node6 -->
<g id="edge5_Node000005_Node000006" class="edge">
<title>Node5&#45;&gt;Node6</title>
<g id="a_edge5_Node000005_Node000006"><a xlink:title=" ">
<path fill="none" stroke="#63b8ff" d="M667.07,-122.91C671.95,-122.23 676.79,-121.58 681.5,-121 727.54,-115.31 1066.14,-119.19 1097.5,-85 1106.51,-75.17 1106.38,-64.95 1097.5,-55 1073.86,-28.5 829.53,-15.61 740.63,-11.77"/>
<polygon fill="#63b8ff" stroke="#63b8ff" points="740.72,-8.27 730.58,-11.35 740.42,-15.26 740.72,-8.27"/>
</a>
</g>
</g>
<!-- Node7 -->
<g id="Node000007" class="node">
<title>Node7</title>
<g id="a_Node000007"><a xlink:title=" ">
<polygon fill="#e0e0e0" stroke="#999999" points="498,-79.5 331,-79.5 331,-60.5 498,-60.5 498,-79.5"/>
<text text-anchor="middle" x="414.5" y="-67.5" font-family="Helvetica,sans-Serif" font-size="10.00">magic_enum/magic_enum.hpp</text>
</a>
</g>
</g>
<!-- Node5&#45;&gt;Node7 -->
<g id="edge6_Node000005_Node000007" class="edge">
<title>Node5&#45;&gt;Node7</title>
<g id="a_edge6_Node000005_Node000007"><a xlink:title=" ">
<path fill="none" stroke="#63b8ff" d="M555,-120.95C523.01,-109.58 478.45,-93.74 448.15,-82.96"/>
<polygon fill="#63b8ff" stroke="#63b8ff" points="449.05,-79.57 438.45,-79.52 446.7,-86.17 449.05,-79.57"/>
</a>
</g>
</g>
<!-- Node8 -->
<g id="Node000008" class="node">
<title>Node8</title>
<g id="a_Node000008"><a xlink:title=" ">
<polygon fill="#e0e0e0" stroke="#999999" points="573.5,-79.5 515.5,-79.5 515.5,-60.5 573.5,-60.5 573.5,-79.5"/>
<text text-anchor="middle" x="544.5" y="-67.5" font-family="Helvetica,sans-Serif" font-size="10.00">memory</text>
</a>
</g>
</g>
<!-- Node5&#45;&gt;Node8 -->
<g id="edge9_Node000005_Node000008" class="edge">
<title>Node5&#45;&gt;Node8</title>
<g id="a_edge9_Node000005_Node000008"><a xlink:title=" ">
<path fill="none" stroke="#63b8ff" d="M583.4,-120.8C575.84,-111.11 565.78,-98.24 557.79,-88.01"/>
<polygon fill="#63b8ff" stroke="#63b8ff" points="560.32,-85.57 551.41,-79.84 554.81,-89.88 560.32,-85.57"/>
</a>
</g>
</g>
<!-- Node9 -->
<g id="Node000009" class="node">
<title>Node9</title>
<g id="a_Node000009"><a xlink:title=" ">
<polygon fill="#e0e0e0" stroke="#999999" points="697,-85 592,-85 592,-55 697,-55 697,-85"/>
<text text-anchor="start" x="600" y="-73" font-family="Helvetica,sans-Serif" font-size="10.00">boost/archive/text</text>
<text text-anchor="middle" x="644.5" y="-62" font-family="Helvetica,sans-Serif" font-size="10.00">_iarchive.hpp</text>
</a>
</g>
</g>
<!-- Node5&#45;&gt;Node9 -->
<g id="edge10_Node000005_Node000009" class="edge">
<title>Node5&#45;&gt;Node9</title>
<g id="a_edge10_Node000005_Node000009"><a xlink:title=" ">
<path fill="none" stroke="#63b8ff" d="M605.6,-120.8C611.94,-112.68 620.04,-102.31 627.2,-93.15"/>
<polygon fill="#63b8ff" stroke="#63b8ff" points="630.04,-95.2 633.43,-85.16 624.52,-90.89 630.04,-95.2"/>
</a>
</g>
</g>
<!-- Node10 -->
<g id="Node000010" class="node">
<title>Node10</title>
<g id="a_Node000010"><a xlink:title=" ">
<polygon fill="#e0e0e0" stroke="#999999" points="820,-85 715,-85 715,-55 820,-55 820,-85"/>
<text text-anchor="start" x="723" y="-73" font-family="Helvetica,sans-Serif" font-size="10.00">boost/archive/text</text>
<text text-anchor="middle" x="767.5" y="-62" font-family="Helvetica,sans-Serif" font-size="10.00">_oarchive.hpp</text>
</a>
</g>
</g>
<!-- Node5&#45;&gt;Node10 -->
<g id="edge11_Node000005_Node000010" class="edge">
<title>Node5&#45;&gt;Node10</title>
<g id="a_edge11_Node000005_Node000010"><a xlink:title=" ">
<path fill="none" stroke="#63b8ff" d="M632.47,-120.95C658.27,-111.41 692.59,-98.71 720.17,-88.51"/>
<polygon fill="#63b8ff" stroke="#63b8ff" points="721.46,-91.76 729.62,-85.01 719.03,-85.2 721.46,-91.76"/>
</a>
</g>
</g>
<!-- Node11 -->
<g id="Node000011" class="node">
<title>Node11</title>
<g id="a_Node000011"><a xlink:title=" ">
<polygon fill="#e0e0e0" stroke="#999999" points="954.5,-85 838.5,-85 838.5,-55 954.5,-55 954.5,-85"/>
<text text-anchor="start" x="846.5" y="-73" font-family="Helvetica,sans-Serif" font-size="10.00">boost/archive/binary</text>
<text text-anchor="middle" x="896.5" y="-62" font-family="Helvetica,sans-Serif" font-size="10.00">_iarchive.hpp</text>
</a>
</g>
</g>
<!-- Node5&#45;&gt;Node11 -->
<g id="edge12_Node000005_Node000011" class="edge">
<title>Node5&#45;&gt;Node11</title>
<g id="a_edge12_Node000005_Node000011"><a xlink:title=" ">
<path fill="none" stroke="#63b8ff" d="M660.78,-120.95C710.32,-110.46 777.85,-96.14 827.94,-85.53"/>
<polygon fill="#63b8ff" stroke="#63b8ff" points="828.98,-88.89 838.03,-83.39 827.52,-82.04 828.98,-88.89"/>
</a>
</g>
</g>
<!-- Node12 -->
<g id="Node000012" class="node">
<title>Node12</title>
<g id="a_Node000012"><a xlink:title=" ">
<polygon fill="#e0e0e0" stroke="#999999" points="1088.5,-85 972.5,-85 972.5,-55 1088.5,-55 1088.5,-85"/>
<text text-anchor="start" x="980.5" y="-73" font-family="Helvetica,sans-Serif" font-size="10.00">boost/archive/binary</text>
<text text-anchor="middle" x="1030.5" y="-62" font-family="Helvetica,sans-Serif" font-size="10.00">_oarchive.hpp</text>
</a>
</g>
</g>
<!-- Node5&#45;&gt;Node12 -->
<g id="edge13_Node000005_Node000012" class="edge">
<title>Node5&#45;&gt;Node12</title>
<g id="a_edge13_Node000005_Node000012"><a xlink:title=" ">
<path fill="none" stroke="#63b8ff" d="M667.1,-123.14C671.97,-122.4 676.81,-121.68 681.5,-121 803.38,-103.42 837.19,-105.8 962.47,-85.09"/>
<polygon fill="#63b8ff" stroke="#63b8ff" points="963.16,-88.52 972.45,-83.42 962.01,-81.62 963.16,-88.52"/>
</a>
</g>
</g>
<!-- Node5&#45;&gt;Node13 -->
<g id="edge14_Node000005_Node000013" class="edge">
<title>Node5&#45;&gt;Node13</title>
<g id="a_edge14_Node000005_Node000013"><a xlink:title=" ">
<path fill="none" stroke="#63b8ff" d="M667.07,-122.88C671.95,-122.2 676.79,-121.57 681.5,-121 880.26,-97.08 931.74,-108.92 1130.5,-85 1131.97,-84.82 1133.46,-84.64 1134.95,-84.45"/>
<polygon fill="#63b8ff" stroke="#63b8ff" points="1135.48,-87.91 1144.93,-83.12 1134.56,-80.97 1135.48,-87.91"/>
</a>
</g>
</g>
<!-- Node14 -->
<g id="Node000014" class="node">
<title>Node14</title>
<g id="a_Node000014"><a xlink:href="LineInfoException_8h.html" target="_top" xlink:title="Exception class with detailed file and line information for error reporting.">
<polygon fill="white" stroke="#666666" points="313,-79.5 144,-79.5 144,-60.5 313,-60.5 313,-79.5"/>
<text text-anchor="middle" x="228.5" y="-67.5" font-family="Helvetica,sans-Serif" font-size="10.00">Exceptions/LineInfoException.h</text>
</a>
</g>
</g>
<!-- Node5&#45;&gt;Node14 -->
<g id="edge15_Node000005_Node000014" class="edge">
<title>Node5&#45;&gt;Node14</title>
<g id="a_edge15_Node000005_Node000014"><a xlink:title=" ">
<path fill="none" stroke="#63b8ff" d="M521.75,-122.28C452.89,-110.24 350.82,-92.39 287.05,-81.24"/>
<polygon fill="#63b8ff" stroke="#63b8ff" points="287.61,-77.78 277.16,-79.51 286.41,-84.68 287.61,-77.78"/>
</a>
</g>
</g>
<!-- Node14&#45;&gt;Node6 -->
<g id="edge17_Node000014_Node000006" class="edge">
<title>Node14&#45;&gt;Node6</title>
<g id="a_edge17_Node000014_Node000006"><a xlink:title=" ">
<path fill="none" stroke="#63b8ff" d="M283.04,-60.46C295.66,-58.58 309.04,-56.65 321.5,-55 452.64,-37.59 609.32,-20.81 675.95,-13.85"/>
<polygon fill="#63b8ff" stroke="#63b8ff" points="676.63,-17.3 686.22,-12.79 675.91,-10.34 676.63,-17.3"/>
</a>
</g>
</g>
<!-- Node15 -->
<g id="Node000015" class="node">
<title>Node15</title>
<g id="a_Node000015"><a xlink:title=" ">
<polygon fill="#e0e0e0" stroke="#999999" points="261,-19 196,-19 196,0 261,0 261,-19"/>
<text text-anchor="middle" x="228.5" y="-7" font-family="Helvetica,sans-Serif" font-size="10.00">exception</text>
</a>
</g>
</g>
<!-- Node14&#45;&gt;Node15 -->
<g id="edge16_Node000014_Node000015" class="edge">
<title>Node14&#45;&gt;Node15</title>
<g id="a_edge16_Node000014_Node000015"><a xlink:title=" ">
<path fill="none" stroke="#63b8ff" d="M228.5,-60.37C228.5,-52.25 228.5,-39.81 228.5,-29.39"/>
<polygon fill="#63b8ff" stroke="#63b8ff" points="232,-29.17 228.5,-19.17 225,-29.17 232,-29.17"/>
</a>
</g>
</g>
</g>
</svg>

<g id="navigator" transform="translate(0 0)" fill="#404254">
  <rect fill="#f2f5e9" fill-opacity="0.5" stroke="#606060" stroke-width=".5" x="0" y="0" width="60" height="60"/>
  <use id="zoomplus" xlink:href="#zoomPlus" x="17" y="9" onmousedown="handleZoom(evt,'in')"/>
  <use id="zoomminus" xlink:href="#zoomMin" x="42" y="9" onmousedown="handleZoom(evt,'out')"/>
  <use id="reset" xlink:href="#resetDef" x="30" y="36" onmousedown="handleReset()"/>
   <use id="arrowup" xlink:href="#arrowUp" x="0" y="0" onmousedown="handlePan(0,-1)"/>
  <use id="arrowright" xlink:href="#arrowRight" x="0" y="0" onmousedown="handlePan(1,0)"/>
  <use id="arrowdown" xlink:href="#arrowDown" x="0" y="0" onmousedown="handlePan(0,1)"/>
  <use id="arrowleft" xlink:href="#arrowLeft" x="0" y="0" onmousedown="handlePan(-1,0)"/>
</g>
<svg viewBox="0 0 15 15" width="100%" height="30px" preserveAspectRatio="xMaxYMin meet">
 <g id="arrow_out" transform="scale(0.3 0.3)">
  <a xlink:href="PointSpatialTree_8h__incl_org.svg" target="_base">
   <rect id="button" ry="5" rx="5" y="6" x="6" height="38" width="38"
        fill="#f2f5e9" fill-opacity="0.5" stroke="#606060" stroke-width="1.0"/>
   <path id="arrow"
     d="M 11.500037,31.436501 C 11.940474,20.09759 22.043105,11.32322 32.158766,21.979434 L 37.068811,17.246167 C 37.068811,17.246167 37.088388,32 37.088388,32 L 22.160133,31.978069 C 22.160133,31.978069 26.997745,27.140456 26.997745,27.140456 C 18.528582,18.264221 13.291696,25.230495 11.500037,31.436501 z"
     style="fill:#404040;"/>
  </a>
 </g>
</svg>

<style type='text/css'>
<![CDATA[
[data-mouse-over-selected='false'] { opacity: 0.7; }
[data-mouse-over-selected='true']  { opacity: 1.0; }
]]>
</style>
<script type="application/ecmascript"><![CDATA[
document.addEventListener('DOMContentLoaded', (event) => {
  highlightEdges();
  highlightAdjacentNodes();
});
]]></script>
</svg>
