<?xml version="1.0" encoding="UTF-8" standalone="no"?>
<!DOCTYPE svg PUBLIC "-//W3C//DTD SVG 1.1//EN"
 "http://www.w3.org/Graphics/SVG/1.1/DTD/svg11.dtd">
<!-- Generated by graphviz version 2.43.0 (0)
 -->
<!-- Title: /home/runner/work/Weaver/Weaver/include/App/Model/IBM/Landscape/LivingBeings/StructuralUnits.h Pages: 1 -->
<svg width="938pt" height="192pt"
 viewBox="0.00 0.00 938.00 192.00" xmlns="http://www.w3.org/2000/svg" xmlns:xlink="http://www.w3.org/1999/xlink">
<g id="graph0" class="graph" transform="scale(1 1) rotate(0) translate(4 188)">
<title>/home/runner/work/Weaver/Weaver/include/App/Model/IBM/Landscape/LivingBeings/StructuralUnits.h</title>
<!-- Node1 -->
<g id="Node000001" class="node">
<title>Node1</title>
<g id="a_Node000001"><a xlink:title="Defines physical units used in the simulation: DryMass, WetMass, and Length.">
<polygon fill="#999999" stroke="#666666" points="489.5,-184 331.5,-184 331.5,-132 489.5,-132 489.5,-184"/>
<text text-anchor="start" x="339.5" y="-172" font-family="Helvetica,sans-Serif" font-size="10.00">/home/runner/work/Weaver</text>
<text text-anchor="start" x="339.5" y="-161" font-family="Helvetica,sans-Serif" font-size="10.00">/Weaver/include/App/Model</text>
<text text-anchor="start" x="339.5" y="-150" font-family="Helvetica,sans-Serif" font-size="10.00">/IBM/Landscape/LivingBeings</text>
<text text-anchor="middle" x="410.5" y="-139" font-family="Helvetica,sans-Serif" font-size="10.00">/StructuralUnits.h</text>
</a>
</g>
</g>
<!-- Node2 -->
<g id="Node000002" class="node">
<title>Node2</title>
<g id="a_Node000002"><a xlink:title=" ">
<polygon fill="#e0e0e0" stroke="#999999" points="105,-30 0,-30 0,0 105,0 105,-30"/>
<text text-anchor="start" x="8" y="-18" font-family="Helvetica,sans-Serif" font-size="10.00">boost/archive/text</text>
<text text-anchor="middle" x="52.5" y="-7" font-family="Helvetica,sans-Serif" font-size="10.00">_iarchive.hpp</text>
</a>
</g>
</g>
<!-- Node1&#45;&gt;Node2 -->
<g id="edge1_Node000001_Node000002" class="edge">
<title>Node1&#45;&gt;Node2</title>
<g id="a_edge1_Node000001_Node000002"><a xlink:title=" ">
<path fill="none" stroke="#63b8ff" d="M346.91,-131.95C275.39,-103.79 161.01,-58.74 97.94,-33.9"/>
<polygon fill="#63b8ff" stroke="#63b8ff" points="98.86,-30.5 88.27,-30.09 96.29,-37.01 98.86,-30.5"/>
</a>
</g>
</g>
<!-- Node3 -->
<g id="Node000003" class="node">
<title>Node3</title>
<g id="a_Node000003"><a xlink:title=" ">
<polygon fill="#e0e0e0" stroke="#999999" points="228,-30 123,-30 123,0 228,0 228,-30"/>
<text text-anchor="start" x="131" y="-18" font-family="Helvetica,sans-Serif" font-size="10.00">boost/archive/text</text>
<text text-anchor="middle" x="175.5" y="-7" font-family="Helvetica,sans-Serif" font-size="10.00">_oarchive.hpp</text>
</a>
</g>
</g>
<!-- Node1&#45;&gt;Node3 -->
<g id="edge2_Node000001_Node000003" class="edge">
<title>Node1&#45;&gt;Node3</title>
<g id="a_edge2_Node000001_Node000003"><a xlink:title=" ">
<path fill="none" stroke="#63b8ff" d="M368.76,-131.95C322.68,-104.31 249.5,-60.4 207.66,-35.3"/>
<polygon fill="#63b8ff" stroke="#63b8ff" points="209.36,-32.23 198.98,-30.09 205.76,-38.24 209.36,-32.23"/>
</a>
</g>
</g>
<!-- Node4 -->
<g id="Node000004" class="node">
<title>Node4</title>
<g id="a_Node000004"><a xlink:title=" ">
<polygon fill="#e0e0e0" stroke="#999999" points="362.5,-30 246.5,-30 246.5,0 362.5,0 362.5,-30"/>
<text text-anchor="start" x="254.5" y="-18" font-family="Helvetica,sans-Serif" font-size="10.00">boost/archive/binary</text>
<text text-anchor="middle" x="304.5" y="-7" font-family="Helvetica,sans-Serif" font-size="10.00">_iarchive.hpp</text>
</a>
</g>
</g>
<!-- Node1&#45;&gt;Node4 -->
<g id="edge3_Node000001_Node000004" class="edge">
<title>Node1&#45;&gt;Node4</title>
<g id="a_edge3_Node000001_Node000004"><a xlink:title=" ">
<path fill="none" stroke="#63b8ff" d="M391.55,-131.79C371.63,-105.29 340.57,-63.98 321.44,-38.53"/>
<polygon fill="#63b8ff" stroke="#63b8ff" points="324.02,-36.13 315.21,-30.24 318.42,-40.34 324.02,-36.13"/>
</a>
</g>
</g>
<!-- Node5 -->
<g id="Node000005" class="node">
<title>Node5</title>
<g id="a_Node000005"><a xlink:title=" ">
<polygon fill="#e0e0e0" stroke="#999999" points="496.5,-30 380.5,-30 380.5,0 496.5,0 496.5,-30"/>
<text text-anchor="start" x="388.5" y="-18" font-family="Helvetica,sans-Serif" font-size="10.00">boost/archive/binary</text>
<text text-anchor="middle" x="438.5" y="-7" font-family="Helvetica,sans-Serif" font-size="10.00">_oarchive.hpp</text>
</a>
</g>
</g>
<!-- Node1&#45;&gt;Node5 -->
<g id="edge4_Node000001_Node000005" class="edge">
<title>Node1&#45;&gt;Node5</title>
<g id="a_edge4_Node000001_Node000005"><a xlink:title=" ">
<path fill="none" stroke="#63b8ff" d="M415.51,-131.79C420.65,-105.87 428.61,-65.78 433.69,-40.22"/>
<polygon fill="#63b8ff" stroke="#63b8ff" points="437.16,-40.73 435.67,-30.24 430.29,-39.37 437.16,-40.73"/>
</a>
</g>
</g>
<!-- Node6 -->
<g id="Node000006" class="node">
<title>Node6</title>
<g id="a_Node000006"><a xlink:title=" ">
<polygon fill="#e0e0e0" stroke="#999999" points="675,-90.5 618,-90.5 618,-71.5 675,-71.5 675,-90.5"/>
<text text-anchor="middle" x="646.5" y="-78.5" font-family="Helvetica,sans-Serif" font-size="10.00">ostream</text>
</a>
</g>
</g>
<!-- Node1&#45;&gt;Node6 -->
<g id="edge5_Node000001_Node000006" class="edge">
<title>Node1&#45;&gt;Node6</title>
<g id="a_edge5_Node000001_Node000006"><a xlink:title=" ">
<path fill="none" stroke="#63b8ff" d="M489.8,-133.97C526.41,-123.01 570.35,-109.39 609.5,-96 611.35,-95.37 613.25,-94.7 615.16,-94.02"/>
<polygon fill="#63b8ff" stroke="#63b8ff" points="616.49,-97.26 624.67,-90.53 614.08,-90.69 616.49,-97.26"/>
</a>
</g>
</g>
<!-- Node7 -->
<g id="Node000007" class="node">
<title>Node7</title>
<g id="a_Node000007"><a xlink:title=" ">
<polygon fill="#e0e0e0" stroke="#999999" points="562,-24.5 515,-24.5 515,-5.5 562,-5.5 562,-24.5"/>
<text text-anchor="middle" x="538.5" y="-12.5" font-family="Helvetica,sans-Serif" font-size="10.00">cmath</text>
</a>
</g>
</g>
<!-- Node1&#45;&gt;Node7 -->
<g id="edge6_Node000001_Node000007" class="edge">
<title>Node1&#45;&gt;Node7</title>
<g id="a_edge6_Node000001_Node000007"><a xlink:title=" ">
<path fill="none" stroke="#63b8ff" d="M423.21,-131.63C433.68,-112.29 449.81,-85.71 468.5,-66 481.99,-51.78 500.05,-39 514.44,-29.92"/>
<polygon fill="#63b8ff" stroke="#63b8ff" points="516.58,-32.71 523.29,-24.51 512.93,-26.74 516.58,-32.71"/>
</a>
</g>
</g>
<!-- Node8 -->
<g id="Node000008" class="node">
<title>Node8</title>
<g id="a_Node000008"><a xlink:href="PreciseDouble_8h.html" target="_top" xlink:title="Defines the PreciseDouble class for safe and precise double&#45;precision arithmetic.">
<polygon fill="white" stroke="#666666" points="600,-96 477,-96 477,-66 600,-66 600,-96"/>
<text text-anchor="start" x="485" y="-84" font-family="Helvetica,sans-Serif" font-size="10.00">App/Model/IBM/Maths</text>
<text text-anchor="middle" x="538.5" y="-73" font-family="Helvetica,sans-Serif" font-size="10.00">/PreciseDouble.h</text>
</a>
</g>
</g>
<!-- Node1&#45;&gt;Node8 -->
<g id="edge7_Node000001_Node000008" class="edge">
<title>Node1&#45;&gt;Node8</title>
<g id="a_edge7_Node000001_Node000008"><a xlink:title=" ">
<path fill="none" stroke="#63b8ff" d="M453.48,-131.82C470.48,-121.86 489.7,-110.59 505.57,-101.3"/>
<polygon fill="#63b8ff" stroke="#63b8ff" points="507.62,-104.15 514.48,-96.08 504.08,-98.11 507.62,-104.15"/>
</a>
</g>
</g>
<!-- Node8&#45;&gt;Node2 -->
<g id="edge8_Node000008_Node000002" class="edge">
<title>Node8&#45;&gt;Node2</title>
<g id="a_edge8_Node000008_Node000002"><a xlink:title=" ">
<path fill="none" stroke="#63b8ff" d="M476.97,-74.87C396.06,-67.66 249.36,-52.97 115.36,-30.22"/>
<polygon fill="#63b8ff" stroke="#63b8ff" points="115.78,-26.74 105.33,-28.49 114.59,-33.64 115.78,-26.74"/>
</a>
</g>
</g>
<!-- Node8&#45;&gt;Node3 -->
<g id="edge9_Node000008_Node000003" class="edge">
<title>Node8&#45;&gt;Node3</title>
<g id="a_edge9_Node000008_Node000003"><a xlink:title=" ">
<path fill="none" stroke="#63b8ff" d="M476.92,-70.83C418.15,-61.84 326.91,-47.26 238.19,-30.07"/>
<polygon fill="#63b8ff" stroke="#63b8ff" points="238.71,-26.6 228.22,-28.12 237.37,-33.47 238.71,-26.6"/>
</a>
</g>
</g>
<!-- Node8&#45;&gt;Node4 -->
<g id="edge10_Node000008_Node000004" class="edge">
<title>Node8&#45;&gt;Node4</title>
<g id="a_edge10_Node000008_Node000004"><a xlink:title=" ">
<path fill="none" stroke="#63b8ff" d="M487.15,-65.95C451.33,-56.16 403.38,-43.05 365.6,-32.71"/>
<polygon fill="#63b8ff" stroke="#63b8ff" points="366.3,-29.27 355.73,-30.01 364.45,-36.03 366.3,-29.27"/>
</a>
</g>
</g>
<!-- Node8&#45;&gt;Node5 -->
<g id="edge11_Node000008_Node000005" class="edge">
<title>Node8&#45;&gt;Node5</title>
<g id="a_edge11_Node000008_Node000005"><a xlink:title=" ">
<path fill="none" stroke="#63b8ff" d="M516.31,-65.8C502.45,-56.93 484.43,-45.39 469.21,-35.66"/>
<polygon fill="#63b8ff" stroke="#63b8ff" points="470.94,-32.61 460.63,-30.16 467.17,-38.5 470.94,-32.61"/>
</a>
</g>
</g>
<!-- Node8&#45;&gt;Node7 -->
<g id="edge13_Node000008_Node000007" class="edge">
<title>Node8&#45;&gt;Node7</title>
<g id="a_edge13_Node000008_Node000007"><a xlink:title=" ">
<path fill="none" stroke="#63b8ff" d="M538.5,-65.8C538.5,-56.7 538.5,-44.79 538.5,-34.9"/>
<polygon fill="#63b8ff" stroke="#63b8ff" points="542,-34.84 538.5,-24.84 535,-34.84 542,-34.84"/>
</a>
</g>
</g>
<!-- Node9 -->
<g id="Node000009" class="node">
<title>Node9</title>
<g id="a_Node000009"><a xlink:title=" ">
<polygon fill="#e0e0e0" stroke="#999999" points="624.5,-24.5 580.5,-24.5 580.5,-5.5 624.5,-5.5 624.5,-24.5"/>
<text text-anchor="middle" x="602.5" y="-12.5" font-family="Helvetica,sans-Serif" font-size="10.00">string</text>
</a>
</g>
</g>
<!-- Node8&#45;&gt;Node9 -->
<g id="edge12_Node000008_Node000009" class="edge">
<title>Node8&#45;&gt;Node9</title>
<g id="a_edge12_Node000008_Node000009"><a xlink:title=" ">
<path fill="none" stroke="#63b8ff" d="M552.7,-65.8C562.68,-55.82 576.04,-42.46 586.41,-32.09"/>
<polygon fill="#63b8ff" stroke="#63b8ff" points="589.06,-34.39 593.66,-24.84 584.11,-29.44 589.06,-34.39"/>
</a>
</g>
</g>
<!-- Node10 -->
<g id="Node000010" class="node">
<title>Node10</title>
<g id="a_Node000010"><a xlink:title=" ">
<polygon fill="#e0e0e0" stroke="#999999" points="706.5,-24.5 642.5,-24.5 642.5,-5.5 706.5,-5.5 706.5,-24.5"/>
<text text-anchor="middle" x="674.5" y="-12.5" font-family="Helvetica,sans-Serif" font-size="10.00">algorithm</text>
</a>
</g>
</g>
<!-- Node8&#45;&gt;Node10 -->
<g id="edge14_Node000008_Node000010" class="edge">
<title>Node8&#45;&gt;Node10</title>
<g id="a_edge14_Node000008_Node000010"><a xlink:title=" ">
<path fill="none" stroke="#63b8ff" d="M568.35,-65.95C591.88,-54.88 624.43,-39.56 647.27,-28.82"/>
<polygon fill="#63b8ff" stroke="#63b8ff" points="648.84,-31.94 656.4,-24.52 645.86,-25.61 648.84,-31.94"/>
</a>
</g>
</g>
<!-- Node11 -->
<g id="Node000011" class="node">
<title>Node11</title>
<g id="a_Node000011"><a xlink:title=" ">
<polygon fill="#e0e0e0" stroke="#999999" points="784.5,-24.5 724.5,-24.5 724.5,-5.5 784.5,-5.5 784.5,-24.5"/>
<text text-anchor="middle" x="754.5" y="-12.5" font-family="Helvetica,sans-Serif" font-size="10.00">iostream</text>
</a>
</g>
</g>
<!-- Node8&#45;&gt;Node11 -->
<g id="edge15_Node000008_Node000011" class="edge">
<title>Node8&#45;&gt;Node11</title>
<g id="a_edge15_Node000008_Node000011"><a xlink:title=" ">
<path fill="none" stroke="#63b8ff" d="M591.84,-65.97C627.12,-56.43 674.29,-43.2 715.5,-30 717.62,-29.32 719.79,-28.6 721.97,-27.87"/>
<polygon fill="#63b8ff" stroke="#63b8ff" points="723.2,-31.15 731.49,-24.56 720.9,-24.53 723.2,-31.15"/>
</a>
</g>
</g>
<!-- Node12 -->
<g id="Node000012" class="node">
<title>Node12</title>
<g id="a_Node000012"><a xlink:title=" ">
<polygon fill="#e0e0e0" stroke="#999999" points="846.5,-24.5 802.5,-24.5 802.5,-5.5 846.5,-5.5 846.5,-24.5"/>
<text text-anchor="middle" x="824.5" y="-12.5" font-family="Helvetica,sans-Serif" font-size="10.00">limits</text>
</a>
</g>
</g>
<!-- Node8&#45;&gt;Node12 -->
<g id="edge16_Node000008_Node000012" class="edge">
<title>Node8&#45;&gt;Node12</title>
<g id="a_edge16_Node000008_Node000012"><a xlink:title=" ">
<path fill="none" stroke="#63b8ff" d="M600.07,-67.85C603.26,-67.23 606.42,-66.61 609.5,-66 691.27,-49.94 714.11,-55.32 793.5,-30 794.94,-29.54 796.41,-29.03 797.87,-28.49"/>
<polygon fill="#63b8ff" stroke="#63b8ff" points="799.48,-31.61 807.4,-24.57 796.82,-25.14 799.48,-31.61"/>
</a>
</g>
</g>
<!-- Node13 -->
<g id="Node000013" class="node">
<title>Node13</title>
<g id="a_Node000013"><a xlink:title=" ">
<polygon fill="#e0e0e0" stroke="#999999" points="930,-24.5 865,-24.5 865,-5.5 930,-5.5 930,-24.5"/>
<text text-anchor="middle" x="897.5" y="-12.5" font-family="Helvetica,sans-Serif" font-size="10.00">functional</text>
</a>
</g>
</g>
<!-- Node8&#45;&gt;Node13 -->
<g id="edge17_Node000008_Node000013" class="edge">
<title>Node8&#45;&gt;Node13</title>
<g id="a_edge17_Node000008_Node000013"><a xlink:title=" ">
<path fill="none" stroke="#63b8ff" d="M600.04,-67.67C603.24,-67.09 606.4,-66.53 609.5,-66 718.41,-47.31 748,-55.57 855.5,-30 858.47,-29.29 861.53,-28.47 864.58,-27.58"/>
<polygon fill="#63b8ff" stroke="#63b8ff" points="865.66,-30.91 874.16,-24.59 863.58,-24.23 865.66,-30.91"/>
</a>
</g>
</g>
</g>
</svg>
