<?xml version="1.0" encoding="UTF-8" standalone="no"?>
<!DOCTYPE svg PUBLIC "-//W3C//DTD SVG 1.1//EN"
 "http://www.w3.org/Graphics/SVG/1.1/DTD/svg11.dtd">
<!-- Generated by graphviz version 2.43.0 (0)
 -->
<!-- Title: /home/runner/work/Weaver/Weaver/include/App/Model/IBM/Landscape/Map/TerrainCells/AnimalSearchParams.h Pages: 1 -->
<svg width="1305pt" height="1215pt"
 viewBox="0.00 0.00 1305.01 1215.00" xmlns="http://www.w3.org/2000/svg" xmlns:xlink="http://www.w3.org/1999/xlink">
<g id="graph0" class="graph" transform="scale(1 1) rotate(0) translate(4 1211)">
<title>/home/runner/work/Weaver/Weaver/include/App/Model/IBM/Landscape/Map/TerrainCells/AnimalSearchParams.h</title>
<!-- Node1 -->
<g id="Node000001" class="node">
<title>Node1</title>
<g id="a_Node000001"><a xlink:title="Defines the AnimalSearchParams class used to filter animals in terrain cells.">
<polygon fill="#999999" stroke="#666666" points="700,-1207 523,-1207 523,-1155 700,-1155 700,-1207"/>
<text text-anchor="start" x="531" y="-1195" font-family="Helvetica,sans-Serif" font-size="10.00">/home/runner/work/Weaver</text>
<text text-anchor="start" x="531" y="-1184" font-family="Helvetica,sans-Serif" font-size="10.00">/Weaver/include/App/Model</text>
<text text-anchor="start" x="531" y="-1173" font-family="Helvetica,sans-Serif" font-size="10.00">/IBM/Landscape/Map/TerrainCells</text>
<text text-anchor="middle" x="611.5" y="-1162" font-family="Helvetica,sans-Serif" font-size="10.00">/AnimalSearchParams.h</text>
</a>
</g>
</g>
<!-- Node2 -->
<g id="Node000002" class="node">
<title>Node2</title>
<g id="a_Node000002"><a xlink:href="AnimalSpecies_8h.html" target="_top" xlink:title="Defines the AnimalSpecies class, representing a species of animals with associated growth,...">
<polygon fill="white" stroke="#666666" points="819.5,-1031 635.5,-1031 635.5,-979 819.5,-979 819.5,-1031"/>
<text text-anchor="start" x="643.5" y="-1019" font-family="Helvetica,sans-Serif" font-size="10.00">/home/runner/work/Weaver</text>
<text text-anchor="start" x="643.5" y="-1008" font-family="Helvetica,sans-Serif" font-size="10.00">/Weaver/include/App/Model</text>
<text text-anchor="start" x="643.5" y="-997" font-family="Helvetica,sans-Serif" font-size="10.00">/IBM/Landscape/LivingBeings</text>
<text text-anchor="middle" x="727.5" y="-986" font-family="Helvetica,sans-Serif" font-size="10.00">/Animals/Species/AnimalSpecies.h</text>
</a>
</g>
</g>
<!-- Node1&#45;&gt;Node2 -->
<g id="edge1_Node000001_Node000002" class="edge">
<title>Node1&#45;&gt;Node2</title>
<g id="a_edge1_Node000001_Node000002"><a xlink:title=" ">
<path fill="none" stroke="#63b8ff" d="M677.13,-1149.48C689.18,-1141.16 700.48,-1131.04 708.5,-1119 726.05,-1092.68 729.13,-1055.47 728.94,-1031.04"/>
<polygon fill="#63b8ff" stroke="#63b8ff" points="675.17,-1146.57 668.69,-1154.95 678.98,-1152.45 675.17,-1146.57"/>
</a>
</g>
</g>
<!-- Node13 -->
<g id="Node000013" class="node">
<title>Node13</title>
<g id="a_Node000013"><a xlink:href="TerrainCell_8h.html" target="_top" xlink:title="Defines the TerrainCell class representing a cell in the landscape.">
<polygon fill="white" stroke="#666666" points="277,-651.5 100,-651.5 100,-599.5 277,-599.5 277,-651.5"/>
<text text-anchor="start" x="108" y="-639.5" font-family="Helvetica,sans-Serif" font-size="10.00">/home/runner/work/Weaver</text>
<text text-anchor="start" x="108" y="-628.5" font-family="Helvetica,sans-Serif" font-size="10.00">/Weaver/include/App/Model</text>
<text text-anchor="start" x="108" y="-617.5" font-family="Helvetica,sans-Serif" font-size="10.00">/IBM/Landscape/Map/TerrainCells</text>
<text text-anchor="middle" x="188.5" y="-606.5" font-family="Helvetica,sans-Serif" font-size="10.00">/TerrainCell.h</text>
</a>
</g>
</g>
<!-- Node1&#45;&gt;Node13 -->
<g id="edge55_Node000001_Node000013" class="edge">
<title>Node1&#45;&gt;Node13</title>
<g id="a_edge55_Node000001_Node000013"><a xlink:title=" ">
<path fill="none" stroke="#63b8ff" d="M512.8,-1168.5C357.73,-1147.65 74.5,-1097.1 74.5,-1006 74.5,-1006 74.5,-1006 74.5,-822.5 74.5,-753.22 128.38,-686.56 162.06,-651.66"/>
<polygon fill="#63b8ff" stroke="#63b8ff" points="512.45,-1171.99 522.83,-1169.83 513.37,-1165.05 512.45,-1171.99"/>
</a>
</g>
</g>
<!-- Node28 -->
<g id="Node000028" class="node">
<title>Node28</title>
<g id="a_Node000028"><a xlink:href="EdibleSearchParams_8h.html" target="_top" xlink:title="Defines the EdibleSearchParams class used to filter animals and resources in terrain cells.">
<polygon fill="white" stroke="#666666" points="700,-1119 523,-1119 523,-1067 700,-1067 700,-1119"/>
<text text-anchor="start" x="531" y="-1107" font-family="Helvetica,sans-Serif" font-size="10.00">/home/runner/work/Weaver</text>
<text text-anchor="start" x="531" y="-1096" font-family="Helvetica,sans-Serif" font-size="10.00">/Weaver/include/App/Model</text>
<text text-anchor="start" x="531" y="-1085" font-family="Helvetica,sans-Serif" font-size="10.00">/IBM/Landscape/Map/TerrainCells</text>
<text text-anchor="middle" x="611.5" y="-1074" font-family="Helvetica,sans-Serif" font-size="10.00">/EdibleSearchParams.h</text>
</a>
</g>
</g>
<!-- Node1&#45;&gt;Node28 -->
<g id="edge53_Node000001_Node000028" class="edge">
<title>Node1&#45;&gt;Node28</title>
<g id="a_edge53_Node000001_Node000028"><a xlink:title=" ">
<path fill="none" stroke="#63b8ff" d="M611.5,-1144.56C611.5,-1136.04 611.5,-1127.1 611.5,-1119.16"/>
<polygon fill="#63b8ff" stroke="#63b8ff" points="608,-1144.66 611.5,-1154.66 615,-1144.66 608,-1144.66"/>
</a>
</g>
</g>
<!-- Node3 -->
<g id="Node000003" class="node">
<title>Node3</title>
<g id="a_Node000003"><a xlink:href="Landscape_8h.html" target="_top" xlink:title="Doxygen&#45;documented declaration of the Landscape class and related serialization helpers.">
<polygon fill="white" stroke="#666666" points="452,-118 295,-118 295,-77 452,-77 452,-118"/>
<text text-anchor="start" x="303" y="-106" font-family="Helvetica,sans-Serif" font-size="10.00">/home/runner/work/Weaver</text>
<text text-anchor="start" x="303" y="-95" font-family="Helvetica,sans-Serif" font-size="10.00">/Weaver/include/App/Model</text>
<text text-anchor="middle" x="373.5" y="-84" font-family="Helvetica,sans-Serif" font-size="10.00">/IBM/Landscape/Landscape.h</text>
</a>
</g>
</g>
<!-- Node2&#45;&gt;Node3 -->
<g id="edge2_Node000002_Node000003" class="edge">
<title>Node2&#45;&gt;Node3</title>
<g id="a_edge2_Node000002_Node000003"><a xlink:title=" ">
<path fill="none" stroke="#63b8ff" d="M829.77,-1002.58C916.65,-998.25 1043.17,-984.45 1145.5,-943 1224.57,-910.97 1296.5,-909.81 1296.5,-824.5 1296.5,-824.5 1296.5,-824.5 1296.5,-256 1296.5,-233.95 1321,-219.85 1011.5,-154 813.31,-111.83 573.95,-101.58 452.49,-99.17"/>
<polygon fill="#63b8ff" stroke="#63b8ff" points="829.47,-999.09 819.64,-1003.05 829.79,-1006.08 829.47,-999.09"/>
</a>
</g>
</g>
<!-- Node8 -->
<g id="Node000008" class="node">
<title>Node8</title>
<g id="a_Node000008"><a xlink:href="Animal_8h.html" target="_top" xlink:title="Defines the Animal class, an abstract class representing animals in the ecosystem.">
<polygon fill="white" stroke="#666666" points="627.5,-943 469.5,-943 469.5,-891 627.5,-891 627.5,-943"/>
<text text-anchor="start" x="477.5" y="-931" font-family="Helvetica,sans-Serif" font-size="10.00">/home/runner/work/Weaver</text>
<text text-anchor="start" x="477.5" y="-920" font-family="Helvetica,sans-Serif" font-size="10.00">/Weaver/include/App/Model</text>
<text text-anchor="start" x="477.5" y="-909" font-family="Helvetica,sans-Serif" font-size="10.00">/IBM/Landscape/LivingBeings</text>
<text text-anchor="middle" x="548.5" y="-898" font-family="Helvetica,sans-Serif" font-size="10.00">/Animals/Animal.h</text>
</a>
</g>
</g>
<!-- Node2&#45;&gt;Node8 -->
<g id="edge7_Node000002_Node000008" class="edge">
<title>Node2&#45;&gt;Node8</title>
<g id="a_edge7_Node000002_Node000008"><a xlink:title=" ">
<path fill="none" stroke="#63b8ff" d="M666,-974.45C644.78,-964.26 621.23,-952.94 600.82,-943.14"/>
<polygon fill="#63b8ff" stroke="#63b8ff" points="664.72,-977.72 675.24,-978.89 667.75,-971.41 664.72,-977.72"/>
</a>
</g>
</g>
<!-- Node11 -->
<g id="Node000011" class="node">
<title>Node11</title>
<g id="a_Node000011"><a xlink:href="SpatialTree_8h.html" target="_top" xlink:title="Defines the SpatialTree class, a spatially subdivided map implementation.">
<polygon fill="white" stroke="#666666" points="552,-195 369,-195 369,-154 552,-154 552,-195"/>
<text text-anchor="start" x="377" y="-183" font-family="Helvetica,sans-Serif" font-size="10.00">/home/runner/work/Weaver</text>
<text text-anchor="start" x="377" y="-172" font-family="Helvetica,sans-Serif" font-size="10.00">/Weaver/include/App/Model</text>
<text text-anchor="middle" x="460.5" y="-161" font-family="Helvetica,sans-Serif" font-size="10.00">/IBM/Landscape/Map/SpatialTree.h</text>
</a>
</g>
</g>
<!-- Node2&#45;&gt;Node11 -->
<g id="edge51_Node000002_Node000011" class="edge">
<title>Node2&#45;&gt;Node11</title>
<g id="a_edge51_Node000002_Node000011"><a xlink:title=" ">
<path fill="none" stroke="#63b8ff" d="M829.67,-990.67C983.94,-967.64 1258.5,-914.07 1258.5,-824.5 1258.5,-824.5 1258.5,-824.5 1258.5,-432 1258.5,-237.79 1055.67,-289.55 870.5,-231 764.34,-197.43 636.43,-184.17 552.03,-178.93"/>
<polygon fill="#63b8ff" stroke="#63b8ff" points="829.07,-987.22 819.69,-992.14 830.09,-994.14 829.07,-987.22"/>
</a>
</g>
</g>
<!-- Node2&#45;&gt;Node13 -->
<g id="edge52_Node000002_Node000013" class="edge">
<title>Node2&#45;&gt;Node13</title>
<g id="a_edge52_Node000002_Node000013"><a xlink:title=" ">
<path fill="none" stroke="#63b8ff" d="M625.2,-988.65C488.14,-965.9 255.7,-918.94 200.5,-855 150.79,-797.42 168.74,-698.12 180.93,-651.74"/>
<polygon fill="#63b8ff" stroke="#63b8ff" points="624.87,-992.14 635.31,-990.31 626.01,-985.23 624.87,-992.14"/>
</a>
</g>
</g>
<!-- Node20 -->
<g id="Node000020" class="node">
<title>Node20</title>
<g id="a_Node000020"><a xlink:href="HabitatDomainSource_8h.html" target="_top" xlink:title="Defines the HabitatDomainSource class representing habitat domain information for animal species.">
<polygon fill="white" stroke="#666666" points="993.5,-943 821.5,-943 821.5,-891 993.5,-891 993.5,-943"/>
<text text-anchor="start" x="829.5" y="-931" font-family="Helvetica,sans-Serif" font-size="10.00">/home/runner/work/Weaver</text>
<text text-anchor="start" x="829.5" y="-920" font-family="Helvetica,sans-Serif" font-size="10.00">/Weaver/include/App/Model</text>
<text text-anchor="start" x="829.5" y="-909" font-family="Helvetica,sans-Serif" font-size="10.00">/IBM/Landscape/Map/Patches</text>
<text text-anchor="middle" x="907.5" y="-898" font-family="Helvetica,sans-Serif" font-size="10.00">/Source/HabitatDomainSource.h</text>
</a>
</g>
</g>
<!-- Node2&#45;&gt;Node20 -->
<g id="edge34_Node000002_Node000020" class="edge">
<title>Node2&#45;&gt;Node20</title>
<g id="a_edge34_Node000002_Node000020"><a xlink:title=" ">
<path fill="none" stroke="#63b8ff" d="M789.35,-974.45C810.68,-964.26 834.36,-952.94 854.89,-943.14"/>
<polygon fill="#63b8ff" stroke="#63b8ff" points="787.56,-971.42 780.05,-978.89 790.58,-977.74 787.56,-971.42"/>
</a>
</g>
</g>
<!-- Node4 -->
<g id="Node000004" class="node">
<title>Node4</title>
<g id="a_Node000004"><a xlink:href="IBM_8h.html" target="_top" xlink:title="Definition of the IBM class, representing the core individual&#45;based model of the simulation.">
<polygon fill="white" stroke="#666666" points="149,-41 0,-41 0,0 149,0 149,-41"/>
<text text-anchor="start" x="8" y="-29" font-family="Helvetica,sans-Serif" font-size="10.00">/home/runner/work/Weaver</text>
<text text-anchor="start" x="8" y="-18" font-family="Helvetica,sans-Serif" font-size="10.00">/Weaver/include/App/Model</text>
<text text-anchor="middle" x="74.5" y="-7" font-family="Helvetica,sans-Serif" font-size="10.00">/IBM/IBM.h</text>
</a>
</g>
</g>
<!-- Node3&#45;&gt;Node4 -->
<g id="edge3_Node000003_Node000004" class="edge">
<title>Node3&#45;&gt;Node4</title>
<g id="a_edge3_Node000003_Node000004"><a xlink:title=" ">
<path fill="none" stroke="#63b8ff" d="M286.02,-74.56C242.56,-63.65 190.6,-50.62 149.05,-40.2"/>
<polygon fill="#63b8ff" stroke="#63b8ff" points="285.17,-77.95 295.72,-76.99 286.87,-71.16 285.17,-77.95"/>
</a>
</g>
</g>
<!-- Node5 -->
<g id="Node000005" class="node">
<title>Node5</title>
<g id="a_Node000005"><a xlink:href="AquaticLandscape_8h.html" target="_top" xlink:title="Defines the AquaticLandscape class for aquatic ecosystem simulations.">
<polygon fill="white" stroke="#666666" points="360.5,-41 166.5,-41 166.5,0 360.5,0 360.5,-41"/>
<text text-anchor="start" x="174.5" y="-29" font-family="Helvetica,sans-Serif" font-size="10.00">/home/runner/work/Weaver</text>
<text text-anchor="start" x="174.5" y="-18" font-family="Helvetica,sans-Serif" font-size="10.00">/Weaver/include/App/Model</text>
<text text-anchor="middle" x="263.5" y="-7" font-family="Helvetica,sans-Serif" font-size="10.00">/IBM/Landscape/AquaticLandscape.h</text>
</a>
</g>
</g>
<!-- Node3&#45;&gt;Node5 -->
<g id="edge4_Node000003_Node000005" class="edge">
<title>Node3&#45;&gt;Node5</title>
<g id="a_edge4_Node000003_Node000005"><a xlink:title=" ">
<path fill="none" stroke="#63b8ff" d="M336.24,-71.09C321.9,-61.32 305.78,-50.32 292.35,-41.17"/>
<polygon fill="#63b8ff" stroke="#63b8ff" points="334.65,-74.25 344.89,-76.99 338.6,-68.47 334.65,-74.25"/>
</a>
</g>
</g>
<!-- Node6 -->
<g id="Node000006" class="node">
<title>Node6</title>
<g id="a_Node000006"><a xlink:href="ArthropodsLandscape_8h.html" target="_top" xlink:title="Defines the ArthropodsLandscape class for arthropod&#45;specific ecosystem simulations.">
<polygon fill="white" stroke="#666666" points="588.5,-41 378.5,-41 378.5,0 588.5,0 588.5,-41"/>
<text text-anchor="start" x="386.5" y="-29" font-family="Helvetica,sans-Serif" font-size="10.00">/home/runner/work/Weaver</text>
<text text-anchor="start" x="386.5" y="-18" font-family="Helvetica,sans-Serif" font-size="10.00">/Weaver/include/App/Model</text>
<text text-anchor="middle" x="483.5" y="-7" font-family="Helvetica,sans-Serif" font-size="10.00">/IBM/Landscape/ArthropodsLandscape.h</text>
</a>
</g>
</g>
<!-- Node3&#45;&gt;Node6 -->
<g id="edge5_Node000003_Node000006" class="edge">
<title>Node3&#45;&gt;Node6</title>
<g id="a_edge5_Node000003_Node000006"><a xlink:title=" ">
<path fill="none" stroke="#63b8ff" d="M410.76,-71.09C425.1,-61.32 441.22,-50.32 454.65,-41.17"/>
<polygon fill="#63b8ff" stroke="#63b8ff" points="408.4,-68.47 402.11,-76.99 412.35,-74.25 408.4,-68.47"/>
</a>
</g>
</g>
<!-- Node7 -->
<g id="Node000007" class="node">
<title>Node7</title>
<g id="a_Node000007"><a xlink:href="DinosaursLandscape_8h.html" target="_top" xlink:title="Defines the DinosaursLandscape class for dinosaur&#45;specific ecosystem simulations.">
<polygon fill="white" stroke="#666666" points="812.5,-41 606.5,-41 606.5,0 812.5,0 812.5,-41"/>
<text text-anchor="start" x="614.5" y="-29" font-family="Helvetica,sans-Serif" font-size="10.00">/home/runner/work/Weaver</text>
<text text-anchor="start" x="614.5" y="-18" font-family="Helvetica,sans-Serif" font-size="10.00">/Weaver/include/App/Model</text>
<text text-anchor="middle" x="709.5" y="-7" font-family="Helvetica,sans-Serif" font-size="10.00">/IBM/Landscape/DinosaursLandscape.h</text>
</a>
</g>
</g>
<!-- Node3&#45;&gt;Node7 -->
<g id="edge6_Node000003_Node000007" class="edge">
<title>Node3&#45;&gt;Node7</title>
<g id="a_edge6_Node000003_Node000007"><a xlink:title=" ">
<path fill="none" stroke="#63b8ff" d="M462.31,-76.68C511.69,-65.66 572.9,-51.99 622.06,-41.02"/>
<polygon fill="#63b8ff" stroke="#63b8ff" points="461.27,-73.32 452.28,-78.92 462.8,-80.15 461.27,-73.32"/>
</a>
</g>
</g>
<!-- Node9 -->
<g id="Node000009" class="node">
<title>Node9</title>
<g id="a_Node000009"><a xlink:href="AnimalNonStatistical_8h.html" target="_top" xlink:title="Defines the AnimalNonStatistical class, a non&#45;statistical concrete implementation of Animal.">
<polygon fill="white" stroke="#666666" points="429.5,-849.5 255.5,-849.5 255.5,-797.5 429.5,-797.5 429.5,-849.5"/>
<text text-anchor="start" x="263.5" y="-837.5" font-family="Helvetica,sans-Serif" font-size="10.00">/home/runner/work/Weaver</text>
<text text-anchor="start" x="263.5" y="-826.5" font-family="Helvetica,sans-Serif" font-size="10.00">/Weaver/include/App/Model</text>
<text text-anchor="start" x="263.5" y="-815.5" font-family="Helvetica,sans-Serif" font-size="10.00">/IBM/Landscape/LivingBeings</text>
<text text-anchor="middle" x="342.5" y="-804.5" font-family="Helvetica,sans-Serif" font-size="10.00">/Animals/AnimalNonStatistical.h</text>
</a>
</g>
</g>
<!-- Node8&#45;&gt;Node9 -->
<g id="edge8_Node000008_Node000009" class="edge">
<title>Node8&#45;&gt;Node9</title>
<g id="a_edge8_Node000008_Node000009"><a xlink:title=" ">
<path fill="none" stroke="#63b8ff" d="M482.86,-886.84C455.91,-874.87 425.01,-861.15 399.08,-849.63"/>
<polygon fill="#63b8ff" stroke="#63b8ff" points="481.65,-890.14 492.21,-891 484.49,-883.74 481.65,-890.14"/>
</a>
</g>
</g>
<!-- Node8&#45;&gt;Node13 -->
<g id="edge33_Node000008_Node000013" class="edge">
<title>Node8&#45;&gt;Node13</title>
<g id="a_edge33_Node000008_Node000013"><a xlink:title=" ">
<path fill="none" stroke="#63b8ff" d="M459.16,-907.34C382.11,-898.22 278.35,-881.45 246.5,-855 185.57,-804.4 183.61,-699.75 186.29,-651.66"/>
<polygon fill="#63b8ff" stroke="#63b8ff" points="459.03,-910.85 469.37,-908.52 459.84,-903.89 459.03,-910.85"/>
</a>
</g>
</g>
<!-- Node17 -->
<g id="Node000017" class="node">
<title>Node17</title>
<g id="a_Node000017"><a xlink:href="RootTerrainCell_8h.html" target="_top" xlink:title="Defines the RootTerrainCell class, the top&#45;level node of the spatial tree in the landscape.">
<polygon fill="white" stroke="#666666" points="861.5,-283 687.5,-283 687.5,-231 861.5,-231 861.5,-283"/>
<text text-anchor="start" x="695.5" y="-271" font-family="Helvetica,sans-Serif" font-size="10.00">/home/runner/work/Weaver</text>
<text text-anchor="start" x="695.5" y="-260" font-family="Helvetica,sans-Serif" font-size="10.00">/Weaver/include/App/Model</text>
<text text-anchor="start" x="695.5" y="-249" font-family="Helvetica,sans-Serif" font-size="10.00">/IBM/Landscape/Map/SpatialTree</text>
<text text-anchor="middle" x="774.5" y="-238" font-family="Helvetica,sans-Serif" font-size="10.00">/TerrainCells/RootTerrainCell.h</text>
</a>
</g>
</g>
<!-- Node8&#45;&gt;Node17 -->
<g id="edge32_Node000008_Node000017" class="edge">
<title>Node8&#45;&gt;Node17</title>
<g id="a_edge32_Node000008_Node000017"><a xlink:title=" ">
<path fill="none" stroke="#63b8ff" d="M559.87,-880.72C571.06,-842.79 586.5,-780.52 586.5,-725.5 586.5,-725.5 586.5,-725.5 586.5,-624.5 586.5,-478.95 612.62,-431.89 704.5,-319 715.08,-306 728.62,-293.49 740.96,-283.23"/>
<polygon fill="#63b8ff" stroke="#63b8ff" points="556.38,-880.16 556.84,-890.75 563.08,-882.18 556.38,-880.16"/>
</a>
</g>
</g>
<!-- Node19 -->
<g id="Node000019" class="node">
<title>Node19</title>
<g id="a_Node000019"><a xlink:href="AnimalStatistical_8h.html" target="_top" xlink:title="Defines the AnimalStatistical class, a concrete subclass of Animal for statistical simulations.">
<polygon fill="white" stroke="#666666" points="593.5,-371 435.5,-371 435.5,-319 593.5,-319 593.5,-371"/>
<text text-anchor="start" x="443.5" y="-359" font-family="Helvetica,sans-Serif" font-size="10.00">/home/runner/work/Weaver</text>
<text text-anchor="start" x="443.5" y="-348" font-family="Helvetica,sans-Serif" font-size="10.00">/Weaver/include/App/Model</text>
<text text-anchor="start" x="443.5" y="-337" font-family="Helvetica,sans-Serif" font-size="10.00">/IBM/Landscape/LivingBeings</text>
<text text-anchor="middle" x="514.5" y="-326" font-family="Helvetica,sans-Serif" font-size="10.00">/Animals/AnimalStatistical.h</text>
</a>
</g>
</g>
<!-- Node8&#45;&gt;Node19 -->
<g id="edge29_Node000008_Node000019" class="edge">
<title>Node8&#45;&gt;Node19</title>
<g id="a_edge29_Node000008_Node000019"><a xlink:title=" ">
<path fill="none" stroke="#63b8ff" d="M548.5,-880.62C548.5,-842.37 548.5,-779.61 548.5,-725.5 548.5,-725.5 548.5,-725.5 548.5,-525.5 548.5,-469.68 532.43,-405.77 522.39,-371.28"/>
<polygon fill="#63b8ff" stroke="#63b8ff" points="545,-880.73 548.5,-890.73 552,-880.73 545,-880.73"/>
</a>
</g>
</g>
<!-- Node9&#45;&gt;Node3 -->
<g id="edge9_Node000009_Node000003" class="edge">
<title>Node9&#45;&gt;Node3</title>
<g id="a_edge9_Node000009_Node000003"><a xlink:title=" ">
<path fill="none" stroke="#63b8ff" d="M261.43,-793.42C202.46,-767.52 126.85,-723.34 90.5,-657 62.58,-606.04 72.5,-585.61 72.5,-527.5 72.5,-527.5 72.5,-527.5 72.5,-256 72.5,-155.59 205.63,-119.07 294.81,-105.88"/>
<polygon fill="#63b8ff" stroke="#63b8ff" points="260.18,-796.69 270.75,-797.42 262.94,-790.26 260.18,-796.69"/>
</a>
</g>
</g>
<!-- Node10 -->
<g id="Node000010" class="node">
<title>Node10</title>
<g id="a_Node000010"><a xlink:href="SpatialTreeAnimal_8h.html" target="_top" xlink:title="Defines the SpatialTreeAnimal class for animals in a spatial tree terrain.">
<polygon fill="white" stroke="#666666" points="520,-651.5 295,-651.5 295,-599.5 520,-599.5 520,-651.5"/>
<text text-anchor="start" x="303" y="-639.5" font-family="Helvetica,sans-Serif" font-size="10.00">/home/runner/work/Weaver</text>
<text text-anchor="start" x="303" y="-628.5" font-family="Helvetica,sans-Serif" font-size="10.00">/Weaver/include/App/Model</text>
<text text-anchor="start" x="303" y="-617.5" font-family="Helvetica,sans-Serif" font-size="10.00">/IBM/Landscape/Map/SpatialTree</text>
<text text-anchor="middle" x="407.5" y="-606.5" font-family="Helvetica,sans-Serif" font-size="10.00">/LivingBeings/Animals/SpatialTreeAnimal.h</text>
</a>
</g>
</g>
<!-- Node9&#45;&gt;Node10 -->
<g id="edge10_Node000009_Node000010" class="edge">
<title>Node9&#45;&gt;Node10</title>
<g id="a_edge10_Node000009_Node000010"><a xlink:title=" ">
<path fill="none" stroke="#63b8ff" d="M406.46,-791.74C419.71,-782.22 431.93,-770.36 439.5,-756 457.2,-722.4 439.09,-678.7 423.79,-651.63"/>
<polygon fill="#63b8ff" stroke="#63b8ff" points="404.44,-788.87 398.1,-797.36 408.35,-794.68 404.44,-788.87"/>
</a>
</g>
</g>
<!-- Node12 -->
<g id="Node000012" class="node">
<title>Node12</title>
<g id="a_Node000012"><a xlink:href="CellValue_8h.html" target="_top" xlink:title="Defines the CellValue struct representing the evaluation of a terrain cell by an animal.">
<polygon fill="white" stroke="#666666" points="431,-750.5 254,-750.5 254,-698.5 431,-698.5 431,-750.5"/>
<text text-anchor="start" x="262" y="-738.5" font-family="Helvetica,sans-Serif" font-size="10.00">/home/runner/work/Weaver</text>
<text text-anchor="start" x="262" y="-727.5" font-family="Helvetica,sans-Serif" font-size="10.00">/Weaver/include/App/Model</text>
<text text-anchor="start" x="262" y="-716.5" font-family="Helvetica,sans-Serif" font-size="10.00">/IBM/Landscape/Map/TerrainCells</text>
<text text-anchor="middle" x="342.5" y="-705.5" font-family="Helvetica,sans-Serif" font-size="10.00">/CellValue.h</text>
</a>
</g>
</g>
<!-- Node9&#45;&gt;Node12 -->
<g id="edge13_Node000009_Node000012" class="edge">
<title>Node9&#45;&gt;Node12</title>
<g id="a_edge13_Node000009_Node000012"><a xlink:title=" ">
<path fill="none" stroke="#63b8ff" d="M342.5,-787.03C342.5,-774.95 342.5,-761.7 342.5,-750.61"/>
<polygon fill="#63b8ff" stroke="#63b8ff" points="339,-787.27 342.5,-797.27 346,-787.27 339,-787.27"/>
</a>
</g>
</g>
<!-- Node9&#45;&gt;Node13 -->
<g id="edge28_Node000009_Node000013" class="edge">
<title>Node9&#45;&gt;Node13</title>
<g id="a_edge28_Node000009_Node000013"><a xlink:title=" ">
<path fill="none" stroke="#63b8ff" d="M285.64,-791.82C270.86,-781.86 255.9,-769.77 244.5,-756 218.57,-724.68 202.72,-679.52 194.78,-651.65"/>
<polygon fill="#63b8ff" stroke="#63b8ff" points="284.01,-794.93 294.3,-797.43 287.81,-789.05 284.01,-794.93"/>
</a>
</g>
</g>
<!-- Node10&#45;&gt;Node11 -->
<g id="edge11_Node000010_Node000011" class="edge">
<title>Node10&#45;&gt;Node11</title>
<g id="a_edge11_Node000010_Node000011"><a xlink:title=" ">
<path fill="none" stroke="#63b8ff" d="M407.5,-589.12C407.5,-550.87 407.5,-488.11 407.5,-434 407.5,-434 407.5,-434 407.5,-344 407.5,-287.88 434.58,-225.89 450.03,-195.1"/>
<polygon fill="#63b8ff" stroke="#63b8ff" points="404,-589.23 407.5,-599.23 411,-589.23 404,-589.23"/>
</a>
</g>
</g>
<!-- Node11&#45;&gt;Node3 -->
<g id="edge12_Node000011_Node000003" class="edge">
<title>Node11&#45;&gt;Node3</title>
<g id="a_edge12_Node000011_Node000003"><a xlink:title=" ">
<path fill="none" stroke="#63b8ff" d="M429.84,-147.07C418.77,-137.52 406.48,-126.93 396.21,-118.07"/>
<polygon fill="#63b8ff" stroke="#63b8ff" points="427.78,-149.92 437.64,-153.79 432.35,-144.61 427.78,-149.92"/>
</a>
</g>
</g>
<!-- Node12&#45;&gt;Node10 -->
<g id="edge14_Node000012_Node000010" class="edge">
<title>Node12&#45;&gt;Node10</title>
<g id="a_edge14_Node000012_Node000010"><a xlink:title=" ">
<path fill="none" stroke="#63b8ff" d="M365.05,-689.85C373.46,-677.3 382.86,-663.26 390.68,-651.61"/>
<polygon fill="#63b8ff" stroke="#63b8ff" points="362.07,-688.01 359.41,-698.27 367.88,-691.91 362.07,-688.01"/>
</a>
</g>
</g>
<!-- Node12&#45;&gt;Node13 -->
<g id="edge15_Node000012_Node000013" class="edge">
<title>Node12&#45;&gt;Node13</title>
<g id="a_edge15_Node000012_Node000013"><a xlink:title=" ">
<path fill="none" stroke="#63b8ff" d="M293.92,-692.9C272.81,-679.6 248.38,-664.22 228.36,-651.61"/>
<polygon fill="#63b8ff" stroke="#63b8ff" points="292.11,-695.9 302.44,-698.27 295.84,-689.98 292.11,-695.9"/>
</a>
</g>
</g>
<!-- Node13&#45;&gt;Node3 -->
<g id="edge16_Node000013_Node000003" class="edge">
<title>Node13&#45;&gt;Node3</title>
<g id="a_edge16_Node000013_Node000003"><a xlink:title=" ">
<path fill="none" stroke="#63b8ff" d="M181.08,-589.3C173.71,-551.21 163.5,-488.58 163.5,-434 163.5,-434 163.5,-434 163.5,-256 163.5,-183.65 244.25,-140.47 305.61,-118.1"/>
<polygon fill="#63b8ff" stroke="#63b8ff" points="177.7,-590.24 183.08,-599.37 184.57,-588.88 177.7,-590.24"/>
</a>
</g>
</g>
<!-- Node13&#45;&gt;Node11 -->
<g id="edge20_Node000013_Node000011" class="edge">
<title>Node13&#45;&gt;Node11</title>
<g id="a_edge20_Node000013_Node000011"><a xlink:title=" ">
<path fill="none" stroke="#63b8ff" d="M247.1,-594.22C299.97,-562.22 369.5,-506.39 369.5,-434 369.5,-434 369.5,-434 369.5,-344 369.5,-290.26 384.95,-277.14 412.5,-231 420.21,-218.09 431.01,-205.29 440.41,-195.24"/>
<polygon fill="#63b8ff" stroke="#63b8ff" points="245.26,-591.24 238.44,-599.34 248.83,-597.26 245.26,-591.24"/>
</a>
</g>
</g>
<!-- Node14 -->
<g id="Node000014" class="node">
<title>Node14</title>
<g id="a_Node000014"><a xlink:href="Map_8h.html" target="_top" xlink:title="Defines the Map class for spatial organization of landscapes.">
<polygon fill="white" stroke="#666666" points="341.5,-277.5 191.5,-277.5 191.5,-236.5 341.5,-236.5 341.5,-277.5"/>
<text text-anchor="start" x="199.5" y="-265.5" font-family="Helvetica,sans-Serif" font-size="10.00">/home/runner/work/Weaver</text>
<text text-anchor="start" x="199.5" y="-254.5" font-family="Helvetica,sans-Serif" font-size="10.00">/Weaver/include/App/Model</text>
<text text-anchor="middle" x="266.5" y="-243.5" font-family="Helvetica,sans-Serif" font-size="10.00">/IBM/Landscape/Map/Map.h</text>
</a>
</g>
</g>
<!-- Node13&#45;&gt;Node14 -->
<g id="edge17_Node000013_Node000014" class="edge">
<title>Node13&#45;&gt;Node14</title>
<g id="a_edge17_Node000013_Node000014"><a xlink:title=" ">
<path fill="none" stroke="#63b8ff" d="M195.99,-589.31C212.11,-513.56 249.67,-337.1 262.28,-277.82"/>
<polygon fill="#63b8ff" stroke="#63b8ff" points="192.52,-588.8 193.86,-599.31 199.37,-590.26 192.52,-588.8"/>
</a>
</g>
</g>
<!-- Node15 -->
<g id="Node000015" class="node">
<title>Node15</title>
<g id="a_Node000015"><a xlink:href="SpatialTreeTerrainCell_8h.html" target="_top" xlink:title="Spatial tree implementation of a terrain cell.">
<polygon fill="white" stroke="#666666" points="808.5,-552.5 614.5,-552.5 614.5,-500.5 808.5,-500.5 808.5,-552.5"/>
<text text-anchor="start" x="622.5" y="-540.5" font-family="Helvetica,sans-Serif" font-size="10.00">/home/runner/work/Weaver</text>
<text text-anchor="start" x="622.5" y="-529.5" font-family="Helvetica,sans-Serif" font-size="10.00">/Weaver/include/App/Model</text>
<text text-anchor="start" x="622.5" y="-518.5" font-family="Helvetica,sans-Serif" font-size="10.00">/IBM/Landscape/Map/SpatialTree</text>
<text text-anchor="middle" x="711.5" y="-507.5" font-family="Helvetica,sans-Serif" font-size="10.00">/TerrainCells/SpatialTreeTerrainCell.h</text>
</a>
</g>
</g>
<!-- Node13&#45;&gt;Node15 -->
<g id="edge21_Node000013_Node000015" class="edge">
<title>Node13&#45;&gt;Node15</title>
<g id="a_edge21_Node000013_Node000015"><a xlink:title=" ">
<path fill="none" stroke="#63b8ff" d="M274.39,-596.75C278.13,-595.78 281.85,-594.85 285.5,-594 397.02,-567.92 527.4,-549.26 614.27,-538.47"/>
<polygon fill="#63b8ff" stroke="#63b8ff" points="273.19,-593.45 264.45,-599.44 275.02,-600.21 273.19,-593.45"/>
</a>
</g>
</g>
<!-- Node14&#45;&gt;Node3 -->
<g id="edge18_Node000014_Node000003" class="edge">
<title>Node14&#45;&gt;Node3</title>
<g id="a_edge18_Node000014_Node000003"><a xlink:title=" ">
<path fill="none" stroke="#63b8ff" d="M285.51,-228.02C306.92,-196.51 341.16,-146.1 360,-118.38"/>
<polygon fill="#63b8ff" stroke="#63b8ff" points="282.56,-226.13 279.84,-236.37 288.35,-230.07 282.56,-226.13"/>
</a>
</g>
</g>
<!-- Node14&#45;&gt;Node11 -->
<g id="edge19_Node000014_Node000011" class="edge">
<title>Node14&#45;&gt;Node11</title>
<g id="a_edge19_Node000014_Node000011"><a xlink:title=" ">
<path fill="none" stroke="#63b8ff" d="M323.4,-232.39C351.95,-220.54 386.11,-206.37 413.2,-195.13"/>
<polygon fill="#63b8ff" stroke="#63b8ff" points="321.85,-229.24 313.96,-236.31 324.54,-235.71 321.85,-229.24"/>
</a>
</g>
</g>
<!-- Node15&#45;&gt;Node11 -->
<g id="edge22_Node000015_Node000011" class="edge">
<title>Node15&#45;&gt;Node11</title>
<g id="a_edge22_Node000015_Node000011"><a xlink:title=" ">
<path fill="none" stroke="#63b8ff" d="M697.05,-490.93C678.43,-448.4 643.54,-374.95 602.5,-319 566.43,-269.83 513.79,-221.21 483.77,-195.1"/>
<polygon fill="#63b8ff" stroke="#63b8ff" points="693.91,-492.5 701.09,-500.29 700.33,-489.72 693.91,-492.5"/>
</a>
</g>
</g>
<!-- Node16 -->
<g id="Node000016" class="node">
<title>Node16</title>
<g id="a_Node000016"><a xlink:href="BranchTerrainCell_8h.html" target="_top" xlink:title="Branch node implementation of a spatial tree terrain cell.">
<polygon fill="white" stroke="#666666" points="887.5,-371 713.5,-371 713.5,-319 887.5,-319 887.5,-371"/>
<text text-anchor="start" x="721.5" y="-359" font-family="Helvetica,sans-Serif" font-size="10.00">/home/runner/work/Weaver</text>
<text text-anchor="start" x="721.5" y="-348" font-family="Helvetica,sans-Serif" font-size="10.00">/Weaver/include/App/Model</text>
<text text-anchor="start" x="721.5" y="-337" font-family="Helvetica,sans-Serif" font-size="10.00">/IBM/Landscape/Map/SpatialTree</text>
<text text-anchor="middle" x="800.5" y="-326" font-family="Helvetica,sans-Serif" font-size="10.00">/TerrainCells/BranchTerrainCell.h</text>
</a>
</g>
</g>
<!-- Node15&#45;&gt;Node16 -->
<g id="edge23_Node000015_Node000016" class="edge">
<title>Node15&#45;&gt;Node16</title>
<g id="a_edge23_Node000015_Node000016"><a xlink:title=" ">
<path fill="none" stroke="#63b8ff" d="M710.95,-490.27C711.99,-465.56 716.35,-432.51 730.5,-407 738.16,-393.19 750.22,-381.01 762.18,-371.24"/>
<polygon fill="#63b8ff" stroke="#63b8ff" points="707.45,-490.22 710.69,-500.3 714.45,-490.4 707.45,-490.22"/>
</a>
</g>
</g>
<!-- Node18 -->
<g id="Node000018" class="node">
<title>Node18</title>
<g id="a_Node000018"><a xlink:href="LeafTerrainCell_8h.html" target="_top" xlink:title="Leaf node implementation of a spatial tree terrain cell.">
<polygon fill="white" stroke="#666666" points="913.5,-459 739.5,-459 739.5,-407 913.5,-407 913.5,-459"/>
<text text-anchor="start" x="747.5" y="-447" font-family="Helvetica,sans-Serif" font-size="10.00">/home/runner/work/Weaver</text>
<text text-anchor="start" x="747.5" y="-436" font-family="Helvetica,sans-Serif" font-size="10.00">/Weaver/include/App/Model</text>
<text text-anchor="start" x="747.5" y="-425" font-family="Helvetica,sans-Serif" font-size="10.00">/IBM/Landscape/Map/SpatialTree</text>
<text text-anchor="middle" x="826.5" y="-414" font-family="Helvetica,sans-Serif" font-size="10.00">/TerrainCells/LeafTerrainCell.h</text>
</a>
</g>
</g>
<!-- Node15&#45;&gt;Node18 -->
<g id="edge26_Node000015_Node000018" class="edge">
<title>Node15&#45;&gt;Node18</title>
<g id="a_edge26_Node000015_Node000018"><a xlink:title=" ">
<path fill="none" stroke="#63b8ff" d="M751.09,-494C765.34,-482.66 781.22,-470.03 794.71,-459.29"/>
<polygon fill="#63b8ff" stroke="#63b8ff" points="748.57,-491.53 742.92,-500.5 752.93,-497.01 748.57,-491.53"/>
</a>
</g>
</g>
<!-- Node16&#45;&gt;Node17 -->
<g id="edge24_Node000016_Node000017" class="edge">
<title>Node16&#45;&gt;Node17</title>
<g id="a_edge24_Node000016_Node000017"><a xlink:title=" ">
<path fill="none" stroke="#63b8ff" d="M789.87,-308.84C787.27,-300.23 784.53,-291.19 782.11,-283.16"/>
<polygon fill="#63b8ff" stroke="#63b8ff" points="786.6,-310.1 792.84,-318.66 793.3,-308.08 786.6,-310.1"/>
</a>
</g>
</g>
<!-- Node17&#45;&gt;Node11 -->
<g id="edge25_Node000017_Node000011" class="edge">
<title>Node17&#45;&gt;Node11</title>
<g id="a_edge25_Node000017_Node000011"><a xlink:title=" ">
<path fill="none" stroke="#63b8ff" d="M677.61,-231.16C632.31,-219.55 579.14,-205.92 536.76,-195.05"/>
<polygon fill="#63b8ff" stroke="#63b8ff" points="676.89,-234.59 687.45,-233.68 678.63,-227.81 676.89,-234.59"/>
</a>
</g>
</g>
<!-- Node18&#45;&gt;Node16 -->
<g id="edge27_Node000018_Node000016" class="edge">
<title>Node18&#45;&gt;Node16</title>
<g id="a_edge27_Node000018_Node000016"><a xlink:title=" ">
<path fill="none" stroke="#63b8ff" d="M815.87,-396.84C813.27,-388.23 810.53,-379.19 808.11,-371.16"/>
<polygon fill="#63b8ff" stroke="#63b8ff" points="812.6,-398.1 818.84,-406.66 819.3,-396.08 812.6,-398.1"/>
</a>
</g>
</g>
<!-- Node19&#45;&gt;Node11 -->
<g id="edge31_Node000019_Node000011" class="edge">
<title>Node19&#45;&gt;Node11</title>
<g id="a_edge31_Node000019_Node000011"><a xlink:title=" ">
<path fill="none" stroke="#63b8ff" d="M503.31,-309.09C492.25,-274.58 475.72,-223 466.78,-195.11"/>
<polygon fill="#63b8ff" stroke="#63b8ff" points="500.03,-310.32 506.42,-318.77 506.7,-308.18 500.03,-310.32"/>
</a>
</g>
</g>
<!-- Node19&#45;&gt;Node14 -->
<g id="edge30_Node000019_Node000014" class="edge">
<title>Node19&#45;&gt;Node14</title>
<g id="a_edge30_Node000019_Node000014"><a xlink:title=" ">
<path fill="none" stroke="#63b8ff" d="M432.59,-315.6C396.61,-303.12 355.26,-288.78 322.82,-277.53"/>
<polygon fill="#63b8ff" stroke="#63b8ff" points="431.51,-318.92 442.1,-318.89 433.8,-312.31 431.51,-318.92"/>
</a>
</g>
</g>
<!-- Node20&#45;&gt;Node3 -->
<g id="edge35_Node000020_Node000003" class="edge">
<title>Node20&#45;&gt;Node3</title>
<g id="a_edge35_Node000020_Node000003"><a xlink:title=" ">
<path fill="none" stroke="#63b8ff" d="M1003.77,-899.33C1095.76,-877.23 1220.5,-828.31 1220.5,-725.5 1220.5,-725.5 1220.5,-725.5 1220.5,-256 1220.5,-178.27 662.02,-122.93 452.04,-104.86"/>
<polygon fill="#63b8ff" stroke="#63b8ff" points="1002.8,-895.97 993.86,-901.64 1004.39,-902.78 1002.8,-895.97"/>
</a>
</g>
</g>
<!-- Node21 -->
<g id="Node000021" class="node">
<title>Node21</title>
<g id="a_Node000021"><a xlink:href="BranchCellHabitatDomain_8h.html" target="_top" xlink:title="Defines the BranchCellHabitatDomain class for managing habitat domains in branch terrain cells.">
<polygon fill="white" stroke="#666666" points="1169,-756 936,-756 936,-693 1169,-693 1169,-756"/>
<text text-anchor="start" x="944" y="-744" font-family="Helvetica,sans-Serif" font-size="10.00">/home/runner/work/Weaver</text>
<text text-anchor="start" x="944" y="-733" font-family="Helvetica,sans-Serif" font-size="10.00">/Weaver/include/App/Model</text>
<text text-anchor="start" x="944" y="-722" font-family="Helvetica,sans-Serif" font-size="10.00">/IBM/Landscape/Map/SpatialTree</text>
<text text-anchor="start" x="944" y="-711" font-family="Helvetica,sans-Serif" font-size="10.00">/TerrainCells/PatchApplicator</text>
<text text-anchor="middle" x="1052.5" y="-700" font-family="Helvetica,sans-Serif" font-size="10.00">/HabitatDomain/BranchCellHabitatDomain.h</text>
</a>
</g>
</g>
<!-- Node20&#45;&gt;Node21 -->
<g id="edge36_Node000020_Node000021" class="edge">
<title>Node20&#45;&gt;Node21</title>
<g id="a_edge36_Node000020_Node000021"><a xlink:title=" ">
<path fill="none" stroke="#63b8ff" d="M970.35,-885.58C983.28,-877.09 995.87,-866.88 1005.5,-855 1028.99,-826.01 1041.31,-784.27 1047.34,-756.07"/>
<polygon fill="#63b8ff" stroke="#63b8ff" points="968.45,-882.64 961.82,-890.91 972.16,-888.58 968.45,-882.64"/>
</a>
</g>
</g>
<!-- Node23 -->
<g id="Node000023" class="node">
<title>Node23</title>
<g id="a_Node000023"><a xlink:href="CellHabitatDomainInterface_8h.html" target="_top" xlink:title="Declares the CellHabitatDomainInterface class, which stores and manages habitat&#45;domain information fo...">
<polygon fill="white" stroke="#666666" points="996,-855 819,-855 819,-792 996,-792 996,-855"/>
<text text-anchor="start" x="827" y="-843" font-family="Helvetica,sans-Serif" font-size="10.00">/home/runner/work/Weaver</text>
<text text-anchor="start" x="827" y="-832" font-family="Helvetica,sans-Serif" font-size="10.00">/Weaver/include/App/Model</text>
<text text-anchor="start" x="827" y="-821" font-family="Helvetica,sans-Serif" font-size="10.00">/IBM/Landscape/Map/TerrainCells</text>
<text text-anchor="start" x="827" y="-810" font-family="Helvetica,sans-Serif" font-size="10.00">/PatchApplicator/HabitatDomain</text>
<text text-anchor="middle" x="907.5" y="-799" font-family="Helvetica,sans-Serif" font-size="10.00">/CellHabitatDomainInterface.h</text>
</a>
</g>
</g>
<!-- Node20&#45;&gt;Node23 -->
<g id="edge39_Node000020_Node000023" class="edge">
<title>Node20&#45;&gt;Node23</title>
<g id="a_edge39_Node000020_Node000023"><a xlink:title=" ">
<path fill="none" stroke="#63b8ff" d="M907.5,-880.93C907.5,-872.39 907.5,-863.32 907.5,-855.02"/>
<polygon fill="#63b8ff" stroke="#63b8ff" points="904,-881 907.5,-891 911,-881 904,-881"/>
</a>
</g>
</g>
<!-- Node26 -->
<g id="Node000026" class="node">
<title>Node26</title>
<g id="a_Node000026"><a xlink:href="PatchApplicator_8h.html" target="_top" xlink:title="Defines the PatchApplicator class responsible for applying patches (moisture, resource,...">
<polygon fill="white" stroke="#666666" points="856.5,-750.5 674.5,-750.5 674.5,-698.5 856.5,-698.5 856.5,-750.5"/>
<text text-anchor="start" x="682.5" y="-738.5" font-family="Helvetica,sans-Serif" font-size="10.00">/home/runner/work/Weaver</text>
<text text-anchor="start" x="682.5" y="-727.5" font-family="Helvetica,sans-Serif" font-size="10.00">/Weaver/include/App/Model</text>
<text text-anchor="start" x="682.5" y="-716.5" font-family="Helvetica,sans-Serif" font-size="10.00">/IBM/Landscape/Map/TerrainCells</text>
<text text-anchor="middle" x="765.5" y="-705.5" font-family="Helvetica,sans-Serif" font-size="10.00">/PatchApplicator/PatchApplicator.h</text>
</a>
</g>
</g>
<!-- Node20&#45;&gt;Node26 -->
<g id="edge50_Node000020_Node000026" class="edge">
<title>Node20&#45;&gt;Node26</title>
<g id="a_edge50_Node000020_Node000026"><a xlink:title=" ">
<path fill="none" stroke="#63b8ff" d="M844.81,-885.34C832.14,-876.9 819.86,-866.76 810.5,-855 785.83,-823.99 774.22,-778.53 769.11,-750.55"/>
<polygon fill="#63b8ff" stroke="#63b8ff" points="843.29,-888.52 853.61,-890.91 847.03,-882.61 843.29,-888.52"/>
</a>
</g>
</g>
<!-- Node22 -->
<g id="Node000022" class="node">
<title>Node22</title>
<g id="a_Node000022"><a xlink:href="BranchPatchApplicator_8h.html" target="_top" xlink:title="Defines the BranchPatchApplicator class for applying patches to branch terrain cells in a spatial tre...">
<polygon fill="white" stroke="#666666" points="1192.5,-558 1018.5,-558 1018.5,-495 1192.5,-495 1192.5,-558"/>
<text text-anchor="start" x="1026.5" y="-546" font-family="Helvetica,sans-Serif" font-size="10.00">/home/runner/work/Weaver</text>
<text text-anchor="start" x="1026.5" y="-535" font-family="Helvetica,sans-Serif" font-size="10.00">/Weaver/include/App/Model</text>
<text text-anchor="start" x="1026.5" y="-524" font-family="Helvetica,sans-Serif" font-size="10.00">/IBM/Landscape/Map/SpatialTree</text>
<text text-anchor="start" x="1026.5" y="-513" font-family="Helvetica,sans-Serif" font-size="10.00">/TerrainCells/PatchApplicator</text>
<text text-anchor="middle" x="1105.5" y="-502" font-family="Helvetica,sans-Serif" font-size="10.00">/BranchPatchApplicator.h</text>
</a>
</g>
</g>
<!-- Node21&#45;&gt;Node22 -->
<g id="edge37_Node000021_Node000022" class="edge">
<title>Node21&#45;&gt;Node22</title>
<g id="a_edge37_Node000021_Node000022"><a xlink:title=" ">
<path fill="none" stroke="#63b8ff" d="M1063.48,-682.9C1073.5,-645.83 1088.1,-591.84 1097.19,-558.23"/>
<polygon fill="#63b8ff" stroke="#63b8ff" points="1060.01,-682.31 1060.78,-692.88 1066.77,-684.14 1060.01,-682.31"/>
</a>
</g>
</g>
<!-- Node22&#45;&gt;Node16 -->
<g id="edge38_Node000022_Node000016" class="edge">
<title>Node22&#45;&gt;Node16</title>
<g id="a_edge38_Node000022_Node000016"><a xlink:title=" ">
<path fill="none" stroke="#63b8ff" d="M1052.83,-489.17C1016.78,-464.86 967.53,-432.73 922.5,-407 900.4,-394.37 875.34,-381.59 853.72,-371.01"/>
<polygon fill="#63b8ff" stroke="#63b8ff" points="1051,-492.16 1061.24,-494.86 1054.92,-486.36 1051,-492.16"/>
</a>
</g>
</g>
<!-- Node23&#45;&gt;Node21 -->
<g id="edge40_Node000023_Node000021" class="edge">
<title>Node23&#45;&gt;Node21</title>
<g id="a_edge40_Node000023_Node000021"><a xlink:title=" ">
<path fill="none" stroke="#63b8ff" d="M961.87,-786.13C976.54,-776.32 992.26,-765.8 1006.42,-756.32"/>
<polygon fill="#63b8ff" stroke="#63b8ff" points="959.74,-783.34 953.38,-791.81 963.64,-789.16 959.74,-783.34"/>
</a>
</g>
</g>
<!-- Node24 -->
<g id="Node000024" class="node">
<title>Node24</title>
<g id="a_Node000024"><a xlink:href="CellHabitatDomain_8h.html" target="_top" xlink:title="Declares the CellHabitatDomain class, a concrete implementation of CellHabitatDomainInterface represe...">
<polygon fill="white" stroke="#666666" points="1031,-657 854,-657 854,-594 1031,-594 1031,-657"/>
<text text-anchor="start" x="862" y="-645" font-family="Helvetica,sans-Serif" font-size="10.00">/home/runner/work/Weaver</text>
<text text-anchor="start" x="862" y="-634" font-family="Helvetica,sans-Serif" font-size="10.00">/Weaver/include/App/Model</text>
<text text-anchor="start" x="862" y="-623" font-family="Helvetica,sans-Serif" font-size="10.00">/IBM/Landscape/Map/TerrainCells</text>
<text text-anchor="start" x="862" y="-612" font-family="Helvetica,sans-Serif" font-size="10.00">/PatchApplicator/HabitatDomain</text>
<text text-anchor="middle" x="942.5" y="-601" font-family="Helvetica,sans-Serif" font-size="10.00">/CellHabitatDomain.h</text>
</a>
</g>
</g>
<!-- Node23&#45;&gt;Node24 -->
<g id="edge41_Node000023_Node000024" class="edge">
<title>Node23&#45;&gt;Node24</title>
<g id="a_edge41_Node000023_Node000024"><a xlink:title=" ">
<path fill="none" stroke="#63b8ff" d="M913.07,-781.71C916.74,-756.15 921.89,-722.56 927.5,-693 929.73,-681.26 932.53,-668.43 935.11,-657.2"/>
<polygon fill="#63b8ff" stroke="#63b8ff" points="909.58,-781.39 911.64,-791.79 916.51,-782.38 909.58,-781.39"/>
</a>
</g>
</g>
<!-- Node23&#45;&gt;Node26 -->
<g id="edge44_Node000023_Node000026" class="edge">
<title>Node23&#45;&gt;Node26</title>
<g id="a_edge44_Node000023_Node000026"><a xlink:title=" ">
<path fill="none" stroke="#63b8ff" d="M854.25,-786.13C837.03,-774.36 818.31,-761.58 802.53,-750.8"/>
<polygon fill="#63b8ff" stroke="#63b8ff" points="852.34,-789.06 862.57,-791.81 856.29,-783.28 852.34,-789.06"/>
</a>
</g>
</g>
<!-- Node25 -->
<g id="Node000025" class="node">
<title>Node25</title>
<g id="a_Node000025"><a xlink:href="LeafPatchApplicator_8h.html" target="_top" xlink:title="Defines the LeafPatchApplicator class for applying patches to leaf terrain cells in a spatial tree.">
<polygon fill="white" stroke="#666666" points="1000.5,-558 826.5,-558 826.5,-495 1000.5,-495 1000.5,-558"/>
<text text-anchor="start" x="834.5" y="-546" font-family="Helvetica,sans-Serif" font-size="10.00">/home/runner/work/Weaver</text>
<text text-anchor="start" x="834.5" y="-535" font-family="Helvetica,sans-Serif" font-size="10.00">/Weaver/include/App/Model</text>
<text text-anchor="start" x="834.5" y="-524" font-family="Helvetica,sans-Serif" font-size="10.00">/IBM/Landscape/Map/SpatialTree</text>
<text text-anchor="start" x="834.5" y="-513" font-family="Helvetica,sans-Serif" font-size="10.00">/TerrainCells/PatchApplicator</text>
<text text-anchor="middle" x="913.5" y="-502" font-family="Helvetica,sans-Serif" font-size="10.00">/LeafPatchApplicator.h</text>
</a>
</g>
</g>
<!-- Node24&#45;&gt;Node25 -->
<g id="edge42_Node000024_Node000025" class="edge">
<title>Node24&#45;&gt;Node25</title>
<g id="a_edge42_Node000024_Node000025"><a xlink:title=" ">
<path fill="none" stroke="#63b8ff" d="M930.38,-583.96C927.82,-575.39 925.15,-566.47 922.72,-558.32"/>
<polygon fill="#63b8ff" stroke="#63b8ff" points="927.11,-585.23 933.32,-593.81 933.81,-583.23 927.11,-585.23"/>
</a>
</g>
</g>
<!-- Node25&#45;&gt;Node18 -->
<g id="edge43_Node000025_Node000018" class="edge">
<title>Node25&#45;&gt;Node18</title>
<g id="a_edge43_Node000025_Node000018"><a xlink:title=" ">
<path fill="none" stroke="#63b8ff" d="M877.14,-487.26C868.07,-477.72 858.57,-467.73 850.29,-459.02"/>
<polygon fill="#63b8ff" stroke="#63b8ff" points="874.86,-489.94 884.29,-494.78 879.93,-485.12 874.86,-489.94"/>
</a>
</g>
</g>
<!-- Node26&#45;&gt;Node13 -->
<g id="edge49_Node000026_Node000013" class="edge">
<title>Node26&#45;&gt;Node13</title>
<g id="a_edge49_Node000026_Node000013"><a xlink:title=" ">
<path fill="none" stroke="#63b8ff" d="M664.28,-714.44C566.53,-704.52 414.72,-686.05 285.5,-657 278.44,-655.41 271.15,-653.55 263.89,-651.54"/>
<polygon fill="#63b8ff" stroke="#63b8ff" points="664.16,-717.94 674.45,-715.46 664.85,-710.98 664.16,-717.94"/>
</a>
</g>
</g>
<!-- Node27 -->
<g id="Node000027" class="node">
<title>Node27</title>
<g id="a_Node000027"><a xlink:href="SpatialTreePatchApplicator_8h.html" target="_top" xlink:title="Defines the SpatialTreePatchApplicator class for applying patches in a spatial tree of terrain cells.">
<polygon fill="white" stroke="#666666" points="835.5,-657 661.5,-657 661.5,-594 835.5,-594 835.5,-657"/>
<text text-anchor="start" x="669.5" y="-645" font-family="Helvetica,sans-Serif" font-size="10.00">/home/runner/work/Weaver</text>
<text text-anchor="start" x="669.5" y="-634" font-family="Helvetica,sans-Serif" font-size="10.00">/Weaver/include/App/Model</text>
<text text-anchor="start" x="669.5" y="-623" font-family="Helvetica,sans-Serif" font-size="10.00">/IBM/Landscape/Map/SpatialTree</text>
<text text-anchor="start" x="669.5" y="-612" font-family="Helvetica,sans-Serif" font-size="10.00">/TerrainCells/PatchApplicator</text>
<text text-anchor="middle" x="748.5" y="-601" font-family="Helvetica,sans-Serif" font-size="10.00">/SpatialTreePatchApplicator.h</text>
</a>
</g>
</g>
<!-- Node26&#45;&gt;Node27 -->
<g id="edge45_Node000026_Node000027" class="edge">
<title>Node26&#45;&gt;Node27</title>
<g id="a_edge45_Node000026_Node000027"><a xlink:title=" ">
<path fill="none" stroke="#63b8ff" d="M759.35,-688.4C757.56,-678.17 755.61,-667.07 753.87,-657.14"/>
<polygon fill="#63b8ff" stroke="#63b8ff" points="755.9,-689.02 761.08,-698.27 762.8,-687.81 755.9,-689.02"/>
</a>
</g>
</g>
<!-- Node27&#45;&gt;Node15 -->
<g id="edge48_Node000027_Node000015" class="edge">
<title>Node27&#45;&gt;Node15</title>
<g id="a_edge48_Node000027_Node000015"><a xlink:title=" ">
<path fill="none" stroke="#63b8ff" d="M733.14,-584.24C729.08,-573.6 724.81,-562.4 721.15,-552.8"/>
<polygon fill="#63b8ff" stroke="#63b8ff" points="729.96,-585.71 736.79,-593.81 736.5,-583.22 729.96,-585.71"/>
</a>
</g>
</g>
<!-- Node27&#45;&gt;Node22 -->
<g id="edge46_Node000027_Node000022" class="edge">
<title>Node27&#45;&gt;Node22</title>
<g id="a_edge46_Node000027_Node000022"><a xlink:title=" ">
<path fill="none" stroke="#63b8ff" d="M845.2,-594.08C845.3,-594.05 845.4,-594.03 845.5,-594 917.61,-574.79 937.42,-577.32 1009.5,-558 1012.46,-557.21 1015.46,-556.38 1018.48,-555.53"/>
<polygon fill="#63b8ff" stroke="#63b8ff" points="844.36,-590.68 835.64,-596.7 846.21,-597.43 844.36,-590.68"/>
</a>
</g>
</g>
<!-- Node27&#45;&gt;Node25 -->
<g id="edge47_Node000027_Node000025" class="edge">
<title>Node27&#45;&gt;Node25</title>
<g id="a_edge47_Node000027_Node000025"><a xlink:title=" ">
<path fill="none" stroke="#63b8ff" d="M809.48,-588.65C826.52,-578.64 844.87,-567.84 861.35,-558.16"/>
<polygon fill="#63b8ff" stroke="#63b8ff" points="807.55,-585.72 800.71,-593.81 811.1,-591.76 807.55,-585.72"/>
</a>
</g>
</g>
<!-- Node28&#45;&gt;Node2 -->
<g id="edge54_Node000028_Node000002" class="edge">
<title>Node28&#45;&gt;Node2</title>
<g id="a_edge54_Node000028_Node000002"><a xlink:title=" ">
<path fill="none" stroke="#63b8ff" d="M653.74,-1060.69C666.78,-1051.02 680.97,-1040.49 693.39,-1031.29"/>
<polygon fill="#63b8ff" stroke="#63b8ff" points="651.31,-1058.13 645.36,-1066.89 655.48,-1063.75 651.31,-1058.13"/>
</a>
</g>
</g>
</g>
</svg>
