<?xml version="1.0" encoding="UTF-8" standalone="no"?>
<!DOCTYPE svg PUBLIC "-//W3C//DTD SVG 1.1//EN"
 "http://www.w3.org/Graphics/SVG/1.1/DTD/svg11.dtd">
<!-- Generated by graphviz version 2.43.0 (0)
 -->
<!-- Title: CellElement Pages: 1 -->
<svg width="452pt" height="286pt"
 viewBox="0.00 0.00 452.00 286.00" xmlns="http://www.w3.org/2000/svg" xmlns:xlink="http://www.w3.org/1999/xlink">

<svg id="main" version="1.1" xmlns="http://www.w3.org/2000/svg" xmlns:xlink="http://www.w3.org/1999/xlink" xml:space="preserve" onload="init(evt)">
<style type="text/css"><![CDATA[
.node, .edge {opacity: 0.7;}
.node.selected, .edge.selected {opacity: 1;}
.edge:hover path { stroke: red; }
.edge:hover polygon { stroke: red; fill: red; }
]]></style>
<script type="application/ecmascript" xlink:href="svg.min.js"/>
<svg id="graph" class="graph">
<g id="graph0" class="graph" transform="scale(1 1) rotate(0) translate(4 282)">
<title>CellElement</title>
<!-- Node1 -->
<g id="Node000001" class="node">
<title>Node1</title>
<g id="a_Node000001"><a xlink:title="Base class for any modifiable element contained within a terrain cell.">
<polygon fill="#999999" stroke="#666666" points="76,-148 0,-148 0,-129 76,-129 76,-148"/>
<text text-anchor="middle" x="38" y="-136" font-family="Helvetica,sans-Serif" font-size="10.00">CellElement</text>
</a>
</g>
</g>
<!-- Node2 -->
<g id="Node000002" class="node">
<title>Node2</title>
<g id="a_Node000002"><a xlink:href="classCellHabitatDomainInterface.html" target="_top" xlink:title="Represents the habitat&#45;domain information associated with a terrain cell.">
<polygon fill="white" stroke="#666666" points="265,-241 112,-241 112,-222 265,-222 265,-241"/>
<text text-anchor="middle" x="188.5" y="-229" font-family="Helvetica,sans-Serif" font-size="10.00">CellHabitatDomainInterface</text>
</a>
</g>
</g>
<!-- Node1&#45;&gt;Node2 -->
<g id="edge1_Node000001_Node000002" class="edge">
<title>Node1&#45;&gt;Node2</title>
<g id="a_edge1_Node000001_Node000002"><a xlink:title=" ">
<path fill="none" stroke="#63b8ff" d="M63.13,-153.61C93.88,-172.87 146.14,-205.6 172.03,-221.81"/>
<polygon fill="#63b8ff" stroke="#63b8ff" points="64.67,-150.44 54.33,-148.1 60.95,-156.38 64.67,-150.44"/>
</a>
</g>
</g>
<!-- Node5 -->
<g id="Node000005" class="node">
<title>Node5</title>
<g id="a_Node000005"><a xlink:href="classCellMoistureInterface.html" target="_top" xlink:title="Base interface representing the hydrological and thermal properties of a terrain cell.">
<polygon fill="white" stroke="#666666" points="249.5,-167 127.5,-167 127.5,-148 249.5,-148 249.5,-167"/>
<text text-anchor="middle" x="188.5" y="-155" font-family="Helvetica,sans-Serif" font-size="10.00">CellMoistureInterface</text>
</a>
</g>
</g>
<!-- Node1&#45;&gt;Node5 -->
<g id="edge4_Node000001_Node000005" class="edge">
<title>Node1&#45;&gt;Node5</title>
<g id="a_edge4_Node000001_Node000005"><a xlink:title=" ">
<path fill="none" stroke="#63b8ff" d="M86.22,-144.54C99.25,-146.21 113.56,-148.04 127.22,-149.79"/>
<polygon fill="#63b8ff" stroke="#63b8ff" points="86.45,-141.04 76.09,-143.25 85.56,-147.99 86.45,-141.04"/>
</a>
</g>
</g>
<!-- Node8 -->
<g id="Node000008" class="node">
<title>Node8</title>
<g id="a_Node000008"><a xlink:href="classCellObstacleInterface.html" target="_top" xlink:title="Interface for managing obstacles in a terrain cell.">
<polygon fill="white" stroke="#666666" points="249.5,-130 127.5,-130 127.5,-111 249.5,-111 249.5,-130"/>
<text text-anchor="middle" x="188.5" y="-118" font-family="Helvetica,sans-Serif" font-size="10.00">CellObstacleInterface</text>
</a>
</g>
</g>
<!-- Node1&#45;&gt;Node8 -->
<g id="edge7_Node000001_Node000008" class="edge">
<title>Node1&#45;&gt;Node8</title>
<g id="a_edge7_Node000001_Node000008"><a xlink:title=" ">
<path fill="none" stroke="#63b8ff" d="M86.22,-132.78C99.25,-131.2 113.56,-129.46 127.22,-127.81"/>
<polygon fill="#63b8ff" stroke="#63b8ff" points="85.6,-129.33 76.09,-134 86.44,-136.28 85.6,-129.33"/>
</a>
</g>
</g>
<!-- Node11 -->
<g id="Node000011" class="node">
<title>Node11</title>
<g id="a_Node000011"><a xlink:href="classCellResourceInterface.html" target="_top" xlink:title="Interface for a resource in a terrain cell.">
<polygon fill="white" stroke="#666666" points="250.5,-56 126.5,-56 126.5,-37 250.5,-37 250.5,-56"/>
<text text-anchor="middle" x="188.5" y="-44" font-family="Helvetica,sans-Serif" font-size="10.00">CellResourceInterface</text>
</a>
</g>
</g>
<!-- Node1&#45;&gt;Node11 -->
<g id="edge10_Node000001_Node000011" class="edge">
<title>Node1&#45;&gt;Node11</title>
<g id="a_edge10_Node000001_Node000011"><a xlink:title=" ">
<path fill="none" stroke="#63b8ff" d="M63.44,-123.36C94.26,-104.26 146.32,-72.01 172.1,-56.04"/>
<polygon fill="#63b8ff" stroke="#63b8ff" points="61.27,-120.59 54.61,-128.83 64.96,-126.54 61.27,-120.59"/>
</a>
</g>
</g>
<!-- Node3 -->
<g id="Node000003" class="node">
<title>Node3</title>
<g id="a_Node000003"><a xlink:href="classBranchCellHabitatDomain.html" target="_top" xlink:title="Habitat domain implementation for branch nodes in a spatial tree.">
<polygon fill="white" stroke="#666666" points="444,-278 301,-278 301,-259 444,-259 444,-278"/>
<text text-anchor="middle" x="372.5" y="-266" font-family="Helvetica,sans-Serif" font-size="10.00">BranchCellHabitatDomain</text>
</a>
</g>
</g>
<!-- Node2&#45;&gt;Node3 -->
<g id="edge2_Node000002_Node000003" class="edge">
<title>Node2&#45;&gt;Node3</title>
<g id="a_edge2_Node000002_Node000003"><a xlink:title=" ">
<path fill="none" stroke="#63b8ff" d="M246.48,-243.08C271.56,-248.18 300.66,-254.1 324.47,-258.94"/>
<polygon fill="#63b8ff" stroke="#63b8ff" points="246.87,-239.59 236.37,-241.03 245.47,-246.45 246.87,-239.59"/>
</a>
</g>
</g>
<!-- Node4 -->
<g id="Node000004" class="node">
<title>Node4</title>
<g id="a_Node000004"><a xlink:href="classCellHabitatDomain.html" target="_top" xlink:title="Concrete implementation of CellHabitatDomainInterface representing the habitat&#45;domain properties of a...">
<polygon fill="white" stroke="#666666" points="427.5,-241 317.5,-241 317.5,-222 427.5,-222 427.5,-241"/>
<text text-anchor="middle" x="372.5" y="-229" font-family="Helvetica,sans-Serif" font-size="10.00">CellHabitatDomain</text>
</a>
</g>
</g>
<!-- Node2&#45;&gt;Node4 -->
<g id="edge3_Node000002_Node000004" class="edge">
<title>Node2&#45;&gt;Node4</title>
<g id="a_edge3_Node000002_Node000004"><a xlink:title=" ">
<path fill="none" stroke="#63b8ff" d="M275.47,-231.5C289.78,-231.5 304.26,-231.5 317.48,-231.5"/>
<polygon fill="#63b8ff" stroke="#63b8ff" points="275.1,-228 265.1,-231.5 275.1,-235 275.1,-228"/>
</a>
</g>
</g>
<!-- Node6 -->
<g id="Node000006" class="node">
<title>Node6</title>
<g id="a_Node000006"><a xlink:href="classBranchCellMoisture.html" target="_top" xlink:title="Moisture implementation for branch nodes in a spatial tree.">
<polygon fill="white" stroke="#666666" points="428.5,-204 316.5,-204 316.5,-185 428.5,-185 428.5,-204"/>
<text text-anchor="middle" x="372.5" y="-192" font-family="Helvetica,sans-Serif" font-size="10.00">BranchCellMoisture</text>
</a>
</g>
</g>
<!-- Node5&#45;&gt;Node6 -->
<g id="edge5_Node000005_Node000006" class="edge">
<title>Node5&#45;&gt;Node6</title>
<g id="a_edge5_Node000005_Node000006"><a xlink:title=" ">
<path fill="none" stroke="#63b8ff" d="M246.48,-169.08C271.56,-174.18 300.66,-180.1 324.47,-184.94"/>
<polygon fill="#63b8ff" stroke="#63b8ff" points="246.87,-165.59 236.37,-167.03 245.47,-172.45 246.87,-165.59"/>
</a>
</g>
</g>
<!-- Node7 -->
<g id="Node000007" class="node">
<title>Node7</title>
<g id="a_Node000007"><a xlink:href="classCellMoisture.html" target="_top" xlink:title="Concrete moisture model for a terrain cell.">
<polygon fill="white" stroke="#666666" points="411.5,-167 333.5,-167 333.5,-148 411.5,-148 411.5,-167"/>
<text text-anchor="middle" x="372.5" y="-155" font-family="Helvetica,sans-Serif" font-size="10.00">CellMoisture</text>
</a>
</g>
</g>
<!-- Node5&#45;&gt;Node7 -->
<g id="edge6_Node000005_Node000007" class="edge">
<title>Node5&#45;&gt;Node7</title>
<g id="a_edge6_Node000005_Node000007"><a xlink:title=" ">
<path fill="none" stroke="#63b8ff" d="M259.81,-157.5C284.87,-157.5 312.14,-157.5 333.47,-157.5"/>
<polygon fill="#63b8ff" stroke="#63b8ff" points="259.6,-154 249.6,-157.5 259.6,-161 259.6,-154"/>
</a>
</g>
</g>
<!-- Node9 -->
<g id="Node000009" class="node">
<title>Node9</title>
<g id="a_Node000009"><a xlink:href="classBranchCellObstacle.html" target="_top" xlink:title="Obstacle representation for branch nodes in a spatial tree.">
<polygon fill="white" stroke="#666666" points="428.5,-130 316.5,-130 316.5,-111 428.5,-111 428.5,-130"/>
<text text-anchor="middle" x="372.5" y="-118" font-family="Helvetica,sans-Serif" font-size="10.00">BranchCellObstacle</text>
</a>
</g>
</g>
<!-- Node8&#45;&gt;Node9 -->
<g id="edge8_Node000008_Node000009" class="edge">
<title>Node8&#45;&gt;Node9</title>
<g id="a_edge8_Node000008_Node000009"><a xlink:title=" ">
<path fill="none" stroke="#63b8ff" d="M259.6,-120.5C278.42,-120.5 298.5,-120.5 316.38,-120.5"/>
<polygon fill="#63b8ff" stroke="#63b8ff" points="259.6,-117 249.6,-120.5 259.6,-124 259.6,-117"/>
</a>
</g>
</g>
<!-- Node10 -->
<g id="Node000010" class="node">
<title>Node10</title>
<g id="a_Node000010"><a xlink:href="classCellObstacle.html" target="_top" xlink:title="Concrete obstacle element for a terrain cell.">
<polygon fill="white" stroke="#666666" points="411.5,-93 333.5,-93 333.5,-74 411.5,-74 411.5,-93"/>
<text text-anchor="middle" x="372.5" y="-81" font-family="Helvetica,sans-Serif" font-size="10.00">CellObstacle</text>
</a>
</g>
</g>
<!-- Node8&#45;&gt;Node10 -->
<g id="edge9_Node000008_Node000010" class="edge">
<title>Node8&#45;&gt;Node10</title>
<g id="a_edge9_Node000008_Node000010"><a xlink:title=" ">
<path fill="none" stroke="#63b8ff" d="M246.53,-108.91C274.82,-103.15 308.21,-96.37 333.36,-91.25"/>
<polygon fill="#63b8ff" stroke="#63b8ff" points="245.47,-105.55 236.37,-110.97 246.87,-112.41 245.47,-105.55"/>
</a>
</g>
</g>
<!-- Node12 -->
<g id="Node000012" class="node">
<title>Node12</title>
<g id="a_Node000012"><a xlink:href="classBranchCellResource.html" target="_top" xlink:title="Resource representation for branch nodes in a spatial tree.">
<polygon fill="white" stroke="#666666" points="429.5,-56 315.5,-56 315.5,-37 429.5,-37 429.5,-56"/>
<text text-anchor="middle" x="372.5" y="-44" font-family="Helvetica,sans-Serif" font-size="10.00">BranchCellResource</text>
</a>
</g>
</g>
<!-- Node11&#45;&gt;Node12 -->
<g id="edge11_Node000011_Node000012" class="edge">
<title>Node11&#45;&gt;Node12</title>
<g id="a_edge11_Node000011_Node000012"><a xlink:title=" ">
<path fill="none" stroke="#63b8ff" d="M260.84,-46.5C278.98,-46.5 298.21,-46.5 315.46,-46.5"/>
<polygon fill="#63b8ff" stroke="#63b8ff" points="260.61,-43 250.61,-46.5 260.61,-50 260.61,-43"/>
</a>
</g>
</g>
<!-- Node13 -->
<g id="Node000013" class="node">
<title>Node13</title>
<g id="a_Node000013"><a xlink:href="classCellResource.html" target="_top" xlink:title="Concrete implementation of a resource cell.">
<polygon fill="white" stroke="#666666" points="412.5,-19 332.5,-19 332.5,0 412.5,0 412.5,-19"/>
<text text-anchor="middle" x="372.5" y="-7" font-family="Helvetica,sans-Serif" font-size="10.00">CellResource</text>
</a>
</g>
</g>
<!-- Node11&#45;&gt;Node13 -->
<g id="edge12_Node000011_Node000013" class="edge">
<title>Node11&#45;&gt;Node13</title>
<g id="a_edge12_Node000011_Node000013"><a xlink:title=" ">
<path fill="none" stroke="#63b8ff" d="M246.42,-34.93C274.4,-29.24 307.4,-22.53 332.47,-17.43"/>
<polygon fill="#63b8ff" stroke="#63b8ff" points="245.47,-31.55 236.37,-36.97 246.87,-38.41 245.47,-31.55"/>
</a>
</g>
</g>
</g>
</svg>
</svg>

<style type='text/css'>
<![CDATA[
[data-mouse-over-selected='false'] { opacity: 0.7; }
[data-mouse-over-selected='true']  { opacity: 1.0; }
]]>
</style>
<script type="application/ecmascript"><![CDATA[
document.addEventListener('DOMContentLoaded', (event) => {
  highlightEdges();
  highlightAdjacentNodes();
});
]]></script>
</svg>
