<?xml version="1.0" encoding="UTF-8" standalone="no"?>
<!DOCTYPE svg PUBLIC "-//W3C//DTD SVG 1.1//EN"
 "http://www.w3.org/Graphics/SVG/1.1/DTD/svg11.dtd">
<!-- Generated by graphviz version 2.43.0 (0)
 -->
<!-- Title: Dynamics Pages: 1 -->
<svg width="456pt" height="137pt"
 viewBox="0.00 0.00 455.50 137.00" xmlns="http://www.w3.org/2000/svg" xmlns:xlink="http://www.w3.org/1999/xlink">
<g id="graph0" class="graph" transform="scale(1 1) rotate(0) translate(4 133)">
<title>Dynamics</title>
<!-- Node1 -->
<g id="Node000001" class="node">
<title>Node1</title>
<g id="a_Node000001"><a xlink:title="Abstract base class for modeling temporal dynamics.">
<polygon fill="#999999" stroke="#666666" points="210,-129 145,-129 145,-110 210,-110 210,-129"/>
<text text-anchor="middle" x="177.5" y="-117" font-family="Helvetica,sans-Serif" font-size="10.00">Dynamics</text>
</a>
</g>
</g>
<!-- Node2 -->
<g id="Node000002" class="node">
<title>Node2</title>
<g id="a_Node000002"><a xlink:href="classMassBasedDynamics.html" target="_top" xlink:title="Represents dynamics based on mass for living beings or resources.">
<polygon fill="white" stroke="#666666" points="164,-74 43,-74 43,-55 164,-55 164,-74"/>
<text text-anchor="middle" x="103.5" y="-62" font-family="Helvetica,sans-Serif" font-size="10.00">MassBasedDynamics</text>
</a>
</g>
</g>
<!-- Node1&#45;&gt;Node2 -->
<g id="edge1_Node000001_Node000002" class="edge">
<title>Node1&#45;&gt;Node2</title>
<g id="a_edge1_Node000001_Node000002"><a xlink:title=" ">
<path fill="none" stroke="#63b8ff" d="M157.47,-104.15C144.09,-94.57 126.94,-82.29 115.61,-74.17"/>
<polygon fill="#63b8ff" stroke="#63b8ff" points="155.44,-107.01 165.61,-109.98 159.52,-101.32 155.44,-107.01"/>
</a>
</g>
</g>
<!-- Node4 -->
<g id="Node000004" class="node">
<title>Node4</title>
<g id="a_Node000004"><a xlink:href="classNonMassBasedDynamics.html" target="_top" xlink:title="Represents dynamics that are independent of mass.">
<polygon fill="white" stroke="#666666" points="343.5,-74 203.5,-74 203.5,-55 343.5,-55 343.5,-74"/>
<text text-anchor="middle" x="273.5" y="-62" font-family="Helvetica,sans-Serif" font-size="10.00">NonMassBasedDynamics</text>
</a>
</g>
</g>
<!-- Node1&#45;&gt;Node4 -->
<g id="edge3_Node000001_Node000004" class="edge">
<title>Node1&#45;&gt;Node4</title>
<g id="a_edge3_Node000001_Node000004"><a xlink:title=" ">
<path fill="none" stroke="#63b8ff" d="M202.02,-104.97C219.56,-95.28 242.67,-82.52 257.8,-74.17"/>
<polygon fill="#63b8ff" stroke="#63b8ff" points="199.99,-102.09 192.92,-109.98 203.37,-108.22 199.99,-102.09"/>
</a>
</g>
</g>
<!-- Node3 -->
<g id="Node000003" class="node">
<title>Node3</title>
<g id="a_Node000003"><a xlink:href="classGrowthRateDynamics.html" target="_top" xlink:title="Implements mass&#45;based dynamics for growth rate of organisms.">
<polygon fill="white" stroke="#666666" points="123,-19 0,-19 0,0 123,0 123,-19"/>
<text text-anchor="middle" x="61.5" y="-7" font-family="Helvetica,sans-Serif" font-size="10.00">GrowthRateDynamics</text>
</a>
</g>
</g>
<!-- Node2&#45;&gt;Node3 -->
<g id="edge2_Node000002_Node000003" class="edge">
<title>Node2&#45;&gt;Node3</title>
<g id="a_edge2_Node000002_Node000003"><a xlink:title=" ">
<path fill="none" stroke="#63b8ff" d="M90.17,-46.67C82.89,-37.5 74.2,-26.52 68.31,-19.09"/>
<polygon fill="#63b8ff" stroke="#63b8ff" points="87.61,-49.08 96.56,-54.75 93.1,-44.74 87.61,-49.08"/>
</a>
</g>
</g>
<!-- Node5 -->
<g id="Node000005" class="node">
<title>Node5</title>
<g id="a_Node000005"><a xlink:href="classCycleDynamics.html" target="_top" xlink:title="Implements periodic, non–mass&#45;based dynamic behavior.">
<polygon fill="white" stroke="#666666" points="233.5,-19 141.5,-19 141.5,0 233.5,0 233.5,-19"/>
<text text-anchor="middle" x="187.5" y="-7" font-family="Helvetica,sans-Serif" font-size="10.00">CycleDynamics</text>
</a>
</g>
</g>
<!-- Node4&#45;&gt;Node5 -->
<g id="edge4_Node000004_Node000005" class="edge">
<title>Node4&#45;&gt;Node5</title>
<g id="a_edge4_Node000004_Node000005"><a xlink:title=" ">
<path fill="none" stroke="#63b8ff" d="M251.1,-49.7C235.43,-40.04 214.99,-27.44 201.57,-19.17"/>
<polygon fill="#63b8ff" stroke="#63b8ff" points="249.33,-52.72 259.68,-54.98 253.01,-46.76 249.33,-52.72"/>
</a>
</g>
</g>
<!-- Node6 -->
<g id="Node000006" class="node">
<title>Node6</title>
<g id="a_Node000006"><a xlink:href="classNonDynamics.html" target="_top" xlink:title="Represents a non&#45;changing dynamic component in the ecosystem model.">
<polygon fill="white" stroke="#666666" points="337,-19 252,-19 252,0 337,0 337,-19"/>
<text text-anchor="middle" x="294.5" y="-7" font-family="Helvetica,sans-Serif" font-size="10.00">NonDynamics</text>
</a>
</g>
</g>
<!-- Node4&#45;&gt;Node6 -->
<g id="edge5_Node000004_Node000006" class="edge">
<title>Node4&#45;&gt;Node6</title>
<g id="a_edge5_Node000004_Node000006"><a xlink:title=" ">
<path fill="none" stroke="#63b8ff" d="M280.74,-45.24C284.25,-36.37 288.3,-26.14 291.1,-19.09"/>
<polygon fill="#63b8ff" stroke="#63b8ff" points="277.4,-44.16 276.97,-54.75 283.91,-46.74 277.4,-44.16"/>
</a>
</g>
</g>
<!-- Node7 -->
<g id="Node000007" class="node">
<title>Node7</title>
<g id="a_Node000007"><a xlink:href="classPulseDynamics.html" target="_top" xlink:title="Models dynamics that occur as discrete pulses over time.">
<polygon fill="white" stroke="#666666" points="447.5,-19 355.5,-19 355.5,0 447.5,0 447.5,-19"/>
<text text-anchor="middle" x="401.5" y="-7" font-family="Helvetica,sans-Serif" font-size="10.00">PulseDynamics</text>
</a>
</g>
</g>
<!-- Node4&#45;&gt;Node7 -->
<g id="edge6_Node000004_Node000007" class="edge">
<title>Node4&#45;&gt;Node7</title>
<g id="a_edge6_Node000004_Node000007"><a xlink:title=" ">
<path fill="none" stroke="#63b8ff" d="M303.62,-51.03C327.29,-41.23 359.65,-27.83 380.56,-19.17"/>
<polygon fill="#63b8ff" stroke="#63b8ff" points="301.97,-47.93 294.07,-54.98 304.64,-54.39 301.97,-47.93"/>
</a>
</g>
</g>
</g>
</svg>
