<?xml version="1.0" encoding="UTF-8" standalone="no"?>
<!DOCTYPE svg PUBLIC "-//W3C//DTD SVG 1.1//EN"
 "http://www.w3.org/Graphics/SVG/1.1/DTD/svg11.dtd">
<!-- Generated by graphviz version 2.43.0 (0)
 -->
<!-- Title: /home/runner/work/Weaver/Weaver/include/App/Model/IBM/Landscape/Map/TerrainCells Pages: 1 -->
<!--zoomable 196 -->

<svg id="main" version="1.1" xmlns="http://www.w3.org/2000/svg" xmlns:xlink="http://www.w3.org/1999/xlink" xml:space="preserve" onload="init(evt)">
<style type="text/css"><![CDATA[
.node, .edge {opacity: 0.7;}
.node.selected, .edge.selected {opacity: 1;}
.edge:hover path { stroke: red; }
.edge:hover polygon { stroke: red; fill: red; }
]]></style>

<defs>
  <circle id="rim" cx="0" cy="0" r="7"/>
  <circle id="rim2" cx="0" cy="0" r="3.5"/>
  <g id="zoomPlus">
    <use xlink:href="#rim" fill="#404040"><set attributeName="fill" to="#808080" begin="zoomplus.mouseover" end="zoomplus.mouseout"/></use>
    <path d="M-4,0h8M0,-4v8" fill="none" stroke="white" stroke-width="1.5" pointer-events="none"/>
  </g>
  <g id="zoomMin">
    <use xlink:href="#rim" fill="#404040"><set attributeName="fill" to="#808080" begin="zoomminus.mouseover" end="zoomminus.mouseout"/></use>
    <path d="M-4,0h8" fill="none" stroke="white" stroke-width="1.5" pointer-events="none"/>
  </g>
  <g id="arrowUp" transform="translate(30 24)">
    <use xlink:href="#rim"/>
    <path pointer-events="none" fill="none" stroke="white" stroke-width="1.5" d="M0,-3.0v7 M-2.5,-0.5L0,-3.0L2.5,-0.5"/>
  </g>
  <g id="arrowRight" transform="rotate(90) translate(36 -43)">
    <use xlink:href="#rim"/>
    <path pointer-events="none" fill="none" stroke="white" stroke-width="1.5" d="M0,-3.0v7 M-2.5,-0.5L0,-3.0L2.5,-0.5"/>
  </g>
  <g id="arrowDown" transform="rotate(180) translate(-30 -48)">
    <use xlink:href="#rim"/>
    <path pointer-events="none" fill="none" stroke="white" stroke-width="1.5" d="M0,-3.0v7 M-2.5,-0.5L0,-3.0L2.5,-0.5"/>
  </g>
  <g id="arrowLeft" transform="rotate(270) translate(-36 17)">
    <use xlink:href="#rim"/>
    <path pointer-events="none" fill="none" stroke="white" stroke-width="1.5" d="M0,-3.0v7 M-2.5,-0.5L0,-3.0L2.5,-0.5"/>
  </g>
  <g id="resetDef">
    <use xlink:href="#rim2" fill="#404040"><set attributeName="fill" to="#808080" begin="reset.mouseover" end="reset.mouseout"/></use>
  </g>
</defs>
<script type="application/ecmascript">
var viewWidth = 565;
var viewHeight = 196;
var sectionId = 'dynsection-0';
</script>
<script type="application/ecmascript" xlink:href="svg.min.js"/>
<svg id="graph" class="graph">
<g id="viewport">
<title>/home/runner/work/Weaver/Weaver/include/App/Model/IBM/Landscape/Map/TerrainCells</title>
<g id="clust1" class="cluster">
<title>clusterdir_389a21b4e0d5da4afd1bc923d1c21e90</title>
<g id="a_clust1"><a xlink:href="dir_389a21b4e0d5da4afd1bc923d1c21e90.html" target="_top" xlink:title="Map">
<polygon fill="#edf0f7" stroke="#7f7f7f" stroke-dasharray="5,2" points="8,-8 8,-180 251,-180 251,-8 8,-8"/>
<text text-anchor="middle" x="129.5" y="-168" font-family="Helvetica,sans-Serif" font-size="10.00">Map</text>
</a>
</g>
</g>
<g id="clust2" class="cluster">
<title>clusterdir_bdb6f255533d67630a72c5b36fc2157a</title>
<g id="a_clust2"><a xlink:href="dir_bdb6f255533d67630a72c5b36fc2157a.html" target="_top">
<polygon fill="#edf0f7" stroke="#404040" stroke-width="2" points="77,-63 77,-153 185,-153 185,-63 77,-63"/>
</a>
</g>
</g>
<!-- dir_017facbfd39d2f00dec237be0066268e -->
<g id="node1" class="node">
<title>dir_017facbfd39d2f00dec237be0066268e</title>
<g id="a_node1"><a xlink:href="dir_017facbfd39d2f00dec237be0066268e.html" target="_top" xlink:title="Patches">
<polygon fill="#a2b4d6" stroke="red" points="243,-35 189,-35 189,-16 243,-16 243,-35"/>
<text text-anchor="middle" x="216" y="-23" font-family="Helvetica,sans-Serif" font-size="10.00">Patches</text>
</a>
</g>
</g>
<!-- dir_2ee29caf34043349edd495638e9b55e5 -->
<g id="node2" class="node">
<title>dir_2ee29caf34043349edd495638e9b55e5</title>
<g id="a_node2"><a xlink:href="dir_2ee29caf34043349edd495638e9b55e5.html" target="_top" xlink:title="SpatialTree">
<polygon fill="#a2b4d6" stroke="red" points="87.5,-35 16.5,-35 16.5,-16 87.5,-16 87.5,-35"/>
<text text-anchor="middle" x="52" y="-23" font-family="Helvetica,sans-Serif" font-size="10.00">SpatialTree</text>
</a>
</g>
</g>
<!-- dir_c87c7e4d4fdad4f97d517f6e37fa3d03 -->
<g id="node3" class="node">
<title>dir_c87c7e4d4fdad4f97d517f6e37fa3d03</title>
<g id="a_node3"><a xlink:href="dir_c87c7e4d4fdad4f97d517f6e37fa3d03.html" target="_top" xlink:title="Geometry">
<polygon fill="#a2b4d6" stroke="#404040" points="170.5,-35 105.5,-35 105.5,-16 170.5,-16 170.5,-35"/>
<text text-anchor="middle" x="138" y="-23" font-family="Helvetica,sans-Serif" font-size="10.00">Geometry</text>
</a>
</g>
</g>
<!-- dir_fe2315cfed866a6b02d6c74118be6618 -->
<g id="node4" class="node">
<title>dir_fe2315cfed866a6b02d6c74118be6618</title>
<g id="a_node4"><a xlink:href="dir_fe2315cfed866a6b02d6c74118be6618.html" target="_top" xlink:title="Points">
<polygon fill="#a2b4d6" stroke="#404040" points="242.5,-90 195.5,-90 195.5,-71 242.5,-71 242.5,-90"/>
<text text-anchor="middle" x="219" y="-78" font-family="Helvetica,sans-Serif" font-size="10.00">Points</text>
</a>
</g>
</g>
<!-- dir_bdb6f255533d67630a72c5b36fc2157a -->
<g id="node5" class="node">
<title>dir_bdb6f255533d67630a72c5b36fc2157a</title>
<text text-anchor="middle" x="140" y="-133" font-family="Helvetica,sans-Serif" font-size="10.00">TerrainCells</text>
</g>
<!-- dir_bdb6f255533d67630a72c5b36fc2157a&#45;&gt;dir_2ee29caf34043349edd495638e9b55e5 -->
<g id="edge1" class="edge">
<title>dir_bdb6f255533d67630a72c5b36fc2157a&#45;&gt;dir_2ee29caf34043349edd495638e9b55e5</title>
<g id="a_edge1"><a xlink:href="dir_000059_000052.html" target="_top">
<path fill="none" stroke="#63b8ff" d="M117.22,-125.9C101.13,-118.69 80.33,-106.84 68,-90 58.45,-76.96 54.57,-58.81 53.01,-45.26"/>
<polygon fill="#63b8ff" stroke="#63b8ff" points="56.49,-44.84 52.17,-35.17 49.51,-45.42 56.49,-44.84"/>
</a>
</g>
<g id="a_edge1&#45;headlabel"><a xlink:href="dir_000059_000052.html" target="_top" xlink:title="2">
<text text-anchor="middle" x="59.62" y="-45.69" font-family="Helvetica,sans-Serif" font-size="10.00" fill="#63b8ff">2</text>
</a>
</g>
</g>
<!-- dir_bdb6f255533d67630a72c5b36fc2157a&#45;&gt;dir_c87c7e4d4fdad4f97d517f6e37fa3d03 -->
<g id="edge3" class="edge">
<title>dir_bdb6f255533d67630a72c5b36fc2157a&#45;&gt;dir_c87c7e4d4fdad4f97d517f6e37fa3d03</title>
<g id="a_edge3"><a xlink:href="dir_000059_000013.html" target="_top">
<path fill="none" stroke="#63b8ff" d="M118.21,-125.87C103.36,-118.69 84.84,-106.91 76,-90 70.44,-79.37 70.04,-73.42 76,-63 81.9,-52.68 91.97,-44.99 102.31,-39.4"/>
<polygon fill="#63b8ff" stroke="#63b8ff" points="103.89,-42.53 111.36,-35.02 100.83,-36.23 103.89,-42.53"/>
</a>
</g>
<g id="a_edge3&#45;headlabel"><a xlink:href="dir_000059_000013.html" target="_top" xlink:title="4">
<text text-anchor="middle" x="101.89" y="-44.15" font-family="Helvetica,sans-Serif" font-size="10.00" fill="#63b8ff">4</text>
</a>
</g>
</g>
<!-- dir_bdb6f255533d67630a72c5b36fc2157a&#45;&gt;dir_fe2315cfed866a6b02d6c74118be6618 -->
<g id="edge7" class="edge">
<title>dir_bdb6f255533d67630a72c5b36fc2157a&#45;&gt;dir_fe2315cfed866a6b02d6c74118be6618</title>
<g id="a_edge7"><a xlink:href="dir_000059_000045.html" target="_top">
<path fill="none" stroke="#63b8ff" d="M152.69,-125.98C164.83,-117.84 183.36,-105.41 197.75,-95.76"/>
<polygon fill="#63b8ff" stroke="#63b8ff" points="199.72,-98.65 206.08,-90.17 195.82,-92.84 199.72,-98.65"/>
</a>
</g>
<g id="a_edge7&#45;headlabel"><a xlink:href="dir_000059_000045.html" target="_top" xlink:title="1">
<text text-anchor="middle" x="198.32" y="-100.51" font-family="Helvetica,sans-Serif" font-size="10.00" fill="#63b8ff">1</text>
</a>
</g>
</g>
<!-- dir_f82ca300e054bc010b46ac9cff11a0f7 -->
<g id="node6" class="node">
<title>dir_f82ca300e054bc010b46ac9cff11a0f7</title>
<g id="a_node6"><a xlink:href="dir_f82ca300e054bc010b46ac9cff11a0f7.html" target="_top" xlink:title="PatchApplicator">
<polygon fill="#a2b4d6" stroke="#404040" points="177,-90 85,-90 85,-71 177,-71 177,-90"/>
<text text-anchor="middle" x="131" y="-78" font-family="Helvetica,sans-Serif" font-size="10.00">PatchApplicator</text>
</a>
</g>
</g>
<!-- dir_bdb6f255533d67630a72c5b36fc2157a&#45;&gt;dir_f82ca300e054bc010b46ac9cff11a0f7 -->
<g id="edge6" class="edge">
<title>dir_bdb6f255533d67630a72c5b36fc2157a&#45;&gt;dir_f82ca300e054bc010b46ac9cff11a0f7</title>
<g id="a_edge6"><a xlink:href="dir_000059_000042.html" target="_top">
<path fill="none" stroke="#63b8ff" d="M138.51,-125.75C137.33,-118.8 135.64,-108.85 134.16,-100.13"/>
<polygon fill="#63b8ff" stroke="#63b8ff" points="137.58,-99.36 132.46,-90.09 130.68,-100.53 137.58,-99.36"/>
</a>
</g>
<g id="a_edge6&#45;headlabel"><a xlink:href="dir_000059_000042.html" target="_top" xlink:title="9">
<text text-anchor="middle" x="140.98" y="-99.93" font-family="Helvetica,sans-Serif" font-size="10.00" fill="#63b8ff">9</text>
</a>
</g>
</g>
<!-- dir_6d30109d817e3a6d4be9084cc265e05a -->
<g id="node8" class="node">
<title>dir_6d30109d817e3a6d4be9084cc265e05a</title>
<g id="a_node8"><a xlink:href="dir_6d30109d817e3a6d4be9084cc265e05a.html" target="_top" xlink:title="Maths">
<polygon fill="#edf0f7" stroke="red" stroke-dasharray="5,2" points="384.5,-90 337.5,-90 337.5,-71 384.5,-71 384.5,-90"/>
<text text-anchor="middle" x="361" y="-78" font-family="Helvetica,sans-Serif" font-size="10.00">Maths</text>
</a>
</g>
</g>
<!-- dir_bdb6f255533d67630a72c5b36fc2157a&#45;&gt;dir_6d30109d817e3a6d4be9084cc265e05a -->
<g id="edge2" class="edge">
<title>dir_bdb6f255533d67630a72c5b36fc2157a&#45;&gt;dir_6d30109d817e3a6d4be9084cc265e05a</title>
<g id="a_edge2"><a xlink:href="dir_000059_000032.html" target="_top">
<path fill="none" stroke="#63b8ff" d="M175.51,-125.98C217.46,-115.92 286.73,-99.31 327.7,-89.49"/>
<polygon fill="#63b8ff" stroke="#63b8ff" points="328.56,-92.88 337.47,-87.14 326.93,-86.07 328.56,-92.88"/>
</a>
</g>
<g id="a_edge2&#45;headlabel"><a xlink:href="dir_000059_000032.html" target="_top" xlink:title="3">
<text text-anchor="middle" x="325.73" y="-93.98" font-family="Helvetica,sans-Serif" font-size="10.00" fill="#63b8ff">3</text>
</a>
</g>
</g>
<!-- dir_deb6f38fabcacb3d9327502f4723bff5 -->
<g id="node10" class="node">
<title>dir_deb6f38fabcacb3d9327502f4723bff5</title>
<g id="a_node10"><a xlink:href="dir_deb6f38fabcacb3d9327502f4723bff5.html" target="_top" xlink:title="LivingBeings">
<polygon fill="#edf0f7" stroke="red" stroke-dasharray="5,2" points="556.5,-35 477.5,-35 477.5,-16 556.5,-16 556.5,-35"/>
<text text-anchor="middle" x="517" y="-23" font-family="Helvetica,sans-Serif" font-size="10.00">LivingBeings</text>
</a>
</g>
</g>
<!-- dir_bdb6f255533d67630a72c5b36fc2157a&#45;&gt;dir_deb6f38fabcacb3d9327502f4723bff5 -->
<g id="edge4" class="edge">
<title>dir_bdb6f255533d67630a72c5b36fc2157a&#45;&gt;dir_deb6f38fabcacb3d9327502f4723bff5</title>
<g id="a_edge4"><a xlink:href="dir_000059_000028.html" target="_top">
<path fill="none" stroke="#63b8ff" d="M177.27,-126.69C208.13,-119.46 252.64,-107.21 289,-90 308.39,-80.83 309.18,-71.21 329,-63 335.42,-60.34 413.67,-45.58 467.17,-35.66"/>
<polygon fill="#63b8ff" stroke="#63b8ff" points="467.98,-39.07 477.18,-33.81 466.71,-32.19 467.98,-39.07"/>
</a>
</g>
<g id="a_edge4&#45;headlabel"><a xlink:href="dir_000059_000028.html" target="_top" xlink:title="26">
<text text-anchor="middle" x="464.97" y="-40.02" font-family="Helvetica,sans-Serif" font-size="10.00" fill="#63b8ff">26</text>
</a>
</g>
</g>
<!-- dir_ed435641f8e8047e0f5542c775bc8256 -->
<g id="node11" class="node">
<title>dir_ed435641f8e8047e0f5542c775bc8256</title>
<g id="a_node11"><a xlink:href="dir_ed435641f8e8047e0f5542c775bc8256.html" target="_top" xlink:title="Misc">
<polygon fill="#edf0f7" stroke="red" stroke-dasharray="5,2" points="459.5,-35 420.5,-35 420.5,-16 459.5,-16 459.5,-35"/>
<text text-anchor="middle" x="440" y="-23" font-family="Helvetica,sans-Serif" font-size="10.00">Misc</text>
</a>
</g>
</g>
<!-- dir_bdb6f255533d67630a72c5b36fc2157a&#45;&gt;dir_ed435641f8e8047e0f5542c775bc8256 -->
<g id="edge5" class="edge">
<title>dir_bdb6f255533d67630a72c5b36fc2157a&#45;&gt;dir_ed435641f8e8047e0f5542c775bc8256</title>
<g id="a_edge5"><a xlink:href="dir_000059_000033.html" target="_top">
<path fill="none" stroke="#63b8ff" d="M167.24,-125.9C191.03,-117.93 226.16,-105.07 255,-90 274.01,-80.07 275.37,-71.63 295,-63 341.17,-42.69 358.43,-48.24 410.66,-35.16"/>
<polygon fill="#63b8ff" stroke="#63b8ff" points="411.67,-38.51 420.46,-32.59 409.9,-31.74 411.67,-38.51"/>
</a>
</g>
<g id="a_edge5&#45;headlabel"><a xlink:href="dir_000059_000033.html" target="_top" xlink:title="8">
<text text-anchor="middle" x="408.92" y="-39.67" font-family="Helvetica,sans-Serif" font-size="10.00" fill="#63b8ff">8</text>
</a>
</g>
</g>
<!-- dir_f82ca300e054bc010b46ac9cff11a0f7&#45;&gt;dir_017facbfd39d2f00dec237be0066268e -->
<g id="edge8" class="edge">
<title>dir_f82ca300e054bc010b46ac9cff11a0f7&#45;&gt;dir_017facbfd39d2f00dec237be0066268e</title>
<g id="a_edge8"><a xlink:href="dir_000042_000043.html" target="_top">
<path fill="none" stroke="#63b8ff" d="M144.66,-70.98C157.84,-62.77 178.03,-50.18 193.57,-40.49"/>
<polygon fill="#63b8ff" stroke="#63b8ff" points="195.46,-43.43 202.09,-35.17 191.76,-37.49 195.46,-43.43"/>
</a>
</g>
<g id="a_edge8&#45;headlabel"><a xlink:href="dir_000042_000043.html" target="_top" xlink:title="10">
<text text-anchor="middle" x="193.91" y="-45.24" font-family="Helvetica,sans-Serif" font-size="10.00" fill="#63b8ff">10</text>
</a>
</g>
</g>
<!-- dir_f82ca300e054bc010b46ac9cff11a0f7&#45;&gt;dir_2ee29caf34043349edd495638e9b55e5 -->
<g id="edge13" class="edge">
<title>dir_f82ca300e054bc010b46ac9cff11a0f7&#45;&gt;dir_2ee29caf34043349edd495638e9b55e5</title>
<g id="a_edge13"><a xlink:href="dir_000042_000052.html" target="_top">
<path fill="none" stroke="#63b8ff" d="M118.31,-70.98C106.17,-62.84 87.64,-50.41 73.25,-40.76"/>
<polygon fill="#63b8ff" stroke="#63b8ff" points="75.18,-37.84 64.92,-35.17 71.28,-43.65 75.18,-37.84"/>
</a>
</g>
<g id="a_edge13&#45;headlabel"><a xlink:href="dir_000042_000052.html" target="_top" xlink:title="1">
<text text-anchor="middle" x="79.74" y="-34.98" font-family="Helvetica,sans-Serif" font-size="10.00" fill="#63b8ff">1</text>
</a>
</g>
</g>
<!-- dir_f82ca300e054bc010b46ac9cff11a0f7&#45;&gt;dir_c87c7e4d4fdad4f97d517f6e37fa3d03 -->
<g id="edge14" class="edge">
<title>dir_f82ca300e054bc010b46ac9cff11a0f7&#45;&gt;dir_c87c7e4d4fdad4f97d517f6e37fa3d03</title>
<g id="a_edge14"><a xlink:href="dir_000042_000013.html" target="_top">
<path fill="none" stroke="#63b8ff" d="M132.16,-70.75C133.07,-63.8 134.39,-53.85 135.54,-45.13"/>
<polygon fill="#63b8ff" stroke="#63b8ff" points="139.03,-45.46 136.87,-35.09 132.09,-44.54 139.03,-45.46"/>
</a>
</g>
<g id="a_edge14&#45;headlabel"><a xlink:href="dir_000042_000013.html" target="_top" xlink:title="1">
<text text-anchor="middle" x="141.37" y="-46.9" font-family="Helvetica,sans-Serif" font-size="10.00" fill="#63b8ff">1</text>
</a>
</g>
</g>
<!-- dir_4045643538bad1aadeff61b05dc9bc0d -->
<g id="node7" class="node">
<title>dir_4045643538bad1aadeff61b05dc9bc0d</title>
<g id="a_node7"><a xlink:href="dir_4045643538bad1aadeff61b05dc9bc0d.html" target="_top" xlink:title="Exceptions">
<polygon fill="#edf0f7" stroke="#7f7f7f" points="331,-35 261,-35 261,-16 331,-16 331,-35"/>
<text text-anchor="middle" x="296" y="-23" font-family="Helvetica,sans-Serif" font-size="10.00">Exceptions</text>
</a>
</g>
</g>
<!-- dir_f82ca300e054bc010b46ac9cff11a0f7&#45;&gt;dir_4045643538bad1aadeff61b05dc9bc0d -->
<g id="edge9" class="edge">
<title>dir_f82ca300e054bc010b46ac9cff11a0f7&#45;&gt;dir_4045643538bad1aadeff61b05dc9bc0d</title>
<g id="a_edge9"><a xlink:href="dir_000042_000010.html" target="_top">
<path fill="none" stroke="#63b8ff" d="M156.67,-70.96C164.48,-68.39 173.09,-65.56 181,-63 206.92,-54.61 236.19,-45.32 258.72,-38.22"/>
<polygon fill="#63b8ff" stroke="#63b8ff" points="260.07,-41.46 268.55,-35.11 257.96,-34.78 260.07,-41.46"/>
</a>
</g>
<g id="a_edge9&#45;headlabel"><a xlink:href="dir_000042_000010.html" target="_top" xlink:title="1">
<text text-anchor="middle" x="257.49" y="-42.75" font-family="Helvetica,sans-Serif" font-size="10.00" fill="#63b8ff">1</text>
</a>
</g>
</g>
<!-- dir_82abf9c3cae407e2f368e3cd0d776797 -->
<g id="node9" class="node">
<title>dir_82abf9c3cae407e2f368e3cd0d776797</title>
<g id="a_node9"><a xlink:href="dir_82abf9c3cae407e2f368e3cd0d776797.html" target="_top" xlink:title="Physics">
<polygon fill="#edf0f7" stroke="#7f7f7f" points="402.5,-35 349.5,-35 349.5,-16 402.5,-16 402.5,-35"/>
<text text-anchor="middle" x="376" y="-23" font-family="Helvetica,sans-Serif" font-size="10.00">Physics</text>
</a>
</g>
</g>
<!-- dir_f82ca300e054bc010b46ac9cff11a0f7&#45;&gt;dir_82abf9c3cae407e2f368e3cd0d776797 -->
<g id="edge10" class="edge">
<title>dir_f82ca300e054bc010b46ac9cff11a0f7&#45;&gt;dir_82abf9c3cae407e2f368e3cd0d776797</title>
<g id="a_edge10"><a xlink:href="dir_000042_000044.html" target="_top">
<path fill="none" stroke="#63b8ff" d="M154.45,-70.99C162.76,-68.18 172.22,-65.21 181,-63 247.59,-46.24 267.98,-49.17 339.37,-35"/>
<polygon fill="#63b8ff" stroke="#63b8ff" points="340.2,-38.4 349.3,-32.98 338.81,-31.54 340.2,-38.4"/>
</a>
</g>
<g id="a_edge10&#45;headlabel"><a xlink:href="dir_000042_000044.html" target="_top" xlink:title="1">
<text text-anchor="middle" x="337.24" y="-39.4" font-family="Helvetica,sans-Serif" font-size="10.00" fill="#63b8ff">1</text>
</a>
</g>
</g>
<!-- dir_f82ca300e054bc010b46ac9cff11a0f7&#45;&gt;dir_deb6f38fabcacb3d9327502f4723bff5 -->
<g id="edge11" class="edge">
<title>dir_f82ca300e054bc010b46ac9cff11a0f7&#45;&gt;dir_deb6f38fabcacb3d9327502f4723bff5</title>
<g id="a_edge11"><a xlink:href="dir_000042_000028.html" target="_top">
<path fill="none" stroke="#63b8ff" d="M153.36,-70.95C161.89,-67.99 171.79,-64.94 181,-63 303.64,-37.14 339.76,-51.66 467.33,-35.11"/>
<polygon fill="#63b8ff" stroke="#63b8ff" points="468.04,-38.54 477.49,-33.75 467.11,-31.61 468.04,-38.54"/>
</a>
</g>
<g id="a_edge11&#45;headlabel"><a xlink:href="dir_000042_000028.html" target="_top" xlink:title="7">
<text text-anchor="middle" x="464.85" y="-39.34" font-family="Helvetica,sans-Serif" font-size="10.00" fill="#63b8ff">7</text>
</a>
</g>
</g>
<!-- dir_f82ca300e054bc010b46ac9cff11a0f7&#45;&gt;dir_ed435641f8e8047e0f5542c775bc8256 -->
<g id="edge12" class="edge">
<title>dir_f82ca300e054bc010b46ac9cff11a0f7&#45;&gt;dir_ed435641f8e8047e0f5542c775bc8256</title>
<g id="a_edge12"><a xlink:href="dir_000042_000033.html" target="_top">
<path fill="none" stroke="#63b8ff" d="M153.63,-70.98C162.11,-68.06 171.9,-65.03 181,-63 278.78,-41.17 308.93,-55.37 410.2,-35.05"/>
<polygon fill="#63b8ff" stroke="#63b8ff" points="411.14,-38.42 420.23,-32.97 409.72,-31.57 411.14,-38.42"/>
</a>
</g>
<g id="a_edge12&#45;headlabel"><a xlink:href="dir_000042_000033.html" target="_top" xlink:title="1">
<text text-anchor="middle" x="408.2" y="-39.43" font-family="Helvetica,sans-Serif" font-size="10.00" fill="#63b8ff">1</text>
</a>
</g>
</g>
</g>
</svg>

<g id="navigator" transform="translate(0 0)" fill="#404254">
  <rect fill="#f2f5e9" fill-opacity="0.5" stroke="#606060" stroke-width=".5" x="0" y="0" width="60" height="60"/>
  <use id="zoomplus" xlink:href="#zoomPlus" x="17" y="9" onmousedown="handleZoom(evt,'in')"/>
  <use id="zoomminus" xlink:href="#zoomMin" x="42" y="9" onmousedown="handleZoom(evt,'out')"/>
  <use id="reset" xlink:href="#resetDef" x="30" y="36" onmousedown="handleReset()"/>
   <use id="arrowup" xlink:href="#arrowUp" x="0" y="0" onmousedown="handlePan(0,-1)"/>
  <use id="arrowright" xlink:href="#arrowRight" x="0" y="0" onmousedown="handlePan(1,0)"/>
  <use id="arrowdown" xlink:href="#arrowDown" x="0" y="0" onmousedown="handlePan(0,1)"/>
  <use id="arrowleft" xlink:href="#arrowLeft" x="0" y="0" onmousedown="handlePan(-1,0)"/>
</g>
<svg viewBox="0 0 15 15" width="100%" height="30px" preserveAspectRatio="xMaxYMin meet">
 <g id="arrow_out" transform="scale(0.3 0.3)">
  <a xlink:href="dir_bdb6f255533d67630a72c5b36fc2157a_dep_org.svg" target="_base">
   <rect id="button" ry="5" rx="5" y="6" x="6" height="38" width="38"
        fill="#f2f5e9" fill-opacity="0.5" stroke="#606060" stroke-width="1.0"/>
   <path id="arrow"
     d="M 11.500037,31.436501 C 11.940474,20.09759 22.043105,11.32322 32.158766,21.979434 L 37.068811,17.246167 C 37.068811,17.246167 37.088388,32 37.088388,32 L 22.160133,31.978069 C 22.160133,31.978069 26.997745,27.140456 26.997745,27.140456 C 18.528582,18.264221 13.291696,25.230495 11.500037,31.436501 z"
     style="fill:#404040;"/>
  </a>
 </g>
</svg>

<style type='text/css'>
<![CDATA[
[data-mouse-over-selected='false'] { opacity: 0.7; }
[data-mouse-over-selected='true']  { opacity: 1.0; }
]]>
</style>
<script type="application/ecmascript"><![CDATA[
document.addEventListener('DOMContentLoaded', (event) => {
  highlightEdges();
  highlightAdjacentNodes();
});
]]></script>
</svg>
