<?xml version="1.0" encoding="UTF-8" standalone="no"?>
<!DOCTYPE svg PUBLIC "-//W3C//DTD SVG 1.1//EN"
 "http://www.w3.org/Graphics/SVG/1.1/DTD/svg11.dtd">
<!-- Generated by graphviz version 2.43.0 (0)
 -->
<!-- Title: /home/runner/work/Weaver/Weaver/include/App/Model/IBM/Landscape/Map/TerrainCells/PatchApplicator Pages: 1 -->
<svg width="576pt" height="180pt"
 viewBox="0.00 0.00 575.50 180.00" xmlns="http://www.w3.org/2000/svg" xmlns:xlink="http://www.w3.org/1999/xlink">
<g id="graph0" class="graph" transform="scale(1 1) rotate(0) translate(4 176)">
<title>/home/runner/work/Weaver/Weaver/include/App/Model/IBM/Landscape/Map/TerrainCells/PatchApplicator</title>
<g id="clust1" class="cluster">
<title>clusterdir_bdb6f255533d67630a72c5b36fc2157a</title>
<g id="a_clust1"><a xlink:href="dir_bdb6f255533d67630a72c5b36fc2157a.html" target="_top" xlink:title="TerrainCells">
<polygon fill="#edf0f7" stroke="#7f7f7f" stroke-dasharray="5,2" points="8,-39 8,-164 371,-164 371,-39 8,-39"/>
<text text-anchor="middle" x="189.5" y="-152" font-family="Helvetica,sans-Serif" font-size="10.00">TerrainCells</text>
</a>
</g>
</g>
<g id="clust2" class="cluster">
<title>clusterdir_f82ca300e054bc010b46ac9cff11a0f7</title>
<g id="a_clust2"><a xlink:href="dir_f82ca300e054bc010b46ac9cff11a0f7.html" target="_top">
<polygon fill="#edf0f7" stroke="#404040" stroke-width="2" points="16,-47 16,-137 363,-137 363,-47 16,-47"/>
</a>
</g>
</g>
<!-- dir_f82ca300e054bc010b46ac9cff11a0f7 -->
<g id="node1" class="node">
<title>dir_f82ca300e054bc010b46ac9cff11a0f7</title>
<text text-anchor="middle" x="147" y="-117" font-family="Helvetica,sans-Serif" font-size="10.00">PatchApplicator</text>
</g>
<!-- dir_b61e74bb9d71f4ae793612248f1ef5a9 -->
<g id="node2" class="node">
<title>dir_b61e74bb9d71f4ae793612248f1ef5a9</title>
<g id="a_node2"><a xlink:href="dir_b61e74bb9d71f4ae793612248f1ef5a9.html" target="_top" xlink:title="HabitatDomain">
<polygon fill="#a2b4d6" stroke="#404040" points="192.5,-74 101.5,-74 101.5,-55 192.5,-55 192.5,-74"/>
<text text-anchor="middle" x="147" y="-62" font-family="Helvetica,sans-Serif" font-size="10.00">HabitatDomain</text>
</a>
</g>
</g>
<!-- dir_f82ca300e054bc010b46ac9cff11a0f7&#45;&gt;dir_b61e74bb9d71f4ae793612248f1ef5a9 -->
<g id="edge5" class="edge">
<title>dir_f82ca300e054bc010b46ac9cff11a0f7&#45;&gt;dir_b61e74bb9d71f4ae793612248f1ef5a9</title>
<g id="a_edge5"><a xlink:href="dir_000042_000023.html" target="_top">
<path fill="none" stroke="#63b8ff" d="M147,-109.75C147,-102.8 147,-92.85 147,-84.13"/>
<polygon fill="#63b8ff" stroke="#63b8ff" points="150.5,-84.09 147,-74.09 143.5,-84.09 150.5,-84.09"/>
</a>
</g>
<g id="a_edge5&#45;headlabel"><a xlink:href="dir_000042_000023.html" target="_top" xlink:title="1">
<text text-anchor="middle" x="153.34" y="-85.18" font-family="Helvetica,sans-Serif" font-size="10.00" fill="#63b8ff">1</text>
</a>
</g>
</g>
<!-- dir_0d8d2fe27eede82ddc86a0fbbee3870a -->
<g id="node3" class="node">
<title>dir_0d8d2fe27eede82ddc86a0fbbee3870a</title>
<g id="a_node3"><a xlink:href="dir_0d8d2fe27eede82ddc86a0fbbee3870a.html" target="_top" xlink:title="Moisture">
<polygon fill="#a2b4d6" stroke="#404040" points="269.5,-74 210.5,-74 210.5,-55 269.5,-55 269.5,-74"/>
<text text-anchor="middle" x="240" y="-62" font-family="Helvetica,sans-Serif" font-size="10.00">Moisture</text>
</a>
</g>
</g>
<!-- dir_f82ca300e054bc010b46ac9cff11a0f7&#45;&gt;dir_0d8d2fe27eede82ddc86a0fbbee3870a -->
<g id="edge2" class="edge">
<title>dir_f82ca300e054bc010b46ac9cff11a0f7&#45;&gt;dir_0d8d2fe27eede82ddc86a0fbbee3870a</title>
<g id="a_edge2"><a xlink:href="dir_000042_000037.html" target="_top">
<path fill="none" stroke="#63b8ff" d="M161.94,-109.98C176.5,-101.69 198.87,-88.94 215.93,-79.22"/>
<polygon fill="#63b8ff" stroke="#63b8ff" points="217.83,-82.16 224.79,-74.17 214.36,-76.08 217.83,-82.16"/>
</a>
</g>
<g id="a_edge2&#45;headlabel"><a xlink:href="dir_000042_000037.html" target="_top" xlink:title="1">
<text text-anchor="middle" x="216.11" y="-83.91" font-family="Helvetica,sans-Serif" font-size="10.00" fill="#63b8ff">1</text>
</a>
</g>
</g>
<!-- dir_5509a4cb1d24f348dbc75e8be5e6e946 -->
<g id="node4" class="node">
<title>dir_5509a4cb1d24f348dbc75e8be5e6e946</title>
<g id="a_node4"><a xlink:href="dir_5509a4cb1d24f348dbc75e8be5e6e946.html" target="_top" xlink:title="Obstacle">
<polygon fill="#a2b4d6" stroke="#404040" points="83.5,-74 24.5,-74 24.5,-55 83.5,-55 83.5,-74"/>
<text text-anchor="middle" x="54" y="-62" font-family="Helvetica,sans-Serif" font-size="10.00">Obstacle</text>
</a>
</g>
</g>
<!-- dir_f82ca300e054bc010b46ac9cff11a0f7&#45;&gt;dir_5509a4cb1d24f348dbc75e8be5e6e946 -->
<g id="edge3" class="edge">
<title>dir_f82ca300e054bc010b46ac9cff11a0f7&#45;&gt;dir_5509a4cb1d24f348dbc75e8be5e6e946</title>
<g id="a_edge3"><a xlink:href="dir_000042_000040.html" target="_top">
<path fill="none" stroke="#63b8ff" d="M132.06,-109.98C117.5,-101.69 95.13,-88.94 78.07,-79.22"/>
<polygon fill="#63b8ff" stroke="#63b8ff" points="79.64,-76.08 69.21,-74.17 76.17,-82.16 79.64,-76.08"/>
</a>
</g>
<g id="a_edge3&#45;headlabel"><a xlink:href="dir_000042_000040.html" target="_top" xlink:title="1">
<text text-anchor="middle" x="84.16" y="-72.89" font-family="Helvetica,sans-Serif" font-size="10.00" fill="#63b8ff">1</text>
</a>
</g>
</g>
<!-- dir_83634b61886b59a63231ec98523ba0d5 -->
<g id="node5" class="node">
<title>dir_83634b61886b59a63231ec98523ba0d5</title>
<g id="a_node5"><a xlink:href="dir_83634b61886b59a63231ec98523ba0d5.html" target="_top" xlink:title="Resources">
<polygon fill="#a2b4d6" stroke="#404040" points="354.5,-74 287.5,-74 287.5,-55 354.5,-55 354.5,-74"/>
<text text-anchor="middle" x="321" y="-62" font-family="Helvetica,sans-Serif" font-size="10.00">Resources</text>
</a>
</g>
</g>
<!-- dir_f82ca300e054bc010b46ac9cff11a0f7&#45;&gt;dir_83634b61886b59a63231ec98523ba0d5 -->
<g id="edge4" class="edge">
<title>dir_f82ca300e054bc010b46ac9cff11a0f7&#45;&gt;dir_83634b61886b59a63231ec98523ba0d5</title>
<g id="a_edge4"><a xlink:href="dir_000042_000049.html" target="_top">
<path fill="none" stroke="#63b8ff" d="M174.96,-109.98C204.3,-101.05 250.6,-86.94 283.19,-77.02"/>
<polygon fill="#63b8ff" stroke="#63b8ff" points="284.28,-80.34 292.82,-74.08 282.24,-73.65 284.28,-80.34"/>
</a>
</g>
<g id="a_edge4&#45;headlabel"><a xlink:href="dir_000042_000049.html" target="_top" xlink:title="4">
<text text-anchor="middle" x="281.67" y="-81.61" font-family="Helvetica,sans-Serif" font-size="10.00" fill="#63b8ff">4</text>
</a>
</g>
</g>
<!-- dir_017facbfd39d2f00dec237be0066268e -->
<g id="node6" class="node">
<title>dir_017facbfd39d2f00dec237be0066268e</title>
<g id="a_node6"><a xlink:href="dir_017facbfd39d2f00dec237be0066268e.html" target="_top" xlink:title="Patches">
<polygon fill="#edf0f7" stroke="red" stroke-dasharray="5,2" points="81,-19 27,-19 27,0 81,0 81,-19"/>
<text text-anchor="middle" x="54" y="-7" font-family="Helvetica,sans-Serif" font-size="10.00">Patches</text>
</a>
</g>
</g>
<!-- dir_f82ca300e054bc010b46ac9cff11a0f7&#45;&gt;dir_017facbfd39d2f00dec237be0066268e -->
<g id="edge1" class="edge">
<title>dir_f82ca300e054bc010b46ac9cff11a0f7&#45;&gt;dir_017facbfd39d2f00dec237be0066268e</title>
<g id="a_edge1"><a xlink:href="dir_000042_000043.html" target="_top">
<path fill="none" stroke="#63b8ff" d="M100.82,-115.93C71.33,-111.61 35.16,-100.75 16,-74 6.94,-61.35 9.04,-52.91 16,-39 18.74,-33.52 23.09,-28.82 27.89,-24.91"/>
<polygon fill="#63b8ff" stroke="#63b8ff" points="30.01,-27.69 36.17,-19.07 25.98,-21.97 30.01,-27.69"/>
</a>
</g>
<g id="a_edge1&#45;headlabel"><a xlink:href="dir_000042_000043.html" target="_top" xlink:title="10">
<text text-anchor="middle" x="28.71" y="-29.58" font-family="Helvetica,sans-Serif" font-size="10.00" fill="#63b8ff">10</text>
</a>
</g>
</g>
<!-- dir_b61e74bb9d71f4ae793612248f1ef5a9&#45;&gt;dir_017facbfd39d2f00dec237be0066268e -->
<g id="edge6" class="edge">
<title>dir_b61e74bb9d71f4ae793612248f1ef5a9&#45;&gt;dir_017facbfd39d2f00dec237be0066268e</title>
<g id="a_edge6"><a xlink:href="dir_000023_000043.html" target="_top">
<path fill="none" stroke="#63b8ff" d="M132.06,-54.98C117.5,-46.69 95.13,-33.94 78.07,-24.22"/>
<polygon fill="#63b8ff" stroke="#63b8ff" points="79.64,-21.08 69.21,-19.17 76.17,-27.16 79.64,-21.08"/>
</a>
</g>
<g id="a_edge6&#45;headlabel"><a xlink:href="dir_000023_000043.html" target="_top" xlink:title="1">
<text text-anchor="middle" x="84.16" y="-17.89" font-family="Helvetica,sans-Serif" font-size="10.00" fill="#63b8ff">1</text>
</a>
</g>
</g>
<!-- dir_deb6f38fabcacb3d9327502f4723bff5 -->
<g id="node9" class="node">
<title>dir_deb6f38fabcacb3d9327502f4723bff5</title>
<g id="a_node9"><a xlink:href="dir_deb6f38fabcacb3d9327502f4723bff5.html" target="_top" xlink:title="LivingBeings">
<polygon fill="#edf0f7" stroke="red" stroke-dasharray="5,2" points="306.5,-19 227.5,-19 227.5,0 306.5,0 306.5,-19"/>
<text text-anchor="middle" x="267" y="-7" font-family="Helvetica,sans-Serif" font-size="10.00">LivingBeings</text>
</a>
</g>
</g>
<!-- dir_b61e74bb9d71f4ae793612248f1ef5a9&#45;&gt;dir_deb6f38fabcacb3d9327502f4723bff5 -->
<g id="edge7" class="edge">
<title>dir_b61e74bb9d71f4ae793612248f1ef5a9&#45;&gt;dir_deb6f38fabcacb3d9327502f4723bff5</title>
<g id="a_edge7"><a xlink:href="dir_000023_000028.html" target="_top">
<path fill="none" stroke="#63b8ff" d="M166.08,-54.97C176.66,-50.25 190.05,-44.28 202,-39 213.77,-33.8 226.75,-28.1 238,-23.17"/>
<polygon fill="#63b8ff" stroke="#63b8ff" points="239.6,-26.29 247.36,-19.08 236.8,-19.88 239.6,-26.29"/>
</a>
</g>
<g id="a_edge7&#45;headlabel"><a xlink:href="dir_000023_000028.html" target="_top" xlink:title="2">
<text text-anchor="middle" x="237.45" y="-27.83" font-family="Helvetica,sans-Serif" font-size="10.00" fill="#63b8ff">2</text>
</a>
</g>
</g>
<!-- dir_ed435641f8e8047e0f5542c775bc8256 -->
<g id="node10" class="node">
<title>dir_ed435641f8e8047e0f5542c775bc8256</title>
<g id="a_node10"><a xlink:href="dir_ed435641f8e8047e0f5542c775bc8256.html" target="_top" xlink:title="Misc">
<polygon fill="#edf0f7" stroke="red" stroke-dasharray="5,2" points="138.5,-19 99.5,-19 99.5,0 138.5,0 138.5,-19"/>
<text text-anchor="middle" x="119" y="-7" font-family="Helvetica,sans-Serif" font-size="10.00">Misc</text>
</a>
</g>
</g>
<!-- dir_b61e74bb9d71f4ae793612248f1ef5a9&#45;&gt;dir_ed435641f8e8047e0f5542c775bc8256 -->
<g id="edge8" class="edge">
<title>dir_b61e74bb9d71f4ae793612248f1ef5a9&#45;&gt;dir_ed435641f8e8047e0f5542c775bc8256</title>
<g id="a_edge8"><a xlink:href="dir_000023_000033.html" target="_top">
<path fill="none" stroke="#63b8ff" d="M142.38,-54.75C138.54,-47.49 132.98,-36.95 128.24,-27.98"/>
<polygon fill="#63b8ff" stroke="#63b8ff" points="131.3,-26.3 123.54,-19.09 125.11,-29.57 131.3,-26.3"/>
</a>
</g>
<g id="a_edge8&#45;headlabel"><a xlink:href="dir_000023_000033.html" target="_top" xlink:title="1">
<text text-anchor="middle" x="135.49" y="-25.65" font-family="Helvetica,sans-Serif" font-size="10.00" fill="#63b8ff">1</text>
</a>
</g>
</g>
<!-- dir_0d8d2fe27eede82ddc86a0fbbee3870a&#45;&gt;dir_017facbfd39d2f00dec237be0066268e -->
<g id="edge9" class="edge">
<title>dir_0d8d2fe27eede82ddc86a0fbbee3870a&#45;&gt;dir_017facbfd39d2f00dec237be0066268e</title>
<g id="a_edge9"><a xlink:href="dir_000037_000043.html" target="_top">
<path fill="none" stroke="#63b8ff" d="M229.33,-54.98C222.04,-49.58 211.93,-42.91 202,-39 155.36,-20.62 140.11,-29.06 91,-19 90.9,-18.98 90.8,-18.96 90.7,-18.94"/>
<polygon fill="#63b8ff" stroke="#63b8ff" points="91.56,-15.54 81.05,-16.87 90.09,-22.39 91.56,-15.54"/>
</a>
</g>
<g id="a_edge9&#45;headlabel"><a xlink:href="dir_000037_000043.html" target="_top" xlink:title="2">
<text text-anchor="middle" x="95.67" y="-11.02" font-family="Helvetica,sans-Serif" font-size="10.00" fill="#63b8ff">2</text>
</a>
</g>
</g>
<!-- dir_82abf9c3cae407e2f368e3cd0d776797 -->
<g id="node8" class="node">
<title>dir_82abf9c3cae407e2f368e3cd0d776797</title>
<g id="a_node8"><a xlink:href="dir_82abf9c3cae407e2f368e3cd0d776797.html" target="_top" xlink:title="Physics">
<polygon fill="#edf0f7" stroke="#7f7f7f" points="209.5,-19 156.5,-19 156.5,0 209.5,0 209.5,-19"/>
<text text-anchor="middle" x="183" y="-7" font-family="Helvetica,sans-Serif" font-size="10.00">Physics</text>
</a>
</g>
</g>
<!-- dir_0d8d2fe27eede82ddc86a0fbbee3870a&#45;&gt;dir_82abf9c3cae407e2f368e3cd0d776797 -->
<g id="edge10" class="edge">
<title>dir_0d8d2fe27eede82ddc86a0fbbee3870a&#45;&gt;dir_82abf9c3cae407e2f368e3cd0d776797</title>
<g id="a_edge10"><a xlink:href="dir_000037_000044.html" target="_top">
<path fill="none" stroke="#63b8ff" d="M230.84,-54.98C222.5,-47.23 209.97,-35.58 199.82,-26.14"/>
<polygon fill="#63b8ff" stroke="#63b8ff" points="202.03,-23.42 192.32,-19.17 197.26,-28.54 202.03,-23.42"/>
</a>
</g>
<g id="a_edge10&#45;headlabel"><a xlink:href="dir_000037_000044.html" target="_top" xlink:title="1">
<text text-anchor="middle" x="206.6" y="-21.28" font-family="Helvetica,sans-Serif" font-size="10.00" fill="#63b8ff">1</text>
</a>
</g>
</g>
<!-- dir_0d8d2fe27eede82ddc86a0fbbee3870a&#45;&gt;dir_deb6f38fabcacb3d9327502f4723bff5 -->
<g id="edge11" class="edge">
<title>dir_0d8d2fe27eede82ddc86a0fbbee3870a&#45;&gt;dir_deb6f38fabcacb3d9327502f4723bff5</title>
<g id="a_edge11"><a xlink:href="dir_000037_000028.html" target="_top">
<path fill="none" stroke="#63b8ff" d="M244.46,-54.75C248.12,-47.57 253.41,-37.18 257.95,-28.27"/>
<polygon fill="#63b8ff" stroke="#63b8ff" points="261.2,-29.59 262.62,-19.09 254.97,-26.41 261.2,-29.59"/>
</a>
</g>
<g id="a_edge11&#45;headlabel"><a xlink:href="dir_000037_000028.html" target="_top" xlink:title="1">
<text text-anchor="middle" x="262.1" y="-31.58" font-family="Helvetica,sans-Serif" font-size="10.00" fill="#63b8ff">1</text>
</a>
</g>
</g>
<!-- dir_5509a4cb1d24f348dbc75e8be5e6e946&#45;&gt;dir_017facbfd39d2f00dec237be0066268e -->
<g id="edge12" class="edge">
<title>dir_5509a4cb1d24f348dbc75e8be5e6e946&#45;&gt;dir_017facbfd39d2f00dec237be0066268e</title>
<g id="a_edge12"><a xlink:href="dir_000040_000043.html" target="_top">
<path fill="none" stroke="#63b8ff" d="M54,-54.75C54,-47.8 54,-37.85 54,-29.13"/>
<polygon fill="#63b8ff" stroke="#63b8ff" points="57.5,-29.09 54,-19.09 50.5,-29.09 57.5,-29.09"/>
</a>
</g>
<g id="a_edge12&#45;headlabel"><a xlink:href="dir_000040_000043.html" target="_top" xlink:title="1">
<text text-anchor="middle" x="60.34" y="-30.18" font-family="Helvetica,sans-Serif" font-size="10.00" fill="#63b8ff">1</text>
</a>
</g>
</g>
<!-- dir_83634b61886b59a63231ec98523ba0d5&#45;&gt;dir_017facbfd39d2f00dec237be0066268e -->
<g id="edge13" class="edge">
<title>dir_83634b61886b59a63231ec98523ba0d5&#45;&gt;dir_017facbfd39d2f00dec237be0066268e</title>
<g id="a_edge13"><a xlink:href="dir_000049_000043.html" target="_top">
<path fill="none" stroke="#63b8ff" d="M309.51,-55C301.41,-49.47 290.07,-42.63 279,-39 199.16,-12.8 173.87,-32.88 91,-19 90.9,-18.98 90.8,-18.97 90.69,-18.95"/>
<polygon fill="#63b8ff" stroke="#63b8ff" points="91.48,-15.54 81,-17.1 90.17,-22.41 91.48,-15.54"/>
</a>
</g>
<g id="a_edge13&#45;headlabel"><a xlink:href="dir_000049_000043.html" target="_top" xlink:title="2">
<text text-anchor="middle" x="95.55" y="-10.92" font-family="Helvetica,sans-Serif" font-size="10.00" fill="#63b8ff">2</text>
</a>
</g>
</g>
<!-- dir_4045643538bad1aadeff61b05dc9bc0d -->
<g id="node7" class="node">
<title>dir_4045643538bad1aadeff61b05dc9bc0d</title>
<g id="a_node7"><a xlink:href="dir_4045643538bad1aadeff61b05dc9bc0d.html" target="_top" xlink:title="Exceptions">
<polygon fill="#edf0f7" stroke="#7f7f7f" points="395,-19 325,-19 325,0 395,0 395,-19"/>
<text text-anchor="middle" x="360" y="-7" font-family="Helvetica,sans-Serif" font-size="10.00">Exceptions</text>
</a>
</g>
</g>
<!-- dir_83634b61886b59a63231ec98523ba0d5&#45;&gt;dir_4045643538bad1aadeff61b05dc9bc0d -->
<g id="edge15" class="edge">
<title>dir_83634b61886b59a63231ec98523ba0d5&#45;&gt;dir_4045643538bad1aadeff61b05dc9bc0d</title>
<g id="a_edge15"><a xlink:href="dir_000049_000010.html" target="_top">
<path fill="none" stroke="#63b8ff" d="M327.44,-54.75C332.89,-47.34 340.86,-36.5 347.56,-27.41"/>
<polygon fill="#63b8ff" stroke="#63b8ff" points="350.57,-29.22 353.68,-19.09 344.93,-25.07 350.57,-29.22"/>
</a>
</g>
<g id="a_edge15&#45;headlabel"><a xlink:href="dir_000049_000010.html" target="_top" xlink:title="1">
<text text-anchor="middle" x="350.73" y="-31.3" font-family="Helvetica,sans-Serif" font-size="10.00" fill="#63b8ff">1</text>
</a>
</g>
</g>
<!-- dir_83634b61886b59a63231ec98523ba0d5&#45;&gt;dir_deb6f38fabcacb3d9327502f4723bff5 -->
<g id="edge17" class="edge">
<title>dir_83634b61886b59a63231ec98523ba0d5&#45;&gt;dir_deb6f38fabcacb3d9327502f4723bff5</title>
<g id="a_edge17"><a xlink:href="dir_000049_000028.html" target="_top">
<path fill="none" stroke="#63b8ff" d="M312.08,-54.75C304.22,-47.03 292.57,-35.6 283.08,-26.28"/>
<polygon fill="#63b8ff" stroke="#63b8ff" points="285.34,-23.6 275.75,-19.09 280.44,-28.59 285.34,-23.6"/>
</a>
</g>
<g id="a_edge17&#45;headlabel"><a xlink:href="dir_000049_000028.html" target="_top" xlink:title="4">
<text text-anchor="middle" x="289.89" y="-21.59" font-family="Helvetica,sans-Serif" font-size="10.00" fill="#63b8ff">4</text>
</a>
</g>
</g>
<!-- dir_2ee29caf34043349edd495638e9b55e5 -->
<g id="node11" class="node">
<title>dir_2ee29caf34043349edd495638e9b55e5</title>
<g id="a_node11"><a xlink:href="dir_2ee29caf34043349edd495638e9b55e5.html" target="_top" xlink:title="SpatialTree">
<polygon fill="#edf0f7" stroke="red" stroke-dasharray="5,2" points="484.5,-19 413.5,-19 413.5,0 484.5,0 484.5,-19"/>
<text text-anchor="middle" x="449" y="-7" font-family="Helvetica,sans-Serif" font-size="10.00">SpatialTree</text>
</a>
</g>
</g>
<!-- dir_83634b61886b59a63231ec98523ba0d5&#45;&gt;dir_2ee29caf34043349edd495638e9b55e5 -->
<g id="edge14" class="edge">
<title>dir_83634b61886b59a63231ec98523ba0d5&#45;&gt;dir_2ee29caf34043349edd495638e9b55e5</title>
<g id="a_edge14"><a xlink:href="dir_000049_000052.html" target="_top">
<path fill="none" stroke="#63b8ff" d="M341.57,-54.98C362.43,-46.34 394.97,-32.87 418.77,-23.02"/>
<polygon fill="#63b8ff" stroke="#63b8ff" points="420.16,-26.23 428.06,-19.17 417.48,-19.76 420.16,-26.23"/>
</a>
</g>
<g id="a_edge14&#45;headlabel"><a xlink:href="dir_000049_000052.html" target="_top" xlink:title="1">
<text text-anchor="middle" x="417.93" y="-27.73" font-family="Helvetica,sans-Serif" font-size="10.00" fill="#63b8ff">1</text>
</a>
</g>
</g>
<!-- dir_c87c7e4d4fdad4f97d517f6e37fa3d03 -->
<g id="node12" class="node">
<title>dir_c87c7e4d4fdad4f97d517f6e37fa3d03</title>
<g id="a_node12"><a xlink:href="dir_c87c7e4d4fdad4f97d517f6e37fa3d03.html" target="_top" xlink:title="Geometry">
<polygon fill="#edf0f7" stroke="#7f7f7f" points="567.5,-19 502.5,-19 502.5,0 567.5,0 567.5,-19"/>
<text text-anchor="middle" x="535" y="-7" font-family="Helvetica,sans-Serif" font-size="10.00">Geometry</text>
</a>
</g>
</g>
<!-- dir_83634b61886b59a63231ec98523ba0d5&#45;&gt;dir_c87c7e4d4fdad4f97d517f6e37fa3d03 -->
<g id="edge16" class="edge">
<title>dir_83634b61886b59a63231ec98523ba0d5&#45;&gt;dir_c87c7e4d4fdad4f97d517f6e37fa3d03</title>
<g id="a_edge16"><a xlink:href="dir_000049_000013.html" target="_top">
<path fill="none" stroke="#63b8ff" d="M354.91,-55.1C392.18,-45.87 452.1,-31.03 492.48,-21.03"/>
<polygon fill="#63b8ff" stroke="#63b8ff" points="493.44,-24.4 502.3,-18.6 491.75,-17.6 493.44,-24.4"/>
</a>
</g>
<g id="a_edge16&#45;headlabel"><a xlink:href="dir_000049_000013.html" target="_top" xlink:title="1">
<text text-anchor="middle" x="490.63" y="-25.52" font-family="Helvetica,sans-Serif" font-size="10.00" fill="#63b8ff">1</text>
</a>
</g>
</g>
</g>
</svg>
