<?xml version="1.0" encoding="UTF-8" standalone="no"?>
<!DOCTYPE svg PUBLIC "-//W3C//DTD SVG 1.1//EN"
 "http://www.w3.org/Graphics/SVG/1.1/DTD/svg11.dtd">
<!-- Generated by graphviz version 2.43.0 (0)
 -->
<!-- Title: /home/runner/work/Weaver/Weaver/include/App/Model/IBM/Landscape/Map Pages: 1 -->
<svg width="835pt" height="400pt"
 viewBox="0.00 0.00 834.50 400.00" xmlns="http://www.w3.org/2000/svg" xmlns:xlink="http://www.w3.org/1999/xlink">
<g id="graph0" class="graph" transform="scale(1 1) rotate(0) translate(4 396)">
<title>/home/runner/work/Weaver/Weaver/include/App/Model/IBM/Landscape/Map</title>
<g id="clust1" class="cluster">
<title>clusterdir_a3743c4f48a9f113c48eeb11d5f797ad</title>
<g id="a_clust1"><a xlink:href="dir_a3743c4f48a9f113c48eeb11d5f797ad.html" target="_top" xlink:title="Landscape">
<polygon fill="#edf0f7" stroke="#7f7f7f" stroke-dasharray="5,2" points="198,-39 198,-384 470,-384 470,-39 198,-39"/>
<text text-anchor="middle" x="334" y="-372" font-family="Helvetica,sans-Serif" font-size="10.00">Landscape</text>
</a>
</g>
</g>
<g id="clust2" class="cluster">
<title>clusterdir_389a21b4e0d5da4afd1bc923d1c21e90</title>
<g id="a_clust2"><a xlink:href="dir_389a21b4e0d5da4afd1bc923d1c21e90.html" target="_top">
<polygon fill="#edf0f7" stroke="#404040" stroke-width="2" points="206,-47 206,-357 376,-357 376,-47 206,-47"/>
</a>
</g>
</g>
<!-- dir_deb6f38fabcacb3d9327502f4723bff5 -->
<g id="node1" class="node">
<title>dir_deb6f38fabcacb3d9327502f4723bff5</title>
<g id="a_node1"><a xlink:href="dir_deb6f38fabcacb3d9327502f4723bff5.html" target="_top" xlink:title="LivingBeings">
<polygon fill="#a2b4d6" stroke="red" points="462.5,-129 383.5,-129 383.5,-110 462.5,-110 462.5,-129"/>
<text text-anchor="middle" x="423" y="-117" font-family="Helvetica,sans-Serif" font-size="10.00">LivingBeings</text>
</a>
</g>
</g>
<!-- dir_389a21b4e0d5da4afd1bc923d1c21e90 -->
<g id="node2" class="node">
<title>dir_389a21b4e0d5da4afd1bc923d1c21e90</title>
<text text-anchor="middle" x="340" y="-337" font-family="Helvetica,sans-Serif" font-size="10.00">Map</text>
</g>
<!-- dir_389a21b4e0d5da4afd1bc923d1c21e90&#45;&gt;dir_deb6f38fabcacb3d9327502f4723bff5 -->
<g id="edge6" class="edge">
<title>dir_389a21b4e0d5da4afd1bc923d1c21e90&#45;&gt;dir_deb6f38fabcacb3d9327502f4723bff5</title>
<g id="a_edge6"><a xlink:href="dir_000030_000028.html" target="_top">
<path fill="none" stroke="#63b8ff" d="M349.24,-329.81C357.65,-321.41 369.81,-307.93 377,-294 403.97,-241.73 416.18,-172.22 420.73,-139.31"/>
<polygon fill="#63b8ff" stroke="#63b8ff" points="424.21,-139.65 422.03,-129.28 417.27,-138.75 424.21,-139.65"/>
</a>
</g>
<g id="a_edge6&#45;headlabel"><a xlink:href="dir_000030_000028.html" target="_top" xlink:title="47">
<text text-anchor="middle" x="426.57" y="-141.08" font-family="Helvetica,sans-Serif" font-size="10.00" fill="#63b8ff">47</text>
</a>
</g>
</g>
<!-- dir_fe2315cfed866a6b02d6c74118be6618 -->
<g id="node5" class="node">
<title>dir_fe2315cfed866a6b02d6c74118be6618</title>
<g id="a_node5"><a xlink:href="dir_fe2315cfed866a6b02d6c74118be6618.html" target="_top" xlink:title="Points">
<polygon fill="#a2b4d6" stroke="#404040" points="270.5,-74 223.5,-74 223.5,-55 270.5,-55 270.5,-74"/>
<text text-anchor="middle" x="247" y="-62" font-family="Helvetica,sans-Serif" font-size="10.00">Points</text>
</a>
</g>
</g>
<!-- dir_389a21b4e0d5da4afd1bc923d1c21e90&#45;&gt;dir_fe2315cfed866a6b02d6c74118be6618 -->
<g id="edge8" class="edge">
<title>dir_389a21b4e0d5da4afd1bc923d1c21e90&#45;&gt;dir_fe2315cfed866a6b02d6c74118be6618</title>
<g id="a_edge8"><a xlink:href="dir_000030_000045.html" target="_top">
<path fill="none" stroke="#63b8ff" d="M320.74,-332.05C285.68,-318.96 215,-285.71 215,-230.5 215,-230.5 215,-230.5 215,-173.5 215,-144.86 217.37,-137.31 226,-110 228.9,-100.84 233.3,-91.13 237.33,-83.13"/>
<polygon fill="#63b8ff" stroke="#63b8ff" points="240.54,-84.56 242.09,-74.08 234.34,-81.3 240.54,-84.56"/>
</a>
</g>
<g id="a_edge8&#45;headlabel"><a xlink:href="dir_000030_000045.html" target="_top" xlink:title="8">
<text text-anchor="middle" x="241.38" y="-86.56" font-family="Helvetica,sans-Serif" font-size="10.00" fill="#63b8ff">8</text>
</a>
</g>
</g>
<!-- dir_2ee29caf34043349edd495638e9b55e5 -->
<g id="node6" class="node">
<title>dir_2ee29caf34043349edd495638e9b55e5</title>
<g id="a_node6"><a xlink:href="dir_2ee29caf34043349edd495638e9b55e5.html" target="_top" xlink:title="SpatialTree">
<polygon fill="#a2b4d6" stroke="#404040" points="367.5,-294 296.5,-294 296.5,-275 367.5,-275 367.5,-294"/>
<text text-anchor="middle" x="332" y="-282" font-family="Helvetica,sans-Serif" font-size="10.00">SpatialTree</text>
</a>
</g>
</g>
<!-- dir_389a21b4e0d5da4afd1bc923d1c21e90&#45;&gt;dir_2ee29caf34043349edd495638e9b55e5 -->
<g id="edge1" class="edge">
<title>dir_389a21b4e0d5da4afd1bc923d1c21e90&#45;&gt;dir_2ee29caf34043349edd495638e9b55e5</title>
<g id="a_edge1"><a xlink:href="dir_000030_000052.html" target="_top">
<path fill="none" stroke="#63b8ff" d="M338.68,-329.75C337.63,-322.8 336.13,-312.85 334.81,-304.13"/>
<polygon fill="#63b8ff" stroke="#63b8ff" points="338.25,-303.45 333.3,-294.09 331.33,-304.5 338.25,-303.45"/>
</a>
</g>
<g id="a_edge1&#45;headlabel"><a xlink:href="dir_000030_000052.html" target="_top" xlink:title="20">
<text text-anchor="middle" x="341.59" y="-304.09" font-family="Helvetica,sans-Serif" font-size="10.00" fill="#63b8ff">20</text>
</a>
</g>
</g>
<!-- dir_bdb6f255533d67630a72c5b36fc2157a -->
<g id="node7" class="node">
<title>dir_bdb6f255533d67630a72c5b36fc2157a</title>
<g id="a_node7"><a xlink:href="dir_bdb6f255533d67630a72c5b36fc2157a.html" target="_top" xlink:title="TerrainCells">
<polygon fill="#a2b4d6" stroke="#404040" points="328,-239 254,-239 254,-220 328,-220 328,-239"/>
<text text-anchor="middle" x="291" y="-227" font-family="Helvetica,sans-Serif" font-size="10.00">TerrainCells</text>
</a>
</g>
</g>
<!-- dir_389a21b4e0d5da4afd1bc923d1c21e90&#45;&gt;dir_bdb6f255533d67630a72c5b36fc2157a -->
<g id="edge5" class="edge">
<title>dir_389a21b4e0d5da4afd1bc923d1c21e90&#45;&gt;dir_bdb6f255533d67630a72c5b36fc2157a</title>
<g id="a_edge5"><a xlink:href="dir_000030_000059.html" target="_top">
<path fill="none" stroke="#63b8ff" d="M323.97,-329.95C311.59,-322.35 295.35,-309.97 288,-294 281.51,-279.9 283.05,-262.13 285.77,-248.98"/>
<polygon fill="#63b8ff" stroke="#63b8ff" points="289.18,-249.74 288.17,-239.2 282.38,-248.07 289.18,-249.74"/>
</a>
</g>
<g id="a_edge5&#45;headlabel"><a xlink:href="dir_000030_000059.html" target="_top" xlink:title="24">
<text text-anchor="middle" x="291.08" y="-251.41" font-family="Helvetica,sans-Serif" font-size="10.00" fill="#63b8ff">24</text>
</a>
</g>
</g>
<!-- dir_372774f0ab5e2d6e2a78b40358f88508 -->
<g id="node8" class="node">
<title>dir_372774f0ab5e2d6e2a78b40358f88508</title>
<g id="a_node8"><a xlink:href="dir_372774f0ab5e2d6e2a78b40358f88508.html" target="_top" xlink:title="View">
<polygon fill="#edf0f7" stroke="red" stroke-dasharray="5,2" points="826.5,-294 785.5,-294 785.5,-275 826.5,-275 826.5,-294"/>
<text text-anchor="middle" x="806" y="-282" font-family="Helvetica,sans-Serif" font-size="10.00">View</text>
</a>
</g>
</g>
<!-- dir_389a21b4e0d5da4afd1bc923d1c21e90&#45;&gt;dir_372774f0ab5e2d6e2a78b40358f88508 -->
<g id="edge2" class="edge">
<title>dir_389a21b4e0d5da4afd1bc923d1c21e90&#45;&gt;dir_372774f0ab5e2d6e2a78b40358f88508</title>
<g id="a_edge2"><a xlink:href="dir_000030_000063.html" target="_top">
<path fill="none" stroke="#63b8ff" d="M359.03,-337.46C419.58,-333.94 613.1,-321.2 771,-294 772.46,-293.75 773.96,-293.47 775.46,-293.17"/>
<polygon fill="#63b8ff" stroke="#63b8ff" points="776.35,-296.56 785.37,-291 774.85,-289.72 776.35,-296.56"/>
</a>
</g>
<g id="a_edge2&#45;headlabel"><a xlink:href="dir_000030_000063.html" target="_top" xlink:title="1">
<text text-anchor="middle" x="773.45" y="-297.6" font-family="Helvetica,sans-Serif" font-size="10.00" fill="#63b8ff">1</text>
</a>
</g>
</g>
<!-- dir_4045643538bad1aadeff61b05dc9bc0d -->
<g id="node9" class="node">
<title>dir_4045643538bad1aadeff61b05dc9bc0d</title>
<g id="a_node9"><a xlink:href="dir_4045643538bad1aadeff61b05dc9bc0d.html" target="_top" xlink:title="Exceptions">
<polygon fill="#edf0f7" stroke="#7f7f7f" points="111,-19 41,-19 41,0 111,0 111,-19"/>
<text text-anchor="middle" x="76" y="-7" font-family="Helvetica,sans-Serif" font-size="10.00">Exceptions</text>
</a>
</g>
</g>
<!-- dir_389a21b4e0d5da4afd1bc923d1c21e90&#45;&gt;dir_4045643538bad1aadeff61b05dc9bc0d -->
<g id="edge3" class="edge">
<title>dir_389a21b4e0d5da4afd1bc923d1c21e90&#45;&gt;dir_4045643538bad1aadeff61b05dc9bc0d</title>
<g id="a_edge3"><a xlink:href="dir_000030_000010.html" target="_top">
<path fill="none" stroke="#63b8ff" d="M320.75,-336.63C248.82,-329.14 0,-298.32 0,-230.5 0,-230.5 0,-230.5 0,-118.5 0,-79.47 33.61,-44.58 56.13,-25.6"/>
<polygon fill="#63b8ff" stroke="#63b8ff" points="58.56,-28.14 64.12,-19.12 54.15,-22.7 58.56,-28.14"/>
</a>
</g>
<g id="a_edge3&#45;headlabel"><a xlink:href="dir_000030_000010.html" target="_top" xlink:title="7">
<text text-anchor="middle" x="57.55" y="-30.1" font-family="Helvetica,sans-Serif" font-size="10.00" fill="#63b8ff">7</text>
</a>
</g>
</g>
<!-- dir_6d30109d817e3a6d4be9084cc265e05a -->
<g id="node10" class="node">
<title>dir_6d30109d817e3a6d4be9084cc265e05a</title>
<g id="a_node10"><a xlink:href="dir_6d30109d817e3a6d4be9084cc265e05a.html" target="_top" xlink:title="Maths">
<polygon fill="#edf0f7" stroke="red" stroke-dasharray="5,2" points="590.5,-19 543.5,-19 543.5,0 590.5,0 590.5,-19"/>
<text text-anchor="middle" x="567" y="-7" font-family="Helvetica,sans-Serif" font-size="10.00">Maths</text>
</a>
</g>
</g>
<!-- dir_389a21b4e0d5da4afd1bc923d1c21e90&#45;&gt;dir_6d30109d817e3a6d4be9084cc265e05a -->
<g id="edge4" class="edge">
<title>dir_389a21b4e0d5da4afd1bc923d1c21e90&#45;&gt;dir_6d30109d817e3a6d4be9084cc265e05a</title>
<g id="a_edge4"><a xlink:href="dir_000030_000032.html" target="_top">
<path fill="none" stroke="#63b8ff" d="M359,-337.74C440.58,-333.95 757,-313.88 757,-230.5 757,-230.5 757,-230.5 757,-118.5 757,-47.39 655.16,-22.51 600.6,-14.29"/>
<polygon fill="#63b8ff" stroke="#63b8ff" points="601.07,-10.82 590.68,-12.9 600.1,-17.75 601.07,-10.82"/>
</a>
</g>
<g id="a_edge4&#45;headlabel"><a xlink:href="dir_000030_000032.html" target="_top" xlink:title="11">
<text text-anchor="middle" x="605.02" y="-6.01" font-family="Helvetica,sans-Serif" font-size="10.00" fill="#63b8ff">11</text>
</a>
</g>
</g>
<!-- dir_ed435641f8e8047e0f5542c775bc8256 -->
<g id="node11" class="node">
<title>dir_ed435641f8e8047e0f5542c775bc8256</title>
<g id="a_node11"><a xlink:href="dir_ed435641f8e8047e0f5542c775bc8256.html" target="_top" xlink:title="Misc">
<polygon fill="#edf0f7" stroke="red" stroke-dasharray="5,2" points="586.5,-74 547.5,-74 547.5,-55 586.5,-55 586.5,-74"/>
<text text-anchor="middle" x="567" y="-62" font-family="Helvetica,sans-Serif" font-size="10.00">Misc</text>
</a>
</g>
</g>
<!-- dir_389a21b4e0d5da4afd1bc923d1c21e90&#45;&gt;dir_ed435641f8e8047e0f5542c775bc8256 -->
<g id="edge7" class="edge">
<title>dir_389a21b4e0d5da4afd1bc923d1c21e90&#45;&gt;dir_ed435641f8e8047e0f5542c775bc8256</title>
<g id="a_edge7"><a xlink:href="dir_000030_000033.html" target="_top">
<path fill="none" stroke="#63b8ff" d="M359.31,-336.65C431.45,-329.19 681,-298.5 681,-230.5 681,-230.5 681,-230.5 681,-173.5 681,-126.73 629.8,-94.14 596.02,-77.73"/>
<polygon fill="#63b8ff" stroke="#63b8ff" points="597.14,-74.39 586.6,-73.35 594.19,-80.74 597.14,-74.39"/>
</a>
</g>
<g id="a_edge7&#45;headlabel"><a xlink:href="dir_000030_000033.html" target="_top" xlink:title="16">
<text text-anchor="middle" x="601.6" y="-70.83" font-family="Helvetica,sans-Serif" font-size="10.00" fill="#63b8ff">16</text>
</a>
</g>
</g>
<!-- dir_c87c7e4d4fdad4f97d517f6e37fa3d03 -->
<g id="node3" class="node">
<title>dir_c87c7e4d4fdad4f97d517f6e37fa3d03</title>
<g id="a_node3"><a xlink:href="dir_c87c7e4d4fdad4f97d517f6e37fa3d03.html" target="_top" xlink:title="Geometry">
<polygon fill="#a2b4d6" stroke="#404040" points="359.5,-129 294.5,-129 294.5,-110 359.5,-110 359.5,-129"/>
<text text-anchor="middle" x="327" y="-117" font-family="Helvetica,sans-Serif" font-size="10.00">Geometry</text>
</a>
</g>
</g>
<!-- dir_c87c7e4d4fdad4f97d517f6e37fa3d03&#45;&gt;dir_fe2315cfed866a6b02d6c74118be6618 -->
<g id="edge11" class="edge">
<title>dir_c87c7e4d4fdad4f97d517f6e37fa3d03&#45;&gt;dir_fe2315cfed866a6b02d6c74118be6618</title>
<g id="a_edge11"><a xlink:href="dir_000013_000045.html" target="_top">
<path fill="none" stroke="#63b8ff" d="M314.15,-109.98C301.86,-101.84 283.09,-89.41 268.52,-79.76"/>
<polygon fill="#63b8ff" stroke="#63b8ff" points="270.36,-76.78 260.09,-74.17 266.49,-82.61 270.36,-76.78"/>
</a>
</g>
<g id="a_edge11&#45;headlabel"><a xlink:href="dir_000013_000045.html" target="_top" xlink:title="2">
<text text-anchor="middle" x="274.92" y="-73.89" font-family="Helvetica,sans-Serif" font-size="10.00" fill="#63b8ff">2</text>
</a>
</g>
</g>
<!-- dir_c87c7e4d4fdad4f97d517f6e37fa3d03&#45;&gt;dir_6d30109d817e3a6d4be9084cc265e05a -->
<g id="edge9" class="edge">
<title>dir_c87c7e4d4fdad4f97d517f6e37fa3d03&#45;&gt;dir_6d30109d817e3a6d4be9084cc265e05a</title>
<g id="a_edge9"><a xlink:href="dir_000013_000032.html" target="_top">
<path fill="none" stroke="#63b8ff" d="M341.06,-109.94C367.14,-94.31 425.08,-60.77 477,-39 495.15,-31.39 516.07,-24.65 533.18,-19.64"/>
<polygon fill="#63b8ff" stroke="#63b8ff" points="534.62,-22.86 543.27,-16.75 532.7,-16.13 534.62,-22.86"/>
</a>
</g>
<g id="a_edge9&#45;headlabel"><a xlink:href="dir_000013_000032.html" target="_top" xlink:title="1">
<text text-anchor="middle" x="531.95" y="-24.08" font-family="Helvetica,sans-Serif" font-size="10.00" fill="#63b8ff">1</text>
</a>
</g>
</g>
<!-- dir_c87c7e4d4fdad4f97d517f6e37fa3d03&#45;&gt;dir_ed435641f8e8047e0f5542c775bc8256 -->
<g id="edge10" class="edge">
<title>dir_c87c7e4d4fdad4f97d517f6e37fa3d03&#45;&gt;dir_ed435641f8e8047e0f5542c775bc8256</title>
<g id="a_edge10"><a xlink:href="dir_000013_000033.html" target="_top">
<path fill="none" stroke="#63b8ff" d="M359.68,-110.97C361.14,-110.64 362.59,-110.32 364,-110 425.59,-96.17 497.81,-80.46 537.37,-71.9"/>
<polygon fill="#63b8ff" stroke="#63b8ff" points="538.36,-75.27 547.39,-69.73 536.88,-68.42 538.36,-75.27"/>
</a>
</g>
<g id="a_edge10&#45;headlabel"><a xlink:href="dir_000013_000033.html" target="_top" xlink:title="1">
<text text-anchor="middle" x="535.44" y="-76.3" font-family="Helvetica,sans-Serif" font-size="10.00" fill="#63b8ff">1</text>
</a>
</g>
</g>
<!-- dir_017facbfd39d2f00dec237be0066268e -->
<g id="node4" class="node">
<title>dir_017facbfd39d2f00dec237be0066268e</title>
<g id="a_node4"><a xlink:href="dir_017facbfd39d2f00dec237be0066268e.html" target="_top" xlink:title="Patches">
<polygon fill="#a2b4d6" stroke="#404040" points="348,-184 294,-184 294,-165 348,-165 348,-184"/>
<text text-anchor="middle" x="321" y="-172" font-family="Helvetica,sans-Serif" font-size="10.00">Patches</text>
</a>
</g>
</g>
<!-- dir_017facbfd39d2f00dec237be0066268e&#45;&gt;dir_deb6f38fabcacb3d9327502f4723bff5 -->
<g id="edge15" class="edge">
<title>dir_017facbfd39d2f00dec237be0066268e&#45;&gt;dir_deb6f38fabcacb3d9327502f4723bff5</title>
<g id="a_edge15"><a xlink:href="dir_000043_000028.html" target="_top">
<path fill="none" stroke="#63b8ff" d="M337.39,-164.98C353.57,-156.57 378.57,-143.59 397.38,-133.81"/>
<polygon fill="#63b8ff" stroke="#63b8ff" points="399.05,-136.89 406.31,-129.17 395.83,-130.68 399.05,-136.89"/>
</a>
</g>
<g id="a_edge15&#45;headlabel"><a xlink:href="dir_000043_000028.html" target="_top" xlink:title="5">
<text text-anchor="middle" x="397.17" y="-138.56" font-family="Helvetica,sans-Serif" font-size="10.00" fill="#63b8ff">5</text>
</a>
</g>
</g>
<!-- dir_017facbfd39d2f00dec237be0066268e&#45;&gt;dir_c87c7e4d4fdad4f97d517f6e37fa3d03 -->
<g id="edge13" class="edge">
<title>dir_017facbfd39d2f00dec237be0066268e&#45;&gt;dir_c87c7e4d4fdad4f97d517f6e37fa3d03</title>
<g id="a_edge13"><a xlink:href="dir_000043_000013.html" target="_top">
<path fill="none" stroke="#63b8ff" d="M321.99,-164.75C322.78,-157.8 323.9,-147.85 324.89,-139.13"/>
<polygon fill="#63b8ff" stroke="#63b8ff" points="328.38,-139.42 326.03,-129.09 321.42,-138.63 328.38,-139.42"/>
</a>
</g>
<g id="a_edge13&#45;headlabel"><a xlink:href="dir_000043_000013.html" target="_top" xlink:title="1">
<text text-anchor="middle" x="330.8" y="-140.81" font-family="Helvetica,sans-Serif" font-size="10.00" fill="#63b8ff">1</text>
</a>
</g>
</g>
<!-- dir_017facbfd39d2f00dec237be0066268e&#45;&gt;dir_4045643538bad1aadeff61b05dc9bc0d -->
<g id="edge14" class="edge">
<title>dir_017facbfd39d2f00dec237be0066268e&#45;&gt;dir_4045643538bad1aadeff61b05dc9bc0d</title>
<g id="a_edge14"><a xlink:href="dir_000043_000010.html" target="_top">
<path fill="none" stroke="#63b8ff" d="M308.17,-164.97C268.41,-138.51 146.92,-57.68 97.37,-24.72"/>
<polygon fill="#63b8ff" stroke="#63b8ff" points="99.26,-21.77 89,-19.15 95.38,-27.6 99.26,-21.77"/>
</a>
</g>
<g id="a_edge14&#45;headlabel"><a xlink:href="dir_000043_000010.html" target="_top" xlink:title="1">
<text text-anchor="middle" x="103.83" y="-18.9" font-family="Helvetica,sans-Serif" font-size="10.00" fill="#63b8ff">1</text>
</a>
</g>
</g>
<!-- dir_017facbfd39d2f00dec237be0066268e&#45;&gt;dir_6d30109d817e3a6d4be9084cc265e05a -->
<g id="edge17" class="edge">
<title>dir_017facbfd39d2f00dec237be0066268e&#45;&gt;dir_6d30109d817e3a6d4be9084cc265e05a</title>
<g id="a_edge17"><a xlink:href="dir_000043_000032.html" target="_top">
<path fill="none" stroke="#63b8ff" d="M348.19,-170.98C380.71,-166.83 435.57,-156.1 474,-129 514.32,-100.57 507.18,-76.71 539,-39 542.6,-34.74 546.7,-30.34 550.63,-26.31"/>
<polygon fill="#63b8ff" stroke="#63b8ff" points="553.2,-28.7 557.81,-19.16 548.26,-23.74 553.2,-28.7"/>
</a>
</g>
<g id="a_edge17&#45;headlabel"><a xlink:href="dir_000043_000032.html" target="_top" xlink:title="4">
<text text-anchor="middle" x="552.66" y="-30.74" font-family="Helvetica,sans-Serif" font-size="10.00" fill="#63b8ff">4</text>
</a>
</g>
</g>
<!-- dir_017facbfd39d2f00dec237be0066268e&#45;&gt;dir_ed435641f8e8047e0f5542c775bc8256 -->
<g id="edge12" class="edge">
<title>dir_017facbfd39d2f00dec237be0066268e&#45;&gt;dir_ed435641f8e8047e0f5542c775bc8256</title>
<g id="a_edge12"><a xlink:href="dir_000043_000033.html" target="_top">
<path fill="none" stroke="#63b8ff" d="M348.31,-171.62C385.84,-168.03 454.44,-157.77 505,-129 525.41,-117.39 543.48,-97.1 554.78,-82.58"/>
<polygon fill="#63b8ff" stroke="#63b8ff" points="557.7,-84.52 560.89,-74.42 552.1,-80.32 557.7,-84.52"/>
</a>
</g>
<g id="a_edge12&#45;headlabel"><a xlink:href="dir_000043_000033.html" target="_top" xlink:title="3">
<text text-anchor="middle" x="557.82" y="-86.6" font-family="Helvetica,sans-Serif" font-size="10.00" fill="#63b8ff">3</text>
</a>
</g>
</g>
<!-- dir_82abf9c3cae407e2f368e3cd0d776797 -->
<g id="node12" class="node">
<title>dir_82abf9c3cae407e2f368e3cd0d776797</title>
<g id="a_node12"><a xlink:href="dir_82abf9c3cae407e2f368e3cd0d776797.html" target="_top" xlink:title="Physics">
<polygon fill="#edf0f7" stroke="#7f7f7f" points="157.5,-129 104.5,-129 104.5,-110 157.5,-110 157.5,-129"/>
<text text-anchor="middle" x="131" y="-117" font-family="Helvetica,sans-Serif" font-size="10.00">Physics</text>
</a>
</g>
</g>
<!-- dir_017facbfd39d2f00dec237be0066268e&#45;&gt;dir_82abf9c3cae407e2f368e3cd0d776797 -->
<g id="edge16" class="edge">
<title>dir_017facbfd39d2f00dec237be0066268e&#45;&gt;dir_82abf9c3cae407e2f368e3cd0d776797</title>
<g id="a_edge16"><a xlink:href="dir_000043_000044.html" target="_top">
<path fill="none" stroke="#63b8ff" d="M293.78,-165.91C260.58,-156.64 204.32,-140.95 167.42,-130.66"/>
<polygon fill="#63b8ff" stroke="#63b8ff" points="168.13,-127.22 157.56,-127.91 166.25,-133.97 168.13,-127.22"/>
</a>
</g>
<g id="a_edge16&#45;headlabel"><a xlink:href="dir_000043_000044.html" target="_top" xlink:title="1">
<text text-anchor="middle" x="172.36" y="-122.96" font-family="Helvetica,sans-Serif" font-size="10.00" fill="#63b8ff">1</text>
</a>
</g>
</g>
<!-- dir_fe2315cfed866a6b02d6c74118be6618&#45;&gt;dir_4045643538bad1aadeff61b05dc9bc0d -->
<g id="edge18" class="edge">
<title>dir_fe2315cfed866a6b02d6c74118be6618&#45;&gt;dir_4045643538bad1aadeff61b05dc9bc0d</title>
<g id="a_edge18"><a xlink:href="dir_000045_000010.html" target="_top">
<path fill="none" stroke="#63b8ff" d="M232.62,-54.78C223.54,-49.58 211.4,-43.2 200,-39 174.52,-29.61 144.92,-22.66 121.03,-17.98"/>
<polygon fill="#63b8ff" stroke="#63b8ff" points="121.64,-14.54 111.16,-16.11 120.34,-21.41 121.64,-14.54"/>
</a>
</g>
<g id="a_edge18&#45;headlabel"><a xlink:href="dir_000045_000010.html" target="_top" xlink:title="2">
<text text-anchor="middle" x="125.7" y="-9.92" font-family="Helvetica,sans-Serif" font-size="10.00" fill="#63b8ff">2</text>
</a>
</g>
</g>
<!-- dir_fe2315cfed866a6b02d6c74118be6618&#45;&gt;dir_6d30109d817e3a6d4be9084cc265e05a -->
<g id="edge19" class="edge">
<title>dir_fe2315cfed866a6b02d6c74118be6618&#45;&gt;dir_6d30109d817e3a6d4be9084cc265e05a</title>
<g id="a_edge19"><a xlink:href="dir_000045_000032.html" target="_top">
<path fill="none" stroke="#63b8ff" d="M270.73,-58.7C296.57,-53.55 339.14,-45.25 376,-39 430.99,-29.68 495.17,-20.44 533.37,-15.11"/>
<polygon fill="#63b8ff" stroke="#63b8ff" points="534.01,-18.55 543.43,-13.71 533.04,-11.62 534.01,-18.55"/>
</a>
</g>
<g id="a_edge19&#45;headlabel"><a xlink:href="dir_000045_000032.html" target="_top" xlink:title="1">
<text text-anchor="middle" x="530.84" y="-19.36" font-family="Helvetica,sans-Serif" font-size="10.00" fill="#63b8ff">1</text>
</a>
</g>
</g>
<!-- dir_2ee29caf34043349edd495638e9b55e5&#45;&gt;dir_deb6f38fabcacb3d9327502f4723bff5 -->
<g id="edge23" class="edge">
<title>dir_2ee29caf34043349edd495638e9b55e5&#45;&gt;dir_deb6f38fabcacb3d9327502f4723bff5</title>
<g id="a_edge23"><a xlink:href="dir_000052_000028.html" target="_top">
<path fill="none" stroke="#63b8ff" d="M337.51,-274.71C343.06,-265.79 351.81,-251.55 359,-239 379.25,-203.65 401.58,-161.54 413.78,-138.23"/>
<polygon fill="#63b8ff" stroke="#63b8ff" points="416.97,-139.69 418.49,-129.21 410.76,-136.45 416.97,-139.69"/>
</a>
</g>
<g id="a_edge23&#45;headlabel"><a xlink:href="dir_000052_000028.html" target="_top" xlink:title="7">
<text text-anchor="middle" x="417.82" y="-141.69" font-family="Helvetica,sans-Serif" font-size="10.00" fill="#63b8ff">7</text>
</a>
</g>
</g>
<!-- dir_2ee29caf34043349edd495638e9b55e5&#45;&gt;dir_c87c7e4d4fdad4f97d517f6e37fa3d03 -->
<g id="edge22" class="edge">
<title>dir_2ee29caf34043349edd495638e9b55e5&#45;&gt;dir_c87c7e4d4fdad4f97d517f6e37fa3d03</title>
<g id="a_edge22"><a xlink:href="dir_000052_000013.html" target="_top">
<path fill="none" stroke="#63b8ff" d="M336.83,-274.74C347.12,-254.92 369.29,-205.22 357,-165 353.91,-154.9 347.68,-145.02 341.69,-137.15"/>
<polygon fill="#63b8ff" stroke="#63b8ff" points="344.24,-134.74 335.21,-129.2 338.82,-139.16 344.24,-134.74"/>
</a>
</g>
<g id="a_edge22&#45;headlabel"><a xlink:href="dir_000052_000013.html" target="_top" xlink:title="2">
<text text-anchor="middle" x="348.72" y="-133.23" font-family="Helvetica,sans-Serif" font-size="10.00" fill="#63b8ff">2</text>
</a>
</g>
</g>
<!-- dir_2ee29caf34043349edd495638e9b55e5&#45;&gt;dir_017facbfd39d2f00dec237be0066268e -->
<g id="edge20" class="edge">
<title>dir_2ee29caf34043349edd495638e9b55e5&#45;&gt;dir_017facbfd39d2f00dec237be0066268e</title>
<g id="a_edge20"><a xlink:href="dir_000052_000043.html" target="_top">
<path fill="none" stroke="#63b8ff" d="M334.05,-274.81C336.64,-262.52 340.38,-239.39 337,-220 335.43,-211 332.2,-201.42 329.06,-193.46"/>
<polygon fill="#63b8ff" stroke="#63b8ff" points="332.23,-191.97 325.11,-184.12 325.78,-194.69 332.23,-191.97"/>
</a>
</g>
<g id="a_edge20&#45;headlabel"><a xlink:href="dir_000052_000043.html" target="_top" xlink:title="2">
<text text-anchor="middle" x="336.24" y="-191.68" font-family="Helvetica,sans-Serif" font-size="10.00" fill="#63b8ff">2</text>
</a>
</g>
</g>
<!-- dir_2ee29caf34043349edd495638e9b55e5&#45;&gt;dir_fe2315cfed866a6b02d6c74118be6618 -->
<g id="edge24" class="edge">
<title>dir_2ee29caf34043349edd495638e9b55e5&#45;&gt;dir_fe2315cfed866a6b02d6c74118be6618</title>
<g id="a_edge24"><a xlink:href="dir_000052_000045.html" target="_top">
<path fill="none" stroke="#63b8ff" d="M296.56,-274.99C277.74,-268.48 256.24,-257.38 245,-239 215.06,-190.06 230.78,-117.9 240.79,-84.16"/>
<polygon fill="#63b8ff" stroke="#63b8ff" points="244.23,-84.88 243.89,-74.29 237.55,-82.78 244.23,-84.88"/>
</a>
</g>
<g id="a_edge24&#45;headlabel"><a xlink:href="dir_000052_000045.html" target="_top" xlink:title="3">
<text text-anchor="middle" x="245.87" y="-86.66" font-family="Helvetica,sans-Serif" font-size="10.00" fill="#63b8ff">3</text>
</a>
</g>
</g>
<!-- dir_2ee29caf34043349edd495638e9b55e5&#45;&gt;dir_bdb6f255533d67630a72c5b36fc2157a -->
<g id="edge21" class="edge">
<title>dir_2ee29caf34043349edd495638e9b55e5&#45;&gt;dir_bdb6f255533d67630a72c5b36fc2157a</title>
<g id="a_edge21"><a xlink:href="dir_000052_000059.html" target="_top">
<path fill="none" stroke="#63b8ff" d="M320.06,-274.75C312.82,-267.42 304.15,-256.73 297.94,-247.7"/>
<polygon fill="#63b8ff" stroke="#63b8ff" points="300.81,-245.68 292.51,-239.09 294.88,-249.42 300.81,-245.68"/>
</a>
</g>
<g id="a_edge21&#45;headlabel"><a xlink:href="dir_000052_000059.html" target="_top" xlink:title="13">
<text text-anchor="middle" x="305.12" y="-244.71" font-family="Helvetica,sans-Serif" font-size="10.00" fill="#63b8ff">13</text>
</a>
</g>
</g>
<!-- dir_2ee29caf34043349edd495638e9b55e5&#45;&gt;dir_4045643538bad1aadeff61b05dc9bc0d -->
<g id="edge26" class="edge">
<title>dir_2ee29caf34043349edd495638e9b55e5&#45;&gt;dir_4045643538bad1aadeff61b05dc9bc0d</title>
<g id="a_edge26"><a xlink:href="dir_000052_000010.html" target="_top">
<path fill="none" stroke="#63b8ff" d="M296.24,-278.11C217.89,-265.3 38,-229.94 38,-175.5 38,-175.5 38,-175.5 38,-118.5 38,-85.02 54.45,-48.84 65.7,-28.01"/>
<polygon fill="#63b8ff" stroke="#63b8ff" points="68.87,-29.53 70.72,-19.1 62.76,-26.1 68.87,-29.53"/>
</a>
</g>
<g id="a_edge26&#45;headlabel"><a xlink:href="dir_000052_000010.html" target="_top" xlink:title="2">
<text text-anchor="middle" x="69.58" y="-31.55" font-family="Helvetica,sans-Serif" font-size="10.00" fill="#63b8ff">2</text>
</a>
</g>
</g>
<!-- dir_2ee29caf34043349edd495638e9b55e5&#45;&gt;dir_6d30109d817e3a6d4be9084cc265e05a -->
<g id="edge25" class="edge">
<title>dir_2ee29caf34043349edd495638e9b55e5&#45;&gt;dir_6d30109d817e3a6d4be9084cc265e05a</title>
<g id="a_edge25"><a xlink:href="dir_000052_000032.html" target="_top">
<path fill="none" stroke="#63b8ff" d="M367.82,-280.4C403.51,-275.9 458.65,-265.02 499,-239 573.7,-190.83 594.51,-161.14 612,-74 615.06,-58.75 619.5,-52.63 612,-39 608.78,-33.15 603.8,-28.34 598.31,-24.43"/>
<polygon fill="#63b8ff" stroke="#63b8ff" points="599.79,-21.24 589.43,-19.04 596.16,-27.22 599.79,-21.24"/>
</a>
</g>
<g id="a_edge25&#45;headlabel"><a xlink:href="dir_000052_000032.html" target="_top" xlink:title="1">
<text text-anchor="middle" x="604.34" y="-18.18" font-family="Helvetica,sans-Serif" font-size="10.00" fill="#63b8ff">1</text>
</a>
</g>
</g>
<!-- dir_2ee29caf34043349edd495638e9b55e5&#45;&gt;dir_ed435641f8e8047e0f5542c775bc8256 -->
<g id="edge27" class="edge">
<title>dir_2ee29caf34043349edd495638e9b55e5&#45;&gt;dir_ed435641f8e8047e0f5542c775bc8256</title>
<g id="a_edge27"><a xlink:href="dir_000052_000033.html" target="_top">
<path fill="none" stroke="#63b8ff" d="M367.58,-278.92C398.19,-273.53 442.31,-262.19 474,-239 522.15,-203.75 526.19,-183.27 551,-129 557.58,-114.61 561.74,-97.09 564.16,-84.1"/>
<polygon fill="#63b8ff" stroke="#63b8ff" points="567.64,-84.49 565.86,-74.05 560.74,-83.32 567.64,-84.49"/>
</a>
</g>
<g id="a_edge27&#45;headlabel"><a xlink:href="dir_000052_000033.html" target="_top" xlink:title="1">
<text text-anchor="middle" x="569.84" y="-86.01" font-family="Helvetica,sans-Serif" font-size="10.00" fill="#63b8ff">1</text>
</a>
</g>
</g>
<!-- dir_bdb6f255533d67630a72c5b36fc2157a&#45;&gt;dir_deb6f38fabcacb3d9327502f4723bff5 -->
<g id="edge34" class="edge">
<title>dir_bdb6f255533d67630a72c5b36fc2157a&#45;&gt;dir_deb6f38fabcacb3d9327502f4723bff5</title>
<g id="a_edge34"><a xlink:href="dir_000059_000028.html" target="_top">
<path fill="none" stroke="#63b8ff" d="M305.14,-219.96C318.86,-211.46 340.02,-197.72 357,-184 375.43,-169.1 394.78,-150.02 407.72,-136.69"/>
<polygon fill="#63b8ff" stroke="#63b8ff" points="410.49,-138.85 414.89,-129.21 405.44,-134.01 410.49,-138.85"/>
</a>
</g>
<g id="a_edge34&#45;headlabel"><a xlink:href="dir_000059_000028.html" target="_top" xlink:title="26">
<text text-anchor="middle" x="410.06" y="-140.91" font-family="Helvetica,sans-Serif" font-size="10.00" fill="#63b8ff">26</text>
</a>
</g>
</g>
<!-- dir_bdb6f255533d67630a72c5b36fc2157a&#45;&gt;dir_c87c7e4d4fdad4f97d517f6e37fa3d03 -->
<g id="edge33" class="edge">
<title>dir_bdb6f255533d67630a72c5b36fc2157a&#45;&gt;dir_c87c7e4d4fdad4f97d517f6e37fa3d03</title>
<g id="a_edge33"><a xlink:href="dir_000059_000013.html" target="_top">
<path fill="none" stroke="#63b8ff" d="M287.78,-219.93C283.6,-207.39 277.64,-183.52 285,-165 289.52,-153.63 298.47,-143.48 306.96,-135.76"/>
<polygon fill="#63b8ff" stroke="#63b8ff" points="309.41,-138.27 314.79,-129.14 304.89,-132.92 309.41,-138.27"/>
</a>
</g>
<g id="a_edge33&#45;headlabel"><a xlink:href="dir_000059_000013.html" target="_top" xlink:title="4">
<text text-anchor="middle" x="308.5" y="-140.25" font-family="Helvetica,sans-Serif" font-size="10.00" fill="#63b8ff">4</text>
</a>
</g>
</g>
<!-- dir_bdb6f255533d67630a72c5b36fc2157a&#45;&gt;dir_017facbfd39d2f00dec237be0066268e -->
<g id="edge28" class="edge">
<title>dir_bdb6f255533d67630a72c5b36fc2157a&#45;&gt;dir_017facbfd39d2f00dec237be0066268e</title>
<g id="a_edge28"><a xlink:href="dir_000059_000043.html" target="_top">
<path fill="none" stroke="#63b8ff" d="M295.95,-219.75C300.06,-212.49 306.03,-201.95 311.1,-192.98"/>
<polygon fill="#63b8ff" stroke="#63b8ff" points="314.26,-194.52 316.14,-184.09 308.17,-191.07 314.26,-194.52"/>
</a>
</g>
<g id="a_edge28&#45;headlabel"><a xlink:href="dir_000059_000043.html" target="_top" xlink:title="10">
<text text-anchor="middle" x="314.96" y="-196.54" font-family="Helvetica,sans-Serif" font-size="10.00" fill="#63b8ff">10</text>
</a>
</g>
</g>
<!-- dir_bdb6f255533d67630a72c5b36fc2157a&#45;&gt;dir_fe2315cfed866a6b02d6c74118be6618 -->
<g id="edge36" class="edge">
<title>dir_bdb6f255533d67630a72c5b36fc2157a&#45;&gt;dir_fe2315cfed866a6b02d6c74118be6618</title>
<g id="a_edge36"><a xlink:href="dir_000059_000045.html" target="_top">
<path fill="none" stroke="#63b8ff" d="M288.06,-219.68C285.12,-210.73 280.54,-196.47 277,-184 267.05,-148.91 256.94,-107.52 251.37,-84.11"/>
<polygon fill="#63b8ff" stroke="#63b8ff" points="254.72,-83.1 249.02,-74.17 247.91,-84.71 254.72,-83.1"/>
</a>
</g>
<g id="a_edge36&#45;headlabel"><a xlink:href="dir_000059_000045.html" target="_top" xlink:title="1">
<text text-anchor="middle" x="258.31" y="-83.44" font-family="Helvetica,sans-Serif" font-size="10.00" fill="#63b8ff">1</text>
</a>
</g>
</g>
<!-- dir_bdb6f255533d67630a72c5b36fc2157a&#45;&gt;dir_2ee29caf34043349edd495638e9b55e5 -->
<g id="edge29" class="edge">
<title>dir_bdb6f255533d67630a72c5b36fc2157a&#45;&gt;dir_2ee29caf34043349edd495638e9b55e5</title>
<g id="a_edge29"><a xlink:href="dir_000059_000052.html" target="_top">
<path fill="none" stroke="#63b8ff" d="M302.78,-239.09C310,-246.37 318.68,-257.04 324.92,-266.1"/>
<polygon fill="#63b8ff" stroke="#63b8ff" points="322.09,-268.17 330.4,-274.75 328.01,-264.43 322.09,-268.17"/>
</a>
</g>
<g id="a_edge29&#45;headlabel"><a xlink:href="dir_000059_000052.html" target="_top" xlink:title="2">
<text text-anchor="middle" x="317.77" y="-264.15" font-family="Helvetica,sans-Serif" font-size="10.00" fill="#63b8ff">2</text>
</a>
</g>
</g>
<!-- dir_bdb6f255533d67630a72c5b36fc2157a&#45;&gt;dir_4045643538bad1aadeff61b05dc9bc0d -->
<g id="edge30" class="edge">
<title>dir_bdb6f255533d67630a72c5b36fc2157a&#45;&gt;dir_4045643538bad1aadeff61b05dc9bc0d</title>
<g id="a_edge30"><a xlink:href="dir_000059_000010.html" target="_top">
<path fill="none" stroke="#63b8ff" d="M253.82,-220.68C208.42,-209.03 133.01,-182.51 95,-129 73.76,-99.1 72.75,-54.29 74.19,-29.21"/>
<polygon fill="#63b8ff" stroke="#63b8ff" points="77.68,-29.44 74.96,-19.2 70.7,-28.9 77.68,-29.44"/>
</a>
</g>
<g id="a_edge30&#45;headlabel"><a xlink:href="dir_000059_000010.html" target="_top" xlink:title="1">
<text text-anchor="middle" x="80.23" y="-30.74" font-family="Helvetica,sans-Serif" font-size="10.00" fill="#63b8ff">1</text>
</a>
</g>
</g>
<!-- dir_bdb6f255533d67630a72c5b36fc2157a&#45;&gt;dir_6d30109d817e3a6d4be9084cc265e05a -->
<g id="edge31" class="edge">
<title>dir_bdb6f255533d67630a72c5b36fc2157a&#45;&gt;dir_6d30109d817e3a6d4be9084cc265e05a</title>
<g id="a_edge31"><a xlink:href="dir_000059_000032.html" target="_top">
<path fill="none" stroke="#63b8ff" d="M328.12,-227.3C371.86,-224.44 445.48,-214.96 500,-184 556.43,-151.96 574.19,-135.11 596,-74 601.23,-59.35 602.02,-53.35 596,-39 594.02,-34.28 590.84,-29.96 587.3,-26.17"/>
<polygon fill="#63b8ff" stroke="#63b8ff" points="589.5,-23.44 579.78,-19.22 584.75,-28.58 589.5,-23.44"/>
</a>
</g>
<g id="a_edge31&#45;headlabel"><a xlink:href="dir_000059_000032.html" target="_top" xlink:title="3">
<text text-anchor="middle" x="594.07" y="-21.3" font-family="Helvetica,sans-Serif" font-size="10.00" fill="#63b8ff">3</text>
</a>
</g>
</g>
<!-- dir_bdb6f255533d67630a72c5b36fc2157a&#45;&gt;dir_ed435641f8e8047e0f5542c775bc8256 -->
<g id="edge35" class="edge">
<title>dir_bdb6f255533d67630a72c5b36fc2157a&#45;&gt;dir_ed435641f8e8047e0f5542c775bc8256</title>
<g id="a_edge35"><a xlink:href="dir_000059_000033.html" target="_top">
<path fill="none" stroke="#63b8ff" d="M328.13,-225.24C366.64,-220.57 427.59,-209.54 474,-184 515.85,-160.97 545.33,-110.47 558.78,-83.43"/>
<polygon fill="#63b8ff" stroke="#63b8ff" points="561.98,-84.85 563.14,-74.32 555.67,-81.83 561.98,-84.85"/>
</a>
</g>
<g id="a_edge35&#45;headlabel"><a xlink:href="dir_000059_000033.html" target="_top" xlink:title="8">
<text text-anchor="middle" x="562.99" y="-86.82" font-family="Helvetica,sans-Serif" font-size="10.00" fill="#63b8ff">8</text>
</a>
</g>
</g>
<!-- dir_bdb6f255533d67630a72c5b36fc2157a&#45;&gt;dir_82abf9c3cae407e2f368e3cd0d776797 -->
<g id="edge32" class="edge">
<title>dir_bdb6f255533d67630a72c5b36fc2157a&#45;&gt;dir_82abf9c3cae407e2f368e3cd0d776797</title>
<g id="a_edge32"><a xlink:href="dir_000059_000044.html" target="_top">
<path fill="none" stroke="#63b8ff" d="M278.18,-219.84C250.79,-201.36 186.35,-157.86 152.55,-135.05"/>
<polygon fill="#63b8ff" stroke="#63b8ff" points="154.13,-131.89 143.88,-129.2 150.21,-137.69 154.13,-131.89"/>
</a>
</g>
<g id="a_edge32&#45;headlabel"><a xlink:href="dir_000059_000044.html" target="_top" xlink:title="1">
<text text-anchor="middle" x="158.7" y="-129.05" font-family="Helvetica,sans-Serif" font-size="10.00" fill="#63b8ff">1</text>
</a>
</g>
</g>
</g>
</svg>
