<?xml version="1.0" encoding="UTF-8" standalone="no"?>
<!DOCTYPE svg PUBLIC "-//W3C//DTD SVG 1.1//EN"
 "http://www.w3.org/Graphics/SVG/1.1/DTD/svg11.dtd">
<!-- Generated by graphviz version 2.43.0 (0)
 -->
<!-- Title: Graphical Class Hierarchy Pages: 1 -->
<svg width="197pt" height="64pt"
 viewBox="0.00 0.00 197.00 64.00" xmlns="http://www.w3.org/2000/svg" xmlns:xlink="http://www.w3.org/1999/xlink">
<g id="graph0" class="graph" transform="scale(1 1) rotate(0) translate(4 60)">
<title>Graphical Class Hierarchy</title>
<!-- Node0 -->
<g id="Node000000" class="node">
<title>Node0</title>
<g id="a_Node000000"><a xlink:href="classSpecies.html" target="_top" xlink:title="Represents a generic species in the ecosystem.">
<polygon fill="white" stroke="#666666" points="54,-37 0,-37 0,-18 54,-18 54,-37"/>
<text text-anchor="middle" x="27" y="-25" font-family="Helvetica,sans-Serif" font-size="10.00">Species</text>
</a>
</g>
</g>
<!-- Node1 -->
<g id="Node000001" class="node">
<title>Node1</title>
<g id="a_Node000001"><a xlink:href="classAnimalSpecies.html" target="_top" xlink:title="Represents a specific animal species in the ecosystem.">
<polygon fill="white" stroke="#666666" points="184,-56 95,-56 95,-37 184,-37 184,-56"/>
<text text-anchor="middle" x="139.5" y="-44" font-family="Helvetica,sans-Serif" font-size="10.00">AnimalSpecies</text>
</a>
</g>
</g>
<!-- Node0&#45;&gt;Node1 -->
<g id="edge73_Node000000_Node000001" class="edge">
<title>Node0&#45;&gt;Node1</title>
<g id="a_edge73_Node000000_Node000001"><a xlink:title=" ">
<path fill="none" stroke="#63b8ff" d="M64.33,-33.75C74.07,-35.42 84.7,-37.25 94.79,-38.98"/>
<polygon fill="#63b8ff" stroke="#63b8ff" points="64.64,-30.25 54.19,-32 63.45,-37.15 64.64,-30.25"/>
</a>
</g>
</g>
<!-- Node2 -->
<g id="Node000002" class="node">
<title>Node2</title>
<g id="a_Node000002"><a xlink:href="classResourceSpecies.html" target="_top" xlink:title="Represents a species that acts as a resource in the ecosystem.">
<polygon fill="white" stroke="#666666" points="189,-19 90,-19 90,0 189,0 189,-19"/>
<text text-anchor="middle" x="139.5" y="-7" font-family="Helvetica,sans-Serif" font-size="10.00">ResourceSpecies</text>
</a>
</g>
</g>
<!-- Node0&#45;&gt;Node2 -->
<g id="edge74_Node000000_Node000002" class="edge">
<title>Node0&#45;&gt;Node2</title>
<g id="a_edge74_Node000000_Node000002"><a xlink:title=" ">
<path fill="none" stroke="#63b8ff" d="M64.21,-21.6C72.45,-20.26 81.33,-18.81 89.98,-17.4"/>
<polygon fill="#63b8ff" stroke="#63b8ff" points="63.49,-18.17 54.19,-23.23 64.62,-25.08 63.49,-18.17"/>
</a>
</g>
</g>
</g>
</svg>
