<?xml version="1.0" encoding="UTF-8" standalone="no"?>
<!DOCTYPE svg PUBLIC "-//W3C//DTD SVG 1.1//EN"
 "http://www.w3.org/Graphics/SVG/1.1/DTD/svg11.dtd">
<!-- Generated by graphviz version 2.43.0 (0)
 -->
<!-- Title: /home/runner/work/Weaver/Weaver/include/App/Model/Model.h Pages: 1 -->
<svg width="1116pt" height="280pt"
 viewBox="0.00 0.00 1116.28 280.00" xmlns="http://www.w3.org/2000/svg" xmlns:xlink="http://www.w3.org/1999/xlink">
<g id="graph0" class="graph" transform="scale(1 1) rotate(0) translate(4 276)">
<title>/home/runner/work/Weaver/Weaver/include/App/Model/Model.h</title>
<!-- Node1 -->
<g id="Node000001" class="node">
<title>Node1</title>
<g id="a_Node000001"><a xlink:title="Definition of the abstract base class for all simulation models in Weaver.">
<polygon fill="#999999" stroke="#666666" points="427.28,-272 278.28,-272 278.28,-231 427.28,-231 427.28,-272"/>
<text text-anchor="start" x="286.28" y="-260" font-family="Helvetica,sans-Serif" font-size="10.00">/home/runner/work/Weaver</text>
<text text-anchor="start" x="286.28" y="-249" font-family="Helvetica,sans-Serif" font-size="10.00">/Weaver/include/App/Model</text>
<text text-anchor="middle" x="352.78" y="-238" font-family="Helvetica,sans-Serif" font-size="10.00">/Model.h</text>
</a>
</g>
</g>
<!-- Node2 -->
<g id="Node000002" class="node">
<title>Node2</title>
<g id="a_Node000002"><a xlink:title=" ">
<polygon fill="#e0e0e0" stroke="#999999" points="373.78,-19 329.78,-19 329.78,0 373.78,0 373.78,-19"/>
<text text-anchor="middle" x="351.78" y="-7" font-family="Helvetica,sans-Serif" font-size="10.00">string</text>
</a>
</g>
</g>
<!-- Node1&#45;&gt;Node2 -->
<g id="edge1_Node000001_Node000002" class="edge">
<title>Node1&#45;&gt;Node2</title>
<g id="a_edge1_Node000001_Node000002"><a xlink:title=" ">
<path fill="none" stroke="#63b8ff" d="M278.18,-237.72C185.61,-220.12 36.1,-185.39 4.78,-140 -0.02,-133.05 4.4,-129.44 4.78,-121 6.11,-91.58 -9.64,-76.23 10.78,-55 52.77,-11.33 242.51,-8.93 319.33,-9.82"/>
<polygon fill="#63b8ff" stroke="#63b8ff" points="319.35,-13.32 329.4,-9.96 319.45,-6.32 319.35,-13.32"/>
</a>
</g>
</g>
<!-- Node3 -->
<g id="Node000003" class="node">
<title>Node3</title>
<g id="a_Node000003"><a xlink:title=" ">
<polygon fill="#e0e0e0" stroke="#999999" points="281.78,-79.5 213.78,-79.5 213.78,-60.5 281.78,-60.5 281.78,-79.5"/>
<text text-anchor="middle" x="247.78" y="-67.5" font-family="Helvetica,sans-Serif" font-size="10.00">filesystem</text>
</a>
</g>
</g>
<!-- Node1&#45;&gt;Node3 -->
<g id="edge2_Node000001_Node000003" class="edge">
<title>Node1&#45;&gt;Node3</title>
<g id="a_edge2_Node000001_Node000003"><a xlink:title=" ">
<path fill="none" stroke="#63b8ff" d="M313.76,-230.95C281.61,-212.43 238.26,-181.32 218.78,-140 210.43,-122.29 221.96,-101.51 232.86,-87.42"/>
<polygon fill="#63b8ff" stroke="#63b8ff" points="235.67,-89.52 239.38,-79.6 230.29,-85.04 235.67,-89.52"/>
</a>
</g>
</g>
<!-- Node4 -->
<g id="Node000004" class="node">
<title>Node4</title>
<g id="a_Node000004"><a xlink:href="CustomIndexedVector_8h.html" target="_top" xlink:title="Template class providing a vector indexed by a custom type with bounds checking and Boost....">
<polygon fill="white" stroke="#666666" points="171.28,-140 14.28,-140 14.28,-121 171.28,-121 171.28,-140"/>
<text text-anchor="middle" x="92.78" y="-128" font-family="Helvetica,sans-Serif" font-size="10.00">Misc/CustomIndexedVector.h</text>
</a>
</g>
</g>
<!-- Node1&#45;&gt;Node4 -->
<g id="edge3_Node000001_Node000004" class="edge">
<title>Node1&#45;&gt;Node4</title>
<g id="a_edge3_Node000001_Node000004"><a xlink:title=" ">
<path fill="none" stroke="#63b8ff" d="M279.51,-230.99C249.69,-221.81 215.35,-209.65 185.78,-195 158.23,-181.35 129.43,-160.51 111.31,-146.46"/>
<polygon fill="#63b8ff" stroke="#63b8ff" points="113.35,-143.61 103.33,-140.17 109.02,-149.11 113.35,-143.61"/>
</a>
</g>
</g>
<!-- Node7 -->
<g id="Node000007" class="node">
<title>Node7</title>
<g id="a_Node000007"><a xlink:href="View_8h.html" target="_top" xlink:title="Abstract base class for a view in the MVC pattern, handling logging and RunMode titles.">
<polygon fill="white" stroke="#666666" points="581.78,-195 483.78,-195 483.78,-176 581.78,-176 581.78,-195"/>
<text text-anchor="middle" x="532.78" y="-183" font-family="Helvetica,sans-Serif" font-size="10.00">App/View/View.h</text>
</a>
</g>
</g>
<!-- Node1&#45;&gt;Node7 -->
<g id="edge6_Node000001_Node000007" class="edge">
<title>Node1&#45;&gt;Node7</title>
<g id="a_edge6_Node000001_Node000007"><a xlink:title=" ">
<path fill="none" stroke="#63b8ff" d="M407.76,-230.95C437.52,-220.37 473.32,-207.64 498.97,-198.52"/>
<polygon fill="#63b8ff" stroke="#63b8ff" points="500.36,-201.74 508.61,-195.09 498.02,-195.14 500.36,-201.74"/>
</a>
</g>
</g>
<!-- Node14 -->
<g id="Node000014" class="node">
<title>Node14</title>
<g id="a_Node000014"><a xlink:href="RunMode_8h_source.html" target="_top" xlink:title=" ">
<polygon fill="white" stroke="#666666" points="1041.78,-140 921.78,-140 921.78,-121 1041.78,-121 1041.78,-140"/>
<text text-anchor="middle" x="981.78" y="-128" font-family="Helvetica,sans-Serif" font-size="10.00">App/View/RunMode.h</text>
</a>
</g>
</g>
<!-- Node1&#45;&gt;Node14 -->
<g id="edge27_Node000001_Node000014" class="edge">
<title>Node1&#45;&gt;Node14</title>
<g id="a_edge27_Node000001_Node000014"><a xlink:title=" ">
<path fill="none" stroke="#63b8ff" d="M427.4,-236.38C555.34,-212.18 813.65,-163.31 926.7,-141.92"/>
<polygon fill="#63b8ff" stroke="#63b8ff" points="927.36,-145.36 936.53,-140.06 926.05,-138.48 927.36,-145.36"/>
</a>
</g>
</g>
<!-- Node18 -->
<g id="Node000018" class="node">
<title>Node18</title>
<g id="a_Node000018"><a xlink:href="LineInfoException_8h.html" target="_top" xlink:title="Exception class with detailed file and line information for error reporting.">
<polygon fill="white" stroke="#666666" points="1108.28,-79.5 939.28,-79.5 939.28,-60.5 1108.28,-60.5 1108.28,-79.5"/>
<text text-anchor="middle" x="1023.78" y="-67.5" font-family="Helvetica,sans-Serif" font-size="10.00">Exceptions/LineInfoException.h</text>
</a>
</g>
</g>
<!-- Node1&#45;&gt;Node18 -->
<g id="edge28_Node000001_Node000018" class="edge">
<title>Node1&#45;&gt;Node18</title>
<g id="a_edge28_Node000001_Node000018"><a xlink:title=" ">
<path fill="none" stroke="#63b8ff" d="M427.56,-250.35C590.89,-248.26 971.31,-233.27 1050.78,-140 1063.75,-124.78 1051,-102.59 1039,-87.52"/>
<polygon fill="#63b8ff" stroke="#63b8ff" points="1041.37,-84.9 1032.21,-79.57 1036.04,-89.45 1041.37,-84.9"/>
</a>
</g>
</g>
<!-- Node5 -->
<g id="Node000005" class="node">
<title>Node5</title>
<g id="a_Node000005"><a xlink:title=" ">
<polygon fill="#e0e0e0" stroke="#999999" points="192.28,-79.5 145.28,-79.5 145.28,-60.5 192.28,-60.5 192.28,-79.5"/>
<text text-anchor="middle" x="168.78" y="-67.5" font-family="Helvetica,sans-Serif" font-size="10.00">vector</text>
</a>
</g>
</g>
<!-- Node4&#45;&gt;Node5 -->
<g id="edge4_Node000004_Node000005" class="edge">
<title>Node4&#45;&gt;Node5</title>
<g id="a_edge4_Node000004_Node000005"><a xlink:title=" ">
<path fill="none" stroke="#63b8ff" d="M103.99,-120.87C115.89,-111.71 134.92,-97.06 149.28,-86.01"/>
<polygon fill="#63b8ff" stroke="#63b8ff" points="151.73,-88.54 157.52,-79.67 147.46,-82.99 151.73,-88.54"/>
</a>
</g>
</g>
<!-- Node6 -->
<g id="Node000006" class="node">
<title>Node6</title>
<g id="a_Node000006"><a xlink:title=" ">
<polygon fill="#e0e0e0" stroke="#999999" points="127.28,-85 20.28,-85 20.28,-55 127.28,-55 127.28,-85"/>
<text text-anchor="start" x="28.28" y="-73" font-family="Helvetica,sans-Serif" font-size="10.00">boost/serialization</text>
<text text-anchor="middle" x="73.78" y="-62" font-family="Helvetica,sans-Serif" font-size="10.00">/vector.hpp</text>
</a>
</g>
</g>
<!-- Node4&#45;&gt;Node6 -->
<g id="edge5_Node000004_Node000006" class="edge">
<title>Node4&#45;&gt;Node6</title>
<g id="a_edge5_Node000004_Node000006"><a xlink:title=" ">
<path fill="none" stroke="#63b8ff" d="M89.97,-120.87C87.73,-113.96 84.47,-103.93 81.47,-94.67"/>
<polygon fill="#63b8ff" stroke="#63b8ff" points="84.78,-93.54 78.36,-85.11 78.12,-95.71 84.78,-93.54"/>
</a>
</g>
</g>
<!-- Node7&#45;&gt;Node2 -->
<g id="edge7_Node000007_Node000002" class="edge">
<title>Node7&#45;&gt;Node2</title>
<g id="a_edge7_Node000007_Node000002"><a xlink:title=" ">
<path fill="none" stroke="#63b8ff" d="M483.61,-184.34C447.34,-181.45 399.63,-171.3 371.78,-140 344.26,-109.08 345.76,-56.7 348.92,-28.98"/>
<polygon fill="#63b8ff" stroke="#63b8ff" points="352.39,-29.43 350.26,-19.05 345.46,-28.5 352.39,-29.43"/>
</a>
</g>
</g>
<!-- Node7&#45;&gt;Node4 -->
<g id="edge23_Node000007_Node000004" class="edge">
<title>Node7&#45;&gt;Node4</title>
<g id="a_edge23_Node000007_Node000004"><a xlink:title=" ">
<path fill="none" stroke="#63b8ff" d="M483.59,-178.57C408.37,-169.51 263.97,-152.12 173.32,-141.2"/>
<polygon fill="#63b8ff" stroke="#63b8ff" points="173.71,-137.72 163.36,-140 172.87,-144.67 173.71,-137.72"/>
</a>
</g>
</g>
<!-- Node8 -->
<g id="Node000008" class="node">
<title>Node8</title>
<g id="a_Node000008"><a xlink:title=" ">
<polygon fill="#e0e0e0" stroke="#999999" points="463.28,-140 380.28,-140 380.28,-121 463.28,-121 463.28,-140"/>
<text text-anchor="middle" x="421.78" y="-128" font-family="Helvetica,sans-Serif" font-size="10.00">initializer_list</text>
</a>
</g>
</g>
<!-- Node7&#45;&gt;Node8 -->
<g id="edge8_Node000007_Node000008" class="edge">
<title>Node7&#45;&gt;Node8</title>
<g id="a_edge8_Node000007_Node000008"><a xlink:title=" ">
<path fill="none" stroke="#63b8ff" d="M514.94,-175.98C497.17,-167.5 469.63,-154.35 449.1,-144.54"/>
<polygon fill="#63b8ff" stroke="#63b8ff" points="450.47,-141.32 439.94,-140.17 447.45,-147.64 450.47,-141.32"/>
</a>
</g>
</g>
<!-- Node9 -->
<g id="Node000009" class="node">
<title>Node9</title>
<g id="a_Node000009"><a xlink:title=" ">
<polygon fill="#e0e0e0" stroke="#999999" points="531.78,-140 481.78,-140 481.78,-121 531.78,-121 531.78,-140"/>
<text text-anchor="middle" x="506.78" y="-128" font-family="Helvetica,sans-Serif" font-size="10.00">chrono</text>
</a>
</g>
</g>
<!-- Node7&#45;&gt;Node9 -->
<g id="edge9_Node000007_Node000009" class="edge">
<title>Node7&#45;&gt;Node9</title>
<g id="a_edge9_Node000007_Node000009"><a xlink:title=" ">
<path fill="none" stroke="#63b8ff" d="M528.48,-175.75C524.96,-168.57 519.87,-158.18 515.49,-149.27"/>
<polygon fill="#63b8ff" stroke="#63b8ff" points="518.54,-147.53 510.99,-140.09 512.25,-150.61 518.54,-147.53"/>
</a>
</g>
</g>
<!-- Node10 -->
<g id="Node000010" class="node">
<title>Node10</title>
<g id="a_Node000010"><a xlink:title=" ">
<polygon fill="#e0e0e0" stroke="#999999" points="643.28,-140 588.28,-140 588.28,-121 643.28,-121 643.28,-140"/>
<text text-anchor="middle" x="615.78" y="-128" font-family="Helvetica,sans-Serif" font-size="10.00">fstream</text>
</a>
</g>
</g>
<!-- Node7&#45;&gt;Node10 -->
<g id="edge10_Node000007_Node000010" class="edge">
<title>Node7&#45;&gt;Node10</title>
<g id="a_edge10_Node000007_Node000010"><a xlink:title=" ">
<path fill="none" stroke="#63b8ff" d="M546.11,-175.98C558.86,-167.84 578.33,-155.41 593.45,-145.76"/>
<polygon fill="#63b8ff" stroke="#63b8ff" points="595.66,-148.5 602.2,-140.17 591.89,-142.6 595.66,-148.5"/>
</a>
</g>
</g>
<!-- Node11 -->
<g id="Node000011" class="node">
<title>Node11</title>
<g id="a_Node000011"><a xlink:title=" ">
<polygon fill="#e0e0e0" stroke="#999999" points="587.78,-79.5 531.78,-79.5 531.78,-60.5 587.78,-60.5 587.78,-79.5"/>
<text text-anchor="middle" x="559.78" y="-67.5" font-family="Helvetica,sans-Serif" font-size="10.00">sstream</text>
</a>
</g>
</g>
<!-- Node7&#45;&gt;Node11 -->
<g id="edge11_Node000007_Node000011" class="edge">
<title>Node7&#45;&gt;Node11</title>
<g id="a_edge11_Node000007_Node000011"><a xlink:title=" ">
<path fill="none" stroke="#63b8ff" d="M534.81,-175.97C539.15,-157.73 549.41,-114.57 555.34,-89.64"/>
<polygon fill="#63b8ff" stroke="#63b8ff" points="558.82,-90.17 557.73,-79.63 552.01,-88.55 558.82,-90.17"/>
</a>
</g>
</g>
<!-- Node12 -->
<g id="Node000012" class="node">
<title>Node12</title>
<g id="a_Node000012"><a xlink:title=" ">
<polygon fill="#e0e0e0" stroke="#999999" points="717.78,-140 661.78,-140 661.78,-121 717.78,-121 717.78,-140"/>
<text text-anchor="middle" x="689.78" y="-128" font-family="Helvetica,sans-Serif" font-size="10.00">iomanip</text>
</a>
</g>
</g>
<!-- Node7&#45;&gt;Node12 -->
<g id="edge12_Node000007_Node000012" class="edge">
<title>Node7&#45;&gt;Node12</title>
<g id="a_edge12_Node000007_Node000012"><a xlink:title=" ">
<path fill="none" stroke="#63b8ff" d="M558,-175.98C584.13,-167.16 625.18,-153.31 654.51,-143.41"/>
<polygon fill="#63b8ff" stroke="#63b8ff" points="656,-146.6 664.36,-140.08 653.76,-139.96 656,-146.6"/>
</a>
</g>
</g>
<!-- Node13 -->
<g id="Node000013" class="node">
<title>Node13</title>
<g id="a_Node000013"><a xlink:title=" ">
<polygon fill="#e0e0e0" stroke="#999999" points="779.78,-140 735.78,-140 735.78,-121 779.78,-121 779.78,-140"/>
<text text-anchor="middle" x="757.78" y="-128" font-family="Helvetica,sans-Serif" font-size="10.00">ctime</text>
</a>
</g>
</g>
<!-- Node7&#45;&gt;Node13 -->
<g id="edge13_Node000007_Node000013" class="edge">
<title>Node7&#45;&gt;Node13</title>
<g id="a_edge13_Node000007_Node000013"><a xlink:title=" ">
<path fill="none" stroke="#63b8ff" d="M572.28,-175.95C609.49,-167.78 667.03,-154.86 725.66,-140.2"/>
<polygon fill="#63b8ff" stroke="#63b8ff" points="726.61,-143.57 735.46,-137.74 724.91,-136.79 726.61,-143.57"/>
</a>
</g>
</g>
<!-- Node7&#45;&gt;Node14 -->
<g id="edge14_Node000007_Node000014" class="edge">
<title>Node7&#45;&gt;Node14</title>
<g id="a_edge14_Node000007_Node000014"><a xlink:title=" ">
<path fill="none" stroke="#63b8ff" d="M581.98,-178.83C652.52,-170.69 786.75,-155.11 911.46,-140.15"/>
<polygon fill="#63b8ff" stroke="#63b8ff" points="912.06,-143.61 921.57,-138.94 911.22,-136.66 912.06,-143.61"/>
</a>
</g>
</g>
<!-- Node15 -->
<g id="Node000015" class="node">
<title>Node15</title>
<g id="a_Node000015"><a xlink:href="EnumClass_8h.html" target="_top" xlink:title="Template helper class for working with strongly&#45;typed enums.">
<polygon fill="white" stroke="#666666" points="903.28,-140 798.28,-140 798.28,-121 903.28,-121 903.28,-140"/>
<text text-anchor="middle" x="850.78" y="-128" font-family="Helvetica,sans-Serif" font-size="10.00">Misc/EnumClass.h</text>
</a>
</g>
</g>
<!-- Node7&#45;&gt;Node15 -->
<g id="edge15_Node000007_Node000015" class="edge">
<title>Node7&#45;&gt;Node15</title>
<g id="a_edge15_Node000007_Node000015"><a xlink:title=" ">
<path fill="none" stroke="#63b8ff" d="M582.12,-176.28C638.02,-166.96 729.19,-151.76 789.58,-141.7"/>
<polygon fill="#63b8ff" stroke="#63b8ff" points="790.45,-145.1 799.74,-140.01 789.3,-138.2 790.45,-145.1"/>
</a>
</g>
</g>
<!-- Node20 -->
<g id="Node000020" class="node">
<title>Node20</title>
<g id="a_Node000020"><a xlink:href="PathUtils_8h.html" target="_top" xlink:title="Utility functions for handling filesystem paths.">
<polygon fill="white" stroke="#666666" points="323.28,-140 228.28,-140 228.28,-121 323.28,-121 323.28,-140"/>
<text text-anchor="middle" x="275.78" y="-128" font-family="Helvetica,sans-Serif" font-size="10.00">Misc/PathUtils.h</text>
</a>
</g>
</g>
<!-- Node7&#45;&gt;Node20 -->
<g id="edge24_Node000007_Node000020" class="edge">
<title>Node7&#45;&gt;Node20</title>
<g id="a_edge24_Node000007_Node000020"><a xlink:title=" ">
<path fill="none" stroke="#63b8ff" d="M491.49,-175.98C446.84,-166.78 375.62,-152.09 327.33,-142.13"/>
<polygon fill="#63b8ff" stroke="#63b8ff" points="327.89,-138.67 317.39,-140.08 326.48,-145.53 327.89,-138.67"/>
</a>
</g>
</g>
<!-- Node15&#45;&gt;Node2 -->
<g id="edge17_Node000015_Node000002" class="edge">
<title>Node15&#45;&gt;Node2</title>
<g id="a_edge17_Node000015_Node000002"><a xlink:title=" ">
<path fill="none" stroke="#63b8ff" d="M798.17,-121.52C743.88,-112.79 663.24,-98.25 634.78,-85 615.27,-75.92 616.39,-63.85 596.78,-55 525.34,-22.76 432.22,-13.86 383.95,-11.42"/>
<polygon fill="#63b8ff" stroke="#63b8ff" points="383.94,-7.92 373.79,-10.97 383.63,-14.91 383.94,-7.92"/>
</a>
</g>
</g>
<!-- Node15&#45;&gt;Node11 -->
<g id="edge16_Node000015_Node000011" class="edge">
<title>Node15&#45;&gt;Node11</title>
<g id="a_edge16_Node000015_Node000011"><a xlink:title=" ">
<path fill="none" stroke="#63b8ff" d="M797.84,-122.31C747.11,-114.89 668.59,-102.01 601.78,-85 598.98,-84.29 596.11,-83.49 593.23,-82.63"/>
<polygon fill="#63b8ff" stroke="#63b8ff" points="594.18,-79.26 583.59,-79.6 592.08,-85.94 594.18,-79.26"/>
</a>
</g>
</g>
<!-- Node16 -->
<g id="Node000016" class="node">
<title>Node16</title>
<g id="a_Node000016"><a xlink:title=" ">
<polygon fill="#e0e0e0" stroke="#999999" points="921.28,-79.5 828.28,-79.5 828.28,-60.5 921.28,-60.5 921.28,-79.5"/>
<text text-anchor="middle" x="874.78" y="-67.5" font-family="Helvetica,sans-Serif" font-size="10.00">unordered_map</text>
</a>
</g>
</g>
<!-- Node15&#45;&gt;Node16 -->
<g id="edge18_Node000015_Node000016" class="edge">
<title>Node15&#45;&gt;Node16</title>
<g id="a_edge18_Node000015_Node000016"><a xlink:title=" ">
<path fill="none" stroke="#63b8ff" d="M854.32,-120.87C857.72,-112.57 862.97,-99.78 867.3,-89.22"/>
<polygon fill="#63b8ff" stroke="#63b8ff" points="870.66,-90.25 871.22,-79.67 864.19,-87.59 870.66,-90.25"/>
</a>
</g>
</g>
<!-- Node17 -->
<g id="Node000017" class="node">
<title>Node17</title>
<g id="a_Node000017"><a xlink:title=" ">
<polygon fill="#e0e0e0" stroke="#999999" points="810.28,-79.5 643.28,-79.5 643.28,-60.5 810.28,-60.5 810.28,-79.5"/>
<text text-anchor="middle" x="726.78" y="-67.5" font-family="Helvetica,sans-Serif" font-size="10.00">magic_enum/magic_enum.hpp</text>
</a>
</g>
</g>
<!-- Node15&#45;&gt;Node17 -->
<g id="edge19_Node000015_Node000017" class="edge">
<title>Node15&#45;&gt;Node17</title>
<g id="a_edge19_Node000015_Node000017"><a xlink:title=" ">
<path fill="none" stroke="#63b8ff" d="M832.75,-120.99C812.08,-111.25 778,-95.16 754.08,-83.88"/>
<polygon fill="#63b8ff" stroke="#63b8ff" points="755.37,-80.62 744.83,-79.52 752.38,-86.95 755.37,-80.62"/>
</a>
</g>
</g>
<!-- Node15&#45;&gt;Node18 -->
<g id="edge20_Node000015_Node000018" class="edge">
<title>Node15&#45;&gt;Node18</title>
<g id="a_edge20_Node000015_Node000018"><a xlink:title=" ">
<path fill="none" stroke="#63b8ff" d="M875.93,-120.99C905.66,-110.94 955.29,-94.16 988.76,-82.84"/>
<polygon fill="#63b8ff" stroke="#63b8ff" points="990.24,-86.04 998.59,-79.52 988,-79.4 990.24,-86.04"/>
</a>
</g>
</g>
<!-- Node18&#45;&gt;Node2 -->
<g id="edge22_Node000018_Node000002" class="edge">
<title>Node18&#45;&gt;Node2</title>
<g id="a_edge22_Node000018_Node000002"><a xlink:title=" ">
<path fill="none" stroke="#63b8ff" d="M971.73,-60.48C958.4,-58.49 944.08,-56.51 930.78,-55 723.07,-31.42 471.98,-16.84 384.06,-12.16"/>
<polygon fill="#63b8ff" stroke="#63b8ff" points="384.09,-8.65 373.92,-11.62 383.72,-15.64 384.09,-8.65"/>
</a>
</g>
</g>
<!-- Node19 -->
<g id="Node000019" class="node">
<title>Node19</title>
<g id="a_Node000019"><a xlink:title=" ">
<polygon fill="#e0e0e0" stroke="#999999" points="1056.28,-19 991.28,-19 991.28,0 1056.28,0 1056.28,-19"/>
<text text-anchor="middle" x="1023.78" y="-7" font-family="Helvetica,sans-Serif" font-size="10.00">exception</text>
</a>
</g>
</g>
<!-- Node18&#45;&gt;Node19 -->
<g id="edge21_Node000018_Node000019" class="edge">
<title>Node18&#45;&gt;Node19</title>
<g id="a_edge21_Node000018_Node000019"><a xlink:title=" ">
<path fill="none" stroke="#63b8ff" d="M1023.78,-60.37C1023.78,-52.25 1023.78,-39.81 1023.78,-29.39"/>
<polygon fill="#63b8ff" stroke="#63b8ff" points="1027.28,-29.17 1023.78,-19.17 1020.28,-29.17 1027.28,-29.17"/>
</a>
</g>
</g>
<!-- Node20&#45;&gt;Node2 -->
<g id="edge26_Node000020_Node000002" class="edge">
<title>Node20&#45;&gt;Node2</title>
<g id="a_edge26_Node000020_Node000002"><a xlink:title=" ">
<path fill="none" stroke="#63b8ff" d="M281.24,-120.94C293.67,-101.48 324.25,-53.6 340.77,-27.74"/>
<polygon fill="#63b8ff" stroke="#63b8ff" points="343.72,-29.61 346.16,-19.3 337.82,-25.85 343.72,-29.61"/>
</a>
</g>
</g>
<!-- Node20&#45;&gt;Node3 -->
<g id="edge25_Node000020_Node000003" class="edge">
<title>Node20&#45;&gt;Node3</title>
<g id="a_edge25_Node000020_Node000003"><a xlink:title=" ">
<path fill="none" stroke="#63b8ff" d="M271.65,-120.87C267.63,-112.49 261.42,-99.51 256.34,-88.89"/>
<polygon fill="#63b8ff" stroke="#63b8ff" points="259.4,-87.18 251.93,-79.67 253.09,-90.2 259.4,-87.18"/>
</a>
</g>
</g>
</g>
</svg>
