<?xml version="1.0" encoding="UTF-8" standalone="no"?>
<!DOCTYPE svg PUBLIC "-//W3C//DTD SVG 1.1//EN"
 "http://www.w3.org/Graphics/SVG/1.1/DTD/svg11.dtd">
<!-- Generated by graphviz version 2.43.0 (0)
 -->
<!-- Title: /home/runner/work/Weaver/Weaver/include/App/Model/IBM/Landscape/Map/Points/PointContinuous.h Pages: 1 -->
<svg width="1432pt" height="192pt"
 viewBox="0.00 0.00 1431.50 192.00" xmlns="http://www.w3.org/2000/svg" xmlns:xlink="http://www.w3.org/1999/xlink">
<g id="graph0" class="graph" transform="scale(1 1) rotate(0) translate(4 188)">
<title>/home/runner/work/Weaver/Weaver/include/App/Model/IBM/Landscape/Map/Points/PointContinuous.h</title>
<!-- Node1 -->
<g id="Node000001" class="node">
<title>Node1</title>
<g id="a_Node000001"><a xlink:title="Defines the PointContinuous type and utility functions for 3D continuous points.">
<polygon fill="#999999" stroke="#666666" points="712.5,-184 562.5,-184 562.5,-132 712.5,-132 712.5,-184"/>
<text text-anchor="start" x="570.5" y="-172" font-family="Helvetica,sans-Serif" font-size="10.00">/home/runner/work/Weaver</text>
<text text-anchor="start" x="570.5" y="-161" font-family="Helvetica,sans-Serif" font-size="10.00">/Weaver/include/App/Model</text>
<text text-anchor="start" x="570.5" y="-150" font-family="Helvetica,sans-Serif" font-size="10.00">/IBM/Landscape/Map/Points</text>
<text text-anchor="middle" x="637.5" y="-139" font-family="Helvetica,sans-Serif" font-size="10.00">/PointContinuous.h</text>
</a>
</g>
</g>
<!-- Node2 -->
<g id="Node000002" class="node">
<title>Node2</title>
<g id="a_Node000002"><a xlink:title=" ">
<polygon fill="#e0e0e0" stroke="#999999" points="47,-90.5 0,-90.5 0,-71.5 47,-71.5 47,-90.5"/>
<text text-anchor="middle" x="23.5" y="-78.5" font-family="Helvetica,sans-Serif" font-size="10.00">vector</text>
</a>
</g>
</g>
<!-- Node1&#45;&gt;Node2 -->
<g id="edge1_Node000001_Node000002" class="edge">
<title>Node1&#45;&gt;Node2</title>
<g id="a_edge1_Node000001_Node000002"><a xlink:title=" ">
<path fill="none" stroke="#63b8ff" d="M562.42,-156.18C450.48,-153.38 233.99,-141.87 56.5,-96 54.56,-95.5 52.58,-94.9 50.61,-94.24"/>
<polygon fill="#63b8ff" stroke="#63b8ff" points="51.56,-90.86 40.97,-90.55 49.06,-97.39 51.56,-90.86"/>
</a>
</g>
</g>
<!-- Node3 -->
<g id="Node000003" class="node">
<title>Node3</title>
<g id="a_Node000003"><a xlink:title=" ">
<polygon fill="#e0e0e0" stroke="#999999" points="217.5,-96 65.5,-96 65.5,-66 217.5,-66 217.5,-96"/>
<text text-anchor="start" x="73.5" y="-84" font-family="Helvetica,sans-Serif" font-size="10.00">boost/geometry/geometries</text>
<text text-anchor="middle" x="141.5" y="-73" font-family="Helvetica,sans-Serif" font-size="10.00">/point.hpp</text>
</a>
</g>
</g>
<!-- Node1&#45;&gt;Node3 -->
<g id="edge2_Node000001_Node000003" class="edge">
<title>Node1&#45;&gt;Node3</title>
<g id="a_edge2_Node000001_Node000003"><a xlink:title=" ">
<path fill="none" stroke="#63b8ff" d="M562.45,-146.23C482.18,-134.62 350.88,-115.4 227.92,-96.21"/>
<polygon fill="#63b8ff" stroke="#63b8ff" points="228.37,-92.74 217.95,-94.65 227.29,-99.65 228.37,-92.74"/>
</a>
</g>
</g>
<!-- Node4 -->
<g id="Node000004" class="node">
<title>Node4</title>
<g id="a_Node000004"><a xlink:title=" ">
<polygon fill="#e0e0e0" stroke="#999999" points="353.5,-96 235.5,-96 235.5,-66 353.5,-66 353.5,-96"/>
<text text-anchor="start" x="243.5" y="-84" font-family="Helvetica,sans-Serif" font-size="10.00">boost/geometry/core</text>
<text text-anchor="middle" x="294.5" y="-73" font-family="Helvetica,sans-Serif" font-size="10.00">/cs.hpp</text>
</a>
</g>
</g>
<!-- Node1&#45;&gt;Node4 -->
<g id="edge3_Node000001_Node000004" class="edge">
<title>Node1&#45;&gt;Node4</title>
<g id="a_edge3_Node000001_Node000004"><a xlink:title=" ">
<path fill="none" stroke="#63b8ff" d="M562.23,-140.54C503.07,-127.61 421.32,-109.73 363.77,-97.15"/>
<polygon fill="#63b8ff" stroke="#63b8ff" points="364.19,-93.66 353.67,-94.94 362.7,-100.49 364.19,-93.66"/>
</a>
</g>
</g>
<!-- Node5 -->
<g id="Node000005" class="node">
<title>Node5</title>
<g id="a_Node000005"><a xlink:title=" ">
<polygon fill="#e0e0e0" stroke="#999999" points="479,-96 372,-96 372,-66 479,-66 479,-96"/>
<text text-anchor="start" x="380" y="-84" font-family="Helvetica,sans-Serif" font-size="10.00">boost/serialization</text>
<text text-anchor="middle" x="425.5" y="-73" font-family="Helvetica,sans-Serif" font-size="10.00">/vector.hpp</text>
</a>
</g>
</g>
<!-- Node1&#45;&gt;Node5 -->
<g id="edge4_Node000001_Node000005" class="edge">
<title>Node1&#45;&gt;Node5</title>
<g id="a_edge4_Node000001_Node000005"><a xlink:title=" ">
<path fill="none" stroke="#63b8ff" d="M566.61,-131.92C536.49,-121.26 502.1,-109.1 474.81,-99.44"/>
<polygon fill="#63b8ff" stroke="#63b8ff" points="475.69,-96.04 465.1,-96.01 473.36,-102.64 475.69,-96.04"/>
</a>
</g>
</g>
<!-- Node6 -->
<g id="Node000006" class="node">
<title>Node6</title>
<g id="a_Node000006"><a xlink:title=" ">
<polygon fill="#e0e0e0" stroke="#999999" points="661,-30 556,-30 556,0 661,0 661,-30"/>
<text text-anchor="start" x="564" y="-18" font-family="Helvetica,sans-Serif" font-size="10.00">boost/archive/text</text>
<text text-anchor="middle" x="608.5" y="-7" font-family="Helvetica,sans-Serif" font-size="10.00">_iarchive.hpp</text>
</a>
</g>
</g>
<!-- Node1&#45;&gt;Node6 -->
<g id="edge5_Node000001_Node000006" class="edge">
<title>Node1&#45;&gt;Node6</title>
<g id="a_edge5_Node000001_Node000006"><a xlink:title=" ">
<path fill="none" stroke="#63b8ff" d="M659.88,-131.86C673.51,-113.35 686.4,-87.73 675.5,-66 669.28,-53.59 658.36,-43.48 647.11,-35.68"/>
<polygon fill="#63b8ff" stroke="#63b8ff" points="648.83,-32.62 638.53,-30.16 645.05,-38.51 648.83,-32.62"/>
</a>
</g>
</g>
<!-- Node7 -->
<g id="Node000007" class="node">
<title>Node7</title>
<g id="a_Node000007"><a xlink:title=" ">
<polygon fill="#e0e0e0" stroke="#999999" points="784,-30 679,-30 679,0 784,0 784,-30"/>
<text text-anchor="start" x="687" y="-18" font-family="Helvetica,sans-Serif" font-size="10.00">boost/archive/text</text>
<text text-anchor="middle" x="731.5" y="-7" font-family="Helvetica,sans-Serif" font-size="10.00">_oarchive.hpp</text>
</a>
</g>
</g>
<!-- Node1&#45;&gt;Node7 -->
<g id="edge6_Node000001_Node000007" class="edge">
<title>Node1&#45;&gt;Node7</title>
<g id="a_edge6_Node000001_Node000007"><a xlink:title=" ">
<path fill="none" stroke="#63b8ff" d="M662.48,-131.81C672.2,-121.25 683.03,-108.54 691.5,-96 703.59,-78.1 714.36,-56.03 721.66,-39.6"/>
<polygon fill="#63b8ff" stroke="#63b8ff" points="724.97,-40.76 725.75,-30.2 718.55,-37.98 724.97,-40.76"/>
</a>
</g>
</g>
<!-- Node8 -->
<g id="Node000008" class="node">
<title>Node8</title>
<g id="a_Node000008"><a xlink:title=" ">
<polygon fill="#e0e0e0" stroke="#999999" points="918.5,-30 802.5,-30 802.5,0 918.5,0 918.5,-30"/>
<text text-anchor="start" x="810.5" y="-18" font-family="Helvetica,sans-Serif" font-size="10.00">boost/archive/binary</text>
<text text-anchor="middle" x="860.5" y="-7" font-family="Helvetica,sans-Serif" font-size="10.00">_iarchive.hpp</text>
</a>
</g>
</g>
<!-- Node1&#45;&gt;Node8 -->
<g id="edge7_Node000001_Node000008" class="edge">
<title>Node1&#45;&gt;Node8</title>
<g id="a_edge7_Node000001_Node000008"><a xlink:title=" ">
<path fill="none" stroke="#63b8ff" d="M677.11,-131.95C720.75,-104.36 789.99,-60.59 829.73,-35.46"/>
<polygon fill="#63b8ff" stroke="#63b8ff" points="831.64,-38.39 838.22,-30.09 827.89,-32.48 831.64,-38.39"/>
</a>
</g>
</g>
<!-- Node9 -->
<g id="Node000009" class="node">
<title>Node9</title>
<g id="a_Node000009"><a xlink:title=" ">
<polygon fill="#e0e0e0" stroke="#999999" points="1052.5,-30 936.5,-30 936.5,0 1052.5,0 1052.5,-30"/>
<text text-anchor="start" x="944.5" y="-18" font-family="Helvetica,sans-Serif" font-size="10.00">boost/archive/binary</text>
<text text-anchor="middle" x="994.5" y="-7" font-family="Helvetica,sans-Serif" font-size="10.00">_oarchive.hpp</text>
</a>
</g>
</g>
<!-- Node1&#45;&gt;Node9 -->
<g id="edge8_Node000001_Node000009" class="edge">
<title>Node1&#45;&gt;Node9</title>
<g id="a_edge8_Node000001_Node000009"><a xlink:title=" ">
<path fill="none" stroke="#63b8ff" d="M700.91,-131.95C772.23,-103.79 886.29,-58.74 949.19,-33.9"/>
<polygon fill="#63b8ff" stroke="#63b8ff" points="950.81,-37.02 958.83,-30.09 948.24,-30.51 950.81,-37.02"/>
</a>
</g>
</g>
<!-- Node10 -->
<g id="Node000010" class="node">
<title>Node10</title>
<g id="a_Node000010"><a xlink:href="LineInfoException_8h.html" target="_top" xlink:title="Exception class with detailed file and line information for error reporting.">
<polygon fill="white" stroke="#666666" points="666,-90.5 497,-90.5 497,-71.5 666,-71.5 666,-90.5"/>
<text text-anchor="middle" x="581.5" y="-78.5" font-family="Helvetica,sans-Serif" font-size="10.00">Exceptions/LineInfoException.h</text>
</a>
</g>
</g>
<!-- Node1&#45;&gt;Node10 -->
<g id="edge9_Node000001_Node000010" class="edge">
<title>Node1&#45;&gt;Node10</title>
<g id="a_edge9_Node000001_Node000010"><a xlink:title=" ">
<path fill="none" stroke="#63b8ff" d="M618.54,-131.61C610.56,-120.92 601.48,-108.75 594.3,-99.15"/>
<polygon fill="#63b8ff" stroke="#63b8ff" points="596.9,-96.77 588.11,-90.85 591.29,-100.96 596.9,-96.77"/>
</a>
</g>
</g>
<!-- Node13 -->
<g id="Node000013" class="node">
<title>Node13</title>
<g id="a_Node000013"><a xlink:href="PreciseDouble_8h.html" target="_top" xlink:title="Defines the PreciseDouble class for safe and precise double&#45;precision arithmetic.">
<polygon fill="white" stroke="#666666" points="1056,-96 933,-96 933,-66 1056,-66 1056,-96"/>
<text text-anchor="start" x="941" y="-84" font-family="Helvetica,sans-Serif" font-size="10.00">App/Model/IBM/Maths</text>
<text text-anchor="middle" x="994.5" y="-73" font-family="Helvetica,sans-Serif" font-size="10.00">/PreciseDouble.h</text>
</a>
</g>
</g>
<!-- Node1&#45;&gt;Node13 -->
<g id="edge12_Node000001_Node000013" class="edge">
<title>Node1&#45;&gt;Node13</title>
<g id="a_edge12_Node000001_Node000013"><a xlink:title=" ">
<path fill="none" stroke="#63b8ff" d="M712.77,-141.19C774.78,-128.16 862.12,-109.81 923.05,-97.01"/>
<polygon fill="#63b8ff" stroke="#63b8ff" points="923.91,-100.41 932.98,-94.92 922.47,-93.56 923.91,-100.41"/>
</a>
</g>
</g>
<!-- Node11 -->
<g id="Node000011" class="node">
<title>Node11</title>
<g id="a_Node000011"><a xlink:title=" ">
<polygon fill="#e0e0e0" stroke="#999999" points="475,-24.5 410,-24.5 410,-5.5 475,-5.5 475,-24.5"/>
<text text-anchor="middle" x="442.5" y="-12.5" font-family="Helvetica,sans-Serif" font-size="10.00">exception</text>
</a>
</g>
</g>
<!-- Node10&#45;&gt;Node11 -->
<g id="edge10_Node000010_Node000011" class="edge">
<title>Node10&#45;&gt;Node11</title>
<g id="a_edge10_Node000010_Node000011"><a xlink:title=" ">
<path fill="none" stroke="#63b8ff" d="M562.75,-71.37C539.02,-60.44 497.93,-41.52 470.48,-28.88"/>
<polygon fill="#63b8ff" stroke="#63b8ff" points="471.94,-25.7 461.39,-24.7 469.01,-32.06 471.94,-25.7"/>
</a>
</g>
</g>
<!-- Node12 -->
<g id="Node000012" class="node">
<title>Node12</title>
<g id="a_Node000012"><a xlink:title=" ">
<polygon fill="#e0e0e0" stroke="#999999" points="537.5,-24.5 493.5,-24.5 493.5,-5.5 537.5,-5.5 537.5,-24.5"/>
<text text-anchor="middle" x="515.5" y="-12.5" font-family="Helvetica,sans-Serif" font-size="10.00">string</text>
</a>
</g>
</g>
<!-- Node10&#45;&gt;Node12 -->
<g id="edge11_Node000010_Node000012" class="edge">
<title>Node10&#45;&gt;Node12</title>
<g id="a_edge11_Node000010_Node000012"><a xlink:title=" ">
<path fill="none" stroke="#63b8ff" d="M572.6,-71.37C562.23,-61.31 544.87,-44.48 532.01,-32.01"/>
<polygon fill="#63b8ff" stroke="#63b8ff" points="534.3,-29.35 524.68,-24.91 529.43,-34.38 534.3,-29.35"/>
</a>
</g>
</g>
<!-- Node13&#45;&gt;Node6 -->
<g id="edge13_Node000013_Node000006" class="edge">
<title>Node13&#45;&gt;Node6</title>
<g id="a_edge13_Node000013_Node000006"><a xlink:title=" ">
<path fill="none" stroke="#63b8ff" d="M932.77,-71.77C869.59,-63.05 768.36,-48.27 671.21,-30.05"/>
<polygon fill="#63b8ff" stroke="#63b8ff" points="671.69,-26.58 661.21,-28.16 670.39,-33.46 671.69,-26.58"/>
</a>
</g>
</g>
<!-- Node13&#45;&gt;Node7 -->
<g id="edge14_Node000013_Node000007" class="edge">
<title>Node13&#45;&gt;Node7</title>
<g id="a_edge14_Node000013_Node000007"><a xlink:title=" ">
<path fill="none" stroke="#63b8ff" d="M936.78,-65.95C894.56,-55.68 837.33,-41.75 794.02,-31.21"/>
<polygon fill="#63b8ff" stroke="#63b8ff" points="794.71,-27.78 784.17,-28.82 793.06,-34.58 794.71,-27.78"/>
</a>
</g>
</g>
<!-- Node13&#45;&gt;Node8 -->
<g id="edge15_Node000013_Node000008" class="edge">
<title>Node13&#45;&gt;Node8</title>
<g id="a_edge15_Node000013_Node000008"><a xlink:title=" ">
<path fill="none" stroke="#63b8ff" d="M965.09,-65.95C945.72,-56.7 920.14,-44.49 899.13,-34.45"/>
<polygon fill="#63b8ff" stroke="#63b8ff" points="900.37,-31.16 889.84,-30.01 897.35,-37.48 900.37,-31.16"/>
</a>
</g>
</g>
<!-- Node13&#45;&gt;Node9 -->
<g id="edge16_Node000013_Node000009" class="edge">
<title>Node13&#45;&gt;Node9</title>
<g id="a_edge16_Node000013_Node000009"><a xlink:title=" ">
<path fill="none" stroke="#63b8ff" d="M994.5,-65.8C994.5,-58.34 994.5,-48.99 994.5,-40.41"/>
<polygon fill="#63b8ff" stroke="#63b8ff" points="998,-40.16 994.5,-30.16 991,-40.16 998,-40.16"/>
</a>
</g>
</g>
<!-- Node13&#45;&gt;Node12 -->
<g id="edge17_Node000013_Node000012" class="edge">
<title>Node13&#45;&gt;Node12</title>
<g id="a_edge17_Node000013_Node000012"><a xlink:title=" ">
<path fill="none" stroke="#63b8ff" d="M932.69,-78.93C845.42,-76.1 681.76,-65.99 547.5,-30 545.61,-29.49 543.69,-28.89 541.78,-28.23"/>
<polygon fill="#63b8ff" stroke="#63b8ff" points="543.02,-24.96 532.43,-24.54 540.44,-31.47 543.02,-24.96"/>
</a>
</g>
</g>
<!-- Node14 -->
<g id="Node000014" class="node">
<title>Node14</title>
<g id="a_Node000014"><a xlink:title=" ">
<polygon fill="#e0e0e0" stroke="#999999" points="1263,-24.5 1216,-24.5 1216,-5.5 1263,-5.5 1263,-24.5"/>
<text text-anchor="middle" x="1239.5" y="-12.5" font-family="Helvetica,sans-Serif" font-size="10.00">cmath</text>
</a>
</g>
</g>
<!-- Node13&#45;&gt;Node14 -->
<g id="edge18_Node000013_Node000014" class="edge">
<title>Node13&#45;&gt;Node14</title>
<g id="a_edge18_Node000013_Node000014"><a xlink:title=" ">
<path fill="none" stroke="#63b8ff" d="M1056.38,-68.58C1099.34,-59.89 1157.59,-46.62 1207.5,-30 1208.94,-29.52 1210.4,-29 1211.87,-28.46"/>
<polygon fill="#63b8ff" stroke="#63b8ff" points="1213.49,-31.57 1221.45,-24.58 1210.87,-25.09 1213.49,-31.57"/>
</a>
</g>
</g>
<!-- Node15 -->
<g id="Node000015" class="node">
<title>Node15</title>
<g id="a_Node000015"><a xlink:title=" ">
<polygon fill="#e0e0e0" stroke="#999999" points="1345.5,-24.5 1281.5,-24.5 1281.5,-5.5 1345.5,-5.5 1345.5,-24.5"/>
<text text-anchor="middle" x="1313.5" y="-12.5" font-family="Helvetica,sans-Serif" font-size="10.00">algorithm</text>
</a>
</g>
</g>
<!-- Node13&#45;&gt;Node15 -->
<g id="edge19_Node000013_Node000015" class="edge">
<title>Node13&#45;&gt;Node15</title>
<g id="a_edge19_Node000013_Node000015"><a xlink:title=" ">
<path fill="none" stroke="#63b8ff" d="M1056.09,-71.65C1112.81,-63.33 1199.04,-49.03 1272.5,-30 1275.14,-29.32 1277.85,-28.55 1280.57,-27.73"/>
<polygon fill="#63b8ff" stroke="#63b8ff" points="1281.82,-31 1290.27,-24.61 1279.68,-24.34 1281.82,-31"/>
</a>
</g>
</g>
<!-- Node16 -->
<g id="Node000016" class="node">
<title>Node16</title>
<g id="a_Node000016"><a xlink:title=" ">
<polygon fill="#e0e0e0" stroke="#999999" points="1423.5,-24.5 1363.5,-24.5 1363.5,-5.5 1423.5,-5.5 1423.5,-24.5"/>
<text text-anchor="middle" x="1393.5" y="-12.5" font-family="Helvetica,sans-Serif" font-size="10.00">iostream</text>
</a>
</g>
</g>
<!-- Node13&#45;&gt;Node16 -->
<g id="edge20_Node000013_Node000016" class="edge">
<title>Node13&#45;&gt;Node16</title>
<g id="a_edge20_Node000013_Node000016"><a xlink:title=" ">
<path fill="none" stroke="#63b8ff" d="M1056.06,-75.35C1128.33,-68.99 1251.41,-55.37 1354.5,-30 1357.16,-29.35 1359.89,-28.58 1362.61,-27.74"/>
<polygon fill="#63b8ff" stroke="#63b8ff" points="1363.91,-31 1372.29,-24.51 1361.69,-24.36 1363.91,-31"/>
</a>
</g>
</g>
<!-- Node17 -->
<g id="Node000017" class="node">
<title>Node17</title>
<g id="a_Node000017"><a xlink:title=" ">
<polygon fill="#e0e0e0" stroke="#999999" points="1114.5,-24.5 1070.5,-24.5 1070.5,-5.5 1114.5,-5.5 1114.5,-24.5"/>
<text text-anchor="middle" x="1092.5" y="-12.5" font-family="Helvetica,sans-Serif" font-size="10.00">limits</text>
</a>
</g>
</g>
<!-- Node13&#45;&gt;Node17 -->
<g id="edge21_Node000013_Node000017" class="edge">
<title>Node13&#45;&gt;Node17</title>
<g id="a_edge21_Node000013_Node000017"><a xlink:title=" ">
<path fill="none" stroke="#63b8ff" d="M1016.25,-65.8C1032.37,-55.27 1054.26,-40.97 1070.45,-30.4"/>
<polygon fill="#63b8ff" stroke="#63b8ff" points="1072.78,-33.06 1079.24,-24.66 1068.96,-27.2 1072.78,-33.06"/>
</a>
</g>
</g>
<!-- Node18 -->
<g id="Node000018" class="node">
<title>Node18</title>
<g id="a_Node000018"><a xlink:title=" ">
<polygon fill="#e0e0e0" stroke="#999999" points="1198,-24.5 1133,-24.5 1133,-5.5 1198,-5.5 1198,-24.5"/>
<text text-anchor="middle" x="1165.5" y="-12.5" font-family="Helvetica,sans-Serif" font-size="10.00">functional</text>
</a>
</g>
</g>
<!-- Node13&#45;&gt;Node18 -->
<g id="edge22_Node000013_Node000018" class="edge">
<title>Node13&#45;&gt;Node18</title>
<g id="a_edge22_Node000013_Node000018"><a xlink:title=" ">
<path fill="none" stroke="#63b8ff" d="M1032.03,-65.95C1062.28,-54.63 1104.38,-38.88 1133.16,-28.1"/>
<polygon fill="#63b8ff" stroke="#63b8ff" points="1134.6,-31.3 1142.74,-24.52 1132.15,-24.74 1134.6,-31.3"/>
</a>
</g>
</g>
</g>
</svg>
