<?xml version="1.0" encoding="UTF-8" standalone="no"?>
<!DOCTYPE svg PUBLIC "-//W3C//DTD SVG 1.1//EN"
 "http://www.w3.org/Graphics/SVG/1.1/DTD/svg11.dtd">
<!-- Generated by graphviz version 2.43.0 (0)
 -->
<!-- Title: /home/runner/work/Weaver/Weaver/include/App/Model/IBM/Landscape/Map/SpatialTree/TerrainCells/SpatialTreeTerrainCell.h Pages: 1 -->
<svg width="821pt" height="555pt"
 viewBox="0.00 0.00 820.50 555.00" xmlns="http://www.w3.org/2000/svg" xmlns:xlink="http://www.w3.org/1999/xlink">
<g id="graph0" class="graph" transform="scale(1 1) rotate(0) translate(4 551)">
<title>/home/runner/work/Weaver/Weaver/include/App/Model/IBM/Landscape/Map/SpatialTree/TerrainCells/SpatialTreeTerrainCell.h</title>
<!-- Node1 -->
<g id="Node000001" class="node">
<title>Node1</title>
<g id="a_Node000001"><a xlink:title="Spatial tree implementation of a terrain cell.">
<polygon fill="#999999" stroke="#666666" points="451.5,-547 257.5,-547 257.5,-495 451.5,-495 451.5,-547"/>
<text text-anchor="start" x="265.5" y="-535" font-family="Helvetica,sans-Serif" font-size="10.00">/home/runner/work/Weaver</text>
<text text-anchor="start" x="265.5" y="-524" font-family="Helvetica,sans-Serif" font-size="10.00">/Weaver/include/App/Model</text>
<text text-anchor="start" x="265.5" y="-513" font-family="Helvetica,sans-Serif" font-size="10.00">/IBM/Landscape/Map/SpatialTree</text>
<text text-anchor="middle" x="354.5" y="-502" font-family="Helvetica,sans-Serif" font-size="10.00">/TerrainCells/SpatialTreeTerrainCell.h</text>
</a>
</g>
</g>
<!-- Node2 -->
<g id="Node000002" class="node">
<title>Node2</title>
<g id="a_Node000002"><a xlink:href="SpatialTree_8h.html" target="_top" xlink:title="Defines the SpatialTree class, a spatially subdivided map implementation.">
<polygon fill="white" stroke="#666666" points="465,-195 282,-195 282,-154 465,-154 465,-195"/>
<text text-anchor="start" x="290" y="-183" font-family="Helvetica,sans-Serif" font-size="10.00">/home/runner/work/Weaver</text>
<text text-anchor="start" x="290" y="-172" font-family="Helvetica,sans-Serif" font-size="10.00">/Weaver/include/App/Model</text>
<text text-anchor="middle" x="373.5" y="-161" font-family="Helvetica,sans-Serif" font-size="10.00">/IBM/Landscape/Map/SpatialTree.h</text>
</a>
</g>
</g>
<!-- Node1&#45;&gt;Node2 -->
<g id="edge1_Node000001_Node000002" class="edge">
<title>Node1&#45;&gt;Node2</title>
<g id="a_edge1_Node000001_Node000002"><a xlink:title=" ">
<path fill="none" stroke="#63b8ff" d="M344.27,-484.95C329.85,-429.61 308.19,-319.22 335.5,-231 339.57,-217.84 347.97,-205.02 355.83,-195.02"/>
<polygon fill="#63b8ff" stroke="#63b8ff" points="340.97,-486.19 346.95,-494.94 347.74,-484.37 340.97,-486.19"/>
</a>
</g>
</g>
<!-- Node8 -->
<g id="Node000008" class="node">
<title>Node8</title>
<g id="a_Node000008"><a xlink:href="BranchTerrainCell_8h.html" target="_top" xlink:title="Branch node implementation of a spatial tree terrain cell.">
<polygon fill="white" stroke="#666666" points="518.5,-371 344.5,-371 344.5,-319 518.5,-319 518.5,-371"/>
<text text-anchor="start" x="352.5" y="-359" font-family="Helvetica,sans-Serif" font-size="10.00">/home/runner/work/Weaver</text>
<text text-anchor="start" x="352.5" y="-348" font-family="Helvetica,sans-Serif" font-size="10.00">/Weaver/include/App/Model</text>
<text text-anchor="start" x="352.5" y="-337" font-family="Helvetica,sans-Serif" font-size="10.00">/IBM/Landscape/Map/SpatialTree</text>
<text text-anchor="middle" x="431.5" y="-326" font-family="Helvetica,sans-Serif" font-size="10.00">/TerrainCells/BranchTerrainCell.h</text>
</a>
</g>
</g>
<!-- Node1&#45;&gt;Node8 -->
<g id="edge7_Node000001_Node000008" class="edge">
<title>Node1&#45;&gt;Node8</title>
<g id="a_edge7_Node000001_Node000008"><a xlink:title=" ">
<path fill="none" stroke="#63b8ff" d="M355.13,-484.82C356.79,-461.65 361.39,-431.23 373.5,-407 380.16,-393.67 390.72,-381.27 401.02,-371.19"/>
<polygon fill="#63b8ff" stroke="#63b8ff" points="351.63,-484.73 354.56,-494.91 358.62,-485.12 351.63,-484.73"/>
</a>
</g>
</g>
<!-- Node10 -->
<g id="Node000010" class="node">
<title>Node10</title>
<g id="a_Node000010"><a xlink:href="LeafTerrainCell_8h.html" target="_top" xlink:title="Leaf node implementation of a spatial tree terrain cell.">
<polygon fill="white" stroke="#666666" points="556.5,-459 382.5,-459 382.5,-407 556.5,-407 556.5,-459"/>
<text text-anchor="start" x="390.5" y="-447" font-family="Helvetica,sans-Serif" font-size="10.00">/home/runner/work/Weaver</text>
<text text-anchor="start" x="390.5" y="-436" font-family="Helvetica,sans-Serif" font-size="10.00">/Weaver/include/App/Model</text>
<text text-anchor="start" x="390.5" y="-425" font-family="Helvetica,sans-Serif" font-size="10.00">/IBM/Landscape/Map/SpatialTree</text>
<text text-anchor="middle" x="469.5" y="-414" font-family="Helvetica,sans-Serif" font-size="10.00">/TerrainCells/LeafTerrainCell.h</text>
</a>
</g>
</g>
<!-- Node1&#45;&gt;Node10 -->
<g id="edge10_Node000001_Node000010" class="edge">
<title>Node1&#45;&gt;Node10</title>
<g id="a_edge10_Node000001_Node000010"><a xlink:title=" ">
<path fill="none" stroke="#63b8ff" d="M396.37,-488.69C409.3,-479.02 423.37,-468.49 435.69,-459.29"/>
<polygon fill="#63b8ff" stroke="#63b8ff" points="393.98,-486.1 388.07,-494.89 398.18,-491.71 393.98,-486.1"/>
</a>
</g>
</g>
<!-- Node3 -->
<g id="Node000003" class="node">
<title>Node3</title>
<g id="a_Node000003"><a xlink:href="Landscape_8h.html" target="_top" xlink:title="Doxygen&#45;documented declaration of the Landscape class and related serialization helpers.">
<polygon fill="white" stroke="#666666" points="452,-118 295,-118 295,-77 452,-77 452,-118"/>
<text text-anchor="start" x="303" y="-106" font-family="Helvetica,sans-Serif" font-size="10.00">/home/runner/work/Weaver</text>
<text text-anchor="start" x="303" y="-95" font-family="Helvetica,sans-Serif" font-size="10.00">/Weaver/include/App/Model</text>
<text text-anchor="middle" x="373.5" y="-84" font-family="Helvetica,sans-Serif" font-size="10.00">/IBM/Landscape/Landscape.h</text>
</a>
</g>
</g>
<!-- Node2&#45;&gt;Node3 -->
<g id="edge2_Node000002_Node000003" class="edge">
<title>Node2&#45;&gt;Node3</title>
<g id="a_edge2_Node000002_Node000003"><a xlink:title=" ">
<path fill="none" stroke="#63b8ff" d="M373.5,-143.69C373.5,-135.08 373.5,-125.9 373.5,-118.07"/>
<polygon fill="#63b8ff" stroke="#63b8ff" points="370,-143.79 373.5,-153.79 377,-143.79 370,-143.79"/>
</a>
</g>
</g>
<!-- Node4 -->
<g id="Node000004" class="node">
<title>Node4</title>
<g id="a_Node000004"><a xlink:href="IBM_8h.html" target="_top" xlink:title="Definition of the IBM class, representing the core individual&#45;based model of the simulation.">
<polygon fill="white" stroke="#666666" points="149,-41 0,-41 0,0 149,0 149,-41"/>
<text text-anchor="start" x="8" y="-29" font-family="Helvetica,sans-Serif" font-size="10.00">/home/runner/work/Weaver</text>
<text text-anchor="start" x="8" y="-18" font-family="Helvetica,sans-Serif" font-size="10.00">/Weaver/include/App/Model</text>
<text text-anchor="middle" x="74.5" y="-7" font-family="Helvetica,sans-Serif" font-size="10.00">/IBM/IBM.h</text>
</a>
</g>
</g>
<!-- Node3&#45;&gt;Node4 -->
<g id="edge3_Node000003_Node000004" class="edge">
<title>Node3&#45;&gt;Node4</title>
<g id="a_edge3_Node000003_Node000004"><a xlink:title=" ">
<path fill="none" stroke="#63b8ff" d="M286.02,-74.56C242.56,-63.65 190.6,-50.62 149.05,-40.2"/>
<polygon fill="#63b8ff" stroke="#63b8ff" points="285.17,-77.95 295.72,-76.99 286.87,-71.16 285.17,-77.95"/>
</a>
</g>
</g>
<!-- Node5 -->
<g id="Node000005" class="node">
<title>Node5</title>
<g id="a_Node000005"><a xlink:href="AquaticLandscape_8h.html" target="_top" xlink:title="Defines the AquaticLandscape class for aquatic ecosystem simulations.">
<polygon fill="white" stroke="#666666" points="360.5,-41 166.5,-41 166.5,0 360.5,0 360.5,-41"/>
<text text-anchor="start" x="174.5" y="-29" font-family="Helvetica,sans-Serif" font-size="10.00">/home/runner/work/Weaver</text>
<text text-anchor="start" x="174.5" y="-18" font-family="Helvetica,sans-Serif" font-size="10.00">/Weaver/include/App/Model</text>
<text text-anchor="middle" x="263.5" y="-7" font-family="Helvetica,sans-Serif" font-size="10.00">/IBM/Landscape/AquaticLandscape.h</text>
</a>
</g>
</g>
<!-- Node3&#45;&gt;Node5 -->
<g id="edge4_Node000003_Node000005" class="edge">
<title>Node3&#45;&gt;Node5</title>
<g id="a_edge4_Node000003_Node000005"><a xlink:title=" ">
<path fill="none" stroke="#63b8ff" d="M336.24,-71.09C321.9,-61.32 305.78,-50.32 292.35,-41.17"/>
<polygon fill="#63b8ff" stroke="#63b8ff" points="334.65,-74.25 344.89,-76.99 338.6,-68.47 334.65,-74.25"/>
</a>
</g>
</g>
<!-- Node6 -->
<g id="Node000006" class="node">
<title>Node6</title>
<g id="a_Node000006"><a xlink:href="ArthropodsLandscape_8h.html" target="_top" xlink:title="Defines the ArthropodsLandscape class for arthropod&#45;specific ecosystem simulations.">
<polygon fill="white" stroke="#666666" points="588.5,-41 378.5,-41 378.5,0 588.5,0 588.5,-41"/>
<text text-anchor="start" x="386.5" y="-29" font-family="Helvetica,sans-Serif" font-size="10.00">/home/runner/work/Weaver</text>
<text text-anchor="start" x="386.5" y="-18" font-family="Helvetica,sans-Serif" font-size="10.00">/Weaver/include/App/Model</text>
<text text-anchor="middle" x="483.5" y="-7" font-family="Helvetica,sans-Serif" font-size="10.00">/IBM/Landscape/ArthropodsLandscape.h</text>
</a>
</g>
</g>
<!-- Node3&#45;&gt;Node6 -->
<g id="edge5_Node000003_Node000006" class="edge">
<title>Node3&#45;&gt;Node6</title>
<g id="a_edge5_Node000003_Node000006"><a xlink:title=" ">
<path fill="none" stroke="#63b8ff" d="M410.76,-71.09C425.1,-61.32 441.22,-50.32 454.65,-41.17"/>
<polygon fill="#63b8ff" stroke="#63b8ff" points="408.4,-68.47 402.11,-76.99 412.35,-74.25 408.4,-68.47"/>
</a>
</g>
</g>
<!-- Node7 -->
<g id="Node000007" class="node">
<title>Node7</title>
<g id="a_Node000007"><a xlink:href="DinosaursLandscape_8h.html" target="_top" xlink:title="Defines the DinosaursLandscape class for dinosaur&#45;specific ecosystem simulations.">
<polygon fill="white" stroke="#666666" points="812.5,-41 606.5,-41 606.5,0 812.5,0 812.5,-41"/>
<text text-anchor="start" x="614.5" y="-29" font-family="Helvetica,sans-Serif" font-size="10.00">/home/runner/work/Weaver</text>
<text text-anchor="start" x="614.5" y="-18" font-family="Helvetica,sans-Serif" font-size="10.00">/Weaver/include/App/Model</text>
<text text-anchor="middle" x="709.5" y="-7" font-family="Helvetica,sans-Serif" font-size="10.00">/IBM/Landscape/DinosaursLandscape.h</text>
</a>
</g>
</g>
<!-- Node3&#45;&gt;Node7 -->
<g id="edge6_Node000003_Node000007" class="edge">
<title>Node3&#45;&gt;Node7</title>
<g id="a_edge6_Node000003_Node000007"><a xlink:title=" ">
<path fill="none" stroke="#63b8ff" d="M462.31,-76.68C511.69,-65.66 572.9,-51.99 622.06,-41.02"/>
<polygon fill="#63b8ff" stroke="#63b8ff" points="461.27,-73.32 452.28,-78.92 462.8,-80.15 461.27,-73.32"/>
</a>
</g>
</g>
<!-- Node9 -->
<g id="Node000009" class="node">
<title>Node9</title>
<g id="a_Node000009"><a xlink:href="RootTerrainCell_8h.html" target="_top" xlink:title="Defines the RootTerrainCell class, the top&#45;level node of the spatial tree in the landscape.">
<polygon fill="white" stroke="#666666" points="518.5,-283 344.5,-283 344.5,-231 518.5,-231 518.5,-283"/>
<text text-anchor="start" x="352.5" y="-271" font-family="Helvetica,sans-Serif" font-size="10.00">/home/runner/work/Weaver</text>
<text text-anchor="start" x="352.5" y="-260" font-family="Helvetica,sans-Serif" font-size="10.00">/Weaver/include/App/Model</text>
<text text-anchor="start" x="352.5" y="-249" font-family="Helvetica,sans-Serif" font-size="10.00">/IBM/Landscape/Map/SpatialTree</text>
<text text-anchor="middle" x="431.5" y="-238" font-family="Helvetica,sans-Serif" font-size="10.00">/TerrainCells/RootTerrainCell.h</text>
</a>
</g>
</g>
<!-- Node8&#45;&gt;Node9 -->
<g id="edge8_Node000008_Node000009" class="edge">
<title>Node8&#45;&gt;Node9</title>
<g id="a_edge8_Node000008_Node000009"><a xlink:title=" ">
<path fill="none" stroke="#63b8ff" d="M431.5,-308.56C431.5,-300.04 431.5,-291.1 431.5,-283.16"/>
<polygon fill="#63b8ff" stroke="#63b8ff" points="428,-308.66 431.5,-318.66 435,-308.66 428,-308.66"/>
</a>
</g>
</g>
<!-- Node9&#45;&gt;Node2 -->
<g id="edge9_Node000009_Node000002" class="edge">
<title>Node9&#45;&gt;Node2</title>
<g id="a_edge9_Node000009_Node000002"><a xlink:title=" ">
<path fill="none" stroke="#63b8ff" d="M407.43,-222.6C400.7,-213.25 393.61,-203.41 387.65,-195.15"/>
<polygon fill="#63b8ff" stroke="#63b8ff" points="404.78,-224.9 413.47,-230.97 410.46,-220.81 404.78,-224.9"/>
</a>
</g>
</g>
<!-- Node10&#45;&gt;Node8 -->
<g id="edge11_Node000010_Node000008" class="edge">
<title>Node10&#45;&gt;Node8</title>
<g id="a_edge11_Node000010_Node000008"><a xlink:title=" ">
<path fill="none" stroke="#63b8ff" d="M454.21,-397.4C450.33,-388.63 446.24,-379.36 442.62,-371.16"/>
<polygon fill="#63b8ff" stroke="#63b8ff" points="451.06,-398.93 458.3,-406.66 457.46,-396.1 451.06,-398.93"/>
</a>
</g>
</g>
</g>
</svg>
