<?xml version="1.0" encoding="UTF-8" standalone="no"?>
<!DOCTYPE svg PUBLIC "-//W3C//DTD SVG 1.1//EN"
 "http://www.w3.org/Graphics/SVG/1.1/DTD/svg11.dtd">
<!-- Generated by graphviz version 2.43.0 (0)
 -->
<!-- Title: /home/runner/work/Weaver/Weaver/include/App/Model/IBM/Landscape/LivingBeings/Animals/Animal.h Pages: 1 -->
<svg width="890pt" height="907pt"
 viewBox="0.00 0.00 889.50 907.00" xmlns="http://www.w3.org/2000/svg" xmlns:xlink="http://www.w3.org/1999/xlink">
<g id="graph0" class="graph" transform="scale(1 1) rotate(0) translate(4 903)">
<title>/home/runner/work/Weaver/Weaver/include/App/Model/IBM/Landscape/LivingBeings/Animals/Animal.h</title>
<!-- Node1 -->
<g id="Node000001" class="node">
<title>Node1</title>
<g id="a_Node000001"><a xlink:title="Defines the Animal class, an abstract class representing animals in the ecosystem.">
<polygon fill="#999999" stroke="#666666" points="725.5,-899 567.5,-899 567.5,-847 725.5,-847 725.5,-899"/>
<text text-anchor="start" x="575.5" y="-887" font-family="Helvetica,sans-Serif" font-size="10.00">/home/runner/work/Weaver</text>
<text text-anchor="start" x="575.5" y="-876" font-family="Helvetica,sans-Serif" font-size="10.00">/Weaver/include/App/Model</text>
<text text-anchor="start" x="575.5" y="-865" font-family="Helvetica,sans-Serif" font-size="10.00">/IBM/Landscape/LivingBeings</text>
<text text-anchor="middle" x="646.5" y="-854" font-family="Helvetica,sans-Serif" font-size="10.00">/Animals/Animal.h</text>
</a>
</g>
</g>
<!-- Node2 -->
<g id="Node000002" class="node">
<title>Node2</title>
<g id="a_Node000002"><a xlink:href="AnimalNonStatistical_8h.html" target="_top" xlink:title="Defines the AnimalNonStatistical class, a non&#45;statistical concrete implementation of Animal.">
<polygon fill="white" stroke="#666666" points="482.5,-811 308.5,-811 308.5,-759 482.5,-759 482.5,-811"/>
<text text-anchor="start" x="316.5" y="-799" font-family="Helvetica,sans-Serif" font-size="10.00">/home/runner/work/Weaver</text>
<text text-anchor="start" x="316.5" y="-788" font-family="Helvetica,sans-Serif" font-size="10.00">/Weaver/include/App/Model</text>
<text text-anchor="start" x="316.5" y="-777" font-family="Helvetica,sans-Serif" font-size="10.00">/IBM/Landscape/LivingBeings</text>
<text text-anchor="middle" x="395.5" y="-766" font-family="Helvetica,sans-Serif" font-size="10.00">/Animals/AnimalNonStatistical.h</text>
</a>
</g>
</g>
<!-- Node1&#45;&gt;Node2 -->
<g id="edge1_Node000001_Node000002" class="edge">
<title>Node1&#45;&gt;Node2</title>
<g id="a_edge1_Node000001_Node000002"><a xlink:title=" ">
<path fill="none" stroke="#63b8ff" d="M563.45,-843.54C532.88,-833.07 498.51,-821.3 468.87,-811.14"/>
<polygon fill="#63b8ff" stroke="#63b8ff" points="562.63,-846.96 573.23,-846.89 564.9,-840.34 562.63,-846.96"/>
</a>
</g>
</g>
<!-- Node11 -->
<g id="Node000011" class="node">
<title>Node11</title>
<g id="a_Node000011"><a xlink:href="TerrainCell_8h.html" target="_top" xlink:title="Defines the TerrainCell class representing a cell in the landscape.">
<polygon fill="white" stroke="#666666" points="593,-635 416,-635 416,-583 593,-583 593,-635"/>
<text text-anchor="start" x="424" y="-623" font-family="Helvetica,sans-Serif" font-size="10.00">/home/runner/work/Weaver</text>
<text text-anchor="start" x="424" y="-612" font-family="Helvetica,sans-Serif" font-size="10.00">/Weaver/include/App/Model</text>
<text text-anchor="start" x="424" y="-601" font-family="Helvetica,sans-Serif" font-size="10.00">/IBM/Landscape/Map/TerrainCells</text>
<text text-anchor="middle" x="504.5" y="-590" font-family="Helvetica,sans-Serif" font-size="10.00">/TerrainCell.h</text>
</a>
</g>
</g>
<!-- Node1&#45;&gt;Node11 -->
<g id="edge30_Node000001_Node000011" class="edge">
<title>Node1&#45;&gt;Node11</title>
<g id="a_edge30_Node000001_Node000011"><a xlink:title=" ">
<path fill="none" stroke="#63b8ff" d="M627.96,-837.8C598.99,-784.34 543.65,-682.23 518.07,-635.05"/>
<polygon fill="#63b8ff" stroke="#63b8ff" points="625.04,-839.75 632.88,-846.88 631.2,-836.42 625.04,-839.75"/>
</a>
</g>
</g>
<!-- Node15 -->
<g id="Node000015" class="node">
<title>Node15</title>
<g id="a_Node000015"><a xlink:href="RootTerrainCell_8h.html" target="_top" xlink:title="Defines the RootTerrainCell class, the top&#45;level node of the spatial tree in the landscape.">
<polygon fill="white" stroke="#666666" points="629.5,-283 455.5,-283 455.5,-231 629.5,-231 629.5,-283"/>
<text text-anchor="start" x="463.5" y="-271" font-family="Helvetica,sans-Serif" font-size="10.00">/home/runner/work/Weaver</text>
<text text-anchor="start" x="463.5" y="-260" font-family="Helvetica,sans-Serif" font-size="10.00">/Weaver/include/App/Model</text>
<text text-anchor="start" x="463.5" y="-249" font-family="Helvetica,sans-Serif" font-size="10.00">/IBM/Landscape/Map/SpatialTree</text>
<text text-anchor="middle" x="542.5" y="-238" font-family="Helvetica,sans-Serif" font-size="10.00">/TerrainCells/RootTerrainCell.h</text>
</a>
</g>
</g>
<!-- Node1&#45;&gt;Node15 -->
<g id="edge29_Node000001_Node000015" class="edge">
<title>Node1&#45;&gt;Node15</title>
<g id="a_edge29_Node000001_Node000015"><a xlink:title=" ">
<path fill="none" stroke="#63b8ff" d="M662.32,-837.36C676.64,-802.81 695.5,-747.84 695.5,-698 695.5,-698 695.5,-698 695.5,-432 695.5,-375.75 676.26,-360.69 638.5,-319 625.77,-304.95 609.09,-292.86 593.21,-283.23"/>
<polygon fill="#63b8ff" stroke="#63b8ff" points="658.93,-836.4 658.24,-846.97 665.37,-839.14 658.93,-836.4"/>
</a>
</g>
</g>
<!-- Node17 -->
<g id="Node000017" class="node">
<title>Node17</title>
<g id="a_Node000017"><a xlink:href="AnimalStatistical_8h.html" target="_top" xlink:title="Defines the AnimalStatistical class, a concrete subclass of Animal for statistical simulations.">
<polygon fill="white" stroke="#666666" points="881.5,-371 723.5,-371 723.5,-319 881.5,-319 881.5,-371"/>
<text text-anchor="start" x="731.5" y="-359" font-family="Helvetica,sans-Serif" font-size="10.00">/home/runner/work/Weaver</text>
<text text-anchor="start" x="731.5" y="-348" font-family="Helvetica,sans-Serif" font-size="10.00">/Weaver/include/App/Model</text>
<text text-anchor="start" x="731.5" y="-337" font-family="Helvetica,sans-Serif" font-size="10.00">/IBM/Landscape/LivingBeings</text>
<text text-anchor="middle" x="802.5" y="-326" font-family="Helvetica,sans-Serif" font-size="10.00">/Animals/AnimalStatistical.h</text>
</a>
</g>
</g>
<!-- Node1&#45;&gt;Node17 -->
<g id="edge26_Node000001_Node000017" class="edge">
<title>Node1&#45;&gt;Node17</title>
<g id="a_edge26_Node000001_Node000017"><a xlink:title=" ">
<path fill="none" stroke="#63b8ff" d="M686.71,-840.05C721.92,-808.2 767.5,-755.81 767.5,-698 767.5,-698 767.5,-698 767.5,-520 767.5,-466.08 783.86,-404.57 794.21,-371.04"/>
<polygon fill="#63b8ff" stroke="#63b8ff" points="684.11,-837.68 678.93,-846.92 688.74,-842.93 684.11,-837.68"/>
</a>
</g>
</g>
<!-- Node3 -->
<g id="Node000003" class="node">
<title>Node3</title>
<g id="a_Node000003"><a xlink:href="Landscape_8h.html" target="_top" xlink:title="Doxygen&#45;documented declaration of the Landscape class and related serialization helpers.">
<polygon fill="white" stroke="#666666" points="452,-118 295,-118 295,-77 452,-77 452,-118"/>
<text text-anchor="start" x="303" y="-106" font-family="Helvetica,sans-Serif" font-size="10.00">/home/runner/work/Weaver</text>
<text text-anchor="start" x="303" y="-95" font-family="Helvetica,sans-Serif" font-size="10.00">/Weaver/include/App/Model</text>
<text text-anchor="middle" x="373.5" y="-84" font-family="Helvetica,sans-Serif" font-size="10.00">/IBM/Landscape/Landscape.h</text>
</a>
</g>
</g>
<!-- Node2&#45;&gt;Node3 -->
<g id="edge2_Node000002_Node000003" class="edge">
<title>Node2&#45;&gt;Node3</title>
<g id="a_edge2_Node000002_Node000003"><a xlink:title=" ">
<path fill="none" stroke="#63b8ff" d="M298.54,-758.9C227.89,-734.09 144.5,-688.24 144.5,-610 144.5,-610 144.5,-610 144.5,-256 144.5,-181.21 228.45,-139.25 294.69,-117.78"/>
<polygon fill="#63b8ff" stroke="#63b8ff" points="297.82,-762.36 308.42,-762.27 300.08,-755.73 297.82,-762.36"/>
</a>
</g>
</g>
<!-- Node8 -->
<g id="Node000008" class="node">
<title>Node8</title>
<g id="a_Node000008"><a xlink:href="SpatialTreeAnimal_8h.html" target="_top" xlink:title="Defines the SpatialTreeAnimal class for animals in a spatial tree terrain.">
<polygon fill="white" stroke="#666666" points="398,-635 173,-635 173,-583 398,-583 398,-635"/>
<text text-anchor="start" x="181" y="-623" font-family="Helvetica,sans-Serif" font-size="10.00">/home/runner/work/Weaver</text>
<text text-anchor="start" x="181" y="-612" font-family="Helvetica,sans-Serif" font-size="10.00">/Weaver/include/App/Model</text>
<text text-anchor="start" x="181" y="-601" font-family="Helvetica,sans-Serif" font-size="10.00">/IBM/Landscape/Map/SpatialTree</text>
<text text-anchor="middle" x="285.5" y="-590" font-family="Helvetica,sans-Serif" font-size="10.00">/LivingBeings/Animals/SpatialTreeAnimal.h</text>
</a>
</g>
</g>
<!-- Node2&#45;&gt;Node8 -->
<g id="edge7_Node000002_Node000008" class="edge">
<title>Node2&#45;&gt;Node8</title>
<g id="a_edge7_Node000002_Node000008"><a xlink:title=" ">
<path fill="none" stroke="#63b8ff" d="M328.64,-753.27C316.9,-745.03 306.05,-734.99 298.5,-723 281.87,-696.6 280.82,-659.74 282.45,-635.39"/>
<polygon fill="#63b8ff" stroke="#63b8ff" points="327.03,-756.4 337.31,-758.96 330.87,-750.55 327.03,-756.4"/>
</a>
</g>
</g>
<!-- Node10 -->
<g id="Node000010" class="node">
<title>Node10</title>
<g id="a_Node000010"><a xlink:href="CellValue_8h.html" target="_top" xlink:title="Defines the CellValue struct representing the evaluation of a terrain cell by an animal.">
<polygon fill="white" stroke="#666666" points="484,-723 307,-723 307,-671 484,-671 484,-723"/>
<text text-anchor="start" x="315" y="-711" font-family="Helvetica,sans-Serif" font-size="10.00">/home/runner/work/Weaver</text>
<text text-anchor="start" x="315" y="-700" font-family="Helvetica,sans-Serif" font-size="10.00">/Weaver/include/App/Model</text>
<text text-anchor="start" x="315" y="-689" font-family="Helvetica,sans-Serif" font-size="10.00">/IBM/Landscape/Map/TerrainCells</text>
<text text-anchor="middle" x="395.5" y="-678" font-family="Helvetica,sans-Serif" font-size="10.00">/CellValue.h</text>
</a>
</g>
</g>
<!-- Node2&#45;&gt;Node10 -->
<g id="edge10_Node000002_Node000010" class="edge">
<title>Node2&#45;&gt;Node10</title>
<g id="a_edge10_Node000002_Node000010"><a xlink:title=" ">
<path fill="none" stroke="#63b8ff" d="M395.5,-748.56C395.5,-740.04 395.5,-731.1 395.5,-723.16"/>
<polygon fill="#63b8ff" stroke="#63b8ff" points="392,-748.66 395.5,-758.66 399,-748.66 392,-748.66"/>
</a>
</g>
</g>
<!-- Node2&#45;&gt;Node11 -->
<g id="edge25_Node000002_Node000011" class="edge">
<title>Node2&#45;&gt;Node11</title>
<g id="a_edge25_Node000002_Node000011"><a xlink:title=" ">
<path fill="none" stroke="#63b8ff" d="M463.6,-753.21C475.3,-745 486.06,-734.99 493.5,-723 509.92,-696.54 510.27,-659.7 508.12,-635.37"/>
<polygon fill="#63b8ff" stroke="#63b8ff" points="461.41,-750.46 454.96,-758.87 465.24,-756.32 461.41,-750.46"/>
</a>
</g>
</g>
<!-- Node4 -->
<g id="Node000004" class="node">
<title>Node4</title>
<g id="a_Node000004"><a xlink:href="IBM_8h.html" target="_top" xlink:title="Definition of the IBM class, representing the core individual&#45;based model of the simulation.">
<polygon fill="white" stroke="#666666" points="149,-41 0,-41 0,0 149,0 149,-41"/>
<text text-anchor="start" x="8" y="-29" font-family="Helvetica,sans-Serif" font-size="10.00">/home/runner/work/Weaver</text>
<text text-anchor="start" x="8" y="-18" font-family="Helvetica,sans-Serif" font-size="10.00">/Weaver/include/App/Model</text>
<text text-anchor="middle" x="74.5" y="-7" font-family="Helvetica,sans-Serif" font-size="10.00">/IBM/IBM.h</text>
</a>
</g>
</g>
<!-- Node3&#45;&gt;Node4 -->
<g id="edge3_Node000003_Node000004" class="edge">
<title>Node3&#45;&gt;Node4</title>
<g id="a_edge3_Node000003_Node000004"><a xlink:title=" ">
<path fill="none" stroke="#63b8ff" d="M286.02,-74.56C242.56,-63.65 190.6,-50.62 149.05,-40.2"/>
<polygon fill="#63b8ff" stroke="#63b8ff" points="285.17,-77.95 295.72,-76.99 286.87,-71.16 285.17,-77.95"/>
</a>
</g>
</g>
<!-- Node5 -->
<g id="Node000005" class="node">
<title>Node5</title>
<g id="a_Node000005"><a xlink:href="AquaticLandscape_8h.html" target="_top" xlink:title="Defines the AquaticLandscape class for aquatic ecosystem simulations.">
<polygon fill="white" stroke="#666666" points="360.5,-41 166.5,-41 166.5,0 360.5,0 360.5,-41"/>
<text text-anchor="start" x="174.5" y="-29" font-family="Helvetica,sans-Serif" font-size="10.00">/home/runner/work/Weaver</text>
<text text-anchor="start" x="174.5" y="-18" font-family="Helvetica,sans-Serif" font-size="10.00">/Weaver/include/App/Model</text>
<text text-anchor="middle" x="263.5" y="-7" font-family="Helvetica,sans-Serif" font-size="10.00">/IBM/Landscape/AquaticLandscape.h</text>
</a>
</g>
</g>
<!-- Node3&#45;&gt;Node5 -->
<g id="edge4_Node000003_Node000005" class="edge">
<title>Node3&#45;&gt;Node5</title>
<g id="a_edge4_Node000003_Node000005"><a xlink:title=" ">
<path fill="none" stroke="#63b8ff" d="M336.24,-71.09C321.9,-61.32 305.78,-50.32 292.35,-41.17"/>
<polygon fill="#63b8ff" stroke="#63b8ff" points="334.65,-74.25 344.89,-76.99 338.6,-68.47 334.65,-74.25"/>
</a>
</g>
</g>
<!-- Node6 -->
<g id="Node000006" class="node">
<title>Node6</title>
<g id="a_Node000006"><a xlink:href="ArthropodsLandscape_8h.html" target="_top" xlink:title="Defines the ArthropodsLandscape class for arthropod&#45;specific ecosystem simulations.">
<polygon fill="white" stroke="#666666" points="588.5,-41 378.5,-41 378.5,0 588.5,0 588.5,-41"/>
<text text-anchor="start" x="386.5" y="-29" font-family="Helvetica,sans-Serif" font-size="10.00">/home/runner/work/Weaver</text>
<text text-anchor="start" x="386.5" y="-18" font-family="Helvetica,sans-Serif" font-size="10.00">/Weaver/include/App/Model</text>
<text text-anchor="middle" x="483.5" y="-7" font-family="Helvetica,sans-Serif" font-size="10.00">/IBM/Landscape/ArthropodsLandscape.h</text>
</a>
</g>
</g>
<!-- Node3&#45;&gt;Node6 -->
<g id="edge5_Node000003_Node000006" class="edge">
<title>Node3&#45;&gt;Node6</title>
<g id="a_edge5_Node000003_Node000006"><a xlink:title=" ">
<path fill="none" stroke="#63b8ff" d="M410.76,-71.09C425.1,-61.32 441.22,-50.32 454.65,-41.17"/>
<polygon fill="#63b8ff" stroke="#63b8ff" points="408.4,-68.47 402.11,-76.99 412.35,-74.25 408.4,-68.47"/>
</a>
</g>
</g>
<!-- Node7 -->
<g id="Node000007" class="node">
<title>Node7</title>
<g id="a_Node000007"><a xlink:href="DinosaursLandscape_8h.html" target="_top" xlink:title="Defines the DinosaursLandscape class for dinosaur&#45;specific ecosystem simulations.">
<polygon fill="white" stroke="#666666" points="812.5,-41 606.5,-41 606.5,0 812.5,0 812.5,-41"/>
<text text-anchor="start" x="614.5" y="-29" font-family="Helvetica,sans-Serif" font-size="10.00">/home/runner/work/Weaver</text>
<text text-anchor="start" x="614.5" y="-18" font-family="Helvetica,sans-Serif" font-size="10.00">/Weaver/include/App/Model</text>
<text text-anchor="middle" x="709.5" y="-7" font-family="Helvetica,sans-Serif" font-size="10.00">/IBM/Landscape/DinosaursLandscape.h</text>
</a>
</g>
</g>
<!-- Node3&#45;&gt;Node7 -->
<g id="edge6_Node000003_Node000007" class="edge">
<title>Node3&#45;&gt;Node7</title>
<g id="a_edge6_Node000003_Node000007"><a xlink:title=" ">
<path fill="none" stroke="#63b8ff" d="M462.31,-76.68C511.69,-65.66 572.9,-51.99 622.06,-41.02"/>
<polygon fill="#63b8ff" stroke="#63b8ff" points="461.27,-73.32 452.28,-78.92 462.8,-80.15 461.27,-73.32"/>
</a>
</g>
</g>
<!-- Node9 -->
<g id="Node000009" class="node">
<title>Node9</title>
<g id="a_Node000009"><a xlink:href="SpatialTree_8h.html" target="_top" xlink:title="Defines the SpatialTree class, a spatially subdivided map implementation.">
<polygon fill="white" stroke="#666666" points="525,-195 342,-195 342,-154 525,-154 525,-195"/>
<text text-anchor="start" x="350" y="-183" font-family="Helvetica,sans-Serif" font-size="10.00">/home/runner/work/Weaver</text>
<text text-anchor="start" x="350" y="-172" font-family="Helvetica,sans-Serif" font-size="10.00">/Weaver/include/App/Model</text>
<text text-anchor="middle" x="433.5" y="-161" font-family="Helvetica,sans-Serif" font-size="10.00">/IBM/Landscape/Map/SpatialTree.h</text>
</a>
</g>
</g>
<!-- Node8&#45;&gt;Node9 -->
<g id="edge8_Node000008_Node000009" class="edge">
<title>Node8&#45;&gt;Node9</title>
<g id="a_edge8_Node000008_Node000009"><a xlink:title=" ">
<path fill="none" stroke="#63b8ff" d="M282.28,-572.74C279.36,-537.61 275.5,-482.12 275.5,-434 275.5,-434 275.5,-434 275.5,-344 275.5,-274.42 348.07,-221.76 394.85,-195.04"/>
<polygon fill="#63b8ff" stroke="#63b8ff" points="278.82,-573.29 283.16,-582.96 285.79,-572.7 278.82,-573.29"/>
</a>
</g>
</g>
<!-- Node9&#45;&gt;Node3 -->
<g id="edge9_Node000009_Node000003" class="edge">
<title>Node9&#45;&gt;Node3</title>
<g id="a_edge9_Node000009_Node000003"><a xlink:title=" ">
<path fill="none" stroke="#63b8ff" d="M411.46,-145.95C404.06,-136.7 395.97,-126.58 389.16,-118.07"/>
<polygon fill="#63b8ff" stroke="#63b8ff" points="408.76,-148.17 417.74,-153.79 414.22,-143.8 408.76,-148.17"/>
</a>
</g>
</g>
<!-- Node10&#45;&gt;Node8 -->
<g id="edge11_Node000010_Node000008" class="edge">
<title>Node10&#45;&gt;Node8</title>
<g id="a_edge11_Node000010_Node000008"><a xlink:title=" ">
<path fill="none" stroke="#63b8ff" d="M355.45,-664.69C343.08,-655.02 329.62,-644.49 317.84,-635.29"/>
<polygon fill="#63b8ff" stroke="#63b8ff" points="353.35,-667.49 363.39,-670.89 357.67,-661.98 353.35,-667.49"/>
</a>
</g>
</g>
<!-- Node10&#45;&gt;Node11 -->
<g id="edge12_Node000010_Node000011" class="edge">
<title>Node10&#45;&gt;Node11</title>
<g id="a_edge12_Node000010_Node000011"><a xlink:title=" ">
<path fill="none" stroke="#63b8ff" d="M435.19,-664.69C447.44,-655.02 460.78,-644.49 472.45,-635.29"/>
<polygon fill="#63b8ff" stroke="#63b8ff" points="433,-661.95 427.32,-670.89 437.34,-667.45 433,-661.95"/>
</a>
</g>
</g>
<!-- Node11&#45;&gt;Node3 -->
<g id="edge13_Node000011_Node000003" class="edge">
<title>Node11&#45;&gt;Node3</title>
<g id="a_edge13_Node000011_Node000003"><a xlink:title=" ">
<path fill="none" stroke="#63b8ff" d="M415.76,-579.45C388.19,-569.11 362.41,-557.41 352.5,-547 315.87,-508.52 313.5,-487.13 313.5,-434 313.5,-434 313.5,-434 313.5,-256 313.5,-209.89 314.11,-196.29 332.5,-154 338.14,-141.04 347.29,-128.23 355.52,-118.19"/>
<polygon fill="#63b8ff" stroke="#63b8ff" points="414.56,-582.74 425.16,-582.91 416.98,-576.17 414.56,-582.74"/>
</a>
</g>
</g>
<!-- Node11&#45;&gt;Node9 -->
<g id="edge17_Node000011_Node000009" class="edge">
<title>Node11&#45;&gt;Node9</title>
<g id="a_edge17_Node000011_Node000009"><a xlink:title=" ">
<path fill="none" stroke="#63b8ff" d="M427.03,-578.03C412.73,-569.71 399.02,-559.45 388.5,-547 354.39,-506.63 351.5,-486.85 351.5,-434 351.5,-434 351.5,-434 351.5,-344 351.5,-285.11 392.49,-225.26 416.51,-195.25"/>
<polygon fill="#63b8ff" stroke="#63b8ff" points="425.54,-581.2 435.99,-582.96 428.92,-575.07 425.54,-581.2"/>
</a>
</g>
</g>
<!-- Node12 -->
<g id="Node000012" class="node">
<title>Node12</title>
<g id="a_Node000012"><a xlink:href="Map_8h.html" target="_top" xlink:title="Defines the Map class for spatial organization of landscapes.">
<polygon fill="white" stroke="#666666" points="797.5,-277.5 647.5,-277.5 647.5,-236.5 797.5,-236.5 797.5,-277.5"/>
<text text-anchor="start" x="655.5" y="-265.5" font-family="Helvetica,sans-Serif" font-size="10.00">/home/runner/work/Weaver</text>
<text text-anchor="start" x="655.5" y="-254.5" font-family="Helvetica,sans-Serif" font-size="10.00">/Weaver/include/App/Model</text>
<text text-anchor="middle" x="722.5" y="-243.5" font-family="Helvetica,sans-Serif" font-size="10.00">/IBM/Landscape/Map/Map.h</text>
</a>
</g>
</g>
<!-- Node11&#45;&gt;Node12 -->
<g id="edge14_Node000011_Node000012" class="edge">
<title>Node11&#45;&gt;Node12</title>
<g id="a_edge14_Node000011_Node000012"><a xlink:title=" ">
<path fill="none" stroke="#63b8ff" d="M436.46,-577.24C425.23,-569.05 415.12,-559.05 408.5,-547 376.04,-487.91 389.65,-374.32 446.5,-319 508.72,-258.45 554.11,-303.41 638.5,-283 645.3,-281.35 652.37,-279.49 659.4,-277.55"/>
<polygon fill="#63b8ff" stroke="#63b8ff" points="434.55,-580.17 444.79,-582.88 438.47,-574.37 434.55,-580.17"/>
</a>
</g>
</g>
<!-- Node13 -->
<g id="Node000013" class="node">
<title>Node13</title>
<g id="a_Node000013"><a xlink:href="SpatialTreeTerrainCell_8h.html" target="_top" xlink:title="Spatial tree implementation of a terrain cell.">
<polygon fill="white" stroke="#666666" points="611.5,-547 417.5,-547 417.5,-495 611.5,-495 611.5,-547"/>
<text text-anchor="start" x="425.5" y="-535" font-family="Helvetica,sans-Serif" font-size="10.00">/home/runner/work/Weaver</text>
<text text-anchor="start" x="425.5" y="-524" font-family="Helvetica,sans-Serif" font-size="10.00">/Weaver/include/App/Model</text>
<text text-anchor="start" x="425.5" y="-513" font-family="Helvetica,sans-Serif" font-size="10.00">/IBM/Landscape/Map/SpatialTree</text>
<text text-anchor="middle" x="514.5" y="-502" font-family="Helvetica,sans-Serif" font-size="10.00">/TerrainCells/SpatialTreeTerrainCell.h</text>
</a>
</g>
</g>
<!-- Node11&#45;&gt;Node13 -->
<g id="edge18_Node000011_Node000013" class="edge">
<title>Node11&#45;&gt;Node13</title>
<g id="a_edge18_Node000011_Node000013"><a xlink:title=" ">
<path fill="none" stroke="#63b8ff" d="M508.62,-572.56C509.61,-564.04 510.65,-555.1 511.57,-547.16"/>
<polygon fill="#63b8ff" stroke="#63b8ff" points="505.12,-572.32 507.45,-582.66 512.08,-573.13 505.12,-572.32"/>
</a>
</g>
</g>
<!-- Node12&#45;&gt;Node3 -->
<g id="edge15_Node000012_Node000003" class="edge">
<title>Node12&#45;&gt;Node3</title>
<g id="a_edge15_Node000012_Node000003"><a xlink:title=" ">
<path fill="none" stroke="#63b8ff" d="M681.3,-231.08C643.86,-209.05 586.67,-176.96 534.5,-154 503.38,-140.31 467.73,-127.72 437.9,-118"/>
<polygon fill="#63b8ff" stroke="#63b8ff" points="679.99,-234.37 690.38,-236.45 683.56,-228.34 679.99,-234.37"/>
</a>
</g>
</g>
<!-- Node12&#45;&gt;Node9 -->
<g id="edge16_Node000012_Node000009" class="edge">
<title>Node12&#45;&gt;Node9</title>
<g id="a_edge16_Node000012_Node000009"><a xlink:title=" ">
<path fill="none" stroke="#63b8ff" d="M647.58,-233.6C644.51,-232.72 641.48,-231.85 638.5,-231 595.23,-218.71 546.64,-205.52 507.64,-195.09"/>
<polygon fill="#63b8ff" stroke="#63b8ff" points="646.85,-237.03 657.43,-236.46 648.8,-230.31 646.85,-237.03"/>
</a>
</g>
</g>
<!-- Node13&#45;&gt;Node9 -->
<g id="edge19_Node000013_Node000009" class="edge">
<title>Node13&#45;&gt;Node9</title>
<g id="a_edge19_Node000013_Node000009"><a xlink:title=" ">
<path fill="none" stroke="#63b8ff" d="M491.02,-486.59C485.48,-477.86 479.91,-468.28 475.5,-459 457.83,-421.81 454.37,-411.42 446.5,-371 434.14,-307.56 432.97,-230.6 433.18,-195.13"/>
<polygon fill="#63b8ff" stroke="#63b8ff" points="488.11,-488.54 496.51,-495 493.98,-484.71 488.11,-488.54"/>
</a>
</g>
</g>
<!-- Node14 -->
<g id="Node000014" class="node">
<title>Node14</title>
<g id="a_Node000014"><a xlink:href="BranchTerrainCell_8h.html" target="_top" xlink:title="Branch node implementation of a spatial tree terrain cell.">
<polygon fill="white" stroke="#666666" points="629.5,-371 455.5,-371 455.5,-319 629.5,-319 629.5,-371"/>
<text text-anchor="start" x="463.5" y="-359" font-family="Helvetica,sans-Serif" font-size="10.00">/home/runner/work/Weaver</text>
<text text-anchor="start" x="463.5" y="-348" font-family="Helvetica,sans-Serif" font-size="10.00">/Weaver/include/App/Model</text>
<text text-anchor="start" x="463.5" y="-337" font-family="Helvetica,sans-Serif" font-size="10.00">/IBM/Landscape/Map/SpatialTree</text>
<text text-anchor="middle" x="542.5" y="-326" font-family="Helvetica,sans-Serif" font-size="10.00">/TerrainCells/BranchTerrainCell.h</text>
</a>
</g>
</g>
<!-- Node13&#45;&gt;Node14 -->
<g id="edge20_Node000013_Node000014" class="edge">
<title>Node13&#45;&gt;Node14</title>
<g id="a_edge20_Node000013_Node000014"><a xlink:title=" ">
<path fill="none" stroke="#63b8ff" d="M494.21,-485.8C483.4,-463.03 474.24,-432.68 484.5,-407 489.92,-393.43 499.96,-381.15 510.18,-371.23"/>
<polygon fill="#63b8ff" stroke="#63b8ff" points="491.1,-487.4 498.73,-494.75 497.34,-484.25 491.1,-487.4"/>
</a>
</g>
</g>
<!-- Node16 -->
<g id="Node000016" class="node">
<title>Node16</title>
<g id="a_Node000016"><a xlink:href="LeafTerrainCell_8h.html" target="_top" xlink:title="Leaf node implementation of a spatial tree terrain cell.">
<polygon fill="white" stroke="#666666" points="667.5,-459 493.5,-459 493.5,-407 667.5,-407 667.5,-459"/>
<text text-anchor="start" x="501.5" y="-447" font-family="Helvetica,sans-Serif" font-size="10.00">/home/runner/work/Weaver</text>
<text text-anchor="start" x="501.5" y="-436" font-family="Helvetica,sans-Serif" font-size="10.00">/Weaver/include/App/Model</text>
<text text-anchor="start" x="501.5" y="-425" font-family="Helvetica,sans-Serif" font-size="10.00">/IBM/Landscape/Map/SpatialTree</text>
<text text-anchor="middle" x="580.5" y="-414" font-family="Helvetica,sans-Serif" font-size="10.00">/TerrainCells/LeafTerrainCell.h</text>
</a>
</g>
</g>
<!-- Node13&#45;&gt;Node16 -->
<g id="edge23_Node000013_Node000016" class="edge">
<title>Node13&#45;&gt;Node16</title>
<g id="a_edge23_Node000013_Node000016"><a xlink:title=" ">
<path fill="none" stroke="#63b8ff" d="M540.19,-486.52C547.18,-477.42 554.63,-467.71 561.19,-459.16"/>
<polygon fill="#63b8ff" stroke="#63b8ff" points="537.26,-484.6 533.95,-494.66 542.81,-488.86 537.26,-484.6"/>
</a>
</g>
</g>
<!-- Node14&#45;&gt;Node15 -->
<g id="edge21_Node000014_Node000015" class="edge">
<title>Node14&#45;&gt;Node15</title>
<g id="a_edge21_Node000014_Node000015"><a xlink:title=" ">
<path fill="none" stroke="#63b8ff" d="M542.5,-308.56C542.5,-300.04 542.5,-291.1 542.5,-283.16"/>
<polygon fill="#63b8ff" stroke="#63b8ff" points="539,-308.66 542.5,-318.66 546,-308.66 539,-308.66"/>
</a>
</g>
</g>
<!-- Node15&#45;&gt;Node9 -->
<g id="edge22_Node000015_Node000009" class="edge">
<title>Node15&#45;&gt;Node9</title>
<g id="a_edge22_Node000015_Node000009"><a xlink:title=" ">
<path fill="none" stroke="#63b8ff" d="M500.35,-224.87C486.81,-214.87 472.2,-204.08 460.1,-195.15"/>
<polygon fill="#63b8ff" stroke="#63b8ff" points="498.49,-227.85 508.61,-230.97 502.64,-222.21 498.49,-227.85"/>
</a>
</g>
</g>
<!-- Node16&#45;&gt;Node14 -->
<g id="edge24_Node000016_Node000014" class="edge">
<title>Node16&#45;&gt;Node14</title>
<g id="a_edge24_Node000016_Node000014"><a xlink:title=" ">
<path fill="none" stroke="#63b8ff" d="M565.21,-397.4C561.33,-388.63 557.24,-379.36 553.62,-371.16"/>
<polygon fill="#63b8ff" stroke="#63b8ff" points="562.06,-398.93 569.3,-406.66 568.46,-396.1 562.06,-398.93"/>
</a>
</g>
</g>
<!-- Node17&#45;&gt;Node9 -->
<g id="edge28_Node000017_Node000009" class="edge">
<title>Node17&#45;&gt;Node9</title>
<g id="a_edge28_Node000017_Node000009"><a xlink:title=" ">
<path fill="none" stroke="#63b8ff" d="M815.07,-309.03C821.5,-284.34 824.64,-252.04 806.5,-231 770.91,-189.72 623.83,-178.66 525.34,-175.97"/>
<polygon fill="#63b8ff" stroke="#63b8ff" points="811.67,-308.18 812.27,-318.75 818.4,-310.11 811.67,-308.18"/>
</a>
</g>
</g>
<!-- Node17&#45;&gt;Node12 -->
<g id="edge27_Node000017_Node000012" class="edge">
<title>Node17&#45;&gt;Node12</title>
<g id="a_edge27_Node000017_Node000012"><a xlink:title=" ">
<path fill="none" stroke="#63b8ff" d="M771.86,-311.07C761.4,-299.81 750.02,-287.58 740.83,-277.7"/>
<polygon fill="#63b8ff" stroke="#63b8ff" points="769.56,-313.72 778.93,-318.66 774.68,-308.96 769.56,-313.72"/>
</a>
</g>
</g>
</g>
</svg>
