<?xml version="1.0" encoding="UTF-8" standalone="no"?>
<!DOCTYPE svg PUBLIC "-//W3C//DTD SVG 1.1//EN"
 "http://www.w3.org/Graphics/SVG/1.1/DTD/svg11.dtd">
<!-- Generated by graphviz version 2.43.0 (0)
 -->
<!-- Title: /home/runner/work/Weaver/Weaver/include/App/Model/IBM/Landscape/Map/TerrainCells/PatchApplicator/Obstacle/CellObstacleInterface.h Pages: 1 -->
<svg width="1145pt" height="852pt"
 viewBox="0.00 0.00 1145.00 852.00" xmlns="http://www.w3.org/2000/svg" xmlns:xlink="http://www.w3.org/1999/xlink">
<g id="graph0" class="graph" transform="scale(1 1) rotate(0) translate(4 848)">
<title>/home/runner/work/Weaver/Weaver/include/App/Model/IBM/Landscape/Map/TerrainCells/PatchApplicator/Obstacle/CellObstacleInterface.h</title>
<!-- Node1 -->
<g id="Node000001" class="node">
<title>Node1</title>
<g id="a_Node000001"><a xlink:title="Interface for obstacle elements within a terrain cell.">
<polygon fill="#999999" stroke="#666666" points="351,-844 145,-844 145,-781 351,-781 351,-844"/>
<text text-anchor="start" x="153" y="-832" font-family="Helvetica,sans-Serif" font-size="10.00">/home/runner/work/Weaver</text>
<text text-anchor="start" x="153" y="-821" font-family="Helvetica,sans-Serif" font-size="10.00">/Weaver/include/App/Model</text>
<text text-anchor="start" x="153" y="-810" font-family="Helvetica,sans-Serif" font-size="10.00">/IBM/Landscape/Map/TerrainCells</text>
<text text-anchor="start" x="153" y="-799" font-family="Helvetica,sans-Serif" font-size="10.00">/PatchApplicator/Obstacle/CellObstacle</text>
<text text-anchor="middle" x="248" y="-788" font-family="Helvetica,sans-Serif" font-size="10.00">Interface.h</text>
</a>
</g>
</g>
<!-- Node2 -->
<g id="Node000002" class="node">
<title>Node2</title>
<g id="a_Node000002"><a xlink:href="BranchCellObstacle_8h.html" target="_top" xlink:title="Defines the BranchCellObstacle class for managing obstacles in branch terrain cells.">
<polygon fill="white" stroke="#666666" points="178,-657 4,-657 4,-594 178,-594 178,-657"/>
<text text-anchor="start" x="12" y="-645" font-family="Helvetica,sans-Serif" font-size="10.00">/home/runner/work/Weaver</text>
<text text-anchor="start" x="12" y="-634" font-family="Helvetica,sans-Serif" font-size="10.00">/Weaver/include/App/Model</text>
<text text-anchor="start" x="12" y="-623" font-family="Helvetica,sans-Serif" font-size="10.00">/IBM/Landscape/Map/SpatialTree</text>
<text text-anchor="start" x="12" y="-612" font-family="Helvetica,sans-Serif" font-size="10.00">/TerrainCells/PatchApplicator</text>
<text text-anchor="middle" x="91" y="-601" font-family="Helvetica,sans-Serif" font-size="10.00">/Obstacle/BranchCellObstacle.h</text>
</a>
</g>
</g>
<!-- Node1&#45;&gt;Node2 -->
<g id="edge1_Node000001_Node000002" class="edge">
<title>Node1&#45;&gt;Node2</title>
<g id="a_edge1_Node000001_Node000002"><a xlink:title=" ">
<path fill="none" stroke="#63b8ff" d="M166.31,-775.49C153.2,-766.96 140.76,-756.83 131,-745 110.14,-719.71 99.97,-683.02 95.14,-657.19"/>
<polygon fill="#63b8ff" stroke="#63b8ff" points="164.66,-778.58 175,-780.87 168.34,-772.63 164.66,-778.58"/>
</a>
</g>
</g>
<!-- Node12 -->
<g id="Node000012" class="node">
<title>Node12</title>
<g id="a_Node000012"><a xlink:href="CellObstacle_8h.html" target="_top" xlink:title="Concrete implementation of the obstacle interface for terrain cells.">
<polygon fill="white" stroke="#666666" points="355.5,-745 140.5,-745 140.5,-693 355.5,-693 355.5,-745"/>
<text text-anchor="start" x="148.5" y="-733" font-family="Helvetica,sans-Serif" font-size="10.00">/home/runner/work/Weaver</text>
<text text-anchor="start" x="148.5" y="-722" font-family="Helvetica,sans-Serif" font-size="10.00">/Weaver/include/App/Model</text>
<text text-anchor="start" x="148.5" y="-711" font-family="Helvetica,sans-Serif" font-size="10.00">/IBM/Landscape/Map/TerrainCells</text>
<text text-anchor="middle" x="248" y="-700" font-family="Helvetica,sans-Serif" font-size="10.00">/PatchApplicator/Obstacle/CellObstacle.h</text>
</a>
</g>
</g>
<!-- Node1&#45;&gt;Node12 -->
<g id="edge11_Node000001_Node000012" class="edge">
<title>Node1&#45;&gt;Node12</title>
<g id="a_edge11_Node000001_Node000012"><a xlink:title=" ">
<path fill="none" stroke="#63b8ff" d="M248,-770.7C248,-761.95 248,-752.96 248,-745.02"/>
<polygon fill="#63b8ff" stroke="#63b8ff" points="244.5,-770.78 248,-780.78 251.5,-770.78 244.5,-770.78"/>
</a>
</g>
</g>
<!-- Node15 -->
<g id="Node000015" class="node">
<title>Node15</title>
<g id="a_Node000015"><a xlink:href="PatchApplicator_8h.html" target="_top" xlink:title="Defines the PatchApplicator class responsible for applying patches (moisture, resource,...">
<polygon fill="white" stroke="#666666" points="556,-745 374,-745 374,-693 556,-693 556,-745"/>
<text text-anchor="start" x="382" y="-733" font-family="Helvetica,sans-Serif" font-size="10.00">/home/runner/work/Weaver</text>
<text text-anchor="start" x="382" y="-722" font-family="Helvetica,sans-Serif" font-size="10.00">/Weaver/include/App/Model</text>
<text text-anchor="start" x="382" y="-711" font-family="Helvetica,sans-Serif" font-size="10.00">/IBM/Landscape/Map/TerrainCells</text>
<text text-anchor="middle" x="465" y="-700" font-family="Helvetica,sans-Serif" font-size="10.00">/PatchApplicator/PatchApplicator.h</text>
</a>
</g>
</g>
<!-- Node1&#45;&gt;Node15 -->
<g id="edge15_Node000001_Node000015" class="edge">
<title>Node1&#45;&gt;Node15</title>
<g id="a_edge15_Node000001_Node000015"><a xlink:title=" ">
<path fill="none" stroke="#63b8ff" d="M330.06,-776.9C355.14,-766.32 382.23,-754.9 405.51,-745.09"/>
<polygon fill="#63b8ff" stroke="#63b8ff" points="328.41,-773.79 320.56,-780.9 331.13,-780.24 328.41,-773.79"/>
</a>
</g>
</g>
<!-- Node3 -->
<g id="Node000003" class="node">
<title>Node3</title>
<g id="a_Node000003"><a xlink:href="BranchPatchApplicator_8h.html" target="_top" xlink:title="Defines the BranchPatchApplicator class for applying patches to branch terrain cells in a spatial tre...">
<polygon fill="white" stroke="#666666" points="174,-558 0,-558 0,-495 174,-495 174,-558"/>
<text text-anchor="start" x="8" y="-546" font-family="Helvetica,sans-Serif" font-size="10.00">/home/runner/work/Weaver</text>
<text text-anchor="start" x="8" y="-535" font-family="Helvetica,sans-Serif" font-size="10.00">/Weaver/include/App/Model</text>
<text text-anchor="start" x="8" y="-524" font-family="Helvetica,sans-Serif" font-size="10.00">/IBM/Landscape/Map/SpatialTree</text>
<text text-anchor="start" x="8" y="-513" font-family="Helvetica,sans-Serif" font-size="10.00">/TerrainCells/PatchApplicator</text>
<text text-anchor="middle" x="87" y="-502" font-family="Helvetica,sans-Serif" font-size="10.00">/BranchPatchApplicator.h</text>
</a>
</g>
</g>
<!-- Node2&#45;&gt;Node3 -->
<g id="edge2_Node000002_Node000003" class="edge">
<title>Node2&#45;&gt;Node3</title>
<g id="a_edge2_Node000002_Node000003"><a xlink:title=" ">
<path fill="none" stroke="#63b8ff" d="M89.32,-583.69C88.97,-575.2 88.6,-566.38 88.27,-558.32"/>
<polygon fill="#63b8ff" stroke="#63b8ff" points="85.83,-583.96 89.73,-593.81 92.82,-583.67 85.83,-583.96"/>
</a>
</g>
</g>
<!-- Node4 -->
<g id="Node000004" class="node">
<title>Node4</title>
<g id="a_Node000004"><a xlink:href="BranchTerrainCell_8h.html" target="_top" xlink:title="Branch node implementation of a spatial tree terrain cell.">
<polygon fill="white" stroke="#666666" points="484,-371 310,-371 310,-319 484,-319 484,-371"/>
<text text-anchor="start" x="318" y="-359" font-family="Helvetica,sans-Serif" font-size="10.00">/home/runner/work/Weaver</text>
<text text-anchor="start" x="318" y="-348" font-family="Helvetica,sans-Serif" font-size="10.00">/Weaver/include/App/Model</text>
<text text-anchor="start" x="318" y="-337" font-family="Helvetica,sans-Serif" font-size="10.00">/IBM/Landscape/Map/SpatialTree</text>
<text text-anchor="middle" x="397" y="-326" font-family="Helvetica,sans-Serif" font-size="10.00">/TerrainCells/BranchTerrainCell.h</text>
</a>
</g>
</g>
<!-- Node3&#45;&gt;Node4 -->
<g id="edge3_Node000003_Node000004" class="edge">
<title>Node3&#45;&gt;Node4</title>
<g id="a_edge3_Node000003_Node000004"><a xlink:title=" ">
<path fill="none" stroke="#63b8ff" d="M139.17,-489.19C175.2,-464.75 224.62,-432.46 270,-407 292.72,-394.26 318.52,-381.56 340.9,-371.07"/>
<polygon fill="#63b8ff" stroke="#63b8ff" points="137.07,-486.39 130.77,-494.91 141.01,-492.17 137.07,-486.39"/>
</a>
</g>
</g>
<!-- Node5 -->
<g id="Node000005" class="node">
<title>Node5</title>
<g id="a_Node000005"><a xlink:href="RootTerrainCell_8h.html" target="_top" xlink:title="Defines the RootTerrainCell class, the top&#45;level node of the spatial tree in the landscape.">
<polygon fill="white" stroke="#666666" points="500,-283 326,-283 326,-231 500,-231 500,-283"/>
<text text-anchor="start" x="334" y="-271" font-family="Helvetica,sans-Serif" font-size="10.00">/home/runner/work/Weaver</text>
<text text-anchor="start" x="334" y="-260" font-family="Helvetica,sans-Serif" font-size="10.00">/Weaver/include/App/Model</text>
<text text-anchor="start" x="334" y="-249" font-family="Helvetica,sans-Serif" font-size="10.00">/IBM/Landscape/Map/SpatialTree</text>
<text text-anchor="middle" x="413" y="-238" font-family="Helvetica,sans-Serif" font-size="10.00">/TerrainCells/RootTerrainCell.h</text>
</a>
</g>
</g>
<!-- Node4&#45;&gt;Node5 -->
<g id="edge4_Node000004_Node000005" class="edge">
<title>Node4&#45;&gt;Node5</title>
<g id="a_edge4_Node000004_Node000005"><a xlink:title=" ">
<path fill="none" stroke="#63b8ff" d="M403.59,-308.56C405.18,-300.04 406.84,-291.1 408.32,-283.16"/>
<polygon fill="#63b8ff" stroke="#63b8ff" points="400.1,-308.19 401.71,-318.66 406.98,-309.47 400.1,-308.19"/>
</a>
</g>
</g>
<!-- Node6 -->
<g id="Node000006" class="node">
<title>Node6</title>
<g id="a_Node000006"><a xlink:href="SpatialTree_8h.html" target="_top" xlink:title="Defines the SpatialTree class, a spatially subdivided map implementation.">
<polygon fill="white" stroke="#666666" points="669.5,-195 486.5,-195 486.5,-154 669.5,-154 669.5,-195"/>
<text text-anchor="start" x="494.5" y="-183" font-family="Helvetica,sans-Serif" font-size="10.00">/home/runner/work/Weaver</text>
<text text-anchor="start" x="494.5" y="-172" font-family="Helvetica,sans-Serif" font-size="10.00">/Weaver/include/App/Model</text>
<text text-anchor="middle" x="578" y="-161" font-family="Helvetica,sans-Serif" font-size="10.00">/IBM/Landscape/Map/SpatialTree.h</text>
</a>
</g>
</g>
<!-- Node5&#45;&gt;Node6 -->
<g id="edge5_Node000005_Node000006" class="edge">
<title>Node5&#45;&gt;Node6</title>
<g id="a_edge5_Node000005_Node000006"><a xlink:title=" ">
<path fill="none" stroke="#63b8ff" d="M473.38,-226.54C494.91,-216.04 518.61,-204.48 538,-195.02"/>
<polygon fill="#63b8ff" stroke="#63b8ff" points="471.76,-223.44 464.3,-230.97 474.82,-229.73 471.76,-223.44"/>
</a>
</g>
</g>
<!-- Node7 -->
<g id="Node000007" class="node">
<title>Node7</title>
<g id="a_Node000007"><a xlink:href="Landscape_8h.html" target="_top" xlink:title="Doxygen&#45;documented declaration of the Landscape class and related serialization helpers.">
<polygon fill="white" stroke="#666666" points="776.5,-118 619.5,-118 619.5,-77 776.5,-77 776.5,-118"/>
<text text-anchor="start" x="627.5" y="-106" font-family="Helvetica,sans-Serif" font-size="10.00">/home/runner/work/Weaver</text>
<text text-anchor="start" x="627.5" y="-95" font-family="Helvetica,sans-Serif" font-size="10.00">/Weaver/include/App/Model</text>
<text text-anchor="middle" x="698" y="-84" font-family="Helvetica,sans-Serif" font-size="10.00">/IBM/Landscape/Landscape.h</text>
</a>
</g>
</g>
<!-- Node6&#45;&gt;Node7 -->
<g id="edge6_Node000006_Node000007" class="edge">
<title>Node6&#45;&gt;Node7</title>
<g id="a_edge6_Node000006_Node000007"><a xlink:title=" ">
<path fill="none" stroke="#63b8ff" d="M617.77,-148.64C633.62,-138.74 651.61,-127.5 666.52,-118.17"/>
<polygon fill="#63b8ff" stroke="#63b8ff" points="615.84,-145.72 609.22,-153.99 619.55,-151.66 615.84,-145.72"/>
</a>
</g>
</g>
<!-- Node8 -->
<g id="Node000008" class="node">
<title>Node8</title>
<g id="a_Node000008"><a xlink:href="IBM_8h.html" target="_top" xlink:title="Definition of the IBM class, representing the core individual&#45;based model of the simulation.">
<polygon fill="white" stroke="#666666" points="473.5,-41 324.5,-41 324.5,0 473.5,0 473.5,-41"/>
<text text-anchor="start" x="332.5" y="-29" font-family="Helvetica,sans-Serif" font-size="10.00">/home/runner/work/Weaver</text>
<text text-anchor="start" x="332.5" y="-18" font-family="Helvetica,sans-Serif" font-size="10.00">/Weaver/include/App/Model</text>
<text text-anchor="middle" x="399" y="-7" font-family="Helvetica,sans-Serif" font-size="10.00">/IBM/IBM.h</text>
</a>
</g>
</g>
<!-- Node7&#45;&gt;Node8 -->
<g id="edge7_Node000007_Node000008" class="edge">
<title>Node7&#45;&gt;Node8</title>
<g id="a_edge7_Node000007_Node000008"><a xlink:title=" ">
<path fill="none" stroke="#63b8ff" d="M610.52,-74.56C567.06,-63.65 515.1,-50.62 473.55,-40.2"/>
<polygon fill="#63b8ff" stroke="#63b8ff" points="609.67,-77.95 620.22,-76.99 611.37,-71.16 609.67,-77.95"/>
</a>
</g>
</g>
<!-- Node9 -->
<g id="Node000009" class="node">
<title>Node9</title>
<g id="a_Node000009"><a xlink:href="AquaticLandscape_8h.html" target="_top" xlink:title="Defines the AquaticLandscape class for aquatic ecosystem simulations.">
<polygon fill="white" stroke="#666666" points="685,-41 491,-41 491,0 685,0 685,-41"/>
<text text-anchor="start" x="499" y="-29" font-family="Helvetica,sans-Serif" font-size="10.00">/home/runner/work/Weaver</text>
<text text-anchor="start" x="499" y="-18" font-family="Helvetica,sans-Serif" font-size="10.00">/Weaver/include/App/Model</text>
<text text-anchor="middle" x="588" y="-7" font-family="Helvetica,sans-Serif" font-size="10.00">/IBM/Landscape/AquaticLandscape.h</text>
</a>
</g>
</g>
<!-- Node7&#45;&gt;Node9 -->
<g id="edge8_Node000007_Node000009" class="edge">
<title>Node7&#45;&gt;Node9</title>
<g id="a_edge8_Node000007_Node000009"><a xlink:title=" ">
<path fill="none" stroke="#63b8ff" d="M660.74,-71.09C646.4,-61.32 630.28,-50.32 616.85,-41.17"/>
<polygon fill="#63b8ff" stroke="#63b8ff" points="659.15,-74.25 669.39,-76.99 663.1,-68.47 659.15,-74.25"/>
</a>
</g>
</g>
<!-- Node10 -->
<g id="Node000010" class="node">
<title>Node10</title>
<g id="a_Node000010"><a xlink:href="ArthropodsLandscape_8h.html" target="_top" xlink:title="Defines the ArthropodsLandscape class for arthropod&#45;specific ecosystem simulations.">
<polygon fill="white" stroke="#666666" points="913,-41 703,-41 703,0 913,0 913,-41"/>
<text text-anchor="start" x="711" y="-29" font-family="Helvetica,sans-Serif" font-size="10.00">/home/runner/work/Weaver</text>
<text text-anchor="start" x="711" y="-18" font-family="Helvetica,sans-Serif" font-size="10.00">/Weaver/include/App/Model</text>
<text text-anchor="middle" x="808" y="-7" font-family="Helvetica,sans-Serif" font-size="10.00">/IBM/Landscape/ArthropodsLandscape.h</text>
</a>
</g>
</g>
<!-- Node7&#45;&gt;Node10 -->
<g id="edge9_Node000007_Node000010" class="edge">
<title>Node7&#45;&gt;Node10</title>
<g id="a_edge9_Node000007_Node000010"><a xlink:title=" ">
<path fill="none" stroke="#63b8ff" d="M735.26,-71.09C749.6,-61.32 765.72,-50.32 779.15,-41.17"/>
<polygon fill="#63b8ff" stroke="#63b8ff" points="732.9,-68.47 726.61,-76.99 736.85,-74.25 732.9,-68.47"/>
</a>
</g>
</g>
<!-- Node11 -->
<g id="Node000011" class="node">
<title>Node11</title>
<g id="a_Node000011"><a xlink:href="DinosaursLandscape_8h.html" target="_top" xlink:title="Defines the DinosaursLandscape class for dinosaur&#45;specific ecosystem simulations.">
<polygon fill="white" stroke="#666666" points="1137,-41 931,-41 931,0 1137,0 1137,-41"/>
<text text-anchor="start" x="939" y="-29" font-family="Helvetica,sans-Serif" font-size="10.00">/home/runner/work/Weaver</text>
<text text-anchor="start" x="939" y="-18" font-family="Helvetica,sans-Serif" font-size="10.00">/Weaver/include/App/Model</text>
<text text-anchor="middle" x="1034" y="-7" font-family="Helvetica,sans-Serif" font-size="10.00">/IBM/Landscape/DinosaursLandscape.h</text>
</a>
</g>
</g>
<!-- Node7&#45;&gt;Node11 -->
<g id="edge10_Node000007_Node000011" class="edge">
<title>Node7&#45;&gt;Node11</title>
<g id="a_edge10_Node000007_Node000011"><a xlink:title=" ">
<path fill="none" stroke="#63b8ff" d="M786.81,-76.68C836.19,-65.66 897.4,-51.99 946.56,-41.02"/>
<polygon fill="#63b8ff" stroke="#63b8ff" points="785.77,-73.32 776.78,-78.92 787.3,-80.15 785.77,-73.32"/>
</a>
</g>
</g>
<!-- Node13 -->
<g id="Node000013" class="node">
<title>Node13</title>
<g id="a_Node000013"><a xlink:href="LeafPatchApplicator_8h.html" target="_top" xlink:title="Defines the LeafPatchApplicator class for applying patches to leaf terrain cells in a spatial tree.">
<polygon fill="white" stroke="#666666" points="366,-558 192,-558 192,-495 366,-495 366,-558"/>
<text text-anchor="start" x="200" y="-546" font-family="Helvetica,sans-Serif" font-size="10.00">/home/runner/work/Weaver</text>
<text text-anchor="start" x="200" y="-535" font-family="Helvetica,sans-Serif" font-size="10.00">/Weaver/include/App/Model</text>
<text text-anchor="start" x="200" y="-524" font-family="Helvetica,sans-Serif" font-size="10.00">/IBM/Landscape/Map/SpatialTree</text>
<text text-anchor="start" x="200" y="-513" font-family="Helvetica,sans-Serif" font-size="10.00">/TerrainCells/PatchApplicator</text>
<text text-anchor="middle" x="279" y="-502" font-family="Helvetica,sans-Serif" font-size="10.00">/LeafPatchApplicator.h</text>
</a>
</g>
</g>
<!-- Node12&#45;&gt;Node13 -->
<g id="edge12_Node000012_Node000013" class="edge">
<title>Node12&#45;&gt;Node13</title>
<g id="a_edge12_Node000012_Node000013"><a xlink:title=" ">
<path fill="none" stroke="#63b8ff" d="M253.74,-682.72C259.56,-646.99 268.46,-592.29 273.99,-558.27"/>
<polygon fill="#63b8ff" stroke="#63b8ff" points="250.27,-682.27 252.12,-692.7 257.18,-683.4 250.27,-682.27"/>
</a>
</g>
</g>
<!-- Node14 -->
<g id="Node000014" class="node">
<title>Node14</title>
<g id="a_Node000014"><a xlink:href="LeafTerrainCell_8h.html" target="_top" xlink:title="Leaf node implementation of a spatial tree terrain cell.">
<polygon fill="white" stroke="#666666" points="453,-459 279,-459 279,-407 453,-407 453,-459"/>
<text text-anchor="start" x="287" y="-447" font-family="Helvetica,sans-Serif" font-size="10.00">/home/runner/work/Weaver</text>
<text text-anchor="start" x="287" y="-436" font-family="Helvetica,sans-Serif" font-size="10.00">/Weaver/include/App/Model</text>
<text text-anchor="start" x="287" y="-425" font-family="Helvetica,sans-Serif" font-size="10.00">/IBM/Landscape/Map/SpatialTree</text>
<text text-anchor="middle" x="366" y="-414" font-family="Helvetica,sans-Serif" font-size="10.00">/TerrainCells/LeafTerrainCell.h</text>
</a>
</g>
</g>
<!-- Node13&#45;&gt;Node14 -->
<g id="edge13_Node000013_Node000014" class="edge">
<title>Node13&#45;&gt;Node14</title>
<g id="a_edge13_Node000013_Node000014"><a xlink:title=" ">
<path fill="none" stroke="#63b8ff" d="M315.36,-487.26C324.43,-477.72 333.93,-467.73 342.21,-459.02"/>
<polygon fill="#63b8ff" stroke="#63b8ff" points="312.57,-485.12 308.21,-494.78 317.64,-489.94 312.57,-485.12"/>
</a>
</g>
</g>
<!-- Node14&#45;&gt;Node4 -->
<g id="edge14_Node000014_Node000004" class="edge">
<title>Node14&#45;&gt;Node4</title>
<g id="a_edge14_Node000014_Node000004"><a xlink:title=" ">
<path fill="none" stroke="#63b8ff" d="M378.57,-397.12C381.71,-388.43 385,-379.28 387.93,-371.16"/>
<polygon fill="#63b8ff" stroke="#63b8ff" points="375.23,-396.07 375.13,-406.66 381.82,-398.44 375.23,-396.07"/>
</a>
</g>
</g>
<!-- Node16 -->
<g id="Node000016" class="node">
<title>Node16</title>
<g id="a_Node000016"><a xlink:href="SpatialTreePatchApplicator_8h.html" target="_top" xlink:title="Defines the SpatialTreePatchApplicator class for applying patches in a spatial tree of terrain cells.">
<polygon fill="white" stroke="#666666" points="476,-657 302,-657 302,-594 476,-594 476,-657"/>
<text text-anchor="start" x="310" y="-645" font-family="Helvetica,sans-Serif" font-size="10.00">/home/runner/work/Weaver</text>
<text text-anchor="start" x="310" y="-634" font-family="Helvetica,sans-Serif" font-size="10.00">/Weaver/include/App/Model</text>
<text text-anchor="start" x="310" y="-623" font-family="Helvetica,sans-Serif" font-size="10.00">/IBM/Landscape/Map/SpatialTree</text>
<text text-anchor="start" x="310" y="-612" font-family="Helvetica,sans-Serif" font-size="10.00">/TerrainCells/PatchApplicator</text>
<text text-anchor="middle" x="389" y="-601" font-family="Helvetica,sans-Serif" font-size="10.00">/SpatialTreePatchApplicator.h</text>
</a>
</g>
</g>
<!-- Node15&#45;&gt;Node16 -->
<g id="edge16_Node000015_Node000016" class="edge">
<title>Node15&#45;&gt;Node16</title>
<g id="a_edge16_Node000015_Node000016"><a xlink:title=" ">
<path fill="none" stroke="#63b8ff" d="M437.73,-685.17C430.11,-675.99 421.85,-666.05 414.35,-657.02"/>
<polygon fill="#63b8ff" stroke="#63b8ff" points="435.15,-687.54 444.23,-693 440.54,-683.07 435.15,-687.54"/>
</a>
</g>
</g>
<!-- Node18 -->
<g id="Node000018" class="node">
<title>Node18</title>
<g id="a_Node000018"><a xlink:href="TerrainCell_8h.html" target="_top" xlink:title="Defines the TerrainCell class representing a cell in the landscape.">
<polygon fill="white" stroke="#666666" points="694.5,-651.5 517.5,-651.5 517.5,-599.5 694.5,-599.5 694.5,-651.5"/>
<text text-anchor="start" x="525.5" y="-639.5" font-family="Helvetica,sans-Serif" font-size="10.00">/home/runner/work/Weaver</text>
<text text-anchor="start" x="525.5" y="-628.5" font-family="Helvetica,sans-Serif" font-size="10.00">/Weaver/include/App/Model</text>
<text text-anchor="start" x="525.5" y="-617.5" font-family="Helvetica,sans-Serif" font-size="10.00">/IBM/Landscape/Map/TerrainCells</text>
<text text-anchor="middle" x="606" y="-606.5" font-family="Helvetica,sans-Serif" font-size="10.00">/TerrainCell.h</text>
</a>
</g>
</g>
<!-- Node15&#45;&gt;Node18 -->
<g id="edge23_Node000015_Node000018" class="edge">
<title>Node15&#45;&gt;Node18</title>
<g id="a_edge23_Node000015_Node000018"><a xlink:title=" ">
<path fill="none" stroke="#63b8ff" d="M512.08,-687.45C529.92,-675.87 550.02,-662.83 567.03,-651.79"/>
<polygon fill="#63b8ff" stroke="#63b8ff" points="510.01,-684.62 503.53,-693 513.82,-690.49 510.01,-684.62"/>
</a>
</g>
</g>
<!-- Node16&#45;&gt;Node3 -->
<g id="edge17_Node000016_Node000003" class="edge">
<title>Node16&#45;&gt;Node3</title>
<g id="a_edge17_Node000016_Node000003"><a xlink:title=" ">
<path fill="none" stroke="#63b8ff" d="M291.65,-593.23C253.86,-581.09 210.91,-567.3 174.15,-555.49"/>
<polygon fill="#63b8ff" stroke="#63b8ff" points="291.06,-596.72 301.65,-596.44 293.2,-590.05 291.06,-596.72"/>
</a>
</g>
</g>
<!-- Node16&#45;&gt;Node13 -->
<g id="edge18_Node000016_Node000013" class="edge">
<title>Node16&#45;&gt;Node13</title>
<g id="a_edge18_Node000016_Node000013"><a xlink:title=" ">
<path fill="none" stroke="#63b8ff" d="M346.5,-587.02C335.74,-577.53 324.3,-567.45 313.96,-558.32"/>
<polygon fill="#63b8ff" stroke="#63b8ff" points="344.38,-589.82 354.2,-593.81 349.01,-584.57 344.38,-589.82"/>
</a>
</g>
</g>
<!-- Node17 -->
<g id="Node000017" class="node">
<title>Node17</title>
<g id="a_Node000017"><a xlink:href="SpatialTreeTerrainCell_8h.html" target="_top" xlink:title="Spatial tree implementation of a terrain cell.">
<polygon fill="white" stroke="#666666" points="578,-552.5 384,-552.5 384,-500.5 578,-500.5 578,-552.5"/>
<text text-anchor="start" x="392" y="-540.5" font-family="Helvetica,sans-Serif" font-size="10.00">/home/runner/work/Weaver</text>
<text text-anchor="start" x="392" y="-529.5" font-family="Helvetica,sans-Serif" font-size="10.00">/Weaver/include/App/Model</text>
<text text-anchor="start" x="392" y="-518.5" font-family="Helvetica,sans-Serif" font-size="10.00">/IBM/Landscape/Map/SpatialTree</text>
<text text-anchor="middle" x="481" y="-507.5" font-family="Helvetica,sans-Serif" font-size="10.00">/TerrainCells/SpatialTreeTerrainCell.h</text>
</a>
</g>
</g>
<!-- Node16&#45;&gt;Node17 -->
<g id="edge19_Node000016_Node000017" class="edge">
<title>Node16&#45;&gt;Node17</title>
<g id="a_edge19_Node000016_Node000017"><a xlink:title=" ">
<path fill="none" stroke="#63b8ff" d="M425.03,-586.52C435.76,-575.2 447.25,-563.09 457.01,-552.8"/>
<polygon fill="#63b8ff" stroke="#63b8ff" points="422.45,-584.14 418.11,-593.81 427.53,-588.96 422.45,-584.14"/>
</a>
</g>
</g>
<!-- Node17&#45;&gt;Node4 -->
<g id="edge21_Node000017_Node000004" class="edge">
<title>Node17&#45;&gt;Node4</title>
<g id="a_edge21_Node000017_Node000004"><a xlink:title=" ">
<path fill="none" stroke="#63b8ff" d="M481.26,-490.43C480.08,-465.79 475.68,-432.76 462,-407 454.74,-393.33 443.24,-381.03 431.91,-371.12"/>
<polygon fill="#63b8ff" stroke="#63b8ff" points="477.76,-490.55 481.58,-500.43 484.76,-490.32 477.76,-490.55"/>
</a>
</g>
</g>
<!-- Node17&#45;&gt;Node6 -->
<g id="edge20_Node000017_Node000006" class="edge">
<title>Node17&#45;&gt;Node6</title>
<g id="a_edge20_Node000017_Node000006"><a xlink:title=" ">
<path fill="none" stroke="#63b8ff" d="M490.77,-490.26C510.98,-417.34 556.82,-251.92 572.57,-195.1"/>
<polygon fill="#63b8ff" stroke="#63b8ff" points="487.27,-489.76 487.98,-500.33 494.02,-491.63 487.27,-489.76"/>
</a>
</g>
</g>
<!-- Node17&#45;&gt;Node14 -->
<g id="edge22_Node000017_Node000014" class="edge">
<title>Node17&#45;&gt;Node14</title>
<g id="a_edge22_Node000017_Node000014"><a xlink:title=" ">
<path fill="none" stroke="#63b8ff" d="M441.41,-494C427.16,-482.66 411.28,-470.03 397.79,-459.29"/>
<polygon fill="#63b8ff" stroke="#63b8ff" points="439.57,-497.01 449.58,-500.5 443.93,-491.53 439.57,-497.01"/>
</a>
</g>
</g>
<!-- Node18&#45;&gt;Node6 -->
<g id="edge28_Node000018_Node000006" class="edge">
<title>Node18&#45;&gt;Node6</title>
<g id="a_edge28_Node000018_Node000006"><a xlink:title=" ">
<path fill="none" stroke="#63b8ff" d="M603.8,-589.2C598.21,-499.56 583.6,-265.26 579.24,-195.42"/>
<polygon fill="#63b8ff" stroke="#63b8ff" points="600.32,-589.63 604.43,-599.4 607.31,-589.2 600.32,-589.63"/>
</a>
</g>
</g>
<!-- Node18&#45;&gt;Node7 -->
<g id="edge24_Node000018_Node000007" class="edge">
<title>Node18&#45;&gt;Node7</title>
<g id="a_edge24_Node000018_Node000007"><a xlink:title=" ">
<path fill="none" stroke="#63b8ff" d="M667.03,-594.43C721.59,-562.76 793,-507.31 793,-434 793,-434 793,-434 793,-256 793,-199.48 747.59,-145.82 719.56,-118.09"/>
<polygon fill="#63b8ff" stroke="#63b8ff" points="665.06,-591.52 658.09,-599.5 668.52,-597.61 665.06,-591.52"/>
</a>
</g>
</g>
<!-- Node18&#45;&gt;Node17 -->
<g id="edge29_Node000018_Node000017" class="edge">
<title>Node18&#45;&gt;Node17</title>
<g id="a_edge29_Node000018_Node000017"><a xlink:title=" ">
<path fill="none" stroke="#63b8ff" d="M565.42,-593.01C548.55,-579.92 529.24,-564.94 513.35,-552.61"/>
<polygon fill="#63b8ff" stroke="#63b8ff" points="563.44,-595.9 573.48,-599.27 567.73,-590.37 563.44,-595.9"/>
</a>
</g>
</g>
<!-- Node19 -->
<g id="Node000019" class="node">
<title>Node19</title>
<g id="a_Node000019"><a xlink:href="Map_8h.html" target="_top" xlink:title="Defines the Map class for spatial organization of landscapes.">
<polygon fill="white" stroke="#666666" points="765,-277.5 615,-277.5 615,-236.5 765,-236.5 765,-277.5"/>
<text text-anchor="start" x="623" y="-265.5" font-family="Helvetica,sans-Serif" font-size="10.00">/home/runner/work/Weaver</text>
<text text-anchor="start" x="623" y="-254.5" font-family="Helvetica,sans-Serif" font-size="10.00">/Weaver/include/App/Model</text>
<text text-anchor="middle" x="690" y="-243.5" font-family="Helvetica,sans-Serif" font-size="10.00">/IBM/Landscape/Map/Map.h</text>
</a>
</g>
</g>
<!-- Node18&#45;&gt;Node19 -->
<g id="edge25_Node000018_Node000019" class="edge">
<title>Node18&#45;&gt;Node19</title>
<g id="a_edge25_Node000018_Node000019"><a xlink:title=" ">
<path fill="none" stroke="#63b8ff" d="M614.07,-589.31C631.43,-513.56 671.87,-337.1 685.46,-277.82"/>
<polygon fill="#63b8ff" stroke="#63b8ff" points="610.6,-588.78 611.77,-599.31 617.42,-590.34 610.6,-588.78"/>
</a>
</g>
</g>
<!-- Node19&#45;&gt;Node6 -->
<g id="edge27_Node000019_Node000006" class="edge">
<title>Node19&#45;&gt;Node6</title>
<g id="a_edge27_Node000019_Node000006"><a xlink:title=" ">
<path fill="none" stroke="#63b8ff" d="M654.14,-230.22C638.38,-218.9 620.16,-205.81 605.5,-195.27"/>
<polygon fill="#63b8ff" stroke="#63b8ff" points="652.44,-233.31 662.6,-236.31 656.52,-227.63 652.44,-233.31"/>
</a>
</g>
</g>
<!-- Node19&#45;&gt;Node7 -->
<g id="edge26_Node000019_Node000007" class="edge">
<title>Node19&#45;&gt;Node7</title>
<g id="a_edge26_Node000019_Node000007"><a xlink:title=" ">
<path fill="none" stroke="#63b8ff" d="M691.53,-225.97C693.13,-194.37 695.61,-145.51 696.99,-118.38"/>
<polygon fill="#63b8ff" stroke="#63b8ff" points="688.01,-226.21 691,-236.37 695,-226.56 688.01,-226.21"/>
</a>
</g>
</g>
</g>
</svg>
