<?xml version="1.0" encoding="UTF-8" standalone="no"?>
<!DOCTYPE svg PUBLIC "-//W3C//DTD SVG 1.1//EN"
 "http://www.w3.org/Graphics/SVG/1.1/DTD/svg11.dtd">
<!-- Generated by graphviz version 2.43.0 (0)
 -->
<!-- Title: /home/runner/work/Weaver/Weaver/include/App/Model/IBM/Landscape/Map/TerrainCells/PatchApplicator/Resources/CellResource.h Pages: 1 -->
<!--zoomable 852 -->

<svg id="main" version="1.1" xmlns="http://www.w3.org/2000/svg" xmlns:xlink="http://www.w3.org/1999/xlink" xml:space="preserve" onload="init(evt)">
<style type="text/css"><![CDATA[
.node, .edge {opacity: 0.7;}
.node.selected, .edge.selected {opacity: 1;}
.edge:hover path { stroke: red; }
.edge:hover polygon { stroke: red; fill: red; }
]]></style>

<defs>
  <circle id="rim" cx="0" cy="0" r="7"/>
  <circle id="rim2" cx="0" cy="0" r="3.5"/>
  <g id="zoomPlus">
    <use xlink:href="#rim" fill="#404040"><set attributeName="fill" to="#808080" begin="zoomplus.mouseover" end="zoomplus.mouseout"/></use>
    <path d="M-4,0h8M0,-4v8" fill="none" stroke="white" stroke-width="1.5" pointer-events="none"/>
  </g>
  <g id="zoomMin">
    <use xlink:href="#rim" fill="#404040"><set attributeName="fill" to="#808080" begin="zoomminus.mouseover" end="zoomminus.mouseout"/></use>
    <path d="M-4,0h8" fill="none" stroke="white" stroke-width="1.5" pointer-events="none"/>
  </g>
  <g id="arrowUp" transform="translate(30 24)">
    <use xlink:href="#rim"/>
    <path pointer-events="none" fill="none" stroke="white" stroke-width="1.5" d="M0,-3.0v7 M-2.5,-0.5L0,-3.0L2.5,-0.5"/>
  </g>
  <g id="arrowRight" transform="rotate(90) translate(36 -43)">
    <use xlink:href="#rim"/>
    <path pointer-events="none" fill="none" stroke="white" stroke-width="1.5" d="M0,-3.0v7 M-2.5,-0.5L0,-3.0L2.5,-0.5"/>
  </g>
  <g id="arrowDown" transform="rotate(180) translate(-30 -48)">
    <use xlink:href="#rim"/>
    <path pointer-events="none" fill="none" stroke="white" stroke-width="1.5" d="M0,-3.0v7 M-2.5,-0.5L0,-3.0L2.5,-0.5"/>
  </g>
  <g id="arrowLeft" transform="rotate(270) translate(-36 17)">
    <use xlink:href="#rim"/>
    <path pointer-events="none" fill="none" stroke="white" stroke-width="1.5" d="M0,-3.0v7 M-2.5,-0.5L0,-3.0L2.5,-0.5"/>
  </g>
  <g id="resetDef">
    <use xlink:href="#rim2" fill="#404040"><set attributeName="fill" to="#808080" begin="reset.mouseover" end="reset.mouseout"/></use>
  </g>
</defs>
<script type="application/ecmascript">
var viewWidth = 988;
var viewHeight = 852;
var sectionId = 'dynsection-1';
</script>
<script type="application/ecmascript" xlink:href="svg.min.js"/>
<svg id="graph" class="graph">
<g id="viewport">
<title>/home/runner/work/Weaver/Weaver/include/App/Model/IBM/Landscape/Map/TerrainCells/PatchApplicator/Resources/CellResource.h</title>
<!-- Node1 -->
<g id="Node000001" class="node">
<title>Node1</title>
<g id="a_Node000001"><a xlink:title="Implementation of a resource cell in a terrain.">
<polygon fill="#999999" stroke="#666666" points="303,-844 79,-844 79,-792 303,-792 303,-844"/>
<text text-anchor="start" x="87" y="-832" font-family="Helvetica,sans-Serif" font-size="10.00">/home/runner/work/Weaver</text>
<text text-anchor="start" x="87" y="-821" font-family="Helvetica,sans-Serif" font-size="10.00">/Weaver/include/App/Model</text>
<text text-anchor="start" x="87" y="-810" font-family="Helvetica,sans-Serif" font-size="10.00">/IBM/Landscape/Map/TerrainCells</text>
<text text-anchor="middle" x="191" y="-799" font-family="Helvetica,sans-Serif" font-size="10.00">/PatchApplicator/Resources/CellResource.h</text>
</a>
</g>
</g>
<!-- Node2 -->
<g id="Node000002" class="node">
<title>Node2</title>
<g id="a_Node000002"><a xlink:href="Landscape_8h.html" target="_top" xlink:title="Doxygen&#45;documented declaration of the Landscape class and related serialization helpers.">
<polygon fill="white" stroke="#666666" points="619.5,-118 462.5,-118 462.5,-77 619.5,-77 619.5,-118"/>
<text text-anchor="start" x="470.5" y="-106" font-family="Helvetica,sans-Serif" font-size="10.00">/home/runner/work/Weaver</text>
<text text-anchor="start" x="470.5" y="-95" font-family="Helvetica,sans-Serif" font-size="10.00">/Weaver/include/App/Model</text>
<text text-anchor="middle" x="541" y="-84" font-family="Helvetica,sans-Serif" font-size="10.00">/IBM/Landscape/Landscape.h</text>
</a>
</g>
</g>
<!-- Node1&#45;&gt;Node2 -->
<g id="edge1_Node000001_Node000002" class="edge">
<title>Node1&#45;&gt;Node2</title>
<g id="a_edge1_Node000001_Node000002"><a xlink:title=" ">
<path fill="none" stroke="#63b8ff" d="M123.61,-787.28C68.63,-757.94 0,-707.33 0,-637.5 0,-637.5 0,-637.5 0,-256 0,-160.87 312.29,-119.38 462.33,-104.93"/>
<polygon fill="#63b8ff" stroke="#63b8ff" points="122.17,-790.48 132.66,-791.99 125.4,-784.27 122.17,-790.48"/>
</a>
</g>
</g>
<!-- Node7 -->
<g id="Node000007" class="node">
<title>Node7</title>
<g id="a_Node000007"><a xlink:href="LeafPatchApplicator_8h.html" target="_top" xlink:title="Defines the LeafPatchApplicator class for applying patches to leaf terrain cells in a spatial tree.">
<polygon fill="white" stroke="#666666" points="219,-569 45,-569 45,-506 219,-506 219,-569"/>
<text text-anchor="start" x="53" y="-557" font-family="Helvetica,sans-Serif" font-size="10.00">/home/runner/work/Weaver</text>
<text text-anchor="start" x="53" y="-546" font-family="Helvetica,sans-Serif" font-size="10.00">/Weaver/include/App/Model</text>
<text text-anchor="start" x="53" y="-535" font-family="Helvetica,sans-Serif" font-size="10.00">/IBM/Landscape/Map/SpatialTree</text>
<text text-anchor="start" x="53" y="-524" font-family="Helvetica,sans-Serif" font-size="10.00">/TerrainCells/PatchApplicator</text>
<text text-anchor="middle" x="132" y="-513" font-family="Helvetica,sans-Serif" font-size="10.00">/LeafPatchApplicator.h</text>
</a>
</g>
</g>
<!-- Node1&#45;&gt;Node7 -->
<g id="edge6_Node000001_Node000007" class="edge">
<title>Node1&#45;&gt;Node7</title>
<g id="a_edge6_Node000001_Node000007"><a xlink:title=" ">
<path fill="none" stroke="#63b8ff" d="M164.71,-783.29C159.3,-774.8 154.26,-765.41 151,-756 128.9,-692.25 128.35,-612 130.06,-569.02"/>
<polygon fill="#63b8ff" stroke="#63b8ff" points="161.94,-785.44 170.42,-791.78 167.74,-781.53 161.94,-785.44"/>
</a>
</g>
</g>
<!-- Node12 -->
<g id="Node000012" class="node">
<title>Node12</title>
<g id="a_Node000012"><a xlink:href="PatchApplicator_8h.html" target="_top" xlink:title="Defines the PatchApplicator class responsible for applying patches (moisture, resource,...">
<polygon fill="white" stroke="#666666" points="342,-756 160,-756 160,-704 342,-704 342,-756"/>
<text text-anchor="start" x="168" y="-744" font-family="Helvetica,sans-Serif" font-size="10.00">/home/runner/work/Weaver</text>
<text text-anchor="start" x="168" y="-733" font-family="Helvetica,sans-Serif" font-size="10.00">/Weaver/include/App/Model</text>
<text text-anchor="start" x="168" y="-722" font-family="Helvetica,sans-Serif" font-size="10.00">/IBM/Landscape/Map/TerrainCells</text>
<text text-anchor="middle" x="251" y="-711" font-family="Helvetica,sans-Serif" font-size="10.00">/PatchApplicator/PatchApplicator.h</text>
</a>
</g>
</g>
<!-- Node1&#45;&gt;Node12 -->
<g id="edge12_Node000001_Node000012" class="edge">
<title>Node1&#45;&gt;Node12</title>
<g id="a_edge12_Node000001_Node000012"><a xlink:title=" ">
<path fill="none" stroke="#63b8ff" d="M214.55,-783.24C220.85,-774.22 227.54,-764.63 233.45,-756.16"/>
<polygon fill="#63b8ff" stroke="#63b8ff" points="211.53,-781.46 208.68,-791.66 217.27,-785.46 211.53,-781.46"/>
</a>
</g>
</g>
<!-- Node16 -->
<g id="Node000016" class="node">
<title>Node16</title>
<g id="a_Node000016"><a xlink:href="TerrainCell_8h.html" target="_top" xlink:title="Defines the TerrainCell class representing a cell in the landscape.">
<polygon fill="white" stroke="#666666" points="559.5,-662.5 382.5,-662.5 382.5,-610.5 559.5,-610.5 559.5,-662.5"/>
<text text-anchor="start" x="390.5" y="-650.5" font-family="Helvetica,sans-Serif" font-size="10.00">/home/runner/work/Weaver</text>
<text text-anchor="start" x="390.5" y="-639.5" font-family="Helvetica,sans-Serif" font-size="10.00">/Weaver/include/App/Model</text>
<text text-anchor="start" x="390.5" y="-628.5" font-family="Helvetica,sans-Serif" font-size="10.00">/IBM/Landscape/Map/TerrainCells</text>
<text text-anchor="middle" x="471" y="-617.5" font-family="Helvetica,sans-Serif" font-size="10.00">/TerrainCell.h</text>
</a>
</g>
</g>
<!-- Node1&#45;&gt;Node16 -->
<g id="edge28_Node000001_Node000016" class="edge">
<title>Node1&#45;&gt;Node16</title>
<g id="a_edge28_Node000001_Node000016"><a xlink:title=" ">
<path fill="none" stroke="#63b8ff" d="M285.84,-788.27C308.09,-779.55 331.09,-768.81 351,-756 391.14,-730.18 428.81,-689.2 450.89,-662.83"/>
<polygon fill="#63b8ff" stroke="#63b8ff" points="284.46,-785.05 276.37,-791.88 286.96,-791.59 284.46,-785.05"/>
</a>
</g>
</g>
<!-- Node3 -->
<g id="Node000003" class="node">
<title>Node3</title>
<g id="a_Node000003"><a xlink:href="IBM_8h.html" target="_top" xlink:title="Definition of the IBM class, representing the core individual&#45;based model of the simulation.">
<polygon fill="white" stroke="#666666" points="316.5,-41 167.5,-41 167.5,0 316.5,0 316.5,-41"/>
<text text-anchor="start" x="175.5" y="-29" font-family="Helvetica,sans-Serif" font-size="10.00">/home/runner/work/Weaver</text>
<text text-anchor="start" x="175.5" y="-18" font-family="Helvetica,sans-Serif" font-size="10.00">/Weaver/include/App/Model</text>
<text text-anchor="middle" x="242" y="-7" font-family="Helvetica,sans-Serif" font-size="10.00">/IBM/IBM.h</text>
</a>
</g>
</g>
<!-- Node2&#45;&gt;Node3 -->
<g id="edge2_Node000002_Node000003" class="edge">
<title>Node2&#45;&gt;Node3</title>
<g id="a_edge2_Node000002_Node000003"><a xlink:title=" ">
<path fill="none" stroke="#63b8ff" d="M453.52,-74.56C410.06,-63.65 358.1,-50.62 316.55,-40.2"/>
<polygon fill="#63b8ff" stroke="#63b8ff" points="452.67,-77.95 463.22,-76.99 454.37,-71.16 452.67,-77.95"/>
</a>
</g>
</g>
<!-- Node4 -->
<g id="Node000004" class="node">
<title>Node4</title>
<g id="a_Node000004"><a xlink:href="AquaticLandscape_8h.html" target="_top" xlink:title="Defines the AquaticLandscape class for aquatic ecosystem simulations.">
<polygon fill="white" stroke="#666666" points="528,-41 334,-41 334,0 528,0 528,-41"/>
<text text-anchor="start" x="342" y="-29" font-family="Helvetica,sans-Serif" font-size="10.00">/home/runner/work/Weaver</text>
<text text-anchor="start" x="342" y="-18" font-family="Helvetica,sans-Serif" font-size="10.00">/Weaver/include/App/Model</text>
<text text-anchor="middle" x="431" y="-7" font-family="Helvetica,sans-Serif" font-size="10.00">/IBM/Landscape/AquaticLandscape.h</text>
</a>
</g>
</g>
<!-- Node2&#45;&gt;Node4 -->
<g id="edge3_Node000002_Node000004" class="edge">
<title>Node2&#45;&gt;Node4</title>
<g id="a_edge3_Node000002_Node000004"><a xlink:title=" ">
<path fill="none" stroke="#63b8ff" d="M503.74,-71.09C489.4,-61.32 473.28,-50.32 459.85,-41.17"/>
<polygon fill="#63b8ff" stroke="#63b8ff" points="502.15,-74.25 512.39,-76.99 506.1,-68.47 502.15,-74.25"/>
</a>
</g>
</g>
<!-- Node5 -->
<g id="Node000005" class="node">
<title>Node5</title>
<g id="a_Node000005"><a xlink:href="ArthropodsLandscape_8h.html" target="_top" xlink:title="Defines the ArthropodsLandscape class for arthropod&#45;specific ecosystem simulations.">
<polygon fill="white" stroke="#666666" points="756,-41 546,-41 546,0 756,0 756,-41"/>
<text text-anchor="start" x="554" y="-29" font-family="Helvetica,sans-Serif" font-size="10.00">/home/runner/work/Weaver</text>
<text text-anchor="start" x="554" y="-18" font-family="Helvetica,sans-Serif" font-size="10.00">/Weaver/include/App/Model</text>
<text text-anchor="middle" x="651" y="-7" font-family="Helvetica,sans-Serif" font-size="10.00">/IBM/Landscape/ArthropodsLandscape.h</text>
</a>
</g>
</g>
<!-- Node2&#45;&gt;Node5 -->
<g id="edge4_Node000002_Node000005" class="edge">
<title>Node2&#45;&gt;Node5</title>
<g id="a_edge4_Node000002_Node000005"><a xlink:title=" ">
<path fill="none" stroke="#63b8ff" d="M578.26,-71.09C592.6,-61.32 608.72,-50.32 622.15,-41.17"/>
<polygon fill="#63b8ff" stroke="#63b8ff" points="575.9,-68.47 569.61,-76.99 579.85,-74.25 575.9,-68.47"/>
</a>
</g>
</g>
<!-- Node6 -->
<g id="Node000006" class="node">
<title>Node6</title>
<g id="a_Node000006"><a xlink:href="DinosaursLandscape_8h.html" target="_top" xlink:title="Defines the DinosaursLandscape class for dinosaur&#45;specific ecosystem simulations.">
<polygon fill="white" stroke="#666666" points="980,-41 774,-41 774,0 980,0 980,-41"/>
<text text-anchor="start" x="782" y="-29" font-family="Helvetica,sans-Serif" font-size="10.00">/home/runner/work/Weaver</text>
<text text-anchor="start" x="782" y="-18" font-family="Helvetica,sans-Serif" font-size="10.00">/Weaver/include/App/Model</text>
<text text-anchor="middle" x="877" y="-7" font-family="Helvetica,sans-Serif" font-size="10.00">/IBM/Landscape/DinosaursLandscape.h</text>
</a>
</g>
</g>
<!-- Node2&#45;&gt;Node6 -->
<g id="edge5_Node000002_Node000006" class="edge">
<title>Node2&#45;&gt;Node6</title>
<g id="a_edge5_Node000002_Node000006"><a xlink:title=" ">
<path fill="none" stroke="#63b8ff" d="M629.81,-76.68C679.19,-65.66 740.4,-51.99 789.56,-41.02"/>
<polygon fill="#63b8ff" stroke="#63b8ff" points="628.77,-73.32 619.78,-78.92 630.3,-80.15 628.77,-73.32"/>
</a>
</g>
</g>
<!-- Node8 -->
<g id="Node000008" class="node">
<title>Node8</title>
<g id="a_Node000008"><a xlink:href="LeafTerrainCell_8h.html" target="_top" xlink:title="Leaf node implementation of a spatial tree terrain cell.">
<polygon fill="white" stroke="#666666" points="202,-464.5 28,-464.5 28,-412.5 202,-412.5 202,-464.5"/>
<text text-anchor="start" x="36" y="-452.5" font-family="Helvetica,sans-Serif" font-size="10.00">/home/runner/work/Weaver</text>
<text text-anchor="start" x="36" y="-441.5" font-family="Helvetica,sans-Serif" font-size="10.00">/Weaver/include/App/Model</text>
<text text-anchor="start" x="36" y="-430.5" font-family="Helvetica,sans-Serif" font-size="10.00">/IBM/Landscape/Map/SpatialTree</text>
<text text-anchor="middle" x="115" y="-419.5" font-family="Helvetica,sans-Serif" font-size="10.00">/TerrainCells/LeafTerrainCell.h</text>
</a>
</g>
</g>
<!-- Node7&#45;&gt;Node8 -->
<g id="edge7_Node000007_Node000008" class="edge">
<title>Node7&#45;&gt;Node8</title>
<g id="a_edge7_Node000007_Node000008"><a xlink:title=" ">
<path fill="none" stroke="#63b8ff" d="M124.89,-495.92C123.04,-485.37 121.1,-474.3 119.43,-464.8"/>
<polygon fill="#63b8ff" stroke="#63b8ff" points="121.45,-496.56 126.62,-505.81 128.34,-495.35 121.45,-496.56"/>
</a>
</g>
</g>
<!-- Node9 -->
<g id="Node000009" class="node">
<title>Node9</title>
<g id="a_Node000009"><a xlink:href="BranchTerrainCell_8h.html" target="_top" xlink:title="Branch node implementation of a spatial tree terrain cell.">
<polygon fill="white" stroke="#666666" points="413,-371 239,-371 239,-319 413,-319 413,-371"/>
<text text-anchor="start" x="247" y="-359" font-family="Helvetica,sans-Serif" font-size="10.00">/home/runner/work/Weaver</text>
<text text-anchor="start" x="247" y="-348" font-family="Helvetica,sans-Serif" font-size="10.00">/Weaver/include/App/Model</text>
<text text-anchor="start" x="247" y="-337" font-family="Helvetica,sans-Serif" font-size="10.00">/IBM/Landscape/Map/SpatialTree</text>
<text text-anchor="middle" x="326" y="-326" font-family="Helvetica,sans-Serif" font-size="10.00">/TerrainCells/BranchTerrainCell.h</text>
</a>
</g>
</g>
<!-- Node8&#45;&gt;Node9 -->
<g id="edge8_Node000008_Node000009" class="edge">
<title>Node8&#45;&gt;Node9</title>
<g id="a_edge8_Node000008_Node000009"><a xlink:title=" ">
<path fill="none" stroke="#63b8ff" d="M181.88,-408.5C209.56,-396.49 241.37,-382.7 268.05,-371.13"/>
<polygon fill="#63b8ff" stroke="#63b8ff" points="180.44,-405.31 172.66,-412.5 183.22,-411.73 180.44,-405.31"/>
</a>
</g>
</g>
<!-- Node10 -->
<g id="Node000010" class="node">
<title>Node10</title>
<g id="a_Node000010"><a xlink:href="RootTerrainCell_8h.html" target="_top" xlink:title="Defines the RootTerrainCell class, the top&#45;level node of the spatial tree in the landscape.">
<polygon fill="white" stroke="#666666" points="422,-283 248,-283 248,-231 422,-231 422,-283"/>
<text text-anchor="start" x="256" y="-271" font-family="Helvetica,sans-Serif" font-size="10.00">/home/runner/work/Weaver</text>
<text text-anchor="start" x="256" y="-260" font-family="Helvetica,sans-Serif" font-size="10.00">/Weaver/include/App/Model</text>
<text text-anchor="start" x="256" y="-249" font-family="Helvetica,sans-Serif" font-size="10.00">/IBM/Landscape/Map/SpatialTree</text>
<text text-anchor="middle" x="335" y="-238" font-family="Helvetica,sans-Serif" font-size="10.00">/TerrainCells/RootTerrainCell.h</text>
</a>
</g>
</g>
<!-- Node9&#45;&gt;Node10 -->
<g id="edge9_Node000009_Node000010" class="edge">
<title>Node9&#45;&gt;Node10</title>
<g id="a_edge9_Node000009_Node000010"><a xlink:title=" ">
<path fill="none" stroke="#63b8ff" d="M329.71,-308.56C330.6,-300.04 331.54,-291.1 332.37,-283.16"/>
<polygon fill="#63b8ff" stroke="#63b8ff" points="326.21,-308.35 328.65,-318.66 333.17,-309.08 326.21,-308.35"/>
</a>
</g>
</g>
<!-- Node11 -->
<g id="Node000011" class="node">
<title>Node11</title>
<g id="a_Node000011"><a xlink:href="SpatialTree_8h.html" target="_top" xlink:title="Defines the SpatialTree class, a spatially subdivided map implementation.">
<polygon fill="white" stroke="#666666" points="572.5,-195 389.5,-195 389.5,-154 572.5,-154 572.5,-195"/>
<text text-anchor="start" x="397.5" y="-183" font-family="Helvetica,sans-Serif" font-size="10.00">/home/runner/work/Weaver</text>
<text text-anchor="start" x="397.5" y="-172" font-family="Helvetica,sans-Serif" font-size="10.00">/Weaver/include/App/Model</text>
<text text-anchor="middle" x="481" y="-161" font-family="Helvetica,sans-Serif" font-size="10.00">/IBM/Landscape/Map/SpatialTree.h</text>
</a>
</g>
</g>
<!-- Node10&#45;&gt;Node11 -->
<g id="edge10_Node000010_Node000011" class="edge">
<title>Node10&#45;&gt;Node11</title>
<g id="a_edge10_Node000010_Node000011"><a xlink:title=" ">
<path fill="none" stroke="#63b8ff" d="M389.16,-226.14C407.92,-215.79 428.47,-204.46 445.37,-195.15"/>
<polygon fill="#63b8ff" stroke="#63b8ff" points="387.46,-223.08 380.39,-230.97 390.84,-229.21 387.46,-223.08"/>
</a>
</g>
</g>
<!-- Node11&#45;&gt;Node2 -->
<g id="edge11_Node000011_Node000002" class="edge">
<title>Node11&#45;&gt;Node2</title>
<g id="a_edge11_Node000011_Node000002"><a xlink:title=" ">
<path fill="none" stroke="#63b8ff" d="M503.04,-145.95C510.44,-136.7 518.53,-126.58 525.34,-118.07"/>
<polygon fill="#63b8ff" stroke="#63b8ff" points="500.28,-143.8 496.76,-153.79 505.74,-148.17 500.28,-143.8"/>
</a>
</g>
</g>
<!-- Node13 -->
<g id="Node000013" class="node">
<title>Node13</title>
<g id="a_Node000013"><a xlink:href="SpatialTreePatchApplicator_8h.html" target="_top" xlink:title="Defines the SpatialTreePatchApplicator class for applying patches in a spatial tree of terrain cells.">
<polygon fill="white" stroke="#666666" points="336,-668 162,-668 162,-605 336,-605 336,-668"/>
<text text-anchor="start" x="170" y="-656" font-family="Helvetica,sans-Serif" font-size="10.00">/home/runner/work/Weaver</text>
<text text-anchor="start" x="170" y="-645" font-family="Helvetica,sans-Serif" font-size="10.00">/Weaver/include/App/Model</text>
<text text-anchor="start" x="170" y="-634" font-family="Helvetica,sans-Serif" font-size="10.00">/IBM/Landscape/Map/SpatialTree</text>
<text text-anchor="start" x="170" y="-623" font-family="Helvetica,sans-Serif" font-size="10.00">/TerrainCells/PatchApplicator</text>
<text text-anchor="middle" x="249" y="-612" font-family="Helvetica,sans-Serif" font-size="10.00">/SpatialTreePatchApplicator.h</text>
</a>
</g>
</g>
<!-- Node12&#45;&gt;Node13 -->
<g id="edge13_Node000012_Node000013" class="edge">
<title>Node12&#45;&gt;Node13</title>
<g id="a_edge13_Node000012_Node000013"><a xlink:title=" ">
<path fill="none" stroke="#63b8ff" d="M250.23,-693.93C250.05,-685.39 249.85,-676.32 249.67,-668.02"/>
<polygon fill="#63b8ff" stroke="#63b8ff" points="246.74,-694.08 250.45,-704 253.73,-693.92 246.74,-694.08"/>
</a>
</g>
</g>
<!-- Node12&#45;&gt;Node16 -->
<g id="edge21_Node000012_Node000016" class="edge">
<title>Node12&#45;&gt;Node16</title>
<g id="a_edge21_Node000012_Node000016"><a xlink:title=" ">
<path fill="none" stroke="#63b8ff" d="M320.35,-700.16C349.31,-688.11 382.64,-674.25 410.57,-662.63"/>
<polygon fill="#63b8ff" stroke="#63b8ff" points="319.01,-696.93 311.12,-704 321.69,-703.39 319.01,-696.93"/>
</a>
</g>
</g>
<!-- Node13&#45;&gt;Node7 -->
<g id="edge16_Node000013_Node000007" class="edge">
<title>Node13&#45;&gt;Node7</title>
<g id="a_edge16_Node000013_Node000007"><a xlink:title=" ">
<path fill="none" stroke="#63b8ff" d="M204.13,-598.3C192.58,-588.73 180.29,-578.53 169.18,-569.32"/>
<polygon fill="#63b8ff" stroke="#63b8ff" points="202.05,-601.12 211.98,-604.81 206.52,-595.73 202.05,-601.12"/>
</a>
</g>
</g>
<!-- Node14 -->
<g id="Node000014" class="node">
<title>Node14</title>
<g id="a_Node000014"><a xlink:href="BranchPatchApplicator_8h.html" target="_top" xlink:title="Defines the BranchPatchApplicator class for applying patches to branch terrain cells in a spatial tre...">
<polygon fill="white" stroke="#666666" points="394,-470 220,-470 220,-407 394,-407 394,-470"/>
<text text-anchor="start" x="228" y="-458" font-family="Helvetica,sans-Serif" font-size="10.00">/home/runner/work/Weaver</text>
<text text-anchor="start" x="228" y="-447" font-family="Helvetica,sans-Serif" font-size="10.00">/Weaver/include/App/Model</text>
<text text-anchor="start" x="228" y="-436" font-family="Helvetica,sans-Serif" font-size="10.00">/IBM/Landscape/Map/SpatialTree</text>
<text text-anchor="start" x="228" y="-425" font-family="Helvetica,sans-Serif" font-size="10.00">/TerrainCells/PatchApplicator</text>
<text text-anchor="middle" x="307" y="-414" font-family="Helvetica,sans-Serif" font-size="10.00">/BranchPatchApplicator.h</text>
</a>
</g>
</g>
<!-- Node13&#45;&gt;Node14 -->
<g id="edge14_Node000013_Node000014" class="edge">
<title>Node13&#45;&gt;Node14</title>
<g id="a_edge14_Node000013_Node000014"><a xlink:title=" ">
<path fill="none" stroke="#63b8ff" d="M250.48,-594.6C252.43,-568.61 256.89,-534.59 267,-506 271.36,-493.68 278.15,-481.15 284.92,-470.33"/>
<polygon fill="#63b8ff" stroke="#63b8ff" points="246.97,-594.65 249.8,-604.85 253.95,-595.1 246.97,-594.65"/>
</a>
</g>
</g>
<!-- Node15 -->
<g id="Node000015" class="node">
<title>Node15</title>
<g id="a_Node000015"><a xlink:href="SpatialTreeTerrainCell_8h.html" target="_top" xlink:title="Spatial tree implementation of a terrain cell.">
<polygon fill="white" stroke="#666666" points="470,-563.5 276,-563.5 276,-511.5 470,-511.5 470,-563.5"/>
<text text-anchor="start" x="284" y="-551.5" font-family="Helvetica,sans-Serif" font-size="10.00">/home/runner/work/Weaver</text>
<text text-anchor="start" x="284" y="-540.5" font-family="Helvetica,sans-Serif" font-size="10.00">/Weaver/include/App/Model</text>
<text text-anchor="start" x="284" y="-529.5" font-family="Helvetica,sans-Serif" font-size="10.00">/IBM/Landscape/Map/SpatialTree</text>
<text text-anchor="middle" x="373" y="-518.5" font-family="Helvetica,sans-Serif" font-size="10.00">/TerrainCells/SpatialTreeTerrainCell.h</text>
</a>
</g>
</g>
<!-- Node13&#45;&gt;Node15 -->
<g id="edge17_Node000013_Node000015" class="edge">
<title>Node13&#45;&gt;Node15</title>
<g id="a_edge17_Node000013_Node000015"><a xlink:title=" ">
<path fill="none" stroke="#63b8ff" d="M296.32,-598.48C311.13,-586.9 327.13,-574.38 340.66,-563.8"/>
<polygon fill="#63b8ff" stroke="#63b8ff" points="293.95,-595.89 288.23,-604.81 298.27,-601.4 293.95,-595.89"/>
</a>
</g>
</g>
<!-- Node14&#45;&gt;Node9 -->
<g id="edge15_Node000014_Node000009" class="edge">
<title>Node14&#45;&gt;Node9</title>
<g id="a_edge15_Node000014_Node000009"><a xlink:title=" ">
<path fill="none" stroke="#63b8ff" d="M315.41,-396.98C317.25,-388.14 319.14,-379.04 320.81,-371.02"/>
<polygon fill="#63b8ff" stroke="#63b8ff" points="311.99,-396.27 313.38,-406.78 318.84,-397.7 311.99,-396.27"/>
</a>
</g>
</g>
<!-- Node15&#45;&gt;Node8 -->
<g id="edge20_Node000015_Node000008" class="edge">
<title>Node15&#45;&gt;Node8</title>
<g id="a_edge20_Node000015_Node000008"><a xlink:title=" ">
<path fill="none" stroke="#63b8ff" d="M296.6,-507.77C260.04,-494.03 216.68,-477.73 181.5,-464.5"/>
<polygon fill="#63b8ff" stroke="#63b8ff" points="295.63,-511.15 306.22,-511.39 298.09,-504.6 295.63,-511.15"/>
</a>
</g>
</g>
<!-- Node15&#45;&gt;Node9 -->
<g id="edge19_Node000015_Node000009" class="edge">
<title>Node15&#45;&gt;Node9</title>
<g id="a_edge19_Node000015_Node000009"><a xlink:title=" ">
<path fill="none" stroke="#63b8ff" d="M393.03,-502.01C405.88,-475.09 417.65,-437.29 403,-407 396.02,-392.57 383.79,-380.51 371.09,-371.03"/>
<polygon fill="#63b8ff" stroke="#63b8ff" points="389.85,-500.55 388.48,-511.05 396.11,-503.69 389.85,-500.55"/>
</a>
</g>
</g>
<!-- Node15&#45;&gt;Node11 -->
<g id="edge18_Node000015_Node000011" class="edge">
<title>Node15&#45;&gt;Node11</title>
<g id="a_edge18_Node000015_Node000011"><a xlink:title=" ">
<path fill="none" stroke="#63b8ff" d="M400.49,-503.28C407.77,-493.11 414.98,-481.55 420,-470 462.33,-372.54 475.91,-243.93 479.7,-195.28"/>
<polygon fill="#63b8ff" stroke="#63b8ff" points="397.57,-501.35 394.41,-511.46 403.19,-505.52 397.57,-501.35"/>
</a>
</g>
</g>
<!-- Node16&#45;&gt;Node2 -->
<g id="edge22_Node000016_Node000002" class="edge">
<title>Node16&#45;&gt;Node2</title>
<g id="a_edge22_Node000016_Node000002"><a xlink:title=" ">
<path fill="none" stroke="#63b8ff" d="M551.24,-606.29C618.63,-575.98 704,-521.41 704,-439.5 704,-439.5 704,-439.5 704,-256 704,-189.89 633.8,-142.72 585.54,-118.1"/>
<polygon fill="#63b8ff" stroke="#63b8ff" points="549.61,-603.18 541.86,-610.4 552.42,-609.59 549.61,-603.18"/>
</a>
</g>
</g>
<!-- Node16&#45;&gt;Node11 -->
<g id="edge26_Node000016_Node000011" class="edge">
<title>Node16&#45;&gt;Node11</title>
<g id="a_edge26_Node000016_Node000011"><a xlink:title=" ">
<path fill="none" stroke="#63b8ff" d="M478.78,-600.46C486.75,-561.4 498,-496.26 498,-439.5 498,-439.5 498,-439.5 498,-344 498,-289.9 489.22,-226.52 484.28,-195.15"/>
<polygon fill="#63b8ff" stroke="#63b8ff" points="475.34,-599.78 476.73,-610.28 482.2,-601.21 475.34,-599.78"/>
</a>
</g>
</g>
<!-- Node16&#45;&gt;Node15 -->
<g id="edge27_Node000016_Node000015" class="edge">
<title>Node16&#45;&gt;Node15</title>
<g id="a_edge27_Node000016_Node000015"><a xlink:title=" ">
<path fill="none" stroke="#63b8ff" d="M438.1,-602.94C425.14,-590.11 410.48,-575.6 398.36,-563.61"/>
<polygon fill="#63b8ff" stroke="#63b8ff" points="435.94,-605.72 445.51,-610.27 440.86,-600.75 435.94,-605.72"/>
</a>
</g>
</g>
<!-- Node17 -->
<g id="Node000017" class="node">
<title>Node17</title>
<g id="a_Node000017"><a xlink:href="Map_8h.html" target="_top" xlink:title="Defines the Map class for spatial organization of landscapes.">
<polygon fill="white" stroke="#666666" points="676,-277.5 526,-277.5 526,-236.5 676,-236.5 676,-277.5"/>
<text text-anchor="start" x="534" y="-265.5" font-family="Helvetica,sans-Serif" font-size="10.00">/home/runner/work/Weaver</text>
<text text-anchor="start" x="534" y="-254.5" font-family="Helvetica,sans-Serif" font-size="10.00">/Weaver/include/App/Model</text>
<text text-anchor="middle" x="601" y="-243.5" font-family="Helvetica,sans-Serif" font-size="10.00">/IBM/Landscape/Map/Map.h</text>
</a>
</g>
</g>
<!-- Node16&#45;&gt;Node17 -->
<g id="edge23_Node000016_Node000017" class="edge">
<title>Node16&#45;&gt;Node17</title>
<g id="a_edge23_Node000016_Node000017"><a xlink:title=" ">
<path fill="none" stroke="#63b8ff" d="M494.37,-601.6C500.69,-591.43 507.13,-580.04 512,-569 558.48,-463.67 587.59,-327.6 597.35,-277.57"/>
<polygon fill="#63b8ff" stroke="#63b8ff" points="491.32,-599.88 488.88,-610.19 497.22,-603.65 491.32,-599.88"/>
</a>
</g>
</g>
<!-- Node17&#45;&gt;Node2 -->
<g id="edge24_Node000017_Node000002" class="edge">
<title>Node17&#45;&gt;Node2</title>
<g id="a_edge24_Node000017_Node000002"><a xlink:title=" ">
<path fill="none" stroke="#63b8ff" d="M599.01,-226.24C596.77,-205.32 592.03,-177.07 582,-154 576.36,-141.04 567.21,-128.23 558.98,-118.19"/>
<polygon fill="#63b8ff" stroke="#63b8ff" points="595.55,-226.81 599.97,-236.44 602.52,-226.16 595.55,-226.81"/>
</a>
</g>
</g>
<!-- Node17&#45;&gt;Node11 -->
<g id="edge25_Node000017_Node000011" class="edge">
<title>Node17&#45;&gt;Node11</title>
<g id="a_edge25_Node000017_Node000011"><a xlink:title=" ">
<path fill="none" stroke="#63b8ff" d="M563.04,-230.54C546.05,-219.14 526.32,-205.9 510.47,-195.27"/>
<polygon fill="#63b8ff" stroke="#63b8ff" points="561.39,-233.64 571.64,-236.31 565.29,-227.83 561.39,-233.64"/>
</a>
</g>
</g>
</g>
</svg>

<g id="navigator" transform="translate(0 0)" fill="#404254">
  <rect fill="#f2f5e9" fill-opacity="0.5" stroke="#606060" stroke-width=".5" x="0" y="0" width="60" height="60"/>
  <use id="zoomplus" xlink:href="#zoomPlus" x="17" y="9" onmousedown="handleZoom(evt,'in')"/>
  <use id="zoomminus" xlink:href="#zoomMin" x="42" y="9" onmousedown="handleZoom(evt,'out')"/>
  <use id="reset" xlink:href="#resetDef" x="30" y="36" onmousedown="handleReset()"/>
   <use id="arrowup" xlink:href="#arrowUp" x="0" y="0" onmousedown="handlePan(0,-1)"/>
  <use id="arrowright" xlink:href="#arrowRight" x="0" y="0" onmousedown="handlePan(1,0)"/>
  <use id="arrowdown" xlink:href="#arrowDown" x="0" y="0" onmousedown="handlePan(0,1)"/>
  <use id="arrowleft" xlink:href="#arrowLeft" x="0" y="0" onmousedown="handlePan(-1,0)"/>
</g>
<svg viewBox="0 0 15 15" width="100%" height="30px" preserveAspectRatio="xMaxYMin meet">
 <g id="arrow_out" transform="scale(0.3 0.3)">
  <a xlink:href="CellResource_8h__dep__incl_org.svg" target="_base">
   <rect id="button" ry="5" rx="5" y="6" x="6" height="38" width="38"
        fill="#f2f5e9" fill-opacity="0.5" stroke="#606060" stroke-width="1.0"/>
   <path id="arrow"
     d="M 11.500037,31.436501 C 11.940474,20.09759 22.043105,11.32322 32.158766,21.979434 L 37.068811,17.246167 C 37.068811,17.246167 37.088388,32 37.088388,32 L 22.160133,31.978069 C 22.160133,31.978069 26.997745,27.140456 26.997745,27.140456 C 18.528582,18.264221 13.291696,25.230495 11.500037,31.436501 z"
     style="fill:#404040;"/>
  </a>
 </g>
</svg>

<style type='text/css'>
<![CDATA[
[data-mouse-over-selected='false'] { opacity: 0.7; }
[data-mouse-over-selected='true']  { opacity: 1.0; }
]]>
</style>
<script type="application/ecmascript"><![CDATA[
document.addEventListener('DOMContentLoaded', (event) => {
  highlightEdges();
  highlightAdjacentNodes();
});
]]></script>
</svg>
