<?xml version="1.0" encoding="UTF-8" standalone="no"?>
<!DOCTYPE svg PUBLIC "-//W3C//DTD SVG 1.1//EN"
 "http://www.w3.org/Graphics/SVG/1.1/DTD/svg11.dtd">
<!-- Generated by graphviz version 2.43.0 (0)
 -->
<!-- Title: GUI Pages: 1 -->
<svg width="560pt" height="181pt"
 viewBox="0.00 0.00 560.00 181.00" xmlns="http://www.w3.org/2000/svg" xmlns:xlink="http://www.w3.org/1999/xlink">
<g id="graph0" class="graph" transform="scale(1 1) rotate(0) translate(4 177)">
<title>GUI</title>
<!-- Node1 -->
<g id="Node000001" class="node">
<title>Node1</title>
<g id="a_Node000001"><a xlink:title="Graphical User Interface class derived from View.">
<polygon fill="#999999" stroke="#666666" points="278.5,-19 243.5,-19 243.5,0 278.5,0 278.5,-19"/>
<text text-anchor="middle" x="261" y="-7" font-family="Helvetica,sans-Serif" font-size="10.00">GUI</text>
</a>
</g>
</g>
<!-- Node2 -->
<g id="Node000002" class="node">
<title>Node2</title>
<g id="a_Node000002"><a xlink:href="classView.html" target="_top" xlink:title="Abstract base class representing a view in the MVC pattern.">
<polygon fill="white" stroke="#666666" points="90.5,-96 49.5,-96 49.5,-77 90.5,-77 90.5,-96"/>
<text text-anchor="middle" x="70" y="-84" font-family="Helvetica,sans-Serif" font-size="10.00">View</text>
</a>
</g>
</g>
<!-- Node2&#45;&gt;Node1 -->
<g id="edge1_Node000001_Node000002" class="edge">
<title>Node2&#45;&gt;Node1</title>
<g id="a_edge1_Node000001_Node000002"><a xlink:title=" ">
<path fill="none" stroke="#63b8ff" d="M92.32,-71.73C110.33,-61.08 136.59,-46.59 161,-37 188.92,-26.03 222.97,-18.1 243.27,-13.9"/>
<polygon fill="#63b8ff" stroke="#63b8ff" points="90.48,-68.75 83.71,-76.9 94.08,-74.75 90.48,-68.75"/>
</a>
</g>
</g>
<!-- Node3 -->
<g id="Node000003" class="node">
<title>Node3</title>
<g id="a_Node000003"><a xlink:href="classModel.html" target="_top" xlink:title="Abstract base class for all simulation models in the Weaver framework.">
<polygon fill="white" stroke="#666666" points="68.5,-19 21.5,-19 21.5,0 68.5,0 68.5,-19"/>
<text text-anchor="middle" x="45" y="-7" font-family="Helvetica,sans-Serif" font-size="10.00">Model</text>
</a>
</g>
</g>
<!-- Node2&#45;&gt;Node3 -->
<g id="edge3_Node000003_Node000002" class="edge">
<title>Node2&#45;&gt;Node3</title>
<g id="a_edge3_Node000003_Node000002"><a xlink:title=" ">
<path fill="none" stroke="#9a32cd" stroke-dasharray="5,2" d="M39.73,-74.09C33.46,-70.28 27.66,-65.33 24,-59 19.11,-50.53 20.78,-46.23 24,-37 26.32,-30.35 31.08,-24.11 35.48,-19.36"/>
<polygon fill="#9a32cd" stroke="#9a32cd" points="38.56,-77.43 49.05,-78.91 41.77,-71.21 38.56,-77.43"/>
</a>
</g>
<text text-anchor="middle" x="37.5" y="-45.5" font-family="Helvetica,sans-Serif" font-size="10.00" fill="grey"> view</text>
</g>
<!-- Node3&#45;&gt;Node2 -->
<g id="edge2_Node000002_Node000003" class="edge">
<title>Node3&#45;&gt;Node2</title>
<g id="a_edge2_Node000002_Node000003"><a xlink:title=" ">
<path fill="none" stroke="#9a32cd" stroke-dasharray="5,2" d="M51.13,-28.9C56.23,-44.19 63.25,-65.25 67.13,-76.9"/>
<polygon fill="#9a32cd" stroke="#9a32cd" points="54.32,-27.38 47.83,-19 47.68,-29.6 54.32,-27.38"/>
</a>
</g>
<text text-anchor="middle" x="78" y="-45.5" font-family="Helvetica,sans-Serif" font-size="10.00" fill="grey"> model</text>
</g>
<!-- Node4 -->
<g id="Node000004" class="node">
<title>Node4</title>
<g id="a_Node000004"><a xlink:href="classCustomIndexedVector.html" target="_top" xlink:title=" ">
<polygon fill="white" stroke="#666666" points="140,-173 0,-173 0,-143 140,-143 140,-173"/>
<text text-anchor="start" x="8" y="-161" font-family="Helvetica,sans-Serif" font-size="10.00">CustomIndexedVector</text>
<text text-anchor="middle" x="70" y="-150" font-family="Helvetica,sans-Serif" font-size="10.00">&lt; RunMode, std::string &gt;</text>
</a>
</g>
</g>
<!-- Node4&#45;&gt;Node2 -->
<g id="edge4_Node000002_Node000004" class="edge">
<title>Node4&#45;&gt;Node2</title>
<g id="a_edge4_Node000002_Node000004"><a xlink:title=" ">
<path fill="none" stroke="#9a32cd" stroke-dasharray="5,2" d="M70,-132.56C70,-119.95 70,-105.35 70,-96.27"/>
<polygon fill="#9a32cd" stroke="#9a32cd" points="66.5,-132.94 70,-142.94 73.5,-132.94 66.5,-132.94"/>
</a>
</g>
<text text-anchor="middle" x="109.5" y="-117" font-family="Helvetica,sans-Serif" font-size="10.00" fill="grey"> runModesTitles</text>
</g>
<!-- Node5 -->
<g id="Node000005" class="node">
<title>Node5</title>
<g id="a_Node000005"><a xlink:href="classOptionSelector.html" target="_top" xlink:title="A widget combining a label and a dropdown (combo box) for selecting options.">
<polygon fill="white" stroke="#666666" points="215.5,-96 126.5,-96 126.5,-77 215.5,-77 215.5,-96"/>
<text text-anchor="middle" x="171" y="-84" font-family="Helvetica,sans-Serif" font-size="10.00">OptionSelector</text>
</a>
</g>
</g>
<!-- Node5&#45;&gt;Node1 -->
<g id="edge5_Node000001_Node000005" class="edge">
<title>Node5&#45;&gt;Node1</title>
<g id="a_edge5_Node000001_Node000005"><a xlink:title=" ">
<path fill="none" stroke="#9a32cd" stroke-dasharray="5,2" d="M165.46,-66.66C163.77,-56.9 163.76,-45.32 170,-37 186.89,-14.49 221.82,-10.23 243.15,-9.88"/>
<polygon fill="#9a32cd" stroke="#9a32cd" points="162.11,-67.71 167.83,-76.63 168.92,-66.1 162.11,-67.71"/>
</a>
</g>
<text text-anchor="middle" x="213" y="-45.5" font-family="Helvetica,sans-Serif" font-size="10.00" fill="grey"> runModeSelector</text>
</g>
<!-- Node6 -->
<g id="Node000006" class="node">
<title>Node6</title>
<g id="a_Node000006"><a xlink:title=" ">
<polygon fill="white" stroke="#bfbfbf" points="392,-167.5 276,-167.5 276,-148.5 392,-148.5 392,-167.5"/>
<text text-anchor="middle" x="334" y="-155.5" font-family="Helvetica,sans-Serif" font-size="10.00">nana::panel&lt; true &gt;</text>
</a>
</g>
</g>
<!-- Node6&#45;&gt;Node5 -->
<g id="edge6_Node000005_Node000006" class="edge">
<title>Node6&#45;&gt;Node5</title>
<g id="a_edge6_Node000005_Node000006"><a xlink:title=" ">
<path fill="none" stroke="#63b8ff" d="M304.5,-144.42C271.7,-130.43 219.59,-108.22 191.15,-96.09"/>
<polygon fill="#63b8ff" stroke="#63b8ff" points="303.44,-147.78 314.01,-148.48 306.19,-141.34 303.44,-147.78"/>
</a>
</g>
</g>
<!-- Node7 -->
<g id="Node000007" class="node">
<title>Node7</title>
<g id="a_Node000007"><a xlink:href="classPathChooser.html" target="_top" xlink:title="A widget that allows the user to choose a file or directory path.">
<polygon fill="white" stroke="#666666" points="313.5,-96 236.5,-96 236.5,-77 313.5,-77 313.5,-96"/>
<text text-anchor="middle" x="275" y="-84" font-family="Helvetica,sans-Serif" font-size="10.00">PathChooser</text>
</a>
</g>
</g>
<!-- Node6&#45;&gt;Node7 -->
<g id="edge8_Node000007_Node000006" class="edge">
<title>Node6&#45;&gt;Node7</title>
<g id="a_edge8_Node000007_Node000006"><a xlink:title=" ">
<path fill="none" stroke="#63b8ff" d="M320.11,-140.63C308.26,-126.68 291.7,-107.17 282.29,-96.09"/>
<polygon fill="#63b8ff" stroke="#63b8ff" points="317.63,-143.12 326.77,-148.48 322.96,-138.59 317.63,-143.12"/>
</a>
</g>
</g>
<!-- Node8 -->
<g id="Node000008" class="node">
<title>Node8</title>
<g id="a_Node000008"><a xlink:href="classCheckbox.html" target="_top" xlink:title="A custom Checkbox widget combining a label and a checkbox in a panel.">
<polygon fill="white" stroke="#666666" points="424.5,-96 359.5,-96 359.5,-77 424.5,-77 424.5,-96"/>
<text text-anchor="middle" x="392" y="-84" font-family="Helvetica,sans-Serif" font-size="10.00">Checkbox</text>
</a>
</g>
</g>
<!-- Node6&#45;&gt;Node8 -->
<g id="edge10_Node000008_Node000006" class="edge">
<title>Node6&#45;&gt;Node8</title>
<g id="a_edge10_Node000008_Node000006"><a xlink:title=" ">
<path fill="none" stroke="#63b8ff" d="M347.66,-140.63C359.3,-126.68 375.58,-107.17 384.83,-96.09"/>
<polygon fill="#63b8ff" stroke="#63b8ff" points="344.83,-138.56 341.11,-148.48 350.21,-143.04 344.83,-138.56"/>
</a>
</g>
</g>
<!-- Node9 -->
<g id="Node000009" class="node">
<title>Node9</title>
<g id="a_Node000009"><a xlink:href="classLogTextbox.html" target="_top" xlink:title="A read&#45;only multiline textbox widget for logging messages.">
<polygon fill="white" stroke="#666666" points="552,-96 480,-96 480,-77 552,-77 552,-96"/>
<text text-anchor="middle" x="516" y="-84" font-family="Helvetica,sans-Serif" font-size="10.00">LogTextbox</text>
</a>
</g>
</g>
<!-- Node6&#45;&gt;Node9 -->
<g id="edge12_Node000009_Node000006" class="edge">
<title>Node6&#45;&gt;Node9</title>
<g id="a_edge12_Node000009_Node000006"><a xlink:title=" ">
<path fill="none" stroke="#63b8ff" d="M366,-144.78C402.56,-130.82 461.47,-108.32 493.5,-96.09"/>
<polygon fill="#63b8ff" stroke="#63b8ff" points="364.41,-141.64 356.32,-148.48 366.91,-148.18 364.41,-141.64"/>
</a>
</g>
</g>
<!-- Node7&#45;&gt;Node1 -->
<g id="edge7_Node000001_Node000007" class="edge">
<title>Node7&#45;&gt;Node1</title>
<g id="a_edge7_Node000001_Node000007"><a xlink:title=" ">
<path fill="none" stroke="#9a32cd" stroke-dasharray="5,2" d="M264.85,-67.38C263.69,-64.64 262.68,-61.8 262,-59 258.7,-45.41 259.26,-29.06 260.06,-19.23"/>
<polygon fill="#9a32cd" stroke="#9a32cd" points="261.82,-69.15 269.39,-76.55 268.09,-66.04 261.82,-69.15"/>
</a>
</g>
<text text-anchor="middle" x="323.5" y="-51" font-family="Helvetica,sans-Serif" font-size="10.00" fill="grey"> inputConfigPathChooser</text>
<text text-anchor="middle" x="323.5" y="-40" font-family="Helvetica,sans-Serif" font-size="10.00" fill="grey">outputFolderPathChooser</text>
</g>
<!-- Node8&#45;&gt;Node1 -->
<g id="edge9_Node000001_Node000008" class="edge">
<title>Node8&#45;&gt;Node1</title>
<g id="a_edge9_Node000001_Node000008"><a xlink:title=" ">
<path fill="none" stroke="#9a32cd" stroke-dasharray="5,2" d="M394.08,-66.49C394.1,-56.51 392.26,-44.77 385,-37 370.72,-21.72 309.33,-14.53 278.63,-11.83"/>
<polygon fill="#9a32cd" stroke="#9a32cd" points="390.57,-66.52 393.46,-76.71 397.56,-66.94 390.57,-66.52"/>
</a>
</g>
<text text-anchor="middle" x="449" y="-45.5" font-family="Helvetica,sans-Serif" font-size="10.00" fill="grey"> showOutputCheckbox</text>
</g>
<!-- Node9&#45;&gt;Node1 -->
<g id="edge11_Node000001_Node000009" class="edge">
<title>Node9&#45;&gt;Node1</title>
<g id="a_edge11_Node000001_Node000009"><a xlink:title=" ">
<path fill="none" stroke="#9a32cd" stroke-dasharray="5,2" d="M517.95,-66.82C517.93,-56.59 515.93,-44.49 508,-37 491.35,-21.26 332.15,-13.39 278.53,-11.17"/>
<polygon fill="#9a32cd" stroke="#9a32cd" points="514.46,-66.72 517.39,-76.9 521.44,-67.11 514.46,-66.72"/>
</a>
</g>
<text text-anchor="middle" x="527.5" y="-45.5" font-family="Helvetica,sans-Serif" font-size="10.00" fill="grey"> log</text>
</g>
</g>
</svg>
