<?xml version="1.0" encoding="UTF-8" standalone="no"?>
<!DOCTYPE svg PUBLIC "-//W3C//DTD SVG 1.1//EN"
 "http://www.w3.org/Graphics/SVG/1.1/DTD/svg11.dtd">
<!-- Generated by graphviz version 2.43.0 (0)
 -->
<!-- Title: Map Pages: 1 -->
<svg width="717pt" height="210pt"
 viewBox="0.00 0.00 717.00 209.50" xmlns="http://www.w3.org/2000/svg" xmlns:xlink="http://www.w3.org/1999/xlink">
<g id="graph0" class="graph" transform="scale(1 1) rotate(0) translate(4 205.5)">
<title>Map</title>
<!-- Node1 -->
<g id="Node000001" class="node">
<title>Node1</title>
<g id="a_Node000001"><a xlink:title="Abstract base class for spatial landscape representations.">
<polygon fill="#999999" stroke="#666666" points="709,-154 671,-154 671,-135 709,-135 709,-154"/>
<text text-anchor="middle" x="690" y="-142" font-family="Helvetica,sans-Serif" font-size="10.00">Map</text>
</a>
</g>
</g>
<!-- Node2 -->
<g id="Node000002" class="node">
<title>Node2</title>
<g id="a_Node000002"><a xlink:href="classPreciseDouble.html" target="_top" xlink:title="Class for precise double&#45;precision floating&#45;point arithmetic.">
<polygon fill="white" stroke="#666666" points="457,-197 371,-197 371,-178 457,-178 457,-197"/>
<text text-anchor="middle" x="414" y="-185" font-family="Helvetica,sans-Serif" font-size="10.00">PreciseDouble</text>
</a>
</g>
</g>
<!-- Node2&#45;&gt;Node1 -->
<g id="edge1_Node000001_Node000002" class="edge">
<title>Node2&#45;&gt;Node1</title>
<g id="a_edge1_Node000001_Node000002"><a xlink:title=" ">
<path fill="none" stroke="#9a32cd" stroke-dasharray="5,2" d="M467.36,-185.51C516.1,-182.69 590.44,-175.87 653,-159.5 658.9,-157.96 665.09,-155.65 670.66,-153.3"/>
<polygon fill="#9a32cd" stroke="#9a32cd" points="467.15,-182.02 457.36,-186.06 467.53,-189.01 467.15,-182.02"/>
</a>
</g>
<text text-anchor="middle" x="591" y="-193.5" font-family="Helvetica,sans-Serif" font-size="10.00" fill="grey"> minCellSize</text>
<text text-anchor="middle" x="591" y="-182.5" font-family="Helvetica,sans-Serif" font-size="10.00" fill="grey">minHyperVolume</text>
</g>
<!-- Node3 -->
<g id="Node000003" class="node">
<title>Node3</title>
<g id="a_Node000003"><a xlink:href="classCustomIndexedVector.html" target="_top" xlink:title=" ">
<polygon fill="white" stroke="#666666" points="511,-159.5 317,-159.5 317,-129.5 511,-129.5 511,-159.5"/>
<text text-anchor="start" x="325" y="-147.5" font-family="Helvetica,sans-Serif" font-size="10.00">CustomIndexedVector</text>
<text text-anchor="middle" x="414" y="-136.5" font-family="Helvetica,sans-Serif" font-size="10.00">&lt; LifeStage, AnimalSearchParams &gt;</text>
</a>
</g>
</g>
<!-- Node3&#45;&gt;Node1 -->
<g id="edge2_Node000001_Node000003" class="edge">
<title>Node3&#45;&gt;Node1</title>
<g id="a_edge2_Node000001_Node000003"><a xlink:title=" ">
<path fill="none" stroke="#9a32cd" stroke-dasharray="5,2" d="M521.56,-144.5C577.48,-144.5 640.52,-144.5 670.82,-144.5"/>
<polygon fill="#9a32cd" stroke="#9a32cd" points="521.22,-141 511.22,-144.5 521.22,-148 521.22,-141"/>
</a>
</g>
<text text-anchor="middle" x="591" y="-147.5" font-family="Helvetica,sans-Serif" font-size="10.00" fill="grey"> lifeStageSearchParams</text>
</g>
<!-- Node4 -->
<g id="Node000004" class="node">
<title>Node4</title>
<g id="a_Node000004"><a xlink:href="classAnimalSearchParams.html" target="_top" xlink:title="Stores parameters for searching animals within a terrain cell.">
<polygon fill="white" stroke="#666666" points="474,-111 354,-111 354,-92 474,-92 474,-111"/>
<text text-anchor="middle" x="414" y="-99" font-family="Helvetica,sans-Serif" font-size="10.00">AnimalSearchParams</text>
</a>
</g>
</g>
<!-- Node4&#45;&gt;Node1 -->
<g id="edge3_Node000001_Node000004" class="edge">
<title>Node4&#45;&gt;Node1</title>
<g id="a_edge3_Node000001_Node000004"><a xlink:title=" ">
<path fill="none" stroke="#9a32cd" stroke-dasharray="5,2" d="M484.32,-104.57C532.31,-107.93 597.32,-114.93 653,-129.5 658.9,-131.04 665.09,-133.35 670.66,-135.7"/>
<polygon fill="#9a32cd" stroke="#9a32cd" points="484.25,-101.06 474.04,-103.89 483.78,-108.05 484.25,-101.06"/>
</a>
</g>
<text text-anchor="middle" x="591" y="-132.5" font-family="Helvetica,sans-Serif" font-size="10.00" fill="grey"> allAnimalsSearchParams</text>
</g>
<!-- Node5 -->
<g id="Node000005" class="node">
<title>Node5</title>
<g id="a_Node000005"><a xlink:href="classCustomIndexedVector.html" target="_top" xlink:title=" ">
<polygon fill="white" stroke="#666666" points="142.5,-181 9.5,-181 9.5,-140 142.5,-140 142.5,-181"/>
<text text-anchor="start" x="17.5" y="-169" font-family="Helvetica,sans-Serif" font-size="10.00">CustomIndexedVector</text>
<text text-anchor="start" x="17.5" y="-158" font-family="Helvetica,sans-Serif" font-size="10.00">&lt; LifeStage, std::vector</text>
<text text-anchor="middle" x="76" y="-147" font-family="Helvetica,sans-Serif" font-size="10.00">&lt; AnimalSpeciesID &gt; &gt;</text>
</a>
</g>
</g>
<!-- Node5&#45;&gt;Node4 -->
<g id="edge4_Node000004_Node000005" class="edge">
<title>Node5&#45;&gt;Node4</title>
<g id="a_edge4_Node000004_Node000005"><a xlink:title=" ">
<path fill="none" stroke="#9a32cd" stroke-dasharray="5,2" d="M152.8,-147.19C215.43,-136.19 302.83,-120.84 358.67,-111.04"/>
<polygon fill="#9a32cd" stroke="#9a32cd" points="151.83,-143.81 142.58,-148.98 153.04,-150.7 151.83,-143.81"/>
</a>
</g>
<text text-anchor="middle" x="234.5" y="-145.5" font-family="Helvetica,sans-Serif" font-size="10.00" fill="grey"> searchableAnimalSpecies</text>
</g>
<!-- Node6 -->
<g id="Node000006" class="node">
<title>Node6</title>
<g id="a_Node000006"><a xlink:href="classCustomIndexedVector.html" target="_top" xlink:title=" ">
<polygon fill="white" stroke="#666666" points="152,-122 0,-122 0,-81 152,-81 152,-122"/>
<text text-anchor="start" x="8" y="-110" font-family="Helvetica,sans-Serif" font-size="10.00">CustomIndexedVector</text>
<text text-anchor="start" x="8" y="-99" font-family="Helvetica,sans-Serif" font-size="10.00">&lt; LifeStage, std::vector</text>
<text text-anchor="middle" x="76" y="-88" font-family="Helvetica,sans-Serif" font-size="10.00">&lt; std::vector&lt; Instar &gt; &gt; &gt;</text>
</a>
</g>
</g>
<!-- Node6&#45;&gt;Node4 -->
<g id="edge5_Node000004_Node000006" class="edge">
<title>Node6&#45;&gt;Node4</title>
<g id="a_edge5_Node000004_Node000006"><a xlink:title=" ">
<path fill="none" stroke="#9a32cd" stroke-dasharray="5,2" d="M162.59,-101.5C222.4,-101.5 300.74,-101.5 353.75,-101.5"/>
<polygon fill="#9a32cd" stroke="#9a32cd" points="162.4,-98 152.4,-101.5 162.4,-105 162.4,-98"/>
</a>
</g>
<text text-anchor="middle" x="234.5" y="-104.5" font-family="Helvetica,sans-Serif" font-size="10.00" fill="grey"> searchableInstars</text>
</g>
<!-- Node7 -->
<g id="Node000007" class="node">
<title>Node7</title>
<g id="a_Node000007"><a xlink:href="classCustomIndexedVector.html" target="_top" xlink:title=" ">
<polygon fill="white" stroke="#666666" points="152,-63 0,-63 0,0 152,0 152,-63"/>
<text text-anchor="start" x="8" y="-51" font-family="Helvetica,sans-Serif" font-size="10.00">CustomIndexedVector</text>
<text text-anchor="start" x="8" y="-40" font-family="Helvetica,sans-Serif" font-size="10.00">&lt; LifeStage, std::vector</text>
<text text-anchor="start" x="8" y="-29" font-family="Helvetica,sans-Serif" font-size="10.00">&lt; CustomIndexedVector&lt;</text>
<text text-anchor="start" x="8" y="-18" font-family="Helvetica,sans-Serif" font-size="10.00"> Instar, std::vector&lt; Gender</text>
<text text-anchor="middle" x="76" y="-7" font-family="Helvetica,sans-Serif" font-size="10.00"> &gt; &gt; &gt; &gt;</text>
</a>
</g>
</g>
<!-- Node7&#45;&gt;Node4 -->
<g id="edge6_Node000004_Node000007" class="edge">
<title>Node7&#45;&gt;Node4</title>
<g id="a_edge6_Node000004_Node000007"><a xlink:title=" ">
<path fill="none" stroke="#9a32cd" stroke-dasharray="5,2" d="M162.26,-49.26C227.44,-62.84 314.77,-81.03 367.29,-91.98"/>
<polygon fill="#9a32cd" stroke="#9a32cd" points="162.91,-45.82 152.4,-47.21 161.48,-52.68 162.91,-45.82"/>
</a>
</g>
<text text-anchor="middle" x="234.5" y="-79.5" font-family="Helvetica,sans-Serif" font-size="10.00" fill="grey"> searchableGenders</text>
</g>
</g>
</svg>
