<?xml version="1.0" encoding="UTF-8" standalone="no"?>
<!DOCTYPE svg PUBLIC "-//W3C//DTD SVG 1.1//EN"
 "http://www.w3.org/Graphics/SVG/1.1/DTD/svg11.dtd">
<!-- Generated by graphviz version 2.43.0 (0)
 -->
<!-- Title: MoistureSource Pages: 1 -->
<svg width="731pt" height="237pt"
 viewBox="0.00 0.00 730.50 237.00" xmlns="http://www.w3.org/2000/svg" xmlns:xlink="http://www.w3.org/1999/xlink">
<g id="graph0" class="graph" transform="scale(1 1) rotate(0) translate(4 233)">
<title>MoistureSource</title>
<!-- Node1 -->
<g id="Node000001" class="node">
<title>Node1</title>
<g id="a_Node000001"><a xlink:title="Represents a moisture source in the landscape.">
<polygon fill="#999999" stroke="#666666" points="307.5,-19 215.5,-19 215.5,0 307.5,0 307.5,-19"/>
<text text-anchor="middle" x="261.5" y="-7" font-family="Helvetica,sans-Serif" font-size="10.00">MoistureSource</text>
</a>
</g>
</g>
<!-- Node2 -->
<g id="Node000002" class="node">
<title>Node2</title>
<g id="a_Node000002"><a xlink:href="classPathSource.html" target="_top" xlink:title="Abstract base class for landscape data sources.">
<polygon fill="white" stroke="#666666" points="71,-85 0,-85 0,-66 71,-66 71,-85"/>
<text text-anchor="middle" x="35.5" y="-73" font-family="Helvetica,sans-Serif" font-size="10.00">PathSource</text>
</a>
</g>
</g>
<!-- Node2&#45;&gt;Node1 -->
<g id="edge1_Node000001_Node000002" class="edge">
<title>Node2&#45;&gt;Node1</title>
<g id="a_edge1_Node000001_Node000002"><a xlink:title=" ">
<path fill="none" stroke="#63b8ff" d="M54.12,-59.59C64.99,-51.65 79.32,-42.42 93.5,-37 132.94,-21.92 180.74,-15.42 215.25,-12.62"/>
<polygon fill="#63b8ff" stroke="#63b8ff" points="51.72,-57.01 45.88,-65.85 55.96,-62.59 51.72,-57.01"/>
</a>
</g>
</g>
<!-- Node3 -->
<g id="Node000003" class="node">
<title>Node3</title>
<g id="a_Node000003"><a xlink:href="classWetMass.html" target="_top" xlink:title="Represents wet mass in the ecosystem simulation.">
<polygon fill="white" stroke="#666666" points="311,-85 250,-85 250,-66 311,-66 311,-85"/>
<text text-anchor="middle" x="280.5" y="-73" font-family="Helvetica,sans-Serif" font-size="10.00">WetMass</text>
</a>
</g>
</g>
<!-- Node3&#45;&gt;Node1 -->
<g id="edge2_Node000001_Node000003" class="edge">
<title>Node3&#45;&gt;Node1</title>
<g id="a_edge2_Node000001_Node000003"><a xlink:title=" ">
<path fill="none" stroke="#9a32cd" stroke-dasharray="5,2" d="M239.84,-66.7C206.38,-60.08 164.04,-51.17 161.5,-48 144.1,-26.3 181.42,-17.16 215.32,-13.3"/>
<polygon fill="#9a32cd" stroke="#9a32cd" points="239.4,-70.18 249.88,-68.67 240.74,-63.31 239.4,-70.18"/>
</a>
</g>
<text text-anchor="middle" x="251" y="-40" font-family="Helvetica,sans-Serif" font-size="10.00" fill="grey"> maximumResourceCapacityDensity</text>
</g>
<!-- Node4 -->
<g id="Node000004" class="node">
<title>Node4</title>
<g id="a_Node000004"><a xlink:href="classPreciseDouble.html" target="_top" xlink:title="Class for precise double&#45;precision floating&#45;point arithmetic.">
<polygon fill="white" stroke="#666666" points="323.5,-173 237.5,-173 237.5,-154 323.5,-154 323.5,-173"/>
<text text-anchor="middle" x="280.5" y="-161" font-family="Helvetica,sans-Serif" font-size="10.00">PreciseDouble</text>
</a>
</g>
</g>
<!-- Node4&#45;&gt;Node1 -->
<g id="edge10_Node000001_Node000004" class="edge">
<title>Node4&#45;&gt;Node1</title>
<g id="a_edge10_Node000001_Node000004"><a xlink:title=" ">
<path fill="none" stroke="#9a32cd" stroke-dasharray="5,2" d="M227.46,-152.9C189.4,-142.95 140.71,-123.22 116.5,-85 90.68,-44.24 163.57,-24.72 215.14,-16.24"/>
<polygon fill="#9a32cd" stroke="#9a32cd" points="226.84,-156.36 237.39,-155.35 228.51,-149.56 226.84,-156.36"/>
</a>
</g>
<text text-anchor="middle" x="178.5" y="-73" font-family="Helvetica,sans-Serif" font-size="10.00" fill="grey"> currentRelativeHumidity</text>
</g>
<!-- Node4&#45;&gt;Node3 -->
<g id="edge3_Node000003_Node000004" class="edge">
<title>Node4&#45;&gt;Node3</title>
<g id="a_edge3_Node000003_Node000004"><a xlink:title=" ">
<path fill="none" stroke="#9a32cd" stroke-dasharray="5,2" d="M280.5,-143.91C280.5,-125.67 280.5,-98.65 280.5,-85.03"/>
<polygon fill="#9a32cd" stroke="#9a32cd" points="277,-143.94 280.5,-153.94 284,-143.94 277,-143.94"/>
</a>
</g>
<text text-anchor="middle" x="296" y="-117" font-family="Helvetica,sans-Serif" font-size="10.00" fill="grey"> value</text>
</g>
<!-- Node8 -->
<g id="Node000008" class="node">
<title>Node8</title>
<g id="a_Node000008"><a xlink:href="classTemperature.html" target="_top" xlink:title="Represents a temperature and provides conversions and operations between scales.">
<polygon fill="white" stroke="#666666" points="407.5,-85 329.5,-85 329.5,-66 407.5,-66 407.5,-85"/>
<text text-anchor="middle" x="368.5" y="-73" font-family="Helvetica,sans-Serif" font-size="10.00">Temperature</text>
</a>
</g>
</g>
<!-- Node4&#45;&gt;Node8 -->
<g id="edge8_Node000008_Node000004" class="edge">
<title>Node4&#45;&gt;Node8</title>
<g id="a_edge8_Node000008_Node000004"><a xlink:title=" ">
<path fill="none" stroke="#9a32cd" stroke-dasharray="5,2" d="M301.26,-147.84C306.08,-144.15 311.09,-140.07 315.5,-136 333.59,-119.3 352.15,-97.05 361.78,-85.05"/>
<polygon fill="#9a32cd" stroke="#9a32cd" points="298.91,-145.22 292.95,-153.98 303.07,-150.85 298.91,-145.22"/>
</a>
</g>
<text text-anchor="middle" x="402.5" y="-128" font-family="Helvetica,sans-Serif" font-size="10.00" fill="grey"> temperatureCelsius</text>
<text text-anchor="middle" x="402.5" y="-117" font-family="Helvetica,sans-Serif" font-size="10.00" fill="grey">temperatureFahrenheit</text>
<text text-anchor="middle" x="402.5" y="-106" font-family="Helvetica,sans-Serif" font-size="10.00" fill="grey">temperatureKelvin</text>
</g>
<!-- Node5 -->
<g id="Node000005" class="node">
<title>Node5</title>
<g id="a_Node000005"><a xlink:href="classCycleDynamics.html" target="_top" xlink:title="Implements periodic, non–mass&#45;based dynamic behavior.">
<polygon fill="white" stroke="#666666" points="722.5,-85 630.5,-85 630.5,-66 722.5,-66 722.5,-85"/>
<text text-anchor="middle" x="676.5" y="-73" font-family="Helvetica,sans-Serif" font-size="10.00">CycleDynamics</text>
</a>
</g>
</g>
<!-- Node5&#45;&gt;Node1 -->
<g id="edge4_Node000001_Node000005" class="edge">
<title>Node5&#45;&gt;Node1</title>
<g id="a_edge4_Node000001_Node000005"><a xlink:title=" ">
<path fill="none" stroke="#9a32cd" stroke-dasharray="5,2" d="M629.05,-63.72C591.8,-55.54 538.54,-44.46 491.5,-37 428.18,-26.95 354.48,-19.14 307.91,-14.68"/>
<polygon fill="#9a32cd" stroke="#9a32cd" points="628.59,-67.2 639.11,-65.95 630.1,-60.37 628.59,-67.2"/>
</a>
</g>
<text text-anchor="middle" x="609" y="-40" font-family="Helvetica,sans-Serif" font-size="10.00" fill="grey"> temperatureDynamics</text>
</g>
<!-- Node6 -->
<g id="Node000006" class="node">
<title>Node6</title>
<g id="a_Node000006"><a xlink:href="classNonMassBasedDynamics.html" target="_top" xlink:title="Represents dynamics that are independent of mass.">
<polygon fill="white" stroke="#666666" points="603.5,-173 463.5,-173 463.5,-154 603.5,-154 603.5,-173"/>
<text text-anchor="middle" x="533.5" y="-161" font-family="Helvetica,sans-Serif" font-size="10.00">NonMassBasedDynamics</text>
</a>
</g>
</g>
<!-- Node6&#45;&gt;Node1 -->
<g id="edge9_Node000001_Node000006" class="edge">
<title>Node6&#45;&gt;Node1</title>
<g id="a_edge9_Node000001_Node000006"><a xlink:title=" ">
<path fill="none" stroke="#9a32cd" stroke-dasharray="5,2" d="M522.7,-144.69C501.91,-110.46 458.12,-38.7 455.5,-37 431.83,-21.65 357.28,-15.06 307.8,-12.33"/>
<polygon fill="#9a32cd" stroke="#9a32cd" points="519.94,-146.89 528.12,-153.63 525.93,-143.26 519.94,-146.89"/>
</a>
</g>
<text text-anchor="middle" x="553" y="-73" font-family="Helvetica,sans-Serif" font-size="10.00" fill="grey"> relativeHumidityDynamics</text>
</g>
<!-- Node6&#45;&gt;Node5 -->
<g id="edge5_Node000005_Node000006" class="edge">
<title>Node6&#45;&gt;Node5</title>
<g id="a_edge5_Node000005_Node000006"><a xlink:title=" ">
<path fill="none" stroke="#63b8ff" d="M556.63,-148.59C586.52,-130.62 637.63,-99.88 662.32,-85.03"/>
<polygon fill="#63b8ff" stroke="#63b8ff" points="554.5,-145.79 547.73,-153.94 558.11,-151.79 554.5,-145.79"/>
</a>
</g>
</g>
<!-- Node7 -->
<g id="Node000007" class="node">
<title>Node7</title>
<g id="a_Node000007"><a xlink:href="classDynamics.html" target="_top" xlink:title="Abstract base class for modeling temporal dynamics.">
<polygon fill="white" stroke="#666666" points="566,-229 501,-229 501,-210 566,-210 566,-229"/>
<text text-anchor="middle" x="533.5" y="-217" font-family="Helvetica,sans-Serif" font-size="10.00">Dynamics</text>
</a>
</g>
</g>
<!-- Node7&#45;&gt;Node6 -->
<g id="edge6_Node000006_Node000007" class="edge">
<title>Node7&#45;&gt;Node6</title>
<g id="a_edge6_Node000006_Node000007"><a xlink:title=" ">
<path fill="none" stroke="#63b8ff" d="M533.5,-199.3C533.5,-190.41 533.5,-180.28 533.5,-173.25"/>
<polygon fill="#63b8ff" stroke="#63b8ff" points="530,-199.58 533.5,-209.58 537,-199.58 530,-199.58"/>
</a>
</g>
</g>
<!-- Node8&#45;&gt;Node1 -->
<g id="edge7_Node000001_Node000008" class="edge">
<title>Node8&#45;&gt;Node1</title>
<g id="a_edge7_Node000001_Node000008"><a xlink:title=" ">
<path fill="none" stroke="#9a32cd" stroke-dasharray="5,2" d="M358.63,-56.93C353.93,-49.9 347.74,-42.24 340.5,-37 329.25,-28.86 315.33,-23.09 302.32,-19.07"/>
<polygon fill="#9a32cd" stroke="#9a32cd" points="355.88,-59.15 364.08,-65.85 361.85,-55.49 355.88,-59.15"/>
</a>
</g>
<text text-anchor="middle" x="401.5" y="-40" font-family="Helvetica,sans-Serif" font-size="10.00" fill="grey"> currentTemperature</text>
</g>
</g>
</svg>
