<?xml version="1.0" encoding="UTF-8" standalone="no"?>
<!DOCTYPE svg PUBLIC "-//W3C//DTD SVG 1.1//EN"
 "http://www.w3.org/Graphics/SVG/1.1/DTD/svg11.dtd">
<!-- Generated by graphviz version 2.43.0 (0)
 -->
<!-- Title: ResourceSpecies Pages: 1 -->
<svg width="455pt" height="239pt"
 viewBox="0.00 0.00 455.00 239.00" xmlns="http://www.w3.org/2000/svg" xmlns:xlink="http://www.w3.org/1999/xlink">

<svg id="main" version="1.1" xmlns="http://www.w3.org/2000/svg" xmlns:xlink="http://www.w3.org/1999/xlink" xml:space="preserve" onload="init(evt)">
<style type="text/css"><![CDATA[
.node, .edge {opacity: 0.7;}
.node.selected, .edge.selected {opacity: 1;}
.edge:hover path { stroke: red; }
.edge:hover polygon { stroke: red; fill: red; }
]]></style>
<script type="application/ecmascript" xlink:href="svg.min.js"/>
<svg id="graph" class="graph">
<g id="graph0" class="graph" transform="scale(1 1) rotate(0) translate(4 235)">
<title>ResourceSpecies</title>
<!-- Node1 -->
<g id="Node000001" class="node">
<title>Node1</title>
<g id="a_Node000001"><a xlink:title="Represents a species that acts as a resource in the ecosystem.">
<polygon fill="#999999" stroke="#666666" points="211,-19 112,-19 112,0 211,0 211,-19"/>
<text text-anchor="middle" x="161.5" y="-7" font-family="Helvetica,sans-Serif" font-size="10.00">ResourceSpecies</text>
</a>
</g>
</g>
<!-- Node2 -->
<g id="Node000002" class="node">
<title>Node2</title>
<g id="a_Node000002"><a xlink:href="classSpecies.html" target="_top" xlink:title="Represents a generic species in the ecosystem.">
<polygon fill="white" stroke="#666666" points="62.5,-85 8.5,-85 8.5,-66 62.5,-66 62.5,-85"/>
<text text-anchor="middle" x="35.5" y="-73" font-family="Helvetica,sans-Serif" font-size="10.00">Species</text>
</a>
</g>
</g>
<!-- Node2&#45;&gt;Node1 -->
<g id="edge1_Node000001_Node000002" class="edge">
<title>Node2&#45;&gt;Node1</title>
<g id="a_edge1_Node000001_Node000002"><a xlink:title=" ">
<path fill="none" stroke="#63b8ff" d="M61.69,-61.19C86.52,-48.59 123.08,-30.01 144.37,-19.2"/>
<polygon fill="#63b8ff" stroke="#63b8ff" points="59.82,-58.22 52.49,-65.87 62.99,-64.46 59.82,-58.22"/>
</a>
</g>
</g>
<!-- Node3 -->
<g id="Node000003" class="node">
<title>Node3</title>
<g id="a_Node000003"><a xlink:href="classSpecies_1_1ID.html" target="_top" xlink:title="Unique identifier for a Species.">
<polygon fill="white" stroke="#666666" points="71,-152.5 0,-152.5 0,-133.5 71,-133.5 71,-152.5"/>
<text text-anchor="middle" x="35.5" y="-140.5" font-family="Helvetica,sans-Serif" font-size="10.00">Species::ID</text>
</a>
</g>
</g>
<!-- Node3&#45;&gt;Node2 -->
<g id="edge2_Node000002_Node000003" class="edge">
<title>Node3&#45;&gt;Node2</title>
<g id="a_edge2_Node000002_Node000003"><a xlink:title=" ">
<path fill="none" stroke="#9a32cd" stroke-dasharray="5,2" d="M35.5,-123.18C35.5,-110.71 35.5,-94.92 35.5,-85.27"/>
<polygon fill="#9a32cd" stroke="#9a32cd" points="32,-123.44 35.5,-133.44 39,-123.44 32,-123.44"/>
</a>
</g>
<text text-anchor="middle" x="42" y="-106" font-family="Helvetica,sans-Serif" font-size="10.00" fill="grey"> id</text>
</g>
<!-- Node4 -->
<g id="Node000004" class="node">
<title>Node4</title>
<g id="a_Node000004"><a xlink:href="classResourceSpecies_1_1ResourceID.html" target="_top" xlink:title="Unique identifier for a resource species.">
<polygon fill="white" stroke="#666666" points="242,-85 81,-85 81,-66 242,-66 242,-85"/>
<text text-anchor="middle" x="161.5" y="-73" font-family="Helvetica,sans-Serif" font-size="10.00">ResourceSpecies::ResourceID</text>
</a>
</g>
</g>
<!-- Node4&#45;&gt;Node1 -->
<g id="edge3_Node000001_Node000004" class="edge">
<title>Node4&#45;&gt;Node1</title>
<g id="a_edge3_Node000001_Node000004"><a xlink:title=" ">
<path fill="none" stroke="#9a32cd" stroke-dasharray="5,2" d="M161.5,-55.58C161.5,-43.63 161.5,-28.72 161.5,-19.41"/>
<polygon fill="#9a32cd" stroke="#9a32cd" points="158,-55.87 161.5,-65.87 165,-55.87 158,-55.87"/>
</a>
</g>
<text text-anchor="middle" x="207.5" y="-40" font-family="Helvetica,sans-Serif" font-size="10.00" fill="grey"> resourceSpeciesId</text>
</g>
<!-- Node5 -->
<g id="Node000005" class="node">
<title>Node5</title>
<g id="a_Node000005"><a xlink:href="classResourceSpeciesGrowth.html" target="_top" xlink:title="Growth model for resource&#45;type species.">
<polygon fill="white" stroke="#666666" points="394.5,-85 260.5,-85 260.5,-66 394.5,-66 394.5,-85"/>
<text text-anchor="middle" x="327.5" y="-73" font-family="Helvetica,sans-Serif" font-size="10.00">ResourceSpeciesGrowth</text>
</a>
</g>
</g>
<!-- Node5&#45;&gt;Node1 -->
<g id="edge4_Node000001_Node000005" class="edge">
<title>Node5&#45;&gt;Node1</title>
<g id="a_edge4_Node000001_Node000005"><a xlink:title=" ">
<path fill="none" stroke="#9a32cd" stroke-dasharray="5,2" d="M304.77,-60.66C291.37,-52.92 273.88,-43.55 257.5,-37 239.04,-29.61 217.79,-23.52 199.99,-19.04"/>
<polygon fill="#9a32cd" stroke="#9a32cd" points="303.34,-63.88 313.73,-65.94 306.89,-57.84 303.34,-63.88"/>
</a>
</g>
<text text-anchor="middle" x="340.5" y="-40" font-family="Helvetica,sans-Serif" font-size="10.00" fill="grey"> resourceSpeciesGrowth</text>
</g>
<!-- Node6 -->
<g id="Node000006" class="node">
<title>Node6</title>
<g id="a_Node000006"><a xlink:href="classSpeciesGrowth.html" target="_top" xlink:title="Represents the growth characteristics of a species across its instars.">
<polygon fill="white" stroke="#666666" points="245,-152.5 156,-152.5 156,-133.5 245,-133.5 245,-152.5"/>
<text text-anchor="middle" x="200.5" y="-140.5" font-family="Helvetica,sans-Serif" font-size="10.00">SpeciesGrowth</text>
</a>
</g>
</g>
<!-- Node6&#45;&gt;Node5 -->
<g id="edge5_Node000005_Node000006" class="edge">
<title>Node6&#45;&gt;Node5</title>
<g id="a_edge5_Node000005_Node000006"><a xlink:title=" ">
<path fill="none" stroke="#63b8ff" d="M226.11,-128.79C251.4,-115.75 289.31,-96.2 310.89,-85.07"/>
<polygon fill="#63b8ff" stroke="#63b8ff" points="224.39,-125.74 217.1,-133.44 227.59,-131.96 224.39,-125.74"/>
</a>
</g>
</g>
<!-- Node7 -->
<g id="Node000007" class="node">
<title>Node7</title>
<g id="a_Node000007"><a xlink:href="classInstar.html" target="_top" xlink:title="Represents a developmental stage (instar) of an animal in the simulation.">
<polygon fill="white" stroke="#666666" points="110.5,-225.5 66.5,-225.5 66.5,-206.5 110.5,-206.5 110.5,-225.5"/>
<text text-anchor="middle" x="88.5" y="-213.5" font-family="Helvetica,sans-Serif" font-size="10.00">Instar</text>
</a>
</g>
</g>
<!-- Node7&#45;&gt;Node6 -->
<g id="edge6_Node000006_Node000007" class="edge">
<title>Node7&#45;&gt;Node6</title>
<g id="a_edge6_Node000006_Node000007"><a xlink:title=" ">
<path fill="none" stroke="#9a32cd" stroke-dasharray="5,2" d="M107.72,-199.91C119.03,-191.31 133.75,-180.58 147.5,-172 158.8,-164.95 172.05,-157.95 182.48,-152.71"/>
<polygon fill="#9a32cd" stroke="#9a32cd" points="105.26,-197.39 99.48,-206.26 109.53,-202.93 105.26,-197.39"/>
</a>
</g>
<text text-anchor="middle" x="172" y="-175" font-family="Helvetica,sans-Serif" font-size="10.00" fill="grey"> lastInstar</text>
</g>
<!-- Node8 -->
<g id="Node000008" class="node">
<title>Node8</title>
<g id="a_Node000008"><a xlink:href="classCustomIndexedVector.html" target="_top" xlink:title=" ">
<polygon fill="white" stroke="#666666" points="272,-231 129,-231 129,-201 272,-201 272,-231"/>
<text text-anchor="start" x="137" y="-219" font-family="Helvetica,sans-Serif" font-size="10.00">CustomIndexedVector</text>
<text text-anchor="middle" x="200.5" y="-208" font-family="Helvetica,sans-Serif" font-size="10.00">&lt; Instar, PreciseDouble &gt;</text>
</a>
</g>
</g>
<!-- Node8&#45;&gt;Node6 -->
<g id="edge7_Node000006_Node000008" class="edge">
<title>Node8&#45;&gt;Node6</title>
<g id="a_edge7_Node000006_Node000008"><a xlink:title=" ">
<path fill="none" stroke="#9a32cd" stroke-dasharray="5,2" d="M200.5,-190.63C200.5,-177.47 200.5,-162.03 200.5,-152.64"/>
<polygon fill="#9a32cd" stroke="#9a32cd" points="197,-190.97 200.5,-200.97 204,-190.97 197,-190.97"/>
</a>
</g>
<text text-anchor="middle" x="256.5" y="-175" font-family="Helvetica,sans-Serif" font-size="10.00" fill="grey"> conversionToWetMass</text>
</g>
<!-- Node9 -->
<g id="Node000009" class="node">
<title>Node9</title>
<g id="a_Node000009"><a xlink:href="classWetMass.html" target="_top" xlink:title="Represents wet mass in the ecosystem simulation.">
<polygon fill="white" stroke="#666666" points="447,-152.5 386,-152.5 386,-133.5 447,-133.5 447,-152.5"/>
<text text-anchor="middle" x="416.5" y="-140.5" font-family="Helvetica,sans-Serif" font-size="10.00">WetMass</text>
</a>
</g>
</g>
<!-- Node9&#45;&gt;Node5 -->
<g id="edge8_Node000005_Node000009" class="edge">
<title>Node9&#45;&gt;Node5</title>
<g id="a_edge8_Node000005_Node000009"><a xlink:title=" ">
<path fill="none" stroke="#9a32cd" stroke-dasharray="5,2" d="M396.4,-127.21C378.74,-114.21 353.66,-95.76 339.14,-85.07"/>
<polygon fill="#9a32cd" stroke="#9a32cd" points="394.74,-130.33 404.86,-133.44 398.89,-124.69 394.74,-130.33"/>
</a>
</g>
<text text-anchor="middle" x="399.5" y="-106" font-family="Helvetica,sans-Serif" font-size="10.00" fill="grey"> cellMass</text>
</g>
<!-- Node10 -->
<g id="Node000010" class="node">
<title>Node10</title>
<g id="a_Node000010"><a xlink:href="classPreciseDouble.html" target="_top" xlink:title="Class for precise double&#45;precision floating&#45;point arithmetic.">
<polygon fill="white" stroke="#666666" points="404.5,-225.5 318.5,-225.5 318.5,-206.5 404.5,-206.5 404.5,-225.5"/>
<text text-anchor="middle" x="361.5" y="-213.5" font-family="Helvetica,sans-Serif" font-size="10.00">PreciseDouble</text>
</a>
</g>
</g>
<!-- Node10&#45;&gt;Node5 -->
<g id="edge10_Node000005_Node000010" class="edge">
<title>Node10&#45;&gt;Node5</title>
<g id="a_edge10_Node000005_Node000010"><a xlink:title=" ">
<path fill="none" stroke="#9a32cd" stroke-dasharray="5,2" d="M353,-196.86C347.75,-184.93 341.31,-168.83 337.5,-154 331.22,-129.56 328.79,-99.72 327.93,-85.23"/>
<polygon fill="#9a32cd" stroke="#9a32cd" points="349.89,-198.48 357.21,-206.14 356.26,-195.58 349.89,-198.48"/>
</a>
</g>
<text text-anchor="middle" x="357.5" y="-146" font-family="Helvetica,sans-Serif" font-size="10.00" fill="grey"> maxRH</text>
<text text-anchor="middle" x="357.5" y="-135" font-family="Helvetica,sans-Serif" font-size="10.00" fill="grey">minRH</text>
</g>
<!-- Node10&#45;&gt;Node9 -->
<g id="edge9_Node000009_Node000010" class="edge">
<title>Node10&#45;&gt;Node9</title>
<g id="a_edge9_Node000009_Node000010"><a xlink:title=" ">
<path fill="none" stroke="#9a32cd" stroke-dasharray="5,2" d="M374.45,-198.28C385.49,-184.02 400.93,-164.1 409.7,-152.78"/>
<polygon fill="#9a32cd" stroke="#9a32cd" points="371.6,-196.25 368.24,-206.29 377.14,-200.53 371.6,-196.25"/>
</a>
</g>
<text text-anchor="middle" x="409" y="-175" font-family="Helvetica,sans-Serif" font-size="10.00" fill="grey"> value</text>
</g>
</g>
</svg>
</svg>

<style type='text/css'>
<![CDATA[
[data-mouse-over-selected='false'] { opacity: 0.7; }
[data-mouse-over-selected='true']  { opacity: 1.0; }
]]>
</style>
<script type="application/ecmascript"><![CDATA[
document.addEventListener('DOMContentLoaded', (event) => {
  highlightEdges();
  highlightAdjacentNodes();
});
]]></script>
</svg>
