<?xml version="1.0" encoding="UTF-8" standalone="no"?>
<!DOCTYPE svg PUBLIC "-//W3C//DTD SVG 1.1//EN"
 "http://www.w3.org/Graphics/SVG/1.1/DTD/svg11.dtd">
<!-- Generated by graphviz version 2.43.0 (0)
 -->
<!-- Title: Genetics Pages: 1 -->
<svg width="579pt" height="134pt"
 viewBox="0.00 0.00 579.00 134.00" xmlns="http://www.w3.org/2000/svg" xmlns:xlink="http://www.w3.org/1999/xlink">
<g id="graph0" class="graph" transform="scale(1 1) rotate(0) translate(4 130)">
<title>Genetics</title>
<!-- Node1 -->
<g id="Node000001" class="node">
<title>Node1</title>
<g id="a_Node000001"><a xlink:title="Represents the genetic information and traits of an individual.">
<polygon fill="#999999" stroke="#666666" points="571,-78 512,-78 512,-59 571,-59 571,-78"/>
<text text-anchor="middle" x="541.5" y="-66" font-family="Helvetica,sans-Serif" font-size="10.00">Genetics</text>
</a>
</g>
</g>
<!-- Node2 -->
<g id="Node000002" class="node">
<title>Node2</title>
<g id="a_Node000002"><a xlink:href="classAnimalSpeciesGenetics.html" target="_top" xlink:title="Manages the genetic architecture of an animal species.">
<polygon fill="white" stroke="#666666" points="364.5,-115 233.5,-115 233.5,-96 364.5,-96 364.5,-115"/>
<text text-anchor="middle" x="299" y="-103" font-family="Helvetica,sans-Serif" font-size="10.00">AnimalSpeciesGenetics</text>
</a>
</g>
</g>
<!-- Node2&#45;&gt;Node1 -->
<g id="edge1_Node000001_Node000002" class="edge">
<title>Node2&#45;&gt;Node1</title>
<g id="a_edge1_Node000001_Node000002"><a xlink:title=" ">
<path fill="none" stroke="#9a32cd" stroke-dasharray="5,2" d="M374.62,-98.91C410.86,-95.03 454.92,-89.34 494,-81.5 499.75,-80.35 505.84,-78.85 511.64,-77.29"/>
<polygon fill="#9a32cd" stroke="#9a32cd" points="374.2,-95.43 364.61,-99.95 374.92,-102.39 374.2,-95.43"/>
</a>
</g>
<text text-anchor="middle" x="449" y="-99.5" font-family="Helvetica,sans-Serif" font-size="10.00" fill="grey"> speciesGenetics</text>
</g>
<!-- Node3 -->
<g id="Node000003" class="node">
<title>Node3</title>
<g id="a_Node000003"><a xlink:href="classCustomIndexedVector.html" target="_top" xlink:title=" ">
<polygon fill="white" stroke="#666666" points="134,-126 0,-126 0,-85 134,-85 134,-126"/>
<text text-anchor="start" x="8" y="-114" font-family="Helvetica,sans-Serif" font-size="10.00">CustomIndexedVector</text>
<text text-anchor="start" x="8" y="-103" font-family="Helvetica,sans-Serif" font-size="10.00">&lt; Trait::ExecutionOrder,</text>
<text text-anchor="middle" x="67" y="-92" font-family="Helvetica,sans-Serif" font-size="10.00"> std::vector&lt; Trait * &gt; &gt;</text>
</a>
</g>
</g>
<!-- Node3&#45;&gt;Node2 -->
<g id="edge2_Node000002_Node000003" class="edge">
<title>Node3&#45;&gt;Node2</title>
<g id="a_edge2_Node000002_Node000003"><a xlink:title=" ">
<path fill="none" stroke="#9a32cd" stroke-dasharray="5,2" d="M144.27,-105.5C173.15,-105.5 205.73,-105.5 233.44,-105.5"/>
<polygon fill="#9a32cd" stroke="#9a32cd" points="144.22,-102 134.22,-105.5 144.22,-109 144.22,-102"/>
</a>
</g>
<text text-anchor="middle" x="173" y="-108.5" font-family="Helvetica,sans-Serif" font-size="10.00" fill="grey"> allTraits</text>
</g>
<!-- Node4 -->
<g id="Node000004" class="node">
<title>Node4</title>
<g id="a_Node000004"><a xlink:href="classGenome.html" target="_top" xlink:title="Represents a genome with homologous chromosomes and correlosomes.">
<polygon fill="white" stroke="#666666" points="328,-78 270,-78 270,-59 328,-59 328,-78"/>
<text text-anchor="middle" x="299" y="-66" font-family="Helvetica,sans-Serif" font-size="10.00">Genome</text>
</a>
</g>
</g>
<!-- Node4&#45;&gt;Node1 -->
<g id="edge3_Node000001_Node000004" class="edge">
<title>Node4&#45;&gt;Node1</title>
<g id="a_edge3_Node000001_Node000004"><a xlink:title=" ">
<path fill="none" stroke="#9a32cd" stroke-dasharray="5,2" d="M338.12,-68.5C386.42,-68.5 468.59,-68.5 511.87,-68.5"/>
<polygon fill="#9a32cd" stroke="#9a32cd" points="338.06,-65 328.06,-68.5 338.06,-72 338.06,-65"/>
</a>
</g>
<text text-anchor="middle" x="449" y="-71.5" font-family="Helvetica,sans-Serif" font-size="10.00" fill="grey"> genome</text>
</g>
<!-- Node5 -->
<g id="Node000005" class="node">
<title>Node5</title>
<g id="a_Node000005"><a xlink:href="classCustomIndexedVector.html" target="_top" xlink:title=" ">
<polygon fill="white" stroke="#666666" points="386,-41 212,-41 212,0 386,0 386,-41"/>
<text text-anchor="start" x="220" y="-29" font-family="Helvetica,sans-Serif" font-size="10.00">CustomIndexedVector</text>
<text text-anchor="start" x="220" y="-18" font-family="Helvetica,sans-Serif" font-size="10.00">&lt; Trait::ExecutionOrder,</text>
<text text-anchor="middle" x="299" y="-7" font-family="Helvetica,sans-Serif" font-size="10.00"> std::vector&lt; IndividualTrait &gt; &gt;</text>
</a>
</g>
</g>
<!-- Node5&#45;&gt;Node1 -->
<g id="edge4_Node000001_Node000005" class="edge">
<title>Node5&#45;&gt;Node1</title>
<g id="a_edge4_Node000001_Node000005"><a xlink:title=" ">
<path fill="none" stroke="#9a32cd" stroke-dasharray="5,2" d="M396.08,-34.04C427.49,-39.21 462.41,-45.76 494,-53.5 500.26,-55.03 506.9,-56.98 513.15,-58.96"/>
<polygon fill="#9a32cd" stroke="#9a32cd" points="396.45,-30.56 386.01,-32.41 395.33,-37.47 396.45,-30.56"/>
</a>
</g>
<text text-anchor="middle" x="449" y="-56.5" font-family="Helvetica,sans-Serif" font-size="10.00" fill="grey"> allIndividualTraits</text>
</g>
</g>
</svg>
