<?xml version="1.0" encoding="UTF-8" standalone="no"?>
<!DOCTYPE svg PUBLIC "-//W3C//DTD SVG 1.1//EN"
 "http://www.w3.org/Graphics/SVG/1.1/DTD/svg11.dtd">
<!-- Generated by graphviz version 2.43.0 (0)
 -->
<!-- Title: View Pages: 1 -->
<svg width="118pt" height="82pt"
 viewBox="0.00 0.00 117.50 82.00" xmlns="http://www.w3.org/2000/svg" xmlns:xlink="http://www.w3.org/1999/xlink">
<g id="graph0" class="graph" transform="scale(1 1) rotate(0) translate(4 78)">
<title>View</title>
<!-- Node1 -->
<g id="Node000001" class="node">
<title>Node1</title>
<g id="a_Node000001"><a xlink:title="Abstract base class representing a view in the MVC pattern.">
<polygon fill="#999999" stroke="#666666" points="80.5,-74 39.5,-74 39.5,-55 80.5,-55 80.5,-74"/>
<text text-anchor="middle" x="60" y="-62" font-family="Helvetica,sans-Serif" font-size="10.00">View</text>
</a>
</g>
</g>
<!-- Node2 -->
<g id="Node000002" class="node">
<title>Node2</title>
<g id="a_Node000002"><a xlink:href="classConsole.html" target="_top" xlink:title="Console&#45;based implementation of the View interface.">
<polygon fill="white" stroke="#666666" points="56,-19 0,-19 0,0 56,0 56,-19"/>
<text text-anchor="middle" x="28" y="-7" font-family="Helvetica,sans-Serif" font-size="10.00">Console</text>
</a>
</g>
</g>
<!-- Node1&#45;&gt;Node2 -->
<g id="edge1_Node000001_Node000002" class="edge">
<title>Node1&#45;&gt;Node2</title>
<g id="a_edge1_Node000001_Node000002"><a xlink:title=" ">
<path fill="none" stroke="#63b8ff" d="M49.5,-46.1C44.03,-37.04 37.58,-26.37 33.19,-19.09"/>
<polygon fill="#63b8ff" stroke="#63b8ff" points="46.55,-48 54.72,-54.75 52.54,-44.38 46.55,-48"/>
</a>
</g>
</g>
<!-- Node3 -->
<g id="Node000003" class="node">
<title>Node3</title>
<g id="a_Node000003"><a xlink:href="classGUI.html" target="_top" xlink:title="Graphical User Interface class derived from View.">
<polygon fill="white" stroke="#666666" points="109.5,-19 74.5,-19 74.5,0 109.5,0 109.5,-19"/>
<text text-anchor="middle" x="92" y="-7" font-family="Helvetica,sans-Serif" font-size="10.00">GUI</text>
</a>
</g>
</g>
<!-- Node1&#45;&gt;Node3 -->
<g id="edge2_Node000001_Node000003" class="edge">
<title>Node1&#45;&gt;Node3</title>
<g id="a_edge2_Node000001_Node000003"><a xlink:title=" ">
<path fill="none" stroke="#63b8ff" d="M70.5,-46.1C75.97,-37.04 82.42,-26.37 86.81,-19.09"/>
<polygon fill="#63b8ff" stroke="#63b8ff" points="67.46,-44.38 65.28,-54.75 73.45,-48 67.46,-44.38"/>
</a>
</g>
</g>
</g>
</svg>
