<?xml version="1.0" encoding="UTF-8" standalone="no"?>
<!DOCTYPE svg PUBLIC "-//W3C//DTD SVG 1.1//EN"
 "http://www.w3.org/Graphics/SVG/1.1/DTD/svg11.dtd">
<!-- Generated by graphviz version 2.43.0 (0)
 -->
<!-- Title: DecisionsTrait Pages: 1 -->
<svg width="481pt" height="194pt"
 viewBox="0.00 0.00 481.00 194.00" xmlns="http://www.w3.org/2000/svg" xmlns:xlink="http://www.w3.org/1999/xlink">

<svg id="main" version="1.1" xmlns="http://www.w3.org/2000/svg" xmlns:xlink="http://www.w3.org/1999/xlink" xml:space="preserve" onload="init(evt)">
<style type="text/css"><![CDATA[
.node, .edge {opacity: 0.7;}
.node.selected, .edge.selected {opacity: 1;}
.edge:hover path { stroke: red; }
.edge:hover polygon { stroke: red; fill: red; }
]]></style>
<script type="application/ecmascript" xlink:href="svg.min.js"/>
<svg id="graph" class="graph">
<g id="graph0" class="graph" transform="scale(1 1) rotate(0) translate(4 190)">
<title>DecisionsTrait</title>
<!-- Node1 -->
<g id="Node000001" class="node">
<title>Node1</title>
<g id="a_Node000001"><a xlink:title="Represents a trait that affects decision&#45;making of individuals.">
<polygon fill="#999999" stroke="#666666" points="473,-83 388,-83 388,-64 473,-64 473,-83"/>
<text text-anchor="middle" x="430.5" y="-71" font-family="Helvetica,sans-Serif" font-size="10.00">DecisionsTrait</text>
</a>
</g>
</g>
<!-- Node2 -->
<g id="Node000002" class="node">
<title>Node2</title>
<g id="a_Node000002"><a xlink:href="classTrait.html" target="_top" xlink:title="Represents a trait of an animal species or individual.">
<polygon fill="white" stroke="#666666" points="351,-83 313,-83 313,-64 351,-64 351,-83"/>
<text text-anchor="middle" x="332" y="-71" font-family="Helvetica,sans-Serif" font-size="10.00">Trait</text>
</a>
</g>
</g>
<!-- Node2&#45;&gt;Node1 -->
<g id="edge1_Node000001_Node000002" class="edge">
<title>Node2&#45;&gt;Node1</title>
<g id="a_edge1_Node000001_Node000002"><a xlink:title=" ">
<path fill="none" stroke="#63b8ff" d="M361.39,-73.5C369.67,-73.5 378.9,-73.5 387.82,-73.5"/>
<polygon fill="#63b8ff" stroke="#63b8ff" points="361.15,-70 351.15,-73.5 361.15,-77 361.15,-70"/>
</a>
</g>
</g>
<!-- Node3 -->
<g id="Node000003" class="node">
<title>Node3</title>
<g id="a_Node000003"><a xlink:href="classCustomIndexedVector.html" target="_top" xlink:title=" ">
<polygon fill="white" stroke="#666666" points="153,-186 0,-186 0,-145 153,-145 153,-186"/>
<text text-anchor="start" x="8" y="-174" font-family="Helvetica,sans-Serif" font-size="10.00">CustomIndexedVector</text>
<text text-anchor="start" x="8" y="-163" font-family="Helvetica,sans-Serif" font-size="10.00">&lt; ExecutionOrder, Generate</text>
<text text-anchor="middle" x="76.5" y="-152" font-family="Helvetica,sans-Serif" font-size="10.00">TraitsFunc &gt;</text>
</a>
</g>
</g>
<!-- Node3&#45;&gt;Node2 -->
<g id="edge2_Node000002_Node000003" class="edge">
<title>Node3&#45;&gt;Node2</title>
<g id="a_edge2_Node000002_Node000003"><a xlink:title=" ">
<path fill="none" stroke="#9a32cd" stroke-dasharray="5,2" d="M162.89,-150.62C204.4,-141.16 254.04,-126.46 295,-104.5 305.32,-98.97 315.27,-90.03 322.08,-83.17"/>
<polygon fill="#9a32cd" stroke="#9a32cd" points="162.08,-147.21 153.07,-152.79 163.59,-154.05 162.08,-147.21"/>
</a>
</g>
<text text-anchor="middle" x="233" y="-150.5" font-family="Helvetica,sans-Serif" font-size="10.00" fill="grey"> registryGenerateTraits</text>
</g>
<!-- Node4 -->
<g id="Node000004" class="node">
<title>Node4</title>
<g id="a_Node000004"><a xlink:href="classCustomIndexedVector.html" target="_top" xlink:title=" ">
<polygon fill="white" stroke="#666666" points="139,-126.5 14,-126.5 14,-74.5 139,-74.5 139,-126.5"/>
<text text-anchor="start" x="22" y="-114.5" font-family="Helvetica,sans-Serif" font-size="10.00">CustomIndexedVector</text>
<text text-anchor="start" x="22" y="-103.5" font-family="Helvetica,sans-Serif" font-size="10.00">&lt; ExecutionOrder, std</text>
<text text-anchor="start" x="22" y="-92.5" font-family="Helvetica,sans-Serif" font-size="10.00">::function&lt; std::vector</text>
<text text-anchor="middle" x="76.5" y="-81.5" font-family="Helvetica,sans-Serif" font-size="10.00">&lt; std::string &gt;()&gt; &gt;</text>
</a>
</g>
</g>
<!-- Node4&#45;&gt;Node2 -->
<g id="edge3_Node000002_Node000004" class="edge">
<title>Node4&#45;&gt;Node2</title>
<g id="a_edge3_Node000002_Node000004"><a xlink:title=" ">
<path fill="none" stroke="#9a32cd" stroke-dasharray="5,2" d="M149.44,-92.84C205.55,-86.86 279.39,-79 312.98,-75.42"/>
<polygon fill="#9a32cd" stroke="#9a32cd" points="148.76,-89.39 139.19,-93.93 149.5,-96.35 148.76,-89.39"/>
</a>
</g>
<text text-anchor="middle" x="233" y="-92.5" font-family="Helvetica,sans-Serif" font-size="10.00" fill="grey"> registryGetTraitStrVector</text>
</g>
<!-- Node5 -->
<g id="Node000005" class="node">
<title>Node5</title>
<g id="a_Node000005"><a xlink:href="classTraitDefinitionSection.html" target="_top" xlink:title="Represents the definition of a trait, either at the species or individual level.">
<polygon fill="white" stroke="#666666" points="137,-56 16,-56 16,-37 137,-37 137,-56"/>
<text text-anchor="middle" x="76.5" y="-44" font-family="Helvetica,sans-Serif" font-size="10.00">TraitDefinitionSection</text>
</a>
</g>
</g>
<!-- Node5&#45;&gt;Node2 -->
<g id="edge4_Node000002_Node000005" class="edge">
<title>Node5&#45;&gt;Node2</title>
<g id="a_edge4_Node000002_Node000005"><a xlink:title=" ">
<path fill="none" stroke="#9a32cd" stroke-dasharray="5,2" d="M147.18,-46.84C190.15,-48.15 246.19,-51.84 295,-61.5 300.95,-62.68 307.27,-64.56 312.93,-66.48"/>
<polygon fill="#9a32cd" stroke="#9a32cd" points="147.2,-43.34 137.11,-46.57 147.01,-50.34 147.2,-43.34"/>
</a>
</g>
<text text-anchor="middle" x="233" y="-64.5" font-family="Helvetica,sans-Serif" font-size="10.00" fill="grey"> value</text>
</g>
<!-- Node6 -->
<g id="Node000006" class="node">
<title>Node6</title>
<g id="a_Node000006"><a xlink:href="classTraitTemperatureSection.html" target="_top" xlink:title="Represents the temperature&#45;dependent part of a trait.">
<polygon fill="white" stroke="#666666" points="144,-19 9,-19 9,0 144,0 144,-19"/>
<text text-anchor="middle" x="76.5" y="-7" font-family="Helvetica,sans-Serif" font-size="10.00">TraitTemperatureSection</text>
</a>
</g>
</g>
<!-- Node6&#45;&gt;Node2 -->
<g id="edge5_Node000002_Node000006" class="edge">
<title>Node6&#45;&gt;Node2</title>
<g id="a_edge5_Node000002_Node000006"><a xlink:title=" ">
<path fill="none" stroke="#9a32cd" stroke-dasharray="5,2" d="M154.6,-4.24C198.06,-4.47 252.08,-10.27 295,-32.5 308.63,-39.56 319.42,-54.1 325.52,-63.83"/>
<polygon fill="#9a32cd" stroke="#9a32cd" points="154.35,-0.74 144.36,-4.29 154.38,-7.74 154.35,-0.74"/>
</a>
</g>
<text text-anchor="middle" x="233" y="-35.5" font-family="Helvetica,sans-Serif" font-size="10.00" fill="grey"> temperatureSection</text>
</g>
</g>
</svg>
</svg>

<style type='text/css'>
<![CDATA[
[data-mouse-over-selected='false'] { opacity: 0.7; }
[data-mouse-over-selected='true']  { opacity: 1.0; }
]]>
</style>
<script type="application/ecmascript"><![CDATA[
document.addEventListener('DOMContentLoaded', (event) => {
  highlightEdges();
  highlightAdjacentNodes();
});
]]></script>
</svg>
