<?xml version="1.0" encoding="UTF-8" standalone="no"?>
<!DOCTYPE svg PUBLIC "-//W3C//DTD SVG 1.1//EN"
 "http://www.w3.org/Graphics/SVG/1.1/DTD/svg11.dtd">
<!-- Generated by graphviz version 2.43.0 (0)
 -->
<!-- Title: /home/runner/work/Weaver/Weaver/include/App/View/Console.h Pages: 1 -->
<!--zoomable 280 -->

<svg id="main" version="1.1" xmlns="http://www.w3.org/2000/svg" xmlns:xlink="http://www.w3.org/1999/xlink" xml:space="preserve" onload="init(evt)">
<style type="text/css"><![CDATA[
.node, .edge {opacity: 0.7;}
.node.selected, .edge.selected {opacity: 1;}
.edge:hover path { stroke: red; }
.edge:hover polygon { stroke: red; fill: red; }
]]></style>

<defs>
  <circle id="rim" cx="0" cy="0" r="7"/>
  <circle id="rim2" cx="0" cy="0" r="3.5"/>
  <g id="zoomPlus">
    <use xlink:href="#rim" fill="#404040"><set attributeName="fill" to="#808080" begin="zoomplus.mouseover" end="zoomplus.mouseout"/></use>
    <path d="M-4,0h8M0,-4v8" fill="none" stroke="white" stroke-width="1.5" pointer-events="none"/>
  </g>
  <g id="zoomMin">
    <use xlink:href="#rim" fill="#404040"><set attributeName="fill" to="#808080" begin="zoomminus.mouseover" end="zoomminus.mouseout"/></use>
    <path d="M-4,0h8" fill="none" stroke="white" stroke-width="1.5" pointer-events="none"/>
  </g>
  <g id="arrowUp" transform="translate(30 24)">
    <use xlink:href="#rim"/>
    <path pointer-events="none" fill="none" stroke="white" stroke-width="1.5" d="M0,-3.0v7 M-2.5,-0.5L0,-3.0L2.5,-0.5"/>
  </g>
  <g id="arrowRight" transform="rotate(90) translate(36 -43)">
    <use xlink:href="#rim"/>
    <path pointer-events="none" fill="none" stroke="white" stroke-width="1.5" d="M0,-3.0v7 M-2.5,-0.5L0,-3.0L2.5,-0.5"/>
  </g>
  <g id="arrowDown" transform="rotate(180) translate(-30 -48)">
    <use xlink:href="#rim"/>
    <path pointer-events="none" fill="none" stroke="white" stroke-width="1.5" d="M0,-3.0v7 M-2.5,-0.5L0,-3.0L2.5,-0.5"/>
  </g>
  <g id="arrowLeft" transform="rotate(270) translate(-36 17)">
    <use xlink:href="#rim"/>
    <path pointer-events="none" fill="none" stroke="white" stroke-width="1.5" d="M0,-3.0v7 M-2.5,-0.5L0,-3.0L2.5,-0.5"/>
  </g>
  <g id="resetDef">
    <use xlink:href="#rim2" fill="#404040"><set attributeName="fill" to="#808080" begin="reset.mouseover" end="reset.mouseout"/></use>
  </g>
</defs>
<script type="application/ecmascript">
var viewWidth = 1276;
var viewHeight = 280;
var sectionId = 'dynsection-0';
</script>
<script type="application/ecmascript" xlink:href="svg.min.js"/>
<svg id="graph" class="graph">
<g id="viewport">
<title>/home/runner/work/Weaver/Weaver/include/App/View/Console.h</title>
<!-- Node1 -->
<g id="Node000001" class="node">
<title>Node1</title>
<g id="a_Node000001"><a xlink:title="Defines the Console class for Weaver ecosystem simulator.">
<polygon fill="#999999" stroke="#666666" points="325.6,-272 176.6,-272 176.6,-231 325.6,-231 325.6,-272"/>
<text text-anchor="start" x="184.6" y="-260" font-family="Helvetica,sans-Serif" font-size="10.00">/home/runner/work/Weaver</text>
<text text-anchor="start" x="184.6" y="-249" font-family="Helvetica,sans-Serif" font-size="10.00">/Weaver/include/App/View</text>
<text text-anchor="middle" x="251.1" y="-238" font-family="Helvetica,sans-Serif" font-size="10.00">/Console.h</text>
</a>
</g>
</g>
<!-- Node2 -->
<g id="Node000002" class="node">
<title>Node2</title>
<g id="a_Node000002"><a xlink:title=" ">
<polygon fill="#e0e0e0" stroke="#999999" points="685.1,-19 641.1,-19 641.1,0 685.1,0 685.1,-19"/>
<text text-anchor="middle" x="663.1" y="-7" font-family="Helvetica,sans-Serif" font-size="10.00">string</text>
</a>
</g>
</g>
<!-- Node1&#45;&gt;Node2 -->
<g id="edge1_Node000001_Node000002" class="edge">
<title>Node1&#45;&gt;Node2</title>
<g id="a_edge1_Node000001_Node000002"><a xlink:title=" ">
<path fill="none" stroke="#63b8ff" d="M176.43,-239.89C118.48,-227.16 42.42,-199.52 8.1,-140 -4.65,-117.88 -2.77,-76.62 22.1,-55 68.33,-14.82 507.01,-10.83 630.75,-10.51"/>
<polygon fill="#63b8ff" stroke="#63b8ff" points="631.08,-14.01 641.07,-10.49 631.07,-7.01 631.08,-14.01"/>
</a>
</g>
</g>
<!-- Node3 -->
<g id="Node000003" class="node">
<title>Node3</title>
<g id="a_Node000003"><a xlink:title=" ">
<polygon fill="#e0e0e0" stroke="#999999" points="172.1,-195 112.1,-195 112.1,-176 172.1,-176 172.1,-195"/>
<text text-anchor="middle" x="142.1" y="-183" font-family="Helvetica,sans-Serif" font-size="10.00">iostream</text>
</a>
</g>
</g>
<!-- Node1&#45;&gt;Node3 -->
<g id="edge2_Node000001_Node000003" class="edge">
<title>Node1&#45;&gt;Node3</title>
<g id="a_edge2_Node000001_Node000003"><a xlink:title=" ">
<path fill="none" stroke="#63b8ff" d="M217.81,-230.95C200.91,-221.03 180.78,-209.21 165.53,-200.25"/>
<polygon fill="#63b8ff" stroke="#63b8ff" points="167.13,-197.14 156.74,-195.09 163.59,-203.17 167.13,-197.14"/>
</a>
</g>
</g>
<!-- Node4 -->
<g id="Node000004" class="node">
<title>Node4</title>
<g id="a_Node000004"><a xlink:href="GlobalVariable_8h.html" target="_top" xlink:title="Defines global constants and paths used throughout the simulation.">
<polygon fill="white" stroke="#666666" points="312.1,-195 190.1,-195 190.1,-176 312.1,-176 312.1,-195"/>
<text text-anchor="middle" x="251.1" y="-183" font-family="Helvetica,sans-Serif" font-size="10.00">Misc/GlobalVariable.h</text>
</a>
</g>
</g>
<!-- Node1&#45;&gt;Node4 -->
<g id="edge3_Node000001_Node000004" class="edge">
<title>Node1&#45;&gt;Node4</title>
<g id="a_edge3_Node000001_Node000004"><a xlink:title=" ">
<path fill="none" stroke="#63b8ff" d="M251.1,-230.95C251.1,-222.85 251.1,-213.5 251.1,-205.47"/>
<polygon fill="#63b8ff" stroke="#63b8ff" points="254.6,-205.26 251.1,-195.26 247.6,-205.26 254.6,-205.26"/>
</a>
</g>
</g>
<!-- Node7 -->
<g id="Node000007" class="node">
<title>Node7</title>
<g id="a_Node000007"><a xlink:href="View_8h.html" target="_top" xlink:title="Abstract base class for a view in the MVC pattern, handling logging and RunMode titles.">
<polygon fill="white" stroke="#666666" points="574.1,-195 476.1,-195 476.1,-176 574.1,-176 574.1,-195"/>
<text text-anchor="middle" x="525.1" y="-183" font-family="Helvetica,sans-Serif" font-size="10.00">App/View/View.h</text>
</a>
</g>
</g>
<!-- Node1&#45;&gt;Node7 -->
<g id="edge7_Node000001_Node000007" class="edge">
<title>Node1&#45;&gt;Node7</title>
<g id="a_edge7_Node000001_Node000007"><a xlink:title=" ">
<path fill="none" stroke="#63b8ff" d="M325.61,-233.1C374.36,-221.71 436.55,-207.18 478.43,-197.4"/>
<polygon fill="#63b8ff" stroke="#63b8ff" points="479.41,-200.77 488.35,-195.08 477.82,-193.95 479.41,-200.77"/>
</a>
</g>
</g>
<!-- Node15 -->
<g id="Node000015" class="node">
<title>Node15</title>
<g id="a_Node000015"><a xlink:href="EnumClass_8h.html" target="_top" xlink:title="Template helper class for working with strongly&#45;typed enums.">
<polygon fill="white" stroke="#666666" points="1004.6,-140 899.6,-140 899.6,-121 1004.6,-121 1004.6,-140"/>
<text text-anchor="middle" x="952.1" y="-128" font-family="Helvetica,sans-Serif" font-size="10.00">Misc/EnumClass.h</text>
</a>
</g>
</g>
<!-- Node1&#45;&gt;Node15 -->
<g id="edge28_Node000001_Node000015" class="edge">
<title>Node1&#45;&gt;Node15</title>
<g id="a_edge28_Node000001_Node000015"><a xlink:title=" ">
<path fill="none" stroke="#63b8ff" d="M325.62,-238.15C392.92,-226.97 494.66,-210 583.1,-195 692.52,-176.44 820.1,-154.39 892.96,-141.77"/>
<polygon fill="#63b8ff" stroke="#63b8ff" points="893.62,-145.21 902.87,-140.05 892.42,-138.31 893.62,-145.21"/>
</a>
</g>
</g>
<!-- Node5 -->
<g id="Node000005" class="node">
<title>Node5</title>
<g id="a_Node000005"><a xlink:href="PathUtils_8h.html" target="_top" xlink:title="Utility functions for handling filesystem paths.">
<polygon fill="white" stroke="#666666" points="112.6,-140 17.6,-140 17.6,-121 112.6,-121 112.6,-140"/>
<text text-anchor="middle" x="65.1" y="-128" font-family="Helvetica,sans-Serif" font-size="10.00">Misc/PathUtils.h</text>
</a>
</g>
</g>
<!-- Node4&#45;&gt;Node5 -->
<g id="edge4_Node000004_Node000005" class="edge">
<title>Node4&#45;&gt;Node5</title>
<g id="a_edge4_Node000004_Node000005"><a xlink:title=" ">
<path fill="none" stroke="#63b8ff" d="M221.22,-175.98C189.72,-167.01 139.93,-152.82 105.08,-142.89"/>
<polygon fill="#63b8ff" stroke="#63b8ff" points="105.8,-139.46 95.22,-140.08 103.88,-146.19 105.8,-139.46"/>
</a>
</g>
</g>
<!-- Node5&#45;&gt;Node2 -->
<g id="edge6_Node000005_Node000002" class="edge">
<title>Node5&#45;&gt;Node2</title>
<g id="a_edge6_Node000005_Node000002"><a xlink:title=" ">
<path fill="none" stroke="#63b8ff" d="M76.74,-120.96C99.36,-104.87 151.44,-70.28 201.1,-55 281.76,-30.18 539.71,-16.18 630.84,-11.92"/>
<polygon fill="#63b8ff" stroke="#63b8ff" points="631.03,-15.41 640.86,-11.46 630.71,-8.42 631.03,-15.41"/>
</a>
</g>
</g>
<!-- Node6 -->
<g id="Node000006" class="node">
<title>Node6</title>
<g id="a_Node000006"><a xlink:title=" ">
<polygon fill="#e0e0e0" stroke="#999999" points="99.1,-79.5 31.1,-79.5 31.1,-60.5 99.1,-60.5 99.1,-79.5"/>
<text text-anchor="middle" x="65.1" y="-67.5" font-family="Helvetica,sans-Serif" font-size="10.00">filesystem</text>
</a>
</g>
</g>
<!-- Node5&#45;&gt;Node6 -->
<g id="edge5_Node000005_Node000006" class="edge">
<title>Node5&#45;&gt;Node6</title>
<g id="a_edge5_Node000005_Node000006"><a xlink:title=" ">
<path fill="none" stroke="#63b8ff" d="M65.1,-120.87C65.1,-112.75 65.1,-100.31 65.1,-89.89"/>
<polygon fill="#63b8ff" stroke="#63b8ff" points="68.6,-89.67 65.1,-79.67 61.6,-89.67 68.6,-89.67"/>
</a>
</g>
</g>
<!-- Node7&#45;&gt;Node2 -->
<g id="edge8_Node000007_Node000002" class="edge">
<title>Node7&#45;&gt;Node2</title>
<g id="a_edge8_Node000007_Node000002"><a xlink:title=" ">
<path fill="none" stroke="#63b8ff" d="M558.96,-175.97C590.12,-167.42 633.12,-153.6 644.1,-140 669.84,-108.13 668.75,-56.94 665.86,-29.44"/>
<polygon fill="#63b8ff" stroke="#63b8ff" points="669.29,-28.71 664.58,-19.22 662.35,-29.58 669.29,-28.71"/>
</a>
</g>
</g>
<!-- Node7&#45;&gt;Node5 -->
<g id="edge27_Node000007_Node000005" class="edge">
<title>Node7&#45;&gt;Node5</title>
<g id="a_edge27_Node000007_Node000005"><a xlink:title=" ">
<path fill="none" stroke="#63b8ff" d="M475.9,-179.74C401.6,-172.4 256.12,-157.47 122.73,-140.17"/>
<polygon fill="#63b8ff" stroke="#63b8ff" points="123.11,-136.69 112.74,-138.87 122.21,-143.63 123.11,-136.69"/>
</a>
</g>
</g>
<!-- Node8 -->
<g id="Node000008" class="node">
<title>Node8</title>
<g id="a_Node000008"><a xlink:title=" ">
<polygon fill="#e0e0e0" stroke="#999999" points="812.6,-140 729.6,-140 729.6,-121 812.6,-121 812.6,-140"/>
<text text-anchor="middle" x="771.1" y="-128" font-family="Helvetica,sans-Serif" font-size="10.00">initializer_list</text>
</a>
</g>
</g>
<!-- Node7&#45;&gt;Node8 -->
<g id="edge9_Node000007_Node000008" class="edge">
<title>Node7&#45;&gt;Node8</title>
<g id="a_edge9_Node000007_Node000008"><a xlink:title=" ">
<path fill="none" stroke="#63b8ff" d="M564.63,-175.98C607.27,-166.8 675.25,-152.15 721.47,-142.19"/>
<polygon fill="#63b8ff" stroke="#63b8ff" points="722.23,-145.61 731.27,-140.08 720.76,-138.77 722.23,-145.61"/>
</a>
</g>
</g>
<!-- Node9 -->
<g id="Node000009" class="node">
<title>Node9</title>
<g id="a_Node000009"><a xlink:title=" ">
<polygon fill="#e0e0e0" stroke="#999999" points="881.1,-140 831.1,-140 831.1,-121 881.1,-121 881.1,-140"/>
<text text-anchor="middle" x="856.1" y="-128" font-family="Helvetica,sans-Serif" font-size="10.00">chrono</text>
</a>
</g>
</g>
<!-- Node7&#45;&gt;Node9 -->
<g id="edge10_Node000007_Node000009" class="edge">
<title>Node7&#45;&gt;Node9</title>
<g id="a_edge10_Node000007_Node000009"><a xlink:title=" ">
<path fill="none" stroke="#63b8ff" d="M574.23,-178.61C631.31,-171.44 728.51,-158.23 821.1,-140.03"/>
<polygon fill="#63b8ff" stroke="#63b8ff" points="821.79,-143.47 830.91,-138.08 820.42,-136.6 821.79,-143.47"/>
</a>
</g>
</g>
<!-- Node10 -->
<g id="Node000010" class="node">
<title>Node10</title>
<g id="a_Node000010"><a xlink:title=" ">
<polygon fill="#e0e0e0" stroke="#999999" points="185.6,-140 130.6,-140 130.6,-121 185.6,-121 185.6,-140"/>
<text text-anchor="middle" x="158.1" y="-128" font-family="Helvetica,sans-Serif" font-size="10.00">fstream</text>
</a>
</g>
</g>
<!-- Node7&#45;&gt;Node10 -->
<g id="edge11_Node000007_Node000010" class="edge">
<title>Node7&#45;&gt;Node10</title>
<g id="a_edge11_Node000007_Node000010"><a xlink:title=" ">
<path fill="none" stroke="#63b8ff" d="M476.07,-179.43C413.27,-172.6 300.9,-159.26 196.07,-140.22"/>
<polygon fill="#63b8ff" stroke="#63b8ff" points="196.42,-136.73 185.95,-138.36 195.16,-143.61 196.42,-136.73"/>
</a>
</g>
</g>
<!-- Node11 -->
<g id="Node000011" class="node">
<title>Node11</title>
<g id="a_Node000011"><a xlink:title=" ">
<polygon fill="#e0e0e0" stroke="#999999" points="747.1,-79.5 691.1,-79.5 691.1,-60.5 747.1,-60.5 747.1,-79.5"/>
<text text-anchor="middle" x="719.1" y="-67.5" font-family="Helvetica,sans-Serif" font-size="10.00">sstream</text>
</a>
</g>
</g>
<!-- Node7&#45;&gt;Node11 -->
<g id="edge12_Node000007_Node000011" class="edge">
<title>Node7&#45;&gt;Node11</title>
<g id="a_edge12_Node000007_Node000011"><a xlink:title=" ">
<path fill="none" stroke="#63b8ff" d="M574.43,-179.34C606.39,-173.9 647.43,-162.76 677.1,-140 694.1,-126.96 705.77,-104.92 712.41,-89.26"/>
<polygon fill="#63b8ff" stroke="#63b8ff" points="715.8,-90.21 716.22,-79.62 709.29,-87.64 715.8,-90.21"/>
</a>
</g>
</g>
<!-- Node12 -->
<g id="Node000012" class="node">
<title>Node12</title>
<g id="a_Node000012"><a xlink:title=" ">
<polygon fill="#e0e0e0" stroke="#999999" points="435.1,-140 379.1,-140 379.1,-121 435.1,-121 435.1,-140"/>
<text text-anchor="middle" x="407.1" y="-128" font-family="Helvetica,sans-Serif" font-size="10.00">iomanip</text>
</a>
</g>
</g>
<!-- Node7&#45;&gt;Node12 -->
<g id="edge13_Node000007_Node000012" class="edge">
<title>Node7&#45;&gt;Node12</title>
<g id="a_edge13_Node000007_Node000012"><a xlink:title=" ">
<path fill="none" stroke="#63b8ff" d="M506.14,-175.98C487.08,-167.42 457.44,-154.11 435.56,-144.28"/>
<polygon fill="#63b8ff" stroke="#63b8ff" points="436.96,-141.07 426.41,-140.17 434.09,-147.46 436.96,-141.07"/>
</a>
</g>
</g>
<!-- Node13 -->
<g id="Node000013" class="node">
<title>Node13</title>
<g id="a_Node000013"><a xlink:title=" ">
<polygon fill="#e0e0e0" stroke="#999999" points="497.1,-140 453.1,-140 453.1,-121 497.1,-121 497.1,-140"/>
<text text-anchor="middle" x="475.1" y="-128" font-family="Helvetica,sans-Serif" font-size="10.00">ctime</text>
</a>
</g>
</g>
<!-- Node7&#45;&gt;Node13 -->
<g id="edge14_Node000007_Node000013" class="edge">
<title>Node7&#45;&gt;Node13</title>
<g id="a_edge14_Node000007_Node000013"><a xlink:title=" ">
<path fill="none" stroke="#63b8ff" d="M516.85,-175.75C509.64,-168.11 498.99,-156.82 490.26,-147.56"/>
<polygon fill="#63b8ff" stroke="#63b8ff" points="492.61,-144.96 483.21,-140.09 487.52,-149.76 492.61,-144.96"/>
</a>
</g>
</g>
<!-- Node14 -->
<g id="Node000014" class="node">
<title>Node14</title>
<g id="a_Node000014"><a xlink:href="RunMode_8h_source.html" target="_top" xlink:title=" ">
<polygon fill="white" stroke="#666666" points="635.1,-140 515.1,-140 515.1,-121 635.1,-121 635.1,-140"/>
<text text-anchor="middle" x="575.1" y="-128" font-family="Helvetica,sans-Serif" font-size="10.00">App/View/RunMode.h</text>
</a>
</g>
</g>
<!-- Node7&#45;&gt;Node14 -->
<g id="edge15_Node000007_Node000014" class="edge">
<title>Node7&#45;&gt;Node14</title>
<g id="a_edge15_Node000007_Node000014"><a xlink:title=" ">
<path fill="none" stroke="#63b8ff" d="M533.36,-175.75C540.57,-168.11 551.21,-156.82 559.95,-147.56"/>
<polygon fill="#63b8ff" stroke="#63b8ff" points="562.68,-149.76 567,-140.09 557.59,-144.96 562.68,-149.76"/>
</a>
</g>
</g>
<!-- Node7&#45;&gt;Node15 -->
<g id="edge16_Node000007_Node000015" class="edge">
<title>Node7&#45;&gt;Node15</title>
<g id="a_edge16_Node000007_Node000015"><a xlink:title=" ">
<path fill="none" stroke="#63b8ff" d="M574.13,-178.76C642.31,-170.72 769.88,-155.5 889.29,-140.09"/>
<polygon fill="#63b8ff" stroke="#63b8ff" points="889.88,-143.54 899.35,-138.79 888.98,-136.6 889.88,-143.54"/>
</a>
</g>
</g>
<!-- Node20 -->
<g id="Node000020" class="node">
<title>Node20</title>
<g id="a_Node000020"><a xlink:href="CustomIndexedVector_8h.html" target="_top" xlink:title="Template class providing a vector indexed by a custom type with bounds checking and Boost....">
<polygon fill="white" stroke="#666666" points="360.6,-140 203.6,-140 203.6,-121 360.6,-121 360.6,-140"/>
<text text-anchor="middle" x="282.1" y="-128" font-family="Helvetica,sans-Serif" font-size="10.00">Misc/CustomIndexedVector.h</text>
</a>
</g>
</g>
<!-- Node7&#45;&gt;Node20 -->
<g id="edge24_Node000007_Node000020" class="edge">
<title>Node7&#45;&gt;Node20</title>
<g id="a_edge24_Node000007_Node000020"><a xlink:title=" ">
<path fill="none" stroke="#63b8ff" d="M486.06,-175.98C444.03,-166.82 377.06,-152.21 331.42,-142.26"/>
<polygon fill="#63b8ff" stroke="#63b8ff" points="331.97,-138.79 321.45,-140.08 330.48,-145.63 331.97,-138.79"/>
</a>
</g>
</g>
<!-- Node15&#45;&gt;Node2 -->
<g id="edge18_Node000015_Node000002" class="edge">
<title>Node15&#45;&gt;Node2</title>
<g id="a_edge18_Node000015_Node000002"><a xlink:title=" ">
<path fill="none" stroke="#63b8ff" d="M903.26,-120.94C871.07,-114.06 828.63,-102.6 794.1,-85 774.93,-75.23 774.37,-66.38 756.1,-55 736.18,-42.59 712.27,-31.21 693.68,-23.07"/>
<polygon fill="#63b8ff" stroke="#63b8ff" points="695.06,-19.86 684.49,-19.12 692.29,-26.29 695.06,-19.86"/>
</a>
</g>
</g>
<!-- Node15&#45;&gt;Node11 -->
<g id="edge17_Node000015_Node000011" class="edge">
<title>Node15&#45;&gt;Node11</title>
<g id="a_edge17_Node000015_Node000011"><a xlink:title=" ">
<path fill="none" stroke="#63b8ff" d="M910.46,-120.96C871.58,-112.72 812.05,-99.39 761.1,-85 758.49,-84.26 755.8,-83.46 753.1,-82.63"/>
<polygon fill="#63b8ff" stroke="#63b8ff" points="754.01,-79.24 743.41,-79.53 751.87,-85.91 754.01,-79.24"/>
</a>
</g>
</g>
<!-- Node16 -->
<g id="Node000016" class="node">
<title>Node16</title>
<g id="a_Node000016"><a xlink:title=" ">
<polygon fill="#e0e0e0" stroke="#999999" points="1082.6,-79.5 989.6,-79.5 989.6,-60.5 1082.6,-60.5 1082.6,-79.5"/>
<text text-anchor="middle" x="1036.1" y="-67.5" font-family="Helvetica,sans-Serif" font-size="10.00">unordered_map</text>
</a>
</g>
</g>
<!-- Node15&#45;&gt;Node16 -->
<g id="edge19_Node000015_Node000016" class="edge">
<title>Node15&#45;&gt;Node16</title>
<g id="a_edge19_Node000015_Node000016"><a xlink:title=" ">
<path fill="none" stroke="#63b8ff" d="M964.5,-120.87C977.9,-111.54 999.48,-96.51 1015.45,-85.38"/>
<polygon fill="#63b8ff" stroke="#63b8ff" points="1017.45,-88.25 1023.66,-79.67 1013.45,-82.51 1017.45,-88.25"/>
</a>
</g>
</g>
<!-- Node17 -->
<g id="Node000017" class="node">
<title>Node17</title>
<g id="a_Node000017"><a xlink:title=" ">
<polygon fill="#e0e0e0" stroke="#999999" points="1267.6,-79.5 1100.6,-79.5 1100.6,-60.5 1267.6,-60.5 1267.6,-79.5"/>
<text text-anchor="middle" x="1184.1" y="-67.5" font-family="Helvetica,sans-Serif" font-size="10.00">magic_enum/magic_enum.hpp</text>
</a>
</g>
</g>
<!-- Node15&#45;&gt;Node17 -->
<g id="edge20_Node000015_Node000017" class="edge">
<title>Node15&#45;&gt;Node17</title>
<g id="a_edge20_Node000015_Node000017"><a xlink:title=" ">
<path fill="none" stroke="#63b8ff" d="M985.84,-120.99C1026.73,-110.68 1095.73,-93.28 1140.59,-81.97"/>
<polygon fill="#63b8ff" stroke="#63b8ff" points="1141.49,-85.36 1150.33,-79.52 1139.78,-78.57 1141.49,-85.36"/>
</a>
</g>
</g>
<!-- Node18 -->
<g id="Node000018" class="node">
<title>Node18</title>
<g id="a_Node000018"><a xlink:href="LineInfoException_8h.html" target="_top" xlink:title="Exception class with detailed file and line information for error reporting.">
<polygon fill="white" stroke="#666666" points="971.6,-79.5 802.6,-79.5 802.6,-60.5 971.6,-60.5 971.6,-79.5"/>
<text text-anchor="middle" x="887.1" y="-67.5" font-family="Helvetica,sans-Serif" font-size="10.00">Exceptions/LineInfoException.h</text>
</a>
</g>
</g>
<!-- Node15&#45;&gt;Node18 -->
<g id="edge21_Node000015_Node000018" class="edge">
<title>Node15&#45;&gt;Node18</title>
<g id="a_edge21_Node000015_Node000018"><a xlink:title=" ">
<path fill="none" stroke="#63b8ff" d="M942.51,-120.87C932.53,-111.88 916.67,-97.61 904.48,-86.64"/>
<polygon fill="#63b8ff" stroke="#63b8ff" points="906.51,-83.76 896.73,-79.67 901.83,-88.96 906.51,-83.76"/>
</a>
</g>
</g>
<!-- Node18&#45;&gt;Node2 -->
<g id="edge23_Node000018_Node000002" class="edge">
<title>Node18&#45;&gt;Node2</title>
<g id="a_edge23_Node000018_Node000002"><a xlink:title=" ">
<path fill="none" stroke="#63b8ff" d="M854.53,-60.49C811.82,-49.34 737.37,-29.89 695,-18.83"/>
<polygon fill="#63b8ff" stroke="#63b8ff" points="695.77,-15.41 685.21,-16.27 694,-22.19 695.77,-15.41"/>
</a>
</g>
</g>
<!-- Node19 -->
<g id="Node000019" class="node">
<title>Node19</title>
<g id="a_Node000019"><a xlink:title=" ">
<polygon fill="#e0e0e0" stroke="#999999" points="919.6,-19 854.6,-19 854.6,0 919.6,0 919.6,-19"/>
<text text-anchor="middle" x="887.1" y="-7" font-family="Helvetica,sans-Serif" font-size="10.00">exception</text>
</a>
</g>
</g>
<!-- Node18&#45;&gt;Node19 -->
<g id="edge22_Node000018_Node000019" class="edge">
<title>Node18&#45;&gt;Node19</title>
<g id="a_edge22_Node000018_Node000019"><a xlink:title=" ">
<path fill="none" stroke="#63b8ff" d="M887.1,-60.37C887.1,-52.25 887.1,-39.81 887.1,-29.39"/>
<polygon fill="#63b8ff" stroke="#63b8ff" points="890.6,-29.17 887.1,-19.17 883.6,-29.17 890.6,-29.17"/>
</a>
</g>
</g>
<!-- Node21 -->
<g id="Node000021" class="node">
<title>Node21</title>
<g id="a_Node000021"><a xlink:title=" ">
<polygon fill="#e0e0e0" stroke="#999999" points="382.6,-79.5 335.6,-79.5 335.6,-60.5 382.6,-60.5 382.6,-79.5"/>
<text text-anchor="middle" x="359.1" y="-67.5" font-family="Helvetica,sans-Serif" font-size="10.00">vector</text>
</a>
</g>
</g>
<!-- Node20&#45;&gt;Node21 -->
<g id="edge25_Node000020_Node000021" class="edge">
<title>Node20&#45;&gt;Node21</title>
<g id="a_edge25_Node000020_Node000021"><a xlink:title=" ">
<path fill="none" stroke="#63b8ff" d="M293.46,-120.87C305.52,-111.71 324.8,-97.06 339.35,-86.01"/>
<polygon fill="#63b8ff" stroke="#63b8ff" points="341.85,-88.5 347.69,-79.67 337.61,-82.93 341.85,-88.5"/>
</a>
</g>
</g>
<!-- Node22 -->
<g id="Node000022" class="node">
<title>Node22</title>
<g id="a_Node000022"><a xlink:title=" ">
<polygon fill="#e0e0e0" stroke="#999999" points="317.6,-85 210.6,-85 210.6,-55 317.6,-55 317.6,-85"/>
<text text-anchor="start" x="218.6" y="-73" font-family="Helvetica,sans-Serif" font-size="10.00">boost/serialization</text>
<text text-anchor="middle" x="264.1" y="-62" font-family="Helvetica,sans-Serif" font-size="10.00">/vector.hpp</text>
</a>
</g>
</g>
<!-- Node20&#45;&gt;Node22 -->
<g id="edge26_Node000020_Node000022" class="edge">
<title>Node20&#45;&gt;Node22</title>
<g id="a_edge26_Node000020_Node000022"><a xlink:title=" ">
<path fill="none" stroke="#63b8ff" d="M279.45,-120.87C277.34,-114.03 274.3,-104.14 271.48,-94.97"/>
<polygon fill="#63b8ff" stroke="#63b8ff" points="274.73,-93.64 268.45,-85.11 268.04,-95.7 274.73,-93.64"/>
</a>
</g>
</g>
</g>
</svg>

<g id="navigator" transform="translate(0 0)" fill="#404254">
  <rect fill="#f2f5e9" fill-opacity="0.5" stroke="#606060" stroke-width=".5" x="0" y="0" width="60" height="60"/>
  <use id="zoomplus" xlink:href="#zoomPlus" x="17" y="9" onmousedown="handleZoom(evt,'in')"/>
  <use id="zoomminus" xlink:href="#zoomMin" x="42" y="9" onmousedown="handleZoom(evt,'out')"/>
  <use id="reset" xlink:href="#resetDef" x="30" y="36" onmousedown="handleReset()"/>
   <use id="arrowup" xlink:href="#arrowUp" x="0" y="0" onmousedown="handlePan(0,-1)"/>
  <use id="arrowright" xlink:href="#arrowRight" x="0" y="0" onmousedown="handlePan(1,0)"/>
  <use id="arrowdown" xlink:href="#arrowDown" x="0" y="0" onmousedown="handlePan(0,1)"/>
  <use id="arrowleft" xlink:href="#arrowLeft" x="0" y="0" onmousedown="handlePan(-1,0)"/>
</g>
<svg viewBox="0 0 15 15" width="100%" height="30px" preserveAspectRatio="xMaxYMin meet">
 <g id="arrow_out" transform="scale(0.3 0.3)">
  <a xlink:href="Console_8h__incl_org.svg" target="_base">
   <rect id="button" ry="5" rx="5" y="6" x="6" height="38" width="38"
        fill="#f2f5e9" fill-opacity="0.5" stroke="#606060" stroke-width="1.0"/>
   <path id="arrow"
     d="M 11.500037,31.436501 C 11.940474,20.09759 22.043105,11.32322 32.158766,21.979434 L 37.068811,17.246167 C 37.068811,17.246167 37.088388,32 37.088388,32 L 22.160133,31.978069 C 22.160133,31.978069 26.997745,27.140456 26.997745,27.140456 C 18.528582,18.264221 13.291696,25.230495 11.500037,31.436501 z"
     style="fill:#404040;"/>
  </a>
 </g>
</svg>

<style type='text/css'>
<![CDATA[
[data-mouse-over-selected='false'] { opacity: 0.7; }
[data-mouse-over-selected='true']  { opacity: 1.0; }
]]>
</style>
<script type="application/ecmascript"><![CDATA[
document.addEventListener('DOMContentLoaded', (event) => {
  highlightEdges();
  highlightAdjacentNodes();
});
]]></script>
</svg>
