<?xml version="1.0" encoding="UTF-8" standalone="no"?>
<!DOCTYPE svg PUBLIC "-//W3C//DTD SVG 1.1//EN"
 "http://www.w3.org/Graphics/SVG/1.1/DTD/svg11.dtd">
<!-- Generated by graphviz version 2.43.0 (0)
 -->
<!-- Title: Graphical Class Hierarchy Pages: 1 -->
<svg width="141pt" height="64pt"
 viewBox="0.00 0.00 141.00 64.00" xmlns="http://www.w3.org/2000/svg" xmlns:xlink="http://www.w3.org/1999/xlink">
<g id="graph0" class="graph" transform="scale(1 1) rotate(0) translate(4 60)">
<title>Graphical Class Hierarchy</title>
<!-- Node0 -->
<g id="Node000000" class="node">
<title>Node0</title>
<g id="a_Node000000"><a xlink:href="classView.html" target="_top" xlink:title="Abstract base class representing a view in the MVC pattern.">
<polygon fill="white" stroke="#666666" points="41,-37 0,-37 0,-18 41,-18 41,-37"/>
<text text-anchor="middle" x="20.5" y="-25" font-family="Helvetica,sans-Serif" font-size="10.00">View</text>
</a>
</g>
</g>
<!-- Node1 -->
<g id="Node000001" class="node">
<title>Node1</title>
<g id="a_Node000001"><a xlink:href="classConsole.html" target="_top" xlink:title="Console&#45;based implementation of the View interface.">
<polygon fill="white" stroke="#666666" points="133,-56 77,-56 77,-37 133,-37 133,-56"/>
<text text-anchor="middle" x="105" y="-44" font-family="Helvetica,sans-Serif" font-size="10.00">Console</text>
</a>
</g>
</g>
<!-- Node0&#45;&gt;Node1 -->
<g id="edge97_Node000000_Node000001" class="edge">
<title>Node0&#45;&gt;Node1</title>
<g id="a_edge97_Node000000_Node000001"><a xlink:title=" ">
<path fill="none" stroke="#63b8ff" d="M50.88,-34.27C59.32,-36.21 68.48,-38.32 76.79,-40.23"/>
<polygon fill="#63b8ff" stroke="#63b8ff" points="51.58,-30.84 41.05,-32 50.01,-37.66 51.58,-30.84"/>
</a>
</g>
</g>
<!-- Node2 -->
<g id="Node000002" class="node">
<title>Node2</title>
<g id="a_Node000002"><a xlink:href="classGUI.html" target="_top" xlink:title="Graphical User Interface class derived from View.">
<polygon fill="white" stroke="#666666" points="122.5,-19 87.5,-19 87.5,0 122.5,0 122.5,-19"/>
<text text-anchor="middle" x="105" y="-7" font-family="Helvetica,sans-Serif" font-size="10.00">GUI</text>
</a>
</g>
</g>
<!-- Node0&#45;&gt;Node2 -->
<g id="edge98_Node000000_Node000002" class="edge">
<title>Node0&#45;&gt;Node2</title>
<g id="a_edge98_Node000000_Node000002"><a xlink:title=" ">
<path fill="none" stroke="#63b8ff" d="M50.88,-21.09C63.14,-18.42 76.92,-15.41 87.37,-13.13"/>
<polygon fill="#63b8ff" stroke="#63b8ff" points="50.08,-17.68 41.05,-23.23 51.57,-24.52 50.08,-17.68"/>
</a>
</g>
</g>
</g>
</svg>
