<?xml version="1.0" encoding="UTF-8" standalone="no"?>
<!DOCTYPE svg PUBLIC "-//W3C//DTD SVG 1.1//EN"
 "http://www.w3.org/Graphics/SVG/1.1/DTD/svg11.dtd">
<!-- Generated by graphviz version 2.43.0 (0)
 -->
<!-- Title: Graphical Class Hierarchy Pages: 1 -->
<svg width="267pt" height="64pt"
 viewBox="0.00 0.00 267.00 64.00" xmlns="http://www.w3.org/2000/svg" xmlns:xlink="http://www.w3.org/1999/xlink">
<g id="graph0" class="graph" transform="scale(1 1) rotate(0) translate(4 60)">
<title>Graphical Class Hierarchy</title>
<!-- Node0 -->
<g id="Node000000" class="node">
<title>Node0</title>
<g id="a_Node000000"><a xlink:href="classSpeciesGrowth.html" target="_top" xlink:title="Represents the growth characteristics of a species across its instars.">
<polygon fill="white" stroke="#666666" points="89,-37 0,-37 0,-18 89,-18 89,-37"/>
<text text-anchor="middle" x="44.5" y="-25" font-family="Helvetica,sans-Serif" font-size="10.00">SpeciesGrowth</text>
</a>
</g>
</g>
<!-- Node1 -->
<g id="Node000001" class="node">
<title>Node1</title>
<g id="a_Node000001"><a xlink:href="classAnimalSpeciesGrowth.html" target="_top" xlink:title="Represents species&#45;specific growth, development, and reproductive parameters for animals.">
<polygon fill="white" stroke="#666666" points="254,-56 130,-56 130,-37 254,-37 254,-56"/>
<text text-anchor="middle" x="192" y="-44" font-family="Helvetica,sans-Serif" font-size="10.00">AnimalSpeciesGrowth</text>
</a>
</g>
</g>
<!-- Node0&#45;&gt;Node1 -->
<g id="edge75_Node000000_Node000001" class="edge">
<title>Node0&#45;&gt;Node1</title>
<g id="a_edge75_Node000000_Node000001"><a xlink:title=" ">
<path fill="none" stroke="#63b8ff" d="M99.31,-34.53C109.27,-35.83 119.74,-37.19 129.89,-38.52"/>
<polygon fill="#63b8ff" stroke="#63b8ff" points="99.52,-31.03 89.15,-33.2 98.62,-37.97 99.52,-31.03"/>
</a>
</g>
</g>
<!-- Node2 -->
<g id="Node000002" class="node">
<title>Node2</title>
<g id="a_Node000002"><a xlink:href="classResourceSpeciesGrowth.html" target="_top" xlink:title="Growth model for resource&#45;type species.">
<polygon fill="white" stroke="#666666" points="259,-19 125,-19 125,0 259,0 259,-19"/>
<text text-anchor="middle" x="192" y="-7" font-family="Helvetica,sans-Serif" font-size="10.00">ResourceSpeciesGrowth</text>
</a>
</g>
</g>
<!-- Node0&#45;&gt;Node2 -->
<g id="edge76_Node000000_Node000002" class="edge">
<title>Node0&#45;&gt;Node2</title>
<g id="a_edge76_Node000000_Node000002"><a xlink:title=" ">
<path fill="none" stroke="#63b8ff" d="M99.13,-20.87C107.47,-19.83 116.18,-18.76 124.77,-17.69"/>
<polygon fill="#63b8ff" stroke="#63b8ff" points="98.65,-17.4 89.15,-22.1 99.51,-24.35 98.65,-17.4"/>
</a>
</g>
</g>
</g>
</svg>
