<?xml version="1.0" encoding="UTF-8" standalone="no"?>
<!DOCTYPE svg PUBLIC "-//W3C//DTD SVG 1.1//EN"
 "http://www.w3.org/Graphics/SVG/1.1/DTD/svg11.dtd">
<!-- Generated by graphviz version 2.43.0 (0)
 -->
<!-- Title: Graphical Class Hierarchy Pages: 1 -->
<svg width="609pt" height="64pt"
 viewBox="0.00 0.00 609.00 64.00" xmlns="http://www.w3.org/2000/svg" xmlns:xlink="http://www.w3.org/1999/xlink">
<g id="graph0" class="graph" transform="scale(1 1) rotate(0) translate(4 60)">
<title>Graphical Class Hierarchy</title>
<!-- Node0 -->
<g id="Node000000" class="node">
<title>Node0</title>
<g id="a_Node000000"><a xlink:title=" ">
<polygon fill="#e0e0e0" stroke="#999999" points="86,-37 0,-37 0,-18 86,-18 86,-37"/>
<text text-anchor="middle" x="43" y="-25" font-family="Helvetica,sans-Serif" font-size="10.00">std::exception</text>
</a>
</g>
</g>
<!-- Node1 -->
<g id="Node000001" class="node">
<title>Node1</title>
<g id="a_Node000001"><a xlink:href="classLineInfoException.html" target="_top" xlink:title="Exception class that stores file, line, and custom error message.">
<polygon fill="white" stroke="#666666" points="226,-37 122,-37 122,-18 226,-18 226,-37"/>
<text text-anchor="middle" x="174" y="-25" font-family="Helvetica,sans-Serif" font-size="10.00">LineInfoException</text>
</a>
</g>
</g>
<!-- Node0&#45;&gt;Node1 -->
<g id="edge77_Node000000_Node000001" class="edge">
<title>Node0&#45;&gt;Node1</title>
<g id="a_edge77_Node000000_Node000001"><a xlink:title=" ">
<path fill="none" stroke="#63b8ff" d="M96.27,-27.5C104.65,-27.5 113.31,-27.5 121.66,-27.5"/>
<polygon fill="#63b8ff" stroke="#63b8ff" points="96.24,-24 86.24,-27.5 96.24,-31 96.24,-24"/>
</a>
</g>
</g>
<!-- Node2 -->
<g id="Node000002" class="node">
<title>Node2</title>
<g id="a_Node000002"><a xlink:href="classValidatorJSONException.html" target="_top" xlink:title="Base exception for JSON validation errors.">
<polygon fill="white" stroke="#666666" points="394,-37 262,-37 262,-18 394,-18 394,-37"/>
<text text-anchor="middle" x="328" y="-25" font-family="Helvetica,sans-Serif" font-size="10.00">ValidatorJSONException</text>
</a>
</g>
</g>
<!-- Node1&#45;&gt;Node2 -->
<g id="edge78_Node000001_Node000002" class="edge">
<title>Node1&#45;&gt;Node2</title>
<g id="a_edge78_Node000001_Node000002"><a xlink:title=" ">
<path fill="none" stroke="#63b8ff" d="M236.17,-27.5C244.6,-27.5 253.29,-27.5 261.79,-27.5"/>
<polygon fill="#63b8ff" stroke="#63b8ff" points="236.04,-24 226.04,-27.5 236.04,-31 236.04,-24"/>
</a>
</g>
</g>
<!-- Node3 -->
<g id="Node000003" class="node">
<title>Node3</title>
<g id="a_Node000003"><a xlink:href="classValidatorConfigJSONException.html" target="_top" xlink:title="Exception thrown when the JSON configuration is invalid.">
<polygon fill="white" stroke="#666666" points="597,-56 434,-56 434,-37 597,-37 597,-56"/>
<text text-anchor="middle" x="515.5" y="-44" font-family="Helvetica,sans-Serif" font-size="10.00">ValidatorConfigJSONException</text>
</a>
</g>
</g>
<!-- Node2&#45;&gt;Node3 -->
<g id="edge79_Node000002_Node000003" class="edge">
<title>Node2&#45;&gt;Node3</title>
<g id="a_edge79_Node000002_Node000003"><a xlink:title=" ">
<path fill="none" stroke="#63b8ff" d="M404.21,-35.2C413.98,-36.2 424.02,-37.23 433.88,-38.24"/>
<polygon fill="#63b8ff" stroke="#63b8ff" points="404.44,-31.71 394.14,-34.17 403.73,-38.67 404.44,-31.71"/>
</a>
</g>
</g>
<!-- Node4 -->
<g id="Node000004" class="node">
<title>Node4</title>
<g id="a_Node000004"><a xlink:href="classValidatorSchemaJSONException.html" target="_top" xlink:title="Exception thrown when the JSON schema is invalid.">
<polygon fill="white" stroke="#666666" points="601,-19 430,-19 430,0 601,0 601,-19"/>
<text text-anchor="middle" x="515.5" y="-7" font-family="Helvetica,sans-Serif" font-size="10.00">ValidatorSchemaJSONException</text>
</a>
</g>
</g>
<!-- Node2&#45;&gt;Node4 -->
<g id="edge80_Node000002_Node000004" class="edge">
<title>Node2&#45;&gt;Node4</title>
<g id="a_edge80_Node000002_Node000004"><a xlink:title=" ">
<path fill="none" stroke="#63b8ff" d="M404.33,-20.19C412.78,-19.37 421.43,-18.53 429.98,-17.7"/>
<polygon fill="#63b8ff" stroke="#63b8ff" points="403.75,-16.73 394.14,-21.18 404.43,-23.7 403.75,-16.73"/>
</a>
</g>
</g>
</g>
</svg>
