<?xml version="1.0" encoding="UTF-8" standalone="no"?>
<!DOCTYPE svg PUBLIC "-//W3C//DTD SVG 1.1//EN"
 "http://www.w3.org/Graphics/SVG/1.1/DTD/svg11.dtd">
<!-- Generated by graphviz version 2.43.0 (0)
 -->
<!-- Title: /home/runner/work/Weaver/Weaver/include/App/Model/IBM/Maths/PreciseDouble.h Pages: 1 -->
<svg width="938pt" height="115pt"
 viewBox="0.00 0.00 938.00 115.00" xmlns="http://www.w3.org/2000/svg" xmlns:xlink="http://www.w3.org/1999/xlink">
<g id="graph0" class="graph" transform="scale(1 1) rotate(0) translate(4 111)">
<title>/home/runner/work/Weaver/Weaver/include/App/Model/IBM/Maths/PreciseDouble.h</title>
<!-- Node1 -->
<g id="Node000001" class="node">
<title>Node1</title>
<g id="a_Node000001"><a xlink:title="Defines the PreciseDouble class for safe and precise double&#45;precision arithmetic.">
<polygon fill="#999999" stroke="#666666" points="645,-107 492,-107 492,-66 645,-66 645,-107"/>
<text text-anchor="start" x="500" y="-95" font-family="Helvetica,sans-Serif" font-size="10.00">/home/runner/work/Weaver</text>
<text text-anchor="start" x="500" y="-84" font-family="Helvetica,sans-Serif" font-size="10.00">/Weaver/include/App/Model</text>
<text text-anchor="middle" x="568.5" y="-73" font-family="Helvetica,sans-Serif" font-size="10.00">/IBM/Maths/PreciseDouble.h</text>
</a>
</g>
</g>
<!-- Node2 -->
<g id="Node000002" class="node">
<title>Node2</title>
<g id="a_Node000002"><a xlink:title=" ">
<polygon fill="#e0e0e0" stroke="#999999" points="105,-30 0,-30 0,0 105,0 105,-30"/>
<text text-anchor="start" x="8" y="-18" font-family="Helvetica,sans-Serif" font-size="10.00">boost/archive/text</text>
<text text-anchor="middle" x="52.5" y="-7" font-family="Helvetica,sans-Serif" font-size="10.00">_iarchive.hpp</text>
</a>
</g>
</g>
<!-- Node1&#45;&gt;Node2 -->
<g id="edge1_Node000001_Node000002" class="edge">
<title>Node1&#45;&gt;Node2</title>
<g id="a_edge1_Node000001_Node000002"><a xlink:title=" ">
<path fill="none" stroke="#63b8ff" d="M491.66,-78.59C403.03,-70.07 252.82,-53.93 114.91,-30.14"/>
<polygon fill="#63b8ff" stroke="#63b8ff" points="115.45,-26.68 105,-28.42 114.25,-33.58 115.45,-26.68"/>
</a>
</g>
</g>
<!-- Node3 -->
<g id="Node000003" class="node">
<title>Node3</title>
<g id="a_Node000003"><a xlink:title=" ">
<polygon fill="#e0e0e0" stroke="#999999" points="228,-30 123,-30 123,0 228,0 228,-30"/>
<text text-anchor="start" x="131" y="-18" font-family="Helvetica,sans-Serif" font-size="10.00">boost/archive/text</text>
<text text-anchor="middle" x="175.5" y="-7" font-family="Helvetica,sans-Serif" font-size="10.00">_oarchive.hpp</text>
</a>
</g>
</g>
<!-- Node1&#45;&gt;Node3 -->
<g id="edge2_Node000001_Node000003" class="edge">
<title>Node1&#45;&gt;Node3</title>
<g id="a_edge2_Node000001_Node000003"><a xlink:title=" ">
<path fill="none" stroke="#63b8ff" d="M491.7,-73.87C426.77,-63.75 331.07,-48.17 238.08,-30.05"/>
<polygon fill="#63b8ff" stroke="#63b8ff" points="238.71,-26.6 228.22,-28.12 237.36,-33.47 238.71,-26.6"/>
</a>
</g>
</g>
<!-- Node4 -->
<g id="Node000004" class="node">
<title>Node4</title>
<g id="a_Node000004"><a xlink:title=" ">
<polygon fill="#e0e0e0" stroke="#999999" points="362.5,-30 246.5,-30 246.5,0 362.5,0 362.5,-30"/>
<text text-anchor="start" x="254.5" y="-18" font-family="Helvetica,sans-Serif" font-size="10.00">boost/archive/binary</text>
<text text-anchor="middle" x="304.5" y="-7" font-family="Helvetica,sans-Serif" font-size="10.00">_iarchive.hpp</text>
</a>
</g>
</g>
<!-- Node1&#45;&gt;Node4 -->
<g id="edge3_Node000001_Node000004" class="edge">
<title>Node1&#45;&gt;Node4</title>
<g id="a_edge3_Node000001_Node000004"><a xlink:title=" ">
<path fill="none" stroke="#63b8ff" d="M494.26,-65.96C454.36,-55.45 405.69,-42.64 367.63,-32.62"/>
<polygon fill="#63b8ff" stroke="#63b8ff" points="368.26,-29.17 357.69,-30 366.47,-35.93 368.26,-29.17"/>
</a>
</g>
</g>
<!-- Node5 -->
<g id="Node000005" class="node">
<title>Node5</title>
<g id="a_Node000005"><a xlink:title=" ">
<polygon fill="#e0e0e0" stroke="#999999" points="496.5,-30 380.5,-30 380.5,0 496.5,0 496.5,-30"/>
<text text-anchor="start" x="388.5" y="-18" font-family="Helvetica,sans-Serif" font-size="10.00">boost/archive/binary</text>
<text text-anchor="middle" x="438.5" y="-7" font-family="Helvetica,sans-Serif" font-size="10.00">_oarchive.hpp</text>
</a>
</g>
</g>
<!-- Node1&#45;&gt;Node5 -->
<g id="edge4_Node000001_Node000005" class="edge">
<title>Node1&#45;&gt;Node5</title>
<g id="a_edge4_Node000001_Node000005"><a xlink:title=" ">
<path fill="none" stroke="#63b8ff" d="M531.94,-65.96C513.78,-56.25 491.93,-44.56 473.92,-34.94"/>
<polygon fill="#63b8ff" stroke="#63b8ff" points="475.37,-31.74 464.9,-30.11 472.07,-37.91 475.37,-31.74"/>
</a>
</g>
</g>
<!-- Node6 -->
<g id="Node000006" class="node">
<title>Node6</title>
<g id="a_Node000006"><a xlink:title=" ">
<polygon fill="#e0e0e0" stroke="#999999" points="558.5,-24.5 514.5,-24.5 514.5,-5.5 558.5,-5.5 558.5,-24.5"/>
<text text-anchor="middle" x="536.5" y="-12.5" font-family="Helvetica,sans-Serif" font-size="10.00">string</text>
</a>
</g>
</g>
<!-- Node1&#45;&gt;Node6 -->
<g id="edge5_Node000001_Node000006" class="edge">
<title>Node1&#45;&gt;Node6</title>
<g id="a_edge5_Node000001_Node000006"><a xlink:title=" ">
<path fill="none" stroke="#63b8ff" d="M559.42,-65.77C554.81,-55.76 549.25,-43.7 544.77,-33.95"/>
<polygon fill="#63b8ff" stroke="#63b8ff" points="547.92,-32.44 540.56,-24.82 541.56,-35.37 547.92,-32.44"/>
</a>
</g>
</g>
<!-- Node7 -->
<g id="Node000007" class="node">
<title>Node7</title>
<g id="a_Node000007"><a xlink:title=" ">
<polygon fill="#e0e0e0" stroke="#999999" points="624,-24.5 577,-24.5 577,-5.5 624,-5.5 624,-24.5"/>
<text text-anchor="middle" x="600.5" y="-12.5" font-family="Helvetica,sans-Serif" font-size="10.00">cmath</text>
</a>
</g>
</g>
<!-- Node1&#45;&gt;Node7 -->
<g id="edge6_Node000001_Node000007" class="edge">
<title>Node1&#45;&gt;Node7</title>
<g id="a_edge6_Node000001_Node000007"><a xlink:title=" ">
<path fill="none" stroke="#63b8ff" d="M577.58,-65.77C582.19,-55.76 587.75,-43.7 592.23,-33.95"/>
<polygon fill="#63b8ff" stroke="#63b8ff" points="595.44,-35.37 596.44,-24.82 589.08,-32.44 595.44,-35.37"/>
</a>
</g>
</g>
<!-- Node8 -->
<g id="Node000008" class="node">
<title>Node8</title>
<g id="a_Node000008"><a xlink:title=" ">
<polygon fill="#e0e0e0" stroke="#999999" points="706.5,-24.5 642.5,-24.5 642.5,-5.5 706.5,-5.5 706.5,-24.5"/>
<text text-anchor="middle" x="674.5" y="-12.5" font-family="Helvetica,sans-Serif" font-size="10.00">algorithm</text>
</a>
</g>
</g>
<!-- Node1&#45;&gt;Node8 -->
<g id="edge7_Node000001_Node000008" class="edge">
<title>Node1&#45;&gt;Node8</title>
<g id="a_edge7_Node000001_Node000008"><a xlink:title=" ">
<path fill="none" stroke="#63b8ff" d="M598.31,-65.96C615.71,-54.54 637.27,-40.41 653.01,-30.09"/>
<polygon fill="#63b8ff" stroke="#63b8ff" points="655.09,-32.91 661.53,-24.5 651.25,-27.06 655.09,-32.91"/>
</a>
</g>
</g>
<!-- Node9 -->
<g id="Node000009" class="node">
<title>Node9</title>
<g id="a_Node000009"><a xlink:title=" ">
<polygon fill="#e0e0e0" stroke="#999999" points="784.5,-24.5 724.5,-24.5 724.5,-5.5 784.5,-5.5 784.5,-24.5"/>
<text text-anchor="middle" x="754.5" y="-12.5" font-family="Helvetica,sans-Serif" font-size="10.00">iostream</text>
</a>
</g>
</g>
<!-- Node1&#45;&gt;Node9 -->
<g id="edge8_Node000001_Node000009" class="edge">
<title>Node1&#45;&gt;Node9</title>
<g id="a_edge8_Node000001_Node000009"><a xlink:title=" ">
<path fill="none" stroke="#63b8ff" d="M620.81,-65.96C653.34,-53.8 694.16,-38.55 722.08,-28.11"/>
<polygon fill="#63b8ff" stroke="#63b8ff" points="723.6,-31.28 731.74,-24.5 721.15,-24.73 723.6,-31.28"/>
</a>
</g>
</g>
<!-- Node10 -->
<g id="Node000010" class="node">
<title>Node10</title>
<g id="a_Node000010"><a xlink:title=" ">
<polygon fill="#e0e0e0" stroke="#999999" points="846.5,-24.5 802.5,-24.5 802.5,-5.5 846.5,-5.5 846.5,-24.5"/>
<text text-anchor="middle" x="824.5" y="-12.5" font-family="Helvetica,sans-Serif" font-size="10.00">limits</text>
</a>
</g>
</g>
<!-- Node1&#45;&gt;Node10 -->
<g id="edge9_Node000001_Node000010" class="edge">
<title>Node1&#45;&gt;Node10</title>
<g id="a_edge9_Node000001_Node000010"><a xlink:title=" ">
<path fill="none" stroke="#63b8ff" d="M645.02,-70.26C689.02,-60.6 745.02,-46.77 793.5,-30 794.9,-29.52 796.31,-29 797.74,-28.45"/>
<polygon fill="#63b8ff" stroke="#63b8ff" points="799.15,-31.65 807.02,-24.56 796.44,-25.19 799.15,-31.65"/>
</a>
</g>
</g>
<!-- Node11 -->
<g id="Node000011" class="node">
<title>Node11</title>
<g id="a_Node000011"><a xlink:title=" ">
<polygon fill="#e0e0e0" stroke="#999999" points="930,-24.5 865,-24.5 865,-5.5 930,-5.5 930,-24.5"/>
<text text-anchor="middle" x="897.5" y="-12.5" font-family="Helvetica,sans-Serif" font-size="10.00">functional</text>
</a>
</g>
</g>
<!-- Node1&#45;&gt;Node11 -->
<g id="edge10_Node000001_Node000011" class="edge">
<title>Node1&#45;&gt;Node11</title>
<g id="a_edge10_Node000001_Node000011"><a xlink:title=" ">
<path fill="none" stroke="#63b8ff" d="M645.25,-73.47C703.41,-63.67 785.05,-48.47 855.5,-30 858.29,-29.27 861.16,-28.45 864.03,-27.59"/>
<polygon fill="#63b8ff" stroke="#63b8ff" points="865.19,-30.89 873.68,-24.54 863.09,-24.22 865.19,-30.89"/>
</a>
</g>
</g>
</g>
</svg>
