<?xml version="1.0" encoding="UTF-8" standalone="no"?>
<!DOCTYPE svg PUBLIC "-//W3C//DTD SVG 1.1//EN"
 "http://www.w3.org/Graphics/SVG/1.1/DTD/svg11.dtd">
<!-- Generated by graphviz version 2.43.0 (0)
 -->
<!-- Title: /home/runner/work/Weaver/Weaver/include/App/Model/IBM/Landscape/LivingBeings/Animals/Species/SexualType.h Pages: 1 -->
<svg width="1275pt" height="1138pt"
 viewBox="0.00 0.00 1274.69 1138.00" xmlns="http://www.w3.org/2000/svg" xmlns:xlink="http://www.w3.org/1999/xlink">
<g id="graph0" class="graph" transform="scale(1 1) rotate(0) translate(4 1134)">
<title>/home/runner/work/Weaver/Weaver/include/App/Model/IBM/Landscape/LivingBeings/Animals/Species/SexualType.h</title>
<!-- Node1 -->
<g id="Node000001" class="node">
<title>Node1</title>
<g id="a_Node000001"><a xlink:title="Defines the SexualType enumeration used to classify the reproductive system of a species.">
<polygon fill="#999999" stroke="#666666" points="461,-1130 294,-1130 294,-1078 461,-1078 461,-1130"/>
<text text-anchor="start" x="302" y="-1118" font-family="Helvetica,sans-Serif" font-size="10.00">/home/runner/work/Weaver</text>
<text text-anchor="start" x="302" y="-1107" font-family="Helvetica,sans-Serif" font-size="10.00">/Weaver/include/App/Model</text>
<text text-anchor="start" x="302" y="-1096" font-family="Helvetica,sans-Serif" font-size="10.00">/IBM/Landscape/LivingBeings</text>
<text text-anchor="middle" x="377.5" y="-1085" font-family="Helvetica,sans-Serif" font-size="10.00">/Animals/Species/SexualType.h</text>
</a>
</g>
</g>
<!-- Node2 -->
<g id="Node000002" class="node">
<title>Node2</title>
<g id="a_Node000002"><a xlink:href="AnimalNonStatistical_8h.html" target="_top" xlink:title="Defines the AnimalNonStatistical class, a non&#45;statistical concrete implementation of Animal.">
<polygon fill="white" stroke="#666666" points="347.5,-849.5 173.5,-849.5 173.5,-797.5 347.5,-797.5 347.5,-849.5"/>
<text text-anchor="start" x="181.5" y="-837.5" font-family="Helvetica,sans-Serif" font-size="10.00">/home/runner/work/Weaver</text>
<text text-anchor="start" x="181.5" y="-826.5" font-family="Helvetica,sans-Serif" font-size="10.00">/Weaver/include/App/Model</text>
<text text-anchor="start" x="181.5" y="-815.5" font-family="Helvetica,sans-Serif" font-size="10.00">/IBM/Landscape/LivingBeings</text>
<text text-anchor="middle" x="260.5" y="-804.5" font-family="Helvetica,sans-Serif" font-size="10.00">/Animals/AnimalNonStatistical.h</text>
</a>
</g>
</g>
<!-- Node1&#45;&gt;Node2 -->
<g id="edge1_Node000001_Node000002" class="edge">
<title>Node1&#45;&gt;Node2</title>
<g id="a_edge1_Node000001_Node000002"><a xlink:title=" ">
<path fill="none" stroke="#63b8ff" d="M375.53,-1067.29C373.23,-1041.98 368.26,-1007.57 357.5,-979 338.85,-929.5 303.26,-878.84 280.76,-849.59"/>
<polygon fill="#63b8ff" stroke="#63b8ff" points="372.07,-1067.85 376.36,-1077.54 379.04,-1067.29 372.07,-1067.85"/>
</a>
</g>
</g>
<!-- Node17 -->
<g id="Node000017" class="node">
<title>Node17</title>
<g id="a_Node000017"><a xlink:href="AnimalNonStatisticalGrowth_8h.html" target="_top" xlink:title="Defines the AnimalNonStatisticalGrowth class, which extends AnimalGrowth for non&#45;statistical animal s...">
<polygon fill="white" stroke="#666666" points="349,-1042 146,-1042 146,-979 349,-979 349,-1042"/>
<text text-anchor="start" x="154" y="-1030" font-family="Helvetica,sans-Serif" font-size="10.00">/home/runner/work/Weaver</text>
<text text-anchor="start" x="154" y="-1019" font-family="Helvetica,sans-Serif" font-size="10.00">/Weaver/include/App/Model</text>
<text text-anchor="start" x="154" y="-1008" font-family="Helvetica,sans-Serif" font-size="10.00">/IBM/Landscape/LivingBeings</text>
<text text-anchor="start" x="154" y="-997" font-family="Helvetica,sans-Serif" font-size="10.00">/Animals/Growth/AnimalNonStatistical</text>
<text text-anchor="middle" x="247.5" y="-986" font-family="Helvetica,sans-Serif" font-size="10.00">Growth.h</text>
</a>
</g>
</g>
<!-- Node1&#45;&gt;Node17 -->
<g id="edge26_Node000001_Node000017" class="edge">
<title>Node1&#45;&gt;Node17</title>
<g id="a_edge26_Node000001_Node000017"><a xlink:title=" ">
<path fill="none" stroke="#63b8ff" d="M333.6,-1072.1C319.81,-1062.4 304.61,-1051.69 290.86,-1042.02"/>
<polygon fill="#63b8ff" stroke="#63b8ff" points="331.78,-1075.1 341.98,-1078 335.81,-1069.38 331.78,-1075.1"/>
</a>
</g>
</g>
<!-- Node18 -->
<g id="Node000018" class="node">
<title>Node18</title>
<g id="a_Node000018"><a xlink:href="AnimalSpecies_8h.html" target="_top" xlink:title="Defines the AnimalSpecies class, representing a species of animals with associated growth,...">
<polygon fill="white" stroke="#666666" points="770.5,-1036.5 586.5,-1036.5 586.5,-984.5 770.5,-984.5 770.5,-1036.5"/>
<text text-anchor="start" x="594.5" y="-1024.5" font-family="Helvetica,sans-Serif" font-size="10.00">/home/runner/work/Weaver</text>
<text text-anchor="start" x="594.5" y="-1013.5" font-family="Helvetica,sans-Serif" font-size="10.00">/Weaver/include/App/Model</text>
<text text-anchor="start" x="594.5" y="-1002.5" font-family="Helvetica,sans-Serif" font-size="10.00">/IBM/Landscape/LivingBeings</text>
<text text-anchor="middle" x="678.5" y="-991.5" font-family="Helvetica,sans-Serif" font-size="10.00">/Animals/Species/AnimalSpecies.h</text>
</a>
</g>
</g>
<!-- Node1&#45;&gt;Node18 -->
<g id="edge28_Node000001_Node000018" class="edge">
<title>Node1&#45;&gt;Node18</title>
<g id="a_edge28_Node000001_Node000018"><a xlink:title=" ">
<path fill="none" stroke="#63b8ff" d="M469.33,-1075.08C509.74,-1062.8 556.83,-1048.49 596.09,-1036.55"/>
<polygon fill="#63b8ff" stroke="#63b8ff" points="468.3,-1071.74 459.75,-1078 470.34,-1078.44 468.3,-1071.74"/>
</a>
</g>
</g>
<!-- Node3 -->
<g id="Node000003" class="node">
<title>Node3</title>
<g id="a_Node000003"><a xlink:href="Landscape_8h.html" target="_top" xlink:title="Doxygen&#45;documented declaration of the Landscape class and related serialization helpers.">
<polygon fill="white" stroke="#666666" points="452,-118 295,-118 295,-77 452,-77 452,-118"/>
<text text-anchor="start" x="303" y="-106" font-family="Helvetica,sans-Serif" font-size="10.00">/home/runner/work/Weaver</text>
<text text-anchor="start" x="303" y="-95" font-family="Helvetica,sans-Serif" font-size="10.00">/Weaver/include/App/Model</text>
<text text-anchor="middle" x="373.5" y="-84" font-family="Helvetica,sans-Serif" font-size="10.00">/IBM/Landscape/Landscape.h</text>
</a>
</g>
</g>
<!-- Node2&#45;&gt;Node3 -->
<g id="edge2_Node000002_Node000003" class="edge">
<title>Node2&#45;&gt;Node3</title>
<g id="a_edge2_Node000002_Node000003"><a xlink:title=" ">
<path fill="none" stroke="#63b8ff" d="M174.62,-793.57C104.34,-763.83 16.5,-709.96 16.5,-626.5 16.5,-626.5 16.5,-626.5 16.5,-256 16.5,-135.25 189.58,-106.29 294.71,-99.84"/>
<polygon fill="#63b8ff" stroke="#63b8ff" points="173.39,-796.85 183.97,-797.43 176.06,-790.38 173.39,-796.85"/>
</a>
</g>
</g>
<!-- Node8 -->
<g id="Node000008" class="node">
<title>Node8</title>
<g id="a_Node000008"><a xlink:href="SpatialTreeAnimal_8h.html" target="_top" xlink:title="Defines the SpatialTreeAnimal class for animals in a spatial tree terrain.">
<polygon fill="white" stroke="#666666" points="270,-651.5 45,-651.5 45,-599.5 270,-599.5 270,-651.5"/>
<text text-anchor="start" x="53" y="-639.5" font-family="Helvetica,sans-Serif" font-size="10.00">/home/runner/work/Weaver</text>
<text text-anchor="start" x="53" y="-628.5" font-family="Helvetica,sans-Serif" font-size="10.00">/Weaver/include/App/Model</text>
<text text-anchor="start" x="53" y="-617.5" font-family="Helvetica,sans-Serif" font-size="10.00">/IBM/Landscape/Map/SpatialTree</text>
<text text-anchor="middle" x="157.5" y="-606.5" font-family="Helvetica,sans-Serif" font-size="10.00">/LivingBeings/Animals/SpatialTreeAnimal.h</text>
</a>
</g>
</g>
<!-- Node2&#45;&gt;Node8 -->
<g id="edge7_Node000002_Node000008" class="edge">
<title>Node2&#45;&gt;Node8</title>
<g id="a_edge7_Node000002_Node000008"><a xlink:title=" ">
<path fill="none" stroke="#63b8ff" d="M196.5,-791.79C183.02,-782.25 170.47,-770.37 162.5,-756 144.49,-723.54 147.62,-679.13 152.12,-651.65"/>
<polygon fill="#63b8ff" stroke="#63b8ff" points="194.72,-794.81 204.99,-797.43 198.6,-788.98 194.72,-794.81"/>
</a>
</g>
</g>
<!-- Node10 -->
<g id="Node000010" class="node">
<title>Node10</title>
<g id="a_Node000010"><a xlink:href="CellValue_8h.html" target="_top" xlink:title="Defines the CellValue struct representing the evaluation of a terrain cell by an animal.">
<polygon fill="white" stroke="#666666" points="349,-750.5 172,-750.5 172,-698.5 349,-698.5 349,-750.5"/>
<text text-anchor="start" x="180" y="-738.5" font-family="Helvetica,sans-Serif" font-size="10.00">/home/runner/work/Weaver</text>
<text text-anchor="start" x="180" y="-727.5" font-family="Helvetica,sans-Serif" font-size="10.00">/Weaver/include/App/Model</text>
<text text-anchor="start" x="180" y="-716.5" font-family="Helvetica,sans-Serif" font-size="10.00">/IBM/Landscape/Map/TerrainCells</text>
<text text-anchor="middle" x="260.5" y="-705.5" font-family="Helvetica,sans-Serif" font-size="10.00">/CellValue.h</text>
</a>
</g>
</g>
<!-- Node2&#45;&gt;Node10 -->
<g id="edge10_Node000002_Node000010" class="edge">
<title>Node2&#45;&gt;Node10</title>
<g id="a_edge10_Node000002_Node000010"><a xlink:title=" ">
<path fill="none" stroke="#63b8ff" d="M260.5,-787.03C260.5,-774.95 260.5,-761.7 260.5,-750.61"/>
<polygon fill="#63b8ff" stroke="#63b8ff" points="257,-787.27 260.5,-797.27 264,-787.27 257,-787.27"/>
</a>
</g>
</g>
<!-- Node11 -->
<g id="Node000011" class="node">
<title>Node11</title>
<g id="a_Node000011"><a xlink:href="TerrainCell_8h.html" target="_top" xlink:title="Defines the TerrainCell class representing a cell in the landscape.">
<polygon fill="white" stroke="#666666" points="465,-651.5 288,-651.5 288,-599.5 465,-599.5 465,-651.5"/>
<text text-anchor="start" x="296" y="-639.5" font-family="Helvetica,sans-Serif" font-size="10.00">/home/runner/work/Weaver</text>
<text text-anchor="start" x="296" y="-628.5" font-family="Helvetica,sans-Serif" font-size="10.00">/Weaver/include/App/Model</text>
<text text-anchor="start" x="296" y="-617.5" font-family="Helvetica,sans-Serif" font-size="10.00">/IBM/Landscape/Map/TerrainCells</text>
<text text-anchor="middle" x="376.5" y="-606.5" font-family="Helvetica,sans-Serif" font-size="10.00">/TerrainCell.h</text>
</a>
</g>
</g>
<!-- Node2&#45;&gt;Node11 -->
<g id="edge25_Node000002_Node000011" class="edge">
<title>Node2&#45;&gt;Node11</title>
<g id="a_edge25_Node000002_Node000011"><a xlink:title=" ">
<path fill="none" stroke="#63b8ff" d="M321.75,-791.78C335.51,-782.13 348.64,-770.2 357.5,-756 377.4,-724.09 379.51,-679.32 378.52,-651.65"/>
<polygon fill="#63b8ff" stroke="#63b8ff" points="319.53,-789.05 313.13,-797.49 323.4,-794.88 319.53,-789.05"/>
</a>
</g>
</g>
<!-- Node4 -->
<g id="Node000004" class="node">
<title>Node4</title>
<g id="a_Node000004"><a xlink:href="IBM_8h.html" target="_top" xlink:title="Definition of the IBM class, representing the core individual&#45;based model of the simulation.">
<polygon fill="white" stroke="#666666" points="149,-41 0,-41 0,0 149,0 149,-41"/>
<text text-anchor="start" x="8" y="-29" font-family="Helvetica,sans-Serif" font-size="10.00">/home/runner/work/Weaver</text>
<text text-anchor="start" x="8" y="-18" font-family="Helvetica,sans-Serif" font-size="10.00">/Weaver/include/App/Model</text>
<text text-anchor="middle" x="74.5" y="-7" font-family="Helvetica,sans-Serif" font-size="10.00">/IBM/IBM.h</text>
</a>
</g>
</g>
<!-- Node3&#45;&gt;Node4 -->
<g id="edge3_Node000003_Node000004" class="edge">
<title>Node3&#45;&gt;Node4</title>
<g id="a_edge3_Node000003_Node000004"><a xlink:title=" ">
<path fill="none" stroke="#63b8ff" d="M286.02,-74.56C242.56,-63.65 190.6,-50.62 149.05,-40.2"/>
<polygon fill="#63b8ff" stroke="#63b8ff" points="285.17,-77.95 295.72,-76.99 286.87,-71.16 285.17,-77.95"/>
</a>
</g>
</g>
<!-- Node5 -->
<g id="Node000005" class="node">
<title>Node5</title>
<g id="a_Node000005"><a xlink:href="AquaticLandscape_8h.html" target="_top" xlink:title="Defines the AquaticLandscape class for aquatic ecosystem simulations.">
<polygon fill="white" stroke="#666666" points="360.5,-41 166.5,-41 166.5,0 360.5,0 360.5,-41"/>
<text text-anchor="start" x="174.5" y="-29" font-family="Helvetica,sans-Serif" font-size="10.00">/home/runner/work/Weaver</text>
<text text-anchor="start" x="174.5" y="-18" font-family="Helvetica,sans-Serif" font-size="10.00">/Weaver/include/App/Model</text>
<text text-anchor="middle" x="263.5" y="-7" font-family="Helvetica,sans-Serif" font-size="10.00">/IBM/Landscape/AquaticLandscape.h</text>
</a>
</g>
</g>
<!-- Node3&#45;&gt;Node5 -->
<g id="edge4_Node000003_Node000005" class="edge">
<title>Node3&#45;&gt;Node5</title>
<g id="a_edge4_Node000003_Node000005"><a xlink:title=" ">
<path fill="none" stroke="#63b8ff" d="M336.24,-71.09C321.9,-61.32 305.78,-50.32 292.35,-41.17"/>
<polygon fill="#63b8ff" stroke="#63b8ff" points="334.65,-74.25 344.89,-76.99 338.6,-68.47 334.65,-74.25"/>
</a>
</g>
</g>
<!-- Node6 -->
<g id="Node000006" class="node">
<title>Node6</title>
<g id="a_Node000006"><a xlink:href="ArthropodsLandscape_8h.html" target="_top" xlink:title="Defines the ArthropodsLandscape class for arthropod&#45;specific ecosystem simulations.">
<polygon fill="white" stroke="#666666" points="588.5,-41 378.5,-41 378.5,0 588.5,0 588.5,-41"/>
<text text-anchor="start" x="386.5" y="-29" font-family="Helvetica,sans-Serif" font-size="10.00">/home/runner/work/Weaver</text>
<text text-anchor="start" x="386.5" y="-18" font-family="Helvetica,sans-Serif" font-size="10.00">/Weaver/include/App/Model</text>
<text text-anchor="middle" x="483.5" y="-7" font-family="Helvetica,sans-Serif" font-size="10.00">/IBM/Landscape/ArthropodsLandscape.h</text>
</a>
</g>
</g>
<!-- Node3&#45;&gt;Node6 -->
<g id="edge5_Node000003_Node000006" class="edge">
<title>Node3&#45;&gt;Node6</title>
<g id="a_edge5_Node000003_Node000006"><a xlink:title=" ">
<path fill="none" stroke="#63b8ff" d="M410.76,-71.09C425.1,-61.32 441.22,-50.32 454.65,-41.17"/>
<polygon fill="#63b8ff" stroke="#63b8ff" points="408.4,-68.47 402.11,-76.99 412.35,-74.25 408.4,-68.47"/>
</a>
</g>
</g>
<!-- Node7 -->
<g id="Node000007" class="node">
<title>Node7</title>
<g id="a_Node000007"><a xlink:href="DinosaursLandscape_8h.html" target="_top" xlink:title="Defines the DinosaursLandscape class for dinosaur&#45;specific ecosystem simulations.">
<polygon fill="white" stroke="#666666" points="812.5,-41 606.5,-41 606.5,0 812.5,0 812.5,-41"/>
<text text-anchor="start" x="614.5" y="-29" font-family="Helvetica,sans-Serif" font-size="10.00">/home/runner/work/Weaver</text>
<text text-anchor="start" x="614.5" y="-18" font-family="Helvetica,sans-Serif" font-size="10.00">/Weaver/include/App/Model</text>
<text text-anchor="middle" x="709.5" y="-7" font-family="Helvetica,sans-Serif" font-size="10.00">/IBM/Landscape/DinosaursLandscape.h</text>
</a>
</g>
</g>
<!-- Node3&#45;&gt;Node7 -->
<g id="edge6_Node000003_Node000007" class="edge">
<title>Node3&#45;&gt;Node7</title>
<g id="a_edge6_Node000003_Node000007"><a xlink:title=" ">
<path fill="none" stroke="#63b8ff" d="M462.31,-76.68C511.69,-65.66 572.9,-51.99 622.06,-41.02"/>
<polygon fill="#63b8ff" stroke="#63b8ff" points="461.27,-73.32 452.28,-78.92 462.8,-80.15 461.27,-73.32"/>
</a>
</g>
</g>
<!-- Node9 -->
<g id="Node000009" class="node">
<title>Node9</title>
<g id="a_Node000009"><a xlink:href="SpatialTree_8h.html" target="_top" xlink:title="Defines the SpatialTree class, a spatially subdivided map implementation.">
<polygon fill="white" stroke="#666666" points="535,-195 352,-195 352,-154 535,-154 535,-195"/>
<text text-anchor="start" x="360" y="-183" font-family="Helvetica,sans-Serif" font-size="10.00">/home/runner/work/Weaver</text>
<text text-anchor="start" x="360" y="-172" font-family="Helvetica,sans-Serif" font-size="10.00">/Weaver/include/App/Model</text>
<text text-anchor="middle" x="443.5" y="-161" font-family="Helvetica,sans-Serif" font-size="10.00">/IBM/Landscape/Map/SpatialTree.h</text>
</a>
</g>
</g>
<!-- Node8&#45;&gt;Node9 -->
<g id="edge8_Node000008_Node000009" class="edge">
<title>Node8&#45;&gt;Node9</title>
<g id="a_edge8_Node000008_Node000009"><a xlink:title=" ">
<path fill="none" stroke="#63b8ff" d="M152.02,-589.34C142.31,-513.27 131.1,-332.14 224.5,-231 242.1,-211.95 299.96,-197.77 351.79,-188.51"/>
<polygon fill="#63b8ff" stroke="#63b8ff" points="148.57,-589.91 153.37,-599.35 155.5,-588.98 148.57,-589.91"/>
</a>
</g>
</g>
<!-- Node9&#45;&gt;Node3 -->
<g id="edge9_Node000009_Node000003" class="edge">
<title>Node9&#45;&gt;Node3</title>
<g id="a_edge9_Node000009_Node000003"><a xlink:title=" ">
<path fill="none" stroke="#63b8ff" d="M418.05,-146.23C409.35,-136.91 399.79,-126.67 391.77,-118.07"/>
<polygon fill="#63b8ff" stroke="#63b8ff" points="415.73,-148.87 425.11,-153.79 420.84,-144.1 415.73,-148.87"/>
</a>
</g>
</g>
<!-- Node10&#45;&gt;Node8 -->
<g id="edge11_Node000010_Node000008" class="edge">
<title>Node10&#45;&gt;Node8</title>
<g id="a_edge11_Node000010_Node000008"><a xlink:title=" ">
<path fill="none" stroke="#63b8ff" d="M226.31,-691.3C212.59,-678.38 197.02,-663.71 184.16,-651.61"/>
<polygon fill="#63b8ff" stroke="#63b8ff" points="224.03,-693.96 233.71,-698.27 228.83,-688.86 224.03,-693.96"/>
</a>
</g>
</g>
<!-- Node10&#45;&gt;Node11 -->
<g id="edge12_Node000010_Node000011" class="edge">
<title>Node10&#45;&gt;Node11</title>
<g id="a_edge12_Node000010_Node000011"><a xlink:title=" ">
<path fill="none" stroke="#63b8ff" d="M298.58,-691.66C314.14,-678.65 331.86,-663.83 346.48,-651.61"/>
<polygon fill="#63b8ff" stroke="#63b8ff" points="296.1,-689.17 290.67,-698.27 300.59,-694.54 296.1,-689.17"/>
</a>
</g>
</g>
<!-- Node11&#45;&gt;Node3 -->
<g id="edge13_Node000011_Node000003" class="edge">
<title>Node11&#45;&gt;Node3</title>
<g id="a_edge13_Node000011_Node000003"><a xlink:title=" ">
<path fill="none" stroke="#63b8ff" d="M342.81,-591.78C333.68,-581.6 324.41,-569.91 317.5,-558 252.73,-446.41 245.44,-410.31 224.5,-283 220.75,-260.2 215.03,-252.08 224.5,-231 247.54,-179.68 301.37,-140.13 337.61,-118.08"/>
<polygon fill="#63b8ff" stroke="#63b8ff" points="340.37,-594.29 349.73,-599.24 345.5,-589.53 340.37,-594.29"/>
</a>
</g>
</g>
<!-- Node11&#45;&gt;Node9 -->
<g id="edge17_Node000011_Node000009" class="edge">
<title>Node11&#45;&gt;Node9</title>
<g id="a_edge17_Node000011_Node000009"><a xlink:title=" ">
<path fill="none" stroke="#63b8ff" d="M368.91,-589.21C357.97,-531.38 341.91,-413.44 369.5,-319 374.82,-300.78 383.3,-299.61 392.5,-283 409.01,-253.18 425.43,-217.14 435.01,-195.29"/>
<polygon fill="#63b8ff" stroke="#63b8ff" points="365.53,-590.14 370.89,-599.28 372.4,-588.8 365.53,-590.14"/>
</a>
</g>
</g>
<!-- Node12 -->
<g id="Node000012" class="node">
<title>Node12</title>
<g id="a_Node000012"><a xlink:href="Map_8h.html" target="_top" xlink:title="Defines the Map class for spatial organization of landscapes.">
<polygon fill="white" stroke="#666666" points="383.5,-277.5 233.5,-277.5 233.5,-236.5 383.5,-236.5 383.5,-277.5"/>
<text text-anchor="start" x="241.5" y="-265.5" font-family="Helvetica,sans-Serif" font-size="10.00">/home/runner/work/Weaver</text>
<text text-anchor="start" x="241.5" y="-254.5" font-family="Helvetica,sans-Serif" font-size="10.00">/Weaver/include/App/Model</text>
<text text-anchor="middle" x="308.5" y="-243.5" font-family="Helvetica,sans-Serif" font-size="10.00">/IBM/Landscape/Map/Map.h</text>
</a>
</g>
</g>
<!-- Node11&#45;&gt;Node12 -->
<g id="edge14_Node000011_Node000012" class="edge">
<title>Node11&#45;&gt;Node12</title>
<g id="a_edge14_Node000011_Node000012"><a xlink:title=" ">
<path fill="none" stroke="#63b8ff" d="M352.25,-590.78C346.1,-580.69 340.21,-569.29 336.5,-558 303.21,-456.61 305.19,-326.31 307.38,-277.56"/>
<polygon fill="#63b8ff" stroke="#63b8ff" points="349.33,-592.73 357.65,-599.29 355.24,-588.97 349.33,-592.73"/>
</a>
</g>
</g>
<!-- Node13 -->
<g id="Node000013" class="node">
<title>Node13</title>
<g id="a_Node000013"><a xlink:href="SpatialTreeTerrainCell_8h.html" target="_top" xlink:title="Spatial tree implementation of a terrain cell.">
<polygon fill="white" stroke="#666666" points="752.5,-552.5 558.5,-552.5 558.5,-500.5 752.5,-500.5 752.5,-552.5"/>
<text text-anchor="start" x="566.5" y="-540.5" font-family="Helvetica,sans-Serif" font-size="10.00">/home/runner/work/Weaver</text>
<text text-anchor="start" x="566.5" y="-529.5" font-family="Helvetica,sans-Serif" font-size="10.00">/Weaver/include/App/Model</text>
<text text-anchor="start" x="566.5" y="-518.5" font-family="Helvetica,sans-Serif" font-size="10.00">/IBM/Landscape/Map/SpatialTree</text>
<text text-anchor="middle" x="655.5" y="-507.5" font-family="Helvetica,sans-Serif" font-size="10.00">/TerrainCells/SpatialTreeTerrainCell.h</text>
</a>
</g>
</g>
<!-- Node11&#45;&gt;Node13 -->
<g id="edge18_Node000011_Node000013" class="edge">
<title>Node11&#45;&gt;Node13</title>
<g id="a_edge18_Node000011_Node000013"><a xlink:title=" ">
<path fill="none" stroke="#63b8ff" d="M458.37,-596.04C498.06,-582.24 545.3,-565.81 583.59,-552.5"/>
<polygon fill="#63b8ff" stroke="#63b8ff" points="457.01,-592.8 448.71,-599.39 459.31,-599.42 457.01,-592.8"/>
</a>
</g>
</g>
<!-- Node12&#45;&gt;Node3 -->
<g id="edge15_Node000012_Node000003" class="edge">
<title>Node12&#45;&gt;Node3</title>
<g id="a_edge15_Node000012_Node000003"><a xlink:title=" ">
<path fill="none" stroke="#63b8ff" d="M316.69,-226.63C322.84,-205.95 331.99,-177.81 342.5,-154 347.94,-141.68 355.23,-128.5 361.38,-118.07"/>
<polygon fill="#63b8ff" stroke="#63b8ff" points="313.28,-225.84 313.84,-236.42 320,-227.8 313.28,-225.84"/>
</a>
</g>
</g>
<!-- Node12&#45;&gt;Node9 -->
<g id="edge16_Node000012_Node000009" class="edge">
<title>Node12&#45;&gt;Node9</title>
<g id="a_edge16_Node000012_Node000009"><a xlink:title=" ">
<path fill="none" stroke="#63b8ff" d="M350.15,-231.16C369.5,-219.63 392.19,-206.1 410.35,-195.27"/>
<polygon fill="#63b8ff" stroke="#63b8ff" points="348.32,-228.18 341.52,-236.31 351.91,-234.19 348.32,-228.18"/>
</a>
</g>
</g>
<!-- Node13&#45;&gt;Node9 -->
<g id="edge19_Node000013_Node000009" class="edge">
<title>Node13&#45;&gt;Node9</title>
<g id="a_edge19_Node000013_Node000009"><a xlink:title=" ">
<path fill="none" stroke="#63b8ff" d="M668.81,-490.39C689.09,-430.32 719.49,-306.98 660.5,-231 644.7,-210.65 587.12,-196.5 535.25,-187.58"/>
<polygon fill="#63b8ff" stroke="#63b8ff" points="665.39,-489.56 665.41,-500.16 672.01,-491.86 665.39,-489.56"/>
</a>
</g>
</g>
<!-- Node14 -->
<g id="Node000014" class="node">
<title>Node14</title>
<g id="a_Node000014"><a xlink:href="BranchTerrainCell_8h.html" target="_top" xlink:title="Branch node implementation of a spatial tree terrain cell.">
<polygon fill="white" stroke="#666666" points="900.5,-371 726.5,-371 726.5,-319 900.5,-319 900.5,-371"/>
<text text-anchor="start" x="734.5" y="-359" font-family="Helvetica,sans-Serif" font-size="10.00">/home/runner/work/Weaver</text>
<text text-anchor="start" x="734.5" y="-348" font-family="Helvetica,sans-Serif" font-size="10.00">/Weaver/include/App/Model</text>
<text text-anchor="start" x="734.5" y="-337" font-family="Helvetica,sans-Serif" font-size="10.00">/IBM/Landscape/Map/SpatialTree</text>
<text text-anchor="middle" x="813.5" y="-326" font-family="Helvetica,sans-Serif" font-size="10.00">/TerrainCells/BranchTerrainCell.h</text>
</a>
</g>
</g>
<!-- Node13&#45;&gt;Node14 -->
<g id="edge20_Node000013_Node000014" class="edge">
<title>Node13&#45;&gt;Node14</title>
<g id="a_edge20_Node000013_Node000014"><a xlink:title=" ">
<path fill="none" stroke="#63b8ff" d="M674.87,-491.59C689.93,-466.75 712.29,-432.98 736.5,-407 748.59,-394.02 763.57,-381.52 777.09,-371.25"/>
<polygon fill="#63b8ff" stroke="#63b8ff" points="671.79,-489.93 669.66,-500.31 677.8,-493.52 671.79,-489.93"/>
</a>
</g>
</g>
<!-- Node16 -->
<g id="Node000016" class="node">
<title>Node16</title>
<g id="a_Node000016"><a xlink:href="LeafTerrainCell_8h.html" target="_top" xlink:title="Leaf node implementation of a spatial tree terrain cell.">
<polygon fill="white" stroke="#666666" points="919.5,-459 745.5,-459 745.5,-407 919.5,-407 919.5,-459"/>
<text text-anchor="start" x="753.5" y="-447" font-family="Helvetica,sans-Serif" font-size="10.00">/home/runner/work/Weaver</text>
<text text-anchor="start" x="753.5" y="-436" font-family="Helvetica,sans-Serif" font-size="10.00">/Weaver/include/App/Model</text>
<text text-anchor="start" x="753.5" y="-425" font-family="Helvetica,sans-Serif" font-size="10.00">/IBM/Landscape/Map/SpatialTree</text>
<text text-anchor="middle" x="832.5" y="-414" font-family="Helvetica,sans-Serif" font-size="10.00">/TerrainCells/LeafTerrainCell.h</text>
</a>
</g>
</g>
<!-- Node13&#45;&gt;Node16 -->
<g id="edge23_Node000013_Node000016" class="edge">
<title>Node13&#45;&gt;Node16</title>
<g id="a_edge23_Node000013_Node000016"><a xlink:title=" ">
<path fill="none" stroke="#63b8ff" d="M712.81,-495.87C735.75,-484.01 761.9,-470.5 783.89,-459.13"/>
<polygon fill="#63b8ff" stroke="#63b8ff" points="711.14,-492.8 703.87,-500.5 714.36,-499.01 711.14,-492.8"/>
</a>
</g>
</g>
<!-- Node15 -->
<g id="Node000015" class="node">
<title>Node15</title>
<g id="a_Node000015"><a xlink:href="RootTerrainCell_8h.html" target="_top" xlink:title="Defines the RootTerrainCell class, the top&#45;level node of the spatial tree in the landscape.">
<polygon fill="white" stroke="#666666" points="651.5,-283 477.5,-283 477.5,-231 651.5,-231 651.5,-283"/>
<text text-anchor="start" x="485.5" y="-271" font-family="Helvetica,sans-Serif" font-size="10.00">/home/runner/work/Weaver</text>
<text text-anchor="start" x="485.5" y="-260" font-family="Helvetica,sans-Serif" font-size="10.00">/Weaver/include/App/Model</text>
<text text-anchor="start" x="485.5" y="-249" font-family="Helvetica,sans-Serif" font-size="10.00">/IBM/Landscape/Map/SpatialTree</text>
<text text-anchor="middle" x="564.5" y="-238" font-family="Helvetica,sans-Serif" font-size="10.00">/TerrainCells/RootTerrainCell.h</text>
</a>
</g>
</g>
<!-- Node14&#45;&gt;Node15 -->
<g id="edge21_Node000014_Node000015" class="edge">
<title>Node14&#45;&gt;Node15</title>
<g id="a_edge21_Node000014_Node000015"><a xlink:title=" ">
<path fill="none" stroke="#63b8ff" d="M731.11,-315.54C700.79,-305.07 666.69,-293.3 637.28,-283.14"/>
<polygon fill="#63b8ff" stroke="#63b8ff" points="730.21,-318.94 740.81,-318.89 732.5,-312.32 730.21,-318.94"/>
</a>
</g>
</g>
<!-- Node15&#45;&gt;Node9 -->
<g id="edge22_Node000015_Node000009" class="edge">
<title>Node15&#45;&gt;Node9</title>
<g id="a_edge22_Node000015_Node000009"><a xlink:title=" ">
<path fill="none" stroke="#63b8ff" d="M518.14,-225.15C502.99,-215.08 486.59,-204.17 473.03,-195.15"/>
<polygon fill="#63b8ff" stroke="#63b8ff" points="516.61,-228.35 526.88,-230.97 520.49,-222.52 516.61,-228.35"/>
</a>
</g>
</g>
<!-- Node16&#45;&gt;Node14 -->
<g id="edge24_Node000016_Node000014" class="edge">
<title>Node16&#45;&gt;Node14</title>
<g id="a_edge24_Node000016_Node000014"><a xlink:title=" ">
<path fill="none" stroke="#63b8ff" d="M824.73,-396.84C822.83,-388.23 820.83,-379.19 819.06,-371.16"/>
<polygon fill="#63b8ff" stroke="#63b8ff" points="821.33,-397.65 826.9,-406.66 828.16,-396.14 821.33,-397.65"/>
</a>
</g>
</g>
<!-- Node17&#45;&gt;Node2 -->
<g id="edge27_Node000017_Node000002" class="edge">
<title>Node17&#45;&gt;Node2</title>
<g id="a_edge27_Node000017_Node000002"><a xlink:title=" ">
<path fill="none" stroke="#63b8ff" d="M250.37,-968.68C252.92,-932.35 256.58,-880.35 258.73,-849.74"/>
<polygon fill="#63b8ff" stroke="#63b8ff" points="246.86,-968.73 249.65,-978.95 253.84,-969.22 246.86,-968.73"/>
</a>
</g>
</g>
<!-- Node18&#45;&gt;Node3 -->
<g id="edge29_Node000018_Node000003" class="edge">
<title>Node18&#45;&gt;Node3</title>
<g id="a_edge29_Node000018_Node000003"><a xlink:title=" ">
<path fill="none" stroke="#63b8ff" d="M780.61,-1003.37C859.84,-995.91 971.19,-979.41 1062.5,-943 1150.78,-907.8 1240.5,-919.54 1240.5,-824.5 1240.5,-824.5 1240.5,-824.5 1240.5,-256 1240.5,-176.83 1383.95,-237.74 997.5,-154 804.58,-112.19 571.55,-101.77 452.27,-99.24"/>
<polygon fill="#63b8ff" stroke="#63b8ff" points="780.26,-999.89 770.62,-1004.28 780.9,-1006.86 780.26,-999.89"/>
</a>
</g>
</g>
<!-- Node18&#45;&gt;Node9 -->
<g id="edge54_Node000018_Node000009" class="edge">
<title>Node18&#45;&gt;Node9</title>
<g id="a_edge54_Node000018_Node000009"><a xlink:title=" ">
<path fill="none" stroke="#63b8ff" d="M780.86,-991.89C923.43,-964.4 1164.5,-905.89 1164.5,-824.5 1164.5,-824.5 1164.5,-824.5 1164.5,-344 1164.5,-216.18 729.37,-185.26 535.18,-177.83"/>
<polygon fill="#63b8ff" stroke="#63b8ff" points="779.94,-988.5 770.77,-993.81 781.25,-995.38 779.94,-988.5"/>
</a>
</g>
</g>
<!-- Node18&#45;&gt;Node11 -->
<g id="edge55_Node000018_Node000011" class="edge">
<title>Node18&#45;&gt;Node11</title>
<g id="a_edge55_Node000018_Node000011"><a xlink:title=" ">
<path fill="none" stroke="#63b8ff" d="M576.47,-992.92C518.7,-981.44 454.15,-964.4 434.5,-943 414.68,-921.43 388.4,-722.73 379.55,-651.65"/>
<polygon fill="#63b8ff" stroke="#63b8ff" points="575.93,-996.38 586.41,-994.85 577.27,-989.51 575.93,-996.38"/>
</a>
</g>
</g>
<!-- Node19 -->
<g id="Node000019" class="node">
<title>Node19</title>
<g id="a_Node000019"><a xlink:href="Animal_8h.html" target="_top" xlink:title="Defines the Animal class, an abstract class representing animals in the ecosystem.">
<polygon fill="white" stroke="#666666" points="601.5,-943 443.5,-943 443.5,-891 601.5,-891 601.5,-943"/>
<text text-anchor="start" x="451.5" y="-931" font-family="Helvetica,sans-Serif" font-size="10.00">/home/runner/work/Weaver</text>
<text text-anchor="start" x="451.5" y="-920" font-family="Helvetica,sans-Serif" font-size="10.00">/Weaver/include/App/Model</text>
<text text-anchor="start" x="451.5" y="-909" font-family="Helvetica,sans-Serif" font-size="10.00">/IBM/Landscape/LivingBeings</text>
<text text-anchor="middle" x="522.5" y="-898" font-family="Helvetica,sans-Serif" font-size="10.00">/Animals/Animal.h</text>
</a>
</g>
</g>
<!-- Node18&#45;&gt;Node19 -->
<g id="edge30_Node000018_Node000019" class="edge">
<title>Node18&#45;&gt;Node19</title>
<g id="a_edge30_Node000018_Node000019"><a xlink:title=" ">
<path fill="none" stroke="#63b8ff" d="M627.18,-979.4C607.16,-967.66 584.47,-954.35 565.35,-943.13"/>
<polygon fill="#63b8ff" stroke="#63b8ff" points="625.48,-982.46 635.87,-984.5 629.02,-976.42 625.48,-982.46"/>
</a>
</g>
</g>
<!-- Node21 -->
<g id="Node000021" class="node">
<title>Node21</title>
<g id="a_Node000021"><a xlink:href="HabitatDomainSource_8h.html" target="_top" xlink:title="Defines the HabitatDomainSource class representing habitat domain information for animal species.">
<polygon fill="white" stroke="#666666" points="908.5,-943 736.5,-943 736.5,-891 908.5,-891 908.5,-943"/>
<text text-anchor="start" x="744.5" y="-931" font-family="Helvetica,sans-Serif" font-size="10.00">/home/runner/work/Weaver</text>
<text text-anchor="start" x="744.5" y="-920" font-family="Helvetica,sans-Serif" font-size="10.00">/Weaver/include/App/Model</text>
<text text-anchor="start" x="744.5" y="-909" font-family="Helvetica,sans-Serif" font-size="10.00">/IBM/Landscape/Map/Patches</text>
<text text-anchor="middle" x="822.5" y="-898" font-family="Helvetica,sans-Serif" font-size="10.00">/Source/HabitatDomainSource.h</text>
</a>
</g>
</g>
<!-- Node18&#45;&gt;Node21 -->
<g id="edge37_Node000018_Node000021" class="edge">
<title>Node18&#45;&gt;Node21</title>
<g id="a_edge37_Node000018_Node000021"><a xlink:title=" ">
<path fill="none" stroke="#63b8ff" d="M726.62,-978.92C744.92,-967.3 765.53,-954.2 782.95,-943.13"/>
<polygon fill="#63b8ff" stroke="#63b8ff" points="724.41,-976.18 717.85,-984.5 728.17,-982.09 724.41,-976.18"/>
</a>
</g>
</g>
<!-- Node19&#45;&gt;Node2 -->
<g id="edge31_Node000019_Node000002" class="edge">
<title>Node19&#45;&gt;Node2</title>
<g id="a_edge31_Node000019_Node000002"><a xlink:title=" ">
<path fill="none" stroke="#63b8ff" d="M441.25,-887.62C406.46,-875.47 366.16,-861.4 332.46,-849.63"/>
<polygon fill="#63b8ff" stroke="#63b8ff" points="440.31,-891 450.91,-891 442.62,-884.4 440.31,-891"/>
</a>
</g>
</g>
<!-- Node19&#45;&gt;Node11 -->
<g id="edge36_Node000019_Node000011" class="edge">
<title>Node19&#45;&gt;Node11</title>
<g id="a_edge36_Node000019_Node000011"><a xlink:title=" ">
<path fill="none" stroke="#63b8ff" d="M495.33,-882.51C489.2,-873.89 483.15,-864.39 478.5,-855 445.15,-787.57 464.46,-759.61 429.5,-693 421.75,-678.23 410.51,-663.54 400.38,-651.74"/>
<polygon fill="#63b8ff" stroke="#63b8ff" points="492.68,-884.81 501.43,-890.79 498.32,-880.66 492.68,-884.81"/>
</a>
</g>
</g>
<!-- Node19&#45;&gt;Node15 -->
<g id="edge35_Node000019_Node000015" class="edge">
<title>Node19&#45;&gt;Node15</title>
<g id="a_edge35_Node000019_Node000015"><a xlink:title=" ">
<path fill="none" stroke="#63b8ff" d="M524.87,-880.64C527.23,-842.41 530.5,-779.66 530.5,-725.5 530.5,-725.5 530.5,-725.5 530.5,-624.5 530.5,-495.74 551.56,-342.61 560.53,-283.25"/>
<polygon fill="#63b8ff" stroke="#63b8ff" points="521.37,-880.55 524.24,-890.75 528.36,-880.99 521.37,-880.55"/>
</a>
</g>
</g>
<!-- Node20 -->
<g id="Node000020" class="node">
<title>Node20</title>
<g id="a_Node000020"><a xlink:href="AnimalStatistical_8h.html" target="_top" xlink:title="Defines the AnimalStatistical class, a concrete subclass of Animal for statistical simulations.">
<polygon fill="white" stroke="#666666" points="536.5,-371 378.5,-371 378.5,-319 536.5,-319 536.5,-371"/>
<text text-anchor="start" x="386.5" y="-359" font-family="Helvetica,sans-Serif" font-size="10.00">/home/runner/work/Weaver</text>
<text text-anchor="start" x="386.5" y="-348" font-family="Helvetica,sans-Serif" font-size="10.00">/Weaver/include/App/Model</text>
<text text-anchor="start" x="386.5" y="-337" font-family="Helvetica,sans-Serif" font-size="10.00">/IBM/Landscape/LivingBeings</text>
<text text-anchor="middle" x="457.5" y="-326" font-family="Helvetica,sans-Serif" font-size="10.00">/Animals/AnimalStatistical.h</text>
</a>
</g>
</g>
<!-- Node19&#45;&gt;Node20 -->
<g id="edge32_Node000019_Node000020" class="edge">
<title>Node19&#45;&gt;Node20</title>
<g id="a_edge32_Node000019_Node000020"><a xlink:title=" ">
<path fill="none" stroke="#63b8ff" d="M513.6,-880.88C504.75,-842.85 492.5,-780.28 492.5,-725.5 492.5,-725.5 492.5,-725.5 492.5,-525.5 492.5,-469.62 475.96,-405.73 465.62,-371.26"/>
<polygon fill="#63b8ff" stroke="#63b8ff" points="510.27,-882.01 515.99,-890.93 517.08,-880.39 510.27,-882.01"/>
</a>
</g>
</g>
<!-- Node20&#45;&gt;Node9 -->
<g id="edge34_Node000020_Node000009" class="edge">
<title>Node20&#45;&gt;Node9</title>
<g id="a_edge34_Node000020_Node000009"><a xlink:title=" ">
<path fill="none" stroke="#63b8ff" d="M454.56,-308.65C451.7,-274.13 447.44,-222.88 445.13,-195.11"/>
<polygon fill="#63b8ff" stroke="#63b8ff" points="451.09,-309.1 455.4,-318.77 458.06,-308.52 451.09,-309.1"/>
</a>
</g>
</g>
<!-- Node20&#45;&gt;Node12 -->
<g id="edge33_Node000020_Node000012" class="edge">
<title>Node20&#45;&gt;Node12</title>
<g id="a_edge33_Node000020_Node000012"><a xlink:title=" ">
<path fill="none" stroke="#63b8ff" d="M405.23,-313.83C384.36,-301.78 360.92,-288.25 342.34,-277.53"/>
<polygon fill="#63b8ff" stroke="#63b8ff" points="403.59,-316.93 414,-318.89 407.09,-310.86 403.59,-316.93"/>
</a>
</g>
</g>
<!-- Node21&#45;&gt;Node3 -->
<g id="edge38_Node000021_Node000003" class="edge">
<title>Node21&#45;&gt;Node3</title>
<g id="a_edge38_Node000021_Node000003"><a xlink:title=" ">
<path fill="none" stroke="#63b8ff" d="M905.48,-887.02C966.27,-861.63 1046.13,-818.85 1093.5,-756 1184.43,-635.34 1202.5,-585.09 1202.5,-434 1202.5,-434 1202.5,-434 1202.5,-256 1202.5,-180.1 659.17,-123.86 452.24,-105.2"/>
<polygon fill="#63b8ff" stroke="#63b8ff" points="903.82,-883.92 895.89,-890.95 906.48,-890.4 903.82,-883.92"/>
</a>
</g>
</g>
<!-- Node22 -->
<g id="Node000022" class="node">
<title>Node22</title>
<g id="a_Node000022"><a xlink:href="BranchCellHabitatDomain_8h.html" target="_top" xlink:title="Defines the BranchCellHabitatDomain class for managing habitat domains in branch terrain cells.">
<polygon fill="white" stroke="#666666" points="1084,-756 851,-756 851,-693 1084,-693 1084,-756"/>
<text text-anchor="start" x="859" y="-744" font-family="Helvetica,sans-Serif" font-size="10.00">/home/runner/work/Weaver</text>
<text text-anchor="start" x="859" y="-733" font-family="Helvetica,sans-Serif" font-size="10.00">/Weaver/include/App/Model</text>
<text text-anchor="start" x="859" y="-722" font-family="Helvetica,sans-Serif" font-size="10.00">/IBM/Landscape/Map/SpatialTree</text>
<text text-anchor="start" x="859" y="-711" font-family="Helvetica,sans-Serif" font-size="10.00">/TerrainCells/PatchApplicator</text>
<text text-anchor="middle" x="967.5" y="-700" font-family="Helvetica,sans-Serif" font-size="10.00">/HabitatDomain/BranchCellHabitatDomain.h</text>
</a>
</g>
</g>
<!-- Node21&#45;&gt;Node22 -->
<g id="edge39_Node000021_Node000022" class="edge">
<title>Node21&#45;&gt;Node22</title>
<g id="a_edge39_Node000021_Node000022"><a xlink:title=" ">
<path fill="none" stroke="#63b8ff" d="M885.35,-885.58C898.28,-877.09 910.87,-866.88 920.5,-855 943.99,-826.01 956.31,-784.27 962.34,-756.07"/>
<polygon fill="#63b8ff" stroke="#63b8ff" points="883.45,-882.64 876.82,-890.91 887.16,-888.58 883.45,-882.64"/>
</a>
</g>
</g>
<!-- Node24 -->
<g id="Node000024" class="node">
<title>Node24</title>
<g id="a_Node000024"><a xlink:href="CellHabitatDomainInterface_8h.html" target="_top" xlink:title="Declares the CellHabitatDomainInterface class, which stores and manages habitat&#45;domain information fo...">
<polygon fill="white" stroke="#666666" points="911,-855 734,-855 734,-792 911,-792 911,-855"/>
<text text-anchor="start" x="742" y="-843" font-family="Helvetica,sans-Serif" font-size="10.00">/home/runner/work/Weaver</text>
<text text-anchor="start" x="742" y="-832" font-family="Helvetica,sans-Serif" font-size="10.00">/Weaver/include/App/Model</text>
<text text-anchor="start" x="742" y="-821" font-family="Helvetica,sans-Serif" font-size="10.00">/IBM/Landscape/Map/TerrainCells</text>
<text text-anchor="start" x="742" y="-810" font-family="Helvetica,sans-Serif" font-size="10.00">/PatchApplicator/HabitatDomain</text>
<text text-anchor="middle" x="822.5" y="-799" font-family="Helvetica,sans-Serif" font-size="10.00">/CellHabitatDomainInterface.h</text>
</a>
</g>
</g>
<!-- Node21&#45;&gt;Node24 -->
<g id="edge42_Node000021_Node000024" class="edge">
<title>Node21&#45;&gt;Node24</title>
<g id="a_edge42_Node000021_Node000024"><a xlink:title=" ">
<path fill="none" stroke="#63b8ff" d="M822.5,-880.93C822.5,-872.39 822.5,-863.32 822.5,-855.02"/>
<polygon fill="#63b8ff" stroke="#63b8ff" points="819,-881 822.5,-891 826,-881 819,-881"/>
</a>
</g>
</g>
<!-- Node27 -->
<g id="Node000027" class="node">
<title>Node27</title>
<g id="a_Node000027"><a xlink:href="PatchApplicator_8h.html" target="_top" xlink:title="Defines the PatchApplicator class responsible for applying patches (moisture, resource,...">
<polygon fill="white" stroke="#666666" points="769.5,-750.5 587.5,-750.5 587.5,-698.5 769.5,-698.5 769.5,-750.5"/>
<text text-anchor="start" x="595.5" y="-738.5" font-family="Helvetica,sans-Serif" font-size="10.00">/home/runner/work/Weaver</text>
<text text-anchor="start" x="595.5" y="-727.5" font-family="Helvetica,sans-Serif" font-size="10.00">/Weaver/include/App/Model</text>
<text text-anchor="start" x="595.5" y="-716.5" font-family="Helvetica,sans-Serif" font-size="10.00">/IBM/Landscape/Map/TerrainCells</text>
<text text-anchor="middle" x="678.5" y="-705.5" font-family="Helvetica,sans-Serif" font-size="10.00">/PatchApplicator/PatchApplicator.h</text>
</a>
</g>
</g>
<!-- Node21&#45;&gt;Node27 -->
<g id="edge53_Node000021_Node000027" class="edge">
<title>Node21&#45;&gt;Node27</title>
<g id="a_edge53_Node000021_Node000027"><a xlink:title=" ">
<path fill="none" stroke="#63b8ff" d="M760.5,-885.62C747.63,-877.11 735.08,-866.88 725.5,-855 700.5,-824 688.14,-778.55 682.55,-750.55"/>
<polygon fill="#63b8ff" stroke="#63b8ff" points="758.66,-888.6 768.98,-890.97 762.39,-882.67 758.66,-888.6"/>
</a>
</g>
</g>
<!-- Node23 -->
<g id="Node000023" class="node">
<title>Node23</title>
<g id="a_Node000023"><a xlink:href="BranchPatchApplicator_8h.html" target="_top" xlink:title="Defines the BranchPatchApplicator class for applying patches to branch terrain cells in a spatial tre...">
<polygon fill="white" stroke="#666666" points="1136.5,-558 962.5,-558 962.5,-495 1136.5,-495 1136.5,-558"/>
<text text-anchor="start" x="970.5" y="-546" font-family="Helvetica,sans-Serif" font-size="10.00">/home/runner/work/Weaver</text>
<text text-anchor="start" x="970.5" y="-535" font-family="Helvetica,sans-Serif" font-size="10.00">/Weaver/include/App/Model</text>
<text text-anchor="start" x="970.5" y="-524" font-family="Helvetica,sans-Serif" font-size="10.00">/IBM/Landscape/Map/SpatialTree</text>
<text text-anchor="start" x="970.5" y="-513" font-family="Helvetica,sans-Serif" font-size="10.00">/TerrainCells/PatchApplicator</text>
<text text-anchor="middle" x="1049.5" y="-502" font-family="Helvetica,sans-Serif" font-size="10.00">/BranchPatchApplicator.h</text>
</a>
</g>
</g>
<!-- Node22&#45;&gt;Node23 -->
<g id="edge40_Node000022_Node000023" class="edge">
<title>Node22&#45;&gt;Node23</title>
<g id="a_edge40_Node000022_Node000023"><a xlink:title=" ">
<path fill="none" stroke="#63b8ff" d="M984.29,-683.37C999.8,-646.29 1022.52,-591.98 1036.64,-558.23"/>
<polygon fill="#63b8ff" stroke="#63b8ff" points="980.94,-682.3 980.31,-692.88 987.4,-685 980.94,-682.3"/>
</a>
</g>
</g>
<!-- Node23&#45;&gt;Node14 -->
<g id="edge41_Node000023_Node000014" class="edge">
<title>Node23&#45;&gt;Node14</title>
<g id="a_edge41_Node000023_Node000014"><a xlink:title=" ">
<path fill="none" stroke="#63b8ff" d="M1015.91,-487.32C992.88,-462.54 960.77,-430.59 928.5,-407 909.98,-393.46 888.07,-381.07 868.37,-371.04"/>
<polygon fill="#63b8ff" stroke="#63b8ff" points="1013.41,-489.77 1022.76,-494.76 1018.56,-485.03 1013.41,-489.77"/>
</a>
</g>
</g>
<!-- Node24&#45;&gt;Node22 -->
<g id="edge43_Node000024_Node000022" class="edge">
<title>Node24&#45;&gt;Node22</title>
<g id="a_edge43_Node000024_Node000022"><a xlink:title=" ">
<path fill="none" stroke="#63b8ff" d="M876.87,-786.13C891.54,-776.32 907.26,-765.8 921.42,-756.32"/>
<polygon fill="#63b8ff" stroke="#63b8ff" points="874.74,-783.34 868.38,-791.81 878.64,-789.16 874.74,-783.34"/>
</a>
</g>
</g>
<!-- Node25 -->
<g id="Node000025" class="node">
<title>Node25</title>
<g id="a_Node000025"><a xlink:href="CellHabitatDomain_8h.html" target="_top" xlink:title="Declares the CellHabitatDomain class, a concrete implementation of CellHabitatDomainInterface represe...">
<polygon fill="white" stroke="#666666" points="948,-657 771,-657 771,-594 948,-594 948,-657"/>
<text text-anchor="start" x="779" y="-645" font-family="Helvetica,sans-Serif" font-size="10.00">/home/runner/work/Weaver</text>
<text text-anchor="start" x="779" y="-634" font-family="Helvetica,sans-Serif" font-size="10.00">/Weaver/include/App/Model</text>
<text text-anchor="start" x="779" y="-623" font-family="Helvetica,sans-Serif" font-size="10.00">/IBM/Landscape/Map/TerrainCells</text>
<text text-anchor="start" x="779" y="-612" font-family="Helvetica,sans-Serif" font-size="10.00">/PatchApplicator/HabitatDomain</text>
<text text-anchor="middle" x="859.5" y="-601" font-family="Helvetica,sans-Serif" font-size="10.00">/CellHabitatDomain.h</text>
</a>
</g>
</g>
<!-- Node24&#45;&gt;Node25 -->
<g id="edge44_Node000024_Node000025" class="edge">
<title>Node24&#45;&gt;Node25</title>
<g id="a_edge44_Node000024_Node000025"><a xlink:title=" ">
<path fill="none" stroke="#63b8ff" d="M827.74,-781.91C831.3,-756.29 836.45,-722.58 842.5,-693 844.91,-681.21 848.07,-668.37 851,-657.15"/>
<polygon fill="#63b8ff" stroke="#63b8ff" points="824.25,-781.62 826.36,-792 831.18,-782.56 824.25,-781.62"/>
</a>
</g>
</g>
<!-- Node24&#45;&gt;Node27 -->
<g id="edge47_Node000024_Node000027" class="edge">
<title>Node24&#45;&gt;Node27</title>
<g id="a_edge47_Node000024_Node000027"><a xlink:title=" ">
<path fill="none" stroke="#63b8ff" d="M768.5,-786.13C751.04,-774.36 732.06,-761.58 716.05,-750.8"/>
<polygon fill="#63b8ff" stroke="#63b8ff" points="766.69,-789.12 776.94,-791.81 770.6,-783.32 766.69,-789.12"/>
</a>
</g>
</g>
<!-- Node26 -->
<g id="Node000026" class="node">
<title>Node26</title>
<g id="a_Node000026"><a xlink:href="LeafPatchApplicator_8h.html" target="_top" xlink:title="Defines the LeafPatchApplicator class for applying patches to leaf terrain cells in a spatial tree.">
<polygon fill="white" stroke="#666666" points="944.5,-558 770.5,-558 770.5,-495 944.5,-495 944.5,-558"/>
<text text-anchor="start" x="778.5" y="-546" font-family="Helvetica,sans-Serif" font-size="10.00">/home/runner/work/Weaver</text>
<text text-anchor="start" x="778.5" y="-535" font-family="Helvetica,sans-Serif" font-size="10.00">/Weaver/include/App/Model</text>
<text text-anchor="start" x="778.5" y="-524" font-family="Helvetica,sans-Serif" font-size="10.00">/IBM/Landscape/Map/SpatialTree</text>
<text text-anchor="start" x="778.5" y="-513" font-family="Helvetica,sans-Serif" font-size="10.00">/TerrainCells/PatchApplicator</text>
<text text-anchor="middle" x="857.5" y="-502" font-family="Helvetica,sans-Serif" font-size="10.00">/LeafPatchApplicator.h</text>
</a>
</g>
</g>
<!-- Node25&#45;&gt;Node26 -->
<g id="edge45_Node000025_Node000026" class="edge">
<title>Node25&#45;&gt;Node26</title>
<g id="a_edge45_Node000025_Node000026"><a xlink:title=" ">
<path fill="none" stroke="#63b8ff" d="M858.66,-583.69C858.48,-575.2 858.3,-566.38 858.14,-558.32"/>
<polygon fill="#63b8ff" stroke="#63b8ff" points="855.16,-583.88 858.87,-593.81 862.16,-583.74 855.16,-583.88"/>
</a>
</g>
</g>
<!-- Node26&#45;&gt;Node16 -->
<g id="edge46_Node000026_Node000016" class="edge">
<title>Node26&#45;&gt;Node16</title>
<g id="a_edge46_Node000026_Node000016"><a xlink:title=" ">
<path fill="none" stroke="#63b8ff" d="M846.43,-484.98C844.01,-476.14 841.53,-467.04 839.34,-459.02"/>
<polygon fill="#63b8ff" stroke="#63b8ff" points="843.09,-486.05 849.11,-494.78 849.85,-484.21 843.09,-486.05"/>
</a>
</g>
</g>
<!-- Node27&#45;&gt;Node11 -->
<g id="edge52_Node000027_Node000011" class="edge">
<title>Node27&#45;&gt;Node11</title>
<g id="a_edge52_Node000027_Node000011"><a xlink:title=" ">
<path fill="none" stroke="#63b8ff" d="M590.7,-695.3C547.57,-681.45 496.04,-664.9 454.34,-651.5"/>
<polygon fill="#63b8ff" stroke="#63b8ff" points="589.74,-698.67 600.33,-698.39 591.88,-692 589.74,-698.67"/>
</a>
</g>
</g>
<!-- Node28 -->
<g id="Node000028" class="node">
<title>Node28</title>
<g id="a_Node000028"><a xlink:href="SpatialTreePatchApplicator_8h.html" target="_top" xlink:title="Defines the SpatialTreePatchApplicator class for applying patches in a spatial tree of terrain cells.">
<polygon fill="white" stroke="#666666" points="752.5,-657 578.5,-657 578.5,-594 752.5,-594 752.5,-657"/>
<text text-anchor="start" x="586.5" y="-645" font-family="Helvetica,sans-Serif" font-size="10.00">/home/runner/work/Weaver</text>
<text text-anchor="start" x="586.5" y="-634" font-family="Helvetica,sans-Serif" font-size="10.00">/Weaver/include/App/Model</text>
<text text-anchor="start" x="586.5" y="-623" font-family="Helvetica,sans-Serif" font-size="10.00">/IBM/Landscape/Map/SpatialTree</text>
<text text-anchor="start" x="586.5" y="-612" font-family="Helvetica,sans-Serif" font-size="10.00">/TerrainCells/PatchApplicator</text>
<text text-anchor="middle" x="665.5" y="-601" font-family="Helvetica,sans-Serif" font-size="10.00">/SpatialTreePatchApplicator.h</text>
</a>
</g>
</g>
<!-- Node27&#45;&gt;Node28 -->
<g id="edge48_Node000027_Node000028" class="edge">
<title>Node27&#45;&gt;Node28</title>
<g id="a_edge48_Node000027_Node000028"><a xlink:title=" ">
<path fill="none" stroke="#63b8ff" d="M673.75,-688.08C672.39,-677.94 670.92,-666.97 669.61,-657.14"/>
<polygon fill="#63b8ff" stroke="#63b8ff" points="670.32,-688.82 675.12,-698.27 677.26,-687.89 670.32,-688.82"/>
</a>
</g>
</g>
<!-- Node28&#45;&gt;Node13 -->
<g id="edge51_Node000028_Node000013" class="edge">
<title>Node28&#45;&gt;Node13</title>
<g id="a_edge51_Node000028_Node000013"><a xlink:title=" ">
<path fill="none" stroke="#63b8ff" d="M661.28,-583.59C660.21,-573.14 659.08,-562.21 658.11,-552.8"/>
<polygon fill="#63b8ff" stroke="#63b8ff" points="657.83,-584.22 662.34,-593.81 664.79,-583.5 657.83,-584.22"/>
</a>
</g>
</g>
<!-- Node28&#45;&gt;Node23 -->
<g id="edge49_Node000028_Node000023" class="edge">
<title>Node28&#45;&gt;Node23</title>
<g id="a_edge49_Node000028_Node000023"><a xlink:title=" ">
<path fill="none" stroke="#63b8ff" d="M762.19,-594.08C762.3,-594.05 762.4,-594.03 762.5,-594 846.29,-573.01 869.74,-579.12 953.5,-558 956.38,-557.27 959.31,-556.51 962.25,-555.71"/>
<polygon fill="#63b8ff" stroke="#63b8ff" points="761.4,-590.67 752.61,-596.57 763.17,-597.44 761.4,-590.67"/>
</a>
</g>
</g>
<!-- Node28&#45;&gt;Node26 -->
<g id="edge50_Node000028_Node000026" class="edge">
<title>Node28&#45;&gt;Node26</title>
<g id="a_edge50_Node000028_Node000026"><a xlink:title=" ">
<path fill="none" stroke="#63b8ff" d="M735.16,-589.31C755.41,-579.08 777.35,-567.99 796.99,-558.07"/>
<polygon fill="#63b8ff" stroke="#63b8ff" points="733.33,-586.31 725.99,-593.94 736.49,-592.56 733.33,-586.31"/>
</a>
</g>
</g>
</g>
</svg>
