<?xml version="1.0" encoding="UTF-8" standalone="no"?>
<!DOCTYPE svg PUBLIC "-//W3C//DTD SVG 1.1//EN"
 "http://www.w3.org/Graphics/SVG/1.1/DTD/svg11.dtd">
<!-- Generated by graphviz version 2.43.0 (0)
 -->
<!-- Title: /home/runner/work/Weaver/Weaver/include/App/Model/IBM/Landscape/Map/TerrainCells/TerrainCell.h Pages: 1 -->
<!--zoomable 643 -->

<svg id="main" version="1.1" xmlns="http://www.w3.org/2000/svg" xmlns:xlink="http://www.w3.org/1999/xlink" xml:space="preserve" onload="init(evt)">
<style type="text/css"><![CDATA[
.node, .edge {opacity: 0.7;}
.node.selected, .edge.selected {opacity: 1;}
.edge:hover path { stroke: red; }
.edge:hover polygon { stroke: red; fill: red; }
]]></style>

<defs>
  <circle id="rim" cx="0" cy="0" r="7"/>
  <circle id="rim2" cx="0" cy="0" r="3.5"/>
  <g id="zoomPlus">
    <use xlink:href="#rim" fill="#404040"><set attributeName="fill" to="#808080" begin="zoomplus.mouseover" end="zoomplus.mouseout"/></use>
    <path d="M-4,0h8M0,-4v8" fill="none" stroke="white" stroke-width="1.5" pointer-events="none"/>
  </g>
  <g id="zoomMin">
    <use xlink:href="#rim" fill="#404040"><set attributeName="fill" to="#808080" begin="zoomminus.mouseover" end="zoomminus.mouseout"/></use>
    <path d="M-4,0h8" fill="none" stroke="white" stroke-width="1.5" pointer-events="none"/>
  </g>
  <g id="arrowUp" transform="translate(30 24)">
    <use xlink:href="#rim"/>
    <path pointer-events="none" fill="none" stroke="white" stroke-width="1.5" d="M0,-3.0v7 M-2.5,-0.5L0,-3.0L2.5,-0.5"/>
  </g>
  <g id="arrowRight" transform="rotate(90) translate(36 -43)">
    <use xlink:href="#rim"/>
    <path pointer-events="none" fill="none" stroke="white" stroke-width="1.5" d="M0,-3.0v7 M-2.5,-0.5L0,-3.0L2.5,-0.5"/>
  </g>
  <g id="arrowDown" transform="rotate(180) translate(-30 -48)">
    <use xlink:href="#rim"/>
    <path pointer-events="none" fill="none" stroke="white" stroke-width="1.5" d="M0,-3.0v7 M-2.5,-0.5L0,-3.0L2.5,-0.5"/>
  </g>
  <g id="arrowLeft" transform="rotate(270) translate(-36 17)">
    <use xlink:href="#rim"/>
    <path pointer-events="none" fill="none" stroke="white" stroke-width="1.5" d="M0,-3.0v7 M-2.5,-0.5L0,-3.0L2.5,-0.5"/>
  </g>
  <g id="resetDef">
    <use xlink:href="#rim2" fill="#404040"><set attributeName="fill" to="#808080" begin="reset.mouseover" end="reset.mouseout"/></use>
  </g>
</defs>
<script type="application/ecmascript">
var viewWidth = 821;
var viewHeight = 643;
var sectionId = 'dynsection-1';
</script>
<script type="application/ecmascript" xlink:href="svg.min.js"/>
<svg id="graph" class="graph">
<g id="viewport">
<title>/home/runner/work/Weaver/Weaver/include/App/Model/IBM/Landscape/Map/TerrainCells/TerrainCell.h</title>
<!-- Node1 -->
<g id="Node000001" class="node">
<title>Node1</title>
<g id="a_Node000001"><a xlink:title="Defines the TerrainCell class representing a cell in the landscape.">
<polygon fill="#999999" stroke="#666666" points="548,-635 371,-635 371,-583 548,-583 548,-635"/>
<text text-anchor="start" x="379" y="-623" font-family="Helvetica,sans-Serif" font-size="10.00">/home/runner/work/Weaver</text>
<text text-anchor="start" x="379" y="-612" font-family="Helvetica,sans-Serif" font-size="10.00">/Weaver/include/App/Model</text>
<text text-anchor="start" x="379" y="-601" font-family="Helvetica,sans-Serif" font-size="10.00">/IBM/Landscape/Map/TerrainCells</text>
<text text-anchor="middle" x="459.5" y="-590" font-family="Helvetica,sans-Serif" font-size="10.00">/TerrainCell.h</text>
</a>
</g>
</g>
<!-- Node2 -->
<g id="Node000002" class="node">
<title>Node2</title>
<g id="a_Node000002"><a xlink:href="Landscape_8h.html" target="_top" xlink:title="Doxygen&#45;documented declaration of the Landscape class and related serialization helpers.">
<polygon fill="white" stroke="#666666" points="452,-118 295,-118 295,-77 452,-77 452,-118"/>
<text text-anchor="start" x="303" y="-106" font-family="Helvetica,sans-Serif" font-size="10.00">/home/runner/work/Weaver</text>
<text text-anchor="start" x="303" y="-95" font-family="Helvetica,sans-Serif" font-size="10.00">/Weaver/include/App/Model</text>
<text text-anchor="middle" x="373.5" y="-84" font-family="Helvetica,sans-Serif" font-size="10.00">/IBM/Landscape/Landscape.h</text>
</a>
</g>
</g>
<!-- Node1&#45;&gt;Node2 -->
<g id="edge1_Node000001_Node000002" class="edge">
<title>Node1&#45;&gt;Node2</title>
<g id="a_edge1_Node000001_Node000002"><a xlink:title=" ">
<path fill="none" stroke="#63b8ff" d="M394.71,-578C343.12,-549.15 279.5,-500.15 279.5,-434 279.5,-434 279.5,-434 279.5,-256 279.5,-199.64 324.44,-145.92 352.17,-118.14"/>
<polygon fill="#63b8ff" stroke="#63b8ff" points="393.08,-581.1 403.53,-582.81 396.43,-574.95 393.08,-581.1"/>
</a>
</g>
</g>
<!-- Node7 -->
<g id="Node000007" class="node">
<title>Node7</title>
<g id="a_Node000007"><a xlink:href="Map_8h.html" target="_top" xlink:title="Defines the Map class for spatial organization of landscapes.">
<polygon fill="white" stroke="#666666" points="457.5,-277.5 307.5,-277.5 307.5,-236.5 457.5,-236.5 457.5,-277.5"/>
<text text-anchor="start" x="315.5" y="-265.5" font-family="Helvetica,sans-Serif" font-size="10.00">/home/runner/work/Weaver</text>
<text text-anchor="start" x="315.5" y="-254.5" font-family="Helvetica,sans-Serif" font-size="10.00">/Weaver/include/App/Model</text>
<text text-anchor="middle" x="382.5" y="-243.5" font-family="Helvetica,sans-Serif" font-size="10.00">/IBM/Landscape/Map/Map.h</text>
</a>
</g>
</g>
<!-- Node1&#45;&gt;Node7 -->
<g id="edge6_Node000001_Node000007" class="edge">
<title>Node1&#45;&gt;Node7</title>
<g id="a_edge6_Node000001_Node000007"><a xlink:title=" ">
<path fill="none" stroke="#63b8ff" d="M451.75,-572.76C435.7,-499.84 399.31,-334.42 386.81,-277.6"/>
<polygon fill="#63b8ff" stroke="#63b8ff" points="448.4,-573.81 453.96,-582.83 455.23,-572.31 448.4,-573.81"/>
</a>
</g>
</g>
<!-- Node8 -->
<g id="Node000008" class="node">
<title>Node8</title>
<g id="a_Node000008"><a xlink:href="SpatialTree_8h.html" target="_top" xlink:title="Defines the SpatialTree class, a spatially subdivided map implementation.">
<polygon fill="white" stroke="#666666" points="585,-195 402,-195 402,-154 585,-154 585,-195"/>
<text text-anchor="start" x="410" y="-183" font-family="Helvetica,sans-Serif" font-size="10.00">/home/runner/work/Weaver</text>
<text text-anchor="start" x="410" y="-172" font-family="Helvetica,sans-Serif" font-size="10.00">/Weaver/include/App/Model</text>
<text text-anchor="middle" x="493.5" y="-161" font-family="Helvetica,sans-Serif" font-size="10.00">/IBM/Landscape/Map/SpatialTree.h</text>
</a>
</g>
</g>
<!-- Node1&#45;&gt;Node8 -->
<g id="edge10_Node000001_Node000008" class="edge">
<title>Node1&#45;&gt;Node8</title>
<g id="a_edge10_Node000001_Node000008"><a xlink:title=" ">
<path fill="none" stroke="#63b8ff" d="M467.93,-572.64C475.52,-537.64 485.5,-482.44 485.5,-434 485.5,-434 485.5,-434 485.5,-344 485.5,-290.11 489.63,-226.64 491.96,-195.2"/>
<polygon fill="#63b8ff" stroke="#63b8ff" points="464.42,-572.3 465.66,-582.82 471.25,-573.82 464.42,-572.3"/>
</a>
</g>
</g>
<!-- Node9 -->
<g id="Node000009" class="node">
<title>Node9</title>
<g id="a_Node000009"><a xlink:href="SpatialTreeTerrainCell_8h.html" target="_top" xlink:title="Spatial tree implementation of a terrain cell.">
<polygon fill="white" stroke="#666666" points="707.5,-547 513.5,-547 513.5,-495 707.5,-495 707.5,-547"/>
<text text-anchor="start" x="521.5" y="-535" font-family="Helvetica,sans-Serif" font-size="10.00">/home/runner/work/Weaver</text>
<text text-anchor="start" x="521.5" y="-524" font-family="Helvetica,sans-Serif" font-size="10.00">/Weaver/include/App/Model</text>
<text text-anchor="start" x="521.5" y="-513" font-family="Helvetica,sans-Serif" font-size="10.00">/IBM/Landscape/Map/SpatialTree</text>
<text text-anchor="middle" x="610.5" y="-502" font-family="Helvetica,sans-Serif" font-size="10.00">/TerrainCells/SpatialTreeTerrainCell.h</text>
</a>
</g>
</g>
<!-- Node1&#45;&gt;Node9 -->
<g id="edge11_Node000001_Node000009" class="edge">
<title>Node1&#45;&gt;Node9</title>
<g id="a_edge11_Node000001_Node000009"><a xlink:title=" ">
<path fill="none" stroke="#63b8ff" d="M512.59,-577.76C530.17,-567.75 549.53,-556.72 566.36,-547.14"/>
<polygon fill="#63b8ff" stroke="#63b8ff" points="510.54,-574.9 503.58,-582.89 514,-580.99 510.54,-574.9"/>
</a>
</g>
</g>
<!-- Node3 -->
<g id="Node000003" class="node">
<title>Node3</title>
<g id="a_Node000003"><a xlink:href="IBM_8h.html" target="_top" xlink:title="Definition of the IBM class, representing the core individual&#45;based model of the simulation.">
<polygon fill="white" stroke="#666666" points="149,-41 0,-41 0,0 149,0 149,-41"/>
<text text-anchor="start" x="8" y="-29" font-family="Helvetica,sans-Serif" font-size="10.00">/home/runner/work/Weaver</text>
<text text-anchor="start" x="8" y="-18" font-family="Helvetica,sans-Serif" font-size="10.00">/Weaver/include/App/Model</text>
<text text-anchor="middle" x="74.5" y="-7" font-family="Helvetica,sans-Serif" font-size="10.00">/IBM/IBM.h</text>
</a>
</g>
</g>
<!-- Node2&#45;&gt;Node3 -->
<g id="edge2_Node000002_Node000003" class="edge">
<title>Node2&#45;&gt;Node3</title>
<g id="a_edge2_Node000002_Node000003"><a xlink:title=" ">
<path fill="none" stroke="#63b8ff" d="M286.02,-74.56C242.56,-63.65 190.6,-50.62 149.05,-40.2"/>
<polygon fill="#63b8ff" stroke="#63b8ff" points="285.17,-77.95 295.72,-76.99 286.87,-71.16 285.17,-77.95"/>
</a>
</g>
</g>
<!-- Node4 -->
<g id="Node000004" class="node">
<title>Node4</title>
<g id="a_Node000004"><a xlink:href="AquaticLandscape_8h.html" target="_top" xlink:title="Defines the AquaticLandscape class for aquatic ecosystem simulations.">
<polygon fill="white" stroke="#666666" points="360.5,-41 166.5,-41 166.5,0 360.5,0 360.5,-41"/>
<text text-anchor="start" x="174.5" y="-29" font-family="Helvetica,sans-Serif" font-size="10.00">/home/runner/work/Weaver</text>
<text text-anchor="start" x="174.5" y="-18" font-family="Helvetica,sans-Serif" font-size="10.00">/Weaver/include/App/Model</text>
<text text-anchor="middle" x="263.5" y="-7" font-family="Helvetica,sans-Serif" font-size="10.00">/IBM/Landscape/AquaticLandscape.h</text>
</a>
</g>
</g>
<!-- Node2&#45;&gt;Node4 -->
<g id="edge3_Node000002_Node000004" class="edge">
<title>Node2&#45;&gt;Node4</title>
<g id="a_edge3_Node000002_Node000004"><a xlink:title=" ">
<path fill="none" stroke="#63b8ff" d="M336.24,-71.09C321.9,-61.32 305.78,-50.32 292.35,-41.17"/>
<polygon fill="#63b8ff" stroke="#63b8ff" points="334.65,-74.25 344.89,-76.99 338.6,-68.47 334.65,-74.25"/>
</a>
</g>
</g>
<!-- Node5 -->
<g id="Node000005" class="node">
<title>Node5</title>
<g id="a_Node000005"><a xlink:href="ArthropodsLandscape_8h.html" target="_top" xlink:title="Defines the ArthropodsLandscape class for arthropod&#45;specific ecosystem simulations.">
<polygon fill="white" stroke="#666666" points="588.5,-41 378.5,-41 378.5,0 588.5,0 588.5,-41"/>
<text text-anchor="start" x="386.5" y="-29" font-family="Helvetica,sans-Serif" font-size="10.00">/home/runner/work/Weaver</text>
<text text-anchor="start" x="386.5" y="-18" font-family="Helvetica,sans-Serif" font-size="10.00">/Weaver/include/App/Model</text>
<text text-anchor="middle" x="483.5" y="-7" font-family="Helvetica,sans-Serif" font-size="10.00">/IBM/Landscape/ArthropodsLandscape.h</text>
</a>
</g>
</g>
<!-- Node2&#45;&gt;Node5 -->
<g id="edge4_Node000002_Node000005" class="edge">
<title>Node2&#45;&gt;Node5</title>
<g id="a_edge4_Node000002_Node000005"><a xlink:title=" ">
<path fill="none" stroke="#63b8ff" d="M410.76,-71.09C425.1,-61.32 441.22,-50.32 454.65,-41.17"/>
<polygon fill="#63b8ff" stroke="#63b8ff" points="408.4,-68.47 402.11,-76.99 412.35,-74.25 408.4,-68.47"/>
</a>
</g>
</g>
<!-- Node6 -->
<g id="Node000006" class="node">
<title>Node6</title>
<g id="a_Node000006"><a xlink:href="DinosaursLandscape_8h.html" target="_top" xlink:title="Defines the DinosaursLandscape class for dinosaur&#45;specific ecosystem simulations.">
<polygon fill="white" stroke="#666666" points="812.5,-41 606.5,-41 606.5,0 812.5,0 812.5,-41"/>
<text text-anchor="start" x="614.5" y="-29" font-family="Helvetica,sans-Serif" font-size="10.00">/home/runner/work/Weaver</text>
<text text-anchor="start" x="614.5" y="-18" font-family="Helvetica,sans-Serif" font-size="10.00">/Weaver/include/App/Model</text>
<text text-anchor="middle" x="709.5" y="-7" font-family="Helvetica,sans-Serif" font-size="10.00">/IBM/Landscape/DinosaursLandscape.h</text>
</a>
</g>
</g>
<!-- Node2&#45;&gt;Node6 -->
<g id="edge5_Node000002_Node000006" class="edge">
<title>Node2&#45;&gt;Node6</title>
<g id="a_edge5_Node000002_Node000006"><a xlink:title=" ">
<path fill="none" stroke="#63b8ff" d="M462.31,-76.68C511.69,-65.66 572.9,-51.99 622.06,-41.02"/>
<polygon fill="#63b8ff" stroke="#63b8ff" points="461.27,-73.32 452.28,-78.92 462.8,-80.15 461.27,-73.32"/>
</a>
</g>
</g>
<!-- Node7&#45;&gt;Node2 -->
<g id="edge7_Node000007_Node000002" class="edge">
<title>Node7&#45;&gt;Node2</title>
<g id="a_edge7_Node000007_Node000002"><a xlink:title=" ">
<path fill="none" stroke="#63b8ff" d="M380.78,-225.97C378.98,-194.37 376.19,-145.51 374.64,-118.38"/>
<polygon fill="#63b8ff" stroke="#63b8ff" points="377.31,-226.59 381.38,-236.37 384.3,-226.19 377.31,-226.59"/>
</a>
</g>
</g>
<!-- Node7&#45;&gt;Node8 -->
<g id="edge8_Node000007_Node000008" class="edge">
<title>Node7&#45;&gt;Node8</title>
<g id="a_edge8_Node000007_Node000008"><a xlink:title=" ">
<path fill="none" stroke="#63b8ff" d="M418.04,-230.22C433.66,-218.9 451.71,-205.81 466.24,-195.27"/>
<polygon fill="#63b8ff" stroke="#63b8ff" points="415.69,-227.6 409.65,-236.31 419.8,-233.27 415.69,-227.6"/>
</a>
</g>
</g>
<!-- Node8&#45;&gt;Node2 -->
<g id="edge9_Node000008_Node000002" class="edge">
<title>Node8&#45;&gt;Node2</title>
<g id="a_edge9_Node000008_Node000002"><a xlink:title=" ">
<path fill="none" stroke="#63b8ff" d="M453.73,-148.64C437.88,-138.74 419.89,-127.5 404.98,-118.17"/>
<polygon fill="#63b8ff" stroke="#63b8ff" points="451.95,-151.66 462.28,-153.99 455.66,-145.72 451.95,-151.66"/>
</a>
</g>
</g>
<!-- Node9&#45;&gt;Node8 -->
<g id="edge12_Node000009_Node000008" class="edge">
<title>Node9&#45;&gt;Node8</title>
<g id="a_edge12_Node000009_Node000008"><a xlink:title=" ">
<path fill="none" stroke="#63b8ff" d="M592.64,-485.63C577.71,-455.9 556.66,-411.44 542.5,-371 520.53,-308.25 504.18,-230.96 497.21,-195.27"/>
<polygon fill="#63b8ff" stroke="#63b8ff" points="589.61,-487.4 597.25,-494.75 595.86,-484.24 589.61,-487.4"/>
</a>
</g>
</g>
<!-- Node10 -->
<g id="Node000010" class="node">
<title>Node10</title>
<g id="a_Node000010"><a xlink:href="BranchTerrainCell_8h.html" target="_top" xlink:title="Branch node implementation of a spatial tree terrain cell.">
<polygon fill="white" stroke="#666666" points="725.5,-371 551.5,-371 551.5,-319 725.5,-319 725.5,-371"/>
<text text-anchor="start" x="559.5" y="-359" font-family="Helvetica,sans-Serif" font-size="10.00">/home/runner/work/Weaver</text>
<text text-anchor="start" x="559.5" y="-348" font-family="Helvetica,sans-Serif" font-size="10.00">/Weaver/include/App/Model</text>
<text text-anchor="start" x="559.5" y="-337" font-family="Helvetica,sans-Serif" font-size="10.00">/IBM/Landscape/Map/SpatialTree</text>
<text text-anchor="middle" x="638.5" y="-326" font-family="Helvetica,sans-Serif" font-size="10.00">/TerrainCells/BranchTerrainCell.h</text>
</a>
</g>
</g>
<!-- Node9&#45;&gt;Node10 -->
<g id="edge13_Node000009_Node000010" class="edge">
<title>Node9&#45;&gt;Node10</title>
<g id="a_edge13_Node000009_Node000010"><a xlink:title=" ">
<path fill="none" stroke="#63b8ff" d="M603.76,-484.75C600.71,-462.19 599.05,-432.47 605.5,-407 608.66,-394.51 614.95,-381.8 621.19,-371.25"/>
<polygon fill="#63b8ff" stroke="#63b8ff" points="600.34,-485.52 605.29,-494.89 607.26,-484.48 600.34,-485.52"/>
</a>
</g>
</g>
<!-- Node12 -->
<g id="Node000012" class="node">
<title>Node12</title>
<g id="a_Node000012"><a xlink:href="LeafTerrainCell_8h.html" target="_top" xlink:title="Leaf node implementation of a spatial tree terrain cell.">
<polygon fill="white" stroke="#666666" points="788.5,-459 614.5,-459 614.5,-407 788.5,-407 788.5,-459"/>
<text text-anchor="start" x="622.5" y="-447" font-family="Helvetica,sans-Serif" font-size="10.00">/home/runner/work/Weaver</text>
<text text-anchor="start" x="622.5" y="-436" font-family="Helvetica,sans-Serif" font-size="10.00">/Weaver/include/App/Model</text>
<text text-anchor="start" x="622.5" y="-425" font-family="Helvetica,sans-Serif" font-size="10.00">/IBM/Landscape/Map/SpatialTree</text>
<text text-anchor="middle" x="701.5" y="-414" font-family="Helvetica,sans-Serif" font-size="10.00">/TerrainCells/LeafTerrainCell.h</text>
</a>
</g>
</g>
<!-- Node9&#45;&gt;Node12 -->
<g id="edge16_Node000009_Node000012" class="edge">
<title>Node9&#45;&gt;Node12</title>
<g id="a_edge16_Node000009_Node000012"><a xlink:title=" ">
<path fill="none" stroke="#63b8ff" d="M644.75,-487.63C654.72,-478.21 665.46,-468.06 674.88,-459.16"/>
<polygon fill="#63b8ff" stroke="#63b8ff" points="642.17,-485.25 637.31,-494.66 646.98,-490.34 642.17,-485.25"/>
</a>
</g>
</g>
<!-- Node11 -->
<g id="Node000011" class="node">
<title>Node11</title>
<g id="a_Node000011"><a xlink:href="RootTerrainCell_8h.html" target="_top" xlink:title="Defines the RootTerrainCell class, the top&#45;level node of the spatial tree in the landscape.">
<polygon fill="white" stroke="#666666" points="725.5,-283 551.5,-283 551.5,-231 725.5,-231 725.5,-283"/>
<text text-anchor="start" x="559.5" y="-271" font-family="Helvetica,sans-Serif" font-size="10.00">/home/runner/work/Weaver</text>
<text text-anchor="start" x="559.5" y="-260" font-family="Helvetica,sans-Serif" font-size="10.00">/Weaver/include/App/Model</text>
<text text-anchor="start" x="559.5" y="-249" font-family="Helvetica,sans-Serif" font-size="10.00">/IBM/Landscape/Map/SpatialTree</text>
<text text-anchor="middle" x="638.5" y="-238" font-family="Helvetica,sans-Serif" font-size="10.00">/TerrainCells/RootTerrainCell.h</text>
</a>
</g>
</g>
<!-- Node10&#45;&gt;Node11 -->
<g id="edge14_Node000010_Node000011" class="edge">
<title>Node10&#45;&gt;Node11</title>
<g id="a_edge14_Node000010_Node000011"><a xlink:title=" ">
<path fill="none" stroke="#63b8ff" d="M638.5,-308.56C638.5,-300.04 638.5,-291.1 638.5,-283.16"/>
<polygon fill="#63b8ff" stroke="#63b8ff" points="635,-308.66 638.5,-318.66 642,-308.66 635,-308.66"/>
</a>
</g>
</g>
<!-- Node11&#45;&gt;Node8 -->
<g id="edge15_Node000011_Node000008" class="edge">
<title>Node11&#45;&gt;Node8</title>
<g id="a_edge15_Node000011_Node000008"><a xlink:title=" ">
<path fill="none" stroke="#63b8ff" d="M584.46,-226C565.89,-215.69 545.59,-204.42 528.89,-195.15"/>
<polygon fill="#63b8ff" stroke="#63b8ff" points="582.97,-229.18 593.42,-230.97 586.37,-223.06 582.97,-229.18"/>
</a>
</g>
</g>
<!-- Node12&#45;&gt;Node10 -->
<g id="edge17_Node000012_Node000010" class="edge">
<title>Node12&#45;&gt;Node10</title>
<g id="a_edge17_Node000012_Node000010"><a xlink:title=" ">
<path fill="none" stroke="#63b8ff" d="M676.97,-398.52C670.31,-389.42 663.2,-379.71 656.93,-371.16"/>
<polygon fill="#63b8ff" stroke="#63b8ff" points="674.21,-400.66 682.94,-406.66 679.85,-396.53 674.21,-400.66"/>
</a>
</g>
</g>
</g>
</svg>

<g id="navigator" transform="translate(0 0)" fill="#404254">
  <rect fill="#f2f5e9" fill-opacity="0.5" stroke="#606060" stroke-width=".5" x="0" y="0" width="60" height="60"/>
  <use id="zoomplus" xlink:href="#zoomPlus" x="17" y="9" onmousedown="handleZoom(evt,'in')"/>
  <use id="zoomminus" xlink:href="#zoomMin" x="42" y="9" onmousedown="handleZoom(evt,'out')"/>
  <use id="reset" xlink:href="#resetDef" x="30" y="36" onmousedown="handleReset()"/>
   <use id="arrowup" xlink:href="#arrowUp" x="0" y="0" onmousedown="handlePan(0,-1)"/>
  <use id="arrowright" xlink:href="#arrowRight" x="0" y="0" onmousedown="handlePan(1,0)"/>
  <use id="arrowdown" xlink:href="#arrowDown" x="0" y="0" onmousedown="handlePan(0,1)"/>
  <use id="arrowleft" xlink:href="#arrowLeft" x="0" y="0" onmousedown="handlePan(-1,0)"/>
</g>
<svg viewBox="0 0 15 15" width="100%" height="30px" preserveAspectRatio="xMaxYMin meet">
 <g id="arrow_out" transform="scale(0.3 0.3)">
  <a xlink:href="TerrainCell_8h__dep__incl_org.svg" target="_base">
   <rect id="button" ry="5" rx="5" y="6" x="6" height="38" width="38"
        fill="#f2f5e9" fill-opacity="0.5" stroke="#606060" stroke-width="1.0"/>
   <path id="arrow"
     d="M 11.500037,31.436501 C 11.940474,20.09759 22.043105,11.32322 32.158766,21.979434 L 37.068811,17.246167 C 37.068811,17.246167 37.088388,32 37.088388,32 L 22.160133,31.978069 C 22.160133,31.978069 26.997745,27.140456 26.997745,27.140456 C 18.528582,18.264221 13.291696,25.230495 11.500037,31.436501 z"
     style="fill:#404040;"/>
  </a>
 </g>
</svg>

<style type='text/css'>
<![CDATA[
[data-mouse-over-selected='false'] { opacity: 0.7; }
[data-mouse-over-selected='true']  { opacity: 1.0; }
]]>
</style>
<script type="application/ecmascript"><![CDATA[
document.addEventListener('DOMContentLoaded', (event) => {
  highlightEdges();
  highlightAdjacentNodes();
});
]]></script>
</svg>
