<?xml version="1.0" encoding="UTF-8" standalone="no"?>
<!DOCTYPE svg PUBLIC "-//W3C//DTD SVG 1.1//EN"
 "http://www.w3.org/Graphics/SVG/1.1/DTD/svg11.dtd">
<!-- Generated by graphviz version 2.43.0 (0)
 -->
<!-- Title: EdibleGrowth Pages: 1 -->
<svg width="438pt" height="170pt"
 viewBox="0.00 0.00 438.00 170.00" xmlns="http://www.w3.org/2000/svg" xmlns:xlink="http://www.w3.org/1999/xlink">
<g id="graph0" class="graph" transform="scale(1 1) rotate(0) translate(4 166)">
<title>EdibleGrowth</title>
<!-- Node1 -->
<g id="Node000001" class="node">
<title>Node1</title>
<g id="a_Node000001"><a xlink:title="Represents the growth characteristics and current biomasses of an edible object.">
<polygon fill="#999999" stroke="#666666" points="204,-19 122,-19 122,0 204,0 204,-19"/>
<text text-anchor="middle" x="163" y="-7" font-family="Helvetica,sans-Serif" font-size="10.00">EdibleGrowth</text>
</a>
</g>
</g>
<!-- Node2 -->
<g id="Node000002" class="node">
<title>Node2</title>
<g id="a_Node000002"><a xlink:href="classInstar.html" target="_top" xlink:title="Represents a developmental stage (instar) of an animal in the simulation.">
<polygon fill="white" stroke="#666666" points="44,-156.5 0,-156.5 0,-137.5 44,-137.5 44,-156.5"/>
<text text-anchor="middle" x="22" y="-144.5" font-family="Helvetica,sans-Serif" font-size="10.00">Instar</text>
</a>
</g>
</g>
<!-- Node2&#45;&gt;Node1 -->
<g id="edge1_Node000001_Node000002" class="edge">
<title>Node2&#45;&gt;Node1</title>
<g id="a_edge1_Node000001_Node000002"><a xlink:title=" ">
<path fill="none" stroke="#9a32cd" stroke-dasharray="5,2" d="M19.09,-127.14C17.45,-109.57 17.88,-83.53 31,-66 52.52,-37.24 91.8,-23.26 121.94,-16.55"/>
<polygon fill="#9a32cd" stroke="#9a32cd" points="15.64,-127.79 20.35,-137.28 22.59,-126.92 15.64,-127.79"/>
</a>
</g>
<text text-anchor="middle" x="46.5" y="-73" font-family="Helvetica,sans-Serif" font-size="10.00" fill="grey"> instar</text>
</g>
<!-- Node3 -->
<g id="Node000003" class="node">
<title>Node3</title>
<g id="a_Node000003"><a xlink:href="classSpeciesGrowth.html" target="_top" xlink:title="Represents the growth characteristics of a species across its instars.">
<polygon fill="white" stroke="#666666" points="160.5,-85 71.5,-85 71.5,-66 160.5,-66 160.5,-85"/>
<text text-anchor="middle" x="116" y="-73" font-family="Helvetica,sans-Serif" font-size="10.00">SpeciesGrowth</text>
</a>
</g>
</g>
<!-- Node2&#45;&gt;Node3 -->
<g id="edge3_Node000003_Node000002" class="edge">
<title>Node2&#45;&gt;Node3</title>
<g id="a_edge3_Node000003_Node000002"><a xlink:title=" ">
<path fill="none" stroke="#9a32cd" stroke-dasharray="5,2" d="M38.29,-130.32C47.53,-121.79 59.51,-111.31 71,-103 80.11,-96.41 90.95,-89.99 99.71,-85.12"/>
<polygon fill="#9a32cd" stroke="#9a32cd" points="35.85,-127.81 30.96,-137.21 40.64,-132.91 35.85,-127.81"/>
</a>
</g>
<text text-anchor="middle" x="95.5" y="-106" font-family="Helvetica,sans-Serif" font-size="10.00" fill="grey"> lastInstar</text>
</g>
<!-- Node3&#45;&gt;Node1 -->
<g id="edge2_Node000001_Node000003" class="edge">
<title>Node3&#45;&gt;Node1</title>
<g id="a_edge2_Node000001_Node000003"><a xlink:title=" ">
<path fill="none" stroke="#9a32cd" stroke-dasharray="5,2" d="M111.65,-55.93C111.12,-49.55 111.69,-42.61 115,-37 119.79,-28.88 128.05,-23.08 136.39,-19.02"/>
<polygon fill="#9a32cd" stroke="#9a32cd" points="108.2,-56.52 113.3,-65.81 115.1,-55.37 108.2,-56.52"/>
</a>
</g>
<text text-anchor="middle" x="153" y="-40" font-family="Helvetica,sans-Serif" font-size="10.00" fill="grey"> speciesGrowth</text>
</g>
<!-- Node4 -->
<g id="Node000004" class="node">
<title>Node4</title>
<g id="a_Node000004"><a xlink:href="classCustomIndexedVector.html" target="_top" xlink:title=" ">
<polygon fill="white" stroke="#666666" points="205.5,-162 62.5,-162 62.5,-132 205.5,-132 205.5,-162"/>
<text text-anchor="start" x="70.5" y="-150" font-family="Helvetica,sans-Serif" font-size="10.00">CustomIndexedVector</text>
<text text-anchor="middle" x="134" y="-139" font-family="Helvetica,sans-Serif" font-size="10.00">&lt; Instar, PreciseDouble &gt;</text>
</a>
</g>
</g>
<!-- Node4&#45;&gt;Node3 -->
<g id="edge4_Node000003_Node000004" class="edge">
<title>Node4&#45;&gt;Node3</title>
<g id="a_edge4_Node000003_Node000004"><a xlink:title=" ">
<path fill="none" stroke="#9a32cd" stroke-dasharray="5,2" d="M127.77,-121.94C124.48,-109.24 120.65,-94.44 118.27,-85.27"/>
<polygon fill="#9a32cd" stroke="#9a32cd" points="124.46,-123.13 130.36,-131.94 131.24,-121.38 124.46,-123.13"/>
</a>
</g>
<text text-anchor="middle" x="182" y="-106" font-family="Helvetica,sans-Serif" font-size="10.00" fill="grey"> conversionToWetMass</text>
</g>
<!-- Node5 -->
<g id="Node000005" class="node">
<title>Node5</title>
<g id="a_Node000005"><a xlink:href="classDryMass.html" target="_top" xlink:title="Represents dry mass in the ecosystem simulation.">
<polygon fill="white" stroke="#666666" points="265.5,-85 206.5,-85 206.5,-66 265.5,-66 265.5,-85"/>
<text text-anchor="middle" x="236" y="-73" font-family="Helvetica,sans-Serif" font-size="10.00">DryMass</text>
</a>
</g>
</g>
<!-- Node5&#45;&gt;Node1 -->
<g id="edge5_Node000001_Node000005" class="edge">
<title>Node5&#45;&gt;Node1</title>
<g id="a_edge5_Node000001_Node000005"><a xlink:title=" ">
<path fill="none" stroke="#9a32cd" stroke-dasharray="5,2" d="M218.52,-59.18C204.36,-46.76 184.88,-29.68 173.16,-19.41"/>
<polygon fill="#9a32cd" stroke="#9a32cd" points="216.33,-61.91 226.15,-65.87 220.94,-56.64 216.33,-61.91"/>
</a>
</g>
<text text-anchor="middle" x="256" y="-40" font-family="Helvetica,sans-Serif" font-size="10.00" fill="grey"> currentTotalDryMass</text>
</g>
<!-- Node6 -->
<g id="Node000006" class="node">
<title>Node6</title>
<g id="a_Node000006"><a xlink:href="classPreciseDouble.html" target="_top" xlink:title="Class for precise double&#45;precision floating&#45;point arithmetic.">
<polygon fill="white" stroke="#666666" points="348,-156.5 262,-156.5 262,-137.5 348,-137.5 348,-156.5"/>
<text text-anchor="middle" x="305" y="-144.5" font-family="Helvetica,sans-Serif" font-size="10.00">PreciseDouble</text>
</a>
</g>
</g>
<!-- Node6&#45;&gt;Node5 -->
<g id="edge6_Node000005_Node000006" class="edge">
<title>Node6&#45;&gt;Node5</title>
<g id="a_edge6_Node000005_Node000006"><a xlink:title=" ">
<path fill="none" stroke="#9a32cd" stroke-dasharray="5,2" d="M289.14,-130.03C275.26,-116.05 255.64,-96.28 244.53,-85.09"/>
<polygon fill="#9a32cd" stroke="#9a32cd" points="287.01,-132.85 296.54,-137.48 291.98,-127.92 287.01,-132.85"/>
</a>
</g>
<text text-anchor="middle" x="288.5" y="-106" font-family="Helvetica,sans-Serif" font-size="10.00" fill="grey"> value</text>
</g>
<!-- Node7 -->
<g id="Node000007" class="node">
<title>Node7</title>
<g id="a_Node000007"><a xlink:href="classWetMass.html" target="_top" xlink:title="Represents wet mass in the ecosystem simulation.">
<polygon fill="white" stroke="#666666" points="368.5,-85 307.5,-85 307.5,-66 368.5,-66 368.5,-85"/>
<text text-anchor="middle" x="338" y="-73" font-family="Helvetica,sans-Serif" font-size="10.00">WetMass</text>
</a>
</g>
</g>
<!-- Node6&#45;&gt;Node7 -->
<g id="edge8_Node000007_Node000006" class="edge">
<title>Node6&#45;&gt;Node7</title>
<g id="a_edge8_Node000007_Node000006"><a xlink:title=" ">
<path fill="none" stroke="#9a32cd" stroke-dasharray="5,2" d="M313.34,-128.43C319.92,-114.58 328.81,-95.86 333.92,-85.09"/>
<polygon fill="#9a32cd" stroke="#9a32cd" points="310.17,-126.94 309.05,-137.48 316.5,-129.95 310.17,-126.94"/>
</a>
</g>
<text text-anchor="middle" x="340.5" y="-106" font-family="Helvetica,sans-Serif" font-size="10.00" fill="grey"> value</text>
</g>
<!-- Node7&#45;&gt;Node1 -->
<g id="edge7_Node000001_Node000007" class="edge">
<title>Node7&#45;&gt;Node1</title>
<g id="a_edge7_Node000001_Node000007"><a xlink:title=" ">
<path fill="none" stroke="#9a32cd" stroke-dasharray="5,2" d="M329.59,-56.68C325.31,-49.48 319.43,-41.76 312,-37 294.53,-25.79 241.87,-18.33 204.11,-14.25"/>
<polygon fill="#9a32cd" stroke="#9a32cd" points="326.67,-58.63 334.43,-65.85 332.86,-55.37 326.67,-58.63"/>
</a>
</g>
<text text-anchor="middle" x="377" y="-40" font-family="Helvetica,sans-Serif" font-size="10.00" fill="grey"> currentTotalWetMass</text>
</g>
</g>
</svg>
