<?xml version="1.0" encoding="UTF-8" standalone="no"?>
<!DOCTYPE svg PUBLIC "-//W3C//DTD SVG 1.1//EN"
 "http://www.w3.org/Graphics/SVG/1.1/DTD/svg11.dtd">
<!-- Generated by graphviz version 2.43.0 (0)
 -->
<!-- Title: AnimalGrowth Pages: 1 -->
<svg width="316pt" height="137pt"
 viewBox="0.00 0.00 316.00 137.00" xmlns="http://www.w3.org/2000/svg" xmlns:xlink="http://www.w3.org/1999/xlink">
<g id="graph0" class="graph" transform="scale(1 1) rotate(0) translate(4 133)">
<title>AnimalGrowth</title>
<!-- Node1 -->
<g id="Node000001" class="node">
<title>Node1</title>
<g id="a_Node000001"><a xlink:title="Manages the growth and mass dynamics of an individual animal.">
<polygon fill="#999999" stroke="#666666" points="201.5,-74 115.5,-74 115.5,-55 201.5,-55 201.5,-74"/>
<text text-anchor="middle" x="158.5" y="-62" font-family="Helvetica,sans-Serif" font-size="10.00">AnimalGrowth</text>
</a>
</g>
</g>
<!-- Node3 -->
<g id="Node000003" class="node">
<title>Node3</title>
<g id="a_Node000003"><a xlink:href="classAnimalNonStatisticalGrowth.html" target="_top" xlink:title="Represents the growth dynamics of individual animals in a non&#45;statistical simulation.">
<polygon fill="white" stroke="#666666" points="155,-19 0,-19 0,0 155,0 155,-19"/>
<text text-anchor="middle" x="77.5" y="-7" font-family="Helvetica,sans-Serif" font-size="10.00">AnimalNonStatisticalGrowth</text>
</a>
</g>
</g>
<!-- Node1&#45;&gt;Node3 -->
<g id="edge2_Node000001_Node000003" class="edge">
<title>Node1&#45;&gt;Node3</title>
<g id="a_edge2_Node000001_Node000003"><a xlink:title=" ">
<path fill="none" stroke="#63b8ff" d="M136.99,-49.42C122.29,-39.81 103.28,-27.37 90.75,-19.17"/>
<polygon fill="#63b8ff" stroke="#63b8ff" points="135.2,-52.44 145.49,-54.98 139.03,-46.58 135.2,-52.44"/>
</a>
</g>
</g>
<!-- Node4 -->
<g id="Node000004" class="node">
<title>Node4</title>
<g id="a_Node000004"><a xlink:href="classAnimalStatisticalGrowth.html" target="_top" xlink:title="Represents an animal growth model based on statistical approaches.">
<polygon fill="white" stroke="#666666" points="308,-19 173,-19 173,0 308,0 308,-19"/>
<text text-anchor="middle" x="240.5" y="-7" font-family="Helvetica,sans-Serif" font-size="10.00">AnimalStatisticalGrowth</text>
</a>
</g>
</g>
<!-- Node1&#45;&gt;Node4 -->
<g id="edge3_Node000001_Node000004" class="edge">
<title>Node1&#45;&gt;Node4</title>
<g id="a_edge3_Node000001_Node000004"><a xlink:title=" ">
<path fill="none" stroke="#63b8ff" d="M180.28,-49.42C195.16,-39.81 214.41,-27.37 227.09,-19.17"/>
<polygon fill="#63b8ff" stroke="#63b8ff" points="178.17,-46.62 171.67,-54.98 181.97,-52.5 178.17,-46.62"/>
</a>
</g>
</g>
<!-- Node2 -->
<g id="Node000002" class="node">
<title>Node2</title>
<g id="a_Node000002"><a xlink:href="classEdibleGrowth.html" target="_top" xlink:title="Represents the growth characteristics and current biomasses of an edible object.">
<polygon fill="white" stroke="#666666" points="199.5,-129 117.5,-129 117.5,-110 199.5,-110 199.5,-129"/>
<text text-anchor="middle" x="158.5" y="-117" font-family="Helvetica,sans-Serif" font-size="10.00">EdibleGrowth</text>
</a>
</g>
</g>
<!-- Node2&#45;&gt;Node1 -->
<g id="edge1_Node000001_Node000002" class="edge">
<title>Node2&#45;&gt;Node1</title>
<g id="a_edge1_Node000001_Node000002"><a xlink:title=" ">
<path fill="none" stroke="#63b8ff" d="M158.5,-99.66C158.5,-90.93 158.5,-80.99 158.5,-74.09"/>
<polygon fill="#63b8ff" stroke="#63b8ff" points="155,-99.75 158.5,-109.75 162,-99.75 155,-99.75"/>
</a>
</g>
</g>
</g>
</svg>
