<?xml version="1.0" encoding="UTF-8" standalone="no"?>
<!DOCTYPE svg PUBLIC "-//W3C//DTD SVG 1.1//EN"
 "http://www.w3.org/Graphics/SVG/1.1/DTD/svg11.dtd">
<!-- Generated by graphviz version 2.43.0 (0)
 -->
<!-- Title: AnimalNonStatisticalGrowth Pages: 1 -->
<svg width="1168pt" height="588pt"
 viewBox="0.00 0.00 1168.00 587.50" xmlns="http://www.w3.org/2000/svg" xmlns:xlink="http://www.w3.org/1999/xlink">
<g id="graph0" class="graph" transform="scale(1 1) rotate(0) translate(4 583.5)">
<title>AnimalNonStatisticalGrowth</title>
<!-- Node1 -->
<g id="Node000001" class="node">
<title>Node1</title>
<g id="a_Node000001"><a xlink:title="Represents the growth dynamics of individual animals in a non&#45;statistical simulation.">
<polygon fill="#999999" stroke="#666666" points="1160,-131 1005,-131 1005,-112 1160,-112 1160,-131"/>
<text text-anchor="middle" x="1082.5" y="-119" font-family="Helvetica,sans-Serif" font-size="10.00">AnimalNonStatisticalGrowth</text>
</a>
</g>
</g>
<!-- Node2 -->
<g id="Node000002" class="node">
<title>Node2</title>
<g id="a_Node000002"><a xlink:href="classAnimalGrowth.html" target="_top" xlink:title="Manages the growth and mass dynamics of an individual animal.">
<polygon fill="white" stroke="#666666" points="949,-225 863,-225 863,-206 949,-206 949,-225"/>
<text text-anchor="middle" x="906" y="-213" font-family="Helvetica,sans-Serif" font-size="10.00">AnimalGrowth</text>
</a>
</g>
</g>
<!-- Node2&#45;&gt;Node1 -->
<g id="edge1_Node000001_Node000002" class="edge">
<title>Node2&#45;&gt;Node1</title>
<g id="a_edge1_Node000001_Node000002"><a xlink:title=" ">
<path fill="none" stroke="#63b8ff" d="M933.66,-201.14C969.71,-181.72 1033.03,-147.61 1063.76,-131.06"/>
<polygon fill="#63b8ff" stroke="#63b8ff" points="931.84,-198.15 924.69,-205.97 935.16,-204.31 931.84,-198.15"/>
</a>
</g>
</g>
<!-- Node3 -->
<g id="Node000003" class="node">
<title>Node3</title>
<g id="a_Node000003"><a xlink:href="classEdibleGrowth.html" target="_top" xlink:title="Represents the growth characteristics and current biomasses of an edible object.">
<polygon fill="white" stroke="#666666" points="643,-492 561,-492 561,-473 643,-473 643,-492"/>
<text text-anchor="middle" x="602" y="-480" font-family="Helvetica,sans-Serif" font-size="10.00">EdibleGrowth</text>
</a>
</g>
</g>
<!-- Node3&#45;&gt;Node2 -->
<g id="edge2_Node000002_Node000003" class="edge">
<title>Node3&#45;&gt;Node2</title>
<g id="a_edge2_Node000002_Node000003"><a xlink:title=" ">
<path fill="none" stroke="#63b8ff" d="M629.73,-496.56C675.1,-518.25 767.91,-553 826,-508.5 873.26,-472.3 898.65,-271.66 903.95,-225.14"/>
<polygon fill="#63b8ff" stroke="#63b8ff" points="631.06,-493.31 620.54,-492.03 627.96,-499.59 631.06,-493.31"/>
</a>
</g>
</g>
<!-- Node4 -->
<g id="Node000004" class="node">
<title>Node4</title>
<g id="a_Node000004"><a xlink:href="classInstar.html" target="_top" xlink:title="Represents a developmental stage (instar) of an animal in the simulation.">
<polygon fill="white" stroke="#666666" points="93.5,-504 49.5,-504 49.5,-485 93.5,-485 93.5,-504"/>
<text text-anchor="middle" x="71.5" y="-492" font-family="Helvetica,sans-Serif" font-size="10.00">Instar</text>
</a>
</g>
</g>
<!-- Node4&#45;&gt;Node3 -->
<g id="edge3_Node000003_Node000004" class="edge">
<title>Node4&#45;&gt;Node3</title>
<g id="a_edge3_Node000003_Node000004"><a xlink:title=" ">
<path fill="none" stroke="#9a32cd" stroke-dasharray="5,2" d="M103.75,-493.79C194.7,-491.73 459.2,-485.72 560.7,-483.42"/>
<polygon fill="#9a32cd" stroke="#9a32cd" points="103.46,-490.3 93.54,-494.02 103.62,-497.29 103.46,-490.3"/>
</a>
</g>
<text text-anchor="middle" x="335.5" y="-491.5" font-family="Helvetica,sans-Serif" font-size="10.00" fill="grey"> instar</text>
</g>
<!-- Node5 -->
<g id="Node000005" class="node">
<title>Node5</title>
<g id="a_Node000005"><a xlink:href="classSpeciesGrowth.html" target="_top" xlink:title="Represents the growth characteristics of a species across its instars.">
<polygon fill="white" stroke="#666666" points="380,-531 291,-531 291,-512 380,-512 380,-531"/>
<text text-anchor="middle" x="335.5" y="-519" font-family="Helvetica,sans-Serif" font-size="10.00">SpeciesGrowth</text>
</a>
</g>
</g>
<!-- Node4&#45;&gt;Node5 -->
<g id="edge5_Node000005_Node000004" class="edge">
<title>Node4&#45;&gt;Node5</title>
<g id="a_edge5_Node000005_Node000004"><a xlink:title=" ">
<path fill="none" stroke="#9a32cd" stroke-dasharray="5,2" d="M104.05,-497.75C150.67,-502.56 238.08,-511.56 290.82,-517"/>
<polygon fill="#9a32cd" stroke="#9a32cd" points="104.25,-494.25 93.94,-496.71 103.53,-501.22 104.25,-494.25"/>
</a>
</g>
<text text-anchor="middle" x="217" y="-517.5" font-family="Helvetica,sans-Serif" font-size="10.00" fill="grey"> lastInstar</text>
</g>
<!-- Node5&#45;&gt;Node3 -->
<g id="edge4_Node000003_Node000005" class="edge">
<title>Node5&#45;&gt;Node3</title>
<g id="a_edge4_Node000003_Node000005"><a xlink:title=" ">
<path fill="none" stroke="#9a32cd" stroke-dasharray="5,2" d="M390.45,-514.58C426.82,-509.81 475.85,-503.14 519,-496.5 532.56,-494.41 547.35,-491.95 560.59,-489.67"/>
<polygon fill="#9a32cd" stroke="#9a32cd" points="389.53,-511.17 380.07,-515.94 390.44,-518.12 389.53,-511.17"/>
</a>
</g>
<text text-anchor="middle" x="458.5" y="-515.5" font-family="Helvetica,sans-Serif" font-size="10.00" fill="grey"> speciesGrowth</text>
</g>
<!-- Node6 -->
<g id="Node000006" class="node">
<title>Node6</title>
<g id="a_Node000006"><a xlink:href="classCustomIndexedVector.html" target="_top" xlink:title=" ">
<polygon fill="white" stroke="#666666" points="143,-564.5 0,-564.5 0,-534.5 143,-534.5 143,-564.5"/>
<text text-anchor="start" x="8" y="-552.5" font-family="Helvetica,sans-Serif" font-size="10.00">CustomIndexedVector</text>
<text text-anchor="middle" x="71.5" y="-541.5" font-family="Helvetica,sans-Serif" font-size="10.00">&lt; Instar, PreciseDouble &gt;</text>
</a>
</g>
</g>
<!-- Node6&#45;&gt;Node5 -->
<g id="edge6_Node000005_Node000006" class="edge">
<title>Node6&#45;&gt;Node5</title>
<g id="a_edge6_Node000005_Node000006"><a xlink:title=" ">
<path fill="none" stroke="#9a32cd" stroke-dasharray="5,2" d="M153.19,-540.88C198.6,-536.02 253.53,-530.15 290.94,-526.15"/>
<polygon fill="#9a32cd" stroke="#9a32cd" points="152.63,-537.42 143.06,-541.96 153.37,-544.38 152.63,-537.42"/>
</a>
</g>
<text text-anchor="middle" x="217" y="-542.5" font-family="Helvetica,sans-Serif" font-size="10.00" fill="grey"> conversionToWetMass</text>
</g>
<!-- Node7 -->
<g id="Node000007" class="node">
<title>Node7</title>
<g id="a_Node000007"><a xlink:href="classDryMass.html" target="_top" xlink:title="Represents dry mass in the ecosystem simulation.">
<polygon fill="white" stroke="#666666" points="365,-381 306,-381 306,-362 365,-362 365,-381"/>
<text text-anchor="middle" x="335.5" y="-369" font-family="Helvetica,sans-Serif" font-size="10.00">DryMass</text>
</a>
</g>
</g>
<!-- Node7&#45;&gt;Node1 -->
<g id="edge21_Node000001_Node000007" class="edge">
<title>Node7&#45;&gt;Node1</title>
<g id="a_edge21_Node000001_Node000007"><a xlink:title=" ">
<path fill="none" stroke="#9a32cd" stroke-dasharray="5,2" d="M375.16,-376.32C437.21,-383.08 562.64,-392.74 667,-375.5 812.75,-351.42 851.88,-325.82 968,-234.5 1011.27,-200.47 1055.51,-151.48 1073.33,-131.03"/>
<polygon fill="#9a32cd" stroke="#9a32cd" points="375.38,-372.82 365.05,-375.18 374.59,-379.78 375.38,-372.82"/>
</a>
</g>
<text text-anchor="middle" x="755.5" y="-495.5" font-family="Helvetica,sans-Serif" font-size="10.00" fill="grey"> clutchDryMass</text>
<text text-anchor="start" x="685" y="-484.5" font-family="Helvetica,sans-Serif" font-size="10.00" fill="grey">lastMassBeforeMaturation</text>
<text text-anchor="middle" x="755.5" y="-473.5" font-family="Helvetica,sans-Serif" font-size="10.00" fill="grey">OrOviposition</text>
<text text-anchor="middle" x="755.5" y="-462.5" font-family="Helvetica,sans-Serif" font-size="10.00" fill="grey">massAtMaturation</text>
<text text-anchor="middle" x="755.5" y="-451.5" font-family="Helvetica,sans-Serif" font-size="10.00" fill="grey">massForNextReproduction</text>
<text text-anchor="middle" x="755.5" y="-440.5" font-family="Helvetica,sans-Serif" font-size="10.00" fill="grey">nextMassPredicted</text>
<text text-anchor="middle" x="755.5" y="-429.5" font-family="Helvetica,sans-Serif" font-size="10.00" fill="grey">previousMoultingMassTarget</text>
<text text-anchor="middle" x="755.5" y="-418.5" font-family="Helvetica,sans-Serif" font-size="10.00" fill="grey">previousNextMassPredicted</text>
<text text-anchor="middle" x="755.5" y="-407.5" font-family="Helvetica,sans-Serif" font-size="10.00" fill="grey">previousReproMassTarget</text>
<text text-anchor="middle" x="755.5" y="-396.5" font-family="Helvetica,sans-Serif" font-size="10.00" fill="grey">tankAtGrowth</text>
<text text-anchor="middle" x="755.5" y="-385.5" font-family="Helvetica,sans-Serif" font-size="10.00" fill="grey">totalReproMass</text>
<text text-anchor="middle" x="755.5" y="-374.5" font-family="Helvetica,sans-Serif" font-size="10.00" fill="grey">...</text>
</g>
<!-- Node7&#45;&gt;Node2 -->
<g id="edge15_Node000002_Node000007" class="edge">
<title>Node7&#45;&gt;Node2</title>
<g id="a_edge15_Node000002_Node000007"><a xlink:title=" ">
<path fill="none" stroke="#9a32cd" stroke-dasharray="5,2" d="M375.37,-365.88C489.43,-349.34 815.91,-301.69 826,-296.5 859.37,-279.34 886.92,-242.7 898.76,-225.2"/>
<polygon fill="#9a32cd" stroke="#9a32cd" points="374.72,-362.44 365.32,-367.34 375.72,-369.37 374.72,-362.44"/>
</a>
</g>
<text text-anchor="middle" x="602" y="-365.5" font-family="Helvetica,sans-Serif" font-size="10.00" fill="grey"> currentBodySize</text>
<text text-anchor="middle" x="602" y="-354.5" font-family="Helvetica,sans-Serif" font-size="10.00" fill="grey">currentEnergyTank</text>
<text text-anchor="middle" x="602" y="-343.5" font-family="Helvetica,sans-Serif" font-size="10.00" fill="grey">eggDryMassAtBirth</text>
</g>
<!-- Node7&#45;&gt;Node3 -->
<g id="edge7_Node000003_Node000007" class="edge">
<title>Node7&#45;&gt;Node3</title>
<g id="a_edge7_Node000003_Node000007"><a xlink:title=" ">
<path fill="none" stroke="#9a32cd" stroke-dasharray="5,2" d="M362.93,-385.82C373.57,-391.09 386.12,-396.69 398,-400.5 450.05,-417.19 468.78,-400.92 519,-422.5 547.85,-434.89 576.22,-459.06 590.84,-472.64"/>
<polygon fill="#9a32cd" stroke="#9a32cd" points="364.26,-382.57 353.77,-381.13 361.08,-388.8 364.26,-382.57"/>
</a>
</g>
<text text-anchor="middle" x="458.5" y="-425.5" font-family="Helvetica,sans-Serif" font-size="10.00" fill="grey"> currentTotalDryMass</text>
</g>
<!-- Node8 -->
<g id="Node000008" class="node">
<title>Node8</title>
<g id="a_Node000008"><a xlink:href="classPreciseDouble.html" target="_top" xlink:title="Class for precise double&#45;precision floating&#45;point arithmetic.">
<polygon fill="white" stroke="#666666" points="114.5,-292 28.5,-292 28.5,-273 114.5,-273 114.5,-292"/>
<text text-anchor="middle" x="71.5" y="-280" font-family="Helvetica,sans-Serif" font-size="10.00">PreciseDouble</text>
</a>
</g>
</g>
<!-- Node8&#45;&gt;Node2 -->
<g id="edge18_Node000002_Node000008" class="edge">
<title>Node8&#45;&gt;Node2</title>
<g id="a_edge18_Node000002_Node000008"><a xlink:title=" ">
<path fill="none" stroke="#9a32cd" stroke-dasharray="5,2" d="M124.92,-282.14C228.58,-281.13 467.06,-277.36 667,-263.5 737.9,-258.58 756.97,-263.41 826,-246.5 846.75,-241.42 869.34,-232.15 885.03,-225.06"/>
<polygon fill="#9a32cd" stroke="#9a32cd" points="124.69,-278.64 114.72,-282.23 124.75,-285.64 124.69,-278.64"/>
</a>
</g>
<text text-anchor="middle" x="458.5" y="-278.5" font-family="Helvetica,sans-Serif" font-size="10.00" fill="grey"> baseDevTimeProportion</text>
</g>
<!-- Node8&#45;&gt;Node7 -->
<g id="edge8_Node000007_Node000008" class="edge">
<title>Node8&#45;&gt;Node7</title>
<g id="a_edge8_Node000007_Node000008"><a xlink:title=" ">
<path fill="none" stroke="#9a32cd" stroke-dasharray="5,2" d="M110.25,-295.32C163.35,-313.36 258.88,-345.81 306.27,-361.91"/>
<polygon fill="#9a32cd" stroke="#9a32cd" points="111.13,-291.93 100.54,-292.02 108.88,-298.56 111.13,-291.93"/>
</a>
</g>
<text text-anchor="middle" x="217" y="-352.5" font-family="Helvetica,sans-Serif" font-size="10.00" fill="grey"> value</text>
</g>
<!-- Node9 -->
<g id="Node000009" class="node">
<title>Node9</title>
<g id="a_Node000009"><a xlink:href="classWetMass.html" target="_top" xlink:title="Represents wet mass in the ecosystem simulation.">
<polygon fill="white" stroke="#666666" points="366,-441 305,-441 305,-422 366,-422 366,-441"/>
<text text-anchor="middle" x="335.5" y="-429" font-family="Helvetica,sans-Serif" font-size="10.00">WetMass</text>
</a>
</g>
</g>
<!-- Node8&#45;&gt;Node9 -->
<g id="edge10_Node000009_Node000008" class="edge">
<title>Node8&#45;&gt;Node9</title>
<g id="a_edge10_Node000009_Node000008"><a xlink:title=" ">
<path fill="none" stroke="#9a32cd" stroke-dasharray="5,2" d="M87.31,-299.65C103.77,-317.81 131.88,-346.33 161,-364.5 207.71,-393.65 269.16,-413.69 305,-423.82"/>
<polygon fill="#9a32cd" stroke="#9a32cd" points="89.87,-297.25 80.61,-292.1 84.64,-301.9 89.87,-297.25"/>
</a>
</g>
<text text-anchor="middle" x="217" y="-415.5" font-family="Helvetica,sans-Serif" font-size="10.00" fill="grey"> value</text>
</g>
<!-- Node14 -->
<g id="Node000014" class="node">
<title>Node14</title>
<g id="a_Node000014"><a xlink:href="classLength.html" target="_top" xlink:title="Represents length in the ecosystem simulation.">
<polygon fill="white" stroke="#666666" points="483.5,-181 433.5,-181 433.5,-162 483.5,-162 483.5,-181"/>
<text text-anchor="middle" x="458.5" y="-169" font-family="Helvetica,sans-Serif" font-size="10.00">Length</text>
</a>
</g>
</g>
<!-- Node8&#45;&gt;Node14 -->
<g id="edge17_Node000014_Node000008" class="edge">
<title>Node8&#45;&gt;Node14</title>
<g id="a_edge17_Node000014_Node000008"><a xlink:title=" ">
<path fill="none" stroke="#9a32cd" stroke-dasharray="5,2" d="M115.53,-270.09C196.5,-246.75 369.12,-196.98 433.03,-178.55"/>
<polygon fill="#9a32cd" stroke="#9a32cd" points="114.3,-266.81 105.66,-272.94 116.24,-273.53 114.3,-266.81"/>
</a>
</g>
<text text-anchor="middle" x="217" y="-258.5" font-family="Helvetica,sans-Serif" font-size="10.00" fill="grey"> value</text>
</g>
<!-- Node16 -->
<g id="Node000016" class="node">
<title>Node16</title>
<g id="a_Node000016"><a xlink:href="classDay.html" target="_top" xlink:title="Represents time in days using high&#45;precision floating point.">
<polygon fill="white" stroke="#666666" points="773.5,-19 737.5,-19 737.5,0 773.5,0 773.5,-19"/>
<text text-anchor="middle" x="755.5" y="-7" font-family="Helvetica,sans-Serif" font-size="10.00">Day</text>
</a>
</g>
</g>
<!-- Node8&#45;&gt;Node16 -->
<g id="edge23_Node000016_Node000008" class="edge">
<title>Node8&#45;&gt;Node16</title>
<g id="a_edge23_Node000016_Node000008"><a xlink:title=" ">
<path fill="none" stroke="#9a32cd" stroke-dasharray="5,2" d="M94.11,-266.66C157.92,-220.87 352.61,-88.09 537,-33.5 609.31,-12.09 700.25,-9.45 737.45,-9.35"/>
<polygon fill="#9a32cd" stroke="#9a32cd" points="91.71,-264.07 85.66,-272.77 95.81,-269.75 91.71,-264.07"/>
</a>
</g>
<text text-anchor="middle" x="335.5" y="-143.5" font-family="Helvetica,sans-Serif" font-size="10.00" fill="grey"> value</text>
</g>
<!-- Node9&#45;&gt;Node3 -->
<g id="edge9_Node000003_Node000009" class="edge">
<title>Node9&#45;&gt;Node3</title>
<g id="a_edge9_Node000003_Node000009"><a xlink:title=" ">
<path fill="none" stroke="#9a32cd" stroke-dasharray="5,2" d="M376.56,-435.41C413.75,-439.46 470.52,-446.72 519,-457.5 537.45,-461.6 557.78,-467.79 573.57,-472.98"/>
<polygon fill="#9a32cd" stroke="#9a32cd" points="376.46,-431.88 366.15,-434.3 375.72,-438.84 376.46,-431.88"/>
</a>
</g>
<text text-anchor="middle" x="458.5" y="-460.5" font-family="Helvetica,sans-Serif" font-size="10.00" fill="grey"> currentTotalWetMass</text>
</g>
<!-- Node10 -->
<g id="Node000010" class="node">
<title>Node10</title>
<g id="a_Node000010"><a xlink:href="classCustomIndexedVector.html" target="_top" xlink:title=" ">
<polygon fill="white" stroke="#666666" points="663.5,-254.5 540.5,-254.5 540.5,-224.5 663.5,-224.5 663.5,-254.5"/>
<text text-anchor="start" x="548.5" y="-242.5" font-family="Helvetica,sans-Serif" font-size="10.00">CustomIndexedVector</text>
<text text-anchor="middle" x="602" y="-231.5" font-family="Helvetica,sans-Serif" font-size="10.00">&lt; Instar, TimeStep &gt;</text>
</a>
</g>
</g>
<!-- Node10&#45;&gt;Node2 -->
<g id="edge11_Node000002_Node000010" class="edge">
<title>Node10&#45;&gt;Node2</title>
<g id="a_edge11_Node000002_Node000010"><a xlink:title=" ">
<path fill="none" stroke="#9a32cd" stroke-dasharray="5,2" d="M674.06,-233.85C732.7,-229.19 813.96,-222.74 862.81,-218.85"/>
<polygon fill="#9a32cd" stroke="#9a32cd" points="673.44,-230.39 663.75,-234.67 674,-237.37 673.44,-230.39"/>
</a>
</g>
<text text-anchor="middle" x="755.5" y="-234.5" font-family="Helvetica,sans-Serif" font-size="10.00" fill="grey"> individualInstarAgeVector</text>
</g>
<!-- Node11 -->
<g id="Node000011" class="node">
<title>Node11</title>
<g id="a_Node000011"><a xlink:href="classCustomIndexedVector.html" target="_top" xlink:title=" ">
<polygon fill="white" stroke="#666666" points="663.5,-206.5 540.5,-206.5 540.5,-176.5 663.5,-176.5 663.5,-206.5"/>
<text text-anchor="start" x="548.5" y="-194.5" font-family="Helvetica,sans-Serif" font-size="10.00">CustomIndexedVector</text>
<text text-anchor="middle" x="602" y="-183.5" font-family="Helvetica,sans-Serif" font-size="10.00">&lt; Instar, Length &gt;</text>
</a>
</g>
</g>
<!-- Node11&#45;&gt;Node2 -->
<g id="edge12_Node000002_Node000011" class="edge">
<title>Node11&#45;&gt;Node2</title>
<g id="a_edge12_Node000002_Node000011"><a xlink:title=" ">
<path fill="none" stroke="#9a32cd" stroke-dasharray="5,2" d="M673.63,-195.41C717.52,-198.05 775.09,-201.89 826,-206.5 837.96,-207.58 850.92,-208.97 862.81,-210.33"/>
<polygon fill="#9a32cd" stroke="#9a32cd" points="673.82,-191.92 663.63,-194.82 673.41,-198.91 673.82,-191.92"/>
</a>
</g>
<text text-anchor="middle" x="755.5" y="-209.5" font-family="Helvetica,sans-Serif" font-size="10.00" fill="grey"> instarLengthsVector</text>
</g>
<!-- Node12 -->
<g id="Node000012" class="node">
<title>Node12</title>
<g id="a_Node000012"><a xlink:href="classCustomIndexedVector.html" target="_top" xlink:title=" ">
<polygon fill="white" stroke="#666666" points="663.5,-158.5 540.5,-158.5 540.5,-128.5 663.5,-128.5 663.5,-158.5"/>
<text text-anchor="start" x="548.5" y="-146.5" font-family="Helvetica,sans-Serif" font-size="10.00">CustomIndexedVector</text>
<text text-anchor="middle" x="602" y="-135.5" font-family="Helvetica,sans-Serif" font-size="10.00">&lt; Instar, DryMass &gt;</text>
</a>
</g>
</g>
<!-- Node12&#45;&gt;Node2 -->
<g id="edge13_Node000002_Node000012" class="edge">
<title>Node12&#45;&gt;Node2</title>
<g id="a_edge13_Node000002_Node000012"><a xlink:title=" ">
<path fill="none" stroke="#9a32cd" stroke-dasharray="5,2" d="M673.67,-150.6C718.05,-156.18 776.12,-165.58 826,-180.5 847.7,-186.99 871.29,-198 886.98,-205.94"/>
<polygon fill="#9a32cd" stroke="#9a32cd" points="673.91,-147.1 663.56,-149.36 673.06,-154.05 673.91,-147.1"/>
</a>
</g>
<text text-anchor="middle" x="755.5" y="-183.5" font-family="Helvetica,sans-Serif" font-size="10.00" fill="grey"> instarMassesVector</text>
</g>
<!-- Node13 -->
<g id="Node000013" class="node">
<title>Node13</title>
<g id="a_Node000013"><a xlink:href="classIndividualGrowthModel.html" target="_top" xlink:title="Abstract base class for representing an individual animal growth model.">
<polygon fill="white" stroke="#666666" points="667,-565 537,-565 537,-546 667,-546 667,-565"/>
<text text-anchor="middle" x="602" y="-553" font-family="Helvetica,sans-Serif" font-size="10.00">IndividualGrowthModel</text>
</a>
</g>
</g>
<!-- Node13&#45;&gt;Node2 -->
<g id="edge14_Node000002_Node000013" class="edge">
<title>Node13&#45;&gt;Node2</title>
<g id="a_edge14_Node000002_Node000013"><a xlink:title=" ">
<path fill="none" stroke="#9a32cd" stroke-dasharray="5,2" d="M660.9,-566.34C710.62,-572.11 781.17,-571.4 826,-532.5 874.62,-490.31 899.13,-273.69 904.06,-225.16"/>
<polygon fill="#9a32cd" stroke="#9a32cd" points="661.3,-562.86 650.94,-565.06 660.41,-569.8 661.3,-562.86"/>
</a>
</g>
<text text-anchor="middle" x="755.5" y="-571.5" font-family="Helvetica,sans-Serif" font-size="10.00" fill="grey"> individualGrowthModel</text>
</g>
<!-- Node14&#45;&gt;Node2 -->
<g id="edge16_Node000002_Node000014" class="edge">
<title>Node14&#45;&gt;Node2</title>
<g id="a_edge16_Node000002_Node000014"><a xlink:title=" ">
<path fill="none" stroke="#9a32cd" stroke-dasharray="5,2" d="M474.28,-154.09C488.53,-138.76 511.63,-117.51 537,-108.5 591.45,-89.16 609.66,-101.4 667,-108.5 739.32,-117.46 761.2,-115.18 826,-148.5 855.11,-163.47 882.76,-191.02 896.31,-205.69"/>
<polygon fill="#9a32cd" stroke="#9a32cd" points="471.36,-152.1 467.31,-161.89 476.58,-156.76 471.36,-152.1"/>
</a>
</g>
<text text-anchor="middle" x="602" y="-111.5" font-family="Helvetica,sans-Serif" font-size="10.00" fill="grey"> lengthAtBirth</text>
</g>
<!-- Node15 -->
<g id="Node000015" class="node">
<title>Node15</title>
<g id="a_Node000015"><a xlink:href="classTimeStep.html" target="_top" xlink:title="Represents a discrete time step in the simulation.">
<polygon fill="white" stroke="#666666" points="633.5,-62 570.5,-62 570.5,-43 633.5,-43 633.5,-62"/>
<text text-anchor="middle" x="602" y="-50" font-family="Helvetica,sans-Serif" font-size="10.00">TimeStep</text>
</a>
</g>
</g>
<!-- Node15&#45;&gt;Node1 -->
<g id="edge20_Node000001_Node000015" class="edge">
<title>Node15&#45;&gt;Node1</title>
<g id="a_edge20_Node000001_Node000015"><a xlink:title=" ">
<path fill="none" stroke="#9a32cd" stroke-dasharray="5,2" d="M644.02,-53.24C688.89,-54.48 762.86,-57.77 826,-66.5 905.11,-77.44 996.2,-99.33 1045.42,-111.95"/>
<polygon fill="#9a32cd" stroke="#9a32cd" points="643.89,-49.74 633.81,-52.98 643.71,-56.74 643.89,-49.74"/>
</a>
</g>
<text text-anchor="middle" x="906" y="-128.5" font-family="Helvetica,sans-Serif" font-size="10.00" fill="grey"> ageForNextReproduction</text>
<text text-anchor="middle" x="906" y="-117.5" font-family="Helvetica,sans-Serif" font-size="10.00" fill="grey">diapauseTimeSteps</text>
<text text-anchor="middle" x="906" y="-106.5" font-family="Helvetica,sans-Serif" font-size="10.00" fill="grey">longevity</text>
<text text-anchor="middle" x="906" y="-95.5" font-family="Helvetica,sans-Serif" font-size="10.00" fill="grey">pupaTimer</text>
</g>
<!-- Node15&#45;&gt;Node2 -->
<g id="edge19_Node000002_Node000015" class="edge">
<title>Node15&#45;&gt;Node2</title>
<g id="a_edge19_Node000002_Node000015"><a xlink:title=" ">
<path fill="none" stroke="#9a32cd" stroke-dasharray="5,2" d="M643.88,-58.29C707.21,-67.32 822.22,-83.99 826,-86.5 870.85,-116.29 894.53,-181.09 902.18,-205.73"/>
<polygon fill="#9a32cd" stroke="#9a32cd" points="644.2,-54.8 633.81,-56.86 643.22,-61.73 644.2,-54.8"/>
</a>
</g>
<text text-anchor="middle" x="755.5" y="-89.5" font-family="Helvetica,sans-Serif" font-size="10.00" fill="grey"> currentAge</text>
</g>
<!-- Node16&#45;&gt;Node1 -->
<g id="edge22_Node000001_Node000016" class="edge">
<title>Node16&#45;&gt;Node1</title>
<g id="a_edge22_Node000001_Node000016"><a xlink:title=" ">
<path fill="none" stroke="#9a32cd" stroke-dasharray="5,2" d="M783.64,-5.17C825.13,0.23 906.04,5.95 968,-19.5 1017.01,-39.63 1058.72,-90.56 1074.62,-111.88"/>
<polygon fill="#9a32cd" stroke="#9a32cd" points="782.92,-1.74 773.5,-6.59 783.89,-8.67 782.92,-1.74"/>
</a>
</g>
<text text-anchor="middle" x="906" y="-22.5" font-family="Helvetica,sans-Serif" font-size="10.00" fill="grey"> dateEgg</text>
</g>
</g>
</svg>
