<?xml version="1.0" encoding="UTF-8" standalone="no"?>
<!DOCTYPE svg PUBLIC "-//W3C//DTD SVG 1.1//EN"
 "http://www.w3.org/Graphics/SVG/1.1/DTD/svg11.dtd">
<!-- Generated by graphviz version 2.43.0 (0)
 -->
<!-- Title: /home/runner/work/Weaver/Weaver/include/App/Model/IBM Pages: 1 -->
<svg width="313pt" height="259pt"
 viewBox="0.00 0.00 312.50 259.00" xmlns="http://www.w3.org/2000/svg" xmlns:xlink="http://www.w3.org/1999/xlink">
<g id="graph0" class="graph" transform="scale(1 1) rotate(0) translate(4 255)">
<title>/home/runner/work/Weaver/Weaver/include/App/Model/IBM</title>
<g id="clust1" class="cluster">
<title>clusterdir_1912cce76c81cfc9d6d5520fcb60e2b8</title>
<g id="a_clust1"><a xlink:href="dir_1912cce76c81cfc9d6d5520fcb60e2b8.html" target="_top" xlink:title="Model">
<polygon fill="#edf0f7" stroke="#7f7f7f" stroke-dasharray="5,2" points="106.5,-8 106.5,-243 226.5,-243 226.5,-8 106.5,-8"/>
<text text-anchor="middle" x="166.5" y="-231" font-family="Helvetica,sans-Serif" font-size="10.00">Model</text>
</a>
</g>
</g>
<g id="clust2" class="cluster">
<title>clusterdir_c27fe5305855498fa6af2a12eaeb4811</title>
<g id="a_clust2"><a xlink:href="dir_c27fe5305855498fa6af2a12eaeb4811.html" target="_top">
<polygon fill="#edf0f7" stroke="#404040" stroke-width="2" points="114.5,-16 114.5,-216 218.5,-216 218.5,-16 114.5,-16"/>
</a>
</g>
</g>
<!-- dir_c27fe5305855498fa6af2a12eaeb4811 -->
<g id="node1" class="node">
<title>dir_c27fe5305855498fa6af2a12eaeb4811</title>
<text text-anchor="middle" x="158.5" y="-196" font-family="Helvetica,sans-Serif" font-size="10.00">IBM</text>
</g>
<!-- dir_a3743c4f48a9f113c48eeb11d5f797ad -->
<g id="node2" class="node">
<title>dir_a3743c4f48a9f113c48eeb11d5f797ad</title>
<g id="a_node2"><a xlink:href="dir_a3743c4f48a9f113c48eeb11d5f797ad.html" target="_top" xlink:title="Landscape">
<polygon fill="#a2b4d6" stroke="#404040" points="210.5,-153 142.5,-153 142.5,-134 210.5,-134 210.5,-153"/>
<text text-anchor="middle" x="176.5" y="-141" font-family="Helvetica,sans-Serif" font-size="10.00">Landscape</text>
</a>
</g>
</g>
<!-- dir_c27fe5305855498fa6af2a12eaeb4811&#45;&gt;dir_a3743c4f48a9f113c48eeb11d5f797ad -->
<g id="edge3" class="edge">
<title>dir_c27fe5305855498fa6af2a12eaeb4811&#45;&gt;dir_a3743c4f48a9f113c48eeb11d5f797ad</title>
<g id="a_edge3"><a xlink:href="dir_000024_000027.html" target="_top">
<path fill="none" stroke="#63b8ff" d="M161.47,-188.75C163.86,-181.72 167.29,-171.62 170.27,-162.84"/>
<polygon fill="#63b8ff" stroke="#63b8ff" points="173.68,-163.68 173.58,-153.09 167.05,-161.43 173.68,-163.68"/>
</a>
</g>
<g id="a_edge3&#45;headlabel"><a xlink:href="dir_000024_000027.html" target="_top" xlink:title="234">
<text text-anchor="middle" x="175.21" y="-165.5" font-family="Helvetica,sans-Serif" font-size="10.00" fill="#63b8ff">234</text>
</a>
</g>
</g>
<!-- dir_6d30109d817e3a6d4be9084cc265e05a -->
<g id="node3" class="node">
<title>dir_6d30109d817e3a6d4be9084cc265e05a</title>
<g id="a_node3"><a xlink:href="dir_6d30109d817e3a6d4be9084cc265e05a.html" target="_top" xlink:title="Maths">
<polygon fill="#a2b4d6" stroke="#404040" points="172,-98 125,-98 125,-79 172,-79 172,-98"/>
<text text-anchor="middle" x="148.5" y="-86" font-family="Helvetica,sans-Serif" font-size="10.00">Maths</text>
</a>
</g>
</g>
<!-- dir_c27fe5305855498fa6af2a12eaeb4811&#45;&gt;dir_6d30109d817e3a6d4be9084cc265e05a -->
<g id="edge2" class="edge">
<title>dir_c27fe5305855498fa6af2a12eaeb4811&#45;&gt;dir_6d30109d817e3a6d4be9084cc265e05a</title>
<g id="a_edge2"><a xlink:href="dir_000024_000032.html" target="_top">
<path fill="none" stroke="#63b8ff" d="M151.87,-188.88C145.74,-180.32 137.04,-166.54 133.5,-153 129.51,-137.76 134.28,-120.34 139.47,-107.6"/>
<polygon fill="#63b8ff" stroke="#63b8ff" points="142.81,-108.71 143.75,-98.16 136.44,-105.83 142.81,-108.71"/>
</a>
</g>
<g id="a_edge2&#45;headlabel"><a xlink:href="dir_000024_000032.html" target="_top" xlink:title="36">
<text text-anchor="middle" x="143.92" y="-110.66" font-family="Helvetica,sans-Serif" font-size="10.00" fill="#63b8ff">36</text>
</a>
</g>
</g>
<!-- dir_4045643538bad1aadeff61b05dc9bc0d -->
<g id="node5" class="node">
<title>dir_4045643538bad1aadeff61b05dc9bc0d</title>
<g id="a_node5"><a xlink:href="dir_4045643538bad1aadeff61b05dc9bc0d.html" target="_top" xlink:title="Exceptions">
<polygon fill="#edf0f7" stroke="#7f7f7f" points="304.5,-43 234.5,-43 234.5,-24 304.5,-24 304.5,-43"/>
<text text-anchor="middle" x="269.5" y="-31" font-family="Helvetica,sans-Serif" font-size="10.00">Exceptions</text>
</a>
</g>
</g>
<!-- dir_c27fe5305855498fa6af2a12eaeb4811&#45;&gt;dir_4045643538bad1aadeff61b05dc9bc0d -->
<g id="edge1" class="edge">
<title>dir_c27fe5305855498fa6af2a12eaeb4811&#45;&gt;dir_4045643538bad1aadeff61b05dc9bc0d</title>
<g id="a_edge1"><a xlink:href="dir_000024_000010.html" target="_top">
<path fill="none" stroke="#63b8ff" d="M174.93,-188.86C188.45,-181.04 207.29,-168.41 219.5,-153 243.91,-122.19 258.39,-77.72 265.06,-52.94"/>
<polygon fill="#63b8ff" stroke="#63b8ff" points="268.5,-53.62 267.58,-43.07 261.71,-51.89 268.5,-53.62"/>
</a>
</g>
<g id="a_edge1&#45;headlabel"><a xlink:href="dir_000024_000010.html" target="_top" xlink:title="20">
<text text-anchor="middle" x="270.36" y="-55.31" font-family="Helvetica,sans-Serif" font-size="10.00" fill="#63b8ff">20</text>
</a>
</g>
</g>
<!-- dir_ed435641f8e8047e0f5542c775bc8256 -->
<g id="node6" class="node">
<title>dir_ed435641f8e8047e0f5542c775bc8256</title>
<g id="a_node6"><a xlink:href="dir_ed435641f8e8047e0f5542c775bc8256.html" target="_top" xlink:title="Misc">
<polygon fill="#edf0f7" stroke="red" stroke-dasharray="5,2" points="39,-43 0,-43 0,-24 39,-24 39,-43"/>
<text text-anchor="middle" x="19.5" y="-31" font-family="Helvetica,sans-Serif" font-size="10.00">Misc</text>
</a>
</g>
</g>
<!-- dir_c27fe5305855498fa6af2a12eaeb4811&#45;&gt;dir_ed435641f8e8047e0f5542c775bc8256 -->
<g id="edge4" class="edge">
<title>dir_c27fe5305855498fa6af2a12eaeb4811&#45;&gt;dir_ed435641f8e8047e0f5542c775bc8256</title>
<g id="a_edge4"><a xlink:href="dir_000024_000033.html" target="_top">
<path fill="none" stroke="#63b8ff" d="M150.59,-188.84C135,-171.71 99.33,-132.21 70.5,-98 57.32,-82.36 42.75,-64.13 32.58,-51.22"/>
<polygon fill="#63b8ff" stroke="#63b8ff" points="35.23,-48.93 26.3,-43.23 29.73,-53.26 35.23,-48.93"/>
</a>
</g>
<g id="a_edge4&#45;headlabel"><a xlink:href="dir_000024_000033.html" target="_top" xlink:title="57">
<text text-anchor="middle" x="39.68" y="-47.51" font-family="Helvetica,sans-Serif" font-size="10.00" fill="#63b8ff">57</text>
</a>
</g>
</g>
<!-- dir_a3743c4f48a9f113c48eeb11d5f797ad&#45;&gt;dir_6d30109d817e3a6d4be9084cc265e05a -->
<g id="edge7" class="edge">
<title>dir_a3743c4f48a9f113c48eeb11d5f797ad&#45;&gt;dir_6d30109d817e3a6d4be9084cc265e05a</title>
<g id="a_edge7"><a xlink:href="dir_000027_000032.html" target="_top">
<path fill="none" stroke="#63b8ff" d="M166.71,-133.75C161.43,-126.65 155.6,-116.4 151.6,-107.56"/>
<polygon fill="#63b8ff" stroke="#63b8ff" points="154.8,-106.13 147.91,-98.09 148.28,-108.68 154.8,-106.13"/>
</a>
</g>
<g id="a_edge7&#45;headlabel"><a xlink:href="dir_000027_000032.html" target="_top" xlink:title="33">
<text text-anchor="middle" x="158.76" y="-105.95" font-family="Helvetica,sans-Serif" font-size="10.00" fill="#63b8ff">33</text>
</a>
</g>
</g>
<!-- dir_82abf9c3cae407e2f368e3cd0d776797 -->
<g id="node4" class="node">
<title>dir_82abf9c3cae407e2f368e3cd0d776797</title>
<g id="a_node4"><a xlink:href="dir_82abf9c3cae407e2f368e3cd0d776797.html" target="_top" xlink:title="Physics">
<polygon fill="#a2b4d6" stroke="#404040" points="176,-43 123,-43 123,-24 176,-24 176,-43"/>
<text text-anchor="middle" x="149.5" y="-31" font-family="Helvetica,sans-Serif" font-size="10.00">Physics</text>
</a>
</g>
</g>
<!-- dir_a3743c4f48a9f113c48eeb11d5f797ad&#45;&gt;dir_82abf9c3cae407e2f368e3cd0d776797 -->
<g id="edge8" class="edge">
<title>dir_a3743c4f48a9f113c48eeb11d5f797ad&#45;&gt;dir_82abf9c3cae407e2f368e3cd0d776797</title>
<g id="a_edge8"><a xlink:href="dir_000027_000044.html" target="_top">
<path fill="none" stroke="#63b8ff" d="M179.29,-133.63C182.76,-121.12 187.54,-97.74 181.5,-79 178.16,-68.62 171.4,-58.62 164.95,-50.74"/>
<polygon fill="#63b8ff" stroke="#63b8ff" points="167.47,-48.31 158.25,-43.1 162.21,-52.92 167.47,-48.31"/>
</a>
</g>
<g id="a_edge8&#45;headlabel"><a xlink:href="dir_000027_000044.html" target="_top" xlink:title="7">
<text text-anchor="middle" x="171.98" y="-46.64" font-family="Helvetica,sans-Serif" font-size="10.00" fill="#63b8ff">7</text>
</a>
</g>
</g>
<!-- dir_a3743c4f48a9f113c48eeb11d5f797ad&#45;&gt;dir_4045643538bad1aadeff61b05dc9bc0d -->
<g id="edge6" class="edge">
<title>dir_a3743c4f48a9f113c48eeb11d5f797ad&#45;&gt;dir_4045643538bad1aadeff61b05dc9bc0d</title>
<g id="a_edge6"><a xlink:href="dir_000027_000010.html" target="_top">
<path fill="none" stroke="#63b8ff" d="M184.11,-133.66C199.72,-115.54 235.56,-73.91 255.49,-50.77"/>
<polygon fill="#63b8ff" stroke="#63b8ff" points="258.17,-53.02 262.04,-43.16 252.87,-48.45 258.17,-53.02"/>
</a>
</g>
<g id="a_edge6&#45;headlabel"><a xlink:href="dir_000027_000010.html" target="_top" xlink:title="18">
<text text-anchor="middle" x="257.98" y="-55.1" font-family="Helvetica,sans-Serif" font-size="10.00" fill="#63b8ff">18</text>
</a>
</g>
</g>
<!-- dir_a3743c4f48a9f113c48eeb11d5f797ad&#45;&gt;dir_ed435641f8e8047e0f5542c775bc8256 -->
<g id="edge9" class="edge">
<title>dir_a3743c4f48a9f113c48eeb11d5f797ad&#45;&gt;dir_ed435641f8e8047e0f5542c775bc8256</title>
<g id="a_edge9"><a xlink:href="dir_000027_000033.html" target="_top">
<path fill="none" stroke="#63b8ff" d="M159.6,-133.86C143.49,-125.39 118.73,-111.78 98.5,-98 76.41,-82.96 52.72,-63.42 37.11,-50.01"/>
<polygon fill="#63b8ff" stroke="#63b8ff" points="39.18,-47.16 29.33,-43.25 34.59,-52.45 39.18,-47.16"/>
</a>
</g>
<g id="a_edge9&#45;headlabel"><a xlink:href="dir_000027_000033.html" target="_top" xlink:title="49">
<text text-anchor="middle" x="43.75" y="-44.87" font-family="Helvetica,sans-Serif" font-size="10.00" fill="#63b8ff">49</text>
</a>
</g>
</g>
<!-- dir_372774f0ab5e2d6e2a78b40358f88508 -->
<g id="node7" class="node">
<title>dir_372774f0ab5e2d6e2a78b40358f88508</title>
<g id="a_node7"><a xlink:href="dir_372774f0ab5e2d6e2a78b40358f88508.html" target="_top" xlink:title="View">
<polygon fill="#edf0f7" stroke="red" stroke-dasharray="5,2" points="98,-43 57,-43 57,-24 98,-24 98,-43"/>
<text text-anchor="middle" x="77.5" y="-31" font-family="Helvetica,sans-Serif" font-size="10.00">View</text>
</a>
</g>
</g>
<!-- dir_a3743c4f48a9f113c48eeb11d5f797ad&#45;&gt;dir_372774f0ab5e2d6e2a78b40358f88508 -->
<g id="edge5" class="edge">
<title>dir_a3743c4f48a9f113c48eeb11d5f797ad&#45;&gt;dir_372774f0ab5e2d6e2a78b40358f88508</title>
<g id="a_edge5"><a xlink:href="dir_000027_000063.html" target="_top">
<path fill="none" stroke="#63b8ff" d="M161.94,-133.95C148.96,-125.84 129.99,-112.73 116.5,-98 103.96,-84.32 93.23,-66.03 86.22,-52.6"/>
<polygon fill="#63b8ff" stroke="#63b8ff" points="89.23,-50.79 81.61,-43.43 82.97,-53.93 89.23,-50.79"/>
</a>
</g>
<g id="a_edge5&#45;headlabel"><a xlink:href="dir_000027_000063.html" target="_top" xlink:title="2">
<text text-anchor="middle" x="93.38" y="-50.23" font-family="Helvetica,sans-Serif" font-size="10.00" fill="#63b8ff">2</text>
</a>
</g>
</g>
<!-- dir_6d30109d817e3a6d4be9084cc265e05a&#45;&gt;dir_a3743c4f48a9f113c48eeb11d5f797ad -->
<g id="edge13" class="edge">
<title>dir_6d30109d817e3a6d4be9084cc265e05a&#45;&gt;dir_a3743c4f48a9f113c48eeb11d5f797ad</title>
<g id="a_edge13"><a xlink:href="dir_000032_000027.html" target="_top">
<path fill="none" stroke="#63b8ff" d="M158.17,-98.09C163.44,-105.14 169.28,-115.37 173.3,-124.24"/>
<polygon fill="#63b8ff" stroke="#63b8ff" points="170.13,-125.72 177.04,-133.75 176.64,-123.16 170.13,-125.72"/>
</a>
</g>
<g id="a_edge13&#45;headlabel"><a xlink:href="dir_000032_000027.html" target="_top" xlink:title="7">
<text text-anchor="middle" x="166.17" y="-120.92" font-family="Helvetica,sans-Serif" font-size="10.00" fill="#63b8ff">7</text>
</a>
</g>
</g>
<!-- dir_6d30109d817e3a6d4be9084cc265e05a&#45;&gt;dir_82abf9c3cae407e2f368e3cd0d776797 -->
<g id="edge12" class="edge">
<title>dir_6d30109d817e3a6d4be9084cc265e05a&#45;&gt;dir_82abf9c3cae407e2f368e3cd0d776797</title>
<g id="a_edge12"><a xlink:href="dir_000032_000044.html" target="_top">
<path fill="none" stroke="#63b8ff" d="M143.5,-78.75C142.14,-71.8 141.89,-61.85 142.67,-53.13"/>
<polygon fill="#63b8ff" stroke="#63b8ff" points="146.15,-53.5 144.21,-43.09 139.23,-52.44 146.15,-53.5"/>
</a>
</g>
<g id="a_edge12&#45;headlabel"><a xlink:href="dir_000032_000044.html" target="_top" xlink:title="4">
<text text-anchor="middle" x="148.42" y="-54.99" font-family="Helvetica,sans-Serif" font-size="10.00" fill="#63b8ff">4</text>
</a>
</g>
</g>
<!-- dir_6d30109d817e3a6d4be9084cc265e05a&#45;&gt;dir_4045643538bad1aadeff61b05dc9bc0d -->
<g id="edge11" class="edge">
<title>dir_6d30109d817e3a6d4be9084cc265e05a&#45;&gt;dir_4045643538bad1aadeff61b05dc9bc0d</title>
<g id="a_edge11"><a xlink:href="dir_000032_000010.html" target="_top">
<path fill="none" stroke="#63b8ff" d="M167.94,-78.98C187.49,-70.42 217.88,-57.11 240.32,-47.28"/>
<polygon fill="#63b8ff" stroke="#63b8ff" points="241.95,-50.39 249.71,-43.17 239.14,-43.98 241.95,-50.39"/>
</a>
</g>
<g id="a_edge11&#45;headlabel"><a xlink:href="dir_000032_000010.html" target="_top" xlink:title="1">
<text text-anchor="middle" x="239.8" y="-51.93" font-family="Helvetica,sans-Serif" font-size="10.00" fill="#63b8ff">1</text>
</a>
</g>
</g>
<!-- dir_6d30109d817e3a6d4be9084cc265e05a&#45;&gt;dir_ed435641f8e8047e0f5542c775bc8256 -->
<g id="edge14" class="edge">
<title>dir_6d30109d817e3a6d4be9084cc265e05a&#45;&gt;dir_ed435641f8e8047e0f5542c775bc8256</title>
<g id="a_edge14"><a xlink:href="dir_000032_000033.html" target="_top">
<path fill="none" stroke="#63b8ff" d="M127.77,-78.98C106.37,-70.19 72.78,-56.39 48.69,-46.49"/>
<polygon fill="#63b8ff" stroke="#63b8ff" points="49.91,-43.21 39.33,-42.65 47.25,-49.68 49.91,-43.21"/>
</a>
</g>
<g id="a_edge14&#45;headlabel"><a xlink:href="dir_000032_000033.html" target="_top" xlink:title="6">
<text text-anchor="middle" x="54.31" y="-39.45" font-family="Helvetica,sans-Serif" font-size="10.00" fill="#63b8ff">6</text>
</a>
</g>
</g>
<!-- dir_6d30109d817e3a6d4be9084cc265e05a&#45;&gt;dir_372774f0ab5e2d6e2a78b40358f88508 -->
<g id="edge10" class="edge">
<title>dir_6d30109d817e3a6d4be9084cc265e05a&#45;&gt;dir_372774f0ab5e2d6e2a78b40358f88508</title>
<g id="a_edge10"><a xlink:href="dir_000032_000063.html" target="_top">
<path fill="none" stroke="#63b8ff" d="M137.09,-78.98C126.39,-71 110.16,-58.88 97.34,-49.31"/>
<polygon fill="#63b8ff" stroke="#63b8ff" points="99.22,-46.35 89.11,-43.17 95.03,-51.96 99.22,-46.35"/>
</a>
</g>
<g id="a_edge10&#45;headlabel"><a xlink:href="dir_000032_000063.html" target="_top" xlink:title="1">
<text text-anchor="middle" x="103.8" y="-43.72" font-family="Helvetica,sans-Serif" font-size="10.00" fill="#63b8ff">1</text>
</a>
</g>
</g>
<!-- dir_82abf9c3cae407e2f368e3cd0d776797&#45;&gt;dir_6d30109d817e3a6d4be9084cc265e05a -->
<g id="edge15" class="edge">
<title>dir_82abf9c3cae407e2f368e3cd0d776797&#45;&gt;dir_6d30109d817e3a6d4be9084cc265e05a</title>
<g id="a_edge15"><a xlink:href="dir_000044_000032.html" target="_top">
<path fill="none" stroke="#63b8ff" d="M154.47,-43.09C155.85,-49.99 156.11,-59.93 155.35,-68.66"/>
<polygon fill="#63b8ff" stroke="#63b8ff" points="151.86,-68.34 153.83,-78.75 158.78,-69.38 151.86,-68.34"/>
</a>
</g>
<g id="a_edge15&#45;headlabel"><a xlink:href="dir_000044_000032.html" target="_top" xlink:title="1">
<text text-anchor="middle" x="149.58" y="-61.86" font-family="Helvetica,sans-Serif" font-size="10.00" fill="#63b8ff">1</text>
</a>
</g>
</g>
</g>
</svg>
