<?xml version="1.0" encoding="UTF-8" standalone="no"?>
<!DOCTYPE svg PUBLIC "-//W3C//DTD SVG 1.1//EN"
 "http://www.w3.org/Graphics/SVG/1.1/DTD/svg11.dtd">
<!-- Generated by graphviz version 2.43.0 (0)
 -->
<!-- Title: Graphical Class Hierarchy Pages: 1 -->
<svg width="424pt" height="165pt"
 viewBox="0.00 0.00 424.00 165.00" xmlns="http://www.w3.org/2000/svg" xmlns:xlink="http://www.w3.org/1999/xlink">
<g id="graph0" class="graph" transform="scale(1 1) rotate(0) translate(4 161)">
<title>Graphical Class Hierarchy</title>
<!-- Node0 -->
<g id="Node000000" class="node">
<title>Node0</title>
<g id="a_Node000000"><a xlink:href="classTrait.html" target="_top" xlink:title="Represents a trait of an animal species or individual.">
<polygon fill="white" stroke="#666666" points="38,-101 0,-101 0,-82 38,-82 38,-101"/>
<text text-anchor="middle" x="19" y="-89" font-family="Helvetica,sans-Serif" font-size="10.00">Trait</text>
</a>
</g>
</g>
<!-- Node1 -->
<g id="Node000001" class="node">
<title>Node1</title>
<g id="a_Node000001"><a xlink:href="classBaseTrait.html" target="_top" xlink:title="Represents a fundamental trait for individuals in the simulation.">
<polygon fill="white" stroke="#666666" points="179,-157 117,-157 117,-138 179,-138 179,-157"/>
<text text-anchor="middle" x="148" y="-145" font-family="Helvetica,sans-Serif" font-size="10.00">BaseTrait</text>
</a>
</g>
</g>
<!-- Node0&#45;&gt;Node1 -->
<g id="edge85_Node000000_Node000001" class="edge">
<title>Node0&#45;&gt;Node1</title>
<g id="a_edge85_Node000000_Node000001"><a xlink:title=" ">
<path fill="none" stroke="#63b8ff" d="M39.15,-107.62C49.02,-115.22 61.57,-123.84 74,-129.5 87.42,-135.62 103.22,-139.84 116.68,-142.65"/>
<polygon fill="#63b8ff" stroke="#63b8ff" points="41.23,-104.81 31.24,-101.3 36.87,-110.28 41.23,-104.81"/>
</a>
</g>
</g>
<!-- Node2 -->
<g id="Node000002" class="node">
<title>Node2</title>
<g id="a_Node000002"><a xlink:href="classCellValueTrait.html" target="_top" xlink:title="Represents a trait storing values in a cell for individual&#45;based simulations.">
<polygon fill="white" stroke="#666666" points="189.5,-120 106.5,-120 106.5,-101 189.5,-101 189.5,-120"/>
<text text-anchor="middle" x="148" y="-108" font-family="Helvetica,sans-Serif" font-size="10.00">CellValueTrait</text>
</a>
</g>
</g>
<!-- Node0&#45;&gt;Node2 -->
<g id="edge86_Node000000_Node000002" class="edge">
<title>Node0&#45;&gt;Node2</title>
<g id="a_edge86_Node000000_Node000002"><a xlink:title=" ">
<path fill="none" stroke="#63b8ff" d="M48.12,-95.71C65.21,-98.26 87.32,-101.57 106.3,-104.41"/>
<polygon fill="#63b8ff" stroke="#63b8ff" points="48.6,-92.24 38.2,-94.22 47.57,-99.16 48.6,-92.24"/>
</a>
</g>
</g>
<!-- Node3 -->
<g id="Node000003" class="node">
<title>Node3</title>
<g id="a_Node000003"><a xlink:href="classDecisionsTrait.html" target="_top" xlink:title="Represents a trait that affects decision&#45;making of individuals.">
<polygon fill="white" stroke="#666666" points="190.5,-83 105.5,-83 105.5,-64 190.5,-64 190.5,-83"/>
<text text-anchor="middle" x="148" y="-71" font-family="Helvetica,sans-Serif" font-size="10.00">DecisionsTrait</text>
</a>
</g>
</g>
<!-- Node0&#45;&gt;Node3 -->
<g id="edge87_Node000000_Node000003" class="edge">
<title>Node0&#45;&gt;Node3</title>
<g id="a_edge87_Node000000_Node000003"><a xlink:title=" ">
<path fill="none" stroke="#63b8ff" d="M48.47,-87.46C65.27,-85.08 86.83,-82.03 105.5,-79.38"/>
<polygon fill="#63b8ff" stroke="#63b8ff" points="47.61,-84.05 38.2,-88.92 48.59,-90.98 47.61,-84.05"/>
</a>
</g>
</g>
<!-- Node8 -->
<g id="Node000008" class="node">
<title>Node8</title>
<g id="a_Node000008"><a xlink:href="classProbabilityDensityFunctionTrait.html" target="_top" xlink:title="Represents a trait defined by a probability density function (PDF).">
<polygon fill="white" stroke="#666666" points="222,-45.5 74,-45.5 74,-15.5 222,-15.5 222,-45.5"/>
<text text-anchor="start" x="82" y="-33.5" font-family="Helvetica,sans-Serif" font-size="10.00">ProbabilityDensityFunction</text>
<text text-anchor="middle" x="148" y="-22.5" font-family="Helvetica,sans-Serif" font-size="10.00">Trait</text>
</a>
</g>
</g>
<!-- Node0&#45;&gt;Node8 -->
<g id="edge92_Node000000_Node000008" class="edge">
<title>Node0&#45;&gt;Node8</title>
<g id="a_edge92_Node000000_Node000008"><a xlink:title=" ">
<path fill="none" stroke="#63b8ff" d="M40.57,-75.96C50.34,-69.07 62.4,-61.23 74,-55.5 81.33,-51.88 89.31,-48.57 97.21,-45.62"/>
<polygon fill="#63b8ff" stroke="#63b8ff" points="38.36,-73.24 32.31,-81.95 42.46,-78.91 38.36,-73.24"/>
</a>
</g>
</g>
<!-- Node4 -->
<g id="Node000004" class="node">
<title>Node4</title>
<g id="a_Node000004"><a xlink:href="classEdibilityValueWeightTrait.html" target="_top" xlink:title="Represents a trait that influences edibility values for behavioral decisions in animal species.">
<polygon fill="white" stroke="#666666" points="406,-142 268,-142 268,-123 406,-123 406,-142"/>
<text text-anchor="middle" x="337" y="-130" font-family="Helvetica,sans-Serif" font-size="10.00">EdibilityValueWeightTrait</text>
</a>
</g>
</g>
<!-- Node3&#45;&gt;Node4 -->
<g id="edge88_Node000003_Node000004" class="edge">
<title>Node3&#45;&gt;Node4</title>
<g id="a_edge88_Node000003_Node000004"><a xlink:title=" ">
<path fill="none" stroke="#63b8ff" d="M200.54,-84.88C207.86,-87.08 215.2,-89.61 222,-92.5 239.26,-99.83 240.64,-107.41 258,-114.5 266.23,-117.86 275.23,-120.67 284.08,-122.99"/>
<polygon fill="#63b8ff" stroke="#63b8ff" points="201.2,-81.43 190.63,-82.08 199.31,-88.17 201.2,-81.43"/>
</a>
</g>
</g>
<!-- Node5 -->
<g id="Node000005" class="node">
<title>Node5</title>
<g id="a_Node000005"><a xlink:href="classEscapeProbabilityWeightTrait.html" target="_top" xlink:title="Represents a trait that influences escape probability for behavioral decisions in animal species.">
<polygon fill="white" stroke="#666666" points="416,-105 258,-105 258,-86 416,-86 416,-105"/>
<text text-anchor="middle" x="337" y="-93" font-family="Helvetica,sans-Serif" font-size="10.00">EscapeProbabilityWeightTrait</text>
</a>
</g>
</g>
<!-- Node3&#45;&gt;Node5 -->
<g id="edge89_Node000003_Node000005" class="edge">
<title>Node3&#45;&gt;Node5</title>
<g id="a_edge89_Node000003_Node000005"><a xlink:title=" ">
<path fill="none" stroke="#63b8ff" d="M200.59,-79.57C218.26,-81.65 238.45,-84.02 257.74,-86.29"/>
<polygon fill="#63b8ff" stroke="#63b8ff" points="200.84,-76.07 190.5,-78.38 200.02,-83.03 200.84,-76.07"/>
</a>
</g>
</g>
<!-- Node6 -->
<g id="Node000006" class="node">
<title>Node6</title>
<g id="a_Node000006"><a xlink:href="classPredationProbabilityWeightTrait.html" target="_top" xlink:title="Represents a trait that influences predation probability for behavioral decisions in animal species.">
<polygon fill="white" stroke="#666666" points="411.5,-67.5 262.5,-67.5 262.5,-37.5 411.5,-37.5 411.5,-67.5"/>
<text text-anchor="start" x="270.5" y="-55.5" font-family="Helvetica,sans-Serif" font-size="10.00">PredationProbabilityWeight</text>
<text text-anchor="middle" x="337" y="-44.5" font-family="Helvetica,sans-Serif" font-size="10.00">Trait</text>
</a>
</g>
</g>
<!-- Node3&#45;&gt;Node6 -->
<g id="edge90_Node000003_Node000006" class="edge">
<title>Node3&#45;&gt;Node6</title>
<g id="a_edge90_Node000003_Node000006"><a xlink:title=" ">
<path fill="none" stroke="#63b8ff" d="M200.48,-67.72C219.55,-65.58 241.57,-63.1 262.24,-60.78"/>
<polygon fill="#63b8ff" stroke="#63b8ff" points="200.05,-64.25 190.5,-68.84 200.83,-71.2 200.05,-64.25"/>
</a>
</g>
</g>
<!-- Node7 -->
<g id="Node000007" class="node">
<title>Node7</title>
<g id="a_Node000007"><a xlink:href="classPreferencesTrait.html" target="_top" xlink:title="Represents a trait encoding animal preferences used in behavioral decisions.">
<polygon fill="white" stroke="#666666" points="384.5,-19 289.5,-19 289.5,0 384.5,0 384.5,-19"/>
<text text-anchor="middle" x="337" y="-7" font-family="Helvetica,sans-Serif" font-size="10.00">PreferencesTrait</text>
</a>
</g>
</g>
<!-- Node3&#45;&gt;Node7 -->
<g id="edge91_Node000003_Node000007" class="edge">
<title>Node3&#45;&gt;Node7</title>
<g id="a_edge91_Node000003_Node000007"><a xlink:title=" ">
<path fill="none" stroke="#63b8ff" d="M200.75,-62.6C208.04,-60.33 215.32,-57.64 222,-54.5 239.86,-46.09 240.08,-36.77 258,-28.5 267.75,-24 278.68,-20.49 289.22,-17.78"/>
<polygon fill="#63b8ff" stroke="#63b8ff" points="199.51,-59.31 190.86,-65.44 201.44,-66.04 199.51,-59.31"/>
</a>
</g>
</g>
</g>
</svg>
