<?xml version="1.0" encoding="UTF-8" standalone="no"?>
<!DOCTYPE svg PUBLIC "-//W3C//DTD SVG 1.1//EN"
 "http://www.w3.org/Graphics/SVG/1.1/DTD/svg11.dtd">
<!-- Generated by graphviz version 2.43.0 (0)
 -->
<!-- Title: Logistic4PIndividualGrowthModel Pages: 1 -->
<svg width="242pt" height="126pt"
 viewBox="0.00 0.00 242.00 126.00" xmlns="http://www.w3.org/2000/svg" xmlns:xlink="http://www.w3.org/1999/xlink">
<g id="graph0" class="graph" transform="scale(1 1) rotate(0) translate(4 122)">
<title>Logistic4PIndividualGrowthModel</title>
<!-- Node1 -->
<g id="Node000001" class="node">
<title>Node1</title>
<g id="a_Node000001"><a xlink:title="Implements a 4&#45;parameter logistic individual growth model.">
<polygon fill="#999999" stroke="#666666" points="202.5,-30 53.5,-30 53.5,0 202.5,0 202.5,-30"/>
<text text-anchor="start" x="61.5" y="-18" font-family="Helvetica,sans-Serif" font-size="10.00">Logistic4PIndividualGrowth</text>
<text text-anchor="middle" x="128" y="-7" font-family="Helvetica,sans-Serif" font-size="10.00">Model</text>
</a>
</g>
</g>
<!-- Node2 -->
<g id="Node000002" class="node">
<title>Node2</title>
<g id="a_Node000002"><a xlink:href="classIndividualGrowthModel.html" target="_top" xlink:title="Abstract base class for representing an individual animal growth model.">
<polygon fill="white" stroke="#666666" points="130,-118 0,-118 0,-99 130,-99 130,-118"/>
<text text-anchor="middle" x="65" y="-106" font-family="Helvetica,sans-Serif" font-size="10.00">IndividualGrowthModel</text>
</a>
</g>
</g>
<!-- Node2&#45;&gt;Node1 -->
<g id="edge1_Node000001_Node000002" class="edge">
<title>Node2&#45;&gt;Node1</title>
<g id="a_edge1_Node000001_Node000002"><a xlink:title=" ">
<path fill="none" stroke="#63b8ff" d="M76.96,-90.13C88.91,-72.78 107.06,-46.41 118.19,-30.25"/>
<polygon fill="#63b8ff" stroke="#63b8ff" points="73.83,-88.51 71.04,-98.73 79.59,-92.47 73.83,-88.51"/>
</a>
</g>
</g>
<!-- Node3 -->
<g id="Node000003" class="node">
<title>Node3</title>
<g id="a_Node000003"><a xlink:href="classPreciseDouble.html" target="_top" xlink:title="Class for precise double&#45;precision floating&#45;point arithmetic.">
<polygon fill="white" stroke="#666666" points="234,-118 148,-118 148,-99 234,-99 234,-118"/>
<text text-anchor="middle" x="191" y="-106" font-family="Helvetica,sans-Serif" font-size="10.00">PreciseDouble</text>
</a>
</g>
</g>
<!-- Node3&#45;&gt;Node1 -->
<g id="edge2_Node000001_Node000003" class="edge">
<title>Node3&#45;&gt;Node1</title>
<g id="a_edge2_Node000001_Node000003"><a xlink:title=" ">
<path fill="none" stroke="#9a32cd" stroke-dasharray="5,2" d="M179.04,-90.13C167.09,-72.78 148.94,-46.41 137.81,-30.25"/>
<polygon fill="#9a32cd" stroke="#9a32cd" points="176.41,-92.47 184.96,-98.73 182.17,-88.51 176.41,-92.47"/>
</a>
</g>
<text text-anchor="middle" x="184.5" y="-73" font-family="Helvetica,sans-Serif" font-size="10.00" fill="grey"> A</text>
<text text-anchor="middle" x="184.5" y="-62" font-family="Helvetica,sans-Serif" font-size="10.00" fill="grey">B</text>
<text text-anchor="middle" x="184.5" y="-51" font-family="Helvetica,sans-Serif" font-size="10.00" fill="grey">xmid</text>
</g>
</g>
</svg>
