<?xml version="1.0" encoding="UTF-8" standalone="no"?>
<!DOCTYPE svg PUBLIC "-//W3C//DTD SVG 1.1//EN"
 "http://www.w3.org/Graphics/SVG/1.1/DTD/svg11.dtd">
<!-- Generated by graphviz version 2.43.0 (0)
 -->
<!-- Title: BranchCellResourceGrowth Pages: 1 -->
<svg width="2095pt" height="516pt"
 viewBox="0.00 0.00 2095.00 515.50" xmlns="http://www.w3.org/2000/svg" xmlns:xlink="http://www.w3.org/1999/xlink">
<g id="graph0" class="graph" transform="scale(1 1) rotate(0) translate(4 511.5)">
<title>BranchCellResourceGrowth</title>
<!-- Node1 -->
<g id="Node000001" class="node">
<title>Node1</title>
<g id="a_Node000001"><a xlink:title="Aggregates the growth information of resources for branch terrain cells.">
<polygon fill="#999999" stroke="#666666" points="2087,-192.5 1938,-192.5 1938,-173.5 2087,-173.5 2087,-192.5"/>
<text text-anchor="middle" x="2012.5" y="-180.5" font-family="Helvetica,sans-Serif" font-size="10.00">BranchCellResourceGrowth</text>
</a>
</g>
</g>
<!-- Node2 -->
<g id="Node000002" class="node">
<title>Node2</title>
<g id="a_Node000002"><a xlink:href="classCellResourceInterfaceGrowth.html" target="_top" xlink:title="Manages growth and biomass for a resource cell.">
<polygon fill="white" stroke="#666666" points="1901,-215.5 1742,-215.5 1742,-196.5 1901,-196.5 1901,-215.5"/>
<text text-anchor="middle" x="1821.5" y="-203.5" font-family="Helvetica,sans-Serif" font-size="10.00">CellResourceInterfaceGrowth</text>
</a>
</g>
</g>
<!-- Node2&#45;&gt;Node1 -->
<g id="edge1_Node000001_Node000002" class="edge">
<title>Node2&#45;&gt;Node1</title>
<g id="a_edge1_Node000001_Node000002"><a xlink:title=" ">
<path fill="none" stroke="#63b8ff" d="M1910.88,-195.24C1919.92,-194.15 1929.02,-193.04 1937.87,-191.96"/>
<polygon fill="#63b8ff" stroke="#63b8ff" points="1910.24,-191.8 1900.74,-196.48 1911.09,-198.75 1910.24,-191.8"/>
</a>
</g>
</g>
<!-- Node3 -->
<g id="Node000003" class="node">
<title>Node3</title>
<g id="a_Node000003"><a xlink:href="classEdibleGrowth.html" target="_top" xlink:title="Represents the growth characteristics and current biomasses of an edible object.">
<polygon fill="white" stroke="#666666" points="799.5,-117.5 717.5,-117.5 717.5,-98.5 799.5,-98.5 799.5,-117.5"/>
<text text-anchor="middle" x="758.5" y="-105.5" font-family="Helvetica,sans-Serif" font-size="10.00">EdibleGrowth</text>
</a>
</g>
</g>
<!-- Node3&#45;&gt;Node2 -->
<g id="edge2_Node000002_Node000003" class="edge">
<title>Node3&#45;&gt;Node2</title>
<g id="a_edge2_Node000002_Node000003"><a xlink:title=" ">
<path fill="none" stroke="#63b8ff" d="M809.83,-114.28C866.34,-120.78 960.85,-130 1042.5,-130 1042.5,-130 1042.5,-130 1385.5,-130 1538.25,-130 1716.74,-176.04 1788.37,-196.45"/>
<polygon fill="#63b8ff" stroke="#63b8ff" points="810.07,-110.79 799.73,-113.1 809.25,-117.74 810.07,-110.79"/>
</a>
</g>
</g>
<!-- Node4 -->
<g id="Node000004" class="node">
<title>Node4</title>
<g id="a_Node000004"><a xlink:href="classInstar.html" target="_top" xlink:title="Represents a developmental stage (instar) of an animal in the simulation.">
<polygon fill="white" stroke="#666666" points="93.5,-75.5 49.5,-75.5 49.5,-56.5 93.5,-56.5 93.5,-75.5"/>
<text text-anchor="middle" x="71.5" y="-63.5" font-family="Helvetica,sans-Serif" font-size="10.00">Instar</text>
</a>
</g>
</g>
<!-- Node4&#45;&gt;Node3 -->
<g id="edge3_Node000003_Node000004" class="edge">
<title>Node4&#45;&gt;Node3</title>
<g id="a_edge3_Node000003_Node000004"><a xlink:title=" ">
<path fill="none" stroke="#9a32cd" stroke-dasharray="5,2" d="M103.86,-67.87C192.06,-73.15 449.86,-88.61 664,-102 681.53,-103.1 700.91,-104.34 717.46,-105.4"/>
<polygon fill="#9a32cd" stroke="#9a32cd" points="103.91,-64.37 93.72,-67.27 103.49,-71.36 103.91,-64.37"/>
</a>
</g>
<text text-anchor="middle" x="387" y="-94" font-family="Helvetica,sans-Serif" font-size="10.00" fill="grey"> instar</text>
</g>
<!-- Node5 -->
<g id="Node000005" class="node">
<title>Node5</title>
<g id="a_Node000005"><a xlink:href="classSpeciesGrowth.html" target="_top" xlink:title="Represents the growth characteristics of a species across its instars.">
<polygon fill="white" stroke="#666666" points="431.5,-38.5 342.5,-38.5 342.5,-19.5 431.5,-19.5 431.5,-38.5"/>
<text text-anchor="middle" x="387" y="-26.5" font-family="Helvetica,sans-Serif" font-size="10.00">SpeciesGrowth</text>
</a>
</g>
</g>
<!-- Node4&#45;&gt;Node5 -->
<g id="edge5_Node000005_Node000004" class="edge">
<title>Node4&#45;&gt;Node5</title>
<g id="a_edge5_Node000005_Node000004"><a xlink:title=" ">
<path fill="none" stroke="#9a32cd" stroke-dasharray="5,2" d="M103.43,-59.74C120.38,-56.47 141.78,-52.63 161,-50 223.78,-41.41 296.89,-35.3 342.32,-31.96"/>
<polygon fill="#9a32cd" stroke="#9a32cd" points="102.66,-56.32 93.52,-61.67 104.01,-63.19 102.66,-56.32"/>
</a>
</g>
<text text-anchor="middle" x="217" y="-53" font-family="Helvetica,sans-Serif" font-size="10.00" fill="grey"> lastInstar</text>
</g>
<!-- Node5&#45;&gt;Node3 -->
<g id="edge4_Node000003_Node000005" class="edge">
<title>Node5&#45;&gt;Node3</title>
<g id="a_edge4_Node000003_Node000005"><a xlink:title=" ">
<path fill="none" stroke="#9a32cd" stroke-dasharray="5,2" d="M441.96,-25.65C498.69,-23.84 589.82,-25.78 664,-50 696.5,-60.61 729.27,-84.74 746.03,-98.3"/>
<polygon fill="#9a32cd" stroke="#9a32cd" points="441.65,-22.16 431.78,-26.03 441.91,-29.16 441.65,-22.16"/>
</a>
</g>
<text text-anchor="middle" x="582.5" y="-53" font-family="Helvetica,sans-Serif" font-size="10.00" fill="grey"> speciesGrowth</text>
</g>
<!-- Node6 -->
<g id="Node000006" class="node">
<title>Node6</title>
<g id="a_Node000006"><a xlink:href="classCustomIndexedVector.html" target="_top" xlink:title=" ">
<polygon fill="white" stroke="#666666" points="143,-30 0,-30 0,0 143,0 143,-30"/>
<text text-anchor="start" x="8" y="-18" font-family="Helvetica,sans-Serif" font-size="10.00">CustomIndexedVector</text>
<text text-anchor="middle" x="71.5" y="-7" font-family="Helvetica,sans-Serif" font-size="10.00">&lt; Instar, PreciseDouble &gt;</text>
</a>
</g>
</g>
<!-- Node6&#45;&gt;Node5 -->
<g id="edge6_Node000005_Node000006" class="edge">
<title>Node6&#45;&gt;Node5</title>
<g id="a_edge6_Node000005_Node000006"><a xlink:title=" ">
<path fill="none" stroke="#9a32cd" stroke-dasharray="5,2" d="M153.2,-13.39C189.8,-13.18 233.62,-13.64 273,-16 295.96,-17.37 321.43,-20.19 342.36,-22.85"/>
<polygon fill="#9a32cd" stroke="#9a32cd" points="153.05,-9.89 143.08,-13.47 153.11,-16.89 153.05,-9.89"/>
</a>
</g>
<text text-anchor="middle" x="217" y="-19" font-family="Helvetica,sans-Serif" font-size="10.00" fill="grey"> conversionToWetMass</text>
</g>
<!-- Node7 -->
<g id="Node000007" class="node">
<title>Node7</title>
<g id="a_Node000007"><a xlink:href="classDryMass.html" target="_top" xlink:title="Represents dry mass in the ecosystem simulation.">
<polygon fill="white" stroke="#666666" points="416.5,-132.5 357.5,-132.5 357.5,-113.5 416.5,-113.5 416.5,-132.5"/>
<text text-anchor="middle" x="387" y="-120.5" font-family="Helvetica,sans-Serif" font-size="10.00">DryMass</text>
</a>
</g>
</g>
<!-- Node7&#45;&gt;Node3 -->
<g id="edge7_Node000003_Node000007" class="edge">
<title>Node7&#45;&gt;Node3</title>
<g id="a_edge7_Node000003_Node000007"><a xlink:title=" ">
<path fill="none" stroke="#9a32cd" stroke-dasharray="5,2" d="M426.87,-117.02C448.61,-113.97 476.25,-110.58 501,-109 577.44,-104.13 666.95,-105.35 717.46,-106.68"/>
<polygon fill="#9a32cd" stroke="#9a32cd" points="426.11,-113.6 416.71,-118.48 427.1,-120.52 426.11,-113.6"/>
</a>
</g>
<text text-anchor="middle" x="582.5" y="-112" font-family="Helvetica,sans-Serif" font-size="10.00" fill="grey"> currentTotalDryMass</text>
</g>
<!-- Node8 -->
<g id="Node000008" class="node">
<title>Node8</title>
<g id="a_Node000008"><a xlink:href="classPreciseDouble.html" target="_top" xlink:title="Class for precise double&#45;precision floating&#45;point arithmetic.">
<polygon fill="white" stroke="#666666" points="114.5,-177.5 28.5,-177.5 28.5,-158.5 114.5,-158.5 114.5,-177.5"/>
<text text-anchor="middle" x="71.5" y="-165.5" font-family="Helvetica,sans-Serif" font-size="10.00">PreciseDouble</text>
</a>
</g>
</g>
<!-- Node8&#45;&gt;Node7 -->
<g id="edge8_Node000007_Node000008" class="edge">
<title>Node8&#45;&gt;Node7</title>
<g id="a_edge8_Node000007_Node000008"><a xlink:title=" ">
<path fill="none" stroke="#9a32cd" stroke-dasharray="5,2" d="M124.96,-158.79C136.8,-156.8 149.32,-154.77 161,-153 231.33,-142.35 314.34,-131.81 357.18,-126.51"/>
<polygon fill="#9a32cd" stroke="#9a32cd" points="124.04,-155.4 114.77,-160.52 125.21,-162.3 124.04,-155.4"/>
</a>
</g>
<text text-anchor="middle" x="217" y="-156" font-family="Helvetica,sans-Serif" font-size="10.00" fill="grey"> value</text>
</g>
<!-- Node9 -->
<g id="Node000009" class="node">
<title>Node9</title>
<g id="a_Node000009"><a xlink:href="classWetMass.html" target="_top" xlink:title="Represents wet mass in the ecosystem simulation.">
<polygon fill="white" stroke="#666666" points="417.5,-177.5 356.5,-177.5 356.5,-158.5 417.5,-158.5 417.5,-177.5"/>
<text text-anchor="middle" x="387" y="-165.5" font-family="Helvetica,sans-Serif" font-size="10.00">WetMass</text>
</a>
</g>
</g>
<!-- Node8&#45;&gt;Node9 -->
<g id="edge10_Node000009_Node000008" class="edge">
<title>Node8&#45;&gt;Node9</title>
<g id="a_edge10_Node000009_Node000008"><a xlink:title=" ">
<path fill="none" stroke="#9a32cd" stroke-dasharray="5,2" d="M125,-168C191.24,-168 302.9,-168 356.09,-168"/>
<polygon fill="#9a32cd" stroke="#9a32cd" points="124.78,-164.5 114.78,-168 124.78,-171.5 124.78,-164.5"/>
</a>
</g>
<text text-anchor="middle" x="217" y="-171" font-family="Helvetica,sans-Serif" font-size="10.00" fill="grey"> value</text>
</g>
<!-- Node15 -->
<g id="Node000015" class="node">
<title>Node15</title>
<g id="a_Node000015"><a xlink:href="classTerrainCell.html" target="_top" xlink:title="Represents a single cell in the landscape.">
<polygon fill="white" stroke="#666666" points="1305,-323.5 1237,-323.5 1237,-304.5 1305,-304.5 1305,-323.5"/>
<text text-anchor="middle" x="1271" y="-311.5" font-family="Helvetica,sans-Serif" font-size="10.00">TerrainCell</text>
</a>
</g>
</g>
<!-- Node8&#45;&gt;Node15 -->
<g id="edge28_Node000015_Node000008" class="edge">
<title>Node8&#45;&gt;Node15</title>
<g id="a_edge28_Node000015_Node000008"><a xlink:title=" ">
<path fill="none" stroke="#9a32cd" stroke-dasharray="5,2" d="M94.1,-183.18C143.38,-216.28 268.91,-292 386,-292 386,-292 386,-292 1044.5,-292 1113.14,-292 1192.98,-302.22 1236.86,-308.73"/>
<polygon fill="#9a32cd" stroke="#9a32cd" points="96.04,-180.27 85.81,-177.52 92.1,-186.05 96.04,-180.27"/>
</a>
</g>
<text text-anchor="middle" x="758.5" y="-306" font-family="Helvetica,sans-Serif" font-size="10.00" fill="grey"> hyperVolume</text>
<text text-anchor="middle" x="758.5" y="-295" font-family="Helvetica,sans-Serif" font-size="10.00" fill="grey">size</text>
</g>
<!-- Node9&#45;&gt;Node1 -->
<g id="edge31_Node000001_Node000009" class="edge">
<title>Node9&#45;&gt;Node1</title>
<g id="a_edge31_Node000001_Node000009"><a xlink:title=" ">
<path fill="none" stroke="#9a32cd" stroke-dasharray="5,2" d="M427.92,-168C495.68,-168 637.54,-168 757.5,-168 757.5,-168 757.5,-168 1822.5,-168 1860.52,-168 1902.7,-171.05 1937.56,-174.4"/>
<polygon fill="#9a32cd" stroke="#9a32cd" points="427.7,-164.5 417.7,-168 427.69,-171.5 427.7,-164.5"/>
</a>
</g>
<text text-anchor="middle" x="1384.5" y="-171" font-family="Helvetica,sans-Serif" font-size="10.00" fill="grey"> minimumEdibleBiomass</text>
</g>
<!-- Node9&#45;&gt;Node3 -->
<g id="edge9_Node000003_Node000009" class="edge">
<title>Node9&#45;&gt;Node3</title>
<g id="a_edge9_Node000003_Node000009"><a xlink:title=" ">
<path fill="none" stroke="#9a32cd" stroke-dasharray="5,2" d="M427.42,-158.44C449.06,-153.41 476.41,-147.39 501,-143 521.82,-139.28 650.72,-122.11 717.49,-113.28"/>
<polygon fill="#9a32cd" stroke="#9a32cd" points="426.54,-155.06 417.61,-160.75 428.14,-161.87 426.54,-155.06"/>
</a>
</g>
<text text-anchor="middle" x="582.5" y="-146" font-family="Helvetica,sans-Serif" font-size="10.00" fill="grey"> currentTotalWetMass</text>
</g>
<!-- Node17 -->
<g id="Node000017" class="node">
<title>Node17</title>
<g id="a_Node000017"><a xlink:href="classCellMoistureInterface.html" target="_top" xlink:title="Base interface representing the hydrological and thermal properties of a terrain cell.">
<polygon fill="white" stroke="#666666" points="819.5,-351.5 697.5,-351.5 697.5,-332.5 819.5,-332.5 819.5,-351.5"/>
<text text-anchor="middle" x="758.5" y="-339.5" font-family="Helvetica,sans-Serif" font-size="10.00">CellMoistureInterface</text>
</a>
</g>
</g>
<!-- Node9&#45;&gt;Node17 -->
<g id="edge21_Node000017_Node000009" class="edge">
<title>Node9&#45;&gt;Node17</title>
<g id="a_edge21_Node000017_Node000009"><a xlink:title=" ">
<path fill="none" stroke="#9a32cd" stroke-dasharray="5,2" d="M413.29,-182.7C463.36,-211.4 579.18,-275.76 682,-318 695.23,-323.44 710.17,-328.42 723.25,-332.41"/>
<polygon fill="#9a32cd" stroke="#9a32cd" points="414.86,-179.57 404.45,-177.61 411.37,-185.63 414.86,-179.57"/>
</a>
</g>
<text text-anchor="middle" x="582.5" y="-310" font-family="Helvetica,sans-Serif" font-size="10.00" fill="grey"> totalMaximumResourceCapacity</text>
</g>
<!-- Node10 -->
<g id="Node000010" class="node">
<title>Node10</title>
<g id="a_Node000010"><a xlink:href="classCellResourceInterface.html" target="_top" xlink:title="Interface for a resource in a terrain cell.">
<polygon fill="white" stroke="#666666" points="1672,-280.5 1548,-280.5 1548,-261.5 1672,-261.5 1672,-280.5"/>
<text text-anchor="middle" x="1610" y="-268.5" font-family="Helvetica,sans-Serif" font-size="10.00">CellResourceInterface</text>
</a>
</g>
</g>
<!-- Node10&#45;&gt;Node2 -->
<g id="edge11_Node000002_Node000010" class="edge">
<title>Node10&#45;&gt;Node2</title>
<g id="a_edge11_Node000002_Node000010"><a xlink:title=" ">
<path fill="none" stroke="#9a32cd" stroke-dasharray="5,2" d="M1651.47,-258.44C1691.91,-245.9 1753.2,-226.88 1789.8,-215.52"/>
<polygon fill="#9a32cd" stroke="#9a32cd" points="1650.43,-255.1 1641.91,-261.41 1652.5,-261.79 1650.43,-255.1"/>
</a>
</g>
<text text-anchor="middle" x="1707" y="-250" font-family="Helvetica,sans-Serif" font-size="10.00" fill="grey"> owner</text>
</g>
<!-- Node11 -->
<g id="Node000011" class="node">
<title>Node11</title>
<g id="a_Node000011"><a xlink:href="classEdible.html" target="_top" xlink:title="Represents a generic edible entity within a terrain cell.">
<polygon fill="white" stroke="#666666" points="1511,-280.5 1464,-280.5 1464,-261.5 1511,-261.5 1511,-280.5"/>
<text text-anchor="middle" x="1487.5" y="-268.5" font-family="Helvetica,sans-Serif" font-size="10.00">Edible</text>
</a>
</g>
</g>
<!-- Node11&#45;&gt;Node10 -->
<g id="edge12_Node000010_Node000011" class="edge">
<title>Node11&#45;&gt;Node10</title>
<g id="a_edge12_Node000010_Node000011"><a xlink:title=" ">
<path fill="none" stroke="#63b8ff" d="M1521.4,-271C1529.61,-271 1538.69,-271 1547.79,-271"/>
<polygon fill="#63b8ff" stroke="#63b8ff" points="1521.17,-267.5 1511.17,-271 1521.17,-274.5 1521.17,-267.5"/>
</a>
</g>
</g>
<!-- Node12 -->
<g id="Node000012" class="node">
<title>Node12</title>
<g id="a_Node000012"><a xlink:href="classEdibleID.html" target="_top" xlink:title="Encapsulates a unique identifier for an edible object or resource.">
<polygon fill="white" stroke="#666666" points="1299.5,-280.5 1242.5,-280.5 1242.5,-261.5 1299.5,-261.5 1299.5,-280.5"/>
<text text-anchor="middle" x="1271" y="-268.5" font-family="Helvetica,sans-Serif" font-size="10.00">EdibleID</text>
</a>
</g>
</g>
<!-- Node12&#45;&gt;Node11 -->
<g id="edge13_Node000011_Node000012" class="edge">
<title>Node12&#45;&gt;Node11</title>
<g id="a_edge13_Node000011_Node000012"><a xlink:title=" ">
<path fill="none" stroke="#9a32cd" stroke-dasharray="5,2" d="M1309.76,-271C1354.4,-271 1427.23,-271 1463.9,-271"/>
<polygon fill="#9a32cd" stroke="#9a32cd" points="1309.6,-267.5 1299.6,-271 1309.6,-274.5 1309.6,-267.5"/>
</a>
</g>
<text text-anchor="middle" x="1384.5" y="-274" font-family="Helvetica,sans-Serif" font-size="10.00" fill="grey"> id</text>
</g>
<!-- Node13 -->
<g id="Node000013" class="node">
<title>Node13</title>
<g id="a_Node000013"><a xlink:href="classSpecies.html" target="_top" xlink:title="Represents a generic species in the ecosystem.">
<polygon fill="white" stroke="#666666" points="1298,-221.5 1244,-221.5 1244,-202.5 1298,-202.5 1298,-221.5"/>
<text text-anchor="middle" x="1271" y="-209.5" font-family="Helvetica,sans-Serif" font-size="10.00">Species</text>
</a>
</g>
</g>
<!-- Node13&#45;&gt;Node11 -->
<g id="edge14_Node000011_Node000013" class="edge">
<title>Node13&#45;&gt;Node11</title>
<g id="a_edge14_Node000011_Node000013"><a xlink:title=" ">
<path fill="none" stroke="#9a32cd" stroke-dasharray="5,2" d="M1308.06,-219.93C1343.47,-228 1398.88,-241.36 1446,-256 1451.87,-257.82 1458.14,-260.02 1463.94,-262.16"/>
<polygon fill="#9a32cd" stroke="#9a32cd" points="1308.71,-216.49 1298.18,-217.7 1307.17,-223.32 1308.71,-216.49"/>
</a>
</g>
<text text-anchor="middle" x="1384.5" y="-259" font-family="Helvetica,sans-Serif" font-size="10.00" fill="grey"> mySpecies</text>
</g>
<!-- Node14 -->
<g id="Node000014" class="node">
<title>Node14</title>
<g id="a_Node000014"><a xlink:href="classSpecies_1_1ID.html" target="_top" xlink:title="Unique identifier for a Species.">
<polygon fill="white" stroke="#666666" points="1079,-215.5 1008,-215.5 1008,-196.5 1079,-196.5 1079,-215.5"/>
<text text-anchor="middle" x="1043.5" y="-203.5" font-family="Helvetica,sans-Serif" font-size="10.00">Species::ID</text>
</a>
</g>
</g>
<!-- Node14&#45;&gt;Node13 -->
<g id="edge15_Node000013_Node000014" class="edge">
<title>Node14&#45;&gt;Node13</title>
<g id="a_edge15_Node000013_Node000014"><a xlink:title=" ">
<path fill="none" stroke="#9a32cd" stroke-dasharray="5,2" d="M1089.27,-207.19C1135.41,-208.42 1205.8,-210.29 1243.68,-211.3"/>
<polygon fill="#9a32cd" stroke="#9a32cd" points="1089.33,-203.69 1079.24,-206.92 1089.14,-210.69 1089.33,-203.69"/>
</a>
</g>
<text text-anchor="middle" x="1179" y="-214" font-family="Helvetica,sans-Serif" font-size="10.00" fill="grey"> id</text>
</g>
<!-- Node15&#45;&gt;Node11 -->
<g id="edge16_Node000011_Node000015" class="edge">
<title>Node15&#45;&gt;Node11</title>
<g id="a_edge16_Node000011_Node000015"><a xlink:title=" ">
<path fill="none" stroke="#9a32cd" stroke-dasharray="5,2" d="M1315.14,-309.43C1350.65,-305.11 1402.1,-297.54 1446,-286 1451.8,-284.47 1457.93,-282.44 1463.62,-280.36"/>
<polygon fill="#9a32cd" stroke="#9a32cd" points="1314.63,-305.97 1305.11,-310.62 1315.45,-312.92 1314.63,-305.97"/>
</a>
</g>
<text text-anchor="middle" x="1384.5" y="-310" font-family="Helvetica,sans-Serif" font-size="10.00" fill="grey"> terrainCell</text>
</g>
<!-- Node16 -->
<g id="Node000016" class="node">
<title>Node16</title>
<g id="a_Node000016"><a xlink:href="classPatchApplicator.html" target="_top" xlink:title="Applies patches to a TerrainCell including moisture, resources, obstacles, and habitat domains.">
<polygon fill="white" stroke="#666666" points="1089.5,-388.5 997.5,-388.5 997.5,-369.5 1089.5,-369.5 1089.5,-388.5"/>
<text text-anchor="middle" x="1043.5" y="-376.5" font-family="Helvetica,sans-Serif" font-size="10.00">PatchApplicator</text>
</a>
</g>
</g>
<!-- Node15&#45;&gt;Node16 -->
<g id="edge18_Node000016_Node000015" class="edge">
<title>Node15&#45;&gt;Node16</title>
<g id="a_edge18_Node000016_Node000015"><a xlink:title=" ">
<path fill="none" stroke="#9a32cd" stroke-dasharray="5,2" d="M1259.29,-332.3C1250.37,-345.64 1236.35,-362.76 1219,-371 1178.46,-390.25 1126.47,-389.92 1089.82,-386.21"/>
<polygon fill="#9a32cd" stroke="#9a32cd" points="1262.26,-334.15 1264.63,-323.83 1256.34,-330.42 1262.26,-334.15"/>
</a>
</g>
<text text-anchor="middle" x="1179" y="-390" font-family="Helvetica,sans-Serif" font-size="10.00" fill="grey"> owner</text>
</g>
<!-- Node16&#45;&gt;Node15 -->
<g id="edge17_Node000015_Node000016" class="edge">
<title>Node16&#45;&gt;Node15</title>
<g id="a_edge17_Node000015_Node000016"><a xlink:title=" ">
<path fill="none" stroke="#9a32cd" stroke-dasharray="5,2" d="M1099.58,-368.51C1134.3,-361.22 1179.83,-350.41 1219,-337 1229.84,-333.29 1241.53,-328.11 1250.97,-323.61"/>
<polygon fill="#9a32cd" stroke="#9a32cd" points="1098.71,-365.11 1089.63,-370.56 1100.13,-371.97 1098.71,-365.11"/>
</a>
</g>
<text text-anchor="middle" x="1179" y="-361" font-family="Helvetica,sans-Serif" font-size="10.00" fill="grey"> patchApplicator</text>
</g>
<!-- Node17&#45;&gt;Node16 -->
<g id="edge19_Node000016_Node000017" class="edge">
<title>Node17&#45;&gt;Node16</title>
<g id="a_edge19_Node000016_Node000017"><a xlink:title=" ">
<path fill="none" stroke="#9a32cd" stroke-dasharray="5,2" d="M830.1,-349.54C865.53,-353.5 909.08,-358.64 948,-364 964.13,-366.22 981.76,-368.94 997.37,-371.45"/>
<polygon fill="#9a32cd" stroke="#9a32cd" points="830.18,-346.03 819.85,-348.4 829.41,-352.99 830.18,-346.03"/>
</a>
</g>
<text text-anchor="middle" x="900.5" y="-367" font-family="Helvetica,sans-Serif" font-size="10.00" fill="grey"> cellMoisture</text>
</g>
<!-- Node18 -->
<g id="Node000018" class="node">
<title>Node18</title>
<g id="a_Node000018"><a xlink:href="classCellElement.html" target="_top" xlink:title="Base class for any modifiable element contained within a terrain cell.">
<polygon fill="white" stroke="#666666" points="425,-409.5 349,-409.5 349,-390.5 425,-390.5 425,-409.5"/>
<text text-anchor="middle" x="387" y="-397.5" font-family="Helvetica,sans-Serif" font-size="10.00">CellElement</text>
</a>
</g>
</g>
<!-- Node18&#45;&gt;Node10 -->
<g id="edge30_Node000010_Node000018" class="edge">
<title>Node18&#45;&gt;Node10</title>
<g id="a_edge30_Node000010_Node000018"><a xlink:title=" ">
<path fill="none" stroke="#63b8ff" d="M435.07,-411.35C504.97,-427.19 640.56,-454 757.5,-454 757.5,-454 757.5,-454 1488.5,-454 1572.38,-454 1601.16,-318.23 1607.53,-280.58"/>
<polygon fill="#63b8ff" stroke="#63b8ff" points="435.77,-407.92 425.24,-409.1 434.2,-414.75 435.77,-407.92"/>
</a>
</g>
</g>
<!-- Node18&#45;&gt;Node17 -->
<g id="edge20_Node000017_Node000018" class="edge">
<title>Node18&#45;&gt;Node17</title>
<g id="a_edge20_Node000017_Node000018"><a xlink:title=" ">
<path fill="none" stroke="#63b8ff" d="M435.04,-391.37C455.31,-387.73 479.3,-383.53 501,-380 568.1,-369.09 645.28,-357.83 697.31,-350.43"/>
<polygon fill="#63b8ff" stroke="#63b8ff" points="434.33,-387.94 425.11,-393.16 435.57,-394.83 434.33,-387.94"/>
</a>
</g>
</g>
<!-- Node19 -->
<g id="Node000019" class="node">
<title>Node19</title>
<g id="a_Node000019"><a xlink:href="classCellObstacleInterface.html" target="_top" xlink:title="Interface for managing obstacles in a terrain cell.">
<polygon fill="white" stroke="#666666" points="819.5,-388.5 697.5,-388.5 697.5,-369.5 819.5,-369.5 819.5,-388.5"/>
<text text-anchor="middle" x="758.5" y="-376.5" font-family="Helvetica,sans-Serif" font-size="10.00">CellObstacleInterface</text>
</a>
</g>
</g>
<!-- Node18&#45;&gt;Node19 -->
<g id="edge23_Node000019_Node000018" class="edge">
<title>Node18&#45;&gt;Node19</title>
<g id="a_edge23_Node000019_Node000018"><a xlink:title=" ">
<path fill="none" stroke="#63b8ff" d="M435.36,-397.31C502.18,-393.51 624.14,-386.58 697.31,-382.42"/>
<polygon fill="#63b8ff" stroke="#63b8ff" points="434.91,-393.83 425.12,-397.89 435.3,-400.82 434.91,-393.83"/>
</a>
</g>
</g>
<!-- Node20 -->
<g id="Node000020" class="node">
<title>Node20</title>
<g id="a_Node000020"><a xlink:href="classCellHabitatDomainInterface.html" target="_top" xlink:title="Represents the habitat&#45;domain information associated with a terrain cell.">
<polygon fill="white" stroke="#666666" points="835,-425.5 682,-425.5 682,-406.5 835,-406.5 835,-425.5"/>
<text text-anchor="middle" x="758.5" y="-413.5" font-family="Helvetica,sans-Serif" font-size="10.00">CellHabitatDomainInterface</text>
</a>
</g>
</g>
<!-- Node18&#45;&gt;Node20 -->
<g id="edge25_Node000020_Node000018" class="edge">
<title>Node18&#45;&gt;Node20</title>
<g id="a_edge25_Node000020_Node000018"><a xlink:title=" ">
<path fill="none" stroke="#63b8ff" d="M435.44,-402.05C497.74,-404.75 607.86,-409.52 681.76,-412.72"/>
<polygon fill="#63b8ff" stroke="#63b8ff" points="435.26,-398.54 425.12,-401.61 434.96,-405.54 435.26,-398.54"/>
</a>
</g>
</g>
<!-- Node19&#45;&gt;Node16 -->
<g id="edge22_Node000016_Node000019" class="edge">
<title>Node19&#45;&gt;Node16</title>
<g id="a_edge22_Node000016_Node000019"><a xlink:title=" ">
<path fill="none" stroke="#9a32cd" stroke-dasharray="5,2" d="M829.76,-379C882.19,-379 952.29,-379 997.42,-379"/>
<polygon fill="#9a32cd" stroke="#9a32cd" points="829.52,-375.5 819.52,-379 829.52,-382.5 829.52,-375.5"/>
</a>
</g>
<text text-anchor="middle" x="900.5" y="-382" font-family="Helvetica,sans-Serif" font-size="10.00" fill="grey"> cellObstacle</text>
</g>
<!-- Node20&#45;&gt;Node16 -->
<g id="edge24_Node000016_Node000020" class="edge">
<title>Node20&#45;&gt;Node16</title>
<g id="a_edge24_Node000016_Node000020"><a xlink:title=" ">
<path fill="none" stroke="#9a32cd" stroke-dasharray="5,2" d="M845.46,-405.24C877.64,-401.16 914.51,-396.44 948,-392 964.09,-389.87 981.71,-387.46 997.33,-385.31"/>
<polygon fill="#9a32cd" stroke="#9a32cd" points="844.67,-401.81 835.19,-406.54 845.55,-408.76 844.67,-401.81"/>
</a>
</g>
<text text-anchor="middle" x="900.5" y="-406" font-family="Helvetica,sans-Serif" font-size="10.00" fill="grey"> cellHabitatDomain</text>
</g>
<!-- Node21 -->
<g id="Node000021" class="node">
<title>Node21</title>
<g id="a_Node000021"><a xlink:href="classCustomIndexedVector.html" target="_top" xlink:title=" ">
<polygon fill="white" stroke="#666666" points="483,-507.5 291,-507.5 291,-466.5 483,-466.5 483,-507.5"/>
<text text-anchor="start" x="299" y="-495.5" font-family="Helvetica,sans-Serif" font-size="10.00">CustomIndexedVector</text>
<text text-anchor="start" x="299" y="-484.5" font-family="Helvetica,sans-Serif" font-size="10.00">&lt; AnimalSpeciesID, CustomIndexed</text>
<text text-anchor="middle" x="387" y="-473.5" font-family="Helvetica,sans-Serif" font-size="10.00">Vector&lt; Instar, bool &gt; &gt;</text>
</a>
</g>
</g>
<!-- Node21&#45;&gt;Node20 -->
<g id="edge26_Node000020_Node000021" class="edge">
<title>Node21&#45;&gt;Node20</title>
<g id="a_edge26_Node000020_Node000021"><a xlink:title=" ">
<path fill="none" stroke="#9a32cd" stroke-dasharray="5,2" d="M492.98,-466.83C563.52,-453.27 653.27,-436.03 708,-425.51"/>
<polygon fill="#9a32cd" stroke="#9a32cd" points="492.32,-463.39 483.16,-468.72 493.64,-470.27 492.32,-463.39"/>
</a>
</g>
<text text-anchor="middle" x="582.5" y="-467" font-family="Helvetica,sans-Serif" font-size="10.00" fill="grey"> habitatDomainStatus</text>
</g>
<!-- Node22 -->
<g id="Node000022" class="node">
<title>Node22</title>
<g id="a_Node000022"><a xlink:href="classPointMap.html" target="_top" xlink:title="Represents a point in a discrete map coordinate system.">
<polygon fill="white" stroke="#666666" points="1074.5,-339.5 1012.5,-339.5 1012.5,-320.5 1074.5,-320.5 1074.5,-339.5"/>
<text text-anchor="middle" x="1043.5" y="-327.5" font-family="Helvetica,sans-Serif" font-size="10.00">PointMap</text>
</a>
</g>
</g>
<!-- Node22&#45;&gt;Node15 -->
<g id="edge27_Node000015_Node000022" class="edge">
<title>Node22&#45;&gt;Node15</title>
<g id="a_edge27_Node000015_Node000022"><a xlink:title=" ">
<path fill="none" stroke="#9a32cd" stroke-dasharray="5,2" d="M1085.11,-327.12C1128.5,-324.04 1196.46,-319.22 1236.78,-316.36"/>
<polygon fill="#9a32cd" stroke="#9a32cd" points="1084.64,-323.64 1074.91,-327.84 1085.13,-330.63 1084.64,-323.64"/>
</a>
</g>
<text text-anchor="middle" x="1179" y="-325" font-family="Helvetica,sans-Serif" font-size="10.00" fill="grey"> position</text>
</g>
<!-- Node23 -->
<g id="Node000023" class="node">
<title>Node23</title>
<g id="a_Node000023"><a xlink:href="classCustomIndexedVector.html" target="_top" xlink:title="A vector container indexed by a custom type with bounds checking.">
<polygon fill="white" stroke="#666666" points="1121,-264 966,-264 966,-234 1121,-234 1121,-264"/>
<text text-anchor="start" x="974" y="-252" font-family="Helvetica,sans-Serif" font-size="10.00">CustomIndexedVector</text>
<text text-anchor="middle" x="1043.5" y="-241" font-family="Helvetica,sans-Serif" font-size="10.00">&lt; IndexType, ContentType &gt;</text>
</a>
</g>
</g>
<!-- Node23&#45;&gt;Node15 -->
<g id="edge29_Node000015_Node000023" class="edge">
<title>Node23&#45;&gt;Node15</title>
<g id="a_edge29_Node000015_Node000023"><a xlink:title=" ">
<path fill="none" stroke="#9a32cd" stroke-dasharray="5,2" d="M1131.65,-244.59C1160.92,-246.5 1192.77,-252.51 1219,-267 1230.36,-273.28 1227.66,-280.98 1237,-290 1242.4,-295.22 1248.99,-300.23 1254.85,-304.31"/>
<polygon fill="#9a32cd" stroke="#9a32cd" points="1131.58,-241.08 1121.42,-244.08 1131.23,-248.07 1131.58,-241.08"/>
</a>
</g>
<text text-anchor="middle" x="1179" y="-270" font-family="Helvetica,sans-Serif" font-size="10.00" fill="grey"> animals</text>
</g>
</g>
</svg>
