<?xml version="1.0" encoding="UTF-8" standalone="no"?>
<!DOCTYPE svg PUBLIC "-//W3C//DTD SVG 1.1//EN"
 "http://www.w3.org/Graphics/SVG/1.1/DTD/svg11.dtd">
<!-- Generated by graphviz version 2.43.0 (0)
 -->
<!-- Title: Console Pages: 1 -->
<svg width="157pt" height="170pt"
 viewBox="0.00 0.00 157.00 170.00" xmlns="http://www.w3.org/2000/svg" xmlns:xlink="http://www.w3.org/1999/xlink">

<svg id="main" version="1.1" xmlns="http://www.w3.org/2000/svg" xmlns:xlink="http://www.w3.org/1999/xlink" xml:space="preserve" onload="init(evt)">
<style type="text/css"><![CDATA[
.node, .edge {opacity: 0.7;}
.node.selected, .edge.selected {opacity: 1;}
.edge:hover path { stroke: red; }
.edge:hover polygon { stroke: red; fill: red; }
]]></style>
<script type="application/ecmascript" xlink:href="svg.min.js"/>
<svg id="graph" class="graph">
<g id="graph0" class="graph" transform="scale(1 1) rotate(0) translate(4 166)">
<title>Console</title>
<!-- Node1 -->
<g id="Node000001" class="node">
<title>Node1</title>
<g id="a_Node000001"><a xlink:title="Console&#45;based implementation of the View interface.">
<polygon fill="#999999" stroke="#666666" points="65,-19 9,-19 9,0 65,0 65,-19"/>
<text text-anchor="middle" x="37" y="-7" font-family="Helvetica,sans-Serif" font-size="10.00">Console</text>
</a>
</g>
</g>
<!-- Node2 -->
<g id="Node000002" class="node">
<title>Node2</title>
<g id="a_Node000002"><a xlink:href="classView.html" target="_top" xlink:title="Abstract base class representing a view in the MVC pattern.">
<polygon fill="white" stroke="#666666" points="90.5,-85 49.5,-85 49.5,-66 90.5,-66 90.5,-85"/>
<text text-anchor="middle" x="70" y="-73" font-family="Helvetica,sans-Serif" font-size="10.00">View</text>
</a>
</g>
</g>
<!-- Node2&#45;&gt;Node1 -->
<g id="edge1_Node000001_Node000002" class="edge">
<title>Node2&#45;&gt;Node1</title>
<g id="a_edge1_Node000001_Node000002"><a xlink:title=" ">
<path fill="none" stroke="#63b8ff" d="M56.65,-57.25C54.62,-54.25 52.65,-51.1 51,-48 45.97,-38.56 41.92,-26.9 39.5,-19.12"/>
<polygon fill="#63b8ff" stroke="#63b8ff" points="53.98,-59.53 62.69,-65.57 59.65,-55.42 53.98,-59.53"/>
</a>
</g>
</g>
<!-- Node3 -->
<g id="Node000003" class="node">
<title>Node3</title>
<g id="a_Node000003"><a xlink:href="classModel.html" target="_top" xlink:title="Abstract base class for all simulation models in the Weaver framework.">
<polygon fill="white" stroke="#666666" points="136.5,-19 89.5,-19 89.5,0 136.5,0 136.5,-19"/>
<text text-anchor="middle" x="113" y="-7" font-family="Helvetica,sans-Serif" font-size="10.00">Model</text>
</a>
</g>
</g>
<!-- Node2&#45;&gt;Node3 -->
<g id="edge3_Node000003_Node000002" class="edge">
<title>Node2&#45;&gt;Node3</title>
<g id="a_edge3_Node000003_Node000002"><a xlink:title=" ">
<path fill="none" stroke="#9a32cd" stroke-dasharray="5,2" d="M64.37,-55.98C63.47,-49.6 63.73,-42.65 67,-37 71.89,-28.54 80.62,-22.54 89.16,-18.42"/>
<polygon fill="#9a32cd" stroke="#9a32cd" points="60.99,-56.89 66.65,-65.84 67.81,-55.31 60.99,-56.89"/>
</a>
</g>
<text text-anchor="middle" x="80.5" y="-40" font-family="Helvetica,sans-Serif" font-size="10.00" fill="grey"> view</text>
</g>
<!-- Node3&#45;&gt;Node2 -->
<g id="edge2_Node000002_Node000003" class="edge">
<title>Node3&#45;&gt;Node2</title>
<g id="a_edge2_Node000002_Node000003"><a xlink:title=" ">
<path fill="none" stroke="#9a32cd" stroke-dasharray="5,2" d="M107.46,-28.85C105.09,-35.22 101.94,-42.2 98,-48 93.41,-54.75 86.84,-61.09 81.21,-65.87"/>
<polygon fill="#9a32cd" stroke="#9a32cd" points="110.89,-29.65 110.74,-19.05 104.25,-27.43 110.89,-29.65"/>
</a>
</g>
<text text-anchor="middle" x="121" y="-40" font-family="Helvetica,sans-Serif" font-size="10.00" fill="grey"> model</text>
</g>
<!-- Node4 -->
<g id="Node000004" class="node">
<title>Node4</title>
<g id="a_Node000004"><a xlink:href="classCustomIndexedVector.html" target="_top" xlink:title=" ">
<polygon fill="white" stroke="#666666" points="140,-162 0,-162 0,-132 140,-132 140,-162"/>
<text text-anchor="start" x="8" y="-150" font-family="Helvetica,sans-Serif" font-size="10.00">CustomIndexedVector</text>
<text text-anchor="middle" x="70" y="-139" font-family="Helvetica,sans-Serif" font-size="10.00">&lt; RunMode, std::string &gt;</text>
</a>
</g>
</g>
<!-- Node4&#45;&gt;Node2 -->
<g id="edge4_Node000002_Node000004" class="edge">
<title>Node4&#45;&gt;Node2</title>
<g id="a_edge4_Node000002_Node000004"><a xlink:title=" ">
<path fill="none" stroke="#9a32cd" stroke-dasharray="5,2" d="M70,-121.56C70,-108.95 70,-94.35 70,-85.27"/>
<polygon fill="#9a32cd" stroke="#9a32cd" points="66.5,-121.94 70,-131.94 73.5,-121.94 66.5,-121.94"/>
</a>
</g>
<text text-anchor="middle" x="109.5" y="-106" font-family="Helvetica,sans-Serif" font-size="10.00" fill="grey"> runModesTitles</text>
</g>
</g>
</svg>
</svg>

<style type='text/css'>
<![CDATA[
[data-mouse-over-selected='false'] { opacity: 0.7; }
[data-mouse-over-selected='true']  { opacity: 1.0; }
]]>
</style>
<script type="application/ecmascript"><![CDATA[
document.addEventListener('DOMContentLoaded', (event) => {
  highlightEdges();
  highlightAdjacentNodes();
});
]]></script>
</svg>
