<?xml version="1.0" encoding="UTF-8" standalone="no"?>
<!DOCTYPE svg PUBLIC "-//W3C//DTD SVG 1.1//EN"
 "http://www.w3.org/Graphics/SVG/1.1/DTD/svg11.dtd">
<!-- Generated by graphviz version 2.43.0 (0)
 -->
<!-- Title: EnumClass::stringToEnumValue Pages: 1 -->
<svg width="510pt" height="64pt"
 viewBox="0.00 0.00 510.00 64.00" xmlns="http://www.w3.org/2000/svg" xmlns:xlink="http://www.w3.org/1999/xlink">
<g id="graph0" class="graph" transform="scale(1 1) rotate(0) translate(4 60)">
<title>EnumClass::stringToEnumValue</title>
<!-- Node1 -->
<g id="Node000001" class="node">
<title>Node1</title>
<g id="a_Node000001"><a xlink:title="Converts a string to its corresponding enum value.">
<polygon fill="#999999" stroke="#666666" points="170,-37 0,-37 0,-18 170,-18 170,-37"/>
<text text-anchor="middle" x="85" y="-25" font-family="Helvetica,sans-Serif" font-size="10.00">EnumClass::stringToEnumValue</text>
</a>
</g>
</g>
<!-- Node2 -->
<g id="Node000002" class="node">
<title>Node2</title>
<g id="a_Node000002"><a xlink:href="classEnumClass.html#aa35e76515bc5d03e6088995795f8bdbe" target="_top" xlink:title="Generates a mapping from strings to enum values.">
<polygon fill="white" stroke="#666666" points="347,-56 206,-56 206,-37 347,-37 347,-56"/>
<text text-anchor="middle" x="276.5" y="-44" font-family="Helvetica,sans-Serif" font-size="10.00">EnumClass::generateMap</text>
</a>
</g>
</g>
<!-- Node1&#45;&gt;Node2 -->
<g id="edge1_Node000001_Node000002" class="edge">
<title>Node1&#45;&gt;Node2</title>
<g id="a_edge1_Node000001_Node000002"><a xlink:title=" ">
<path fill="none" stroke="#63b8ff" d="M170.22,-35.94C178.65,-36.79 187.2,-37.65 195.59,-38.49"/>
<polygon fill="#63b8ff" stroke="#63b8ff" points="195.42,-41.99 205.72,-39.5 196.12,-35.02 195.42,-41.99"/>
</a>
</g>
</g>
<!-- Node4 -->
<g id="Node000004" class="node">
<title>Node4</title>
<g id="a_Node000004"><a xlink:href="classEnumClass.html#a702ecb20edb0ee508a2baf390a5ce9df" target="_top" xlink:title="Returns a comma&#45;separated string of all enum names.">
<polygon fill="white" stroke="#666666" points="342,-19 211,-19 211,0 342,0 342,-19"/>
<text text-anchor="middle" x="276.5" y="-7" font-family="Helvetica,sans-Serif" font-size="10.00">EnumClass::printValues</text>
</a>
</g>
</g>
<!-- Node1&#45;&gt;Node4 -->
<g id="edge3_Node000001_Node000004" class="edge">
<title>Node1&#45;&gt;Node4</title>
<g id="a_edge3_Node000001_Node000004"><a xlink:title=" ">
<path fill="none" stroke="#63b8ff" d="M170.22,-19.5C180.35,-18.54 190.63,-17.56 200.61,-16.61"/>
<polygon fill="#63b8ff" stroke="#63b8ff" points="201.25,-20.07 210.88,-15.64 200.59,-13.1 201.25,-20.07"/>
</a>
</g>
</g>
<!-- Node3 -->
<g id="Node000003" class="node">
<title>Node3</title>
<g id="a_Node000003"><a xlink:href="classEnumClass.html#a0bdceff12c198d8a60bf39669fc5edc7" target="_top" xlink:title="Converts an enum value to its string representation.">
<polygon fill="white" stroke="#666666" points="502,-56 383,-56 383,-37 502,-37 502,-56"/>
<text text-anchor="middle" x="442.5" y="-44" font-family="Helvetica,sans-Serif" font-size="10.00">EnumClass::to_string</text>
</a>
</g>
</g>
<!-- Node2&#45;&gt;Node3 -->
<g id="edge2_Node000002_Node000003" class="edge">
<title>Node2&#45;&gt;Node3</title>
<g id="a_edge2_Node000002_Node000003"><a xlink:title=" ">
<path fill="none" stroke="#63b8ff" d="M347.05,-46.5C355.55,-46.5 364.24,-46.5 372.73,-46.5"/>
<polygon fill="#63b8ff" stroke="#63b8ff" points="372.97,-50 382.97,-46.5 372.97,-43 372.97,-50"/>
</a>
</g>
</g>
</g>
</svg>
