<?xml version="1.0" encoding="UTF-8" standalone="no"?>
<!DOCTYPE svg PUBLIC "-//W3C//DTD SVG 1.1//EN"
 "http://www.w3.org/Graphics/SVG/1.1/DTD/svg11.dtd">
<!-- Generated by graphviz version 2.43.0 (0)
 -->
<!-- Title: /home/runner/work/Weaver/Weaver/include/App/Model/IBM/Landscape/LivingBeings/Animals/Genetics/Correlosome.h Pages: 1 -->
<svg width="1445pt" height="401pt"
 viewBox="0.00 0.00 1445.00 401.00" xmlns="http://www.w3.org/2000/svg" xmlns:xlink="http://www.w3.org/1999/xlink">
<g id="graph0" class="graph" transform="scale(1 1) rotate(0) translate(4 397)">
<title>/home/runner/work/Weaver/Weaver/include/App/Model/IBM/Landscape/LivingBeings/Animals/Genetics/Correlosome.h</title>
<!-- Node1 -->
<g id="Node000001" class="node">
<title>Node1</title>
<g id="a_Node000001"><a xlink:title="Defines the Correlosome class used in the genetic model.">
<polygon fill="#999999" stroke="#666666" points="1331,-393 1152,-393 1152,-341 1331,-341 1331,-393"/>
<text text-anchor="start" x="1160" y="-381" font-family="Helvetica,sans-Serif" font-size="10.00">/home/runner/work/Weaver</text>
<text text-anchor="start" x="1160" y="-370" font-family="Helvetica,sans-Serif" font-size="10.00">/Weaver/include/App/Model</text>
<text text-anchor="start" x="1160" y="-359" font-family="Helvetica,sans-Serif" font-size="10.00">/IBM/Landscape/LivingBeings</text>
<text text-anchor="middle" x="1241.5" y="-348" font-family="Helvetica,sans-Serif" font-size="10.00">/Animals/Genetics/Correlosome.h</text>
</a>
</g>
</g>
<!-- Node2 -->
<g id="Node000002" class="node">
<title>Node2</title>
<g id="a_Node000002"><a xlink:title=" ">
<polygon fill="#e0e0e0" stroke="#999999" points="47,-156.5 0,-156.5 0,-137.5 47,-137.5 47,-156.5"/>
<text text-anchor="middle" x="23.5" y="-144.5" font-family="Helvetica,sans-Serif" font-size="10.00">vector</text>
</a>
</g>
</g>
<!-- Node1&#45;&gt;Node2 -->
<g id="edge1_Node000001_Node000002" class="edge">
<title>Node1&#45;&gt;Node2</title>
<g id="a_edge1_Node000001_Node000002"><a xlink:title=" ">
<path fill="none" stroke="#63b8ff" d="M1151.99,-350.09C959.55,-315.86 492.12,-232.61 100.5,-162 86.22,-159.43 70.46,-156.56 56.93,-154.1"/>
<polygon fill="#63b8ff" stroke="#63b8ff" points="57.55,-150.66 47.09,-152.31 56.3,-157.54 57.55,-150.66"/>
</a>
</g>
</g>
<!-- Node3 -->
<g id="Node000003" class="node">
<title>Node3</title>
<g id="a_Node000003"><a xlink:title=" ">
<polygon fill="#e0e0e0" stroke="#999999" points="1399,-90.5 1342,-90.5 1342,-71.5 1399,-71.5 1399,-90.5"/>
<text text-anchor="middle" x="1370.5" y="-78.5" font-family="Helvetica,sans-Serif" font-size="10.00">ostream</text>
</a>
</g>
</g>
<!-- Node1&#45;&gt;Node3 -->
<g id="edge2_Node000001_Node000003" class="edge">
<title>Node1&#45;&gt;Node3</title>
<g id="a_edge2_Node000001_Node000003"><a xlink:title=" ">
<path fill="none" stroke="#63b8ff" d="M1285.06,-340.81C1320.95,-317.07 1368.74,-277.75 1386.5,-228 1402.17,-184.11 1387.31,-128.49 1377.53,-100.24"/>
<polygon fill="#63b8ff" stroke="#63b8ff" points="1380.7,-98.73 1373.98,-90.54 1374.13,-101.13 1380.7,-98.73"/>
</a>
</g>
</g>
<!-- Node4 -->
<g id="Node000004" class="node">
<title>Node4</title>
<g id="a_Node000004"><a xlink:href="Allele_8h.html" target="_top" xlink:title="Defines the Allele class, representing a genetic allele with a unique identifier, a numerical value,...">
<polygon fill="white" stroke="#666666" points="1314,-305 1169,-305 1169,-264 1314,-264 1314,-305"/>
<text text-anchor="start" x="1177" y="-293" font-family="Helvetica,sans-Serif" font-size="10.00">App/Model/IBM/Landscape</text>
<text text-anchor="start" x="1177" y="-282" font-family="Helvetica,sans-Serif" font-size="10.00">/LivingBeings/Animals</text>
<text text-anchor="middle" x="1241.5" y="-271" font-family="Helvetica,sans-Serif" font-size="10.00">/Species/Genetics/Allele.h</text>
</a>
</g>
</g>
<!-- Node1&#45;&gt;Node4 -->
<g id="edge3_Node000001_Node000004" class="edge">
<title>Node1&#45;&gt;Node4</title>
<g id="a_edge3_Node000001_Node000004"><a xlink:title=" ">
<path fill="none" stroke="#63b8ff" d="M1241.5,-340.97C1241.5,-332.86 1241.5,-323.78 1241.5,-315.35"/>
<polygon fill="#63b8ff" stroke="#63b8ff" points="1245,-315.15 1241.5,-305.15 1238,-315.15 1245,-315.15"/>
</a>
</g>
</g>
<!-- Node4&#45;&gt;Node3 -->
<g id="edge5_Node000004_Node000003" class="edge">
<title>Node4&#45;&gt;Node3</title>
<g id="a_edge5_Node000004_Node000003"><a xlink:title=" ">
<path fill="none" stroke="#63b8ff" d="M1243.17,-263.8C1245.36,-245.78 1250.34,-218.83 1261.5,-198 1284.27,-155.51 1326.62,-117.07 1351.29,-96.88"/>
<polygon fill="#63b8ff" stroke="#63b8ff" points="1353.61,-99.52 1359.22,-90.53 1349.23,-94.05 1353.61,-99.52"/>
</a>
</g>
</g>
<!-- Node5 -->
<g id="Node000005" class="node">
<title>Node5</title>
<g id="a_Node000005"><a xlink:title=" ">
<polygon fill="#e0e0e0" stroke="#999999" points="1377,-228 1270,-228 1270,-198 1377,-198 1377,-228"/>
<text text-anchor="start" x="1278" y="-216" font-family="Helvetica,sans-Serif" font-size="10.00">boost/serialization</text>
<text text-anchor="middle" x="1323.5" y="-205" font-family="Helvetica,sans-Serif" font-size="10.00">/export.hpp</text>
</a>
</g>
</g>
<!-- Node4&#45;&gt;Node5 -->
<g id="edge4_Node000004_Node000005" class="edge">
<title>Node4&#45;&gt;Node5</title>
<g id="a_edge4_Node000004_Node000005"><a xlink:title=" ">
<path fill="none" stroke="#63b8ff" d="M1264.78,-263.77C1275.49,-254.69 1288.21,-243.91 1299.06,-234.71"/>
<polygon fill="#63b8ff" stroke="#63b8ff" points="1301.57,-237.17 1306.94,-228.04 1297.05,-231.83 1301.57,-237.17"/>
</a>
</g>
</g>
<!-- Node6 -->
<g id="Node000006" class="node">
<title>Node6</title>
<g id="a_Node000006"><a xlink:href="Random_8h.html" target="_top" xlink:title="Defines the Random class that provides various random number generation utilities.">
<polygon fill="white" stroke="#666666" points="607,-228 484,-228 484,-198 607,-198 607,-228"/>
<text text-anchor="start" x="492" y="-216" font-family="Helvetica,sans-Serif" font-size="10.00">App/Model/IBM/Maths</text>
<text text-anchor="middle" x="545.5" y="-205" font-family="Helvetica,sans-Serif" font-size="10.00">/Random.h</text>
</a>
</g>
</g>
<!-- Node4&#45;&gt;Node6 -->
<g id="edge6_Node000004_Node000006" class="edge">
<title>Node4&#45;&gt;Node6</title>
<g id="a_edge6_Node000004_Node000006"><a xlink:title=" ">
<path fill="none" stroke="#63b8ff" d="M1168.99,-276.26C1035.12,-262.89 750.71,-234.49 617.35,-221.17"/>
<polygon fill="#63b8ff" stroke="#63b8ff" points="617.54,-217.68 607.24,-220.16 616.84,-224.64 617.54,-217.68"/>
</a>
</g>
</g>
<!-- Node6&#45;&gt;Node2 -->
<g id="edge12_Node000006_Node000002" class="edge">
<title>Node6&#45;&gt;Node2</title>
<g id="a_edge12_Node000006_Node000002"><a xlink:title=" ">
<path fill="none" stroke="#63b8ff" d="M483.95,-210.55C391.22,-207.27 210.65,-196.6 61.5,-162 58.83,-161.38 56.09,-160.63 53.37,-159.79"/>
<polygon fill="#63b8ff" stroke="#63b8ff" points="54.32,-156.42 43.72,-156.51 52.07,-163.04 54.32,-156.42"/>
</a>
</g>
</g>
<!-- Node7 -->
<g id="Node000007" class="node">
<title>Node7</title>
<g id="a_Node000007"><a xlink:title=" ">
<polygon fill="#e0e0e0" stroke="#999999" points="970,-24.5 923,-24.5 923,-5.5 970,-5.5 970,-24.5"/>
<text text-anchor="middle" x="946.5" y="-12.5" font-family="Helvetica,sans-Serif" font-size="10.00">cmath</text>
</a>
</g>
</g>
<!-- Node6&#45;&gt;Node7 -->
<g id="edge7_Node000006_Node000007" class="edge">
<title>Node6&#45;&gt;Node7</title>
<g id="a_edge7_Node000006_Node000007"><a xlink:title=" ">
<path fill="none" stroke="#63b8ff" d="M607.15,-211.82C759.78,-210.74 1145.8,-203.84 1184.5,-162 1220.7,-122.85 1151.31,-79.55 1129.5,-66 1071.26,-29.83 1044.61,-51.46 979.5,-30 977.87,-29.46 976.22,-28.88 974.55,-28.27"/>
<polygon fill="#63b8ff" stroke="#63b8ff" points="975.73,-24.97 965.14,-24.54 973.15,-31.48 975.73,-24.97"/>
</a>
</g>
</g>
<!-- Node8 -->
<g id="Node000008" class="node">
<title>Node8</title>
<g id="a_Node000008"><a xlink:title=" ">
<polygon fill="#e0e0e0" stroke="#999999" points="1175,-156.5 1122,-156.5 1122,-137.5 1175,-137.5 1175,-156.5"/>
<text text-anchor="middle" x="1148.5" y="-144.5" font-family="Helvetica,sans-Serif" font-size="10.00">stdlib.h</text>
</a>
</g>
</g>
<!-- Node6&#45;&gt;Node8 -->
<g id="edge8_Node000006_Node000008" class="edge">
<title>Node6&#45;&gt;Node8</title>
<g id="a_edge8_Node000006_Node000008"><a xlink:title=" ">
<path fill="none" stroke="#63b8ff" d="M607.38,-212.42C712.77,-211.85 933.2,-205.01 1113.5,-162 1115.81,-161.45 1118.17,-160.77 1120.51,-160.02"/>
<polygon fill="#63b8ff" stroke="#63b8ff" points="1121.74,-163.3 1129.94,-156.59 1119.34,-156.72 1121.74,-163.3"/>
</a>
</g>
</g>
<!-- Node9 -->
<g id="Node000009" class="node">
<title>Node9</title>
<g id="a_Node000009"><a xlink:title=" ">
<polygon fill="#e0e0e0" stroke="#999999" points="196.5,-24.5 136.5,-24.5 136.5,-5.5 196.5,-5.5 196.5,-24.5"/>
<text text-anchor="middle" x="166.5" y="-12.5" font-family="Helvetica,sans-Serif" font-size="10.00">iostream</text>
</a>
</g>
</g>
<!-- Node6&#45;&gt;Node9 -->
<g id="edge9_Node000006_Node000009" class="edge">
<title>Node6&#45;&gt;Node9</title>
<g id="a_edge9_Node000006_Node000009"><a xlink:title=" ">
<path fill="none" stroke="#63b8ff" d="M483.84,-209.27C370.97,-203.64 140.49,-188.95 116.5,-162 82.61,-123.93 126.69,-61.83 151.58,-32.42"/>
<polygon fill="#63b8ff" stroke="#63b8ff" points="154.36,-34.56 158.3,-24.73 149.09,-29.96 154.36,-34.56"/>
</a>
</g>
</g>
<!-- Node10 -->
<g id="Node000010" class="node">
<title>Node10</title>
<g id="a_Node000010"><a xlink:title=" ">
<polygon fill="#e0e0e0" stroke="#999999" points="189,-156.5 142,-156.5 142,-137.5 189,-137.5 189,-156.5"/>
<text text-anchor="middle" x="165.5" y="-144.5" font-family="Helvetica,sans-Serif" font-size="10.00">float.h</text>
</a>
</g>
</g>
<!-- Node6&#45;&gt;Node10 -->
<g id="edge10_Node000006_Node000010" class="edge">
<title>Node6&#45;&gt;Node10</title>
<g id="a_edge10_Node000006_Node000010"><a xlink:title=" ">
<path fill="none" stroke="#63b8ff" d="M483.71,-207.93C413.53,-202.2 296.11,-189.24 198.5,-162 196.61,-161.47 194.69,-160.86 192.77,-160.2"/>
<polygon fill="#63b8ff" stroke="#63b8ff" points="193.94,-156.9 183.35,-156.56 191.42,-163.43 193.94,-156.9"/>
</a>
</g>
</g>
<!-- Node11 -->
<g id="Node000011" class="node">
<title>Node11</title>
<g id="a_Node000011"><a xlink:title=" ">
<polygon fill="#e0e0e0" stroke="#999999" points="239.5,-156.5 207.5,-156.5 207.5,-137.5 239.5,-137.5 239.5,-156.5"/>
<text text-anchor="middle" x="223.5" y="-144.5" font-family="Helvetica,sans-Serif" font-size="10.00">list</text>
</a>
</g>
</g>
<!-- Node6&#45;&gt;Node11 -->
<g id="edge11_Node000006_Node000011" class="edge">
<title>Node6&#45;&gt;Node11</title>
<g id="a_edge11_Node000006_Node000011"><a xlink:title=" ">
<path fill="none" stroke="#63b8ff" d="M483.96,-207.83C422.8,-202.26 327.04,-189.66 248.5,-162 247.64,-161.7 246.77,-161.36 245.9,-161.01"/>
<polygon fill="#63b8ff" stroke="#63b8ff" points="247.38,-157.83 236.85,-156.59 244.3,-164.12 247.38,-157.83"/>
</a>
</g>
</g>
<!-- Node12 -->
<g id="Node000012" class="node">
<title>Node12</title>
<g id="a_Node000012"><a xlink:title=" ">
<polygon fill="#e0e0e0" stroke="#999999" points="311.5,-156.5 257.5,-156.5 257.5,-137.5 311.5,-137.5 311.5,-156.5"/>
<text text-anchor="middle" x="284.5" y="-144.5" font-family="Helvetica,sans-Serif" font-size="10.00">random</text>
</a>
</g>
</g>
<!-- Node6&#45;&gt;Node12 -->
<g id="edge13_Node000006_Node000012" class="edge">
<title>Node6&#45;&gt;Node12</title>
<g id="a_edge13_Node000006_Node000012"><a xlink:title=" ">
<path fill="none" stroke="#63b8ff" d="M483.73,-200.91C438.15,-192.09 374.87,-178.51 320.5,-162 318.57,-161.42 316.61,-160.78 314.63,-160.1"/>
<polygon fill="#63b8ff" stroke="#63b8ff" points="315.47,-156.68 304.87,-156.54 313.07,-163.26 315.47,-156.68"/>
</a>
</g>
</g>
<!-- Node13 -->
<g id="Node000013" class="node">
<title>Node13</title>
<g id="a_Node000013"><a xlink:title=" ">
<polygon fill="#e0e0e0" stroke="#999999" points="371.5,-24.5 307.5,-24.5 307.5,-5.5 371.5,-5.5 371.5,-24.5"/>
<text text-anchor="middle" x="339.5" y="-12.5" font-family="Helvetica,sans-Serif" font-size="10.00">algorithm</text>
</a>
</g>
</g>
<!-- Node6&#45;&gt;Node13 -->
<g id="edge14_Node000006_Node000013" class="edge">
<title>Node6&#45;&gt;Node13</title>
<g id="a_edge14_Node000006_Node000013"><a xlink:title=" ">
<path fill="none" stroke="#63b8ff" d="M484,-208.98C374.59,-202.98 155.4,-187.84 132.5,-162 76.25,-98.53 222.21,-47.84 297.65,-26.69"/>
<polygon fill="#63b8ff" stroke="#63b8ff" points="298.64,-30.04 307.36,-24.02 296.79,-23.29 298.64,-30.04"/>
</a>
</g>
</g>
<!-- Node14 -->
<g id="Node000014" class="node">
<title>Node14</title>
<g id="a_Node000014"><a xlink:title=" ">
<polygon fill="#e0e0e0" stroke="#999999" points="574.5,-156.5 516.5,-156.5 516.5,-137.5 574.5,-137.5 574.5,-156.5"/>
<text text-anchor="middle" x="545.5" y="-144.5" font-family="Helvetica,sans-Serif" font-size="10.00">memory</text>
</a>
</g>
</g>
<!-- Node6&#45;&gt;Node14 -->
<g id="edge15_Node000006_Node000014" class="edge">
<title>Node6&#45;&gt;Node14</title>
<g id="a_edge15_Node000006_Node000014"><a xlink:title=" ">
<path fill="none" stroke="#63b8ff" d="M545.5,-197.8C545.5,-188.7 545.5,-176.79 545.5,-166.9"/>
<polygon fill="#63b8ff" stroke="#63b8ff" points="549,-166.84 545.5,-156.84 542,-166.84 549,-166.84"/>
</a>
</g>
</g>
<!-- Node15 -->
<g id="Node000015" class="node">
<title>Node15</title>
<g id="a_Node000015"><a xlink:title=" ">
<polygon fill="#e0e0e0" stroke="#999999" points="702.5,-156.5 592.5,-156.5 592.5,-137.5 702.5,-137.5 702.5,-156.5"/>
<text text-anchor="middle" x="647.5" y="-144.5" font-family="Helvetica,sans-Serif" font-size="10.00">nlohmann/json.hpp</text>
</a>
</g>
</g>
<!-- Node6&#45;&gt;Node15 -->
<g id="edge16_Node000006_Node000015" class="edge">
<title>Node6&#45;&gt;Node15</title>
<g id="a_edge16_Node000006_Node000015"><a xlink:title=" ">
<path fill="none" stroke="#63b8ff" d="M567.88,-197.95C584.91,-187.27 608.21,-172.65 625.21,-161.98"/>
<polygon fill="#63b8ff" stroke="#63b8ff" points="627.32,-164.8 633.93,-156.52 623.59,-158.87 627.32,-164.8"/>
</a>
</g>
</g>
<!-- Node16 -->
<g id="Node000016" class="node">
<title>Node16</title>
<g id="a_Node000016"><a xlink:href="LineInfoException_8h.html" target="_top" xlink:title="Exception class with detailed file and line information for error reporting.">
<polygon fill="white" stroke="#666666" points="499,-156.5 330,-156.5 330,-137.5 499,-137.5 499,-156.5"/>
<text text-anchor="middle" x="414.5" y="-144.5" font-family="Helvetica,sans-Serif" font-size="10.00">Exceptions/LineInfoException.h</text>
</a>
</g>
</g>
<!-- Node6&#45;&gt;Node16 -->
<g id="edge17_Node000006_Node000016" class="edge">
<title>Node6&#45;&gt;Node16</title>
<g id="a_edge17_Node000006_Node000016"><a xlink:title=" ">
<path fill="none" stroke="#63b8ff" d="M516.75,-197.95C494.18,-186.93 463.01,-171.7 441.03,-160.96"/>
<polygon fill="#63b8ff" stroke="#63b8ff" points="442.46,-157.76 431.93,-156.52 439.38,-164.05 442.46,-157.76"/>
</a>
</g>
</g>
<!-- Node19 -->
<g id="Node000019" class="node">
<title>Node19</title>
<g id="a_Node000019"><a xlink:href="Constants_8h.html" target="_top" xlink:title="Mathematical and physical constants used throughout the project.">
<polygon fill="white" stroke="#666666" points="844,-162 721,-162 721,-132 844,-132 844,-162"/>
<text text-anchor="start" x="729" y="-150" font-family="Helvetica,sans-Serif" font-size="10.00">App/Model/IBM/Maths</text>
<text text-anchor="middle" x="782.5" y="-139" font-family="Helvetica,sans-Serif" font-size="10.00">/Constants.h</text>
</a>
</g>
</g>
<!-- Node6&#45;&gt;Node19 -->
<g id="edge20_Node000006_Node000019" class="edge">
<title>Node6&#45;&gt;Node19</title>
<g id="a_edge20_Node000006_Node000019"><a xlink:title=" ">
<path fill="none" stroke="#63b8ff" d="M597.51,-197.95C633.78,-188.16 682.35,-175.05 720.61,-164.71"/>
<polygon fill="#63b8ff" stroke="#63b8ff" points="721.87,-168 730.61,-162.01 720.04,-161.24 721.87,-168"/>
</a>
</g>
</g>
<!-- Node20 -->
<g id="Node000020" class="node">
<title>Node20</title>
<g id="a_Node000020"><a xlink:href="TimeUnits_8h.html" target="_top" xlink:title="Defines the TimeStep and Day classes for representing simulation time units.">
<polygon fill="white" stroke="#666666" points="1007,-162 862,-162 862,-132 1007,-132 1007,-162"/>
<text text-anchor="start" x="870" y="-150" font-family="Helvetica,sans-Serif" font-size="10.00">App/Model/IBM/Landscape</text>
<text text-anchor="middle" x="934.5" y="-139" font-family="Helvetica,sans-Serif" font-size="10.00">/LivingBeings/TimeUnits.h</text>
</a>
</g>
</g>
<!-- Node6&#45;&gt;Node20 -->
<g id="edge21_Node000006_Node000020" class="edge">
<title>Node6&#45;&gt;Node20</title>
<g id="a_edge21_Node000006_Node000020"><a xlink:title=" ">
<path fill="none" stroke="#63b8ff" d="M607.26,-202.08C667.1,-192.44 760.68,-177.28 851.69,-162.13"/>
<polygon fill="#63b8ff" stroke="#63b8ff" points="852.34,-165.57 861.63,-160.47 851.19,-158.66 852.34,-165.57"/>
</a>
</g>
</g>
<!-- Node28 -->
<g id="Node000028" class="node">
<title>Node28</title>
<g id="a_Node000028"><a xlink:href="Types_8h.html" target="_top" xlink:title="Defines common type aliases and constants used throughout the Weaver project.">
<polygon fill="white" stroke="#666666" points="1104,-156.5 1025,-156.5 1025,-137.5 1104,-137.5 1104,-156.5"/>
<text text-anchor="middle" x="1064.5" y="-144.5" font-family="Helvetica,sans-Serif" font-size="10.00">Misc/Types.h</text>
</a>
</g>
</g>
<!-- Node6&#45;&gt;Node28 -->
<g id="edge39_Node000006_Node000028" class="edge">
<title>Node6&#45;&gt;Node28</title>
<g id="a_edge39_Node000006_Node000028"><a xlink:title=" ">
<path fill="none" stroke="#63b8ff" d="M607.37,-208.95C697.91,-203.69 871.49,-190.61 1016.5,-162 1020.41,-161.23 1024.47,-160.28 1028.48,-159.25"/>
<polygon fill="#63b8ff" stroke="#63b8ff" points="1029.58,-162.58 1038.3,-156.56 1027.73,-155.83 1029.58,-162.58"/>
</a>
</g>
</g>
<!-- Node17 -->
<g id="Node000017" class="node">
<title>Node17</title>
<g id="a_Node000017"><a xlink:title=" ">
<polygon fill="#e0e0e0" stroke="#999999" points="508,-90.5 443,-90.5 443,-71.5 508,-71.5 508,-90.5"/>
<text text-anchor="middle" x="475.5" y="-78.5" font-family="Helvetica,sans-Serif" font-size="10.00">exception</text>
</a>
</g>
</g>
<!-- Node16&#45;&gt;Node17 -->
<g id="edge18_Node000016_Node000017" class="edge">
<title>Node16&#45;&gt;Node17</title>
<g id="a_edge18_Node000016_Node000017"><a xlink:title=" ">
<path fill="none" stroke="#63b8ff" d="M422.73,-137.37C432.22,-127.4 448.06,-110.79 459.91,-98.36"/>
<polygon fill="#63b8ff" stroke="#63b8ff" points="462.65,-100.56 467.01,-90.91 457.58,-95.73 462.65,-100.56"/>
</a>
</g>
</g>
<!-- Node18 -->
<g id="Node000018" class="node">
<title>Node18</title>
<g id="a_Node000018"><a xlink:title=" ">
<polygon fill="#e0e0e0" stroke="#999999" points="480.5,-24.5 436.5,-24.5 436.5,-5.5 480.5,-5.5 480.5,-24.5"/>
<text text-anchor="middle" x="458.5" y="-12.5" font-family="Helvetica,sans-Serif" font-size="10.00">string</text>
</a>
</g>
</g>
<!-- Node16&#45;&gt;Node18 -->
<g id="edge19_Node000016_Node000018" class="edge">
<title>Node16&#45;&gt;Node18</title>
<g id="a_edge19_Node000016_Node000018"><a xlink:title=" ">
<path fill="none" stroke="#63b8ff" d="M415.87,-137.4C418.39,-122.55 424.34,-91.22 433.5,-66 437.58,-54.76 443.53,-42.76 448.59,-33.33"/>
<polygon fill="#63b8ff" stroke="#63b8ff" points="451.66,-35.02 453.44,-24.58 445.53,-31.63 451.66,-35.02"/>
</a>
</g>
</g>
<!-- Node20&#45;&gt;Node3 -->
<g id="edge26_Node000020_Node000003" class="edge">
<title>Node20&#45;&gt;Node3</title>
<g id="a_edge26_Node000020_Node000003"><a xlink:title=" ">
<path fill="none" stroke="#63b8ff" d="M1007.34,-133.35C1010.44,-132.88 1013.5,-132.43 1016.5,-132 1156.44,-112.1 1194.97,-128.67 1332.5,-96 1335.01,-95.4 1337.59,-94.69 1340.16,-93.9"/>
<polygon fill="#63b8ff" stroke="#63b8ff" points="1341.52,-97.14 1349.87,-90.62 1339.28,-90.51 1341.52,-97.14"/>
</a>
</g>
</g>
<!-- Node20&#45;&gt;Node7 -->
<g id="edge27_Node000020_Node000007" class="edge">
<title>Node20&#45;&gt;Node7</title>
<g id="a_edge27_Node000020_Node000007"><a xlink:title=" ">
<path fill="none" stroke="#63b8ff" d="M935.81,-131.84C937.98,-108.34 942.32,-61.26 944.75,-34.93"/>
<polygon fill="#63b8ff" stroke="#63b8ff" points="948.26,-35.03 945.69,-24.75 941.29,-34.38 948.26,-35.03"/>
</a>
</g>
</g>
<!-- Node21 -->
<g id="Node000021" class="node">
<title>Node21</title>
<g id="a_Node000021"><a xlink:title=" ">
<polygon fill="#e0e0e0" stroke="#999999" points="636,-30 531,-30 531,0 636,0 636,-30"/>
<text text-anchor="start" x="539" y="-18" font-family="Helvetica,sans-Serif" font-size="10.00">boost/archive/text</text>
<text text-anchor="middle" x="583.5" y="-7" font-family="Helvetica,sans-Serif" font-size="10.00">_iarchive.hpp</text>
</a>
</g>
</g>
<!-- Node20&#45;&gt;Node21 -->
<g id="edge22_Node000020_Node000021" class="edge">
<title>Node20&#45;&gt;Node21</title>
<g id="a_edge22_Node000020_Node000021"><a xlink:title=" ">
<path fill="none" stroke="#63b8ff" d="M866.05,-131.99C814.77,-121.09 749.19,-106.14 723.5,-96 682.85,-79.96 639.72,-53.73 612.25,-35.71"/>
<polygon fill="#63b8ff" stroke="#63b8ff" points="614.17,-32.78 603.9,-30.17 610.3,-38.62 614.17,-32.78"/>
</a>
</g>
</g>
<!-- Node22 -->
<g id="Node000022" class="node">
<title>Node22</title>
<g id="a_Node000022"><a xlink:title=" ">
<polygon fill="#e0e0e0" stroke="#999999" points="759,-30 654,-30 654,0 759,0 759,-30"/>
<text text-anchor="start" x="662" y="-18" font-family="Helvetica,sans-Serif" font-size="10.00">boost/archive/text</text>
<text text-anchor="middle" x="706.5" y="-7" font-family="Helvetica,sans-Serif" font-size="10.00">_oarchive.hpp</text>
</a>
</g>
</g>
<!-- Node20&#45;&gt;Node22 -->
<g id="edge23_Node000020_Node000022" class="edge">
<title>Node20&#45;&gt;Node22</title>
<g id="a_edge23_Node000020_Node000022"><a xlink:title=" ">
<path fill="none" stroke="#63b8ff" d="M861.81,-132.31C818.27,-122.97 768.06,-109.82 750.5,-96 732.3,-81.68 720.54,-57.64 713.8,-39.64"/>
<polygon fill="#63b8ff" stroke="#63b8ff" points="717.07,-38.41 710.48,-30.12 710.46,-40.71 717.07,-38.41"/>
</a>
</g>
</g>
<!-- Node23 -->
<g id="Node000023" class="node">
<title>Node23</title>
<g id="a_Node000023"><a xlink:title=" ">
<polygon fill="#e0e0e0" stroke="#999999" points="1238.5,-30 1122.5,-30 1122.5,0 1238.5,0 1238.5,-30"/>
<text text-anchor="start" x="1130.5" y="-18" font-family="Helvetica,sans-Serif" font-size="10.00">boost/archive/binary</text>
<text text-anchor="middle" x="1180.5" y="-7" font-family="Helvetica,sans-Serif" font-size="10.00">_iarchive.hpp</text>
</a>
</g>
</g>
<!-- Node20&#45;&gt;Node23 -->
<g id="edge24_Node000020_Node000023" class="edge">
<title>Node20&#45;&gt;Node23</title>
<g id="a_edge24_Node000020_Node000023"><a xlink:title=" ">
<path fill="none" stroke="#63b8ff" d="M956.14,-131.83C982.07,-115.13 1027.09,-86.99 1067.5,-66 1089.79,-54.42 1115.32,-42.98 1136.47,-33.97"/>
<polygon fill="#63b8ff" stroke="#63b8ff" points="1138,-37.12 1145.86,-30 1135.28,-30.67 1138,-37.12"/>
</a>
</g>
</g>
<!-- Node24 -->
<g id="Node000024" class="node">
<title>Node24</title>
<g id="a_Node000024"><a xlink:title=" ">
<polygon fill="#e0e0e0" stroke="#999999" points="1104.5,-30 988.5,-30 988.5,0 1104.5,0 1104.5,-30"/>
<text text-anchor="start" x="996.5" y="-18" font-family="Helvetica,sans-Serif" font-size="10.00">boost/archive/binary</text>
<text text-anchor="middle" x="1046.5" y="-7" font-family="Helvetica,sans-Serif" font-size="10.00">_oarchive.hpp</text>
</a>
</g>
</g>
<!-- Node20&#45;&gt;Node24 -->
<g id="edge25_Node000020_Node000024" class="edge">
<title>Node20&#45;&gt;Node24</title>
<g id="a_edge25_Node000020_Node000024"><a xlink:title=" ">
<path fill="none" stroke="#63b8ff" d="M944.52,-131.99C956.38,-115.68 976.98,-88.15 996.5,-66 1005.04,-56.31 1015,-46.14 1023.78,-37.53"/>
<polygon fill="#63b8ff" stroke="#63b8ff" points="1026.38,-39.88 1031.12,-30.4 1021.5,-34.85 1026.38,-39.88"/>
</a>
</g>
</g>
<!-- Node25 -->
<g id="Node000025" class="node">
<title>Node25</title>
<g id="a_Node000025"><a xlink:href="PreciseDouble_8h.html" target="_top" xlink:title="Defines the PreciseDouble class for safe and precise double&#45;precision arithmetic.">
<polygon fill="white" stroke="#666666" points="883,-96 760,-96 760,-66 883,-66 883,-96"/>
<text text-anchor="start" x="768" y="-84" font-family="Helvetica,sans-Serif" font-size="10.00">App/Model/IBM/Maths</text>
<text text-anchor="middle" x="821.5" y="-73" font-family="Helvetica,sans-Serif" font-size="10.00">/PreciseDouble.h</text>
</a>
</g>
</g>
<!-- Node20&#45;&gt;Node25 -->
<g id="edge28_Node000020_Node000025" class="edge">
<title>Node20&#45;&gt;Node25</title>
<g id="a_edge28_Node000020_Node000025"><a xlink:title=" ">
<path fill="none" stroke="#63b8ff" d="M909.7,-131.95C893.66,-122.87 872.57,-110.93 855.04,-101"/>
<polygon fill="#63b8ff" stroke="#63b8ff" points="856.67,-97.9 846.24,-96.01 853.22,-103.99 856.67,-97.9"/>
</a>
</g>
</g>
<!-- Node25&#45;&gt;Node7 -->
<g id="edge34_Node000025_Node000007" class="edge">
<title>Node25&#45;&gt;Node7</title>
<g id="a_edge34_Node000025_Node000007"><a xlink:title=" ">
<path fill="none" stroke="#63b8ff" d="M848.93,-65.95C870.37,-54.98 899.95,-39.83 920.9,-29.11"/>
<polygon fill="#63b8ff" stroke="#63b8ff" points="922.56,-32.19 929.86,-24.52 919.37,-25.96 922.56,-32.19"/>
</a>
</g>
</g>
<!-- Node25&#45;&gt;Node9 -->
<g id="edge36_Node000025_Node000009" class="edge">
<title>Node25&#45;&gt;Node9</title>
<g id="a_edge36_Node000025_Node000009"><a xlink:title=" ">
<path fill="none" stroke="#63b8ff" d="M759.89,-74.32C662.08,-65.25 465.26,-46.81 298.5,-30 267.77,-26.9 233.03,-23.21 206.91,-20.4"/>
<polygon fill="#63b8ff" stroke="#63b8ff" points="206.95,-16.88 196.64,-19.29 206.2,-23.84 206.95,-16.88"/>
</a>
</g>
</g>
<!-- Node25&#45;&gt;Node13 -->
<g id="edge35_Node000025_Node000013" class="edge">
<title>Node25&#45;&gt;Node13</title>
<g id="a_edge35_Node000025_Node000013"><a xlink:title=" ">
<path fill="none" stroke="#63b8ff" d="M760,-72.8C682.4,-63.59 544.9,-46.78 427.5,-30 412.59,-27.87 396.29,-25.33 381.82,-23.01"/>
<polygon fill="#63b8ff" stroke="#63b8ff" points="382.08,-19.51 371.65,-21.36 380.96,-26.42 382.08,-19.51"/>
</a>
</g>
</g>
<!-- Node25&#45;&gt;Node18 -->
<g id="edge33_Node000025_Node000018" class="edge">
<title>Node25&#45;&gt;Node18</title>
<g id="a_edge33_Node000025_Node000018"><a xlink:title=" ">
<path fill="none" stroke="#63b8ff" d="M759.85,-70.71C699.08,-61.33 603.65,-45.96 521.5,-30 511.38,-28.03 500.39,-25.67 490.47,-23.45"/>
<polygon fill="#63b8ff" stroke="#63b8ff" points="491.12,-20.01 480.6,-21.21 489.58,-26.84 491.12,-20.01"/>
</a>
</g>
</g>
<!-- Node25&#45;&gt;Node21 -->
<g id="edge29_Node000025_Node000021" class="edge">
<title>Node25&#45;&gt;Node21</title>
<g id="a_edge29_Node000025_Node000021"><a xlink:title=" ">
<path fill="none" stroke="#63b8ff" d="M769.27,-65.95C732.84,-56.16 684.07,-43.05 645.65,-32.71"/>
<polygon fill="#63b8ff" stroke="#63b8ff" points="646.17,-29.23 635.61,-30.01 644.36,-35.99 646.17,-29.23"/>
</a>
</g>
</g>
<!-- Node25&#45;&gt;Node22 -->
<g id="edge30_Node000025_Node000022" class="edge">
<title>Node25&#45;&gt;Node22</title>
<g id="a_edge30_Node000025_Node000022"><a xlink:title=" ">
<path fill="none" stroke="#63b8ff" d="M796.26,-65.95C779.93,-56.87 758.48,-44.93 740.63,-35"/>
<polygon fill="#63b8ff" stroke="#63b8ff" points="742.12,-31.82 731.68,-30.01 738.71,-37.93 742.12,-31.82"/>
</a>
</g>
</g>
<!-- Node25&#45;&gt;Node23 -->
<g id="edge31_Node000025_Node000023" class="edge">
<title>Node25&#45;&gt;Node23</title>
<g id="a_edge31_Node000025_Node000023"><a xlink:title=" ">
<path fill="none" stroke="#63b8ff" d="M883.14,-70.11C940.12,-60.82 1027.4,-46.21 1112.58,-30.14"/>
<polygon fill="#63b8ff" stroke="#63b8ff" points="1113.25,-33.57 1122.42,-28.27 1111.94,-26.69 1113.25,-33.57"/>
</a>
</g>
</g>
<!-- Node25&#45;&gt;Node24 -->
<g id="edge32_Node000025_Node000024" class="edge">
<title>Node25&#45;&gt;Node24</title>
<g id="a_edge32_Node000025_Node000024"><a xlink:title=" ">
<path fill="none" stroke="#63b8ff" d="M870.88,-65.95C905.17,-56.2 951.03,-43.16 987.28,-32.84"/>
<polygon fill="#63b8ff" stroke="#63b8ff" points="988.58,-36.11 997.24,-30.01 986.66,-29.38 988.58,-36.11"/>
</a>
</g>
</g>
<!-- Node26 -->
<g id="Node000026" class="node">
<title>Node26</title>
<g id="a_Node000026"><a xlink:title=" ">
<polygon fill="#e0e0e0" stroke="#999999" points="904.5,-24.5 860.5,-24.5 860.5,-5.5 904.5,-5.5 904.5,-24.5"/>
<text text-anchor="middle" x="882.5" y="-12.5" font-family="Helvetica,sans-Serif" font-size="10.00">limits</text>
</a>
</g>
</g>
<!-- Node25&#45;&gt;Node26 -->
<g id="edge37_Node000025_Node000026" class="edge">
<title>Node25&#45;&gt;Node26</title>
<g id="a_edge37_Node000025_Node000026"><a xlink:title=" ">
<path fill="none" stroke="#63b8ff" d="M835.04,-65.8C844.55,-55.82 857.28,-42.46 867.17,-32.09"/>
<polygon fill="#63b8ff" stroke="#63b8ff" points="869.7,-34.5 874.07,-24.84 864.64,-29.67 869.7,-34.5"/>
</a>
</g>
</g>
<!-- Node27 -->
<g id="Node000027" class="node">
<title>Node27</title>
<g id="a_Node000027"><a xlink:title=" ">
<polygon fill="#e0e0e0" stroke="#999999" points="842,-24.5 777,-24.5 777,-5.5 842,-5.5 842,-24.5"/>
<text text-anchor="middle" x="809.5" y="-12.5" font-family="Helvetica,sans-Serif" font-size="10.00">functional</text>
</a>
</g>
</g>
<!-- Node25&#45;&gt;Node27 -->
<g id="edge38_Node000025_Node000027" class="edge">
<title>Node25&#45;&gt;Node27</title>
<g id="a_edge38_Node000025_Node000027"><a xlink:title=" ">
<path fill="none" stroke="#63b8ff" d="M818.84,-65.8C817.13,-56.7 814.9,-44.79 813.04,-34.9"/>
<polygon fill="#63b8ff" stroke="#63b8ff" points="816.44,-34.03 811.16,-24.84 809.56,-35.32 816.44,-34.03"/>
</a>
</g>
</g>
<!-- Node28&#45;&gt;Node25 -->
<g id="edge47_Node000028_Node000025" class="edge">
<title>Node28&#45;&gt;Node25</title>
<g id="a_edge47_Node000028_Node000025"><a xlink:title=" ">
<path fill="none" stroke="#63b8ff" d="M1035.86,-137.48C1029.5,-135.63 1022.78,-133.72 1016.5,-132 973.95,-120.34 925.96,-108.03 888.23,-98.53"/>
<polygon fill="#63b8ff" stroke="#63b8ff" points="888.92,-95.1 878.37,-96.06 887.22,-101.89 888.92,-95.1"/>
</a>
</g>
</g>
<!-- Node28&#45;&gt;Node26 -->
<g id="edge46_Node000028_Node000026" class="edge">
<title>Node28&#45;&gt;Node26</title>
<g id="a_edge46_Node000028_Node000026"><a xlink:title=" ">
<path fill="none" stroke="#63b8ff" d="M1052.56,-137.47C1022.1,-115.72 941.24,-57.96 903.04,-30.67"/>
<polygon fill="#63b8ff" stroke="#63b8ff" points="904.9,-27.7 894.72,-24.73 900.83,-33.39 904.9,-27.7"/>
</a>
</g>
</g>
<!-- Node29 -->
<g id="Node000029" class="node">
<title>Node29</title>
<g id="a_Node000029"><a xlink:href="Coordinate3D_8h.html" target="_top" xlink:title="Defines a templated 3D coordinate class with Boost.Serialization support.">
<polygon fill="white" stroke="#666666" points="1323.5,-90.5 1231.5,-90.5 1231.5,-71.5 1323.5,-71.5 1323.5,-90.5"/>
<text text-anchor="middle" x="1277.5" y="-78.5" font-family="Helvetica,sans-Serif" font-size="10.00">Coordinate3D.h</text>
</a>
</g>
</g>
<!-- Node28&#45;&gt;Node29 -->
<g id="edge40_Node000028_Node000029" class="edge">
<title>Node28&#45;&gt;Node29</title>
<g id="a_edge40_Node000028_Node000029"><a xlink:title=" ">
<path fill="none" stroke="#63b8ff" d="M1093.23,-137.37C1130.97,-126.03 1197.36,-106.08 1239.3,-93.48"/>
<polygon fill="#63b8ff" stroke="#63b8ff" points="1240.32,-96.83 1248.89,-90.6 1238.31,-90.12 1240.32,-96.83"/>
</a>
</g>
</g>
<!-- Node32 -->
<g id="Node000032" class="node">
<title>Node32</title>
<g id="a_Node000032"><a xlink:title=" ">
<polygon fill="#e0e0e0" stroke="#999999" points="1120.5,-90.5 1076.5,-90.5 1076.5,-71.5 1120.5,-71.5 1120.5,-90.5"/>
<text text-anchor="middle" x="1098.5" y="-78.5" font-family="Helvetica,sans-Serif" font-size="10.00">cfloat</text>
</a>
</g>
</g>
<!-- Node28&#45;&gt;Node32 -->
<g id="edge45_Node000028_Node000032" class="edge">
<title>Node28&#45;&gt;Node32</title>
<g id="a_edge45_Node000028_Node000032"><a xlink:title=" ">
<path fill="none" stroke="#63b8ff" d="M1069.09,-137.37C1074.18,-127.78 1082.54,-112.05 1089.04,-99.8"/>
<polygon fill="#63b8ff" stroke="#63b8ff" points="1092.17,-101.38 1093.77,-90.91 1085.99,-98.09 1092.17,-101.38"/>
</a>
</g>
</g>
<!-- Node29&#45;&gt;Node23 -->
<g id="edge42_Node000029_Node000023" class="edge">
<title>Node29&#45;&gt;Node23</title>
<g id="a_edge42_Node000029_Node000023"><a xlink:title=" ">
<path fill="none" stroke="#63b8ff" d="M1264.42,-71.37C1250.64,-62.28 1228.48,-47.66 1210.39,-35.72"/>
<polygon fill="#63b8ff" stroke="#63b8ff" points="1212.17,-32.7 1201.89,-30.12 1208.31,-38.54 1212.17,-32.7"/>
</a>
</g>
</g>
<!-- Node29&#45;&gt;Node24 -->
<g id="edge43_Node000029_Node000024" class="edge">
<title>Node29&#45;&gt;Node24</title>
<g id="a_edge43_Node000029_Node000024"><a xlink:title=" ">
<path fill="none" stroke="#63b8ff" d="M1246.35,-71.37C1210.85,-61.54 1152,-45.23 1107.32,-32.85"/>
<polygon fill="#63b8ff" stroke="#63b8ff" points="1108.02,-29.41 1097.45,-30.12 1106.15,-36.16 1108.02,-29.41"/>
</a>
</g>
</g>
<!-- Node30 -->
<g id="Node000030" class="node">
<title>Node30</title>
<g id="a_Node000030"><a xlink:title=" ">
<polygon fill="#e0e0e0" stroke="#999999" points="1364,-30 1257,-30 1257,0 1364,0 1364,-30"/>
<text text-anchor="start" x="1265" y="-18" font-family="Helvetica,sans-Serif" font-size="10.00">boost/serialization</text>
<text text-anchor="middle" x="1310.5" y="-7" font-family="Helvetica,sans-Serif" font-size="10.00">/access.hpp</text>
</a>
</g>
</g>
<!-- Node29&#45;&gt;Node30 -->
<g id="edge41_Node000029_Node000030" class="edge">
<title>Node29&#45;&gt;Node30</title>
<g id="a_edge41_Node000029_Node000030"><a xlink:title=" ">
<path fill="none" stroke="#63b8ff" d="M1281.95,-71.37C1286.18,-63.16 1292.74,-50.44 1298.51,-39.26"/>
<polygon fill="#63b8ff" stroke="#63b8ff" points="1301.62,-40.85 1303.1,-30.36 1295.4,-37.64 1301.62,-40.85"/>
</a>
</g>
</g>
<!-- Node31 -->
<g id="Node000031" class="node">
<title>Node31</title>
<g id="a_Node000031"><a xlink:title=" ">
<polygon fill="#e0e0e0" stroke="#999999" points="1437,-24.5 1382,-24.5 1382,-5.5 1437,-5.5 1437,-24.5"/>
<text text-anchor="middle" x="1409.5" y="-12.5" font-family="Helvetica,sans-Serif" font-size="10.00">fstream</text>
</a>
</g>
</g>
<!-- Node29&#45;&gt;Node31 -->
<g id="edge44_Node000029_Node000031" class="edge">
<title>Node29&#45;&gt;Node31</title>
<g id="a_edge44_Node000029_Node000031"><a xlink:title=" ">
<path fill="none" stroke="#63b8ff" d="M1295.3,-71.37C1317.64,-60.54 1356.18,-41.85 1382.24,-29.22"/>
<polygon fill="#63b8ff" stroke="#63b8ff" points="1384.09,-32.21 1391.56,-24.7 1381.03,-25.91 1384.09,-32.21"/>
</a>
</g>
</g>
</g>
</svg>
