<?xml version="1.0" encoding="UTF-8" standalone="no"?>
<!DOCTYPE svg PUBLIC "-//W3C//DTD SVG 1.1//EN"
 "http://www.w3.org/Graphics/SVG/1.1/DTD/svg11.dtd">
<!-- Generated by graphviz version 2.43.0 (0)
 -->
<!-- Title: /home/runner/work/Weaver/Weaver/include/App/Model/IBM/Landscape Pages: 1 -->
<svg width="337pt" height="251pt"
 viewBox="0.00 0.00 336.50 251.00" xmlns="http://www.w3.org/2000/svg" xmlns:xlink="http://www.w3.org/1999/xlink">

<svg id="main" version="1.1" xmlns="http://www.w3.org/2000/svg" xmlns:xlink="http://www.w3.org/1999/xlink" xml:space="preserve" onload="init(evt)">
<style type="text/css"><![CDATA[
.node, .edge {opacity: 0.7;}
.node.selected, .edge.selected {opacity: 1;}
.edge:hover path { stroke: red; }
.edge:hover polygon { stroke: red; fill: red; }
]]></style>
<script type="application/ecmascript" xlink:href="svg.min.js"/>
<svg id="graph" class="graph">
<g id="graph0" class="graph" transform="scale(1 1) rotate(0) translate(4 247)">
<title>/home/runner/work/Weaver/Weaver/include/App/Model/IBM/Landscape</title>
<g id="clust1" class="cluster">
<title>clusterdir_c27fe5305855498fa6af2a12eaeb4811</title>
<g id="a_clust1"><a xlink:href="dir_c27fe5305855498fa6af2a12eaeb4811.html" target="_top" xlink:title="IBM">
<polygon fill="#edf0f7" stroke="#7f7f7f" stroke-dasharray="5,2" points="50.5,-8 50.5,-235 192.5,-235 192.5,-8 50.5,-8"/>
<text text-anchor="middle" x="121.5" y="-223" font-family="Helvetica,sans-Serif" font-size="10.00">IBM</text>
</a>
</g>
</g>
<g id="clust2" class="cluster">
<title>clusterdir_a3743c4f48a9f113c48eeb11d5f797ad</title>
<g id="a_clust2"><a xlink:href="dir_a3743c4f48a9f113c48eeb11d5f797ad.html" target="_top">
<polygon fill="#edf0f7" stroke="#404040" stroke-width="2" points="70.5,-63 70.5,-208 184.5,-208 184.5,-63 70.5,-63"/>
</a>
</g>
</g>
<!-- dir_6d30109d817e3a6d4be9084cc265e05a -->
<g id="node1" class="node">
<title>dir_6d30109d817e3a6d4be9084cc265e05a</title>
<g id="a_node1"><a xlink:href="dir_6d30109d817e3a6d4be9084cc265e05a.html" target="_top" xlink:title="Maths">
<polygon fill="#a2b4d6" stroke="red" points="106,-35 59,-35 59,-16 106,-16 106,-35"/>
<text text-anchor="middle" x="82.5" y="-23" font-family="Helvetica,sans-Serif" font-size="10.00">Maths</text>
</a>
</g>
</g>
<!-- dir_82abf9c3cae407e2f368e3cd0d776797 -->
<g id="node2" class="node">
<title>dir_82abf9c3cae407e2f368e3cd0d776797</title>
<g id="a_node2"><a xlink:href="dir_82abf9c3cae407e2f368e3cd0d776797.html" target="_top" xlink:title="Physics">
<polygon fill="#a2b4d6" stroke="#404040" points="177,-35 124,-35 124,-16 177,-16 177,-35"/>
<text text-anchor="middle" x="150.5" y="-23" font-family="Helvetica,sans-Serif" font-size="10.00">Physics</text>
</a>
</g>
</g>
<!-- dir_a3743c4f48a9f113c48eeb11d5f797ad -->
<g id="node3" class="node">
<title>dir_a3743c4f48a9f113c48eeb11d5f797ad</title>
<text text-anchor="middle" x="129.5" y="-188" font-family="Helvetica,sans-Serif" font-size="10.00">Landscape</text>
</g>
<!-- dir_a3743c4f48a9f113c48eeb11d5f797ad&#45;&gt;dir_6d30109d817e3a6d4be9084cc265e05a -->
<g id="edge4" class="edge">
<title>dir_a3743c4f48a9f113c48eeb11d5f797ad&#45;&gt;dir_6d30109d817e3a6d4be9084cc265e05a</title>
<g id="a_edge4"><a xlink:href="dir_000027_000032.html" target="_top">
<path fill="none" stroke="#63b8ff" d="M109.92,-180.98C95.83,-173.68 77.9,-161.68 69.5,-145 53.13,-112.47 65.4,-68.67 74.68,-44.47"/>
<polygon fill="#63b8ff" stroke="#63b8ff" points="77.96,-45.69 78.5,-35.11 71.48,-43.05 77.96,-45.69"/>
</a>
</g>
<g id="a_edge4&#45;headlabel"><a xlink:href="dir_000027_000032.html" target="_top" xlink:title="33">
<text text-anchor="middle" x="79.23" y="-47.59" font-family="Helvetica,sans-Serif" font-size="10.00" fill="#63b8ff">33</text>
</a>
</g>
</g>
<!-- dir_deb6f38fabcacb3d9327502f4723bff5 -->
<g id="node4" class="node">
<title>dir_deb6f38fabcacb3d9327502f4723bff5</title>
<g id="a_node4"><a xlink:href="dir_deb6f38fabcacb3d9327502f4723bff5.html" target="_top" xlink:title="LivingBeings">
<polygon fill="#a2b4d6" stroke="#404040" points="157,-145 78,-145 78,-126 157,-126 157,-145"/>
<text text-anchor="middle" x="117.5" y="-133" font-family="Helvetica,sans-Serif" font-size="10.00">LivingBeings</text>
</a>
</g>
</g>
<!-- dir_a3743c4f48a9f113c48eeb11d5f797ad&#45;&gt;dir_deb6f38fabcacb3d9327502f4723bff5 -->
<g id="edge5" class="edge">
<title>dir_a3743c4f48a9f113c48eeb11d5f797ad&#45;&gt;dir_deb6f38fabcacb3d9327502f4723bff5</title>
<g id="a_edge5"><a xlink:href="dir_000027_000028.html" target="_top">
<path fill="none" stroke="#63b8ff" d="M127.52,-180.75C125.93,-173.72 123.64,-163.62 121.65,-154.84"/>
<polygon fill="#63b8ff" stroke="#63b8ff" points="125.07,-154.07 119.44,-145.09 118.24,-155.62 125.07,-154.07"/>
</a>
</g>
<g id="a_edge5&#45;headlabel"><a xlink:href="dir_000027_000028.html" target="_top" xlink:title="139">
<text text-anchor="middle" x="128.63" y="-154.45" font-family="Helvetica,sans-Serif" font-size="10.00" fill="#63b8ff">139</text>
</a>
</g>
</g>
<!-- dir_389a21b4e0d5da4afd1bc923d1c21e90 -->
<g id="node5" class="node">
<title>dir_389a21b4e0d5da4afd1bc923d1c21e90</title>
<g id="a_node5"><a xlink:href="dir_389a21b4e0d5da4afd1bc923d1c21e90.html" target="_top" xlink:title="Map">
<polygon fill="#a2b4d6" stroke="#404040" points="157.5,-90 119.5,-90 119.5,-71 157.5,-71 157.5,-90"/>
<text text-anchor="middle" x="138.5" y="-78" font-family="Helvetica,sans-Serif" font-size="10.00">Map</text>
</a>
</g>
</g>
<!-- dir_a3743c4f48a9f113c48eeb11d5f797ad&#45;&gt;dir_389a21b4e0d5da4afd1bc923d1c21e90 -->
<g id="edge2" class="edge">
<title>dir_a3743c4f48a9f113c48eeb11d5f797ad&#45;&gt;dir_389a21b4e0d5da4afd1bc923d1c21e90</title>
<g id="a_edge2"><a xlink:href="dir_000027_000030.html" target="_top">
<path fill="none" stroke="#63b8ff" d="M139.94,-180.87C148.92,-172.7 161.24,-159.55 166.5,-145 172.36,-128.8 162.93,-110.88 153.47,-98.22"/>
<polygon fill="#63b8ff" stroke="#63b8ff" points="156.13,-95.94 147.11,-90.39 150.69,-100.35 156.13,-95.94"/>
</a>
</g>
<g id="a_edge2&#45;headlabel"><a xlink:href="dir_000027_000030.html" target="_top" xlink:title="87">
<text text-anchor="middle" x="160.6" y="-94.44" font-family="Helvetica,sans-Serif" font-size="10.00" fill="#63b8ff">87</text>
</a>
</g>
</g>
<!-- dir_372774f0ab5e2d6e2a78b40358f88508 -->
<g id="node6" class="node">
<title>dir_372774f0ab5e2d6e2a78b40358f88508</title>
<g id="a_node6"><a xlink:href="dir_372774f0ab5e2d6e2a78b40358f88508.html" target="_top" xlink:title="View">
<polygon fill="#edf0f7" stroke="red" stroke-dasharray="5,2" points="41,-35 0,-35 0,-16 41,-16 41,-35"/>
<text text-anchor="middle" x="20.5" y="-23" font-family="Helvetica,sans-Serif" font-size="10.00">View</text>
</a>
</g>
</g>
<!-- dir_a3743c4f48a9f113c48eeb11d5f797ad&#45;&gt;dir_372774f0ab5e2d6e2a78b40358f88508 -->
<g id="edge1" class="edge">
<title>dir_a3743c4f48a9f113c48eeb11d5f797ad&#45;&gt;dir_372774f0ab5e2d6e2a78b40358f88508</title>
<g id="a_edge1"><a xlink:href="dir_000027_000063.html" target="_top">
<path fill="none" stroke="#63b8ff" d="M100.32,-180.87C82.16,-174.02 59.81,-162.61 46.5,-145 24.14,-115.42 20.24,-70.49 19.98,-45.3"/>
<polygon fill="#63b8ff" stroke="#63b8ff" points="23.48,-45.28 20.07,-35.25 16.48,-45.22 23.48,-45.28"/>
</a>
</g>
<g id="a_edge1&#45;headlabel"><a xlink:href="dir_000027_000063.html" target="_top" xlink:title="2">
<text text-anchor="middle" x="26.29" y="-46.4" font-family="Helvetica,sans-Serif" font-size="10.00" fill="#63b8ff">2</text>
</a>
</g>
</g>
<!-- dir_4045643538bad1aadeff61b05dc9bc0d -->
<g id="node7" class="node">
<title>dir_4045643538bad1aadeff61b05dc9bc0d</title>
<g id="a_node7"><a xlink:href="dir_4045643538bad1aadeff61b05dc9bc0d.html" target="_top" xlink:title="Exceptions">
<polygon fill="#edf0f7" stroke="#7f7f7f" points="328.5,-35 258.5,-35 258.5,-16 328.5,-16 328.5,-35"/>
<text text-anchor="middle" x="293.5" y="-23" font-family="Helvetica,sans-Serif" font-size="10.00">Exceptions</text>
</a>
</g>
</g>
<!-- dir_a3743c4f48a9f113c48eeb11d5f797ad&#45;&gt;dir_4045643538bad1aadeff61b05dc9bc0d -->
<g id="edge3" class="edge">
<title>dir_a3743c4f48a9f113c48eeb11d5f797ad&#45;&gt;dir_4045643538bad1aadeff61b05dc9bc0d</title>
<g id="a_edge3"><a xlink:href="dir_000027_000010.html" target="_top">
<path fill="none" stroke="#63b8ff" d="M143.26,-180.77C156.08,-172.33 175.44,-158.83 190.5,-145 226.46,-111.98 262.53,-67.15 280.94,-43.21"/>
<polygon fill="#63b8ff" stroke="#63b8ff" points="283.83,-45.2 287.1,-35.12 278.26,-40.96 283.83,-45.2"/>
</a>
</g>
<g id="a_edge3&#45;headlabel"><a xlink:href="dir_000027_000010.html" target="_top" xlink:title="18">
<text text-anchor="middle" x="283.91" y="-47.28" font-family="Helvetica,sans-Serif" font-size="10.00" fill="#63b8ff">18</text>
</a>
</g>
</g>
<!-- dir_ed435641f8e8047e0f5542c775bc8256 -->
<g id="node8" class="node">
<title>dir_ed435641f8e8047e0f5542c775bc8256</title>
<g id="a_node8"><a xlink:href="dir_ed435641f8e8047e0f5542c775bc8256.html" target="_top" xlink:title="Misc">
<polygon fill="#edf0f7" stroke="red" stroke-dasharray="5,2" points="240,-35 201,-35 201,-16 240,-16 240,-35"/>
<text text-anchor="middle" x="220.5" y="-23" font-family="Helvetica,sans-Serif" font-size="10.00">Misc</text>
</a>
</g>
</g>
<!-- dir_a3743c4f48a9f113c48eeb11d5f797ad&#45;&gt;dir_ed435641f8e8047e0f5542c775bc8256 -->
<g id="edge6" class="edge">
<title>dir_a3743c4f48a9f113c48eeb11d5f797ad&#45;&gt;dir_ed435641f8e8047e0f5542c775bc8256</title>
<g id="a_edge6"><a xlink:href="dir_000027_000033.html" target="_top">
<path fill="none" stroke="#63b8ff" d="M139.6,-180.8C148.87,-172.39 162.5,-158.91 171.5,-145 192.69,-112.26 207.82,-68.84 215.27,-44.69"/>
<polygon fill="#63b8ff" stroke="#63b8ff" points="218.64,-45.64 218.14,-35.05 211.93,-43.64 218.64,-45.64"/>
</a>
</g>
<g id="a_edge6&#45;headlabel"><a xlink:href="dir_000027_000033.html" target="_top" xlink:title="49">
<text text-anchor="middle" x="220.33" y="-47.39" font-family="Helvetica,sans-Serif" font-size="10.00" fill="#63b8ff">49</text>
</a>
</g>
</g>
<!-- dir_deb6f38fabcacb3d9327502f4723bff5&#45;&gt;dir_6d30109d817e3a6d4be9084cc265e05a -->
<g id="edge9" class="edge">
<title>dir_deb6f38fabcacb3d9327502f4723bff5&#45;&gt;dir_6d30109d817e3a6d4be9084cc265e05a</title>
<g id="a_edge9"><a xlink:href="dir_000028_000032.html" target="_top">
<path fill="none" stroke="#63b8ff" d="M114.17,-125.68C110.83,-116.74 105.61,-102.48 101.5,-90 96.55,-74.95 91.43,-57.72 87.75,-45.01"/>
<polygon fill="#63b8ff" stroke="#63b8ff" points="91.05,-43.82 84.93,-35.17 84.32,-45.75 91.05,-43.82"/>
</a>
</g>
<g id="a_edge9&#45;headlabel"><a xlink:href="dir_000028_000032.html" target="_top" xlink:title="15">
<text text-anchor="middle" x="94.77" y="-44" font-family="Helvetica,sans-Serif" font-size="10.00" fill="#63b8ff">15</text>
</a>
</g>
</g>
<!-- dir_deb6f38fabcacb3d9327502f4723bff5&#45;&gt;dir_82abf9c3cae407e2f368e3cd0d776797 -->
<g id="edge10" class="edge">
<title>dir_deb6f38fabcacb3d9327502f4723bff5&#45;&gt;dir_82abf9c3cae407e2f368e3cd0d776797</title>
<g id="a_edge10"><a xlink:href="dir_000028_000044.html" target="_top">
<path fill="none" stroke="#63b8ff" d="M113.95,-125.7C108.9,-111.75 101.24,-84 110.5,-63 114.26,-54.47 121.12,-47.07 128.1,-41.2"/>
<polygon fill="#63b8ff" stroke="#63b8ff" points="130.34,-43.89 136.18,-35.05 126.1,-38.33 130.34,-43.89"/>
</a>
</g>
<g id="a_edge10&#45;headlabel"><a xlink:href="dir_000028_000044.html" target="_top" xlink:title="5">
<text text-anchor="middle" x="129.2" y="-45.83" font-family="Helvetica,sans-Serif" font-size="10.00" fill="#63b8ff">5</text>
</a>
</g>
</g>
<!-- dir_deb6f38fabcacb3d9327502f4723bff5&#45;&gt;dir_389a21b4e0d5da4afd1bc923d1c21e90 -->
<g id="edge7" class="edge">
<title>dir_deb6f38fabcacb3d9327502f4723bff5&#45;&gt;dir_389a21b4e0d5da4afd1bc923d1c21e90</title>
<g id="a_edge7"><a xlink:href="dir_000028_000030.html" target="_top">
<path fill="none" stroke="#63b8ff" d="M115.8,-125.75C117.12,-118.49 120.88,-107.95 125.18,-98.98"/>
<polygon fill="#63b8ff" stroke="#63b8ff" points="128.31,-100.55 129.97,-90.09 122.15,-97.24 128.31,-100.55"/>
</a>
</g>
<g id="a_edge7&#45;headlabel"><a xlink:href="dir_000028_000030.html" target="_top" xlink:title="5">
<text text-anchor="middle" x="129.11" y="-102.56" font-family="Helvetica,sans-Serif" font-size="10.00" fill="#63b8ff">5</text>
</a>
</g>
</g>
<!-- dir_deb6f38fabcacb3d9327502f4723bff5&#45;&gt;dir_4045643538bad1aadeff61b05dc9bc0d -->
<g id="edge8" class="edge">
<title>dir_deb6f38fabcacb3d9327502f4723bff5&#45;&gt;dir_4045643538bad1aadeff61b05dc9bc0d</title>
<g id="a_edge8"><a xlink:href="dir_000028_000010.html" target="_top">
<path fill="none" stroke="#63b8ff" d="M132,-125.87C146.95,-116.95 170.91,-102.6 191.5,-90 218.96,-73.19 250.39,-53.57 271.02,-40.63"/>
<polygon fill="#63b8ff" stroke="#63b8ff" points="273.07,-43.48 279.68,-35.2 269.35,-37.55 273.07,-43.48"/>
</a>
</g>
<g id="a_edge8&#45;headlabel"><a xlink:href="dir_000028_000010.html" target="_top" xlink:title="10">
<text text-anchor="middle" x="271.54" y="-45.29" font-family="Helvetica,sans-Serif" font-size="10.00" fill="#63b8ff">10</text>
</a>
</g>
</g>
<!-- dir_deb6f38fabcacb3d9327502f4723bff5&#45;&gt;dir_ed435641f8e8047e0f5542c775bc8256 -->
<g id="edge11" class="edge">
<title>dir_deb6f38fabcacb3d9327502f4723bff5&#45;&gt;dir_ed435641f8e8047e0f5542c775bc8256</title>
<g id="a_edge11"><a xlink:href="dir_000028_000033.html" target="_top">
<path fill="none" stroke="#63b8ff" d="M127.61,-125.99C137.77,-117.29 153.71,-103.21 166.5,-90 181.22,-74.79 196.75,-56.24 207.35,-43.12"/>
<polygon fill="#63b8ff" stroke="#63b8ff" points="210.32,-45.01 213.84,-35.02 204.86,-40.64 210.32,-45.01"/>
</a>
</g>
<g id="a_edge11&#45;headlabel"><a xlink:href="dir_000028_000033.html" target="_top" xlink:title="26">
<text text-anchor="middle" x="210.29" y="-47.09" font-family="Helvetica,sans-Serif" font-size="10.00" fill="#63b8ff">26</text>
</a>
</g>
</g>
<!-- dir_389a21b4e0d5da4afd1bc923d1c21e90&#45;&gt;dir_6d30109d817e3a6d4be9084cc265e05a -->
<g id="edge14" class="edge">
<title>dir_389a21b4e0d5da4afd1bc923d1c21e90&#45;&gt;dir_6d30109d817e3a6d4be9084cc265e05a</title>
<g id="a_edge14"><a xlink:href="dir_000030_000032.html" target="_top">
<path fill="none" stroke="#63b8ff" d="M129.5,-70.98C121.31,-63.23 108.99,-51.58 99.03,-42.14"/>
<polygon fill="#63b8ff" stroke="#63b8ff" points="101.33,-39.5 91.66,-35.17 96.52,-44.59 101.33,-39.5"/>
</a>
</g>
<g id="a_edge14&#45;headlabel"><a xlink:href="dir_000030_000032.html" target="_top" xlink:title="11">
<text text-anchor="middle" x="105.89" y="-37.41" font-family="Helvetica,sans-Serif" font-size="10.00" fill="#63b8ff">11</text>
</a>
</g>
</g>
<!-- dir_389a21b4e0d5da4afd1bc923d1c21e90&#45;&gt;dir_82abf9c3cae407e2f368e3cd0d776797 -->
<g id="edge17" class="edge">
<title>dir_389a21b4e0d5da4afd1bc923d1c21e90&#45;&gt;dir_82abf9c3cae407e2f368e3cd0d776797</title>
<g id="a_edge17"><a xlink:href="dir_000030_000044.html" target="_top">
<path fill="none" stroke="#63b8ff" d="M140.48,-70.75C142.07,-63.72 144.36,-53.62 146.35,-44.84"/>
<polygon fill="#63b8ff" stroke="#63b8ff" points="149.76,-45.62 148.56,-35.09 142.93,-44.07 149.76,-45.62"/>
</a>
</g>
<g id="a_edge17&#45;headlabel"><a xlink:href="dir_000030_000044.html" target="_top" xlink:title="2">
<text text-anchor="middle" x="151.74" y="-47.25" font-family="Helvetica,sans-Serif" font-size="10.00" fill="#63b8ff">2</text>
</a>
</g>
</g>
<!-- dir_389a21b4e0d5da4afd1bc923d1c21e90&#45;&gt;dir_deb6f38fabcacb3d9327502f4723bff5 -->
<g id="edge15" class="edge">
<title>dir_389a21b4e0d5da4afd1bc923d1c21e90&#45;&gt;dir_deb6f38fabcacb3d9327502f4723bff5</title>
<g id="a_edge15"><a xlink:href="dir_000030_000028.html" target="_top">
<path fill="none" stroke="#63b8ff" d="M140.23,-90.09C138.95,-97.29 135.2,-107.82 130.91,-116.82"/>
<polygon fill="#63b8ff" stroke="#63b8ff" points="127.77,-115.28 126.13,-125.75 133.94,-118.58 127.77,-115.28"/>
</a>
</g>
<g id="a_edge15&#45;headlabel"><a xlink:href="dir_000030_000028.html" target="_top" xlink:title="47">
<text text-anchor="middle" x="126.96" y="-108.27" font-family="Helvetica,sans-Serif" font-size="10.00" fill="#63b8ff">47</text>
</a>
</g>
</g>
<!-- dir_389a21b4e0d5da4afd1bc923d1c21e90&#45;&gt;dir_372774f0ab5e2d6e2a78b40358f88508 -->
<g id="edge12" class="edge">
<title>dir_389a21b4e0d5da4afd1bc923d1c21e90&#45;&gt;dir_372774f0ab5e2d6e2a78b40358f88508</title>
<g id="a_edge12"><a xlink:href="dir_000030_000063.html" target="_top">
<path fill="none" stroke="#63b8ff" d="M119.54,-70.98C100.47,-62.42 70.84,-49.11 48.95,-39.28"/>
<polygon fill="#63b8ff" stroke="#63b8ff" points="50.36,-36.07 39.8,-35.17 47.49,-42.46 50.36,-36.07"/>
</a>
</g>
<g id="a_edge12&#45;headlabel"><a xlink:href="dir_000030_000063.html" target="_top" xlink:title="1">
<text text-anchor="middle" x="54.8" y="-32.46" font-family="Helvetica,sans-Serif" font-size="10.00" fill="#63b8ff">1</text>
</a>
</g>
</g>
<!-- dir_389a21b4e0d5da4afd1bc923d1c21e90&#45;&gt;dir_4045643538bad1aadeff61b05dc9bc0d -->
<g id="edge13" class="edge">
<title>dir_389a21b4e0d5da4afd1bc923d1c21e90&#45;&gt;dir_4045643538bad1aadeff61b05dc9bc0d</title>
<g id="a_edge13"><a xlink:href="dir_000030_000010.html" target="_top">
<path fill="none" stroke="#63b8ff" d="M157.51,-73C182.67,-64.4 227.51,-49.06 258.8,-38.37"/>
<polygon fill="#63b8ff" stroke="#63b8ff" points="260.11,-41.62 268.44,-35.07 257.84,-34.99 260.11,-41.62"/>
</a>
</g>
<g id="a_edge13&#45;headlabel"><a xlink:href="dir_000030_000010.html" target="_top" xlink:title="7">
<text text-anchor="middle" x="257.62" y="-42.97" font-family="Helvetica,sans-Serif" font-size="10.00" fill="#63b8ff">7</text>
</a>
</g>
</g>
<!-- dir_389a21b4e0d5da4afd1bc923d1c21e90&#45;&gt;dir_ed435641f8e8047e0f5542c775bc8256 -->
<g id="edge16" class="edge">
<title>dir_389a21b4e0d5da4afd1bc923d1c21e90&#45;&gt;dir_ed435641f8e8047e0f5542c775bc8256</title>
<g id="a_edge16"><a xlink:href="dir_000030_000033.html" target="_top">
<path fill="none" stroke="#63b8ff" d="M151.67,-70.98C164.27,-62.84 183.5,-50.41 198.44,-40.76"/>
<polygon fill="#63b8ff" stroke="#63b8ff" points="200.59,-43.54 207.09,-35.17 196.79,-37.66 200.59,-43.54"/>
</a>
</g>
<g id="a_edge16&#45;headlabel"><a xlink:href="dir_000030_000033.html" target="_top" xlink:title="16">
<text text-anchor="middle" x="199.11" y="-45.37" font-family="Helvetica,sans-Serif" font-size="10.00" fill="#63b8ff">16</text>
</a>
</g>
</g>
</g>
</svg>
</svg>

<style type='text/css'>
<![CDATA[
[data-mouse-over-selected='false'] { opacity: 0.7; }
[data-mouse-over-selected='true']  { opacity: 1.0; }
]]>
</style>
<script type="application/ecmascript"><![CDATA[
document.addEventListener('DOMContentLoaded', (event) => {
  highlightEdges();
  highlightAdjacentNodes();
});
]]></script>
</svg>
