<?xml version="1.0" encoding="UTF-8" standalone="no"?>
<!DOCTYPE svg PUBLIC "-//W3C//DTD SVG 1.1//EN"
 "http://www.w3.org/Graphics/SVG/1.1/DTD/svg11.dtd">
<!-- Generated by graphviz version 2.43.0 (0)
 -->
<!-- Title: /home/runner/work/Weaver/Weaver/include/App/Model/IBM/Landscape/LivingBeings/Growth/EdibleGrowth.h Pages: 1 -->
<!--zoomable 280 -->

<svg id="main" version="1.1" xmlns="http://www.w3.org/2000/svg" xmlns:xlink="http://www.w3.org/1999/xlink" xml:space="preserve" onload="init(evt)">
<style type="text/css"><![CDATA[
.node, .edge {opacity: 0.7;}
.node.selected, .edge.selected {opacity: 1;}
.edge:hover path { stroke: red; }
.edge:hover polygon { stroke: red; fill: red; }
]]></style>

<defs>
  <circle id="rim" cx="0" cy="0" r="7"/>
  <circle id="rim2" cx="0" cy="0" r="3.5"/>
  <g id="zoomPlus">
    <use xlink:href="#rim" fill="#404040"><set attributeName="fill" to="#808080" begin="zoomplus.mouseover" end="zoomplus.mouseout"/></use>
    <path d="M-4,0h8M0,-4v8" fill="none" stroke="white" stroke-width="1.5" pointer-events="none"/>
  </g>
  <g id="zoomMin">
    <use xlink:href="#rim" fill="#404040"><set attributeName="fill" to="#808080" begin="zoomminus.mouseover" end="zoomminus.mouseout"/></use>
    <path d="M-4,0h8" fill="none" stroke="white" stroke-width="1.5" pointer-events="none"/>
  </g>
  <g id="arrowUp" transform="translate(30 24)">
    <use xlink:href="#rim"/>
    <path pointer-events="none" fill="none" stroke="white" stroke-width="1.5" d="M0,-3.0v7 M-2.5,-0.5L0,-3.0L2.5,-0.5"/>
  </g>
  <g id="arrowRight" transform="rotate(90) translate(36 -43)">
    <use xlink:href="#rim"/>
    <path pointer-events="none" fill="none" stroke="white" stroke-width="1.5" d="M0,-3.0v7 M-2.5,-0.5L0,-3.0L2.5,-0.5"/>
  </g>
  <g id="arrowDown" transform="rotate(180) translate(-30 -48)">
    <use xlink:href="#rim"/>
    <path pointer-events="none" fill="none" stroke="white" stroke-width="1.5" d="M0,-3.0v7 M-2.5,-0.5L0,-3.0L2.5,-0.5"/>
  </g>
  <g id="arrowLeft" transform="rotate(270) translate(-36 17)">
    <use xlink:href="#rim"/>
    <path pointer-events="none" fill="none" stroke="white" stroke-width="1.5" d="M0,-3.0v7 M-2.5,-0.5L0,-3.0L2.5,-0.5"/>
  </g>
  <g id="resetDef">
    <use xlink:href="#rim2" fill="#404040"><set attributeName="fill" to="#808080" begin="reset.mouseover" end="reset.mouseout"/></use>
  </g>
</defs>
<script type="application/ecmascript">
var viewWidth = 1237;
var viewHeight = 280;
var sectionId = 'dynsection-0';
</script>
<script type="application/ecmascript" xlink:href="svg.min.js"/>
<svg id="graph" class="graph">
<g id="viewport">
<title>/home/runner/work/Weaver/Weaver/include/App/Model/IBM/Landscape/LivingBeings/Growth/EdibleGrowth.h</title>
<!-- Node1 -->
<g id="Node000001" class="node">
<title>Node1</title>
<g id="a_Node000001"><a xlink:title="Defines the EdibleGrowth class, which represents the growth state of an edible entity.">
<polygon fill="#999999" stroke="#666666" points="730.5,-272 572.5,-272 572.5,-220 730.5,-220 730.5,-272"/>
<text text-anchor="start" x="580.5" y="-260" font-family="Helvetica,sans-Serif" font-size="10.00">/home/runner/work/Weaver</text>
<text text-anchor="start" x="580.5" y="-249" font-family="Helvetica,sans-Serif" font-size="10.00">/Weaver/include/App/Model</text>
<text text-anchor="start" x="580.5" y="-238" font-family="Helvetica,sans-Serif" font-size="10.00">/IBM/Landscape/LivingBeings</text>
<text text-anchor="middle" x="651.5" y="-227" font-family="Helvetica,sans-Serif" font-size="10.00">/Growth/EdibleGrowth.h</text>
</a>
</g>
</g>
<!-- Node2 -->
<g id="Node000002" class="node">
<title>Node2</title>
<g id="a_Node000002"><a xlink:title=" ">
<polygon fill="#e0e0e0" stroke="#999999" points="1006,-30 901,-30 901,0 1006,0 1006,-30"/>
<text text-anchor="start" x="909" y="-18" font-family="Helvetica,sans-Serif" font-size="10.00">boost/archive/text</text>
<text text-anchor="middle" x="953.5" y="-7" font-family="Helvetica,sans-Serif" font-size="10.00">_iarchive.hpp</text>
</a>
</g>
</g>
<!-- Node1&#45;&gt;Node2 -->
<g id="edge1_Node000001_Node000002" class="edge">
<title>Node1&#45;&gt;Node2</title>
<g id="a_edge1_Node000001_Node000002"><a xlink:title=" ">
<path fill="none" stroke="#63b8ff" d="M730.82,-239.5C808.82,-232.27 920.07,-216.46 947.5,-184 981.64,-143.6 970.45,-76.19 961,-40.27"/>
<polygon fill="#63b8ff" stroke="#63b8ff" points="964.24,-38.88 958.17,-30.2 957.5,-40.77 964.24,-38.88"/>
</a>
</g>
</g>
<!-- Node3 -->
<g id="Node000003" class="node">
<title>Node3</title>
<g id="a_Node000003"><a xlink:title=" ">
<polygon fill="#e0e0e0" stroke="#999999" points="305,-30 200,-30 200,0 305,0 305,-30"/>
<text text-anchor="start" x="208" y="-18" font-family="Helvetica,sans-Serif" font-size="10.00">boost/archive/text</text>
<text text-anchor="middle" x="252.5" y="-7" font-family="Helvetica,sans-Serif" font-size="10.00">_oarchive.hpp</text>
</a>
</g>
</g>
<!-- Node1&#45;&gt;Node3 -->
<g id="edge2_Node000001_Node000003" class="edge">
<title>Node1&#45;&gt;Node3</title>
<g id="a_edge2_Node000001_Node000003"><a xlink:title=" ">
<path fill="none" stroke="#63b8ff" d="M572.3,-233.82C521.34,-224.71 454.57,-209.15 399.5,-184 345.88,-159.51 328.48,-152.91 291.5,-107 275.41,-87.03 264.83,-59.43 258.8,-39.88"/>
<polygon fill="#63b8ff" stroke="#63b8ff" points="262.14,-38.83 255.99,-30.2 255.42,-40.78 262.14,-38.83"/>
</a>
</g>
</g>
<!-- Node4 -->
<g id="Node000004" class="node">
<title>Node4</title>
<g id="a_Node000004"><a xlink:title=" ">
<polygon fill="#e0e0e0" stroke="#999999" points="181.5,-30 65.5,-30 65.5,0 181.5,0 181.5,-30"/>
<text text-anchor="start" x="73.5" y="-18" font-family="Helvetica,sans-Serif" font-size="10.00">boost/archive/binary</text>
<text text-anchor="middle" x="123.5" y="-7" font-family="Helvetica,sans-Serif" font-size="10.00">_iarchive.hpp</text>
</a>
</g>
</g>
<!-- Node1&#45;&gt;Node4 -->
<g id="edge3_Node000001_Node000004" class="edge">
<title>Node1&#45;&gt;Node4</title>
<g id="a_edge3_Node000001_Node000004"><a xlink:title=" ">
<path fill="none" stroke="#63b8ff" d="M572.33,-239.04C504.15,-231.88 404.13,-216.49 322.5,-184 263.97,-160.7 251.19,-148.16 203.5,-107 179.08,-85.93 155.22,-57.46 140,-38.01"/>
<polygon fill="#63b8ff" stroke="#63b8ff" points="142.72,-35.8 133.84,-30.02 137.18,-40.08 142.72,-35.8"/>
</a>
</g>
</g>
<!-- Node5 -->
<g id="Node000005" class="node">
<title>Node5</title>
<g id="a_Node000005"><a xlink:title=" ">
<polygon fill="#e0e0e0" stroke="#999999" points="882.5,-30 766.5,-30 766.5,0 882.5,0 882.5,-30"/>
<text text-anchor="start" x="774.5" y="-18" font-family="Helvetica,sans-Serif" font-size="10.00">boost/archive/binary</text>
<text text-anchor="middle" x="824.5" y="-7" font-family="Helvetica,sans-Serif" font-size="10.00">_oarchive.hpp</text>
</a>
</g>
</g>
<!-- Node1&#45;&gt;Node5 -->
<g id="edge4_Node000001_Node000005" class="edge">
<title>Node1&#45;&gt;Node5</title>
<g id="a_edge4_Node000001_Node000005"><a xlink:title=" ">
<path fill="none" stroke="#63b8ff" d="M670.68,-219.62C704.75,-174.51 775.3,-81.13 807.64,-38.32"/>
<polygon fill="#63b8ff" stroke="#63b8ff" points="810.52,-40.31 813.75,-30.22 804.93,-36.09 810.52,-40.31"/>
</a>
</g>
</g>
<!-- Node6 -->
<g id="Node000006" class="node">
<title>Node6</title>
<g id="a_Node000006"><a xlink:href="SpeciesGrowth_8h.html" target="_top" xlink:title="Defines the SpeciesGrowth class representing the growth characteristics of a species.">
<polygon fill="white" stroke="#666666" points="939,-184 794,-184 794,-143 939,-143 939,-184"/>
<text text-anchor="start" x="802" y="-172" font-family="Helvetica,sans-Serif" font-size="10.00">App/Model/IBM/Landscape</text>
<text text-anchor="start" x="802" y="-161" font-family="Helvetica,sans-Serif" font-size="10.00">/LivingBeings/Species</text>
<text text-anchor="middle" x="866.5" y="-150" font-family="Helvetica,sans-Serif" font-size="10.00">/Growth/SpeciesGrowth.h</text>
</a>
</g>
</g>
<!-- Node1&#45;&gt;Node6 -->
<g id="edge5_Node000001_Node000006" class="edge">
<title>Node1&#45;&gt;Node6</title>
<g id="a_edge5_Node000001_Node000006"><a xlink:title=" ">
<path fill="none" stroke="#63b8ff" d="M718.35,-219.97C746.03,-209.61 777.92,-197.67 805.01,-187.52"/>
<polygon fill="#63b8ff" stroke="#63b8ff" points="806.24,-190.8 814.38,-184.02 803.78,-184.25 806.24,-190.8"/>
</a>
</g>
</g>
<!-- Node19 -->
<g id="Node000019" class="node">
<title>Node19</title>
<g id="a_Node000019"><a xlink:href="StructuralUnits_8h.html" target="_top" xlink:title="Defines physical units used in the simulation: DryMass, WetMass, and Length.">
<polygon fill="white" stroke="#666666" points="576,-178.5 409,-178.5 409,-148.5 576,-148.5 576,-178.5"/>
<text text-anchor="start" x="417" y="-166.5" font-family="Helvetica,sans-Serif" font-size="10.00">App/Model/IBM/Landscape</text>
<text text-anchor="middle" x="492.5" y="-155.5" font-family="Helvetica,sans-Serif" font-size="10.00">/LivingBeings/StructuralUnits.h</text>
</a>
</g>
</g>
<!-- Node1&#45;&gt;Node19 -->
<g id="edge33_Node000001_Node000019" class="edge">
<title>Node1&#45;&gt;Node19</title>
<g id="a_edge33_Node000001_Node000019"><a xlink:title=" ">
<path fill="none" stroke="#63b8ff" d="M602.06,-219.97C578.72,-208.15 551.31,-194.28 529.75,-183.36"/>
<polygon fill="#63b8ff" stroke="#63b8ff" points="531.1,-180.12 520.6,-178.73 527.94,-186.36 531.1,-180.12"/>
</a>
</g>
</g>
<!-- Node6&#45;&gt;Node2 -->
<g id="edge8_Node000006_Node000002" class="edge">
<title>Node6&#45;&gt;Node2</title>
<g id="a_edge8_Node000006_Node000002"><a xlink:title=" ">
<path fill="none" stroke="#63b8ff" d="M875.27,-142.71C884.39,-122.8 899.53,-91.47 915.5,-66 921.41,-56.58 928.64,-46.73 935.2,-38.28"/>
<polygon fill="#63b8ff" stroke="#63b8ff" points="938,-40.39 941.47,-30.38 932.51,-36.04 938,-40.39"/>
</a>
</g>
</g>
<!-- Node6&#45;&gt;Node3 -->
<g id="edge9_Node000006_Node000003" class="edge">
<title>Node6&#45;&gt;Node3</title>
<g id="a_edge9_Node000006_Node000003"><a xlink:title=" ">
<path fill="none" stroke="#63b8ff" d="M793.94,-156.85C666.74,-146.57 413.44,-124.26 376.5,-107 352.58,-95.82 354.4,-82.13 333.5,-66 318.98,-54.8 301.83,-43.91 287.06,-35.17"/>
<polygon fill="#63b8ff" stroke="#63b8ff" points="288.61,-32.03 278.21,-30.02 285.09,-38.08 288.61,-32.03"/>
</a>
</g>
</g>
<!-- Node6&#45;&gt;Node4 -->
<g id="edge10_Node000006_Node000004" class="edge">
<title>Node6&#45;&gt;Node4</title>
<g id="a_edge10_Node000006_Node000004"><a xlink:title=" ">
<path fill="none" stroke="#63b8ff" d="M793.83,-156.65C658.17,-145.49 376.21,-121 333.5,-107 299.24,-95.77 296.18,-81.24 263.5,-66 236.43,-53.38 205.23,-41.95 179.16,-33.21"/>
<polygon fill="#63b8ff" stroke="#63b8ff" points="180.04,-29.82 169.44,-30 177.84,-36.46 180.04,-29.82"/>
</a>
</g>
</g>
<!-- Node6&#45;&gt;Node5 -->
<g id="edge11_Node000006_Node000005" class="edge">
<title>Node6&#45;&gt;Node5</title>
<g id="a_edge11_Node000006_Node000005"><a xlink:title=" ">
<path fill="none" stroke="#63b8ff" d="M860.84,-142.74C853.18,-116.03 839.54,-68.45 831.32,-39.81"/>
<polygon fill="#63b8ff" stroke="#63b8ff" points="834.69,-38.83 828.57,-30.18 827.96,-40.76 834.69,-38.83"/>
</a>
</g>
</g>
<!-- Node7 -->
<g id="Node000007" class="node">
<title>Node7</title>
<g id="a_Node000007"><a xlink:title=" ">
<polygon fill="#e0e0e0" stroke="#999999" points="1085,-24.5 1038,-24.5 1038,-5.5 1085,-5.5 1085,-24.5"/>
<text text-anchor="middle" x="1061.5" y="-12.5" font-family="Helvetica,sans-Serif" font-size="10.00">vector</text>
</a>
</g>
</g>
<!-- Node6&#45;&gt;Node7 -->
<g id="edge6_Node000006_Node000007" class="edge">
<title>Node6&#45;&gt;Node7</title>
<g id="a_edge6_Node000006_Node000007"><a xlink:title=" ">
<path fill="none" stroke="#63b8ff" d="M889.92,-142.64C913.75,-122.66 952,-91.29 986.5,-66 1003.74,-53.36 1023.95,-39.97 1039.04,-30.23"/>
<polygon fill="#63b8ff" stroke="#63b8ff" points="1041.17,-33.02 1047.7,-24.67 1037.39,-27.12 1041.17,-33.02"/>
</a>
</g>
</g>
<!-- Node8 -->
<g id="Node000008" class="node">
<title>Node8</title>
<g id="a_Node000008"><a xlink:title=" ">
<polygon fill="#e0e0e0" stroke="#999999" points="1229,-30 1122,-30 1122,0 1229,0 1229,-30"/>
<text text-anchor="start" x="1130" y="-18" font-family="Helvetica,sans-Serif" font-size="10.00">boost/serialization</text>
<text text-anchor="middle" x="1175.5" y="-7" font-family="Helvetica,sans-Serif" font-size="10.00">/vector.hpp</text>
</a>
</g>
</g>
<!-- Node6&#45;&gt;Node8 -->
<g id="edge7_Node000006_Node000008" class="edge">
<title>Node6&#45;&gt;Node8</title>
<g id="a_edge7_Node000006_Node000008"><a xlink:title=" ">
<path fill="none" stroke="#63b8ff" d="M939.05,-158.39C1016.59,-152.42 1132.44,-138.39 1162.5,-107 1179.25,-89.51 1180.71,-60.78 1179.12,-40.29"/>
<polygon fill="#63b8ff" stroke="#63b8ff" points="1182.58,-39.72 1178.04,-30.15 1175.62,-40.46 1182.58,-39.72"/>
</a>
</g>
</g>
<!-- Node9 -->
<g id="Node000009" class="node">
<title>Node9</title>
<g id="a_Node000009"><a xlink:href="Instar_8h.html" target="_top" xlink:title="Defines the Instar class representing developmental stages of an animal.">
<polygon fill="white" stroke="#666666" points="711,-107 566,-107 566,-66 711,-66 711,-107"/>
<text text-anchor="start" x="574" y="-95" font-family="Helvetica,sans-Serif" font-size="10.00">App/Model/IBM/Landscape</text>
<text text-anchor="start" x="574" y="-84" font-family="Helvetica,sans-Serif" font-size="10.00">/LivingBeings/Species</text>
<text text-anchor="middle" x="638.5" y="-73" font-family="Helvetica,sans-Serif" font-size="10.00">/Growth/Instar.h</text>
</a>
</g>
</g>
<!-- Node6&#45;&gt;Node9 -->
<g id="edge12_Node000006_Node000009" class="edge">
<title>Node6&#45;&gt;Node9</title>
<g id="a_edge12_Node000006_Node000009"><a xlink:title=" ">
<path fill="none" stroke="#63b8ff" d="M807.19,-142.99C776.7,-132.96 739.37,-120.68 707.58,-110.22"/>
<polygon fill="#63b8ff" stroke="#63b8ff" points="708.5,-106.84 697.91,-107.04 706.31,-113.49 708.5,-106.84"/>
</a>
</g>
</g>
<!-- Node12 -->
<g id="Node000012" class="node">
<title>Node12</title>
<g id="a_Node000012"><a xlink:href="CustomIndexedVector_8h.html" target="_top" xlink:title="Template class providing a vector indexed by a custom type with bounds checking and Boost....">
<polygon fill="white" stroke="#666666" points="1153,-96 996,-96 996,-77 1153,-77 1153,-96"/>
<text text-anchor="middle" x="1074.5" y="-84" font-family="Helvetica,sans-Serif" font-size="10.00">Misc/CustomIndexedVector.h</text>
</a>
</g>
</g>
<!-- Node6&#45;&gt;Node12 -->
<g id="edge19_Node000006_Node000012" class="edge">
<title>Node6&#45;&gt;Node12</title>
<g id="a_edge19_Node000006_Node000012"><a xlink:title=" ">
<path fill="none" stroke="#63b8ff" d="M920.61,-142.99C958.79,-129.22 1008.72,-111.22 1041.2,-99.51"/>
<polygon fill="#63b8ff" stroke="#63b8ff" points="1042.46,-102.77 1050.68,-96.09 1040.09,-96.19 1042.46,-102.77"/>
</a>
</g>
</g>
<!-- Node13 -->
<g id="Node000013" class="node">
<title>Node13</title>
<g id="a_Node000013"><a xlink:href="PreciseDouble_8h.html" target="_top" xlink:title="Defines the PreciseDouble class for safe and precise double&#45;precision arithmetic.">
<polygon fill="white" stroke="#666666" points="509,-101.5 386,-101.5 386,-71.5 509,-71.5 509,-101.5"/>
<text text-anchor="start" x="394" y="-89.5" font-family="Helvetica,sans-Serif" font-size="10.00">App/Model/IBM/Maths</text>
<text text-anchor="middle" x="447.5" y="-78.5" font-family="Helvetica,sans-Serif" font-size="10.00">/PreciseDouble.h</text>
</a>
</g>
</g>
<!-- Node6&#45;&gt;Node13 -->
<g id="edge22_Node000006_Node000013" class="edge">
<title>Node6&#45;&gt;Node13</title>
<g id="a_edge22_Node000006_Node000013"><a xlink:title=" ">
<path fill="none" stroke="#63b8ff" d="M793.99,-149.52C716.99,-135.74 596.03,-114.09 519.3,-100.35"/>
<polygon fill="#63b8ff" stroke="#63b8ff" points="519.7,-96.87 509.24,-98.55 518.47,-103.76 519.7,-96.87"/>
</a>
</g>
</g>
<!-- Node9&#45;&gt;Node2 -->
<g id="edge15_Node000009_Node000002" class="edge">
<title>Node9&#45;&gt;Node2</title>
<g id="a_edge15_Node000009_Node000002"><a xlink:title=" ">
<path fill="none" stroke="#63b8ff" d="M711.05,-69.71C759.27,-59.18 824.27,-44.94 890.9,-30.13"/>
<polygon fill="#63b8ff" stroke="#63b8ff" points="891.74,-33.53 900.74,-27.94 890.22,-26.69 891.74,-33.53"/>
</a>
</g>
</g>
<!-- Node9&#45;&gt;Node3 -->
<g id="edge16_Node000009_Node000003" class="edge">
<title>Node9&#45;&gt;Node3</title>
<g id="a_edge16_Node000009_Node000003"><a xlink:title=" ">
<path fill="none" stroke="#63b8ff" d="M565.69,-73.56C489.7,-61.01 374.48,-41.74 315.1,-30.24"/>
<polygon fill="#63b8ff" stroke="#63b8ff" points="315.52,-26.75 305.03,-28.25 314.17,-33.62 315.52,-26.75"/>
</a>
</g>
</g>
<!-- Node9&#45;&gt;Node4 -->
<g id="edge17_Node000009_Node000004" class="edge">
<title>Node9&#45;&gt;Node4</title>
<g id="a_edge17_Node000009_Node000004"><a xlink:title=" ">
<path fill="none" stroke="#63b8ff" d="M565.97,-73.2C550.02,-70.67 533.21,-68.13 517.5,-66 375.87,-46.8 336.64,-52.7 191.7,-30.09"/>
<polygon fill="#63b8ff" stroke="#63b8ff" points="191.96,-26.59 181.54,-28.49 190.87,-33.5 191.96,-26.59"/>
</a>
</g>
</g>
<!-- Node9&#45;&gt;Node5 -->
<g id="edge18_Node000009_Node000005" class="edge">
<title>Node9&#45;&gt;Node5</title>
<g id="a_edge18_Node000009_Node000005"><a xlink:title=" ">
<path fill="none" stroke="#63b8ff" d="M690.81,-65.96C718.08,-55.76 751.17,-43.4 777.61,-33.52"/>
<polygon fill="#63b8ff" stroke="#63b8ff" points="778.88,-36.78 787.02,-30 776.43,-30.23 778.88,-36.78"/>
</a>
</g>
</g>
<!-- Node10 -->
<g id="Node000010" class="node">
<title>Node10</title>
<g id="a_Node000010"><a xlink:title=" ">
<polygon fill="#e0e0e0" stroke="#999999" points="748,-24.5 691,-24.5 691,-5.5 748,-5.5 748,-24.5"/>
<text text-anchor="middle" x="719.5" y="-12.5" font-family="Helvetica,sans-Serif" font-size="10.00">ostream</text>
</a>
</g>
</g>
<!-- Node9&#45;&gt;Node10 -->
<g id="edge13_Node000009_Node000010" class="edge">
<title>Node9&#45;&gt;Node10</title>
<g id="a_edge13_Node000009_Node000010"><a xlink:title=" ">
<path fill="none" stroke="#63b8ff" d="M661.49,-65.77C674.14,-54.92 689.61,-41.65 701.39,-31.54"/>
<polygon fill="#63b8ff" stroke="#63b8ff" points="703.91,-33.99 709.22,-24.82 699.35,-28.68 703.91,-33.99"/>
</a>
</g>
</g>
<!-- Node11 -->
<g id="Node000011" class="node">
<title>Node11</title>
<g id="a_Node000011"><a xlink:title=" ">
<polygon fill="#e0e0e0" stroke="#999999" points="672.5,-24.5 628.5,-24.5 628.5,-5.5 672.5,-5.5 672.5,-24.5"/>
<text text-anchor="middle" x="650.5" y="-12.5" font-family="Helvetica,sans-Serif" font-size="10.00">string</text>
</a>
</g>
</g>
<!-- Node9&#45;&gt;Node11 -->
<g id="edge14_Node000009_Node000011" class="edge">
<title>Node9&#45;&gt;Node11</title>
<g id="a_edge14_Node000009_Node000011"><a xlink:title=" ">
<path fill="none" stroke="#63b8ff" d="M641.91,-65.77C643.58,-56.08 645.59,-44.46 647.24,-34.88"/>
<polygon fill="#63b8ff" stroke="#63b8ff" points="650.72,-35.27 648.98,-24.82 643.83,-34.08 650.72,-35.27"/>
</a>
</g>
</g>
<!-- Node12&#45;&gt;Node7 -->
<g id="edge20_Node000012_Node000007" class="edge">
<title>Node12&#45;&gt;Node7</title>
<g id="a_edge20_Node000012_Node000007"><a xlink:title=" ">
<path fill="none" stroke="#63b8ff" d="M1072.91,-76.98C1070.94,-66.45 1067.53,-48.25 1064.95,-34.47"/>
<polygon fill="#63b8ff" stroke="#63b8ff" points="1068.39,-33.78 1063.11,-24.59 1061.51,-35.06 1068.39,-33.78"/>
</a>
</g>
</g>
<!-- Node12&#45;&gt;Node8 -->
<g id="edge21_Node000012_Node000008" class="edge">
<title>Node12&#45;&gt;Node8</title>
<g id="a_edge21_Node000012_Node000008"><a xlink:title=" ">
<path fill="none" stroke="#63b8ff" d="M1086.88,-76.98C1101.66,-66.81 1126.84,-49.48 1146.59,-35.89"/>
<polygon fill="#63b8ff" stroke="#63b8ff" points="1148.7,-38.69 1154.95,-30.14 1144.73,-32.92 1148.7,-38.69"/>
</a>
</g>
</g>
<!-- Node13&#45;&gt;Node2 -->
<g id="edge23_Node000013_Node000002" class="edge">
<title>Node13&#45;&gt;Node2</title>
<g id="a_edge23_Node000013_Node000002"><a xlink:title=" ">
<path fill="none" stroke="#63b8ff" d="M509.06,-73.71C524.51,-70.97 541.09,-68.2 556.5,-66 701.55,-45.26 742.05,-54.13 890.86,-29.97"/>
<polygon fill="#63b8ff" stroke="#63b8ff" points="891.52,-33.41 900.82,-28.33 890.38,-26.5 891.52,-33.41"/>
</a>
</g>
</g>
<!-- Node13&#45;&gt;Node3 -->
<g id="edge24_Node000013_Node000003" class="edge">
<title>Node13&#45;&gt;Node3</title>
<g id="a_edge24_Node000013_Node000003"><a xlink:title=" ">
<path fill="none" stroke="#63b8ff" d="M408.04,-71.44C377.25,-60.46 334.31,-45.16 301.35,-33.41"/>
<polygon fill="#63b8ff" stroke="#63b8ff" points="302.5,-30.1 291.9,-30.04 300.15,-36.7 302.5,-30.1"/>
</a>
</g>
</g>
<!-- Node13&#45;&gt;Node4 -->
<g id="edge25_Node000013_Node000004" class="edge">
<title>Node13&#45;&gt;Node4</title>
<g id="a_edge25_Node000013_Node000004"><a xlink:title=" ">
<path fill="none" stroke="#63b8ff" d="M385.8,-72.26C330.37,-60.37 249.12,-42.95 191.77,-30.64"/>
<polygon fill="#63b8ff" stroke="#63b8ff" points="192.22,-27.16 181.71,-28.49 190.75,-34 192.22,-27.16"/>
</a>
</g>
</g>
<!-- Node13&#45;&gt;Node5 -->
<g id="edge26_Node000013_Node000005" class="edge">
<title>Node13&#45;&gt;Node5</title>
<g id="a_edge26_Node000013_Node000005"><a xlink:title=" ">
<path fill="none" stroke="#63b8ff" d="M509.13,-74.47C587.3,-60.48 715.98,-37.42 756.43,-29.94"/>
<polygon fill="#63b8ff" stroke="#63b8ff" points="757.1,-33.37 766.28,-28.09 755.81,-26.49 757.1,-33.37"/>
</a>
</g>
</g>
<!-- Node13&#45;&gt;Node11 -->
<g id="edge27_Node000013_Node000011" class="edge">
<title>Node13&#45;&gt;Node11</title>
<g id="a_edge27_Node000013_Node000011"><a xlink:title=" ">
<path fill="none" stroke="#63b8ff" d="M495.83,-71.49C530.58,-61.03 578.37,-45.87 619.5,-30 620.68,-29.55 621.87,-29.07 623.08,-28.58"/>
<polygon fill="#63b8ff" stroke="#63b8ff" points="624.47,-31.79 632.28,-24.64 621.71,-25.36 624.47,-31.79"/>
</a>
</g>
</g>
<!-- Node14 -->
<g id="Node000014" class="node">
<title>Node14</title>
<g id="a_Node000014"><a xlink:title=" ">
<polygon fill="#e0e0e0" stroke="#999999" points="47,-24.5 0,-24.5 0,-5.5 47,-5.5 47,-24.5"/>
<text text-anchor="middle" x="23.5" y="-12.5" font-family="Helvetica,sans-Serif" font-size="10.00">cmath</text>
</a>
</g>
</g>
<!-- Node13&#45;&gt;Node14 -->
<g id="edge28_Node000013_Node000014" class="edge">
<title>Node13&#45;&gt;Node14</title>
<g id="a_edge28_Node000013_Node000014"><a xlink:title=" ">
<path fill="none" stroke="#63b8ff" d="M385.87,-81.72C307.97,-75.82 170.28,-61.63 56.5,-30 54.61,-29.47 52.69,-28.87 50.77,-28.21"/>
<polygon fill="#63b8ff" stroke="#63b8ff" points="51.94,-24.91 41.35,-24.57 49.42,-31.44 51.94,-24.91"/>
</a>
</g>
</g>
<!-- Node15 -->
<g id="Node000015" class="node">
<title>Node15</title>
<g id="a_Node000015"><a xlink:title=" ">
<polygon fill="#e0e0e0" stroke="#999999" points="470.5,-24.5 406.5,-24.5 406.5,-5.5 470.5,-5.5 470.5,-24.5"/>
<text text-anchor="middle" x="438.5" y="-12.5" font-family="Helvetica,sans-Serif" font-size="10.00">algorithm</text>
</a>
</g>
</g>
<!-- Node13&#45;&gt;Node15 -->
<g id="edge29_Node000013_Node000015" class="edge">
<title>Node13&#45;&gt;Node15</title>
<g id="a_edge29_Node000013_Node000015"><a xlink:title=" ">
<path fill="none" stroke="#63b8ff" d="M445.68,-71.44C444.31,-60.86 442.42,-46.25 440.92,-34.69"/>
<polygon fill="#63b8ff" stroke="#63b8ff" points="444.39,-34.23 439.64,-24.77 437.45,-35.13 444.39,-34.23"/>
</a>
</g>
</g>
<!-- Node16 -->
<g id="Node000016" class="node">
<title>Node16</title>
<g id="a_Node000016"><a xlink:title=" ">
<polygon fill="#e0e0e0" stroke="#999999" points="548.5,-24.5 488.5,-24.5 488.5,-5.5 548.5,-5.5 548.5,-24.5"/>
<text text-anchor="middle" x="518.5" y="-12.5" font-family="Helvetica,sans-Serif" font-size="10.00">iostream</text>
</a>
</g>
</g>
<!-- Node13&#45;&gt;Node16 -->
<g id="edge30_Node000013_Node000016" class="edge">
<title>Node13&#45;&gt;Node16</title>
<g id="a_edge30_Node000013_Node000016"><a xlink:title=" ">
<path fill="none" stroke="#63b8ff" d="M461.87,-71.44C473.57,-59.98 490.08,-43.82 502.26,-31.9"/>
<polygon fill="#63b8ff" stroke="#63b8ff" points="504.85,-34.26 509.54,-24.77 499.95,-29.26 504.85,-34.26"/>
</a>
</g>
</g>
<!-- Node17 -->
<g id="Node000017" class="node">
<title>Node17</title>
<g id="a_Node000017"><a xlink:title=" ">
<polygon fill="#e0e0e0" stroke="#999999" points="610.5,-24.5 566.5,-24.5 566.5,-5.5 610.5,-5.5 610.5,-24.5"/>
<text text-anchor="middle" x="588.5" y="-12.5" font-family="Helvetica,sans-Serif" font-size="10.00">limits</text>
</a>
</g>
</g>
<!-- Node13&#45;&gt;Node17 -->
<g id="edge31_Node000013_Node000017" class="edge">
<title>Node13&#45;&gt;Node17</title>
<g id="a_edge31_Node000013_Node000017"><a xlink:title=" ">
<path fill="none" stroke="#63b8ff" d="M476.03,-71.44C501.18,-59.04 537.53,-41.12 562.04,-29.04"/>
<polygon fill="#63b8ff" stroke="#63b8ff" points="563.7,-32.13 571.12,-24.57 560.6,-25.85 563.7,-32.13"/>
</a>
</g>
</g>
<!-- Node18 -->
<g id="Node000018" class="node">
<title>Node18</title>
<g id="a_Node000018"><a xlink:title=" ">
<polygon fill="#e0e0e0" stroke="#999999" points="388,-24.5 323,-24.5 323,-5.5 388,-5.5 388,-24.5"/>
<text text-anchor="middle" x="355.5" y="-12.5" font-family="Helvetica,sans-Serif" font-size="10.00">functional</text>
</a>
</g>
</g>
<!-- Node13&#45;&gt;Node18 -->
<g id="edge32_Node000013_Node000018" class="edge">
<title>Node13&#45;&gt;Node18</title>
<g id="a_edge32_Node000013_Node000018"><a xlink:title=" ">
<path fill="none" stroke="#63b8ff" d="M428.88,-71.44C413.2,-59.59 390.84,-42.7 374.93,-30.68"/>
<polygon fill="#63b8ff" stroke="#63b8ff" points="376.93,-27.8 366.84,-24.57 372.71,-33.39 376.93,-27.8"/>
</a>
</g>
</g>
<!-- Node19&#45;&gt;Node2 -->
<g id="edge34_Node000019_Node000002" class="edge">
<title>Node19&#45;&gt;Node2</title>
<g id="a_edge34_Node000019_Node000002"><a xlink:title=" ">
<path fill="none" stroke="#63b8ff" d="M576.08,-149.77C628.4,-140.6 696.8,-126.41 755.5,-107 814.61,-87.45 879.54,-55.44 918.38,-35.06"/>
<polygon fill="#63b8ff" stroke="#63b8ff" points="920.47,-37.91 927.68,-30.14 917.2,-31.72 920.47,-37.91"/>
</a>
</g>
</g>
<!-- Node19&#45;&gt;Node3 -->
<g id="edge35_Node000019_Node000003" class="edge">
<title>Node19&#45;&gt;Node3</title>
<g id="a_edge35_Node000019_Node000003"><a xlink:title=" ">
<path fill="none" stroke="#63b8ff" d="M438.19,-148.42C408.74,-139.32 372.53,-125.65 343.5,-107 314.09,-88.11 286.64,-58.32 269.74,-38.01"/>
<polygon fill="#63b8ff" stroke="#63b8ff" points="272.41,-35.75 263.38,-30.21 266.98,-40.17 272.41,-35.75"/>
</a>
</g>
</g>
<!-- Node19&#45;&gt;Node4 -->
<g id="edge36_Node000019_Node000004" class="edge">
<title>Node19&#45;&gt;Node4</title>
<g id="a_edge36_Node000019_Node000004"><a xlink:title=" ">
<path fill="none" stroke="#63b8ff" d="M427,-148.4C387.09,-138.84 335.49,-124.72 291.5,-107 241.44,-86.84 187.15,-55.54 154.23,-35.42"/>
<polygon fill="#63b8ff" stroke="#63b8ff" points="155.88,-32.32 145.53,-30.05 152.21,-38.28 155.88,-32.32"/>
</a>
</g>
</g>
<!-- Node19&#45;&gt;Node5 -->
<g id="edge37_Node000019_Node000005" class="edge">
<title>Node19&#45;&gt;Node5</title>
<g id="a_edge37_Node000019_Node000005"><a xlink:title=" ">
<path fill="none" stroke="#63b8ff" d="M576.01,-152.51C620.59,-144.66 675.23,-130.9 719.5,-107 743.02,-94.3 743.38,-83.59 763.5,-66 774.84,-56.09 787.69,-45.47 798.67,-36.57"/>
<polygon fill="#63b8ff" stroke="#63b8ff" points="801.05,-39.15 806.64,-30.15 796.65,-33.7 801.05,-39.15"/>
</a>
</g>
</g>
<!-- Node19&#45;&gt;Node10 -->
<g id="edge38_Node000019_Node000010" class="edge">
<title>Node19&#45;&gt;Node10</title>
<g id="a_edge38_Node000019_Node000010"><a xlink:title=" ">
<path fill="none" stroke="#63b8ff" d="M498.06,-148.4C507.1,-127.28 527,-87.64 556.5,-66 603.12,-31.81 626.56,-48.01 681.5,-30 683.4,-29.38 685.36,-28.72 687.32,-28.04"/>
<polygon fill="#63b8ff" stroke="#63b8ff" points="688.84,-31.21 697.09,-24.56 686.5,-24.62 688.84,-31.21"/>
</a>
</g>
</g>
<!-- Node19&#45;&gt;Node13 -->
<g id="edge40_Node000019_Node000013" class="edge">
<title>Node19&#45;&gt;Node13</title>
<g id="a_edge40_Node000019_Node000013"><a xlink:title=" ">
<path fill="none" stroke="#63b8ff" d="M484.04,-148.39C477.62,-137.71 468.68,-122.8 461.25,-110.42"/>
<polygon fill="#63b8ff" stroke="#63b8ff" points="464.07,-108.32 455.93,-101.54 458.07,-111.92 464.07,-108.32"/>
</a>
</g>
</g>
<!-- Node19&#45;&gt;Node14 -->
<g id="edge39_Node000019_Node000014" class="edge">
<title>Node19&#45;&gt;Node14</title>
<g id="a_edge39_Node000019_Node000014"><a xlink:title=" ">
<path fill="none" stroke="#63b8ff" d="M408.7,-152.69C350.13,-144.33 270.71,-129.94 203.5,-107 144.08,-86.72 79.6,-50.21 46.29,-30.15"/>
<polygon fill="#63b8ff" stroke="#63b8ff" points="47.73,-26.93 37.37,-24.72 44.09,-32.91 47.73,-26.93"/>
</a>
</g>
</g>
</g>
</svg>

<g id="navigator" transform="translate(0 0)" fill="#404254">
  <rect fill="#f2f5e9" fill-opacity="0.5" stroke="#606060" stroke-width=".5" x="0" y="0" width="60" height="60"/>
  <use id="zoomplus" xlink:href="#zoomPlus" x="17" y="9" onmousedown="handleZoom(evt,'in')"/>
  <use id="zoomminus" xlink:href="#zoomMin" x="42" y="9" onmousedown="handleZoom(evt,'out')"/>
  <use id="reset" xlink:href="#resetDef" x="30" y="36" onmousedown="handleReset()"/>
   <use id="arrowup" xlink:href="#arrowUp" x="0" y="0" onmousedown="handlePan(0,-1)"/>
  <use id="arrowright" xlink:href="#arrowRight" x="0" y="0" onmousedown="handlePan(1,0)"/>
  <use id="arrowdown" xlink:href="#arrowDown" x="0" y="0" onmousedown="handlePan(0,1)"/>
  <use id="arrowleft" xlink:href="#arrowLeft" x="0" y="0" onmousedown="handlePan(-1,0)"/>
</g>
<svg viewBox="0 0 15 15" width="100%" height="30px" preserveAspectRatio="xMaxYMin meet">
 <g id="arrow_out" transform="scale(0.3 0.3)">
  <a xlink:href="EdibleGrowth_8h__incl_org.svg" target="_base">
   <rect id="button" ry="5" rx="5" y="6" x="6" height="38" width="38"
        fill="#f2f5e9" fill-opacity="0.5" stroke="#606060" stroke-width="1.0"/>
   <path id="arrow"
     d="M 11.500037,31.436501 C 11.940474,20.09759 22.043105,11.32322 32.158766,21.979434 L 37.068811,17.246167 C 37.068811,17.246167 37.088388,32 37.088388,32 L 22.160133,31.978069 C 22.160133,31.978069 26.997745,27.140456 26.997745,27.140456 C 18.528582,18.264221 13.291696,25.230495 11.500037,31.436501 z"
     style="fill:#404040;"/>
  </a>
 </g>
</svg>

<style type='text/css'>
<![CDATA[
[data-mouse-over-selected='false'] { opacity: 0.7; }
[data-mouse-over-selected='true']  { opacity: 1.0; }
]]>
</style>
<script type="application/ecmascript"><![CDATA[
document.addEventListener('DOMContentLoaded', (event) => {
  highlightEdges();
  highlightAdjacentNodes();
});
]]></script>
</svg>
