<?xml version="1.0" encoding="UTF-8" standalone="no"?>
<!DOCTYPE svg PUBLIC "-//W3C//DTD SVG 1.1//EN"
 "http://www.w3.org/Graphics/SVG/1.1/DTD/svg11.dtd">
<!-- Generated by graphviz version 2.43.0 (0)
 -->
<!-- Title: /home/runner/work/Weaver/Weaver/include/App/Model/IBM/Landscape/LivingBeings/Animals/Species/HuntingMode.h Pages: 1 -->
<svg width="1487pt" height="1127pt"
 viewBox="0.00 0.00 1486.53 1127.00" xmlns="http://www.w3.org/2000/svg" xmlns:xlink="http://www.w3.org/1999/xlink">
<g id="graph0" class="graph" transform="scale(1 1) rotate(0) translate(4 1123)">
<title>/home/runner/work/Weaver/Weaver/include/App/Model/IBM/Landscape/LivingBeings/Animals/Species/HuntingMode.h</title>
<!-- Node1 -->
<g id="Node000001" class="node">
<title>Node1</title>
<g id="a_Node000001"><a xlink:title="Defines the HuntingMode enumeration representing the foraging or hunting strategy of an animal.">
<polygon fill="#999999" stroke="#666666" points="376.5,-1119 199.5,-1119 199.5,-1067 376.5,-1067 376.5,-1119"/>
<text text-anchor="start" x="207.5" y="-1107" font-family="Helvetica,sans-Serif" font-size="10.00">/home/runner/work/Weaver</text>
<text text-anchor="start" x="207.5" y="-1096" font-family="Helvetica,sans-Serif" font-size="10.00">/Weaver/include/App/Model</text>
<text text-anchor="start" x="207.5" y="-1085" font-family="Helvetica,sans-Serif" font-size="10.00">/IBM/Landscape/LivingBeings</text>
<text text-anchor="middle" x="288" y="-1074" font-family="Helvetica,sans-Serif" font-size="10.00">/Animals/Species/HuntingMode.h</text>
</a>
</g>
</g>
<!-- Node2 -->
<g id="Node000002" class="node">
<title>Node2</title>
<g id="a_Node000002"><a xlink:href="AnimalNonStatistical_8h.html" target="_top" xlink:title="Defines the AnimalNonStatistical class, a non&#45;statistical concrete implementation of Animal.">
<polygon fill="white" stroke="#666666" points="375,-849.5 201,-849.5 201,-797.5 375,-797.5 375,-849.5"/>
<text text-anchor="start" x="209" y="-837.5" font-family="Helvetica,sans-Serif" font-size="10.00">/home/runner/work/Weaver</text>
<text text-anchor="start" x="209" y="-826.5" font-family="Helvetica,sans-Serif" font-size="10.00">/Weaver/include/App/Model</text>
<text text-anchor="start" x="209" y="-815.5" font-family="Helvetica,sans-Serif" font-size="10.00">/IBM/Landscape/LivingBeings</text>
<text text-anchor="middle" x="288" y="-804.5" font-family="Helvetica,sans-Serif" font-size="10.00">/Animals/AnimalNonStatistical.h</text>
</a>
</g>
</g>
<!-- Node1&#45;&gt;Node2 -->
<g id="edge1_Node000001_Node000002" class="edge">
<title>Node1&#45;&gt;Node2</title>
<g id="a_edge1_Node000001_Node000002"><a xlink:title=" ">
<path fill="none" stroke="#63b8ff" d="M288,-1056.56C288,-1001.73 288,-897.69 288,-849.79"/>
<polygon fill="#63b8ff" stroke="#63b8ff" points="284.5,-1056.83 288,-1066.83 291.5,-1056.83 284.5,-1056.83"/>
</a>
</g>
</g>
<!-- Node12 -->
<g id="Node000012" class="node">
<title>Node12</title>
<g id="a_Node000012"><a xlink:href="Map_8h.html" target="_top" xlink:title="Defines the Map class for spatial organization of landscapes.">
<polygon fill="white" stroke="#666666" points="473,-547 323,-547 323,-506 473,-506 473,-547"/>
<text text-anchor="start" x="331" y="-535" font-family="Helvetica,sans-Serif" font-size="10.00">/home/runner/work/Weaver</text>
<text text-anchor="start" x="331" y="-524" font-family="Helvetica,sans-Serif" font-size="10.00">/Weaver/include/App/Model</text>
<text text-anchor="middle" x="398" y="-513" font-family="Helvetica,sans-Serif" font-size="10.00">/IBM/Landscape/Map/Map.h</text>
</a>
</g>
</g>
<!-- Node1&#45;&gt;Node12 -->
<g id="edge54_Node000001_Node000012" class="edge">
<title>Node1&#45;&gt;Node12</title>
<g id="a_edge54_Node000001_Node000012"><a xlink:title=" ">
<path fill="none" stroke="#63b8ff" d="M189.45,-1074.54C106.05,-1053.43 0,-1008.75 0,-918 0,-918 0,-918 0,-723.5 0,-660.62 7.88,-633.27 57,-594 97.16,-561.89 235.09,-543.06 322.74,-534.05"/>
<polygon fill="#63b8ff" stroke="#63b8ff" points="188.69,-1077.96 199.24,-1076.94 190.36,-1071.16 188.69,-1077.96"/>
</a>
</g>
</g>
<!-- Node17 -->
<g id="Node000017" class="node">
<title>Node17</title>
<g id="a_Node000017"><a xlink:href="AnimalSpecies_8h.html" target="_top" xlink:title="Defines the AnimalSpecies class, representing a species of animals with associated growth,...">
<polygon fill="white" stroke="#666666" points="747,-1031 563,-1031 563,-979 747,-979 747,-1031"/>
<text text-anchor="start" x="571" y="-1019" font-family="Helvetica,sans-Serif" font-size="10.00">/home/runner/work/Weaver</text>
<text text-anchor="start" x="571" y="-1008" font-family="Helvetica,sans-Serif" font-size="10.00">/Weaver/include/App/Model</text>
<text text-anchor="start" x="571" y="-997" font-family="Helvetica,sans-Serif" font-size="10.00">/IBM/Landscape/LivingBeings</text>
<text text-anchor="middle" x="655" y="-986" font-family="Helvetica,sans-Serif" font-size="10.00">/Animals/Species/AnimalSpecies.h</text>
</a>
</g>
</g>
<!-- Node1&#45;&gt;Node17 -->
<g id="edge26_Node000001_Node000017" class="edge">
<title>Node1&#45;&gt;Node17</title>
<g id="a_edge26_Node000001_Node000017"><a xlink:title=" ">
<path fill="none" stroke="#63b8ff" d="M386.9,-1068.82C441.63,-1056 509.21,-1040.16 562.82,-1027.6"/>
<polygon fill="#63b8ff" stroke="#63b8ff" points="385.78,-1065.49 376.84,-1071.18 387.38,-1072.31 385.78,-1065.49"/>
</a>
</g>
</g>
<!-- Node3 -->
<g id="Node000003" class="node">
<title>Node3</title>
<g id="a_Node000003"><a xlink:href="Landscape_8h.html" target="_top" xlink:title="Doxygen&#45;documented declaration of the Landscape class and related serialization helpers.">
<polygon fill="white" stroke="#666666" points="504.5,-118 347.5,-118 347.5,-77 504.5,-77 504.5,-118"/>
<text text-anchor="start" x="355.5" y="-106" font-family="Helvetica,sans-Serif" font-size="10.00">/home/runner/work/Weaver</text>
<text text-anchor="start" x="355.5" y="-95" font-family="Helvetica,sans-Serif" font-size="10.00">/Weaver/include/App/Model</text>
<text text-anchor="middle" x="426" y="-84" font-family="Helvetica,sans-Serif" font-size="10.00">/IBM/Landscape/Landscape.h</text>
</a>
</g>
</g>
<!-- Node2&#45;&gt;Node3 -->
<g id="edge2_Node000002_Node000003" class="edge">
<title>Node2&#45;&gt;Node3</title>
<g id="a_edge2_Node000002_Node000003"><a xlink:title=" ">
<path fill="none" stroke="#63b8ff" d="M198.66,-793.62C126.89,-764.16 38,-710.69 38,-626.5 38,-626.5 38,-626.5 38,-256 38,-189.84 234.11,-138.15 347.48,-113.79"/>
<polygon fill="#63b8ff" stroke="#63b8ff" points="197.63,-796.98 208.21,-797.44 200.23,-790.48 197.63,-796.98"/>
</a>
</g>
</g>
<!-- Node8 -->
<g id="Node000008" class="node">
<title>Node8</title>
<g id="a_Node000008"><a xlink:href="SpatialTreeAnimal_8h.html" target="_top" xlink:title="Defines the SpatialTreeAnimal class for animals in a spatial tree terrain.">
<polygon fill="white" stroke="#666666" points="291.5,-651.5 66.5,-651.5 66.5,-599.5 291.5,-599.5 291.5,-651.5"/>
<text text-anchor="start" x="74.5" y="-639.5" font-family="Helvetica,sans-Serif" font-size="10.00">/home/runner/work/Weaver</text>
<text text-anchor="start" x="74.5" y="-628.5" font-family="Helvetica,sans-Serif" font-size="10.00">/Weaver/include/App/Model</text>
<text text-anchor="start" x="74.5" y="-617.5" font-family="Helvetica,sans-Serif" font-size="10.00">/IBM/Landscape/Map/SpatialTree</text>
<text text-anchor="middle" x="179" y="-606.5" font-family="Helvetica,sans-Serif" font-size="10.00">/LivingBeings/Animals/SpatialTreeAnimal.h</text>
</a>
</g>
</g>
<!-- Node2&#45;&gt;Node8 -->
<g id="edge7_Node000002_Node000008" class="edge">
<title>Node2&#45;&gt;Node8</title>
<g id="a_edge7_Node000002_Node000008"><a xlink:title=" ">
<path fill="none" stroke="#63b8ff" d="M224.89,-791.82C211.23,-782.23 198.39,-770.33 190,-756 171.19,-723.87 172.06,-679.36 175.05,-651.78"/>
<polygon fill="#63b8ff" stroke="#63b8ff" points="223.19,-794.89 233.47,-797.49 227.05,-789.05 223.19,-794.89"/>
</a>
</g>
</g>
<!-- Node10 -->
<g id="Node000010" class="node">
<title>Node10</title>
<g id="a_Node000010"><a xlink:href="CellValue_8h.html" target="_top" xlink:title="Defines the CellValue struct representing the evaluation of a terrain cell by an animal.">
<polygon fill="white" stroke="#666666" points="376.5,-750.5 199.5,-750.5 199.5,-698.5 376.5,-698.5 376.5,-750.5"/>
<text text-anchor="start" x="207.5" y="-738.5" font-family="Helvetica,sans-Serif" font-size="10.00">/home/runner/work/Weaver</text>
<text text-anchor="start" x="207.5" y="-727.5" font-family="Helvetica,sans-Serif" font-size="10.00">/Weaver/include/App/Model</text>
<text text-anchor="start" x="207.5" y="-716.5" font-family="Helvetica,sans-Serif" font-size="10.00">/IBM/Landscape/Map/TerrainCells</text>
<text text-anchor="middle" x="288" y="-705.5" font-family="Helvetica,sans-Serif" font-size="10.00">/CellValue.h</text>
</a>
</g>
</g>
<!-- Node2&#45;&gt;Node10 -->
<g id="edge10_Node000002_Node000010" class="edge">
<title>Node2&#45;&gt;Node10</title>
<g id="a_edge10_Node000002_Node000010"><a xlink:title=" ">
<path fill="none" stroke="#63b8ff" d="M288,-787.03C288,-774.95 288,-761.7 288,-750.61"/>
<polygon fill="#63b8ff" stroke="#63b8ff" points="284.5,-787.27 288,-797.27 291.5,-787.27 284.5,-787.27"/>
</a>
</g>
</g>
<!-- Node11 -->
<g id="Node000011" class="node">
<title>Node11</title>
<g id="a_Node000011"><a xlink:href="TerrainCell_8h.html" target="_top" xlink:title="Defines the TerrainCell class representing a cell in the landscape.">
<polygon fill="white" stroke="#666666" points="486.5,-651.5 309.5,-651.5 309.5,-599.5 486.5,-599.5 486.5,-651.5"/>
<text text-anchor="start" x="317.5" y="-639.5" font-family="Helvetica,sans-Serif" font-size="10.00">/home/runner/work/Weaver</text>
<text text-anchor="start" x="317.5" y="-628.5" font-family="Helvetica,sans-Serif" font-size="10.00">/Weaver/include/App/Model</text>
<text text-anchor="start" x="317.5" y="-617.5" font-family="Helvetica,sans-Serif" font-size="10.00">/IBM/Landscape/Map/TerrainCells</text>
<text text-anchor="middle" x="398" y="-606.5" font-family="Helvetica,sans-Serif" font-size="10.00">/TerrainCell.h</text>
</a>
</g>
</g>
<!-- Node2&#45;&gt;Node11 -->
<g id="edge25_Node000002_Node000011" class="edge">
<title>Node2&#45;&gt;Node11</title>
<g id="a_edge25_Node000002_Node000011"><a xlink:title=" ">
<path fill="none" stroke="#63b8ff" d="M350.11,-791.76C363.71,-782.16 376.55,-770.26 385,-756 404.01,-723.93 403.91,-679.4 401.44,-651.8"/>
<polygon fill="#63b8ff" stroke="#63b8ff" points="347.96,-788.99 341.58,-797.45 351.84,-794.81 347.96,-788.99"/>
</a>
</g>
</g>
<!-- Node4 -->
<g id="Node000004" class="node">
<title>Node4</title>
<g id="a_Node000004"><a xlink:href="IBM_8h.html" target="_top" xlink:title="Definition of the IBM class, representing the core individual&#45;based model of the simulation.">
<polygon fill="white" stroke="#666666" points="201.5,-41 52.5,-41 52.5,0 201.5,0 201.5,-41"/>
<text text-anchor="start" x="60.5" y="-29" font-family="Helvetica,sans-Serif" font-size="10.00">/home/runner/work/Weaver</text>
<text text-anchor="start" x="60.5" y="-18" font-family="Helvetica,sans-Serif" font-size="10.00">/Weaver/include/App/Model</text>
<text text-anchor="middle" x="127" y="-7" font-family="Helvetica,sans-Serif" font-size="10.00">/IBM/IBM.h</text>
</a>
</g>
</g>
<!-- Node3&#45;&gt;Node4 -->
<g id="edge3_Node000003_Node000004" class="edge">
<title>Node3&#45;&gt;Node4</title>
<g id="a_edge3_Node000003_Node000004"><a xlink:title=" ">
<path fill="none" stroke="#63b8ff" d="M338.52,-74.56C295.06,-63.65 243.1,-50.62 201.55,-40.2"/>
<polygon fill="#63b8ff" stroke="#63b8ff" points="337.67,-77.95 348.22,-76.99 339.37,-71.16 337.67,-77.95"/>
</a>
</g>
</g>
<!-- Node5 -->
<g id="Node000005" class="node">
<title>Node5</title>
<g id="a_Node000005"><a xlink:href="AquaticLandscape_8h.html" target="_top" xlink:title="Defines the AquaticLandscape class for aquatic ecosystem simulations.">
<polygon fill="white" stroke="#666666" points="413,-41 219,-41 219,0 413,0 413,-41"/>
<text text-anchor="start" x="227" y="-29" font-family="Helvetica,sans-Serif" font-size="10.00">/home/runner/work/Weaver</text>
<text text-anchor="start" x="227" y="-18" font-family="Helvetica,sans-Serif" font-size="10.00">/Weaver/include/App/Model</text>
<text text-anchor="middle" x="316" y="-7" font-family="Helvetica,sans-Serif" font-size="10.00">/IBM/Landscape/AquaticLandscape.h</text>
</a>
</g>
</g>
<!-- Node3&#45;&gt;Node5 -->
<g id="edge4_Node000003_Node000005" class="edge">
<title>Node3&#45;&gt;Node5</title>
<g id="a_edge4_Node000003_Node000005"><a xlink:title=" ">
<path fill="none" stroke="#63b8ff" d="M388.74,-71.09C374.4,-61.32 358.28,-50.32 344.85,-41.17"/>
<polygon fill="#63b8ff" stroke="#63b8ff" points="387.15,-74.25 397.39,-76.99 391.1,-68.47 387.15,-74.25"/>
</a>
</g>
</g>
<!-- Node6 -->
<g id="Node000006" class="node">
<title>Node6</title>
<g id="a_Node000006"><a xlink:href="ArthropodsLandscape_8h.html" target="_top" xlink:title="Defines the ArthropodsLandscape class for arthropod&#45;specific ecosystem simulations.">
<polygon fill="white" stroke="#666666" points="641,-41 431,-41 431,0 641,0 641,-41"/>
<text text-anchor="start" x="439" y="-29" font-family="Helvetica,sans-Serif" font-size="10.00">/home/runner/work/Weaver</text>
<text text-anchor="start" x="439" y="-18" font-family="Helvetica,sans-Serif" font-size="10.00">/Weaver/include/App/Model</text>
<text text-anchor="middle" x="536" y="-7" font-family="Helvetica,sans-Serif" font-size="10.00">/IBM/Landscape/ArthropodsLandscape.h</text>
</a>
</g>
</g>
<!-- Node3&#45;&gt;Node6 -->
<g id="edge5_Node000003_Node000006" class="edge">
<title>Node3&#45;&gt;Node6</title>
<g id="a_edge5_Node000003_Node000006"><a xlink:title=" ">
<path fill="none" stroke="#63b8ff" d="M463.26,-71.09C477.6,-61.32 493.72,-50.32 507.15,-41.17"/>
<polygon fill="#63b8ff" stroke="#63b8ff" points="460.9,-68.47 454.61,-76.99 464.85,-74.25 460.9,-68.47"/>
</a>
</g>
</g>
<!-- Node7 -->
<g id="Node000007" class="node">
<title>Node7</title>
<g id="a_Node000007"><a xlink:href="DinosaursLandscape_8h.html" target="_top" xlink:title="Defines the DinosaursLandscape class for dinosaur&#45;specific ecosystem simulations.">
<polygon fill="white" stroke="#666666" points="865,-41 659,-41 659,0 865,0 865,-41"/>
<text text-anchor="start" x="667" y="-29" font-family="Helvetica,sans-Serif" font-size="10.00">/home/runner/work/Weaver</text>
<text text-anchor="start" x="667" y="-18" font-family="Helvetica,sans-Serif" font-size="10.00">/Weaver/include/App/Model</text>
<text text-anchor="middle" x="762" y="-7" font-family="Helvetica,sans-Serif" font-size="10.00">/IBM/Landscape/DinosaursLandscape.h</text>
</a>
</g>
</g>
<!-- Node3&#45;&gt;Node7 -->
<g id="edge6_Node000003_Node000007" class="edge">
<title>Node3&#45;&gt;Node7</title>
<g id="a_edge6_Node000003_Node000007"><a xlink:title=" ">
<path fill="none" stroke="#63b8ff" d="M514.81,-76.68C564.19,-65.66 625.4,-51.99 674.56,-41.02"/>
<polygon fill="#63b8ff" stroke="#63b8ff" points="513.77,-73.32 504.78,-78.92 515.3,-80.15 513.77,-73.32"/>
</a>
</g>
</g>
<!-- Node9 -->
<g id="Node000009" class="node">
<title>Node9</title>
<g id="a_Node000009"><a xlink:href="SpatialTree_8h.html" target="_top" xlink:title="Defines the SpatialTree class, a spatially subdivided map implementation.">
<polygon fill="white" stroke="#666666" points="611.5,-195 428.5,-195 428.5,-154 611.5,-154 611.5,-195"/>
<text text-anchor="start" x="436.5" y="-183" font-family="Helvetica,sans-Serif" font-size="10.00">/home/runner/work/Weaver</text>
<text text-anchor="start" x="436.5" y="-172" font-family="Helvetica,sans-Serif" font-size="10.00">/Weaver/include/App/Model</text>
<text text-anchor="middle" x="520" y="-161" font-family="Helvetica,sans-Serif" font-size="10.00">/IBM/Landscape/Map/SpatialTree.h</text>
</a>
</g>
</g>
<!-- Node8&#45;&gt;Node9 -->
<g id="edge8_Node000008_Node000009" class="edge">
<title>Node8&#45;&gt;Node9</title>
<g id="a_edge8_Node000008_Node000009"><a xlink:title=" ">
<path fill="none" stroke="#63b8ff" d="M200.12,-590.93C244.74,-521.01 353.48,-355.87 462,-231 472.97,-218.38 486.4,-205.39 497.57,-195.16"/>
<polygon fill="#63b8ff" stroke="#63b8ff" points="197.16,-589.06 194.75,-599.37 203.07,-592.82 197.16,-589.06"/>
</a>
</g>
</g>
<!-- Node9&#45;&gt;Node3 -->
<g id="edge9_Node000009_Node000003" class="edge">
<title>Node9&#45;&gt;Node3</title>
<g id="a_edge9_Node000009_Node000003"><a xlink:title=" ">
<path fill="none" stroke="#63b8ff" d="M487.22,-147.35C475.17,-137.73 461.74,-127.01 450.53,-118.07"/>
<polygon fill="#63b8ff" stroke="#63b8ff" points="485.3,-150.29 495.3,-153.79 489.67,-144.82 485.3,-150.29"/>
</a>
</g>
</g>
<!-- Node10&#45;&gt;Node8 -->
<g id="edge11_Node000010_Node000008" class="edge">
<title>Node10&#45;&gt;Node8</title>
<g id="a_edge11_Node000010_Node000008"><a xlink:title=" ">
<path fill="none" stroke="#63b8ff" d="M251.81,-691.3C237.3,-678.38 220.82,-663.71 207.21,-651.61"/>
<polygon fill="#63b8ff" stroke="#63b8ff" points="249.85,-694.23 259.65,-698.27 254.5,-689.01 249.85,-694.23"/>
</a>
</g>
</g>
<!-- Node10&#45;&gt;Node11 -->
<g id="edge12_Node000010_Node000011" class="edge">
<title>Node10&#45;&gt;Node11</title>
<g id="a_edge12_Node000010_Node000011"><a xlink:title=" ">
<path fill="none" stroke="#63b8ff" d="M324.52,-691.3C339.17,-678.38 355.8,-663.71 369.53,-651.61"/>
<polygon fill="#63b8ff" stroke="#63b8ff" points="321.8,-689.03 316.61,-698.27 326.43,-694.28 321.8,-689.03"/>
</a>
</g>
</g>
<!-- Node11&#45;&gt;Node3 -->
<g id="edge13_Node000011_Node000003" class="edge">
<title>Node11&#45;&gt;Node3</title>
<g id="a_edge13_Node000011_Node000003"><a xlink:title=" ">
<path fill="none" stroke="#63b8ff" d="M350.65,-593.29C337.63,-583.14 324.28,-571.08 314,-558 276.52,-510.31 257,-494.65 257,-434 257,-434 257,-434 257,-256 257,-189.02 328.92,-142.4 378.92,-118.09"/>
<polygon fill="#63b8ff" stroke="#63b8ff" points="348.59,-596.12 358.68,-599.36 352.81,-590.54 348.59,-596.12"/>
</a>
</g>
</g>
<!-- Node11&#45;&gt;Node9 -->
<g id="edge17_Node000011_Node000009" class="edge">
<title>Node11&#45;&gt;Node9</title>
<g id="a_edge17_Node000011_Node000009"><a xlink:title=" ">
<path fill="none" stroke="#63b8ff" d="M449.95,-593.24C462.27,-583.45 474.1,-571.59 482,-558 510.02,-509.8 501,-489.75 501,-434 501,-434 501,-434 501,-344 501,-289.83 510.82,-226.48 516.34,-195.13"/>
<polygon fill="#63b8ff" stroke="#63b8ff" points="447.7,-590.56 441.83,-599.38 451.92,-596.15 447.7,-590.56"/>
</a>
</g>
</g>
<!-- Node11&#45;&gt;Node12 -->
<g id="edge14_Node000011_Node000012" class="edge">
<title>Node11&#45;&gt;Node12</title>
<g id="a_edge14_Node000011_Node000012"><a xlink:title=" ">
<path fill="none" stroke="#63b8ff" d="M398,-588.87C398,-574.75 398,-559.07 398,-547.1"/>
<polygon fill="#63b8ff" stroke="#63b8ff" points="394.5,-589.27 398,-599.27 401.5,-589.27 394.5,-589.27"/>
</a>
</g>
</g>
<!-- Node13 -->
<g id="Node000013" class="node">
<title>Node13</title>
<g id="a_Node000013"><a xlink:href="SpatialTreeTerrainCell_8h.html" target="_top" xlink:title="Spatial tree implementation of a terrain cell.">
<polygon fill="white" stroke="#666666" points="950,-552.5 756,-552.5 756,-500.5 950,-500.5 950,-552.5"/>
<text text-anchor="start" x="764" y="-540.5" font-family="Helvetica,sans-Serif" font-size="10.00">/home/runner/work/Weaver</text>
<text text-anchor="start" x="764" y="-529.5" font-family="Helvetica,sans-Serif" font-size="10.00">/Weaver/include/App/Model</text>
<text text-anchor="start" x="764" y="-518.5" font-family="Helvetica,sans-Serif" font-size="10.00">/IBM/Landscape/Map/SpatialTree</text>
<text text-anchor="middle" x="853" y="-507.5" font-family="Helvetica,sans-Serif" font-size="10.00">/TerrainCells/SpatialTreeTerrainCell.h</text>
</a>
</g>
</g>
<!-- Node11&#45;&gt;Node13 -->
<g id="edge18_Node000011_Node000013" class="edge">
<title>Node11&#45;&gt;Node13</title>
<g id="a_edge18_Node000011_Node000013"><a xlink:title=" ">
<path fill="none" stroke="#63b8ff" d="M484.2,-596.81C487.84,-595.82 491.45,-594.88 495,-594 582.41,-572.22 683.43,-554.09 755.83,-542.28"/>
<polygon fill="#63b8ff" stroke="#63b8ff" points="483.23,-593.45 474.53,-599.5 485.1,-600.19 483.23,-593.45"/>
</a>
</g>
</g>
<!-- Node12&#45;&gt;Node3 -->
<g id="edge15_Node000012_Node000003" class="edge">
<title>Node12&#45;&gt;Node3</title>
<g id="a_edge15_Node000012_Node000003"><a xlink:title=" ">
<path fill="none" stroke="#63b8ff" d="M380.62,-496.87C361.36,-462.37 333,-402.05 333,-346 333,-346 333,-346 333,-256 333,-199.79 377.46,-146.02 404.9,-118.18"/>
<polygon fill="#63b8ff" stroke="#63b8ff" points="377.77,-498.94 385.77,-505.89 383.85,-495.47 377.77,-498.94"/>
</a>
</g>
</g>
<!-- Node12&#45;&gt;Node9 -->
<g id="edge16_Node000012_Node000009" class="edge">
<title>Node12&#45;&gt;Node9</title>
<g id="a_edge16_Node000012_Node000009"><a xlink:title=" ">
<path fill="none" stroke="#63b8ff" d="M404.39,-496.05C416.64,-442.07 445.92,-324.25 487,-231 492.47,-218.59 500.14,-205.51 506.71,-195.17"/>
<polygon fill="#63b8ff" stroke="#63b8ff" points="400.94,-495.45 402.17,-505.97 407.77,-496.98 400.94,-495.45"/>
</a>
</g>
</g>
<!-- Node13&#45;&gt;Node9 -->
<g id="edge19_Node000013_Node000009" class="edge">
<title>Node13&#45;&gt;Node9</title>
<g id="a_edge19_Node000013_Node000009"><a xlink:title=" ">
<path fill="none" stroke="#63b8ff" d="M849.28,-489.9C841.2,-419.65 819.78,-266.85 783,-231 758.78,-207.38 677.62,-192.71 611.79,-184.43"/>
<polygon fill="#63b8ff" stroke="#63b8ff" points="845.82,-490.49 850.42,-500.04 852.78,-489.71 845.82,-490.49"/>
</a>
</g>
</g>
<!-- Node14 -->
<g id="Node000014" class="node">
<title>Node14</title>
<g id="a_Node000014"><a xlink:href="BranchTerrainCell_8h.html" target="_top" xlink:title="Branch node implementation of a spatial tree terrain cell.">
<polygon fill="white" stroke="#666666" points="1032,-371 858,-371 858,-319 1032,-319 1032,-371"/>
<text text-anchor="start" x="866" y="-359" font-family="Helvetica,sans-Serif" font-size="10.00">/home/runner/work/Weaver</text>
<text text-anchor="start" x="866" y="-348" font-family="Helvetica,sans-Serif" font-size="10.00">/Weaver/include/App/Model</text>
<text text-anchor="start" x="866" y="-337" font-family="Helvetica,sans-Serif" font-size="10.00">/IBM/Landscape/Map/SpatialTree</text>
<text text-anchor="middle" x="945" y="-326" font-family="Helvetica,sans-Serif" font-size="10.00">/TerrainCells/BranchTerrainCell.h</text>
</a>
</g>
</g>
<!-- Node13&#45;&gt;Node14 -->
<g id="edge20_Node000013_Node000014" class="edge">
<title>Node13&#45;&gt;Node14</title>
<g id="a_edge20_Node000013_Node000014"><a xlink:title=" ">
<path fill="none" stroke="#63b8ff" d="M852.29,-490.18C853.25,-465.42 857.59,-432.36 872,-407 879.92,-393.07 892.31,-380.94 904.66,-371.25"/>
<polygon fill="#63b8ff" stroke="#63b8ff" points="848.79,-490.16 852.06,-500.23 855.79,-490.31 848.79,-490.16"/>
</a>
</g>
</g>
<!-- Node16 -->
<g id="Node000016" class="node">
<title>Node16</title>
<g id="a_Node000016"><a xlink:href="LeafTerrainCell_8h.html" target="_top" xlink:title="Leaf node implementation of a spatial tree terrain cell.">
<polygon fill="white" stroke="#666666" points="1055,-459 881,-459 881,-407 1055,-407 1055,-459"/>
<text text-anchor="start" x="889" y="-447" font-family="Helvetica,sans-Serif" font-size="10.00">/home/runner/work/Weaver</text>
<text text-anchor="start" x="889" y="-436" font-family="Helvetica,sans-Serif" font-size="10.00">/Weaver/include/App/Model</text>
<text text-anchor="start" x="889" y="-425" font-family="Helvetica,sans-Serif" font-size="10.00">/IBM/Landscape/Map/SpatialTree</text>
<text text-anchor="middle" x="968" y="-414" font-family="Helvetica,sans-Serif" font-size="10.00">/TerrainCells/LeafTerrainCell.h</text>
</a>
</g>
</g>
<!-- Node13&#45;&gt;Node16 -->
<g id="edge23_Node000013_Node000016" class="edge">
<title>Node13&#45;&gt;Node16</title>
<g id="a_edge23_Node000013_Node000016"><a xlink:title=" ">
<path fill="none" stroke="#63b8ff" d="M892.59,-494C906.84,-482.66 922.72,-470.03 936.21,-459.29"/>
<polygon fill="#63b8ff" stroke="#63b8ff" points="890.07,-491.53 884.42,-500.5 894.43,-497.01 890.07,-491.53"/>
</a>
</g>
</g>
<!-- Node15 -->
<g id="Node000015" class="node">
<title>Node15</title>
<g id="a_Node000015"><a xlink:href="RootTerrainCell_8h.html" target="_top" xlink:title="Defines the RootTerrainCell class, the top&#45;level node of the spatial tree in the landscape.">
<polygon fill="white" stroke="#666666" points="741,-283 567,-283 567,-231 741,-231 741,-283"/>
<text text-anchor="start" x="575" y="-271" font-family="Helvetica,sans-Serif" font-size="10.00">/home/runner/work/Weaver</text>
<text text-anchor="start" x="575" y="-260" font-family="Helvetica,sans-Serif" font-size="10.00">/Weaver/include/App/Model</text>
<text text-anchor="start" x="575" y="-249" font-family="Helvetica,sans-Serif" font-size="10.00">/IBM/Landscape/Map/SpatialTree</text>
<text text-anchor="middle" x="654" y="-238" font-family="Helvetica,sans-Serif" font-size="10.00">/TerrainCells/RootTerrainCell.h</text>
</a>
</g>
</g>
<!-- Node14&#45;&gt;Node15 -->
<g id="edge21_Node000014_Node000015" class="edge">
<title>Node14&#45;&gt;Node15</title>
<g id="a_edge21_Node000014_Node000015"><a xlink:title=" ">
<path fill="none" stroke="#63b8ff" d="M850.07,-315.94C814.21,-305.35 773.68,-293.37 738.81,-283.06"/>
<polygon fill="#63b8ff" stroke="#63b8ff" points="849.47,-319.42 860.05,-318.89 851.45,-312.7 849.47,-319.42"/>
</a>
</g>
</g>
<!-- Node15&#45;&gt;Node9 -->
<g id="edge22_Node000015_Node000009" class="edge">
<title>Node15&#45;&gt;Node9</title>
<g id="a_edge22_Node000015_Node000009"><a xlink:title=" ">
<path fill="none" stroke="#63b8ff" d="M603.59,-225.72C586.56,-215.49 568,-204.33 552.7,-195.15"/>
<polygon fill="#63b8ff" stroke="#63b8ff" points="601.96,-228.82 612.34,-230.97 605.57,-222.82 601.96,-228.82"/>
</a>
</g>
</g>
<!-- Node16&#45;&gt;Node14 -->
<g id="edge24_Node000016_Node000014" class="edge">
<title>Node16&#45;&gt;Node14</title>
<g id="a_edge24_Node000016_Node000014"><a xlink:title=" ">
<path fill="none" stroke="#63b8ff" d="M958.6,-396.84C956.29,-388.23 953.88,-379.19 951.73,-371.16"/>
<polygon fill="#63b8ff" stroke="#63b8ff" points="955.26,-397.91 961.22,-406.66 962.02,-396.1 955.26,-397.91"/>
</a>
</g>
</g>
<!-- Node17&#45;&gt;Node3 -->
<g id="edge27_Node000017_Node000003" class="edge">
<title>Node17&#45;&gt;Node3</title>
<g id="a_edge27_Node000017_Node000003"><a xlink:title=" ">
<path fill="none" stroke="#63b8ff" d="M757.12,-1002.19C971.95,-995.61 1451,-965.17 1451,-824.5 1451,-824.5 1451,-824.5 1451,-256 1451,-175.58 1599.33,-235.02 1206,-154 1073.61,-126.73 675.26,-108.3 504.79,-101.46"/>
<polygon fill="#63b8ff" stroke="#63b8ff" points="756.98,-998.69 747.09,-1002.49 757.19,-1005.69 756.98,-998.69"/>
</a>
</g>
</g>
<!-- Node17&#45;&gt;Node9 -->
<g id="edge52_Node000017_Node000009" class="edge">
<title>Node17&#45;&gt;Node9</title>
<g id="a_edge52_Node000017_Node000009"><a xlink:title=" ">
<path fill="none" stroke="#63b8ff" d="M678.02,-970.03C699.42,-935.12 728,-878.39 728,-824.5 728,-824.5 728,-824.5 728,-624.5 728,-536.92 804.18,-299.81 750,-231 732.59,-208.89 667.95,-194.55 611.61,-186"/>
<polygon fill="#63b8ff" stroke="#63b8ff" points="674.84,-968.52 672.49,-978.85 680.77,-972.25 674.84,-968.52"/>
</a>
</g>
</g>
<!-- Node17&#45;&gt;Node11 -->
<g id="edge53_Node000017_Node000011" class="edge">
<title>Node17&#45;&gt;Node11</title>
<g id="a_edge53_Node000017_Node000011"><a xlink:title=" ">
<path fill="none" stroke="#63b8ff" d="M553.09,-980.94C531.63,-972.06 510.74,-959.83 495,-943 454.27,-899.45 415.84,-718.56 402.74,-651.59"/>
<polygon fill="#63b8ff" stroke="#63b8ff" points="552.05,-984.29 562.64,-984.66 554.6,-977.77 552.05,-984.29"/>
</a>
</g>
</g>
<!-- Node18 -->
<g id="Node000018" class="node">
<title>Node18</title>
<g id="a_Node000018"><a xlink:href="Animal_8h.html" target="_top" xlink:title="Defines the Animal class, an abstract class representing animals in the ecosystem.">
<polygon fill="white" stroke="#666666" points="662,-943 504,-943 504,-891 662,-891 662,-943"/>
<text text-anchor="start" x="512" y="-931" font-family="Helvetica,sans-Serif" font-size="10.00">/home/runner/work/Weaver</text>
<text text-anchor="start" x="512" y="-920" font-family="Helvetica,sans-Serif" font-size="10.00">/Weaver/include/App/Model</text>
<text text-anchor="start" x="512" y="-909" font-family="Helvetica,sans-Serif" font-size="10.00">/IBM/Landscape/LivingBeings</text>
<text text-anchor="middle" x="583" y="-898" font-family="Helvetica,sans-Serif" font-size="10.00">/Animals/Animal.h</text>
</a>
</g>
</g>
<!-- Node17&#45;&gt;Node18 -->
<g id="edge28_Node000017_Node000018" class="edge">
<title>Node17&#45;&gt;Node18</title>
<g id="a_edge28_Node000017_Node000018"><a xlink:title=" ">
<path fill="none" stroke="#63b8ff" d="M627.2,-970.8C619.51,-961.61 611.3,-951.8 604.06,-943.16"/>
<polygon fill="#63b8ff" stroke="#63b8ff" points="624.68,-973.24 633.79,-978.66 630.05,-968.75 624.68,-973.24"/>
</a>
</g>
</g>
<!-- Node20 -->
<g id="Node000020" class="node">
<title>Node20</title>
<g id="a_Node000020"><a xlink:href="HabitatDomainSource_8h.html" target="_top" xlink:title="Defines the HabitatDomainSource class representing habitat domain information for animal species.">
<polygon fill="white" stroke="#666666" points="1131,-943 959,-943 959,-891 1131,-891 1131,-943"/>
<text text-anchor="start" x="967" y="-931" font-family="Helvetica,sans-Serif" font-size="10.00">/home/runner/work/Weaver</text>
<text text-anchor="start" x="967" y="-920" font-family="Helvetica,sans-Serif" font-size="10.00">/Weaver/include/App/Model</text>
<text text-anchor="start" x="967" y="-909" font-family="Helvetica,sans-Serif" font-size="10.00">/IBM/Landscape/Map/Patches</text>
<text text-anchor="middle" x="1045" y="-898" font-family="Helvetica,sans-Serif" font-size="10.00">/Source/HabitatDomainSource.h</text>
</a>
</g>
</g>
<!-- Node17&#45;&gt;Node20 -->
<g id="edge35_Node000017_Node000020" class="edge">
<title>Node17&#45;&gt;Node20</title>
<g id="a_edge35_Node000017_Node000020"><a xlink:title=" ">
<path fill="none" stroke="#63b8ff" d="M757.34,-981.43C820.06,-967.6 899.44,-950.1 958.91,-936.98"/>
<polygon fill="#63b8ff" stroke="#63b8ff" points="756.44,-978.05 747.42,-983.62 757.94,-984.88 756.44,-978.05"/>
</a>
</g>
</g>
<!-- Node18&#45;&gt;Node2 -->
<g id="edge29_Node000018_Node000002" class="edge">
<title>Node18&#45;&gt;Node2</title>
<g id="a_edge29_Node000018_Node000002"><a xlink:title=" ">
<path fill="none" stroke="#63b8ff" d="M494.23,-888.47C454.38,-876.11 407.68,-861.62 368.81,-849.57"/>
<polygon fill="#63b8ff" stroke="#63b8ff" points="493.36,-891.86 503.95,-891.48 495.43,-885.17 493.36,-891.86"/>
</a>
</g>
</g>
<!-- Node18&#45;&gt;Node11 -->
<g id="edge34_Node000018_Node000011" class="edge">
<title>Node18&#45;&gt;Node11</title>
<g id="a_edge34_Node000018_Node000011"><a xlink:title=" ">
<path fill="none" stroke="#63b8ff" d="M570.02,-881.47C551.84,-835.7 515.83,-753.65 470,-693 458.51,-677.79 443.29,-663.17 429.81,-651.52"/>
<polygon fill="#63b8ff" stroke="#63b8ff" points="566.82,-882.9 573.73,-890.94 573.34,-880.35 566.82,-882.9"/>
</a>
</g>
</g>
<!-- Node18&#45;&gt;Node15 -->
<g id="edge33_Node000018_Node000015" class="edge">
<title>Node18&#45;&gt;Node15</title>
<g id="a_edge33_Node000018_Node000015"><a xlink:title=" ">
<path fill="none" stroke="#63b8ff" d="M615.28,-883.12C646.78,-847.43 690,-787.21 690,-725.5 690,-725.5 690,-725.5 690,-432 690,-378.02 673.18,-316.53 662.53,-283.02"/>
<polygon fill="#63b8ff" stroke="#63b8ff" points="612.46,-881.02 608.36,-890.79 617.66,-885.71 612.46,-881.02"/>
</a>
</g>
</g>
<!-- Node19 -->
<g id="Node000019" class="node">
<title>Node19</title>
<g id="a_Node000019"><a xlink:href="AnimalStatistical_8h.html" target="_top" xlink:title="Defines the AnimalStatistical class, a concrete subclass of Animal for statistical simulations.">
<polygon fill="white" stroke="#666666" points="662,-651.5 504,-651.5 504,-599.5 662,-599.5 662,-651.5"/>
<text text-anchor="start" x="512" y="-639.5" font-family="Helvetica,sans-Serif" font-size="10.00">/home/runner/work/Weaver</text>
<text text-anchor="start" x="512" y="-628.5" font-family="Helvetica,sans-Serif" font-size="10.00">/Weaver/include/App/Model</text>
<text text-anchor="start" x="512" y="-617.5" font-family="Helvetica,sans-Serif" font-size="10.00">/IBM/Landscape/LivingBeings</text>
<text text-anchor="middle" x="583" y="-606.5" font-family="Helvetica,sans-Serif" font-size="10.00">/Animals/AnimalStatistical.h</text>
</a>
</g>
</g>
<!-- Node18&#45;&gt;Node19 -->
<g id="edge30_Node000018_Node000019" class="edge">
<title>Node18&#45;&gt;Node19</title>
<g id="a_edge30_Node000018_Node000019"><a xlink:title=" ">
<path fill="none" stroke="#63b8ff" d="M583,-880.45C583,-821.16 583,-703.5 583,-651.83"/>
<polygon fill="#63b8ff" stroke="#63b8ff" points="579.5,-880.82 583,-890.82 586.5,-880.82 579.5,-880.82"/>
</a>
</g>
</g>
<!-- Node19&#45;&gt;Node9 -->
<g id="edge32_Node000019_Node000009" class="edge">
<title>Node19&#45;&gt;Node9</title>
<g id="a_edge32_Node000019_Node000009"><a xlink:title=" ">
<path fill="none" stroke="#63b8ff" d="M570,-589.84C557.03,-552.08 539,-489.62 539,-434 539,-434 539,-434 539,-344 539,-289.83 529.18,-226.48 523.66,-195.13"/>
<polygon fill="#63b8ff" stroke="#63b8ff" points="566.73,-591.08 573.34,-599.35 573.33,-588.76 566.73,-591.08"/>
</a>
</g>
</g>
<!-- Node19&#45;&gt;Node12 -->
<g id="edge31_Node000019_Node000012" class="edge">
<title>Node19&#45;&gt;Node12</title>
<g id="a_edge31_Node000019_Node000012"><a xlink:title=" ">
<path fill="none" stroke="#63b8ff" d="M525.93,-594.58C496.47,-579.13 461.35,-560.72 435.37,-547.1"/>
<polygon fill="#63b8ff" stroke="#63b8ff" points="524.39,-597.72 534.88,-599.27 527.65,-591.52 524.39,-597.72"/>
</a>
</g>
</g>
<!-- Node20&#45;&gt;Node3 -->
<g id="edge36_Node000020_Node000003" class="edge">
<title>Node20&#45;&gt;Node3</title>
<g id="a_edge36_Node000020_Node000003"><a xlink:title=" ">
<path fill="none" stroke="#63b8ff" d="M1141.33,-907.41C1250.36,-891.77 1413,-847.94 1413,-725.5 1413,-725.5 1413,-725.5 1413,-256 1413,-164.2 738.52,-116.54 504.69,-102.78"/>
<polygon fill="#63b8ff" stroke="#63b8ff" points="1140.71,-903.96 1131.28,-908.79 1141.66,-910.89 1140.71,-903.96"/>
</a>
</g>
</g>
<!-- Node21 -->
<g id="Node000021" class="node">
<title>Node21</title>
<g id="a_Node000021"><a xlink:href="BranchCellHabitatDomain_8h.html" target="_top" xlink:title="Defines the BranchCellHabitatDomain class for managing habitat domains in branch terrain cells.">
<polygon fill="white" stroke="#666666" points="1384.5,-756 1151.5,-756 1151.5,-693 1384.5,-693 1384.5,-756"/>
<text text-anchor="start" x="1159.5" y="-744" font-family="Helvetica,sans-Serif" font-size="10.00">/home/runner/work/Weaver</text>
<text text-anchor="start" x="1159.5" y="-733" font-family="Helvetica,sans-Serif" font-size="10.00">/Weaver/include/App/Model</text>
<text text-anchor="start" x="1159.5" y="-722" font-family="Helvetica,sans-Serif" font-size="10.00">/IBM/Landscape/Map/SpatialTree</text>
<text text-anchor="start" x="1159.5" y="-711" font-family="Helvetica,sans-Serif" font-size="10.00">/TerrainCells/PatchApplicator</text>
<text text-anchor="middle" x="1268" y="-700" font-family="Helvetica,sans-Serif" font-size="10.00">/HabitatDomain/BranchCellHabitatDomain.h</text>
</a>
</g>
</g>
<!-- Node20&#45;&gt;Node21 -->
<g id="edge37_Node000020_Node000021" class="edge">
<title>Node20&#45;&gt;Node21</title>
<g id="a_edge37_Node000020_Node000021"><a xlink:title=" ">
<path fill="none" stroke="#63b8ff" d="M1099.04,-885.66C1113.8,-876.5 1129.45,-865.95 1143,-855 1180.54,-824.65 1218.3,-783.76 1242.34,-756.11"/>
<polygon fill="#63b8ff" stroke="#63b8ff" points="1097.19,-882.69 1090.48,-890.88 1100.84,-888.66 1097.19,-882.69"/>
</a>
</g>
</g>
<!-- Node23 -->
<g id="Node000023" class="node">
<title>Node23</title>
<g id="a_Node000023"><a xlink:href="CellHabitatDomainInterface_8h.html" target="_top" xlink:title="Declares the CellHabitatDomainInterface class, which stores and manages habitat&#45;domain information fo...">
<polygon fill="white" stroke="#666666" points="1133.5,-855 956.5,-855 956.5,-792 1133.5,-792 1133.5,-855"/>
<text text-anchor="start" x="964.5" y="-843" font-family="Helvetica,sans-Serif" font-size="10.00">/home/runner/work/Weaver</text>
<text text-anchor="start" x="964.5" y="-832" font-family="Helvetica,sans-Serif" font-size="10.00">/Weaver/include/App/Model</text>
<text text-anchor="start" x="964.5" y="-821" font-family="Helvetica,sans-Serif" font-size="10.00">/IBM/Landscape/Map/TerrainCells</text>
<text text-anchor="start" x="964.5" y="-810" font-family="Helvetica,sans-Serif" font-size="10.00">/PatchApplicator/HabitatDomain</text>
<text text-anchor="middle" x="1045" y="-799" font-family="Helvetica,sans-Serif" font-size="10.00">/CellHabitatDomainInterface.h</text>
</a>
</g>
</g>
<!-- Node20&#45;&gt;Node23 -->
<g id="edge40_Node000020_Node000023" class="edge">
<title>Node20&#45;&gt;Node23</title>
<g id="a_edge40_Node000020_Node000023"><a xlink:title=" ">
<path fill="none" stroke="#63b8ff" d="M1045,-880.93C1045,-872.39 1045,-863.32 1045,-855.02"/>
<polygon fill="#63b8ff" stroke="#63b8ff" points="1041.5,-881 1045,-891 1048.5,-881 1041.5,-881"/>
</a>
</g>
</g>
<!-- Node26 -->
<g id="Node000026" class="node">
<title>Node26</title>
<g id="a_Node000026"><a xlink:href="PatchApplicator_8h.html" target="_top" xlink:title="Defines the PatchApplicator class responsible for applying patches (moisture, resource,...">
<polygon fill="white" stroke="#666666" points="938,-750.5 756,-750.5 756,-698.5 938,-698.5 938,-750.5"/>
<text text-anchor="start" x="764" y="-738.5" font-family="Helvetica,sans-Serif" font-size="10.00">/home/runner/work/Weaver</text>
<text text-anchor="start" x="764" y="-727.5" font-family="Helvetica,sans-Serif" font-size="10.00">/Weaver/include/App/Model</text>
<text text-anchor="start" x="764" y="-716.5" font-family="Helvetica,sans-Serif" font-size="10.00">/IBM/Landscape/Map/TerrainCells</text>
<text text-anchor="middle" x="847" y="-705.5" font-family="Helvetica,sans-Serif" font-size="10.00">/PatchApplicator/PatchApplicator.h</text>
</a>
</g>
</g>
<!-- Node20&#45;&gt;Node26 -->
<g id="edge51_Node000020_Node000026" class="edge">
<title>Node20&#45;&gt;Node26</title>
<g id="a_edge51_Node000020_Node000026"><a xlink:title=" ">
<path fill="none" stroke="#63b8ff" d="M989.08,-885.45C974.98,-876.53 960.34,-866.16 948,-855 912.99,-823.36 881.04,-778.51 862.82,-750.75"/>
<polygon fill="#63b8ff" stroke="#63b8ff" points="987.43,-888.54 997.78,-890.81 991.1,-882.58 987.43,-888.54"/>
</a>
</g>
</g>
<!-- Node22 -->
<g id="Node000022" class="node">
<title>Node22</title>
<g id="a_Node000022"><a xlink:href="BranchPatchApplicator_8h.html" target="_top" xlink:title="Defines the BranchPatchApplicator class for applying patches to branch terrain cells in a spatial tre...">
<polygon fill="white" stroke="#666666" points="1334,-558 1160,-558 1160,-495 1334,-495 1334,-558"/>
<text text-anchor="start" x="1168" y="-546" font-family="Helvetica,sans-Serif" font-size="10.00">/home/runner/work/Weaver</text>
<text text-anchor="start" x="1168" y="-535" font-family="Helvetica,sans-Serif" font-size="10.00">/Weaver/include/App/Model</text>
<text text-anchor="start" x="1168" y="-524" font-family="Helvetica,sans-Serif" font-size="10.00">/IBM/Landscape/Map/SpatialTree</text>
<text text-anchor="start" x="1168" y="-513" font-family="Helvetica,sans-Serif" font-size="10.00">/TerrainCells/PatchApplicator</text>
<text text-anchor="middle" x="1247" y="-502" font-family="Helvetica,sans-Serif" font-size="10.00">/BranchPatchApplicator.h</text>
</a>
</g>
</g>
<!-- Node21&#45;&gt;Node22 -->
<g id="edge38_Node000021_Node000022" class="edge">
<title>Node21&#45;&gt;Node22</title>
<g id="a_edge38_Node000021_Node000022"><a xlink:title=" ">
<path fill="none" stroke="#63b8ff" d="M1263.65,-682.9C1259.68,-645.83 1253.89,-591.84 1250.29,-558.23"/>
<polygon fill="#63b8ff" stroke="#63b8ff" points="1260.17,-683.3 1264.72,-692.88 1267.13,-682.56 1260.17,-683.3"/>
</a>
</g>
</g>
<!-- Node22&#45;&gt;Node14 -->
<g id="edge39_Node000022_Node000014" class="edge">
<title>Node22&#45;&gt;Node14</title>
<g id="a_edge39_Node000022_Node000014"><a xlink:title=" ">
<path fill="none" stroke="#63b8ff" d="M1194.25,-489.32C1158.16,-465.07 1108.9,-432.96 1064,-407 1042.29,-394.45 1017.72,-381.63 996.57,-371.01"/>
<polygon fill="#63b8ff" stroke="#63b8ff" points="1192.42,-492.31 1202.67,-494.99 1196.33,-486.5 1192.42,-492.31"/>
</a>
</g>
</g>
<!-- Node23&#45;&gt;Node21 -->
<g id="edge41_Node000023_Node000021" class="edge">
<title>Node23&#45;&gt;Node21</title>
<g id="a_edge41_Node000023_Node000021"><a xlink:title=" ">
<path fill="none" stroke="#63b8ff" d="M1124.63,-787.86C1148.5,-777.48 1174.5,-766.17 1197.72,-756.07"/>
<polygon fill="#63b8ff" stroke="#63b8ff" points="1123.03,-784.74 1115.25,-791.94 1125.82,-791.16 1123.03,-784.74"/>
</a>
</g>
</g>
<!-- Node24 -->
<g id="Node000024" class="node">
<title>Node24</title>
<g id="a_Node000024"><a xlink:href="CellHabitatDomain_8h.html" target="_top" xlink:title="Declares the CellHabitatDomain class, a concrete implementation of CellHabitatDomainInterface represe...">
<polygon fill="white" stroke="#666666" points="1133.5,-756 956.5,-756 956.5,-693 1133.5,-693 1133.5,-756"/>
<text text-anchor="start" x="964.5" y="-744" font-family="Helvetica,sans-Serif" font-size="10.00">/home/runner/work/Weaver</text>
<text text-anchor="start" x="964.5" y="-733" font-family="Helvetica,sans-Serif" font-size="10.00">/Weaver/include/App/Model</text>
<text text-anchor="start" x="964.5" y="-722" font-family="Helvetica,sans-Serif" font-size="10.00">/IBM/Landscape/Map/TerrainCells</text>
<text text-anchor="start" x="964.5" y="-711" font-family="Helvetica,sans-Serif" font-size="10.00">/PatchApplicator/HabitatDomain</text>
<text text-anchor="middle" x="1045" y="-700" font-family="Helvetica,sans-Serif" font-size="10.00">/CellHabitatDomain.h</text>
</a>
</g>
</g>
<!-- Node23&#45;&gt;Node24 -->
<g id="edge42_Node000023_Node000024" class="edge">
<title>Node23&#45;&gt;Node24</title>
<g id="a_edge42_Node000023_Node000024"><a xlink:title=" ">
<path fill="none" stroke="#63b8ff" d="M1045,-781.69C1045,-773.2 1045,-764.38 1045,-756.32"/>
<polygon fill="#63b8ff" stroke="#63b8ff" points="1041.5,-781.81 1045,-791.81 1048.5,-781.81 1041.5,-781.81"/>
</a>
</g>
</g>
<!-- Node23&#45;&gt;Node26 -->
<g id="edge45_Node000023_Node000026" class="edge">
<title>Node23&#45;&gt;Node26</title>
<g id="a_edge45_Node000023_Node000026"><a xlink:title=" ">
<path fill="none" stroke="#63b8ff" d="M973.56,-787.5C948.6,-775.27 921.1,-761.8 898.13,-750.55"/>
<polygon fill="#63b8ff" stroke="#63b8ff" points="972.1,-790.69 982.62,-791.94 975.18,-784.4 972.1,-790.69"/>
</a>
</g>
</g>
<!-- Node25 -->
<g id="Node000025" class="node">
<title>Node25</title>
<g id="a_Node000025"><a xlink:href="LeafPatchApplicator_8h.html" target="_top" xlink:title="Defines the LeafPatchApplicator class for applying patches to leaf terrain cells in a spatial tree.">
<polygon fill="white" stroke="#666666" points="1142,-558 968,-558 968,-495 1142,-495 1142,-558"/>
<text text-anchor="start" x="976" y="-546" font-family="Helvetica,sans-Serif" font-size="10.00">/home/runner/work/Weaver</text>
<text text-anchor="start" x="976" y="-535" font-family="Helvetica,sans-Serif" font-size="10.00">/Weaver/include/App/Model</text>
<text text-anchor="start" x="976" y="-524" font-family="Helvetica,sans-Serif" font-size="10.00">/IBM/Landscape/Map/SpatialTree</text>
<text text-anchor="start" x="976" y="-513" font-family="Helvetica,sans-Serif" font-size="10.00">/TerrainCells/PatchApplicator</text>
<text text-anchor="middle" x="1055" y="-502" font-family="Helvetica,sans-Serif" font-size="10.00">/LeafPatchApplicator.h</text>
</a>
</g>
</g>
<!-- Node24&#45;&gt;Node25 -->
<g id="edge43_Node000024_Node000025" class="edge">
<title>Node24&#45;&gt;Node25</title>
<g id="a_edge43_Node000024_Node000025"><a xlink:title=" ">
<path fill="none" stroke="#63b8ff" d="M1047.1,-682.42C1048.99,-645.37 1051.72,-591.69 1053.43,-558.23"/>
<polygon fill="#63b8ff" stroke="#63b8ff" points="1043.58,-682.71 1046.56,-692.88 1050.57,-683.07 1043.58,-682.71"/>
</a>
</g>
</g>
<!-- Node25&#45;&gt;Node16 -->
<g id="edge44_Node000025_Node000016" class="edge">
<title>Node25&#45;&gt;Node16</title>
<g id="a_edge44_Node000025_Node000016"><a xlink:title=" ">
<path fill="none" stroke="#63b8ff" d="M1018.64,-487.26C1009.57,-477.72 1000.07,-467.73 991.79,-459.02"/>
<polygon fill="#63b8ff" stroke="#63b8ff" points="1016.36,-489.94 1025.79,-494.78 1021.43,-485.12 1016.36,-489.94"/>
</a>
</g>
</g>
<!-- Node26&#45;&gt;Node11 -->
<g id="edge50_Node000026_Node000011" class="edge">
<title>Node26&#45;&gt;Node11</title>
<g id="a_edge50_Node000026_Node000011"><a xlink:title=" ">
<path fill="none" stroke="#63b8ff" d="M745.69,-707.62C674.98,-695.74 578.66,-677.98 495,-657 488.41,-655.35 481.6,-653.5 474.8,-651.56"/>
<polygon fill="#63b8ff" stroke="#63b8ff" points="745.49,-711.13 755.93,-709.33 746.64,-704.23 745.49,-711.13"/>
</a>
</g>
</g>
<!-- Node27 -->
<g id="Node000027" class="node">
<title>Node27</title>
<g id="a_Node000027"><a xlink:href="SpatialTreePatchApplicator_8h.html" target="_top" xlink:title="Defines the SpatialTreePatchApplicator class for applying patches in a spatial tree of terrain cells.">
<polygon fill="white" stroke="#666666" points="984,-657 810,-657 810,-594 984,-594 984,-657"/>
<text text-anchor="start" x="818" y="-645" font-family="Helvetica,sans-Serif" font-size="10.00">/home/runner/work/Weaver</text>
<text text-anchor="start" x="818" y="-634" font-family="Helvetica,sans-Serif" font-size="10.00">/Weaver/include/App/Model</text>
<text text-anchor="start" x="818" y="-623" font-family="Helvetica,sans-Serif" font-size="10.00">/IBM/Landscape/Map/SpatialTree</text>
<text text-anchor="start" x="818" y="-612" font-family="Helvetica,sans-Serif" font-size="10.00">/TerrainCells/PatchApplicator</text>
<text text-anchor="middle" x="897" y="-601" font-family="Helvetica,sans-Serif" font-size="10.00">/SpatialTreePatchApplicator.h</text>
</a>
</g>
</g>
<!-- Node26&#45;&gt;Node27 -->
<g id="edge46_Node000026_Node000027" class="edge">
<title>Node26&#45;&gt;Node27</title>
<g id="a_edge46_Node000026_Node000027"><a xlink:title=" ">
<path fill="none" stroke="#63b8ff" d="M864.6,-689.36C870.01,-678.86 875.93,-667.38 881.21,-657.14"/>
<polygon fill="#63b8ff" stroke="#63b8ff" points="861.48,-687.78 860.01,-698.27 867.7,-690.98 861.48,-687.78"/>
</a>
</g>
</g>
<!-- Node27&#45;&gt;Node13 -->
<g id="edge49_Node000027_Node000013" class="edge">
<title>Node27&#45;&gt;Node13</title>
<g id="a_edge49_Node000027_Node000013"><a xlink:title=" ">
<path fill="none" stroke="#63b8ff" d="M878.89,-584.57C874.01,-573.82 868.88,-562.5 864.47,-552.8"/>
<polygon fill="#63b8ff" stroke="#63b8ff" points="875.76,-586.15 883.08,-593.81 882.13,-583.26 875.76,-586.15"/>
</a>
</g>
</g>
<!-- Node27&#45;&gt;Node22 -->
<g id="edge47_Node000027_Node000022" class="edge">
<title>Node27&#45;&gt;Node22</title>
<g id="a_edge47_Node000027_Node000022"><a xlink:title=" ">
<path fill="none" stroke="#63b8ff" d="M993.97,-600.36C1041.46,-588.22 1099.39,-572.94 1151,-558 1153.94,-557.15 1156.93,-556.27 1159.94,-555.38"/>
<polygon fill="#63b8ff" stroke="#63b8ff" points="992.83,-597.04 984,-602.9 994.56,-603.82 992.83,-597.04"/>
</a>
</g>
</g>
<!-- Node27&#45;&gt;Node25 -->
<g id="edge48_Node000027_Node000025" class="edge">
<title>Node27&#45;&gt;Node25</title>
<g id="a_edge48_Node000027_Node000025"><a xlink:title=" ">
<path fill="none" stroke="#63b8ff" d="M955.84,-588.38C972.03,-578.44 989.43,-567.76 1005.06,-558.16"/>
<polygon fill="#63b8ff" stroke="#63b8ff" points="953.68,-585.59 946.99,-593.81 957.35,-591.56 953.68,-585.59"/>
</a>
</g>
</g>
</g>
</svg>
