<?xml version="1.0" encoding="UTF-8" standalone="no"?>
<!DOCTYPE svg PUBLIC "-//W3C//DTD SVG 1.1//EN"
 "http://www.w3.org/Graphics/SVG/1.1/DTD/svg11.dtd">
<!-- Generated by graphviz version 2.43.0 (0)
 -->
<!-- Title: Graphical Class Hierarchy Pages: 1 -->
<svg width="168pt" height="64pt"
 viewBox="0.00 0.00 168.00 64.00" xmlns="http://www.w3.org/2000/svg" xmlns:xlink="http://www.w3.org/1999/xlink">
<g id="graph0" class="graph" transform="scale(1 1) rotate(0) translate(4 60)">
<title>Graphical Class Hierarchy</title>
<!-- Node0 -->
<g id="Node000000" class="node">
<title>Node0</title>
<g id="a_Node000000"><a xlink:href="classDecay.html" target="_top" xlink:title="Abstract base class for different decay models.">
<polygon fill="white" stroke="#666666" points="47,-37 0,-37 0,-18 47,-18 47,-37"/>
<text text-anchor="middle" x="23.5" y="-25" font-family="Helvetica,sans-Serif" font-size="10.00">Decay</text>
</a>
</g>
</g>
<!-- Node1 -->
<g id="Node000001" class="node">
<title>Node1</title>
<g id="a_Node000001"><a xlink:href="classLinealDecay.html" target="_top" xlink:title="Implements linear decay dynamics.">
<polygon fill="white" stroke="#666666" points="160,-56 83,-56 83,-37 160,-37 160,-56"/>
<text text-anchor="middle" x="121.5" y="-44" font-family="Helvetica,sans-Serif" font-size="10.00">LinealDecay</text>
</a>
</g>
</g>
<!-- Node0&#45;&gt;Node1 -->
<g id="edge18_Node000000_Node000001" class="edge">
<title>Node0&#45;&gt;Node1</title>
<g id="a_edge18_Node000000_Node000001"><a xlink:title=" ">
<path fill="none" stroke="#63b8ff" d="M57.26,-33.98C65.51,-35.62 74.43,-37.38 82.9,-39.06"/>
<polygon fill="#63b8ff" stroke="#63b8ff" points="57.74,-30.51 47.25,-32 56.38,-37.38 57.74,-30.51"/>
</a>
</g>
</g>
<!-- Node2 -->
<g id="Node000002" class="node">
<title>Node2</title>
<g id="a_Node000002"><a xlink:href="classNonDecay.html" target="_top" xlink:title="Represents a decay model with no decay effect.">
<polygon fill="white" stroke="#666666" points="155,-19 88,-19 88,0 155,0 155,-19"/>
<text text-anchor="middle" x="121.5" y="-7" font-family="Helvetica,sans-Serif" font-size="10.00">NonDecay</text>
</a>
</g>
</g>
<!-- Node0&#45;&gt;Node2 -->
<g id="edge19_Node000000_Node000002" class="edge">
<title>Node0&#45;&gt;Node2</title>
<g id="a_edge19_Node000000_Node000002"><a xlink:title=" ">
<path fill="none" stroke="#63b8ff" d="M57.11,-21.38C66.99,-19.53 77.85,-17.5 87.74,-15.64"/>
<polygon fill="#63b8ff" stroke="#63b8ff" points="56.43,-17.95 47.25,-23.23 57.72,-24.83 56.43,-17.95"/>
</a>
</g>
</g>
</g>
</svg>
