<?xml version="1.0" encoding="UTF-8" standalone="no"?>
<!DOCTYPE svg PUBLIC "-//W3C//DTD SVG 1.1//EN"
 "http://www.w3.org/Graphics/SVG/1.1/DTD/svg11.dtd">
<!-- Generated by graphviz version 2.43.0 (0)
 -->
<!-- Title: Graphical Class Hierarchy Pages: 1 -->
<svg width="408pt" height="138pt"
 viewBox="0.00 0.00 408.00 138.00" xmlns="http://www.w3.org/2000/svg" xmlns:xlink="http://www.w3.org/1999/xlink">
<g id="graph0" class="graph" transform="scale(1 1) rotate(0) translate(4 134)">
<title>Graphical Class Hierarchy</title>
<!-- Node0 -->
<g id="Node000000" class="node">
<title>Node0</title>
<g id="a_Node000000"><a xlink:href="classDynamics.html" target="_top" xlink:title="Abstract base class for modeling temporal dynamics.">
<polygon fill="white" stroke="#666666" points="65,-92 0,-92 0,-73 65,-73 65,-92"/>
<text text-anchor="middle" x="32.5" y="-80" font-family="Helvetica,sans-Serif" font-size="10.00">Dynamics</text>
</a>
</g>
</g>
<!-- Node1 -->
<g id="Node000001" class="node">
<title>Node1</title>
<g id="a_Node000001"><a xlink:href="classMassBasedDynamics.html" target="_top" xlink:title="Represents dynamics based on mass for living beings or resources.">
<polygon fill="white" stroke="#666666" points="231.5,-120 110.5,-120 110.5,-101 231.5,-101 231.5,-120"/>
<text text-anchor="middle" x="171" y="-108" font-family="Helvetica,sans-Serif" font-size="10.00">MassBasedDynamics</text>
</a>
</g>
</g>
<!-- Node0&#45;&gt;Node1 -->
<g id="edge25_Node000000_Node000001" class="edge">
<title>Node0&#45;&gt;Node1</title>
<g id="a_edge25_Node000000_Node000001"><a xlink:title=" ">
<path fill="none" stroke="#63b8ff" d="M75.33,-91.08C90.57,-94.21 107.88,-97.76 123.5,-100.96"/>
<polygon fill="#63b8ff" stroke="#63b8ff" points="75.66,-87.58 65.16,-88.99 74.25,-94.43 75.66,-87.58"/>
</a>
</g>
</g>
<!-- Node3 -->
<g id="Node000003" class="node">
<title>Node3</title>
<g id="a_Node000003"><a xlink:href="classNonMassBasedDynamics.html" target="_top" xlink:title="Represents dynamics that are independent of mass.">
<polygon fill="white" stroke="#666666" points="241,-74 101,-74 101,-55 241,-55 241,-74"/>
<text text-anchor="middle" x="171" y="-62" font-family="Helvetica,sans-Serif" font-size="10.00">NonMassBasedDynamics</text>
</a>
</g>
</g>
<!-- Node0&#45;&gt;Node3 -->
<g id="edge27_Node000000_Node000003" class="edge">
<title>Node0&#45;&gt;Node3</title>
<g id="a_edge27_Node000000_Node000003"><a xlink:title=" ">
<path fill="none" stroke="#63b8ff" d="M75.11,-77.01C83.25,-75.94 91.99,-74.79 100.75,-73.63"/>
<polygon fill="#63b8ff" stroke="#63b8ff" points="74.62,-73.55 65.16,-78.33 75.53,-80.49 74.62,-73.55"/>
</a>
</g>
</g>
<!-- Node2 -->
<g id="Node000002" class="node">
<title>Node2</title>
<g id="a_Node000002"><a xlink:href="classGrowthRateDynamics.html" target="_top" xlink:title="Implements mass&#45;based dynamics for growth rate of organisms.">
<polygon fill="white" stroke="#666666" points="400,-130 277,-130 277,-111 400,-111 400,-130"/>
<text text-anchor="middle" x="338.5" y="-118" font-family="Helvetica,sans-Serif" font-size="10.00">GrowthRateDynamics</text>
</a>
</g>
</g>
<!-- Node1&#45;&gt;Node2 -->
<g id="edge26_Node000001_Node000002" class="edge">
<title>Node1&#45;&gt;Node2</title>
<g id="a_edge26_Node000001_Node000002"><a xlink:title=" ">
<path fill="none" stroke="#63b8ff" d="M241.83,-114.72C253.43,-115.42 265.37,-116.14 276.73,-116.83"/>
<polygon fill="#63b8ff" stroke="#63b8ff" points="241.94,-111.22 231.75,-114.11 241.52,-118.21 241.94,-111.22"/>
</a>
</g>
</g>
<!-- Node4 -->
<g id="Node000004" class="node">
<title>Node4</title>
<g id="a_Node000004"><a xlink:href="classCycleDynamics.html" target="_top" xlink:title="Implements periodic, non–mass&#45;based dynamic behavior.">
<polygon fill="white" stroke="#666666" points="384.5,-93 292.5,-93 292.5,-74 384.5,-74 384.5,-93"/>
<text text-anchor="middle" x="338.5" y="-81" font-family="Helvetica,sans-Serif" font-size="10.00">CycleDynamics</text>
</a>
</g>
</g>
<!-- Node3&#45;&gt;Node4 -->
<g id="edge28_Node000003_Node000004" class="edge">
<title>Node3&#45;&gt;Node4</title>
<g id="a_edge28_Node000003_Node000004"><a xlink:title=" ">
<path fill="none" stroke="#63b8ff" d="M251.37,-73.61C265.35,-75.22 279.46,-76.84 292.11,-78.29"/>
<polygon fill="#63b8ff" stroke="#63b8ff" points="251.56,-70.11 241.23,-72.45 250.76,-77.07 251.56,-70.11"/>
</a>
</g>
</g>
<!-- Node5 -->
<g id="Node000005" class="node">
<title>Node5</title>
<g id="a_Node000005"><a xlink:href="classNonDynamics.html" target="_top" xlink:title="Represents a non&#45;changing dynamic component in the ecosystem model.">
<polygon fill="white" stroke="#666666" points="381,-56 296,-56 296,-37 381,-37 381,-56"/>
<text text-anchor="middle" x="338.5" y="-44" font-family="Helvetica,sans-Serif" font-size="10.00">NonDynamics</text>
</a>
</g>
</g>
<!-- Node3&#45;&gt;Node5 -->
<g id="edge29_Node000003_Node000005" class="edge">
<title>Node3&#45;&gt;Node5</title>
<g id="a_edge29_Node000003_Node000005"><a xlink:title=" ">
<path fill="none" stroke="#63b8ff" d="M251.32,-55.87C266.75,-54.19 282.35,-52.5 295.94,-51.02"/>
<polygon fill="#63b8ff" stroke="#63b8ff" points="250.79,-52.41 241.23,-56.97 251.55,-59.37 250.79,-52.41"/>
</a>
</g>
</g>
<!-- Node6 -->
<g id="Node000006" class="node">
<title>Node6</title>
<g id="a_Node000006"><a xlink:href="classPulseDynamics.html" target="_top" xlink:title="Models dynamics that occur as discrete pulses over time.">
<polygon fill="white" stroke="#666666" points="384.5,-19 292.5,-19 292.5,0 384.5,0 384.5,-19"/>
<text text-anchor="middle" x="338.5" y="-7" font-family="Helvetica,sans-Serif" font-size="10.00">PulseDynamics</text>
</a>
</g>
</g>
<!-- Node3&#45;&gt;Node6 -->
<g id="edge30_Node000003_Node000006" class="edge">
<title>Node3&#45;&gt;Node6</title>
<g id="a_edge30_Node000003_Node000006"><a xlink:title=" ">
<path fill="none" stroke="#63b8ff" d="M208.83,-51.61C228.93,-44.64 254.29,-35.96 277,-28.5 286.62,-25.34 297.14,-22 306.67,-19.01"/>
<polygon fill="#63b8ff" stroke="#63b8ff" points="207.43,-48.39 199.13,-54.98 209.72,-55.01 207.43,-48.39"/>
</a>
</g>
</g>
</g>
</svg>
