<?xml version="1.0" encoding="UTF-8" standalone="no"?>
<!DOCTYPE svg PUBLIC "-//W3C//DTD SVG 1.1//EN"
 "http://www.w3.org/Graphics/SVG/1.1/DTD/svg11.dtd">
<!-- Generated by graphviz version 2.43.0 (0)
 -->
<!-- Title: Graphical Class Hierarchy Pages: 1 -->
<svg width="346pt" height="76pt"
 viewBox="0.00 0.00 346.00 75.50" xmlns="http://www.w3.org/2000/svg" xmlns:xlink="http://www.w3.org/1999/xlink">
<g id="graph0" class="graph" transform="scale(1 1) rotate(0) translate(4 71.5)">
<title>Graphical Class Hierarchy</title>
<!-- Node0 -->
<g id="Node000000" class="node">
<title>Node0</title>
<g id="a_Node000000"><a xlink:href="classTraitTemperatureSection.html" target="_top" xlink:title="Represents the temperature&#45;dependent part of a trait.">
<polygon fill="white" stroke="#666666" points="135,-45.5 0,-45.5 0,-26.5 135,-26.5 135,-45.5"/>
<text text-anchor="middle" x="67.5" y="-33.5" font-family="Helvetica,sans-Serif" font-size="10.00">TraitTemperatureSection</text>
</a>
</g>
</g>
<!-- Node1 -->
<g id="Node000001" class="node">
<title>Node1</title>
<g id="a_Node000001"><a xlink:href="classPawarTraitTemperatureSection.html" target="_top" xlink:title="Represents a temperature&#45;dependent section of a Pawar metabolic model trait.">
<polygon fill="white" stroke="#666666" points="336.5,-67.5 172.5,-67.5 172.5,-48.5 336.5,-48.5 336.5,-67.5"/>
<text text-anchor="middle" x="254.5" y="-55.5" font-family="Helvetica,sans-Serif" font-size="10.00">PawarTraitTemperatureSection</text>
</a>
</g>
</g>
<!-- Node0&#45;&gt;Node1 -->
<g id="edge95_Node000000_Node000001" class="edge">
<title>Node0&#45;&gt;Node1</title>
<g id="a_edge95_Node000000_Node000001"><a xlink:title=" ">
<path fill="none" stroke="#63b8ff" d="M145.06,-45.1C154.4,-46.22 163.97,-47.35 173.36,-48.47"/>
<polygon fill="#63b8ff" stroke="#63b8ff" points="145.37,-41.62 135.03,-43.91 144.54,-48.57 145.37,-41.62"/>
</a>
</g>
</g>
<!-- Node2 -->
<g id="Node000002" class="node">
<title>Node2</title>
<g id="a_Node000002"><a xlink:href="classTempSizeRuleTraitTemperatureSection.html" target="_top" xlink:title="Represents a temperature&#45;dependent trait section for size rules.">
<polygon fill="white" stroke="#666666" points="338,-30 171,-30 171,0 338,0 338,-30"/>
<text text-anchor="start" x="179" y="-18" font-family="Helvetica,sans-Serif" font-size="10.00">TempSizeRuleTraitTemperature</text>
<text text-anchor="middle" x="254.5" y="-7" font-family="Helvetica,sans-Serif" font-size="10.00">Section</text>
</a>
</g>
</g>
<!-- Node0&#45;&gt;Node2 -->
<g id="edge96_Node000000_Node000002" class="edge">
<title>Node0&#45;&gt;Node2</title>
<g id="a_edge96_Node000000_Node000002"><a xlink:title=" ">
<path fill="none" stroke="#63b8ff" d="M145.22,-27.29C153.66,-26.33 162.29,-25.35 170.8,-24.39"/>
<polygon fill="#63b8ff" stroke="#63b8ff" points="144.57,-23.84 135.03,-28.45 145.36,-30.8 144.57,-23.84"/>
</a>
</g>
</g>
</g>
</svg>
