<?xml version="1.0" encoding="UTF-8" standalone="no"?>
<!DOCTYPE svg PUBLIC "-//W3C//DTD SVG 1.1//EN"
 "http://www.w3.org/Graphics/SVG/1.1/DTD/svg11.dtd">
<!-- Generated by graphviz version 2.43.0 (0)
 -->
<!-- Title: /home/runner/work/Weaver/Weaver/include/App/Model/IBM/Maths/Dynamics/Decay/LinealDecay.h Pages: 1 -->
<svg width="1546pt" height="313pt"
 viewBox="0.00 0.00 1545.50 313.00" xmlns="http://www.w3.org/2000/svg" xmlns:xlink="http://www.w3.org/1999/xlink">
<g id="graph0" class="graph" transform="scale(1 1) rotate(0) translate(4 309)">
<title>/home/runner/work/Weaver/Weaver/include/App/Model/IBM/Maths/Dynamics/Decay/LinealDecay.h</title>
<!-- Node1 -->
<g id="Node000001" class="node">
<title>Node1</title>
<g id="a_Node000001"><a xlink:title="Defines the LinealDecay class which implements linear decay dynamics.">
<polygon fill="#999999" stroke="#666666" points="586,-305 429,-305 429,-253 586,-253 586,-305"/>
<text text-anchor="start" x="437" y="-293" font-family="Helvetica,sans-Serif" font-size="10.00">/home/runner/work/Weaver</text>
<text text-anchor="start" x="437" y="-282" font-family="Helvetica,sans-Serif" font-size="10.00">/Weaver/include/App/Model</text>
<text text-anchor="start" x="437" y="-271" font-family="Helvetica,sans-Serif" font-size="10.00">/IBM/Maths/Dynamics/Decay</text>
<text text-anchor="middle" x="507.5" y="-260" font-family="Helvetica,sans-Serif" font-size="10.00">/LinealDecay.h</text>
</a>
</g>
</g>
<!-- Node2 -->
<g id="Node000002" class="node">
<title>Node2</title>
<g id="a_Node000002"><a xlink:title=" ">
<polygon fill="#e0e0e0" stroke="#999999" points="490,-217 383,-217 383,-187 490,-187 490,-217"/>
<text text-anchor="start" x="391" y="-205" font-family="Helvetica,sans-Serif" font-size="10.00">boost/serialization</text>
<text text-anchor="middle" x="436.5" y="-194" font-family="Helvetica,sans-Serif" font-size="10.00">/export.hpp</text>
</a>
</g>
</g>
<!-- Node1&#45;&gt;Node2 -->
<g id="edge1_Node000001_Node000002" class="edge">
<title>Node1&#45;&gt;Node2</title>
<g id="a_edge1_Node000001_Node000002"><a xlink:title=" ">
<path fill="none" stroke="#63b8ff" d="M483.46,-252.61C474.96,-243.63 465.48,-233.61 457.27,-224.94"/>
<polygon fill="#63b8ff" stroke="#63b8ff" points="459.57,-222.28 450.16,-217.43 454.49,-227.1 459.57,-222.28"/>
</a>
</g>
</g>
<!-- Node3 -->
<g id="Node000003" class="node">
<title>Node3</title>
<g id="a_Node000003"><a xlink:href="Decay_8h.html" target="_top" xlink:title="Defines the abstract Decay class for modeling decay processes.">
<polygon fill="white" stroke="#666666" points="651,-217 508,-217 508,-187 651,-187 651,-217"/>
<text text-anchor="start" x="516" y="-205" font-family="Helvetica,sans-Serif" font-size="10.00">App/Model/IBM/Maths</text>
<text text-anchor="middle" x="579.5" y="-194" font-family="Helvetica,sans-Serif" font-size="10.00">/Dynamics/Decay/Decay.h</text>
</a>
</g>
</g>
<!-- Node1&#45;&gt;Node3 -->
<g id="edge2_Node000001_Node000003" class="edge">
<title>Node1&#45;&gt;Node3</title>
<g id="a_edge2_Node000001_Node000003"><a xlink:title=" ">
<path fill="none" stroke="#63b8ff" d="M531.88,-252.61C540.58,-243.54 550.31,-233.41 558.69,-224.68"/>
<polygon fill="#63b8ff" stroke="#63b8ff" points="561.25,-227.07 565.65,-217.43 556.2,-222.22 561.25,-227.07"/>
</a>
</g>
</g>
<!-- Node4 -->
<g id="Node000004" class="node">
<title>Node4</title>
<g id="a_Node000004"><a xlink:title=" ">
<polygon fill="#e0e0e0" stroke="#999999" points="105,-85 0,-85 0,-55 105,-55 105,-85"/>
<text text-anchor="start" x="8" y="-73" font-family="Helvetica,sans-Serif" font-size="10.00">boost/archive/text</text>
<text text-anchor="middle" x="52.5" y="-62" font-family="Helvetica,sans-Serif" font-size="10.00">_iarchive.hpp</text>
</a>
</g>
</g>
<!-- Node3&#45;&gt;Node4 -->
<g id="edge3_Node000003_Node000004" class="edge">
<title>Node3&#45;&gt;Node4</title>
<g id="a_edge3_Node000003_Node000004"><a xlink:title=" ">
<path fill="none" stroke="#63b8ff" d="M507.91,-187.73C445.06,-175.94 358.52,-159.32 324.5,-151 247.75,-132.23 160.32,-105.55 105.77,-88.26"/>
<polygon fill="#63b8ff" stroke="#63b8ff" points="106.57,-84.84 95.97,-85.14 104.44,-91.51 106.57,-84.84"/>
</a>
</g>
</g>
<!-- Node5 -->
<g id="Node000005" class="node">
<title>Node5</title>
<g id="a_Node000005"><a xlink:title=" ">
<polygon fill="#e0e0e0" stroke="#999999" points="228,-85 123,-85 123,-55 228,-55 228,-85"/>
<text text-anchor="start" x="131" y="-73" font-family="Helvetica,sans-Serif" font-size="10.00">boost/archive/text</text>
<text text-anchor="middle" x="175.5" y="-62" font-family="Helvetica,sans-Serif" font-size="10.00">_oarchive.hpp</text>
</a>
</g>
</g>
<!-- Node3&#45;&gt;Node5 -->
<g id="edge4_Node000003_Node000005" class="edge">
<title>Node3&#45;&gt;Node5</title>
<g id="a_edge4_Node000003_Node000005"><a xlink:title=" ">
<path fill="none" stroke="#63b8ff" d="M531.43,-186.96C498.22,-177.15 453.08,-163.61 413.5,-151 348.41,-130.26 273.83,-104.94 225.77,-88.41"/>
<polygon fill="#63b8ff" stroke="#63b8ff" points="226.82,-85.07 216.22,-85.13 224.54,-91.69 226.82,-85.07"/>
</a>
</g>
</g>
<!-- Node6 -->
<g id="Node000006" class="node">
<title>Node6</title>
<g id="a_Node000006"><a xlink:title=" ">
<polygon fill="#e0e0e0" stroke="#999999" points="362.5,-85 246.5,-85 246.5,-55 362.5,-55 362.5,-85"/>
<text text-anchor="start" x="254.5" y="-73" font-family="Helvetica,sans-Serif" font-size="10.00">boost/archive/binary</text>
<text text-anchor="middle" x="304.5" y="-62" font-family="Helvetica,sans-Serif" font-size="10.00">_iarchive.hpp</text>
</a>
</g>
</g>
<!-- Node3&#45;&gt;Node6 -->
<g id="edge5_Node000003_Node000006" class="edge">
<title>Node3&#45;&gt;Node6</title>
<g id="a_edge5_Node000003_Node000006"><a xlink:title=" ">
<path fill="none" stroke="#63b8ff" d="M549.81,-186.96C499.92,-163.38 399.28,-115.81 343.67,-89.51"/>
<polygon fill="#63b8ff" stroke="#63b8ff" points="345.02,-86.28 334.48,-85.17 342.03,-92.61 345.02,-86.28"/>
</a>
</g>
</g>
<!-- Node7 -->
<g id="Node000007" class="node">
<title>Node7</title>
<g id="a_Node000007"><a xlink:title=" ">
<polygon fill="#e0e0e0" stroke="#999999" points="496.5,-85 380.5,-85 380.5,-55 496.5,-55 496.5,-85"/>
<text text-anchor="start" x="388.5" y="-73" font-family="Helvetica,sans-Serif" font-size="10.00">boost/archive/binary</text>
<text text-anchor="middle" x="438.5" y="-62" font-family="Helvetica,sans-Serif" font-size="10.00">_oarchive.hpp</text>
</a>
</g>
</g>
<!-- Node3&#45;&gt;Node7 -->
<g id="edge6_Node000003_Node000007" class="edge">
<title>Node3&#45;&gt;Node7</title>
<g id="a_edge6_Node000003_Node000007"><a xlink:title=" ">
<path fill="none" stroke="#63b8ff" d="M556.73,-186.96C542.27,-177.58 523.52,-164.51 508.5,-151 488.76,-133.23 469.09,-110.16 455.65,-93.36"/>
<polygon fill="#63b8ff" stroke="#63b8ff" points="458.17,-90.9 449.23,-85.21 452.67,-95.23 458.17,-90.9"/>
</a>
</g>
</g>
<!-- Node8 -->
<g id="Node000008" class="node">
<title>Node8</title>
<g id="a_Node000008"><a xlink:title=" ">
<polygon fill="#e0e0e0" stroke="#999999" points="974.5,-19 930.5,-19 930.5,0 974.5,0 974.5,-19"/>
<text text-anchor="middle" x="952.5" y="-7" font-family="Helvetica,sans-Serif" font-size="10.00">string</text>
</a>
</g>
</g>
<!-- Node3&#45;&gt;Node8 -->
<g id="edge7_Node000003_Node000008" class="edge">
<title>Node3&#45;&gt;Node8</title>
<g id="a_edge7_Node000003_Node000008"><a xlink:title=" ">
<path fill="none" stroke="#63b8ff" d="M651.03,-191C723.46,-177.69 835.23,-148.05 910.5,-85 928.24,-70.14 939.95,-45.76 946.39,-28.96"/>
<polygon fill="#63b8ff" stroke="#63b8ff" points="949.81,-29.78 949.88,-19.19 943.22,-27.43 949.81,-29.78"/>
</a>
</g>
</g>
<!-- Node9 -->
<g id="Node000009" class="node">
<title>Node9</title>
<g id="a_Node000009"><a xlink:title=" ">
<polygon fill="#e0e0e0" stroke="#999999" points="1537.5,-79.5 1481.5,-79.5 1481.5,-60.5 1537.5,-60.5 1537.5,-79.5"/>
<text text-anchor="middle" x="1509.5" y="-67.5" font-family="Helvetica,sans-Serif" font-size="10.00">sstream</text>
</a>
</g>
</g>
<!-- Node3&#45;&gt;Node9 -->
<g id="edge8_Node000003_Node000009" class="edge">
<title>Node3&#45;&gt;Node9</title>
<g id="a_edge8_Node000003_Node000009"><a xlink:title=" ">
<path fill="none" stroke="#63b8ff" d="M651.18,-199.75C782.76,-196.62 1057.43,-185.99 1145.5,-151 1165.5,-143.05 1163.65,-129.3 1183.5,-121 1303.33,-70.91 1347.57,-116.78 1473.5,-85 1475.8,-84.42 1478.16,-83.73 1480.51,-82.97"/>
<polygon fill="#63b8ff" stroke="#63b8ff" points="1481.74,-86.25 1489.98,-79.6 1479.39,-79.66 1481.74,-86.25"/>
</a>
</g>
</g>
<!-- Node10 -->
<g id="Node000010" class="node">
<title>Node10</title>
<g id="a_Node000010"><a xlink:title=" ">
<polygon fill="#e0e0e0" stroke="#999999" points="1302.5,-145.5 1192.5,-145.5 1192.5,-126.5 1302.5,-126.5 1302.5,-145.5"/>
<text text-anchor="middle" x="1247.5" y="-133.5" font-family="Helvetica,sans-Serif" font-size="10.00">nlohmann/json.hpp</text>
</a>
</g>
</g>
<!-- Node3&#45;&gt;Node10 -->
<g id="edge9_Node000003_Node000010" class="edge">
<title>Node3&#45;&gt;Node10</title>
<g id="a_edge9_Node000003_Node000010"><a xlink:title=" ">
<path fill="none" stroke="#63b8ff" d="M651.26,-197.73C763.98,-191.97 989.19,-178.01 1178.5,-151 1185.33,-150.03 1192.5,-148.8 1199.53,-147.48"/>
<polygon fill="#63b8ff" stroke="#63b8ff" points="1200.53,-150.85 1209.68,-145.5 1199.19,-143.98 1200.53,-150.85"/>
</a>
</g>
</g>
<!-- Node11 -->
<g id="Node000011" class="node">
<title>Node11</title>
<g id="a_Node000011"><a xlink:href="EnumClass_8h.html" target="_top" xlink:title="Template helper class for working with strongly&#45;typed enums.">
<polygon fill="white" stroke="#666666" points="1136,-145.5 1031,-145.5 1031,-126.5 1136,-126.5 1136,-145.5"/>
<text text-anchor="middle" x="1083.5" y="-133.5" font-family="Helvetica,sans-Serif" font-size="10.00">Misc/EnumClass.h</text>
</a>
</g>
</g>
<!-- Node3&#45;&gt;Node11 -->
<g id="edge10_Node000003_Node000011" class="edge">
<title>Node3&#45;&gt;Node11</title>
<g id="a_edge10_Node000003_Node000011"><a xlink:title=" ">
<path fill="none" stroke="#63b8ff" d="M651.18,-191.9C750.16,-179.33 927.1,-156.86 1020.99,-144.94"/>
<polygon fill="#63b8ff" stroke="#63b8ff" points="1021.43,-148.41 1030.91,-143.68 1020.55,-141.47 1021.43,-148.41"/>
</a>
</g>
</g>
<!-- Node16 -->
<g id="Node000016" class="node">
<title>Node16</title>
<g id="a_Node000016"><a xlink:href="PreciseDouble_8h.html" target="_top" xlink:title="Defines the PreciseDouble class for safe and precise double&#45;precision arithmetic.">
<polygon fill="white" stroke="#666666" points="641,-151 518,-151 518,-121 641,-121 641,-151"/>
<text text-anchor="start" x="526" y="-139" font-family="Helvetica,sans-Serif" font-size="10.00">App/Model/IBM/Maths</text>
<text text-anchor="middle" x="579.5" y="-128" font-family="Helvetica,sans-Serif" font-size="10.00">/PreciseDouble.h</text>
</a>
</g>
</g>
<!-- Node3&#45;&gt;Node16 -->
<g id="edge18_Node000003_Node000016" class="edge">
<title>Node3&#45;&gt;Node16</title>
<g id="a_edge18_Node000003_Node000016"><a xlink:title=" ">
<path fill="none" stroke="#63b8ff" d="M579.5,-186.8C579.5,-179.34 579.5,-169.99 579.5,-161.41"/>
<polygon fill="#63b8ff" stroke="#63b8ff" points="583,-161.16 579.5,-151.16 576,-161.16 583,-161.16"/>
</a>
</g>
</g>
<!-- Node11&#45;&gt;Node8 -->
<g id="edge12_Node000011_Node000008" class="edge">
<title>Node11&#45;&gt;Node8</title>
<g id="a_edge12_Node000011_Node000008"><a xlink:title=" ">
<path fill="none" stroke="#63b8ff" d="M1058.76,-126.49C1038.36,-118.44 1009.73,-104.65 990.5,-85 974.84,-69 964.26,-45.24 958.32,-28.88"/>
<polygon fill="#63b8ff" stroke="#63b8ff" points="961.61,-27.69 955.08,-19.35 954.98,-29.94 961.61,-27.69"/>
</a>
</g>
</g>
<!-- Node11&#45;&gt;Node9 -->
<g id="edge11_Node000011_Node000009" class="edge">
<title>Node11&#45;&gt;Node9</title>
<g id="a_edge11_Node000011_Node000009"><a xlink:title=" ">
<path fill="none" stroke="#63b8ff" d="M1121.3,-126.45C1130.8,-124.48 1141,-122.52 1150.5,-121 1293.13,-98.2 1333.23,-119.47 1473.5,-85 1475.86,-84.42 1478.28,-83.72 1480.69,-82.95"/>
<polygon fill="#63b8ff" stroke="#63b8ff" points="1482.12,-86.16 1490.37,-79.5 1479.77,-79.56 1482.12,-86.16"/>
</a>
</g>
</g>
<!-- Node12 -->
<g id="Node000012" class="node">
<title>Node12</title>
<g id="a_Node000012"><a xlink:title=" ">
<polygon fill="#e0e0e0" stroke="#999999" points="1279,-79.5 1186,-79.5 1186,-60.5 1279,-60.5 1279,-79.5"/>
<text text-anchor="middle" x="1232.5" y="-67.5" font-family="Helvetica,sans-Serif" font-size="10.00">unordered_map</text>
</a>
</g>
</g>
<!-- Node11&#45;&gt;Node12 -->
<g id="edge13_Node000011_Node000012" class="edge">
<title>Node11&#45;&gt;Node12</title>
<g id="a_edge13_Node000011_Node000012"><a xlink:title=" ">
<path fill="none" stroke="#63b8ff" d="M1103.59,-126.37C1129.14,-115.39 1173.46,-96.36 1202.89,-83.72"/>
<polygon fill="#63b8ff" stroke="#63b8ff" points="1204.44,-86.86 1212.25,-79.7 1201.68,-80.43 1204.44,-86.86"/>
</a>
</g>
</g>
<!-- Node13 -->
<g id="Node000013" class="node">
<title>Node13</title>
<g id="a_Node000013"><a xlink:title=" ">
<polygon fill="#e0e0e0" stroke="#999999" points="1464,-79.5 1297,-79.5 1297,-60.5 1464,-60.5 1464,-79.5"/>
<text text-anchor="middle" x="1380.5" y="-67.5" font-family="Helvetica,sans-Serif" font-size="10.00">magic_enum/magic_enum.hpp</text>
</a>
</g>
</g>
<!-- Node11&#45;&gt;Node13 -->
<g id="edge14_Node000011_Node000013" class="edge">
<title>Node11&#45;&gt;Node13</title>
<g id="a_edge14_Node000011_Node000013"><a xlink:title=" ">
<path fill="none" stroke="#63b8ff" d="M1123.25,-126.44C1176.93,-114.87 1272.58,-94.26 1330.9,-81.69"/>
<polygon fill="#63b8ff" stroke="#63b8ff" points="1331.95,-85.04 1340.99,-79.51 1330.48,-78.2 1331.95,-85.04"/>
</a>
</g>
</g>
<!-- Node14 -->
<g id="Node000014" class="node">
<title>Node14</title>
<g id="a_Node000014"><a xlink:href="LineInfoException_8h.html" target="_top" xlink:title="Exception class with detailed file and line information for error reporting.">
<polygon fill="white" stroke="#666666" points="1168,-79.5 999,-79.5 999,-60.5 1168,-60.5 1168,-79.5"/>
<text text-anchor="middle" x="1083.5" y="-67.5" font-family="Helvetica,sans-Serif" font-size="10.00">Exceptions/LineInfoException.h</text>
</a>
</g>
</g>
<!-- Node11&#45;&gt;Node14 -->
<g id="edge15_Node000011_Node000014" class="edge">
<title>Node11&#45;&gt;Node14</title>
<g id="a_edge15_Node000011_Node000014"><a xlink:title=" ">
<path fill="none" stroke="#63b8ff" d="M1083.5,-126.37C1083.5,-117.16 1083.5,-102.29 1083.5,-90.27"/>
<polygon fill="#63b8ff" stroke="#63b8ff" points="1087,-89.91 1083.5,-79.91 1080,-89.91 1087,-89.91"/>
</a>
</g>
</g>
<!-- Node14&#45;&gt;Node8 -->
<g id="edge17_Node000014_Node000008" class="edge">
<title>Node14&#45;&gt;Node8</title>
<g id="a_edge17_Node000014_Node000008"><a xlink:title=" ">
<path fill="none" stroke="#63b8ff" d="M1064.45,-60.49C1042.53,-50.7 1006.29,-34.52 981,-23.23"/>
<polygon fill="#63b8ff" stroke="#63b8ff" points="982.13,-19.9 971.57,-19.02 979.28,-26.29 982.13,-19.9"/>
</a>
</g>
</g>
<!-- Node15 -->
<g id="Node000015" class="node">
<title>Node15</title>
<g id="a_Node000015"><a xlink:title=" ">
<polygon fill="#e0e0e0" stroke="#999999" points="1116,-19 1051,-19 1051,0 1116,0 1116,-19"/>
<text text-anchor="middle" x="1083.5" y="-7" font-family="Helvetica,sans-Serif" font-size="10.00">exception</text>
</a>
</g>
</g>
<!-- Node14&#45;&gt;Node15 -->
<g id="edge16_Node000014_Node000015" class="edge">
<title>Node14&#45;&gt;Node15</title>
<g id="a_edge16_Node000014_Node000015"><a xlink:title=" ">
<path fill="none" stroke="#63b8ff" d="M1083.5,-60.37C1083.5,-52.25 1083.5,-39.81 1083.5,-29.39"/>
<polygon fill="#63b8ff" stroke="#63b8ff" points="1087,-29.17 1083.5,-19.17 1080,-29.17 1087,-29.17"/>
</a>
</g>
</g>
<!-- Node16&#45;&gt;Node4 -->
<g id="edge19_Node000016_Node000004" class="edge">
<title>Node16&#45;&gt;Node4</title>
<g id="a_edge19_Node000016_Node000004"><a xlink:title=" ">
<path fill="none" stroke="#63b8ff" d="M517.74,-130.72C430.23,-124.14 264.97,-109.8 115.6,-85.24"/>
<polygon fill="#63b8ff" stroke="#63b8ff" points="115.76,-81.72 105.32,-83.53 114.61,-88.62 115.76,-81.72"/>
</a>
</g>
</g>
<!-- Node16&#45;&gt;Node5 -->
<g id="edge20_Node000016_Node000005" class="edge">
<title>Node16&#45;&gt;Node5</title>
<g id="a_edge20_Node000016_Node000005"><a xlink:title=" ">
<path fill="none" stroke="#63b8ff" d="M517.79,-127.43C451.27,-118.94 342.08,-104.07 238.24,-85.05"/>
<polygon fill="#63b8ff" stroke="#63b8ff" points="238.68,-81.57 228.21,-83.19 237.41,-88.45 238.68,-81.57"/>
</a>
</g>
</g>
<!-- Node16&#45;&gt;Node6 -->
<g id="edge21_Node000016_Node000006" class="edge">
<title>Node16&#45;&gt;Node6</title>
<g id="a_edge21_Node000016_Node000006"><a xlink:title=" ">
<path fill="none" stroke="#63b8ff" d="M519.15,-120.95C475.94,-110.9 417.69,-97.34 372.77,-86.89"/>
<polygon fill="#63b8ff" stroke="#63b8ff" points="373.36,-83.43 362.82,-84.57 371.77,-90.25 373.36,-83.43"/>
</a>
</g>
</g>
<!-- Node16&#45;&gt;Node7 -->
<g id="edge22_Node000016_Node000007" class="edge">
<title>Node16&#45;&gt;Node7</title>
<g id="a_edge22_Node000016_Node000007"><a xlink:title=" ">
<path fill="none" stroke="#63b8ff" d="M548.56,-120.95C527.99,-111.62 500.77,-99.27 478.55,-89.18"/>
<polygon fill="#63b8ff" stroke="#63b8ff" points="479.92,-85.96 469.37,-85.01 477.03,-92.33 479.92,-85.96"/>
</a>
</g>
</g>
<!-- Node16&#45;&gt;Node8 -->
<g id="edge23_Node000016_Node000008" class="edge">
<title>Node16&#45;&gt;Node8</title>
<g id="a_edge23_Node000016_Node000008"><a xlink:title=" ">
<path fill="none" stroke="#63b8ff" d="M641.15,-135.23C703.66,-133.1 801.6,-123.15 876.5,-85 903.42,-71.29 926.95,-44.7 940.45,-27.28"/>
<polygon fill="#63b8ff" stroke="#63b8ff" points="943.36,-29.23 946.55,-19.12 937.76,-25.03 943.36,-29.23"/>
</a>
</g>
</g>
<!-- Node17 -->
<g id="Node000017" class="node">
<title>Node17</title>
<g id="a_Node000017"><a xlink:title=" ">
<polygon fill="#e0e0e0" stroke="#999999" points="785,-79.5 738,-79.5 738,-60.5 785,-60.5 785,-79.5"/>
<text text-anchor="middle" x="761.5" y="-67.5" font-family="Helvetica,sans-Serif" font-size="10.00">cmath</text>
</a>
</g>
</g>
<!-- Node16&#45;&gt;Node17 -->
<g id="edge24_Node000016_Node000017" class="edge">
<title>Node16&#45;&gt;Node17</title>
<g id="a_edge24_Node000016_Node000017"><a xlink:title=" ">
<path fill="none" stroke="#63b8ff" d="M624.48,-120.91C654.21,-111.35 693.93,-98.11 728.5,-85 729.88,-84.48 731.29,-83.93 732.71,-83.37"/>
<polygon fill="#63b8ff" stroke="#63b8ff" points="734.13,-86.57 742.06,-79.54 731.48,-80.09 734.13,-86.57"/>
</a>
</g>
</g>
<!-- Node18 -->
<g id="Node000018" class="node">
<title>Node18</title>
<g id="a_Node000018"><a xlink:title=" ">
<polygon fill="#e0e0e0" stroke="#999999" points="867.5,-79.5 803.5,-79.5 803.5,-60.5 867.5,-60.5 867.5,-79.5"/>
<text text-anchor="middle" x="835.5" y="-67.5" font-family="Helvetica,sans-Serif" font-size="10.00">algorithm</text>
</a>
</g>
</g>
<!-- Node16&#45;&gt;Node18 -->
<g id="edge25_Node000016_Node000018" class="edge">
<title>Node16&#45;&gt;Node18</title>
<g id="a_edge25_Node000016_Node000018"><a xlink:title=" ">
<path fill="none" stroke="#63b8ff" d="M641.23,-122.16C684.19,-112.84 742.65,-99.38 793.5,-85 796.11,-84.26 798.81,-83.46 801.51,-82.63"/>
<polygon fill="#63b8ff" stroke="#63b8ff" points="802.73,-85.91 811.19,-79.53 800.6,-79.24 802.73,-85.91"/>
</a>
</g>
</g>
<!-- Node19 -->
<g id="Node000019" class="node">
<title>Node19</title>
<g id="a_Node000019"><a xlink:title=" ">
<polygon fill="#e0e0e0" stroke="#999999" points="574.5,-79.5 514.5,-79.5 514.5,-60.5 574.5,-60.5 574.5,-79.5"/>
<text text-anchor="middle" x="544.5" y="-67.5" font-family="Helvetica,sans-Serif" font-size="10.00">iostream</text>
</a>
</g>
</g>
<!-- Node16&#45;&gt;Node19 -->
<g id="edge26_Node000016_Node000019" class="edge">
<title>Node16&#45;&gt;Node19</title>
<g id="a_edge26_Node000016_Node000019"><a xlink:title=" ">
<path fill="none" stroke="#63b8ff" d="M571.73,-120.8C566.54,-111.31 559.68,-98.76 554.14,-88.63"/>
<polygon fill="#63b8ff" stroke="#63b8ff" points="557.21,-86.94 549.34,-79.84 551.06,-90.3 557.21,-86.94"/>
</a>
</g>
</g>
<!-- Node20 -->
<g id="Node000020" class="node">
<title>Node20</title>
<g id="a_Node000020"><a xlink:title=" ">
<polygon fill="#e0e0e0" stroke="#999999" points="636.5,-79.5 592.5,-79.5 592.5,-60.5 636.5,-60.5 636.5,-79.5"/>
<text text-anchor="middle" x="614.5" y="-67.5" font-family="Helvetica,sans-Serif" font-size="10.00">limits</text>
</a>
</g>
</g>
<!-- Node16&#45;&gt;Node20 -->
<g id="edge27_Node000016_Node000020" class="edge">
<title>Node16&#45;&gt;Node20</title>
<g id="a_edge27_Node000016_Node000020"><a xlink:title=" ">
<path fill="none" stroke="#63b8ff" d="M587.27,-120.8C592.46,-111.31 599.32,-98.76 604.86,-88.63"/>
<polygon fill="#63b8ff" stroke="#63b8ff" points="607.94,-90.3 609.66,-79.84 601.79,-86.94 607.94,-90.3"/>
</a>
</g>
</g>
<!-- Node21 -->
<g id="Node000021" class="node">
<title>Node21</title>
<g id="a_Node000021"><a xlink:title=" ">
<polygon fill="#e0e0e0" stroke="#999999" points="720,-79.5 655,-79.5 655,-60.5 720,-60.5 720,-79.5"/>
<text text-anchor="middle" x="687.5" y="-67.5" font-family="Helvetica,sans-Serif" font-size="10.00">functional</text>
</a>
</g>
</g>
<!-- Node16&#45;&gt;Node21 -->
<g id="edge28_Node000016_Node000021" class="edge">
<title>Node16&#45;&gt;Node21</title>
<g id="a_edge28_Node000016_Node000021"><a xlink:title=" ">
<path fill="none" stroke="#63b8ff" d="M603.2,-120.95C621.39,-110.18 646.36,-95.38 664.4,-84.69"/>
<polygon fill="#63b8ff" stroke="#63b8ff" points="666.31,-87.63 673.13,-79.52 662.74,-81.6 666.31,-87.63"/>
</a>
</g>
</g>
</g>
</svg>
