<?xml version="1.0" encoding="UTF-8" standalone="no"?>
<!DOCTYPE svg PUBLIC "-//W3C//DTD SVG 1.1//EN"
 "http://www.w3.org/Graphics/SVG/1.1/DTD/svg11.dtd">
<!-- Generated by graphviz version 2.43.0 (0)
 -->
<!-- Title: /home/runner/work/Weaver/Weaver/include/App/Model/IBM/Landscape/Map/Patches/Source/ObstacleSource.h Pages: 1 -->
<svg width="1071pt" height="951pt"
 viewBox="0.00 0.00 1071.00 951.00" xmlns="http://www.w3.org/2000/svg" xmlns:xlink="http://www.w3.org/1999/xlink">
<g id="graph0" class="graph" transform="scale(1 1) rotate(0) translate(4 947)">
<title>/home/runner/work/Weaver/Weaver/include/App/Model/IBM/Landscape/Map/Patches/Source/ObstacleSource.h</title>
<!-- Node1 -->
<g id="Node000001" class="node">
<title>Node1</title>
<g id="a_Node000001"><a xlink:title="Defines the ObstacleSource class representing obstacles in a landscape.">
<polygon fill="#999999" stroke="#666666" points="261,-943 103,-943 103,-891 261,-891 261,-943"/>
<text text-anchor="start" x="111" y="-931" font-family="Helvetica,sans-Serif" font-size="10.00">/home/runner/work/Weaver</text>
<text text-anchor="start" x="111" y="-920" font-family="Helvetica,sans-Serif" font-size="10.00">/Weaver/include/App/Model</text>
<text text-anchor="start" x="111" y="-909" font-family="Helvetica,sans-Serif" font-size="10.00">/IBM/Landscape/Map/Patches</text>
<text text-anchor="middle" x="182" y="-898" font-family="Helvetica,sans-Serif" font-size="10.00">/Source/ObstacleSource.h</text>
</a>
</g>
</g>
<!-- Node2 -->
<g id="Node000002" class="node">
<title>Node2</title>
<g id="a_Node000002"><a xlink:href="Landscape_8h.html" target="_top" xlink:title="Doxygen&#45;documented declaration of the Landscape class and related serialization helpers.">
<polygon fill="white" stroke="#666666" points="702.5,-118 545.5,-118 545.5,-77 702.5,-77 702.5,-118"/>
<text text-anchor="start" x="553.5" y="-106" font-family="Helvetica,sans-Serif" font-size="10.00">/home/runner/work/Weaver</text>
<text text-anchor="start" x="553.5" y="-95" font-family="Helvetica,sans-Serif" font-size="10.00">/Weaver/include/App/Model</text>
<text text-anchor="middle" x="624" y="-84" font-family="Helvetica,sans-Serif" font-size="10.00">/IBM/Landscape/Landscape.h</text>
</a>
</g>
</g>
<!-- Node1&#45;&gt;Node2 -->
<g id="edge1_Node000001_Node000002" class="edge">
<title>Node1&#45;&gt;Node2</title>
<g id="a_edge1_Node000001_Node000002"><a xlink:title=" ">
<path fill="none" stroke="#63b8ff" d="M123.08,-885.8C69.91,-853.87 0,-798.08 0,-725.5 0,-725.5 0,-725.5 0,-256 0,-144.76 377.53,-111.28 545.29,-101.9"/>
<polygon fill="#63b8ff" stroke="#63b8ff" points="121.39,-888.87 131.79,-890.91 124.93,-882.83 121.39,-888.87"/>
</a>
</g>
</g>
<!-- Node7 -->
<g id="Node000007" class="node">
<title>Node7</title>
<g id="a_Node000007"><a xlink:href="BranchCellObstacle_8h.html" target="_top" xlink:title="Defines the BranchCellObstacle class for managing obstacles in branch terrain cells.">
<polygon fill="white" stroke="#666666" points="204,-756 30,-756 30,-693 204,-693 204,-756"/>
<text text-anchor="start" x="38" y="-744" font-family="Helvetica,sans-Serif" font-size="10.00">/home/runner/work/Weaver</text>
<text text-anchor="start" x="38" y="-733" font-family="Helvetica,sans-Serif" font-size="10.00">/Weaver/include/App/Model</text>
<text text-anchor="start" x="38" y="-722" font-family="Helvetica,sans-Serif" font-size="10.00">/IBM/Landscape/Map/SpatialTree</text>
<text text-anchor="start" x="38" y="-711" font-family="Helvetica,sans-Serif" font-size="10.00">/TerrainCells/PatchApplicator</text>
<text text-anchor="middle" x="117" y="-700" font-family="Helvetica,sans-Serif" font-size="10.00">/Obstacle/BranchCellObstacle.h</text>
</a>
</g>
</g>
<!-- Node1&#45;&gt;Node7 -->
<g id="edge6_Node000001_Node000007" class="edge">
<title>Node1&#45;&gt;Node7</title>
<g id="a_edge6_Node000001_Node000007"><a xlink:title=" ">
<path fill="none" stroke="#63b8ff" d="M152.17,-882.63C145.93,-874.12 140.03,-864.64 136,-855 122.64,-823.03 118.45,-783.19 117.25,-756.21"/>
<polygon fill="#63b8ff" stroke="#63b8ff" points="149.59,-885.01 158.47,-890.78 155.13,-880.73 149.59,-885.01"/>
</a>
</g>
</g>
<!-- Node12 -->
<g id="Node000012" class="node">
<title>Node12</title>
<g id="a_Node000012"><a xlink:href="CellObstacleInterface_8h.html" target="_top" xlink:title="Interface for obstacle elements within a terrain cell.">
<polygon fill="white" stroke="#666666" points="351,-855 145,-855 145,-792 351,-792 351,-855"/>
<text text-anchor="start" x="153" y="-843" font-family="Helvetica,sans-Serif" font-size="10.00">/home/runner/work/Weaver</text>
<text text-anchor="start" x="153" y="-832" font-family="Helvetica,sans-Serif" font-size="10.00">/Weaver/include/App/Model</text>
<text text-anchor="start" x="153" y="-821" font-family="Helvetica,sans-Serif" font-size="10.00">/IBM/Landscape/Map/TerrainCells</text>
<text text-anchor="start" x="153" y="-810" font-family="Helvetica,sans-Serif" font-size="10.00">/PatchApplicator/Obstacle/CellObstacle</text>
<text text-anchor="middle" x="248" y="-799" font-family="Helvetica,sans-Serif" font-size="10.00">Interface.h</text>
</a>
</g>
</g>
<!-- Node1&#45;&gt;Node12 -->
<g id="edge12_Node000001_Node000012" class="edge">
<title>Node1&#45;&gt;Node12</title>
<g id="a_edge12_Node000001_Node000012"><a xlink:title=" ">
<path fill="none" stroke="#63b8ff" d="M206.08,-882.61C212.59,-873.59 219.6,-863.87 225.99,-855.02"/>
<polygon fill="#63b8ff" stroke="#63b8ff" points="203.05,-880.84 200.03,-891 208.72,-884.93 203.05,-880.84"/>
</a>
</g>
</g>
<!-- Node16 -->
<g id="Node000016" class="node">
<title>Node16</title>
<g id="a_Node000016"><a xlink:href="PatchApplicator_8h.html" target="_top" xlink:title="Defines the PatchApplicator class responsible for applying patches (moisture, resource,...">
<polygon fill="white" stroke="#666666" points="531,-750.5 349,-750.5 349,-698.5 531,-698.5 531,-750.5"/>
<text text-anchor="start" x="357" y="-738.5" font-family="Helvetica,sans-Serif" font-size="10.00">/home/runner/work/Weaver</text>
<text text-anchor="start" x="357" y="-727.5" font-family="Helvetica,sans-Serif" font-size="10.00">/Weaver/include/App/Model</text>
<text text-anchor="start" x="357" y="-716.5" font-family="Helvetica,sans-Serif" font-size="10.00">/IBM/Landscape/Map/TerrainCells</text>
<text text-anchor="middle" x="440" y="-705.5" font-family="Helvetica,sans-Serif" font-size="10.00">/PatchApplicator/PatchApplicator.h</text>
</a>
</g>
</g>
<!-- Node1&#45;&gt;Node16 -->
<g id="edge33_Node000001_Node000016" class="edge">
<title>Node1&#45;&gt;Node16</title>
<g id="a_edge33_Node000001_Node000016"><a xlink:title=" ">
<path fill="none" stroke="#63b8ff" d="M271.15,-898.4C301.62,-889.19 334.43,-875.42 360,-855 394.9,-827.13 418.59,-779.62 430.65,-750.55"/>
<polygon fill="#63b8ff" stroke="#63b8ff" points="269.99,-895.1 261.35,-901.23 271.93,-901.82 269.99,-895.1"/>
</a>
</g>
</g>
<!-- Node3 -->
<g id="Node000003" class="node">
<title>Node3</title>
<g id="a_Node000003"><a xlink:href="IBM_8h.html" target="_top" xlink:title="Definition of the IBM class, representing the core individual&#45;based model of the simulation.">
<polygon fill="white" stroke="#666666" points="399.5,-41 250.5,-41 250.5,0 399.5,0 399.5,-41"/>
<text text-anchor="start" x="258.5" y="-29" font-family="Helvetica,sans-Serif" font-size="10.00">/home/runner/work/Weaver</text>
<text text-anchor="start" x="258.5" y="-18" font-family="Helvetica,sans-Serif" font-size="10.00">/Weaver/include/App/Model</text>
<text text-anchor="middle" x="325" y="-7" font-family="Helvetica,sans-Serif" font-size="10.00">/IBM/IBM.h</text>
</a>
</g>
</g>
<!-- Node2&#45;&gt;Node3 -->
<g id="edge2_Node000002_Node000003" class="edge">
<title>Node2&#45;&gt;Node3</title>
<g id="a_edge2_Node000002_Node000003"><a xlink:title=" ">
<path fill="none" stroke="#63b8ff" d="M536.52,-74.56C493.06,-63.65 441.1,-50.62 399.55,-40.2"/>
<polygon fill="#63b8ff" stroke="#63b8ff" points="535.67,-77.95 546.22,-76.99 537.37,-71.16 535.67,-77.95"/>
</a>
</g>
</g>
<!-- Node4 -->
<g id="Node000004" class="node">
<title>Node4</title>
<g id="a_Node000004"><a xlink:href="AquaticLandscape_8h.html" target="_top" xlink:title="Defines the AquaticLandscape class for aquatic ecosystem simulations.">
<polygon fill="white" stroke="#666666" points="611,-41 417,-41 417,0 611,0 611,-41"/>
<text text-anchor="start" x="425" y="-29" font-family="Helvetica,sans-Serif" font-size="10.00">/home/runner/work/Weaver</text>
<text text-anchor="start" x="425" y="-18" font-family="Helvetica,sans-Serif" font-size="10.00">/Weaver/include/App/Model</text>
<text text-anchor="middle" x="514" y="-7" font-family="Helvetica,sans-Serif" font-size="10.00">/IBM/Landscape/AquaticLandscape.h</text>
</a>
</g>
</g>
<!-- Node2&#45;&gt;Node4 -->
<g id="edge3_Node000002_Node000004" class="edge">
<title>Node2&#45;&gt;Node4</title>
<g id="a_edge3_Node000002_Node000004"><a xlink:title=" ">
<path fill="none" stroke="#63b8ff" d="M586.74,-71.09C572.4,-61.32 556.28,-50.32 542.85,-41.17"/>
<polygon fill="#63b8ff" stroke="#63b8ff" points="585.15,-74.25 595.39,-76.99 589.1,-68.47 585.15,-74.25"/>
</a>
</g>
</g>
<!-- Node5 -->
<g id="Node000005" class="node">
<title>Node5</title>
<g id="a_Node000005"><a xlink:href="ArthropodsLandscape_8h.html" target="_top" xlink:title="Defines the ArthropodsLandscape class for arthropod&#45;specific ecosystem simulations.">
<polygon fill="white" stroke="#666666" points="839,-41 629,-41 629,0 839,0 839,-41"/>
<text text-anchor="start" x="637" y="-29" font-family="Helvetica,sans-Serif" font-size="10.00">/home/runner/work/Weaver</text>
<text text-anchor="start" x="637" y="-18" font-family="Helvetica,sans-Serif" font-size="10.00">/Weaver/include/App/Model</text>
<text text-anchor="middle" x="734" y="-7" font-family="Helvetica,sans-Serif" font-size="10.00">/IBM/Landscape/ArthropodsLandscape.h</text>
</a>
</g>
</g>
<!-- Node2&#45;&gt;Node5 -->
<g id="edge4_Node000002_Node000005" class="edge">
<title>Node2&#45;&gt;Node5</title>
<g id="a_edge4_Node000002_Node000005"><a xlink:title=" ">
<path fill="none" stroke="#63b8ff" d="M661.26,-71.09C675.6,-61.32 691.72,-50.32 705.15,-41.17"/>
<polygon fill="#63b8ff" stroke="#63b8ff" points="658.9,-68.47 652.61,-76.99 662.85,-74.25 658.9,-68.47"/>
</a>
</g>
</g>
<!-- Node6 -->
<g id="Node000006" class="node">
<title>Node6</title>
<g id="a_Node000006"><a xlink:href="DinosaursLandscape_8h.html" target="_top" xlink:title="Defines the DinosaursLandscape class for dinosaur&#45;specific ecosystem simulations.">
<polygon fill="white" stroke="#666666" points="1063,-41 857,-41 857,0 1063,0 1063,-41"/>
<text text-anchor="start" x="865" y="-29" font-family="Helvetica,sans-Serif" font-size="10.00">/home/runner/work/Weaver</text>
<text text-anchor="start" x="865" y="-18" font-family="Helvetica,sans-Serif" font-size="10.00">/Weaver/include/App/Model</text>
<text text-anchor="middle" x="960" y="-7" font-family="Helvetica,sans-Serif" font-size="10.00">/IBM/Landscape/DinosaursLandscape.h</text>
</a>
</g>
</g>
<!-- Node2&#45;&gt;Node6 -->
<g id="edge5_Node000002_Node000006" class="edge">
<title>Node2&#45;&gt;Node6</title>
<g id="a_edge5_Node000002_Node000006"><a xlink:title=" ">
<path fill="none" stroke="#63b8ff" d="M712.81,-76.68C762.19,-65.66 823.4,-51.99 872.56,-41.02"/>
<polygon fill="#63b8ff" stroke="#63b8ff" points="711.77,-73.32 702.78,-78.92 713.3,-80.15 711.77,-73.32"/>
</a>
</g>
</g>
<!-- Node8 -->
<g id="Node000008" class="node">
<title>Node8</title>
<g id="a_Node000008"><a xlink:href="BranchPatchApplicator_8h.html" target="_top" xlink:title="Defines the BranchPatchApplicator class for applying patches to branch terrain cells in a spatial tre...">
<polygon fill="white" stroke="#666666" points="202,-558 28,-558 28,-495 202,-495 202,-558"/>
<text text-anchor="start" x="36" y="-546" font-family="Helvetica,sans-Serif" font-size="10.00">/home/runner/work/Weaver</text>
<text text-anchor="start" x="36" y="-535" font-family="Helvetica,sans-Serif" font-size="10.00">/Weaver/include/App/Model</text>
<text text-anchor="start" x="36" y="-524" font-family="Helvetica,sans-Serif" font-size="10.00">/IBM/Landscape/Map/SpatialTree</text>
<text text-anchor="start" x="36" y="-513" font-family="Helvetica,sans-Serif" font-size="10.00">/TerrainCells/PatchApplicator</text>
<text text-anchor="middle" x="115" y="-502" font-family="Helvetica,sans-Serif" font-size="10.00">/BranchPatchApplicator.h</text>
</a>
</g>
</g>
<!-- Node7&#45;&gt;Node8 -->
<g id="edge7_Node000007_Node000008" class="edge">
<title>Node7&#45;&gt;Node8</title>
<g id="a_edge7_Node000007_Node000008"><a xlink:title=" ">
<path fill="none" stroke="#63b8ff" d="M116.58,-682.42C116.2,-645.37 115.66,-591.69 115.31,-558.23"/>
<polygon fill="#63b8ff" stroke="#63b8ff" points="113.09,-682.91 116.69,-692.88 120.09,-682.84 113.09,-682.91"/>
</a>
</g>
</g>
<!-- Node9 -->
<g id="Node000009" class="node">
<title>Node9</title>
<g id="a_Node000009"><a xlink:href="BranchTerrainCell_8h.html" target="_top" xlink:title="Branch node implementation of a spatial tree terrain cell.">
<polygon fill="white" stroke="#666666" points="487,-371 313,-371 313,-319 487,-319 487,-371"/>
<text text-anchor="start" x="321" y="-359" font-family="Helvetica,sans-Serif" font-size="10.00">/home/runner/work/Weaver</text>
<text text-anchor="start" x="321" y="-348" font-family="Helvetica,sans-Serif" font-size="10.00">/Weaver/include/App/Model</text>
<text text-anchor="start" x="321" y="-337" font-family="Helvetica,sans-Serif" font-size="10.00">/IBM/Landscape/Map/SpatialTree</text>
<text text-anchor="middle" x="400" y="-326" font-family="Helvetica,sans-Serif" font-size="10.00">/TerrainCells/BranchTerrainCell.h</text>
</a>
</g>
</g>
<!-- Node8&#45;&gt;Node9 -->
<g id="edge8_Node000008_Node000009" class="edge">
<title>Node8&#45;&gt;Node9</title>
<g id="a_edge8_Node000008_Node000009"><a xlink:title=" ">
<path fill="none" stroke="#63b8ff" d="M168.44,-488.86C203.72,-464.98 251.18,-433.46 294,-407 313.78,-394.78 336.03,-381.85 355.02,-371.06"/>
<polygon fill="#63b8ff" stroke="#63b8ff" points="166.05,-486.25 159.74,-494.76 169.98,-492.04 166.05,-486.25"/>
</a>
</g>
</g>
<!-- Node10 -->
<g id="Node000010" class="node">
<title>Node10</title>
<g id="a_Node000010"><a xlink:href="RootTerrainCell_8h.html" target="_top" xlink:title="Defines the RootTerrainCell class, the top&#45;level node of the spatial tree in the landscape.">
<polygon fill="white" stroke="#666666" points="496,-283 322,-283 322,-231 496,-231 496,-283"/>
<text text-anchor="start" x="330" y="-271" font-family="Helvetica,sans-Serif" font-size="10.00">/home/runner/work/Weaver</text>
<text text-anchor="start" x="330" y="-260" font-family="Helvetica,sans-Serif" font-size="10.00">/Weaver/include/App/Model</text>
<text text-anchor="start" x="330" y="-249" font-family="Helvetica,sans-Serif" font-size="10.00">/IBM/Landscape/Map/SpatialTree</text>
<text text-anchor="middle" x="409" y="-238" font-family="Helvetica,sans-Serif" font-size="10.00">/TerrainCells/RootTerrainCell.h</text>
</a>
</g>
</g>
<!-- Node9&#45;&gt;Node10 -->
<g id="edge9_Node000009_Node000010" class="edge">
<title>Node9&#45;&gt;Node10</title>
<g id="a_edge9_Node000009_Node000010"><a xlink:title=" ">
<path fill="none" stroke="#63b8ff" d="M403.71,-308.56C404.6,-300.04 405.54,-291.1 406.37,-283.16"/>
<polygon fill="#63b8ff" stroke="#63b8ff" points="400.21,-308.35 402.65,-318.66 407.17,-309.08 400.21,-308.35"/>
</a>
</g>
</g>
<!-- Node11 -->
<g id="Node000011" class="node">
<title>Node11</title>
<g id="a_Node000011"><a xlink:href="SpatialTree_8h.html" target="_top" xlink:title="Defines the SpatialTree class, a spatially subdivided map implementation.">
<polygon fill="white" stroke="#666666" points="655.5,-195 472.5,-195 472.5,-154 655.5,-154 655.5,-195"/>
<text text-anchor="start" x="480.5" y="-183" font-family="Helvetica,sans-Serif" font-size="10.00">/home/runner/work/Weaver</text>
<text text-anchor="start" x="480.5" y="-172" font-family="Helvetica,sans-Serif" font-size="10.00">/Weaver/include/App/Model</text>
<text text-anchor="middle" x="564" y="-161" font-family="Helvetica,sans-Serif" font-size="10.00">/IBM/Landscape/Map/SpatialTree.h</text>
</a>
</g>
</g>
<!-- Node10&#45;&gt;Node11 -->
<g id="edge10_Node000010_Node000011" class="edge">
<title>Node10&#45;&gt;Node11</title>
<g id="a_edge10_Node000010_Node000011"><a xlink:title=" ">
<path fill="none" stroke="#63b8ff" d="M466.22,-226.28C486.22,-215.89 508.16,-204.5 526.17,-195.15"/>
<polygon fill="#63b8ff" stroke="#63b8ff" points="464.45,-223.26 457.19,-230.97 467.68,-229.47 464.45,-223.26"/>
</a>
</g>
</g>
<!-- Node11&#45;&gt;Node2 -->
<g id="edge11_Node000011_Node000002" class="edge">
<title>Node11&#45;&gt;Node2</title>
<g id="a_edge11_Node000011_Node000002"><a xlink:title=" ">
<path fill="none" stroke="#63b8ff" d="M586.04,-145.95C593.44,-136.7 601.53,-126.58 608.34,-118.07"/>
<polygon fill="#63b8ff" stroke="#63b8ff" points="583.28,-143.8 579.76,-153.79 588.74,-148.17 583.28,-143.8"/>
</a>
</g>
</g>
<!-- Node12&#45;&gt;Node7 -->
<g id="edge13_Node000012_Node000007" class="edge">
<title>Node12&#45;&gt;Node7</title>
<g id="a_edge13_Node000012_Node000007"><a xlink:title=" ">
<path fill="none" stroke="#63b8ff" d="M198.51,-785.85C185.36,-776.12 171.31,-765.71 158.63,-756.32"/>
<polygon fill="#63b8ff" stroke="#63b8ff" points="196.43,-788.67 206.55,-791.81 200.6,-783.04 196.43,-788.67"/>
</a>
</g>
</g>
<!-- Node13 -->
<g id="Node000013" class="node">
<title>Node13</title>
<g id="a_Node000013"><a xlink:href="CellObstacle_8h.html" target="_top" xlink:title="Concrete implementation of the obstacle interface for terrain cells.">
<polygon fill="white" stroke="#666666" points="355.5,-651.5 140.5,-651.5 140.5,-599.5 355.5,-599.5 355.5,-651.5"/>
<text text-anchor="start" x="148.5" y="-639.5" font-family="Helvetica,sans-Serif" font-size="10.00">/home/runner/work/Weaver</text>
<text text-anchor="start" x="148.5" y="-628.5" font-family="Helvetica,sans-Serif" font-size="10.00">/Weaver/include/App/Model</text>
<text text-anchor="start" x="148.5" y="-617.5" font-family="Helvetica,sans-Serif" font-size="10.00">/IBM/Landscape/Map/TerrainCells</text>
<text text-anchor="middle" x="248" y="-606.5" font-family="Helvetica,sans-Serif" font-size="10.00">/PatchApplicator/Obstacle/CellObstacle.h</text>
</a>
</g>
</g>
<!-- Node12&#45;&gt;Node13 -->
<g id="edge14_Node000012_Node000013" class="edge">
<title>Node12&#45;&gt;Node13</title>
<g id="a_edge14_Node000012_Node000013"><a xlink:title=" ">
<path fill="none" stroke="#63b8ff" d="M248,-781.85C248,-742.64 248,-684.53 248,-651.62"/>
<polygon fill="#63b8ff" stroke="#63b8ff" points="244.5,-781.87 248,-791.88 251.5,-781.88 244.5,-781.87"/>
</a>
</g>
</g>
<!-- Node12&#45;&gt;Node16 -->
<g id="edge18_Node000012_Node000016" class="edge">
<title>Node12&#45;&gt;Node16</title>
<g id="a_edge18_Node000012_Node000016"><a xlink:title=" ">
<path fill="none" stroke="#63b8ff" d="M317.6,-787.34C341.72,-775.15 368.25,-761.75 390.42,-750.55"/>
<polygon fill="#63b8ff" stroke="#63b8ff" points="315.83,-784.31 308.49,-791.94 318.99,-790.56 315.83,-784.31"/>
</a>
</g>
</g>
<!-- Node14 -->
<g id="Node000014" class="node">
<title>Node14</title>
<g id="a_Node000014"><a xlink:href="LeafPatchApplicator_8h.html" target="_top" xlink:title="Defines the LeafPatchApplicator class for applying patches to leaf terrain cells in a spatial tree.">
<polygon fill="white" stroke="#666666" points="394,-558 220,-558 220,-495 394,-495 394,-558"/>
<text text-anchor="start" x="228" y="-546" font-family="Helvetica,sans-Serif" font-size="10.00">/home/runner/work/Weaver</text>
<text text-anchor="start" x="228" y="-535" font-family="Helvetica,sans-Serif" font-size="10.00">/Weaver/include/App/Model</text>
<text text-anchor="start" x="228" y="-524" font-family="Helvetica,sans-Serif" font-size="10.00">/IBM/Landscape/Map/SpatialTree</text>
<text text-anchor="start" x="228" y="-513" font-family="Helvetica,sans-Serif" font-size="10.00">/TerrainCells/PatchApplicator</text>
<text text-anchor="middle" x="307" y="-502" font-family="Helvetica,sans-Serif" font-size="10.00">/LeafPatchApplicator.h</text>
</a>
</g>
</g>
<!-- Node13&#45;&gt;Node14 -->
<g id="edge15_Node000013_Node000014" class="edge">
<title>Node13&#45;&gt;Node14</title>
<g id="a_edge15_Node000013_Node000014"><a xlink:title=" ">
<path fill="none" stroke="#63b8ff" d="M268.57,-590.67C275.01,-580.09 282.07,-568.49 288.36,-558.14"/>
<polygon fill="#63b8ff" stroke="#63b8ff" points="265.55,-588.91 263.35,-599.27 271.53,-592.54 265.55,-588.91"/>
</a>
</g>
</g>
<!-- Node15 -->
<g id="Node000015" class="node">
<title>Node15</title>
<g id="a_Node000015"><a xlink:href="LeafTerrainCell_8h.html" target="_top" xlink:title="Leaf node implementation of a spatial tree terrain cell.">
<polygon fill="white" stroke="#666666" points="477,-459 303,-459 303,-407 477,-407 477,-459"/>
<text text-anchor="start" x="311" y="-447" font-family="Helvetica,sans-Serif" font-size="10.00">/home/runner/work/Weaver</text>
<text text-anchor="start" x="311" y="-436" font-family="Helvetica,sans-Serif" font-size="10.00">/Weaver/include/App/Model</text>
<text text-anchor="start" x="311" y="-425" font-family="Helvetica,sans-Serif" font-size="10.00">/IBM/Landscape/Map/SpatialTree</text>
<text text-anchor="middle" x="390" y="-414" font-family="Helvetica,sans-Serif" font-size="10.00">/TerrainCells/LeafTerrainCell.h</text>
</a>
</g>
</g>
<!-- Node14&#45;&gt;Node15 -->
<g id="edge16_Node000014_Node000015" class="edge">
<title>Node14&#45;&gt;Node15</title>
<g id="a_edge16_Node000014_Node000015"><a xlink:title=" ">
<path fill="none" stroke="#63b8ff" d="M341.69,-487.26C350.34,-477.72 359.4,-467.73 367.31,-459.02"/>
<polygon fill="#63b8ff" stroke="#63b8ff" points="339,-485.02 334.87,-494.78 344.18,-489.72 339,-485.02"/>
</a>
</g>
</g>
<!-- Node15&#45;&gt;Node9 -->
<g id="edge17_Node000015_Node000009" class="edge">
<title>Node15&#45;&gt;Node9</title>
<g id="a_edge17_Node000015_Node000009"><a xlink:title=" ">
<path fill="none" stroke="#63b8ff" d="M394.12,-396.56C395.11,-388.04 396.15,-379.1 397.07,-371.16"/>
<polygon fill="#63b8ff" stroke="#63b8ff" points="390.62,-396.32 392.95,-406.66 397.58,-397.13 390.62,-396.32"/>
</a>
</g>
</g>
<!-- Node17 -->
<g id="Node000017" class="node">
<title>Node17</title>
<g id="a_Node000017"><a xlink:href="SpatialTreePatchApplicator_8h.html" target="_top" xlink:title="Defines the SpatialTreePatchApplicator class for applying patches in a spatial tree of terrain cells.">
<polygon fill="white" stroke="#666666" points="548,-657 374,-657 374,-594 548,-594 548,-657"/>
<text text-anchor="start" x="382" y="-645" font-family="Helvetica,sans-Serif" font-size="10.00">/home/runner/work/Weaver</text>
<text text-anchor="start" x="382" y="-634" font-family="Helvetica,sans-Serif" font-size="10.00">/Weaver/include/App/Model</text>
<text text-anchor="start" x="382" y="-623" font-family="Helvetica,sans-Serif" font-size="10.00">/IBM/Landscape/Map/SpatialTree</text>
<text text-anchor="start" x="382" y="-612" font-family="Helvetica,sans-Serif" font-size="10.00">/TerrainCells/PatchApplicator</text>
<text text-anchor="middle" x="461" y="-601" font-family="Helvetica,sans-Serif" font-size="10.00">/SpatialTreePatchApplicator.h</text>
</a>
</g>
</g>
<!-- Node16&#45;&gt;Node17 -->
<g id="edge19_Node000016_Node000017" class="edge">
<title>Node16&#45;&gt;Node17</title>
<g id="a_edge19_Node000016_Node000017"><a xlink:title=" ">
<path fill="none" stroke="#63b8ff" d="M447.6,-688.4C449.81,-678.17 452.22,-667.07 454.37,-657.14"/>
<polygon fill="#63b8ff" stroke="#63b8ff" points="444.16,-687.75 445.46,-698.27 451,-689.23 444.16,-687.75"/>
</a>
</g>
</g>
<!-- Node19 -->
<g id="Node000019" class="node">
<title>Node19</title>
<g id="a_Node000019"><a xlink:href="TerrainCell_8h.html" target="_top" xlink:title="Defines the TerrainCell class representing a cell in the landscape.">
<polygon fill="white" stroke="#666666" points="743.5,-651.5 566.5,-651.5 566.5,-599.5 743.5,-599.5 743.5,-651.5"/>
<text text-anchor="start" x="574.5" y="-639.5" font-family="Helvetica,sans-Serif" font-size="10.00">/home/runner/work/Weaver</text>
<text text-anchor="start" x="574.5" y="-628.5" font-family="Helvetica,sans-Serif" font-size="10.00">/Weaver/include/App/Model</text>
<text text-anchor="start" x="574.5" y="-617.5" font-family="Helvetica,sans-Serif" font-size="10.00">/IBM/Landscape/Map/TerrainCells</text>
<text text-anchor="middle" x="655" y="-606.5" font-family="Helvetica,sans-Serif" font-size="10.00">/TerrainCell.h</text>
</a>
</g>
</g>
<!-- Node16&#45;&gt;Node19 -->
<g id="edge26_Node000016_Node000019" class="edge">
<title>Node16&#45;&gt;Node19</title>
<g id="a_edge26_Node000016_Node000019"><a xlink:title=" ">
<path fill="none" stroke="#63b8ff" d="M504.84,-694.25C535.06,-680.61 570.64,-664.56 599.59,-651.5"/>
<polygon fill="#63b8ff" stroke="#63b8ff" points="503.32,-691.09 495.65,-698.39 506.2,-697.47 503.32,-691.09"/>
</a>
</g>
</g>
<!-- Node17&#45;&gt;Node8 -->
<g id="edge20_Node000017_Node000008" class="edge">
<title>Node17&#45;&gt;Node8</title>
<g id="a_edge20_Node000017_Node000008"><a xlink:title=" ">
<path fill="none" stroke="#63b8ff" d="M363.97,-593.8C295.47,-575.42 275.72,-575.82 211,-558 208.05,-557.19 205.05,-556.34 202.03,-555.48"/>
<polygon fill="#63b8ff" stroke="#63b8ff" points="363.4,-597.27 373.97,-596.52 365.24,-590.52 363.4,-597.27"/>
</a>
</g>
</g>
<!-- Node17&#45;&gt;Node14 -->
<g id="edge21_Node000017_Node000014" class="edge">
<title>Node17&#45;&gt;Node14</title>
<g id="a_edge21_Node000017_Node000014"><a xlink:title=" ">
<path fill="none" stroke="#63b8ff" d="M403.65,-588.38C387.87,-578.44 370.91,-567.76 355.67,-558.16"/>
<polygon fill="#63b8ff" stroke="#63b8ff" points="401.95,-591.44 412.27,-593.81 405.68,-585.52 401.95,-591.44"/>
</a>
</g>
</g>
<!-- Node18 -->
<g id="Node000018" class="node">
<title>Node18</title>
<g id="a_Node000018"><a xlink:href="SpatialTreeTerrainCell_8h.html" target="_top" xlink:title="Spatial tree implementation of a terrain cell.">
<polygon fill="white" stroke="#666666" points="606,-552.5 412,-552.5 412,-500.5 606,-500.5 606,-552.5"/>
<text text-anchor="start" x="420" y="-540.5" font-family="Helvetica,sans-Serif" font-size="10.00">/home/runner/work/Weaver</text>
<text text-anchor="start" x="420" y="-529.5" font-family="Helvetica,sans-Serif" font-size="10.00">/Weaver/include/App/Model</text>
<text text-anchor="start" x="420" y="-518.5" font-family="Helvetica,sans-Serif" font-size="10.00">/IBM/Landscape/Map/SpatialTree</text>
<text text-anchor="middle" x="509" y="-507.5" font-family="Helvetica,sans-Serif" font-size="10.00">/TerrainCells/SpatialTreeTerrainCell.h</text>
</a>
</g>
</g>
<!-- Node17&#45;&gt;Node18 -->
<g id="edge22_Node000017_Node000018" class="edge">
<title>Node17&#45;&gt;Node18</title>
<g id="a_edge22_Node000017_Node000018"><a xlink:title=" ">
<path fill="none" stroke="#63b8ff" d="M480.76,-584.57C486.08,-573.82 491.68,-562.5 496.48,-552.8"/>
<polygon fill="#63b8ff" stroke="#63b8ff" points="477.49,-583.29 476.19,-593.81 483.76,-586.4 477.49,-583.29"/>
</a>
</g>
</g>
<!-- Node18&#45;&gt;Node9 -->
<g id="edge24_Node000018_Node000009" class="edge">
<title>Node18&#45;&gt;Node9</title>
<g id="a_edge24_Node000018_Node000009"><a xlink:title=" ">
<path fill="none" stroke="#63b8ff" d="M508.94,-490.21C507.36,-465.2 502,-431.81 486,-407 476.77,-392.69 462.9,-380.73 448.98,-371.3"/>
<polygon fill="#63b8ff" stroke="#63b8ff" points="505.45,-490.54 509.4,-500.37 512.44,-490.22 505.45,-490.54"/>
</a>
</g>
</g>
<!-- Node18&#45;&gt;Node11 -->
<g id="edge23_Node000018_Node000011" class="edge">
<title>Node18&#45;&gt;Node11</title>
<g id="a_edge23_Node000018_Node000011"><a xlink:title=" ">
<path fill="none" stroke="#63b8ff" d="M514.54,-490.26C526,-417.34 551.99,-251.92 560.92,-195.1"/>
<polygon fill="#63b8ff" stroke="#63b8ff" points="511.05,-489.91 512.96,-500.33 517.97,-490.99 511.05,-489.91"/>
</a>
</g>
</g>
<!-- Node18&#45;&gt;Node15 -->
<g id="edge25_Node000018_Node000015" class="edge">
<title>Node18&#45;&gt;Node15</title>
<g id="a_edge25_Node000018_Node000015"><a xlink:title=" ">
<path fill="none" stroke="#63b8ff" d="M468.44,-494.31C453.59,-482.9 436.99,-470.13 422.89,-459.29"/>
<polygon fill="#63b8ff" stroke="#63b8ff" points="466.42,-497.18 476.48,-500.5 470.69,-491.63 466.42,-497.18"/>
</a>
</g>
</g>
<!-- Node19&#45;&gt;Node2 -->
<g id="edge27_Node000019_Node000002" class="edge">
<title>Node19&#45;&gt;Node2</title>
<g id="a_edge27_Node000019_Node000002"><a xlink:title=" ">
<path fill="none" stroke="#63b8ff" d="M695.19,-592.79C734.02,-558.29 787,-499.26 787,-434 787,-434 787,-434 787,-256 787,-189.89 716.8,-142.72 668.54,-118.1"/>
<polygon fill="#63b8ff" stroke="#63b8ff" points="692.88,-590.16 687.63,-599.36 697.47,-595.44 692.88,-590.16"/>
</a>
</g>
</g>
<!-- Node19&#45;&gt;Node11 -->
<g id="edge31_Node000019_Node000011" class="edge">
<title>Node19&#45;&gt;Node11</title>
<g id="a_edge31_Node000019_Node000011"><a xlink:title=" ">
<path fill="none" stroke="#63b8ff" d="M647.9,-589.48C629.77,-500.03 582.21,-265.33 568.04,-195.42"/>
<polygon fill="#63b8ff" stroke="#63b8ff" points="644.5,-590.29 649.91,-599.4 651.36,-588.9 644.5,-590.29"/>
</a>
</g>
</g>
<!-- Node19&#45;&gt;Node18 -->
<g id="edge32_Node000019_Node000018" class="edge">
<title>Node19&#45;&gt;Node18</title>
<g id="a_edge32_Node000019_Node000018"><a xlink:title=" ">
<path fill="none" stroke="#63b8ff" d="M608.68,-593.73C588.72,-580.47 565.69,-565.16 546.79,-552.61"/>
<polygon fill="#63b8ff" stroke="#63b8ff" points="606.76,-596.65 617.02,-599.27 610.63,-590.82 606.76,-596.65"/>
</a>
</g>
</g>
<!-- Node20 -->
<g id="Node000020" class="node">
<title>Node20</title>
<g id="a_Node000020"><a xlink:href="Map_8h.html" target="_top" xlink:title="Defines the Map class for spatial organization of landscapes.">
<polygon fill="white" stroke="#666666" points="759,-277.5 609,-277.5 609,-236.5 759,-236.5 759,-277.5"/>
<text text-anchor="start" x="617" y="-265.5" font-family="Helvetica,sans-Serif" font-size="10.00">/home/runner/work/Weaver</text>
<text text-anchor="start" x="617" y="-254.5" font-family="Helvetica,sans-Serif" font-size="10.00">/Weaver/include/App/Model</text>
<text text-anchor="middle" x="684" y="-243.5" font-family="Helvetica,sans-Serif" font-size="10.00">/IBM/Landscape/Map/Map.h</text>
</a>
</g>
</g>
<!-- Node19&#45;&gt;Node20 -->
<g id="edge28_Node000019_Node000020" class="edge">
<title>Node19&#45;&gt;Node20</title>
<g id="a_edge28_Node000019_Node000020"><a xlink:title=" ">
<path fill="none" stroke="#63b8ff" d="M657.78,-589.31C663.78,-513.56 677.74,-337.1 682.43,-277.82"/>
<polygon fill="#63b8ff" stroke="#63b8ff" points="654.29,-589.06 656.99,-599.31 661.27,-589.62 654.29,-589.06"/>
</a>
</g>
</g>
<!-- Node20&#45;&gt;Node2 -->
<g id="edge29_Node000020_Node000002" class="edge">
<title>Node20&#45;&gt;Node2</title>
<g id="a_edge29_Node000020_Node000002"><a xlink:title=" ">
<path fill="none" stroke="#63b8ff" d="M682.01,-226.24C679.77,-205.32 675.03,-177.07 665,-154 659.36,-141.04 650.21,-128.23 641.98,-118.19"/>
<polygon fill="#63b8ff" stroke="#63b8ff" points="678.55,-226.81 682.97,-236.44 685.52,-226.16 678.55,-226.81"/>
</a>
</g>
</g>
<!-- Node20&#45;&gt;Node11 -->
<g id="edge30_Node000020_Node000011" class="edge">
<title>Node20&#45;&gt;Node11</title>
<g id="a_edge30_Node000020_Node000011"><a xlink:title=" ">
<path fill="none" stroke="#63b8ff" d="M646.04,-230.54C629.05,-219.14 609.32,-205.9 593.47,-195.27"/>
<polygon fill="#63b8ff" stroke="#63b8ff" points="644.39,-233.64 654.64,-236.31 648.29,-227.83 644.39,-233.64"/>
</a>
</g>
</g>
</g>
</svg>
