<?xml version="1.0" encoding="UTF-8" standalone="no"?>
<!DOCTYPE svg PUBLIC "-//W3C//DTD SVG 1.1//EN"
 "http://www.w3.org/Graphics/SVG/1.1/DTD/svg11.dtd">
<!-- Generated by graphviz version 2.43.0 (0)
 -->
<!-- Title: /home/runner/work/Weaver/Weaver/include/Misc/OntogeneticLink.h Pages: 1 -->
<svg width="938pt" height="181pt"
 viewBox="0.00 0.00 938.00 181.00" xmlns="http://www.w3.org/2000/svg" xmlns:xlink="http://www.w3.org/1999/xlink">
<g id="graph0" class="graph" transform="scale(1 1) rotate(0) translate(4 177)">
<title>/home/runner/work/Weaver/Weaver/include/Misc/OntogeneticLink.h</title>
<!-- Node1 -->
<g id="Node000001" class="node">
<title>Node1</title>
<g id="a_Node000001"><a xlink:title="Defines the OntogeneticLink class representing an ontogenetic relationship with edible,...">
<polygon fill="#999999" stroke="#666666" points="419.5,-173 237.5,-173 237.5,-132 419.5,-132 419.5,-173"/>
<text text-anchor="start" x="245.5" y="-161" font-family="Helvetica,sans-Serif" font-size="10.00">/home/runner/work/Weaver</text>
<text text-anchor="start" x="245.5" y="-150" font-family="Helvetica,sans-Serif" font-size="10.00">/Weaver/include/Misc/Ontogenetic</text>
<text text-anchor="middle" x="328.5" y="-139" font-family="Helvetica,sans-Serif" font-size="10.00">Link.h</text>
</a>
</g>
</g>
<!-- Node2 -->
<g id="Node000002" class="node">
<title>Node2</title>
<g id="a_Node000002"><a xlink:title=" ">
<polygon fill="#e0e0e0" stroke="#999999" points="224,-96 117,-96 117,-66 224,-66 224,-96"/>
<text text-anchor="start" x="125" y="-84" font-family="Helvetica,sans-Serif" font-size="10.00">boost/serialization</text>
<text text-anchor="middle" x="170.5" y="-73" font-family="Helvetica,sans-Serif" font-size="10.00">/access.hpp</text>
</a>
</g>
</g>
<!-- Node1&#45;&gt;Node2 -->
<g id="edge1_Node000001_Node000002" class="edge">
<title>Node1&#45;&gt;Node2</title>
<g id="a_edge1_Node000001_Node000002"><a xlink:title=" ">
<path fill="none" stroke="#63b8ff" d="M284.07,-131.96C261.39,-121.98 233.97,-109.92 211.76,-100.15"/>
<polygon fill="#63b8ff" stroke="#63b8ff" points="213.15,-96.94 202.58,-96.11 210.33,-103.34 213.15,-96.94"/>
</a>
</g>
</g>
<!-- Node3 -->
<g id="Node000003" class="node">
<title>Node3</title>
<g id="a_Node000003"><a xlink:title=" ">
<polygon fill="#e0e0e0" stroke="#999999" points="105,-30 0,-30 0,0 105,0 105,-30"/>
<text text-anchor="start" x="8" y="-18" font-family="Helvetica,sans-Serif" font-size="10.00">boost/archive/text</text>
<text text-anchor="middle" x="52.5" y="-7" font-family="Helvetica,sans-Serif" font-size="10.00">_oarchive.hpp</text>
</a>
</g>
</g>
<!-- Node1&#45;&gt;Node3 -->
<g id="edge2_Node000001_Node000003" class="edge">
<title>Node1&#45;&gt;Node3</title>
<g id="a_edge2_Node000001_Node000003"><a xlink:title=" ">
<path fill="none" stroke="#63b8ff" d="M306.55,-131.84C278.55,-106.78 233.58,-66.59 232.5,-66 221.9,-60.22 162.73,-44.25 115.08,-31.89"/>
<polygon fill="#63b8ff" stroke="#63b8ff" points="115.67,-28.43 105.11,-29.32 113.91,-35.21 115.67,-28.43"/>
</a>
</g>
</g>
<!-- Node4 -->
<g id="Node000004" class="node">
<title>Node4</title>
<g id="a_Node000004"><a xlink:title=" ">
<polygon fill="#e0e0e0" stroke="#999999" points="228,-30 123,-30 123,0 228,0 228,-30"/>
<text text-anchor="start" x="131" y="-18" font-family="Helvetica,sans-Serif" font-size="10.00">boost/archive/text</text>
<text text-anchor="middle" x="175.5" y="-7" font-family="Helvetica,sans-Serif" font-size="10.00">_iarchive.hpp</text>
</a>
</g>
</g>
<!-- Node1&#45;&gt;Node4 -->
<g id="edge3_Node000001_Node000004" class="edge">
<title>Node1&#45;&gt;Node4</title>
<g id="a_edge3_Node000001_Node000004"><a xlink:title=" ">
<path fill="none" stroke="#63b8ff" d="M317.75,-131.93C306.75,-113.24 288.22,-85.17 266.5,-66 252.38,-53.54 234.62,-42.92 218.55,-34.72"/>
<polygon fill="#63b8ff" stroke="#63b8ff" points="219.84,-31.45 209.33,-30.17 216.75,-37.73 219.84,-31.45"/>
</a>
</g>
</g>
<!-- Node5 -->
<g id="Node000005" class="node">
<title>Node5</title>
<g id="a_Node000005"><a xlink:title=" ">
<polygon fill="#e0e0e0" stroke="#999999" points="362.5,-30 246.5,-30 246.5,0 362.5,0 362.5,-30"/>
<text text-anchor="start" x="254.5" y="-18" font-family="Helvetica,sans-Serif" font-size="10.00">boost/archive/binary</text>
<text text-anchor="middle" x="304.5" y="-7" font-family="Helvetica,sans-Serif" font-size="10.00">_oarchive.hpp</text>
</a>
</g>
</g>
<!-- Node1&#45;&gt;Node5 -->
<g id="edge4_Node000001_Node000005" class="edge">
<title>Node1&#45;&gt;Node5</title>
<g id="a_edge4_Node000001_Node000005"><a xlink:title=" ">
<path fill="none" stroke="#63b8ff" d="M325.01,-131.8C320.71,-107.54 313.42,-66.36 308.79,-40.2"/>
<polygon fill="#63b8ff" stroke="#63b8ff" points="312.23,-39.56 307.04,-30.33 305.34,-40.79 312.23,-39.56"/>
</a>
</g>
</g>
<!-- Node6 -->
<g id="Node000006" class="node">
<title>Node6</title>
<g id="a_Node000006"><a xlink:title=" ">
<polygon fill="#e0e0e0" stroke="#999999" points="496.5,-30 380.5,-30 380.5,0 496.5,0 496.5,-30"/>
<text text-anchor="start" x="388.5" y="-18" font-family="Helvetica,sans-Serif" font-size="10.00">boost/archive/binary</text>
<text text-anchor="middle" x="438.5" y="-7" font-family="Helvetica,sans-Serif" font-size="10.00">_iarchive.hpp</text>
</a>
</g>
</g>
<!-- Node1&#45;&gt;Node6 -->
<g id="edge5_Node000001_Node000006" class="edge">
<title>Node1&#45;&gt;Node6</title>
<g id="a_edge5_Node000001_Node000006"><a xlink:title=" ">
<path fill="none" stroke="#63b8ff" d="M344.49,-131.8C364.71,-106.89 399.41,-64.15 420.53,-38.14"/>
<polygon fill="#63b8ff" stroke="#63b8ff" points="423.28,-40.3 426.87,-30.33 417.85,-35.89 423.28,-40.3"/>
</a>
</g>
</g>
<!-- Node7 -->
<g id="Node000007" class="node">
<title>Node7</title>
<g id="a_Node000007"><a xlink:title=" ">
<polygon fill="#e0e0e0" stroke="#999999" points="619,-90.5 564,-90.5 564,-71.5 619,-71.5 619,-90.5"/>
<text text-anchor="middle" x="591.5" y="-78.5" font-family="Helvetica,sans-Serif" font-size="10.00">fstream</text>
</a>
</g>
</g>
<!-- Node1&#45;&gt;Node7 -->
<g id="edge6_Node000001_Node000007" class="edge">
<title>Node1&#45;&gt;Node7</title>
<g id="a_edge6_Node000001_Node000007"><a xlink:title=" ">
<path fill="none" stroke="#63b8ff" d="M419.56,-132.11C461.33,-122.49 511.29,-109.93 555.5,-96 557.37,-95.41 559.28,-94.77 561.21,-94.11"/>
<polygon fill="#63b8ff" stroke="#63b8ff" points="562.54,-97.34 570.73,-90.61 560.13,-90.77 562.54,-97.34"/>
</a>
</g>
</g>
<!-- Node8 -->
<g id="Node000008" class="node">
<title>Node8</title>
<g id="a_Node000008"><a xlink:href="PreciseDouble_8h.html" target="_top" xlink:title="Defines the PreciseDouble class for safe and precise double&#45;precision arithmetic.">
<polygon fill="white" stroke="#666666" points="546,-96 423,-96 423,-66 546,-66 546,-96"/>
<text text-anchor="start" x="431" y="-84" font-family="Helvetica,sans-Serif" font-size="10.00">App/Model/IBM/Maths</text>
<text text-anchor="middle" x="484.5" y="-73" font-family="Helvetica,sans-Serif" font-size="10.00">/PreciseDouble.h</text>
</a>
</g>
</g>
<!-- Node1&#45;&gt;Node8 -->
<g id="edge7_Node000001_Node000008" class="edge">
<title>Node1&#45;&gt;Node8</title>
<g id="a_edge7_Node000001_Node000008"><a xlink:title=" ">
<path fill="none" stroke="#63b8ff" d="M372.37,-131.96C394.66,-122.02 421.59,-110.03 443.47,-100.28"/>
<polygon fill="#63b8ff" stroke="#63b8ff" points="445.11,-103.38 452.82,-96.11 442.26,-96.99 445.11,-103.38"/>
</a>
</g>
</g>
<!-- Node8&#45;&gt;Node3 -->
<g id="edge9_Node000008_Node000003" class="edge">
<title>Node8&#45;&gt;Node3</title>
<g id="a_edge9_Node000008_Node000003"><a xlink:title=" ">
<path fill="none" stroke="#63b8ff" d="M422.85,-73.44C351.1,-65.42 228.89,-50.54 114.95,-30.17"/>
<polygon fill="#63b8ff" stroke="#63b8ff" points="115.47,-26.71 105.01,-28.37 114.23,-33.59 115.47,-26.71"/>
</a>
</g>
</g>
<!-- Node8&#45;&gt;Node4 -->
<g id="edge8_Node000008_Node000004" class="edge">
<title>Node8&#45;&gt;Node4</title>
<g id="a_edge8_Node000008_Node000004"><a xlink:title=" ">
<path fill="none" stroke="#63b8ff" d="M422.75,-67.9C375.09,-58.47 307.22,-44.84 238.41,-30.17"/>
<polygon fill="#63b8ff" stroke="#63b8ff" points="238.76,-26.66 228.25,-27.99 237.29,-33.51 238.76,-26.66"/>
</a>
</g>
</g>
<!-- Node8&#45;&gt;Node5 -->
<g id="edge11_Node000008_Node000005" class="edge">
<title>Node8&#45;&gt;Node5</title>
<g id="a_edge11_Node000008_Node000005"><a xlink:title=" ">
<path fill="none" stroke="#63b8ff" d="M445,-65.95C418.03,-56.37 382.13,-43.6 353.37,-33.37"/>
<polygon fill="#63b8ff" stroke="#63b8ff" points="354.5,-30.06 343.91,-30.01 352.16,-36.66 354.5,-30.06"/>
</a>
</g>
</g>
<!-- Node8&#45;&gt;Node6 -->
<g id="edge10_Node000008_Node000006" class="edge">
<title>Node8&#45;&gt;Node6</title>
<g id="a_edge10_Node000008_Node000006"><a xlink:title=" ">
<path fill="none" stroke="#63b8ff" d="M474.29,-65.8C468.51,-57.76 461.16,-47.53 454.62,-38.43"/>
<polygon fill="#63b8ff" stroke="#63b8ff" points="457.36,-36.24 448.68,-30.16 451.67,-40.33 457.36,-36.24"/>
</a>
</g>
</g>
<!-- Node9 -->
<g id="Node000009" class="node">
<title>Node9</title>
<g id="a_Node000009"><a xlink:title=" ">
<polygon fill="#e0e0e0" stroke="#999999" points="558.5,-24.5 514.5,-24.5 514.5,-5.5 558.5,-5.5 558.5,-24.5"/>
<text text-anchor="middle" x="536.5" y="-12.5" font-family="Helvetica,sans-Serif" font-size="10.00">string</text>
</a>
</g>
</g>
<!-- Node8&#45;&gt;Node9 -->
<g id="edge12_Node000008_Node000009" class="edge">
<title>Node8&#45;&gt;Node9</title>
<g id="a_edge12_Node000008_Node000009"><a xlink:title=" ">
<path fill="none" stroke="#63b8ff" d="M496.04,-65.8C503.99,-56.01 514.58,-42.98 522.93,-32.7"/>
<polygon fill="#63b8ff" stroke="#63b8ff" points="525.72,-34.81 529.31,-24.84 520.29,-30.4 525.72,-34.81"/>
</a>
</g>
</g>
<!-- Node10 -->
<g id="Node000010" class="node">
<title>Node10</title>
<g id="a_Node000010"><a xlink:title=" ">
<polygon fill="#e0e0e0" stroke="#999999" points="624,-24.5 577,-24.5 577,-5.5 624,-5.5 624,-24.5"/>
<text text-anchor="middle" x="600.5" y="-12.5" font-family="Helvetica,sans-Serif" font-size="10.00">cmath</text>
</a>
</g>
</g>
<!-- Node8&#45;&gt;Node10 -->
<g id="edge13_Node000008_Node000010" class="edge">
<title>Node8&#45;&gt;Node10</title>
<g id="a_edge13_Node000008_Node000010"><a xlink:title=" ">
<path fill="none" stroke="#63b8ff" d="M509.96,-65.95C529.67,-55.08 556.81,-40.11 576.22,-29.4"/>
<polygon fill="#63b8ff" stroke="#63b8ff" points="578,-32.41 585.06,-24.52 574.62,-26.28 578,-32.41"/>
</a>
</g>
</g>
<!-- Node11 -->
<g id="Node000011" class="node">
<title>Node11</title>
<g id="a_Node000011"><a xlink:title=" ">
<polygon fill="#e0e0e0" stroke="#999999" points="706.5,-24.5 642.5,-24.5 642.5,-5.5 706.5,-5.5 706.5,-24.5"/>
<text text-anchor="middle" x="674.5" y="-12.5" font-family="Helvetica,sans-Serif" font-size="10.00">algorithm</text>
</a>
</g>
</g>
<!-- Node8&#45;&gt;Node11 -->
<g id="edge14_Node000008_Node000011" class="edge">
<title>Node8&#45;&gt;Node11</title>
<g id="a_edge14_Node000008_Node000011"><a xlink:title=" ">
<path fill="none" stroke="#63b8ff" d="M526.59,-65.94C556.44,-55.96 597.45,-42.2 633.5,-30 635.58,-29.29 637.73,-28.57 639.89,-27.83"/>
<polygon fill="#63b8ff" stroke="#63b8ff" points="641.02,-31.15 649.36,-24.61 638.76,-24.52 641.02,-31.15"/>
</a>
</g>
</g>
<!-- Node12 -->
<g id="Node000012" class="node">
<title>Node12</title>
<g id="a_Node000012"><a xlink:title=" ">
<polygon fill="#e0e0e0" stroke="#999999" points="784.5,-24.5 724.5,-24.5 724.5,-5.5 784.5,-5.5 784.5,-24.5"/>
<text text-anchor="middle" x="754.5" y="-12.5" font-family="Helvetica,sans-Serif" font-size="10.00">iostream</text>
</a>
</g>
</g>
<!-- Node8&#45;&gt;Node12 -->
<g id="edge15_Node000008_Node000012" class="edge">
<title>Node8&#45;&gt;Node12</title>
<g id="a_edge15_Node000008_Node000012"><a xlink:title=" ">
<path fill="none" stroke="#63b8ff" d="M546.17,-67.61C603.39,-55.93 684.29,-38.94 715.5,-30 717.92,-29.31 720.41,-28.54 722.9,-27.74"/>
<polygon fill="#63b8ff" stroke="#63b8ff" points="724.05,-31.04 732.39,-24.51 721.8,-24.42 724.05,-31.04"/>
</a>
</g>
</g>
<!-- Node13 -->
<g id="Node000013" class="node">
<title>Node13</title>
<g id="a_Node000013"><a xlink:title=" ">
<polygon fill="#e0e0e0" stroke="#999999" points="846.5,-24.5 802.5,-24.5 802.5,-5.5 846.5,-5.5 846.5,-24.5"/>
<text text-anchor="middle" x="824.5" y="-12.5" font-family="Helvetica,sans-Serif" font-size="10.00">limits</text>
</a>
</g>
</g>
<!-- Node8&#45;&gt;Node13 -->
<g id="edge16_Node000008_Node000013" class="edge">
<title>Node8&#45;&gt;Node13</title>
<g id="a_edge16_Node000008_Node000013"><a xlink:title=" ">
<path fill="none" stroke="#63b8ff" d="M546.04,-67.69C549.24,-67.11 552.41,-66.54 555.5,-66 660.9,-47.65 690.9,-60.3 793.5,-30 795.14,-29.52 796.8,-28.96 798.46,-28.37"/>
<polygon fill="#63b8ff" stroke="#63b8ff" points="799.83,-31.58 807.77,-24.56 797.18,-25.1 799.83,-31.58"/>
</a>
</g>
</g>
<!-- Node14 -->
<g id="Node000014" class="node">
<title>Node14</title>
<g id="a_Node000014"><a xlink:title=" ">
<polygon fill="#e0e0e0" stroke="#999999" points="930,-24.5 865,-24.5 865,-5.5 930,-5.5 930,-24.5"/>
<text text-anchor="middle" x="897.5" y="-12.5" font-family="Helvetica,sans-Serif" font-size="10.00">functional</text>
</a>
</g>
</g>
<!-- Node8&#45;&gt;Node14 -->
<g id="edge17_Node000008_Node000014" class="edge">
<title>Node8&#45;&gt;Node14</title>
<g id="a_edge17_Node000008_Node000014"><a xlink:title=" ">
<path fill="none" stroke="#63b8ff" d="M546.02,-67.57C549.22,-67.02 552.4,-66.49 555.5,-66 688.14,-45 724.46,-59.38 855.5,-30 858.55,-29.32 861.69,-28.5 864.82,-27.6"/>
<polygon fill="#63b8ff" stroke="#63b8ff" points="866.12,-30.86 874.63,-24.55 864.04,-24.18 866.12,-30.86"/>
</a>
</g>
</g>
</g>
</svg>
