<?xml version="1.0" encoding="UTF-8" standalone="no"?>
<!DOCTYPE svg PUBLIC "-//W3C//DTD SVG 1.1//EN"
 "http://www.w3.org/Graphics/SVG/1.1/DTD/svg11.dtd">
<!-- Generated by graphviz version 2.43.0 (0)
 -->
<!-- Title: /home/runner/work/Weaver/Weaver/include/App/View/GUI/Widgets/OptionSelector.h Pages: 1 -->
<svg width="859pt" height="104pt"
 viewBox="0.00 0.00 859.00 104.00" xmlns="http://www.w3.org/2000/svg" xmlns:xlink="http://www.w3.org/1999/xlink">
<g id="graph0" class="graph" transform="scale(1 1) rotate(0) translate(4 100)">
<title>/home/runner/work/Weaver/Weaver/include/App/View/GUI/Widgets/OptionSelector.h</title>
<!-- Node1 -->
<g id="Node000001" class="node">
<title>Node1</title>
<g id="a_Node000001"><a xlink:title="Defines the OptionSelector widget for selecting options from a dropdown.">
<polygon fill="#999999" stroke="#666666" points="597,-96 433,-96 433,-55 597,-55 597,-96"/>
<text text-anchor="start" x="441" y="-84" font-family="Helvetica,sans-Serif" font-size="10.00">/home/runner/work/Weaver</text>
<text text-anchor="start" x="441" y="-73" font-family="Helvetica,sans-Serif" font-size="10.00">/Weaver/include/App/View</text>
<text text-anchor="middle" x="515" y="-62" font-family="Helvetica,sans-Serif" font-size="10.00">/GUI/Widgets/OptionSelector.h</text>
</a>
</g>
</g>
<!-- Node2 -->
<g id="Node000002" class="node">
<title>Node2</title>
<g id="a_Node000002"><a xlink:title=" ">
<polygon fill="#e0e0e0" stroke="#999999" points="80,-19 0,-19 0,0 80,0 80,-19"/>
<text text-anchor="middle" x="40" y="-7" font-family="Helvetica,sans-Serif" font-size="10.00">nana/gui.hpp</text>
</a>
</g>
</g>
<!-- Node1&#45;&gt;Node2 -->
<g id="edge1_Node000001_Node000002" class="edge">
<title>Node1&#45;&gt;Node2</title>
<g id="a_edge1_Node000001_Node000002"><a xlink:title=" ">
<path fill="none" stroke="#63b8ff" d="M432.79,-64.83C349.15,-54.76 215.55,-38.02 90.25,-19.13"/>
<polygon fill="#63b8ff" stroke="#63b8ff" points="90.5,-15.63 80.09,-17.6 89.45,-22.55 90.5,-15.63"/>
</a>
</g>
</g>
<!-- Node3 -->
<g id="Node000003" class="node">
<title>Node3</title>
<g id="a_Node000003"><a xlink:title=" ">
<polygon fill="#e0e0e0" stroke="#999999" points="246,-19 98,-19 98,0 246,0 246,-19"/>
<text text-anchor="middle" x="172" y="-7" font-family="Helvetica,sans-Serif" font-size="10.00">nana/gui/widgets/label.hpp</text>
</a>
</g>
</g>
<!-- Node1&#45;&gt;Node3 -->
<g id="edge2_Node000001_Node000003" class="edge">
<title>Node1&#45;&gt;Node3</title>
<g id="a_edge2_Node000001_Node000003"><a xlink:title=" ">
<path fill="none" stroke="#63b8ff" d="M432.84,-59.17C369.41,-47.33 283.34,-31.28 227.74,-20.9"/>
<polygon fill="#63b8ff" stroke="#63b8ff" points="228.19,-17.42 217.72,-19.03 226.91,-24.31 228.19,-17.42"/>
</a>
</g>
</g>
<!-- Node4 -->
<g id="Node000004" class="node">
<title>Node4</title>
<g id="a_Node000004"><a xlink:title=" ">
<polygon fill="#e0e0e0" stroke="#999999" points="415.5,-19 264.5,-19 264.5,0 415.5,0 415.5,-19"/>
<text text-anchor="middle" x="340" y="-7" font-family="Helvetica,sans-Serif" font-size="10.00">nana/gui/widgets/panel.hpp</text>
</a>
</g>
</g>
<!-- Node1&#45;&gt;Node4 -->
<g id="edge3_Node000001_Node000004" class="edge">
<title>Node1&#45;&gt;Node4</title>
<g id="a_edge3_Node000001_Node000004"><a xlink:title=" ">
<path fill="none" stroke="#63b8ff" d="M461.54,-54.95C432.74,-44.42 398.11,-31.75 373.2,-22.64"/>
<polygon fill="#63b8ff" stroke="#63b8ff" points="374.09,-19.24 363.49,-19.09 371.68,-25.81 374.09,-19.24"/>
</a>
</g>
</g>
<!-- Node5 -->
<g id="Node000005" class="node">
<title>Node5</title>
<g id="a_Node000005"><a xlink:title=" ">
<polygon fill="#e0e0e0" stroke="#999999" points="596.5,-19 433.5,-19 433.5,0 596.5,0 596.5,-19"/>
<text text-anchor="middle" x="515" y="-7" font-family="Helvetica,sans-Serif" font-size="10.00">nana/gui/widgets/combox.hpp</text>
</a>
</g>
</g>
<!-- Node1&#45;&gt;Node5 -->
<g id="edge4_Node000001_Node000005" class="edge">
<title>Node1&#45;&gt;Node5</title>
<g id="a_edge4_Node000001_Node000005"><a xlink:title=" ">
<path fill="none" stroke="#63b8ff" d="M515,-54.95C515,-46.85 515,-37.5 515,-29.47"/>
<polygon fill="#63b8ff" stroke="#63b8ff" points="518.5,-29.26 515,-19.26 511.5,-29.26 518.5,-29.26"/>
</a>
</g>
</g>
<!-- Node6 -->
<g id="Node000006" class="node">
<title>Node6</title>
<g id="a_Node000006"><a xlink:title=" ">
<polygon fill="#e0e0e0" stroke="#999999" points="723.5,-19 614.5,-19 614.5,0 723.5,0 723.5,-19"/>
<text text-anchor="middle" x="669" y="-7" font-family="Helvetica,sans-Serif" font-size="10.00">nana/gui/place.hpp</text>
</a>
</g>
</g>
<!-- Node1&#45;&gt;Node6 -->
<g id="edge5_Node000001_Node000006" class="edge">
<title>Node1&#45;&gt;Node6</title>
<g id="a_edge5_Node000001_Node000006"><a xlink:title=" ">
<path fill="none" stroke="#63b8ff" d="M562.04,-54.95C587.05,-44.56 617.05,-32.09 638.9,-23.01"/>
<polygon fill="#63b8ff" stroke="#63b8ff" points="640.43,-26.16 648.33,-19.09 637.75,-19.7 640.43,-26.16"/>
</a>
</g>
</g>
<!-- Node7 -->
<g id="Node000007" class="node">
<title>Node7</title>
<g id="a_Node000007"><a xlink:title=" ">
<polygon fill="#e0e0e0" stroke="#999999" points="788.5,-19 741.5,-19 741.5,0 788.5,0 788.5,-19"/>
<text text-anchor="middle" x="765" y="-7" font-family="Helvetica,sans-Serif" font-size="10.00">vector</text>
</a>
</g>
</g>
<!-- Node1&#45;&gt;Node7 -->
<g id="edge6_Node000001_Node000007" class="edge">
<title>Node1&#45;&gt;Node7</title>
<g id="a_edge6_Node000001_Node000007"><a xlink:title=" ">
<path fill="none" stroke="#63b8ff" d="M592.48,-54.98C631.63,-45.07 680.13,-32.72 731.31,-19.42"/>
<polygon fill="#63b8ff" stroke="#63b8ff" points="732.44,-22.74 741.24,-16.84 730.68,-15.97 732.44,-22.74"/>
</a>
</g>
</g>
<!-- Node8 -->
<g id="Node000008" class="node">
<title>Node8</title>
<g id="a_Node000008"><a xlink:title=" ">
<polygon fill="#e0e0e0" stroke="#999999" points="851,-19 807,-19 807,0 851,0 851,-19"/>
<text text-anchor="middle" x="829" y="-7" font-family="Helvetica,sans-Serif" font-size="10.00">string</text>
</a>
</g>
</g>
<!-- Node1&#45;&gt;Node8 -->
<g id="edge7_Node000001_Node000008" class="edge">
<title>Node1&#45;&gt;Node8</title>
<g id="a_edge7_Node000001_Node000008"><a xlink:title=" ">
<path fill="none" stroke="#63b8ff" d="M597.08,-60.06C651.32,-50.13 724.16,-36.07 796.9,-19.13"/>
<polygon fill="#63b8ff" stroke="#63b8ff" points="797.76,-22.52 806.7,-16.83 796.16,-15.7 797.76,-22.52"/>
</a>
</g>
</g>
</g>
</svg>
