<?xml version="1.0" encoding="UTF-8" standalone="no"?>
<!DOCTYPE svg PUBLIC "-//W3C//DTD SVG 1.1//EN"
 "http://www.w3.org/Graphics/SVG/1.1/DTD/svg11.dtd">
<!-- Generated by graphviz version 2.43.0 (0)
 -->
<!-- Title: /home/runner/work/Weaver/Weaver/include/App/Model/IBM/Landscape/LivingBeings/Animals/Species/Genetics/Traits/TemperatureSection/PawarElement.h Pages: 1 -->
<!--zoomable 280 -->

<svg id="main" version="1.1" xmlns="http://www.w3.org/2000/svg" xmlns:xlink="http://www.w3.org/1999/xlink" xml:space="preserve" onload="init(evt)">
<style type="text/css"><![CDATA[
.node, .edge {opacity: 0.7;}
.node.selected, .edge.selected {opacity: 1;}
.edge:hover path { stroke: red; }
.edge:hover polygon { stroke: red; fill: red; }
]]></style>

<defs>
  <circle id="rim" cx="0" cy="0" r="7"/>
  <circle id="rim2" cx="0" cy="0" r="3.5"/>
  <g id="zoomPlus">
    <use xlink:href="#rim" fill="#404040"><set attributeName="fill" to="#808080" begin="zoomplus.mouseover" end="zoomplus.mouseout"/></use>
    <path d="M-4,0h8M0,-4v8" fill="none" stroke="white" stroke-width="1.5" pointer-events="none"/>
  </g>
  <g id="zoomMin">
    <use xlink:href="#rim" fill="#404040"><set attributeName="fill" to="#808080" begin="zoomminus.mouseover" end="zoomminus.mouseout"/></use>
    <path d="M-4,0h8" fill="none" stroke="white" stroke-width="1.5" pointer-events="none"/>
  </g>
  <g id="arrowUp" transform="translate(30 24)">
    <use xlink:href="#rim"/>
    <path pointer-events="none" fill="none" stroke="white" stroke-width="1.5" d="M0,-3.0v7 M-2.5,-0.5L0,-3.0L2.5,-0.5"/>
  </g>
  <g id="arrowRight" transform="rotate(90) translate(36 -43)">
    <use xlink:href="#rim"/>
    <path pointer-events="none" fill="none" stroke="white" stroke-width="1.5" d="M0,-3.0v7 M-2.5,-0.5L0,-3.0L2.5,-0.5"/>
  </g>
  <g id="arrowDown" transform="rotate(180) translate(-30 -48)">
    <use xlink:href="#rim"/>
    <path pointer-events="none" fill="none" stroke="white" stroke-width="1.5" d="M0,-3.0v7 M-2.5,-0.5L0,-3.0L2.5,-0.5"/>
  </g>
  <g id="arrowLeft" transform="rotate(270) translate(-36 17)">
    <use xlink:href="#rim"/>
    <path pointer-events="none" fill="none" stroke="white" stroke-width="1.5" d="M0,-3.0v7 M-2.5,-0.5L0,-3.0L2.5,-0.5"/>
  </g>
  <g id="resetDef">
    <use xlink:href="#rim2" fill="#404040"><set attributeName="fill" to="#808080" begin="reset.mouseover" end="reset.mouseout"/></use>
  </g>
</defs>
<script type="application/ecmascript">
var viewWidth = 1588;
var viewHeight = 280;
var sectionId = 'dynsection-0';
</script>
<script type="application/ecmascript" xlink:href="svg.min.js"/>
<svg id="graph" class="graph">
<g id="viewport">
<title>/home/runner/work/Weaver/Weaver/include/App/Model/IBM/Landscape/LivingBeings/Animals/Species/Genetics/Traits/TemperatureSection/PawarElement.h</title>
<!-- Node1 -->
<g id="Node000001" class="node">
<title>Node1</title>
<g id="a_Node000001"><a xlink:title="Defines the PawarElement enum, representing elements of the Pawar metabolic model.">
<polygon fill="#999999" stroke="#666666" points="507,-272 308,-272 308,-209 507,-209 507,-272"/>
<text text-anchor="start" x="316" y="-260" font-family="Helvetica,sans-Serif" font-size="10.00">/home/runner/work/Weaver</text>
<text text-anchor="start" x="316" y="-249" font-family="Helvetica,sans-Serif" font-size="10.00">/Weaver/include/App/Model</text>
<text text-anchor="start" x="316" y="-238" font-family="Helvetica,sans-Serif" font-size="10.00">/IBM/Landscape/LivingBeings</text>
<text text-anchor="start" x="316" y="-227" font-family="Helvetica,sans-Serif" font-size="10.00">/Animals/Species/Genetics/Traits</text>
<text text-anchor="middle" x="407.5" y="-216" font-family="Helvetica,sans-Serif" font-size="10.00">/TemperatureSection/PawarElement.h</text>
</a>
</g>
</g>
<!-- Node2 -->
<g id="Node000002" class="node">
<title>Node2</title>
<g id="a_Node000002"><a xlink:href="PawarIndividualTraitTemperatureSection_8h.html" target="_top" xlink:title="Defines the PawarIndividualTraitTemperatureSection class for temperature&#45;dependent trait modification...">
<polygon fill="white" stroke="#666666" points="215,-63 0,-63 0,0 215,0 215,-63"/>
<text text-anchor="start" x="8" y="-51" font-family="Helvetica,sans-Serif" font-size="10.00">/home/runner/work/Weaver</text>
<text text-anchor="start" x="8" y="-40" font-family="Helvetica,sans-Serif" font-size="10.00">/Weaver/include/App/Model</text>
<text text-anchor="start" x="8" y="-29" font-family="Helvetica,sans-Serif" font-size="10.00">/IBM/Landscape/LivingBeings</text>
<text text-anchor="start" x="8" y="-18" font-family="Helvetica,sans-Serif" font-size="10.00">/Animals/Genetics/Traits/PawarIndividual</text>
<text text-anchor="middle" x="107.5" y="-7" font-family="Helvetica,sans-Serif" font-size="10.00">TraitTemperatureSection.h</text>
</a>
</g>
</g>
<!-- Node1&#45;&gt;Node2 -->
<g id="edge1_Node000001_Node000002" class="edge">
<title>Node1&#45;&gt;Node2</title>
<g id="a_edge1_Node000001_Node000002"><a xlink:title=" ">
<path fill="none" stroke="#63b8ff" d="M355,-203.27C297.44,-163.56 206.09,-100.53 151.95,-63.17"/>
<polygon fill="#63b8ff" stroke="#63b8ff" points="353.02,-206.16 363.23,-208.96 356.99,-200.4 353.02,-206.16"/>
</a>
</g>
</g>
<!-- Node3 -->
<g id="Node000003" class="node">
<title>Node3</title>
<g id="a_Node000003"><a xlink:href="PawarTraitTemperatureSection_8h.html" target="_top" xlink:title="Defines the PawarTraitTemperatureSection class, handling Pawar metabolic model traits with temperatur...">
<polygon fill="white" stroke="#666666" points="822.5,-173 590.5,-173 590.5,-99 822.5,-99 822.5,-173"/>
<text text-anchor="start" x="598.5" y="-161" font-family="Helvetica,sans-Serif" font-size="10.00">/home/runner/work/Weaver</text>
<text text-anchor="start" x="598.5" y="-150" font-family="Helvetica,sans-Serif" font-size="10.00">/Weaver/include/App/Model</text>
<text text-anchor="start" x="598.5" y="-139" font-family="Helvetica,sans-Serif" font-size="10.00">/IBM/Landscape/LivingBeings</text>
<text text-anchor="start" x="598.5" y="-128" font-family="Helvetica,sans-Serif" font-size="10.00">/Animals/Species/Genetics/Traits</text>
<text text-anchor="start" x="598.5" y="-117" font-family="Helvetica,sans-Serif" font-size="10.00">/TemperatureSection/PawarTraitTemperature</text>
<text text-anchor="middle" x="706.5" y="-106" font-family="Helvetica,sans-Serif" font-size="10.00">Section.h</text>
</a>
</g>
</g>
<!-- Node1&#45;&gt;Node3 -->
<g id="edge2_Node000001_Node000003" class="edge">
<title>Node1&#45;&gt;Node3</title>
<g id="a_edge2_Node000001_Node000003"><a xlink:title=" ">
<path fill="none" stroke="#63b8ff" d="M506.56,-205.54C536.97,-195.12 570.53,-183.61 601.34,-173.05"/>
<polygon fill="#63b8ff" stroke="#63b8ff" points="505.13,-202.33 496.8,-208.89 507.4,-208.95 505.13,-202.33"/>
</a>
</g>
</g>
<!-- Node3&#45;&gt;Node2 -->
<g id="edge3_Node000003_Node000002" class="edge">
<title>Node3&#45;&gt;Node2</title>
<g id="a_edge3_Node000003_Node000002"><a xlink:title=" ">
<path fill="none" stroke="#63b8ff" d="M580.3,-120.02C482.45,-107.48 343.73,-87.69 223.5,-63 220.75,-62.43 217.96,-61.84 215.15,-61.23"/>
<polygon fill="#63b8ff" stroke="#63b8ff" points="579.87,-123.49 590.23,-121.29 580.75,-116.55 579.87,-123.49"/>
</a>
</g>
</g>
<!-- Node4 -->
<g id="Node000004" class="node">
<title>Node4</title>
<g id="a_Node000004"><a xlink:href="BaseTrait_8h.html" target="_top" xlink:title="Defines the BaseTrait class, representing fundamental traits in the simulation.">
<polygon fill="white" stroke="#666666" points="408,-63 233,-63 233,0 408,0 408,-63"/>
<text text-anchor="start" x="241" y="-51" font-family="Helvetica,sans-Serif" font-size="10.00">/home/runner/work/Weaver</text>
<text text-anchor="start" x="241" y="-40" font-family="Helvetica,sans-Serif" font-size="10.00">/Weaver/include/App/Model</text>
<text text-anchor="start" x="241" y="-29" font-family="Helvetica,sans-Serif" font-size="10.00">/IBM/Landscape/LivingBeings</text>
<text text-anchor="start" x="241" y="-18" font-family="Helvetica,sans-Serif" font-size="10.00">/Animals/Species/Genetics/Traits</text>
<text text-anchor="middle" x="320.5" y="-7" font-family="Helvetica,sans-Serif" font-size="10.00">/BaseTrait.h</text>
</a>
</g>
</g>
<!-- Node3&#45;&gt;Node4 -->
<g id="edge4_Node000003_Node000004" class="edge">
<title>Node3&#45;&gt;Node4</title>
<g id="a_edge4_Node000003_Node000004"><a xlink:title=" ">
<path fill="none" stroke="#63b8ff" d="M580.56,-105.6C529.45,-93.18 469.96,-78.11 416.5,-63 413.72,-62.22 410.91,-61.4 408.06,-60.58"/>
<polygon fill="#63b8ff" stroke="#63b8ff" points="579.79,-109.01 590.33,-107.97 581.44,-102.21 579.79,-109.01"/>
</a>
</g>
</g>
<!-- Node5 -->
<g id="Node000005" class="node">
<title>Node5</title>
<g id="a_Node000005"><a xlink:href="CellValueTrait_8h.html" target="_top" xlink:title="Defines the CellValueTrait class, representing traits related to cell values in the simulation.">
<polygon fill="white" stroke="#666666" points="601,-63 426,-63 426,0 601,0 601,-63"/>
<text text-anchor="start" x="434" y="-51" font-family="Helvetica,sans-Serif" font-size="10.00">/home/runner/work/Weaver</text>
<text text-anchor="start" x="434" y="-40" font-family="Helvetica,sans-Serif" font-size="10.00">/Weaver/include/App/Model</text>
<text text-anchor="start" x="434" y="-29" font-family="Helvetica,sans-Serif" font-size="10.00">/IBM/Landscape/LivingBeings</text>
<text text-anchor="start" x="434" y="-18" font-family="Helvetica,sans-Serif" font-size="10.00">/Animals/Species/Genetics/Traits</text>
<text text-anchor="middle" x="513.5" y="-7" font-family="Helvetica,sans-Serif" font-size="10.00">/CellValueTrait.h</text>
</a>
</g>
</g>
<!-- Node3&#45;&gt;Node5 -->
<g id="edge5_Node000003_Node000005" class="edge">
<title>Node3&#45;&gt;Node5</title>
<g id="a_edge5_Node000003_Node000005"><a xlink:title=" ">
<path fill="none" stroke="#63b8ff" d="M629.57,-94.15C610.05,-83.78 589.41,-72.81 571.03,-63.05"/>
<polygon fill="#63b8ff" stroke="#63b8ff" points="627.98,-97.26 638.46,-98.86 631.27,-91.08 627.98,-97.26"/>
</a>
</g>
</g>
<!-- Node6 -->
<g id="Node000006" class="node">
<title>Node6</title>
<g id="a_Node000006"><a xlink:href="EdibilityValueWeightTrait_8h.html" target="_top" xlink:title="Defines the EdibilityValueWeightTrait class, representing traits that affect edibility decisions in a...">
<polygon fill="white" stroke="#666666" points="794,-63 619,-63 619,0 794,0 794,-63"/>
<text text-anchor="start" x="627" y="-51" font-family="Helvetica,sans-Serif" font-size="10.00">/home/runner/work/Weaver</text>
<text text-anchor="start" x="627" y="-40" font-family="Helvetica,sans-Serif" font-size="10.00">/Weaver/include/App/Model</text>
<text text-anchor="start" x="627" y="-29" font-family="Helvetica,sans-Serif" font-size="10.00">/IBM/Landscape/LivingBeings</text>
<text text-anchor="start" x="627" y="-18" font-family="Helvetica,sans-Serif" font-size="10.00">/Animals/Species/Genetics/Traits</text>
<text text-anchor="middle" x="706.5" y="-7" font-family="Helvetica,sans-Serif" font-size="10.00">/EdibilityValueWeightTrait.h</text>
</a>
</g>
</g>
<!-- Node3&#45;&gt;Node6 -->
<g id="edge6_Node000003_Node000006" class="edge">
<title>Node3&#45;&gt;Node6</title>
<g id="a_edge6_Node000003_Node000006"><a xlink:title=" ">
<path fill="none" stroke="#63b8ff" d="M706.5,-88.83C706.5,-80.15 706.5,-71.28 706.5,-63.22"/>
<polygon fill="#63b8ff" stroke="#63b8ff" points="703,-88.86 706.5,-98.86 710,-88.86 703,-88.86"/>
</a>
</g>
</g>
<!-- Node7 -->
<g id="Node000007" class="node">
<title>Node7</title>
<g id="a_Node000007"><a xlink:href="EscapeProbabilityWeightTrait_8h.html" target="_top" xlink:title="Defines the EscapeProbabilityWeightTrait class, representing traits that affect escape probability de...">
<polygon fill="white" stroke="#666666" points="987,-63 812,-63 812,0 987,0 987,-63"/>
<text text-anchor="start" x="820" y="-51" font-family="Helvetica,sans-Serif" font-size="10.00">/home/runner/work/Weaver</text>
<text text-anchor="start" x="820" y="-40" font-family="Helvetica,sans-Serif" font-size="10.00">/Weaver/include/App/Model</text>
<text text-anchor="start" x="820" y="-29" font-family="Helvetica,sans-Serif" font-size="10.00">/IBM/Landscape/LivingBeings</text>
<text text-anchor="start" x="820" y="-18" font-family="Helvetica,sans-Serif" font-size="10.00">/Animals/Species/Genetics/Traits</text>
<text text-anchor="middle" x="899.5" y="-7" font-family="Helvetica,sans-Serif" font-size="10.00">/EscapeProbabilityWeightTrait.h</text>
</a>
</g>
</g>
<!-- Node3&#45;&gt;Node7 -->
<g id="edge7_Node000003_Node000007" class="edge">
<title>Node3&#45;&gt;Node7</title>
<g id="a_edge7_Node000003_Node000007"><a xlink:title=" ">
<path fill="none" stroke="#63b8ff" d="M783.43,-94.15C802.95,-83.78 823.59,-72.81 841.97,-63.05"/>
<polygon fill="#63b8ff" stroke="#63b8ff" points="781.73,-91.08 774.54,-98.86 785.02,-97.26 781.73,-91.08"/>
</a>
</g>
</g>
<!-- Node8 -->
<g id="Node000008" class="node">
<title>Node8</title>
<g id="a_Node000008"><a xlink:href="PredationProbabilityWeightTrait_8h.html" target="_top" xlink:title="Defines the PredationProbabilityWeightTrait class, representing traits that affect predation probabil...">
<polygon fill="white" stroke="#666666" points="1187.5,-63 1005.5,-63 1005.5,0 1187.5,0 1187.5,-63"/>
<text text-anchor="start" x="1013.5" y="-51" font-family="Helvetica,sans-Serif" font-size="10.00">/home/runner/work/Weaver</text>
<text text-anchor="start" x="1013.5" y="-40" font-family="Helvetica,sans-Serif" font-size="10.00">/Weaver/include/App/Model</text>
<text text-anchor="start" x="1013.5" y="-29" font-family="Helvetica,sans-Serif" font-size="10.00">/IBM/Landscape/LivingBeings</text>
<text text-anchor="start" x="1013.5" y="-18" font-family="Helvetica,sans-Serif" font-size="10.00">/Animals/Species/Genetics/Traits</text>
<text text-anchor="middle" x="1096.5" y="-7" font-family="Helvetica,sans-Serif" font-size="10.00">/PredationProbabilityWeightTrait.h</text>
</a>
</g>
</g>
<!-- Node3&#45;&gt;Node8 -->
<g id="edge8_Node000003_Node000008" class="edge">
<title>Node3&#45;&gt;Node8</title>
<g id="a_edge8_Node000003_Node000008"><a xlink:title=" ">
<path fill="none" stroke="#63b8ff" d="M832.35,-105.28C883.45,-92.82 942.95,-77.8 996.5,-63 999.39,-62.2 1002.32,-61.38 1005.27,-60.54"/>
<polygon fill="#63b8ff" stroke="#63b8ff" points="831.47,-101.9 822.58,-107.66 833.12,-108.7 831.47,-101.9"/>
</a>
</g>
</g>
<!-- Node9 -->
<g id="Node000009" class="node">
<title>Node9</title>
<g id="a_Node000009"><a xlink:href="PreferencesTrait_8h.html" target="_top" xlink:title="Defines the PreferencesTrait class, representing traits related to animal preferences in decision&#45;mak...">
<polygon fill="white" stroke="#666666" points="1381,-63 1206,-63 1206,0 1381,0 1381,-63"/>
<text text-anchor="start" x="1214" y="-51" font-family="Helvetica,sans-Serif" font-size="10.00">/home/runner/work/Weaver</text>
<text text-anchor="start" x="1214" y="-40" font-family="Helvetica,sans-Serif" font-size="10.00">/Weaver/include/App/Model</text>
<text text-anchor="start" x="1214" y="-29" font-family="Helvetica,sans-Serif" font-size="10.00">/IBM/Landscape/LivingBeings</text>
<text text-anchor="start" x="1214" y="-18" font-family="Helvetica,sans-Serif" font-size="10.00">/Animals/Species/Genetics/Traits</text>
<text text-anchor="middle" x="1293.5" y="-7" font-family="Helvetica,sans-Serif" font-size="10.00">/PreferencesTrait.h</text>
</a>
</g>
</g>
<!-- Node3&#45;&gt;Node9 -->
<g id="edge9_Node000003_Node000009" class="edge">
<title>Node3&#45;&gt;Node9</title>
<g id="a_edge9_Node000003_Node000009"><a xlink:title=" ">
<path fill="none" stroke="#63b8ff" d="M832.91,-122.01C932.47,-110.45 1074.35,-90.99 1196.5,-63 1199.6,-62.29 1202.74,-61.53 1205.9,-60.73"/>
<polygon fill="#63b8ff" stroke="#63b8ff" points="832.34,-118.56 822.8,-123.18 833.14,-125.51 832.34,-118.56"/>
</a>
</g>
</g>
<!-- Node10 -->
<g id="Node000010" class="node">
<title>Node10</title>
<g id="a_Node000010"><a xlink:href="ProbabilityDensityFunctionTrait_8h.html" target="_top" xlink:title="Defines the ProbabilityDensityFunctionTrait class, a specialized Trait representing probability densi...">
<polygon fill="white" stroke="#666666" points="1580,-63 1399,-63 1399,0 1580,0 1580,-63"/>
<text text-anchor="start" x="1407" y="-51" font-family="Helvetica,sans-Serif" font-size="10.00">/home/runner/work/Weaver</text>
<text text-anchor="start" x="1407" y="-40" font-family="Helvetica,sans-Serif" font-size="10.00">/Weaver/include/App/Model</text>
<text text-anchor="start" x="1407" y="-29" font-family="Helvetica,sans-Serif" font-size="10.00">/IBM/Landscape/LivingBeings</text>
<text text-anchor="start" x="1407" y="-18" font-family="Helvetica,sans-Serif" font-size="10.00">/Animals/Species/Genetics/Traits</text>
<text text-anchor="middle" x="1489.5" y="-7" font-family="Helvetica,sans-Serif" font-size="10.00">/ProbabilityDensityFunctionTrait.h</text>
</a>
</g>
</g>
<!-- Node3&#45;&gt;Node10 -->
<g id="edge10_Node000003_Node000010" class="edge">
<title>Node3&#45;&gt;Node10</title>
<g id="a_edge10_Node000003_Node000010"><a xlink:title=" ">
<path fill="none" stroke="#63b8ff" d="M832.72,-129.06C970.83,-120.86 1198.2,-102.36 1390.5,-63 1393.23,-62.44 1395.99,-61.84 1398.78,-61.2"/>
<polygon fill="#63b8ff" stroke="#63b8ff" points="832.3,-125.58 822.52,-129.65 832.7,-132.56 832.3,-125.58"/>
</a>
</g>
</g>
</g>
</svg>

<g id="navigator" transform="translate(0 0)" fill="#404254">
  <rect fill="#f2f5e9" fill-opacity="0.5" stroke="#606060" stroke-width=".5" x="0" y="0" width="60" height="60"/>
  <use id="zoomplus" xlink:href="#zoomPlus" x="17" y="9" onmousedown="handleZoom(evt,'in')"/>
  <use id="zoomminus" xlink:href="#zoomMin" x="42" y="9" onmousedown="handleZoom(evt,'out')"/>
  <use id="reset" xlink:href="#resetDef" x="30" y="36" onmousedown="handleReset()"/>
   <use id="arrowup" xlink:href="#arrowUp" x="0" y="0" onmousedown="handlePan(0,-1)"/>
  <use id="arrowright" xlink:href="#arrowRight" x="0" y="0" onmousedown="handlePan(1,0)"/>
  <use id="arrowdown" xlink:href="#arrowDown" x="0" y="0" onmousedown="handlePan(0,1)"/>
  <use id="arrowleft" xlink:href="#arrowLeft" x="0" y="0" onmousedown="handlePan(-1,0)"/>
</g>
<svg viewBox="0 0 15 15" width="100%" height="30px" preserveAspectRatio="xMaxYMin meet">
 <g id="arrow_out" transform="scale(0.3 0.3)">
  <a xlink:href="PawarElement_8h__dep__incl_org.svg" target="_base">
   <rect id="button" ry="5" rx="5" y="6" x="6" height="38" width="38"
        fill="#f2f5e9" fill-opacity="0.5" stroke="#606060" stroke-width="1.0"/>
   <path id="arrow"
     d="M 11.500037,31.436501 C 11.940474,20.09759 22.043105,11.32322 32.158766,21.979434 L 37.068811,17.246167 C 37.068811,17.246167 37.088388,32 37.088388,32 L 22.160133,31.978069 C 22.160133,31.978069 26.997745,27.140456 26.997745,27.140456 C 18.528582,18.264221 13.291696,25.230495 11.500037,31.436501 z"
     style="fill:#404040;"/>
  </a>
 </g>
</svg>

<style type='text/css'>
<![CDATA[
[data-mouse-over-selected='false'] { opacity: 0.7; }
[data-mouse-over-selected='true']  { opacity: 1.0; }
]]>
</style>
<script type="application/ecmascript"><![CDATA[
document.addEventListener('DOMContentLoaded', (event) => {
  highlightEdges();
  highlightAdjacentNodes();
});
]]></script>
</svg>
