<?xml version="1.0" encoding="UTF-8" standalone="no"?>
<!DOCTYPE svg PUBLIC "-//W3C//DTD SVG 1.1//EN"
 "http://www.w3.org/Graphics/SVG/1.1/DTD/svg11.dtd">
<!-- Generated by graphviz version 2.43.0 (0)
 -->
<!-- Title: /home/runner/work/Weaver/Weaver/include/App/Model/IBM/Landscape/Map/SpatialTree/TerrainCells/PatchApplicator/SpatialTreePatchApplicator.h Pages: 1 -->
<!--zoomable 676 -->

<svg id="main" version="1.1" xmlns="http://www.w3.org/2000/svg" xmlns:xlink="http://www.w3.org/1999/xlink" xml:space="preserve" onload="init(evt)">
<style type="text/css"><![CDATA[
.node, .edge {opacity: 0.7;}
.node.selected, .edge.selected {opacity: 1;}
.edge:hover path { stroke: red; }
.edge:hover polygon { stroke: red; fill: red; }
]]></style>

<defs>
  <circle id="rim" cx="0" cy="0" r="7"/>
  <circle id="rim2" cx="0" cy="0" r="3.5"/>
  <g id="zoomPlus">
    <use xlink:href="#rim" fill="#404040"><set attributeName="fill" to="#808080" begin="zoomplus.mouseover" end="zoomplus.mouseout"/></use>
    <path d="M-4,0h8M0,-4v8" fill="none" stroke="white" stroke-width="1.5" pointer-events="none"/>
  </g>
  <g id="zoomMin">
    <use xlink:href="#rim" fill="#404040"><set attributeName="fill" to="#808080" begin="zoomminus.mouseover" end="zoomminus.mouseout"/></use>
    <path d="M-4,0h8" fill="none" stroke="white" stroke-width="1.5" pointer-events="none"/>
  </g>
  <g id="arrowUp" transform="translate(30 24)">
    <use xlink:href="#rim"/>
    <path pointer-events="none" fill="none" stroke="white" stroke-width="1.5" d="M0,-3.0v7 M-2.5,-0.5L0,-3.0L2.5,-0.5"/>
  </g>
  <g id="arrowRight" transform="rotate(90) translate(36 -43)">
    <use xlink:href="#rim"/>
    <path pointer-events="none" fill="none" stroke="white" stroke-width="1.5" d="M0,-3.0v7 M-2.5,-0.5L0,-3.0L2.5,-0.5"/>
  </g>
  <g id="arrowDown" transform="rotate(180) translate(-30 -48)">
    <use xlink:href="#rim"/>
    <path pointer-events="none" fill="none" stroke="white" stroke-width="1.5" d="M0,-3.0v7 M-2.5,-0.5L0,-3.0L2.5,-0.5"/>
  </g>
  <g id="arrowLeft" transform="rotate(270) translate(-36 17)">
    <use xlink:href="#rim"/>
    <path pointer-events="none" fill="none" stroke="white" stroke-width="1.5" d="M0,-3.0v7 M-2.5,-0.5L0,-3.0L2.5,-0.5"/>
  </g>
  <g id="resetDef">
    <use xlink:href="#rim2" fill="#404040"><set attributeName="fill" to="#808080" begin="reset.mouseover" end="reset.mouseout"/></use>
  </g>
</defs>
<script type="application/ecmascript">
var viewWidth = 821;
var viewHeight = 676;
var sectionId = 'dynsection-1';
</script>
<script type="application/ecmascript" xlink:href="svg.min.js"/>
<svg id="graph" class="graph">
<g id="viewport">
<title>/home/runner/work/Weaver/Weaver/include/App/Model/IBM/Landscape/Map/SpatialTree/TerrainCells/PatchApplicator/SpatialTreePatchApplicator.h</title>
<!-- Node1 -->
<g id="Node000001" class="node">
<title>Node1</title>
<g id="a_Node000001"><a xlink:title="Defines the SpatialTreePatchApplicator class for applying patches in a spatial tree of terrain cells.">
<polygon fill="#999999" stroke="#666666" points="307.5,-668 133.5,-668 133.5,-605 307.5,-605 307.5,-668"/>
<text text-anchor="start" x="141.5" y="-656" font-family="Helvetica,sans-Serif" font-size="10.00">/home/runner/work/Weaver</text>
<text text-anchor="start" x="141.5" y="-645" font-family="Helvetica,sans-Serif" font-size="10.00">/Weaver/include/App/Model</text>
<text text-anchor="start" x="141.5" y="-634" font-family="Helvetica,sans-Serif" font-size="10.00">/IBM/Landscape/Map/SpatialTree</text>
<text text-anchor="start" x="141.5" y="-623" font-family="Helvetica,sans-Serif" font-size="10.00">/TerrainCells/PatchApplicator</text>
<text text-anchor="middle" x="220.5" y="-612" font-family="Helvetica,sans-Serif" font-size="10.00">/SpatialTreePatchApplicator.h</text>
</a>
</g>
</g>
<!-- Node2 -->
<g id="Node000002" class="node">
<title>Node2</title>
<g id="a_Node000002"><a xlink:href="BranchPatchApplicator_8h.html" target="_top" xlink:title="Defines the BranchPatchApplicator class for applying patches to branch terrain cells in a spatial tre...">
<polygon fill="white" stroke="#666666" points="192.5,-470 18.5,-470 18.5,-407 192.5,-407 192.5,-470"/>
<text text-anchor="start" x="26.5" y="-458" font-family="Helvetica,sans-Serif" font-size="10.00">/home/runner/work/Weaver</text>
<text text-anchor="start" x="26.5" y="-447" font-family="Helvetica,sans-Serif" font-size="10.00">/Weaver/include/App/Model</text>
<text text-anchor="start" x="26.5" y="-436" font-family="Helvetica,sans-Serif" font-size="10.00">/IBM/Landscape/Map/SpatialTree</text>
<text text-anchor="start" x="26.5" y="-425" font-family="Helvetica,sans-Serif" font-size="10.00">/TerrainCells/PatchApplicator</text>
<text text-anchor="middle" x="105.5" y="-414" font-family="Helvetica,sans-Serif" font-size="10.00">/BranchPatchApplicator.h</text>
</a>
</g>
</g>
<!-- Node1&#45;&gt;Node2 -->
<g id="edge1_Node000001_Node000002" class="edge">
<title>Node1&#45;&gt;Node2</title>
<g id="a_edge1_Node000001_Node000002"><a xlink:title=" ">
<path fill="none" stroke="#63b8ff" d="M151.69,-598.52C141.16,-590.1 131.48,-580.26 124.5,-569 105.93,-539.07 102.88,-497.91 103.37,-470.09"/>
<polygon fill="#63b8ff" stroke="#63b8ff" points="149.79,-601.47 159.89,-604.68 154,-595.87 149.79,-601.47"/>
</a>
</g>
</g>
<!-- Node11 -->
<g id="Node000011" class="node">
<title>Node11</title>
<g id="a_Node000011"><a xlink:href="LeafPatchApplicator_8h.html" target="_top" xlink:title="Defines the LeafPatchApplicator class for applying patches to leaf terrain cells in a spatial tree.">
<polygon fill="white" stroke="#666666" points="307.5,-569 133.5,-569 133.5,-506 307.5,-506 307.5,-569"/>
<text text-anchor="start" x="141.5" y="-557" font-family="Helvetica,sans-Serif" font-size="10.00">/home/runner/work/Weaver</text>
<text text-anchor="start" x="141.5" y="-546" font-family="Helvetica,sans-Serif" font-size="10.00">/Weaver/include/App/Model</text>
<text text-anchor="start" x="141.5" y="-535" font-family="Helvetica,sans-Serif" font-size="10.00">/IBM/Landscape/Map/SpatialTree</text>
<text text-anchor="start" x="141.5" y="-524" font-family="Helvetica,sans-Serif" font-size="10.00">/TerrainCells/PatchApplicator</text>
<text text-anchor="middle" x="220.5" y="-513" font-family="Helvetica,sans-Serif" font-size="10.00">/LeafPatchApplicator.h</text>
</a>
</g>
</g>
<!-- Node1&#45;&gt;Node11 -->
<g id="edge10_Node000001_Node000011" class="edge">
<title>Node1&#45;&gt;Node11</title>
<g id="a_edge10_Node000001_Node000011"><a xlink:title=" ">
<path fill="none" stroke="#63b8ff" d="M220.5,-594.69C220.5,-586.2 220.5,-577.38 220.5,-569.32"/>
<polygon fill="#63b8ff" stroke="#63b8ff" points="217,-594.81 220.5,-604.81 224,-594.81 217,-594.81"/>
</a>
</g>
</g>
<!-- Node13 -->
<g id="Node000013" class="node">
<title>Node13</title>
<g id="a_Node000013"><a xlink:href="SpatialTreeTerrainCell_8h.html" target="_top" xlink:title="Spatial tree implementation of a terrain cell.">
<polygon fill="white" stroke="#666666" points="519.5,-563.5 325.5,-563.5 325.5,-511.5 519.5,-511.5 519.5,-563.5"/>
<text text-anchor="start" x="333.5" y="-551.5" font-family="Helvetica,sans-Serif" font-size="10.00">/home/runner/work/Weaver</text>
<text text-anchor="start" x="333.5" y="-540.5" font-family="Helvetica,sans-Serif" font-size="10.00">/Weaver/include/App/Model</text>
<text text-anchor="start" x="333.5" y="-529.5" font-family="Helvetica,sans-Serif" font-size="10.00">/IBM/Landscape/Map/SpatialTree</text>
<text text-anchor="middle" x="422.5" y="-518.5" font-family="Helvetica,sans-Serif" font-size="10.00">/TerrainCells/SpatialTreeTerrainCell.h</text>
</a>
</g>
</g>
<!-- Node1&#45;&gt;Node13 -->
<g id="edge13_Node000001_Node000013" class="edge">
<title>Node1&#45;&gt;Node13</title>
<g id="a_edge13_Node000001_Node000013"><a xlink:title=" ">
<path fill="none" stroke="#63b8ff" d="M293.39,-600.5C318.85,-588.27 346.91,-574.8 370.34,-563.55"/>
<polygon fill="#63b8ff" stroke="#63b8ff" points="291.64,-597.46 284.14,-604.94 294.67,-603.77 291.64,-597.46"/>
</a>
</g>
</g>
<!-- Node3 -->
<g id="Node000003" class="node">
<title>Node3</title>
<g id="a_Node000003"><a xlink:href="BranchTerrainCell_8h.html" target="_top" xlink:title="Branch node implementation of a spatial tree terrain cell.">
<polygon fill="white" stroke="#666666" points="393.5,-371 219.5,-371 219.5,-319 393.5,-319 393.5,-371"/>
<text text-anchor="start" x="227.5" y="-359" font-family="Helvetica,sans-Serif" font-size="10.00">/home/runner/work/Weaver</text>
<text text-anchor="start" x="227.5" y="-348" font-family="Helvetica,sans-Serif" font-size="10.00">/Weaver/include/App/Model</text>
<text text-anchor="start" x="227.5" y="-337" font-family="Helvetica,sans-Serif" font-size="10.00">/IBM/Landscape/Map/SpatialTree</text>
<text text-anchor="middle" x="306.5" y="-326" font-family="Helvetica,sans-Serif" font-size="10.00">/TerrainCells/BranchTerrainCell.h</text>
</a>
</g>
</g>
<!-- Node2&#45;&gt;Node3 -->
<g id="edge2_Node000002_Node000003" class="edge">
<title>Node2&#45;&gt;Node3</title>
<g id="a_edge2_Node000002_Node000003"><a xlink:title=" ">
<path fill="none" stroke="#63b8ff" d="M181.82,-402.76C204.96,-392.22 229.93,-380.86 251.39,-371.09"/>
<polygon fill="#63b8ff" stroke="#63b8ff" points="180.36,-399.58 172.71,-406.9 183.26,-405.95 180.36,-399.58"/>
</a>
</g>
</g>
<!-- Node4 -->
<g id="Node000004" class="node">
<title>Node4</title>
<g id="a_Node000004"><a xlink:href="RootTerrainCell_8h.html" target="_top" xlink:title="Defines the RootTerrainCell class, the top&#45;level node of the spatial tree in the landscape.">
<polygon fill="white" stroke="#666666" points="403.5,-283 229.5,-283 229.5,-231 403.5,-231 403.5,-283"/>
<text text-anchor="start" x="237.5" y="-271" font-family="Helvetica,sans-Serif" font-size="10.00">/home/runner/work/Weaver</text>
<text text-anchor="start" x="237.5" y="-260" font-family="Helvetica,sans-Serif" font-size="10.00">/Weaver/include/App/Model</text>
<text text-anchor="start" x="237.5" y="-249" font-family="Helvetica,sans-Serif" font-size="10.00">/IBM/Landscape/Map/SpatialTree</text>
<text text-anchor="middle" x="316.5" y="-238" font-family="Helvetica,sans-Serif" font-size="10.00">/TerrainCells/RootTerrainCell.h</text>
</a>
</g>
</g>
<!-- Node3&#45;&gt;Node4 -->
<g id="edge3_Node000003_Node000004" class="edge">
<title>Node3&#45;&gt;Node4</title>
<g id="a_edge3_Node000003_Node000004"><a xlink:title=" ">
<path fill="none" stroke="#63b8ff" d="M310.62,-308.56C311.61,-300.04 312.65,-291.1 313.57,-283.16"/>
<polygon fill="#63b8ff" stroke="#63b8ff" points="307.12,-308.32 309.45,-318.66 314.08,-309.13 307.12,-308.32"/>
</a>
</g>
</g>
<!-- Node5 -->
<g id="Node000005" class="node">
<title>Node5</title>
<g id="a_Node000005"><a xlink:href="SpatialTree_8h.html" target="_top" xlink:title="Defines the SpatialTree class, a spatially subdivided map implementation.">
<polygon fill="white" stroke="#666666" points="465,-195 282,-195 282,-154 465,-154 465,-195"/>
<text text-anchor="start" x="290" y="-183" font-family="Helvetica,sans-Serif" font-size="10.00">/home/runner/work/Weaver</text>
<text text-anchor="start" x="290" y="-172" font-family="Helvetica,sans-Serif" font-size="10.00">/Weaver/include/App/Model</text>
<text text-anchor="middle" x="373.5" y="-161" font-family="Helvetica,sans-Serif" font-size="10.00">/IBM/Landscape/Map/SpatialTree.h</text>
</a>
</g>
</g>
<!-- Node4&#45;&gt;Node5 -->
<g id="edge4_Node000004_Node000005" class="edge">
<title>Node4&#45;&gt;Node5</title>
<g id="a_edge4_Node000004_Node000005"><a xlink:title=" ">
<path fill="none" stroke="#63b8ff" d="M340.15,-222.6C346.77,-213.25 353.74,-203.41 359.59,-195.15"/>
<polygon fill="#63b8ff" stroke="#63b8ff" points="337.15,-220.79 334.22,-230.97 342.86,-224.83 337.15,-220.79"/>
</a>
</g>
</g>
<!-- Node6 -->
<g id="Node000006" class="node">
<title>Node6</title>
<g id="a_Node000006"><a xlink:href="Landscape_8h.html" target="_top" xlink:title="Doxygen&#45;documented declaration of the Landscape class and related serialization helpers.">
<polygon fill="white" stroke="#666666" points="452,-118 295,-118 295,-77 452,-77 452,-118"/>
<text text-anchor="start" x="303" y="-106" font-family="Helvetica,sans-Serif" font-size="10.00">/home/runner/work/Weaver</text>
<text text-anchor="start" x="303" y="-95" font-family="Helvetica,sans-Serif" font-size="10.00">/Weaver/include/App/Model</text>
<text text-anchor="middle" x="373.5" y="-84" font-family="Helvetica,sans-Serif" font-size="10.00">/IBM/Landscape/Landscape.h</text>
</a>
</g>
</g>
<!-- Node5&#45;&gt;Node6 -->
<g id="edge5_Node000005_Node000006" class="edge">
<title>Node5&#45;&gt;Node6</title>
<g id="a_edge5_Node000005_Node000006"><a xlink:title=" ">
<path fill="none" stroke="#63b8ff" d="M373.5,-143.69C373.5,-135.08 373.5,-125.9 373.5,-118.07"/>
<polygon fill="#63b8ff" stroke="#63b8ff" points="370,-143.79 373.5,-153.79 377,-143.79 370,-143.79"/>
</a>
</g>
</g>
<!-- Node7 -->
<g id="Node000007" class="node">
<title>Node7</title>
<g id="a_Node000007"><a xlink:href="IBM_8h.html" target="_top" xlink:title="Definition of the IBM class, representing the core individual&#45;based model of the simulation.">
<polygon fill="white" stroke="#666666" points="149,-41 0,-41 0,0 149,0 149,-41"/>
<text text-anchor="start" x="8" y="-29" font-family="Helvetica,sans-Serif" font-size="10.00">/home/runner/work/Weaver</text>
<text text-anchor="start" x="8" y="-18" font-family="Helvetica,sans-Serif" font-size="10.00">/Weaver/include/App/Model</text>
<text text-anchor="middle" x="74.5" y="-7" font-family="Helvetica,sans-Serif" font-size="10.00">/IBM/IBM.h</text>
</a>
</g>
</g>
<!-- Node6&#45;&gt;Node7 -->
<g id="edge6_Node000006_Node000007" class="edge">
<title>Node6&#45;&gt;Node7</title>
<g id="a_edge6_Node000006_Node000007"><a xlink:title=" ">
<path fill="none" stroke="#63b8ff" d="M286.02,-74.56C242.56,-63.65 190.6,-50.62 149.05,-40.2"/>
<polygon fill="#63b8ff" stroke="#63b8ff" points="285.17,-77.95 295.72,-76.99 286.87,-71.16 285.17,-77.95"/>
</a>
</g>
</g>
<!-- Node8 -->
<g id="Node000008" class="node">
<title>Node8</title>
<g id="a_Node000008"><a xlink:href="AquaticLandscape_8h.html" target="_top" xlink:title="Defines the AquaticLandscape class for aquatic ecosystem simulations.">
<polygon fill="white" stroke="#666666" points="360.5,-41 166.5,-41 166.5,0 360.5,0 360.5,-41"/>
<text text-anchor="start" x="174.5" y="-29" font-family="Helvetica,sans-Serif" font-size="10.00">/home/runner/work/Weaver</text>
<text text-anchor="start" x="174.5" y="-18" font-family="Helvetica,sans-Serif" font-size="10.00">/Weaver/include/App/Model</text>
<text text-anchor="middle" x="263.5" y="-7" font-family="Helvetica,sans-Serif" font-size="10.00">/IBM/Landscape/AquaticLandscape.h</text>
</a>
</g>
</g>
<!-- Node6&#45;&gt;Node8 -->
<g id="edge7_Node000006_Node000008" class="edge">
<title>Node6&#45;&gt;Node8</title>
<g id="a_edge7_Node000006_Node000008"><a xlink:title=" ">
<path fill="none" stroke="#63b8ff" d="M336.24,-71.09C321.9,-61.32 305.78,-50.32 292.35,-41.17"/>
<polygon fill="#63b8ff" stroke="#63b8ff" points="334.65,-74.25 344.89,-76.99 338.6,-68.47 334.65,-74.25"/>
</a>
</g>
</g>
<!-- Node9 -->
<g id="Node000009" class="node">
<title>Node9</title>
<g id="a_Node000009"><a xlink:href="ArthropodsLandscape_8h.html" target="_top" xlink:title="Defines the ArthropodsLandscape class for arthropod&#45;specific ecosystem simulations.">
<polygon fill="white" stroke="#666666" points="588.5,-41 378.5,-41 378.5,0 588.5,0 588.5,-41"/>
<text text-anchor="start" x="386.5" y="-29" font-family="Helvetica,sans-Serif" font-size="10.00">/home/runner/work/Weaver</text>
<text text-anchor="start" x="386.5" y="-18" font-family="Helvetica,sans-Serif" font-size="10.00">/Weaver/include/App/Model</text>
<text text-anchor="middle" x="483.5" y="-7" font-family="Helvetica,sans-Serif" font-size="10.00">/IBM/Landscape/ArthropodsLandscape.h</text>
</a>
</g>
</g>
<!-- Node6&#45;&gt;Node9 -->
<g id="edge8_Node000006_Node000009" class="edge">
<title>Node6&#45;&gt;Node9</title>
<g id="a_edge8_Node000006_Node000009"><a xlink:title=" ">
<path fill="none" stroke="#63b8ff" d="M410.76,-71.09C425.1,-61.32 441.22,-50.32 454.65,-41.17"/>
<polygon fill="#63b8ff" stroke="#63b8ff" points="408.4,-68.47 402.11,-76.99 412.35,-74.25 408.4,-68.47"/>
</a>
</g>
</g>
<!-- Node10 -->
<g id="Node000010" class="node">
<title>Node10</title>
<g id="a_Node000010"><a xlink:href="DinosaursLandscape_8h.html" target="_top" xlink:title="Defines the DinosaursLandscape class for dinosaur&#45;specific ecosystem simulations.">
<polygon fill="white" stroke="#666666" points="812.5,-41 606.5,-41 606.5,0 812.5,0 812.5,-41"/>
<text text-anchor="start" x="614.5" y="-29" font-family="Helvetica,sans-Serif" font-size="10.00">/home/runner/work/Weaver</text>
<text text-anchor="start" x="614.5" y="-18" font-family="Helvetica,sans-Serif" font-size="10.00">/Weaver/include/App/Model</text>
<text text-anchor="middle" x="709.5" y="-7" font-family="Helvetica,sans-Serif" font-size="10.00">/IBM/Landscape/DinosaursLandscape.h</text>
</a>
</g>
</g>
<!-- Node6&#45;&gt;Node10 -->
<g id="edge9_Node000006_Node000010" class="edge">
<title>Node6&#45;&gt;Node10</title>
<g id="a_edge9_Node000006_Node000010"><a xlink:title=" ">
<path fill="none" stroke="#63b8ff" d="M462.31,-76.68C511.69,-65.66 572.9,-51.99 622.06,-41.02"/>
<polygon fill="#63b8ff" stroke="#63b8ff" points="461.27,-73.32 452.28,-78.92 462.8,-80.15 461.27,-73.32"/>
</a>
</g>
</g>
<!-- Node12 -->
<g id="Node000012" class="node">
<title>Node12</title>
<g id="a_Node000012"><a xlink:href="LeafTerrainCell_8h.html" target="_top" xlink:title="Leaf node implementation of a spatial tree terrain cell.">
<polygon fill="white" stroke="#666666" points="384.5,-464.5 210.5,-464.5 210.5,-412.5 384.5,-412.5 384.5,-464.5"/>
<text text-anchor="start" x="218.5" y="-452.5" font-family="Helvetica,sans-Serif" font-size="10.00">/home/runner/work/Weaver</text>
<text text-anchor="start" x="218.5" y="-441.5" font-family="Helvetica,sans-Serif" font-size="10.00">/Weaver/include/App/Model</text>
<text text-anchor="start" x="218.5" y="-430.5" font-family="Helvetica,sans-Serif" font-size="10.00">/IBM/Landscape/Map/SpatialTree</text>
<text text-anchor="middle" x="297.5" y="-419.5" font-family="Helvetica,sans-Serif" font-size="10.00">/TerrainCells/LeafTerrainCell.h</text>
</a>
</g>
</g>
<!-- Node11&#45;&gt;Node12 -->
<g id="edge11_Node000011_Node000012" class="edge">
<title>Node11&#45;&gt;Node12</title>
<g id="a_edge11_Node000011_Node000012"><a xlink:title=" ">
<path fill="none" stroke="#63b8ff" d="M251.17,-497.87C260,-486.74 269.41,-474.89 277.42,-464.8"/>
<polygon fill="#63b8ff" stroke="#63b8ff" points="248.34,-495.8 244.86,-505.81 253.82,-500.15 248.34,-495.8"/>
</a>
</g>
</g>
<!-- Node12&#45;&gt;Node3 -->
<g id="edge12_Node000012_Node000003" class="edge">
<title>Node12&#45;&gt;Node3</title>
<g id="a_edge12_Node000012_Node000003"><a xlink:title=" ">
<path fill="none" stroke="#63b8ff" d="M300.95,-402.46C301.97,-392.08 303.06,-380.92 304.01,-371.29"/>
<polygon fill="#63b8ff" stroke="#63b8ff" points="297.46,-402.2 299.96,-412.5 304.42,-402.89 297.46,-402.2"/>
</a>
</g>
</g>
<!-- Node13&#45;&gt;Node3 -->
<g id="edge15_Node000013_Node000003" class="edge">
<title>Node13&#45;&gt;Node3</title>
<g id="a_edge15_Node000013_Node000003"><a xlink:title=" ">
<path fill="none" stroke="#63b8ff" d="M421.44,-501.23C419.08,-473.54 412.31,-435.1 393.5,-407 383.86,-392.59 369.56,-380.54 355.34,-371.05"/>
<polygon fill="#63b8ff" stroke="#63b8ff" points="417.95,-501.54 422.14,-511.27 424.93,-501.05 417.95,-501.54"/>
</a>
</g>
</g>
<!-- Node13&#45;&gt;Node5 -->
<g id="edge14_Node000013_Node000005" class="edge">
<title>Node13&#45;&gt;Node5</title>
<g id="a_edge14_Node000013_Node000005"><a xlink:title=" ">
<path fill="none" stroke="#63b8ff" d="M427.76,-500.95C434.98,-442.76 443.77,-324.32 412.5,-231 408.09,-217.82 399.45,-205 391.43,-195.01"/>
<polygon fill="#63b8ff" stroke="#63b8ff" points="424.26,-500.73 426.44,-511.09 431.2,-501.63 424.26,-500.73"/>
</a>
</g>
</g>
<!-- Node13&#45;&gt;Node12 -->
<g id="edge16_Node000013_Node000012" class="edge">
<title>Node13&#45;&gt;Node12</title>
<g id="a_edge16_Node000013_Node000012"><a xlink:title=" ">
<path fill="none" stroke="#63b8ff" d="M381.92,-505.01C365.05,-491.92 345.74,-476.94 329.85,-464.61"/>
<polygon fill="#63b8ff" stroke="#63b8ff" points="379.94,-507.9 389.98,-511.27 384.23,-502.37 379.94,-507.9"/>
</a>
</g>
</g>
</g>
</svg>

<g id="navigator" transform="translate(0 0)" fill="#404254">
  <rect fill="#f2f5e9" fill-opacity="0.5" stroke="#606060" stroke-width=".5" x="0" y="0" width="60" height="60"/>
  <use id="zoomplus" xlink:href="#zoomPlus" x="17" y="9" onmousedown="handleZoom(evt,'in')"/>
  <use id="zoomminus" xlink:href="#zoomMin" x="42" y="9" onmousedown="handleZoom(evt,'out')"/>
  <use id="reset" xlink:href="#resetDef" x="30" y="36" onmousedown="handleReset()"/>
   <use id="arrowup" xlink:href="#arrowUp" x="0" y="0" onmousedown="handlePan(0,-1)"/>
  <use id="arrowright" xlink:href="#arrowRight" x="0" y="0" onmousedown="handlePan(1,0)"/>
  <use id="arrowdown" xlink:href="#arrowDown" x="0" y="0" onmousedown="handlePan(0,1)"/>
  <use id="arrowleft" xlink:href="#arrowLeft" x="0" y="0" onmousedown="handlePan(-1,0)"/>
</g>
<svg viewBox="0 0 15 15" width="100%" height="30px" preserveAspectRatio="xMaxYMin meet">
 <g id="arrow_out" transform="scale(0.3 0.3)">
  <a xlink:href="SpatialTreePatchApplicator_8h__dep__incl_org.svg" target="_base">
   <rect id="button" ry="5" rx="5" y="6" x="6" height="38" width="38"
        fill="#f2f5e9" fill-opacity="0.5" stroke="#606060" stroke-width="1.0"/>
   <path id="arrow"
     d="M 11.500037,31.436501 C 11.940474,20.09759 22.043105,11.32322 32.158766,21.979434 L 37.068811,17.246167 C 37.068811,17.246167 37.088388,32 37.088388,32 L 22.160133,31.978069 C 22.160133,31.978069 26.997745,27.140456 26.997745,27.140456 C 18.528582,18.264221 13.291696,25.230495 11.500037,31.436501 z"
     style="fill:#404040;"/>
  </a>
 </g>
</svg>

<style type='text/css'>
<![CDATA[
[data-mouse-over-selected='false'] { opacity: 0.7; }
[data-mouse-over-selected='true']  { opacity: 1.0; }
]]>
</style>
<script type="application/ecmascript"><![CDATA[
document.addEventListener('DOMContentLoaded', (event) => {
  highlightEdges();
  highlightAdjacentNodes();
});
]]></script>
</svg>
