<?xml version="1.0" encoding="UTF-8" standalone="no"?>
<!DOCTYPE svg PUBLIC "-//W3C//DTD SVG 1.1//EN"
 "http://www.w3.org/Graphics/SVG/1.1/DTD/svg11.dtd">
<!-- Generated by graphviz version 2.43.0 (0)
 -->
<!-- Title: /home/runner/work/Weaver/Weaver/include/App/Model/IBM/Landscape/Map/TerrainCells/AnimalSearchParams.h Pages: 1 -->
<!--zoomable 346 -->

<svg id="main" version="1.1" xmlns="http://www.w3.org/2000/svg" xmlns:xlink="http://www.w3.org/1999/xlink" xml:space="preserve" onload="init(evt)">
<style type="text/css"><![CDATA[
.node, .edge {opacity: 0.7;}
.node.selected, .edge.selected {opacity: 1;}
.edge:hover path { stroke: red; }
.edge:hover polygon { stroke: red; fill: red; }
]]></style>

<defs>
  <circle id="rim" cx="0" cy="0" r="7"/>
  <circle id="rim2" cx="0" cy="0" r="3.5"/>
  <g id="zoomPlus">
    <use xlink:href="#rim" fill="#404040"><set attributeName="fill" to="#808080" begin="zoomplus.mouseover" end="zoomplus.mouseout"/></use>
    <path d="M-4,0h8M0,-4v8" fill="none" stroke="white" stroke-width="1.5" pointer-events="none"/>
  </g>
  <g id="zoomMin">
    <use xlink:href="#rim" fill="#404040"><set attributeName="fill" to="#808080" begin="zoomminus.mouseover" end="zoomminus.mouseout"/></use>
    <path d="M-4,0h8" fill="none" stroke="white" stroke-width="1.5" pointer-events="none"/>
  </g>
  <g id="arrowUp" transform="translate(30 24)">
    <use xlink:href="#rim"/>
    <path pointer-events="none" fill="none" stroke="white" stroke-width="1.5" d="M0,-3.0v7 M-2.5,-0.5L0,-3.0L2.5,-0.5"/>
  </g>
  <g id="arrowRight" transform="rotate(90) translate(36 -43)">
    <use xlink:href="#rim"/>
    <path pointer-events="none" fill="none" stroke="white" stroke-width="1.5" d="M0,-3.0v7 M-2.5,-0.5L0,-3.0L2.5,-0.5"/>
  </g>
  <g id="arrowDown" transform="rotate(180) translate(-30 -48)">
    <use xlink:href="#rim"/>
    <path pointer-events="none" fill="none" stroke="white" stroke-width="1.5" d="M0,-3.0v7 M-2.5,-0.5L0,-3.0L2.5,-0.5"/>
  </g>
  <g id="arrowLeft" transform="rotate(270) translate(-36 17)">
    <use xlink:href="#rim"/>
    <path pointer-events="none" fill="none" stroke="white" stroke-width="1.5" d="M0,-3.0v7 M-2.5,-0.5L0,-3.0L2.5,-0.5"/>
  </g>
  <g id="resetDef">
    <use xlink:href="#rim2" fill="#404040"><set attributeName="fill" to="#808080" begin="reset.mouseover" end="reset.mouseout"/></use>
  </g>
</defs>
<script type="application/ecmascript">
var viewWidth = 1626;
var viewHeight = 346;
var sectionId = 'dynsection-0';
</script>
<script type="application/ecmascript" xlink:href="svg.min.js"/>
<svg id="graph" class="graph">
<g id="viewport">
<title>/home/runner/work/Weaver/Weaver/include/App/Model/IBM/Landscape/Map/TerrainCells/AnimalSearchParams.h</title>
<!-- Node1 -->
<g id="Node000001" class="node">
<title>Node1</title>
<g id="a_Node000001"><a xlink:title="Defines the AnimalSearchParams class used to filter animals in terrain cells.">
<polygon fill="#999999" stroke="#666666" points="823,-338 646,-338 646,-286 823,-286 823,-338"/>
<text text-anchor="start" x="654" y="-326" font-family="Helvetica,sans-Serif" font-size="10.00">/home/runner/work/Weaver</text>
<text text-anchor="start" x="654" y="-315" font-family="Helvetica,sans-Serif" font-size="10.00">/Weaver/include/App/Model</text>
<text text-anchor="start" x="654" y="-304" font-family="Helvetica,sans-Serif" font-size="10.00">/IBM/Landscape/Map/TerrainCells</text>
<text text-anchor="middle" x="734.5" y="-293" font-family="Helvetica,sans-Serif" font-size="10.00">/AnimalSearchParams.h</text>
</a>
</g>
</g>
<!-- Node2 -->
<g id="Node000002" class="node">
<title>Node2</title>
<g id="a_Node000002"><a xlink:title=" ">
<polygon fill="#e0e0e0" stroke="#999999" points="77,-167.5 30,-167.5 30,-148.5 77,-148.5 77,-167.5"/>
<text text-anchor="middle" x="53.5" y="-155.5" font-family="Helvetica,sans-Serif" font-size="10.00">vector</text>
</a>
</g>
</g>
<!-- Node1&#45;&gt;Node2 -->
<g id="edge1_Node000001_Node000002" class="edge">
<title>Node1&#45;&gt;Node2</title>
<g id="a_edge1_Node000001_Node000002"><a xlink:title=" ">
<path fill="none" stroke="#63b8ff" d="M645.67,-309.8C466.63,-306.46 75.96,-294.14 35.5,-250 17.08,-229.9 30.89,-196.59 42.37,-176.33"/>
<polygon fill="#63b8ff" stroke="#63b8ff" points="45.49,-177.92 47.66,-167.55 39.5,-174.3 45.49,-177.92"/>
</a>
</g>
</g>
<!-- Node3 -->
<g id="Node000003" class="node">
<title>Node3</title>
<g id="a_Node000003"><a xlink:title=" ">
<polygon fill="#e0e0e0" stroke="#999999" points="137.5,-24.5 73.5,-24.5 73.5,-5.5 137.5,-5.5 137.5,-24.5"/>
<text text-anchor="middle" x="105.5" y="-12.5" font-family="Helvetica,sans-Serif" font-size="10.00">algorithm</text>
</a>
</g>
</g>
<!-- Node1&#45;&gt;Node3 -->
<g id="edge2_Node000001_Node000003" class="edge">
<title>Node1&#45;&gt;Node3</title>
<g id="a_edge2_Node000001_Node000003"><a xlink:title=" ">
<path fill="none" stroke="#63b8ff" d="M671.96,-285.89C646.47,-275.3 616.86,-262.53 590.5,-250 467.87,-191.68 428.17,-189.74 320.5,-107 300.8,-91.86 303.8,-78.8 282.5,-66 228.9,-33.8 206.35,-48.11 146.5,-30 144.19,-29.3 141.82,-28.56 139.43,-27.79"/>
<polygon fill="#63b8ff" stroke="#63b8ff" points="140.28,-24.39 129.69,-24.57 138.09,-31.03 140.28,-24.39"/>
</a>
</g>
</g>
<!-- Node4 -->
<g id="Node000004" class="node">
<title>Node4</title>
<g id="a_Node000004"><a xlink:title=" ">
<polygon fill="#e0e0e0" stroke="#999999" points="1115,-244.5 1008,-244.5 1008,-214.5 1115,-214.5 1115,-244.5"/>
<text text-anchor="start" x="1016" y="-232.5" font-family="Helvetica,sans-Serif" font-size="10.00">boost/serialization</text>
<text text-anchor="middle" x="1061.5" y="-221.5" font-family="Helvetica,sans-Serif" font-size="10.00">/export.hpp</text>
</a>
</g>
</g>
<!-- Node1&#45;&gt;Node4 -->
<g id="edge3_Node000001_Node000004" class="edge">
<title>Node1&#45;&gt;Node4</title>
<g id="a_edge3_Node000001_Node000004"><a xlink:title=" ">
<path fill="none" stroke="#63b8ff" d="M823.17,-291.22C873.31,-279.76 937.07,-264.73 993.5,-250 996.87,-249.12 1000.33,-248.2 1003.81,-247.25"/>
<polygon fill="#63b8ff" stroke="#63b8ff" points="1004.95,-250.57 1013.65,-244.53 1003.08,-243.82 1004.95,-250.57"/>
</a>
</g>
</g>
<!-- Node5 -->
<g id="Node000005" class="node">
<title>Node5</title>
<g id="a_Node000005"><a xlink:title=" ">
<polygon fill="#e0e0e0" stroke="#999999" points="208,-173 101,-173 101,-143 208,-143 208,-173"/>
<text text-anchor="start" x="109" y="-161" font-family="Helvetica,sans-Serif" font-size="10.00">boost/serialization</text>
<text text-anchor="middle" x="154.5" y="-150" font-family="Helvetica,sans-Serif" font-size="10.00">/vector.hpp</text>
</a>
</g>
</g>
<!-- Node1&#45;&gt;Node5 -->
<g id="edge4_Node000001_Node000005" class="edge">
<title>Node1&#45;&gt;Node5</title>
<g id="a_edge4_Node000001_Node000005"><a xlink:title=" ">
<path fill="none" stroke="#63b8ff" d="M645.82,-306.23C526.66,-298.73 322.01,-281.64 254.5,-250 230.3,-238.66 230.25,-227.01 210.5,-209 200.01,-199.44 188.32,-188.96 178.34,-180.08"/>
<polygon fill="#63b8ff" stroke="#63b8ff" points="180.56,-177.37 170.76,-173.35 175.91,-182.61 180.56,-177.37"/>
</a>
</g>
</g>
<!-- Node6 -->
<g id="Node000006" class="node">
<title>Node6</title>
<g id="a_Node000006"><a xlink:title=" ">
<polygon fill="#e0e0e0" stroke="#999999" points="55,-24.5 0,-24.5 0,-5.5 55,-5.5 55,-24.5"/>
<text text-anchor="middle" x="27.5" y="-12.5" font-family="Helvetica,sans-Serif" font-size="10.00">fstream</text>
</a>
</g>
</g>
<!-- Node1&#45;&gt;Node6 -->
<g id="edge5_Node000001_Node000006" class="edge">
<title>Node1&#45;&gt;Node6</title>
<g id="a_edge5_Node000001_Node000006"><a xlink:title=" ">
<path fill="none" stroke="#63b8ff" d="M645.9,-293.28C599.99,-282.91 543.45,-268.24 494.5,-250 316.72,-183.75 117.62,-69.5 50.78,-29.95"/>
<polygon fill="#63b8ff" stroke="#63b8ff" points="52.28,-26.77 41.9,-24.68 48.71,-32.79 52.28,-26.77"/>
</a>
</g>
</g>
<!-- Node7 -->
<g id="Node000007" class="node">
<title>Node7</title>
<g id="a_Node000007"><a xlink:title=" ">
<polygon fill="#e0e0e0" stroke="#999999" points="1141,-24.5 1084,-24.5 1084,-5.5 1141,-5.5 1141,-24.5"/>
<text text-anchor="middle" x="1112.5" y="-12.5" font-family="Helvetica,sans-Serif" font-size="10.00">ostream</text>
</a>
</g>
</g>
<!-- Node1&#45;&gt;Node7 -->
<g id="edge6_Node000001_Node000007" class="edge">
<title>Node1&#45;&gt;Node7</title>
<g id="a_edge6_Node000001_Node000007"><a xlink:title=" ">
<path fill="none" stroke="#63b8ff" d="M788.15,-285.91C808.04,-275.76 830.39,-263.29 849.5,-250 862.96,-240.65 1038.49,-82.7 1095.06,-31.72"/>
<polygon fill="#63b8ff" stroke="#63b8ff" points="1097.71,-34.05 1102.79,-24.75 1093.02,-28.85 1097.71,-34.05"/>
</a>
</g>
</g>
<!-- Node8 -->
<g id="Node000008" class="node">
<title>Node8</title>
<g id="a_Node000008"><a xlink:href="Types_8h.html" target="_top" xlink:title="Defines common type aliases and constants used throughout the Weaver project.">
<polygon fill="white" stroke="#666666" points="557,-167.5 478,-167.5 478,-148.5 557,-148.5 557,-167.5"/>
<text text-anchor="middle" x="517.5" y="-155.5" font-family="Helvetica,sans-Serif" font-size="10.00">Misc/Types.h</text>
</a>
</g>
</g>
<!-- Node1&#45;&gt;Node8 -->
<g id="edge7_Node000001_Node000008" class="edge">
<title>Node1&#45;&gt;Node8</title>
<g id="a_edge7_Node000001_Node000008"><a xlink:title=" ">
<path fill="none" stroke="#63b8ff" d="M698.67,-285.9C652.95,-253.87 575.36,-199.53 538.35,-173.6"/>
<polygon fill="#63b8ff" stroke="#63b8ff" points="540.06,-170.53 529.86,-167.66 536.04,-176.26 540.06,-170.53"/>
</a>
</g>
</g>
<!-- Node22 -->
<g id="Node000022" class="node">
<title>Node22</title>
<g id="a_Node000022"><a xlink:href="CustomIndexedVector_8h.html" target="_top" xlink:title="Template class providing a vector indexed by a custom type with bounds checking and Boost....">
<polygon fill="white" stroke="#666666" points="202,-239 45,-239 45,-220 202,-220 202,-239"/>
<text text-anchor="middle" x="123.5" y="-227" font-family="Helvetica,sans-Serif" font-size="10.00">Misc/CustomIndexedVector.h</text>
</a>
</g>
</g>
<!-- Node1&#45;&gt;Node22 -->
<g id="edge26_Node000001_Node000022" class="edge">
<title>Node1&#45;&gt;Node22</title>
<g id="a_edge26_Node000001_Node000022"><a xlink:title=" ">
<path fill="none" stroke="#63b8ff" d="M645.71,-302.98C542.28,-293.08 366.41,-274.49 216.5,-250 201.42,-247.54 185.08,-244.3 170.36,-241.18"/>
<polygon fill="#63b8ff" stroke="#63b8ff" points="170.98,-237.73 160.47,-239.04 169.5,-244.57 170.98,-237.73"/>
</a>
</g>
</g>
<!-- Node23 -->
<g id="Node000023" class="node">
<title>Node23</title>
<g id="a_Node000023"><a xlink:href="EnumClass_8h.html" target="_top" xlink:title="Template helper class for working with strongly&#45;typed enums.">
<polygon fill="white" stroke="#666666" points="1205,-167.5 1100,-167.5 1100,-148.5 1205,-148.5 1205,-167.5"/>
<text text-anchor="middle" x="1152.5" y="-155.5" font-family="Helvetica,sans-Serif" font-size="10.00">Misc/EnumClass.h</text>
</a>
</g>
</g>
<!-- Node1&#45;&gt;Node23 -->
<g id="edge29_Node000001_Node000023" class="edge">
<title>Node1&#45;&gt;Node23</title>
<g id="a_edge29_Node000001_Node000023"><a xlink:title=" ">
<path fill="none" stroke="#63b8ff" d="M823.26,-296.67C865.2,-287.42 914.85,-272.72 955.5,-250 978.83,-236.96 976.48,-222.58 999.5,-209 1030.75,-190.57 1069.65,-177.97 1100.41,-170.03"/>
<polygon fill="#63b8ff" stroke="#63b8ff" points="1101.65,-173.33 1110.5,-167.52 1099.95,-166.54 1101.65,-173.33"/>
</a>
</g>
</g>
<!-- Node29 -->
<g id="Node000029" class="node">
<title>Node29</title>
<g id="a_Node000029"><a xlink:href="Gender_8h.html" target="_top" xlink:title="Defines the Gender enumeration representing the sex of an individual.">
<polygon fill="white" stroke="#666666" points="1278,-250 1133,-250 1133,-209 1278,-209 1278,-250"/>
<text text-anchor="start" x="1141" y="-238" font-family="Helvetica,sans-Serif" font-size="10.00">App/Model/IBM/Landscape</text>
<text text-anchor="start" x="1141" y="-227" font-family="Helvetica,sans-Serif" font-size="10.00">/LivingBeings/Animals</text>
<text text-anchor="middle" x="1205.5" y="-216" font-family="Helvetica,sans-Serif" font-size="10.00">/Species/Gender.h</text>
</a>
</g>
</g>
<!-- Node1&#45;&gt;Node29 -->
<g id="edge37_Node000001_Node000029" class="edge">
<title>Node1&#45;&gt;Node29</title>
<g id="a_edge37_Node000001_Node000029"><a xlink:title=" ">
<path fill="none" stroke="#63b8ff" d="M823.15,-299.22C900.03,-288.53 1014.47,-271.46 1122.6,-250.31"/>
<polygon fill="#63b8ff" stroke="#63b8ff" points="1123.57,-253.69 1132.7,-248.32 1122.22,-246.82 1123.57,-253.69"/>
</a>
</g>
</g>
<!-- Node30 -->
<g id="Node000030" class="node">
<title>Node30</title>
<g id="a_Node000030"><a xlink:href="LifeStage_8h.html" target="_top" xlink:title="Defines the LifeStage enumeration used to represent the life stage or status of an individual organis...">
<polygon fill="white" stroke="#666666" points="1441,-250 1296,-250 1296,-209 1441,-209 1441,-250"/>
<text text-anchor="start" x="1304" y="-238" font-family="Helvetica,sans-Serif" font-size="10.00">App/Model/IBM/Landscape</text>
<text text-anchor="start" x="1304" y="-227" font-family="Helvetica,sans-Serif" font-size="10.00">/LivingBeings/Animals</text>
<text text-anchor="middle" x="1368.5" y="-216" font-family="Helvetica,sans-Serif" font-size="10.00">/Species/LifeStage.h</text>
</a>
</g>
</g>
<!-- Node1&#45;&gt;Node30 -->
<g id="edge38_Node000001_Node000030" class="edge">
<title>Node1&#45;&gt;Node30</title>
<g id="a_edge38_Node000001_Node000030"><a xlink:title=" ">
<path fill="none" stroke="#63b8ff" d="M823.1,-304.7C930.58,-296.27 1117.33,-279.13 1285.69,-250.22"/>
<polygon fill="#63b8ff" stroke="#63b8ff" points="1286.48,-253.63 1295.73,-248.48 1285.28,-246.74 1286.48,-253.63"/>
</a>
</g>
</g>
<!-- Node31 -->
<g id="Node000031" class="node">
<title>Node31</title>
<g id="a_Node000031"><a xlink:href="AnimalSpeciesID_8h.html" target="_top" xlink:title="Defines the AnimalSpeciesID class for uniquely identifying animal species.">
<polygon fill="white" stroke="#666666" points="810.5,-250 658.5,-250 658.5,-209 810.5,-209 810.5,-250"/>
<text text-anchor="start" x="666.5" y="-238" font-family="Helvetica,sans-Serif" font-size="10.00">App/Model/IBM/Landscape</text>
<text text-anchor="start" x="666.5" y="-227" font-family="Helvetica,sans-Serif" font-size="10.00">/LivingBeings/Animals</text>
<text text-anchor="middle" x="734.5" y="-216" font-family="Helvetica,sans-Serif" font-size="10.00">/Species/AnimalSpeciesID.h</text>
</a>
</g>
</g>
<!-- Node1&#45;&gt;Node31 -->
<g id="edge39_Node000001_Node000031" class="edge">
<title>Node1&#45;&gt;Node31</title>
<g id="a_edge39_Node000001_Node000031"><a xlink:title=" ">
<path fill="none" stroke="#63b8ff" d="M734.5,-285.97C734.5,-277.86 734.5,-268.78 734.5,-260.35"/>
<polygon fill="#63b8ff" stroke="#63b8ff" points="738,-260.15 734.5,-250.15 731,-260.15 738,-260.15"/>
</a>
</g>
</g>
<!-- Node32 -->
<g id="Node000032" class="node">
<title>Node32</title>
<g id="a_Node000032"><a xlink:href="Instar_8h.html" target="_top" xlink:title="Defines the Instar class representing developmental stages of an animal.">
<polygon fill="white" stroke="#666666" points="984,-107 839,-107 839,-66 984,-66 984,-107"/>
<text text-anchor="start" x="847" y="-95" font-family="Helvetica,sans-Serif" font-size="10.00">App/Model/IBM/Landscape</text>
<text text-anchor="start" x="847" y="-84" font-family="Helvetica,sans-Serif" font-size="10.00">/LivingBeings/Species</text>
<text text-anchor="middle" x="911.5" y="-73" font-family="Helvetica,sans-Serif" font-size="10.00">/Growth/Instar.h</text>
</a>
</g>
</g>
<!-- Node1&#45;&gt;Node32 -->
<g id="edge45_Node000001_Node000032" class="edge">
<title>Node1&#45;&gt;Node32</title>
<g id="a_edge45_Node000001_Node000032"><a xlink:title=" ">
<path fill="none" stroke="#63b8ff" d="M777.2,-285.71C791.74,-275.78 807.36,-263.51 819.5,-250 856.17,-209.17 884.57,-151.28 899.61,-116.75"/>
<polygon fill="#63b8ff" stroke="#63b8ff" points="902.96,-117.81 903.66,-107.24 896.52,-115.07 902.96,-117.81"/>
</a>
</g>
</g>
<!-- Node9 -->
<g id="Node000009" class="node">
<title>Node9</title>
<g id="a_Node000009"><a xlink:href="Coordinate3D_8h.html" target="_top" xlink:title="Defines a templated 3D coordinate class with Boost.Serialization support.">
<polygon fill="white" stroke="#666666" points="526.5,-96 434.5,-96 434.5,-77 526.5,-77 526.5,-96"/>
<text text-anchor="middle" x="480.5" y="-84" font-family="Helvetica,sans-Serif" font-size="10.00">Coordinate3D.h</text>
</a>
</g>
</g>
<!-- Node8&#45;&gt;Node9 -->
<g id="edge8_Node000008_Node000009" class="edge">
<title>Node8&#45;&gt;Node9</title>
<g id="a_edge8_Node000008_Node000009"><a xlink:title=" ">
<path fill="none" stroke="#63b8ff" d="M512.96,-148.48C507.25,-137.74 497.29,-119.03 489.9,-105.16"/>
<polygon fill="#63b8ff" stroke="#63b8ff" points="492.86,-103.27 485.07,-96.09 486.68,-106.56 492.86,-103.27"/>
</a>
</g>
</g>
<!-- Node13 -->
<g id="Node000013" class="node">
<title>Node13</title>
<g id="a_Node000013"><a xlink:title=" ">
<polygon fill="#e0e0e0" stroke="#999999" points="416.5,-96 372.5,-96 372.5,-77 416.5,-77 416.5,-96"/>
<text text-anchor="middle" x="394.5" y="-84" font-family="Helvetica,sans-Serif" font-size="10.00">cfloat</text>
</a>
</g>
</g>
<!-- Node8&#45;&gt;Node13 -->
<g id="edge13_Node000008_Node000013" class="edge">
<title>Node8&#45;&gt;Node13</title>
<g id="a_edge13_Node000008_Node000013"><a xlink:title=" ">
<path fill="none" stroke="#63b8ff" d="M501.04,-148.46C482.49,-138.74 451.54,-122.25 425.5,-107 422.54,-105.27 419.44,-103.39 416.41,-101.52"/>
<polygon fill="#63b8ff" stroke="#63b8ff" points="417.99,-98.38 407.66,-96.04 414.27,-104.32 417.99,-98.38"/>
</a>
</g>
</g>
<!-- Node14 -->
<g id="Node000014" class="node">
<title>Node14</title>
<g id="a_Node000014"><a xlink:title=" ">
<polygon fill="#e0e0e0" stroke="#999999" points="199.5,-24.5 155.5,-24.5 155.5,-5.5 199.5,-5.5 199.5,-24.5"/>
<text text-anchor="middle" x="177.5" y="-12.5" font-family="Helvetica,sans-Serif" font-size="10.00">limits</text>
</a>
</g>
</g>
<!-- Node8&#45;&gt;Node14 -->
<g id="edge14_Node000008_Node000014" class="edge">
<title>Node8&#45;&gt;Node14</title>
<g id="a_edge14_Node000008_Node000014"><a xlink:title=" ">
<path fill="none" stroke="#63b8ff" d="M477.81,-149.27C445.43,-141.78 399.35,-128.38 363.5,-107 340.82,-93.47 343.2,-79.49 320.5,-66 275.55,-39.28 257.29,-48.79 208.5,-30 207.32,-29.55 206.12,-29.07 204.92,-28.58"/>
<polygon fill="#63b8ff" stroke="#63b8ff" points="206.28,-25.36 195.71,-24.64 203.53,-31.79 206.28,-25.36"/>
</a>
</g>
</g>
<!-- Node15 -->
<g id="Node000015" class="node">
<title>Node15</title>
<g id="a_Node000015"><a xlink:href="PreciseDouble_8h.html" target="_top" xlink:title="Defines the PreciseDouble class for safe and precise double&#45;precision arithmetic.">
<polygon fill="white" stroke="#666666" points="668,-101.5 545,-101.5 545,-71.5 668,-71.5 668,-101.5"/>
<text text-anchor="start" x="553" y="-89.5" font-family="Helvetica,sans-Serif" font-size="10.00">App/Model/IBM/Maths</text>
<text text-anchor="middle" x="606.5" y="-78.5" font-family="Helvetica,sans-Serif" font-size="10.00">/PreciseDouble.h</text>
</a>
</g>
</g>
<!-- Node8&#45;&gt;Node15 -->
<g id="edge15_Node000008_Node000015" class="edge">
<title>Node8&#45;&gt;Node15</title>
<g id="a_edge15_Node000008_Node000015"><a xlink:title=" ">
<path fill="none" stroke="#63b8ff" d="M528.41,-148.48C541.26,-138.45 563.03,-121.45 580.32,-107.94"/>
<polygon fill="#63b8ff" stroke="#63b8ff" points="582.67,-110.55 588.4,-101.64 578.36,-105.03 582.67,-110.55"/>
</a>
</g>
</g>
<!-- Node9&#45;&gt;Node6 -->
<g id="edge12_Node000009_Node000006" class="edge">
<title>Node9&#45;&gt;Node6</title>
<g id="a_edge12_Node000009_Node000006"><a xlink:title=" ">
<path fill="none" stroke="#63b8ff" d="M460.21,-76.98C449.98,-73.03 437.27,-68.63 425.5,-66 268.15,-30.8 221.47,-66.85 64.5,-30 61.98,-29.41 59.41,-28.69 56.85,-27.89"/>
<polygon fill="#63b8ff" stroke="#63b8ff" points="57.77,-24.51 47.17,-24.54 55.47,-31.12 57.77,-24.51"/>
</a>
</g>
</g>
<!-- Node10 -->
<g id="Node000010" class="node">
<title>Node10</title>
<g id="a_Node000010"><a xlink:title=" ">
<polygon fill="#e0e0e0" stroke="#999999" points="325,-30 218,-30 218,0 325,0 325,-30"/>
<text text-anchor="start" x="226" y="-18" font-family="Helvetica,sans-Serif" font-size="10.00">boost/serialization</text>
<text text-anchor="middle" x="271.5" y="-7" font-family="Helvetica,sans-Serif" font-size="10.00">/access.hpp</text>
</a>
</g>
</g>
<!-- Node9&#45;&gt;Node10 -->
<g id="edge9_Node000009_Node000010" class="edge">
<title>Node9&#45;&gt;Node10</title>
<g id="a_edge9_Node000009_Node000010"><a xlink:title=" ">
<path fill="none" stroke="#63b8ff" d="M456.72,-76.91C447.06,-73.46 435.76,-69.49 425.5,-66 392.38,-54.75 355.07,-42.63 325.47,-33.13"/>
<polygon fill="#63b8ff" stroke="#63b8ff" points="326.34,-29.74 315.75,-30.02 324.2,-36.4 326.34,-29.74"/>
</a>
</g>
</g>
<!-- Node11 -->
<g id="Node000011" class="node">
<title>Node11</title>
<g id="a_Node000011"><a xlink:title=" ">
<polygon fill="#e0e0e0" stroke="#999999" points="819.5,-30 703.5,-30 703.5,0 819.5,0 819.5,-30"/>
<text text-anchor="start" x="711.5" y="-18" font-family="Helvetica,sans-Serif" font-size="10.00">boost/archive/binary</text>
<text text-anchor="middle" x="761.5" y="-7" font-family="Helvetica,sans-Serif" font-size="10.00">_iarchive.hpp</text>
</a>
</g>
</g>
<!-- Node9&#45;&gt;Node11 -->
<g id="edge10_Node000009_Node000011" class="edge">
<title>Node9&#45;&gt;Node11</title>
<g id="a_edge10_Node000009_Node000011"><a xlink:title=" ">
<path fill="none" stroke="#63b8ff" d="M502.51,-77C512.49,-73.32 524.5,-69.16 535.5,-66 550.69,-61.65 632.48,-43.78 693.33,-30.64"/>
<polygon fill="#63b8ff" stroke="#63b8ff" points="694.25,-34.02 703.29,-28.49 692.77,-27.18 694.25,-34.02"/>
</a>
</g>
</g>
<!-- Node12 -->
<g id="Node000012" class="node">
<title>Node12</title>
<g id="a_Node000012"><a xlink:title=" ">
<polygon fill="#e0e0e0" stroke="#999999" points="685.5,-30 569.5,-30 569.5,0 685.5,0 685.5,-30"/>
<text text-anchor="start" x="577.5" y="-18" font-family="Helvetica,sans-Serif" font-size="10.00">boost/archive/binary</text>
<text text-anchor="middle" x="627.5" y="-7" font-family="Helvetica,sans-Serif" font-size="10.00">_oarchive.hpp</text>
</a>
</g>
</g>
<!-- Node9&#45;&gt;Node12 -->
<g id="edge11_Node000009_Node000012" class="edge">
<title>Node9&#45;&gt;Node12</title>
<g id="a_edge11_Node000009_Node000012"><a xlink:title=" ">
<path fill="none" stroke="#63b8ff" d="M498.53,-76.98C520.87,-66.41 559.57,-48.12 588.76,-34.31"/>
<polygon fill="#63b8ff" stroke="#63b8ff" points="590.33,-37.45 597.87,-30.01 587.34,-31.12 590.33,-37.45"/>
</a>
</g>
</g>
<!-- Node15&#45;&gt;Node3 -->
<g id="edge22_Node000015_Node000003" class="edge">
<title>Node15&#45;&gt;Node3</title>
<g id="a_edge22_Node000015_Node000003"><a xlink:title=" ">
<path fill="none" stroke="#63b8ff" d="M559.79,-71.42C551.75,-69.36 543.42,-67.44 535.5,-66 364.68,-34.89 316.29,-66.31 146.5,-30 143.44,-29.34 140.28,-28.53 137.15,-27.63"/>
<polygon fill="#63b8ff" stroke="#63b8ff" points="137.95,-24.21 127.36,-24.53 135.84,-30.89 137.95,-24.21"/>
</a>
</g>
</g>
<!-- Node15&#45;&gt;Node11 -->
<g id="edge18_Node000015_Node000011" class="edge">
<title>Node15&#45;&gt;Node11</title>
<g id="a_edge18_Node000015_Node000011"><a xlink:title=" ">
<path fill="none" stroke="#63b8ff" d="M637.87,-71.44C661.82,-60.7 695.01,-45.81 720.97,-34.17"/>
<polygon fill="#63b8ff" stroke="#63b8ff" points="722.49,-37.33 730.18,-30.04 719.62,-30.94 722.49,-37.33"/>
</a>
</g>
</g>
<!-- Node15&#45;&gt;Node12 -->
<g id="edge19_Node000015_Node000012" class="edge">
<title>Node15&#45;&gt;Node12</title>
<g id="a_edge19_Node000015_Node000012"><a xlink:title=" ">
<path fill="none" stroke="#63b8ff" d="M610.75,-71.44C613.48,-62.39 617.1,-50.41 620.28,-39.9"/>
<polygon fill="#63b8ff" stroke="#63b8ff" points="623.71,-40.63 623.26,-30.04 617.01,-38.6 623.71,-40.63"/>
</a>
</g>
</g>
<!-- Node15&#45;&gt;Node14 -->
<g id="edge24_Node000015_Node000014" class="edge">
<title>Node15&#45;&gt;Node14</title>
<g id="a_edge24_Node000015_Node000014"><a xlink:title=" ">
<path fill="none" stroke="#63b8ff" d="M559.39,-71.44C551.46,-69.4 543.28,-67.49 535.5,-66 391.89,-38.55 349.53,-68.57 208.5,-30 206.82,-29.54 205.11,-29 203.4,-28.4"/>
<polygon fill="#63b8ff" stroke="#63b8ff" points="204.46,-25.05 193.87,-24.55 201.83,-31.54 204.46,-25.05"/>
</a>
</g>
</g>
<!-- Node16 -->
<g id="Node000016" class="node">
<title>Node16</title>
<g id="a_Node000016"><a xlink:title=" ">
<polygon fill="#e0e0e0" stroke="#999999" points="1066,-30 961,-30 961,0 1066,0 1066,-30"/>
<text text-anchor="start" x="969" y="-18" font-family="Helvetica,sans-Serif" font-size="10.00">boost/archive/text</text>
<text text-anchor="middle" x="1013.5" y="-7" font-family="Helvetica,sans-Serif" font-size="10.00">_iarchive.hpp</text>
</a>
</g>
</g>
<!-- Node15&#45;&gt;Node16 -->
<g id="edge16_Node000015_Node000016" class="edge">
<title>Node15&#45;&gt;Node16</title>
<g id="a_edge16_Node000015_Node000016"><a xlink:title=" ">
<path fill="none" stroke="#63b8ff" d="M668.28,-76.86C735.5,-67.17 846.33,-50.37 950.88,-30.25"/>
<polygon fill="#63b8ff" stroke="#63b8ff" points="951.82,-33.63 960.97,-28.29 950.49,-26.76 951.82,-33.63"/>
</a>
</g>
</g>
<!-- Node17 -->
<g id="Node000017" class="node">
<title>Node17</title>
<g id="a_Node000017"><a xlink:title=" ">
<polygon fill="#e0e0e0" stroke="#999999" points="943,-30 838,-30 838,0 943,0 943,-30"/>
<text text-anchor="start" x="846" y="-18" font-family="Helvetica,sans-Serif" font-size="10.00">boost/archive/text</text>
<text text-anchor="middle" x="890.5" y="-7" font-family="Helvetica,sans-Serif" font-size="10.00">_oarchive.hpp</text>
</a>
</g>
</g>
<!-- Node15&#45;&gt;Node17 -->
<g id="edge17_Node000015_Node000017" class="edge">
<title>Node15&#45;&gt;Node17</title>
<g id="a_edge17_Node000015_Node000017"><a xlink:title=" ">
<path fill="none" stroke="#63b8ff" d="M663.97,-71.44C711.58,-59.78 779.13,-43.25 828.07,-31.28"/>
<polygon fill="#63b8ff" stroke="#63b8ff" points="829.02,-34.65 837.9,-28.87 827.36,-27.85 829.02,-34.65"/>
</a>
</g>
</g>
<!-- Node18 -->
<g id="Node000018" class="node">
<title>Node18</title>
<g id="a_Node000018"><a xlink:title=" ">
<polygon fill="#e0e0e0" stroke="#999999" points="1203.5,-24.5 1159.5,-24.5 1159.5,-5.5 1203.5,-5.5 1203.5,-24.5"/>
<text text-anchor="middle" x="1181.5" y="-12.5" font-family="Helvetica,sans-Serif" font-size="10.00">string</text>
</a>
</g>
</g>
<!-- Node15&#45;&gt;Node18 -->
<g id="edge20_Node000015_Node000018" class="edge">
<title>Node15&#45;&gt;Node18</title>
<g id="a_edge20_Node000015_Node000018"><a xlink:title=" ">
<path fill="none" stroke="#63b8ff" d="M668.11,-79.75C805.64,-66.84 1127.48,-36.2 1150.5,-30 1152.19,-29.55 1153.9,-29.01 1155.6,-28.42"/>
<polygon fill="#63b8ff" stroke="#63b8ff" points="1157.17,-31.56 1165.13,-24.58 1154.55,-25.07 1157.17,-31.56"/>
</a>
</g>
</g>
<!-- Node19 -->
<g id="Node000019" class="node">
<title>Node19</title>
<g id="a_Node000019"><a xlink:title=" ">
<polygon fill="#e0e0e0" stroke="#999999" points="390,-24.5 343,-24.5 343,-5.5 390,-5.5 390,-24.5"/>
<text text-anchor="middle" x="366.5" y="-12.5" font-family="Helvetica,sans-Serif" font-size="10.00">cmath</text>
</a>
</g>
</g>
<!-- Node15&#45;&gt;Node19 -->
<g id="edge21_Node000015_Node000019" class="edge">
<title>Node15&#45;&gt;Node19</title>
<g id="a_edge21_Node000015_Node000019"><a xlink:title=" ">
<path fill="none" stroke="#63b8ff" d="M555.71,-71.48C548.92,-69.62 542.04,-67.76 535.5,-66 474.7,-49.66 457.96,-50.68 398.5,-30 397.1,-29.51 395.68,-28.99 394.26,-28.45"/>
<polygon fill="#63b8ff" stroke="#63b8ff" points="395.5,-25.18 384.92,-24.64 392.85,-31.66 395.5,-25.18"/>
</a>
</g>
</g>
<!-- Node20 -->
<g id="Node000020" class="node">
<title>Node20</title>
<g id="a_Node000020"><a xlink:title=" ">
<polygon fill="#e0e0e0" stroke="#999999" points="551.5,-24.5 491.5,-24.5 491.5,-5.5 551.5,-5.5 551.5,-24.5"/>
<text text-anchor="middle" x="521.5" y="-12.5" font-family="Helvetica,sans-Serif" font-size="10.00">iostream</text>
</a>
</g>
</g>
<!-- Node15&#45;&gt;Node20 -->
<g id="edge23_Node000015_Node000020" class="edge">
<title>Node15&#45;&gt;Node20</title>
<g id="a_edge23_Node000015_Node000020"><a xlink:title=" ">
<path fill="none" stroke="#63b8ff" d="M589.3,-71.44C575.02,-59.76 554.76,-43.2 540.11,-31.22"/>
<polygon fill="#63b8ff" stroke="#63b8ff" points="542.18,-28.39 532.22,-24.77 537.75,-33.81 542.18,-28.39"/>
</a>
</g>
</g>
<!-- Node21 -->
<g id="Node000021" class="node">
<title>Node21</title>
<g id="a_Node000021"><a xlink:title=" ">
<polygon fill="#e0e0e0" stroke="#999999" points="473,-24.5 408,-24.5 408,-5.5 473,-5.5 473,-24.5"/>
<text text-anchor="middle" x="440.5" y="-12.5" font-family="Helvetica,sans-Serif" font-size="10.00">functional</text>
</a>
</g>
</g>
<!-- Node15&#45;&gt;Node21 -->
<g id="edge25_Node000015_Node000021" class="edge">
<title>Node15&#45;&gt;Node21</title>
<g id="a_edge25_Node000015_Node000021"><a xlink:title=" ">
<path fill="none" stroke="#63b8ff" d="M572.91,-71.44C542.91,-58.88 499.37,-40.65 470.51,-28.57"/>
<polygon fill="#63b8ff" stroke="#63b8ff" points="471.54,-25.2 460.96,-24.57 468.84,-31.66 471.54,-25.2"/>
</a>
</g>
</g>
<!-- Node22&#45;&gt;Node2 -->
<g id="edge27_Node000022_Node000002" class="edge">
<title>Node22&#45;&gt;Node2</title>
<g id="a_edge27_Node000022_Node000002"><a xlink:title=" ">
<path fill="none" stroke="#63b8ff" d="M114.92,-219.98C103.58,-208.72 83.41,-188.69 69.28,-174.67"/>
<polygon fill="#63b8ff" stroke="#63b8ff" points="71.72,-172.15 62.15,-167.59 66.78,-177.12 71.72,-172.15"/>
</a>
</g>
</g>
<!-- Node22&#45;&gt;Node5 -->
<g id="edge28_Node000022_Node000005" class="edge">
<title>Node22&#45;&gt;Node5</title>
<g id="a_edge28_Node000022_Node000005"><a xlink:title=" ">
<path fill="none" stroke="#63b8ff" d="M127.3,-219.98C131.45,-210.68 138.27,-195.38 144.04,-182.44"/>
<polygon fill="#63b8ff" stroke="#63b8ff" points="147.32,-183.7 148.19,-173.14 140.92,-180.84 147.32,-183.7"/>
</a>
</g>
</g>
<!-- Node23&#45;&gt;Node18 -->
<g id="edge31_Node000023_Node000018" class="edge">
<title>Node23&#45;&gt;Node18</title>
<g id="a_edge31_Node000023_Node000018"><a xlink:title=" ">
<path fill="none" stroke="#63b8ff" d="M1124.77,-148.46C1105.5,-140.91 1081.25,-127.8 1069.5,-107 1060.54,-91.14 1059.57,-81.28 1069.5,-66 1090.97,-32.97 1114.55,-46.11 1150.5,-30 1151.35,-29.62 1152.21,-29.23 1153.08,-28.84"/>
<polygon fill="#63b8ff" stroke="#63b8ff" points="1154.81,-31.9 1162.49,-24.61 1151.94,-25.52 1154.81,-31.9"/>
</a>
</g>
</g>
<!-- Node24 -->
<g id="Node000024" class="node">
<title>Node24</title>
<g id="a_Node000024"><a xlink:title=" ">
<polygon fill="#e0e0e0" stroke="#999999" points="1134.5,-96 1078.5,-96 1078.5,-77 1134.5,-77 1134.5,-96"/>
<text text-anchor="middle" x="1106.5" y="-84" font-family="Helvetica,sans-Serif" font-size="10.00">sstream</text>
</a>
</g>
</g>
<!-- Node23&#45;&gt;Node24 -->
<g id="edge30_Node000023_Node000024" class="edge">
<title>Node23&#45;&gt;Node24</title>
<g id="a_edge30_Node000023_Node000024"><a xlink:title=" ">
<path fill="none" stroke="#63b8ff" d="M1146.86,-148.48C1139.69,-137.64 1127.13,-118.66 1117.92,-104.75"/>
<polygon fill="#63b8ff" stroke="#63b8ff" points="1120.62,-102.5 1112.19,-96.09 1114.79,-106.36 1120.62,-102.5"/>
</a>
</g>
</g>
<!-- Node25 -->
<g id="Node000025" class="node">
<title>Node25</title>
<g id="a_Node000025"><a xlink:title=" ">
<polygon fill="#e0e0e0" stroke="#999999" points="1246,-96 1153,-96 1153,-77 1246,-77 1246,-96"/>
<text text-anchor="middle" x="1199.5" y="-84" font-family="Helvetica,sans-Serif" font-size="10.00">unordered_map</text>
</a>
</g>
</g>
<!-- Node23&#45;&gt;Node25 -->
<g id="edge32_Node000023_Node000025" class="edge">
<title>Node23&#45;&gt;Node25</title>
<g id="a_edge32_Node000023_Node000025"><a xlink:title=" ">
<path fill="none" stroke="#63b8ff" d="M1158.26,-148.48C1165.59,-137.64 1178.42,-118.66 1187.83,-104.75"/>
<polygon fill="#63b8ff" stroke="#63b8ff" points="1190.99,-106.34 1193.69,-96.09 1185.19,-102.41 1190.99,-106.34"/>
</a>
</g>
</g>
<!-- Node26 -->
<g id="Node000026" class="node">
<title>Node26</title>
<g id="a_Node000026"><a xlink:title=" ">
<polygon fill="#e0e0e0" stroke="#999999" points="1431,-96 1264,-96 1264,-77 1431,-77 1431,-96"/>
<text text-anchor="middle" x="1347.5" y="-84" font-family="Helvetica,sans-Serif" font-size="10.00">magic_enum/magic_enum.hpp</text>
</a>
</g>
</g>
<!-- Node23&#45;&gt;Node26 -->
<g id="edge33_Node000023_Node000026" class="edge">
<title>Node23&#45;&gt;Node26</title>
<g id="a_edge33_Node000023_Node000026"><a xlink:title=" ">
<path fill="none" stroke="#63b8ff" d="M1176.41,-148.48C1210.84,-136.21 1274.54,-113.5 1313.75,-99.53"/>
<polygon fill="#63b8ff" stroke="#63b8ff" points="1315.15,-102.75 1323.39,-96.09 1312.8,-96.15 1315.15,-102.75"/>
</a>
</g>
</g>
<!-- Node27 -->
<g id="Node000027" class="node">
<title>Node27</title>
<g id="a_Node000027"><a xlink:href="LineInfoException_8h.html" target="_top" xlink:title="Exception class with detailed file and line information for error reporting.">
<polygon fill="white" stroke="#666666" points="1618,-96 1449,-96 1449,-77 1618,-77 1618,-96"/>
<text text-anchor="middle" x="1533.5" y="-84" font-family="Helvetica,sans-Serif" font-size="10.00">Exceptions/LineInfoException.h</text>
</a>
</g>
</g>
<!-- Node23&#45;&gt;Node27 -->
<g id="edge34_Node000023_Node000027" class="edge">
<title>Node23&#45;&gt;Node27</title>
<g id="a_edge34_Node000023_Node000027"><a xlink:title=" ">
<path fill="none" stroke="#63b8ff" d="M1204.89,-148.47C1262.68,-138.92 1358.39,-122.73 1440.5,-107 1454.71,-104.28 1470.1,-101.13 1484.19,-98.17"/>
<polygon fill="#63b8ff" stroke="#63b8ff" points="1485.13,-101.55 1494.19,-96.06 1483.68,-94.7 1485.13,-101.55"/>
</a>
</g>
</g>
<!-- Node27&#45;&gt;Node18 -->
<g id="edge36_Node000027_Node000018" class="edge">
<title>Node27&#45;&gt;Node18</title>
<g id="a_edge36_Node000027_Node000018"><a xlink:title=" ">
<path fill="none" stroke="#63b8ff" d="M1493.25,-76.91C1476.89,-73.46 1457.8,-69.48 1440.5,-66 1358.94,-49.58 1262.71,-31.28 1213.7,-22.04"/>
<polygon fill="#63b8ff" stroke="#63b8ff" points="1214.17,-18.57 1203.7,-20.16 1212.88,-25.45 1214.17,-18.57"/>
</a>
</g>
</g>
<!-- Node28 -->
<g id="Node000028" class="node">
<title>Node28</title>
<g id="a_Node000028"><a xlink:title=" ">
<polygon fill="#e0e0e0" stroke="#999999" points="1566,-24.5 1501,-24.5 1501,-5.5 1566,-5.5 1566,-24.5"/>
<text text-anchor="middle" x="1533.5" y="-12.5" font-family="Helvetica,sans-Serif" font-size="10.00">exception</text>
</a>
</g>
</g>
<!-- Node27&#45;&gt;Node28 -->
<g id="edge35_Node000027_Node000028" class="edge">
<title>Node27&#45;&gt;Node28</title>
<g id="a_edge35_Node000027_Node000028"><a xlink:title=" ">
<path fill="none" stroke="#63b8ff" d="M1533.5,-76.98C1533.5,-66.56 1533.5,-48.61 1533.5,-34.88"/>
<polygon fill="#63b8ff" stroke="#63b8ff" points="1537,-34.59 1533.5,-24.59 1530,-34.59 1537,-34.59"/>
</a>
</g>
</g>
<!-- Node31&#45;&gt;Node8 -->
<g id="edge44_Node000031_Node000008" class="edge">
<title>Node31&#45;&gt;Node8</title>
<g id="a_edge44_Node000031_Node000008"><a xlink:title=" ">
<path fill="none" stroke="#63b8ff" d="M673.48,-208.96C634.85,-196.58 586.22,-181.01 553.62,-170.57"/>
<polygon fill="#63b8ff" stroke="#63b8ff" points="554.64,-167.22 544.05,-167.5 552.51,-173.89 554.64,-167.22"/>
</a>
</g>
</g>
<!-- Node31&#45;&gt;Node11 -->
<g id="edge42_Node000031_Node000011" class="edge">
<title>Node31&#45;&gt;Node11</title>
<g id="a_edge42_Node000031_Node000011"><a xlink:title=" ">
<path fill="none" stroke="#63b8ff" d="M736.99,-208.89C741.95,-169.85 753.05,-82.54 758.44,-40.09"/>
<polygon fill="#63b8ff" stroke="#63b8ff" points="761.92,-40.45 759.71,-30.09 754.98,-39.57 761.92,-40.45"/>
</a>
</g>
</g>
<!-- Node31&#45;&gt;Node12 -->
<g id="edge43_Node000031_Node000012" class="edge">
<title>Node31&#45;&gt;Node12</title>
<g id="a_edge43_Node000031_Node000012"><a xlink:title=" ">
<path fill="none" stroke="#63b8ff" d="M730.37,-208.78C723.09,-176.92 705.89,-112.98 676.5,-66 669.92,-55.48 660.79,-45.4 652.2,-37.08"/>
<polygon fill="#63b8ff" stroke="#63b8ff" points="654.57,-34.5 644.86,-30.26 649.8,-39.63 654.57,-34.5"/>
</a>
</g>
</g>
<!-- Node31&#45;&gt;Node16 -->
<g id="edge40_Node000031_Node000016" class="edge">
<title>Node31&#45;&gt;Node16</title>
<g id="a_edge40_Node000031_Node000016"><a xlink:title=" ">
<path fill="none" stroke="#63b8ff" d="M750.81,-208.85C759.01,-198.51 768.81,-185.44 776.5,-173 804.41,-127.86 788.51,-99.7 829.5,-66 834.41,-61.96 899.67,-44.77 951.09,-31.66"/>
<polygon fill="#63b8ff" stroke="#63b8ff" points="952.01,-35.04 960.84,-29.18 950.28,-28.26 952.01,-35.04"/>
</a>
</g>
</g>
<!-- Node31&#45;&gt;Node17 -->
<g id="edge41_Node000031_Node000017" class="edge">
<title>Node31&#45;&gt;Node17</title>
<g id="a_edge41_Node000031_Node000017"><a xlink:title=" ">
<path fill="none" stroke="#63b8ff" d="M742.91,-208.81C747.36,-198.23 752.85,-184.96 757.5,-173 775.86,-125.83 763.29,-104.2 796.5,-66 808.16,-52.59 824.32,-42.2 839.95,-34.46"/>
<polygon fill="#63b8ff" stroke="#63b8ff" points="841.48,-37.6 849.06,-30.2 838.52,-31.26 841.48,-37.6"/>
</a>
</g>
</g>
<!-- Node32&#45;&gt;Node7 -->
<g id="edge46_Node000032_Node000007" class="edge">
<title>Node32&#45;&gt;Node7</title>
<g id="a_edge46_Node000032_Node000007"><a xlink:title=" ">
<path fill="none" stroke="#63b8ff" d="M970.89,-65.97C1002.11,-55.55 1040.98,-42.37 1075.5,-30 1077.14,-29.41 1078.83,-28.8 1080.53,-28.18"/>
<polygon fill="#63b8ff" stroke="#63b8ff" points="1082.09,-31.33 1090.24,-24.57 1079.65,-24.77 1082.09,-31.33"/>
</a>
</g>
</g>
<!-- Node32&#45;&gt;Node11 -->
<g id="edge50_Node000032_Node000011" class="edge">
<title>Node32&#45;&gt;Node11</title>
<g id="a_edge50_Node000032_Node000011"><a xlink:title=" ">
<path fill="none" stroke="#63b8ff" d="M869.32,-65.96C847.98,-56.07 822.22,-44.13 801.23,-34.41"/>
<polygon fill="#63b8ff" stroke="#63b8ff" points="802.5,-31.14 791.96,-30.11 799.56,-37.49 802.5,-31.14"/>
</a>
</g>
</g>
<!-- Node32&#45;&gt;Node12 -->
<g id="edge51_Node000032_Node000012" class="edge">
<title>Node32&#45;&gt;Node12</title>
<g id="a_edge51_Node000032_Node000012"><a xlink:title=" ">
<path fill="none" stroke="#63b8ff" d="M838.73,-67.69C794.36,-56.83 738.06,-43.05 694.74,-32.45"/>
<polygon fill="#63b8ff" stroke="#63b8ff" points="695.41,-29.01 684.86,-30.04 693.74,-35.81 695.41,-29.01"/>
</a>
</g>
</g>
<!-- Node32&#45;&gt;Node16 -->
<g id="edge48_Node000032_Node000016" class="edge">
<title>Node32&#45;&gt;Node16</title>
<g id="a_edge48_Node000032_Node000016"><a xlink:title=" ">
<path fill="none" stroke="#63b8ff" d="M940.18,-65.96C953.91,-56.6 970.33,-45.42 984.14,-36.01"/>
<polygon fill="#63b8ff" stroke="#63b8ff" points="986.49,-38.64 992.79,-30.11 982.55,-32.85 986.49,-38.64"/>
</a>
</g>
</g>
<!-- Node32&#45;&gt;Node17 -->
<g id="edge49_Node000032_Node000017" class="edge">
<title>Node32&#45;&gt;Node17</title>
<g id="a_edge49_Node000032_Node000017"><a xlink:title=" ">
<path fill="none" stroke="#63b8ff" d="M905.54,-65.77C903.09,-57.67 900.23,-48.22 897.67,-39.74"/>
<polygon fill="#63b8ff" stroke="#63b8ff" points="900.98,-38.6 894.74,-30.04 894.28,-40.62 900.98,-38.6"/>
</a>
</g>
</g>
<!-- Node32&#45;&gt;Node18 -->
<g id="edge47_Node000032_Node000018" class="edge">
<title>Node32&#45;&gt;Node18</title>
<g id="a_edge47_Node000032_Node000018"><a xlink:title=" ">
<path fill="none" stroke="#63b8ff" d="M984.17,-72.48C1032.07,-62.96 1095.82,-48.49 1150.5,-30 1151.9,-29.53 1153.32,-29.01 1154.75,-28.47"/>
<polygon fill="#63b8ff" stroke="#63b8ff" points="1156.15,-31.68 1164.04,-24.61 1153.46,-25.21 1156.15,-31.68"/>
</a>
</g>
</g>
</g>
</svg>

<g id="navigator" transform="translate(0 0)" fill="#404254">
  <rect fill="#f2f5e9" fill-opacity="0.5" stroke="#606060" stroke-width=".5" x="0" y="0" width="60" height="60"/>
  <use id="zoomplus" xlink:href="#zoomPlus" x="17" y="9" onmousedown="handleZoom(evt,'in')"/>
  <use id="zoomminus" xlink:href="#zoomMin" x="42" y="9" onmousedown="handleZoom(evt,'out')"/>
  <use id="reset" xlink:href="#resetDef" x="30" y="36" onmousedown="handleReset()"/>
   <use id="arrowup" xlink:href="#arrowUp" x="0" y="0" onmousedown="handlePan(0,-1)"/>
  <use id="arrowright" xlink:href="#arrowRight" x="0" y="0" onmousedown="handlePan(1,0)"/>
  <use id="arrowdown" xlink:href="#arrowDown" x="0" y="0" onmousedown="handlePan(0,1)"/>
  <use id="arrowleft" xlink:href="#arrowLeft" x="0" y="0" onmousedown="handlePan(-1,0)"/>
</g>
<svg viewBox="0 0 15 15" width="100%" height="30px" preserveAspectRatio="xMaxYMin meet">
 <g id="arrow_out" transform="scale(0.3 0.3)">
  <a xlink:href="AnimalSearchParams_8h__incl_org.svg" target="_base">
   <rect id="button" ry="5" rx="5" y="6" x="6" height="38" width="38"
        fill="#f2f5e9" fill-opacity="0.5" stroke="#606060" stroke-width="1.0"/>
   <path id="arrow"
     d="M 11.500037,31.436501 C 11.940474,20.09759 22.043105,11.32322 32.158766,21.979434 L 37.068811,17.246167 C 37.068811,17.246167 37.088388,32 37.088388,32 L 22.160133,31.978069 C 22.160133,31.978069 26.997745,27.140456 26.997745,27.140456 C 18.528582,18.264221 13.291696,25.230495 11.500037,31.436501 z"
     style="fill:#404040;"/>
  </a>
 </g>
</svg>

<style type='text/css'>
<![CDATA[
[data-mouse-over-selected='false'] { opacity: 0.7; }
[data-mouse-over-selected='true']  { opacity: 1.0; }
]]>
</style>
<script type="application/ecmascript"><![CDATA[
document.addEventListener('DOMContentLoaded', (event) => {
  highlightEdges();
  highlightAdjacentNodes();
});
]]></script>
</svg>
