<?xml version="1.0" encoding="UTF-8" standalone="no"?>
<!DOCTYPE svg PUBLIC "-//W3C//DTD SVG 1.1//EN"
 "http://www.w3.org/Graphics/SVG/1.1/DTD/svg11.dtd">
<!-- Generated by graphviz version 2.43.0 (0)
 -->
<!-- Title: PredationProbability Pages: 1 -->
<!--zoomable 227 -->

<svg id="main" version="1.1" xmlns="http://www.w3.org/2000/svg" xmlns:xlink="http://www.w3.org/1999/xlink" xml:space="preserve" onload="init(evt)">
<style type="text/css"><![CDATA[
.node, .edge {opacity: 0.7;}
.node.selected, .edge.selected {opacity: 1;}
.edge:hover path { stroke: red; }
.edge:hover polygon { stroke: red; fill: red; }
]]></style>

<defs>
  <circle id="rim" cx="0" cy="0" r="7"/>
  <circle id="rim2" cx="0" cy="0" r="3.5"/>
  <g id="zoomPlus">
    <use xlink:href="#rim" fill="#404040"><set attributeName="fill" to="#808080" begin="zoomplus.mouseover" end="zoomplus.mouseout"/></use>
    <path d="M-4,0h8M0,-4v8" fill="none" stroke="white" stroke-width="1.5" pointer-events="none"/>
  </g>
  <g id="zoomMin">
    <use xlink:href="#rim" fill="#404040"><set attributeName="fill" to="#808080" begin="zoomminus.mouseover" end="zoomminus.mouseout"/></use>
    <path d="M-4,0h8" fill="none" stroke="white" stroke-width="1.5" pointer-events="none"/>
  </g>
  <g id="arrowUp" transform="translate(30 24)">
    <use xlink:href="#rim"/>
    <path pointer-events="none" fill="none" stroke="white" stroke-width="1.5" d="M0,-3.0v7 M-2.5,-0.5L0,-3.0L2.5,-0.5"/>
  </g>
  <g id="arrowRight" transform="rotate(90) translate(36 -43)">
    <use xlink:href="#rim"/>
    <path pointer-events="none" fill="none" stroke="white" stroke-width="1.5" d="M0,-3.0v7 M-2.5,-0.5L0,-3.0L2.5,-0.5"/>
  </g>
  <g id="arrowDown" transform="rotate(180) translate(-30 -48)">
    <use xlink:href="#rim"/>
    <path pointer-events="none" fill="none" stroke="white" stroke-width="1.5" d="M0,-3.0v7 M-2.5,-0.5L0,-3.0L2.5,-0.5"/>
  </g>
  <g id="arrowLeft" transform="rotate(270) translate(-36 17)">
    <use xlink:href="#rim"/>
    <path pointer-events="none" fill="none" stroke="white" stroke-width="1.5" d="M0,-3.0v7 M-2.5,-0.5L0,-3.0L2.5,-0.5"/>
  </g>
  <g id="resetDef">
    <use xlink:href="#rim2" fill="#404040"><set attributeName="fill" to="#808080" begin="reset.mouseover" end="reset.mouseout"/></use>
  </g>
</defs>
<script type="application/ecmascript">
var viewWidth = 889;
var viewHeight = 227;
var sectionId = 'dynsection-1';
</script>
<script type="application/ecmascript" xlink:href="svg.min.js"/>
<svg id="graph" class="graph">
<g id="viewport">
<title>PredationProbability</title>
<!-- Node1 -->
<g id="Node000001" class="node">
<title>Node1</title>
<g id="a_Node000001"><a xlink:title="Manages predation probability functions for species across different instars.">
<polygon fill="#999999" stroke="#666666" points="881,-109.5 765,-109.5 765,-90.5 881,-90.5 881,-109.5"/>
<text text-anchor="middle" x="823" y="-97.5" font-family="Helvetica,sans-Serif" font-size="10.00">PredationProbability</text>
</a>
</g>
</g>
<!-- Node2 -->
<g id="Node000002" class="node">
<title>Node2</title>
<g id="a_Node000002"><a xlink:href="classEdibleDecisionProbability.html" target="_top" xlink:title="Base class for computing probabilities related to edible prey decisions.">
<polygon fill="white" stroke="#666666" points="477,-218.5 336,-218.5 336,-199.5 477,-199.5 477,-218.5"/>
<text text-anchor="middle" x="406.5" y="-206.5" font-family="Helvetica,sans-Serif" font-size="10.00">EdibleDecisionProbability</text>
</a>
</g>
</g>
<!-- Node2&#45;&gt;Node1 -->
<g id="edge1_Node000001_Node000002" class="edge">
<title>Node2&#45;&gt;Node1</title>
<g id="a_edge1_Node000001_Node000002"><a xlink:title=" ">
<path fill="none" stroke="#63b8ff" d="M481.21,-197.8C550.85,-186.08 657.66,-165.16 747,-135 767.28,-128.15 789.36,-117.42 804.28,-109.64"/>
<polygon fill="#63b8ff" stroke="#63b8ff" points="480.5,-194.37 471.21,-199.46 481.65,-201.27 480.5,-194.37"/>
</a>
</g>
</g>
<!-- Node3 -->
<g id="Node000003" class="node">
<title>Node3</title>
<g id="a_Node000003"><a xlink:href="classDecisionProbability.html" target="_top" xlink:title="Abstract base class for probability calculations in predator&#45;prey decisions.">
<polygon fill="white" stroke="#666666" points="111,-215.5 0,-215.5 0,-196.5 111,-196.5 111,-215.5"/>
<text text-anchor="middle" x="55.5" y="-203.5" font-family="Helvetica,sans-Serif" font-size="10.00">DecisionProbability</text>
</a>
</g>
</g>
<!-- Node3&#45;&gt;Node2 -->
<g id="edge2_Node000002_Node000003" class="edge">
<title>Node3&#45;&gt;Node2</title>
<g id="a_edge2_Node000002_Node000003"><a xlink:title=" ">
<path fill="none" stroke="#63b8ff" d="M121.29,-206.56C182.23,-207.08 273.2,-207.86 335.71,-208.4"/>
<polygon fill="#63b8ff" stroke="#63b8ff" points="121.06,-203.05 111.03,-206.47 121,-210.05 121.06,-203.05"/>
</a>
</g>
</g>
<!-- Node5 -->
<g id="Node000005" class="node">
<title>Node5</title>
<g id="a_Node000005"><a xlink:href="classAnimalDecisionProbability.html" target="_top" xlink:title="Abstract class for decision probabilities specific to animal interactions.">
<polygon fill="white" stroke="#666666" points="318,-190.5 172,-190.5 172,-171.5 318,-171.5 318,-190.5"/>
<text text-anchor="middle" x="245" y="-178.5" font-family="Helvetica,sans-Serif" font-size="10.00">AnimalDecisionProbability</text>
</a>
</g>
</g>
<!-- Node3&#45;&gt;Node5 -->
<g id="edge5_Node000005_Node000003" class="edge">
<title>Node3&#45;&gt;Node5</title>
<g id="a_edge5_Node000005_Node000003"><a xlink:title=" ">
<path fill="none" stroke="#63b8ff" d="M121.31,-197.36C137.81,-195.16 155.63,-192.78 172.44,-190.54"/>
<polygon fill="#63b8ff" stroke="#63b8ff" points="120.69,-193.91 111.24,-198.7 121.61,-200.85 120.69,-193.91"/>
</a>
</g>
</g>
<!-- Node4 -->
<g id="Node000004" class="node">
<title>Node4</title>
<g id="a_Node000004"><a xlink:href="classEscapeProbability.html" target="_top" xlink:title="Manages the escape probability functions for a prey in predator&#45;prey interactions.">
<polygon fill="white" stroke="#666666" points="618.5,-141.5 514.5,-141.5 514.5,-122.5 618.5,-122.5 618.5,-141.5"/>
<text text-anchor="middle" x="566.5" y="-129.5" font-family="Helvetica,sans-Serif" font-size="10.00">EscapeProbability</text>
</a>
</g>
</g>
<!-- Node4&#45;&gt;Node1 -->
<g id="edge3_Node000001_Node000004" class="edge">
<title>Node4&#45;&gt;Node1</title>
<g id="a_edge3_Node000001_Node000004"><a xlink:title=" ">
<path fill="none" stroke="#9a32cd" stroke-dasharray="5,2" d="M628.64,-124.31C669.97,-119.12 724.17,-112.3 764.67,-107.21"/>
<polygon fill="#9a32cd" stroke="#9a32cd" points="628.18,-120.84 618.7,-125.56 629.05,-127.79 628.18,-120.84"/>
</a>
</g>
<text text-anchor="middle" x="701.5" y="-123" font-family="Helvetica,sans-Serif" font-size="10.00" fill="grey"> escapeProbability</text>
</g>
<!-- Node5&#45;&gt;Node4 -->
<g id="edge4_Node000004_Node000005" class="edge">
<title>Node5&#45;&gt;Node4</title>
<g id="a_edge4_Node000004_Node000005"><a xlink:title=" ">
<path fill="none" stroke="#63b8ff" d="M328.36,-175.25C372.66,-171.36 428.09,-165.22 477,-156 496.56,-152.31 518.11,-146.51 535.06,-141.53"/>
<polygon fill="#63b8ff" stroke="#63b8ff" points="327.89,-171.77 318.22,-176.11 328.49,-178.75 327.89,-171.77"/>
</a>
</g>
</g>
<!-- Node6 -->
<g id="Node000006" class="node">
<title>Node6</title>
<g id="a_Node000006"><a xlink:href="classSensoryModel.html" target="_top" xlink:title="Represents a sensory detection model used to calculate the probability of detecting an object based o...">
<polygon fill="white" stroke="#666666" points="288,-105.5 202,-105.5 202,-86.5 288,-86.5 288,-105.5"/>
<text text-anchor="middle" x="245" y="-93.5" font-family="Helvetica,sans-Serif" font-size="10.00">SensoryModel</text>
</a>
</g>
</g>
<!-- Node6&#45;&gt;Node4 -->
<g id="edge6_Node000004_Node000006" class="edge">
<title>Node6&#45;&gt;Node4</title>
<g id="a_edge6_Node000004_Node000006"><a xlink:title=" ">
<path fill="none" stroke="#9a32cd" stroke-dasharray="5,2" d="M298.48,-99.61C345.38,-103.11 415.93,-109.06 477,-117 489.05,-118.57 501.98,-120.57 514.12,-122.6"/>
<polygon fill="#9a32cd" stroke="#9a32cd" points="298.49,-96.1 288.26,-98.86 297.98,-103.08 298.49,-96.1"/>
</a>
</g>
<text text-anchor="middle" x="406.5" y="-120" font-family="Helvetica,sans-Serif" font-size="10.00" fill="grey"> sensoryModel</text>
</g>
<!-- Node7 -->
<g id="Node000007" class="node">
<title>Node7</title>
<g id="a_Node000007"><a xlink:href="classPreciseDouble.html" target="_top" xlink:title="Class for precise double&#45;precision floating&#45;point arithmetic.">
<polygon fill="white" stroke="#666666" points="98.5,-105.5 12.5,-105.5 12.5,-86.5 98.5,-86.5 98.5,-105.5"/>
<text text-anchor="middle" x="55.5" y="-93.5" font-family="Helvetica,sans-Serif" font-size="10.00">PreciseDouble</text>
</a>
</g>
</g>
<!-- Node7&#45;&gt;Node1 -->
<g id="edge10_Node000001_Node000007" class="edge">
<title>Node7&#45;&gt;Node1</title>
<g id="a_edge10_Node000001_Node000007"><a xlink:title=" ">
<path fill="none" stroke="#9a32cd" stroke-dasharray="5,2" d="M108.58,-85.58C128.35,-82.12 151.13,-78.71 172,-77 390.61,-59.14 651.71,-81.63 764.95,-93.51"/>
<polygon fill="#9a32cd" stroke="#9a32cd" points="107.76,-82.17 98.54,-87.39 109,-89.06 107.76,-82.17"/>
</a>
</g>
<text text-anchor="middle" x="406.5" y="-76" font-family="Helvetica,sans-Serif" font-size="10.00" fill="grey"> pdfThreshold</text>
</g>
<!-- Node7&#45;&gt;Node4 -->
<g id="edge8_Node000004_Node000007" class="edge">
<title>Node7&#45;&gt;Node4</title>
<g id="a_edge8_Node000004_Node000007"><a xlink:title=" ">
<path fill="none" stroke="#9a32cd" stroke-dasharray="5,2" d="M108.49,-107.48C115.37,-108.79 122.34,-110 129,-111 147.98,-113.84 152.88,-113.35 172,-115 244.85,-121.28 262.97,-124.47 336,-128 397.3,-130.96 467.9,-131.81 514.43,-132.01"/>
<polygon fill="#9a32cd" stroke="#9a32cd" points="109.02,-104.02 98.53,-105.52 107.66,-110.89 109.02,-104.02"/>
</a>
</g>
<text text-anchor="middle" x="245" y="-130" font-family="Helvetica,sans-Serif" font-size="10.00" fill="grey"> cVelocity</text>
</g>
<!-- Node7&#45;&gt;Node6 -->
<g id="edge7_Node000006_Node000007" class="edge">
<title>Node7&#45;&gt;Node6</title>
<g id="a_edge7_Node000006_Node000007"><a xlink:title=" ">
<path fill="none" stroke="#9a32cd" stroke-dasharray="5,2" d="M108.65,-96C138,-96 174.17,-96 201.74,-96"/>
<polygon fill="#9a32cd" stroke="#9a32cd" points="108.58,-92.5 98.58,-96 108.58,-99.5 108.58,-92.5"/>
</a>
</g>
<text text-anchor="middle" x="141.5" y="-99" font-family="Helvetica,sans-Serif" font-size="10.00" fill="grey"> beta</text>
</g>
<!-- Node8 -->
<g id="Node000008" class="node">
<title>Node8</title>
<g id="a_Node000008"><a xlink:href="classCustomIndexedVector.html" target="_top" xlink:title=" ">
<polygon fill="white" stroke="#666666" points="638,-30 495,-30 495,0 638,0 638,-30"/>
<text text-anchor="start" x="503" y="-18" font-family="Helvetica,sans-Serif" font-size="10.00">CustomIndexedVector</text>
<text text-anchor="middle" x="566.5" y="-7" font-family="Helvetica,sans-Serif" font-size="10.00">&lt; Instar, PreciseDouble &gt;</text>
</a>
</g>
</g>
<!-- Node8&#45;&gt;Node1 -->
<g id="edge9_Node000001_Node000008" class="edge">
<title>Node8&#45;&gt;Node1</title>
<g id="a_edge9_Node000001_Node000008"><a xlink:title=" ">
<path fill="none" stroke="#9a32cd" stroke-dasharray="5,2" d="M648.44,-12.5C680.29,-14.2 716.48,-19.57 747,-33 776.41,-45.94 802.29,-74.89 814.52,-90.15"/>
<polygon fill="#9a32cd" stroke="#9a32cd" points="648.39,-9 638.26,-12.08 648.1,-15.99 648.39,-9"/>
</a>
</g>
<text text-anchor="middle" x="701.5" y="-36" font-family="Helvetica,sans-Serif" font-size="10.00" fill="grey"> maximumPDF</text>
</g>
</g>
</svg>

<g id="navigator" transform="translate(0 0)" fill="#404254">
  <rect fill="#f2f5e9" fill-opacity="0.5" stroke="#606060" stroke-width=".5" x="0" y="0" width="60" height="60"/>
  <use id="zoomplus" xlink:href="#zoomPlus" x="17" y="9" onmousedown="handleZoom(evt,'in')"/>
  <use id="zoomminus" xlink:href="#zoomMin" x="42" y="9" onmousedown="handleZoom(evt,'out')"/>
  <use id="reset" xlink:href="#resetDef" x="30" y="36" onmousedown="handleReset()"/>
   <use id="arrowup" xlink:href="#arrowUp" x="0" y="0" onmousedown="handlePan(0,-1)"/>
  <use id="arrowright" xlink:href="#arrowRight" x="0" y="0" onmousedown="handlePan(1,0)"/>
  <use id="arrowdown" xlink:href="#arrowDown" x="0" y="0" onmousedown="handlePan(0,1)"/>
  <use id="arrowleft" xlink:href="#arrowLeft" x="0" y="0" onmousedown="handlePan(-1,0)"/>
</g>
<svg viewBox="0 0 15 15" width="100%" height="30px" preserveAspectRatio="xMaxYMin meet">
 <g id="arrow_out" transform="scale(0.3 0.3)">
  <a xlink:href="classPredationProbability__coll__graph_org.svg" target="_base">
   <rect id="button" ry="5" rx="5" y="6" x="6" height="38" width="38"
        fill="#f2f5e9" fill-opacity="0.5" stroke="#606060" stroke-width="1.0"/>
   <path id="arrow"
     d="M 11.500037,31.436501 C 11.940474,20.09759 22.043105,11.32322 32.158766,21.979434 L 37.068811,17.246167 C 37.068811,17.246167 37.088388,32 37.088388,32 L 22.160133,31.978069 C 22.160133,31.978069 26.997745,27.140456 26.997745,27.140456 C 18.528582,18.264221 13.291696,25.230495 11.500037,31.436501 z"
     style="fill:#404040;"/>
  </a>
 </g>
</svg>

<style type='text/css'>
<![CDATA[
[data-mouse-over-selected='false'] { opacity: 0.7; }
[data-mouse-over-selected='true']  { opacity: 1.0; }
]]>
</style>
<script type="application/ecmascript"><![CDATA[
document.addEventListener('DOMContentLoaded', (event) => {
  highlightEdges();
  highlightAdjacentNodes();
});
]]></script>
</svg>
