<?xml version="1.0" encoding="UTF-8" standalone="no"?>
<!DOCTYPE svg PUBLIC "-//W3C//DTD SVG 1.1//EN"
 "http://www.w3.org/Graphics/SVG/1.1/DTD/svg11.dtd">
<!-- Generated by graphviz version 2.43.0 (0)
 -->
<!-- Title: TempSizeRuleIndividualTraitTemperatureSection Pages: 1 -->
<svg width="206pt" height="171pt"
 viewBox="0.00 0.00 206.00 171.00" xmlns="http://www.w3.org/2000/svg" xmlns:xlink="http://www.w3.org/1999/xlink">
<g id="graph0" class="graph" transform="scale(1 1) rotate(0) translate(4 167)">
<title>TempSizeRuleIndividualTraitTemperatureSection</title>
<!-- Node1 -->
<g id="Node000001" class="node">
<title>Node1</title>
<g id="a_Node000001"><a xlink:title="Temperature&#45;dependent section of an individual trait following the Temperature&#45;Size Rule.">
<polygon fill="#999999" stroke="#666666" points="154,-30 0,-30 0,0 154,0 154,-30"/>
<text text-anchor="start" x="8" y="-18" font-family="Helvetica,sans-Serif" font-size="10.00">TempSizeRuleIndividualTrait</text>
<text text-anchor="middle" x="77" y="-7" font-family="Helvetica,sans-Serif" font-size="10.00">TemperatureSection</text>
</a>
</g>
</g>
<!-- Node2 -->
<g id="Node000002" class="node">
<title>Node2</title>
<g id="a_Node000002"><a xlink:href="classIndividualTraitTemperatureSection.html" target="_top" xlink:title="Base class for handling temperature&#45;dependent effects on an individual trait.">
<polygon fill="white" stroke="#666666" points="150.5,-97 3.5,-97 3.5,-67 150.5,-67 150.5,-97"/>
<text text-anchor="start" x="11.5" y="-85" font-family="Helvetica,sans-Serif" font-size="10.00">IndividualTraitTemperature</text>
<text text-anchor="middle" x="77" y="-74" font-family="Helvetica,sans-Serif" font-size="10.00">Section</text>
</a>
</g>
</g>
<!-- Node2&#45;&gt;Node1 -->
<g id="edge1_Node000001_Node000002" class="edge">
<title>Node2&#45;&gt;Node1</title>
<g id="a_edge1_Node000001_Node000002"><a xlink:title=" ">
<path fill="none" stroke="#63b8ff" d="M77,-56.61C77,-47.65 77,-37.82 77,-30.08"/>
<polygon fill="#63b8ff" stroke="#63b8ff" points="73.5,-56.9 77,-66.9 80.5,-56.9 73.5,-56.9"/>
</a>
</g>
</g>
<!-- Node3 -->
<g id="Node000003" class="node">
<title>Node3</title>
<g id="a_Node000003"><a xlink:href="classTraitTemperatureSection.html" target="_top" xlink:title="Represents the temperature&#45;dependent part of a trait.">
<polygon fill="white" stroke="#666666" points="144.5,-163 9.5,-163 9.5,-144 144.5,-144 144.5,-163"/>
<text text-anchor="middle" x="77" y="-151" font-family="Helvetica,sans-Serif" font-size="10.00">TraitTemperatureSection</text>
</a>
</g>
</g>
<!-- Node3&#45;&gt;Node2 -->
<g id="edge2_Node000002_Node000003" class="edge">
<title>Node3&#45;&gt;Node2</title>
<g id="a_edge2_Node000002_Node000003"><a xlink:title=" ">
<path fill="none" stroke="#9a32cd" stroke-dasharray="5,2" d="M77,-133.71C77,-122.19 77,-107.68 77,-97.14"/>
<polygon fill="#9a32cd" stroke="#9a32cd" points="73.5,-133.98 77,-143.98 80.5,-133.98 73.5,-133.98"/>
</a>
</g>
<text text-anchor="middle" x="137.5" y="-118" font-family="Helvetica,sans-Serif" font-size="10.00" fill="grey"> traitTemperatureSection</text>
</g>
</g>
</svg>
