<?xml version="1.0" encoding="UTF-8" standalone="no"?>
<!DOCTYPE svg PUBLIC "-//W3C//DTD SVG 1.1//EN"
 "http://www.w3.org/Graphics/SVG/1.1/DTD/svg11.dtd">
<!-- Generated by graphviz version 2.43.0 (0)
 -->
<!-- Title: TerrainCell Pages: 1 -->
<svg width="928pt" height="278pt"
 viewBox="0.00 0.00 928.00 277.50" xmlns="http://www.w3.org/2000/svg" xmlns:xlink="http://www.w3.org/1999/xlink">
<g id="graph0" class="graph" transform="scale(1 1) rotate(0) translate(4 273.5)">
<title>TerrainCell</title>
<!-- Node1 -->
<g id="Node000001" class="node">
<title>Node1</title>
<g id="a_Node000001"><a xlink:title="Represents a single cell in the landscape.">
<polygon fill="#999999" stroke="#666666" points="654.5,-191 586.5,-191 586.5,-172 654.5,-172 654.5,-191"/>
<text text-anchor="middle" x="620.5" y="-179" font-family="Helvetica,sans-Serif" font-size="10.00">TerrainCell</text>
</a>
</g>
</g>
<!-- Node2 -->
<g id="Node000002" class="node">
<title>Node2</title>
<g id="a_Node000002"><a xlink:href="classPatchApplicator.html" target="_top" xlink:title="Applies patches to a TerrainCell including moisture, resources, obstacles, and habitat domains.">
<polygon fill="white" stroke="#666666" points="920,-123 828,-123 828,-104 920,-104 920,-123"/>
<text text-anchor="middle" x="874" y="-111" font-family="Helvetica,sans-Serif" font-size="10.00">PatchApplicator</text>
</a>
</g>
</g>
<!-- Node1&#45;&gt;Node2 -->
<g id="edge2_Node000002_Node000001" class="edge">
<title>Node1&#45;&gt;Node2</title>
<g id="a_edge2_Node000002_Node000001"><a xlink:title=" ">
<path fill="none" stroke="#9a32cd" stroke-dasharray="5,2" d="M664.76,-182.62C703.97,-182.22 762.69,-178.04 810,-159.5 831.18,-151.2 851.7,-133.98 863.29,-123.13"/>
<polygon fill="#9a32cd" stroke="#9a32cd" points="664.73,-179.12 654.74,-182.65 664.75,-186.12 664.73,-179.12"/>
</a>
</g>
<text text-anchor="middle" x="762.5" y="-182.5" font-family="Helvetica,sans-Serif" font-size="10.00" fill="grey"> owner</text>
</g>
<!-- Node2&#45;&gt;Node1 -->
<g id="edge1_Node000001_Node000002" class="edge">
<title>Node2&#45;&gt;Node1</title>
<g id="a_edge1_Node000001_Node000002"><a xlink:title=" ">
<path fill="none" stroke="#9a32cd" stroke-dasharray="5,2" d="M817.66,-124.04C787.15,-130.29 748.73,-138.85 715,-148.5 691.17,-155.32 664.56,-164.91 645.85,-171.99"/>
<polygon fill="#9a32cd" stroke="#9a32cd" points="818.58,-127.43 827.69,-122.02 817.19,-120.57 818.58,-127.43"/>
</a>
</g>
<text text-anchor="middle" x="762.5" y="-151.5" font-family="Helvetica,sans-Serif" font-size="10.00" fill="grey"> patchApplicator</text>
</g>
<!-- Node3 -->
<g id="Node000003" class="node">
<title>Node3</title>
<g id="a_Node000003"><a xlink:href="classCellMoistureInterface.html" target="_top" xlink:title="Base interface representing the hydrological and thermal properties of a terrain cell.">
<polygon fill="white" stroke="#666666" points="681.5,-124 559.5,-124 559.5,-105 681.5,-105 681.5,-124"/>
<text text-anchor="middle" x="620.5" y="-112" font-family="Helvetica,sans-Serif" font-size="10.00">CellMoistureInterface</text>
</a>
</g>
</g>
<!-- Node3&#45;&gt;Node2 -->
<g id="edge3_Node000002_Node000003" class="edge">
<title>Node3&#45;&gt;Node2</title>
<g id="a_edge3_Node000002_Node000003"><a xlink:title=" ">
<path fill="none" stroke="#9a32cd" stroke-dasharray="5,2" d="M691.98,-114.22C735.5,-114.05 790.04,-113.83 827.82,-113.68"/>
<polygon fill="#9a32cd" stroke="#9a32cd" points="691.73,-110.72 681.74,-114.26 691.75,-117.72 691.73,-110.72"/>
</a>
</g>
<text text-anchor="middle" x="762.5" y="-117.5" font-family="Helvetica,sans-Serif" font-size="10.00" fill="grey"> cellMoisture</text>
</g>
<!-- Node4 -->
<g id="Node000004" class="node">
<title>Node4</title>
<g id="a_Node000004"><a xlink:href="classCellElement.html" target="_top" xlink:title="Base class for any modifiable element contained within a terrain cell.">
<polygon fill="white" stroke="#666666" points="287,-81 211,-81 211,-62 287,-62 287,-81"/>
<text text-anchor="middle" x="249" y="-69" font-family="Helvetica,sans-Serif" font-size="10.00">CellElement</text>
</a>
</g>
</g>
<!-- Node4&#45;&gt;Node3 -->
<g id="edge4_Node000003_Node000004" class="edge">
<title>Node4&#45;&gt;Node3</title>
<g id="a_edge4_Node000003_Node000004"><a xlink:title=" ">
<path fill="none" stroke="#63b8ff" d="M297.36,-77.01C364.18,-84.79 486.14,-98.98 559.31,-107.5"/>
<polygon fill="#63b8ff" stroke="#63b8ff" points="297.46,-73.5 287.12,-75.82 296.65,-80.45 297.46,-73.5"/>
</a>
</g>
</g>
<!-- Node7 -->
<g id="Node000007" class="node">
<title>Node7</title>
<g id="a_Node000007"><a xlink:href="classCellObstacleInterface.html" target="_top" xlink:title="Interface for managing obstacles in a terrain cell.">
<polygon fill="white" stroke="#666666" points="681.5,-87 559.5,-87 559.5,-68 681.5,-68 681.5,-87"/>
<text text-anchor="middle" x="620.5" y="-75" font-family="Helvetica,sans-Serif" font-size="10.00">CellObstacleInterface</text>
</a>
</g>
</g>
<!-- Node4&#45;&gt;Node7 -->
<g id="edge8_Node000007_Node000004" class="edge">
<title>Node4&#45;&gt;Node7</title>
<g id="a_edge8_Node000007_Node000004"><a xlink:title=" ">
<path fill="none" stroke="#63b8ff" d="M297.36,-72.27C364.18,-73.35 486.14,-75.33 559.31,-76.52"/>
<polygon fill="#63b8ff" stroke="#63b8ff" points="297.18,-68.77 287.12,-72.1 297.06,-75.76 297.18,-68.77"/>
</a>
</g>
</g>
<!-- Node8 -->
<g id="Node000008" class="node">
<title>Node8</title>
<g id="a_Node000008"><a xlink:href="classCellHabitatDomainInterface.html" target="_top" xlink:title="Represents the habitat&#45;domain information associated with a terrain cell.">
<polygon fill="white" stroke="#666666" points="697,-50 544,-50 544,-31 697,-31 697,-50"/>
<text text-anchor="middle" x="620.5" y="-38" font-family="Helvetica,sans-Serif" font-size="10.00">CellHabitatDomainInterface</text>
</a>
</g>
</g>
<!-- Node4&#45;&gt;Node8 -->
<g id="edge10_Node000008_Node000004" class="edge">
<title>Node4&#45;&gt;Node8</title>
<g id="a_edge10_Node000008_Node000004"><a xlink:title=" ">
<path fill="none" stroke="#63b8ff" d="M297.44,-67.52C359.74,-62.29 469.86,-53.05 543.76,-46.85"/>
<polygon fill="#63b8ff" stroke="#63b8ff" points="296.79,-64.06 287.12,-68.39 297.38,-71.04 296.79,-64.06"/>
</a>
</g>
</g>
<!-- Node5 -->
<g id="Node000005" class="node">
<title>Node5</title>
<g id="a_Node000005"><a xlink:href="classWetMass.html" target="_top" xlink:title="Represents wet mass in the ecosystem simulation.">
<polygon fill="white" stroke="#666666" points="279.5,-135 218.5,-135 218.5,-116 279.5,-116 279.5,-135"/>
<text text-anchor="middle" x="249" y="-123" font-family="Helvetica,sans-Serif" font-size="10.00">WetMass</text>
</a>
</g>
</g>
<!-- Node5&#45;&gt;Node3 -->
<g id="edge5_Node000003_Node000005" class="edge">
<title>Node5&#45;&gt;Node3</title>
<g id="a_edge5_Node000003_Node000005"><a xlink:title=" ">
<path fill="none" stroke="#9a32cd" stroke-dasharray="5,2" d="M289.82,-124.31C354.64,-122.38 483.35,-118.55 559.35,-116.29"/>
<polygon fill="#9a32cd" stroke="#9a32cd" points="289.5,-120.82 279.61,-124.62 289.71,-127.82 289.5,-120.82"/>
</a>
</g>
<text text-anchor="middle" x="444.5" y="-125.5" font-family="Helvetica,sans-Serif" font-size="10.00" fill="grey"> totalMaximumResourceCapacity</text>
</g>
<!-- Node6 -->
<g id="Node000006" class="node">
<title>Node6</title>
<g id="a_Node000006"><a xlink:href="classPreciseDouble.html" target="_top" xlink:title="Class for precise double&#45;precision floating&#45;point arithmetic.">
<polygon fill="white" stroke="#666666" points="86,-201 0,-201 0,-182 86,-182 86,-201"/>
<text text-anchor="middle" x="43" y="-189" font-family="Helvetica,sans-Serif" font-size="10.00">PreciseDouble</text>
</a>
</g>
</g>
<!-- Node6&#45;&gt;Node1 -->
<g id="edge13_Node000001_Node000006" class="edge">
<title>Node6&#45;&gt;Node1</title>
<g id="a_edge13_Node000001_Node000006"><a xlink:title=" ">
<path fill="none" stroke="#9a32cd" stroke-dasharray="5,2" d="M73.56,-205.21C95.07,-214.4 125.18,-225.67 153,-230.5 316.45,-258.86 364.02,-252.33 526,-216.5 551.89,-210.77 580.23,-199.39 598.85,-191.16"/>
<polygon fill="#9a32cd" stroke="#9a32cd" points="74.88,-201.97 64.32,-201.16 72.08,-208.38 74.88,-201.97"/>
</a>
</g>
<text text-anchor="middle" x="249" y="-261.5" font-family="Helvetica,sans-Serif" font-size="10.00" fill="grey"> hyperVolume</text>
<text text-anchor="middle" x="249" y="-250.5" font-family="Helvetica,sans-Serif" font-size="10.00" fill="grey">size</text>
</g>
<!-- Node6&#45;&gt;Node5 -->
<g id="edge6_Node000005_Node000006" class="edge">
<title>Node6&#45;&gt;Node5</title>
<g id="a_edge6_Node000005_Node000006"><a xlink:title=" ">
<path fill="none" stroke="#9a32cd" stroke-dasharray="5,2" d="M72.09,-177.45C93.74,-167.09 124.68,-153.33 153,-144.5 174.52,-137.79 199.54,-132.9 218.5,-129.76"/>
<polygon fill="#9a32cd" stroke="#9a32cd" points="70.3,-174.42 62.83,-181.93 73.36,-180.72 70.3,-174.42"/>
</a>
</g>
<text text-anchor="middle" x="119.5" y="-165.5" font-family="Helvetica,sans-Serif" font-size="10.00" fill="grey"> value</text>
</g>
<!-- Node7&#45;&gt;Node2 -->
<g id="edge7_Node000002_Node000007" class="edge">
<title>Node7&#45;&gt;Node2</title>
<g id="a_edge7_Node000002_Node000007"><a xlink:title=" ">
<path fill="none" stroke="#9a32cd" stroke-dasharray="5,2" d="M691.85,-83.98C727.39,-87.69 771.12,-92.93 810,-99.5 817.51,-100.77 825.48,-102.35 833.13,-103.99"/>
<polygon fill="#9a32cd" stroke="#9a32cd" points="691.88,-80.47 681.57,-82.93 691.16,-87.43 691.88,-80.47"/>
</a>
</g>
<text text-anchor="middle" x="762.5" y="-102.5" font-family="Helvetica,sans-Serif" font-size="10.00" fill="grey"> cellObstacle</text>
</g>
<!-- Node8&#45;&gt;Node2 -->
<g id="edge9_Node000002_Node000008" class="edge">
<title>Node8&#45;&gt;Node2</title>
<g id="a_edge9_Node000002_Node000008"><a xlink:title=" ">
<path fill="none" stroke="#9a32cd" stroke-dasharray="5,2" d="M707.31,-47.57C740.23,-52.2 777.64,-59.85 810,-72.5 829.45,-80.1 849.19,-94.22 861.27,-103.73"/>
<polygon fill="#9a32cd" stroke="#9a32cd" points="707.62,-44.08 697.24,-46.23 706.69,-51.02 707.62,-44.08"/>
</a>
</g>
<text text-anchor="middle" x="762.5" y="-75.5" font-family="Helvetica,sans-Serif" font-size="10.00" fill="grey"> cellHabitatDomain</text>
</g>
<!-- Node9 -->
<g id="Node000009" class="node">
<title>Node9</title>
<g id="a_Node000009"><a xlink:href="classCustomIndexedVector.html" target="_top" xlink:title=" ">
<polygon fill="white" stroke="#666666" points="345,-41 153,-41 153,0 345,0 345,-41"/>
<text text-anchor="start" x="161" y="-29" font-family="Helvetica,sans-Serif" font-size="10.00">CustomIndexedVector</text>
<text text-anchor="start" x="161" y="-18" font-family="Helvetica,sans-Serif" font-size="10.00">&lt; AnimalSpeciesID, CustomIndexed</text>
<text text-anchor="middle" x="249" y="-7" font-family="Helvetica,sans-Serif" font-size="10.00">Vector&lt; Instar, bool &gt; &gt;</text>
</a>
</g>
</g>
<!-- Node9&#45;&gt;Node8 -->
<g id="edge11_Node000008_Node000009" class="edge">
<title>Node9&#45;&gt;Node8</title>
<g id="a_edge11_Node000008_Node000009"><a xlink:title=" ">
<path fill="none" stroke="#9a32cd" stroke-dasharray="5,2" d="M355.25,-16.03C406.83,-15.08 469.8,-15.75 526,-21.5 544.29,-23.37 564.3,-27.19 581.1,-30.92"/>
<polygon fill="#9a32cd" stroke="#9a32cd" points="355.01,-12.54 345.09,-16.25 355.16,-19.54 355.01,-12.54"/>
</a>
</g>
<text text-anchor="middle" x="444.5" y="-24.5" font-family="Helvetica,sans-Serif" font-size="10.00" fill="grey"> habitatDomainStatus</text>
</g>
<!-- Node10 -->
<g id="Node000010" class="node">
<title>Node10</title>
<g id="a_Node000010"><a xlink:href="classPointMap.html" target="_top" xlink:title="Represents a point in a discrete map coordinate system.">
<polygon fill="white" stroke="#666666" points="280,-221 218,-221 218,-202 280,-202 280,-221"/>
<text text-anchor="middle" x="249" y="-209" font-family="Helvetica,sans-Serif" font-size="10.00">PointMap</text>
</a>
</g>
</g>
<!-- Node10&#45;&gt;Node1 -->
<g id="edge12_Node000001_Node000010" class="edge">
<title>Node10&#45;&gt;Node1</title>
<g id="a_edge12_Node000001_Node000010"><a xlink:title=" ">
<path fill="none" stroke="#9a32cd" stroke-dasharray="5,2" d="M290.37,-208.36C344.15,-204.15 442.24,-196.42 526,-189.5 545.97,-187.85 568.34,-185.94 586.18,-184.4"/>
<polygon fill="#9a32cd" stroke="#9a32cd" points="289.92,-204.88 280.23,-209.15 290.47,-211.86 289.92,-204.88"/>
</a>
</g>
<text text-anchor="middle" x="444.5" y="-204.5" font-family="Helvetica,sans-Serif" font-size="10.00" fill="grey"> position</text>
</g>
<!-- Node11 -->
<g id="Node000011" class="node">
<title>Node11</title>
<g id="a_Node000011"><a xlink:href="classCustomIndexedVector.html" target="_top" xlink:title="A vector container indexed by a custom type with bounds checking.">
<polygon fill="white" stroke="#666666" points="326.5,-183.5 171.5,-183.5 171.5,-153.5 326.5,-153.5 326.5,-183.5"/>
<text text-anchor="start" x="179.5" y="-171.5" font-family="Helvetica,sans-Serif" font-size="10.00">CustomIndexedVector</text>
<text text-anchor="middle" x="249" y="-160.5" font-family="Helvetica,sans-Serif" font-size="10.00">&lt; IndexType, ContentType &gt;</text>
</a>
</g>
</g>
<!-- Node11&#45;&gt;Node1 -->
<g id="edge14_Node000001_Node000011" class="edge">
<title>Node11&#45;&gt;Node1</title>
<g id="a_edge14_Node000001_Node000011"><a xlink:title=" ">
<path fill="none" stroke="#9a32cd" stroke-dasharray="5,2" d="M336.6,-171.55C416.33,-174.35 530.44,-178.37 586.23,-180.33"/>
<polygon fill="#9a32cd" stroke="#9a32cd" points="336.68,-168.05 326.56,-171.19 336.43,-175.04 336.68,-168.05"/>
</a>
</g>
<text text-anchor="middle" x="444.5" y="-180.5" font-family="Helvetica,sans-Serif" font-size="10.00" fill="grey"> animals</text>
</g>
</g>
</svg>
