<?xml version="1.0" encoding="UTF-8" standalone="no"?>
<!DOCTYPE svg PUBLIC "-//W3C//DTD SVG 1.1//EN"
 "http://www.w3.org/Graphics/SVG/1.1/DTD/svg11.dtd">
<!-- Generated by graphviz version 2.43.0 (0)
 -->
<!-- Title: Genetics Pages: 1 -->
<!--zoomable 134 -->

<svg id="main" version="1.1" xmlns="http://www.w3.org/2000/svg" xmlns:xlink="http://www.w3.org/1999/xlink" xml:space="preserve" onload="init(evt)">
<style type="text/css"><![CDATA[
.node, .edge {opacity: 0.7;}
.node.selected, .edge.selected {opacity: 1;}
.edge:hover path { stroke: red; }
.edge:hover polygon { stroke: red; fill: red; }
]]></style>

<defs>
  <circle id="rim" cx="0" cy="0" r="7"/>
  <circle id="rim2" cx="0" cy="0" r="3.5"/>
  <g id="zoomPlus">
    <use xlink:href="#rim" fill="#404040"><set attributeName="fill" to="#808080" begin="zoomplus.mouseover" end="zoomplus.mouseout"/></use>
    <path d="M-4,0h8M0,-4v8" fill="none" stroke="white" stroke-width="1.5" pointer-events="none"/>
  </g>
  <g id="zoomMin">
    <use xlink:href="#rim" fill="#404040"><set attributeName="fill" to="#808080" begin="zoomminus.mouseover" end="zoomminus.mouseout"/></use>
    <path d="M-4,0h8" fill="none" stroke="white" stroke-width="1.5" pointer-events="none"/>
  </g>
  <g id="arrowUp" transform="translate(30 24)">
    <use xlink:href="#rim"/>
    <path pointer-events="none" fill="none" stroke="white" stroke-width="1.5" d="M0,-3.0v7 M-2.5,-0.5L0,-3.0L2.5,-0.5"/>
  </g>
  <g id="arrowRight" transform="rotate(90) translate(36 -43)">
    <use xlink:href="#rim"/>
    <path pointer-events="none" fill="none" stroke="white" stroke-width="1.5" d="M0,-3.0v7 M-2.5,-0.5L0,-3.0L2.5,-0.5"/>
  </g>
  <g id="arrowDown" transform="rotate(180) translate(-30 -48)">
    <use xlink:href="#rim"/>
    <path pointer-events="none" fill="none" stroke="white" stroke-width="1.5" d="M0,-3.0v7 M-2.5,-0.5L0,-3.0L2.5,-0.5"/>
  </g>
  <g id="arrowLeft" transform="rotate(270) translate(-36 17)">
    <use xlink:href="#rim"/>
    <path pointer-events="none" fill="none" stroke="white" stroke-width="1.5" d="M0,-3.0v7 M-2.5,-0.5L0,-3.0L2.5,-0.5"/>
  </g>
  <g id="resetDef">
    <use xlink:href="#rim2" fill="#404040"><set attributeName="fill" to="#808080" begin="reset.mouseover" end="reset.mouseout"/></use>
  </g>
</defs>
<script type="application/ecmascript">
var viewWidth = 579;
var viewHeight = 134;
var sectionId = 'dynsection-0';
</script>
<script type="application/ecmascript" xlink:href="svg.min.js"/>
<svg id="graph" class="graph">
<g id="viewport">
<title>Genetics</title>
<!-- Node1 -->
<g id="Node000001" class="node">
<title>Node1</title>
<g id="a_Node000001"><a xlink:title="Represents the genetic information and traits of an individual.">
<polygon fill="#999999" stroke="#666666" points="571,-78 512,-78 512,-59 571,-59 571,-78"/>
<text text-anchor="middle" x="541.5" y="-66" font-family="Helvetica,sans-Serif" font-size="10.00">Genetics</text>
</a>
</g>
</g>
<!-- Node2 -->
<g id="Node000002" class="node">
<title>Node2</title>
<g id="a_Node000002"><a xlink:href="classAnimalSpeciesGenetics.html" target="_top" xlink:title="Manages the genetic architecture of an animal species.">
<polygon fill="white" stroke="#666666" points="364.5,-115 233.5,-115 233.5,-96 364.5,-96 364.5,-115"/>
<text text-anchor="middle" x="299" y="-103" font-family="Helvetica,sans-Serif" font-size="10.00">AnimalSpeciesGenetics</text>
</a>
</g>
</g>
<!-- Node2&#45;&gt;Node1 -->
<g id="edge1_Node000001_Node000002" class="edge">
<title>Node2&#45;&gt;Node1</title>
<g id="a_edge1_Node000001_Node000002"><a xlink:title=" ">
<path fill="none" stroke="#9a32cd" stroke-dasharray="5,2" d="M374.62,-98.91C410.86,-95.03 454.92,-89.34 494,-81.5 499.75,-80.35 505.84,-78.85 511.64,-77.29"/>
<polygon fill="#9a32cd" stroke="#9a32cd" points="374.2,-95.43 364.61,-99.95 374.92,-102.39 374.2,-95.43"/>
</a>
</g>
<text text-anchor="middle" x="449" y="-99.5" font-family="Helvetica,sans-Serif" font-size="10.00" fill="grey"> speciesGenetics</text>
</g>
<!-- Node3 -->
<g id="Node000003" class="node">
<title>Node3</title>
<g id="a_Node000003"><a xlink:href="classCustomIndexedVector.html" target="_top" xlink:title=" ">
<polygon fill="white" stroke="#666666" points="134,-126 0,-126 0,-85 134,-85 134,-126"/>
<text text-anchor="start" x="8" y="-114" font-family="Helvetica,sans-Serif" font-size="10.00">CustomIndexedVector</text>
<text text-anchor="start" x="8" y="-103" font-family="Helvetica,sans-Serif" font-size="10.00">&lt; Trait::ExecutionOrder,</text>
<text text-anchor="middle" x="67" y="-92" font-family="Helvetica,sans-Serif" font-size="10.00"> std::vector&lt; Trait * &gt; &gt;</text>
</a>
</g>
</g>
<!-- Node3&#45;&gt;Node2 -->
<g id="edge2_Node000002_Node000003" class="edge">
<title>Node3&#45;&gt;Node2</title>
<g id="a_edge2_Node000002_Node000003"><a xlink:title=" ">
<path fill="none" stroke="#9a32cd" stroke-dasharray="5,2" d="M144.27,-105.5C173.15,-105.5 205.73,-105.5 233.44,-105.5"/>
<polygon fill="#9a32cd" stroke="#9a32cd" points="144.22,-102 134.22,-105.5 144.22,-109 144.22,-102"/>
</a>
</g>
<text text-anchor="middle" x="173" y="-108.5" font-family="Helvetica,sans-Serif" font-size="10.00" fill="grey"> allTraits</text>
</g>
<!-- Node4 -->
<g id="Node000004" class="node">
<title>Node4</title>
<g id="a_Node000004"><a xlink:href="classGenome.html" target="_top" xlink:title="Represents a genome with homologous chromosomes and correlosomes.">
<polygon fill="white" stroke="#666666" points="328,-78 270,-78 270,-59 328,-59 328,-78"/>
<text text-anchor="middle" x="299" y="-66" font-family="Helvetica,sans-Serif" font-size="10.00">Genome</text>
</a>
</g>
</g>
<!-- Node4&#45;&gt;Node1 -->
<g id="edge3_Node000001_Node000004" class="edge">
<title>Node4&#45;&gt;Node1</title>
<g id="a_edge3_Node000001_Node000004"><a xlink:title=" ">
<path fill="none" stroke="#9a32cd" stroke-dasharray="5,2" d="M338.12,-68.5C386.42,-68.5 468.59,-68.5 511.87,-68.5"/>
<polygon fill="#9a32cd" stroke="#9a32cd" points="338.06,-65 328.06,-68.5 338.06,-72 338.06,-65"/>
</a>
</g>
<text text-anchor="middle" x="449" y="-71.5" font-family="Helvetica,sans-Serif" font-size="10.00" fill="grey"> genome</text>
</g>
<!-- Node5 -->
<g id="Node000005" class="node">
<title>Node5</title>
<g id="a_Node000005"><a xlink:href="classCustomIndexedVector.html" target="_top" xlink:title=" ">
<polygon fill="white" stroke="#666666" points="386,-41 212,-41 212,0 386,0 386,-41"/>
<text text-anchor="start" x="220" y="-29" font-family="Helvetica,sans-Serif" font-size="10.00">CustomIndexedVector</text>
<text text-anchor="start" x="220" y="-18" font-family="Helvetica,sans-Serif" font-size="10.00">&lt; Trait::ExecutionOrder,</text>
<text text-anchor="middle" x="299" y="-7" font-family="Helvetica,sans-Serif" font-size="10.00"> std::vector&lt; IndividualTrait &gt; &gt;</text>
</a>
</g>
</g>
<!-- Node5&#45;&gt;Node1 -->
<g id="edge4_Node000001_Node000005" class="edge">
<title>Node5&#45;&gt;Node1</title>
<g id="a_edge4_Node000001_Node000005"><a xlink:title=" ">
<path fill="none" stroke="#9a32cd" stroke-dasharray="5,2" d="M396.08,-34.04C427.49,-39.21 462.41,-45.76 494,-53.5 500.26,-55.03 506.9,-56.98 513.15,-58.96"/>
<polygon fill="#9a32cd" stroke="#9a32cd" points="396.45,-30.56 386.01,-32.41 395.33,-37.47 396.45,-30.56"/>
</a>
</g>
<text text-anchor="middle" x="449" y="-56.5" font-family="Helvetica,sans-Serif" font-size="10.00" fill="grey"> allIndividualTraits</text>
</g>
</g>
</svg>

<g id="navigator" transform="translate(0 0)" fill="#404254">
  <rect fill="#f2f5e9" fill-opacity="0.5" stroke="#606060" stroke-width=".5" x="0" y="0" width="60" height="60"/>
  <use id="zoomplus" xlink:href="#zoomPlus" x="17" y="9" onmousedown="handleZoom(evt,'in')"/>
  <use id="zoomminus" xlink:href="#zoomMin" x="42" y="9" onmousedown="handleZoom(evt,'out')"/>
  <use id="reset" xlink:href="#resetDef" x="30" y="36" onmousedown="handleReset()"/>
   <use id="arrowup" xlink:href="#arrowUp" x="0" y="0" onmousedown="handlePan(0,-1)"/>
  <use id="arrowright" xlink:href="#arrowRight" x="0" y="0" onmousedown="handlePan(1,0)"/>
  <use id="arrowdown" xlink:href="#arrowDown" x="0" y="0" onmousedown="handlePan(0,1)"/>
  <use id="arrowleft" xlink:href="#arrowLeft" x="0" y="0" onmousedown="handlePan(-1,0)"/>
</g>
<svg viewBox="0 0 15 15" width="100%" height="30px" preserveAspectRatio="xMaxYMin meet">
 <g id="arrow_out" transform="scale(0.3 0.3)">
  <a xlink:href="classGenetics__coll__graph_org.svg" target="_base">
   <rect id="button" ry="5" rx="5" y="6" x="6" height="38" width="38"
        fill="#f2f5e9" fill-opacity="0.5" stroke="#606060" stroke-width="1.0"/>
   <path id="arrow"
     d="M 11.500037,31.436501 C 11.940474,20.09759 22.043105,11.32322 32.158766,21.979434 L 37.068811,17.246167 C 37.068811,17.246167 37.088388,32 37.088388,32 L 22.160133,31.978069 C 22.160133,31.978069 26.997745,27.140456 26.997745,27.140456 C 18.528582,18.264221 13.291696,25.230495 11.500037,31.436501 z"
     style="fill:#404040;"/>
  </a>
 </g>
</svg>

<style type='text/css'>
<![CDATA[
[data-mouse-over-selected='false'] { opacity: 0.7; }
[data-mouse-over-selected='true']  { opacity: 1.0; }
]]>
</style>
<script type="application/ecmascript"><![CDATA[
document.addEventListener('DOMContentLoaded', (event) => {
  highlightEdges();
  highlightAdjacentNodes();
});
]]></script>
</svg>
