<?xml version="1.0" encoding="UTF-8" standalone="no"?>
<!DOCTYPE svg PUBLIC "-//W3C//DTD SVG 1.1//EN"
 "http://www.w3.org/Graphics/SVG/1.1/DTD/svg11.dtd">
<!-- Generated by graphviz version 2.43.0 (0)
 -->
<!-- Title: IndividualGrowthModel Pages: 1 -->
<svg width="334pt" height="220pt"
 viewBox="0.00 0.00 334.00 220.00" xmlns="http://www.w3.org/2000/svg" xmlns:xlink="http://www.w3.org/1999/xlink">
<g id="graph0" class="graph" transform="scale(1 1) rotate(0) translate(4 216)">
<title>IndividualGrowthModel</title>
<!-- Node1 -->
<g id="Node000001" class="node">
<title>Node1</title>
<g id="a_Node000001"><a xlink:title="Abstract base class for representing an individual animal growth model.">
<polygon fill="#999999" stroke="#666666" points="130,-120.5 0,-120.5 0,-101.5 130,-101.5 130,-120.5"/>
<text text-anchor="middle" x="65" y="-108.5" font-family="Helvetica,sans-Serif" font-size="10.00">IndividualGrowthModel</text>
</a>
</g>
</g>
<!-- Node2 -->
<g id="Node000002" class="node">
<title>Node2</title>
<g id="a_Node000002"><a xlink:href="classExponentialIndividualGrowthModel.html" target="_top" xlink:title="Implements an exponential individual growth model.">
<polygon fill="white" stroke="#666666" points="325,-212 167,-212 167,-182 325,-182 325,-212"/>
<text text-anchor="start" x="175" y="-200" font-family="Helvetica,sans-Serif" font-size="10.00">ExponentialIndividualGrowth</text>
<text text-anchor="middle" x="246" y="-189" font-family="Helvetica,sans-Serif" font-size="10.00">Model</text>
</a>
</g>
</g>
<!-- Node1&#45;&gt;Node2 -->
<g id="edge1_Node000001_Node000002" class="edge">
<title>Node1&#45;&gt;Node2</title>
<g id="a_edge1_Node000001_Node000002"><a xlink:title=" ">
<path fill="none" stroke="#63b8ff" d="M87.19,-126.41C106.83,-140.14 137.27,-160 166,-173 173.18,-176.25 180.93,-179.21 188.66,-181.86"/>
<polygon fill="#63b8ff" stroke="#63b8ff" points="89.15,-123.51 78.97,-120.58 85.1,-129.22 89.15,-123.51"/>
</a>
</g>
</g>
<!-- Node3 -->
<g id="Node000003" class="node">
<title>Node3</title>
<g id="a_Node000003"><a xlink:href="classLinearIndividualGrowthModel.html" target="_top" xlink:title="Implements a linear individual growth model.">
<polygon fill="white" stroke="#666666" points="326,-163.5 166,-163.5 166,-144.5 326,-144.5 326,-163.5"/>
<text text-anchor="middle" x="246" y="-151.5" font-family="Helvetica,sans-Serif" font-size="10.00">LinearIndividualGrowthModel</text>
</a>
</g>
</g>
<!-- Node1&#45;&gt;Node3 -->
<g id="edge2_Node000001_Node000003" class="edge">
<title>Node1&#45;&gt;Node3</title>
<g id="a_edge2_Node000001_Node000003"><a xlink:title=" ">
<path fill="none" stroke="#63b8ff" d="M115.82,-122.97C144.09,-129.76 178.99,-138.14 205.39,-144.48"/>
<polygon fill="#63b8ff" stroke="#63b8ff" points="116.27,-119.48 105.73,-120.54 114.63,-126.28 116.27,-119.48"/>
</a>
</g>
</g>
<!-- Node4 -->
<g id="Node000004" class="node">
<title>Node4</title>
<g id="a_Node000004"><a xlink:href="classLogistic4PIndividualGrowthModel.html" target="_top" xlink:title="Implements a 4&#45;parameter logistic individual growth model.">
<polygon fill="white" stroke="#666666" points="320.5,-126 171.5,-126 171.5,-96 320.5,-96 320.5,-126"/>
<text text-anchor="start" x="179.5" y="-114" font-family="Helvetica,sans-Serif" font-size="10.00">Logistic4PIndividualGrowth</text>
<text text-anchor="middle" x="246" y="-103" font-family="Helvetica,sans-Serif" font-size="10.00">Model</text>
</a>
</g>
</g>
<!-- Node1&#45;&gt;Node4 -->
<g id="edge3_Node000001_Node000004" class="edge">
<title>Node1&#45;&gt;Node4</title>
<g id="a_edge3_Node000001_Node000004"><a xlink:title=" ">
<path fill="none" stroke="#63b8ff" d="M140.26,-111C150.51,-111 161.04,-111 171.28,-111"/>
<polygon fill="#63b8ff" stroke="#63b8ff" points="140.12,-107.5 130.12,-111 140.12,-114.5 140.12,-107.5"/>
</a>
</g>
</g>
<!-- Node5 -->
<g id="Node000005" class="node">
<title>Node5</title>
<g id="a_Node000005"><a xlink:href="classLogisticIndividualGrowthModel.html" target="_top" xlink:title="Implements a logistic individual growth model.">
<polygon fill="white" stroke="#666666" points="314.5,-78 177.5,-78 177.5,-48 314.5,-48 314.5,-78"/>
<text text-anchor="start" x="185.5" y="-66" font-family="Helvetica,sans-Serif" font-size="10.00">LogisticIndividualGrowth</text>
<text text-anchor="middle" x="246" y="-55" font-family="Helvetica,sans-Serif" font-size="10.00">Model</text>
</a>
</g>
</g>
<!-- Node1&#45;&gt;Node5 -->
<g id="edge4_Node000001_Node000005" class="edge">
<title>Node1&#45;&gt;Node5</title>
<g id="a_edge4_Node000001_Node000005"><a xlink:title=" ">
<path fill="none" stroke="#63b8ff" d="M111.51,-98.8C135.03,-92.49 163.93,-84.74 188.83,-78.06"/>
<polygon fill="#63b8ff" stroke="#63b8ff" points="110.55,-95.43 101.79,-101.4 112.36,-102.19 110.55,-95.43"/>
</a>
</g>
</g>
<!-- Node6 -->
<g id="Node000006" class="node">
<title>Node6</title>
<g id="a_Node000006"><a xlink:href="classVonBertalanffyIndividualGrowthModel.html" target="_top" xlink:title="Implements an individual growth model using the von Bertalanffy equation.">
<polygon fill="white" stroke="#666666" points="314.5,-30 177.5,-30 177.5,0 314.5,0 314.5,-30"/>
<text text-anchor="start" x="185.5" y="-18" font-family="Helvetica,sans-Serif" font-size="10.00">VonBertalanffyIndividual</text>
<text text-anchor="middle" x="246" y="-7" font-family="Helvetica,sans-Serif" font-size="10.00">GrowthModel</text>
</a>
</g>
</g>
<!-- Node1&#45;&gt;Node6 -->
<g id="edge5_Node000001_Node000006" class="edge">
<title>Node1&#45;&gt;Node6</title>
<g id="a_edge5_Node000001_Node000006"><a xlink:title=" ">
<path fill="none" stroke="#63b8ff" d="M84.6,-94.71C103.82,-78.6 135.27,-54.21 166,-39 172.68,-35.69 179.91,-32.74 187.18,-30.13"/>
<polygon fill="#63b8ff" stroke="#63b8ff" points="82.25,-92.11 76.91,-101.26 86.79,-97.44 82.25,-92.11"/>
</a>
</g>
</g>
</g>
</svg>
