<?xml version="1.0" encoding="UTF-8" standalone="no"?>
<!DOCTYPE svg PUBLIC "-//W3C//DTD SVG 1.1//EN"
 "http://www.w3.org/Graphics/SVG/1.1/DTD/svg11.dtd">
<!-- Generated by graphviz version 2.43.0 (0)
 -->
<!-- Title: AnimalSpeciesGrowth Pages: 1 -->
<!--zoomable 391 -->

<svg id="main" version="1.1" xmlns="http://www.w3.org/2000/svg" xmlns:xlink="http://www.w3.org/1999/xlink" xml:space="preserve" onload="init(evt)">
<style type="text/css"><![CDATA[
.node, .edge {opacity: 0.7;}
.node.selected, .edge.selected {opacity: 1;}
.edge:hover path { stroke: red; }
.edge:hover polygon { stroke: red; fill: red; }
]]></style>

<defs>
  <circle id="rim" cx="0" cy="0" r="7"/>
  <circle id="rim2" cx="0" cy="0" r="3.5"/>
  <g id="zoomPlus">
    <use xlink:href="#rim" fill="#404040"><set attributeName="fill" to="#808080" begin="zoomplus.mouseover" end="zoomplus.mouseout"/></use>
    <path d="M-4,0h8M0,-4v8" fill="none" stroke="white" stroke-width="1.5" pointer-events="none"/>
  </g>
  <g id="zoomMin">
    <use xlink:href="#rim" fill="#404040"><set attributeName="fill" to="#808080" begin="zoomminus.mouseover" end="zoomminus.mouseout"/></use>
    <path d="M-4,0h8" fill="none" stroke="white" stroke-width="1.5" pointer-events="none"/>
  </g>
  <g id="arrowUp" transform="translate(30 24)">
    <use xlink:href="#rim"/>
    <path pointer-events="none" fill="none" stroke="white" stroke-width="1.5" d="M0,-3.0v7 M-2.5,-0.5L0,-3.0L2.5,-0.5"/>
  </g>
  <g id="arrowRight" transform="rotate(90) translate(36 -43)">
    <use xlink:href="#rim"/>
    <path pointer-events="none" fill="none" stroke="white" stroke-width="1.5" d="M0,-3.0v7 M-2.5,-0.5L0,-3.0L2.5,-0.5"/>
  </g>
  <g id="arrowDown" transform="rotate(180) translate(-30 -48)">
    <use xlink:href="#rim"/>
    <path pointer-events="none" fill="none" stroke="white" stroke-width="1.5" d="M0,-3.0v7 M-2.5,-0.5L0,-3.0L2.5,-0.5"/>
  </g>
  <g id="arrowLeft" transform="rotate(270) translate(-36 17)">
    <use xlink:href="#rim"/>
    <path pointer-events="none" fill="none" stroke="white" stroke-width="1.5" d="M0,-3.0v7 M-2.5,-0.5L0,-3.0L2.5,-0.5"/>
  </g>
  <g id="resetDef">
    <use xlink:href="#rim2" fill="#404040"><set attributeName="fill" to="#808080" begin="reset.mouseover" end="reset.mouseout"/></use>
  </g>
</defs>
<script type="application/ecmascript">
var viewWidth = 791;
var viewHeight = 391;
var sectionId = 'dynsection-1';
</script>
<script type="application/ecmascript" xlink:href="svg.min.js"/>
<svg id="graph" class="graph">
<g id="viewport">
<title>AnimalSpeciesGrowth</title>
<!-- Node1 -->
<g id="Node000001" class="node">
<title>Node1</title>
<g id="a_Node000001"><a xlink:title="Represents species&#45;specific growth, development, and reproductive parameters for animals.">
<polygon fill="#999999" stroke="#666666" points="783,-143 659,-143 659,-124 783,-124 783,-143"/>
<text text-anchor="middle" x="721" y="-131" font-family="Helvetica,sans-Serif" font-size="10.00">AnimalSpeciesGrowth</text>
</a>
</g>
</g>
<!-- Node2 -->
<g id="Node000002" class="node">
<title>Node2</title>
<g id="a_Node000002"><a xlink:href="classSpeciesGrowth.html" target="_top" xlink:title="Represents the growth characteristics of a species across its instars.">
<polygon fill="white" stroke="#666666" points="421.5,-338 332.5,-338 332.5,-319 421.5,-319 421.5,-338"/>
<text text-anchor="middle" x="377" y="-326" font-family="Helvetica,sans-Serif" font-size="10.00">SpeciesGrowth</text>
</a>
</g>
</g>
<!-- Node2&#45;&gt;Node1 -->
<g id="edge1_Node000001_Node000002" class="edge">
<title>Node2&#45;&gt;Node1</title>
<g id="a_edge1_Node000001_Node000002"><a xlink:title=" ">
<path fill="none" stroke="#63b8ff" d="M430.63,-316.15C441.53,-312.9 452.8,-309.01 463,-304.5 566.42,-258.76 673.95,-172.25 708.56,-143.25"/>
<polygon fill="#63b8ff" stroke="#63b8ff" points="429.42,-312.85 420.76,-318.95 431.34,-319.58 429.42,-312.85"/>
</a>
</g>
</g>
<!-- Node3 -->
<g id="Node000003" class="node">
<title>Node3</title>
<g id="a_Node000003"><a xlink:href="classInstar.html" target="_top" xlink:title="Represents a developmental stage (instar) of an animal in the simulation.">
<polygon fill="white" stroke="#666666" points="93.5,-375 49.5,-375 49.5,-356 93.5,-356 93.5,-375"/>
<text text-anchor="middle" x="71.5" y="-363" font-family="Helvetica,sans-Serif" font-size="10.00">Instar</text>
</a>
</g>
</g>
<!-- Node3&#45;&gt;Node1 -->
<g id="edge8_Node000001_Node000003" class="edge">
<title>Node3&#45;&gt;Node1</title>
<g id="a_edge8_Node000001_Node000003"><a xlink:title=" ">
<path fill="none" stroke="#9a32cd" stroke-dasharray="5,2" d="M104.08,-368.58C171.43,-374.18 333.59,-382.44 463,-347.5 548.2,-324.49 575.53,-318.68 641,-259.5 679.69,-224.53 706.51,-166.3 716.1,-143.29"/>
<polygon fill="#9a32cd" stroke="#9a32cd" points="104,-365.06 93.73,-367.68 103.39,-372.04 104,-365.06"/>
</a>
</g>
<text text-anchor="middle" x="377" y="-374.5" font-family="Helvetica,sans-Serif" font-size="10.00" fill="grey"> instarFirstReproduction</text>
</g>
<!-- Node3&#45;&gt;Node2 -->
<g id="edge2_Node000002_Node000003" class="edge">
<title>Node3&#45;&gt;Node2</title>
<g id="a_edge2_Node000002_Node000003"><a xlink:title=" ">
<path fill="none" stroke="#9a32cd" stroke-dasharray="5,2" d="M103.44,-359.27C120.38,-356.02 141.79,-352.17 161,-349.5 220.06,-341.29 288.7,-335.18 332.23,-331.72"/>
<polygon fill="#9a32cd" stroke="#9a32cd" points="102.67,-355.85 93.52,-361.2 104.01,-362.72 102.67,-355.85"/>
</a>
</g>
<text text-anchor="middle" x="217" y="-352.5" font-family="Helvetica,sans-Serif" font-size="10.00" fill="grey"> lastInstar</text>
</g>
<!-- Node4 -->
<g id="Node000004" class="node">
<title>Node4</title>
<g id="a_Node000004"><a xlink:href="classCustomIndexedVector.html" target="_top" xlink:title=" ">
<polygon fill="white" stroke="#666666" points="143,-329.5 0,-329.5 0,-299.5 143,-299.5 143,-329.5"/>
<text text-anchor="start" x="8" y="-317.5" font-family="Helvetica,sans-Serif" font-size="10.00">CustomIndexedVector</text>
<text text-anchor="middle" x="71.5" y="-306.5" font-family="Helvetica,sans-Serif" font-size="10.00">&lt; Instar, PreciseDouble &gt;</text>
</a>
</g>
</g>
<!-- Node4&#45;&gt;Node2 -->
<g id="edge3_Node000002_Node000004" class="edge">
<title>Node4&#45;&gt;Node2</title>
<g id="a_edge3_Node000002_Node000004"><a xlink:title=" ">
<path fill="none" stroke="#9a32cd" stroke-dasharray="5,2" d="M153.22,-312.69C189.82,-312.44 233.63,-312.93 273,-315.5 292.51,-316.78 313.99,-319.3 332.26,-321.8"/>
<polygon fill="#9a32cd" stroke="#9a32cd" points="153.06,-309.19 143.09,-312.78 153.12,-316.19 153.06,-309.19"/>
</a>
</g>
<text text-anchor="middle" x="217" y="-318.5" font-family="Helvetica,sans-Serif" font-size="10.00" fill="grey"> conversionToWetMass</text>
</g>
<!-- Node5 -->
<g id="Node000005" class="node">
<title>Node5</title>
<g id="a_Node000005"><a xlink:href="classWetMass.html" target="_top" xlink:title="Represents wet mass in the ecosystem simulation.">
<polygon fill="white" stroke="#666666" points="407.5,-143 346.5,-143 346.5,-124 407.5,-124 407.5,-143"/>
<text text-anchor="middle" x="377" y="-131" font-family="Helvetica,sans-Serif" font-size="10.00">WetMass</text>
</a>
</g>
</g>
<!-- Node5&#45;&gt;Node1 -->
<g id="edge4_Node000001_Node000005" class="edge">
<title>Node5&#45;&gt;Node1</title>
<g id="a_edge4_Node000001_Node000005"><a xlink:title=" ">
<path fill="none" stroke="#9a32cd" stroke-dasharray="5,2" d="M417.85,-133.5C477.18,-133.5 589.23,-133.5 658.94,-133.5"/>
<polygon fill="#9a32cd" stroke="#9a32cd" points="417.75,-130 407.75,-133.5 417.75,-137 417.75,-130"/>
</a>
</g>
<text text-anchor="middle" x="561" y="-136.5" font-family="Helvetica,sans-Serif" font-size="10.00" fill="grey"> femaleWetMass</text>
</g>
<!-- Node6 -->
<g id="Node000006" class="node">
<title>Node6</title>
<g id="a_Node000006"><a xlink:href="classPreciseDouble.html" target="_top" xlink:title="Class for precise double&#45;precision floating&#45;point arithmetic.">
<polygon fill="white" stroke="#666666" points="114.5,-143 28.5,-143 28.5,-124 114.5,-124 114.5,-143"/>
<text text-anchor="middle" x="71.5" y="-131" font-family="Helvetica,sans-Serif" font-size="10.00">PreciseDouble</text>
</a>
</g>
</g>
<!-- Node6&#45;&gt;Node1 -->
<g id="edge10_Node000001_Node000006" class="edge">
<title>Node6&#45;&gt;Node1</title>
<g id="a_edge10_Node000001_Node000006"><a xlink:title=" ">
<path fill="none" stroke="#9a32cd" stroke-dasharray="5,2" d="M124.85,-143.59C136.69,-145.54 149.25,-147.33 161,-148.5 373.28,-169.66 428.84,-170.87 641,-148.5 652.66,-147.27 665.18,-145.23 676.73,-143.05"/>
<polygon fill="#9a32cd" stroke="#9a32cd" points="125.1,-140.09 114.66,-141.86 123.93,-146.99 125.1,-140.09"/>
</a>
</g>
<text text-anchor="middle" x="377" y="-277.5" font-family="Helvetica,sans-Serif" font-size="10.00" fill="grey"> assignedForMolt</text>
<text text-anchor="middle" x="377" y="-266.5" font-family="Helvetica,sans-Serif" font-size="10.00" fill="grey">betaScaleTank</text>
<text text-anchor="middle" x="377" y="-255.5" font-family="Helvetica,sans-Serif" font-size="10.00" fill="grey">coefficientForMassA</text>
<text text-anchor="middle" x="377" y="-244.5" font-family="Helvetica,sans-Serif" font-size="10.00" fill="grey">coefficientForMassAforMature</text>
<text text-anchor="middle" x="377" y="-233.5" font-family="Helvetica,sans-Serif" font-size="10.00" fill="grey">eggsPerBatch</text>
<text text-anchor="middle" x="377" y="-222.5" font-family="Helvetica,sans-Serif" font-size="10.00" fill="grey">excessInvestInSize</text>
<text text-anchor="middle" x="377" y="-211.5" font-family="Helvetica,sans-Serif" font-size="10.00" fill="grey">habitatShiftFactor</text>
<text text-anchor="middle" x="377" y="-200.5" font-family="Helvetica,sans-Serif" font-size="10.00" fill="grey">interceptForEggBatchFromEquation</text>
<text text-anchor="middle" x="377" y="-189.5" font-family="Helvetica,sans-Serif" font-size="10.00" fill="grey">maxPlasticityKVonBertalanffy</text>
<text text-anchor="middle" x="377" y="-178.5" font-family="Helvetica,sans-Serif" font-size="10.00" fill="grey">minPlasticityKVonBertalanffy</text>
<text text-anchor="middle" x="377" y="-167.5" font-family="Helvetica,sans-Serif" font-size="10.00" fill="grey">...</text>
</g>
<!-- Node6&#45;&gt;Node5 -->
<g id="edge5_Node000005_Node000006" class="edge">
<title>Node6&#45;&gt;Node5</title>
<g id="a_edge5_Node000005_Node000006"><a xlink:title=" ">
<path fill="none" stroke="#9a32cd" stroke-dasharray="5,2" d="M124.99,-133.5C189.07,-133.5 295.21,-133.5 346.48,-133.5"/>
<polygon fill="#9a32cd" stroke="#9a32cd" points="124.7,-130 114.7,-133.5 124.7,-137 124.7,-130"/>
</a>
</g>
<text text-anchor="middle" x="217" y="-136.5" font-family="Helvetica,sans-Serif" font-size="10.00" fill="grey"> value</text>
</g>
<!-- Node7 -->
<g id="Node000007" class="node">
<title>Node7</title>
<g id="a_Node000007"><a xlink:href="classDryMass.html" target="_top" xlink:title="Represents dry mass in the ecosystem simulation.">
<polygon fill="white" stroke="#666666" points="406.5,-106 347.5,-106 347.5,-87 406.5,-87 406.5,-106"/>
<text text-anchor="middle" x="377" y="-94" font-family="Helvetica,sans-Serif" font-size="10.00">DryMass</text>
</a>
</g>
</g>
<!-- Node6&#45;&gt;Node7 -->
<g id="edge7_Node000007_Node000006" class="edge">
<title>Node6&#45;&gt;Node7</title>
<g id="a_edge7_Node000007_Node000006"><a xlink:title=" ">
<path fill="none" stroke="#9a32cd" stroke-dasharray="5,2" d="M124.92,-124.03C136.76,-122.05 149.3,-120.09 161,-118.5 227.55,-109.46 306.15,-102.31 347.41,-98.82"/>
<polygon fill="#9a32cd" stroke="#9a32cd" points="124,-120.63 114.73,-125.76 125.17,-127.54 124,-120.63"/>
</a>
</g>
<text text-anchor="middle" x="217" y="-121.5" font-family="Helvetica,sans-Serif" font-size="10.00" fill="grey"> value</text>
</g>
<!-- Node7&#45;&gt;Node1 -->
<g id="edge6_Node000001_Node000007" class="edge">
<title>Node7&#45;&gt;Node1</title>
<g id="a_edge6_Node000001_Node000007"><a xlink:title=" ">
<path fill="none" stroke="#9a32cd" stroke-dasharray="5,2" d="M416.51,-98.46C467.88,-101.37 561.58,-107.67 641,-118.5 651.79,-119.97 663.34,-121.94 674.18,-123.96"/>
<polygon fill="#9a32cd" stroke="#9a32cd" points="416.69,-94.97 406.52,-97.91 416.31,-101.96 416.69,-94.97"/>
</a>
</g>
<text text-anchor="middle" x="561" y="-121.5" font-family="Helvetica,sans-Serif" font-size="10.00" fill="grey"> eggDryMass</text>
</g>
<!-- Node8 -->
<g id="Node000008" class="node">
<title>Node8</title>
<g id="a_Node000008"><a xlink:href="classCustomIndexedVector.html" target="_top" xlink:title=" ">
<polygon fill="white" stroke="#666666" points="438.5,-68.5 315.5,-68.5 315.5,-38.5 438.5,-38.5 438.5,-68.5"/>
<text text-anchor="start" x="323.5" y="-56.5" font-family="Helvetica,sans-Serif" font-size="10.00">CustomIndexedVector</text>
<text text-anchor="middle" x="377" y="-45.5" font-family="Helvetica,sans-Serif" font-size="10.00">&lt; Instar, Day &gt;</text>
</a>
</g>
</g>
<!-- Node8&#45;&gt;Node1 -->
<g id="edge9_Node000001_Node000008" class="edge">
<title>Node8&#45;&gt;Node1</title>
<g id="a_edge9_Node000001_Node000008"><a xlink:title=" ">
<path fill="none" stroke="#9a32cd" stroke-dasharray="5,2" d="M448.91,-55.57C502.82,-58.89 578.16,-67.32 641,-88.5 665.83,-96.87 691.68,-113.3 706.78,-123.83"/>
<polygon fill="#9a32cd" stroke="#9a32cd" points="448.95,-52.07 438.77,-54.99 448.55,-59.06 448.95,-52.07"/>
</a>
</g>
<text text-anchor="middle" x="561" y="-91.5" font-family="Helvetica,sans-Serif" font-size="10.00" fill="grey"> instarAgeVector</text>
</g>
<!-- Node9 -->
<g id="Node000009" class="node">
<title>Node9</title>
<g id="a_Node000009"><a xlink:href="classTimeStep.html" target="_top" xlink:title="Represents a discrete time step in the simulation.">
<polygon fill="white" stroke="#666666" points="408.5,-19 345.5,-19 345.5,0 408.5,0 408.5,-19"/>
<text text-anchor="middle" x="377" y="-7" font-family="Helvetica,sans-Serif" font-size="10.00">TimeStep</text>
</a>
</g>
</g>
<!-- Node9&#45;&gt;Node1 -->
<g id="edge11_Node000001_Node000009" class="edge">
<title>Node9&#45;&gt;Node1</title>
<g id="a_edge11_Node000001_Node000009"><a xlink:title=" ">
<path fill="none" stroke="#9a32cd" stroke-dasharray="5,2" d="M418.85,-3.74C473.11,1.9 570.33,4.8 641,-33.5 679.71,-54.48 705.98,-103.27 715.75,-123.95"/>
<polygon fill="#9a32cd" stroke="#9a32cd" points="418.14,-0.29 408.59,-4.89 418.92,-7.25 418.14,-0.29"/>
</a>
</g>
<text text-anchor="start" x="481" y="-47.5" font-family="Helvetica,sans-Serif" font-size="10.00" fill="grey"> timeOfReproEventDuringCapital</text>
<text text-anchor="middle" x="561" y="-36.5" font-family="Helvetica,sans-Serif" font-size="10.00" fill="grey">Breeding</text>
</g>
</g>
</svg>

<g id="navigator" transform="translate(0 0)" fill="#404254">
  <rect fill="#f2f5e9" fill-opacity="0.5" stroke="#606060" stroke-width=".5" x="0" y="0" width="60" height="60"/>
  <use id="zoomplus" xlink:href="#zoomPlus" x="17" y="9" onmousedown="handleZoom(evt,'in')"/>
  <use id="zoomminus" xlink:href="#zoomMin" x="42" y="9" onmousedown="handleZoom(evt,'out')"/>
  <use id="reset" xlink:href="#resetDef" x="30" y="36" onmousedown="handleReset()"/>
   <use id="arrowup" xlink:href="#arrowUp" x="0" y="0" onmousedown="handlePan(0,-1)"/>
  <use id="arrowright" xlink:href="#arrowRight" x="0" y="0" onmousedown="handlePan(1,0)"/>
  <use id="arrowdown" xlink:href="#arrowDown" x="0" y="0" onmousedown="handlePan(0,1)"/>
  <use id="arrowleft" xlink:href="#arrowLeft" x="0" y="0" onmousedown="handlePan(-1,0)"/>
</g>
<svg viewBox="0 0 15 15" width="100%" height="30px" preserveAspectRatio="xMaxYMin meet">
 <g id="arrow_out" transform="scale(0.3 0.3)">
  <a xlink:href="classAnimalSpeciesGrowth__coll__graph_org.svg" target="_base">
   <rect id="button" ry="5" rx="5" y="6" x="6" height="38" width="38"
        fill="#f2f5e9" fill-opacity="0.5" stroke="#606060" stroke-width="1.0"/>
   <path id="arrow"
     d="M 11.500037,31.436501 C 11.940474,20.09759 22.043105,11.32322 32.158766,21.979434 L 37.068811,17.246167 C 37.068811,17.246167 37.088388,32 37.088388,32 L 22.160133,31.978069 C 22.160133,31.978069 26.997745,27.140456 26.997745,27.140456 C 18.528582,18.264221 13.291696,25.230495 11.500037,31.436501 z"
     style="fill:#404040;"/>
  </a>
 </g>
</svg>

<style type='text/css'>
<![CDATA[
[data-mouse-over-selected='false'] { opacity: 0.7; }
[data-mouse-over-selected='true']  { opacity: 1.0; }
]]>
</style>
<script type="application/ecmascript"><![CDATA[
document.addEventListener('DOMContentLoaded', (event) => {
  highlightEdges();
  highlightAdjacentNodes();
});
]]></script>
</svg>
