<?xml version="1.0" encoding="UTF-8" standalone="no"?>
<!DOCTYPE svg PUBLIC "-//W3C//DTD SVG 1.1//EN"
 "http://www.w3.org/Graphics/SVG/1.1/DTD/svg11.dtd">
<!-- Generated by graphviz version 2.43.0 (0)
 -->
<!-- Title: SpeciesGrowth Pages: 1 -->
<svg width="284pt" height="82pt"
 viewBox="0.00 0.00 284.00 82.00" xmlns="http://www.w3.org/2000/svg" xmlns:xlink="http://www.w3.org/1999/xlink">
<g id="graph0" class="graph" transform="scale(1 1) rotate(0) translate(4 78)">
<title>SpeciesGrowth</title>
<!-- Node1 -->
<g id="Node000001" class="node">
<title>Node1</title>
<g id="a_Node000001"><a xlink:title="Represents the growth characteristics of a species across its instars.">
<polygon fill="#999999" stroke="#666666" points="179.5,-74 90.5,-74 90.5,-55 179.5,-55 179.5,-74"/>
<text text-anchor="middle" x="135" y="-62" font-family="Helvetica,sans-Serif" font-size="10.00">SpeciesGrowth</text>
</a>
</g>
</g>
<!-- Node2 -->
<g id="Node000002" class="node">
<title>Node2</title>
<g id="a_Node000002"><a xlink:href="classAnimalSpeciesGrowth.html" target="_top" xlink:title="Represents species&#45;specific growth, development, and reproductive parameters for animals.">
<polygon fill="white" stroke="#666666" points="124,-19 0,-19 0,0 124,0 124,-19"/>
<text text-anchor="middle" x="62" y="-7" font-family="Helvetica,sans-Serif" font-size="10.00">AnimalSpeciesGrowth</text>
</a>
</g>
</g>
<!-- Node1&#45;&gt;Node2 -->
<g id="edge1_Node000001_Node000002" class="edge">
<title>Node1&#45;&gt;Node2</title>
<g id="a_edge1_Node000001_Node000002"><a xlink:title=" ">
<path fill="none" stroke="#63b8ff" d="M114.86,-48.88C101.72,-39.34 85.02,-27.21 73.94,-19.17"/>
<polygon fill="#63b8ff" stroke="#63b8ff" points="113.12,-51.94 123.27,-54.98 117.24,-46.28 113.12,-51.94"/>
</a>
</g>
</g>
<!-- Node3 -->
<g id="Node000003" class="node">
<title>Node3</title>
<g id="a_Node000003"><a xlink:href="classResourceSpeciesGrowth.html" target="_top" xlink:title="Growth model for resource&#45;type species.">
<polygon fill="white" stroke="#666666" points="276,-19 142,-19 142,0 276,0 276,-19"/>
<text text-anchor="middle" x="209" y="-7" font-family="Helvetica,sans-Serif" font-size="10.00">ResourceSpeciesGrowth</text>
</a>
</g>
</g>
<!-- Node1&#45;&gt;Node3 -->
<g id="edge2_Node000001_Node000003" class="edge">
<title>Node1&#45;&gt;Node3</title>
<g id="a_edge2_Node000001_Node000003"><a xlink:title=" ">
<path fill="none" stroke="#63b8ff" d="M155.03,-49.15C168.41,-39.57 185.56,-27.29 196.89,-19.17"/>
<polygon fill="#63b8ff" stroke="#63b8ff" points="152.98,-46.32 146.89,-54.98 157.06,-52.01 152.98,-46.32"/>
</a>
</g>
</g>
</g>
</svg>
