<?xml version="1.0" encoding="UTF-8" standalone="no"?>
<!DOCTYPE svg PUBLIC "-//W3C//DTD SVG 1.1//EN"
 "http://www.w3.org/Graphics/SVG/1.1/DTD/svg11.dtd">
<!-- Generated by graphviz version 2.43.0 (0)
 -->
<!-- Title: PawarIndividualTraitTemperatureSection Pages: 1 -->
<svg width="746pt" height="86pt"
 viewBox="0.00 0.00 746.00 86.00" xmlns="http://www.w3.org/2000/svg" xmlns:xlink="http://www.w3.org/1999/xlink">
<g id="graph0" class="graph" transform="scale(1 1) rotate(0) translate(4 82)">
<title>PawarIndividualTraitTemperatureSection</title>
<!-- Node1 -->
<g id="Node000001" class="node">
<title>Node1</title>
<g id="a_Node000001"><a xlink:title="Temperature&#45;dependent section of an individual trait using the Pawar model.">
<polygon fill="#999999" stroke="#666666" points="738,-43 562,-43 562,-13 738,-13 738,-43"/>
<text text-anchor="start" x="570" y="-31" font-family="Helvetica,sans-Serif" font-size="10.00">PawarIndividualTraitTemperature</text>
<text text-anchor="middle" x="650" y="-20" font-family="Helvetica,sans-Serif" font-size="10.00">Section</text>
</a>
</g>
</g>
<!-- Node2 -->
<g id="Node000002" class="node">
<title>Node2</title>
<g id="a_Node000002"><a xlink:href="classIndividualTraitTemperatureSection.html" target="_top" xlink:title="Base class for handling temperature&#45;dependent effects on an individual trait.">
<polygon fill="white" stroke="#666666" points="458,-78 311,-78 311,-48 458,-48 458,-78"/>
<text text-anchor="start" x="319" y="-66" font-family="Helvetica,sans-Serif" font-size="10.00">IndividualTraitTemperature</text>
<text text-anchor="middle" x="384.5" y="-55" font-family="Helvetica,sans-Serif" font-size="10.00">Section</text>
</a>
</g>
</g>
<!-- Node2&#45;&gt;Node1 -->
<g id="edge1_Node000001_Node000002" class="edge">
<title>Node2&#45;&gt;Node1</title>
<g id="a_edge1_Node000001_Node000002"><a xlink:title=" ">
<path fill="none" stroke="#63b8ff" d="M468.12,-52.03C497.83,-48.08 531.44,-43.62 561.55,-39.62"/>
<polygon fill="#63b8ff" stroke="#63b8ff" points="467.65,-48.56 458.2,-53.34 468.57,-55.5 467.65,-48.56"/>
</a>
</g>
</g>
<!-- Node3 -->
<g id="Node000003" class="node">
<title>Node3</title>
<g id="a_Node000003"><a xlink:href="classTraitTemperatureSection.html" target="_top" xlink:title="Represents the temperature&#45;dependent part of a trait.">
<polygon fill="white" stroke="#666666" points="135,-72.5 0,-72.5 0,-53.5 135,-53.5 135,-72.5"/>
<text text-anchor="middle" x="67.5" y="-60.5" font-family="Helvetica,sans-Serif" font-size="10.00">TraitTemperatureSection</text>
</a>
</g>
</g>
<!-- Node3&#45;&gt;Node2 -->
<g id="edge2_Node000002_Node000003" class="edge">
<title>Node3&#45;&gt;Node2</title>
<g id="a_edge2_Node000002_Node000003"><a xlink:title=" ">
<path fill="none" stroke="#9a32cd" stroke-dasharray="5,2" d="M145.49,-63C195.86,-63 261.26,-63 310.75,-63"/>
<polygon fill="#9a32cd" stroke="#9a32cd" points="145.3,-59.5 135.3,-63 145.3,-66.5 145.3,-59.5"/>
</a>
</g>
<text text-anchor="middle" x="213.5" y="-66" font-family="Helvetica,sans-Serif" font-size="10.00" fill="grey"> traitTemperatureSection</text>
</g>
<!-- Node4 -->
<g id="Node000004" class="node">
<title>Node4</title>
<g id="a_Node000004"><a xlink:href="classCustomIndexedVector.html" target="_top" xlink:title=" ">
<polygon fill="white" stroke="#666666" points="477,-30 292,-30 292,0 477,0 477,-30"/>
<text text-anchor="start" x="300" y="-18" font-family="Helvetica,sans-Serif" font-size="10.00">CustomIndexedVector</text>
<text text-anchor="middle" x="384.5" y="-7" font-family="Helvetica,sans-Serif" font-size="10.00">&lt; PawarElement, PreciseDouble &gt;</text>
</a>
</g>
</g>
<!-- Node4&#45;&gt;Node1 -->
<g id="edge3_Node000001_Node000004" class="edge">
<title>Node4&#45;&gt;Node1</title>
<g id="a_edge3_Node000001_Node000004"><a xlink:title=" ">
<path fill="none" stroke="#9a32cd" stroke-dasharray="5,2" d="M487.37,-20.03C512,-21.24 538.1,-22.53 561.97,-23.71"/>
<polygon fill="#9a32cd" stroke="#9a32cd" points="487.45,-16.53 477.29,-19.53 487.1,-23.52 487.45,-16.53"/>
</a>
</g>
<text text-anchor="middle" x="519.5" y="-26" font-family="Helvetica,sans-Serif" font-size="10.00" fill="grey"> elements</text>
</g>
</g>
</svg>
