<?xml version="1.0" encoding="UTF-8" standalone="no"?>
<!DOCTYPE svg PUBLIC "-//W3C//DTD SVG 1.1//EN"
 "http://www.w3.org/Graphics/SVG/1.1/DTD/svg11.dtd">
<!-- Generated by graphviz version 2.43.0 (0)
 -->
<!-- Title: AnisotropicGaussian3D Pages: 1 -->
<svg width="391pt" height="239pt"
 viewBox="0.00 0.00 391.00 239.00" xmlns="http://www.w3.org/2000/svg" xmlns:xlink="http://www.w3.org/1999/xlink">
<g id="graph0" class="graph" transform="scale(1 1) rotate(0) translate(4 235)">
<title>AnisotropicGaussian3D</title>
<!-- Node1 -->
<g id="Node000001" class="node">
<title>Node1</title>
<g id="a_Node000001"><a xlink:title="Class for handling anisotropic 3D Gaussian distributions.">
<polygon fill="#999999" stroke="#666666" points="130,-19 0,-19 0,0 130,0 130,-19"/>
<text text-anchor="middle" x="65" y="-7" font-family="Helvetica,sans-Serif" font-size="10.00">AnisotropicGaussian3D</text>
</a>
</g>
</g>
<!-- Node2 -->
<g id="Node000002" class="node">
<title>Node2</title>
<g id="a_Node000002"><a xlink:href="classPreciseDouble.html" target="_top" xlink:title="Class for precise double&#45;precision floating&#45;point arithmetic.">
<polygon fill="white" stroke="#666666" points="108,-231 22,-231 22,-212 108,-212 108,-231"/>
<text text-anchor="middle" x="65" y="-219" font-family="Helvetica,sans-Serif" font-size="10.00">PreciseDouble</text>
</a>
</g>
</g>
<!-- Node2&#45;&gt;Node1 -->
<g id="edge1_Node000001_Node000002" class="edge">
<title>Node2&#45;&gt;Node1</title>
<g id="a_edge1_Node000001_Node000002"><a xlink:title=" ">
<path fill="none" stroke="#9a32cd" stroke-dasharray="5,2" d="M62.85,-201.95C61.15,-186.27 58.91,-163.2 58,-143 56.46,-108.81 55.85,-100.15 58,-66 59.05,-49.33 61.85,-30.01 63.57,-19.12"/>
<polygon fill="#9a32cd" stroke="#9a32cd" points="59.38,-202.37 63.97,-211.92 66.33,-201.59 59.38,-202.37"/>
</a>
</g>
<text text-anchor="middle" x="128" y="-135" font-family="Helvetica,sans-Serif" font-size="10.00" fill="grey"> amplitude</text>
<text text-anchor="middle" x="128" y="-124" font-family="Helvetica,sans-Serif" font-size="10.00" fill="grey">inverseSquaredSigmaDepth</text>
<text text-anchor="middle" x="128" y="-113" font-family="Helvetica,sans-Serif" font-size="10.00" fill="grey">inverseSquaredSigmaLength</text>
<text text-anchor="middle" x="128" y="-102" font-family="Helvetica,sans-Serif" font-size="10.00" fill="grey">inverseSquaredSigmaWidth</text>
<text text-anchor="middle" x="128" y="-91" font-family="Helvetica,sans-Serif" font-size="10.00" fill="grey">sigmaDepth</text>
<text text-anchor="middle" x="128" y="-80" font-family="Helvetica,sans-Serif" font-size="10.00" fill="grey">sigmaLength</text>
<text text-anchor="middle" x="128" y="-69" font-family="Helvetica,sans-Serif" font-size="10.00" fill="grey">sigmaWidth</text>
</g>
<!-- Node3 -->
<g id="Node000003" class="node">
<title>Node3</title>
<g id="a_Node000003"><a xlink:href="classCoordinate3D.html" target="_top" xlink:title=" ">
<polygon fill="white" stroke="#666666" points="383,-114 207,-114 207,-95 383,-95 383,-114"/>
<text text-anchor="middle" x="295" y="-102" font-family="Helvetica,sans-Serif" font-size="10.00">Coordinate3D&lt; PreciseDouble &gt;</text>
</a>
</g>
</g>
<!-- Node2&#45;&gt;Node3 -->
<g id="edge3_Node000003_Node000002" class="edge">
<title>Node2&#45;&gt;Node3</title>
<g id="a_edge3_Node000003_Node000002"><a xlink:title=" ">
<path fill="none" stroke="#9a32cd" stroke-dasharray="5,2" d="M91.35,-207.32C138.94,-183.53 237.96,-134.02 277.83,-114.09"/>
<polygon fill="#9a32cd" stroke="#9a32cd" points="89.67,-204.25 82.29,-211.86 92.8,-210.51 89.67,-204.25"/>
</a>
</g>
<text text-anchor="middle" x="185" y="-186" font-family="Helvetica,sans-Serif" font-size="10.00" fill="grey"> x</text>
<text text-anchor="middle" x="185" y="-175" font-family="Helvetica,sans-Serif" font-size="10.00" fill="grey">y</text>
<text text-anchor="middle" x="185" y="-164" font-family="Helvetica,sans-Serif" font-size="10.00" fill="grey">z</text>
</g>
<!-- Node3&#45;&gt;Node1 -->
<g id="edge2_Node000001_Node000003" class="edge">
<title>Node3&#45;&gt;Node1</title>
<g id="a_edge2_Node000001_Node000003"><a xlink:title=" ">
<path fill="none" stroke="#9a32cd" stroke-dasharray="5,2" d="M264.33,-91.1C216.92,-71.93 127.04,-35.59 86.17,-19.06"/>
<polygon fill="#9a32cd" stroke="#9a32cd" points="263.19,-94.41 273.77,-94.92 265.82,-87.92 263.19,-94.41"/>
</a>
</g>
<text text-anchor="middle" x="169" y="-40" font-family="Helvetica,sans-Serif" font-size="10.00" fill="grey"> center</text>
</g>
</g>
</svg>
