<?xml version="1.0" encoding="UTF-8" standalone="no"?>
<!DOCTYPE svg PUBLIC "-//W3C//DTD SVG 1.1//EN"
 "http://www.w3.org/Graphics/SVG/1.1/DTD/svg11.dtd">
<!-- Generated by graphviz version 2.43.0 (0)
 -->
<!-- Title: Landscape Pages: 1 -->
<svg width="389pt" height="82pt"
 viewBox="0.00 0.00 389.00 82.00" xmlns="http://www.w3.org/2000/svg" xmlns:xlink="http://www.w3.org/1999/xlink">
<g id="graph0" class="graph" transform="scale(1 1) rotate(0) translate(4 78)">
<title>Landscape</title>
<!-- Node1 -->
<g id="Node000001" class="node">
<title>Node1</title>
<g id="a_Node000001"><a xlink:title="Abstract base class that represents the simulation landscape.">
<polygon fill="#999999" stroke="#666666" points="218.5,-74 150.5,-74 150.5,-55 218.5,-55 218.5,-74"/>
<text text-anchor="middle" x="184.5" y="-62" font-family="Helvetica,sans-Serif" font-size="10.00">Landscape</text>
</a>
</g>
</g>
<!-- Node2 -->
<g id="Node000002" class="node">
<title>Node2</title>
<g id="a_Node000002"><a xlink:href="classAquaticLandscape.html" target="_top" xlink:title="Specialized landscape representing aquatic ecosystems.">
<polygon fill="white" stroke="#666666" points="105,-19 0,-19 0,0 105,0 105,-19"/>
<text text-anchor="middle" x="52.5" y="-7" font-family="Helvetica,sans-Serif" font-size="10.00">AquaticLandscape</text>
</a>
</g>
</g>
<!-- Node1&#45;&gt;Node2 -->
<g id="edge1_Node000001_Node000002" class="edge">
<title>Node1&#45;&gt;Node2</title>
<g id="a_edge1_Node000001_Node000002"><a xlink:title=" ">
<path fill="none" stroke="#63b8ff" d="M153.77,-51.16C129.33,-41.35 95.76,-27.87 74.09,-19.17"/>
<polygon fill="#63b8ff" stroke="#63b8ff" points="152.71,-54.51 163.29,-54.98 155.32,-48.01 152.71,-54.51"/>
</a>
</g>
</g>
<!-- Node3 -->
<g id="Node000003" class="node">
<title>Node3</title>
<g id="a_Node000003"><a xlink:href="classArthropodsLandscape.html" target="_top" xlink:title="Specialized landscape model for arthropod ecosystems.">
<polygon fill="white" stroke="#666666" points="245.5,-19 123.5,-19 123.5,0 245.5,0 245.5,-19"/>
<text text-anchor="middle" x="184.5" y="-7" font-family="Helvetica,sans-Serif" font-size="10.00">ArthropodsLandscape</text>
</a>
</g>
</g>
<!-- Node1&#45;&gt;Node3 -->
<g id="edge2_Node000001_Node000003" class="edge">
<title>Node1&#45;&gt;Node3</title>
<g id="a_edge2_Node000001_Node000003"><a xlink:title=" ">
<path fill="none" stroke="#63b8ff" d="M184.5,-44.66C184.5,-35.93 184.5,-25.99 184.5,-19.09"/>
<polygon fill="#63b8ff" stroke="#63b8ff" points="181,-44.75 184.5,-54.75 188,-44.75 181,-44.75"/>
</a>
</g>
</g>
<!-- Node4 -->
<g id="Node000004" class="node">
<title>Node4</title>
<g id="a_Node000004"><a xlink:href="classDinosaursLandscape.html" target="_top" xlink:title="Specialized landscape model representing dinosaur ecosystems.">
<polygon fill="white" stroke="#666666" points="381,-19 264,-19 264,0 381,0 381,-19"/>
<text text-anchor="middle" x="322.5" y="-7" font-family="Helvetica,sans-Serif" font-size="10.00">DinosaursLandscape</text>
</a>
</g>
</g>
<!-- Node1&#45;&gt;Node4 -->
<g id="edge3_Node000001_Node000004" class="edge">
<title>Node1&#45;&gt;Node4</title>
<g id="a_edge3_Node000001_Node000004"><a xlink:title=" ">
<path fill="none" stroke="#63b8ff" d="M216.29,-51.29C241.87,-41.47 277.17,-27.91 299.92,-19.17"/>
<polygon fill="#63b8ff" stroke="#63b8ff" points="214.75,-48.13 206.67,-54.98 217.26,-54.67 214.75,-48.13"/>
</a>
</g>
</g>
</g>
</svg>
