<?xml version="1.0" encoding="UTF-8" standalone="no"?>
<!DOCTYPE svg PUBLIC "-//W3C//DTD SVG 1.1//EN"
 "http://www.w3.org/Graphics/SVG/1.1/DTD/svg11.dtd">
<!-- Generated by graphviz version 2.43.0 (0)
 -->
<!-- Title: DecisionsTrait Pages: 1 -->
<svg width="361pt" height="150pt"
 viewBox="0.00 0.00 361.00 150.00" xmlns="http://www.w3.org/2000/svg" xmlns:xlink="http://www.w3.org/1999/xlink">

<svg id="main" version="1.1" xmlns="http://www.w3.org/2000/svg" xmlns:xlink="http://www.w3.org/1999/xlink" xml:space="preserve" onload="init(evt)">
<style type="text/css"><![CDATA[
.node, .edge {opacity: 0.7;}
.node.selected, .edge.selected {opacity: 1;}
.edge:hover path { stroke: red; }
.edge:hover polygon { stroke: red; fill: red; }
]]></style>
<script type="application/ecmascript" xlink:href="svg.min.js"/>
<svg id="graph" class="graph">
<g id="graph0" class="graph" transform="scale(1 1) rotate(0) translate(4 146)">
<title>DecisionsTrait</title>
<!-- Node1 -->
<g id="Node000001" class="node">
<title>Node1</title>
<g id="a_Node000001"><a xlink:title="Represents a trait that affects decision&#45;making of individuals.">
<polygon fill="#999999" stroke="#666666" points="159,-83 74,-83 74,-64 159,-64 159,-83"/>
<text text-anchor="middle" x="116.5" y="-71" font-family="Helvetica,sans-Serif" font-size="10.00">DecisionsTrait</text>
</a>
</g>
</g>
<!-- Node3 -->
<g id="Node000003" class="node">
<title>Node3</title>
<g id="a_Node000003"><a xlink:href="classEdibilityValueWeightTrait.html" target="_top" xlink:title="Represents a trait that influences edibility values for behavioral decisions in animal species.">
<polygon fill="white" stroke="#666666" points="343,-142 205,-142 205,-123 343,-123 343,-142"/>
<text text-anchor="middle" x="274" y="-130" font-family="Helvetica,sans-Serif" font-size="10.00">EdibilityValueWeightTrait</text>
</a>
</g>
</g>
<!-- Node1&#45;&gt;Node3 -->
<g id="edge2_Node000001_Node000003" class="edge">
<title>Node1&#45;&gt;Node3</title>
<g id="a_edge2_Node000001_Node000003"><a xlink:title=" ">
<path fill="none" stroke="#63b8ff" d="M141.29,-88.17C156.26,-96.86 176.22,-107.5 195,-114.5 203.86,-117.8 213.51,-120.62 222.91,-122.97"/>
<polygon fill="#63b8ff" stroke="#63b8ff" points="143.07,-85.15 132.68,-83.06 139.5,-91.17 143.07,-85.15"/>
</a>
</g>
</g>
<!-- Node4 -->
<g id="Node000004" class="node">
<title>Node4</title>
<g id="a_Node000004"><a xlink:href="classEscapeProbabilityWeightTrait.html" target="_top" xlink:title="Represents a trait that influences escape probability for behavioral decisions in animal species.">
<polygon fill="white" stroke="#666666" points="353,-105 195,-105 195,-86 353,-86 353,-105"/>
<text text-anchor="middle" x="274" y="-93" font-family="Helvetica,sans-Serif" font-size="10.00">EscapeProbabilityWeightTrait</text>
</a>
</g>
</g>
<!-- Node1&#45;&gt;Node4 -->
<g id="edge3_Node000001_Node000004" class="edge">
<title>Node1&#45;&gt;Node4</title>
<g id="a_edge3_Node000001_Node000004"><a xlink:title=" ">
<path fill="none" stroke="#63b8ff" d="M169.18,-80.81C180.88,-82.47 193.45,-84.25 205.68,-85.98"/>
<polygon fill="#63b8ff" stroke="#63b8ff" points="169.56,-77.33 159.17,-79.4 168.58,-84.26 169.56,-77.33"/>
</a>
</g>
</g>
<!-- Node5 -->
<g id="Node000005" class="node">
<title>Node5</title>
<g id="a_Node000005"><a xlink:href="classPredationProbabilityWeightTrait.html" target="_top" xlink:title="Represents a trait that influences predation probability for behavioral decisions in animal species.">
<polygon fill="white" stroke="#666666" points="348.5,-67.5 199.5,-67.5 199.5,-37.5 348.5,-37.5 348.5,-67.5"/>
<text text-anchor="start" x="207.5" y="-55.5" font-family="Helvetica,sans-Serif" font-size="10.00">PredationProbabilityWeight</text>
<text text-anchor="middle" x="274" y="-44.5" font-family="Helvetica,sans-Serif" font-size="10.00">Trait</text>
</a>
</g>
</g>
<!-- Node1&#45;&gt;Node5 -->
<g id="edge4_Node000001_Node000005" class="edge">
<title>Node1&#45;&gt;Node5</title>
<g id="a_edge4_Node000001_Node000005"><a xlink:title=" ">
<path fill="none" stroke="#63b8ff" d="M169.37,-66.5C179.01,-65.19 189.25,-63.81 199.39,-62.44"/>
<polygon fill="#63b8ff" stroke="#63b8ff" points="168.61,-63.07 159.17,-67.87 169.55,-70 168.61,-63.07"/>
</a>
</g>
</g>
<!-- Node6 -->
<g id="Node000006" class="node">
<title>Node6</title>
<g id="a_Node000006"><a xlink:href="classPreferencesTrait.html" target="_top" xlink:title="Represents a trait encoding animal preferences used in behavioral decisions.">
<polygon fill="white" stroke="#666666" points="321.5,-19 226.5,-19 226.5,0 321.5,0 321.5,-19"/>
<text text-anchor="middle" x="274" y="-7" font-family="Helvetica,sans-Serif" font-size="10.00">PreferencesTrait</text>
</a>
</g>
</g>
<!-- Node1&#45;&gt;Node6 -->
<g id="edge5_Node000001_Node000006" class="edge">
<title>Node1&#45;&gt;Node6</title>
<g id="a_edge5_Node000001_Node000006"><a xlink:title=" ">
<path fill="none" stroke="#63b8ff" d="M139.74,-58.27C154.78,-48.57 175.4,-36.39 195,-28.5 204.83,-24.55 215.69,-21.27 226.12,-18.61"/>
<polygon fill="#63b8ff" stroke="#63b8ff" points="137.58,-55.5 131.16,-63.93 141.44,-61.35 137.58,-55.5"/>
</a>
</g>
</g>
<!-- Node2 -->
<g id="Node000002" class="node">
<title>Node2</title>
<g id="a_Node000002"><a xlink:href="classTrait.html" target="_top" xlink:title="Represents a trait of an animal species or individual.">
<polygon fill="white" stroke="#666666" points="38,-83 0,-83 0,-64 38,-64 38,-83"/>
<text text-anchor="middle" x="19" y="-71" font-family="Helvetica,sans-Serif" font-size="10.00">Trait</text>
</a>
</g>
</g>
<!-- Node2&#45;&gt;Node1 -->
<g id="edge1_Node000001_Node000002" class="edge">
<title>Node2&#45;&gt;Node1</title>
<g id="a_edge1_Node000001_Node000002"><a xlink:title=" ">
<path fill="none" stroke="#63b8ff" d="M48.6,-73.5C56.52,-73.5 65.29,-73.5 73.8,-73.5"/>
<polygon fill="#63b8ff" stroke="#63b8ff" points="48.41,-70 38.41,-73.5 48.41,-77 48.41,-70"/>
</a>
</g>
</g>
</g>
</svg>
</svg>

<style type='text/css'>
<![CDATA[
[data-mouse-over-selected='false'] { opacity: 0.7; }
[data-mouse-over-selected='true']  { opacity: 1.0; }
]]>
</style>
<script type="application/ecmascript"><![CDATA[
document.addEventListener('DOMContentLoaded', (event) => {
  highlightEdges();
  highlightAdjacentNodes();
});
]]></script>
</svg>
