<?xml version="1.0" encoding="UTF-8" standalone="no"?>
<!DOCTYPE svg PUBLIC "-//W3C//DTD SVG 1.1//EN"
 "http://www.w3.org/Graphics/SVG/1.1/DTD/svg11.dtd">
<!-- Generated by graphviz version 2.43.0 (0)
 -->
<!-- Title: CellResource Pages: 1 -->
<!--zoomable 541 -->

<svg id="main" version="1.1" xmlns="http://www.w3.org/2000/svg" xmlns:xlink="http://www.w3.org/1999/xlink" xml:space="preserve" onload="init(evt)">
<style type="text/css"><![CDATA[
.node, .edge {opacity: 0.7;}
.node.selected, .edge.selected {opacity: 1;}
.edge:hover path { stroke: red; }
.edge:hover polygon { stroke: red; fill: red; }
]]></style>

<defs>
  <circle id="rim" cx="0" cy="0" r="7"/>
  <circle id="rim2" cx="0" cy="0" r="3.5"/>
  <g id="zoomPlus">
    <use xlink:href="#rim" fill="#404040"><set attributeName="fill" to="#808080" begin="zoomplus.mouseover" end="zoomplus.mouseout"/></use>
    <path d="M-4,0h8M0,-4v8" fill="none" stroke="white" stroke-width="1.5" pointer-events="none"/>
  </g>
  <g id="zoomMin">
    <use xlink:href="#rim" fill="#404040"><set attributeName="fill" to="#808080" begin="zoomminus.mouseover" end="zoomminus.mouseout"/></use>
    <path d="M-4,0h8" fill="none" stroke="white" stroke-width="1.5" pointer-events="none"/>
  </g>
  <g id="arrowUp" transform="translate(30 24)">
    <use xlink:href="#rim"/>
    <path pointer-events="none" fill="none" stroke="white" stroke-width="1.5" d="M0,-3.0v7 M-2.5,-0.5L0,-3.0L2.5,-0.5"/>
  </g>
  <g id="arrowRight" transform="rotate(90) translate(36 -43)">
    <use xlink:href="#rim"/>
    <path pointer-events="none" fill="none" stroke="white" stroke-width="1.5" d="M0,-3.0v7 M-2.5,-0.5L0,-3.0L2.5,-0.5"/>
  </g>
  <g id="arrowDown" transform="rotate(180) translate(-30 -48)">
    <use xlink:href="#rim"/>
    <path pointer-events="none" fill="none" stroke="white" stroke-width="1.5" d="M0,-3.0v7 M-2.5,-0.5L0,-3.0L2.5,-0.5"/>
  </g>
  <g id="arrowLeft" transform="rotate(270) translate(-36 17)">
    <use xlink:href="#rim"/>
    <path pointer-events="none" fill="none" stroke="white" stroke-width="1.5" d="M0,-3.0v7 M-2.5,-0.5L0,-3.0L2.5,-0.5"/>
  </g>
  <g id="resetDef">
    <use xlink:href="#rim2" fill="#404040"><set attributeName="fill" to="#808080" begin="reset.mouseover" end="reset.mouseout"/></use>
  </g>
</defs>
<script type="application/ecmascript">
var viewWidth = 2248;
var viewHeight = 541;
var sectionId = 'dynsection-1';
</script>
<script type="application/ecmascript" xlink:href="svg.min.js"/>
<svg id="graph" class="graph">
<g id="viewport">
<title>CellResource</title>
<!-- Node1 -->
<g id="Node000001" class="node">
<title>Node1</title>
<g id="a_Node000001"><a xlink:title="Concrete implementation of a resource cell.">
<polygon fill="#999999" stroke="#666666" points="2240,-305.5 2160,-305.5 2160,-286.5 2240,-286.5 2240,-305.5"/>
<text text-anchor="middle" x="2200" y="-293.5" font-family="Helvetica,sans-Serif" font-size="10.00">CellResource</text>
</a>
</g>
</g>
<!-- Node2 -->
<g id="Node000002" class="node">
<title>Node2</title>
<g id="a_Node000002"><a xlink:href="classCellResourceInterface.html" target="_top" xlink:title="Interface for a resource in a terrain cell.">
<polygon fill="white" stroke="#666666" points="1638,-336.5 1514,-336.5 1514,-317.5 1638,-317.5 1638,-336.5"/>
<text text-anchor="middle" x="1576" y="-324.5" font-family="Helvetica,sans-Serif" font-size="10.00">CellResourceInterface</text>
</a>
</g>
</g>
<!-- Node2&#45;&gt;Node1 -->
<g id="edge1_Node000001_Node000002" class="edge">
<title>Node2&#45;&gt;Node1</title>
<g id="a_edge1_Node000001_Node000002"><a xlink:title=" ">
<path fill="none" stroke="#63b8ff" d="M1648.1,-324.11C1755.23,-319.64 1964.41,-310.47 2142,-300 2147.74,-299.66 2153.81,-299.27 2159.76,-298.87"/>
<polygon fill="#63b8ff" stroke="#63b8ff" points="1647.9,-320.62 1638.06,-324.53 1648.19,-327.61 1647.9,-320.62"/>
</a>
</g>
</g>
<!-- Node19 -->
<g id="Node000019" class="node">
<title>Node19</title>
<g id="a_Node000019"><a xlink:href="classCellResourceInterfaceGrowth.html" target="_top" xlink:title="Manages growth and biomass for a resource cell.">
<polygon fill="white" stroke="#666666" points="1867,-225.5 1708,-225.5 1708,-206.5 1867,-206.5 1867,-225.5"/>
<text text-anchor="middle" x="1787.5" y="-213.5" font-family="Helvetica,sans-Serif" font-size="10.00">CellResourceInterfaceGrowth</text>
</a>
</g>
</g>
<!-- Node2&#45;&gt;Node19 -->
<g id="edge32_Node000019_Node000002" class="edge">
<title>Node2&#45;&gt;Node19</title>
<g id="a_edge32_Node000019_Node000002"><a xlink:title=" ">
<path fill="none" stroke="#9a32cd" stroke-dasharray="5,2" d="M1604.1,-312.64C1647.54,-289.63 1731.62,-245.08 1768.47,-225.55"/>
<polygon fill="#9a32cd" stroke="#9a32cd" points="1602.42,-309.57 1595.23,-317.34 1605.7,-315.75 1602.42,-309.57"/>
</a>
</g>
<text text-anchor="middle" x="1673" y="-287" font-family="Helvetica,sans-Serif" font-size="10.00" fill="grey"> owner</text>
</g>
<!-- Node3 -->
<g id="Node000003" class="node">
<title>Node3</title>
<g id="a_Node000003"><a xlink:href="classEdible.html" target="_top" xlink:title="Represents a generic edible entity within a terrain cell.">
<polygon fill="white" stroke="#666666" points="1461,-339.5 1414,-339.5 1414,-320.5 1461,-320.5 1461,-339.5"/>
<text text-anchor="middle" x="1437.5" y="-327.5" font-family="Helvetica,sans-Serif" font-size="10.00">Edible</text>
</a>
</g>
</g>
<!-- Node3&#45;&gt;Node2 -->
<g id="edge2_Node000002_Node000003" class="edge">
<title>Node3&#45;&gt;Node2</title>
<g id="a_edge2_Node000002_Node000003"><a xlink:title=" ">
<path fill="none" stroke="#63b8ff" d="M1471.2,-329.28C1484.01,-329 1499.15,-328.67 1513.84,-328.34"/>
<polygon fill="#63b8ff" stroke="#63b8ff" points="1470.96,-325.79 1461.04,-329.5 1471.11,-332.78 1470.96,-325.79"/>
</a>
</g>
</g>
<!-- Node4 -->
<g id="Node000004" class="node">
<title>Node4</title>
<g id="a_Node000004"><a xlink:href="classEdibleID.html" target="_top" xlink:title="Encapsulates a unique identifier for an edible object or resource.">
<polygon fill="white" stroke="#666666" points="1299.5,-341.5 1242.5,-341.5 1242.5,-322.5 1299.5,-322.5 1299.5,-341.5"/>
<text text-anchor="middle" x="1271" y="-329.5" font-family="Helvetica,sans-Serif" font-size="10.00">EdibleID</text>
</a>
</g>
</g>
<!-- Node4&#45;&gt;Node3 -->
<g id="edge3_Node000003_Node000004" class="edge">
<title>Node4&#45;&gt;Node3</title>
<g id="a_edge3_Node000003_Node000004"><a xlink:title=" ">
<path fill="none" stroke="#9a32cd" stroke-dasharray="5,2" d="M1309.9,-331.54C1342.06,-331.15 1387.12,-330.6 1413.91,-330.27"/>
<polygon fill="#9a32cd" stroke="#9a32cd" points="1309.49,-328.04 1299.53,-331.67 1309.58,-335.04 1309.49,-328.04"/>
</a>
</g>
<text text-anchor="middle" x="1351.5" y="-334" font-family="Helvetica,sans-Serif" font-size="10.00" fill="grey"> id</text>
</g>
<!-- Node5 -->
<g id="Node000005" class="node">
<title>Node5</title>
<g id="a_Node000005"><a xlink:href="classSpecies.html" target="_top" xlink:title="Represents a generic species in the ecosystem.">
<polygon fill="white" stroke="#666666" points="1298,-304.5 1244,-304.5 1244,-285.5 1298,-285.5 1298,-304.5"/>
<text text-anchor="middle" x="1271" y="-292.5" font-family="Helvetica,sans-Serif" font-size="10.00">Species</text>
</a>
</g>
</g>
<!-- Node5&#45;&gt;Node3 -->
<g id="edge4_Node000003_Node000005" class="edge">
<title>Node5&#45;&gt;Node3</title>
<g id="a_edge4_Node000003_Node000005"><a xlink:title=" ">
<path fill="none" stroke="#9a32cd" stroke-dasharray="5,2" d="M1308.4,-301.03C1329.41,-304.68 1356.29,-309.66 1380,-315 1391.19,-317.52 1403.51,-320.73 1413.78,-323.54"/>
<polygon fill="#9a32cd" stroke="#9a32cd" points="1308.75,-297.54 1298.3,-299.29 1307.57,-304.43 1308.75,-297.54"/>
</a>
</g>
<text text-anchor="middle" x="1351.5" y="-318" font-family="Helvetica,sans-Serif" font-size="10.00" fill="grey"> mySpecies</text>
</g>
<!-- Node6 -->
<g id="Node000006" class="node">
<title>Node6</title>
<g id="a_Node000006"><a xlink:href="classSpecies_1_1ID.html" target="_top" xlink:title="Unique identifier for a Species.">
<polygon fill="white" stroke="#666666" points="1079,-304.5 1008,-304.5 1008,-285.5 1079,-285.5 1079,-304.5"/>
<text text-anchor="middle" x="1043.5" y="-292.5" font-family="Helvetica,sans-Serif" font-size="10.00">Species::ID</text>
</a>
</g>
</g>
<!-- Node6&#45;&gt;Node5 -->
<g id="edge5_Node000005_Node000006" class="edge">
<title>Node6&#45;&gt;Node5</title>
<g id="a_edge5_Node000005_Node000006"><a xlink:title=" ">
<path fill="none" stroke="#9a32cd" stroke-dasharray="5,2" d="M1089.27,-295C1135.41,-295 1205.8,-295 1243.68,-295"/>
<polygon fill="#9a32cd" stroke="#9a32cd" points="1089.24,-291.5 1079.24,-295 1089.24,-298.5 1089.24,-291.5"/>
</a>
</g>
<text text-anchor="middle" x="1179" y="-298" font-family="Helvetica,sans-Serif" font-size="10.00" fill="grey"> id</text>
</g>
<!-- Node7 -->
<g id="Node000007" class="node">
<title>Node7</title>
<g id="a_Node000007"><a xlink:href="classTerrainCell.html" target="_top" xlink:title="Represents a single cell in the landscape.">
<polygon fill="white" stroke="#666666" points="1305,-396.5 1237,-396.5 1237,-377.5 1305,-377.5 1305,-396.5"/>
<text text-anchor="middle" x="1271" y="-384.5" font-family="Helvetica,sans-Serif" font-size="10.00">TerrainCell</text>
</a>
</g>
</g>
<!-- Node7&#45;&gt;Node3 -->
<g id="edge6_Node000003_Node000007" class="edge">
<title>Node7&#45;&gt;Node3</title>
<g id="a_edge6_Node000003_Node000007"><a xlink:title=" ">
<path fill="none" stroke="#9a32cd" stroke-dasharray="5,2" d="M1309.06,-374.16C1341.27,-363 1386.89,-347.19 1413.91,-337.83"/>
<polygon fill="#9a32cd" stroke="#9a32cd" points="1307.84,-370.88 1299.53,-377.46 1310.13,-377.49 1307.84,-370.88"/>
</a>
</g>
<text text-anchor="middle" x="1351.5" y="-371" font-family="Helvetica,sans-Serif" font-size="10.00" fill="grey"> terrainCell</text>
</g>
<!-- Node8 -->
<g id="Node000008" class="node">
<title>Node8</title>
<g id="a_Node000008"><a xlink:href="classPatchApplicator.html" target="_top" xlink:title="Applies patches to a TerrainCell including moisture, resources, obstacles, and habitat domains.">
<polygon fill="white" stroke="#666666" points="1089.5,-443.5 997.5,-443.5 997.5,-424.5 1089.5,-424.5 1089.5,-443.5"/>
<text text-anchor="middle" x="1043.5" y="-431.5" font-family="Helvetica,sans-Serif" font-size="10.00">PatchApplicator</text>
</a>
</g>
</g>
<!-- Node7&#45;&gt;Node8 -->
<g id="edge8_Node000008_Node000007" class="edge">
<title>Node7&#45;&gt;Node8</title>
<g id="a_edge8_Node000008_Node000007"><a xlink:title=" ">
<path fill="none" stroke="#9a32cd" stroke-dasharray="5,2" d="M1248.43,-401.9C1239.67,-407.23 1229.22,-412.73 1219,-416 1176.51,-429.61 1125.5,-433.54 1089.64,-434.41"/>
<polygon fill="#9a32cd" stroke="#9a32cd" points="1250.33,-404.84 1256.86,-396.51 1246.55,-398.95 1250.33,-404.84"/>
</a>
</g>
<text text-anchor="middle" x="1179" y="-434" font-family="Helvetica,sans-Serif" font-size="10.00" fill="grey"> owner</text>
</g>
<!-- Node8&#45;&gt;Node7 -->
<g id="edge7_Node000007_Node000008" class="edge">
<title>Node8&#45;&gt;Node7</title>
<g id="a_edge7_Node000007_Node000008"><a xlink:title=" ">
<path fill="none" stroke="#9a32cd" stroke-dasharray="5,2" d="M1081.22,-421.22C1098.57,-415.58 1119.67,-409.27 1139,-405 1171.95,-397.73 1210.26,-392.87 1236.9,-390.06"/>
<polygon fill="#9a32cd" stroke="#9a32cd" points="1079.88,-417.98 1071.48,-424.45 1082.08,-424.62 1079.88,-417.98"/>
</a>
</g>
<text text-anchor="middle" x="1179" y="-408" font-family="Helvetica,sans-Serif" font-size="10.00" fill="grey"> patchApplicator</text>
</g>
<!-- Node9 -->
<g id="Node000009" class="node">
<title>Node9</title>
<g id="a_Node000009"><a xlink:href="classCellMoistureInterface.html" target="_top" xlink:title="Base interface representing the hydrological and thermal properties of a terrain cell.">
<polygon fill="white" stroke="#666666" points="819.5,-430.5 697.5,-430.5 697.5,-411.5 819.5,-411.5 819.5,-430.5"/>
<text text-anchor="middle" x="758.5" y="-418.5" font-family="Helvetica,sans-Serif" font-size="10.00">CellMoistureInterface</text>
</a>
</g>
</g>
<!-- Node9&#45;&gt;Node8 -->
<g id="edge9_Node000008_Node000009" class="edge">
<title>Node9&#45;&gt;Node8</title>
<g id="a_edge9_Node000008_Node000009"><a xlink:title=" ">
<path fill="none" stroke="#9a32cd" stroke-dasharray="5,2" d="M830.07,-420.63C865.49,-420.82 909.05,-421.63 948,-424 964.14,-424.98 981.77,-426.68 997.38,-428.39"/>
<polygon fill="#9a32cd" stroke="#9a32cd" points="829.84,-417.13 819.83,-420.59 829.81,-424.13 829.84,-417.13"/>
</a>
</g>
<text text-anchor="middle" x="900.5" y="-427" font-family="Helvetica,sans-Serif" font-size="10.00" fill="grey"> cellMoisture</text>
</g>
<!-- Node10 -->
<g id="Node000010" class="node">
<title>Node10</title>
<g id="a_Node000010"><a xlink:href="classCellElement.html" target="_top" xlink:title="Base class for any modifiable element contained within a terrain cell.">
<polygon fill="white" stroke="#666666" points="425,-493.5 349,-493.5 349,-474.5 425,-474.5 425,-493.5"/>
<text text-anchor="middle" x="387" y="-481.5" font-family="Helvetica,sans-Serif" font-size="10.00">CellElement</text>
</a>
</g>
</g>
<!-- Node10&#45;&gt;Node2 -->
<g id="edge21_Node000002_Node000010" class="edge">
<title>Node10&#45;&gt;Node2</title>
<g id="a_edge21_Node000002_Node000010"><a xlink:title=" ">
<path fill="none" stroke="#63b8ff" d="M434.84,-494.24C504.74,-508.61 640.62,-533 757.5,-533 757.5,-533 757.5,-533 1438.5,-533 1533.96,-533 1566.6,-377.39 1573.5,-336.66"/>
<polygon fill="#63b8ff" stroke="#63b8ff" points="435.53,-490.81 425.02,-492.2 434.1,-497.66 435.53,-490.81"/>
</a>
</g>
</g>
<!-- Node10&#45;&gt;Node9 -->
<g id="edge10_Node000009_Node000010" class="edge">
<title>Node10&#45;&gt;Node9</title>
<g id="a_edge10_Node000009_Node000010"><a xlink:title=" ">
<path fill="none" stroke="#63b8ff" d="M434.96,-473.38C455.23,-468.97 479.23,-463.96 501,-460 568.03,-447.8 645.39,-436.4 697.47,-429.12"/>
<polygon fill="#63b8ff" stroke="#63b8ff" points="434.06,-470 425.04,-475.56 435.56,-476.84 434.06,-470"/>
</a>
</g>
</g>
<!-- Node13 -->
<g id="Node000013" class="node">
<title>Node13</title>
<g id="a_Node000013"><a xlink:href="classCellObstacleInterface.html" target="_top" xlink:title="Interface for managing obstacles in a terrain cell.">
<polygon fill="white" stroke="#666666" points="819.5,-504.5 697.5,-504.5 697.5,-485.5 819.5,-485.5 819.5,-504.5"/>
<text text-anchor="middle" x="758.5" y="-492.5" font-family="Helvetica,sans-Serif" font-size="10.00">CellObstacleInterface</text>
</a>
</g>
</g>
<!-- Node10&#45;&gt;Node13 -->
<g id="edge14_Node000013_Node000010" class="edge">
<title>Node10&#45;&gt;Node13</title>
<g id="a_edge14_Node000013_Node000010"><a xlink:title=" ">
<path fill="none" stroke="#63b8ff" d="M435.36,-485.41C502.18,-487.4 624.14,-491.03 697.31,-493.21"/>
<polygon fill="#63b8ff" stroke="#63b8ff" points="435.22,-481.9 425.12,-485.11 435.01,-488.9 435.22,-481.9"/>
</a>
</g>
</g>
<!-- Node14 -->
<g id="Node000014" class="node">
<title>Node14</title>
<g id="a_Node000014"><a xlink:href="classCellHabitatDomainInterface.html" target="_top" xlink:title="Represents the habitat&#45;domain information associated with a terrain cell.">
<polygon fill="white" stroke="#666666" points="835,-467.5 682,-467.5 682,-448.5 835,-448.5 835,-467.5"/>
<text text-anchor="middle" x="758.5" y="-455.5" font-family="Helvetica,sans-Serif" font-size="10.00">CellHabitatDomainInterface</text>
</a>
</g>
</g>
<!-- Node10&#45;&gt;Node14 -->
<g id="edge16_Node000014_Node000010" class="edge">
<title>Node10&#45;&gt;Node14</title>
<g id="a_edge16_Node000014_Node000010"><a xlink:title=" ">
<path fill="none" stroke="#63b8ff" d="M435.44,-480.66C497.74,-476.28 607.86,-468.53 681.76,-463.33"/>
<polygon fill="#63b8ff" stroke="#63b8ff" points="434.85,-477.19 425.12,-481.39 435.34,-484.18 434.85,-477.19"/>
</a>
</g>
</g>
<!-- Node11 -->
<g id="Node000011" class="node">
<title>Node11</title>
<g id="a_Node000011"><a xlink:href="classWetMass.html" target="_top" xlink:title="Represents wet mass in the ecosystem simulation.">
<polygon fill="white" stroke="#666666" points="417.5,-210.5 356.5,-210.5 356.5,-191.5 417.5,-191.5 417.5,-210.5"/>
<text text-anchor="middle" x="387" y="-198.5" font-family="Helvetica,sans-Serif" font-size="10.00">WetMass</text>
</a>
</g>
</g>
<!-- Node11&#45;&gt;Node9 -->
<g id="edge11_Node000009_Node000011" class="edge">
<title>Node11&#45;&gt;Node9</title>
<g id="a_edge11_Node000009_Node000011"><a xlink:title=" ">
<path fill="none" stroke="#9a32cd" stroke-dasharray="5,2" d="M427.92,-199.79C446.79,-201.31 468.35,-206.37 483,-220 504.95,-240.41 483.02,-261.02 501,-285 557.75,-360.68 596.05,-357.48 682,-397 694.37,-402.69 708.47,-407.57 721.1,-411.41"/>
<polygon fill="#9a32cd" stroke="#9a32cd" points="427.94,-196.29 417.77,-199.28 427.59,-203.28 427.94,-196.29"/>
</a>
</g>
<text text-anchor="middle" x="582.5" y="-391" font-family="Helvetica,sans-Serif" font-size="10.00" fill="grey"> totalMaximumResourceCapacity</text>
</g>
<!-- Node20 -->
<g id="Node000020" class="node">
<title>Node20</title>
<g id="a_Node000020"><a xlink:href="classEdibleGrowth.html" target="_top" xlink:title="Represents the growth characteristics and current biomasses of an edible object.">
<polygon fill="white" stroke="#666666" points="799.5,-120.5 717.5,-120.5 717.5,-101.5 799.5,-101.5 799.5,-120.5"/>
<text text-anchor="middle" x="758.5" y="-108.5" font-family="Helvetica,sans-Serif" font-size="10.00">EdibleGrowth</text>
</a>
</g>
</g>
<!-- Node11&#45;&gt;Node20 -->
<g id="edge31_Node000020_Node000011" class="edge">
<title>Node11&#45;&gt;Node20</title>
<g id="a_edge31_Node000020_Node000011"><a xlink:title=" ">
<path fill="none" stroke="#9a32cd" stroke-dasharray="5,2" d="M427.53,-191.37C498.72,-174.03 647.64,-137.76 718.47,-120.51"/>
<polygon fill="#9a32cd" stroke="#9a32cd" points="426.5,-188.02 417.61,-193.79 428.16,-194.82 426.5,-188.02"/>
</a>
</g>
<text text-anchor="middle" x="582.5" y="-174" font-family="Helvetica,sans-Serif" font-size="10.00" fill="grey"> currentTotalWetMass</text>
</g>
<!-- Node25 -->
<g id="Node000025" class="node">
<title>Node25</title>
<g id="a_Node000025"><a xlink:href="classResourceSource.html" target="_top" xlink:title="Represents a resource source in the landscape.">
<polygon fill="white" stroke="#666666" points="806,-260.5 711,-260.5 711,-241.5 806,-241.5 806,-260.5"/>
<text text-anchor="middle" x="758.5" y="-248.5" font-family="Helvetica,sans-Serif" font-size="10.00">ResourceSource</text>
</a>
</g>
</g>
<!-- Node11&#45;&gt;Node25 -->
<g id="edge36_Node000025_Node000011" class="edge">
<title>Node11&#45;&gt;Node25</title>
<g id="a_edge36_Node000025_Node000011"><a xlink:title=" ">
<path fill="none" stroke="#9a32cd" stroke-dasharray="5,2" d="M428,-199.41C482.13,-198.1 581.43,-198.73 664,-216 690.13,-221.47 718.66,-233.02 737.24,-241.36"/>
<polygon fill="#9a32cd" stroke="#9a32cd" points="427.69,-195.91 417.79,-199.69 427.88,-202.91 427.69,-195.91"/>
</a>
</g>
<text text-anchor="middle" x="582.5" y="-230" font-family="Helvetica,sans-Serif" font-size="10.00" fill="grey"> minimumEdibleBiomass</text>
<text text-anchor="middle" x="582.5" y="-219" font-family="Helvetica,sans-Serif" font-size="10.00" fill="grey">resourceMaximumCapacity</text>
</g>
<!-- Node12 -->
<g id="Node000012" class="node">
<title>Node12</title>
<g id="a_Node000012"><a xlink:href="classPreciseDouble.html" target="_top" xlink:title="Class for precise double&#45;precision floating&#45;point arithmetic.">
<polygon fill="white" stroke="#666666" points="114.5,-300.5 28.5,-300.5 28.5,-281.5 114.5,-281.5 114.5,-300.5"/>
<text text-anchor="middle" x="71.5" y="-288.5" font-family="Helvetica,sans-Serif" font-size="10.00">PreciseDouble</text>
</a>
</g>
</g>
<!-- Node12&#45;&gt;Node7 -->
<g id="edge19_Node000007_Node000012" class="edge">
<title>Node12&#45;&gt;Node7</title>
<g id="a_edge19_Node000007_Node000012"><a xlink:title=" ">
<path fill="none" stroke="#9a32cd" stroke-dasharray="5,2" d="M103.74,-304.52C159.37,-327.33 279.76,-371 386,-371 386,-371 386,-371 1044.5,-371 1112.99,-371 1192.88,-378.43 1236.81,-383.17"/>
<polygon fill="#9a32cd" stroke="#9a32cd" points="105.01,-301.26 94.44,-300.65 102.32,-307.72 105.01,-301.26"/>
</a>
</g>
<text text-anchor="middle" x="758.5" y="-385" font-family="Helvetica,sans-Serif" font-size="10.00" fill="grey"> hyperVolume</text>
<text text-anchor="middle" x="758.5" y="-374" font-family="Helvetica,sans-Serif" font-size="10.00" fill="grey">size</text>
</g>
<!-- Node12&#45;&gt;Node11 -->
<g id="edge12_Node000011_Node000012" class="edge">
<title>Node12&#45;&gt;Node11</title>
<g id="a_edge12_Node000011_Node000012"><a xlink:title=" ">
<path fill="none" stroke="#9a32cd" stroke-dasharray="5,2" d="M107.87,-278.09C150.77,-262.77 225.49,-237.13 291,-220 312.64,-214.34 337.44,-209.43 356.27,-206.02"/>
<polygon fill="#9a32cd" stroke="#9a32cd" points="106.67,-274.8 98.44,-281.48 109.04,-281.39 106.67,-274.8"/>
</a>
</g>
<text text-anchor="middle" x="217" y="-261" font-family="Helvetica,sans-Serif" font-size="10.00" fill="grey"> value</text>
</g>
<!-- Node24 -->
<g id="Node000024" class="node">
<title>Node24</title>
<g id="a_Node000024"><a xlink:href="classDryMass.html" target="_top" xlink:title="Represents dry mass in the ecosystem simulation.">
<polygon fill="white" stroke="#666666" points="416.5,-123.5 357.5,-123.5 357.5,-104.5 416.5,-104.5 416.5,-123.5"/>
<text text-anchor="middle" x="387" y="-111.5" font-family="Helvetica,sans-Serif" font-size="10.00">DryMass</text>
</a>
</g>
</g>
<!-- Node12&#45;&gt;Node24 -->
<g id="edge30_Node000024_Node000012" class="edge">
<title>Node12&#45;&gt;Node24</title>
<g id="a_edge30_Node000024_Node000012"><a xlink:title=" ">
<path fill="none" stroke="#9a32cd" stroke-dasharray="5,2" d="M89.12,-274.14C123.36,-240.62 205.71,-165.97 291,-133 312.49,-124.69 338.19,-119.83 357.43,-117.11"/>
<polygon fill="#9a32cd" stroke="#9a32cd" points="86.47,-271.84 81.84,-281.37 91.4,-276.81 86.47,-271.84"/>
</a>
</g>
<text text-anchor="middle" x="217" y="-210" font-family="Helvetica,sans-Serif" font-size="10.00" fill="grey"> value</text>
</g>
<!-- Node12&#45;&gt;Node25 -->
<g id="edge37_Node000025_Node000012" class="edge">
<title>Node12&#45;&gt;Node25</title>
<g id="a_edge37_Node000025_Node000012"><a xlink:title=" ">
<path fill="none" stroke="#9a32cd" stroke-dasharray="5,2" d="M124.89,-297C228.92,-307.49 468.38,-324.5 664,-285 689.9,-279.77 718.24,-268.65 736.85,-260.54"/>
<polygon fill="#9a32cd" stroke="#9a32cd" points="124.96,-293.49 114.66,-295.95 124.25,-300.45 124.96,-293.49"/>
</a>
</g>
<text text-anchor="start" x="314" y="-323" font-family="Helvetica,sans-Serif" font-size="10.00" fill="grey"> edibleFractionOfMaxCarrying</text>
<text text-anchor="middle" x="387" y="-312" font-family="Helvetica,sans-Serif" font-size="10.00" fill="grey">Capacity</text>
</g>
<!-- Node13&#45;&gt;Node8 -->
<g id="edge13_Node000008_Node000013" class="edge">
<title>Node13&#45;&gt;Node8</title>
<g id="a_edge13_Node000008_Node000013"><a xlink:title=" ">
<path fill="none" stroke="#9a32cd" stroke-dasharray="5,2" d="M829.58,-489.95C865.8,-485.74 910.21,-478.04 948,-464 956.79,-460.73 957.35,-456.62 966,-453 975.85,-448.88 986.8,-445.51 997.26,-442.81"/>
<polygon fill="#9a32cd" stroke="#9a32cd" points="829.15,-486.48 819.6,-491.05 829.92,-493.43 829.15,-486.48"/>
</a>
</g>
<text text-anchor="middle" x="900.5" y="-489" font-family="Helvetica,sans-Serif" font-size="10.00" fill="grey"> cellObstacle</text>
</g>
<!-- Node14&#45;&gt;Node8 -->
<g id="edge15_Node000008_Node000014" class="edge">
<title>Node14&#45;&gt;Node8</title>
<g id="a_edge15_Node000008_Node000014"><a xlink:title=" ">
<path fill="none" stroke="#9a32cd" stroke-dasharray="5,2" d="M845.52,-450.71C895.59,-446.46 956.67,-441.28 997.41,-437.82"/>
<polygon fill="#9a32cd" stroke="#9a32cd" points="845.01,-447.24 835.34,-451.57 845.6,-454.21 845.01,-447.24"/>
</a>
</g>
<text text-anchor="middle" x="900.5" y="-452" font-family="Helvetica,sans-Serif" font-size="10.00" fill="grey"> cellHabitatDomain</text>
</g>
<!-- Node15 -->
<g id="Node000015" class="node">
<title>Node15</title>
<g id="a_Node000015"><a xlink:href="classCustomIndexedVector.html" target="_top" xlink:title=" ">
<polygon fill="white" stroke="#666666" points="483,-440.5 291,-440.5 291,-399.5 483,-399.5 483,-440.5"/>
<text text-anchor="start" x="299" y="-428.5" font-family="Helvetica,sans-Serif" font-size="10.00">CustomIndexedVector</text>
<text text-anchor="start" x="299" y="-417.5" font-family="Helvetica,sans-Serif" font-size="10.00">&lt; AnimalSpeciesID, CustomIndexed</text>
<text text-anchor="middle" x="387" y="-406.5" font-family="Helvetica,sans-Serif" font-size="10.00">Vector&lt; Instar, bool &gt; &gt;</text>
</a>
</g>
</g>
<!-- Node15&#45;&gt;Node14 -->
<g id="edge17_Node000014_Node000015" class="edge">
<title>Node15&#45;&gt;Node14</title>
<g id="a_edge17_Node000014_Node000015"><a xlink:title=" ">
<path fill="none" stroke="#9a32cd" stroke-dasharray="5,2" d="M493.45,-430.84C553.58,-437.03 627.54,-444.63 681.87,-450.22"/>
<polygon fill="#9a32cd" stroke="#9a32cd" points="493.46,-427.33 483.16,-429.79 492.74,-434.29 493.46,-427.33"/>
</a>
</g>
<text text-anchor="middle" x="582.5" y="-450" font-family="Helvetica,sans-Serif" font-size="10.00" fill="grey"> habitatDomainStatus</text>
</g>
<!-- Node16 -->
<g id="Node000016" class="node">
<title>Node16</title>
<g id="a_Node000016"><a xlink:href="classPointMap.html" target="_top" xlink:title="Represents a point in a discrete map coordinate system.">
<polygon fill="white" stroke="#666666" points="1074.5,-342.5 1012.5,-342.5 1012.5,-323.5 1074.5,-323.5 1074.5,-342.5"/>
<text text-anchor="middle" x="1043.5" y="-330.5" font-family="Helvetica,sans-Serif" font-size="10.00">PointMap</text>
</a>
</g>
</g>
<!-- Node16&#45;&gt;Node7 -->
<g id="edge18_Node000007_Node000016" class="edge">
<title>Node16&#45;&gt;Node7</title>
<g id="a_edge18_Node000007_Node000016"><a xlink:title=" ">
<path fill="none" stroke="#9a32cd" stroke-dasharray="5,2" d="M1084.94,-329.36C1121.3,-327.62 1175.53,-328.85 1219,-346 1236.12,-352.75 1252,-367.38 1261.35,-377.21"/>
<polygon fill="#9a32cd" stroke="#9a32cd" points="1084.5,-325.88 1074.72,-329.96 1084.9,-332.87 1084.5,-325.88"/>
</a>
</g>
<text text-anchor="middle" x="1179" y="-349" font-family="Helvetica,sans-Serif" font-size="10.00" fill="grey"> position</text>
</g>
<!-- Node17 -->
<g id="Node000017" class="node">
<title>Node17</title>
<g id="a_Node000017"><a xlink:href="classCustomIndexedVector.html" target="_top" xlink:title="A vector container indexed by a custom type with bounds checking.">
<polygon fill="white" stroke="#666666" points="1121,-492 966,-492 966,-462 1121,-462 1121,-492"/>
<text text-anchor="start" x="974" y="-480" font-family="Helvetica,sans-Serif" font-size="10.00">CustomIndexedVector</text>
<text text-anchor="middle" x="1043.5" y="-469" font-family="Helvetica,sans-Serif" font-size="10.00">&lt; IndexType, ContentType &gt;</text>
</a>
</g>
</g>
<!-- Node17&#45;&gt;Node7 -->
<g id="edge20_Node000007_Node000017" class="edge">
<title>Node17&#45;&gt;Node7</title>
<g id="a_edge20_Node000007_Node000017"><a xlink:title=" ">
<path fill="none" stroke="#9a32cd" stroke-dasharray="5,2" d="M1131.55,-473.23C1160.81,-469 1192.68,-460.96 1219,-446 1239.95,-434.09 1256.42,-410.22 1264.52,-396.78"/>
<polygon fill="#9a32cd" stroke="#9a32cd" points="1130.78,-469.8 1121.32,-474.57 1131.69,-476.74 1130.78,-469.8"/>
</a>
</g>
<text text-anchor="middle" x="1179" y="-474" font-family="Helvetica,sans-Serif" font-size="10.00" fill="grey"> animals</text>
</g>
<!-- Node18 -->
<g id="Node000018" class="node">
<title>Node18</title>
<g id="a_Node000018"><a xlink:href="classCellResourceGrowth.html" target="_top" xlink:title="Concrete growth handler for a resource in a terrain cell.">
<polygon fill="white" stroke="#666666" points="2020,-263.5 1904,-263.5 1904,-244.5 2020,-244.5 2020,-263.5"/>
<text text-anchor="middle" x="1962" y="-251.5" font-family="Helvetica,sans-Serif" font-size="10.00">CellResourceGrowth</text>
</a>
</g>
</g>
<!-- Node18&#45;&gt;Node1 -->
<g id="edge22_Node000001_Node000018" class="edge">
<title>Node18&#45;&gt;Node1</title>
<g id="a_edge22_Node000001_Node000018"><a xlink:title=" ">
<path fill="none" stroke="#9a32cd" stroke-dasharray="5,2" d="M2026.54,-265.31C2069.09,-272.88 2123.74,-282.61 2160,-289.06"/>
<polygon fill="#9a32cd" stroke="#9a32cd" points="2027.01,-261.84 2016.55,-263.53 2025.78,-268.73 2027.01,-261.84"/>
</a>
</g>
<text text-anchor="middle" x="2090" y="-288" font-family="Helvetica,sans-Serif" font-size="10.00" fill="grey"> growthBuildingBlock</text>
</g>
<!-- Node19&#45;&gt;Node18 -->
<g id="edge23_Node000018_Node000019" class="edge">
<title>Node19&#45;&gt;Node18</title>
<g id="a_edge23_Node000018_Node000019"><a xlink:title=" ">
<path fill="none" stroke="#63b8ff" d="M1841.85,-227.75C1866.24,-233.13 1894.76,-239.41 1917.78,-244.48"/>
<polygon fill="#63b8ff" stroke="#63b8ff" points="1842.55,-224.32 1832.03,-225.59 1841.04,-231.16 1842.55,-224.32"/>
</a>
</g>
</g>
<!-- Node20&#45;&gt;Node19 -->
<g id="edge24_Node000019_Node000020" class="edge">
<title>Node20&#45;&gt;Node19</title>
<g id="a_edge24_Node000019_Node000020"><a xlink:title=" ">
<path fill="none" stroke="#63b8ff" d="M803.41,-123.16C858.72,-137.38 956.88,-159 1042.5,-159 1042.5,-159 1042.5,-159 1577,-159 1648.43,-159 1728.9,-190.23 1765.89,-206.46"/>
<polygon fill="#63b8ff" stroke="#63b8ff" points="804.16,-119.74 793.6,-120.6 802.39,-126.51 804.16,-119.74"/>
</a>
</g>
</g>
<!-- Node21 -->
<g id="Node000021" class="node">
<title>Node21</title>
<g id="a_Node000021"><a xlink:href="classInstar.html" target="_top" xlink:title="Represents a developmental stage (instar) of an animal in the simulation.">
<polygon fill="white" stroke="#666666" points="93.5,-75.5 49.5,-75.5 49.5,-56.5 93.5,-56.5 93.5,-75.5"/>
<text text-anchor="middle" x="71.5" y="-63.5" font-family="Helvetica,sans-Serif" font-size="10.00">Instar</text>
</a>
</g>
</g>
<!-- Node21&#45;&gt;Node20 -->
<g id="edge25_Node000020_Node000021" class="edge">
<title>Node21&#45;&gt;Node20</title>
<g id="a_edge25_Node000020_Node000021"><a xlink:title=" ">
<path fill="none" stroke="#9a32cd" stroke-dasharray="5,2" d="M104.06,-66.94C172.93,-69.11 341.81,-75.05 483,-85 566.33,-90.87 663.6,-100.82 717.09,-106.56"/>
<polygon fill="#9a32cd" stroke="#9a32cd" points="103.99,-63.44 93.89,-66.63 103.78,-70.44 103.99,-63.44"/>
</a>
</g>
<text text-anchor="middle" x="387" y="-88" font-family="Helvetica,sans-Serif" font-size="10.00" fill="grey"> instar</text>
</g>
<!-- Node22 -->
<g id="Node000022" class="node">
<title>Node22</title>
<g id="a_Node000022"><a xlink:href="classSpeciesGrowth.html" target="_top" xlink:title="Represents the growth characteristics of a species across its instars.">
<polygon fill="white" stroke="#666666" points="431.5,-38.5 342.5,-38.5 342.5,-19.5 431.5,-19.5 431.5,-38.5"/>
<text text-anchor="middle" x="387" y="-26.5" font-family="Helvetica,sans-Serif" font-size="10.00">SpeciesGrowth</text>
</a>
</g>
</g>
<!-- Node21&#45;&gt;Node22 -->
<g id="edge27_Node000022_Node000021" class="edge">
<title>Node21&#45;&gt;Node22</title>
<g id="a_edge27_Node000022_Node000021"><a xlink:title=" ">
<path fill="none" stroke="#9a32cd" stroke-dasharray="5,2" d="M103.43,-59.74C120.38,-56.47 141.78,-52.63 161,-50 223.78,-41.41 296.89,-35.3 342.32,-31.96"/>
<polygon fill="#9a32cd" stroke="#9a32cd" points="102.66,-56.32 93.52,-61.67 104.01,-63.19 102.66,-56.32"/>
</a>
</g>
<text text-anchor="middle" x="217" y="-53" font-family="Helvetica,sans-Serif" font-size="10.00" fill="grey"> lastInstar</text>
</g>
<!-- Node22&#45;&gt;Node20 -->
<g id="edge26_Node000020_Node000022" class="edge">
<title>Node22&#45;&gt;Node20</title>
<g id="a_edge26_Node000020_Node000022"><a xlink:title=" ">
<path fill="none" stroke="#9a32cd" stroke-dasharray="5,2" d="M442.08,-25.32C498.89,-23.22 590.1,-24.93 664,-50 697.41,-61.33 730.57,-87.38 746.95,-101.5"/>
<polygon fill="#9a32cd" stroke="#9a32cd" points="441.72,-21.83 431.88,-25.75 442.02,-28.82 441.72,-21.83"/>
</a>
</g>
<text text-anchor="middle" x="582.5" y="-53" font-family="Helvetica,sans-Serif" font-size="10.00" fill="grey"> speciesGrowth</text>
</g>
<!-- Node23 -->
<g id="Node000023" class="node">
<title>Node23</title>
<g id="a_Node000023"><a xlink:href="classCustomIndexedVector.html" target="_top" xlink:title=" ">
<polygon fill="white" stroke="#666666" points="143,-30 0,-30 0,0 143,0 143,-30"/>
<text text-anchor="start" x="8" y="-18" font-family="Helvetica,sans-Serif" font-size="10.00">CustomIndexedVector</text>
<text text-anchor="middle" x="71.5" y="-7" font-family="Helvetica,sans-Serif" font-size="10.00">&lt; Instar, PreciseDouble &gt;</text>
</a>
</g>
</g>
<!-- Node23&#45;&gt;Node22 -->
<g id="edge28_Node000022_Node000023" class="edge">
<title>Node23&#45;&gt;Node22</title>
<g id="a_edge28_Node000022_Node000023"><a xlink:title=" ">
<path fill="none" stroke="#9a32cd" stroke-dasharray="5,2" d="M153.2,-13.39C189.8,-13.18 233.62,-13.64 273,-16 295.96,-17.37 321.43,-20.19 342.36,-22.85"/>
<polygon fill="#9a32cd" stroke="#9a32cd" points="153.05,-9.89 143.08,-13.47 153.11,-16.89 153.05,-9.89"/>
</a>
</g>
<text text-anchor="middle" x="217" y="-19" font-family="Helvetica,sans-Serif" font-size="10.00" fill="grey"> conversionToWetMass</text>
</g>
<!-- Node24&#45;&gt;Node20 -->
<g id="edge29_Node000020_Node000024" class="edge">
<title>Node24&#45;&gt;Node20</title>
<g id="a_edge29_Node000020_Node000024"><a xlink:title=" ">
<path fill="none" stroke="#9a32cd" stroke-dasharray="5,2" d="M426.98,-113.18C448.75,-112.75 476.38,-112.27 501,-112 577.37,-111.18 666.53,-111.01 717.07,-110.99"/>
<polygon fill="#9a32cd" stroke="#9a32cd" points="426.72,-109.68 416.79,-113.38 426.86,-116.68 426.72,-109.68"/>
</a>
</g>
<text text-anchor="middle" x="582.5" y="-115" font-family="Helvetica,sans-Serif" font-size="10.00" fill="grey"> currentTotalDryMass</text>
</g>
<!-- Node25&#45;&gt;Node18 -->
<g id="edge33_Node000018_Node000025" class="edge">
<title>Node25&#45;&gt;Node18</title>
<g id="a_edge33_Node000018_Node000025"><a xlink:title=" ">
<path fill="none" stroke="#9a32cd" stroke-dasharray="5,2" d="M816.34,-251.96C873.48,-252.83 964.1,-254 1042.5,-254 1042.5,-254 1042.5,-254 1788.5,-254 1826.98,-254 1870.3,-254 1903.89,-254"/>
<polygon fill="#9a32cd" stroke="#9a32cd" points="816.12,-248.45 806.07,-251.8 816.01,-255.45 816.12,-248.45"/>
</a>
</g>
<text text-anchor="middle" x="1437.5" y="-257" font-family="Helvetica,sans-Serif" font-size="10.00" fill="grey"> resourceSource</text>
</g>
<!-- Node26 -->
<g id="Node000026" class="node">
<title>Node26</title>
<g id="a_Node000026"><a xlink:href="classPathSource.html" target="_top" xlink:title="Abstract base class for landscape data sources.">
<polygon fill="white" stroke="#666666" points="422.5,-160.5 351.5,-160.5 351.5,-141.5 422.5,-141.5 422.5,-160.5"/>
<text text-anchor="middle" x="387" y="-148.5" font-family="Helvetica,sans-Serif" font-size="10.00">PathSource</text>
</a>
</g>
</g>
<!-- Node26&#45;&gt;Node25 -->
<g id="edge34_Node000025_Node000026" class="edge">
<title>Node26&#45;&gt;Node25</title>
<g id="a_edge34_Node000025_Node000026"><a xlink:title=" ">
<path fill="none" stroke="#63b8ff" d="M433.02,-146.72C500.4,-141.02 623.84,-133.57 664,-151 707.61,-169.93 740.15,-220.32 752.29,-241.45"/>
<polygon fill="#63b8ff" stroke="#63b8ff" points="432.37,-143.26 422.71,-147.61 432.98,-150.23 432.37,-143.26"/>
</a>
</g>
</g>
<!-- Node27 -->
<g id="Node000027" class="node">
<title>Node27</title>
<g id="a_Node000027"><a xlink:href="classResourceSpecies_1_1ResourceID.html" target="_top" xlink:title="Unique identifier for a resource species.">
<polygon fill="white" stroke="#666666" points="467.5,-284.5 306.5,-284.5 306.5,-265.5 467.5,-265.5 467.5,-284.5"/>
<text text-anchor="middle" x="387" y="-272.5" font-family="Helvetica,sans-Serif" font-size="10.00">ResourceSpecies::ResourceID</text>
</a>
</g>
</g>
<!-- Node27&#45;&gt;Node25 -->
<g id="edge35_Node000025_Node000027" class="edge">
<title>Node27&#45;&gt;Node25</title>
<g id="a_edge35_Node000025_Node000027"><a xlink:title=" ">
<path fill="none" stroke="#9a32cd" stroke-dasharray="5,2" d="M478.02,-271.7C532,-269.41 601.99,-265.88 664,-261 679.3,-259.79 695.97,-258.13 710.94,-256.5"/>
<polygon fill="#9a32cd" stroke="#9a32cd" points="477.63,-268.22 467.79,-272.13 477.93,-275.21 477.63,-268.22"/>
</a>
</g>
<text text-anchor="middle" x="582.5" y="-273" font-family="Helvetica,sans-Serif" font-size="10.00" fill="grey"> resourceSpeciesId</text>
</g>
<!-- Node28 -->
<g id="Node000028" class="node">
<title>Node28</title>
<g id="a_Node000028"><a xlink:href="classDynamics.html" target="_top" xlink:title="Abstract base class for modeling temporal dynamics.">
<polygon fill="white" stroke="#666666" points="419.5,-247.5 354.5,-247.5 354.5,-228.5 419.5,-228.5 419.5,-247.5"/>
<text text-anchor="middle" x="387" y="-235.5" font-family="Helvetica,sans-Serif" font-size="10.00">Dynamics</text>
</a>
</g>
</g>
<!-- Node28&#45;&gt;Node25 -->
<g id="edge38_Node000025_Node000028" class="edge">
<title>Node28&#45;&gt;Node25</title>
<g id="a_edge38_Node000025_Node000028"><a xlink:title=" ">
<path fill="none" stroke="#9a32cd" stroke-dasharray="5,2" d="M429.64,-239.46C499.16,-241.91 638.37,-246.81 710.99,-249.36"/>
<polygon fill="#9a32cd" stroke="#9a32cd" points="429.62,-235.96 419.5,-239.11 429.37,-242.96 429.62,-235.96"/>
</a>
</g>
<text text-anchor="middle" x="582.5" y="-250" font-family="Helvetica,sans-Serif" font-size="10.00" fill="grey"> growthDynamics</text>
</g>
</g>
</svg>

<g id="navigator" transform="translate(0 0)" fill="#404254">
  <rect fill="#f2f5e9" fill-opacity="0.5" stroke="#606060" stroke-width=".5" x="0" y="0" width="60" height="60"/>
  <use id="zoomplus" xlink:href="#zoomPlus" x="17" y="9" onmousedown="handleZoom(evt,'in')"/>
  <use id="zoomminus" xlink:href="#zoomMin" x="42" y="9" onmousedown="handleZoom(evt,'out')"/>
  <use id="reset" xlink:href="#resetDef" x="30" y="36" onmousedown="handleReset()"/>
   <use id="arrowup" xlink:href="#arrowUp" x="0" y="0" onmousedown="handlePan(0,-1)"/>
  <use id="arrowright" xlink:href="#arrowRight" x="0" y="0" onmousedown="handlePan(1,0)"/>
  <use id="arrowdown" xlink:href="#arrowDown" x="0" y="0" onmousedown="handlePan(0,1)"/>
  <use id="arrowleft" xlink:href="#arrowLeft" x="0" y="0" onmousedown="handlePan(-1,0)"/>
</g>
<svg viewBox="0 0 15 15" width="100%" height="30px" preserveAspectRatio="xMaxYMin meet">
 <g id="arrow_out" transform="scale(0.3 0.3)">
  <a xlink:href="classCellResource__coll__graph_org.svg" target="_base">
   <rect id="button" ry="5" rx="5" y="6" x="6" height="38" width="38"
        fill="#f2f5e9" fill-opacity="0.5" stroke="#606060" stroke-width="1.0"/>
   <path id="arrow"
     d="M 11.500037,31.436501 C 11.940474,20.09759 22.043105,11.32322 32.158766,21.979434 L 37.068811,17.246167 C 37.068811,17.246167 37.088388,32 37.088388,32 L 22.160133,31.978069 C 22.160133,31.978069 26.997745,27.140456 26.997745,27.140456 C 18.528582,18.264221 13.291696,25.230495 11.500037,31.436501 z"
     style="fill:#404040;"/>
  </a>
 </g>
</svg>

<style type='text/css'>
<![CDATA[
[data-mouse-over-selected='false'] { opacity: 0.7; }
[data-mouse-over-selected='true']  { opacity: 1.0; }
]]>
</style>
<script type="application/ecmascript"><![CDATA[
document.addEventListener('DOMContentLoaded', (event) => {
  highlightEdges();
  highlightAdjacentNodes();
});
]]></script>
</svg>
