<?xml version="1.0" encoding="UTF-8" standalone="no"?>
<!DOCTYPE svg PUBLIC "-//W3C//DTD SVG 1.1//EN"
 "http://www.w3.org/Graphics/SVG/1.1/DTD/svg11.dtd">
<!-- Generated by graphviz version 2.43.0 (0)
 -->
<!-- Title: NonMassBasedDynamics Pages: 1 -->
<svg width="314pt" height="137pt"
 viewBox="0.00 0.00 314.00 137.00" xmlns="http://www.w3.org/2000/svg" xmlns:xlink="http://www.w3.org/1999/xlink">
<g id="graph0" class="graph" transform="scale(1 1) rotate(0) translate(4 133)">
<title>NonMassBasedDynamics</title>
<!-- Node1 -->
<g id="Node000001" class="node">
<title>Node1</title>
<g id="a_Node000001"><a xlink:title="Represents dynamics that are independent of mass.">
<polygon fill="#999999" stroke="#666666" points="223,-74 83,-74 83,-55 223,-55 223,-74"/>
<text text-anchor="middle" x="153" y="-62" font-family="Helvetica,sans-Serif" font-size="10.00">NonMassBasedDynamics</text>
</a>
</g>
</g>
<!-- Node3 -->
<g id="Node000003" class="node">
<title>Node3</title>
<g id="a_Node000003"><a xlink:href="classCycleDynamics.html" target="_top" xlink:title="Implements periodic, non–mass&#45;based dynamic behavior.">
<polygon fill="white" stroke="#666666" points="92,-19 0,-19 0,0 92,0 92,-19"/>
<text text-anchor="middle" x="46" y="-7" font-family="Helvetica,sans-Serif" font-size="10.00">CycleDynamics</text>
</a>
</g>
</g>
<!-- Node1&#45;&gt;Node3 -->
<g id="edge2_Node000001_Node000003" class="edge">
<title>Node1&#45;&gt;Node3</title>
<g id="a_edge2_Node000001_Node000003"><a xlink:title=" ">
<path fill="none" stroke="#63b8ff" d="M126.76,-50.5C107.07,-40.75 80.68,-27.68 63.5,-19.17"/>
<polygon fill="#63b8ff" stroke="#63b8ff" points="125.29,-53.68 135.81,-54.98 128.4,-47.41 125.29,-53.68"/>
</a>
</g>
</g>
<!-- Node4 -->
<g id="Node000004" class="node">
<title>Node4</title>
<g id="a_Node000004"><a xlink:href="classNonDynamics.html" target="_top" xlink:title="Represents a non&#45;changing dynamic component in the ecosystem model.">
<polygon fill="white" stroke="#666666" points="195.5,-19 110.5,-19 110.5,0 195.5,0 195.5,-19"/>
<text text-anchor="middle" x="153" y="-7" font-family="Helvetica,sans-Serif" font-size="10.00">NonDynamics</text>
</a>
</g>
</g>
<!-- Node1&#45;&gt;Node4 -->
<g id="edge3_Node000001_Node000004" class="edge">
<title>Node1&#45;&gt;Node4</title>
<g id="a_edge3_Node000001_Node000004"><a xlink:title=" ">
<path fill="none" stroke="#63b8ff" d="M153,-44.66C153,-35.93 153,-25.99 153,-19.09"/>
<polygon fill="#63b8ff" stroke="#63b8ff" points="149.5,-44.75 153,-54.75 156.5,-44.75 149.5,-44.75"/>
</a>
</g>
</g>
<!-- Node5 -->
<g id="Node000005" class="node">
<title>Node5</title>
<g id="a_Node000005"><a xlink:href="classPulseDynamics.html" target="_top" xlink:title="Models dynamics that occur as discrete pulses over time.">
<polygon fill="white" stroke="#666666" points="306,-19 214,-19 214,0 306,0 306,-19"/>
<text text-anchor="middle" x="260" y="-7" font-family="Helvetica,sans-Serif" font-size="10.00">PulseDynamics</text>
</a>
</g>
</g>
<!-- Node1&#45;&gt;Node5 -->
<g id="edge4_Node000001_Node000005" class="edge">
<title>Node1&#45;&gt;Node5</title>
<g id="a_edge4_Node000001_Node000005"><a xlink:title=" ">
<path fill="none" stroke="#63b8ff" d="M179.24,-50.5C198.93,-40.75 225.32,-27.68 242.5,-19.17"/>
<polygon fill="#63b8ff" stroke="#63b8ff" points="177.6,-47.41 170.19,-54.98 180.71,-53.68 177.6,-47.41"/>
</a>
</g>
</g>
<!-- Node2 -->
<g id="Node000002" class="node">
<title>Node2</title>
<g id="a_Node000002"><a xlink:href="classDynamics.html" target="_top" xlink:title="Abstract base class for modeling temporal dynamics.">
<polygon fill="white" stroke="#666666" points="185.5,-129 120.5,-129 120.5,-110 185.5,-110 185.5,-129"/>
<text text-anchor="middle" x="153" y="-117" font-family="Helvetica,sans-Serif" font-size="10.00">Dynamics</text>
</a>
</g>
</g>
<!-- Node2&#45;&gt;Node1 -->
<g id="edge1_Node000001_Node000002" class="edge">
<title>Node2&#45;&gt;Node1</title>
<g id="a_edge1_Node000001_Node000002"><a xlink:title=" ">
<path fill="none" stroke="#63b8ff" d="M153,-99.66C153,-90.93 153,-80.99 153,-74.09"/>
<polygon fill="#63b8ff" stroke="#63b8ff" points="149.5,-99.75 153,-109.75 156.5,-99.75 149.5,-99.75"/>
</a>
</g>
</g>
</g>
</svg>
