<?xml version="1.0" encoding="UTF-8" standalone="no"?>
<!DOCTYPE svg PUBLIC "-//W3C//DTD SVG 1.1//EN"
 "http://www.w3.org/Graphics/SVG/1.1/DTD/svg11.dtd">
<!-- Generated by graphviz version 2.43.0 (0)
 -->
<!-- Title: EdibleSearchParams Pages: 1 -->
<svg width="723pt" height="189pt"
 viewBox="0.00 0.00 723.00 189.00" xmlns="http://www.w3.org/2000/svg" xmlns:xlink="http://www.w3.org/1999/xlink">
<g id="graph0" class="graph" transform="scale(1 1) rotate(0) translate(4 185)">
<title>EdibleSearchParams</title>
<!-- Node1 -->
<g id="Node000001" class="node">
<title>Node1</title>
<g id="a_Node000001"><a xlink:title="Encapsulates search parameters for both animals and resources.">
<polygon fill="#999999" stroke="#666666" points="715,-91 599,-91 599,-72 715,-72 715,-91"/>
<text text-anchor="middle" x="657" y="-79" font-family="Helvetica,sans-Serif" font-size="10.00">EdibleSearchParams</text>
</a>
</g>
</g>
<!-- Node2 -->
<g id="Node000002" class="node">
<title>Node2</title>
<g id="a_Node000002"><a xlink:href="classAnimalSearchParams.html" target="_top" xlink:title="Stores parameters for searching animals within a terrain cell.">
<polygon fill="white" stroke="#666666" points="442.5,-111 322.5,-111 322.5,-92 442.5,-92 442.5,-111"/>
<text text-anchor="middle" x="382.5" y="-99" font-family="Helvetica,sans-Serif" font-size="10.00">AnimalSearchParams</text>
</a>
</g>
</g>
<!-- Node2&#45;&gt;Node1 -->
<g id="edge1_Node000001_Node000002" class="edge">
<title>Node2&#45;&gt;Node1</title>
<g id="a_edge1_Node000001_Node000002"><a xlink:title=" ">
<path fill="none" stroke="#9a32cd" stroke-dasharray="5,2" d="M452.65,-96.42C497.88,-93.1 556.26,-88.82 598.85,-85.69"/>
<polygon fill="#9a32cd" stroke="#9a32cd" points="452.35,-92.94 442.63,-97.16 452.86,-99.92 452.35,-92.94"/>
</a>
</g>
<text text-anchor="middle" x="523.5" y="-97.5" font-family="Helvetica,sans-Serif" font-size="10.00" fill="grey"> animalSearchParams</text>
</g>
<!-- Node3 -->
<g id="Node000003" class="node">
<title>Node3</title>
<g id="a_Node000003"><a xlink:href="classCustomIndexedVector.html" target="_top" xlink:title=" ">
<polygon fill="white" stroke="#666666" points="142.5,-181 9.5,-181 9.5,-140 142.5,-140 142.5,-181"/>
<text text-anchor="start" x="17.5" y="-169" font-family="Helvetica,sans-Serif" font-size="10.00">CustomIndexedVector</text>
<text text-anchor="start" x="17.5" y="-158" font-family="Helvetica,sans-Serif" font-size="10.00">&lt; LifeStage, std::vector</text>
<text text-anchor="middle" x="76" y="-147" font-family="Helvetica,sans-Serif" font-size="10.00">&lt; AnimalSpeciesID &gt; &gt;</text>
</a>
</g>
</g>
<!-- Node3&#45;&gt;Node2 -->
<g id="edge2_Node000002_Node000003" class="edge">
<title>Node3&#45;&gt;Node2</title>
<g id="a_edge2_Node000002_Node000003"><a xlink:title=" ">
<path fill="none" stroke="#9a32cd" stroke-dasharray="5,2" d="M152.61,-145.85C208.8,-134.96 283.84,-120.42 332.42,-111.01"/>
<polygon fill="#9a32cd" stroke="#9a32cd" points="151.85,-142.43 142.7,-147.77 153.18,-149.3 151.85,-142.43"/>
</a>
</g>
<text text-anchor="middle" x="234.5" y="-143.5" font-family="Helvetica,sans-Serif" font-size="10.00" fill="grey"> searchableAnimalSpecies</text>
</g>
<!-- Node4 -->
<g id="Node000004" class="node">
<title>Node4</title>
<g id="a_Node000004"><a xlink:href="classCustomIndexedVector.html" target="_top" xlink:title=" ">
<polygon fill="white" stroke="#666666" points="152,-122 0,-122 0,-81 152,-81 152,-122"/>
<text text-anchor="start" x="8" y="-110" font-family="Helvetica,sans-Serif" font-size="10.00">CustomIndexedVector</text>
<text text-anchor="start" x="8" y="-99" font-family="Helvetica,sans-Serif" font-size="10.00">&lt; LifeStage, std::vector</text>
<text text-anchor="middle" x="76" y="-88" font-family="Helvetica,sans-Serif" font-size="10.00">&lt; std::vector&lt; Instar &gt; &gt; &gt;</text>
</a>
</g>
</g>
<!-- Node4&#45;&gt;Node2 -->
<g id="edge3_Node000002_Node000004" class="edge">
<title>Node4&#45;&gt;Node2</title>
<g id="a_edge3_Node000002_Node000004"><a xlink:title=" ">
<path fill="none" stroke="#9a32cd" stroke-dasharray="5,2" d="M162.3,-101.5C213.3,-101.5 276.83,-101.5 322.34,-101.5"/>
<polygon fill="#9a32cd" stroke="#9a32cd" points="162.27,-98 152.27,-101.5 162.27,-105 162.27,-98"/>
</a>
</g>
<text text-anchor="middle" x="234.5" y="-104.5" font-family="Helvetica,sans-Serif" font-size="10.00" fill="grey"> searchableInstars</text>
</g>
<!-- Node5 -->
<g id="Node000005" class="node">
<title>Node5</title>
<g id="a_Node000005"><a xlink:href="classCustomIndexedVector.html" target="_top" xlink:title=" ">
<polygon fill="white" stroke="#666666" points="152,-63 0,-63 0,0 152,0 152,-63"/>
<text text-anchor="start" x="8" y="-51" font-family="Helvetica,sans-Serif" font-size="10.00">CustomIndexedVector</text>
<text text-anchor="start" x="8" y="-40" font-family="Helvetica,sans-Serif" font-size="10.00">&lt; LifeStage, std::vector</text>
<text text-anchor="start" x="8" y="-29" font-family="Helvetica,sans-Serif" font-size="10.00">&lt; CustomIndexedVector&lt;</text>
<text text-anchor="start" x="8" y="-18" font-family="Helvetica,sans-Serif" font-size="10.00"> Instar, std::vector&lt; Gender</text>
<text text-anchor="middle" x="76" y="-7" font-family="Helvetica,sans-Serif" font-size="10.00"> &gt; &gt; &gt; &gt;</text>
</a>
</g>
</g>
<!-- Node5&#45;&gt;Node2 -->
<g id="edge4_Node000002_Node000005" class="edge">
<title>Node5&#45;&gt;Node2</title>
<g id="a_edge4_Node000002_Node000005"><a xlink:title=" ">
<path fill="none" stroke="#9a32cd" stroke-dasharray="5,2" d="M162.16,-51.08C220.12,-64.4 294.31,-81.46 339.84,-91.92"/>
<polygon fill="#9a32cd" stroke="#9a32cd" points="162.8,-47.63 152.27,-48.8 161.23,-54.45 162.8,-47.63"/>
</a>
</g>
<text text-anchor="middle" x="234.5" y="-83.5" font-family="Helvetica,sans-Serif" font-size="10.00" fill="grey"> searchableGenders</text>
</g>
<!-- Node6 -->
<g id="Node000006" class="node">
<title>Node6</title>
<g id="a_Node000006"><a xlink:href="classResourceSearchParams.html" target="_top" xlink:title="Stores parameters for searching resources within a terrain cell.">
<polygon fill="white" stroke="#666666" points="448,-74 317,-74 317,-55 448,-55 448,-74"/>
<text text-anchor="middle" x="382.5" y="-62" font-family="Helvetica,sans-Serif" font-size="10.00">ResourceSearchParams</text>
</a>
</g>
</g>
<!-- Node6&#45;&gt;Node1 -->
<g id="edge5_Node000001_Node000006" class="edge">
<title>Node6&#45;&gt;Node1</title>
<g id="a_edge5_Node000001_Node000006"><a xlink:title=" ">
<path fill="none" stroke="#9a32cd" stroke-dasharray="5,2" d="M458.37,-61.97C495.37,-61.55 540.63,-62.3 581,-66.5 592.23,-67.67 604.27,-69.72 615.34,-71.93"/>
<polygon fill="#9a32cd" stroke="#9a32cd" points="458.11,-58.47 448.16,-62.11 458.21,-65.47 458.11,-58.47"/>
</a>
</g>
<text text-anchor="middle" x="523.5" y="-69.5" font-family="Helvetica,sans-Serif" font-size="10.00" fill="grey"> resourceSearchParams</text>
</g>
</g>
</svg>
