<?xml version="1.0" encoding="UTF-8" standalone="no"?>
<!DOCTYPE svg PUBLIC "-//W3C//DTD SVG 1.1//EN"
 "http://www.w3.org/Graphics/SVG/1.1/DTD/svg11.dtd">
<!-- Generated by graphviz version 2.43.0 (0)
 -->
<!-- Title: IndividualTrait Pages: 1 -->
<!--zoomable 251 -->

<svg id="main" version="1.1" xmlns="http://www.w3.org/2000/svg" xmlns:xlink="http://www.w3.org/1999/xlink" xml:space="preserve" onload="init(evt)">
<style type="text/css"><![CDATA[
.node, .edge {opacity: 0.7;}
.node.selected, .edge.selected {opacity: 1;}
.edge:hover path { stroke: red; }
.edge:hover polygon { stroke: red; fill: red; }
]]></style>

<defs>
  <circle id="rim" cx="0" cy="0" r="7"/>
  <circle id="rim2" cx="0" cy="0" r="3.5"/>
  <g id="zoomPlus">
    <use xlink:href="#rim" fill="#404040"><set attributeName="fill" to="#808080" begin="zoomplus.mouseover" end="zoomplus.mouseout"/></use>
    <path d="M-4,0h8M0,-4v8" fill="none" stroke="white" stroke-width="1.5" pointer-events="none"/>
  </g>
  <g id="zoomMin">
    <use xlink:href="#rim" fill="#404040"><set attributeName="fill" to="#808080" begin="zoomminus.mouseover" end="zoomminus.mouseout"/></use>
    <path d="M-4,0h8" fill="none" stroke="white" stroke-width="1.5" pointer-events="none"/>
  </g>
  <g id="arrowUp" transform="translate(30 24)">
    <use xlink:href="#rim"/>
    <path pointer-events="none" fill="none" stroke="white" stroke-width="1.5" d="M0,-3.0v7 M-2.5,-0.5L0,-3.0L2.5,-0.5"/>
  </g>
  <g id="arrowRight" transform="rotate(90) translate(36 -43)">
    <use xlink:href="#rim"/>
    <path pointer-events="none" fill="none" stroke="white" stroke-width="1.5" d="M0,-3.0v7 M-2.5,-0.5L0,-3.0L2.5,-0.5"/>
  </g>
  <g id="arrowDown" transform="rotate(180) translate(-30 -48)">
    <use xlink:href="#rim"/>
    <path pointer-events="none" fill="none" stroke="white" stroke-width="1.5" d="M0,-3.0v7 M-2.5,-0.5L0,-3.0L2.5,-0.5"/>
  </g>
  <g id="arrowLeft" transform="rotate(270) translate(-36 17)">
    <use xlink:href="#rim"/>
    <path pointer-events="none" fill="none" stroke="white" stroke-width="1.5" d="M0,-3.0v7 M-2.5,-0.5L0,-3.0L2.5,-0.5"/>
  </g>
  <g id="resetDef">
    <use xlink:href="#rim2" fill="#404040"><set attributeName="fill" to="#808080" begin="reset.mouseover" end="reset.mouseout"/></use>
  </g>
</defs>
<script type="application/ecmascript">
var viewWidth = 690;
var viewHeight = 251;
var sectionId = 'dynsection-0';
</script>
<script type="application/ecmascript" xlink:href="svg.min.js"/>
<svg id="graph" class="graph">
<g id="viewport">
<title>IndividualTrait</title>
<!-- Node1 -->
<g id="Node000001" class="node">
<title>Node1</title>
<g id="a_Node000001"><a xlink:title="Represents an individual trait of an animal.">
<polygon fill="#999999" stroke="#666666" points="682,-64 596,-64 596,-45 682,-45 682,-64"/>
<text text-anchor="middle" x="639" y="-52" font-family="Helvetica,sans-Serif" font-size="10.00">IndividualTrait</text>
</a>
</g>
</g>
<!-- Node2 -->
<g id="Node000002" class="node">
<title>Node2</title>
<g id="a_Node000002"><a xlink:href="classTrait.html" target="_top" xlink:title="Represents a trait of an animal species or individual.">
<polygon fill="white" stroke="#666666" points="405.5,-123 367.5,-123 367.5,-104 405.5,-104 405.5,-123"/>
<text text-anchor="middle" x="386.5" y="-111" font-family="Helvetica,sans-Serif" font-size="10.00">Trait</text>
</a>
</g>
</g>
<!-- Node2&#45;&gt;Node1 -->
<g id="edge1_Node000001_Node000002" class="edge">
<title>Node2&#45;&gt;Node1</title>
<g id="a_edge1_Node000001_Node000002"><a xlink:title=" ">
<path fill="none" stroke="#9a32cd" stroke-dasharray="5,2" d="M415.31,-106.95C459.59,-96.52 546.35,-76.09 597.53,-64.03"/>
<polygon fill="#9a32cd" stroke="#9a32cd" points="414.45,-103.56 405.52,-109.26 416.05,-110.37 414.45,-103.56"/>
</a>
</g>
<text text-anchor="middle" x="528" y="-93.5" font-family="Helvetica,sans-Serif" font-size="10.00" fill="grey"> trait</text>
</g>
<!-- Node3 -->
<g id="Node000003" class="node">
<title>Node3</title>
<g id="a_Node000003"><a xlink:href="classCustomIndexedVector.html" target="_top" xlink:title=" ">
<polygon fill="white" stroke="#666666" points="153,-243 0,-243 0,-202 153,-202 153,-243"/>
<text text-anchor="start" x="8" y="-231" font-family="Helvetica,sans-Serif" font-size="10.00">CustomIndexedVector</text>
<text text-anchor="start" x="8" y="-220" font-family="Helvetica,sans-Serif" font-size="10.00">&lt; ExecutionOrder, Generate</text>
<text text-anchor="middle" x="76.5" y="-209" font-family="Helvetica,sans-Serif" font-size="10.00">TraitsFunc &gt;</text>
</a>
</g>
</g>
<!-- Node3&#45;&gt;Node2 -->
<g id="edge2_Node000002_Node000003" class="edge">
<title>Node3&#45;&gt;Node2</title>
<g id="a_edge2_Node000002_Node000003"><a xlink:title=" ">
<path fill="none" stroke="#9a32cd" stroke-dasharray="5,2" d="M162.86,-200.45C203.41,-189.1 252.25,-174.15 295,-157.5 321.05,-147.35 349.89,-132.7 367.85,-123.14"/>
<polygon fill="#9a32cd" stroke="#9a32cd" points="161.7,-197.14 153,-203.18 163.57,-203.88 161.7,-197.14"/>
</a>
</g>
<text text-anchor="middle" x="233" y="-200.5" font-family="Helvetica,sans-Serif" font-size="10.00" fill="grey"> registryGenerateTraits</text>
</g>
<!-- Node4 -->
<g id="Node000004" class="node">
<title>Node4</title>
<g id="a_Node000004"><a xlink:href="classCustomIndexedVector.html" target="_top" xlink:title=" ">
<polygon fill="white" stroke="#666666" points="139,-183.5 14,-183.5 14,-131.5 139,-131.5 139,-183.5"/>
<text text-anchor="start" x="22" y="-171.5" font-family="Helvetica,sans-Serif" font-size="10.00">CustomIndexedVector</text>
<text text-anchor="start" x="22" y="-160.5" font-family="Helvetica,sans-Serif" font-size="10.00">&lt; ExecutionOrder, std</text>
<text text-anchor="start" x="22" y="-149.5" font-family="Helvetica,sans-Serif" font-size="10.00">::function&lt; std::vector</text>
<text text-anchor="middle" x="76.5" y="-138.5" font-family="Helvetica,sans-Serif" font-size="10.00">&lt; std::string &gt;()&gt; &gt;</text>
</a>
</g>
</g>
<!-- Node4&#45;&gt;Node2 -->
<g id="edge3_Node000002_Node000004" class="edge">
<title>Node4&#45;&gt;Node2</title>
<g id="a_edge3_Node000002_Node000004"><a xlink:title=" ">
<path fill="none" stroke="#9a32cd" stroke-dasharray="5,2" d="M149.38,-147.23C220.82,-137.03 325.6,-122.06 367.35,-116.09"/>
<polygon fill="#9a32cd" stroke="#9a32cd" points="148.49,-143.82 139.09,-148.7 149.48,-150.75 148.49,-143.82"/>
</a>
</g>
<text text-anchor="middle" x="233" y="-145.5" font-family="Helvetica,sans-Serif" font-size="10.00" fill="grey"> registryGetTraitStrVector</text>
</g>
<!-- Node5 -->
<g id="Node000005" class="node">
<title>Node5</title>
<g id="a_Node000005"><a xlink:href="classTraitDefinitionSection.html" target="_top" xlink:title="Represents the definition of a trait, either at the species or individual level.">
<polygon fill="white" stroke="#666666" points="137,-113 16,-113 16,-94 137,-94 137,-113"/>
<text text-anchor="middle" x="76.5" y="-101" font-family="Helvetica,sans-Serif" font-size="10.00">TraitDefinitionSection</text>
</a>
</g>
</g>
<!-- Node5&#45;&gt;Node2 -->
<g id="edge4_Node000002_Node000005" class="edge">
<title>Node5&#45;&gt;Node2</title>
<g id="a_edge4_Node000002_Node000005"><a xlink:title=" ">
<path fill="none" stroke="#9a32cd" stroke-dasharray="5,2" d="M147.54,-105.77C219.06,-108.1 325.39,-111.55 367.44,-112.91"/>
<polygon fill="#9a32cd" stroke="#9a32cd" points="147.36,-102.27 137.25,-105.44 147.13,-109.26 147.36,-102.27"/>
</a>
</g>
<text text-anchor="middle" x="233" y="-113.5" font-family="Helvetica,sans-Serif" font-size="10.00" fill="grey"> value</text>
</g>
<!-- Node6 -->
<g id="Node000006" class="node">
<title>Node6</title>
<g id="a_Node000006"><a xlink:href="classTraitTemperatureSection.html" target="_top" xlink:title="Represents the temperature&#45;dependent part of a trait.">
<polygon fill="white" stroke="#666666" points="144,-71 9,-71 9,-52 144,-52 144,-71"/>
<text text-anchor="middle" x="76.5" y="-59" font-family="Helvetica,sans-Serif" font-size="10.00">TraitTemperatureSection</text>
</a>
</g>
</g>
<!-- Node6&#45;&gt;Node2 -->
<g id="edge5_Node000002_Node000006" class="edge">
<title>Node6&#45;&gt;Node2</title>
<g id="a_edge5_Node000002_Node000006"><a xlink:title=" ">
<path fill="none" stroke="#9a32cd" stroke-dasharray="5,2" d="M154.52,-70.19C196.26,-75.39 248.64,-82.69 295,-91.5 320.26,-96.3 349.05,-103.62 367.25,-108.48"/>
<polygon fill="#9a32cd" stroke="#9a32cd" points="154.77,-66.7 144.42,-68.95 153.92,-73.64 154.77,-66.7"/>
</a>
</g>
<text text-anchor="middle" x="233" y="-94.5" font-family="Helvetica,sans-Serif" font-size="10.00" fill="grey"> temperatureSection</text>
</g>
<!-- Node8 -->
<g id="Node000008" class="node">
<title>Node8</title>
<g id="a_Node000008"><a xlink:href="classIndividualTraitTemperatureSection.html" target="_top" xlink:title="Base class for handling temperature&#45;dependent effects on an individual trait.">
<polygon fill="white" stroke="#666666" points="460,-68.5 313,-68.5 313,-38.5 460,-38.5 460,-68.5"/>
<text text-anchor="start" x="321" y="-56.5" font-family="Helvetica,sans-Serif" font-size="10.00">IndividualTraitTemperature</text>
<text text-anchor="middle" x="386.5" y="-45.5" font-family="Helvetica,sans-Serif" font-size="10.00">Section</text>
</a>
</g>
</g>
<!-- Node6&#45;&gt;Node8 -->
<g id="edge8_Node000008_Node000006" class="edge">
<title>Node6&#45;&gt;Node8</title>
<g id="a_edge8_Node000008_Node000006"><a xlink:title=" ">
<path fill="none" stroke="#9a32cd" stroke-dasharray="5,2" d="M137.76,-50.39C148.78,-48.77 160.21,-47.36 171,-46.5 218.17,-42.74 271.33,-44.43 312.93,-47.1"/>
<polygon fill="#9a32cd" stroke="#9a32cd" points="137.14,-46.95 127.79,-51.93 138.21,-53.86 137.14,-46.95"/>
</a>
</g>
<text text-anchor="middle" x="233" y="-49.5" font-family="Helvetica,sans-Serif" font-size="10.00" fill="grey"> traitTemperatureSection</text>
</g>
<!-- Node7 -->
<g id="Node000007" class="node">
<title>Node7</title>
<g id="a_Node000007"><a xlink:href="classPreciseDouble.html" target="_top" xlink:title="Class for precise double&#45;precision floating&#45;point arithmetic.">
<polygon fill="white" stroke="#666666" points="429.5,-19 343.5,-19 343.5,0 429.5,0 429.5,-19"/>
<text text-anchor="middle" x="386.5" y="-7" font-family="Helvetica,sans-Serif" font-size="10.00">PreciseDouble</text>
</a>
</g>
</g>
<!-- Node7&#45;&gt;Node1 -->
<g id="edge6_Node000001_Node000007" class="edge">
<title>Node7&#45;&gt;Node1</title>
<g id="a_edge6_Node000001_Node000007"><a xlink:title=" ">
<path fill="none" stroke="#9a32cd" stroke-dasharray="5,2" d="M439.82,-9.85C478.55,-11.2 532.3,-15.42 578,-27.5 593.02,-31.47 609.01,-38.84 620.71,-44.88"/>
<polygon fill="#9a32cd" stroke="#9a32cd" points="439.91,-6.35 429.81,-9.55 439.7,-13.34 439.91,-6.35"/>
</a>
</g>
<text text-anchor="middle" x="528" y="-41.5" font-family="Helvetica,sans-Serif" font-size="10.00" fill="grey"> constitutiveValue</text>
<text text-anchor="middle" x="528" y="-30.5" font-family="Helvetica,sans-Serif" font-size="10.00" fill="grey">phenotypicValue</text>
</g>
<!-- Node8&#45;&gt;Node1 -->
<g id="edge7_Node000001_Node000008" class="edge">
<title>Node8&#45;&gt;Node1</title>
<g id="a_edge7_Node000001_Node000008"><a xlink:title=" ">
<path fill="none" stroke="#9a32cd" stroke-dasharray="5,2" d="M470.53,-53.83C512.57,-54 561.8,-54.2 595.95,-54.33"/>
<polygon fill="#9a32cd" stroke="#9a32cd" points="470.31,-50.33 460.29,-53.79 470.28,-57.33 470.31,-50.33"/>
</a>
</g>
<text text-anchor="middle" x="528" y="-56.5" font-family="Helvetica,sans-Serif" font-size="10.00" fill="grey"> temperatureSection</text>
</g>
</g>
</svg>

<g id="navigator" transform="translate(0 0)" fill="#404254">
  <rect fill="#f2f5e9" fill-opacity="0.5" stroke="#606060" stroke-width=".5" x="0" y="0" width="60" height="60"/>
  <use id="zoomplus" xlink:href="#zoomPlus" x="17" y="9" onmousedown="handleZoom(evt,'in')"/>
  <use id="zoomminus" xlink:href="#zoomMin" x="42" y="9" onmousedown="handleZoom(evt,'out')"/>
  <use id="reset" xlink:href="#resetDef" x="30" y="36" onmousedown="handleReset()"/>
   <use id="arrowup" xlink:href="#arrowUp" x="0" y="0" onmousedown="handlePan(0,-1)"/>
  <use id="arrowright" xlink:href="#arrowRight" x="0" y="0" onmousedown="handlePan(1,0)"/>
  <use id="arrowdown" xlink:href="#arrowDown" x="0" y="0" onmousedown="handlePan(0,1)"/>
  <use id="arrowleft" xlink:href="#arrowLeft" x="0" y="0" onmousedown="handlePan(-1,0)"/>
</g>
<svg viewBox="0 0 15 15" width="100%" height="30px" preserveAspectRatio="xMaxYMin meet">
 <g id="arrow_out" transform="scale(0.3 0.3)">
  <a xlink:href="classIndividualTrait__coll__graph_org.svg" target="_base">
   <rect id="button" ry="5" rx="5" y="6" x="6" height="38" width="38"
        fill="#f2f5e9" fill-opacity="0.5" stroke="#606060" stroke-width="1.0"/>
   <path id="arrow"
     d="M 11.500037,31.436501 C 11.940474,20.09759 22.043105,11.32322 32.158766,21.979434 L 37.068811,17.246167 C 37.068811,17.246167 37.088388,32 37.088388,32 L 22.160133,31.978069 C 22.160133,31.978069 26.997745,27.140456 26.997745,27.140456 C 18.528582,18.264221 13.291696,25.230495 11.500037,31.436501 z"
     style="fill:#404040;"/>
  </a>
 </g>
</svg>

<style type='text/css'>
<![CDATA[
[data-mouse-over-selected='false'] { opacity: 0.7; }
[data-mouse-over-selected='true']  { opacity: 1.0; }
]]>
</style>
<script type="application/ecmascript"><![CDATA[
document.addEventListener('DOMContentLoaded', (event) => {
  highlightEdges();
  highlightAdjacentNodes();
});
]]></script>
</svg>
