<?xml version="1.0" encoding="UTF-8" standalone="no"?>
<!DOCTYPE svg PUBLIC "-//W3C//DTD SVG 1.1//EN"
 "http://www.w3.org/Graphics/SVG/1.1/DTD/svg11.dtd">
<!-- Generated by graphviz version 2.43.0 (0)
 -->
<!-- Title: GrowthRateDynamics Pages: 1 -->
<svg width="375pt" height="228pt"
 viewBox="0.00 0.00 374.50 228.00" xmlns="http://www.w3.org/2000/svg" xmlns:xlink="http://www.w3.org/1999/xlink">
<g id="graph0" class="graph" transform="scale(1 1) rotate(0) translate(4 224)">
<title>GrowthRateDynamics</title>
<!-- Node1 -->
<g id="Node000001" class="node">
<title>Node1</title>
<g id="a_Node000001"><a xlink:title="Implements mass&#45;based dynamics for growth rate of organisms.">
<polygon fill="#999999" stroke="#666666" points="219,-19 96,-19 96,0 219,0 219,-19"/>
<text text-anchor="middle" x="157.5" y="-7" font-family="Helvetica,sans-Serif" font-size="10.00">GrowthRateDynamics</text>
</a>
</g>
</g>
<!-- Node2 -->
<g id="Node000002" class="node">
<title>Node2</title>
<g id="a_Node000002"><a xlink:href="classMassBasedDynamics.html" target="_top" xlink:title="Represents dynamics based on mass for living beings or resources.">
<polygon fill="white" stroke="#666666" points="121,-114 0,-114 0,-95 121,-95 121,-114"/>
<text text-anchor="middle" x="60.5" y="-102" font-family="Helvetica,sans-Serif" font-size="10.00">MassBasedDynamics</text>
</a>
</g>
</g>
<!-- Node2&#45;&gt;Node1 -->
<g id="edge1_Node000001_Node000002" class="edge">
<title>Node2&#45;&gt;Node1</title>
<g id="a_edge1_Node000001_Node000002"><a xlink:title=" ">
<path fill="none" stroke="#63b8ff" d="M76.85,-87.83C97.49,-68.03 132.27,-34.69 148.57,-19.06"/>
<polygon fill="#63b8ff" stroke="#63b8ff" points="74.25,-85.47 69.45,-94.92 79.09,-90.52 74.25,-85.47"/>
</a>
</g>
</g>
<!-- Node3 -->
<g id="Node000003" class="node">
<title>Node3</title>
<g id="a_Node000003"><a xlink:href="classDynamics.html" target="_top" xlink:title="Abstract base class for modeling temporal dynamics.">
<polygon fill="white" stroke="#666666" points="93,-220 28,-220 28,-201 93,-201 93,-220"/>
<text text-anchor="middle" x="60.5" y="-208" font-family="Helvetica,sans-Serif" font-size="10.00">Dynamics</text>
</a>
</g>
</g>
<!-- Node3&#45;&gt;Node2 -->
<g id="edge2_Node000002_Node000003" class="edge">
<title>Node3&#45;&gt;Node2</title>
<g id="a_edge2_Node000002_Node000003"><a xlink:title=" ">
<path fill="none" stroke="#63b8ff" d="M60.5,-190.93C60.5,-168.27 60.5,-130.91 60.5,-114.13"/>
<polygon fill="#63b8ff" stroke="#63b8ff" points="57,-190.99 60.5,-200.99 64,-190.99 57,-190.99"/>
</a>
</g>
</g>
<!-- Node4 -->
<g id="Node000004" class="node">
<title>Node4</title>
<g id="a_Node000004"><a xlink:href="classPreciseDouble.html" target="_top" xlink:title="Class for precise double&#45;precision floating&#45;point arithmetic.">
<polygon fill="white" stroke="#666666" points="243.5,-220 157.5,-220 157.5,-201 243.5,-201 243.5,-220"/>
<text text-anchor="middle" x="200.5" y="-208" font-family="Helvetica,sans-Serif" font-size="10.00">PreciseDouble</text>
</a>
</g>
</g>
<!-- Node4&#45;&gt;Node1 -->
<g id="edge3_Node000001_Node000004" class="edge">
<title>Node4&#45;&gt;Node1</title>
<g id="a_edge3_Node000001_Node000004"><a xlink:title=" ">
<path fill="none" stroke="#9a32cd" stroke-dasharray="5,2" d="M190.72,-191.93C182.71,-176.61 171.85,-153.52 166.5,-132 156.24,-90.74 156.54,-39.37 157.15,-19.2"/>
<polygon fill="#9a32cd" stroke="#9a32cd" points="187.67,-193.64 195.49,-200.78 193.83,-190.32 187.67,-193.64"/>
</a>
</g>
<text text-anchor="middle" x="208" y="-124" font-family="Helvetica,sans-Serif" font-size="10.00" fill="grey"> M</text>
<text text-anchor="middle" x="208" y="-113" font-family="Helvetica,sans-Serif" font-size="10.00" fill="grey">activationEnergy</text>
<text text-anchor="middle" x="208" y="-102" font-family="Helvetica,sans-Serif" font-size="10.00" fill="grey">energyDecay</text>
<text text-anchor="middle" x="208" y="-91" font-family="Helvetica,sans-Serif" font-size="10.00" fill="grey">initialValue</text>
<text text-anchor="middle" x="208" y="-80" font-family="Helvetica,sans-Serif" font-size="10.00" fill="grey">rMaxScale</text>
</g>
<!-- Node5 -->
<g id="Node000005" class="node">
<title>Node5</title>
<g id="a_Node000005"><a xlink:href="classTemperature.html" target="_top" xlink:title="Represents a temperature and provides conversions and operations between scales.">
<polygon fill="white" stroke="#666666" points="336.5,-114 258.5,-114 258.5,-95 336.5,-95 336.5,-114"/>
<text text-anchor="middle" x="297.5" y="-102" font-family="Helvetica,sans-Serif" font-size="10.00">Temperature</text>
</a>
</g>
</g>
<!-- Node4&#45;&gt;Node5 -->
<g id="edge5_Node000005_Node000004" class="edge">
<title>Node4&#45;&gt;Node5</title>
<g id="a_edge5_Node000005_Node000004"><a xlink:title=" ">
<path fill="none" stroke="#9a32cd" stroke-dasharray="5,2" d="M215.28,-193.65C236.05,-171.38 273.16,-131.6 289.45,-114.13"/>
<polygon fill="#9a32cd" stroke="#9a32cd" points="212.7,-191.29 208.44,-200.99 217.82,-196.06 212.7,-191.29"/>
</a>
</g>
<text text-anchor="middle" x="310.5" y="-175" font-family="Helvetica,sans-Serif" font-size="10.00" fill="grey"> temperatureCelsius</text>
<text text-anchor="middle" x="310.5" y="-164" font-family="Helvetica,sans-Serif" font-size="10.00" fill="grey">temperatureFahrenheit</text>
<text text-anchor="middle" x="310.5" y="-153" font-family="Helvetica,sans-Serif" font-size="10.00" fill="grey">temperatureKelvin</text>
</g>
<!-- Node5&#45;&gt;Node1 -->
<g id="edge4_Node000001_Node000005" class="edge">
<title>Node5&#45;&gt;Node1</title>
<g id="a_edge4_Node000001_Node000005"><a xlink:title=" ">
<path fill="none" stroke="#9a32cd" stroke-dasharray="5,2" d="M276.23,-89.37C246.8,-69.82 194.53,-35.1 170.39,-19.06"/>
<polygon fill="#9a32cd" stroke="#9a32cd" points="274.31,-92.3 284.58,-94.92 278.19,-86.47 274.31,-92.3"/>
</a>
</g>
<text text-anchor="middle" x="279" y="-51" font-family="Helvetica,sans-Serif" font-size="10.00" fill="grey"> temperatureOptimal</text>
<text text-anchor="middle" x="279" y="-40" font-family="Helvetica,sans-Serif" font-size="10.00" fill="grey">temperatureRef</text>
</g>
</g>
</svg>
