<?xml version="1.0" encoding="UTF-8" standalone="no"?>
<!DOCTYPE svg PUBLIC "-//W3C//DTD SVG 1.1//EN"
 "http://www.w3.org/Graphics/SVG/1.1/DTD/svg11.dtd">
<!-- Generated by graphviz version 2.43.0 (0)
 -->
<!-- Title: EdibleSearchParams Pages: 1 -->
<!--zoomable 189 -->

<svg id="main" version="1.1" xmlns="http://www.w3.org/2000/svg" xmlns:xlink="http://www.w3.org/1999/xlink" xml:space="preserve" onload="init(evt)">
<style type="text/css"><![CDATA[
.node, .edge {opacity: 0.7;}
.node.selected, .edge.selected {opacity: 1;}
.edge:hover path { stroke: red; }
.edge:hover polygon { stroke: red; fill: red; }
]]></style>

<defs>
  <circle id="rim" cx="0" cy="0" r="7"/>
  <circle id="rim2" cx="0" cy="0" r="3.5"/>
  <g id="zoomPlus">
    <use xlink:href="#rim" fill="#404040"><set attributeName="fill" to="#808080" begin="zoomplus.mouseover" end="zoomplus.mouseout"/></use>
    <path d="M-4,0h8M0,-4v8" fill="none" stroke="white" stroke-width="1.5" pointer-events="none"/>
  </g>
  <g id="zoomMin">
    <use xlink:href="#rim" fill="#404040"><set attributeName="fill" to="#808080" begin="zoomminus.mouseover" end="zoomminus.mouseout"/></use>
    <path d="M-4,0h8" fill="none" stroke="white" stroke-width="1.5" pointer-events="none"/>
  </g>
  <g id="arrowUp" transform="translate(30 24)">
    <use xlink:href="#rim"/>
    <path pointer-events="none" fill="none" stroke="white" stroke-width="1.5" d="M0,-3.0v7 M-2.5,-0.5L0,-3.0L2.5,-0.5"/>
  </g>
  <g id="arrowRight" transform="rotate(90) translate(36 -43)">
    <use xlink:href="#rim"/>
    <path pointer-events="none" fill="none" stroke="white" stroke-width="1.5" d="M0,-3.0v7 M-2.5,-0.5L0,-3.0L2.5,-0.5"/>
  </g>
  <g id="arrowDown" transform="rotate(180) translate(-30 -48)">
    <use xlink:href="#rim"/>
    <path pointer-events="none" fill="none" stroke="white" stroke-width="1.5" d="M0,-3.0v7 M-2.5,-0.5L0,-3.0L2.5,-0.5"/>
  </g>
  <g id="arrowLeft" transform="rotate(270) translate(-36 17)">
    <use xlink:href="#rim"/>
    <path pointer-events="none" fill="none" stroke="white" stroke-width="1.5" d="M0,-3.0v7 M-2.5,-0.5L0,-3.0L2.5,-0.5"/>
  </g>
  <g id="resetDef">
    <use xlink:href="#rim2" fill="#404040"><set attributeName="fill" to="#808080" begin="reset.mouseover" end="reset.mouseout"/></use>
  </g>
</defs>
<script type="application/ecmascript">
var viewWidth = 723;
var viewHeight = 189;
var sectionId = 'dynsection-0';
</script>
<script type="application/ecmascript" xlink:href="svg.min.js"/>
<svg id="graph" class="graph">
<g id="viewport">
<title>EdibleSearchParams</title>
<!-- Node1 -->
<g id="Node000001" class="node">
<title>Node1</title>
<g id="a_Node000001"><a xlink:title="Encapsulates search parameters for both animals and resources.">
<polygon fill="#999999" stroke="#666666" points="715,-91 599,-91 599,-72 715,-72 715,-91"/>
<text text-anchor="middle" x="657" y="-79" font-family="Helvetica,sans-Serif" font-size="10.00">EdibleSearchParams</text>
</a>
</g>
</g>
<!-- Node2 -->
<g id="Node000002" class="node">
<title>Node2</title>
<g id="a_Node000002"><a xlink:href="classAnimalSearchParams.html" target="_top" xlink:title="Stores parameters for searching animals within a terrain cell.">
<polygon fill="white" stroke="#666666" points="442.5,-111 322.5,-111 322.5,-92 442.5,-92 442.5,-111"/>
<text text-anchor="middle" x="382.5" y="-99" font-family="Helvetica,sans-Serif" font-size="10.00">AnimalSearchParams</text>
</a>
</g>
</g>
<!-- Node2&#45;&gt;Node1 -->
<g id="edge1_Node000001_Node000002" class="edge">
<title>Node2&#45;&gt;Node1</title>
<g id="a_edge1_Node000001_Node000002"><a xlink:title=" ">
<path fill="none" stroke="#9a32cd" stroke-dasharray="5,2" d="M452.65,-96.42C497.88,-93.1 556.26,-88.82 598.85,-85.69"/>
<polygon fill="#9a32cd" stroke="#9a32cd" points="452.35,-92.94 442.63,-97.16 452.86,-99.92 452.35,-92.94"/>
</a>
</g>
<text text-anchor="middle" x="523.5" y="-97.5" font-family="Helvetica,sans-Serif" font-size="10.00" fill="grey"> animalSearchParams</text>
</g>
<!-- Node3 -->
<g id="Node000003" class="node">
<title>Node3</title>
<g id="a_Node000003"><a xlink:href="classCustomIndexedVector.html" target="_top" xlink:title=" ">
<polygon fill="white" stroke="#666666" points="142.5,-181 9.5,-181 9.5,-140 142.5,-140 142.5,-181"/>
<text text-anchor="start" x="17.5" y="-169" font-family="Helvetica,sans-Serif" font-size="10.00">CustomIndexedVector</text>
<text text-anchor="start" x="17.5" y="-158" font-family="Helvetica,sans-Serif" font-size="10.00">&lt; LifeStage, std::vector</text>
<text text-anchor="middle" x="76" y="-147" font-family="Helvetica,sans-Serif" font-size="10.00">&lt; AnimalSpeciesID &gt; &gt;</text>
</a>
</g>
</g>
<!-- Node3&#45;&gt;Node2 -->
<g id="edge2_Node000002_Node000003" class="edge">
<title>Node3&#45;&gt;Node2</title>
<g id="a_edge2_Node000002_Node000003"><a xlink:title=" ">
<path fill="none" stroke="#9a32cd" stroke-dasharray="5,2" d="M152.61,-145.85C208.8,-134.96 283.84,-120.42 332.42,-111.01"/>
<polygon fill="#9a32cd" stroke="#9a32cd" points="151.85,-142.43 142.7,-147.77 153.18,-149.3 151.85,-142.43"/>
</a>
</g>
<text text-anchor="middle" x="234.5" y="-143.5" font-family="Helvetica,sans-Serif" font-size="10.00" fill="grey"> searchableAnimalSpecies</text>
</g>
<!-- Node4 -->
<g id="Node000004" class="node">
<title>Node4</title>
<g id="a_Node000004"><a xlink:href="classCustomIndexedVector.html" target="_top" xlink:title=" ">
<polygon fill="white" stroke="#666666" points="152,-122 0,-122 0,-81 152,-81 152,-122"/>
<text text-anchor="start" x="8" y="-110" font-family="Helvetica,sans-Serif" font-size="10.00">CustomIndexedVector</text>
<text text-anchor="start" x="8" y="-99" font-family="Helvetica,sans-Serif" font-size="10.00">&lt; LifeStage, std::vector</text>
<text text-anchor="middle" x="76" y="-88" font-family="Helvetica,sans-Serif" font-size="10.00">&lt; std::vector&lt; Instar &gt; &gt; &gt;</text>
</a>
</g>
</g>
<!-- Node4&#45;&gt;Node2 -->
<g id="edge3_Node000002_Node000004" class="edge">
<title>Node4&#45;&gt;Node2</title>
<g id="a_edge3_Node000002_Node000004"><a xlink:title=" ">
<path fill="none" stroke="#9a32cd" stroke-dasharray="5,2" d="M162.3,-101.5C213.3,-101.5 276.83,-101.5 322.34,-101.5"/>
<polygon fill="#9a32cd" stroke="#9a32cd" points="162.27,-98 152.27,-101.5 162.27,-105 162.27,-98"/>
</a>
</g>
<text text-anchor="middle" x="234.5" y="-104.5" font-family="Helvetica,sans-Serif" font-size="10.00" fill="grey"> searchableInstars</text>
</g>
<!-- Node5 -->
<g id="Node000005" class="node">
<title>Node5</title>
<g id="a_Node000005"><a xlink:href="classCustomIndexedVector.html" target="_top" xlink:title=" ">
<polygon fill="white" stroke="#666666" points="152,-63 0,-63 0,0 152,0 152,-63"/>
<text text-anchor="start" x="8" y="-51" font-family="Helvetica,sans-Serif" font-size="10.00">CustomIndexedVector</text>
<text text-anchor="start" x="8" y="-40" font-family="Helvetica,sans-Serif" font-size="10.00">&lt; LifeStage, std::vector</text>
<text text-anchor="start" x="8" y="-29" font-family="Helvetica,sans-Serif" font-size="10.00">&lt; CustomIndexedVector&lt;</text>
<text text-anchor="start" x="8" y="-18" font-family="Helvetica,sans-Serif" font-size="10.00"> Instar, std::vector&lt; Gender</text>
<text text-anchor="middle" x="76" y="-7" font-family="Helvetica,sans-Serif" font-size="10.00"> &gt; &gt; &gt; &gt;</text>
</a>
</g>
</g>
<!-- Node5&#45;&gt;Node2 -->
<g id="edge4_Node000002_Node000005" class="edge">
<title>Node5&#45;&gt;Node2</title>
<g id="a_edge4_Node000002_Node000005"><a xlink:title=" ">
<path fill="none" stroke="#9a32cd" stroke-dasharray="5,2" d="M162.16,-51.08C220.12,-64.4 294.31,-81.46 339.84,-91.92"/>
<polygon fill="#9a32cd" stroke="#9a32cd" points="162.8,-47.63 152.27,-48.8 161.23,-54.45 162.8,-47.63"/>
</a>
</g>
<text text-anchor="middle" x="234.5" y="-83.5" font-family="Helvetica,sans-Serif" font-size="10.00" fill="grey"> searchableGenders</text>
</g>
<!-- Node6 -->
<g id="Node000006" class="node">
<title>Node6</title>
<g id="a_Node000006"><a xlink:href="classResourceSearchParams.html" target="_top" xlink:title="Stores parameters for searching resources within a terrain cell.">
<polygon fill="white" stroke="#666666" points="448,-74 317,-74 317,-55 448,-55 448,-74"/>
<text text-anchor="middle" x="382.5" y="-62" font-family="Helvetica,sans-Serif" font-size="10.00">ResourceSearchParams</text>
</a>
</g>
</g>
<!-- Node6&#45;&gt;Node1 -->
<g id="edge5_Node000001_Node000006" class="edge">
<title>Node6&#45;&gt;Node1</title>
<g id="a_edge5_Node000001_Node000006"><a xlink:title=" ">
<path fill="none" stroke="#9a32cd" stroke-dasharray="5,2" d="M458.37,-61.97C495.37,-61.55 540.63,-62.3 581,-66.5 592.23,-67.67 604.27,-69.72 615.34,-71.93"/>
<polygon fill="#9a32cd" stroke="#9a32cd" points="458.11,-58.47 448.16,-62.11 458.21,-65.47 458.11,-58.47"/>
</a>
</g>
<text text-anchor="middle" x="523.5" y="-69.5" font-family="Helvetica,sans-Serif" font-size="10.00" fill="grey"> resourceSearchParams</text>
</g>
</g>
</svg>

<g id="navigator" transform="translate(0 0)" fill="#404254">
  <rect fill="#f2f5e9" fill-opacity="0.5" stroke="#606060" stroke-width=".5" x="0" y="0" width="60" height="60"/>
  <use id="zoomplus" xlink:href="#zoomPlus" x="17" y="9" onmousedown="handleZoom(evt,'in')"/>
  <use id="zoomminus" xlink:href="#zoomMin" x="42" y="9" onmousedown="handleZoom(evt,'out')"/>
  <use id="reset" xlink:href="#resetDef" x="30" y="36" onmousedown="handleReset()"/>
   <use id="arrowup" xlink:href="#arrowUp" x="0" y="0" onmousedown="handlePan(0,-1)"/>
  <use id="arrowright" xlink:href="#arrowRight" x="0" y="0" onmousedown="handlePan(1,0)"/>
  <use id="arrowdown" xlink:href="#arrowDown" x="0" y="0" onmousedown="handlePan(0,1)"/>
  <use id="arrowleft" xlink:href="#arrowLeft" x="0" y="0" onmousedown="handlePan(-1,0)"/>
</g>
<svg viewBox="0 0 15 15" width="100%" height="30px" preserveAspectRatio="xMaxYMin meet">
 <g id="arrow_out" transform="scale(0.3 0.3)">
  <a xlink:href="classEdibleSearchParams__coll__graph_org.svg" target="_base">
   <rect id="button" ry="5" rx="5" y="6" x="6" height="38" width="38"
        fill="#f2f5e9" fill-opacity="0.5" stroke="#606060" stroke-width="1.0"/>
   <path id="arrow"
     d="M 11.500037,31.436501 C 11.940474,20.09759 22.043105,11.32322 32.158766,21.979434 L 37.068811,17.246167 C 37.068811,17.246167 37.088388,32 37.088388,32 L 22.160133,31.978069 C 22.160133,31.978069 26.997745,27.140456 26.997745,27.140456 C 18.528582,18.264221 13.291696,25.230495 11.500037,31.436501 z"
     style="fill:#404040;"/>
  </a>
 </g>
</svg>

<style type='text/css'>
<![CDATA[
[data-mouse-over-selected='false'] { opacity: 0.7; }
[data-mouse-over-selected='true']  { opacity: 1.0; }
]]>
</style>
<script type="application/ecmascript"><![CDATA[
document.addEventListener('DOMContentLoaded', (event) => {
  highlightEdges();
  highlightAdjacentNodes();
});
]]></script>
</svg>
