<?xml version="1.0" encoding="UTF-8" standalone="no"?>
<!DOCTYPE svg PUBLIC "-//W3C//DTD SVG 1.1//EN"
 "http://www.w3.org/Graphics/SVG/1.1/DTD/svg11.dtd">
<!-- Generated by graphviz version 2.43.0 (0)
 -->
<!-- Title: ResourceSource Pages: 1 -->
<svg width="650pt" height="173pt"
 viewBox="0.00 0.00 649.50 173.00" xmlns="http://www.w3.org/2000/svg" xmlns:xlink="http://www.w3.org/1999/xlink">
<g id="graph0" class="graph" transform="scale(1 1) rotate(0) translate(4 169)">
<title>ResourceSource</title>
<!-- Node1 -->
<g id="Node000001" class="node">
<title>Node1</title>
<g id="a_Node000001"><a xlink:title="Represents a resource source in the landscape.">
<polygon fill="#999999" stroke="#666666" points="334,-19 239,-19 239,0 334,0 334,-19"/>
<text text-anchor="middle" x="286.5" y="-7" font-family="Helvetica,sans-Serif" font-size="10.00">ResourceSource</text>
</a>
</g>
</g>
<!-- Node2 -->
<g id="Node000002" class="node">
<title>Node2</title>
<g id="a_Node000002"><a xlink:href="classPathSource.html" target="_top" xlink:title="Abstract base class for landscape data sources.">
<polygon fill="white" stroke="#666666" points="71,-97.5 0,-97.5 0,-78.5 71,-78.5 71,-97.5"/>
<text text-anchor="middle" x="35.5" y="-85.5" font-family="Helvetica,sans-Serif" font-size="10.00">PathSource</text>
</a>
</g>
</g>
<!-- Node2&#45;&gt;Node1 -->
<g id="edge1_Node000001_Node000002" class="edge">
<title>Node2&#45;&gt;Node1</title>
<g id="a_edge1_Node000001_Node000002"><a xlink:title=" ">
<path fill="none" stroke="#63b8ff" d="M64.52,-74.51C90.79,-63.54 130.73,-47.71 166.5,-37 190.62,-29.78 218,-23.58 240.51,-19"/>
<polygon fill="#63b8ff" stroke="#63b8ff" points="63.02,-71.34 55.16,-78.45 65.73,-77.79 63.02,-71.34"/>
</a>
</g>
</g>
<!-- Node3 -->
<g id="Node000003" class="node">
<title>Node3</title>
<g id="a_Node000003"><a xlink:href="classResourceSpecies_1_1ResourceID.html" target="_top" xlink:title="Unique identifier for a resource species.">
<polygon fill="white" stroke="#666666" points="250,-97.5 89,-97.5 89,-78.5 250,-78.5 250,-97.5"/>
<text text-anchor="middle" x="169.5" y="-85.5" font-family="Helvetica,sans-Serif" font-size="10.00">ResourceSpecies::ResourceID</text>
</a>
</g>
</g>
<!-- Node3&#45;&gt;Node1 -->
<g id="edge2_Node000001_Node000003" class="edge">
<title>Node3&#45;&gt;Node1</title>
<g id="a_edge2_Node000001_Node000003"><a xlink:title=" ">
<path fill="none" stroke="#9a32cd" stroke-dasharray="5,2" d="M169.06,-68.06C169.83,-57.62 172.58,-45.14 180.5,-37 195.57,-21.49 218.24,-14.54 238.75,-11.6"/>
<polygon fill="#9a32cd" stroke="#9a32cd" points="165.55,-68.24 168.84,-78.31 172.55,-68.38 165.55,-68.24"/>
</a>
</g>
<text text-anchor="middle" x="226.5" y="-45.5" font-family="Helvetica,sans-Serif" font-size="10.00" fill="grey"> resourceSpeciesId</text>
</g>
<!-- Node4 -->
<g id="Node000004" class="node">
<title>Node4</title>
<g id="a_Node000004"><a xlink:href="classWetMass.html" target="_top" xlink:title="Represents wet mass in the ecosystem simulation.">
<polygon fill="white" stroke="#666666" points="512,-97.5 451,-97.5 451,-78.5 512,-78.5 512,-97.5"/>
<text text-anchor="middle" x="481.5" y="-85.5" font-family="Helvetica,sans-Serif" font-size="10.00">WetMass</text>
</a>
</g>
</g>
<!-- Node4&#45;&gt;Node1 -->
<g id="edge3_Node000001_Node000004" class="edge">
<title>Node4&#45;&gt;Node1</title>
<g id="a_edge3_Node000001_Node000004"><a xlink:title=" ">
<path fill="none" stroke="#9a32cd" stroke-dasharray="5,2" d="M447.81,-74.87C434.58,-70.03 419.29,-64.35 405.5,-59 370.76,-45.53 330.71,-28.99 307.05,-19.12"/>
<polygon fill="#9a32cd" stroke="#9a32cd" points="446.87,-78.25 457.46,-78.38 449.26,-71.67 446.87,-78.25"/>
</a>
</g>
<text text-anchor="middle" x="473" y="-51" font-family="Helvetica,sans-Serif" font-size="10.00" fill="grey"> minimumEdibleBiomass</text>
<text text-anchor="middle" x="473" y="-40" font-family="Helvetica,sans-Serif" font-size="10.00" fill="grey">resourceMaximumCapacity</text>
</g>
<!-- Node5 -->
<g id="Node000005" class="node">
<title>Node5</title>
<g id="a_Node000005"><a xlink:href="classPreciseDouble.html" target="_top" xlink:title="Class for precise double&#45;precision floating&#45;point arithmetic.">
<polygon fill="white" stroke="#666666" points="345.5,-165 259.5,-165 259.5,-146 345.5,-146 345.5,-165"/>
<text text-anchor="middle" x="302.5" y="-153" font-family="Helvetica,sans-Serif" font-size="10.00">PreciseDouble</text>
</a>
</g>
</g>
<!-- Node5&#45;&gt;Node1 -->
<g id="edge5_Node000001_Node000005" class="edge">
<title>Node5&#45;&gt;Node1</title>
<g id="a_edge5_Node000001_Node000005"><a xlink:title=" ">
<path fill="none" stroke="#9a32cd" stroke-dasharray="5,2" d="M300.04,-135.93C298.65,-125.15 296.9,-111.32 295.5,-99 292.16,-69.69 288.8,-34.85 287.3,-19.05"/>
<polygon fill="#9a32cd" stroke="#9a32cd" points="296.58,-136.39 301.34,-145.86 303.52,-135.49 296.58,-136.39"/>
</a>
</g>
<text text-anchor="start" x="295.5" y="-91" font-family="Helvetica,sans-Serif" font-size="10.00" fill="grey"> edibleFractionOfMaxCarrying</text>
<text text-anchor="middle" x="368.5" y="-80" font-family="Helvetica,sans-Serif" font-size="10.00" fill="grey">Capacity</text>
</g>
<!-- Node5&#45;&gt;Node4 -->
<g id="edge4_Node000004_Node000005" class="edge">
<title>Node5&#45;&gt;Node4</title>
<g id="a_edge4_Node000004_Node000005"><a xlink:title=" ">
<path fill="none" stroke="#9a32cd" stroke-dasharray="5,2" d="M335.36,-142.48C370.92,-129.46 426.73,-109.04 458.09,-97.57"/>
<polygon fill="#9a32cd" stroke="#9a32cd" points="334.09,-139.21 325.9,-145.94 336.49,-145.79 334.09,-139.21"/>
</a>
</g>
<text text-anchor="middle" x="419" y="-120" font-family="Helvetica,sans-Serif" font-size="10.00" fill="grey"> value</text>
</g>
<!-- Node6 -->
<g id="Node000006" class="node">
<title>Node6</title>
<g id="a_Node000006"><a xlink:href="classDynamics.html" target="_top" xlink:title="Abstract base class for modeling temporal dynamics.">
<polygon fill="white" stroke="#666666" points="595,-97.5 530,-97.5 530,-78.5 595,-78.5 595,-97.5"/>
<text text-anchor="middle" x="562.5" y="-85.5" font-family="Helvetica,sans-Serif" font-size="10.00">Dynamics</text>
</a>
</g>
</g>
<!-- Node6&#45;&gt;Node1 -->
<g id="edge6_Node000001_Node000006" class="edge">
<title>Node6&#45;&gt;Node1</title>
<g id="a_edge6_Node000001_Node000006"><a xlink:title=" ">
<path fill="none" stroke="#9a32cd" stroke-dasharray="5,2" d="M559.13,-68.36C556.15,-57.44 550.61,-44.38 540.5,-37 508.66,-13.78 398.58,-10.03 334.26,-9.91"/>
<polygon fill="#9a32cd" stroke="#9a32cd" points="555.75,-69.29 561.35,-78.28 562.59,-67.76 555.75,-69.29"/>
</a>
</g>
<text text-anchor="middle" x="598.5" y="-45.5" font-family="Helvetica,sans-Serif" font-size="10.00" fill="grey"> growthDynamics</text>
</g>
</g>
</svg>
