<?xml version="1.0" encoding="UTF-8" standalone="no"?>
<!DOCTYPE svg PUBLIC "-//W3C//DTD SVG 1.1//EN"
 "http://www.w3.org/Graphics/SVG/1.1/DTD/svg11.dtd">
<!-- Generated by graphviz version 2.43.0 (0)
 -->
<!-- Title: DecisionProbability Pages: 1 -->
<svg width="394pt" height="137pt"
 viewBox="0.00 0.00 394.00 137.00" xmlns="http://www.w3.org/2000/svg" xmlns:xlink="http://www.w3.org/1999/xlink">
<g id="graph0" class="graph" transform="scale(1 1) rotate(0) translate(4 133)">
<title>DecisionProbability</title>
<!-- Node1 -->
<g id="Node000001" class="node">
<title>Node1</title>
<g id="a_Node000001"><a xlink:title="Abstract base class for probability calculations in predator&#45;prey decisions.">
<polygon fill="#999999" stroke="#666666" points="209.5,-129 98.5,-129 98.5,-110 209.5,-110 209.5,-129"/>
<text text-anchor="middle" x="154" y="-117" font-family="Helvetica,sans-Serif" font-size="10.00">DecisionProbability</text>
</a>
</g>
</g>
<!-- Node2 -->
<g id="Node000002" class="node">
<title>Node2</title>
<g id="a_Node000002"><a xlink:href="classAnimalDecisionProbability.html" target="_top" xlink:title="Abstract class for decision probabilities specific to animal interactions.">
<polygon fill="white" stroke="#666666" points="146,-74 0,-74 0,-55 146,-55 146,-74"/>
<text text-anchor="middle" x="73" y="-62" font-family="Helvetica,sans-Serif" font-size="10.00">AnimalDecisionProbability</text>
</a>
</g>
</g>
<!-- Node1&#45;&gt;Node2 -->
<g id="edge1_Node000001_Node000002" class="edge">
<title>Node1&#45;&gt;Node2</title>
<g id="a_edge1_Node000001_Node000002"><a xlink:title=" ">
<path fill="none" stroke="#63b8ff" d="M132.49,-104.42C117.79,-94.81 98.78,-82.37 86.25,-74.17"/>
<polygon fill="#63b8ff" stroke="#63b8ff" points="130.7,-107.44 140.99,-109.98 134.53,-101.58 130.7,-107.44"/>
</a>
</g>
</g>
<!-- Node4 -->
<g id="Node000004" class="node">
<title>Node4</title>
<g id="a_Node000004"><a xlink:href="classEdibleDecisionProbability.html" target="_top" xlink:title="Base class for computing probabilities related to edible prey decisions.">
<polygon fill="white" stroke="#666666" points="305.5,-74 164.5,-74 164.5,-55 305.5,-55 305.5,-74"/>
<text text-anchor="middle" x="235" y="-62" font-family="Helvetica,sans-Serif" font-size="10.00">EdibleDecisionProbability</text>
</a>
</g>
</g>
<!-- Node1&#45;&gt;Node4 -->
<g id="edge3_Node000001_Node000004" class="edge">
<title>Node1&#45;&gt;Node4</title>
<g id="a_edge3_Node000001_Node000004"><a xlink:title=" ">
<path fill="none" stroke="#63b8ff" d="M175.51,-104.42C190.21,-94.81 209.22,-82.37 221.75,-74.17"/>
<polygon fill="#63b8ff" stroke="#63b8ff" points="173.47,-101.58 167.01,-109.98 177.3,-107.44 173.47,-101.58"/>
</a>
</g>
</g>
<!-- Node3 -->
<g id="Node000003" class="node">
<title>Node3</title>
<g id="a_Node000003"><a xlink:href="classEscapeProbability.html" target="_top" xlink:title="Manages the escape probability functions for a prey in predator&#45;prey interactions.">
<polygon fill="white" stroke="#666666" points="125,-19 21,-19 21,0 125,0 125,-19"/>
<text text-anchor="middle" x="73" y="-7" font-family="Helvetica,sans-Serif" font-size="10.00">EscapeProbability</text>
</a>
</g>
</g>
<!-- Node2&#45;&gt;Node3 -->
<g id="edge2_Node000002_Node000003" class="edge">
<title>Node2&#45;&gt;Node3</title>
<g id="a_edge2_Node000002_Node000003"><a xlink:title=" ">
<path fill="none" stroke="#63b8ff" d="M73,-44.66C73,-35.93 73,-25.99 73,-19.09"/>
<polygon fill="#63b8ff" stroke="#63b8ff" points="69.5,-44.75 73,-54.75 76.5,-44.75 69.5,-44.75"/>
</a>
</g>
</g>
<!-- Node5 -->
<g id="Node000005" class="node">
<title>Node5</title>
<g id="a_Node000005"><a xlink:href="classEdibilityValue.html" target="_top" xlink:title="Calculates the edibility value of prey for a predator.">
<polygon fill="white" stroke="#666666" points="251.5,-19 168.5,-19 168.5,0 251.5,0 251.5,-19"/>
<text text-anchor="middle" x="210" y="-7" font-family="Helvetica,sans-Serif" font-size="10.00">EdibilityValue</text>
</a>
</g>
</g>
<!-- Node4&#45;&gt;Node5 -->
<g id="edge4_Node000004_Node000005" class="edge">
<title>Node4&#45;&gt;Node5</title>
<g id="a_edge4_Node000004_Node000005"><a xlink:title=" ">
<path fill="none" stroke="#63b8ff" d="M226.52,-45.53C222.31,-36.6 217.41,-26.22 214.05,-19.09"/>
<polygon fill="#63b8ff" stroke="#63b8ff" points="223.44,-47.2 230.87,-54.75 229.77,-44.21 223.44,-47.2"/>
</a>
</g>
</g>
<!-- Node6 -->
<g id="Node000006" class="node">
<title>Node6</title>
<g id="a_Node000006"><a xlink:href="classPredationProbability.html" target="_top" xlink:title="Manages predation probability functions for species across different instars.">
<polygon fill="white" stroke="#666666" points="386,-19 270,-19 270,0 386,0 386,-19"/>
<text text-anchor="middle" x="328" y="-7" font-family="Helvetica,sans-Serif" font-size="10.00">PredationProbability</text>
</a>
</g>
</g>
<!-- Node4&#45;&gt;Node6 -->
<g id="edge5_Node000004_Node000006" class="edge">
<title>Node4&#45;&gt;Node6</title>
<g id="a_edge5_Node000004_Node000006"><a xlink:title=" ">
<path fill="none" stroke="#63b8ff" d="M258.75,-49.97C275.75,-40.28 298.13,-27.52 312.79,-19.17"/>
<polygon fill="#63b8ff" stroke="#63b8ff" points="256.9,-46.99 249.94,-54.98 260.36,-53.07 256.9,-46.99"/>
</a>
</g>
</g>
</g>
</svg>
