<?xml version="1.0" encoding="UTF-8" standalone="no"?>
<!DOCTYPE svg PUBLIC "-//W3C//DTD SVG 1.1//EN"
 "http://www.w3.org/Graphics/SVG/1.1/DTD/svg11.dtd">
<!-- Generated by graphviz version 2.43.0 (0)
 -->
<!-- Title: ValidatorSchemaJSONException Pages: 1 -->
<svg width="179pt" height="192pt"
 viewBox="0.00 0.00 179.00 192.00" xmlns="http://www.w3.org/2000/svg" xmlns:xlink="http://www.w3.org/1999/xlink">
<g id="graph0" class="graph" transform="scale(1 1) rotate(0) translate(4 188)">
<title>ValidatorSchemaJSONException</title>
<!-- Node1 -->
<g id="Node000001" class="node">
<title>Node1</title>
<g id="a_Node000001"><a xlink:title="Exception thrown when the JSON schema is invalid.">
<polygon fill="#999999" stroke="#666666" points="171,-19 0,-19 0,0 171,0 171,-19"/>
<text text-anchor="middle" x="85.5" y="-7" font-family="Helvetica,sans-Serif" font-size="10.00">ValidatorSchemaJSONException</text>
</a>
</g>
</g>
<!-- Node2 -->
<g id="Node000002" class="node">
<title>Node2</title>
<g id="a_Node000002"><a xlink:href="classValidatorJSONException.html" target="_top" xlink:title="Base exception for JSON validation errors.">
<polygon fill="white" stroke="#666666" points="151.5,-74 19.5,-74 19.5,-55 151.5,-55 151.5,-74"/>
<text text-anchor="middle" x="85.5" y="-62" font-family="Helvetica,sans-Serif" font-size="10.00">ValidatorJSONException</text>
</a>
</g>
</g>
<!-- Node2&#45;&gt;Node1 -->
<g id="edge1_Node000001_Node000002" class="edge">
<title>Node2&#45;&gt;Node1</title>
<g id="a_edge1_Node000001_Node000002"><a xlink:title=" ">
<path fill="none" stroke="#63b8ff" d="M85.5,-44.66C85.5,-35.93 85.5,-25.99 85.5,-19.09"/>
<polygon fill="#63b8ff" stroke="#63b8ff" points="82,-44.75 85.5,-54.75 89,-44.75 82,-44.75"/>
</a>
</g>
</g>
<!-- Node3 -->
<g id="Node000003" class="node">
<title>Node3</title>
<g id="a_Node000003"><a xlink:href="classLineInfoException.html" target="_top" xlink:title="Exception class that stores file, line, and custom error message.">
<polygon fill="white" stroke="#666666" points="137.5,-129 33.5,-129 33.5,-110 137.5,-110 137.5,-129"/>
<text text-anchor="middle" x="85.5" y="-117" font-family="Helvetica,sans-Serif" font-size="10.00">LineInfoException</text>
</a>
</g>
</g>
<!-- Node3&#45;&gt;Node2 -->
<g id="edge2_Node000002_Node000003" class="edge">
<title>Node3&#45;&gt;Node2</title>
<g id="a_edge2_Node000002_Node000003"><a xlink:title=" ">
<path fill="none" stroke="#63b8ff" d="M85.5,-99.66C85.5,-90.93 85.5,-80.99 85.5,-74.09"/>
<polygon fill="#63b8ff" stroke="#63b8ff" points="82,-99.75 85.5,-109.75 89,-99.75 82,-99.75"/>
</a>
</g>
</g>
<!-- Node4 -->
<g id="Node000004" class="node">
<title>Node4</title>
<g id="a_Node000004"><a xlink:title=" ">
<polygon fill="white" stroke="#bfbfbf" points="128.5,-184 42.5,-184 42.5,-165 128.5,-165 128.5,-184"/>
<text text-anchor="middle" x="85.5" y="-172" font-family="Helvetica,sans-Serif" font-size="10.00">std::exception</text>
</a>
</g>
</g>
<!-- Node4&#45;&gt;Node3 -->
<g id="edge3_Node000003_Node000004" class="edge">
<title>Node4&#45;&gt;Node3</title>
<g id="a_edge3_Node000003_Node000004"><a xlink:title=" ">
<path fill="none" stroke="#63b8ff" d="M85.5,-154.66C85.5,-145.93 85.5,-135.99 85.5,-129.09"/>
<polygon fill="#63b8ff" stroke="#63b8ff" points="82,-154.75 85.5,-164.75 89,-154.75 82,-154.75"/>
</a>
</g>
</g>
</g>
</svg>
