<?xml version="1.0" encoding="UTF-8" standalone="no"?>
<!DOCTYPE svg PUBLIC "-//W3C//DTD SVG 1.1//EN"
 "http://www.w3.org/Graphics/SVG/1.1/DTD/svg11.dtd">
<!-- Generated by graphviz version 2.43.0 (0)
 -->
<!-- Title: AnimalStatistical Pages: 1 -->
<!--zoomable 911 -->

<svg id="main" version="1.1" xmlns="http://www.w3.org/2000/svg" xmlns:xlink="http://www.w3.org/1999/xlink" xml:space="preserve" onload="init(evt)">
<style type="text/css"><![CDATA[
.node, .edge {opacity: 0.7;}
.node.selected, .edge.selected {opacity: 1;}
.edge:hover path { stroke: red; }
.edge:hover polygon { stroke: red; fill: red; }
]]></style>

<defs>
  <circle id="rim" cx="0" cy="0" r="7"/>
  <circle id="rim2" cx="0" cy="0" r="3.5"/>
  <g id="zoomPlus">
    <use xlink:href="#rim" fill="#404040"><set attributeName="fill" to="#808080" begin="zoomplus.mouseover" end="zoomplus.mouseout"/></use>
    <path d="M-4,0h8M0,-4v8" fill="none" stroke="white" stroke-width="1.5" pointer-events="none"/>
  </g>
  <g id="zoomMin">
    <use xlink:href="#rim" fill="#404040"><set attributeName="fill" to="#808080" begin="zoomminus.mouseover" end="zoomminus.mouseout"/></use>
    <path d="M-4,0h8" fill="none" stroke="white" stroke-width="1.5" pointer-events="none"/>
  </g>
  <g id="arrowUp" transform="translate(30 24)">
    <use xlink:href="#rim"/>
    <path pointer-events="none" fill="none" stroke="white" stroke-width="1.5" d="M0,-3.0v7 M-2.5,-0.5L0,-3.0L2.5,-0.5"/>
  </g>
  <g id="arrowRight" transform="rotate(90) translate(36 -43)">
    <use xlink:href="#rim"/>
    <path pointer-events="none" fill="none" stroke="white" stroke-width="1.5" d="M0,-3.0v7 M-2.5,-0.5L0,-3.0L2.5,-0.5"/>
  </g>
  <g id="arrowDown" transform="rotate(180) translate(-30 -48)">
    <use xlink:href="#rim"/>
    <path pointer-events="none" fill="none" stroke="white" stroke-width="1.5" d="M0,-3.0v7 M-2.5,-0.5L0,-3.0L2.5,-0.5"/>
  </g>
  <g id="arrowLeft" transform="rotate(270) translate(-36 17)">
    <use xlink:href="#rim"/>
    <path pointer-events="none" fill="none" stroke="white" stroke-width="1.5" d="M0,-3.0v7 M-2.5,-0.5L0,-3.0L2.5,-0.5"/>
  </g>
  <g id="resetDef">
    <use xlink:href="#rim2" fill="#404040"><set attributeName="fill" to="#808080" begin="reset.mouseover" end="reset.mouseout"/></use>
  </g>
</defs>
<script type="application/ecmascript">
var viewWidth = 1577;
var viewHeight = 911;
var sectionId = 'dynsection-1';
</script>
<script type="application/ecmascript" xlink:href="svg.min.js"/>
<svg id="graph" class="graph">
<g id="viewport">
<title>AnimalStatistical</title>
<!-- Node1 -->
<g id="Node000001" class="node">
<title>Node1</title>
<g id="a_Node000001"><a xlink:title="Concrete implementation of Animal for statistical modeling.">
<polygon fill="#999999" stroke="#666666" points="1569,-485.5 1469,-485.5 1469,-466.5 1569,-466.5 1569,-485.5"/>
<text text-anchor="middle" x="1519" y="-473.5" font-family="Helvetica,sans-Serif" font-size="10.00">AnimalStatistical</text>
</a>
</g>
</g>
<!-- Node2 -->
<g id="Node000002" class="node">
<title>Node2</title>
<g id="a_Node000002"><a xlink:href="classAnimal.html" target="_top" xlink:title="Abstract base class representing an individual animal.">
<polygon fill="white" stroke="#666666" points="1287,-545.5 1236,-545.5 1236,-526.5 1287,-526.5 1287,-545.5"/>
<text text-anchor="middle" x="1261.5" y="-533.5" font-family="Helvetica,sans-Serif" font-size="10.00">Animal</text>
</a>
</g>
</g>
<!-- Node2&#45;&gt;Node1 -->
<g id="edge1_Node000001_Node000002" class="edge">
<title>Node2&#45;&gt;Node1</title>
<g id="a_edge1_Node000001_Node000002"><a xlink:title=" ">
<path fill="none" stroke="#63b8ff" d="M1297.47,-527.79C1344.46,-516.75 1427.81,-497.18 1477.48,-485.52"/>
<polygon fill="#63b8ff" stroke="#63b8ff" points="1296.4,-524.44 1287.46,-530.14 1298,-531.26 1296.4,-524.44"/>
</a>
</g>
</g>
<!-- Node3 -->
<g id="Node000003" class="node">
<title>Node3</title>
<g id="a_Node000003"><a xlink:href="classEdible.html" target="_top" xlink:title="Represents a generic edible entity within a terrain cell.">
<polygon fill="white" stroke="#666666" points="1090.5,-545.5 1043.5,-545.5 1043.5,-526.5 1090.5,-526.5 1090.5,-545.5"/>
<text text-anchor="middle" x="1067" y="-533.5" font-family="Helvetica,sans-Serif" font-size="10.00">Edible</text>
</a>
</g>
</g>
<!-- Node3&#45;&gt;Node2 -->
<g id="edge2_Node000002_Node000003" class="edge">
<title>Node3&#45;&gt;Node2</title>
<g id="a_edge2_Node000002_Node000003"><a xlink:title=" ">
<path fill="none" stroke="#63b8ff" d="M1100.96,-536C1139.25,-536 1201.55,-536 1235.87,-536"/>
<polygon fill="#63b8ff" stroke="#63b8ff" points="1100.84,-532.5 1090.84,-536 1100.84,-539.5 1100.84,-532.5"/>
</a>
</g>
</g>
<!-- Node4 -->
<g id="Node000004" class="node">
<title>Node4</title>
<g id="a_Node000004"><a xlink:href="classEdibleID.html" target="_top" xlink:title="Encapsulates a unique identifier for an edible object or resource.">
<polygon fill="white" stroke="#666666" points="797.5,-508.5 740.5,-508.5 740.5,-489.5 797.5,-489.5 797.5,-508.5"/>
<text text-anchor="middle" x="769" y="-496.5" font-family="Helvetica,sans-Serif" font-size="10.00">EdibleID</text>
</a>
</g>
</g>
<!-- Node4&#45;&gt;Node3 -->
<g id="edge3_Node000003_Node000004" class="edge">
<title>Node4&#45;&gt;Node3</title>
<g id="a_edge3_Node000003_Node000004"><a xlink:title=" ">
<path fill="none" stroke="#9a32cd" stroke-dasharray="5,2" d="M807.95,-500.95C854.24,-503.71 934.76,-509.71 1003,-521 1016.53,-523.24 1031.48,-526.75 1043.41,-529.81"/>
<polygon fill="#9a32cd" stroke="#9a32cd" points="807.96,-497.45 797.78,-500.37 807.56,-504.44 807.96,-497.45"/>
</a>
</g>
<text text-anchor="middle" x="938.5" y="-524" font-family="Helvetica,sans-Serif" font-size="10.00" fill="grey"> id</text>
</g>
<!-- Node5 -->
<g id="Node000005" class="node">
<title>Node5</title>
<g id="a_Node000005"><a xlink:href="classSpecies.html" target="_top" xlink:title="Represents a generic species in the ecosystem.">
<polygon fill="white" stroke="#666666" points="796,-545.5 742,-545.5 742,-526.5 796,-526.5 796,-545.5"/>
<text text-anchor="middle" x="769" y="-533.5" font-family="Helvetica,sans-Serif" font-size="10.00">Species</text>
</a>
</g>
</g>
<!-- Node5&#45;&gt;Node3 -->
<g id="edge4_Node000003_Node000005" class="edge">
<title>Node5&#45;&gt;Node3</title>
<g id="a_edge4_Node000003_Node000005"><a xlink:title=" ">
<path fill="none" stroke="#9a32cd" stroke-dasharray="5,2" d="M806.09,-536C867.94,-536 992.44,-536 1043.44,-536"/>
<polygon fill="#9a32cd" stroke="#9a32cd" points="806.01,-532.5 796.01,-536 806.01,-539.5 806.01,-532.5"/>
</a>
</g>
<text text-anchor="middle" x="938.5" y="-539" font-family="Helvetica,sans-Serif" font-size="10.00" fill="grey"> mySpecies</text>
</g>
<!-- Node6 -->
<g id="Node000006" class="node">
<title>Node6</title>
<g id="a_Node000006"><a xlink:href="classSpecies_1_1ID.html" target="_top" xlink:title="Unique identifier for a Species.">
<polygon fill="white" stroke="#666666" points="422.5,-542.5 351.5,-542.5 351.5,-523.5 422.5,-523.5 422.5,-542.5"/>
<text text-anchor="middle" x="387" y="-530.5" font-family="Helvetica,sans-Serif" font-size="10.00">Species::ID</text>
</a>
</g>
</g>
<!-- Node6&#45;&gt;Node5 -->
<g id="edge5_Node000005_Node000006" class="edge">
<title>Node6&#45;&gt;Node5</title>
<g id="a_edge5_Node000005_Node000006"><a xlink:title=" ">
<path fill="none" stroke="#9a32cd" stroke-dasharray="5,2" d="M432.9,-532.95C487.52,-532.93 582.53,-533.07 664,-534 690.54,-534.3 720.9,-534.92 741.93,-535.39"/>
<polygon fill="#9a32cd" stroke="#9a32cd" points="432.86,-529.45 422.86,-532.95 432.86,-536.45 432.86,-529.45"/>
</a>
</g>
<text text-anchor="middle" x="582.5" y="-537" font-family="Helvetica,sans-Serif" font-size="10.00" fill="grey"> id</text>
</g>
<!-- Node7 -->
<g id="Node000007" class="node">
<title>Node7</title>
<g id="a_Node000007"><a xlink:href="classTerrainCell.html" target="_top" xlink:title="Represents a single cell in the landscape.">
<polygon fill="white" stroke="#666666" points="803,-729.5 735,-729.5 735,-710.5 803,-710.5 803,-729.5"/>
<text text-anchor="middle" x="769" y="-717.5" font-family="Helvetica,sans-Serif" font-size="10.00">TerrainCell</text>
</a>
</g>
</g>
<!-- Node7&#45;&gt;Node3 -->
<g id="edge6_Node000003_Node000007" class="edge">
<title>Node7&#45;&gt;Node3</title>
<g id="a_edge6_Node000003_Node000007"><a xlink:title=" ">
<path fill="none" stroke="#9a32cd" stroke-dasharray="5,2" d="M798.57,-706.09C819.11,-696.61 847.72,-684.46 874,-677 929.88,-661.13 955.87,-689.96 1003,-656 1008.01,-652.39 1047.19,-573.95 1061.11,-545.88"/>
<polygon fill="#9a32cd" stroke="#9a32cd" points="797.02,-702.95 789.45,-710.36 799.99,-709.28 797.02,-702.95"/>
</a>
</g>
<text text-anchor="middle" x="938.5" y="-680" font-family="Helvetica,sans-Serif" font-size="10.00" fill="grey"> terrainCell</text>
</g>
<!-- Node8 -->
<g id="Node000008" class="node">
<title>Node8</title>
<g id="a_Node000008"><a xlink:href="classPatchApplicator.html" target="_top" xlink:title="Applies patches to a TerrainCell including moisture, resources, obstacles, and habitat domains.">
<polygon fill="white" stroke="#666666" points="1113,-653.5 1021,-653.5 1021,-634.5 1113,-634.5 1113,-653.5"/>
<text text-anchor="middle" x="1067" y="-641.5" font-family="Helvetica,sans-Serif" font-size="10.00">PatchApplicator</text>
</a>
</g>
</g>
<!-- Node7&#45;&gt;Node8 -->
<g id="edge8_Node000008_Node000007" class="edge">
<title>Node7&#45;&gt;Node8</title>
<g id="a_edge8_Node000008_Node000007"><a xlink:title=" ">
<path fill="none" stroke="#9a32cd" stroke-dasharray="5,2" d="M813.45,-715.59C875.99,-709.06 985.82,-696.85 1003,-690 1024.13,-681.57 1044.66,-664.4 1056.28,-653.58"/>
<polygon fill="#9a32cd" stroke="#9a32cd" points="813.05,-712.11 803.47,-716.62 813.77,-719.07 813.05,-712.11"/>
</a>
</g>
<text text-anchor="middle" x="938.5" y="-711" font-family="Helvetica,sans-Serif" font-size="10.00" fill="grey"> owner</text>
</g>
<!-- Node8&#45;&gt;Node7 -->
<g id="edge7_Node000007_Node000008" class="edge">
<title>Node8&#45;&gt;Node7</title>
<g id="a_edge7_Node000007_Node000008"><a xlink:title=" ">
<path fill="none" stroke="#9a32cd" stroke-dasharray="5,2" d="M1057.45,-662.84C1047.49,-682.25 1029,-711.38 1003,-724 938.03,-755.53 850.38,-741.15 803.27,-729.55"/>
<polygon fill="#9a32cd" stroke="#9a32cd" points="1060.66,-664.25 1061.88,-653.72 1054.37,-661.19 1060.66,-664.25"/>
</a>
</g>
<text text-anchor="middle" x="938.5" y="-746" font-family="Helvetica,sans-Serif" font-size="10.00" fill="grey"> patchApplicator</text>
</g>
<!-- Node9 -->
<g id="Node000009" class="node">
<title>Node9</title>
<g id="a_Node000009"><a xlink:href="classCellMoistureInterface.html" target="_top" xlink:title="Base interface representing the hydrological and thermal properties of a terrain cell.">
<polygon fill="white" stroke="#666666" points="830,-582.5 708,-582.5 708,-563.5 830,-563.5 830,-582.5"/>
<text text-anchor="middle" x="769" y="-570.5" font-family="Helvetica,sans-Serif" font-size="10.00">CellMoistureInterface</text>
</a>
</g>
</g>
<!-- Node9&#45;&gt;Node8 -->
<g id="edge9_Node000008_Node000009" class="edge">
<title>Node9&#45;&gt;Node8</title>
<g id="a_edge9_Node000008_Node000009"><a xlink:title=" ">
<path fill="none" stroke="#9a32cd" stroke-dasharray="5,2" d="M840.47,-572.26C887.82,-573.88 950.86,-580.22 1003,-600 1023.71,-607.85 1044.05,-624.02 1055.79,-634.42"/>
<polygon fill="#9a32cd" stroke="#9a32cd" points="840.4,-568.75 830.31,-571.97 840.21,-575.75 840.4,-568.75"/>
</a>
</g>
<text text-anchor="middle" x="938.5" y="-603" font-family="Helvetica,sans-Serif" font-size="10.00" fill="grey"> cellMoisture</text>
</g>
<!-- Node10 -->
<g id="Node000010" class="node">
<title>Node10</title>
<g id="a_Node000010"><a xlink:href="classCellElement.html" target="_top" xlink:title="Base class for any modifiable element contained within a terrain cell.">
<polygon fill="white" stroke="#666666" points="425,-591.5 349,-591.5 349,-572.5 425,-572.5 425,-591.5"/>
<text text-anchor="middle" x="387" y="-579.5" font-family="Helvetica,sans-Serif" font-size="10.00">CellElement</text>
</a>
</g>
</g>
<!-- Node10&#45;&gt;Node9 -->
<g id="edge10_Node000009_Node000010" class="edge">
<title>Node10&#45;&gt;Node9</title>
<g id="a_edge10_Node000009_Node000010"><a xlink:title=" ">
<path fill="none" stroke="#63b8ff" d="M435.31,-577.39C455.53,-575.64 479.4,-573.86 501,-573 571.98,-570.18 653.66,-570.73 707.79,-571.64"/>
<polygon fill="#63b8ff" stroke="#63b8ff" points="434.76,-573.92 425.11,-578.3 435.38,-580.9 434.76,-573.92"/>
</a>
</g>
</g>
<!-- Node13 -->
<g id="Node000013" class="node">
<title>Node13</title>
<g id="a_Node000013"><a xlink:href="classCellObstacleInterface.html" target="_top" xlink:title="Interface for managing obstacles in a terrain cell.">
<polygon fill="white" stroke="#666666" points="830,-656.5 708,-656.5 708,-637.5 830,-637.5 830,-656.5"/>
<text text-anchor="middle" x="769" y="-644.5" font-family="Helvetica,sans-Serif" font-size="10.00">CellObstacleInterface</text>
</a>
</g>
</g>
<!-- Node10&#45;&gt;Node13 -->
<g id="edge14_Node000013_Node000010" class="edge">
<title>Node10&#45;&gt;Node13</title>
<g id="a_edge14_Node000013_Node000010"><a xlink:title=" ">
<path fill="none" stroke="#63b8ff" d="M435.46,-588.03C502.54,-596.73 621.63,-612.87 664,-623 672.2,-624.96 673.86,-626.8 682,-629 693.49,-632.11 705.96,-634.99 717.75,-637.5"/>
<polygon fill="#63b8ff" stroke="#63b8ff" points="435.53,-584.51 425.16,-586.7 434.63,-591.46 435.53,-584.51"/>
</a>
</g>
</g>
<!-- Node14 -->
<g id="Node000014" class="node">
<title>Node14</title>
<g id="a_Node000014"><a xlink:href="classCellHabitatDomainInterface.html" target="_top" xlink:title="Represents the habitat&#45;domain information associated with a terrain cell.">
<polygon fill="white" stroke="#666666" points="845.5,-619.5 692.5,-619.5 692.5,-600.5 845.5,-600.5 845.5,-619.5"/>
<text text-anchor="middle" x="769" y="-607.5" font-family="Helvetica,sans-Serif" font-size="10.00">CellHabitatDomainInterface</text>
</a>
</g>
</g>
<!-- Node10&#45;&gt;Node14 -->
<g id="edge16_Node000014_Node000010" class="edge">
<title>Node10&#45;&gt;Node14</title>
<g id="a_edge16_Node000014_Node000010"><a xlink:title=" ">
<path fill="none" stroke="#63b8ff" d="M435.24,-583.92C490.25,-586.34 583.81,-591.06 664,-598 673.14,-598.79 682.73,-599.74 692.22,-600.75"/>
<polygon fill="#63b8ff" stroke="#63b8ff" points="435.24,-580.42 425.1,-583.48 434.94,-587.41 435.24,-580.42"/>
</a>
</g>
</g>
<!-- Node11 -->
<g id="Node000011" class="node">
<title>Node11</title>
<g id="a_Node000011"><a xlink:href="classWetMass.html" target="_top" xlink:title="Represents wet mass in the ecosystem simulation.">
<polygon fill="white" stroke="#666666" points="417.5,-261.5 356.5,-261.5 356.5,-242.5 417.5,-242.5 417.5,-261.5"/>
<text text-anchor="middle" x="387" y="-249.5" font-family="Helvetica,sans-Serif" font-size="10.00">WetMass</text>
</a>
</g>
</g>
<!-- Node11&#45;&gt;Node9 -->
<g id="edge11_Node000009_Node000011" class="edge">
<title>Node11&#45;&gt;Node9</title>
<g id="a_edge11_Node000009_Node000011"><a xlink:title=" ">
<path fill="none" stroke="#9a32cd" stroke-dasharray="5,2" d="M408.86,-267.8C458.39,-306.15 584.85,-409.06 664,-518 674.75,-532.79 667.58,-543.76 682,-555 689.58,-560.91 698.64,-565 707.98,-567.81"/>
<polygon fill="#9a32cd" stroke="#9a32cd" points="410.85,-264.92 400.79,-261.6 406.59,-270.47 410.85,-264.92"/>
</a>
</g>
<text text-anchor="middle" x="582.5" y="-521" font-family="Helvetica,sans-Serif" font-size="10.00" fill="grey"> totalMaximumResourceCapacity</text>
</g>
<!-- Node25 -->
<g id="Node000025" class="node">
<title>Node25</title>
<g id="a_Node000025"><a xlink:href="classEdibleGrowth.html" target="_top" xlink:title="Represents the growth characteristics and current biomasses of an edible object.">
<polygon fill="white" stroke="#666666" points="810,-97.5 728,-97.5 728,-78.5 810,-78.5 810,-97.5"/>
<text text-anchor="middle" x="769" y="-85.5" font-family="Helvetica,sans-Serif" font-size="10.00">EdibleGrowth</text>
</a>
</g>
</g>
<!-- Node11&#45;&gt;Node25 -->
<g id="edge35_Node000025_Node000011" class="edge">
<title>Node11&#45;&gt;Node25</title>
<g id="a_edge35_Node000025_Node000011"><a xlink:title=" ">
<path fill="none" stroke="#9a32cd" stroke-dasharray="5,2" d="M428.11,-254.31C496.34,-257.33 630.82,-259.02 664,-228 702.11,-192.37 647.35,-151.01 682,-112 693.53,-99.02 711.43,-92.8 727.92,-89.92"/>
<polygon fill="#9a32cd" stroke="#9a32cd" points="427.91,-250.8 417.76,-253.82 427.58,-257.79 427.91,-250.8"/>
</a>
</g>
<text text-anchor="middle" x="582.5" y="-259" font-family="Helvetica,sans-Serif" font-size="10.00" fill="grey"> currentTotalWetMass</text>
</g>
<!-- Node12 -->
<g id="Node000012" class="node">
<title>Node12</title>
<g id="a_Node000012"><a xlink:href="classPreciseDouble.html" target="_top" xlink:title="Class for precise double&#45;precision floating&#45;point arithmetic.">
<polygon fill="white" stroke="#666666" points="114.5,-261.5 28.5,-261.5 28.5,-242.5 114.5,-242.5 114.5,-261.5"/>
<text text-anchor="middle" x="71.5" y="-249.5" font-family="Helvetica,sans-Serif" font-size="10.00">PreciseDouble</text>
</a>
</g>
</g>
<!-- Node12&#45;&gt;Node7 -->
<g id="edge19_Node000007_Node000012" class="edge">
<title>Node12&#45;&gt;Node7</title>
<g id="a_edge19_Node000007_Node000012"><a xlink:title=" ">
<path fill="none" stroke="#9a32cd" stroke-dasharray="5,2" d="M75.22,-271.78C86.28,-343.76 135,-592.98 291,-697 363.52,-745.35 638.66,-729.8 734.69,-722.69"/>
<polygon fill="#9a32cd" stroke="#9a32cd" points="78.67,-271.18 73.76,-261.8 71.74,-272.2 78.67,-271.18"/>
</a>
</g>
<text text-anchor="middle" x="387" y="-744" font-family="Helvetica,sans-Serif" font-size="10.00" fill="grey"> hyperVolume</text>
<text text-anchor="middle" x="387" y="-733" font-family="Helvetica,sans-Serif" font-size="10.00" fill="grey">size</text>
</g>
<!-- Node12&#45;&gt;Node11 -->
<g id="edge12_Node000011_Node000012" class="edge">
<title>Node12&#45;&gt;Node11</title>
<g id="a_edge12_Node000011_Node000012"><a xlink:title=" ">
<path fill="none" stroke="#9a32cd" stroke-dasharray="5,2" d="M125,-252C191.24,-252 302.9,-252 356.09,-252"/>
<polygon fill="#9a32cd" stroke="#9a32cd" points="124.78,-248.5 114.78,-252 124.78,-255.5 124.78,-248.5"/>
</a>
</g>
<text text-anchor="middle" x="217" y="-255" font-family="Helvetica,sans-Serif" font-size="10.00" fill="grey"> value</text>
</g>
<!-- Node24 -->
<g id="Node000024" class="node">
<title>Node24</title>
<g id="a_Node000024"><a xlink:href="classAnimalGrowth.html" target="_top" xlink:title="Manages the growth and mass dynamics of an individual animal.">
<polygon fill="white" stroke="#666666" points="1110,-321.5 1024,-321.5 1024,-302.5 1110,-302.5 1110,-321.5"/>
<text text-anchor="middle" x="1067" y="-309.5" font-family="Helvetica,sans-Serif" font-size="10.00">AnimalGrowth</text>
</a>
</g>
</g>
<!-- Node12&#45;&gt;Node24 -->
<g id="edge43_Node000024_Node000012" class="edge">
<title>Node12&#45;&gt;Node24</title>
<g id="a_edge43_Node000024_Node000012"><a xlink:title=" ">
<path fill="none" stroke="#9a32cd" stroke-dasharray="5,2" d="M124.86,-261.93C136.71,-263.88 149.26,-265.72 161,-267 492.14,-303.17 894.65,-310.29 1023.91,-311.67"/>
<polygon fill="#9a32cd" stroke="#9a32cd" points="125.12,-258.42 114.67,-260.19 123.94,-265.32 125.12,-258.42"/>
</a>
</g>
<text text-anchor="middle" x="582.5" y="-306" font-family="Helvetica,sans-Serif" font-size="10.00" fill="grey"> baseDevTimeProportion</text>
</g>
<!-- Node29 -->
<g id="Node000029" class="node">
<title>Node29</title>
<g id="a_Node000029"><a xlink:href="classDryMass.html" target="_top" xlink:title="Represents dry mass in the ecosystem simulation.">
<polygon fill="white" stroke="#666666" points="416.5,-143.5 357.5,-143.5 357.5,-124.5 416.5,-124.5 416.5,-143.5"/>
<text text-anchor="middle" x="387" y="-131.5" font-family="Helvetica,sans-Serif" font-size="10.00">DryMass</text>
</a>
</g>
</g>
<!-- Node12&#45;&gt;Node29 -->
<g id="edge34_Node000029_Node000012" class="edge">
<title>Node12&#45;&gt;Node29</title>
<g id="a_edge34_Node000029_Node000012"><a xlink:title=" ">
<path fill="none" stroke="#9a32cd" stroke-dasharray="5,2" d="M88.53,-235.16C105.11,-218.78 132.53,-194.44 161,-181 226.86,-149.91 313.17,-139.26 357.3,-135.71"/>
<polygon fill="#9a32cd" stroke="#9a32cd" points="85.83,-232.91 81.3,-242.49 90.82,-237.83 85.83,-232.91"/>
</a>
</g>
<text text-anchor="middle" x="217" y="-184" font-family="Helvetica,sans-Serif" font-size="10.00" fill="grey"> value</text>
</g>
<!-- Node34 -->
<g id="Node000034" class="node">
<title>Node34</title>
<g id="a_Node000034"><a xlink:href="classLength.html" target="_top" xlink:title="Represents length in the ecosystem simulation.">
<polygon fill="white" stroke="#666666" points="607.5,-224.5 557.5,-224.5 557.5,-205.5 607.5,-205.5 607.5,-224.5"/>
<text text-anchor="middle" x="582.5" y="-212.5" font-family="Helvetica,sans-Serif" font-size="10.00">Length</text>
</a>
</g>
</g>
<!-- Node12&#45;&gt;Node34 -->
<g id="edge42_Node000034_Node000012" class="edge">
<title>Node12&#45;&gt;Node34</title>
<g id="a_edge42_Node000034_Node000012"><a xlink:title=" ">
<path fill="none" stroke="#9a32cd" stroke-dasharray="5,2" d="M124.87,-242.1C136.71,-240.14 149.26,-238.3 161,-237 311.04,-220.42 492.63,-216.27 557.24,-215.29"/>
<polygon fill="#9a32cd" stroke="#9a32cd" points="123.95,-238.7 114.68,-243.83 125.12,-245.6 123.95,-238.7"/>
</a>
</g>
<text text-anchor="middle" x="217" y="-240" font-family="Helvetica,sans-Serif" font-size="10.00" fill="grey"> value</text>
</g>
<!-- Node13&#45;&gt;Node8 -->
<g id="edge13_Node000008_Node000013" class="edge">
<title>Node13&#45;&gt;Node8</title>
<g id="a_edge13_Node000008_Node000013"><a xlink:title=" ">
<path fill="none" stroke="#9a32cd" stroke-dasharray="5,2" d="M840.43,-645.51C851.66,-645.31 863.15,-645.13 874,-645 924.33,-644.39 982.09,-644.15 1021,-644.06"/>
<polygon fill="#9a32cd" stroke="#9a32cd" points="840.15,-642.02 830.22,-645.7 840.28,-649.02 840.15,-642.02"/>
</a>
</g>
<text text-anchor="middle" x="938.5" y="-648" font-family="Helvetica,sans-Serif" font-size="10.00" fill="grey"> cellObstacle</text>
</g>
<!-- Node14&#45;&gt;Node8 -->
<g id="edge15_Node000008_Node000014" class="edge">
<title>Node14&#45;&gt;Node8</title>
<g id="a_edge15_Node000008_Node000014"><a xlink:title=" ">
<path fill="none" stroke="#9a32cd" stroke-dasharray="5,2" d="M855.76,-613.86C899.94,-616.64 954.56,-621.31 1003,-629 1011.88,-630.41 1021.37,-632.41 1030.21,-634.48"/>
<polygon fill="#9a32cd" stroke="#9a32cd" points="855.83,-610.36 845.64,-613.25 855.41,-617.35 855.83,-610.36"/>
</a>
</g>
<text text-anchor="middle" x="938.5" y="-632" font-family="Helvetica,sans-Serif" font-size="10.00" fill="grey"> cellHabitatDomain</text>
</g>
<!-- Node15 -->
<g id="Node000015" class="node">
<title>Node15</title>
<g id="a_Node000015"><a xlink:href="classCustomIndexedVector.html" target="_top" xlink:title=" ">
<polygon fill="white" stroke="#666666" points="483,-650.5 291,-650.5 291,-609.5 483,-609.5 483,-650.5"/>
<text text-anchor="start" x="299" y="-638.5" font-family="Helvetica,sans-Serif" font-size="10.00">CustomIndexedVector</text>
<text text-anchor="start" x="299" y="-627.5" font-family="Helvetica,sans-Serif" font-size="10.00">&lt; AnimalSpeciesID, CustomIndexed</text>
<text text-anchor="middle" x="387" y="-616.5" font-family="Helvetica,sans-Serif" font-size="10.00">Vector&lt; Instar, bool &gt; &gt;</text>
</a>
</g>
</g>
<!-- Node15&#45;&gt;Node14 -->
<g id="edge17_Node000014_Node000015" class="edge">
<title>Node15&#45;&gt;Node14</title>
<g id="a_edge17_Node000014_Node000015"><a xlink:title=" ">
<path fill="none" stroke="#9a32cd" stroke-dasharray="5,2" d="M493.39,-624.45C556.53,-621.13 635.33,-616.98 692.3,-613.98"/>
<polygon fill="#9a32cd" stroke="#9a32cd" points="493.2,-620.96 483.4,-624.98 493.57,-627.95 493.2,-620.96"/>
</a>
</g>
<text text-anchor="middle" x="582.5" y="-626" font-family="Helvetica,sans-Serif" font-size="10.00" fill="grey"> habitatDomainStatus</text>
</g>
<!-- Node16 -->
<g id="Node000016" class="node">
<title>Node16</title>
<g id="a_Node000016"><a xlink:href="classPointMap.html" target="_top" xlink:title="Represents a point in a discrete map coordinate system.">
<polygon fill="white" stroke="#666666" points="418,-687.5 356,-687.5 356,-668.5 418,-668.5 418,-687.5"/>
<text text-anchor="middle" x="387" y="-675.5" font-family="Helvetica,sans-Serif" font-size="10.00">PointMap</text>
</a>
</g>
</g>
<!-- Node16&#45;&gt;Node7 -->
<g id="edge18_Node000007_Node000016" class="edge">
<title>Node16&#45;&gt;Node7</title>
<g id="a_edge18_Node000007_Node000016"><a xlink:title=" ">
<path fill="none" stroke="#9a32cd" stroke-dasharray="5,2" d="M428.53,-679.52C482.49,-681.9 580.77,-687.48 664,-699 687.9,-702.31 714.57,-707.73 734.92,-712.24"/>
<polygon fill="#9a32cd" stroke="#9a32cd" points="428.49,-676.01 418.35,-679.08 428.19,-683.01 428.49,-676.01"/>
</a>
</g>
<text text-anchor="middle" x="582.5" y="-702" font-family="Helvetica,sans-Serif" font-size="10.00" fill="grey"> position</text>
</g>
<!-- Node17 -->
<g id="Node000017" class="node">
<title>Node17</title>
<g id="a_Node000017"><a xlink:href="classCustomIndexedVector.html" target="_top" xlink:title="A vector container indexed by a custom type with bounds checking.">
<polygon fill="white" stroke="#666666" points="464.5,-794 309.5,-794 309.5,-764 464.5,-764 464.5,-794"/>
<text text-anchor="start" x="317.5" y="-782" font-family="Helvetica,sans-Serif" font-size="10.00">CustomIndexedVector</text>
<text text-anchor="middle" x="387" y="-771" font-family="Helvetica,sans-Serif" font-size="10.00">&lt; IndexType, ContentType &gt;</text>
</a>
</g>
</g>
<!-- Node17&#45;&gt;Node7 -->
<g id="edge20_Node000007_Node000017" class="edge">
<title>Node17&#45;&gt;Node7</title>
<g id="a_edge20_Node000007_Node000017"><a xlink:title=" ">
<path fill="none" stroke="#9a32cd" stroke-dasharray="5,2" d="M474.48,-766.7C528.92,-758.82 600.63,-748.19 664,-738 687.7,-734.19 714.38,-729.57 734.78,-725.96"/>
<polygon fill="#9a32cd" stroke="#9a32cd" points="473.91,-763.24 464.52,-768.13 474.92,-770.17 473.91,-763.24"/>
</a>
</g>
<text text-anchor="middle" x="582.5" y="-764" font-family="Helvetica,sans-Serif" font-size="10.00" fill="grey"> animals</text>
</g>
<!-- Node18 -->
<g id="Node000018" class="node">
<title>Node18</title>
<g id="a_Node000018"><a xlink:href="classGenetics.html" target="_top" xlink:title="Represents the genetic information and traits of an individual.">
<polygon fill="white" stroke="#666666" points="1096.5,-833.5 1037.5,-833.5 1037.5,-814.5 1096.5,-814.5 1096.5,-833.5"/>
<text text-anchor="middle" x="1067" y="-821.5" font-family="Helvetica,sans-Serif" font-size="10.00">Genetics</text>
</a>
</g>
</g>
<!-- Node18&#45;&gt;Node2 -->
<g id="edge21_Node000002_Node000018" class="edge">
<title>Node18&#45;&gt;Node2</title>
<g id="a_edge21_Node000002_Node000018"><a xlink:title=" ">
<path fill="none" stroke="#9a32cd" stroke-dasharray="5,2" d="M1080,-806.04C1116.66,-751.2 1226.33,-587.12 1254.07,-545.62"/>
<polygon fill="#9a32cd" stroke="#9a32cd" points="1077.05,-804.16 1074.4,-814.42 1082.87,-808.05 1077.05,-804.16"/>
</a>
</g>
<text text-anchor="middle" x="1153.5" y="-725" font-family="Helvetica,sans-Serif" font-size="10.00" fill="grey"> genetics</text>
</g>
<!-- Node19 -->
<g id="Node000019" class="node">
<title>Node19</title>
<g id="a_Node000019"><a xlink:href="classAnimalSpeciesGenetics.html" target="_top" xlink:title="Manages the genetic architecture of an animal species.">
<polygon fill="white" stroke="#666666" points="834.5,-806.5 703.5,-806.5 703.5,-787.5 834.5,-787.5 834.5,-806.5"/>
<text text-anchor="middle" x="769" y="-794.5" font-family="Helvetica,sans-Serif" font-size="10.00">AnimalSpeciesGenetics</text>
</a>
</g>
</g>
<!-- Node19&#45;&gt;Node18 -->
<g id="edge22_Node000018_Node000019" class="edge">
<title>Node19&#45;&gt;Node18</title>
<g id="a_edge22_Node000018_Node000019"><a xlink:title=" ">
<path fill="none" stroke="#9a32cd" stroke-dasharray="5,2" d="M845.09,-800.16C890.84,-802.59 950.42,-806.62 1003,-813 1014.24,-814.36 1026.53,-816.39 1037.24,-818.33"/>
<polygon fill="#9a32cd" stroke="#9a32cd" points="845.12,-796.66 834.95,-799.64 844.76,-803.65 845.12,-796.66"/>
</a>
</g>
<text text-anchor="middle" x="938.5" y="-816" font-family="Helvetica,sans-Serif" font-size="10.00" fill="grey"> speciesGenetics</text>
</g>
<!-- Node20 -->
<g id="Node000020" class="node">
<title>Node20</title>
<g id="a_Node000020"><a xlink:href="classCustomIndexedVector.html" target="_top" xlink:title=" ">
<polygon fill="white" stroke="#666666" points="454,-853.5 320,-853.5 320,-812.5 454,-812.5 454,-853.5"/>
<text text-anchor="start" x="328" y="-841.5" font-family="Helvetica,sans-Serif" font-size="10.00">CustomIndexedVector</text>
<text text-anchor="start" x="328" y="-830.5" font-family="Helvetica,sans-Serif" font-size="10.00">&lt; Trait::ExecutionOrder,</text>
<text text-anchor="middle" x="387" y="-819.5" font-family="Helvetica,sans-Serif" font-size="10.00"> std::vector&lt; Trait * &gt; &gt;</text>
</a>
</g>
</g>
<!-- Node20&#45;&gt;Node19 -->
<g id="edge23_Node000019_Node000020" class="edge">
<title>Node20&#45;&gt;Node19</title>
<g id="a_edge23_Node000019_Node000020"><a xlink:title=" ">
<path fill="none" stroke="#9a32cd" stroke-dasharray="5,2" d="M464.28,-825.77C534.34,-819.14 637.03,-809.41 703.2,-803.14"/>
<polygon fill="#9a32cd" stroke="#9a32cd" points="463.82,-822.3 454.19,-826.73 464.48,-829.27 463.82,-822.3"/>
</a>
</g>
<text text-anchor="middle" x="582.5" y="-824" font-family="Helvetica,sans-Serif" font-size="10.00" fill="grey"> allTraits</text>
</g>
<!-- Node21 -->
<g id="Node000021" class="node">
<title>Node21</title>
<g id="a_Node000021"><a xlink:href="classGenome.html" target="_top" xlink:title="Represents a genome with homologous chromosomes and correlosomes.">
<polygon fill="white" stroke="#666666" points="798,-902.5 740,-902.5 740,-883.5 798,-883.5 798,-902.5"/>
<text text-anchor="middle" x="769" y="-890.5" font-family="Helvetica,sans-Serif" font-size="10.00">Genome</text>
</a>
</g>
</g>
<!-- Node21&#45;&gt;Node18 -->
<g id="edge24_Node000018_Node000021" class="edge">
<title>Node21&#45;&gt;Node18</title>
<g id="a_edge24_Node000018_Node000021"><a xlink:title=" ">
<path fill="none" stroke="#9a32cd" stroke-dasharray="5,2" d="M808.12,-889.18C854.81,-883.85 935.98,-872.45 1003,-852 1018.57,-847.25 1035.38,-839.64 1047.71,-833.56"/>
<polygon fill="#9a32cd" stroke="#9a32cd" points="807.69,-885.71 798.13,-890.29 808.46,-892.67 807.69,-885.71"/>
</a>
</g>
<text text-anchor="middle" x="938.5" y="-882" font-family="Helvetica,sans-Serif" font-size="10.00" fill="grey"> genome</text>
</g>
<!-- Node22 -->
<g id="Node000022" class="node">
<title>Node22</title>
<g id="a_Node000022"><a xlink:href="classCustomIndexedVector.html" target="_top" xlink:title=" ">
<polygon fill="white" stroke="#666666" points="856,-865.5 682,-865.5 682,-824.5 856,-824.5 856,-865.5"/>
<text text-anchor="start" x="690" y="-853.5" font-family="Helvetica,sans-Serif" font-size="10.00">CustomIndexedVector</text>
<text text-anchor="start" x="690" y="-842.5" font-family="Helvetica,sans-Serif" font-size="10.00">&lt; Trait::ExecutionOrder,</text>
<text text-anchor="middle" x="769" y="-831.5" font-family="Helvetica,sans-Serif" font-size="10.00"> std::vector&lt; IndividualTrait &gt; &gt;</text>
</a>
</g>
</g>
<!-- Node22&#45;&gt;Node18 -->
<g id="edge25_Node000018_Node000022" class="edge">
<title>Node22&#45;&gt;Node18</title>
<g id="a_edge25_Node000018_Node000022"><a xlink:title=" ">
<path fill="none" stroke="#9a32cd" stroke-dasharray="5,2" d="M866.21,-838.17C925.78,-833.95 998.14,-828.81 1037.37,-826.03"/>
<polygon fill="#9a32cd" stroke="#9a32cd" points="865.74,-834.7 856.01,-838.9 866.24,-841.68 865.74,-834.7"/>
</a>
</g>
<text text-anchor="middle" x="938.5" y="-840" font-family="Helvetica,sans-Serif" font-size="10.00" fill="grey"> allIndividualTraits</text>
</g>
<!-- Node23 -->
<g id="Node000023" class="node">
<title>Node23</title>
<g id="a_Node000023"><a xlink:href="classAnimalStatisticalGrowth.html" target="_top" xlink:title="Represents an animal growth model based on statistical approaches.">
<polygon fill="white" stroke="#666666" points="1329,-467.5 1194,-467.5 1194,-448.5 1329,-448.5 1329,-467.5"/>
<text text-anchor="middle" x="1261.5" y="-455.5" font-family="Helvetica,sans-Serif" font-size="10.00">AnimalStatisticalGrowth</text>
</a>
</g>
</g>
<!-- Node23&#45;&gt;Node1 -->
<g id="edge26_Node000001_Node000023" class="edge">
<title>Node23&#45;&gt;Node1</title>
<g id="a_edge26_Node000001_Node000023"><a xlink:title=" ">
<path fill="none" stroke="#9a32cd" stroke-dasharray="5,2" d="M1339.71,-460.19C1373.86,-461.54 1414.48,-463.68 1451,-467 1456.73,-467.52 1462.72,-468.17 1468.66,-468.88"/>
<polygon fill="#9a32cd" stroke="#9a32cd" points="1339.46,-456.68 1329.33,-459.79 1339.19,-463.67 1339.46,-456.68"/>
</a>
</g>
<text text-anchor="middle" x="1399" y="-470" font-family="Helvetica,sans-Serif" font-size="10.00" fill="grey"> growthBuildingBlock</text>
</g>
<!-- Node24&#45;&gt;Node23 -->
<g id="edge27_Node000023_Node000024" class="edge">
<title>Node24&#45;&gt;Node23</title>
<g id="a_edge27_Node000023_Node000024"><a xlink:title=" ">
<path fill="none" stroke="#63b8ff" d="M1088.6,-327.62C1128.4,-357.81 1214.82,-423.36 1247.57,-448.19"/>
<polygon fill="#63b8ff" stroke="#63b8ff" points="1090.71,-324.83 1080.63,-321.58 1086.48,-330.41 1090.71,-324.83"/>
</a>
</g>
</g>
<!-- Node25&#45;&gt;Node24 -->
<g id="edge28_Node000024_Node000025" class="edge">
<title>Node25&#45;&gt;Node24</title>
<g id="a_edge28_Node000024_Node000025"><a xlink:title=" ">
<path fill="none" stroke="#63b8ff" d="M820,-80.69C871.74,-76.06 952,-77.46 1003,-120 1060.66,-168.08 1065.94,-269.95 1066.12,-302.07"/>
<polygon fill="#63b8ff" stroke="#63b8ff" points="819.65,-77.21 810.05,-81.69 820.35,-84.18 819.65,-77.21"/>
</a>
</g>
</g>
<!-- Node26 -->
<g id="Node000026" class="node">
<title>Node26</title>
<g id="a_Node000026"><a xlink:href="classInstar.html" target="_top" xlink:title="Represents a developmental stage (instar) of an animal in the simulation.">
<polygon fill="white" stroke="#666666" points="93.5,-76.5 49.5,-76.5 49.5,-57.5 93.5,-57.5 93.5,-76.5"/>
<text text-anchor="middle" x="71.5" y="-64.5" font-family="Helvetica,sans-Serif" font-size="10.00">Instar</text>
</a>
</g>
</g>
<!-- Node26&#45;&gt;Node25 -->
<g id="edge29_Node000025_Node000026" class="edge">
<title>Node26&#45;&gt;Node25</title>
<g id="a_edge29_Node000025_Node000026"><a xlink:title=" ">
<path fill="none" stroke="#9a32cd" stroke-dasharray="5,2" d="M103.73,-67.94C216.39,-71.34 601.88,-82.98 727.83,-86.79"/>
<polygon fill="#9a32cd" stroke="#9a32cd" points="103.8,-64.44 93.69,-67.64 103.58,-71.44 103.8,-64.44"/>
</a>
</g>
<text text-anchor="middle" x="387" y="-83" font-family="Helvetica,sans-Serif" font-size="10.00" fill="grey"> instar</text>
</g>
<!-- Node27 -->
<g id="Node000027" class="node">
<title>Node27</title>
<g id="a_Node000027"><a xlink:href="classSpeciesGrowth.html" target="_top" xlink:title="Represents the growth characteristics of a species across its instars.">
<polygon fill="white" stroke="#666666" points="431.5,-38.5 342.5,-38.5 342.5,-19.5 431.5,-19.5 431.5,-38.5"/>
<text text-anchor="middle" x="387" y="-26.5" font-family="Helvetica,sans-Serif" font-size="10.00">SpeciesGrowth</text>
</a>
</g>
</g>
<!-- Node26&#45;&gt;Node27 -->
<g id="edge31_Node000027_Node000026" class="edge">
<title>Node26&#45;&gt;Node27</title>
<g id="a_edge31_Node000027_Node000026"><a xlink:title=" ">
<path fill="none" stroke="#9a32cd" stroke-dasharray="5,2" d="M103.41,-60.3C120.35,-56.82 141.76,-52.74 161,-50 223.73,-41.07 296.86,-35.05 342.3,-31.82"/>
<polygon fill="#9a32cd" stroke="#9a32cd" points="102.58,-56.9 93.5,-62.37 104.01,-63.75 102.58,-56.9"/>
</a>
</g>
<text text-anchor="middle" x="217" y="-53" font-family="Helvetica,sans-Serif" font-size="10.00" fill="grey"> lastInstar</text>
</g>
<!-- Node27&#45;&gt;Node25 -->
<g id="edge30_Node000025_Node000027" class="edge">
<title>Node27&#45;&gt;Node25</title>
<g id="a_edge30_Node000025_Node000027"><a xlink:title=" ">
<path fill="none" stroke="#9a32cd" stroke-dasharray="5,2" d="M441.61,-28.76C497.69,-29.5 587.95,-33.54 664,-50 693.69,-56.42 726.34,-69.39 747,-78.38"/>
<polygon fill="#9a32cd" stroke="#9a32cd" points="441.59,-25.26 431.55,-28.65 441.52,-32.25 441.59,-25.26"/>
</a>
</g>
<text text-anchor="middle" x="582.5" y="-53" font-family="Helvetica,sans-Serif" font-size="10.00" fill="grey"> speciesGrowth</text>
</g>
<!-- Node28 -->
<g id="Node000028" class="node">
<title>Node28</title>
<g id="a_Node000028"><a xlink:href="classCustomIndexedVector.html" target="_top" xlink:title=" ">
<polygon fill="white" stroke="#666666" points="143,-30 0,-30 0,0 143,0 143,-30"/>
<text text-anchor="start" x="8" y="-18" font-family="Helvetica,sans-Serif" font-size="10.00">CustomIndexedVector</text>
<text text-anchor="middle" x="71.5" y="-7" font-family="Helvetica,sans-Serif" font-size="10.00">&lt; Instar, PreciseDouble &gt;</text>
</a>
</g>
</g>
<!-- Node28&#45;&gt;Node27 -->
<g id="edge32_Node000027_Node000028" class="edge">
<title>Node28&#45;&gt;Node27</title>
<g id="a_edge32_Node000027_Node000028"><a xlink:title=" ">
<path fill="none" stroke="#9a32cd" stroke-dasharray="5,2" d="M153.2,-13.39C189.8,-13.18 233.62,-13.64 273,-16 295.96,-17.37 321.43,-20.19 342.36,-22.85"/>
<polygon fill="#9a32cd" stroke="#9a32cd" points="153.05,-9.89 143.08,-13.47 153.11,-16.89 153.05,-9.89"/>
</a>
</g>
<text text-anchor="middle" x="217" y="-19" font-family="Helvetica,sans-Serif" font-size="10.00" fill="grey"> conversionToWetMass</text>
</g>
<!-- Node29&#45;&gt;Node24 -->
<g id="edge40_Node000024_Node000029" class="edge">
<title>Node29&#45;&gt;Node24</title>
<g id="a_edge40_Node000024_Node000029"><a xlink:title=" ">
<path fill="none" stroke="#9a32cd" stroke-dasharray="5,2" d="M426.94,-130.97C507.64,-125.53 698.71,-116.92 856,-143 923.67,-154.22 950.62,-145.72 1003,-190 1039.96,-221.24 1057.92,-279.65 1063.77,-302.49"/>
<polygon fill="#9a32cd" stroke="#9a32cd" points="426.49,-127.5 416.75,-131.68 426.97,-134.48 426.49,-127.5"/>
</a>
</g>
<text text-anchor="middle" x="769" y="-168" font-family="Helvetica,sans-Serif" font-size="10.00" fill="grey"> currentBodySize</text>
<text text-anchor="middle" x="769" y="-157" font-family="Helvetica,sans-Serif" font-size="10.00" fill="grey">currentEnergyTank</text>
<text text-anchor="middle" x="769" y="-146" font-family="Helvetica,sans-Serif" font-size="10.00" fill="grey">eggDryMassAtBirth</text>
</g>
<!-- Node29&#45;&gt;Node25 -->
<g id="edge33_Node000025_Node000029" class="edge">
<title>Node29&#45;&gt;Node25</title>
<g id="a_edge33_Node000025_Node000029"><a xlink:title=" ">
<path fill="none" stroke="#9a32cd" stroke-dasharray="5,2" d="M426.43,-124.1C448.18,-118.85 475.95,-112.74 501,-109 581.02,-97.06 675.61,-91.65 728,-89.41"/>
<polygon fill="#9a32cd" stroke="#9a32cd" points="425.47,-120.74 416.59,-126.52 427.14,-127.53 425.47,-120.74"/>
</a>
</g>
<text text-anchor="middle" x="582.5" y="-112" font-family="Helvetica,sans-Serif" font-size="10.00" fill="grey"> currentTotalDryMass</text>
</g>
<!-- Node30 -->
<g id="Node000030" class="node">
<title>Node30</title>
<g id="a_Node000030"><a xlink:href="classCustomIndexedVector.html" target="_top" xlink:title=" ">
<polygon fill="white" stroke="#666666" points="830.5,-348 707.5,-348 707.5,-318 830.5,-318 830.5,-348"/>
<text text-anchor="start" x="715.5" y="-336" font-family="Helvetica,sans-Serif" font-size="10.00">CustomIndexedVector</text>
<text text-anchor="middle" x="769" y="-325" font-family="Helvetica,sans-Serif" font-size="10.00">&lt; Instar, TimeStep &gt;</text>
</a>
</g>
</g>
<!-- Node30&#45;&gt;Node24 -->
<g id="edge36_Node000024_Node000030" class="edge">
<title>Node30&#45;&gt;Node24</title>
<g id="a_edge36_Node000024_Node000030"><a xlink:title=" ">
<path fill="none" stroke="#9a32cd" stroke-dasharray="5,2" d="M840.64,-327.99C897.63,-323.95 975.92,-318.39 1023.62,-315.01"/>
<polygon fill="#9a32cd" stroke="#9a32cd" points="840.34,-324.5 830.61,-328.7 840.84,-331.48 840.34,-324.5"/>
</a>
</g>
<text text-anchor="middle" x="938.5" y="-329" font-family="Helvetica,sans-Serif" font-size="10.00" fill="grey"> individualInstarAgeVector</text>
</g>
<!-- Node31 -->
<g id="Node000031" class="node">
<title>Node31</title>
<g id="a_Node000031"><a xlink:href="classCustomIndexedVector.html" target="_top" xlink:title=" ">
<polygon fill="white" stroke="#666666" points="830.5,-215 707.5,-215 707.5,-185 830.5,-185 830.5,-215"/>
<text text-anchor="start" x="715.5" y="-203" font-family="Helvetica,sans-Serif" font-size="10.00">CustomIndexedVector</text>
<text text-anchor="middle" x="769" y="-192" font-family="Helvetica,sans-Serif" font-size="10.00">&lt; Instar, Length &gt;</text>
</a>
</g>
</g>
<!-- Node31&#45;&gt;Node24 -->
<g id="edge37_Node000024_Node000031" class="edge">
<title>Node31&#45;&gt;Node24</title>
<g id="a_edge37_Node000024_Node000031"><a xlink:title=" ">
<path fill="none" stroke="#9a32cd" stroke-dasharray="5,2" d="M840.73,-193.57C889.46,-192.41 954,-197.63 1003,-226 1034.07,-243.99 1054.23,-284.1 1062.17,-302.48"/>
<polygon fill="#9a32cd" stroke="#9a32cd" points="840.46,-190.07 830.58,-193.9 840.69,-197.07 840.46,-190.07"/>
</a>
</g>
<text text-anchor="middle" x="938.5" y="-229" font-family="Helvetica,sans-Serif" font-size="10.00" fill="grey"> instarLengthsVector</text>
</g>
<!-- Node32 -->
<g id="Node000032" class="node">
<title>Node32</title>
<g id="a_Node000032"><a xlink:href="classCustomIndexedVector.html" target="_top" xlink:title=" ">
<polygon fill="white" stroke="#666666" points="830.5,-471 707.5,-471 707.5,-441 830.5,-441 830.5,-471"/>
<text text-anchor="start" x="715.5" y="-459" font-family="Helvetica,sans-Serif" font-size="10.00">CustomIndexedVector</text>
<text text-anchor="middle" x="769" y="-448" font-family="Helvetica,sans-Serif" font-size="10.00">&lt; Instar, DryMass &gt;</text>
</a>
</g>
</g>
<!-- Node32&#45;&gt;Node24 -->
<g id="edge38_Node000024_Node000032" class="edge">
<title>Node32&#45;&gt;Node24</title>
<g id="a_edge38_Node000024_Node000032"><a xlink:title=" ">
<path fill="none" stroke="#9a32cd" stroke-dasharray="5,2" d="M840.51,-464.08C890.03,-466.12 955.63,-461.14 1003,-429 1041.75,-402.71 1058.66,-344.54 1064,-321.59"/>
<polygon fill="#9a32cd" stroke="#9a32cd" points="840.68,-460.59 830.51,-463.57 840.32,-467.58 840.68,-460.59"/>
</a>
</g>
<text text-anchor="middle" x="938.5" y="-467" font-family="Helvetica,sans-Serif" font-size="10.00" fill="grey"> instarMassesVector</text>
</g>
<!-- Node33 -->
<g id="Node000033" class="node">
<title>Node33</title>
<g id="a_Node000033"><a xlink:href="classIndividualGrowthModel.html" target="_top" xlink:title="Abstract base class for representing an individual animal growth model.">
<polygon fill="white" stroke="#666666" points="834,-422.5 704,-422.5 704,-403.5 834,-403.5 834,-422.5"/>
<text text-anchor="middle" x="769" y="-410.5" font-family="Helvetica,sans-Serif" font-size="10.00">IndividualGrowthModel</text>
</a>
</g>
</g>
<!-- Node33&#45;&gt;Node24 -->
<g id="edge39_Node000024_Node000033" class="edge">
<title>Node33&#45;&gt;Node24</title>
<g id="a_edge39_Node000024_Node000033"><a xlink:title=" ">
<path fill="none" stroke="#9a32cd" stroke-dasharray="5,2" d="M844.45,-415.98C892.27,-414.89 954.32,-407.66 1003,-382 1029.9,-367.82 1050.97,-337.29 1060.48,-321.66"/>
<polygon fill="#9a32cd" stroke="#9a32cd" points="844.11,-412.49 834.16,-416.13 844.21,-419.49 844.11,-412.49"/>
</a>
</g>
<text text-anchor="middle" x="938.5" y="-417" font-family="Helvetica,sans-Serif" font-size="10.00" fill="grey"> individualGrowthModel</text>
</g>
<!-- Node34&#45;&gt;Node24 -->
<g id="edge41_Node000024_Node000034" class="edge">
<title>Node34&#45;&gt;Node24</title>
<g id="a_edge41_Node000024_Node000034"><a xlink:title=" ">
<path fill="none" stroke="#9a32cd" stroke-dasharray="5,2" d="M617.77,-218.32C704.63,-226.99 931.53,-251.38 1003,-276 1021.34,-282.32 1040.41,-294.06 1052.7,-302.42"/>
<polygon fill="#9a32cd" stroke="#9a32cd" points="617.95,-214.82 607.66,-217.32 617.26,-221.78 617.95,-214.82"/>
</a>
</g>
<text text-anchor="middle" x="769" y="-249" font-family="Helvetica,sans-Serif" font-size="10.00" fill="grey"> lengthAtBirth</text>
</g>
<!-- Node35 -->
<g id="Node000035" class="node">
<title>Node35</title>
<g id="a_Node000035"><a xlink:href="classTimeStep.html" target="_top" xlink:title="Represents a discrete time step in the simulation.">
<polygon fill="white" stroke="#666666" points="800.5,-385.5 737.5,-385.5 737.5,-366.5 800.5,-366.5 800.5,-385.5"/>
<text text-anchor="middle" x="769" y="-373.5" font-family="Helvetica,sans-Serif" font-size="10.00">TimeStep</text>
</a>
</g>
</g>
<!-- Node35&#45;&gt;Node24 -->
<g id="edge44_Node000024_Node000035" class="edge">
<title>Node35&#45;&gt;Node24</title>
<g id="a_edge44_Node000024_Node000035"><a xlink:title=" ">
<path fill="none" stroke="#9a32cd" stroke-dasharray="5,2" d="M810.88,-373.36C858.01,-369.52 937.41,-360.59 1003,-341 1019.04,-336.21 1036.23,-328.07 1048.6,-321.63"/>
<polygon fill="#9a32cd" stroke="#9a32cd" points="810.46,-369.89 800.76,-374.15 811,-376.86 810.46,-369.89"/>
</a>
</g>
<text text-anchor="middle" x="938.5" y="-370" font-family="Helvetica,sans-Serif" font-size="10.00" fill="grey"> currentAge</text>
</g>
</g>
</svg>

<g id="navigator" transform="translate(0 0)" fill="#404254">
  <rect fill="#f2f5e9" fill-opacity="0.5" stroke="#606060" stroke-width=".5" x="0" y="0" width="60" height="60"/>
  <use id="zoomplus" xlink:href="#zoomPlus" x="17" y="9" onmousedown="handleZoom(evt,'in')"/>
  <use id="zoomminus" xlink:href="#zoomMin" x="42" y="9" onmousedown="handleZoom(evt,'out')"/>
  <use id="reset" xlink:href="#resetDef" x="30" y="36" onmousedown="handleReset()"/>
   <use id="arrowup" xlink:href="#arrowUp" x="0" y="0" onmousedown="handlePan(0,-1)"/>
  <use id="arrowright" xlink:href="#arrowRight" x="0" y="0" onmousedown="handlePan(1,0)"/>
  <use id="arrowdown" xlink:href="#arrowDown" x="0" y="0" onmousedown="handlePan(0,1)"/>
  <use id="arrowleft" xlink:href="#arrowLeft" x="0" y="0" onmousedown="handlePan(-1,0)"/>
</g>
<svg viewBox="0 0 15 15" width="100%" height="30px" preserveAspectRatio="xMaxYMin meet">
 <g id="arrow_out" transform="scale(0.3 0.3)">
  <a xlink:href="classAnimalStatistical__coll__graph_org.svg" target="_base">
   <rect id="button" ry="5" rx="5" y="6" x="6" height="38" width="38"
        fill="#f2f5e9" fill-opacity="0.5" stroke="#606060" stroke-width="1.0"/>
   <path id="arrow"
     d="M 11.500037,31.436501 C 11.940474,20.09759 22.043105,11.32322 32.158766,21.979434 L 37.068811,17.246167 C 37.068811,17.246167 37.088388,32 37.088388,32 L 22.160133,31.978069 C 22.160133,31.978069 26.997745,27.140456 26.997745,27.140456 C 18.528582,18.264221 13.291696,25.230495 11.500037,31.436501 z"
     style="fill:#404040;"/>
  </a>
 </g>
</svg>

<style type='text/css'>
<![CDATA[
[data-mouse-over-selected='false'] { opacity: 0.7; }
[data-mouse-over-selected='true']  { opacity: 1.0; }
]]>
</style>
<script type="application/ecmascript"><![CDATA[
document.addEventListener('DOMContentLoaded', (event) => {
  highlightEdges();
  highlightAdjacentNodes();
});
]]></script>
</svg>
