<?xml version="1.0" encoding="UTF-8" standalone="no"?>
<!DOCTYPE svg PUBLIC "-//W3C//DTD SVG 1.1//EN"
 "http://www.w3.org/Graphics/SVG/1.1/DTD/svg11.dtd">
<!-- Generated by graphviz version 2.43.0 (0)
 -->
<!-- Title: IsotropicGaussian3D Pages: 1 -->
<svg width="352pt" height="195pt"
 viewBox="0.00 0.00 351.50 195.00" xmlns="http://www.w3.org/2000/svg" xmlns:xlink="http://www.w3.org/1999/xlink">
<g id="graph0" class="graph" transform="scale(1 1) rotate(0) translate(4 191)">
<title>IsotropicGaussian3D</title>
<!-- Node1 -->
<g id="Node000001" class="node">
<title>Node1</title>
<g id="a_Node000001"><a xlink:title="Class for handling isotropic 3&#45;dimensional Gaussian distributions.">
<polygon fill="#999999" stroke="#666666" points="117,-19 0,-19 0,0 117,0 117,-19"/>
<text text-anchor="middle" x="58.5" y="-7" font-family="Helvetica,sans-Serif" font-size="10.00">IsotropicGaussian3D</text>
</a>
</g>
</g>
<!-- Node2 -->
<g id="Node000002" class="node">
<title>Node2</title>
<g id="a_Node000002"><a xlink:href="classPreciseDouble.html" target="_top" xlink:title="Class for precise double&#45;precision floating&#45;point arithmetic.">
<polygon fill="white" stroke="#666666" points="101.5,-187 15.5,-187 15.5,-168 101.5,-168 101.5,-187"/>
<text text-anchor="middle" x="58.5" y="-175" font-family="Helvetica,sans-Serif" font-size="10.00">PreciseDouble</text>
</a>
</g>
</g>
<!-- Node2&#45;&gt;Node1 -->
<g id="edge1_Node000001_Node000002" class="edge">
<title>Node2&#45;&gt;Node1</title>
<g id="a_edge1_Node000001_Node000002"><a xlink:title=" ">
<path fill="none" stroke="#9a32cd" stroke-dasharray="5,2" d="M55.9,-157.97C53.15,-136.02 49.47,-98.35 51.5,-66 52.55,-49.33 55.35,-30.01 57.07,-19.12"/>
<polygon fill="#9a32cd" stroke="#9a32cd" points="52.43,-158.45 57.22,-167.9 59.37,-157.53 52.43,-158.45"/>
</a>
</g>
<text text-anchor="middle" x="105" y="-91" font-family="Helvetica,sans-Serif" font-size="10.00" fill="grey"> amplitude</text>
<text text-anchor="middle" x="105" y="-80" font-family="Helvetica,sans-Serif" font-size="10.00" fill="grey">inverseSquaredSigma</text>
<text text-anchor="middle" x="105" y="-69" font-family="Helvetica,sans-Serif" font-size="10.00" fill="grey">sigma</text>
</g>
<!-- Node3 -->
<g id="Node000003" class="node">
<title>Node3</title>
<g id="a_Node000003"><a xlink:href="classCoordinate3D.html" target="_top" xlink:title=" ">
<polygon fill="white" stroke="#666666" points="343.5,-92 167.5,-92 167.5,-73 343.5,-73 343.5,-92"/>
<text text-anchor="middle" x="255.5" y="-80" font-family="Helvetica,sans-Serif" font-size="10.00">Coordinate3D&lt; PreciseDouble &gt;</text>
</a>
</g>
</g>
<!-- Node2&#45;&gt;Node3 -->
<g id="edge3_Node000003_Node000002" class="edge">
<title>Node2&#45;&gt;Node3</title>
<g id="a_edge3_Node000003_Node000002"><a xlink:title=" ">
<path fill="none" stroke="#9a32cd" stroke-dasharray="5,2" d="M85.79,-163.62C126.66,-144.32 202.65,-108.45 237.36,-92.06"/>
<polygon fill="#9a32cd" stroke="#9a32cd" points="84.23,-160.48 76.68,-167.92 87.22,-166.81 84.23,-160.48"/>
</a>
</g>
<text text-anchor="middle" x="184.5" y="-142" font-family="Helvetica,sans-Serif" font-size="10.00" fill="grey"> x</text>
<text text-anchor="middle" x="184.5" y="-131" font-family="Helvetica,sans-Serif" font-size="10.00" fill="grey">y</text>
<text text-anchor="middle" x="184.5" y="-120" font-family="Helvetica,sans-Serif" font-size="10.00" fill="grey">z</text>
</g>
<!-- Node3&#45;&gt;Node1 -->
<g id="edge2_Node000001_Node000003" class="edge">
<title>Node3&#45;&gt;Node1</title>
<g id="a_edge2_Node000001_Node000003"><a xlink:title=" ">
<path fill="none" stroke="#9a32cd" stroke-dasharray="5,2" d="M222.24,-69.51C182.59,-55.22 117.3,-31.69 82.35,-19.09"/>
<polygon fill="#9a32cd" stroke="#9a32cd" points="221.14,-72.84 231.74,-72.94 223.52,-66.25 221.14,-72.84"/>
</a>
</g>
<text text-anchor="middle" x="173.5" y="-40" font-family="Helvetica,sans-Serif" font-size="10.00" fill="grey"> center</text>
</g>
</g>
</svg>
