<?xml version="1.0" encoding="UTF-8" standalone="no"?>
<!DOCTYPE svg PUBLIC "-//W3C//DTD SVG 1.1//EN"
 "http://www.w3.org/Graphics/SVG/1.1/DTD/svg11.dtd">
<!-- Generated by graphviz version 2.43.0 (0)
 -->
<!-- Title: EnumClass::to_string Pages: 1 -->
<svg width="510pt" height="27pt"
 viewBox="0.00 0.00 510.00 27.00" xmlns="http://www.w3.org/2000/svg" xmlns:xlink="http://www.w3.org/1999/xlink">
<g id="graph0" class="graph" transform="scale(1 1) rotate(0) translate(4 23)">
<title>EnumClass::to_string</title>
<!-- Node1 -->
<g id="Node000001" class="node">
<title>Node1</title>
<g id="a_Node000001"><a xlink:title="Converts an enum value to its string representation.">
<polygon fill="#999999" stroke="#666666" points="502,-19 383,-19 383,0 502,0 502,-19"/>
<text text-anchor="middle" x="442.5" y="-7" font-family="Helvetica,sans-Serif" font-size="10.00">EnumClass::to_string</text>
</a>
</g>
</g>
<!-- Node2 -->
<g id="Node000002" class="node">
<title>Node2</title>
<g id="a_Node000002"><a xlink:href="classEnumClass.html#aa35e76515bc5d03e6088995795f8bdbe" target="_top" xlink:title="Generates a mapping from strings to enum values.">
<polygon fill="white" stroke="#666666" points="347,-19 206,-19 206,0 347,0 347,-19"/>
<text text-anchor="middle" x="276.5" y="-7" font-family="Helvetica,sans-Serif" font-size="10.00">EnumClass::generateMap</text>
</a>
</g>
</g>
<!-- Node1&#45;&gt;Node2 -->
<g id="edge1_Node000001_Node000002" class="edge">
<title>Node1&#45;&gt;Node2</title>
<g id="a_edge1_Node000001_Node000002"><a xlink:title=" ">
<path fill="none" stroke="#63b8ff" d="M372.57,-9.5C364.12,-9.5 355.48,-9.5 347.02,-9.5"/>
<polygon fill="#63b8ff" stroke="#63b8ff" points="372.76,-13 382.76,-9.5 372.76,-6 372.76,-13"/>
</a>
</g>
</g>
<!-- Node3 -->
<g id="Node000003" class="node">
<title>Node3</title>
<g id="a_Node000003"><a xlink:href="classEnumClass.html#a8ebeb0ef3fe0412ae2b472e91652346e" target="_top" xlink:title="Converts a string to its corresponding enum value.">
<polygon fill="white" stroke="#666666" points="170,-19 0,-19 0,0 170,0 170,-19"/>
<text text-anchor="middle" x="85" y="-7" font-family="Helvetica,sans-Serif" font-size="10.00">EnumClass::stringToEnumValue</text>
</a>
</g>
</g>
<!-- Node2&#45;&gt;Node3 -->
<g id="edge2_Node000002_Node000003" class="edge">
<title>Node2&#45;&gt;Node3</title>
<g id="a_edge2_Node000002_Node000003"><a xlink:title=" ">
<path fill="none" stroke="#63b8ff" d="M195.56,-9.5C187.13,-9.5 178.54,-9.5 170.07,-9.5"/>
<polygon fill="#63b8ff" stroke="#63b8ff" points="195.74,-13 205.74,-9.5 195.74,-6 195.74,-13"/>
</a>
</g>
</g>
</g>
</svg>
