<?xml version="1.0" encoding="UTF-8" standalone="no"?>
<!DOCTYPE svg PUBLIC "-//W3C//DTD SVG 1.1//EN"
 "http://www.w3.org/Graphics/SVG/1.1/DTD/svg11.dtd">
<!-- Generated by graphviz version 2.43.0 (0)
 -->
<!-- Title: /home/runner/work/Weaver/Weaver/include/App/Model/IBM/Maths/GaussianDistribution.h Pages: 1 -->
<svg width="1137pt" height="247pt"
 viewBox="0.00 0.00 1136.50 247.00" xmlns="http://www.w3.org/2000/svg" xmlns:xlink="http://www.w3.org/1999/xlink">
<g id="graph0" class="graph" transform="scale(1 1) rotate(0) translate(4 243)">
<title>/home/runner/work/Weaver/Weaver/include/App/Model/IBM/Maths/GaussianDistribution.h</title>
<!-- Node1 -->
<g id="Node000001" class="node">
<title>Node1</title>
<g id="a_Node000001"><a xlink:title="Classes for handling 1D and 3D Gaussian distributions (isotropic and anisotropic) with optional preco...">
<polygon fill="#999999" stroke="#666666" points="471.5,-239 286.5,-239 286.5,-198 471.5,-198 471.5,-239"/>
<text text-anchor="start" x="294.5" y="-227" font-family="Helvetica,sans-Serif" font-size="10.00">/home/runner/work/Weaver</text>
<text text-anchor="start" x="294.5" y="-216" font-family="Helvetica,sans-Serif" font-size="10.00">/Weaver/include/App/Model</text>
<text text-anchor="middle" x="379" y="-205" font-family="Helvetica,sans-Serif" font-size="10.00">/IBM/Maths/GaussianDistribution.h</text>
</a>
</g>
</g>
<!-- Node2 -->
<g id="Node000002" class="node">
<title>Node2</title>
<g id="a_Node000002"><a xlink:title=" ">
<polygon fill="#e0e0e0" stroke="#999999" points="240.5,-156.5 189.5,-156.5 189.5,-137.5 240.5,-137.5 240.5,-156.5"/>
<text text-anchor="middle" x="215" y="-144.5" font-family="Helvetica,sans-Serif" font-size="10.00">math.h</text>
</a>
</g>
</g>
<!-- Node1&#45;&gt;Node2 -->
<g id="edge1_Node000001_Node000002" class="edge">
<title>Node1&#45;&gt;Node2</title>
<g id="a_edge1_Node000001_Node000002"><a xlink:title=" ">
<path fill="none" stroke="#63b8ff" d="M332.88,-197.96C304.57,-185.96 269.15,-170.95 244.56,-160.53"/>
<polygon fill="#63b8ff" stroke="#63b8ff" points="245.64,-157.18 235.07,-156.5 242.91,-163.63 245.64,-157.18"/>
</a>
</g>
</g>
<!-- Node3 -->
<g id="Node000003" class="node">
<title>Node3</title>
<g id="a_Node000003"><a xlink:title=" ">
<polygon fill="#e0e0e0" stroke="#999999" points="305.5,-156.5 258.5,-156.5 258.5,-137.5 305.5,-137.5 305.5,-156.5"/>
<text text-anchor="middle" x="282" y="-144.5" font-family="Helvetica,sans-Serif" font-size="10.00">vector</text>
</a>
</g>
</g>
<!-- Node1&#45;&gt;Node3 -->
<g id="edge2_Node000001_Node000003" class="edge">
<title>Node1&#45;&gt;Node3</title>
<g id="a_edge2_Node000001_Node000003"><a xlink:title=" ">
<path fill="none" stroke="#63b8ff" d="M351.72,-197.96C335.94,-186.65 316.43,-172.67 302.07,-162.38"/>
<polygon fill="#63b8ff" stroke="#63b8ff" points="304.04,-159.48 293.87,-156.5 299.96,-165.17 304.04,-159.48"/>
</a>
</g>
</g>
<!-- Node4 -->
<g id="Node000004" class="node">
<title>Node4</title>
<g id="a_Node000004"><a xlink:title=" ">
<polygon fill="#e0e0e0" stroke="#999999" points="60,-24.5 0,-24.5 0,-5.5 60,-5.5 60,-24.5"/>
<text text-anchor="middle" x="30" y="-12.5" font-family="Helvetica,sans-Serif" font-size="10.00">iostream</text>
</a>
</g>
</g>
<!-- Node1&#45;&gt;Node4 -->
<g id="edge3_Node000001_Node000004" class="edge">
<title>Node1&#45;&gt;Node4</title>
<g id="a_edge3_Node000001_Node000004"><a xlink:title=" ">
<path fill="none" stroke="#63b8ff" d="M368.21,-197.75C356.9,-178.66 337.52,-150.04 314,-132 292.95,-115.86 132.7,-54.6 62.63,-28.21"/>
<polygon fill="#63b8ff" stroke="#63b8ff" points="63.56,-24.82 52.97,-24.58 61.1,-31.38 63.56,-24.82"/>
</a>
</g>
</g>
<!-- Node5 -->
<g id="Node000005" class="node">
<title>Node5</title>
<g id="a_Node000005"><a xlink:href="Constants_8h.html" target="_top" xlink:title="Mathematical and physical constants used throughout the project.">
<polygon fill="white" stroke="#666666" points="667.5,-162 544.5,-162 544.5,-132 667.5,-132 667.5,-162"/>
<text text-anchor="start" x="552.5" y="-150" font-family="Helvetica,sans-Serif" font-size="10.00">App/Model/IBM/Maths</text>
<text text-anchor="middle" x="606" y="-139" font-family="Helvetica,sans-Serif" font-size="10.00">/Constants.h</text>
</a>
</g>
</g>
<!-- Node1&#45;&gt;Node5 -->
<g id="edge4_Node000001_Node000005" class="edge">
<title>Node1&#45;&gt;Node5</title>
<g id="a_edge4_Node000001_Node000005"><a xlink:title=" ">
<path fill="none" stroke="#63b8ff" d="M442.84,-197.96C476.71,-187.59 517.93,-174.97 550.46,-165"/>
<polygon fill="#63b8ff" stroke="#63b8ff" points="551.72,-168.28 560.26,-162 549.67,-161.58 551.72,-168.28"/>
</a>
</g>
</g>
<!-- Node6 -->
<g id="Node000006" class="node">
<title>Node6</title>
<g id="a_Node000006"><a xlink:href="Types_8h.html" target="_top" xlink:title="Defines common type aliases and constants used throughout the Weaver project.">
<polygon fill="white" stroke="#666666" points="526.5,-156.5 447.5,-156.5 447.5,-137.5 526.5,-137.5 526.5,-156.5"/>
<text text-anchor="middle" x="487" y="-144.5" font-family="Helvetica,sans-Serif" font-size="10.00">Misc/Types.h</text>
</a>
</g>
</g>
<!-- Node1&#45;&gt;Node6 -->
<g id="edge5_Node000001_Node000006" class="edge">
<title>Node1&#45;&gt;Node6</title>
<g id="a_edge5_Node000001_Node000006"><a xlink:title=" ">
<path fill="none" stroke="#63b8ff" d="M409.37,-197.96C427.1,-186.54 449.07,-172.41 465.11,-162.09"/>
<polygon fill="#63b8ff" stroke="#63b8ff" points="467.27,-164.86 473.79,-156.5 463.48,-158.97 467.27,-164.86"/>
</a>
</g>
</g>
<!-- Node14 -->
<g id="Node000014" class="node">
<title>Node14</title>
<g id="a_Node000014"><a xlink:href="PreciseDouble_8h.html" target="_top" xlink:title="Defines the PreciseDouble class for safe and precise double&#45;precision arithmetic.">
<polygon fill="white" stroke="#666666" points="485.5,-96 362.5,-96 362.5,-66 485.5,-66 485.5,-96"/>
<text text-anchor="start" x="370.5" y="-84" font-family="Helvetica,sans-Serif" font-size="10.00">App/Model/IBM/Maths</text>
<text text-anchor="middle" x="424" y="-73" font-family="Helvetica,sans-Serif" font-size="10.00">/PreciseDouble.h</text>
</a>
</g>
</g>
<!-- Node1&#45;&gt;Node14 -->
<g id="edge24_Node000001_Node000014" class="edge">
<title>Node1&#45;&gt;Node14</title>
<g id="a_edge24_Node000001_Node000014"><a xlink:title=" ">
<path fill="none" stroke="#63b8ff" d="M385.54,-197.8C393.63,-173.43 407.4,-131.99 416.08,-105.85"/>
<polygon fill="#63b8ff" stroke="#63b8ff" points="419.41,-106.92 419.24,-96.33 412.77,-104.72 419.41,-106.92"/>
</a>
</g>
</g>
<!-- Node7 -->
<g id="Node000007" class="node">
<title>Node7</title>
<g id="a_Node000007"><a xlink:href="Coordinate3D_8h.html" target="_top" xlink:title="Defines a templated 3D coordinate class with Boost.Serialization support.">
<polygon fill="white" stroke="#666666" points="918,-90.5 826,-90.5 826,-71.5 918,-71.5 918,-90.5"/>
<text text-anchor="middle" x="872" y="-78.5" font-family="Helvetica,sans-Serif" font-size="10.00">Coordinate3D.h</text>
</a>
</g>
</g>
<!-- Node6&#45;&gt;Node7 -->
<g id="edge6_Node000006_Node000007" class="edge">
<title>Node6&#45;&gt;Node7</title>
<g id="a_edge6_Node000006_Node000007"><a xlink:title=" ">
<path fill="none" stroke="#63b8ff" d="M513.74,-137.5C520.62,-135.51 528.05,-133.52 535,-132 632.82,-110.58 748.66,-95.62 815.89,-87.95"/>
<polygon fill="#63b8ff" stroke="#63b8ff" points="816.31,-91.42 825.85,-86.83 815.52,-84.47 816.31,-91.42"/>
</a>
</g>
</g>
<!-- Node12 -->
<g id="Node000012" class="node">
<title>Node12</title>
<g id="a_Node000012"><a xlink:title=" ">
<polygon fill="#e0e0e0" stroke="#999999" points="548,-90.5 504,-90.5 504,-71.5 548,-71.5 548,-90.5"/>
<text text-anchor="middle" x="526" y="-78.5" font-family="Helvetica,sans-Serif" font-size="10.00">cfloat</text>
</a>
</g>
</g>
<!-- Node6&#45;&gt;Node12 -->
<g id="edge11_Node000006_Node000012" class="edge">
<title>Node6&#45;&gt;Node12</title>
<g id="a_edge11_Node000006_Node000012"><a xlink:title=" ">
<path fill="none" stroke="#63b8ff" d="M492.26,-137.37C498.1,-127.78 507.69,-112.05 515.15,-99.8"/>
<polygon fill="#63b8ff" stroke="#63b8ff" points="518.36,-101.27 520.57,-90.91 512.38,-97.62 518.36,-101.27"/>
</a>
</g>
</g>
<!-- Node13 -->
<g id="Node000013" class="node">
<title>Node13</title>
<g id="a_Node000013"><a xlink:title=" ">
<polygon fill="#e0e0e0" stroke="#999999" points="662,-24.5 618,-24.5 618,-5.5 662,-5.5 662,-24.5"/>
<text text-anchor="middle" x="640" y="-12.5" font-family="Helvetica,sans-Serif" font-size="10.00">limits</text>
</a>
</g>
</g>
<!-- Node6&#45;&gt;Node13 -->
<g id="edge12_Node000006_Node000013" class="edge">
<title>Node6&#45;&gt;Node13</title>
<g id="a_edge12_Node000006_Node000013"><a xlink:title=" ">
<path fill="none" stroke="#63b8ff" d="M500.33,-137.34C514.74,-127.77 538.17,-111.66 557,-96 581.86,-75.33 608.4,-48.88 624.6,-32.19"/>
<polygon fill="#63b8ff" stroke="#63b8ff" points="627.25,-34.48 631.67,-24.84 622.21,-29.62 627.25,-34.48"/>
</a>
</g>
</g>
<!-- Node6&#45;&gt;Node14 -->
<g id="edge13_Node000006_Node000014" class="edge">
<title>Node6&#45;&gt;Node14</title>
<g id="a_edge13_Node000006_Node000014"><a xlink:title=" ">
<path fill="none" stroke="#63b8ff" d="M478.5,-137.37C470.02,-128.75 456.63,-115.15 445.25,-103.59"/>
<polygon fill="#63b8ff" stroke="#63b8ff" points="447.65,-101.03 438.14,-96.36 442.66,-105.94 447.65,-101.03"/>
</a>
</g>
</g>
<!-- Node8 -->
<g id="Node000008" class="node">
<title>Node8</title>
<g id="a_Node000008"><a xlink:title=" ">
<polygon fill="#e0e0e0" stroke="#999999" points="1055.5,-30 948.5,-30 948.5,0 1055.5,0 1055.5,-30"/>
<text text-anchor="start" x="956.5" y="-18" font-family="Helvetica,sans-Serif" font-size="10.00">boost/serialization</text>
<text text-anchor="middle" x="1002" y="-7" font-family="Helvetica,sans-Serif" font-size="10.00">/access.hpp</text>
</a>
</g>
</g>
<!-- Node7&#45;&gt;Node8 -->
<g id="edge7_Node000007_Node000008" class="edge">
<title>Node7&#45;&gt;Node8</title>
<g id="a_edge7_Node000007_Node000008"><a xlink:title=" ">
<path fill="none" stroke="#63b8ff" d="M889.53,-71.37C908.58,-61.99 939.6,-46.72 964.23,-34.59"/>
<polygon fill="#63b8ff" stroke="#63b8ff" points="965.9,-37.67 973.33,-30.12 962.81,-31.39 965.9,-37.67"/>
</a>
</g>
</g>
<!-- Node9 -->
<g id="Node000009" class="node">
<title>Node9</title>
<g id="a_Node000009"><a xlink:title=" ">
<polygon fill="#e0e0e0" stroke="#999999" points="796,-30 680,-30 680,0 796,0 796,-30"/>
<text text-anchor="start" x="688" y="-18" font-family="Helvetica,sans-Serif" font-size="10.00">boost/archive/binary</text>
<text text-anchor="middle" x="738" y="-7" font-family="Helvetica,sans-Serif" font-size="10.00">_iarchive.hpp</text>
</a>
</g>
</g>
<!-- Node7&#45;&gt;Node9 -->
<g id="edge8_Node000007_Node000009" class="edge">
<title>Node7&#45;&gt;Node9</title>
<g id="a_edge8_Node000007_Node000009"><a xlink:title=" ">
<path fill="none" stroke="#63b8ff" d="M853.93,-71.37C834.2,-61.95 802.04,-46.59 776.59,-34.43"/>
<polygon fill="#63b8ff" stroke="#63b8ff" points="778.09,-31.27 767.55,-30.12 775.07,-37.58 778.09,-31.27"/>
</a>
</g>
</g>
<!-- Node10 -->
<g id="Node000010" class="node">
<title>Node10</title>
<g id="a_Node000010"><a xlink:title=" ">
<polygon fill="#e0e0e0" stroke="#999999" points="930,-30 814,-30 814,0 930,0 930,-30"/>
<text text-anchor="start" x="822" y="-18" font-family="Helvetica,sans-Serif" font-size="10.00">boost/archive/binary</text>
<text text-anchor="middle" x="872" y="-7" font-family="Helvetica,sans-Serif" font-size="10.00">_oarchive.hpp</text>
</a>
</g>
</g>
<!-- Node7&#45;&gt;Node10 -->
<g id="edge9_Node000007_Node000010" class="edge">
<title>Node7&#45;&gt;Node10</title>
<g id="a_edge9_Node000007_Node000010"><a xlink:title=" ">
<path fill="none" stroke="#63b8ff" d="M872,-71.37C872,-63.49 872,-51.45 872,-40.6"/>
<polygon fill="#63b8ff" stroke="#63b8ff" points="875.5,-40.36 872,-30.36 868.5,-40.36 875.5,-40.36"/>
</a>
</g>
</g>
<!-- Node11 -->
<g id="Node000011" class="node">
<title>Node11</title>
<g id="a_Node000011"><a xlink:title=" ">
<polygon fill="#e0e0e0" stroke="#999999" points="1128.5,-24.5 1073.5,-24.5 1073.5,-5.5 1128.5,-5.5 1128.5,-24.5"/>
<text text-anchor="middle" x="1101" y="-12.5" font-family="Helvetica,sans-Serif" font-size="10.00">fstream</text>
</a>
</g>
</g>
<!-- Node7&#45;&gt;Node11 -->
<g id="edge10_Node000007_Node000011" class="edge">
<title>Node7&#45;&gt;Node11</title>
<g id="a_edge10_Node000007_Node000011"><a xlink:title=" ">
<path fill="none" stroke="#63b8ff" d="M910.46,-71.44C949.69,-62.38 1012.13,-47.06 1065,-30 1066.87,-29.4 1068.78,-28.75 1070.7,-28.08"/>
<polygon fill="#63b8ff" stroke="#63b8ff" points="1072.04,-31.31 1080.21,-24.56 1069.62,-24.74 1072.04,-31.31"/>
</a>
</g>
</g>
<!-- Node14&#45;&gt;Node4 -->
<g id="edge21_Node000014_Node000004" class="edge">
<title>Node14&#45;&gt;Node4</title>
<g id="a_edge21_Node000014_Node000004"><a xlink:title=" ">
<path fill="none" stroke="#63b8ff" d="M362.25,-68.34C357.43,-67.52 352.64,-66.73 348,-66 224.48,-46.67 190.55,-59.29 69,-30 66.34,-29.36 63.61,-28.6 60.88,-27.77"/>
<polygon fill="#63b8ff" stroke="#63b8ff" points="61.8,-24.38 51.2,-24.55 59.59,-31.03 61.8,-24.38"/>
</a>
</g>
</g>
<!-- Node14&#45;&gt;Node9 -->
<g id="edge16_Node000014_Node000009" class="edge">
<title>Node14&#45;&gt;Node9</title>
<g id="a_edge16_Node000014_Node000009"><a xlink:title=" ">
<path fill="none" stroke="#63b8ff" d="M485.69,-67.62C533.32,-58.04 601.17,-44.34 669.78,-30.25"/>
<polygon fill="#63b8ff" stroke="#63b8ff" points="670.81,-33.61 679.9,-28.16 669.4,-26.75 670.81,-33.61"/>
</a>
</g>
</g>
<!-- Node14&#45;&gt;Node10 -->
<g id="edge17_Node000014_Node000010" class="edge">
<title>Node14&#45;&gt;Node10</title>
<g id="a_edge17_Node000014_Node000010"><a xlink:title=" ">
<path fill="none" stroke="#63b8ff" d="M485.52,-67.56C488.72,-67.01 491.9,-66.49 495,-66 628.83,-45.07 666.34,-51.87 803.88,-30.08"/>
<polygon fill="#63b8ff" stroke="#63b8ff" points="804.64,-33.51 813.96,-28.46 803.53,-26.59 804.64,-33.51"/>
</a>
</g>
</g>
<!-- Node14&#45;&gt;Node13 -->
<g id="edge22_Node000014_Node000013" class="edge">
<title>Node14&#45;&gt;Node13</title>
<g id="a_edge22_Node000014_Node000013"><a xlink:title=" ">
<path fill="none" stroke="#63b8ff" d="M485.59,-65.98C521.94,-57.06 568.6,-44.48 609,-30 610.22,-29.56 611.46,-29.1 612.7,-28.61"/>
<polygon fill="#63b8ff" stroke="#63b8ff" points="614.3,-31.74 622.17,-24.64 611.59,-25.28 614.3,-31.74"/>
</a>
</g>
</g>
<!-- Node15 -->
<g id="Node000015" class="node">
<title>Node15</title>
<g id="a_Node000015"><a xlink:title=" ">
<polygon fill="#e0e0e0" stroke="#999999" points="476.5,-30 371.5,-30 371.5,0 476.5,0 476.5,-30"/>
<text text-anchor="start" x="379.5" y="-18" font-family="Helvetica,sans-Serif" font-size="10.00">boost/archive/text</text>
<text text-anchor="middle" x="424" y="-7" font-family="Helvetica,sans-Serif" font-size="10.00">_iarchive.hpp</text>
</a>
</g>
</g>
<!-- Node14&#45;&gt;Node15 -->
<g id="edge14_Node000014_Node000015" class="edge">
<title>Node14&#45;&gt;Node15</title>
<g id="a_edge14_Node000014_Node000015"><a xlink:title=" ">
<path fill="none" stroke="#63b8ff" d="M424,-65.8C424,-58.34 424,-48.99 424,-40.41"/>
<polygon fill="#63b8ff" stroke="#63b8ff" points="427.5,-40.16 424,-30.16 420.5,-40.16 427.5,-40.16"/>
</a>
</g>
</g>
<!-- Node16 -->
<g id="Node000016" class="node">
<title>Node16</title>
<g id="a_Node000016"><a xlink:title=" ">
<polygon fill="#e0e0e0" stroke="#999999" points="599.5,-30 494.5,-30 494.5,0 599.5,0 599.5,-30"/>
<text text-anchor="start" x="502.5" y="-18" font-family="Helvetica,sans-Serif" font-size="10.00">boost/archive/text</text>
<text text-anchor="middle" x="547" y="-7" font-family="Helvetica,sans-Serif" font-size="10.00">_oarchive.hpp</text>
</a>
</g>
</g>
<!-- Node14&#45;&gt;Node16 -->
<g id="edge15_Node000014_Node000016" class="edge">
<title>Node14&#45;&gt;Node16</title>
<g id="a_edge15_Node000014_Node000016"><a xlink:title=" ">
<path fill="none" stroke="#63b8ff" d="M450.99,-65.95C468.62,-56.78 491.83,-44.71 511.02,-34.72"/>
<polygon fill="#63b8ff" stroke="#63b8ff" points="512.81,-37.73 520.07,-30.01 509.58,-31.52 512.81,-37.73"/>
</a>
</g>
</g>
<!-- Node17 -->
<g id="Node000017" class="node">
<title>Node17</title>
<g id="a_Node000017"><a xlink:title=" ">
<polygon fill="#e0e0e0" stroke="#999999" points="122,-24.5 78,-24.5 78,-5.5 122,-5.5 122,-24.5"/>
<text text-anchor="middle" x="100" y="-12.5" font-family="Helvetica,sans-Serif" font-size="10.00">string</text>
</a>
</g>
</g>
<!-- Node14&#45;&gt;Node17 -->
<g id="edge18_Node000014_Node000017" class="edge">
<title>Node14&#45;&gt;Node17</title>
<g id="a_edge18_Node000014_Node000017"><a xlink:title=" ">
<path fill="none" stroke="#63b8ff" d="M362.21,-68.52C357.41,-67.66 352.63,-66.81 348,-66 251.7,-49.14 224.56,-58.36 131,-30 129.37,-29.51 127.71,-28.94 126.05,-28.34"/>
<polygon fill="#63b8ff" stroke="#63b8ff" points="127.33,-25.08 116.75,-24.52 124.67,-31.55 127.33,-25.08"/>
</a>
</g>
</g>
<!-- Node18 -->
<g id="Node000018" class="node">
<title>Node18</title>
<g id="a_Node000018"><a xlink:title=" ">
<polygon fill="#e0e0e0" stroke="#999999" points="187.5,-24.5 140.5,-24.5 140.5,-5.5 187.5,-5.5 187.5,-24.5"/>
<text text-anchor="middle" x="164" y="-12.5" font-family="Helvetica,sans-Serif" font-size="10.00">cmath</text>
</a>
</g>
</g>
<!-- Node14&#45;&gt;Node18 -->
<g id="edge19_Node000014_Node000018" class="edge">
<title>Node14&#45;&gt;Node18</title>
<g id="a_edge19_Node000014_Node000018"><a xlink:title=" ">
<path fill="none" stroke="#63b8ff" d="M362.49,-67.78C306.22,-56.36 227.27,-39.66 197,-30 195.37,-29.48 193.71,-28.91 192.04,-28.31"/>
<polygon fill="#63b8ff" stroke="#63b8ff" points="193.21,-25 182.62,-24.61 190.65,-31.52 193.21,-25"/>
</a>
</g>
</g>
<!-- Node19 -->
<g id="Node000019" class="node">
<title>Node19</title>
<g id="a_Node000019"><a xlink:title=" ">
<polygon fill="#e0e0e0" stroke="#999999" points="270,-24.5 206,-24.5 206,-5.5 270,-5.5 270,-24.5"/>
<text text-anchor="middle" x="238" y="-12.5" font-family="Helvetica,sans-Serif" font-size="10.00">algorithm</text>
</a>
</g>
</g>
<!-- Node14&#45;&gt;Node19 -->
<g id="edge20_Node000014_Node000019" class="edge">
<title>Node14&#45;&gt;Node19</title>
<g id="a_edge20_Node000014_Node000019"><a xlink:title=" ">
<path fill="none" stroke="#63b8ff" d="M383.18,-65.95C349.99,-54.53 303.68,-38.6 272.36,-27.82"/>
<polygon fill="#63b8ff" stroke="#63b8ff" points="273.35,-24.46 262.75,-24.52 271.07,-31.08 273.35,-24.46"/>
</a>
</g>
</g>
<!-- Node20 -->
<g id="Node000020" class="node">
<title>Node20</title>
<g id="a_Node000020"><a xlink:title=" ">
<polygon fill="#e0e0e0" stroke="#999999" points="353.5,-24.5 288.5,-24.5 288.5,-5.5 353.5,-5.5 353.5,-24.5"/>
<text text-anchor="middle" x="321" y="-12.5" font-family="Helvetica,sans-Serif" font-size="10.00">functional</text>
</a>
</g>
</g>
<!-- Node14&#45;&gt;Node20 -->
<g id="edge23_Node000014_Node000020" class="edge">
<title>Node14&#45;&gt;Node20</title>
<g id="a_edge23_Node000014_Node000020"><a xlink:title=" ">
<path fill="none" stroke="#63b8ff" d="M401.4,-65.95C384.21,-55.27 360.67,-40.65 343.51,-29.98"/>
<polygon fill="#63b8ff" stroke="#63b8ff" points="345.05,-26.82 334.71,-24.52 341.35,-32.77 345.05,-26.82"/>
</a>
</g>
</g>
</g>
</svg>
