<?xml version="1.0" encoding="UTF-8" standalone="no"?>
<!DOCTYPE svg PUBLIC "-//W3C//DTD SVG 1.1//EN"
 "http://www.w3.org/Graphics/SVG/1.1/DTD/svg11.dtd">
<!-- Generated by graphviz version 2.43.0 (0)
 -->
<!-- Title: Graphical Class Hierarchy Pages: 1 -->
<svg width="499pt" height="64pt"
 viewBox="0.00 0.00 499.00 64.00" xmlns="http://www.w3.org/2000/svg" xmlns:xlink="http://www.w3.org/1999/xlink">
<g id="graph0" class="graph" transform="scale(1 1) rotate(0) translate(4 60)">
<title>Graphical Class Hierarchy</title>
<!-- Node0 -->
<g id="Node000000" class="node">
<title>Node0</title>
<g id="a_Node000000"><a xlink:href="classTerrainCell.html" target="_top" xlink:title="Represents a single cell in the landscape.">
<polygon fill="white" stroke="#666666" points="68,-37 0,-37 0,-18 68,-18 68,-37"/>
<text text-anchor="middle" x="34" y="-25" font-family="Helvetica,sans-Serif" font-size="10.00">TerrainCell</text>
</a>
</g>
</g>
<!-- Node1 -->
<g id="Node000001" class="node">
<title>Node1</title>
<g id="a_Node000001"><a xlink:href="classSpatialTreeTerrainCell.html" target="_top" xlink:title="Represents a terrain cell in a spatial tree structure.">
<polygon fill="white" stroke="#666666" points="226,-37 104,-37 104,-18 226,-18 226,-37"/>
<text text-anchor="middle" x="165" y="-25" font-family="Helvetica,sans-Serif" font-size="10.00">SpatialTreeTerrainCell</text>
</a>
</g>
</g>
<!-- Node0&#45;&gt;Node1 -->
<g id="edge81_Node000000_Node000001" class="edge">
<title>Node0&#45;&gt;Node1</title>
<g id="a_edge81_Node000000_Node000001"><a xlink:title=" ">
<path fill="none" stroke="#63b8ff" d="M78.3,-27.5C86.51,-27.5 95.23,-27.5 103.85,-27.5"/>
<polygon fill="#63b8ff" stroke="#63b8ff" points="78.22,-24 68.22,-27.5 78.22,-31 78.22,-24"/>
</a>
</g>
</g>
<!-- Node2 -->
<g id="Node000002" class="node">
<title>Node2</title>
<g id="a_Node000002"><a xlink:href="classBranchTerrainCell.html" target="_top" xlink:title="Represents an internal node (branch) of the spatial tree in the landscape.">
<polygon fill="white" stroke="#666666" points="364,-56 262,-56 262,-37 364,-37 364,-56"/>
<text text-anchor="middle" x="313" y="-44" font-family="Helvetica,sans-Serif" font-size="10.00">BranchTerrainCell</text>
</a>
</g>
</g>
<!-- Node1&#45;&gt;Node2 -->
<g id="edge82_Node000001_Node000002" class="edge">
<title>Node1&#45;&gt;Node2</title>
<g id="a_edge82_Node000001_Node000002"><a xlink:title=" ">
<path fill="none" stroke="#63b8ff" d="M236.25,-36.64C244.83,-37.76 253.46,-38.88 261.67,-39.95"/>
<polygon fill="#63b8ff" stroke="#63b8ff" points="236.59,-33.16 226.23,-35.34 235.69,-40.1 236.59,-33.16"/>
</a>
</g>
</g>
<!-- Node4 -->
<g id="Node000004" class="node">
<title>Node4</title>
<g id="a_Node000004"><a xlink:href="classLeafTerrainCell.html" target="_top" xlink:title="Represents a leaf terrain cell in a spatial tree.">
<polygon fill="white" stroke="#666666" points="357.5,-19 268.5,-19 268.5,0 357.5,0 357.5,-19"/>
<text text-anchor="middle" x="313" y="-7" font-family="Helvetica,sans-Serif" font-size="10.00">LeafTerrainCell</text>
</a>
</g>
</g>
<!-- Node1&#45;&gt;Node4 -->
<g id="edge84_Node000001_Node000004" class="edge">
<title>Node1&#45;&gt;Node4</title>
<g id="a_edge84_Node000001_Node000004"><a xlink:title=" ">
<path fill="none" stroke="#63b8ff" d="M236.25,-18.84C247.22,-17.49 258.27,-16.12 268.41,-14.87"/>
<polygon fill="#63b8ff" stroke="#63b8ff" points="235.72,-15.38 226.23,-20.07 236.58,-22.32 235.72,-15.38"/>
</a>
</g>
</g>
<!-- Node3 -->
<g id="Node000003" class="node">
<title>Node3</title>
<g id="a_Node000003"><a xlink:href="classRootTerrainCell.html" target="_top" xlink:title="Represents the root node of the spatial tree in the landscape.">
<polygon fill="white" stroke="#666666" points="491,-56 400,-56 400,-37 491,-37 491,-56"/>
<text text-anchor="middle" x="445.5" y="-44" font-family="Helvetica,sans-Serif" font-size="10.00">RootTerrainCell</text>
</a>
</g>
</g>
<!-- Node2&#45;&gt;Node3 -->
<g id="edge83_Node000002_Node000003" class="edge">
<title>Node2&#45;&gt;Node3</title>
<g id="a_edge83_Node000002_Node000003"><a xlink:title=" ">
<path fill="none" stroke="#63b8ff" d="M374.16,-46.5C382.82,-46.5 391.6,-46.5 399.89,-46.5"/>
<polygon fill="#63b8ff" stroke="#63b8ff" points="374.08,-43 364.08,-46.5 374.08,-50 374.08,-43"/>
</a>
</g>
</g>
</g>
</svg>
