<?xml version="1.0" encoding="UTF-8" standalone="no"?>
<!DOCTYPE svg PUBLIC "-//W3C//DTD SVG 1.1//EN"
 "http://www.w3.org/Graphics/SVG/1.1/DTD/svg11.dtd">
<!-- Generated by graphviz version 2.43.0 (0)
 -->
<!-- Title: Graphical Class Hierarchy Pages: 1 -->
<svg width="207pt" height="138pt"
 viewBox="0.00 0.00 207.00 138.00" xmlns="http://www.w3.org/2000/svg" xmlns:xlink="http://www.w3.org/1999/xlink">
<g id="graph0" class="graph" transform="scale(1 1) rotate(0) translate(4 134)">
<title>Graphical Class Hierarchy</title>
<!-- Node0 -->
<g id="Node000000" class="node">
<title>Node0</title>
<g id="a_Node000000"><a xlink:title=" ">
<polygon fill="#e0e0e0" stroke="#999999" points="74,-74 0,-74 0,-55 74,-55 74,-74"/>
<text text-anchor="middle" x="37" y="-62" font-family="Helvetica,sans-Serif" font-size="10.00">nana::panel</text>
</a>
</g>
</g>
<!-- Node1 -->
<g id="Node000001" class="node">
<title>Node1</title>
<g id="a_Node000001"><a xlink:href="classCheckbox.html" target="_top" xlink:title="A custom Checkbox widget combining a label and a checkbox in a panel.">
<polygon fill="white" stroke="#666666" points="187,-130 122,-130 122,-111 187,-111 187,-130"/>
<text text-anchor="middle" x="154.5" y="-118" font-family="Helvetica,sans-Serif" font-size="10.00">Checkbox</text>
</a>
</g>
</g>
<!-- Node0&#45;&gt;Node1 -->
<g id="edge56_Node000000_Node000001" class="edge">
<title>Node0&#45;&gt;Node1</title>
<g id="a_edge56_Node000000_Node000001"><a xlink:title=" ">
<path fill="none" stroke="#63b8ff" d="M63.74,-78.83C77.34,-86.22 94.41,-95.18 110,-102.5 116.21,-105.42 123.03,-108.36 129.39,-110.99"/>
<polygon fill="#63b8ff" stroke="#63b8ff" points="65.39,-75.75 54.94,-74.02 62.03,-81.89 65.39,-75.75"/>
</a>
</g>
</g>
<!-- Node2 -->
<g id="Node000002" class="node">
<title>Node2</title>
<g id="a_Node000002"><a xlink:href="classLogTextbox.html" target="_top" xlink:title="A read&#45;only multiline textbox widget for logging messages.">
<polygon fill="white" stroke="#666666" points="190.5,-93 118.5,-93 118.5,-74 190.5,-74 190.5,-93"/>
<text text-anchor="middle" x="154.5" y="-81" font-family="Helvetica,sans-Serif" font-size="10.00">LogTextbox</text>
</a>
</g>
</g>
<!-- Node0&#45;&gt;Node2 -->
<g id="edge57_Node000000_Node000002" class="edge">
<title>Node0&#45;&gt;Node2</title>
<g id="a_edge57_Node000000_Node000002"><a xlink:title=" ">
<path fill="none" stroke="#63b8ff" d="M84.36,-72.13C95.64,-73.98 107.52,-75.94 118.19,-77.69"/>
<polygon fill="#63b8ff" stroke="#63b8ff" points="84.66,-68.63 74.23,-70.46 83.53,-75.54 84.66,-68.63"/>
</a>
</g>
</g>
<!-- Node3 -->
<g id="Node000003" class="node">
<title>Node3</title>
<g id="a_Node000003"><a xlink:href="classOptionSelector.html" target="_top" xlink:title="A widget combining a label and a dropdown (combo box) for selecting options.">
<polygon fill="white" stroke="#666666" points="199,-56 110,-56 110,-37 199,-37 199,-56"/>
<text text-anchor="middle" x="154.5" y="-44" font-family="Helvetica,sans-Serif" font-size="10.00">OptionSelector</text>
</a>
</g>
</g>
<!-- Node0&#45;&gt;Node3 -->
<g id="edge58_Node000000_Node000003" class="edge">
<title>Node0&#45;&gt;Node3</title>
<g id="a_edge58_Node000000_Node000003"><a xlink:title=" ">
<path fill="none" stroke="#63b8ff" d="M84.25,-57.29C92.64,-55.98 101.38,-54.62 109.7,-53.33"/>
<polygon fill="#63b8ff" stroke="#63b8ff" points="83.57,-53.86 74.23,-58.85 84.65,-60.77 83.57,-53.86"/>
</a>
</g>
</g>
<!-- Node4 -->
<g id="Node000004" class="node">
<title>Node4</title>
<g id="a_Node000004"><a xlink:href="classPathChooser.html" target="_top" xlink:title="A widget that allows the user to choose a file or directory path.">
<polygon fill="white" stroke="#666666" points="193,-19 116,-19 116,0 193,0 193,-19"/>
<text text-anchor="middle" x="154.5" y="-7" font-family="Helvetica,sans-Serif" font-size="10.00">PathChooser</text>
</a>
</g>
</g>
<!-- Node0&#45;&gt;Node4 -->
<g id="edge59_Node000000_Node000004" class="edge">
<title>Node0&#45;&gt;Node4</title>
<g id="a_edge59_Node000000_Node000004"><a xlink:title=" ">
<path fill="none" stroke="#63b8ff" d="M65.64,-50.26C78.97,-43.5 95.23,-35.41 110,-28.5 116.72,-25.36 124.09,-22.07 130.82,-19.14"/>
<polygon fill="#63b8ff" stroke="#63b8ff" points="63.84,-47.25 56.52,-54.91 67.02,-53.49 63.84,-47.25"/>
</a>
</g>
</g>
</g>
</svg>
