<?xml version="1.0" encoding="UTF-8" standalone="no"?>
<!DOCTYPE svg PUBLIC "-//W3C//DTD SVG 1.1//EN"
 "http://www.w3.org/Graphics/SVG/1.1/DTD/svg11.dtd">
<!-- Generated by graphviz version 2.43.0 (0)
 -->
<!-- Title: Graphical Class Hierarchy Pages: 1 -->
<svg width="444pt" height="64pt"
 viewBox="0.00 0.00 444.00 64.00" xmlns="http://www.w3.org/2000/svg" xmlns:xlink="http://www.w3.org/1999/xlink">
<g id="graph0" class="graph" transform="scale(1 1) rotate(0) translate(4 60)">
<title>Graphical Class Hierarchy</title>
<!-- Node0 -->
<g id="Node000000" class="node">
<title>Node0</title>
<g id="a_Node000000"><a xlink:href="classPatchApplicator.html" target="_top" xlink:title="Applies patches to a TerrainCell including moisture, resources, obstacles, and habitat domains.">
<polygon fill="white" stroke="#666666" points="92,-37 0,-37 0,-18 92,-18 92,-37"/>
<text text-anchor="middle" x="46" y="-25" font-family="Helvetica,sans-Serif" font-size="10.00">PatchApplicator</text>
</a>
</g>
</g>
<!-- Node1 -->
<g id="Node000001" class="node">
<title>Node1</title>
<g id="a_Node000001"><a xlink:href="classSpatialTreePatchApplicator.html" target="_top" xlink:title="Abstract class for applying environmental patches to a spatial tree of terrain cells.">
<polygon fill="white" stroke="#666666" points="274,-37 128,-37 128,-18 274,-18 274,-37"/>
<text text-anchor="middle" x="201" y="-25" font-family="Helvetica,sans-Serif" font-size="10.00">SpatialTreePatchApplicator</text>
</a>
</g>
</g>
<!-- Node0&#45;&gt;Node1 -->
<g id="edge60_Node000000_Node000001" class="edge">
<title>Node0&#45;&gt;Node1</title>
<g id="a_edge60_Node000000_Node000001"><a xlink:title=" ">
<path fill="none" stroke="#63b8ff" d="M102.11,-27.5C110.51,-27.5 119.28,-27.5 127.98,-27.5"/>
<polygon fill="#63b8ff" stroke="#63b8ff" points="102.08,-24 92.08,-27.5 102.08,-31 102.08,-24"/>
</a>
</g>
</g>
<!-- Node2 -->
<g id="Node000002" class="node">
<title>Node2</title>
<g id="a_Node000002"><a xlink:href="classBranchPatchApplicator.html" target="_top" xlink:title="Concrete implementation of SpatialTreePatchApplicator for branch nodes.">
<polygon fill="white" stroke="#666666" points="436,-56 310,-56 310,-37 436,-37 436,-56"/>
<text text-anchor="middle" x="373" y="-44" font-family="Helvetica,sans-Serif" font-size="10.00">BranchPatchApplicator</text>
</a>
</g>
</g>
<!-- Node1&#45;&gt;Node2 -->
<g id="edge61_Node000001_Node000002" class="edge">
<title>Node1&#45;&gt;Node2</title>
<g id="a_edge61_Node000001_Node000002"><a xlink:title=" ">
<path fill="none" stroke="#63b8ff" d="M284.16,-36.68C292.76,-37.64 301.41,-38.61 309.74,-39.54"/>
<polygon fill="#63b8ff" stroke="#63b8ff" points="284.42,-33.19 274.1,-35.56 283.64,-40.15 284.42,-33.19"/>
</a>
</g>
</g>
<!-- Node3 -->
<g id="Node000003" class="node">
<title>Node3</title>
<g id="a_Node000003"><a xlink:href="classLeafPatchApplicator.html" target="_top" xlink:title="Concrete implementation of SpatialTreePatchApplicator for leaf nodes.">
<polygon fill="white" stroke="#666666" points="429.5,-19 316.5,-19 316.5,0 429.5,0 429.5,-19"/>
<text text-anchor="middle" x="373" y="-7" font-family="Helvetica,sans-Serif" font-size="10.00">LeafPatchApplicator</text>
</a>
</g>
</g>
<!-- Node1&#45;&gt;Node3 -->
<g id="edge62_Node000001_Node000003" class="edge">
<title>Node1&#45;&gt;Node3</title>
<g id="a_edge62_Node000001_Node000003"><a xlink:title=" ">
<path fill="none" stroke="#63b8ff" d="M284.08,-18.81C295,-17.65 305.98,-16.49 316.3,-15.4"/>
<polygon fill="#63b8ff" stroke="#63b8ff" points="283.67,-15.33 274.1,-19.87 284.41,-22.29 283.67,-15.33"/>
</a>
</g>
</g>
</g>
</svg>
