<?xml version="1.0" encoding="UTF-8" standalone="no"?>
<!DOCTYPE svg PUBLIC "-//W3C//DTD SVG 1.1//EN"
 "http://www.w3.org/Graphics/SVG/1.1/DTD/svg11.dtd">
<!-- Generated by graphviz version 2.43.0 (0)
 -->
<!-- Title: /home/runner/work/Weaver/Weaver/include/Misc/JsonValidator/Operators.h Pages: 1 -->
<!--zoomable 291 -->

<svg id="main" version="1.1" xmlns="http://www.w3.org/2000/svg" xmlns:xlink="http://www.w3.org/1999/xlink" xml:space="preserve" onload="init(evt)">
<style type="text/css"><![CDATA[
.node, .edge {opacity: 0.7;}
.node.selected, .edge.selected {opacity: 1;}
.edge:hover path { stroke: red; }
.edge:hover polygon { stroke: red; fill: red; }
]]></style>

<defs>
  <circle id="rim" cx="0" cy="0" r="7"/>
  <circle id="rim2" cx="0" cy="0" r="3.5"/>
  <g id="zoomPlus">
    <use xlink:href="#rim" fill="#404040"><set attributeName="fill" to="#808080" begin="zoomplus.mouseover" end="zoomplus.mouseout"/></use>
    <path d="M-4,0h8M0,-4v8" fill="none" stroke="white" stroke-width="1.5" pointer-events="none"/>
  </g>
  <g id="zoomMin">
    <use xlink:href="#rim" fill="#404040"><set attributeName="fill" to="#808080" begin="zoomminus.mouseover" end="zoomminus.mouseout"/></use>
    <path d="M-4,0h8" fill="none" stroke="white" stroke-width="1.5" pointer-events="none"/>
  </g>
  <g id="arrowUp" transform="translate(30 24)">
    <use xlink:href="#rim"/>
    <path pointer-events="none" fill="none" stroke="white" stroke-width="1.5" d="M0,-3.0v7 M-2.5,-0.5L0,-3.0L2.5,-0.5"/>
  </g>
  <g id="arrowRight" transform="rotate(90) translate(36 -43)">
    <use xlink:href="#rim"/>
    <path pointer-events="none" fill="none" stroke="white" stroke-width="1.5" d="M0,-3.0v7 M-2.5,-0.5L0,-3.0L2.5,-0.5"/>
  </g>
  <g id="arrowDown" transform="rotate(180) translate(-30 -48)">
    <use xlink:href="#rim"/>
    <path pointer-events="none" fill="none" stroke="white" stroke-width="1.5" d="M0,-3.0v7 M-2.5,-0.5L0,-3.0L2.5,-0.5"/>
  </g>
  <g id="arrowLeft" transform="rotate(270) translate(-36 17)">
    <use xlink:href="#rim"/>
    <path pointer-events="none" fill="none" stroke="white" stroke-width="1.5" d="M0,-3.0v7 M-2.5,-0.5L0,-3.0L2.5,-0.5"/>
  </g>
  <g id="resetDef">
    <use xlink:href="#rim2" fill="#404040"><set attributeName="fill" to="#808080" begin="reset.mouseover" end="reset.mouseout"/></use>
  </g>
</defs>
<script type="application/ecmascript">
var viewWidth = 890;
var viewHeight = 291;
var sectionId = 'dynsection-0';
</script>
<script type="application/ecmascript" xlink:href="svg.min.js"/>
<svg id="graph" class="graph">
<g id="viewport">
<title>/home/runner/work/Weaver/Weaver/include/Misc/JsonValidator/Operators.h</title>
<!-- Node1 -->
<g id="Node000001" class="node">
<title>Node1</title>
<g id="a_Node000001"><a xlink:title="Defines operator types, comparison/logical/arithmetic enums, and verification/check functions for JSO...">
<polygon fill="#999999" stroke="#666666" points="626.73,-283 439.73,-283 439.73,-242 626.73,-242 626.73,-283"/>
<text text-anchor="start" x="447.73" y="-271" font-family="Helvetica,sans-Serif" font-size="10.00">/home/runner/work/Weaver</text>
<text text-anchor="start" x="447.73" y="-260" font-family="Helvetica,sans-Serif" font-size="10.00">/Weaver/include/Misc/JsonValidator</text>
<text text-anchor="middle" x="533.23" y="-249" font-family="Helvetica,sans-Serif" font-size="10.00">/Operators.h</text>
</a>
</g>
</g>
<!-- Node2 -->
<g id="Node000002" class="node">
<title>Node2</title>
<g id="a_Node000002"><a xlink:title=" ">
<polygon fill="#e0e0e0" stroke="#999999" points="513.23,-19 469.23,-19 469.23,0 513.23,0 513.23,-19"/>
<text text-anchor="middle" x="491.23" y="-7" font-family="Helvetica,sans-Serif" font-size="10.00">string</text>
</a>
</g>
</g>
<!-- Node1&#45;&gt;Node2 -->
<g id="edge1_Node000001_Node000002" class="edge">
<title>Node1&#45;&gt;Node2</title>
<g id="a_edge1_Node000001_Node000002"><a xlink:title=" ">
<path fill="none" stroke="#63b8ff" d="M439.7,-255.3C261.46,-240.24 -98.5,-192.24 26.23,-55 55.31,-23.01 358.55,-13.44 459.06,-11.13"/>
<polygon fill="#63b8ff" stroke="#63b8ff" points="459.3,-14.63 469.22,-10.91 459.15,-7.63 459.3,-14.63"/>
</a>
</g>
</g>
<!-- Node3 -->
<g id="Node000003" class="node">
<title>Node3</title>
<g id="a_Node000003"><a xlink:title=" ">
<polygon fill="#e0e0e0" stroke="#999999" points="882.23,-134.5 772.23,-134.5 772.23,-115.5 882.23,-115.5 882.23,-134.5"/>
<text text-anchor="middle" x="827.23" y="-122.5" font-family="Helvetica,sans-Serif" font-size="10.00">nlohmann/json.hpp</text>
</a>
</g>
</g>
<!-- Node1&#45;&gt;Node3 -->
<g id="edge2_Node000001_Node000003" class="edge">
<title>Node1&#45;&gt;Node3</title>
<g id="a_edge2_Node000001_Node000003"><a xlink:title=" ">
<path fill="none" stroke="#63b8ff" d="M622.26,-241.98C654.11,-233.22 689.66,-221.35 720.23,-206 755.24,-188.43 790.62,-159.23 810.65,-141.38"/>
<polygon fill="#63b8ff" stroke="#63b8ff" points="813.19,-143.81 818.25,-134.5 808.49,-138.62 813.19,-143.81"/>
</a>
</g>
</g>
<!-- Node4 -->
<g id="Node000004" class="node">
<title>Node4</title>
<g id="a_Node000004"><a xlink:href="Exceptions_8h.html" target="_top" xlink:title="Defines JSON validator exception classes with line/file information for error reporting.">
<polygon fill="white" stroke="#666666" points="586.23,-140 480.23,-140 480.23,-110 586.23,-110 586.23,-140"/>
<text text-anchor="start" x="488.23" y="-128" font-family="Helvetica,sans-Serif" font-size="10.00">Misc/JsonValidator</text>
<text text-anchor="middle" x="533.23" y="-117" font-family="Helvetica,sans-Serif" font-size="10.00">/Exceptions.h</text>
</a>
</g>
</g>
<!-- Node1&#45;&gt;Node4 -->
<g id="edge3_Node000001_Node000004" class="edge">
<title>Node1&#45;&gt;Node4</title>
<g id="a_edge3_Node000001_Node000004"><a xlink:title=" ">
<path fill="none" stroke="#63b8ff" d="M533.23,-241.8C533.23,-217.65 533.23,-176.72 533.23,-150.55"/>
<polygon fill="#63b8ff" stroke="#63b8ff" points="536.73,-150.33 533.23,-140.33 529.73,-150.33 536.73,-150.33"/>
</a>
</g>
</g>
<!-- Node7 -->
<g id="Node000007" class="node">
<title>Node7</title>
<g id="a_Node000007"><a xlink:href="EnumClass_8h.html" target="_top" xlink:title="Template helper class for working with strongly&#45;typed enums.">
<polygon fill="white" stroke="#666666" points="421.73,-134.5 316.73,-134.5 316.73,-115.5 421.73,-115.5 421.73,-134.5"/>
<text text-anchor="middle" x="369.23" y="-122.5" font-family="Helvetica,sans-Serif" font-size="10.00">Misc/EnumClass.h</text>
</a>
</g>
</g>
<!-- Node1&#45;&gt;Node7 -->
<g id="edge8_Node000001_Node000007" class="edge">
<title>Node1&#45;&gt;Node7</title>
<g id="a_edge8_Node000001_Node000007"><a xlink:title=" ">
<path fill="none" stroke="#63b8ff" d="M509.38,-241.8C476.39,-214.54 417.53,-165.91 387.68,-141.24"/>
<polygon fill="#63b8ff" stroke="#63b8ff" points="389.68,-138.36 379.74,-134.69 385.22,-143.75 389.68,-138.36"/>
</a>
</g>
</g>
<!-- Node11 -->
<g id="Node000011" class="node">
<title>Node11</title>
<g id="a_Node000011"><a xlink:href="Element_8h.html" target="_top" xlink:title="Abstract base class representing a configurable element in JSON&#45;based configurations.">
<polygon fill="white" stroke="#666666" points="711.23,-206 593.23,-206 593.23,-176 711.23,-176 711.23,-206"/>
<text text-anchor="start" x="601.23" y="-194" font-family="Helvetica,sans-Serif" font-size="10.00">Misc/JsonValidator</text>
<text text-anchor="middle" x="652.23" y="-183" font-family="Helvetica,sans-Serif" font-size="10.00">/Elements/Element.h</text>
</a>
</g>
</g>
<!-- Node1&#45;&gt;Node11 -->
<g id="edge14_Node000001_Node000011" class="edge">
<title>Node1&#45;&gt;Node11</title>
<g id="a_edge14_Node000001_Node000011"><a xlink:title=" ">
<path fill="none" stroke="#63b8ff" d="M566.69,-241.96C583.17,-232.33 602.96,-220.78 619.35,-211.2"/>
<polygon fill="#63b8ff" stroke="#63b8ff" points="621.19,-214.18 628.06,-206.11 617.66,-208.13 621.19,-214.18"/>
</a>
</g>
</g>
<!-- Node4&#45;&gt;Node2 -->
<g id="edge4_Node000004_Node000002" class="edge">
<title>Node4&#45;&gt;Node2</title>
<g id="a_edge4_Node000004_Node000002"><a xlink:title=" ">
<path fill="none" stroke="#63b8ff" d="M576.22,-109.88C606.13,-97.65 637.88,-78.3 621.23,-55 615.32,-46.73 559.63,-29.74 523.08,-19.31"/>
<polygon fill="#63b8ff" stroke="#63b8ff" points="523.92,-15.91 513.34,-16.56 522.01,-22.65 523.92,-15.91"/>
</a>
</g>
</g>
<!-- Node5 -->
<g id="Node000005" class="node">
<title>Node5</title>
<g id="a_Node000005"><a xlink:href="LineInfoException_8h.html" target="_top" xlink:title="Exception class with detailed file and line information for error reporting.">
<polygon fill="white" stroke="#666666" points="612.73,-74 443.73,-74 443.73,-55 612.73,-55 612.73,-74"/>
<text text-anchor="middle" x="528.23" y="-62" font-family="Helvetica,sans-Serif" font-size="10.00">Exceptions/LineInfoException.h</text>
</a>
</g>
</g>
<!-- Node4&#45;&gt;Node5 -->
<g id="edge5_Node000004_Node000005" class="edge">
<title>Node4&#45;&gt;Node5</title>
<g id="a_edge5_Node000004_Node000005"><a xlink:title=" ">
<path fill="none" stroke="#63b8ff" d="M532.02,-109.84C531.37,-102.21 530.55,-92.7 529.85,-84.45"/>
<polygon fill="#63b8ff" stroke="#63b8ff" points="533.32,-83.93 528.98,-74.27 526.34,-84.53 533.32,-83.93"/>
</a>
</g>
</g>
<!-- Node5&#45;&gt;Node2 -->
<g id="edge7_Node000005_Node000002" class="edge">
<title>Node5&#45;&gt;Node2</title>
<g id="a_edge7_Node000005_Node000002"><a xlink:title=" ">
<path fill="none" stroke="#63b8ff" d="M522.12,-54.75C516.95,-47.34 509.38,-36.5 503.03,-27.41"/>
<polygon fill="#63b8ff" stroke="#63b8ff" points="505.82,-25.29 497.23,-19.09 500.08,-29.29 505.82,-25.29"/>
</a>
</g>
</g>
<!-- Node6 -->
<g id="Node000006" class="node">
<title>Node6</title>
<g id="a_Node000006"><a xlink:title=" ">
<polygon fill="#e0e0e0" stroke="#999999" points="596.73,-19 531.73,-19 531.73,0 596.73,0 596.73,-19"/>
<text text-anchor="middle" x="564.23" y="-7" font-family="Helvetica,sans-Serif" font-size="10.00">exception</text>
</a>
</g>
</g>
<!-- Node5&#45;&gt;Node6 -->
<g id="edge6_Node000005_Node000006" class="edge">
<title>Node5&#45;&gt;Node6</title>
<g id="a_edge6_Node000005_Node000006"><a xlink:title=" ">
<path fill="none" stroke="#63b8ff" d="M534.17,-54.75C539.21,-47.34 546.57,-36.5 552.74,-27.41"/>
<polygon fill="#63b8ff" stroke="#63b8ff" points="555.67,-29.33 558.4,-19.09 549.88,-25.39 555.67,-29.33"/>
</a>
</g>
</g>
<!-- Node7&#45;&gt;Node2 -->
<g id="edge10_Node000007_Node000002" class="edge">
<title>Node7&#45;&gt;Node2</title>
<g id="a_edge10_Node000007_Node000002"><a xlink:title=" ">
<path fill="none" stroke="#63b8ff" d="M364.64,-115.44C357.82,-101.41 347.14,-73.27 360.23,-55 382.5,-23.91 427.75,-14.28 458.77,-11.44"/>
<polygon fill="#63b8ff" stroke="#63b8ff" points="459.37,-14.91 469.09,-10.7 458.86,-7.93 459.37,-14.91"/>
</a>
</g>
</g>
<!-- Node7&#45;&gt;Node5 -->
<g id="edge13_Node000007_Node000005" class="edge">
<title>Node7&#45;&gt;Node5</title>
<g id="a_edge13_Node000007_Node000005"><a xlink:title=" ">
<path fill="none" stroke="#63b8ff" d="M392.35,-115.49C419.55,-105.49 464.89,-88.8 495.65,-77.49"/>
<polygon fill="#63b8ff" stroke="#63b8ff" points="496.9,-80.75 505.08,-74.02 494.49,-74.18 496.9,-80.75"/>
</a>
</g>
</g>
<!-- Node8 -->
<g id="Node000008" class="node">
<title>Node8</title>
<g id="a_Node000008"><a xlink:title=" ">
<polygon fill="#e0e0e0" stroke="#999999" points="425.23,-74 369.23,-74 369.23,-55 425.23,-55 425.23,-74"/>
<text text-anchor="middle" x="397.23" y="-62" font-family="Helvetica,sans-Serif" font-size="10.00">sstream</text>
</a>
</g>
</g>
<!-- Node7&#45;&gt;Node8 -->
<g id="edge9_Node000007_Node000008" class="edge">
<title>Node7&#45;&gt;Node8</title>
<g id="a_edge9_Node000007_Node000008"><a xlink:title=" ">
<path fill="none" stroke="#63b8ff" d="M373.36,-115.37C377.37,-106.99 383.58,-94.01 388.66,-83.39"/>
<polygon fill="#63b8ff" stroke="#63b8ff" points="391.92,-84.7 393.08,-74.17 385.61,-81.68 391.92,-84.7"/>
</a>
</g>
</g>
<!-- Node9 -->
<g id="Node000009" class="node">
<title>Node9</title>
<g id="a_Node000009"><a xlink:title=" ">
<polygon fill="#e0e0e0" stroke="#999999" points="128.73,-74 35.73,-74 35.73,-55 128.73,-55 128.73,-74"/>
<text text-anchor="middle" x="82.23" y="-62" font-family="Helvetica,sans-Serif" font-size="10.00">unordered_map</text>
</a>
</g>
</g>
<!-- Node7&#45;&gt;Node9 -->
<g id="edge11_Node000007_Node000009" class="edge">
<title>Node7&#45;&gt;Node9</title>
<g id="a_edge11_Node000007_Node000009"><a xlink:title=" ">
<path fill="none" stroke="#63b8ff" d="M327.5,-115.49C276.27,-105.05 189.4,-87.35 133.98,-76.05"/>
<polygon fill="#63b8ff" stroke="#63b8ff" points="134.51,-72.58 124.01,-74.02 133.11,-79.44 134.51,-72.58"/>
</a>
</g>
</g>
<!-- Node10 -->
<g id="Node000010" class="node">
<title>Node10</title>
<g id="a_Node000010"><a xlink:title=" ">
<polygon fill="#e0e0e0" stroke="#999999" points="313.73,-74 146.73,-74 146.73,-55 313.73,-55 313.73,-74"/>
<text text-anchor="middle" x="230.23" y="-62" font-family="Helvetica,sans-Serif" font-size="10.00">magic_enum/magic_enum.hpp</text>
</a>
</g>
</g>
<!-- Node7&#45;&gt;Node10 -->
<g id="edge12_Node000007_Node000010" class="edge">
<title>Node7&#45;&gt;Node10</title>
<g id="a_edge12_Node000007_Node000010"><a xlink:title=" ">
<path fill="none" stroke="#63b8ff" d="M349.02,-115.49C325.55,-105.62 286.62,-89.23 259.76,-77.93"/>
<polygon fill="#63b8ff" stroke="#63b8ff" points="261.04,-74.67 250.47,-74.02 258.32,-81.12 261.04,-74.67"/>
</a>
</g>
</g>
<!-- Node11&#45;&gt;Node2 -->
<g id="edge16_Node000011_Node000002" class="edge">
<title>Node11&#45;&gt;Node2</title>
<g id="a_edge16_Node000011_Node000002"><a xlink:title=" ">
<path fill="none" stroke="#63b8ff" d="M655.85,-175.96C662.07,-148.16 671.09,-86.11 637.23,-55 632.91,-51.04 564.84,-31.3 523.19,-19.48"/>
<polygon fill="#63b8ff" stroke="#63b8ff" points="524.05,-16.09 513.47,-16.73 522.14,-22.82 524.05,-16.09"/>
</a>
</g>
</g>
<!-- Node11&#45;&gt;Node3 -->
<g id="edge18_Node000011_Node000003" class="edge">
<title>Node11&#45;&gt;Node3</title>
<g id="a_edge18_Node000011_Node000003"><a xlink:title=" ">
<path fill="none" stroke="#63b8ff" d="M690.63,-175.95C721.73,-164.58 765.06,-148.74 794.52,-137.96"/>
<polygon fill="#63b8ff" stroke="#63b8ff" points="795.75,-141.24 803.94,-134.52 793.35,-134.66 795.75,-141.24"/>
</a>
</g>
</g>
<!-- Node11&#45;&gt;Node4 -->
<g id="edge19_Node000011_Node000004" class="edge">
<title>Node11&#45;&gt;Node4</title>
<g id="a_edge19_Node000011_Node000004"><a xlink:title=" ">
<path fill="none" stroke="#63b8ff" d="M626.11,-175.95C609.14,-166.83 586.81,-154.82 568.3,-144.86"/>
<polygon fill="#63b8ff" stroke="#63b8ff" points="569.75,-141.67 559.28,-140.01 566.43,-147.83 569.75,-141.67"/>
</a>
</g>
</g>
<!-- Node12 -->
<g id="Node000012" class="node">
<title>Node12</title>
<g id="a_Node000012"><a xlink:title=" ">
<polygon fill="#e0e0e0" stroke="#999999" points="753.73,-134.5 706.73,-134.5 706.73,-115.5 753.73,-115.5 753.73,-134.5"/>
<text text-anchor="middle" x="730.23" y="-122.5" font-family="Helvetica,sans-Serif" font-size="10.00">vector</text>
</a>
</g>
</g>
<!-- Node11&#45;&gt;Node12 -->
<g id="edge15_Node000011_Node000012" class="edge">
<title>Node11&#45;&gt;Node12</title>
<g id="a_edge15_Node000011_Node000012"><a xlink:title=" ">
<path fill="none" stroke="#63b8ff" d="M669.54,-175.8C681.94,-165.62 698.63,-151.93 711.36,-141.48"/>
<polygon fill="#63b8ff" stroke="#63b8ff" points="713.94,-143.89 719.45,-134.84 709.5,-138.48 713.94,-143.89"/>
</a>
</g>
</g>
<!-- Node13 -->
<g id="Node000013" class="node">
<title>Node13</title>
<g id="a_Node000013"><a xlink:title=" ">
<polygon fill="#e0e0e0" stroke="#999999" points="649.73,-134.5 604.73,-134.5 604.73,-115.5 649.73,-115.5 649.73,-134.5"/>
<text text-anchor="middle" x="627.23" y="-122.5" font-family="Helvetica,sans-Serif" font-size="10.00">utility</text>
</a>
</g>
</g>
<!-- Node11&#45;&gt;Node13 -->
<g id="edge17_Node000011_Node000013" class="edge">
<title>Node11&#45;&gt;Node13</title>
<g id="a_edge17_Node000011_Node000013"><a xlink:title=" ">
<path fill="none" stroke="#63b8ff" d="M646.68,-175.8C643.05,-166.5 638.27,-154.27 634.36,-144.26"/>
<polygon fill="#63b8ff" stroke="#63b8ff" points="637.58,-142.89 630.68,-134.84 631.06,-145.43 637.58,-142.89"/>
</a>
</g>
</g>
</g>
</svg>

<g id="navigator" transform="translate(0 0)" fill="#404254">
  <rect fill="#f2f5e9" fill-opacity="0.5" stroke="#606060" stroke-width=".5" x="0" y="0" width="60" height="60"/>
  <use id="zoomplus" xlink:href="#zoomPlus" x="17" y="9" onmousedown="handleZoom(evt,'in')"/>
  <use id="zoomminus" xlink:href="#zoomMin" x="42" y="9" onmousedown="handleZoom(evt,'out')"/>
  <use id="reset" xlink:href="#resetDef" x="30" y="36" onmousedown="handleReset()"/>
   <use id="arrowup" xlink:href="#arrowUp" x="0" y="0" onmousedown="handlePan(0,-1)"/>
  <use id="arrowright" xlink:href="#arrowRight" x="0" y="0" onmousedown="handlePan(1,0)"/>
  <use id="arrowdown" xlink:href="#arrowDown" x="0" y="0" onmousedown="handlePan(0,1)"/>
  <use id="arrowleft" xlink:href="#arrowLeft" x="0" y="0" onmousedown="handlePan(-1,0)"/>
</g>
<svg viewBox="0 0 15 15" width="100%" height="30px" preserveAspectRatio="xMaxYMin meet">
 <g id="arrow_out" transform="scale(0.3 0.3)">
  <a xlink:href="Operators_8h__incl_org.svg" target="_base">
   <rect id="button" ry="5" rx="5" y="6" x="6" height="38" width="38"
        fill="#f2f5e9" fill-opacity="0.5" stroke="#606060" stroke-width="1.0"/>
   <path id="arrow"
     d="M 11.500037,31.436501 C 11.940474,20.09759 22.043105,11.32322 32.158766,21.979434 L 37.068811,17.246167 C 37.068811,17.246167 37.088388,32 37.088388,32 L 22.160133,31.978069 C 22.160133,31.978069 26.997745,27.140456 26.997745,27.140456 C 18.528582,18.264221 13.291696,25.230495 11.500037,31.436501 z"
     style="fill:#404040;"/>
  </a>
 </g>
</svg>

<style type='text/css'>
<![CDATA[
[data-mouse-over-selected='false'] { opacity: 0.7; }
[data-mouse-over-selected='true']  { opacity: 1.0; }
]]>
</style>
<script type="application/ecmascript"><![CDATA[
document.addEventListener('DOMContentLoaded', (event) => {
  highlightEdges();
  highlightAdjacentNodes();
});
]]></script>
</svg>
