<?xml version="1.0" encoding="UTF-8" standalone="no"?>
<!DOCTYPE svg PUBLIC "-//W3C//DTD SVG 1.1//EN"
 "http://www.w3.org/Graphics/SVG/1.1/DTD/svg11.dtd">
<!-- Generated by graphviz version 2.43.0 (0)
 -->
<!-- Title: /home/runner/work/Weaver/Weaver/include/App/Model/IBM/Landscape/LivingBeings/Animals/Species/Genetics/Traits/TemperatureSection/PawarElement.h Pages: 1 -->
<svg width="1588pt" height="280pt"
 viewBox="0.00 0.00 1588.00 280.00" xmlns="http://www.w3.org/2000/svg" xmlns:xlink="http://www.w3.org/1999/xlink">
<g id="graph0" class="graph" transform="scale(1 1) rotate(0) translate(4 276)">
<title>/home/runner/work/Weaver/Weaver/include/App/Model/IBM/Landscape/LivingBeings/Animals/Species/Genetics/Traits/TemperatureSection/PawarElement.h</title>
<!-- Node1 -->
<g id="Node000001" class="node">
<title>Node1</title>
<g id="a_Node000001"><a xlink:title="Defines the PawarElement enum, representing elements of the Pawar metabolic model.">
<polygon fill="#999999" stroke="#666666" points="507,-272 308,-272 308,-209 507,-209 507,-272"/>
<text text-anchor="start" x="316" y="-260" font-family="Helvetica,sans-Serif" font-size="10.00">/home/runner/work/Weaver</text>
<text text-anchor="start" x="316" y="-249" font-family="Helvetica,sans-Serif" font-size="10.00">/Weaver/include/App/Model</text>
<text text-anchor="start" x="316" y="-238" font-family="Helvetica,sans-Serif" font-size="10.00">/IBM/Landscape/LivingBeings</text>
<text text-anchor="start" x="316" y="-227" font-family="Helvetica,sans-Serif" font-size="10.00">/Animals/Species/Genetics/Traits</text>
<text text-anchor="middle" x="407.5" y="-216" font-family="Helvetica,sans-Serif" font-size="10.00">/TemperatureSection/PawarElement.h</text>
</a>
</g>
</g>
<!-- Node2 -->
<g id="Node000002" class="node">
<title>Node2</title>
<g id="a_Node000002"><a xlink:href="PawarIndividualTraitTemperatureSection_8h.html" target="_top" xlink:title="Defines the PawarIndividualTraitTemperatureSection class for temperature&#45;dependent trait modification...">
<polygon fill="white" stroke="#666666" points="215,-63 0,-63 0,0 215,0 215,-63"/>
<text text-anchor="start" x="8" y="-51" font-family="Helvetica,sans-Serif" font-size="10.00">/home/runner/work/Weaver</text>
<text text-anchor="start" x="8" y="-40" font-family="Helvetica,sans-Serif" font-size="10.00">/Weaver/include/App/Model</text>
<text text-anchor="start" x="8" y="-29" font-family="Helvetica,sans-Serif" font-size="10.00">/IBM/Landscape/LivingBeings</text>
<text text-anchor="start" x="8" y="-18" font-family="Helvetica,sans-Serif" font-size="10.00">/Animals/Genetics/Traits/PawarIndividual</text>
<text text-anchor="middle" x="107.5" y="-7" font-family="Helvetica,sans-Serif" font-size="10.00">TraitTemperatureSection.h</text>
</a>
</g>
</g>
<!-- Node1&#45;&gt;Node2 -->
<g id="edge1_Node000001_Node000002" class="edge">
<title>Node1&#45;&gt;Node2</title>
<g id="a_edge1_Node000001_Node000002"><a xlink:title=" ">
<path fill="none" stroke="#63b8ff" d="M355,-203.27C297.44,-163.56 206.09,-100.53 151.95,-63.17"/>
<polygon fill="#63b8ff" stroke="#63b8ff" points="353.02,-206.16 363.23,-208.96 356.99,-200.4 353.02,-206.16"/>
</a>
</g>
</g>
<!-- Node3 -->
<g id="Node000003" class="node">
<title>Node3</title>
<g id="a_Node000003"><a xlink:href="PawarTraitTemperatureSection_8h.html" target="_top" xlink:title="Defines the PawarTraitTemperatureSection class, handling Pawar metabolic model traits with temperatur...">
<polygon fill="white" stroke="#666666" points="822.5,-173 590.5,-173 590.5,-99 822.5,-99 822.5,-173"/>
<text text-anchor="start" x="598.5" y="-161" font-family="Helvetica,sans-Serif" font-size="10.00">/home/runner/work/Weaver</text>
<text text-anchor="start" x="598.5" y="-150" font-family="Helvetica,sans-Serif" font-size="10.00">/Weaver/include/App/Model</text>
<text text-anchor="start" x="598.5" y="-139" font-family="Helvetica,sans-Serif" font-size="10.00">/IBM/Landscape/LivingBeings</text>
<text text-anchor="start" x="598.5" y="-128" font-family="Helvetica,sans-Serif" font-size="10.00">/Animals/Species/Genetics/Traits</text>
<text text-anchor="start" x="598.5" y="-117" font-family="Helvetica,sans-Serif" font-size="10.00">/TemperatureSection/PawarTraitTemperature</text>
<text text-anchor="middle" x="706.5" y="-106" font-family="Helvetica,sans-Serif" font-size="10.00">Section.h</text>
</a>
</g>
</g>
<!-- Node1&#45;&gt;Node3 -->
<g id="edge2_Node000001_Node000003" class="edge">
<title>Node1&#45;&gt;Node3</title>
<g id="a_edge2_Node000001_Node000003"><a xlink:title=" ">
<path fill="none" stroke="#63b8ff" d="M506.56,-205.54C536.97,-195.12 570.53,-183.61 601.34,-173.05"/>
<polygon fill="#63b8ff" stroke="#63b8ff" points="505.13,-202.33 496.8,-208.89 507.4,-208.95 505.13,-202.33"/>
</a>
</g>
</g>
<!-- Node3&#45;&gt;Node2 -->
<g id="edge3_Node000003_Node000002" class="edge">
<title>Node3&#45;&gt;Node2</title>
<g id="a_edge3_Node000003_Node000002"><a xlink:title=" ">
<path fill="none" stroke="#63b8ff" d="M580.3,-120.02C482.45,-107.48 343.73,-87.69 223.5,-63 220.75,-62.43 217.96,-61.84 215.15,-61.23"/>
<polygon fill="#63b8ff" stroke="#63b8ff" points="579.87,-123.49 590.23,-121.29 580.75,-116.55 579.87,-123.49"/>
</a>
</g>
</g>
<!-- Node4 -->
<g id="Node000004" class="node">
<title>Node4</title>
<g id="a_Node000004"><a xlink:href="BaseTrait_8h.html" target="_top" xlink:title="Defines the BaseTrait class, representing fundamental traits in the simulation.">
<polygon fill="white" stroke="#666666" points="408,-63 233,-63 233,0 408,0 408,-63"/>
<text text-anchor="start" x="241" y="-51" font-family="Helvetica,sans-Serif" font-size="10.00">/home/runner/work/Weaver</text>
<text text-anchor="start" x="241" y="-40" font-family="Helvetica,sans-Serif" font-size="10.00">/Weaver/include/App/Model</text>
<text text-anchor="start" x="241" y="-29" font-family="Helvetica,sans-Serif" font-size="10.00">/IBM/Landscape/LivingBeings</text>
<text text-anchor="start" x="241" y="-18" font-family="Helvetica,sans-Serif" font-size="10.00">/Animals/Species/Genetics/Traits</text>
<text text-anchor="middle" x="320.5" y="-7" font-family="Helvetica,sans-Serif" font-size="10.00">/BaseTrait.h</text>
</a>
</g>
</g>
<!-- Node3&#45;&gt;Node4 -->
<g id="edge4_Node000003_Node000004" class="edge">
<title>Node3&#45;&gt;Node4</title>
<g id="a_edge4_Node000003_Node000004"><a xlink:title=" ">
<path fill="none" stroke="#63b8ff" d="M580.56,-105.6C529.45,-93.18 469.96,-78.11 416.5,-63 413.72,-62.22 410.91,-61.4 408.06,-60.58"/>
<polygon fill="#63b8ff" stroke="#63b8ff" points="579.79,-109.01 590.33,-107.97 581.44,-102.21 579.79,-109.01"/>
</a>
</g>
</g>
<!-- Node5 -->
<g id="Node000005" class="node">
<title>Node5</title>
<g id="a_Node000005"><a xlink:href="CellValueTrait_8h.html" target="_top" xlink:title="Defines the CellValueTrait class, representing traits related to cell values in the simulation.">
<polygon fill="white" stroke="#666666" points="601,-63 426,-63 426,0 601,0 601,-63"/>
<text text-anchor="start" x="434" y="-51" font-family="Helvetica,sans-Serif" font-size="10.00">/home/runner/work/Weaver</text>
<text text-anchor="start" x="434" y="-40" font-family="Helvetica,sans-Serif" font-size="10.00">/Weaver/include/App/Model</text>
<text text-anchor="start" x="434" y="-29" font-family="Helvetica,sans-Serif" font-size="10.00">/IBM/Landscape/LivingBeings</text>
<text text-anchor="start" x="434" y="-18" font-family="Helvetica,sans-Serif" font-size="10.00">/Animals/Species/Genetics/Traits</text>
<text text-anchor="middle" x="513.5" y="-7" font-family="Helvetica,sans-Serif" font-size="10.00">/CellValueTrait.h</text>
</a>
</g>
</g>
<!-- Node3&#45;&gt;Node5 -->
<g id="edge5_Node000003_Node000005" class="edge">
<title>Node3&#45;&gt;Node5</title>
<g id="a_edge5_Node000003_Node000005"><a xlink:title=" ">
<path fill="none" stroke="#63b8ff" d="M629.57,-94.15C610.05,-83.78 589.41,-72.81 571.03,-63.05"/>
<polygon fill="#63b8ff" stroke="#63b8ff" points="627.98,-97.26 638.46,-98.86 631.27,-91.08 627.98,-97.26"/>
</a>
</g>
</g>
<!-- Node6 -->
<g id="Node000006" class="node">
<title>Node6</title>
<g id="a_Node000006"><a xlink:href="EdibilityValueWeightTrait_8h.html" target="_top" xlink:title="Defines the EdibilityValueWeightTrait class, representing traits that affect edibility decisions in a...">
<polygon fill="white" stroke="#666666" points="794,-63 619,-63 619,0 794,0 794,-63"/>
<text text-anchor="start" x="627" y="-51" font-family="Helvetica,sans-Serif" font-size="10.00">/home/runner/work/Weaver</text>
<text text-anchor="start" x="627" y="-40" font-family="Helvetica,sans-Serif" font-size="10.00">/Weaver/include/App/Model</text>
<text text-anchor="start" x="627" y="-29" font-family="Helvetica,sans-Serif" font-size="10.00">/IBM/Landscape/LivingBeings</text>
<text text-anchor="start" x="627" y="-18" font-family="Helvetica,sans-Serif" font-size="10.00">/Animals/Species/Genetics/Traits</text>
<text text-anchor="middle" x="706.5" y="-7" font-family="Helvetica,sans-Serif" font-size="10.00">/EdibilityValueWeightTrait.h</text>
</a>
</g>
</g>
<!-- Node3&#45;&gt;Node6 -->
<g id="edge6_Node000003_Node000006" class="edge">
<title>Node3&#45;&gt;Node6</title>
<g id="a_edge6_Node000003_Node000006"><a xlink:title=" ">
<path fill="none" stroke="#63b8ff" d="M706.5,-88.83C706.5,-80.15 706.5,-71.28 706.5,-63.22"/>
<polygon fill="#63b8ff" stroke="#63b8ff" points="703,-88.86 706.5,-98.86 710,-88.86 703,-88.86"/>
</a>
</g>
</g>
<!-- Node7 -->
<g id="Node000007" class="node">
<title>Node7</title>
<g id="a_Node000007"><a xlink:href="EscapeProbabilityWeightTrait_8h.html" target="_top" xlink:title="Defines the EscapeProbabilityWeightTrait class, representing traits that affect escape probability de...">
<polygon fill="white" stroke="#666666" points="987,-63 812,-63 812,0 987,0 987,-63"/>
<text text-anchor="start" x="820" y="-51" font-family="Helvetica,sans-Serif" font-size="10.00">/home/runner/work/Weaver</text>
<text text-anchor="start" x="820" y="-40" font-family="Helvetica,sans-Serif" font-size="10.00">/Weaver/include/App/Model</text>
<text text-anchor="start" x="820" y="-29" font-family="Helvetica,sans-Serif" font-size="10.00">/IBM/Landscape/LivingBeings</text>
<text text-anchor="start" x="820" y="-18" font-family="Helvetica,sans-Serif" font-size="10.00">/Animals/Species/Genetics/Traits</text>
<text text-anchor="middle" x="899.5" y="-7" font-family="Helvetica,sans-Serif" font-size="10.00">/EscapeProbabilityWeightTrait.h</text>
</a>
</g>
</g>
<!-- Node3&#45;&gt;Node7 -->
<g id="edge7_Node000003_Node000007" class="edge">
<title>Node3&#45;&gt;Node7</title>
<g id="a_edge7_Node000003_Node000007"><a xlink:title=" ">
<path fill="none" stroke="#63b8ff" d="M783.43,-94.15C802.95,-83.78 823.59,-72.81 841.97,-63.05"/>
<polygon fill="#63b8ff" stroke="#63b8ff" points="781.73,-91.08 774.54,-98.86 785.02,-97.26 781.73,-91.08"/>
</a>
</g>
</g>
<!-- Node8 -->
<g id="Node000008" class="node">
<title>Node8</title>
<g id="a_Node000008"><a xlink:href="PredationProbabilityWeightTrait_8h.html" target="_top" xlink:title="Defines the PredationProbabilityWeightTrait class, representing traits that affect predation probabil...">
<polygon fill="white" stroke="#666666" points="1187.5,-63 1005.5,-63 1005.5,0 1187.5,0 1187.5,-63"/>
<text text-anchor="start" x="1013.5" y="-51" font-family="Helvetica,sans-Serif" font-size="10.00">/home/runner/work/Weaver</text>
<text text-anchor="start" x="1013.5" y="-40" font-family="Helvetica,sans-Serif" font-size="10.00">/Weaver/include/App/Model</text>
<text text-anchor="start" x="1013.5" y="-29" font-family="Helvetica,sans-Serif" font-size="10.00">/IBM/Landscape/LivingBeings</text>
<text text-anchor="start" x="1013.5" y="-18" font-family="Helvetica,sans-Serif" font-size="10.00">/Animals/Species/Genetics/Traits</text>
<text text-anchor="middle" x="1096.5" y="-7" font-family="Helvetica,sans-Serif" font-size="10.00">/PredationProbabilityWeightTrait.h</text>
</a>
</g>
</g>
<!-- Node3&#45;&gt;Node8 -->
<g id="edge8_Node000003_Node000008" class="edge">
<title>Node3&#45;&gt;Node8</title>
<g id="a_edge8_Node000003_Node000008"><a xlink:title=" ">
<path fill="none" stroke="#63b8ff" d="M832.35,-105.28C883.45,-92.82 942.95,-77.8 996.5,-63 999.39,-62.2 1002.32,-61.38 1005.27,-60.54"/>
<polygon fill="#63b8ff" stroke="#63b8ff" points="831.47,-101.9 822.58,-107.66 833.12,-108.7 831.47,-101.9"/>
</a>
</g>
</g>
<!-- Node9 -->
<g id="Node000009" class="node">
<title>Node9</title>
<g id="a_Node000009"><a xlink:href="PreferencesTrait_8h.html" target="_top" xlink:title="Defines the PreferencesTrait class, representing traits related to animal preferences in decision&#45;mak...">
<polygon fill="white" stroke="#666666" points="1381,-63 1206,-63 1206,0 1381,0 1381,-63"/>
<text text-anchor="start" x="1214" y="-51" font-family="Helvetica,sans-Serif" font-size="10.00">/home/runner/work/Weaver</text>
<text text-anchor="start" x="1214" y="-40" font-family="Helvetica,sans-Serif" font-size="10.00">/Weaver/include/App/Model</text>
<text text-anchor="start" x="1214" y="-29" font-family="Helvetica,sans-Serif" font-size="10.00">/IBM/Landscape/LivingBeings</text>
<text text-anchor="start" x="1214" y="-18" font-family="Helvetica,sans-Serif" font-size="10.00">/Animals/Species/Genetics/Traits</text>
<text text-anchor="middle" x="1293.5" y="-7" font-family="Helvetica,sans-Serif" font-size="10.00">/PreferencesTrait.h</text>
</a>
</g>
</g>
<!-- Node3&#45;&gt;Node9 -->
<g id="edge9_Node000003_Node000009" class="edge">
<title>Node3&#45;&gt;Node9</title>
<g id="a_edge9_Node000003_Node000009"><a xlink:title=" ">
<path fill="none" stroke="#63b8ff" d="M832.91,-122.01C932.47,-110.45 1074.35,-90.99 1196.5,-63 1199.6,-62.29 1202.74,-61.53 1205.9,-60.73"/>
<polygon fill="#63b8ff" stroke="#63b8ff" points="832.34,-118.56 822.8,-123.18 833.14,-125.51 832.34,-118.56"/>
</a>
</g>
</g>
<!-- Node10 -->
<g id="Node000010" class="node">
<title>Node10</title>
<g id="a_Node000010"><a xlink:href="ProbabilityDensityFunctionTrait_8h.html" target="_top" xlink:title="Defines the ProbabilityDensityFunctionTrait class, a specialized Trait representing probability densi...">
<polygon fill="white" stroke="#666666" points="1580,-63 1399,-63 1399,0 1580,0 1580,-63"/>
<text text-anchor="start" x="1407" y="-51" font-family="Helvetica,sans-Serif" font-size="10.00">/home/runner/work/Weaver</text>
<text text-anchor="start" x="1407" y="-40" font-family="Helvetica,sans-Serif" font-size="10.00">/Weaver/include/App/Model</text>
<text text-anchor="start" x="1407" y="-29" font-family="Helvetica,sans-Serif" font-size="10.00">/IBM/Landscape/LivingBeings</text>
<text text-anchor="start" x="1407" y="-18" font-family="Helvetica,sans-Serif" font-size="10.00">/Animals/Species/Genetics/Traits</text>
<text text-anchor="middle" x="1489.5" y="-7" font-family="Helvetica,sans-Serif" font-size="10.00">/ProbabilityDensityFunctionTrait.h</text>
</a>
</g>
</g>
<!-- Node3&#45;&gt;Node10 -->
<g id="edge10_Node000003_Node000010" class="edge">
<title>Node3&#45;&gt;Node10</title>
<g id="a_edge10_Node000003_Node000010"><a xlink:title=" ">
<path fill="none" stroke="#63b8ff" d="M832.72,-129.06C970.83,-120.86 1198.2,-102.36 1390.5,-63 1393.23,-62.44 1395.99,-61.84 1398.78,-61.2"/>
<polygon fill="#63b8ff" stroke="#63b8ff" points="832.3,-125.58 822.52,-129.65 832.7,-132.56 832.3,-125.58"/>
</a>
</g>
</g>
</g>
</svg>
