<?xml version="1.0" encoding="UTF-8" standalone="no"?>
<!DOCTYPE svg PUBLIC "-//W3C//DTD SVG 1.1//EN"
 "http://www.w3.org/Graphics/SVG/1.1/DTD/svg11.dtd">
<!-- Generated by graphviz version 2.43.0 (0)
 -->
<!-- Title: /home/runner/work/Weaver/Weaver/include/App/Model/IBM/Landscape/Map/Patches/Source/ResourceSource.h Pages: 1 -->
<svg width="1162pt" height="1138pt"
 viewBox="0.00 0.00 1162.00 1138.00" xmlns="http://www.w3.org/2000/svg" xmlns:xlink="http://www.w3.org/1999/xlink">
<g id="graph0" class="graph" transform="scale(1 1) rotate(0) translate(4 1134)">
<title>/home/runner/work/Weaver/Weaver/include/App/Model/IBM/Landscape/Map/Patches/Source/ResourceSource.h</title>
<!-- Node1 -->
<g id="Node000001" class="node">
<title>Node1</title>
<g id="a_Node000001"><a xlink:title="Defines the ResourceSource class representing resource availability in the landscape.">
<polygon fill="#999999" stroke="#666666" points="158,-1130 0,-1130 0,-1078 158,-1078 158,-1130"/>
<text text-anchor="start" x="8" y="-1118" font-family="Helvetica,sans-Serif" font-size="10.00">/home/runner/work/Weaver</text>
<text text-anchor="start" x="8" y="-1107" font-family="Helvetica,sans-Serif" font-size="10.00">/Weaver/include/App/Model</text>
<text text-anchor="start" x="8" y="-1096" font-family="Helvetica,sans-Serif" font-size="10.00">/IBM/Landscape/Map/Patches</text>
<text text-anchor="middle" x="79" y="-1085" font-family="Helvetica,sans-Serif" font-size="10.00">/Source/ResourceSource.h</text>
</a>
</g>
</g>
<!-- Node2 -->
<g id="Node000002" class="node">
<title>Node2</title>
<g id="a_Node000002"><a xlink:href="Landscape_8h.html" target="_top" xlink:title="Doxygen&#45;documented declaration of the Landscape class and related serialization helpers.">
<polygon fill="white" stroke="#666666" points="793.5,-118 636.5,-118 636.5,-77 793.5,-77 793.5,-118"/>
<text text-anchor="start" x="644.5" y="-106" font-family="Helvetica,sans-Serif" font-size="10.00">/home/runner/work/Weaver</text>
<text text-anchor="start" x="644.5" y="-95" font-family="Helvetica,sans-Serif" font-size="10.00">/Weaver/include/App/Model</text>
<text text-anchor="middle" x="715" y="-84" font-family="Helvetica,sans-Serif" font-size="10.00">/IBM/Landscape/Landscape.h</text>
</a>
</g>
</g>
<!-- Node1&#45;&gt;Node2 -->
<g id="edge1_Node000001_Node000002" class="edge">
<title>Node1&#45;&gt;Node2</title>
<g id="a_edge1_Node000001_Node000002"><a xlink:title=" ">
<path fill="none" stroke="#63b8ff" d="M56.27,-1068.94C33.88,-1032.03 3,-970.6 3,-912.5 3,-912.5 3,-912.5 3,-256 3,-127.42 451.26,-103.73 636.43,-99.43"/>
<polygon fill="#63b8ff" stroke="#63b8ff" points="53.51,-1071.13 61.75,-1077.78 59.45,-1067.44 53.51,-1071.13"/>
</a>
</g>
</g>
<!-- Node7 -->
<g id="Node000007" class="node">
<title>Node7</title>
<g id="a_Node000007"><a xlink:href="PatchApplicator_8h.html" target="_top" xlink:title="Defines the PatchApplicator class responsible for applying patches (moisture, resource,...">
<polygon fill="white" stroke="#666666" points="531,-750.5 349,-750.5 349,-698.5 531,-698.5 531,-750.5"/>
<text text-anchor="start" x="357" y="-738.5" font-family="Helvetica,sans-Serif" font-size="10.00">/home/runner/work/Weaver</text>
<text text-anchor="start" x="357" y="-727.5" font-family="Helvetica,sans-Serif" font-size="10.00">/Weaver/include/App/Model</text>
<text text-anchor="start" x="357" y="-716.5" font-family="Helvetica,sans-Serif" font-size="10.00">/IBM/Landscape/Map/TerrainCells</text>
<text text-anchor="middle" x="440" y="-705.5" font-family="Helvetica,sans-Serif" font-size="10.00">/PatchApplicator/PatchApplicator.h</text>
</a>
</g>
</g>
<!-- Node1&#45;&gt;Node7 -->
<g id="edge6_Node000001_Node000007" class="edge">
<title>Node1&#45;&gt;Node7</title>
<g id="a_edge6_Node000001_Node000007"><a xlink:title=" ">
<path fill="none" stroke="#63b8ff" d="M68.02,-1068.01C55.56,-1021.03 41.46,-936.9 79,-880 110.63,-832.06 257.02,-780.29 353.39,-750.51"/>
<polygon fill="#63b8ff" stroke="#63b8ff" points="64.67,-1069.02 70.72,-1077.72 71.42,-1067.15 64.67,-1069.02"/>
</a>
</g>
</g>
<!-- Node18 -->
<g id="Node000018" class="node">
<title>Node18</title>
<g id="a_Node000018"><a xlink:href="CellResourceInterface_8h.html" target="_top" xlink:title="Interface for resources in a terrain cell.">
<polygon fill="white" stroke="#666666" points="574.5,-943 359.5,-943 359.5,-880 574.5,-880 574.5,-943"/>
<text text-anchor="start" x="367.5" y="-931" font-family="Helvetica,sans-Serif" font-size="10.00">/home/runner/work/Weaver</text>
<text text-anchor="start" x="367.5" y="-920" font-family="Helvetica,sans-Serif" font-size="10.00">/Weaver/include/App/Model</text>
<text text-anchor="start" x="367.5" y="-909" font-family="Helvetica,sans-Serif" font-size="10.00">/IBM/Landscape/Map/TerrainCells</text>
<text text-anchor="start" x="367.5" y="-898" font-family="Helvetica,sans-Serif" font-size="10.00">/PatchApplicator/Resources/CellResource</text>
<text text-anchor="middle" x="467" y="-887" font-family="Helvetica,sans-Serif" font-size="10.00">Interface.h</text>
</a>
</g>
</g>
<!-- Node1&#45;&gt;Node18 -->
<g id="edge27_Node000001_Node000018" class="edge">
<title>Node1&#45;&gt;Node18</title>
<g id="a_edge27_Node000001_Node000018"><a xlink:title=" ">
<path fill="none" stroke="#63b8ff" d="M129.12,-1072.77C173.71,-1046.45 241.1,-1008.07 302,-979 328.62,-966.3 358.34,-953.82 385.14,-943.16"/>
<polygon fill="#63b8ff" stroke="#63b8ff" points="127.33,-1069.76 120.51,-1077.87 130.9,-1075.78 127.33,-1069.76"/>
</a>
</g>
</g>
<!-- Node21 -->
<g id="Node000021" class="node">
<title>Node21</title>
<g id="a_Node000021"><a xlink:href="CellResourceInterfaceGrowth_8h.html" target="_top" xlink:title="Growth logic for a resource cell, extending EdibleGrowth.">
<polygon fill="white" stroke="#666666" points="498.5,-1042 311.5,-1042 311.5,-979 498.5,-979 498.5,-1042"/>
<text text-anchor="start" x="319.5" y="-1030" font-family="Helvetica,sans-Serif" font-size="10.00">/home/runner/work/Weaver</text>
<text text-anchor="start" x="319.5" y="-1019" font-family="Helvetica,sans-Serif" font-size="10.00">/Weaver/include/App/Model</text>
<text text-anchor="start" x="319.5" y="-1008" font-family="Helvetica,sans-Serif" font-size="10.00">/IBM/Landscape/Map/TerrainCells</text>
<text text-anchor="start" x="319.5" y="-997" font-family="Helvetica,sans-Serif" font-size="10.00">/PatchApplicator/Resources/Growth</text>
<text text-anchor="middle" x="405" y="-986" font-family="Helvetica,sans-Serif" font-size="10.00">/CellResourceInterfaceGrowth.h</text>
</a>
</g>
</g>
<!-- Node1&#45;&gt;Node21 -->
<g id="edge37_Node000001_Node000021" class="edge">
<title>Node1&#45;&gt;Node21</title>
<g id="a_edge37_Node000001_Node000021"><a xlink:title=" ">
<path fill="none" stroke="#63b8ff" d="M167.97,-1078.03C212.45,-1065.54 266.28,-1050.43 311.39,-1037.77"/>
<polygon fill="#63b8ff" stroke="#63b8ff" points="167.01,-1074.66 158.33,-1080.73 168.91,-1081.4 167.01,-1074.66"/>
</a>
</g>
</g>
<!-- Node3 -->
<g id="Node000003" class="node">
<title>Node3</title>
<g id="a_Node000003"><a xlink:href="IBM_8h.html" target="_top" xlink:title="Definition of the IBM class, representing the core individual&#45;based model of the simulation.">
<polygon fill="white" stroke="#666666" points="490.5,-41 341.5,-41 341.5,0 490.5,0 490.5,-41"/>
<text text-anchor="start" x="349.5" y="-29" font-family="Helvetica,sans-Serif" font-size="10.00">/home/runner/work/Weaver</text>
<text text-anchor="start" x="349.5" y="-18" font-family="Helvetica,sans-Serif" font-size="10.00">/Weaver/include/App/Model</text>
<text text-anchor="middle" x="416" y="-7" font-family="Helvetica,sans-Serif" font-size="10.00">/IBM/IBM.h</text>
</a>
</g>
</g>
<!-- Node2&#45;&gt;Node3 -->
<g id="edge2_Node000002_Node000003" class="edge">
<title>Node2&#45;&gt;Node3</title>
<g id="a_edge2_Node000002_Node000003"><a xlink:title=" ">
<path fill="none" stroke="#63b8ff" d="M627.52,-74.56C584.06,-63.65 532.1,-50.62 490.55,-40.2"/>
<polygon fill="#63b8ff" stroke="#63b8ff" points="626.67,-77.95 637.22,-76.99 628.37,-71.16 626.67,-77.95"/>
</a>
</g>
</g>
<!-- Node4 -->
<g id="Node000004" class="node">
<title>Node4</title>
<g id="a_Node000004"><a xlink:href="AquaticLandscape_8h.html" target="_top" xlink:title="Defines the AquaticLandscape class for aquatic ecosystem simulations.">
<polygon fill="white" stroke="#666666" points="702,-41 508,-41 508,0 702,0 702,-41"/>
<text text-anchor="start" x="516" y="-29" font-family="Helvetica,sans-Serif" font-size="10.00">/home/runner/work/Weaver</text>
<text text-anchor="start" x="516" y="-18" font-family="Helvetica,sans-Serif" font-size="10.00">/Weaver/include/App/Model</text>
<text text-anchor="middle" x="605" y="-7" font-family="Helvetica,sans-Serif" font-size="10.00">/IBM/Landscape/AquaticLandscape.h</text>
</a>
</g>
</g>
<!-- Node2&#45;&gt;Node4 -->
<g id="edge3_Node000002_Node000004" class="edge">
<title>Node2&#45;&gt;Node4</title>
<g id="a_edge3_Node000002_Node000004"><a xlink:title=" ">
<path fill="none" stroke="#63b8ff" d="M677.74,-71.09C663.4,-61.32 647.28,-50.32 633.85,-41.17"/>
<polygon fill="#63b8ff" stroke="#63b8ff" points="676.15,-74.25 686.39,-76.99 680.1,-68.47 676.15,-74.25"/>
</a>
</g>
</g>
<!-- Node5 -->
<g id="Node000005" class="node">
<title>Node5</title>
<g id="a_Node000005"><a xlink:href="ArthropodsLandscape_8h.html" target="_top" xlink:title="Defines the ArthropodsLandscape class for arthropod&#45;specific ecosystem simulations.">
<polygon fill="white" stroke="#666666" points="930,-41 720,-41 720,0 930,0 930,-41"/>
<text text-anchor="start" x="728" y="-29" font-family="Helvetica,sans-Serif" font-size="10.00">/home/runner/work/Weaver</text>
<text text-anchor="start" x="728" y="-18" font-family="Helvetica,sans-Serif" font-size="10.00">/Weaver/include/App/Model</text>
<text text-anchor="middle" x="825" y="-7" font-family="Helvetica,sans-Serif" font-size="10.00">/IBM/Landscape/ArthropodsLandscape.h</text>
</a>
</g>
</g>
<!-- Node2&#45;&gt;Node5 -->
<g id="edge4_Node000002_Node000005" class="edge">
<title>Node2&#45;&gt;Node5</title>
<g id="a_edge4_Node000002_Node000005"><a xlink:title=" ">
<path fill="none" stroke="#63b8ff" d="M752.26,-71.09C766.6,-61.32 782.72,-50.32 796.15,-41.17"/>
<polygon fill="#63b8ff" stroke="#63b8ff" points="749.9,-68.47 743.61,-76.99 753.85,-74.25 749.9,-68.47"/>
</a>
</g>
</g>
<!-- Node6 -->
<g id="Node000006" class="node">
<title>Node6</title>
<g id="a_Node000006"><a xlink:href="DinosaursLandscape_8h.html" target="_top" xlink:title="Defines the DinosaursLandscape class for dinosaur&#45;specific ecosystem simulations.">
<polygon fill="white" stroke="#666666" points="1154,-41 948,-41 948,0 1154,0 1154,-41"/>
<text text-anchor="start" x="956" y="-29" font-family="Helvetica,sans-Serif" font-size="10.00">/home/runner/work/Weaver</text>
<text text-anchor="start" x="956" y="-18" font-family="Helvetica,sans-Serif" font-size="10.00">/Weaver/include/App/Model</text>
<text text-anchor="middle" x="1051" y="-7" font-family="Helvetica,sans-Serif" font-size="10.00">/IBM/Landscape/DinosaursLandscape.h</text>
</a>
</g>
</g>
<!-- Node2&#45;&gt;Node6 -->
<g id="edge5_Node000002_Node000006" class="edge">
<title>Node2&#45;&gt;Node6</title>
<g id="a_edge5_Node000002_Node000006"><a xlink:title=" ">
<path fill="none" stroke="#63b8ff" d="M803.81,-76.68C853.19,-65.66 914.4,-51.99 963.56,-41.02"/>
<polygon fill="#63b8ff" stroke="#63b8ff" points="802.77,-73.32 793.78,-78.92 804.3,-80.15 802.77,-73.32"/>
</a>
</g>
</g>
<!-- Node8 -->
<g id="Node000008" class="node">
<title>Node8</title>
<g id="a_Node000008"><a xlink:href="SpatialTreePatchApplicator_8h.html" target="_top" xlink:title="Defines the SpatialTreePatchApplicator class for applying patches in a spatial tree of terrain cells.">
<polygon fill="white" stroke="#666666" points="481,-657 307,-657 307,-594 481,-594 481,-657"/>
<text text-anchor="start" x="315" y="-645" font-family="Helvetica,sans-Serif" font-size="10.00">/home/runner/work/Weaver</text>
<text text-anchor="start" x="315" y="-634" font-family="Helvetica,sans-Serif" font-size="10.00">/Weaver/include/App/Model</text>
<text text-anchor="start" x="315" y="-623" font-family="Helvetica,sans-Serif" font-size="10.00">/IBM/Landscape/Map/SpatialTree</text>
<text text-anchor="start" x="315" y="-612" font-family="Helvetica,sans-Serif" font-size="10.00">/TerrainCells/PatchApplicator</text>
<text text-anchor="middle" x="394" y="-601" font-family="Helvetica,sans-Serif" font-size="10.00">/SpatialTreePatchApplicator.h</text>
</a>
</g>
</g>
<!-- Node7&#45;&gt;Node8 -->
<g id="edge7_Node000007_Node000008" class="edge">
<title>Node7&#45;&gt;Node8</title>
<g id="a_edge7_Node000007_Node000008"><a xlink:title=" ">
<path fill="none" stroke="#63b8ff" d="M423.66,-689.04C418.72,-678.63 413.34,-667.28 408.53,-657.14"/>
<polygon fill="#63b8ff" stroke="#63b8ff" points="420.59,-690.73 428.03,-698.27 426.91,-687.73 420.59,-690.73"/>
</a>
</g>
</g>
<!-- Node16 -->
<g id="Node000016" class="node">
<title>Node16</title>
<g id="a_Node000016"><a xlink:href="TerrainCell_8h.html" target="_top" xlink:title="Defines the TerrainCell class representing a cell in the landscape.">
<polygon fill="white" stroke="#666666" points="763.5,-651.5 586.5,-651.5 586.5,-599.5 763.5,-599.5 763.5,-651.5"/>
<text text-anchor="start" x="594.5" y="-639.5" font-family="Helvetica,sans-Serif" font-size="10.00">/home/runner/work/Weaver</text>
<text text-anchor="start" x="594.5" y="-628.5" font-family="Helvetica,sans-Serif" font-size="10.00">/Weaver/include/App/Model</text>
<text text-anchor="start" x="594.5" y="-617.5" font-family="Helvetica,sans-Serif" font-size="10.00">/IBM/Landscape/Map/TerrainCells</text>
<text text-anchor="middle" x="675" y="-606.5" font-family="Helvetica,sans-Serif" font-size="10.00">/TerrainCell.h</text>
</a>
</g>
</g>
<!-- Node7&#45;&gt;Node16 -->
<g id="edge20_Node000007_Node000016" class="edge">
<title>Node7&#45;&gt;Node16</title>
<g id="a_edge20_Node000007_Node000016"><a xlink:title=" ">
<path fill="none" stroke="#63b8ff" d="M510.44,-694.42C543.56,-680.75 582.66,-664.62 614.43,-651.5"/>
<polygon fill="#63b8ff" stroke="#63b8ff" points="508.73,-691.34 500.82,-698.39 511.4,-697.81 508.73,-691.34"/>
</a>
</g>
</g>
<!-- Node9 -->
<g id="Node000009" class="node">
<title>Node9</title>
<g id="a_Node000009"><a xlink:href="BranchPatchApplicator_8h.html" target="_top" xlink:title="Defines the BranchPatchApplicator class for applying patches to branch terrain cells in a spatial tre...">
<polygon fill="white" stroke="#666666" points="205,-558 31,-558 31,-495 205,-495 205,-558"/>
<text text-anchor="start" x="39" y="-546" font-family="Helvetica,sans-Serif" font-size="10.00">/home/runner/work/Weaver</text>
<text text-anchor="start" x="39" y="-535" font-family="Helvetica,sans-Serif" font-size="10.00">/Weaver/include/App/Model</text>
<text text-anchor="start" x="39" y="-524" font-family="Helvetica,sans-Serif" font-size="10.00">/IBM/Landscape/Map/SpatialTree</text>
<text text-anchor="start" x="39" y="-513" font-family="Helvetica,sans-Serif" font-size="10.00">/TerrainCells/PatchApplicator</text>
<text text-anchor="middle" x="118" y="-502" font-family="Helvetica,sans-Serif" font-size="10.00">/BranchPatchApplicator.h</text>
</a>
</g>
</g>
<!-- Node8&#45;&gt;Node9 -->
<g id="edge8_Node000008_Node000009" class="edge">
<title>Node8&#45;&gt;Node9</title>
<g id="a_edge8_Node000008_Node000009"><a xlink:title=" ">
<path fill="none" stroke="#63b8ff" d="M297.4,-590.55C267.32,-579.98 234.36,-568.39 204.99,-558.07"/>
<polygon fill="#63b8ff" stroke="#63b8ff" points="296.46,-593.93 307.05,-593.94 298.78,-587.32 296.46,-593.93"/>
</a>
</g>
</g>
<!-- Node13 -->
<g id="Node000013" class="node">
<title>Node13</title>
<g id="a_Node000013"><a xlink:href="LeafPatchApplicator_8h.html" target="_top" xlink:title="Defines the LeafPatchApplicator class for applying patches to leaf terrain cells in a spatial tree.">
<polygon fill="white" stroke="#666666" points="435,-558 261,-558 261,-495 435,-495 435,-558"/>
<text text-anchor="start" x="269" y="-546" font-family="Helvetica,sans-Serif" font-size="10.00">/home/runner/work/Weaver</text>
<text text-anchor="start" x="269" y="-535" font-family="Helvetica,sans-Serif" font-size="10.00">/Weaver/include/App/Model</text>
<text text-anchor="start" x="269" y="-524" font-family="Helvetica,sans-Serif" font-size="10.00">/IBM/Landscape/Map/SpatialTree</text>
<text text-anchor="start" x="269" y="-513" font-family="Helvetica,sans-Serif" font-size="10.00">/TerrainCells/PatchApplicator</text>
<text text-anchor="middle" x="348" y="-502" font-family="Helvetica,sans-Serif" font-size="10.00">/LeafPatchApplicator.h</text>
</a>
</g>
</g>
<!-- Node8&#45;&gt;Node13 -->
<g id="edge13_Node000008_Node000013" class="edge">
<title>Node8&#45;&gt;Node13</title>
<g id="a_edge13_Node000008_Node000013"><a xlink:title=" ">
<path fill="none" stroke="#63b8ff" d="M375.04,-584.52C370.89,-575.78 366.57,-566.65 362.62,-558.32"/>
<polygon fill="#63b8ff" stroke="#63b8ff" points="372,-586.27 379.45,-593.81 378.32,-583.27 372,-586.27"/>
</a>
</g>
</g>
<!-- Node15 -->
<g id="Node000015" class="node">
<title>Node15</title>
<g id="a_Node000015"><a xlink:href="SpatialTreeTerrainCell_8h.html" target="_top" xlink:title="Spatial tree implementation of a terrain cell.">
<polygon fill="white" stroke="#666666" points="647,-552.5 453,-552.5 453,-500.5 647,-500.5 647,-552.5"/>
<text text-anchor="start" x="461" y="-540.5" font-family="Helvetica,sans-Serif" font-size="10.00">/home/runner/work/Weaver</text>
<text text-anchor="start" x="461" y="-529.5" font-family="Helvetica,sans-Serif" font-size="10.00">/Weaver/include/App/Model</text>
<text text-anchor="start" x="461" y="-518.5" font-family="Helvetica,sans-Serif" font-size="10.00">/IBM/Landscape/Map/SpatialTree</text>
<text text-anchor="middle" x="550" y="-507.5" font-family="Helvetica,sans-Serif" font-size="10.00">/TerrainCells/SpatialTreeTerrainCell.h</text>
</a>
</g>
</g>
<!-- Node8&#45;&gt;Node15 -->
<g id="edge16_Node000008_Node000015" class="edge">
<title>Node8&#45;&gt;Node15</title>
<g id="a_edge16_Node000008_Node000015"><a xlink:title=" ">
<path fill="none" stroke="#63b8ff" d="M452.02,-588.43C471.16,-576.52 492.03,-563.54 509.57,-552.64"/>
<polygon fill="#63b8ff" stroke="#63b8ff" points="450,-585.56 443.36,-593.81 453.7,-591.5 450,-585.56"/>
</a>
</g>
</g>
<!-- Node10 -->
<g id="Node000010" class="node">
<title>Node10</title>
<g id="a_Node000010"><a xlink:href="BranchTerrainCell_8h.html" target="_top" xlink:title="Branch node implementation of a spatial tree terrain cell.">
<polygon fill="white" stroke="#666666" points="453,-371 279,-371 279,-319 453,-319 453,-371"/>
<text text-anchor="start" x="287" y="-359" font-family="Helvetica,sans-Serif" font-size="10.00">/home/runner/work/Weaver</text>
<text text-anchor="start" x="287" y="-348" font-family="Helvetica,sans-Serif" font-size="10.00">/Weaver/include/App/Model</text>
<text text-anchor="start" x="287" y="-337" font-family="Helvetica,sans-Serif" font-size="10.00">/IBM/Landscape/Map/SpatialTree</text>
<text text-anchor="middle" x="366" y="-326" font-family="Helvetica,sans-Serif" font-size="10.00">/TerrainCells/BranchTerrainCell.h</text>
</a>
</g>
</g>
<!-- Node9&#45;&gt;Node10 -->
<g id="edge9_Node000009_Node000010" class="edge">
<title>Node9&#45;&gt;Node10</title>
<g id="a_edge9_Node000009_Node000010"><a xlink:title=" ">
<path fill="none" stroke="#63b8ff" d="M143.77,-486.62C162.23,-461.2 189.05,-428.79 219,-407 239.22,-392.29 263.51,-380.35 286.47,-371.07"/>
<polygon fill="#63b8ff" stroke="#63b8ff" points="140.79,-484.77 137.83,-494.95 146.49,-488.84 140.79,-484.77"/>
</a>
</g>
</g>
<!-- Node11 -->
<g id="Node000011" class="node">
<title>Node11</title>
<g id="a_Node000011"><a xlink:href="RootTerrainCell_8h.html" target="_top" xlink:title="Defines the RootTerrainCell class, the top&#45;level node of the spatial tree in the landscape.">
<polygon fill="white" stroke="#666666" points="490,-283 316,-283 316,-231 490,-231 490,-283"/>
<text text-anchor="start" x="324" y="-271" font-family="Helvetica,sans-Serif" font-size="10.00">/home/runner/work/Weaver</text>
<text text-anchor="start" x="324" y="-260" font-family="Helvetica,sans-Serif" font-size="10.00">/Weaver/include/App/Model</text>
<text text-anchor="start" x="324" y="-249" font-family="Helvetica,sans-Serif" font-size="10.00">/IBM/Landscape/Map/SpatialTree</text>
<text text-anchor="middle" x="403" y="-238" font-family="Helvetica,sans-Serif" font-size="10.00">/TerrainCells/RootTerrainCell.h</text>
</a>
</g>
</g>
<!-- Node10&#45;&gt;Node11 -->
<g id="edge10_Node000010_Node000011" class="edge">
<title>Node10&#45;&gt;Node11</title>
<g id="a_edge10_Node000010_Node000011"><a xlink:title=" ">
<path fill="none" stroke="#63b8ff" d="M380.88,-309.4C384.66,-300.63 388.65,-291.36 392.18,-283.16"/>
<polygon fill="#63b8ff" stroke="#63b8ff" points="377.64,-308.09 376.9,-318.66 384.07,-310.86 377.64,-308.09"/>
</a>
</g>
</g>
<!-- Node12 -->
<g id="Node000012" class="node">
<title>Node12</title>
<g id="a_Node000012"><a xlink:href="SpatialTree_8h.html" target="_top" xlink:title="Defines the SpatialTree class, a spatially subdivided map implementation.">
<polygon fill="white" stroke="#666666" points="686.5,-195 503.5,-195 503.5,-154 686.5,-154 686.5,-195"/>
<text text-anchor="start" x="511.5" y="-183" font-family="Helvetica,sans-Serif" font-size="10.00">/home/runner/work/Weaver</text>
<text text-anchor="start" x="511.5" y="-172" font-family="Helvetica,sans-Serif" font-size="10.00">/Weaver/include/App/Model</text>
<text text-anchor="middle" x="595" y="-161" font-family="Helvetica,sans-Serif" font-size="10.00">/IBM/Landscape/Map/SpatialTree.h</text>
</a>
</g>
</g>
<!-- Node11&#45;&gt;Node12 -->
<g id="edge11_Node000011_Node000012" class="edge">
<title>Node11&#45;&gt;Node12</title>
<g id="a_edge11_Node000011_Node000012"><a xlink:title=" ">
<path fill="none" stroke="#63b8ff" d="M472.25,-226.96C497.57,-216.35 525.59,-204.6 548.45,-195.02"/>
<polygon fill="#63b8ff" stroke="#63b8ff" points="470.57,-223.88 462.7,-230.97 473.27,-230.33 470.57,-223.88"/>
</a>
</g>
</g>
<!-- Node12&#45;&gt;Node2 -->
<g id="edge12_Node000012_Node000002" class="edge">
<title>Node12&#45;&gt;Node2</title>
<g id="a_edge12_Node000012_Node000002"><a xlink:title=" ">
<path fill="none" stroke="#63b8ff" d="M634.77,-148.64C650.62,-138.74 668.61,-127.5 683.52,-118.17"/>
<polygon fill="#63b8ff" stroke="#63b8ff" points="632.84,-145.72 626.22,-153.99 636.55,-151.66 632.84,-145.72"/>
</a>
</g>
</g>
<!-- Node14 -->
<g id="Node000014" class="node">
<title>Node14</title>
<g id="a_Node000014"><a xlink:href="LeafTerrainCell_8h.html" target="_top" xlink:title="Leaf node implementation of a spatial tree terrain cell.">
<polygon fill="white" stroke="#666666" points="453,-459 279,-459 279,-407 453,-407 453,-459"/>
<text text-anchor="start" x="287" y="-447" font-family="Helvetica,sans-Serif" font-size="10.00">/home/runner/work/Weaver</text>
<text text-anchor="start" x="287" y="-436" font-family="Helvetica,sans-Serif" font-size="10.00">/Weaver/include/App/Model</text>
<text text-anchor="start" x="287" y="-425" font-family="Helvetica,sans-Serif" font-size="10.00">/IBM/Landscape/Map/SpatialTree</text>
<text text-anchor="middle" x="366" y="-414" font-family="Helvetica,sans-Serif" font-size="10.00">/TerrainCells/LeafTerrainCell.h</text>
</a>
</g>
</g>
<!-- Node13&#45;&gt;Node14 -->
<g id="edge14_Node000013_Node000014" class="edge">
<title>Node13&#45;&gt;Node14</title>
<g id="a_edge14_Node000013_Node000014"><a xlink:title=" ">
<path fill="none" stroke="#63b8ff" d="M356.03,-484.7C357.75,-475.95 359.52,-466.96 361.08,-459.02"/>
<polygon fill="#63b8ff" stroke="#63b8ff" points="352.54,-484.29 354.04,-494.78 359.41,-485.64 352.54,-484.29"/>
</a>
</g>
</g>
<!-- Node14&#45;&gt;Node10 -->
<g id="edge15_Node000014_Node000010" class="edge">
<title>Node14&#45;&gt;Node10</title>
<g id="a_edge15_Node000014_Node000010"><a xlink:title=" ">
<path fill="none" stroke="#63b8ff" d="M366,-396.56C366,-388.04 366,-379.1 366,-371.16"/>
<polygon fill="#63b8ff" stroke="#63b8ff" points="362.5,-396.66 366,-406.66 369.5,-396.66 362.5,-396.66"/>
</a>
</g>
</g>
<!-- Node15&#45;&gt;Node10 -->
<g id="edge18_Node000015_Node000010" class="edge">
<title>Node15&#45;&gt;Node10</title>
<g id="a_edge18_Node000015_Node000010"><a xlink:title=" ">
<path fill="none" stroke="#63b8ff" d="M529.73,-491.74C513.5,-466.49 489.03,-432.13 462,-407 447.39,-393.42 429.37,-381.06 412.9,-371.07"/>
<polygon fill="#63b8ff" stroke="#63b8ff" points="526.82,-493.68 535.12,-500.26 532.73,-489.94 526.82,-493.68"/>
</a>
</g>
</g>
<!-- Node15&#45;&gt;Node12 -->
<g id="edge17_Node000015_Node000012" class="edge">
<title>Node15&#45;&gt;Node12</title>
<g id="a_edge17_Node000015_Node000012"><a xlink:title=" ">
<path fill="none" stroke="#63b8ff" d="M554.53,-490.26C563.91,-417.34 585.17,-251.92 592.48,-195.1"/>
<polygon fill="#63b8ff" stroke="#63b8ff" points="551.04,-489.96 553.24,-500.33 557.98,-490.86 551.04,-489.96"/>
</a>
</g>
</g>
<!-- Node15&#45;&gt;Node14 -->
<g id="edge19_Node000015_Node000014" class="edge">
<title>Node15&#45;&gt;Node14</title>
<g id="a_edge19_Node000015_Node000014"><a xlink:title=" ">
<path fill="none" stroke="#63b8ff" d="M490.74,-496.03C466.81,-484.13 439.5,-470.55 416.54,-459.13"/>
<polygon fill="#63b8ff" stroke="#63b8ff" points="489.21,-499.18 499.72,-500.5 492.33,-492.91 489.21,-499.18"/>
</a>
</g>
</g>
<!-- Node16&#45;&gt;Node2 -->
<g id="edge21_Node000016_Node000002" class="edge">
<title>Node16&#45;&gt;Node2</title>
<g id="a_edge21_Node000016_Node000002"><a xlink:title=" ">
<path fill="none" stroke="#63b8ff" d="M716.44,-592.69C756.13,-558.31 810,-499.55 810,-434 810,-434 810,-434 810,-256 810,-199.48 764.59,-145.82 736.56,-118.09"/>
<polygon fill="#63b8ff" stroke="#63b8ff" points="714.09,-590.1 708.72,-599.24 718.61,-595.44 714.09,-590.1"/>
</a>
</g>
</g>
<!-- Node16&#45;&gt;Node12 -->
<g id="edge25_Node000016_Node000012" class="edge">
<title>Node16&#45;&gt;Node12</title>
<g id="a_edge25_Node000016_Node000012"><a xlink:title=" ">
<path fill="none" stroke="#63b8ff" d="M670.21,-588.99C666.59,-562.93 661.35,-526.71 656,-495 636.79,-381.13 609.34,-245.3 599.08,-195.26"/>
<polygon fill="#63b8ff" stroke="#63b8ff" points="666.78,-589.71 671.61,-599.14 673.71,-588.75 666.78,-589.71"/>
</a>
</g>
</g>
<!-- Node16&#45;&gt;Node15 -->
<g id="edge26_Node000016_Node000015" class="edge">
<title>Node16&#45;&gt;Node15</title>
<g id="a_edge26_Node000016_Node000015"><a xlink:title=" ">
<path fill="none" stroke="#63b8ff" d="M634.42,-593.01C617.55,-579.92 598.24,-564.94 582.35,-552.61"/>
<polygon fill="#63b8ff" stroke="#63b8ff" points="632.44,-595.9 642.48,-599.27 636.73,-590.37 632.44,-595.9"/>
</a>
</g>
</g>
<!-- Node17 -->
<g id="Node000017" class="node">
<title>Node17</title>
<g id="a_Node000017"><a xlink:href="Map_8h.html" target="_top" xlink:title="Defines the Map class for spatial organization of landscapes.">
<polygon fill="white" stroke="#666666" points="782,-277.5 632,-277.5 632,-236.5 782,-236.5 782,-277.5"/>
<text text-anchor="start" x="640" y="-265.5" font-family="Helvetica,sans-Serif" font-size="10.00">/home/runner/work/Weaver</text>
<text text-anchor="start" x="640" y="-254.5" font-family="Helvetica,sans-Serif" font-size="10.00">/Weaver/include/App/Model</text>
<text text-anchor="middle" x="707" y="-243.5" font-family="Helvetica,sans-Serif" font-size="10.00">/IBM/Landscape/Map/Map.h</text>
</a>
</g>
</g>
<!-- Node16&#45;&gt;Node17 -->
<g id="edge22_Node000016_Node000017" class="edge">
<title>Node16&#45;&gt;Node17</title>
<g id="a_edge22_Node000016_Node000017"><a xlink:title=" ">
<path fill="none" stroke="#63b8ff" d="M683.42,-589.32C685.55,-579.26 687.62,-568.24 689,-558 703.12,-453.03 706.17,-325.89 706.82,-277.75"/>
<polygon fill="#63b8ff" stroke="#63b8ff" points="679.93,-588.87 681.2,-599.39 686.77,-590.38 679.93,-588.87"/>
</a>
</g>
</g>
<!-- Node17&#45;&gt;Node2 -->
<g id="edge23_Node000017_Node000002" class="edge">
<title>Node17&#45;&gt;Node2</title>
<g id="a_edge23_Node000017_Node000002"><a xlink:title=" ">
<path fill="none" stroke="#63b8ff" d="M708.53,-225.97C710.13,-194.37 712.61,-145.51 713.99,-118.38"/>
<polygon fill="#63b8ff" stroke="#63b8ff" points="705.01,-226.21 708,-236.37 712,-226.56 705.01,-226.21"/>
</a>
</g>
</g>
<!-- Node17&#45;&gt;Node12 -->
<g id="edge24_Node000017_Node000012" class="edge">
<title>Node17&#45;&gt;Node12</title>
<g id="a_edge24_Node000017_Node000012"><a xlink:title=" ">
<path fill="none" stroke="#63b8ff" d="M671.14,-230.22C655.38,-218.9 637.16,-205.81 622.5,-195.27"/>
<polygon fill="#63b8ff" stroke="#63b8ff" points="669.44,-233.31 679.6,-236.31 673.52,-227.63 669.44,-233.31"/>
</a>
</g>
</g>
<!-- Node18&#45;&gt;Node7 -->
<g id="edge31_Node000018_Node000007" class="edge">
<title>Node18&#45;&gt;Node7</title>
<g id="a_edge31_Node000018_Node000007"><a xlink:title=" ">
<path fill="none" stroke="#63b8ff" d="M461.04,-869.68C455.74,-833.35 448.15,-781.35 443.68,-750.74"/>
<polygon fill="#63b8ff" stroke="#63b8ff" points="457.63,-870.56 462.54,-879.95 464.56,-869.55 457.63,-870.56"/>
</a>
</g>
</g>
<!-- Node19 -->
<g id="Node000019" class="node">
<title>Node19</title>
<g id="a_Node000019"><a xlink:href="BranchCellResource_8h.html" target="_top" xlink:title="Defines the BranchCellResource class for managing resources in branch terrain cells.">
<polygon fill="white" stroke="#666666" points="284.5,-756 105.5,-756 105.5,-693 284.5,-693 284.5,-756"/>
<text text-anchor="start" x="113.5" y="-744" font-family="Helvetica,sans-Serif" font-size="10.00">/home/runner/work/Weaver</text>
<text text-anchor="start" x="113.5" y="-733" font-family="Helvetica,sans-Serif" font-size="10.00">/Weaver/include/App/Model</text>
<text text-anchor="start" x="113.5" y="-722" font-family="Helvetica,sans-Serif" font-size="10.00">/IBM/Landscape/Map/SpatialTree</text>
<text text-anchor="start" x="113.5" y="-711" font-family="Helvetica,sans-Serif" font-size="10.00">/TerrainCells/PatchApplicator</text>
<text text-anchor="middle" x="195" y="-700" font-family="Helvetica,sans-Serif" font-size="10.00">/Resources/BranchCellResource.h</text>
</a>
</g>
</g>
<!-- Node18&#45;&gt;Node19 -->
<g id="edge28_Node000018_Node000019" class="edge">
<title>Node18&#45;&gt;Node19</title>
<g id="a_edge28_Node000018_Node000019"><a xlink:title=" ">
<path fill="none" stroke="#63b8ff" d="M413.55,-874.15C362.89,-839.69 287.65,-788.51 239.98,-756.09"/>
<polygon fill="#63b8ff" stroke="#63b8ff" points="411.85,-877.22 422.08,-879.95 415.78,-871.43 411.85,-877.22"/>
</a>
</g>
</g>
<!-- Node20 -->
<g id="Node000020" class="node">
<title>Node20</title>
<g id="a_Node000020"><a xlink:href="CellResource_8h.html" target="_top" xlink:title="Implementation of a resource cell in a terrain.">
<polygon fill="white" stroke="#666666" points="752,-844 528,-844 528,-792 752,-792 752,-844"/>
<text text-anchor="start" x="536" y="-832" font-family="Helvetica,sans-Serif" font-size="10.00">/home/runner/work/Weaver</text>
<text text-anchor="start" x="536" y="-821" font-family="Helvetica,sans-Serif" font-size="10.00">/Weaver/include/App/Model</text>
<text text-anchor="start" x="536" y="-810" font-family="Helvetica,sans-Serif" font-size="10.00">/IBM/Landscape/Map/TerrainCells</text>
<text text-anchor="middle" x="640" y="-799" font-family="Helvetica,sans-Serif" font-size="10.00">/PatchApplicator/Resources/CellResource.h</text>
</a>
</g>
</g>
<!-- Node18&#45;&gt;Node20 -->
<g id="edge32_Node000018_Node000020" class="edge">
<title>Node18&#45;&gt;Node20</title>
<g id="a_edge32_Node000018_Node000020"><a xlink:title=" ">
<path fill="none" stroke="#63b8ff" d="M533.98,-875.07C553.58,-864.71 574.59,-853.59 592.7,-844.02"/>
<polygon fill="#63b8ff" stroke="#63b8ff" points="532.29,-872.01 525.09,-879.78 535.56,-878.2 532.29,-872.01"/>
</a>
</g>
</g>
<!-- Node19&#45;&gt;Node9 -->
<g id="edge30_Node000019_Node000009" class="edge">
<title>Node19&#45;&gt;Node9</title>
<g id="a_edge30_Node000019_Node000009"><a xlink:title=" ">
<path fill="none" stroke="#63b8ff" d="M179.24,-683.37C164.67,-646.29 143.33,-591.98 130.07,-558.23"/>
<polygon fill="#63b8ff" stroke="#63b8ff" points="176.05,-684.85 182.97,-692.88 182.57,-682.29 176.05,-684.85"/>
</a>
</g>
</g>
<!-- Node19&#45;&gt;Node10 -->
<g id="edge29_Node000019_Node000010" class="edge">
<title>Node19&#45;&gt;Node10</title>
<g id="a_edge29_Node000019_Node000010"><a xlink:title=" ">
<path fill="none" stroke="#63b8ff" d="M200.74,-682.85C211.97,-607.84 238.49,-451.26 270,-407 280.42,-392.36 295.56,-380.42 310.76,-371.11"/>
<polygon fill="#63b8ff" stroke="#63b8ff" points="197.26,-682.47 199.26,-692.88 204.19,-683.49 197.26,-682.47"/>
</a>
</g>
</g>
<!-- Node20&#45;&gt;Node2 -->
<g id="edge33_Node000020_Node000002" class="edge">
<title>Node20&#45;&gt;Node2</title>
<g id="a_edge33_Node000020_Node000002"><a xlink:title=" ">
<path fill="none" stroke="#63b8ff" d="M710.43,-787.47C770.77,-756.91 848,-702.89 848,-626.5 848,-626.5 848,-626.5 848,-256 848,-205.12 829.58,-192.23 796,-154 783.51,-139.78 766.63,-127.46 751.5,-118.06"/>
<polygon fill="#63b8ff" stroke="#63b8ff" points="708.7,-784.42 701.28,-791.99 711.8,-790.7 708.7,-784.42"/>
</a>
</g>
</g>
<!-- Node20&#45;&gt;Node7 -->
<g id="edge35_Node000020_Node000007" class="edge">
<title>Node20&#45;&gt;Node7</title>
<g id="a_edge35_Node000020_Node000007"><a xlink:title=" ">
<path fill="none" stroke="#63b8ff" d="M575.93,-787.69C549.84,-775.75 520,-762.1 494.93,-750.63"/>
<polygon fill="#63b8ff" stroke="#63b8ff" points="574.8,-791.02 585.35,-792 577.71,-784.65 574.8,-791.02"/>
</a>
</g>
</g>
<!-- Node20&#45;&gt;Node13 -->
<g id="edge34_Node000020_Node000013" class="edge">
<title>Node20&#45;&gt;Node13</title>
<g id="a_edge34_Node000020_Node000013"><a xlink:title=" ">
<path fill="none" stroke="#63b8ff" d="M624.33,-782.66C601.02,-734.86 553.12,-648.07 490,-594 473.25,-579.66 452.89,-567.73 432.87,-558.13"/>
<polygon fill="#63b8ff" stroke="#63b8ff" points="621.17,-784.18 628.66,-791.68 627.48,-781.15 621.17,-784.18"/>
</a>
</g>
</g>
<!-- Node20&#45;&gt;Node16 -->
<g id="edge36_Node000020_Node000016" class="edge">
<title>Node20&#45;&gt;Node16</title>
<g id="a_edge36_Node000020_Node000016"><a xlink:title=" ">
<path fill="none" stroke="#63b8ff" d="M646.5,-781.64C653.44,-743.85 664.27,-684.89 670.39,-651.6"/>
<polygon fill="#63b8ff" stroke="#63b8ff" points="643.01,-781.24 644.65,-791.7 649.9,-782.5 643.01,-781.24"/>
</a>
</g>
</g>
<!-- Node21&#45;&gt;Node18 -->
<g id="edge40_Node000021_Node000018" class="edge">
<title>Node21&#45;&gt;Node18</title>
<g id="a_edge40_Node000021_Node000018"><a xlink:title=" ">
<path fill="none" stroke="#63b8ff" d="M430.02,-970.36C435.77,-961.36 441.81,-951.91 447.3,-943.32"/>
<polygon fill="#63b8ff" stroke="#63b8ff" points="427.05,-968.5 424.62,-978.81 432.95,-972.27 427.05,-968.5"/>
</a>
</g>
</g>
<!-- Node22 -->
<g id="Node000022" class="node">
<title>Node22</title>
<g id="a_Node000022"><a xlink:href="BranchCellResourceGrowth_8h.html" target="_top" xlink:title="Defines the BranchCellResourceGrowth class for aggregating resource growth in branch terrain cells.">
<polygon fill="white" stroke="#666666" points="341.5,-943 88.5,-943 88.5,-880 341.5,-880 341.5,-943"/>
<text text-anchor="start" x="96.5" y="-931" font-family="Helvetica,sans-Serif" font-size="10.00">/home/runner/work/Weaver</text>
<text text-anchor="start" x="96.5" y="-920" font-family="Helvetica,sans-Serif" font-size="10.00">/Weaver/include/App/Model</text>
<text text-anchor="start" x="96.5" y="-909" font-family="Helvetica,sans-Serif" font-size="10.00">/IBM/Landscape/Map/SpatialTree</text>
<text text-anchor="start" x="96.5" y="-898" font-family="Helvetica,sans-Serif" font-size="10.00">/TerrainCells/PatchApplicator</text>
<text text-anchor="middle" x="215" y="-887" font-family="Helvetica,sans-Serif" font-size="10.00">/Resources/Growth/BranchCellResourceGrowth.h</text>
</a>
</g>
</g>
<!-- Node21&#45;&gt;Node22 -->
<g id="edge38_Node000021_Node000022" class="edge">
<title>Node21&#45;&gt;Node22</title>
<g id="a_edge38_Node000021_Node000022"><a xlink:title=" ">
<path fill="none" stroke="#63b8ff" d="M336.07,-974.31C316.03,-964.08 294.32,-952.99 274.88,-943.07"/>
<polygon fill="#63b8ff" stroke="#63b8ff" points="334.65,-977.51 345.14,-978.94 337.83,-971.28 334.65,-977.51"/>
</a>
</g>
</g>
<!-- Node23 -->
<g id="Node000023" class="node">
<title>Node23</title>
<g id="a_Node000023"><a xlink:href="CellResourceGrowth_8h.html" target="_top" xlink:title="Concrete implementation of resource growth for a terrain cell.">
<polygon fill="white" stroke="#666666" points="779.5,-943 592.5,-943 592.5,-880 779.5,-880 779.5,-943"/>
<text text-anchor="start" x="600.5" y="-931" font-family="Helvetica,sans-Serif" font-size="10.00">/home/runner/work/Weaver</text>
<text text-anchor="start" x="600.5" y="-920" font-family="Helvetica,sans-Serif" font-size="10.00">/Weaver/include/App/Model</text>
<text text-anchor="start" x="600.5" y="-909" font-family="Helvetica,sans-Serif" font-size="10.00">/IBM/Landscape/Map/TerrainCells</text>
<text text-anchor="start" x="600.5" y="-898" font-family="Helvetica,sans-Serif" font-size="10.00">/PatchApplicator/Resources/Growth</text>
<text text-anchor="middle" x="686" y="-887" font-family="Helvetica,sans-Serif" font-size="10.00">/CellResourceGrowth.h</text>
</a>
</g>
</g>
<!-- Node21&#45;&gt;Node23 -->
<g id="edge41_Node000021_Node000023" class="edge">
<title>Node21&#45;&gt;Node23</title>
<g id="a_edge41_Node000021_Node000023"><a xlink:title=" ">
<path fill="none" stroke="#63b8ff" d="M503.35,-975.55C533.97,-964.98 567.53,-953.39 597.44,-943.07"/>
<polygon fill="#63b8ff" stroke="#63b8ff" points="501.84,-972.37 493.52,-978.94 504.12,-978.99 501.84,-972.37"/>
</a>
</g>
</g>
<!-- Node22&#45;&gt;Node19 -->
<g id="edge39_Node000022_Node000019" class="edge">
<title>Node22&#45;&gt;Node19</title>
<g id="a_edge39_Node000022_Node000019"><a xlink:title=" ">
<path fill="none" stroke="#63b8ff" d="M210.6,-869.79C206.89,-835.49 201.67,-787.18 198.31,-756.09"/>
<polygon fill="#63b8ff" stroke="#63b8ff" points="207.14,-870.39 211.7,-879.95 214.1,-869.63 207.14,-870.39"/>
</a>
</g>
</g>
<!-- Node23&#45;&gt;Node20 -->
<g id="edge42_Node000023_Node000020" class="edge">
<title>Node23&#45;&gt;Node20</title>
<g id="a_edge42_Node000023_Node000020"><a xlink:title=" ">
<path fill="none" stroke="#63b8ff" d="M666.06,-870.84C661.48,-861.73 656.74,-852.3 652.58,-844.02"/>
<polygon fill="#63b8ff" stroke="#63b8ff" points="662.94,-872.41 670.55,-879.78 669.19,-869.27 662.94,-872.41"/>
</a>
</g>
</g>
</g>
</svg>
