<?xml version="1.0" encoding="UTF-8" standalone="no"?>
<!DOCTYPE svg PUBLIC "-//W3C//DTD SVG 1.1//EN"
 "http://www.w3.org/Graphics/SVG/1.1/DTD/svg11.dtd">
<!-- Generated by graphviz version 2.43.0 (0)
 -->
<!-- Title: /home/runner/work/Weaver/Weaver/include/App/Model/IBM/Physics/Temperature.h Pages: 1 -->
<svg width="939pt" height="181pt"
 viewBox="0.00 0.00 938.50 181.00" xmlns="http://www.w3.org/2000/svg" xmlns:xlink="http://www.w3.org/1999/xlink">
<g id="graph0" class="graph" transform="scale(1 1) rotate(0) translate(4 177)">
<title>/home/runner/work/Weaver/Weaver/include/App/Model/IBM/Physics/Temperature.h</title>
<!-- Node1 -->
<g id="Node000001" class="node">
<title>Node1</title>
<g id="a_Node000001"><a xlink:title="Definition of the Temperature class and related operations.">
<polygon fill="#999999" stroke="#666666" points="514.5,-173 362.5,-173 362.5,-132 514.5,-132 514.5,-173"/>
<text text-anchor="start" x="370.5" y="-161" font-family="Helvetica,sans-Serif" font-size="10.00">/home/runner/work/Weaver</text>
<text text-anchor="start" x="370.5" y="-150" font-family="Helvetica,sans-Serif" font-size="10.00">/Weaver/include/App/Model</text>
<text text-anchor="middle" x="438.5" y="-139" font-family="Helvetica,sans-Serif" font-size="10.00">/IBM/Physics/Temperature.h</text>
</a>
</g>
</g>
<!-- Node2 -->
<g id="Node000002" class="node">
<title>Node2</title>
<g id="a_Node000002"><a xlink:title=" ">
<polygon fill="#e0e0e0" stroke="#999999" points="105,-30 0,-30 0,0 105,0 105,-30"/>
<text text-anchor="start" x="8" y="-18" font-family="Helvetica,sans-Serif" font-size="10.00">boost/archive/text</text>
<text text-anchor="middle" x="52.5" y="-7" font-family="Helvetica,sans-Serif" font-size="10.00">_iarchive.hpp</text>
</a>
</g>
</g>
<!-- Node1&#45;&gt;Node2 -->
<g id="edge1_Node000001_Node000002" class="edge">
<title>Node1&#45;&gt;Node2</title>
<g id="a_edge1_Node000001_Node000002"><a xlink:title=" ">
<path fill="none" stroke="#63b8ff" d="M378.83,-131.97C347.17,-121.5 307.65,-108.26 272.5,-96 212.62,-75.11 144,-49.96 99.54,-33.51"/>
<polygon fill="#63b8ff" stroke="#63b8ff" points="100.75,-30.22 90.15,-30.03 98.32,-36.79 100.75,-30.22"/>
</a>
</g>
</g>
<!-- Node3 -->
<g id="Node000003" class="node">
<title>Node3</title>
<g id="a_Node000003"><a xlink:title=" ">
<polygon fill="#e0e0e0" stroke="#999999" points="228,-30 123,-30 123,0 228,0 228,-30"/>
<text text-anchor="start" x="131" y="-18" font-family="Helvetica,sans-Serif" font-size="10.00">boost/archive/text</text>
<text text-anchor="middle" x="175.5" y="-7" font-family="Helvetica,sans-Serif" font-size="10.00">_oarchive.hpp</text>
</a>
</g>
</g>
<!-- Node1&#45;&gt;Node3 -->
<g id="edge2_Node000001_Node000003" class="edge">
<title>Node1&#45;&gt;Node3</title>
<g id="a_edge2_Node000001_Node000003"><a xlink:title=" ">
<path fill="none" stroke="#63b8ff" d="M400.54,-131.94C350.16,-105.98 261.79,-60.46 212.1,-34.86"/>
<polygon fill="#63b8ff" stroke="#63b8ff" points="213.49,-31.64 203,-30.17 210.29,-37.86 213.49,-31.64"/>
</a>
</g>
</g>
<!-- Node4 -->
<g id="Node000004" class="node">
<title>Node4</title>
<g id="a_Node000004"><a xlink:title=" ">
<polygon fill="#e0e0e0" stroke="#999999" points="362.5,-30 246.5,-30 246.5,0 362.5,0 362.5,-30"/>
<text text-anchor="start" x="254.5" y="-18" font-family="Helvetica,sans-Serif" font-size="10.00">boost/archive/binary</text>
<text text-anchor="middle" x="304.5" y="-7" font-family="Helvetica,sans-Serif" font-size="10.00">_iarchive.hpp</text>
</a>
</g>
</g>
<!-- Node1&#45;&gt;Node4 -->
<g id="edge3_Node000001_Node000004" class="edge">
<title>Node1&#45;&gt;Node4</title>
<g id="a_edge3_Node000001_Node000004"><a xlink:title=" ">
<path fill="none" stroke="#63b8ff" d="M419.02,-131.8C394.17,-106.68 351.38,-63.41 325.73,-37.47"/>
<polygon fill="#63b8ff" stroke="#63b8ff" points="328.19,-34.98 318.67,-30.33 323.21,-39.9 328.19,-34.98"/>
</a>
</g>
</g>
<!-- Node5 -->
<g id="Node000005" class="node">
<title>Node5</title>
<g id="a_Node000005"><a xlink:title=" ">
<polygon fill="#e0e0e0" stroke="#999999" points="496.5,-30 380.5,-30 380.5,0 496.5,0 496.5,-30"/>
<text text-anchor="start" x="388.5" y="-18" font-family="Helvetica,sans-Serif" font-size="10.00">boost/archive/binary</text>
<text text-anchor="middle" x="438.5" y="-7" font-family="Helvetica,sans-Serif" font-size="10.00">_oarchive.hpp</text>
</a>
</g>
</g>
<!-- Node1&#45;&gt;Node5 -->
<g id="edge4_Node000001_Node000005" class="edge">
<title>Node1&#45;&gt;Node5</title>
<g id="a_edge4_Node000001_Node000005"><a xlink:title=" ">
<path fill="none" stroke="#63b8ff" d="M438.5,-131.8C438.5,-107.65 438.5,-66.72 438.5,-40.55"/>
<polygon fill="#63b8ff" stroke="#63b8ff" points="442,-40.33 438.5,-30.33 435,-40.33 442,-40.33"/>
</a>
</g>
</g>
<!-- Node6 -->
<g id="Node000006" class="node">
<title>Node6</title>
<g id="a_Node000006"><a xlink:title=" ">
<polygon fill="#e0e0e0" stroke="#999999" points="682,-90.5 627,-90.5 627,-71.5 682,-71.5 682,-90.5"/>
<text text-anchor="middle" x="654.5" y="-78.5" font-family="Helvetica,sans-Serif" font-size="10.00">fstream</text>
</a>
</g>
</g>
<!-- Node1&#45;&gt;Node6 -->
<g id="edge5_Node000001_Node000006" class="edge">
<title>Node1&#45;&gt;Node6</title>
<g id="a_edge5_Node000001_Node000006"><a xlink:title=" ">
<path fill="none" stroke="#63b8ff" d="M505.97,-131.95C539.92,-121.79 581.59,-108.85 618.5,-96 620.15,-95.42 621.85,-94.82 623.55,-94.2"/>
<polygon fill="#63b8ff" stroke="#63b8ff" points="625.14,-97.34 633.27,-90.55 622.68,-90.79 625.14,-97.34"/>
</a>
</g>
</g>
<!-- Node7 -->
<g id="Node000007" class="node">
<title>Node7</title>
<g id="a_Node000007"><a xlink:title=" ">
<polygon fill="#e0e0e0" stroke="#999999" points="580,-24.5 515,-24.5 515,-5.5 580,-5.5 580,-24.5"/>
<text text-anchor="middle" x="547.5" y="-12.5" font-family="Helvetica,sans-Serif" font-size="10.00">functional</text>
</a>
</g>
</g>
<!-- Node1&#45;&gt;Node7 -->
<g id="edge6_Node000001_Node000007" class="edge">
<title>Node1&#45;&gt;Node7</title>
<g id="a_edge6_Node000001_Node000007"><a xlink:title=" ">
<path fill="none" stroke="#63b8ff" d="M444.18,-131.9C450.23,-113.45 461.21,-85.77 477.5,-66 489.73,-51.16 507.37,-38.59 521.88,-29.77"/>
<polygon fill="#63b8ff" stroke="#63b8ff" points="524,-32.59 530.88,-24.53 520.48,-26.54 524,-32.59"/>
</a>
</g>
</g>
<!-- Node8 -->
<g id="Node000008" class="node">
<title>Node8</title>
<g id="a_Node000008"><a xlink:title=" ">
<polygon fill="#e0e0e0" stroke="#999999" points="765,-90.5 700,-90.5 700,-71.5 765,-71.5 765,-90.5"/>
<text text-anchor="middle" x="732.5" y="-78.5" font-family="Helvetica,sans-Serif" font-size="10.00">stdexcept</text>
</a>
</g>
</g>
<!-- Node1&#45;&gt;Node8 -->
<g id="edge7_Node000001_Node000008" class="edge">
<title>Node1&#45;&gt;Node8</title>
<g id="a_edge7_Node000001_Node000008"><a xlink:title=" ">
<path fill="none" stroke="#63b8ff" d="M514.61,-137.14C565.13,-127.04 632.71,-112.43 691.5,-96 693.97,-95.31 696.51,-94.55 699.06,-93.76"/>
<polygon fill="#63b8ff" stroke="#63b8ff" points="700.36,-97.02 708.79,-90.6 698.2,-90.36 700.36,-97.02"/>
</a>
</g>
</g>
<!-- Node9 -->
<g id="Node000009" class="node">
<title>Node9</title>
<g id="a_Node000009"><a xlink:href="PreciseDouble_8h.html" target="_top" xlink:title="Defines the PreciseDouble class for safe and precise double&#45;precision arithmetic.">
<polygon fill="white" stroke="#666666" points="609,-96 486,-96 486,-66 609,-66 609,-96"/>
<text text-anchor="start" x="494" y="-84" font-family="Helvetica,sans-Serif" font-size="10.00">App/Model/IBM/Maths</text>
<text text-anchor="middle" x="547.5" y="-73" font-family="Helvetica,sans-Serif" font-size="10.00">/PreciseDouble.h</text>
</a>
</g>
</g>
<!-- Node1&#45;&gt;Node9 -->
<g id="edge8_Node000001_Node000009" class="edge">
<title>Node1&#45;&gt;Node9</title>
<g id="a_edge8_Node000001_Node000009"><a xlink:title=" ">
<path fill="none" stroke="#63b8ff" d="M469.15,-131.96C483.96,-122.51 501.7,-111.2 516.55,-101.74"/>
<polygon fill="#63b8ff" stroke="#63b8ff" points="518.82,-104.44 525.37,-96.11 515.05,-98.54 518.82,-104.44"/>
</a>
</g>
</g>
<!-- Node9&#45;&gt;Node2 -->
<g id="edge9_Node000009_Node000002" class="edge">
<title>Node9&#45;&gt;Node2</title>
<g id="a_edge9_Node000009_Node000002"><a xlink:title=" ">
<path fill="none" stroke="#63b8ff" d="M485.74,-75.06C403.28,-67.97 252.52,-53.34 115.19,-30.18"/>
<polygon fill="#63b8ff" stroke="#63b8ff" points="115.78,-26.73 105.33,-28.5 114.6,-33.63 115.78,-26.73"/>
</a>
</g>
</g>
<!-- Node9&#45;&gt;Node3 -->
<g id="edge10_Node000009_Node000003" class="edge">
<title>Node9&#45;&gt;Node3</title>
<g id="a_edge10_Node000009_Node000003"><a xlink:title=" ">
<path fill="none" stroke="#63b8ff" d="M485.84,-71.21C425.34,-62.32 330.25,-47.66 238.26,-30.07"/>
<polygon fill="#63b8ff" stroke="#63b8ff" points="238.7,-26.59 228.22,-28.14 237.38,-33.47 238.7,-26.59"/>
</a>
</g>
</g>
<!-- Node9&#45;&gt;Node4 -->
<g id="edge11_Node000009_Node000004" class="edge">
<title>Node9&#45;&gt;Node4</title>
<g id="a_edge11_Node000009_Node000004"><a xlink:title=" ">
<path fill="none" stroke="#63b8ff" d="M494.17,-65.95C456.82,-56.12 406.76,-42.93 367.45,-32.58"/>
<polygon fill="#63b8ff" stroke="#63b8ff" points="368.26,-29.17 357.7,-30.01 366.48,-35.94 368.26,-29.17"/>
</a>
</g>
</g>
<!-- Node9&#45;&gt;Node5 -->
<g id="edge12_Node000009_Node000005" class="edge">
<title>Node9&#45;&gt;Node5</title>
<g id="a_edge12_Node000009_Node000005"><a xlink:title=" ">
<path fill="none" stroke="#63b8ff" d="M523.58,-65.95C508.25,-56.95 488.14,-45.14 471.32,-35.27"/>
<polygon fill="#63b8ff" stroke="#63b8ff" points="472.76,-32.06 462.36,-30.01 469.22,-38.09 472.76,-32.06"/>
</a>
</g>
</g>
<!-- Node9&#45;&gt;Node7 -->
<g id="edge18_Node000009_Node000007" class="edge">
<title>Node9&#45;&gt;Node7</title>
<g id="a_edge18_Node000009_Node000007"><a xlink:title=" ">
<path fill="none" stroke="#63b8ff" d="M547.5,-65.8C547.5,-56.7 547.5,-44.79 547.5,-34.9"/>
<polygon fill="#63b8ff" stroke="#63b8ff" points="551,-34.84 547.5,-24.84 544,-34.84 551,-34.84"/>
</a>
</g>
</g>
<!-- Node10 -->
<g id="Node000010" class="node">
<title>Node10</title>
<g id="a_Node000010"><a xlink:title=" ">
<polygon fill="#e0e0e0" stroke="#999999" points="642.5,-24.5 598.5,-24.5 598.5,-5.5 642.5,-5.5 642.5,-24.5"/>
<text text-anchor="middle" x="620.5" y="-12.5" font-family="Helvetica,sans-Serif" font-size="10.00">string</text>
</a>
</g>
</g>
<!-- Node9&#45;&gt;Node10 -->
<g id="edge13_Node000009_Node000010" class="edge">
<title>Node9&#45;&gt;Node10</title>
<g id="a_edge13_Node000009_Node000010"><a xlink:title=" ">
<path fill="none" stroke="#63b8ff" d="M563.7,-65.8C575.3,-55.62 590.92,-41.93 602.84,-31.48"/>
<polygon fill="#63b8ff" stroke="#63b8ff" points="605.2,-34.07 610.41,-24.84 600.59,-28.8 605.2,-34.07"/>
</a>
</g>
</g>
<!-- Node11 -->
<g id="Node000011" class="node">
<title>Node11</title>
<g id="a_Node000011"><a xlink:title=" ">
<polygon fill="#e0e0e0" stroke="#999999" points="708,-24.5 661,-24.5 661,-5.5 708,-5.5 708,-24.5"/>
<text text-anchor="middle" x="684.5" y="-12.5" font-family="Helvetica,sans-Serif" font-size="10.00">cmath</text>
</a>
</g>
</g>
<!-- Node9&#45;&gt;Node11 -->
<g id="edge14_Node000009_Node000011" class="edge">
<title>Node9&#45;&gt;Node11</title>
<g id="a_edge14_Node000009_Node000011"><a xlink:title=" ">
<path fill="none" stroke="#63b8ff" d="M577.57,-65.95C601.27,-54.88 634.06,-39.56 657.06,-28.82"/>
<polygon fill="#63b8ff" stroke="#63b8ff" points="658.69,-31.92 666.27,-24.52 655.73,-25.58 658.69,-31.92"/>
</a>
</g>
</g>
<!-- Node12 -->
<g id="Node000012" class="node">
<title>Node12</title>
<g id="a_Node000012"><a xlink:title=" ">
<polygon fill="#e0e0e0" stroke="#999999" points="790.5,-24.5 726.5,-24.5 726.5,-5.5 790.5,-5.5 790.5,-24.5"/>
<text text-anchor="middle" x="758.5" y="-12.5" font-family="Helvetica,sans-Serif" font-size="10.00">algorithm</text>
</a>
</g>
</g>
<!-- Node9&#45;&gt;Node12 -->
<g id="edge15_Node000009_Node000012" class="edge">
<title>Node9&#45;&gt;Node12</title>
<g id="a_edge15_Node000009_Node000012"><a xlink:title=" ">
<path fill="none" stroke="#63b8ff" d="M597.51,-65.9C631.47,-56.18 677.33,-42.76 717.5,-30 719.66,-29.32 721.87,-28.6 724.1,-27.87"/>
<polygon fill="#63b8ff" stroke="#63b8ff" points="725.47,-31.1 733.84,-24.61 723.25,-24.46 725.47,-31.1"/>
</a>
</g>
</g>
<!-- Node13 -->
<g id="Node000013" class="node">
<title>Node13</title>
<g id="a_Node000013"><a xlink:title=" ">
<polygon fill="#e0e0e0" stroke="#999999" points="868.5,-24.5 808.5,-24.5 808.5,-5.5 868.5,-5.5 868.5,-24.5"/>
<text text-anchor="middle" x="838.5" y="-12.5" font-family="Helvetica,sans-Serif" font-size="10.00">iostream</text>
</a>
</g>
</g>
<!-- Node9&#45;&gt;Node13 -->
<g id="edge16_Node000009_Node000013" class="edge">
<title>Node9&#45;&gt;Node13</title>
<g id="a_edge16_Node000009_Node000013"><a xlink:title=" ">
<path fill="none" stroke="#63b8ff" d="M609.06,-67.84C682.91,-53.25 797.18,-30.64 799.5,-30 801.93,-29.33 804.42,-28.58 806.91,-27.78"/>
<polygon fill="#63b8ff" stroke="#63b8ff" points="808.06,-31.09 816.41,-24.57 805.82,-24.46 808.06,-31.09"/>
</a>
</g>
</g>
<!-- Node14 -->
<g id="Node000014" class="node">
<title>Node14</title>
<g id="a_Node000014"><a xlink:title=" ">
<polygon fill="#e0e0e0" stroke="#999999" points="930.5,-24.5 886.5,-24.5 886.5,-5.5 930.5,-5.5 930.5,-24.5"/>
<text text-anchor="middle" x="908.5" y="-12.5" font-family="Helvetica,sans-Serif" font-size="10.00">limits</text>
</a>
</g>
</g>
<!-- Node9&#45;&gt;Node14 -->
<g id="edge17_Node000009_Node000014" class="edge">
<title>Node9&#45;&gt;Node14</title>
<g id="a_edge17_Node000009_Node000014"><a xlink:title=" ">
<path fill="none" stroke="#63b8ff" d="M609.03,-67.65C612.23,-67.07 615.4,-66.52 618.5,-66 733.11,-46.75 765.85,-62.25 877.5,-30 879.14,-29.53 880.8,-28.98 882.46,-28.39"/>
<polygon fill="#63b8ff" stroke="#63b8ff" points="883.83,-31.61 891.78,-24.6 881.19,-25.13 883.83,-31.61"/>
</a>
</g>
</g>
</g>
</svg>
