<?xml version="1.0" encoding="UTF-8" standalone="no"?>
<!DOCTYPE svg PUBLIC "-//W3C//DTD SVG 1.1//EN"
 "http://www.w3.org/Graphics/SVG/1.1/DTD/svg11.dtd">
<!-- Generated by graphviz version 2.43.0 (0)
 -->
<!-- Title: /home/runner/work/Weaver/Weaver/include/Misc/Types.h Pages: 1 -->
<svg width="1137pt" height="170pt"
 viewBox="0.00 0.00 1137.00 170.00" xmlns="http://www.w3.org/2000/svg" xmlns:xlink="http://www.w3.org/1999/xlink">
<g id="graph0" class="graph" transform="scale(1 1) rotate(0) translate(4 166)">
<title>/home/runner/work/Weaver/Weaver/include/Misc/Types.h</title>
<!-- Node1 -->
<g id="Node000001" class="node">
<title>Node1</title>
<g id="a_Node000001"><a xlink:title="Defines common type aliases and constants used throughout the Weaver project.">
<polygon fill="#999999" stroke="#666666" points="615.5,-162 455.5,-162 455.5,-132 615.5,-132 615.5,-162"/>
<text text-anchor="start" x="463.5" y="-150" font-family="Helvetica,sans-Serif" font-size="10.00">/home/runner/work/Weaver</text>
<text text-anchor="middle" x="535.5" y="-139" font-family="Helvetica,sans-Serif" font-size="10.00">/Weaver/include/Misc/Types.h</text>
</a>
</g>
</g>
<!-- Node2 -->
<g id="Node000002" class="node">
<title>Node2</title>
<g id="a_Node000002"><a xlink:href="Coordinate3D_8h.html" target="_top" xlink:title="Defines a templated 3D coordinate class with Boost.Serialization support.">
<polygon fill="white" stroke="#666666" points="302.5,-90.5 210.5,-90.5 210.5,-71.5 302.5,-71.5 302.5,-90.5"/>
<text text-anchor="middle" x="256.5" y="-78.5" font-family="Helvetica,sans-Serif" font-size="10.00">Coordinate3D.h</text>
</a>
</g>
</g>
<!-- Node1&#45;&gt;Node2 -->
<g id="edge1_Node000001_Node000002" class="edge">
<title>Node1&#45;&gt;Node2</title>
<g id="a_edge1_Node000001_Node000002"><a xlink:title=" ">
<path fill="none" stroke="#63b8ff" d="M474.27,-131.95C422.86,-120.16 350.49,-103.56 303.54,-92.79"/>
<polygon fill="#63b8ff" stroke="#63b8ff" points="304.16,-89.34 293.63,-90.52 302.59,-96.16 304.16,-89.34"/>
</a>
</g>
</g>
<!-- Node7 -->
<g id="Node000007" class="node">
<title>Node7</title>
<g id="a_Node000007"><a xlink:title=" ">
<polygon fill="#e0e0e0" stroke="#999999" points="751.5,-90.5 707.5,-90.5 707.5,-71.5 751.5,-71.5 751.5,-90.5"/>
<text text-anchor="middle" x="729.5" y="-78.5" font-family="Helvetica,sans-Serif" font-size="10.00">cfloat</text>
</a>
</g>
</g>
<!-- Node1&#45;&gt;Node7 -->
<g id="edge6_Node000001_Node000007" class="edge">
<title>Node1&#45;&gt;Node7</title>
<g id="a_edge6_Node000001_Node000007"><a xlink:title=" ">
<path fill="none" stroke="#63b8ff" d="M587.08,-131.99C619.43,-122.76 661.81,-109.85 698.5,-96 699.71,-95.54 700.94,-95.06 702.18,-94.56"/>
<polygon fill="#63b8ff" stroke="#63b8ff" points="703.8,-97.68 711.63,-90.53 701.06,-91.24 703.8,-97.68"/>
</a>
</g>
</g>
<!-- Node8 -->
<g id="Node000008" class="node">
<title>Node8</title>
<g id="a_Node000008"><a xlink:title=" ">
<polygon fill="#e0e0e0" stroke="#999999" points="510.5,-24.5 466.5,-24.5 466.5,-5.5 510.5,-5.5 510.5,-24.5"/>
<text text-anchor="middle" x="488.5" y="-12.5" font-family="Helvetica,sans-Serif" font-size="10.00">limits</text>
</a>
</g>
</g>
<!-- Node1&#45;&gt;Node8 -->
<g id="edge7_Node000001_Node000008" class="edge">
<title>Node1&#45;&gt;Node8</title>
<g id="a_edge7_Node000001_Node000008"><a xlink:title=" ">
<path fill="none" stroke="#63b8ff" d="M530.38,-131.84C521.81,-108.13 504.56,-60.41 495.09,-34.23"/>
<polygon fill="#63b8ff" stroke="#63b8ff" points="498.35,-32.96 491.66,-24.75 491.77,-35.34 498.35,-32.96"/>
</a>
</g>
</g>
<!-- Node9 -->
<g id="Node000009" class="node">
<title>Node9</title>
<g id="a_Node000009"><a xlink:href="PreciseDouble_8h.html" target="_top" xlink:title="Defines the PreciseDouble class for safe and precise double&#45;precision arithmetic.">
<polygon fill="white" stroke="#666666" points="689,-96 566,-96 566,-66 689,-66 689,-96"/>
<text text-anchor="start" x="574" y="-84" font-family="Helvetica,sans-Serif" font-size="10.00">App/Model/IBM/Maths</text>
<text text-anchor="middle" x="627.5" y="-73" font-family="Helvetica,sans-Serif" font-size="10.00">/PreciseDouble.h</text>
</a>
</g>
</g>
<!-- Node1&#45;&gt;Node9 -->
<g id="edge8_Node000001_Node000009" class="edge">
<title>Node1&#45;&gt;Node9</title>
<g id="a_edge8_Node000001_Node000009"><a xlink:title=" ">
<path fill="none" stroke="#63b8ff" d="M555.92,-131.8C568.54,-123.01 584.94,-111.61 598.85,-101.93"/>
<polygon fill="#63b8ff" stroke="#63b8ff" points="600.93,-104.75 607.14,-96.16 596.93,-99 600.93,-104.75"/>
</a>
</g>
</g>
<!-- Node3 -->
<g id="Node000003" class="node">
<title>Node3</title>
<g id="a_Node000003"><a xlink:title=" ">
<polygon fill="#e0e0e0" stroke="#999999" points="107,-30 0,-30 0,0 107,0 107,-30"/>
<text text-anchor="start" x="8" y="-18" font-family="Helvetica,sans-Serif" font-size="10.00">boost/serialization</text>
<text text-anchor="middle" x="53.5" y="-7" font-family="Helvetica,sans-Serif" font-size="10.00">/access.hpp</text>
</a>
</g>
</g>
<!-- Node2&#45;&gt;Node3 -->
<g id="edge2_Node000002_Node000003" class="edge">
<title>Node2&#45;&gt;Node3</title>
<g id="a_edge2_Node000002_Node000003"><a xlink:title=" ">
<path fill="none" stroke="#63b8ff" d="M229.12,-71.37C198.19,-61.62 147.08,-45.5 107.94,-33.16"/>
<polygon fill="#63b8ff" stroke="#63b8ff" points="108.86,-29.78 98.27,-30.12 106.76,-36.46 108.86,-29.78"/>
</a>
</g>
</g>
<!-- Node4 -->
<g id="Node000004" class="node">
<title>Node4</title>
<g id="a_Node000004"><a xlink:title=" ">
<polygon fill="#e0e0e0" stroke="#999999" points="314.5,-30 198.5,-30 198.5,0 314.5,0 314.5,-30"/>
<text text-anchor="start" x="206.5" y="-18" font-family="Helvetica,sans-Serif" font-size="10.00">boost/archive/binary</text>
<text text-anchor="middle" x="256.5" y="-7" font-family="Helvetica,sans-Serif" font-size="10.00">_iarchive.hpp</text>
</a>
</g>
</g>
<!-- Node2&#45;&gt;Node4 -->
<g id="edge3_Node000002_Node000004" class="edge">
<title>Node2&#45;&gt;Node4</title>
<g id="a_edge3_Node000002_Node000004"><a xlink:title=" ">
<path fill="none" stroke="#63b8ff" d="M256.5,-71.37C256.5,-63.49 256.5,-51.45 256.5,-40.6"/>
<polygon fill="#63b8ff" stroke="#63b8ff" points="260,-40.36 256.5,-30.36 253,-40.36 260,-40.36"/>
</a>
</g>
</g>
<!-- Node5 -->
<g id="Node000005" class="node">
<title>Node5</title>
<g id="a_Node000005"><a xlink:title=" ">
<polygon fill="#e0e0e0" stroke="#999999" points="448.5,-30 332.5,-30 332.5,0 448.5,0 448.5,-30"/>
<text text-anchor="start" x="340.5" y="-18" font-family="Helvetica,sans-Serif" font-size="10.00">boost/archive/binary</text>
<text text-anchor="middle" x="390.5" y="-7" font-family="Helvetica,sans-Serif" font-size="10.00">_oarchive.hpp</text>
</a>
</g>
</g>
<!-- Node2&#45;&gt;Node5 -->
<g id="edge4_Node000002_Node000005" class="edge">
<title>Node2&#45;&gt;Node5</title>
<g id="a_edge4_Node000002_Node000005"><a xlink:title=" ">
<path fill="none" stroke="#63b8ff" d="M274.57,-71.37C294.3,-61.95 326.46,-46.59 351.91,-34.43"/>
<polygon fill="#63b8ff" stroke="#63b8ff" points="353.43,-37.58 360.95,-30.12 350.41,-31.27 353.43,-37.58"/>
</a>
</g>
</g>
<!-- Node6 -->
<g id="Node000006" class="node">
<title>Node6</title>
<g id="a_Node000006"><a xlink:title=" ">
<polygon fill="#e0e0e0" stroke="#999999" points="180,-24.5 125,-24.5 125,-5.5 180,-5.5 180,-24.5"/>
<text text-anchor="middle" x="152.5" y="-12.5" font-family="Helvetica,sans-Serif" font-size="10.00">fstream</text>
</a>
</g>
</g>
<!-- Node2&#45;&gt;Node6 -->
<g id="edge5_Node000002_Node000006" class="edge">
<title>Node2&#45;&gt;Node6</title>
<g id="a_edge5_Node000002_Node000006"><a xlink:title=" ">
<path fill="none" stroke="#63b8ff" d="M242.47,-71.37C225.26,-60.78 195.84,-42.67 175.35,-30.06"/>
<polygon fill="#63b8ff" stroke="#63b8ff" points="176.99,-26.96 166.64,-24.7 173.32,-32.92 176.99,-26.96"/>
</a>
</g>
</g>
<!-- Node9&#45;&gt;Node4 -->
<g id="edge11_Node000009_Node000004" class="edge">
<title>Node9&#45;&gt;Node4</title>
<g id="a_edge11_Node000009_Node000004"><a xlink:title=" ">
<path fill="none" stroke="#63b8ff" d="M565.94,-70.67C506.65,-61.5 414.21,-46.74 324.63,-30.17"/>
<polygon fill="#63b8ff" stroke="#63b8ff" points="325.05,-26.68 314.57,-28.29 323.77,-33.56 325.05,-26.68"/>
</a>
</g>
</g>
<!-- Node9&#45;&gt;Node5 -->
<g id="edge12_Node000009_Node000005" class="edge">
<title>Node9&#45;&gt;Node5</title>
<g id="a_edge12_Node000009_Node000005"><a xlink:title=" ">
<path fill="none" stroke="#63b8ff" d="M575.49,-65.95C539.22,-56.16 490.65,-43.05 452.39,-32.71"/>
<polygon fill="#63b8ff" stroke="#63b8ff" points="452.96,-29.24 442.39,-30.01 451.13,-36 452.96,-29.24"/>
</a>
</g>
</g>
<!-- Node9&#45;&gt;Node8 -->
<g id="edge17_Node000009_Node000008" class="edge">
<title>Node9&#45;&gt;Node8</title>
<g id="a_edge17_Node000009_Node000008"><a xlink:title=" ">
<path fill="none" stroke="#63b8ff" d="M597,-65.95C572.94,-54.88 539.67,-39.56 516.34,-28.82"/>
<polygon fill="#63b8ff" stroke="#63b8ff" points="517.55,-25.52 507,-24.52 514.62,-31.88 517.55,-25.52"/>
</a>
</g>
</g>
<!-- Node10 -->
<g id="Node000010" class="node">
<title>Node10</title>
<g id="a_Node000010"><a xlink:title=" ">
<polygon fill="#e0e0e0" stroke="#999999" points="1129,-30 1024,-30 1024,0 1129,0 1129,-30"/>
<text text-anchor="start" x="1032" y="-18" font-family="Helvetica,sans-Serif" font-size="10.00">boost/archive/text</text>
<text text-anchor="middle" x="1076.5" y="-7" font-family="Helvetica,sans-Serif" font-size="10.00">_iarchive.hpp</text>
</a>
</g>
</g>
<!-- Node9&#45;&gt;Node10 -->
<g id="edge9_Node000009_Node000010" class="edge">
<title>Node9&#45;&gt;Node10</title>
<g id="a_edge9_Node000009_Node000010"><a xlink:title=" ">
<path fill="none" stroke="#63b8ff" d="M689.02,-67.55C692.22,-67 695.4,-66.48 698.5,-66 835.33,-44.78 873.94,-53.46 1013.45,-30.24"/>
<polygon fill="#63b8ff" stroke="#63b8ff" points="1014.4,-33.63 1023.67,-28.51 1013.23,-26.72 1014.4,-33.63"/>
</a>
</g>
</g>
<!-- Node11 -->
<g id="Node000011" class="node">
<title>Node11</title>
<g id="a_Node000011"><a xlink:title=" ">
<polygon fill="#e0e0e0" stroke="#999999" points="634,-30 529,-30 529,0 634,0 634,-30"/>
<text text-anchor="start" x="537" y="-18" font-family="Helvetica,sans-Serif" font-size="10.00">boost/archive/text</text>
<text text-anchor="middle" x="581.5" y="-7" font-family="Helvetica,sans-Serif" font-size="10.00">_oarchive.hpp</text>
</a>
</g>
</g>
<!-- Node9&#45;&gt;Node11 -->
<g id="edge10_Node000009_Node000011" class="edge">
<title>Node9&#45;&gt;Node11</title>
<g id="a_edge10_Node000009_Node000011"><a xlink:title=" ">
<path fill="none" stroke="#63b8ff" d="M617.29,-65.8C611.51,-57.76 604.16,-47.53 597.62,-38.43"/>
<polygon fill="#63b8ff" stroke="#63b8ff" points="600.36,-36.24 591.68,-30.16 594.67,-40.33 600.36,-36.24"/>
</a>
</g>
</g>
<!-- Node12 -->
<g id="Node000012" class="node">
<title>Node12</title>
<g id="a_Node000012"><a xlink:title=" ">
<polygon fill="#e0e0e0" stroke="#999999" points="696.5,-24.5 652.5,-24.5 652.5,-5.5 696.5,-5.5 696.5,-24.5"/>
<text text-anchor="middle" x="674.5" y="-12.5" font-family="Helvetica,sans-Serif" font-size="10.00">string</text>
</a>
</g>
</g>
<!-- Node9&#45;&gt;Node12 -->
<g id="edge13_Node000009_Node000012" class="edge">
<title>Node9&#45;&gt;Node12</title>
<g id="a_edge13_Node000009_Node000012"><a xlink:title=" ">
<path fill="none" stroke="#63b8ff" d="M637.93,-65.8C645.04,-56.11 654.5,-43.24 662.01,-33.01"/>
<polygon fill="#63b8ff" stroke="#63b8ff" points="664.91,-34.98 668,-24.84 659.26,-30.83 664.91,-34.98"/>
</a>
</g>
</g>
<!-- Node13 -->
<g id="Node000013" class="node">
<title>Node13</title>
<g id="a_Node000013"><a xlink:title=" ">
<polygon fill="#e0e0e0" stroke="#999999" points="762,-24.5 715,-24.5 715,-5.5 762,-5.5 762,-24.5"/>
<text text-anchor="middle" x="738.5" y="-12.5" font-family="Helvetica,sans-Serif" font-size="10.00">cmath</text>
</a>
</g>
</g>
<!-- Node9&#45;&gt;Node13 -->
<g id="edge14_Node000009_Node000013" class="edge">
<title>Node9&#45;&gt;Node13</title>
<g id="a_edge14_Node000009_Node000013"><a xlink:title=" ">
<path fill="none" stroke="#63b8ff" d="M651.86,-65.95C670.64,-55.13 696.45,-40.24 715.01,-29.54"/>
<polygon fill="#63b8ff" stroke="#63b8ff" points="716.81,-32.54 723.73,-24.52 713.32,-26.48 716.81,-32.54"/>
</a>
</g>
</g>
<!-- Node14 -->
<g id="Node000014" class="node">
<title>Node14</title>
<g id="a_Node000014"><a xlink:title=" ">
<polygon fill="#e0e0e0" stroke="#999999" points="844.5,-24.5 780.5,-24.5 780.5,-5.5 844.5,-5.5 844.5,-24.5"/>
<text text-anchor="middle" x="812.5" y="-12.5" font-family="Helvetica,sans-Serif" font-size="10.00">algorithm</text>
</a>
</g>
</g>
<!-- Node9&#45;&gt;Node14 -->
<g id="edge15_Node000009_Node000014" class="edge">
<title>Node9&#45;&gt;Node14</title>
<g id="a_edge15_Node000009_Node000014"><a xlink:title=" ">
<path fill="none" stroke="#63b8ff" d="M668.1,-65.95C701.11,-54.53 747.17,-38.6 778.32,-27.82"/>
<polygon fill="#63b8ff" stroke="#63b8ff" points="779.57,-31.09 787.88,-24.52 777.28,-24.48 779.57,-31.09"/>
</a>
</g>
</g>
<!-- Node15 -->
<g id="Node000015" class="node">
<title>Node15</title>
<g id="a_Node000015"><a xlink:title=" ">
<polygon fill="#e0e0e0" stroke="#999999" points="922.5,-24.5 862.5,-24.5 862.5,-5.5 922.5,-5.5 922.5,-24.5"/>
<text text-anchor="middle" x="892.5" y="-12.5" font-family="Helvetica,sans-Serif" font-size="10.00">iostream</text>
</a>
</g>
</g>
<!-- Node9&#45;&gt;Node15 -->
<g id="edge16_Node000009_Node000015" class="edge">
<title>Node9&#45;&gt;Node15</title>
<g id="a_edge16_Node000009_Node000015"><a xlink:title=" ">
<path fill="none" stroke="#63b8ff" d="M689.16,-67.28C745.06,-55.58 823.19,-38.75 853.5,-30 855.77,-29.34 858.11,-28.62 860.45,-27.87"/>
<polygon fill="#63b8ff" stroke="#63b8ff" points="861.63,-31.16 869.97,-24.63 859.38,-24.54 861.63,-31.16"/>
</a>
</g>
</g>
<!-- Node16 -->
<g id="Node000016" class="node">
<title>Node16</title>
<g id="a_Node000016"><a xlink:title=" ">
<polygon fill="#e0e0e0" stroke="#999999" points="1006,-24.5 941,-24.5 941,-5.5 1006,-5.5 1006,-24.5"/>
<text text-anchor="middle" x="973.5" y="-12.5" font-family="Helvetica,sans-Serif" font-size="10.00">functional</text>
</a>
</g>
</g>
<!-- Node9&#45;&gt;Node16 -->
<g id="edge18_Node000009_Node000016" class="edge">
<title>Node9&#45;&gt;Node16</title>
<g id="a_edge18_Node000009_Node000016"><a xlink:title=" ">
<path fill="none" stroke="#63b8ff" d="M689.04,-67.7C692.24,-67.11 695.41,-66.54 698.5,-66 801.7,-47.86 829.66,-54.66 931.5,-30 934.47,-29.28 937.52,-28.45 940.57,-27.56"/>
<polygon fill="#63b8ff" stroke="#63b8ff" points="941.66,-30.88 950.16,-24.56 939.57,-24.2 941.66,-30.88"/>
</a>
</g>
</g>
</g>
</svg>
